<?xml version="1.0" encoding="UTF-8" standalone="no"?>
<!DOCTYPE svg PUBLIC "-//W3C//DTD SVG 1.1//EN"
 "http://www.w3.org/Graphics/SVG/1.1/DTD/svg11.dtd">
<!-- Generated by graphviz version 2.36.0 (20140111.2315)
 -->
<!-- Title: om/atom.cpp Pages: 1 -->
<svg width="1747pt" height="608pt"
 viewBox="0.00 0.00 1747.00 608.00" xmlns="http://www.w3.org/2000/svg" xmlns:xlink="http://www.w3.org/1999/xlink">
<g id="graph0" class="graph" transform="scale(1 1) rotate(0) translate(4 604)">
<title>om/atom.cpp</title>
<!-- Node1 -->
<g id="node1" class="node"><title>Node1</title>
<polygon fill="#bfbfbf" stroke="black" points="1471.1,-581 1471.1,-599 1544.9,-599 1544.9,-581 1471.1,-581"/>
<text text-anchor="middle" x="1508" y="-587" font-family="Helvetica,sans-Serif" font-size="10.00">om/atom.cpp</text>
</g>
<!-- Node2 -->
<g id="node2" class="node"><title>Node2</title>
<g id="a_node2"><a xlink:href="atom_8hpp.html" target="_top" xlink:title="Om header file. ">
<polygon fill="none" stroke="black" points="1470.82,-525 1470.82,-543 1545.18,-543 1545.18,-525 1470.82,-525"/>
<text text-anchor="middle" x="1508" y="-531" font-family="Helvetica,sans-Serif" font-size="10.00">om/atom.hpp</text>
</a>
</g>
</g>
<!-- Node1&#45;&gt;Node2 -->
<g id="edge1" class="edge"><title>Node1&#45;&gt;Node2</title>
<path fill="none" stroke="midnightblue" d="M1502.94,-580.562C1501.33,-573.308 1500.87,-562.588 1501.57,-553.369"/>
<polygon fill="midnightblue" stroke="midnightblue" points="1505.07,-553.59 1502.99,-543.201 1498.14,-552.619 1505.07,-553.59"/>
</g>
<!-- Node2&#45;&gt;Node1 -->
<g id="edge62" class="edge"><title>Node2&#45;&gt;Node1</title>
<path fill="none" stroke="midnightblue" d="M1513.01,-543.201C1514.66,-550.459 1515.14,-561.313 1514.43,-570.633"/>
<polygon fill="midnightblue" stroke="midnightblue" points="1510.96,-570.178 1513.06,-580.562 1517.9,-571.135 1510.96,-570.178"/>
</g>
<!-- Node3 -->
<g id="node3" class="node"><title>Node3</title>
<g id="a_node3"><a xlink:href="element_8hpp.html" target="_top" xlink:title="Om header file. ">
<polygon fill="none" stroke="black" points="1464.15,-469 1464.15,-487 1551.85,-487 1551.85,-469 1464.15,-469"/>
<text text-anchor="middle" x="1508" y="-475" font-family="Helvetica,sans-Serif" font-size="10.00">om/element.hpp</text>
</a>
</g>
</g>
<!-- Node2&#45;&gt;Node3 -->
<g id="edge2" class="edge"><title>Node2&#45;&gt;Node3</title>
<path fill="none" stroke="midnightblue" d="M1508,-524.562C1508,-517.308 1508,-506.588 1508,-497.369"/>
<polygon fill="midnightblue" stroke="midnightblue" points="1511.5,-497.201 1508,-487.201 1504.5,-497.201 1511.5,-497.201"/>
</g>
<!-- Node4 -->
<g id="node4" class="node"><title>Node4</title>
<g id="a_node4"><a xlink:href="program_8hpp.html" target="_top" xlink:title="Om header file. ">
<polygon fill="none" stroke="black" points="1357.32,-413 1357.32,-431 1446.68,-431 1446.68,-413 1357.32,-413"/>
<text text-anchor="middle" x="1402" y="-419" font-family="Helvetica,sans-Serif" font-size="10.00">om/program.hpp</text>
</a>
</g>
</g>
<!-- Node3&#45;&gt;Node4 -->
<g id="edge3" class="edge"><title>Node3&#45;&gt;Node4</title>
<path fill="none" stroke="midnightblue" d="M1491.9,-468.799C1474.68,-460.026 1447.14,-445.996 1427.08,-435.774"/>
<polygon fill="midnightblue" stroke="midnightblue" points="1428.4,-432.522 1417.9,-431.102 1425.22,-438.76 1428.4,-432.522"/>
</g>
<!-- Node38 -->
<g id="node38" class="node"><title>Node38</title>
<g id="a_node38"><a xlink:href="element_8cpp.html" target="_top" xlink:title="Om source file. ">
<polygon fill="none" stroke="black" points="1464.43,-413 1464.43,-431 1551.57,-431 1551.57,-413 1464.43,-413"/>
<text text-anchor="middle" x="1508" y="-419" font-family="Helvetica,sans-Serif" font-size="10.00">om/element.cpp</text>
</a>
</g>
</g>
<!-- Node3&#45;&gt;Node38 -->
<g id="edge60" class="edge"><title>Node3&#45;&gt;Node38</title>
<path fill="none" stroke="midnightblue" d="M1502.94,-468.562C1501.33,-461.308 1500.87,-450.588 1501.57,-441.369"/>
<polygon fill="midnightblue" stroke="midnightblue" points="1505.07,-441.59 1502.99,-431.201 1498.14,-440.619 1505.07,-441.59"/>
</g>
<!-- Node5 -->
<g id="node5" class="node"><title>Node5</title>
<g id="a_node5"><a xlink:href="consumer_8hpp.html" target="_top" xlink:title="Om header file. ">
<polygon fill="none" stroke="black" points="856.254,-357 856.254,-375 951.746,-375 951.746,-357 856.254,-357"/>
<text text-anchor="middle" x="904" y="-363" font-family="Helvetica,sans-Serif" font-size="10.00">om/consumer.hpp</text>
</a>
</g>
</g>
<!-- Node4&#45;&gt;Node5 -->
<g id="edge4" class="edge"><title>Node4&#45;&gt;Node5</title>
<path fill="none" stroke="midnightblue" d="M1356.93,-416.113C1266.3,-406.286 1062.14,-384.148 961.836,-373.271"/>
<polygon fill="midnightblue" stroke="midnightblue" points="962.197,-369.79 951.878,-372.192 961.443,-376.749 962.197,-369.79"/>
</g>
<!-- Node23 -->
<g id="node23" class="node"><title>Node23</title>
<g id="a_node23"><a xlink:href="giveable_8hpp.html" target="_top" xlink:title="Om header file. ">
<polygon fill="none" stroke="black" points="1175.31,-189 1175.31,-207 1264.69,-207 1264.69,-189 1175.31,-189"/>
<text text-anchor="middle" x="1220" y="-195" font-family="Helvetica,sans-Serif" font-size="10.00">om/giveable.hpp</text>
</a>
</g>
</g>
<!-- Node4&#45;&gt;Node23 -->
<g id="edge30" class="edge"><title>Node4&#45;&gt;Node23</title>
<path fill="none" stroke="midnightblue" d="M1391.01,-412.683C1380.03,-404.105 1362.96,-390.036 1350,-376 1300.08,-321.923 1251.53,-248.762 1230.67,-216.043"/>
<polygon fill="midnightblue" stroke="midnightblue" points="1233.41,-213.835 1225.11,-207.253 1227.49,-217.576 1233.41,-213.835"/>
</g>
<!-- Node30 -->
<g id="node30" class="node"><title>Node30</title>
<g id="a_node30"><a xlink:href="producer_8hpp.html" target="_top" xlink:title="Om header file. ">
<polygon fill="none" stroke="black" points="1282.47,-128 1282.47,-146 1373.53,-146 1373.53,-128 1282.47,-128"/>
<text text-anchor="middle" x="1328" y="-134" font-family="Helvetica,sans-Serif" font-size="10.00">om/producer.hpp</text>
</a>
</g>
</g>
<!-- Node4&#45;&gt;Node30 -->
<g id="edge45" class="edge"><title>Node4&#45;&gt;Node30</title>
<path fill="none" stroke="midnightblue" d="M1397.03,-412.78C1386.73,-394.93 1364,-351.005 1364,-311 1364,-311 1364,-311 1364,-253 1364,-216.879 1347.62,-177.171 1336.96,-155.145"/>
<polygon fill="midnightblue" stroke="midnightblue" points="1340.03,-153.458 1332.41,-146.095 1333.78,-156.602 1340.03,-153.458"/>
</g>
<!-- Node32 -->
<g id="node32" class="node"><title>Node32</title>
<g id="a_node32"><a xlink:href="shareable_8hpp.html" target="_top" xlink:title="Om header file. ">
<polygon fill="none" stroke="black" points="1391.97,-357 1391.97,-375 1488.03,-375 1488.03,-357 1391.97,-357"/>
<text text-anchor="middle" x="1440" y="-363" font-family="Helvetica,sans-Serif" font-size="10.00">om/shareable.hpp</text>
</a>
</g>
</g>
<!-- Node4&#45;&gt;Node32 -->
<g id="edge51" class="edge"><title>Node4&#45;&gt;Node32</title>
<path fill="none" stroke="midnightblue" d="M1407.94,-412.562C1413.38,-404.83 1421.59,-393.16 1428.34,-383.566"/>
<polygon fill="midnightblue" stroke="midnightblue" points="1431.34,-385.394 1434.23,-375.201 1425.61,-381.365 1431.34,-385.394"/>
</g>
<!-- Node37 -->
<g id="node37" class="node"><title>Node37</title>
<g id="a_node37"><a xlink:href="program_8cpp.html" target="_top" xlink:title="Om source file. ">
<polygon fill="none" stroke="black" points="1505.6,-357 1505.6,-375 1594.4,-375 1594.4,-357 1505.6,-357"/>
<text text-anchor="middle" x="1550" y="-363" font-family="Helvetica,sans-Serif" font-size="10.00">om/program.cpp</text>
</a>
</g>
</g>
<!-- Node4&#45;&gt;Node37 -->
<g id="edge58" class="edge"><title>Node4&#45;&gt;Node37</title>
<path fill="none" stroke="midnightblue" d="M1419.17,-412.916C1442.19,-403.743 1483.16,-388.717 1513.22,-378.367"/>
<polygon fill="midnightblue" stroke="midnightblue" points="1514.62,-381.589 1522.96,-375.051 1512.36,-374.962 1514.62,-381.589"/>
</g>
<!-- Node6 -->
<g id="node6" class="node"><title>Node6</title>
<g id="a_node6"><a xlink:href="consumer_8cpp.html" target="_top" xlink:title="Om source file. ">
<polygon fill="none" stroke="black" points="856.535,-301 856.535,-319 951.465,-319 951.465,-301 856.535,-301"/>
<text text-anchor="middle" x="904" y="-307" font-family="Helvetica,sans-Serif" font-size="10.00">om/consumer.cpp</text>
</a>
</g>
</g>
<!-- Node5&#45;&gt;Node6 -->
<g id="edge5" class="edge"><title>Node5&#45;&gt;Node6</title>
<path fill="none" stroke="midnightblue" d="M898.938,-356.562C897.325,-349.308 896.868,-338.588 897.566,-329.369"/>
<polygon fill="midnightblue" stroke="midnightblue" points="901.069,-329.59 898.991,-319.201 894.137,-328.619 901.069,-329.59"/>
</g>
<!-- Node6&#45;&gt;Node5 -->
<g id="edge29" class="edge"><title>Node6&#45;&gt;Node5</title>
<path fill="none" stroke="midnightblue" d="M909.009,-319.201C910.665,-326.459 911.139,-337.313 910.433,-346.633"/>
<polygon fill="midnightblue" stroke="midnightblue" points="906.963,-346.178 909.062,-356.562 913.897,-347.135 906.963,-346.178"/>
</g>
<!-- Node7 -->
<g id="node7" class="node"><title>Node7</title>
<g id="a_node7"><a xlink:href="reader_8hpp.html" target="_top" xlink:title="Om header file. ">
<polygon fill="none" stroke="black" points="438.754,-245 438.754,-263 519.246,-263 519.246,-245 438.754,-245"/>
<text text-anchor="middle" x="479" y="-251" font-family="Helvetica,sans-Serif" font-size="10.00">om/reader.hpp</text>
</a>
</g>
</g>
<!-- Node6&#45;&gt;Node7 -->
<g id="edge6" class="edge"><title>Node6&#45;&gt;Node7</title>
<path fill="none" stroke="midnightblue" d="M856.512,-303.267C787.616,-294.903 655.936,-278.745 544,-264 539.306,-263.382 534.422,-262.727 529.535,-262.064"/>
<polygon fill="midnightblue" stroke="midnightblue" points="529.939,-258.586 519.557,-260.7 528.991,-265.522 529.939,-258.586"/>
</g>
<!-- Node13 -->
<g id="node13" class="node"><title>Node13</title>
<polygon fill="none" stroke="#bfbfbf" points="973.884,-6 973.884,-24 1022.12,-24 1022.12,-6 973.884,-6"/>
<text text-anchor="middle" x="998" y="-12" font-family="Helvetica,sans-Serif" font-size="10.00">cassert</text>
</g>
<!-- Node6&#45;&gt;Node13 -->
<g id="edge27" class="edge"><title>Node6&#45;&gt;Node13</title>
<path fill="none" stroke="midnightblue" d="M856.253,-303.928C761.337,-292.516 558,-260.85 558,-199 558,-199 558,-199 558,-136 558,-52.0714 859.741,-24.8549 963.47,-17.9783"/>
<polygon fill="midnightblue" stroke="midnightblue" points="963.961,-21.4542 973.717,-17.3231 963.514,-14.4685 963.961,-21.4542"/>
</g>
<!-- Node14 -->
<g id="node14" class="node"><title>Node14</title>
<polygon fill="none" stroke="#bfbfbf" points="1180.6,-6 1180.6,-24 1239.4,-24 1239.4,-6 1180.6,-6"/>
<text text-anchor="middle" x="1210" y="-12" font-family="Helvetica,sans-Serif" font-size="10.00">stdexcept</text>
</g>
<!-- Node6&#45;&gt;Node14 -->
<g id="edge28" class="edge"><title>Node6&#45;&gt;Node14</title>
<path fill="none" stroke="midnightblue" d="M951.866,-301.186C1063.65,-281.786 1335.92,-227.485 1382,-152 1402.35,-118.67 1391.57,-93.6534 1364,-66 1333.6,-35.5128 1284.46,-23.6084 1249.88,-18.9639"/>
<polygon fill="midnightblue" stroke="midnightblue" points="1249.99,-15.4531 1239.65,-17.7431 1249.16,-22.4037 1249.99,-15.4531"/>
</g>
<!-- Node8 -->
<g id="node8" class="node"><title>Node8</title>
<g id="a_node8"><a xlink:href="code__point_8hpp.html" target="_top" xlink:title="Om header file. ">
<polygon fill="none" stroke="black" points="428.468,-189 428.468,-207 529.532,-207 529.532,-189 428.468,-189"/>
<text text-anchor="middle" x="479" y="-195" font-family="Helvetica,sans-Serif" font-size="10.00">om/code_point.hpp</text>
</a>
</g>
</g>
<!-- Node7&#45;&gt;Node8 -->
<g id="edge7" class="edge"><title>Node7&#45;&gt;Node8</title>
<path fill="none" stroke="midnightblue" d="M479,-244.562C479,-237.308 479,-226.588 479,-217.369"/>
<polygon fill="midnightblue" stroke="midnightblue" points="482.5,-217.201 479,-207.201 475.5,-217.201 482.5,-217.201"/>
</g>
<!-- Node10 -->
<g id="node10" class="node"><title>Node10</title>
<g id="a_node10"><a xlink:href="default__source_8hpp.html" target="_top" xlink:title="Om header file. ">
<polygon fill="none" stroke="black" points="585.737,-189 585.737,-207 736.263,-207 736.263,-189 585.737,-189"/>
<text text-anchor="middle" x="661" y="-195" font-family="Helvetica,sans-Serif" font-size="10.00">om/source/default_source.hpp</text>
</a>
</g>
</g>
<!-- Node7&#45;&gt;Node10 -->
<g id="edge9" class="edge"><title>Node7&#45;&gt;Node10</title>
<path fill="none" stroke="midnightblue" d="M506.247,-244.916C537.566,-235.623 589.13,-220.324 624.046,-209.964"/>
<polygon fill="midnightblue" stroke="midnightblue" points="625.273,-213.251 633.864,-207.051 623.282,-206.54 625.273,-213.251"/>
</g>
<!-- Node17 -->
<g id="node17" class="node"><title>Node17</title>
<g id="a_node17"><a xlink:href="reader_8cpp.html" target="_top" xlink:title="Om source file. ">
<polygon fill="none" stroke="black" points="317.035,-189 317.035,-207 396.965,-207 396.965,-189 317.035,-189"/>
<text text-anchor="middle" x="357" y="-195" font-family="Helvetica,sans-Serif" font-size="10.00">om/reader.cpp</text>
</a>
</g>
</g>
<!-- Node7&#45;&gt;Node17 -->
<g id="edge18" class="edge"><title>Node7&#45;&gt;Node17</title>
<path fill="none" stroke="midnightblue" d="M455.753,-244.916C433.768,-236.088 401.3,-221.838 379.555,-211.553"/>
<polygon fill="midnightblue" stroke="midnightblue" points="380.922,-208.327 370.394,-207.14 377.884,-214.633 380.922,-208.327"/>
</g>
<!-- Node9 -->
<g id="node9" class="node"><title>Node9</title>
<polygon fill="none" stroke="#bfbfbf" points="427.636,-128 427.636,-146 530.364,-146 530.364,-128 427.636,-128"/>
<text text-anchor="middle" x="479" y="-134" font-family="Helvetica,sans-Serif" font-size="10.00">boost/locale/utf.hpp</text>
</g>
<!-- Node8&#45;&gt;Node9 -->
<g id="edge8" class="edge"><title>Node8&#45;&gt;Node9</title>
<path fill="none" stroke="midnightblue" d="M479,-188.796C479,-180.43 479,-167.171 479,-156.297"/>
<polygon fill="midnightblue" stroke="midnightblue" points="482.5,-156.134 479,-146.134 475.5,-156.134 482.5,-156.134"/>
</g>
<!-- Node11 -->
<g id="node11" class="node"><title>Node11</title>
<g id="a_node11"><a xlink:href="source_2source_8hpp.html" target="_top" xlink:title="Om header file. ">
<polygon fill="none" stroke="black" points="753.53,-128 753.53,-146 868.47,-146 868.47,-128 753.53,-128"/>
<text text-anchor="middle" x="811" y="-134" font-family="Helvetica,sans-Serif" font-size="10.00">om/source/source.hpp</text>
</a>
</g>
</g>
<!-- Node10&#45;&gt;Node11 -->
<g id="edge10" class="edge"><title>Node10&#45;&gt;Node11</title>
<path fill="none" stroke="midnightblue" d="M681.542,-188.92C707.206,-178.826 751.325,-161.472 780.828,-149.868"/>
<polygon fill="midnightblue" stroke="midnightblue" points="782.2,-153.089 790.224,-146.172 779.637,-146.575 782.2,-153.089"/>
</g>
<!-- Node15 -->
<g id="node15" class="node"><title>Node15</title>
<polygon fill="none" stroke="#bfbfbf" points="886.438,-128 886.438,-146 933.562,-146 933.562,-128 886.438,-128"/>
<text text-anchor="middle" x="910" y="-134" font-family="Helvetica,sans-Serif" font-size="10.00">iterator</text>
</g>
<!-- Node10&#45;&gt;Node15 -->
<g id="edge15" class="edge"><title>Node10&#45;&gt;Node15</title>
<path fill="none" stroke="midnightblue" d="M713.669,-188.996C757.864,-181.578 822.348,-169.104 877,-152 879.123,-151.335 881.297,-150.584 883.466,-149.782"/>
<polygon fill="midnightblue" stroke="midnightblue" points="884.784,-153.024 892.77,-146.061 882.185,-146.524 884.784,-153.024"/>
</g>
<!-- Node16 -->
<g id="node16" class="node"><title>Node16</title>
<g id="a_node16"><a xlink:href="default__source_8cpp.html" target="_top" xlink:title="Om source file. ">
<polygon fill="none" stroke="black" points="586.018,-128 586.018,-146 735.982,-146 735.982,-128 586.018,-128"/>
<text text-anchor="middle" x="661" y="-134" font-family="Helvetica,sans-Serif" font-size="10.00">om/source/default_source.cpp</text>
</a>
</g>
</g>
<!-- Node10&#45;&gt;Node16 -->
<g id="edge16" class="edge"><title>Node10&#45;&gt;Node16</title>
<path fill="none" stroke="midnightblue" d="M656.155,-188.796C654.266,-180.43 653.782,-167.171 654.703,-156.297"/>
<polygon fill="midnightblue" stroke="midnightblue" points="658.205,-156.532 656.171,-146.134 651.277,-155.531 658.205,-156.532"/>
</g>
<!-- Node12 -->
<g id="node12" class="node"><title>Node12</title>
<g id="a_node12"><a xlink:href="source_2source_8cpp.html" target="_top" xlink:title="Om source file. ">
<polygon fill="none" stroke="black" points="786.811,-67 786.811,-85 901.189,-85 901.189,-67 786.811,-67"/>
<text text-anchor="middle" x="844" y="-73" font-family="Helvetica,sans-Serif" font-size="10.00">om/source/source.cpp</text>
</a>
</g>
</g>
<!-- Node11&#45;&gt;Node12 -->
<g id="edge11" class="edge"><title>Node11&#45;&gt;Node12</title>
<path fill="none" stroke="midnightblue" d="M810.744,-127.796C813.71,-118.902 821.358,-104.477 828.795,-93.2674"/>
<polygon fill="midnightblue" stroke="midnightblue" points="831.643,-95.3017 834.621,-85.134 825.953,-91.2254 831.643,-95.3017"/>
</g>
<!-- Node12&#45;&gt;Node11 -->
<g id="edge14" class="edge"><title>Node12&#45;&gt;Node11</title>
<path fill="none" stroke="midnightblue" d="M844.28,-85.134C841.338,-93.9994 833.702,-108.418 826.263,-119.645"/>
<polygon fill="midnightblue" stroke="midnightblue" points="823.404,-117.626 820.433,-127.796 829.097,-121.698 823.404,-117.626"/>
</g>
<!-- Node12&#45;&gt;Node13 -->
<g id="edge12" class="edge"><title>Node12&#45;&gt;Node13</title>
<path fill="none" stroke="midnightblue" d="M865.09,-66.92C891.438,-56.8258 936.734,-39.472 967.023,-27.8678"/>
<polygon fill="midnightblue" stroke="midnightblue" points="968.584,-31.0177 976.67,-24.1717 966.08,-24.481 968.584,-31.0177"/>
</g>
<!-- Node12&#45;&gt;Node14 -->
<g id="edge13" class="edge"><title>Node12&#45;&gt;Node14</title>
<path fill="none" stroke="midnightblue" d="M893.741,-66.9816C967.21,-55.1383 1103.26,-33.2061 1170.41,-22.3822"/>
<polygon fill="midnightblue" stroke="midnightblue" points="1171.26,-25.7906 1180.57,-20.7436 1170.14,-18.8798 1171.26,-25.7906"/>
</g>
<!-- Node16&#45;&gt;Node10 -->
<g id="edge17" class="edge"><title>Node16&#45;&gt;Node10</title>
<path fill="none" stroke="midnightblue" d="M665.829,-146.134C667.726,-154.473 668.218,-167.725 667.305,-178.612"/>
<polygon fill="midnightblue" stroke="midnightblue" points="663.8,-178.401 665.845,-188.796 670.729,-179.394 663.8,-178.401"/>
</g>
<!-- Node17&#45;&gt;Node7 -->
<g id="edge26" class="edge"><title>Node17&#45;&gt;Node7</title>
<path fill="none" stroke="midnightblue" d="M380.29,-207.102C402.232,-215.914 434.589,-230.114 456.319,-240.388"/>
<polygon fill="midnightblue" stroke="midnightblue" points="454.952,-243.614 465.48,-244.799 457.988,-237.307 454.952,-243.614"/>
</g>
<!-- Node18 -->
<g id="node18" class="node"><title>Node18</title>
<g id="a_node18"><a xlink:href="operand__symbol_8hpp.html" target="_top" xlink:title="Om header file. ">
<polygon fill="none" stroke="black" points="126.739,-128 126.739,-146 287.261,-146 287.261,-128 126.739,-128"/>
<text text-anchor="middle" x="207" y="-134" font-family="Helvetica,sans-Serif" font-size="10.00">om/symbol/operand_symbol.hpp</text>
</a>
</g>
</g>
<!-- Node17&#45;&gt;Node18 -->
<g id="edge19" class="edge"><title>Node17&#45;&gt;Node18</title>
<path fill="none" stroke="midnightblue" d="M336.458,-188.92C310.794,-178.826 266.675,-161.472 237.172,-149.868"/>
<polygon fill="midnightblue" stroke="midnightblue" points="238.363,-146.575 227.776,-146.172 235.8,-153.089 238.363,-146.575"/>
</g>
<!-- Node21 -->
<g id="node21" class="node"><title>Node21</title>
<g id="a_node21"><a xlink:href="operator__symbol_8hpp.html" target="_top" xlink:title="Om header file. ">
<polygon fill="none" stroke="black" points="304.815,-123 304.815,-151 409.185,-151 409.185,-123 304.815,-123"/>
<text text-anchor="start" x="312.815" y="-139" font-family="Helvetica,sans-Serif" font-size="10.00">om/symbol/operator</text>
<text text-anchor="middle" x="357" y="-129" font-family="Helvetica,sans-Serif" font-size="10.00">_symbol.hpp</text>
</a>
</g>
</g>
<!-- Node17&#45;&gt;Node21 -->
<g id="edge22" class="edge"><title>Node17&#45;&gt;Node21</title>
<path fill="none" stroke="midnightblue" d="M357,-188.796C357,-181.711 357,-171.115 357,-161.431"/>
<polygon fill="midnightblue" stroke="midnightblue" points="360.5,-161.121 357,-151.121 353.5,-161.122 360.5,-161.121"/>
</g>
<!-- Node22 -->
<g id="node22" class="node"><title>Node22</title>
<g id="a_node22"><a xlink:href="separator__symbol_8hpp.html" target="_top" xlink:title="Om header file. ">
<polygon fill="none" stroke="black" points="-0.68457,-123 -0.68457,-151 108.685,-151 108.685,-123 -0.68457,-123"/>
<text text-anchor="start" x="7.31543" y="-139" font-family="Helvetica,sans-Serif" font-size="10.00">om/symbol/separator</text>
<text text-anchor="middle" x="54" y="-129" font-family="Helvetica,sans-Serif" font-size="10.00">_symbol.hpp</text>
</a>
</g>
</g>
<!-- Node17&#45;&gt;Node22 -->
<g id="edge24" class="edge"><title>Node17&#45;&gt;Node22</title>
<path fill="none" stroke="midnightblue" d="M316.757,-189.794C271.243,-181.562 194.656,-167.463 118.976,-152.163"/>
<polygon fill="midnightblue" stroke="midnightblue" points="119.287,-148.655 108.79,-150.096 117.894,-155.515 119.287,-148.655"/>
</g>
<!-- Node19 -->
<g id="node19" class="node"><title>Node19</title>
<g id="a_node19"><a xlink:href="macro_8hpp.html" target="_top" xlink:title="Om header file. ">
<polygon fill="none" stroke="black" points="167.042,-67 167.042,-85 246.958,-85 246.958,-67 167.042,-67"/>
<text text-anchor="middle" x="207" y="-73" font-family="Helvetica,sans-Serif" font-size="10.00">om/macro.hpp</text>
</a>
</g>
</g>
<!-- Node18&#45;&gt;Node19 -->
<g id="edge20" class="edge"><title>Node18&#45;&gt;Node19</title>
<path fill="none" stroke="midnightblue" d="M207,-127.796C207,-119.43 207,-106.171 207,-95.2974"/>
<polygon fill="midnightblue" stroke="midnightblue" points="210.5,-95.134 207,-85.134 203.5,-95.1341 210.5,-95.134"/>
</g>
<!-- Node20 -->
<g id="node20" class="node"><title>Node20</title>
<polygon fill="none" stroke="#bfbfbf" points="156.2,-1 156.2,-29 257.8,-29 257.8,-1 156.2,-1"/>
<text text-anchor="start" x="164.2" y="-17" font-family="Helvetica,sans-Serif" font-size="10.00">boost/preprocessor</text>
<text text-anchor="middle" x="207" y="-7" font-family="Helvetica,sans-Serif" font-size="10.00">/stringize.hpp</text>
</g>
<!-- Node19&#45;&gt;Node20 -->
<g id="edge21" class="edge"><title>Node19&#45;&gt;Node20</title>
<path fill="none" stroke="midnightblue" d="M207,-66.7963C207,-59.7107 207,-49.1152 207,-39.4315"/>
<polygon fill="midnightblue" stroke="midnightblue" points="210.5,-39.1215 207,-29.1215 203.5,-39.1215 210.5,-39.1215"/>
</g>
<!-- Node21&#45;&gt;Node19 -->
<g id="edge23" class="edge"><title>Node21&#45;&gt;Node19</title>
<path fill="none" stroke="midnightblue" d="M323.71,-122.906C297.803,-112.716 262.161,-98.6966 237.101,-88.8399"/>
<polygon fill="midnightblue" stroke="midnightblue" points="238.316,-85.5567 227.729,-85.1534 235.754,-92.0709 238.316,-85.5567"/>
</g>
<!-- Node22&#45;&gt;Node19 -->
<g id="edge25" class="edge"><title>Node22&#45;&gt;Node19</title>
<path fill="none" stroke="midnightblue" d="M87.9557,-122.906C114.381,-112.716 150.736,-98.6966 176.297,-88.8399"/>
<polygon fill="midnightblue" stroke="midnightblue" points="177.786,-92.017 185.857,-85.1534 175.267,-85.4858 177.786,-92.017"/>
</g>
<!-- Node24 -->
<g id="node24" class="node"><title>Node24</title>
<g id="a_node24"><a xlink:href="copyable_8hpp.html" target="_top" xlink:title="Om header file. ">
<polygon fill="none" stroke="black" points="951.919,-128 951.919,-146 1044.08,-146 1044.08,-128 951.919,-128"/>
<text text-anchor="middle" x="998" y="-134" font-family="Helvetica,sans-Serif" font-size="10.00">om/copyable.hpp</text>
</a>
</g>
</g>
<!-- Node23&#45;&gt;Node24 -->
<g id="edge31" class="edge"><title>Node23&#45;&gt;Node24</title>
<path fill="none" stroke="midnightblue" d="M1189.6,-188.92C1150.27,-178.467 1081.65,-160.23 1038.09,-148.654"/>
<polygon fill="midnightblue" stroke="midnightblue" points="1038.95,-145.263 1028.39,-146.077 1037.16,-152.028 1038.95,-145.263"/>
</g>
<!-- Node27 -->
<g id="node27" class="node"><title>Node27</title>
<g id="a_node27"><a xlink:href="moveable_8hpp.html" target="_top" xlink:title="Om header file. ">
<polygon fill="none" stroke="black" points="1062.25,-128 1062.25,-146 1157.75,-146 1157.75,-128 1062.25,-128"/>
<text text-anchor="middle" x="1110" y="-134" font-family="Helvetica,sans-Serif" font-size="10.00">om/moveable.hpp</text>
</a>
</g>
</g>
<!-- Node23&#45;&gt;Node27 -->
<g id="edge37" class="edge"><title>Node23&#45;&gt;Node27</title>
<path fill="none" stroke="midnightblue" d="M1204.7,-188.796C1186.4,-178.977 1155.53,-162.418 1134.02,-150.885"/>
<polygon fill="midnightblue" stroke="midnightblue" points="1135.63,-147.776 1125.17,-146.134 1132.32,-153.945 1135.63,-147.776"/>
</g>
<!-- Node29 -->
<g id="node29" class="node"><title>Node29</title>
<g id="a_node29"><a xlink:href="giveable_8cpp.html" target="_top" xlink:title="Om source file. ">
<polygon fill="none" stroke="black" points="1175.59,-128 1175.59,-146 1264.41,-146 1264.41,-128 1175.59,-128"/>
<text text-anchor="middle" x="1220" y="-134" font-family="Helvetica,sans-Serif" font-size="10.00">om/giveable.cpp</text>
</a>
</g>
</g>
<!-- Node23&#45;&gt;Node29 -->
<g id="edge43" class="edge"><title>Node23&#45;&gt;Node29</title>
<path fill="none" stroke="midnightblue" d="M1215.16,-188.796C1213.27,-180.43 1212.78,-167.171 1213.7,-156.297"/>
<polygon fill="midnightblue" stroke="midnightblue" points="1217.21,-156.532 1215.17,-146.134 1210.28,-155.531 1217.21,-156.532"/>
</g>
<!-- Node25 -->
<g id="node25" class="node"><title>Node25</title>
<polygon fill="none" stroke="#bfbfbf" points="1175.94,-67 1175.94,-85 1228.06,-85 1228.06,-67 1175.94,-67"/>
<text text-anchor="middle" x="1202" y="-73" font-family="Helvetica,sans-Serif" font-size="10.00">memory</text>
</g>
<!-- Node24&#45;&gt;Node25 -->
<g id="edge32" class="edge"><title>Node24&#45;&gt;Node25</title>
<path fill="none" stroke="midnightblue" d="M1025.94,-127.92C1062.35,-117.388 1126.1,-98.9527 1166.07,-87.3912"/>
<polygon fill="midnightblue" stroke="midnightblue" points="1167.06,-90.7495 1175.69,-84.6089 1165.11,-84.0251 1167.06,-90.7495"/>
</g>
<!-- Node26 -->
<g id="node26" class="node"><title>Node26</title>
<g id="a_node26"><a xlink:href="copyable_8cpp.html" target="_top" xlink:title="Om source file. ">
<polygon fill="none" stroke="black" points="952.2,-67 952.2,-85 1043.8,-85 1043.8,-67 952.2,-67"/>
<text text-anchor="middle" x="998" y="-73" font-family="Helvetica,sans-Serif" font-size="10.00">om/copyable.cpp</text>
</a>
</g>
</g>
<!-- Node24&#45;&gt;Node26 -->
<g id="edge33" class="edge"><title>Node24&#45;&gt;Node26</title>
<path fill="none" stroke="midnightblue" d="M993.155,-127.796C991.266,-119.43 990.782,-106.171 991.703,-95.2974"/>
<polygon fill="midnightblue" stroke="midnightblue" points="995.205,-95.5317 993.171,-85.134 988.277,-94.5308 995.205,-95.5317"/>
</g>
<!-- Node26&#45;&gt;Node13 -->
<g id="edge34" class="edge"><title>Node26&#45;&gt;Node13</title>
<path fill="none" stroke="midnightblue" d="M998,-66.7963C998,-58.4303 998,-45.1713 998,-34.2974"/>
<polygon fill="midnightblue" stroke="midnightblue" points="1001.5,-34.134 998,-24.134 994.5,-34.1341 1001.5,-34.134"/>
</g>
<!-- Node26&#45;&gt;Node14 -->
<g id="edge35" class="edge"><title>Node26&#45;&gt;Node14</title>
<path fill="none" stroke="midnightblue" d="M1027.03,-66.92C1064.43,-56.5114 1129.57,-38.3838 1171.19,-26.8006"/>
<polygon fill="midnightblue" stroke="midnightblue" points="1172.28,-30.1299 1180.98,-24.0769 1170.41,-23.3862 1172.28,-30.1299"/>
</g>
<!-- Node26&#45;&gt;Node24 -->
<g id="edge36" class="edge"><title>Node26&#45;&gt;Node24</title>
<path fill="none" stroke="midnightblue" d="M1002.83,-85.134C1004.73,-93.4728 1005.22,-106.725 1004.31,-117.612"/>
<polygon fill="midnightblue" stroke="midnightblue" points="1000.8,-117.401 1002.84,-127.796 1007.73,-118.394 1000.8,-117.401"/>
</g>
<!-- Node27&#45;&gt;Node25 -->
<g id="edge38" class="edge"><title>Node27&#45;&gt;Node25</title>
<path fill="none" stroke="midnightblue" d="M1122.79,-127.796C1137.76,-118.197 1162.77,-102.157 1180.69,-90.6686"/>
<polygon fill="midnightblue" stroke="midnightblue" points="1182.79,-93.4786 1189.32,-85.134 1179.01,-87.5862 1182.79,-93.4786"/>
</g>
<!-- Node28 -->
<g id="node28" class="node"><title>Node28</title>
<g id="a_node28"><a xlink:href="moveable_8cpp.html" target="_top" xlink:title="Om source file. ">
<polygon fill="none" stroke="black" points="1062.53,-67 1062.53,-85 1157.47,-85 1157.47,-67 1062.53,-67"/>
<text text-anchor="middle" x="1110" y="-73" font-family="Helvetica,sans-Serif" font-size="10.00">om/moveable.cpp</text>
</a>
</g>
</g>
<!-- Node27&#45;&gt;Node28 -->
<g id="edge39" class="edge"><title>Node27&#45;&gt;Node28</title>
<path fill="none" stroke="midnightblue" d="M1105.16,-127.796C1103.27,-119.43 1102.78,-106.171 1103.7,-95.2974"/>
<polygon fill="midnightblue" stroke="midnightblue" points="1107.21,-95.5317 1105.17,-85.134 1100.28,-94.5308 1107.21,-95.5317"/>
</g>
<!-- Node28&#45;&gt;Node13 -->
<g id="edge40" class="edge"><title>Node28&#45;&gt;Node13</title>
<path fill="none" stroke="midnightblue" d="M1094.43,-66.7963C1075.79,-56.9772 1044.35,-40.418 1022.46,-28.8855"/>
<polygon fill="midnightblue" stroke="midnightblue" points="1023.92,-25.6982 1013.44,-24.134 1020.66,-31.8914 1023.92,-25.6982"/>
</g>
<!-- Node28&#45;&gt;Node14 -->
<g id="edge41" class="edge"><title>Node28&#45;&gt;Node14</title>
<path fill="none" stroke="midnightblue" d="M1123.9,-66.7963C1140.32,-57.1093 1167.86,-40.8623 1187.37,-29.3536"/>
<polygon fill="midnightblue" stroke="midnightblue" points="1189.38,-32.23 1196.21,-24.134 1185.82,-26.2011 1189.38,-32.23"/>
</g>
<!-- Node28&#45;&gt;Node27 -->
<g id="edge42" class="edge"><title>Node28&#45;&gt;Node27</title>
<path fill="none" stroke="midnightblue" d="M1114.83,-85.134C1116.73,-93.4728 1117.22,-106.725 1116.31,-117.612"/>
<polygon fill="midnightblue" stroke="midnightblue" points="1112.8,-117.401 1114.84,-127.796 1119.73,-118.394 1112.8,-117.401"/>
</g>
<!-- Node29&#45;&gt;Node23 -->
<g id="edge44" class="edge"><title>Node29&#45;&gt;Node23</title>
<path fill="none" stroke="midnightblue" d="M1224.83,-146.134C1226.73,-154.473 1227.22,-167.725 1226.31,-178.612"/>
<polygon fill="midnightblue" stroke="midnightblue" points="1222.8,-178.401 1224.84,-188.796 1229.73,-179.394 1222.8,-178.401"/>
</g>
<!-- Node30&#45;&gt;Node25 -->
<g id="edge46" class="edge"><title>Node30&#45;&gt;Node25</title>
<path fill="none" stroke="midnightblue" d="M1310.74,-127.92C1289.56,-118.001 1253.41,-101.073 1228.65,-89.4784"/>
<polygon fill="midnightblue" stroke="midnightblue" points="1229.99,-86.2427 1219.45,-85.1717 1227.02,-92.5822 1229.99,-86.2427"/>
</g>
<!-- Node31 -->
<g id="node31" class="node"><title>Node31</title>
<g id="a_node31"><a xlink:href="producer_8cpp.html" target="_top" xlink:title="Om source file. ">
<polygon fill="none" stroke="black" points="1264.75,-67 1264.75,-85 1355.25,-85 1355.25,-67 1264.75,-67"/>
<text text-anchor="middle" x="1310" y="-73" font-family="Helvetica,sans-Serif" font-size="10.00">om/producer.cpp</text>
</a>
</g>
</g>
<!-- Node30&#45;&gt;Node31 -->
<g id="edge47" class="edge"><title>Node30&#45;&gt;Node31</title>
<path fill="none" stroke="midnightblue" d="M1320.65,-127.796C1316.21,-119.43 1311.68,-106.171 1309.28,-95.2974"/>
<polygon fill="midnightblue" stroke="midnightblue" points="1312.69,-94.4524 1307.65,-85.134 1305.78,-95.5626 1312.69,-94.4524"/>
</g>
<!-- Node31&#45;&gt;Node13 -->
<g id="edge48" class="edge"><title>Node31&#45;&gt;Node13</title>
<path fill="none" stroke="midnightblue" d="M1267.6,-66.9816C1205.17,-55.1765 1089.73,-33.3473 1032.3,-22.4871"/>
<polygon fill="midnightblue" stroke="midnightblue" points="1032.76,-19.011 1022.28,-20.5918 1031.46,-25.8891 1032.76,-19.011"/>
</g>
<!-- Node31&#45;&gt;Node14 -->
<g id="edge49" class="edge"><title>Node31&#45;&gt;Node14</title>
<path fill="none" stroke="midnightblue" d="M1296.1,-66.7963C1279.68,-57.1093 1252.14,-40.8623 1232.63,-29.3536"/>
<polygon fill="midnightblue" stroke="midnightblue" points="1234.18,-26.2011 1223.79,-24.134 1230.62,-32.23 1234.18,-26.2011"/>
</g>
<!-- Node31&#45;&gt;Node30 -->
<g id="edge50" class="edge"><title>Node31&#45;&gt;Node30</title>
<path fill="none" stroke="midnightblue" d="M1317.31,-85.134C1321.75,-93.4728 1326.29,-106.725 1328.7,-117.612"/>
<polygon fill="midnightblue" stroke="midnightblue" points="1325.29,-118.483 1330.34,-127.796 1332.2,-117.366 1325.29,-118.483"/>
</g>
<!-- Node33 -->
<g id="node33" class="node"><title>Node33</title>
<polygon fill="none" stroke="#bfbfbf" points="1505.88,-301 1505.88,-319 1554.12,-319 1554.12,-301 1505.88,-301"/>
<text text-anchor="middle" x="1530" y="-307" font-family="Helvetica,sans-Serif" font-size="10.00">cstddef</text>
</g>
<!-- Node32&#45;&gt;Node33 -->
<g id="edge52" class="edge"><title>Node32&#45;&gt;Node33</title>
<path fill="none" stroke="midnightblue" d="M1453.67,-356.799C1468.02,-348.185 1490.83,-334.504 1507.77,-324.335"/>
<polygon fill="midnightblue" stroke="midnightblue" points="1509.72,-327.248 1516.5,-319.102 1506.12,-321.245 1509.72,-327.248"/>
</g>
<!-- Node34 -->
<g id="node34" class="node"><title>Node34</title>
<g id="a_node34"><a xlink:href="shareable_8cpp.html" target="_top" xlink:title="Om source file. ">
<polygon fill="none" stroke="black" points="1392.25,-301 1392.25,-319 1487.75,-319 1487.75,-301 1392.25,-301"/>
<text text-anchor="middle" x="1440" y="-307" font-family="Helvetica,sans-Serif" font-size="10.00">om/shareable.cpp</text>
</a>
</g>
</g>
<!-- Node32&#45;&gt;Node34 -->
<g id="edge53" class="edge"><title>Node32&#45;&gt;Node34</title>
<path fill="none" stroke="midnightblue" d="M1434.94,-356.562C1433.33,-349.308 1432.87,-338.588 1433.57,-329.369"/>
<polygon fill="midnightblue" stroke="midnightblue" points="1437.07,-329.59 1434.99,-319.201 1430.14,-328.619 1437.07,-329.59"/>
</g>
<!-- Node34&#45;&gt;Node14 -->
<g id="edge54" class="edge"><title>Node34&#45;&gt;Node14</title>
<path fill="none" stroke="midnightblue" d="M1440,-300.995C1440,-282.849 1440,-237.194 1440,-199 1440,-199 1440,-199 1440,-136 1440,-103.111 1440.3,-88.1597 1416,-66 1391.91,-44.0319 1302.48,-28.5209 1249.7,-21.0526"/>
<polygon fill="midnightblue" stroke="midnightblue" points="1250.05,-17.5675 1239.66,-19.6666 1249.09,-24.5017 1250.05,-17.5675"/>
</g>
<!-- Node34&#45;&gt;Node32 -->
<g id="edge57" class="edge"><title>Node34&#45;&gt;Node32</title>
<path fill="none" stroke="midnightblue" d="M1445.01,-319.201C1446.66,-326.459 1447.14,-337.313 1446.43,-346.633"/>
<polygon fill="midnightblue" stroke="midnightblue" points="1442.96,-346.178 1445.06,-356.562 1449.9,-347.135 1442.96,-346.178"/>
</g>
<!-- Node35 -->
<g id="node35" class="node"><title>Node35</title>
<polygon fill="none" stroke="#bfbfbf" points="1606.62,-245 1606.62,-263 1739.38,-263 1739.38,-245 1606.62,-245"/>
<text text-anchor="middle" x="1673" y="-251" font-family="Helvetica,sans-Serif" font-size="10.00">boost/checked_delete.hpp</text>
</g>
<!-- Node34&#45;&gt;Node35 -->
<g id="edge55" class="edge"><title>Node34&#45;&gt;Node35</title>
<path fill="none" stroke="midnightblue" d="M1474.63,-300.974C1515.53,-291.496 1583.64,-275.71 1628.44,-265.328"/>
<polygon fill="midnightblue" stroke="midnightblue" points="1629.23,-268.738 1638.18,-263.07 1627.65,-261.918 1629.23,-268.738"/>
</g>
<!-- Node36 -->
<g id="node36" class="node"><title>Node36</title>
<polygon fill="none" stroke="#bfbfbf" points="1467.74,-245 1467.74,-263 1588.26,-263 1588.26,-245 1467.74,-245"/>
<text text-anchor="middle" x="1528" y="-251" font-family="Helvetica,sans-Serif" font-size="10.00">boost/integer_traits.hpp</text>
</g>
<!-- Node34&#45;&gt;Node36 -->
<g id="edge56" class="edge"><title>Node34&#45;&gt;Node36</title>
<path fill="none" stroke="midnightblue" d="M1453.37,-300.799C1467.4,-292.185 1489.7,-278.504 1506.27,-268.335"/>
<polygon fill="midnightblue" stroke="midnightblue" points="1508.1,-271.315 1514.8,-263.102 1504.44,-265.349 1508.1,-271.315"/>
</g>
<!-- Node37&#45;&gt;Node4 -->
<g id="edge59" class="edge"><title>Node37&#45;&gt;Node4</title>
<path fill="none" stroke="midnightblue" d="M1532.69,-375.14C1509.66,-384.309 1468.85,-399.277 1438.85,-409.606"/>
<polygon fill="midnightblue" stroke="midnightblue" points="1437.48,-406.378 1429.14,-412.916 1439.73,-413.004 1437.48,-406.378"/>
</g>
<!-- Node38&#45;&gt;Node3 -->
<g id="edge61" class="edge"><title>Node38&#45;&gt;Node3</title>
<path fill="none" stroke="midnightblue" d="M1513.01,-431.201C1514.66,-438.459 1515.14,-449.313 1514.43,-458.633"/>
<polygon fill="midnightblue" stroke="midnightblue" points="1510.96,-458.178 1513.06,-468.562 1517.9,-459.135 1510.96,-458.178"/>
</g>
</g>
</svg>
