<?xml version="1.0" encoding="UTF-8" standalone="no"?>
<!DOCTYPE svg PUBLIC "-//W3C//DTD SVG 1.1//EN"
 "http://www.w3.org/Graphics/SVG/1.1/DTD/svg11.dtd">
<!-- Generated by graphviz version 2.34.0 (20130907.0228)
 -->
<!-- Title: om/operation/back_pull_term_operation.hpp Pages: 1 -->
<svg width="126pt" height="112pt"
 viewBox="0.00 0.00 126.00 112.00" xmlns="http://www.w3.org/2000/svg" xmlns:xlink="http://www.w3.org/1999/xlink">
<g id="graph0" class="graph" transform="scale(1 1) rotate(0) translate(4 108)">
<title>om/operation/back_pull_term_operation.hpp</title>
<!-- Node1 -->
<g id="node1" class="node"><title>Node1</title>
<polygon fill="#bfbfbf" stroke="black" points="-0.699219,-71 -0.699219,-103 118.699,-103 118.699,-71 -0.699219,-71"/>
<text text-anchor="start" x="7.30078" y="-89" font-family="Helvetica,sans-Serif" font-size="10.00">om/operation/back_pull</text>
<text text-anchor="middle" x="59" y="-77" font-family="Helvetica,sans-Serif" font-size="10.00">_term_operation.hpp</text>
</g>
<!-- Node2 -->
<g id="node2" class="node"><title>Node2</title>
<g id="a_node2"><a xlink:href="back__pull__term__operation_8cpp.html" target="_top" xlink:title="Om source file. ">
<polygon fill="none" stroke="black" points="-0.699219,-1 -0.699219,-33 118.699,-33 118.699,-1 -0.699219,-1"/>
<text text-anchor="start" x="7.30078" y="-19" font-family="Helvetica,sans-Serif" font-size="10.00">om/operation/back_pull</text>
<text text-anchor="middle" x="59" y="-7" font-family="Helvetica,sans-Serif" font-size="10.00">_term_operation.cpp</text>
</a>
</g>
</g>
<!-- Node1&#45;&gt;Node2 -->
<g id="edge1" class="edge"><title>Node1&#45;&gt;Node2</title>
<path fill="none" stroke="midnightblue" d="M52.4608,-60.9196C52.0088,-51.5597 52.2836,-41.2293 53.2851,-33.0492"/>
<polygon fill="midnightblue" stroke="midnightblue" points="48.9743,-61.2281 53.28,-70.9086 55.9509,-60.656 48.9743,-61.2281"/>
</g>
<!-- Node2&#45;&gt;Node1 -->
<g id="edge2" class="edge"><title>Node2&#45;&gt;Node1</title>
<path fill="none" stroke="midnightblue" d="M65.5368,-43.0321C65.9913,-52.3887 65.7191,-62.7211 64.72,-70.9086"/>
<polygon fill="midnightblue" stroke="midnightblue" points="69.0237,-42.7283 64.7149,-33.0492 62.0474,-43.3027 69.0237,-42.7283"/>
</g>
</g>
</svg>
