<?xml version="1.0" encoding="UTF-8" standalone="no"?>
<!DOCTYPE svg PUBLIC "-//W3C//DTD SVG 1.1//EN"
 "http://www.w3.org/Graphics/SVG/1.1/DTD/svg11.dtd">
<!-- Generated by graphviz version 2.30.1 (20130221.2233)
 -->
<!-- Title: code/om/operations/back_pull_element_operation.cpp Pages: 1 -->
<svg width="176pt" height="228pt"
 viewBox="0.00 0.00 176.00 228.00" xmlns="http://www.w3.org/2000/svg" xmlns:xlink="http://www.w3.org/1999/xlink">
<g id="graph0" class="graph" transform="scale(1 1) rotate(0) translate(4 224)">
<title>code/om/operations/back_pull_element_operation.cpp</title>
<!-- Node1 -->
<g id="node1" class="node"><title>Node1</title>
<polygon fill="#bfbfbf" stroke="black" points="-0.164551,-187 -0.164551,-219 168.165,-219 168.165,-187 -0.164551,-187"/>
<text text-anchor="start" x="7.83545" y="-205" font-family="Helvetica,sans-Serif" font-size="10.00">code/om/operations</text>
<text text-anchor="middle" x="84" y="-193" font-family="Helvetica,sans-Serif" font-size="10.00">/back_pull_element_operation.cpp</text>
</g>
<!-- Node2 -->
<g id="node2" class="node"><title>Node2</title>
<g id="a_node2"><a xlink:href="back__pull__element__operation_8hpp.html" target="_top" xlink:title="Om header file.">
<polygon fill="none" stroke="black" points="11.5054,-117 11.5054,-149 156.495,-149 156.495,-117 11.5054,-117"/>
<text text-anchor="start" x="19.5054" y="-135" font-family="Helvetica,sans-Serif" font-size="10.00">om/operations/back</text>
<text text-anchor="middle" x="84" y="-123" font-family="Helvetica,sans-Serif" font-size="10.00">_pull_element_operation.hpp</text>
</a>
</g>
</g>
<!-- Node1&#45;&gt;Node2 -->
<g id="edge1" class="edge"><title>Node1&#45;&gt;Node2</title>
<path fill="none" stroke="midnightblue" d="M78.28,-186.909C77.2809,-178.721 77.0087,-168.389 77.4632,-159.032"/>
<polygon fill="midnightblue" stroke="midnightblue" points="80.9526,-159.303 78.2851,-149.049 73.9763,-158.728 80.9526,-159.303"/>
</g>
<!-- Node3 -->
<g id="node3" class="node"><title>Node3</title>
<g id="a_node3"><a xlink:href="definition_8hpp.html" target="_top" xlink:title="Om header file.">
<polygon fill="none" stroke="black" points="37.9189,-59 37.9189,-79 130.081,-79 130.081,-59 37.9189,-59"/>
<text text-anchor="middle" x="84" y="-65" font-family="Helvetica,sans-Serif" font-size="10.00">om/definition.hpp</text>
</a>
</g>
</g>
<!-- Node2&#45;&gt;Node3 -->
<g id="edge2" class="edge"><title>Node2&#45;&gt;Node3</title>
<path fill="none" stroke="midnightblue" d="M84,-116.992C84,-108.726 84,-98.3728 84,-89.4891"/>
<polygon fill="midnightblue" stroke="midnightblue" points="87.5001,-89.2904 84,-79.2904 80.5001,-89.2904 87.5001,-89.2904"/>
</g>
<!-- Node2&#45;&gt;Node1 -->
<g id="edge5" class="edge"><title>Node2&#45;&gt;Node1</title>
<path fill="none" stroke="midnightblue" d="M89.7149,-149.049C90.7164,-157.229 90.9912,-167.56 90.5392,-176.92"/>
<polygon fill="midnightblue" stroke="midnightblue" points="87.0491,-176.656 89.72,-186.909 94.0257,-177.228 87.0491,-176.656"/>
</g>
<!-- Node4 -->
<g id="node4" class="node"><title>Node4</title>
<g id="a_node4"><a xlink:href="definition_8cpp.html" target="_top" xlink:title="Om source file.">
<polygon fill="none" stroke="black" points="38.1997,-1 38.1997,-21 129.8,-21 129.8,-1 38.1997,-1"/>
<text text-anchor="middle" x="84" y="-7" font-family="Helvetica,sans-Serif" font-size="10.00">om/definition.cpp</text>
</a>
</g>
</g>
<!-- Node3&#45;&gt;Node4 -->
<g id="edge3" class="edge"><title>Node3&#45;&gt;Node4</title>
<path fill="none" stroke="midnightblue" d="M78.8337,-58.7527C77.3076,-51.2504 76.8844,-40.4238 77.5643,-31.0781"/>
<polygon fill="midnightblue" stroke="midnightblue" points="81.0461,-31.4439 78.869,-21.0752 74.1049,-30.5385 81.0461,-31.4439"/>
</g>
<!-- Node4&#45;&gt;Node3 -->
<g id="edge4" class="edge"><title>Node4&#45;&gt;Node3</title>
<path fill="none" stroke="midnightblue" d="M89.131,-21.0752C90.674,-28.5262 91.1141,-39.3384 90.4512,-48.7065"/>
<polygon fill="midnightblue" stroke="midnightblue" points="86.9633,-48.3895 89.1663,-58.7527 93.9067,-49.2776 86.9633,-48.3895"/>
</g>
</g>
</svg>
