<?xml version="1.0" encoding="UTF-8" standalone="no"?>
<!DOCTYPE svg PUBLIC "-//W3C//DTD SVG 1.1//EN"
 "http://www.w3.org/Graphics/SVG/1.1/DTD/svg11.dtd">
<!-- Generated by graphviz version 2.28.0 (20120817.0054)
 -->
<!-- Title: code/om/operations/back_pull_term_operation.cpp Pages: 1 -->
<svg width="154pt" height="220pt"
 viewBox="0.00 0.00 154.00 220.00" xmlns="http://www.w3.org/2000/svg" xmlns:xlink="http://www.w3.org/1999/xlink">
<g id="graph1" class="graph" transform="scale(1 1) rotate(0) translate(4 216)">
<title>code/om/operations/back_pull_term_operation.cpp</title>
<!-- Node1 -->
<g id="node1" class="node"><title>Node1</title>
<polygon fill="#bfbfbf" stroke="black" points="0,-181 0,-211 146,-211 146,-181 0,-181"/>
<text text-anchor="start" x="8" y="-199" font-family="Helvetica,sans-Serif" font-size="10.00">code/om/operations</text>
<text text-anchor="middle" x="73" y="-188" font-family="Helvetica,sans-Serif" font-size="10.00">/back_pull_term_operation.cpp</text>
</g>
<!-- Node2 -->
<g id="node3" class="node"><title>Node2</title>
<a xlink:href="back__pull__term__operation_8hpp.html" target="_top" xlink:title="Om hpp file.">
<polygon fill="none" stroke="black" points="12,-113 12,-143 134,-143 134,-113 12,-113"/>
<text text-anchor="start" x="20" y="-131" font-family="Helvetica,sans-Serif" font-size="10.00">om/operations/back</text>
<text text-anchor="middle" x="73" y="-120" font-family="Helvetica,sans-Serif" font-size="10.00">_pull_term_operation.hpp</text>
</a>
</g>
<!-- Node1&#45;&gt;Node2 -->
<g id="edge2" class="edge"><title>Node1&#45;&gt;Node2</title>
<path fill="none" stroke="midnightblue" d="M67.3216,-180.679C66.2938,-172.722 66.0053,-162.605 66.4562,-153.436"/>
<polygon fill="midnightblue" stroke="midnightblue" points="69.9587,-153.555 67.3252,-143.293 62.9843,-152.958 69.9587,-153.555"/>
</g>
<!-- Node2&#45;&gt;Node1 -->
<g id="edge10" class="edge"><title>Node2&#45;&gt;Node1</title>
<path fill="none" stroke="midnightblue" d="M78.6748,-143.293C79.7043,-151.245 79.9945,-161.361 79.5453,-170.532"/>
<polygon fill="midnightblue" stroke="midnightblue" points="76.0425,-170.417 78.6784,-180.679 83.0171,-171.013 76.0425,-170.417"/>
</g>
<!-- Node3 -->
<g id="node5" class="node"><title>Node3</title>
<a xlink:href="definition_8hpp.html" target="_top" xlink:title="Om hpp file.">
<polygon fill="none" stroke="black" points="29.5,-56.5 29.5,-75.5 116.5,-75.5 116.5,-56.5 29.5,-56.5"/>
<text text-anchor="middle" x="73" y="-63.5" font-family="Helvetica,sans-Serif" font-size="10.00">om/definition.hpp</text>
</a>
</g>
<!-- Node2&#45;&gt;Node3 -->
<g id="edge4" class="edge"><title>Node2&#45;&gt;Node3</title>
<path fill="none" stroke="midnightblue" d="M73,-112.781C73,-104.781 73,-94.6887 73,-86.0168"/>
<polygon fill="midnightblue" stroke="midnightblue" points="76.5001,-85.7305 73,-75.7305 69.5001,-85.7306 76.5001,-85.7305"/>
</g>
<!-- Node4 -->
<g id="node7" class="node"><title>Node4</title>
<a xlink:href="definition_8cpp.html" target="_top" xlink:title="Om cpp file.">
<polygon fill="none" stroke="black" points="30,-0.5 30,-19.5 116,-19.5 116,-0.5 30,-0.5"/>
<text text-anchor="middle" x="73" y="-7.5" font-family="Helvetica,sans-Serif" font-size="10.00">om/definition.cpp</text>
</a>
</g>
<!-- Node3&#45;&gt;Node4 -->
<g id="edge6" class="edge"><title>Node3&#45;&gt;Node4</title>
<path fill="none" stroke="midnightblue" d="M67.8337,-56.083C66.3242,-48.9272 65.8938,-38.6353 66.5425,-29.6911"/>
<polygon fill="midnightblue" stroke="midnightblue" points="70.0154,-30.1262 67.869,-19.7511 63.0769,-29.2002 70.0154,-30.1262"/>
</g>
<!-- Node4&#45;&gt;Node3 -->
<g id="edge8" class="edge"><title>Node4&#45;&gt;Node3</title>
<path fill="none" stroke="midnightblue" d="M78.131,-19.7511C79.6573,-26.8579 80.1044,-37.1357 79.4724,-46.1005"/>
<polygon fill="midnightblue" stroke="midnightblue" points="75.9933,-45.7134 78.1663,-56.083 82.9342,-46.6216 75.9933,-45.7134"/>
</g>
</g>
</svg>
