<?xml version="1.0" encoding="UTF-8" standalone="no"?>
<!DOCTYPE svg PUBLIC "-//W3C//DTD SVG 1.1//EN"
 "http://www.w3.org/Graphics/SVG/1.1/DTD/svg11.dtd">
<!-- Generated by graphviz version 2.36.0 (20140111.2315)
 -->
<!-- Title: om/operation/back_pull_separator_operation.cpp Pages: 1 -->
<svg width="138pt" height="104pt"
 viewBox="0.00 0.00 138.00 104.00" xmlns="http://www.w3.org/2000/svg" xmlns:xlink="http://www.w3.org/1999/xlink">
<g id="graph0" class="graph" transform="scale(1 1) rotate(0) translate(4 100)">
<title>om/operation/back_pull_separator_operation.cpp</title>
<!-- Node1 -->
<g id="node1" class="node"><title>Node1</title>
<polygon fill="#bfbfbf" stroke="black" points="0.0151367,-67 0.0151367,-95 129.985,-95 129.985,-67 0.0151367,-67"/>
<text text-anchor="start" x="8.01514" y="-83" font-family="Helvetica,sans-Serif" font-size="10.00">om/operation/back_pull</text>
<text text-anchor="middle" x="65" y="-73" font-family="Helvetica,sans-Serif" font-size="10.00">_separator_operation.cpp</text>
</g>
<!-- Node2 -->
<g id="node2" class="node"><title>Node2</title>
<g id="a_node2"><a xlink:href="back__pull__separator__operation_8hpp.html" target="_top" xlink:title="Om header file. ">
<polygon fill="none" stroke="black" points="-0.265625,-1 -0.265625,-29 130.266,-29 130.266,-1 -0.265625,-1"/>
<text text-anchor="start" x="7.73438" y="-17" font-family="Helvetica,sans-Serif" font-size="10.00">om/operation/back_pull</text>
<text text-anchor="middle" x="65" y="-7" font-family="Helvetica,sans-Serif" font-size="10.00">_separator_operation.hpp</text>
</a>
</g>
</g>
<!-- Node1&#45;&gt;Node2 -->
<g id="edge1" class="edge"><title>Node1&#45;&gt;Node2</title>
<path fill="none" stroke="midnightblue" d="M58.4712,-56.5946C57.9861,-47.3785 58.2989,-37.1352 59.4097,-29.2439"/>
<polygon fill="midnightblue" stroke="midnightblue" points="55.0032,-57.1031 59.4073,-66.7392 61.9736,-56.4598 55.0032,-57.1031"/>
</g>
<!-- Node2&#45;&gt;Node1 -->
<g id="edge2" class="edge"><title>Node2&#45;&gt;Node1</title>
<path fill="none" stroke="midnightblue" d="M71.5277,-39.3855C72.014,-48.6002 71.7024,-58.8444 70.5927,-66.7392"/>
<polygon fill="midnightblue" stroke="midnightblue" points="74.996,-38.8792 70.5903,-29.2439 68.0257,-39.5236 74.996,-38.8792"/>
</g>
</g>
</svg>
