<?xml version="1.0" encoding="UTF-8" standalone="no"?>
<!DOCTYPE svg PUBLIC "-//W3C//DTD SVG 1.1//EN"
 "http://www.w3.org/Graphics/SVG/1.1/DTD/svg11.dtd">
<!-- Generated by graphviz version 2.36.0 (20140111.2315)
 -->
<!-- Title: om/operation/back_pull_code_point_operation.cpp Pages: 1 -->
<svg width="144pt" height="104pt"
 viewBox="0.00 0.00 144.00 104.00" xmlns="http://www.w3.org/2000/svg" xmlns:xlink="http://www.w3.org/1999/xlink">
<g id="graph0" class="graph" transform="scale(1 1) rotate(0) translate(4 100)">
<title>om/operation/back_pull_code_point_operation.cpp</title>
<!-- Node1 -->
<g id="node1" class="node"><title>Node1</title>
<polygon fill="#bfbfbf" stroke="black" points="-0.327148,-67 -0.327148,-95 136.327,-95 136.327,-67 -0.327148,-67"/>
<text text-anchor="start" x="7.67285" y="-83" font-family="Helvetica,sans-Serif" font-size="10.00">om/operation/back_pull</text>
<text text-anchor="middle" x="68" y="-73" font-family="Helvetica,sans-Serif" font-size="10.00">_code_point_operation.cpp</text>
</g>
<!-- Node2 -->
<g id="node2" class="node"><title>Node2</title>
<g id="a_node2"><a xlink:href="back__pull__code__point__operation_8hpp.html" target="_top" xlink:title="Om header file. ">
<polygon fill="none" stroke="black" points="-0.60791,-1 -0.60791,-29 136.608,-29 136.608,-1 -0.60791,-1"/>
<text text-anchor="start" x="7.39209" y="-17" font-family="Helvetica,sans-Serif" font-size="10.00">om/operation/back_pull</text>
<text text-anchor="middle" x="68" y="-7" font-family="Helvetica,sans-Serif" font-size="10.00">_code_point_operation.hpp</text>
</a>
</g>
</g>
<!-- Node1&#45;&gt;Node2 -->
<g id="edge1" class="edge"><title>Node1&#45;&gt;Node2</title>
<path fill="none" stroke="midnightblue" d="M61.4712,-56.5946C60.9861,-47.3785 61.2989,-37.1352 62.4097,-29.2439"/>
<polygon fill="midnightblue" stroke="midnightblue" points="58.0032,-57.1031 62.4073,-66.7392 64.9736,-56.4598 58.0032,-57.1031"/>
</g>
<!-- Node2&#45;&gt;Node1 -->
<g id="edge2" class="edge"><title>Node2&#45;&gt;Node1</title>
<path fill="none" stroke="midnightblue" d="M74.5277,-39.3855C75.014,-48.6002 74.7024,-58.8444 73.5927,-66.7392"/>
<polygon fill="midnightblue" stroke="midnightblue" points="77.996,-38.8792 73.5903,-29.2439 71.0257,-39.5236 77.996,-38.8792"/>
</g>
</g>
</svg>
