<?xml version="1.0" encoding="UTF-8" standalone="no"?>
<!DOCTYPE svg PUBLIC "-//W3C//DTD SVG 1.1//EN"
 "http://www.w3.org/Graphics/SVG/1.1/DTD/svg11.dtd">
<!-- Generated by graphviz version 2.30.1 (20130221.2233)
 -->
<!-- Title: om/operations/back_pull_pair_operation.hpp Pages: 1 -->
<svg width="134pt" height="112pt"
 viewBox="0.00 0.00 134.00 112.00" xmlns="http://www.w3.org/2000/svg" xmlns:xlink="http://www.w3.org/1999/xlink">
<g id="graph0" class="graph" transform="scale(1 1) rotate(0) translate(4 108)">
<title>om/operations/back_pull_pair_operation.hpp</title>
<!-- Node1 -->
<g id="node1" class="node"><title>Node1</title>
<polygon fill="#bfbfbf" stroke="black" points="-0.0439453,-71 -0.0439453,-103 126.044,-103 126.044,-71 -0.0439453,-71"/>
<text text-anchor="start" x="7.95605" y="-89" font-family="Helvetica,sans-Serif" font-size="10.00">om/operations/back</text>
<text text-anchor="middle" x="63" y="-77" font-family="Helvetica,sans-Serif" font-size="10.00">_pull_pair_operation.hpp</text>
</g>
<!-- Node2 -->
<g id="node2" class="node"><title>Node2</title>
<g id="a_node2"><a xlink:href="back__pull__pair__operation_8cpp.html" target="_top" xlink:title="Om source file.">
<polygon fill="none" stroke="black" points="0.236816,-1 0.236816,-33 125.763,-33 125.763,-1 0.236816,-1"/>
<text text-anchor="start" x="8.23682" y="-19" font-family="Helvetica,sans-Serif" font-size="10.00">om/operations/back</text>
<text text-anchor="middle" x="63" y="-7" font-family="Helvetica,sans-Serif" font-size="10.00">_pull_pair_operation.cpp</text>
</a>
</g>
</g>
<!-- Node1&#45;&gt;Node2 -->
<g id="edge1" class="edge"><title>Node1&#45;&gt;Node2</title>
<path fill="none" stroke="midnightblue" d="M56.4608,-60.9196C56.0088,-51.5597 56.2836,-41.2293 57.2851,-33.0492"/>
<polygon fill="midnightblue" stroke="midnightblue" points="52.9743,-61.2281 57.28,-70.9086 59.9509,-60.656 52.9743,-61.2281"/>
</g>
<!-- Node2&#45;&gt;Node1 -->
<g id="edge2" class="edge"><title>Node2&#45;&gt;Node1</title>
<path fill="none" stroke="midnightblue" d="M69.5368,-43.0321C69.9913,-52.3887 69.7191,-62.7211 68.72,-70.9086"/>
<polygon fill="midnightblue" stroke="midnightblue" points="73.0237,-42.7283 68.7149,-33.0492 66.0474,-43.3027 73.0237,-42.7283"/>
</g>
</g>
</svg>
