<?xml version="1.0" encoding="UTF-8" standalone="no"?>
<!DOCTYPE svg PUBLIC "-//W3C//DTD SVG 1.1//EN"
 "http://www.w3.org/Graphics/SVG/1.1/DTD/svg11.dtd">
<!-- Generated by graphviz version 2.30.1 (20130221.2233)
 -->
<!-- Title: code/om/operations/back_pull_code_point_operation.cpp Pages: 1 -->
<svg width="166pt" height="240pt"
 viewBox="0.00 0.00 166.00 240.00" xmlns="http://www.w3.org/2000/svg" xmlns:xlink="http://www.w3.org/1999/xlink">
<g id="graph0" class="graph" transform="scale(1 1) rotate(0) translate(4 236)">
<title>code/om/operations/back_pull_code_point_operation.cpp</title>
<!-- Node1 -->
<g id="node1" class="node"><title>Node1</title>
<polygon fill="#bfbfbf" stroke="black" points="21.2393,-187 21.2393,-231 136.761,-231 136.761,-187 21.2393,-187"/>
<text text-anchor="start" x="29.2393" y="-217" font-family="Helvetica,sans-Serif" font-size="10.00">code/om/operations</text>
<text text-anchor="start" x="29.2393" y="-205" font-family="Helvetica,sans-Serif" font-size="10.00">/back_pull_code_point</text>
<text text-anchor="middle" x="79" y="-193" font-family="Helvetica,sans-Serif" font-size="10.00">_operation.cpp</text>
</g>
<!-- Node2 -->
<g id="node2" class="node"><title>Node2</title>
<g id="a_node2"><a xlink:href="back__pull__code__point__operation_8hpp.html" target="_top" xlink:title="Om header file.">
<polygon fill="none" stroke="black" points="-0.171875,-117 -0.171875,-149 158.172,-149 158.172,-117 -0.171875,-117"/>
<text text-anchor="start" x="7.82812" y="-135" font-family="Helvetica,sans-Serif" font-size="10.00">om/operations/back</text>
<text text-anchor="middle" x="79" y="-123" font-family="Helvetica,sans-Serif" font-size="10.00">_pull_code_point_operation.hpp</text>
</a>
</g>
</g>
<!-- Node1&#45;&gt;Node2 -->
<g id="edge1" class="edge"><title>Node1&#45;&gt;Node2</title>
<path fill="none" stroke="midnightblue" d="M72.8449,-186.993C72.1713,-178.487 72.0697,-168.584 72.5402,-159.657"/>
<polygon fill="midnightblue" stroke="midnightblue" points="76.0514,-159.669 73.3977,-149.412 69.0758,-159.085 76.0514,-159.669"/>
</g>
<!-- Node3 -->
<g id="node3" class="node"><title>Node3</title>
<g id="a_node3"><a xlink:href="definition_8hpp.html" target="_top" xlink:title="Om header file.">
<polygon fill="none" stroke="black" points="32.9189,-59 32.9189,-79 125.081,-79 125.081,-59 32.9189,-59"/>
<text text-anchor="middle" x="79" y="-65" font-family="Helvetica,sans-Serif" font-size="10.00">om/definition.hpp</text>
</a>
</g>
</g>
<!-- Node2&#45;&gt;Node3 -->
<g id="edge2" class="edge"><title>Node2&#45;&gt;Node3</title>
<path fill="none" stroke="midnightblue" d="M79,-116.992C79,-108.726 79,-98.3728 79,-89.4891"/>
<polygon fill="midnightblue" stroke="midnightblue" points="82.5001,-89.2904 79,-79.2904 75.5001,-89.2904 82.5001,-89.2904"/>
</g>
<!-- Node2&#45;&gt;Node1 -->
<g id="edge5" class="edge"><title>Node2&#45;&gt;Node1</title>
<path fill="none" stroke="midnightblue" d="M84.6023,-149.412C85.5687,-157.409 85.9248,-167.475 85.6706,-176.997"/>
<polygon fill="midnightblue" stroke="midnightblue" points="82.1749,-176.825 85.1551,-186.993 89.1656,-177.186 82.1749,-176.825"/>
</g>
<!-- Node4 -->
<g id="node4" class="node"><title>Node4</title>
<g id="a_node4"><a xlink:href="definition_8cpp.html" target="_top" xlink:title="Om source file.">
<polygon fill="none" stroke="black" points="33.1997,-1 33.1997,-21 124.8,-21 124.8,-1 33.1997,-1"/>
<text text-anchor="middle" x="79" y="-7" font-family="Helvetica,sans-Serif" font-size="10.00">om/definition.cpp</text>
</a>
</g>
</g>
<!-- Node3&#45;&gt;Node4 -->
<g id="edge3" class="edge"><title>Node3&#45;&gt;Node4</title>
<path fill="none" stroke="midnightblue" d="M73.8337,-58.7527C72.3076,-51.2504 71.8844,-40.4238 72.5643,-31.0781"/>
<polygon fill="midnightblue" stroke="midnightblue" points="76.0461,-31.4439 73.869,-21.0752 69.1049,-30.5385 76.0461,-31.4439"/>
</g>
<!-- Node4&#45;&gt;Node3 -->
<g id="edge4" class="edge"><title>Node4&#45;&gt;Node3</title>
<path fill="none" stroke="midnightblue" d="M84.131,-21.0752C85.674,-28.5262 86.1141,-39.3384 85.4512,-48.7065"/>
<polygon fill="midnightblue" stroke="midnightblue" points="81.9633,-48.3895 84.1663,-58.7527 88.9067,-49.2776 81.9633,-48.3895"/>
</g>
</g>
</svg>
