<?xml version="1.0" encoding="UTF-8" standalone="no"?>
<!DOCTYPE svg PUBLIC "-//W3C//DTD SVG 1.1//EN"
 "http://www.w3.org/Graphics/SVG/1.1/DTD/svg11.dtd">
<!-- Generated by graphviz version 2.34.0 (20130907.0228)
 -->
<!-- Title: Om::Separator Pages: 1 -->
<svg width="493pt" height="856pt"
 viewBox="0.00 0.00 493.00 856.00" xmlns="http://www.w3.org/2000/svg" xmlns:xlink="http://www.w3.org/1999/xlink">
<g id="graph0" class="graph" transform="scale(1 1) rotate(0) translate(4 852)">
<title>Om::Separator</title>
<!-- Node1 -->
<g id="node1" class="node"><title>Node1</title>
<polygon fill="#bfbfbf" stroke="black" points="348.209,-1 348.209,-21 429.791,-21 429.791,-1 348.209,-1"/>
<text text-anchor="middle" x="389" y="-7" font-family="Helvetica,sans-Serif" font-size="10.00">Om::Separator</text>
</g>
<!-- Node2 -->
<g id="node2" class="node"><title>Node2</title>
<g id="a_node2"><a xlink:href="class_om_1_1_default_atom.html" target="_top" xlink:title="Om::DefaultAtom\&lt; Separator \&gt;">
<polygon fill="none" stroke="black" points="312.079,-61 312.079,-81 465.921,-81 465.921,-61 312.079,-61"/>
<text text-anchor="middle" x="389" y="-67" font-family="Helvetica,sans-Serif" font-size="10.00">Om::DefaultAtom&lt; Separator &gt;</text>
</a>
</g>
</g>
<!-- Node2&#45;&gt;Node1 -->
<g id="edge1" class="edge"><title>Node2&#45;&gt;Node1</title>
<path fill="none" stroke="midnightblue" d="M389,-50.7309C389,-40.7807 389,-29.1016 389,-21.1903"/>
<polygon fill="midnightblue" stroke="midnightblue" points="385.5,-50.9375 389,-60.9375 392.5,-50.9375 385.5,-50.9375"/>
</g>
<!-- Node3 -->
<g id="node3" class="node"><title>Node3</title>
<g id="a_node3"><a xlink:href="class_om_1_1_default_element.html" target="_top" xlink:title="Om::DefaultElement\l\&lt; Separator, Atom \&gt;">
<polygon fill="none" stroke="black" points="271.983,-131 271.983,-163 378.017,-163 378.017,-131 271.983,-131"/>
<text text-anchor="start" x="279.983" y="-149" font-family="Helvetica,sans-Serif" font-size="10.00">Om::DefaultElement</text>
<text text-anchor="middle" x="325" y="-137" font-family="Helvetica,sans-Serif" font-size="10.00">&lt; Separator, Atom &gt;</text>
</a>
</g>
</g>
<!-- Node3&#45;&gt;Node2 -->
<g id="edge2" class="edge"><title>Node3&#45;&gt;Node2</title>
<path fill="none" stroke="midnightblue" d="M345.045,-122.823C357.205,-108.763 372.055,-91.5927 381.008,-81.2412"/>
<polygon fill="midnightblue" stroke="midnightblue" points="342.155,-120.814 338.261,-130.667 347.45,-125.393 342.155,-120.814"/>
</g>
<!-- Node4 -->
<g id="node4" class="node"><title>Node4</title>
<g id="a_node4"><a xlink:href="class_om_1_1_default_program.html" target="_top" xlink:title="Om::DefaultProgram\l\&lt; Separator, Atom \&gt;">
<polygon fill="none" stroke="black" points="264.153,-203 264.153,-235 371.847,-235 371.847,-203 264.153,-203"/>
<text text-anchor="start" x="272.153" y="-221" font-family="Helvetica,sans-Serif" font-size="10.00">Om::DefaultProgram</text>
<text text-anchor="middle" x="318" y="-209" font-family="Helvetica,sans-Serif" font-size="10.00">&lt; Separator, Atom &gt;</text>
</a>
</g>
</g>
<!-- Node4&#45;&gt;Node3 -->
<g id="edge3" class="edge"><title>Node4&#45;&gt;Node3</title>
<path fill="none" stroke="midnightblue" d="M320.532,-192.682C321.521,-182.789 322.622,-171.776 323.484,-163.159"/>
<polygon fill="midnightblue" stroke="midnightblue" points="317.031,-192.512 319.519,-202.811 323.997,-193.209 317.031,-192.512"/>
</g>
<!-- Node5 -->
<g id="node5" class="node"><title>Node5</title>
<g id="a_node5"><a xlink:href="class_om_1_1_default_consumer.html" target="_top" xlink:title="Om::DefaultConsumer\l\&lt; Separator, DefaultGiveable\l\&lt; Separator, Atom \&gt; \&gt;">
<polygon fill="none" stroke="black" points="131.652,-275 131.652,-319 276.348,-319 276.348,-275 131.652,-275"/>
<text text-anchor="start" x="139.652" y="-305" font-family="Helvetica,sans-Serif" font-size="10.00">Om::DefaultConsumer</text>
<text text-anchor="start" x="139.652" y="-293" font-family="Helvetica,sans-Serif" font-size="10.00">&lt; Separator, DefaultGiveable</text>
<text text-anchor="middle" x="204" y="-281" font-family="Helvetica,sans-Serif" font-size="10.00">&lt; Separator, Atom &gt; &gt;</text>
</a>
</g>
</g>
<!-- Node5&#45;&gt;Node4 -->
<g id="edge4" class="edge"><title>Node5&#45;&gt;Node4</title>
<path fill="none" stroke="midnightblue" d="M244.477,-269.015C261.606,-257.596 280.913,-244.725 295.443,-235.038"/>
<polygon fill="midnightblue" stroke="midnightblue" points="242.134,-266.371 235.755,-274.83 246.017,-272.195 242.134,-266.371"/>
</g>
<!-- Node6 -->
<g id="node6" class="node"><title>Node6</title>
<g id="a_node6"><a xlink:href="class_om_1_1_default_giveable.html" target="_top" xlink:title="Om::DefaultGiveable\l\&lt; Separator, Atom \&gt;">
<polygon fill="none" stroke="black" points="149.591,-359 149.591,-391 258.409,-391 258.409,-359 149.591,-359"/>
<text text-anchor="start" x="157.591" y="-377" font-family="Helvetica,sans-Serif" font-size="10.00">Om::DefaultGiveable</text>
<text text-anchor="middle" x="204" y="-365" font-family="Helvetica,sans-Serif" font-size="10.00">&lt; Separator, Atom &gt;</text>
</a>
</g>
</g>
<!-- Node6&#45;&gt;Node5 -->
<g id="edge5" class="edge"><title>Node6&#45;&gt;Node5</title>
<path fill="none" stroke="midnightblue" d="M204,-348.777C204,-339.13 204,-328.24 204,-319.025"/>
<polygon fill="midnightblue" stroke="midnightblue" points="200.5,-348.985 204,-358.985 207.5,-348.985 200.5,-348.985"/>
</g>
<!-- Node7 -->
<g id="node7" class="node"><title>Node7</title>
<g id="a_node7"><a xlink:href="class_om_1_1_default_moveable.html" target="_top" xlink:title="Om::DefaultMoveable\l\&lt; Separator, DefaultCopyable\l\&lt; Separator, Atom \&gt; \&gt;">
<polygon fill="none" stroke="black" points="130.26,-431 130.26,-475 277.74,-475 277.74,-431 130.26,-431"/>
<text text-anchor="start" x="138.26" y="-461" font-family="Helvetica,sans-Serif" font-size="10.00">Om::DefaultMoveable</text>
<text text-anchor="start" x="138.26" y="-449" font-family="Helvetica,sans-Serif" font-size="10.00">&lt; Separator, DefaultCopyable</text>
<text text-anchor="middle" x="204" y="-437" font-family="Helvetica,sans-Serif" font-size="10.00">&lt; Separator, Atom &gt; &gt;</text>
</a>
</g>
</g>
<!-- Node7&#45;&gt;Node6 -->
<g id="edge6" class="edge"><title>Node7&#45;&gt;Node6</title>
<path fill="none" stroke="midnightblue" d="M204,-420.553C204,-410.342 204,-399.48 204,-391.038"/>
<polygon fill="midnightblue" stroke="midnightblue" points="200.5,-420.83 204,-430.83 207.5,-420.83 200.5,-420.83"/>
</g>
<!-- Node8 -->
<g id="node8" class="node"><title>Node8</title>
<g id="a_node8"><a xlink:href="class_om_1_1_default_copyable.html" target="_top" xlink:title="Om::DefaultCopyable\l\&lt; Separator, Atom \&gt;">
<polygon fill="none" stroke="black" points="148.2,-515 148.2,-547 259.8,-547 259.8,-515 148.2,-515"/>
<text text-anchor="start" x="156.2" y="-533" font-family="Helvetica,sans-Serif" font-size="10.00">Om::DefaultCopyable</text>
<text text-anchor="middle" x="204" y="-521" font-family="Helvetica,sans-Serif" font-size="10.00">&lt; Separator, Atom &gt;</text>
</a>
</g>
</g>
<!-- Node8&#45;&gt;Node7 -->
<g id="edge7" class="edge"><title>Node8&#45;&gt;Node7</title>
<path fill="none" stroke="midnightblue" d="M204,-504.777C204,-495.13 204,-484.24 204,-475.025"/>
<polygon fill="midnightblue" stroke="midnightblue" points="200.5,-504.985 204,-514.985 207.5,-504.985 200.5,-504.985"/>
</g>
<!-- Node9 -->
<g id="node9" class="node"><title>Node9</title>
<g id="a_node9"><a xlink:href="class_om_1_1_atom.html" target="_top" xlink:title="An &quot;atomic&quot; Element defined by a string. ">
<polygon fill="none" stroke="black" points="173.498,-587 173.498,-607 234.502,-607 234.502,-587 173.498,-587"/>
<text text-anchor="middle" x="204" y="-593" font-family="Helvetica,sans-Serif" font-size="10.00">Om::Atom</text>
</a>
</g>
</g>
<!-- Node9&#45;&gt;Node8 -->
<g id="edge8" class="edge"><title>Node9&#45;&gt;Node8</title>
<path fill="none" stroke="midnightblue" d="M204,-576.751C204,-567.247 204,-555.95 204,-547.084"/>
<polygon fill="midnightblue" stroke="midnightblue" points="200.5,-576.83 204,-586.83 207.5,-576.83 200.5,-576.83"/>
</g>
<!-- Node10 -->
<g id="node10" class="node"><title>Node10</title>
<g id="a_node10"><a xlink:href="class_om_1_1_element.html" target="_top" xlink:title="A Program that contains a single &quot;elemental&quot; item (or none, when IsEmpty() returns true)...">
<polygon fill="none" stroke="black" points="166.825,-647 166.825,-667 241.175,-667 241.175,-647 166.825,-647"/>
<text text-anchor="middle" x="204" y="-653" font-family="Helvetica,sans-Serif" font-size="10.00">Om::Element</text>
</a>
</g>
</g>
<!-- Node10&#45;&gt;Node9 -->
<g id="edge9" class="edge"><title>Node10&#45;&gt;Node9</title>
<path fill="none" stroke="midnightblue" d="M204,-636.731C204,-626.781 204,-615.102 204,-607.19"/>
<polygon fill="midnightblue" stroke="midnightblue" points="200.5,-636.937 204,-646.938 207.5,-636.938 200.5,-636.937"/>
</g>
<!-- Node11 -->
<g id="node11" class="node"><title>Node11</title>
<g id="a_node11"><a xlink:href="class_om_1_1_program.html" target="_top" xlink:title="The Program implementation. ">
<polygon fill="none" stroke="black" points="165.995,-707 165.995,-727 242.005,-727 242.005,-707 165.995,-707"/>
<text text-anchor="middle" x="204" y="-713" font-family="Helvetica,sans-Serif" font-size="10.00">Om::Program</text>
</a>
</g>
</g>
<!-- Node11&#45;&gt;Node10 -->
<g id="edge10" class="edge"><title>Node11&#45;&gt;Node10</title>
<path fill="none" stroke="midnightblue" d="M204,-696.731C204,-686.781 204,-675.102 204,-667.19"/>
<polygon fill="midnightblue" stroke="midnightblue" points="200.5,-696.937 204,-706.938 207.5,-696.938 200.5,-696.937"/>
</g>
<!-- Node12 -->
<g id="node12" class="node"><title>Node12</title>
<g id="a_node12"><a xlink:href="class_om_1_1_consumer.html" target="_top" xlink:title="An Element taker; takes at the back. ">
<polygon fill="none" stroke="black" points="-0.896484,-767 -0.896484,-787 82.8965,-787 82.8965,-767 -0.896484,-767"/>
<text text-anchor="middle" x="41" y="-773" font-family="Helvetica,sans-Serif" font-size="10.00">Om::Consumer</text>
</a>
</g>
</g>
<!-- Node12&#45;&gt;Node11 -->
<g id="edge11" class="edge"><title>Node12&#45;&gt;Node11</title>
<path fill="none" stroke="midnightblue" d="M75.9578,-763.561C106.743,-752.607 150.855,-736.911 178.442,-727.094"/>
<polygon fill="midnightblue" stroke="midnightblue" points="74.7167,-760.288 66.4688,-766.938 77.0634,-766.883 74.7167,-760.288"/>
</g>
<!-- Node13 -->
<g id="node13" class="node"><title>Node13</title>
<g id="a_node13"><a xlink:href="class_om_1_1_giveable.html" target="_top" xlink:title="An object that can be copied or moved via Give. ">
<polygon fill="none" stroke="black" points="100.434,-767 100.434,-787 177.566,-787 177.566,-767 100.434,-767"/>
<text text-anchor="middle" x="139" y="-773" font-family="Helvetica,sans-Serif" font-size="10.00">Om::Giveable</text>
</a>
</g>
</g>
<!-- Node13&#45;&gt;Node11 -->
<g id="edge12" class="edge"><title>Node13&#45;&gt;Node11</title>
<path fill="none" stroke="midnightblue" d="M156.729,-760.18C168.591,-749.596 183.786,-736.037 193.701,-727.19"/>
<polygon fill="midnightblue" stroke="midnightblue" points="154.287,-757.668 149.156,-766.938 158.948,-762.891 154.287,-757.668"/>
</g>
<!-- Node14 -->
<g id="node14" class="node"><title>Node14</title>
<g id="a_node14"><a xlink:href="class_om_1_1_copyable.html" target="_top" xlink:title="An object that can be passed to Copy to be copied. ">
<polygon fill="none" stroke="black" points="50.042,-827 50.042,-847 129.958,-847 129.958,-827 50.042,-827"/>
<text text-anchor="middle" x="90" y="-833" font-family="Helvetica,sans-Serif" font-size="10.00">Om::Copyable</text>
</a>
</g>
</g>
<!-- Node14&#45;&gt;Node13 -->
<g id="edge13" class="edge"><title>Node14&#45;&gt;Node13</title>
<path fill="none" stroke="midnightblue" d="M104.145,-819.257C112.964,-808.818 123.977,-795.782 131.236,-787.19"/>
<polygon fill="midnightblue" stroke="midnightblue" points="101.436,-817.04 97.6562,-826.938 106.783,-821.557 101.436,-817.04"/>
</g>
<!-- Node15 -->
<g id="node15" class="node"><title>Node15</title>
<g id="a_node15"><a xlink:href="class_om_1_1_moveable.html" target="_top" xlink:title="An object that can be passed to Move to be moved. ">
<polygon fill="none" stroke="black" points="147.488,-827 147.488,-847 228.512,-847 228.512,-827 147.488,-827"/>
<text text-anchor="middle" x="188" y="-833" font-family="Helvetica,sans-Serif" font-size="10.00">Om::Moveable</text>
</a>
</g>
</g>
<!-- Node15&#45;&gt;Node13 -->
<g id="edge14" class="edge"><title>Node15&#45;&gt;Node13</title>
<path fill="none" stroke="midnightblue" d="M173.855,-819.257C165.036,-808.818 154.023,-795.782 146.764,-787.19"/>
<polygon fill="midnightblue" stroke="midnightblue" points="171.217,-821.557 180.344,-826.938 176.564,-817.04 171.217,-821.557"/>
</g>
<!-- Node16 -->
<g id="node16" class="node"><title>Node16</title>
<g id="a_node16"><a xlink:href="class_om_1_1_producer.html" target="_top" xlink:title="An Element giver; gives from the front. ">
<polygon fill="none" stroke="black" points="195.879,-767 195.879,-787 274.121,-787 274.121,-767 195.879,-767"/>
<text text-anchor="middle" x="235" y="-773" font-family="Helvetica,sans-Serif" font-size="10.00">Om::Producer</text>
</a>
</g>
</g>
<!-- Node16&#45;&gt;Node11 -->
<g id="edge15" class="edge"><title>Node16&#45;&gt;Node11</title>
<path fill="none" stroke="midnightblue" d="M225.382,-758.005C219.923,-747.792 213.322,-735.442 208.912,-727.19"/>
<polygon fill="midnightblue" stroke="midnightblue" points="222.356,-759.768 230.156,-766.938 228.529,-756.468 222.356,-759.768"/>
</g>
<!-- Node17 -->
<g id="node17" class="node"><title>Node17</title>
<g id="a_node17"><a xlink:href="class_om_1_1_shareable.html" target="_top" xlink:title="Om::Shareable\&lt;\&gt;">
<polygon fill="none" stroke="black" points="292.532,-767 292.532,-787 387.468,-787 387.468,-767 292.532,-767"/>
<text text-anchor="middle" x="340" y="-773" font-family="Helvetica,sans-Serif" font-size="10.00">Om::Shareable&lt;&gt;</text>
</a>
</g>
</g>
<!-- Node17&#45;&gt;Node11 -->
<g id="edge16" class="edge"><title>Node17&#45;&gt;Node11</title>
<path fill="none" stroke="midnightblue" d="M309.517,-763C283.988,-752.113 248.189,-736.846 225.55,-727.19"/>
<polygon fill="midnightblue" stroke="midnightblue" points="308.179,-766.234 318.75,-766.938 310.925,-759.795 308.179,-766.234"/>
</g>
<!-- Node18 -->
<g id="node18" class="node"><title>Node18</title>
<g id="a_node18"><a xlink:href="class_om_1_1_taker.html" target="_top" xlink:title="Om::Taker\&lt; Separator \&gt;">
<polygon fill="none" stroke="black" points="294.365,-287 294.365,-307 417.635,-307 417.635,-287 294.365,-287"/>
<text text-anchor="middle" x="356" y="-293" font-family="Helvetica,sans-Serif" font-size="10.00">Om::Taker&lt; Separator &gt;</text>
</a>
</g>
</g>
<!-- Node18&#45;&gt;Node4 -->
<g id="edge17" class="edge"><title>Node18&#45;&gt;Node4</title>
<path fill="none" stroke="midnightblue" d="M346.995,-277.991C340.447,-264.894 331.684,-247.368 325.511,-235.022"/>
<polygon fill="midnightblue" stroke="midnightblue" points="343.889,-279.604 351.492,-286.983 350.15,-276.474 343.889,-279.604"/>
</g>
<!-- Node19 -->
<g id="node19" class="node"><title>Node19</title>
<g id="a_node19"><a xlink:title="STL class. ">
<polygon fill="none" stroke="#bfbfbf" points="405.325,-137 405.325,-157 464.675,-157 464.675,-137 405.325,-137"/>
<text text-anchor="middle" x="435" y="-143" font-family="Helvetica,sans-Serif" font-size="10.00">std::string</text>
</a>
</g>
</g>
<!-- Node19&#45;&gt;Node2 -->
<g id="edge18" class="edge"><title>Node19&#45;&gt;Node2</title>
<path fill="none" stroke="#9a32cd" stroke-dasharray="5,2" d="M423.905,-128.151C414.689,-113.325 401.952,-92.836 394.687,-81.1481"/>
<polygon fill="#9a32cd" stroke="#9a32cd" points="421.108,-130.281 429.359,-136.926 427.053,-126.585 421.108,-130.281"/>
<text text-anchor="middle" x="436.231" y="-102" font-family="Helvetica,sans-Serif" font-size="10.00"> thisString</text>
</g>
<!-- Node20 -->
<g id="node20" class="node"><title>Node20</title>
<g id="a_node20"><a xlink:title="STL class. ">
<polygon fill="none" stroke="#bfbfbf" points="389.952,-203 389.952,-235 484.048,-235 484.048,-203 389.952,-203"/>
<text text-anchor="start" x="397.952" y="-221" font-family="Helvetica,sans-Serif" font-size="10.00">std::basic_string&lt;</text>
<text text-anchor="middle" x="437" y="-209" font-family="Helvetica,sans-Serif" font-size="10.00"> char &gt;</text>
</a>
</g>
</g>
<!-- Node20&#45;&gt;Node19 -->
<g id="edge19" class="edge"><title>Node20&#45;&gt;Node19</title>
<path fill="none" stroke="midnightblue" d="M436.275,-192.63C435.924,-180.351 435.524,-166.357 435.268,-157.363"/>
<polygon fill="midnightblue" stroke="midnightblue" points="432.782,-192.915 436.566,-202.811 439.779,-192.715 432.782,-192.915"/>
</g>
</g>
</svg>
