<?xml version="1.0" encoding="UTF-8" standalone="no"?>
<!DOCTYPE svg PUBLIC "-//W3C//DTD SVG 1.1//EN"
 "http://www.w3.org/Graphics/SVG/1.1/DTD/svg11.dtd">
<!-- Generated by graphviz version 2.30.1 (20130221.2233)
 -->
<!-- Title: Om::Sources::CollectionBackSource&lt; ThisItem, ThisIterator &gt; Pages: 1 -->
<svg width="698pt" height="103pt"
 viewBox="0.00 0.00 698.00 103.00" xmlns="http://www.w3.org/2000/svg" xmlns:xlink="http://www.w3.org/1999/xlink">
<g id="graph0" class="graph" transform="scale(1 1) rotate(0) translate(4 99)">
<title>Om::Sources::CollectionBackSource&lt; ThisItem, ThisIterator &gt;</title>
<!-- Node1 -->
<g id="node1" class="node"><title>Node1</title>
<polygon fill="#bfbfbf" stroke="black" points="530.481,-34 530.481,-66 689.519,-66 689.519,-34 530.481,-34"/>
<text text-anchor="start" x="538.481" y="-52" font-family="Helvetica,sans-Serif" font-size="10.00">Om::Sources::CollectionBack</text>
<text text-anchor="middle" x="610" y="-40" font-family="Helvetica,sans-Serif" font-size="10.00">Source&lt; ThisItem, ThisIterator &gt;</text>
</g>
<!-- Node2 -->
<g id="node2" class="node"><title>Node2</title>
<g id="a_node2"><a xlink:href="class_om_1_1_sources_1_1_iterator_pair_source.html" target="_top" xlink:title="A Source adapter for a start and end input iterator pair. ">
<polygon fill="none" stroke="black" points="334.481,-34 334.481,-66 493.519,-66 493.519,-34 334.481,-34"/>
<text text-anchor="start" x="342.481" y="-52" font-family="Helvetica,sans-Serif" font-size="10.00">Om::Sources::IteratorPair</text>
<text text-anchor="middle" x="414" y="-40" font-family="Helvetica,sans-Serif" font-size="10.00">Source&lt; ThisItem, ThisIterator &gt;</text>
</a>
</g>
</g>
<!-- Node2&#45;&gt;Node1 -->
<g id="edge1" class="edge"><title>Node2&#45;&gt;Node1</title>
<path fill="none" stroke="midnightblue" d="M503.895,-50C512.691,-50 521.577,-50 530.26,-50"/>
<polygon fill="midnightblue" stroke="midnightblue" points="503.628,-46.5001 493.628,-50 503.628,-53.5001 503.628,-46.5001"/>
</g>
<!-- Node3 -->
<g id="node3" class="node"><title>Node3</title>
<g id="a_node3"><a xlink:href="class_om_1_1_sources_1_1_default_source.html" target="_top" xlink:title="Om::Sources::DefaultSource\l\&lt; ThisItem, IteratorPairSource\l\&lt; ThisItem, ThisIterator \&gt; \&gt;">
<polygon fill="none" stroke="black" points="148.257,-28 148.257,-72 297.743,-72 297.743,-28 148.257,-28"/>
<text text-anchor="start" x="156.257" y="-58" font-family="Helvetica,sans-Serif" font-size="10.00">Om::Sources::DefaultSource</text>
<text text-anchor="start" x="156.257" y="-46" font-family="Helvetica,sans-Serif" font-size="10.00">&lt; ThisItem, IteratorPairSource</text>
<text text-anchor="middle" x="223" y="-34" font-family="Helvetica,sans-Serif" font-size="10.00">&lt; ThisItem, ThisIterator &gt; &gt;</text>
</a>
</g>
</g>
<!-- Node3&#45;&gt;Node2 -->
<g id="edge2" class="edge"><title>Node3&#45;&gt;Node2</title>
<path fill="none" stroke="midnightblue" d="M308.021,-50C316.719,-50 325.536,-50 334.173,-50"/>
<polygon fill="midnightblue" stroke="midnightblue" points="307.884,-46.5001 297.884,-50 307.884,-53.5001 307.884,-46.5001"/>
</g>
<!-- Node4 -->
<g id="node4" class="node"><title>Node4</title>
<g id="a_node4"><a xlink:href="class_om_1_1_sources_1_1_source.html" target="_top" xlink:title="Any object that items can be pulled from. ">
<polygon fill="none" stroke="black" points="0.20459,-63 0.20459,-95 111.795,-95 111.795,-63 0.20459,-63"/>
<text text-anchor="start" x="8.20459" y="-81" font-family="Helvetica,sans-Serif" font-size="10.00">Om::Sources::Source</text>
<text text-anchor="middle" x="56" y="-69" font-family="Helvetica,sans-Serif" font-size="10.00">&lt; ThisItem &gt;</text>
</a>
</g>
</g>
<!-- Node4&#45;&gt;Node3 -->
<g id="edge3" class="edge"><title>Node4&#45;&gt;Node3</title>
<path fill="none" stroke="midnightblue" d="M121.923,-67.5894C130.55,-66.0731 139.446,-64.5095 148.209,-62.9693"/>
<polygon fill="midnightblue" stroke="midnightblue" points="121.186,-64.1651 111.943,-69.3434 122.398,-71.0595 121.186,-64.1651"/>
</g>
<!-- Node5 -->
<g id="node5" class="node"><title>Node5</title>
<polygon fill="none" stroke="#bfbfbf" points="4.9165,-0 4.9165,-44 107.083,-44 107.083,-0 4.9165,-0"/>
<text text-anchor="start" x="12.9165" y="-30" font-family="Helvetica,sans-Serif" font-size="10.00">std::iterator&lt; std</text>
<text text-anchor="start" x="12.9165" y="-18" font-family="Helvetica,sans-Serif" font-size="10.00">::input_iterator_tag,</text>
<text text-anchor="middle" x="56" y="-6" font-family="Helvetica,sans-Serif" font-size="10.00"> ThisItem &gt;</text>
</g>
<!-- Node5&#45;&gt;Node3 -->
<g id="edge4" class="edge"><title>Node5&#45;&gt;Node3</title>
<path fill="none" stroke="midnightblue" d="M117.276,-32.2287C127.334,-33.9355 137.868,-35.7231 148.217,-37.4792"/>
<polygon fill="midnightblue" stroke="midnightblue" points="117.847,-28.7755 107.402,-30.5531 116.675,-35.6769 117.847,-28.7755"/>
</g>
</g>
</svg>
