<?xml version="1.0" encoding="UTF-8" standalone="no"?>
<!DOCTYPE svg PUBLIC "-//W3C//DTD SVG 1.1//EN"
 "http://www.w3.org/Graphics/SVG/1.1/DTD/svg11.dtd">
<!-- Generated by graphviz version 2.36.0 (20140111.2315)
 -->
<!-- Title: Om::DefaultAtom&lt; ThisImplementation &gt; Pages: 1 -->
<svg width="1828pt" height="137pt"
 viewBox="0.00 0.00 1828.00 137.00" xmlns="http://www.w3.org/2000/svg" xmlns:xlink="http://www.w3.org/1999/xlink">
<g id="graph0" class="graph" transform="scale(1 1) rotate(0) translate(4 133)">
<title>Om::DefaultAtom&lt; ThisImplementation &gt;</title>
<!-- Node1 -->
<g id="node1" class="node"><title>Node1</title>
<polygon fill="#bfbfbf" stroke="black" points="1622.49,-29 1622.49,-47 1819.51,-47 1819.51,-29 1622.49,-29"/>
<text text-anchor="middle" x="1721" y="-35" font-family="Helvetica,sans-Serif" font-size="10.00">Om::DefaultAtom&lt; ThisImplementation &gt;</text>
</g>
<!-- Node2 -->
<g id="node2" class="node"><title>Node2</title>
<g id="a_node2"><a xlink:href="class_om_1_1_default_element.html" target="_top" xlink:title="Om::DefaultElement\l\&lt; ThisImplementation,\l Atom \&gt;">
<polygon fill="none" stroke="black" points="1471.76,-19 1471.76,-57 1586.24,-57 1586.24,-19 1471.76,-19"/>
<text text-anchor="start" x="1479.76" y="-45" font-family="Helvetica,sans-Serif" font-size="10.00">Om::DefaultElement</text>
<text text-anchor="start" x="1479.76" y="-35" font-family="Helvetica,sans-Serif" font-size="10.00">&lt; ThisImplementation,</text>
<text text-anchor="middle" x="1529" y="-25" font-family="Helvetica,sans-Serif" font-size="10.00"> Atom &gt;</text>
</a>
</g>
</g>
<!-- Node2&#45;&gt;Node1 -->
<g id="edge1" class="edge"><title>Node2&#45;&gt;Node1</title>
<path fill="none" stroke="midnightblue" d="M1596.56,-38C1604.96,-38 1613.69,-38 1622.45,-38"/>
<polygon fill="midnightblue" stroke="midnightblue" points="1596.49,-34.5001 1586.49,-38 1596.49,-41.5001 1596.49,-34.5001"/>
</g>
<!-- Node3 -->
<g id="node3" class="node"><title>Node3</title>
<g id="a_node3"><a xlink:href="class_om_1_1_default_program.html" target="_top" xlink:title="Om::DefaultProgram\l\&lt; ThisImplementation,\l Atom \&gt;">
<polygon fill="none" stroke="black" points="1321.76,-19 1321.76,-57 1436.24,-57 1436.24,-19 1321.76,-19"/>
<text text-anchor="start" x="1329.76" y="-45" font-family="Helvetica,sans-Serif" font-size="10.00">Om::DefaultProgram</text>
<text text-anchor="start" x="1329.76" y="-35" font-family="Helvetica,sans-Serif" font-size="10.00">&lt; ThisImplementation,</text>
<text text-anchor="middle" x="1379" y="-25" font-family="Helvetica,sans-Serif" font-size="10.00"> Atom &gt;</text>
</a>
</g>
</g>
<!-- Node3&#45;&gt;Node2 -->
<g id="edge2" class="edge"><title>Node3&#45;&gt;Node2</title>
<path fill="none" stroke="midnightblue" d="M1446.41,-38C1454.72,-38 1463.15,-38 1471.29,-38"/>
<polygon fill="midnightblue" stroke="midnightblue" points="1446.37,-34.5001 1436.37,-38 1446.37,-41.5001 1446.37,-34.5001"/>
</g>
<!-- Node4 -->
<g id="node4" class="node"><title>Node4</title>
<g id="a_node4"><a xlink:href="class_om_1_1_default_consumer.html" target="_top" xlink:title="Om::DefaultConsumer\l\&lt; ThisImplementation,\l DefaultGiveable\&lt; ThisImplementation,\l Atom \&gt; \&gt;">
<polygon fill="none" stroke="black" points="1097.79,-40 1097.79,-88 1286.21,-88 1286.21,-40 1097.79,-40"/>
<text text-anchor="start" x="1105.79" y="-76" font-family="Helvetica,sans-Serif" font-size="10.00">Om::DefaultConsumer</text>
<text text-anchor="start" x="1105.79" y="-66" font-family="Helvetica,sans-Serif" font-size="10.00">&lt; ThisImplementation,</text>
<text text-anchor="start" x="1105.79" y="-56" font-family="Helvetica,sans-Serif" font-size="10.00"> DefaultGiveable&lt; ThisImplementation,</text>
<text text-anchor="middle" x="1192" y="-46" font-family="Helvetica,sans-Serif" font-size="10.00"> Atom &gt; &gt;</text>
</a>
</g>
</g>
<!-- Node4&#45;&gt;Node3 -->
<g id="edge3" class="edge"><title>Node4&#45;&gt;Node3</title>
<path fill="none" stroke="midnightblue" d="M1296.44,-49.462C1305.04,-48.254 1313.51,-47.064 1321.54,-45.9345"/>
<polygon fill="midnightblue" stroke="midnightblue" points="1295.73,-46.028 1286.31,-50.8857 1296.7,-52.9599 1295.73,-46.028"/>
</g>
<!-- Node5 -->
<g id="node5" class="node"><title>Node5</title>
<g id="a_node5"><a xlink:href="class_om_1_1_default_giveable.html" target="_top" xlink:title="Om::DefaultGiveable\l\&lt; ThisImplementation,\l Atom \&gt;">
<polygon fill="none" stroke="black" points="947.759,-45 947.759,-83 1062.24,-83 1062.24,-45 947.759,-45"/>
<text text-anchor="start" x="955.759" y="-71" font-family="Helvetica,sans-Serif" font-size="10.00">Om::DefaultGiveable</text>
<text text-anchor="start" x="955.759" y="-61" font-family="Helvetica,sans-Serif" font-size="10.00">&lt; ThisImplementation,</text>
<text text-anchor="middle" x="1005" y="-51" font-family="Helvetica,sans-Serif" font-size="10.00"> Atom &gt;</text>
</a>
</g>
</g>
<!-- Node5&#45;&gt;Node4 -->
<g id="edge4" class="edge"><title>Node5&#45;&gt;Node4</title>
<path fill="none" stroke="midnightblue" d="M1072.5,-64C1080.73,-64 1089.25,-64 1097.79,-64"/>
<polygon fill="midnightblue" stroke="midnightblue" points="1072.26,-60.5001 1062.26,-64 1072.26,-67.5001 1072.26,-60.5001"/>
</g>
<!-- Node6 -->
<g id="node6" class="node"><title>Node6</title>
<g id="a_node6"><a xlink:href="class_om_1_1_default_moveable.html" target="_top" xlink:title="Om::DefaultMoveable\l\&lt; ThisImplementation,\l DefaultCopyable\&lt; ThisImplementation,\l Atom \&gt; \&gt;">
<polygon fill="none" stroke="black" points="720.402,-40 720.402,-88 911.598,-88 911.598,-40 720.402,-40"/>
<text text-anchor="start" x="728.402" y="-76" font-family="Helvetica,sans-Serif" font-size="10.00">Om::DefaultMoveable</text>
<text text-anchor="start" x="728.402" y="-66" font-family="Helvetica,sans-Serif" font-size="10.00">&lt; ThisImplementation,</text>
<text text-anchor="start" x="728.402" y="-56" font-family="Helvetica,sans-Serif" font-size="10.00"> DefaultCopyable&lt; ThisImplementation,</text>
<text text-anchor="middle" x="816" y="-46" font-family="Helvetica,sans-Serif" font-size="10.00"> Atom &gt; &gt;</text>
</a>
</g>
</g>
<!-- Node6&#45;&gt;Node5 -->
<g id="edge5" class="edge"><title>Node6&#45;&gt;Node5</title>
<path fill="none" stroke="midnightblue" d="M922.142,-64C930.854,-64 939.43,-64 947.559,-64"/>
<polygon fill="midnightblue" stroke="midnightblue" points="921.87,-60.5001 911.87,-64 921.87,-67.5001 921.87,-60.5001"/>
</g>
<!-- Node7 -->
<g id="node7" class="node"><title>Node7</title>
<g id="a_node7"><a xlink:href="class_om_1_1_default_copyable.html" target="_top" xlink:title="Om::DefaultCopyable\l\&lt; ThisImplementation,\l Atom \&gt;">
<polygon fill="none" stroke="black" points="569.759,-45 569.759,-83 684.241,-83 684.241,-45 569.759,-45"/>
<text text-anchor="start" x="577.759" y="-71" font-family="Helvetica,sans-Serif" font-size="10.00">Om::DefaultCopyable</text>
<text text-anchor="start" x="577.759" y="-61" font-family="Helvetica,sans-Serif" font-size="10.00">&lt; ThisImplementation,</text>
<text text-anchor="middle" x="627" y="-51" font-family="Helvetica,sans-Serif" font-size="10.00"> Atom &gt;</text>
</a>
</g>
</g>
<!-- Node7&#45;&gt;Node6 -->
<g id="edge6" class="edge"><title>Node7&#45;&gt;Node6</title>
<path fill="none" stroke="midnightblue" d="M694.445,-64C702.86,-64 711.595,-64 720.343,-64"/>
<polygon fill="midnightblue" stroke="midnightblue" points="694.36,-60.5001 684.36,-64 694.36,-67.5001 694.36,-60.5001"/>
</g>
<!-- Node8 -->
<g id="node8" class="node"><title>Node8</title>
<g id="a_node8"><a xlink:href="class_om_1_1_atom.html" target="_top" xlink:title="An atomic Element defined by a string. ">
<polygon fill="none" stroke="black" points="472.498,-55 472.498,-73 533.502,-73 533.502,-55 472.498,-55"/>
<text text-anchor="middle" x="503" y="-61" font-family="Helvetica,sans-Serif" font-size="10.00">Om::Atom</text>
</a>
</g>
</g>
<!-- Node8&#45;&gt;Node7 -->
<g id="edge7" class="edge"><title>Node8&#45;&gt;Node7</title>
<path fill="none" stroke="midnightblue" d="M543.635,-64C551.907,-64 560.779,-64 569.526,-64"/>
<polygon fill="midnightblue" stroke="midnightblue" points="543.533,-60.5001 533.533,-64 543.533,-67.5001 543.533,-60.5001"/>
</g>
<!-- Node9 -->
<g id="node9" class="node"><title>Node9</title>
<g id="a_node9"><a xlink:href="class_om_1_1_element.html" target="_top" xlink:title="A Program that contains a single elemental item (or none, when IsEmpty() returns true). ">
<polygon fill="none" stroke="black" points="361.825,-55 361.825,-73 436.175,-73 436.175,-55 361.825,-55"/>
<text text-anchor="middle" x="399" y="-61" font-family="Helvetica,sans-Serif" font-size="10.00">Om::Element</text>
</a>
</g>
</g>
<!-- Node9&#45;&gt;Node8 -->
<g id="edge8" class="edge"><title>Node9&#45;&gt;Node8</title>
<path fill="none" stroke="midnightblue" d="M446.412,-64C455.194,-64 464.16,-64 472.255,-64"/>
<polygon fill="midnightblue" stroke="midnightblue" points="446.249,-60.5001 436.249,-64 446.249,-67.5001 446.249,-60.5001"/>
</g>
<!-- Node10 -->
<g id="node10" class="node"><title>Node10</title>
<g id="a_node10"><a xlink:href="class_om_1_1_program.html" target="_top" xlink:title="The Program implementation. ">
<polygon fill="none" stroke="black" points="249.995,-55 249.995,-73 326.005,-73 326.005,-55 249.995,-55"/>
<text text-anchor="middle" x="288" y="-61" font-family="Helvetica,sans-Serif" font-size="10.00">Om::Program</text>
</a>
</g>
</g>
<!-- Node10&#45;&gt;Node9 -->
<g id="edge9" class="edge"><title>Node10&#45;&gt;Node9</title>
<path fill="none" stroke="midnightblue" d="M336.384,-64C344.868,-64 353.587,-64 361.699,-64"/>
<polygon fill="midnightblue" stroke="midnightblue" points="336.207,-60.5001 326.207,-64 336.207,-67.5001 336.207,-60.5001"/>
</g>
<!-- Node11 -->
<g id="node11" class="node"><title>Node11</title>
<g id="a_node11"><a xlink:href="class_om_1_1_consumer.html" target="_top" xlink:title="An Element taker; takes at the back. ">
<polygon fill="none" stroke="black" points="124.104,-111 124.104,-129 207.896,-129 207.896,-111 124.104,-111"/>
<text text-anchor="middle" x="166" y="-117" font-family="Helvetica,sans-Serif" font-size="10.00">Om::Consumer</text>
</a>
</g>
</g>
<!-- Node11&#45;&gt;Node10 -->
<g id="edge10" class="edge"><title>Node11&#45;&gt;Node10</title>
<path fill="none" stroke="midnightblue" d="M200.069,-107.045C204.772,-105.082 209.528,-103.033 214,-101 233.532,-92.1216 255.42,-80.8441 270.089,-73.0866"/>
<polygon fill="midnightblue" stroke="midnightblue" points="198.527,-103.893 190.595,-110.917 201.176,-110.373 198.527,-103.893"/>
</g>
<!-- Node12 -->
<g id="node12" class="node"><title>Node12</title>
<g id="a_node12"><a xlink:href="class_om_1_1_giveable.html" target="_top" xlink:title="An object that can be copied or moved via Give. ">
<polygon fill="none" stroke="black" points="127.434,-74 127.434,-92 204.566,-92 204.566,-74 127.434,-74"/>
<text text-anchor="middle" x="166" y="-80" font-family="Helvetica,sans-Serif" font-size="10.00">Om::Giveable</text>
</a>
</g>
</g>
<!-- Node12&#45;&gt;Node10 -->
<g id="edge11" class="edge"><title>Node12&#45;&gt;Node10</title>
<path fill="none" stroke="midnightblue" d="M214.713,-75.4454C226.421,-73.5917 238.781,-71.6346 249.906,-69.8733"/>
<polygon fill="midnightblue" stroke="midnightblue" points="213.969,-72.0195 204.64,-77.0404 215.064,-78.9334 213.969,-72.0195"/>
</g>
<!-- Node13 -->
<g id="node13" class="node"><title>Node13</title>
<g id="a_node13"><a xlink:href="class_om_1_1_copyable.html" target="_top" xlink:title="An object that can be passed to Copy to be copied. ">
<polygon fill="none" stroke="black" points="1.04199,-92 1.04199,-110 80.958,-110 80.958,-92 1.04199,-92"/>
<text text-anchor="middle" x="41" y="-98" font-family="Helvetica,sans-Serif" font-size="10.00">Om::Copyable</text>
</a>
</g>
</g>
<!-- Node13&#45;&gt;Node12 -->
<g id="edge12" class="edge"><title>Node13&#45;&gt;Node12</title>
<path fill="none" stroke="midnightblue" d="M91.186,-93.802C103.243,-92.0376 115.958,-90.1769 127.374,-88.5063"/>
<polygon fill="midnightblue" stroke="midnightblue" points="90.6439,-90.344 81.2561,-95.2552 91.6576,-97.2702 90.6439,-90.344"/>
</g>
<!-- Node14 -->
<g id="node14" class="node"><title>Node14</title>
<g id="a_node14"><a xlink:href="class_om_1_1_moveable.html" target="_top" xlink:title="An object that can be passed to Move to be moved. ">
<polygon fill="none" stroke="black" points="0.487793,-55 0.487793,-73 81.5122,-73 81.5122,-55 0.487793,-55"/>
<text text-anchor="middle" x="41" y="-61" font-family="Helvetica,sans-Serif" font-size="10.00">Om::Moveable</text>
</a>
</g>
</g>
<!-- Node14&#45;&gt;Node12 -->
<g id="edge13" class="edge"><title>Node14&#45;&gt;Node12</title>
<path fill="none" stroke="midnightblue" d="M91.7696,-71.688C103.575,-73.5116 115.98,-75.4278 127.155,-77.1541"/>
<polygon fill="midnightblue" stroke="midnightblue" points="92.0122,-68.184 81.595,-70.1163 90.9435,-75.102 92.0122,-68.184"/>
</g>
<!-- Node15 -->
<g id="node15" class="node"><title>Node15</title>
<g id="a_node15"><a xlink:href="class_om_1_1_producer.html" target="_top" xlink:title="An Element giver; gives from the front. ">
<polygon fill="none" stroke="black" points="126.879,-37 126.879,-55 205.121,-55 205.121,-37 126.879,-37"/>
<text text-anchor="middle" x="166" y="-43" font-family="Helvetica,sans-Serif" font-size="10.00">Om::Producer</text>
</a>
</g>
</g>
<!-- Node15&#45;&gt;Node10 -->
<g id="edge14" class="edge"><title>Node15&#45;&gt;Node10</title>
<path fill="none" stroke="midnightblue" d="M215.242,-53.2363C226.785,-54.9678 238.933,-56.7899 249.884,-58.4326"/>
<polygon fill="midnightblue" stroke="midnightblue" points="215.707,-49.767 205.299,-51.7448 214.669,-56.6896 215.707,-49.767"/>
</g>
<!-- Node16 -->
<g id="node16" class="node"><title>Node16</title>
<g id="a_node16"><a xlink:href="class_om_1_1_shareable.html" target="_top" xlink:title="Om::Shareable\&lt;\&gt;">
<polygon fill="none" stroke="black" points="118.532,-0 118.532,-18 213.468,-18 213.468,-0 118.532,-0"/>
<text text-anchor="middle" x="166" y="-6" font-family="Helvetica,sans-Serif" font-size="10.00">Om::Shareable&lt;&gt;</text>
</a>
</g>
</g>
<!-- Node16&#45;&gt;Node10 -->
<g id="edge15" class="edge"><title>Node16&#45;&gt;Node10</title>
<path fill="none" stroke="midnightblue" d="M201.69,-21.8185C205.864,-23.4982 210.046,-25.2465 214,-27 233.743,-35.7557 255.776,-47.1579 270.42,-54.9772"/>
<polygon fill="midnightblue" stroke="midnightblue" points="202.664,-18.441 192.076,-18.0539 200.111,-24.9591 202.664,-18.441"/>
</g>
<!-- Node17 -->
<g id="node17" class="node"><title>Node17</title>
<g id="a_node17"><a xlink:href="class_om_1_1_taker.html" target="_top" xlink:title="An object that can take (copy or swap) another of the same type. ">
<polygon fill="none" stroke="black" points="1108.78,-3 1108.78,-21 1275.22,-21 1275.22,-3 1108.78,-3"/>
<text text-anchor="middle" x="1192" y="-9" font-family="Helvetica,sans-Serif" font-size="10.00">Om::Taker&lt; ThisImplementation &gt;</text>
</a>
</g>
</g>
<!-- Node17&#45;&gt;Node3 -->
<g id="edge16" class="edge"><title>Node17&#45;&gt;Node3</title>
<path fill="none" stroke="midnightblue" d="M1267.16,-22.422C1285.32,-24.9748 1304.47,-27.6658 1321.64,-30.0796"/>
<polygon fill="midnightblue" stroke="midnightblue" points="1267.57,-18.9464 1257.18,-21.0206 1266.6,-25.8783 1267.57,-18.9464"/>
</g>
</g>
</svg>
