<?xml version="1.0" encoding="UTF-8" standalone="no"?>
<!DOCTYPE svg PUBLIC "-//W3C//DTD SVG 1.1//EN"
 "http://www.w3.org/Graphics/SVG/1.1/DTD/svg11.dtd">
<!-- Generated by graphviz version 2.30.1 (20130221.2233)
 -->
<!-- Title: Om::Parser Pages: 1 -->
<svg width="418pt" height="103pt"
 viewBox="0.00 0.00 418.00 103.00" xmlns="http://www.w3.org/2000/svg" xmlns:xlink="http://www.w3.org/1999/xlink">
<g id="graph0" class="graph" transform="scale(1 1) rotate(0) translate(4 99)">
<title>Om::Parser</title>
<!-- Node1 -->
<g id="node1" class="node"><title>Node1</title>
<polygon fill="#bfbfbf" stroke="black" points="342.441,-40 342.441,-60 409.559,-60 409.559,-40 342.441,-40"/>
<text text-anchor="middle" x="376" y="-46" font-family="Helvetica,sans-Serif" font-size="10.00">Om::Parser</text>
</g>
<!-- Node2 -->
<g id="node2" class="node"><title>Node2</title>
<g id="a_node2"><a xlink:href="class_om_1_1_sources_1_1_default_source.html" target="_top" xlink:title="Om::Sources::DefaultSource\l\&lt; CodePoint const, Parser \&gt;">
<polygon fill="none" stroke="black" points="162.362,-34 162.362,-66 305.638,-66 305.638,-34 162.362,-34"/>
<text text-anchor="start" x="170.362" y="-52" font-family="Helvetica,sans-Serif" font-size="10.00">Om::Sources::DefaultSource</text>
<text text-anchor="middle" x="234" y="-40" font-family="Helvetica,sans-Serif" font-size="10.00">&lt; CodePoint const, Parser &gt;</text>
</a>
</g>
</g>
<!-- Node2&#45;&gt;Node1 -->
<g id="edge1" class="edge"><title>Node2&#45;&gt;Node1</title>
<path fill="none" stroke="midnightblue" d="M315.941,-50C325.203,-50 334.203,-50 342.27,-50"/>
<polygon fill="midnightblue" stroke="midnightblue" points="315.82,-46.5001 305.82,-50 315.82,-53.5001 315.82,-46.5001"/>
</g>
<!-- Node3 -->
<g id="node3" class="node"><title>Node3</title>
<g id="a_node3"><a xlink:href="class_om_1_1_source.html" target="_top" xlink:title="Om::Source\&lt; CodePoint\l const &#160;\&gt;">
<polygon fill="none" stroke="black" points="0.666504,-63 0.666504,-95 125.333,-95 125.333,-63 0.666504,-63"/>
<text text-anchor="start" x="8.6665" y="-81" font-family="Helvetica,sans-Serif" font-size="10.00">Om::Source&lt; CodePoint</text>
<text text-anchor="middle" x="63" y="-69" font-family="Helvetica,sans-Serif" font-size="10.00"> const &gt;</text>
</a>
</g>
</g>
<!-- Node3&#45;&gt;Node2 -->
<g id="edge2" class="edge"><title>Node3&#45;&gt;Node2</title>
<path fill="none" stroke="midnightblue" d="M135.372,-66.7527C144.217,-65.235 153.258,-63.6835 162.096,-62.167"/>
<polygon fill="midnightblue" stroke="midnightblue" points="134.755,-63.3074 125.491,-68.4483 135.939,-70.2065 134.755,-63.3074"/>
</g>
<!-- Node4 -->
<g id="node4" class="node"><title>Node4</title>
<polygon fill="none" stroke="#bfbfbf" points="11.9165,-0 11.9165,-44 114.083,-44 114.083,-0 11.9165,-0"/>
<text text-anchor="start" x="19.9165" y="-30" font-family="Helvetica,sans-Serif" font-size="10.00">std::iterator&lt; std</text>
<text text-anchor="start" x="19.9165" y="-18" font-family="Helvetica,sans-Serif" font-size="10.00">::input_iterator_tag,</text>
<text text-anchor="middle" x="63" y="-6" font-family="Helvetica,sans-Serif" font-size="10.00"> CodePoint const &gt;</text>
</g>
<!-- Node4&#45;&gt;Node2 -->
<g id="edge3" class="edge"><title>Node4&#45;&gt;Node2</title>
<path fill="none" stroke="midnightblue" d="M124.371,-32.0023C136.661,-34.0385 149.694,-36.1978 162.305,-38.2872"/>
<polygon fill="midnightblue" stroke="midnightblue" points="124.686,-28.5068 114.248,-30.3251 123.541,-35.4126 124.686,-28.5068"/>
</g>
</g>
</svg>
