<?xml version="1.0" encoding="UTF-8" standalone="no"?>
<!DOCTYPE svg PUBLIC "-//W3C//DTD SVG 1.1//EN"
 "http://www.w3.org/Graphics/SVG/1.1/DTD/svg11.dtd">
<!-- Generated by graphviz version 2.36.0 (20140111.2315)
 -->
<!-- Title: Om::Language::Consumer Pages: 1 -->
<svg width="1124pt" height="298pt"
 viewBox="0.00 0.00 1124.00 298.00" xmlns="http://www.w3.org/2000/svg" xmlns:xlink="http://www.w3.org/1999/xlink">
<g id="graph0" class="graph" transform="scale(1 1) rotate(0) translate(4 294)">
<title>Om::Language::Consumer</title>
<!-- Node1 -->
<g id="node1" class="node"><title>Node1</title>
<g id="a_node1"><a xlink:title="An Element taker; takes at the back.">
<polygon fill="#bfbfbf" stroke="black" points="0.0791016,-170 0.0791016,-188 133.921,-188 133.921,-170 0.0791016,-170"/>
<text text-anchor="middle" x="67" y="-176" font-family="Helvetica,sans-Serif" font-size="10.00">Om::Language::Consumer</text>
</a>
</g>
</g>
<!-- Node2 -->
<g id="node2" class="node"><title>Node2</title>
<g id="a_node2"><a xlink:href="class_om_1_1_language_1_1_default_consumer.html" target="_top" xlink:title=" ">
<polygon fill="none" stroke="black" points="179.237,-256 179.237,-284 344.763,-284 344.763,-256 179.237,-256"/>
<text text-anchor="start" x="187.237" y="-272" font-family="Helvetica,sans-Serif" font-size="10.00">Om::Language::DefaultConsumer</text>
<text text-anchor="middle" x="262" y="-262" font-family="Helvetica,sans-Serif" font-size="10.00">&lt; Writer &gt;</text>
</a>
</g>
</g>
<!-- Node1&#45;&gt;Node2 -->
<g id="edge1" class="edge"><title>Node1&#45;&gt;Node2</title>
<path fill="none" stroke="midnightblue" d="M91.0676,-193.223C111.404,-205.436 142.063,-223.066 170,-236 185.764,-243.298 203.574,-250.227 219.232,-255.903"/>
<polygon fill="midnightblue" stroke="midnightblue" points="92.8632,-190.219 82.4971,-188.029 89.2352,-196.205 92.8632,-190.219"/>
</g>
<!-- Node4 -->
<g id="node4" class="node"><title>Node4</title>
<g id="a_node4"><a xlink:href="class_om_1_1_language_1_1_default_consumer.html" target="_top" xlink:title=" ">
<polygon fill="none" stroke="black" points="179.237,-199 179.237,-227 344.763,-227 344.763,-199 179.237,-199"/>
<text text-anchor="start" x="187.237" y="-215" font-family="Helvetica,sans-Serif" font-size="10.00">Om::Language::DefaultConsumer</text>
<text text-anchor="middle" x="262" y="-205" font-family="Helvetica,sans-Serif" font-size="10.00">&lt; Evaluator &gt;</text>
</a>
</g>
</g>
<!-- Node1&#45;&gt;Node4 -->
<g id="edge3" class="edge"><title>Node1&#45;&gt;Node4</title>
<path fill="none" stroke="midnightblue" d="M129.31,-189.801C145.893,-192.722 164.083,-195.927 181.508,-198.996"/>
<polygon fill="midnightblue" stroke="midnightblue" points="129.669,-186.31 119.214,-188.022 128.455,-193.204 129.669,-186.31"/>
</g>
<!-- Node6 -->
<g id="node6" class="node"><title>Node6</title>
<g id="a_node6"><a xlink:href="class_om_1_1_language_1_1_default_consumer.html" target="_top" xlink:title="A partial implementation of Consumer.">
<polygon fill="none" stroke="black" points="170.248,-131 170.248,-159 353.752,-159 353.752,-131 170.248,-131"/>
<text text-anchor="start" x="178.248" y="-147" font-family="Helvetica,sans-Serif" font-size="10.00">Om::Language::DefaultConsumer</text>
<text text-anchor="middle" x="262" y="-137" font-family="Helvetica,sans-Serif" font-size="10.00">&lt; ThisImplementation, ThisInterface &gt;</text>
</a>
</g>
</g>
<!-- Node1&#45;&gt;Node6 -->
<g id="edge5" class="edge"><title>Node1&#45;&gt;Node6</title>
<path fill="none" stroke="midnightblue" d="M129.31,-168.199C145.893,-165.278 164.083,-162.073 181.508,-159.004"/>
<polygon fill="midnightblue" stroke="midnightblue" points="128.455,-164.796 119.214,-169.978 129.669,-171.69 128.455,-164.796"/>
</g>
<!-- Node19 -->
<g id="node19" class="node"><title>Node19</title>
<g id="a_node19"><a xlink:href="class_om_1_1_language_1_1_program.html" target="_top" xlink:title="The Program implementation.">
<polygon fill="none" stroke="black" points="198.971,-47 198.971,-65 325.029,-65 325.029,-47 198.971,-47"/>
<text text-anchor="middle" x="262" y="-53" font-family="Helvetica,sans-Serif" font-size="10.00">Om::Language::Program</text>
</a>
</g>
</g>
<!-- Node1&#45;&gt;Node19 -->
<g id="edge18" class="edge"><title>Node1&#45;&gt;Node19</title>
<path fill="none" stroke="midnightblue" d="M90.787,-164.478C131.052,-138.817 213.654,-86.1736 246.787,-65.0577"/>
<polygon fill="midnightblue" stroke="midnightblue" points="88.7437,-161.63 82.1918,-169.956 92.5058,-167.533 88.7437,-161.63"/>
</g>
<!-- Node3 -->
<g id="node3" class="node"><title>Node3</title>
<g id="a_node3"><a xlink:href="class_om_1_1_language_1_1_writer.html" target="_top" xlink:title="A Consumer that pushes each Element to a CodePoint Sink upon receipt.">
<polygon fill="none" stroke="black" points="411.901,-272 411.901,-290 526.099,-290 526.099,-272 411.901,-272"/>
<text text-anchor="middle" x="469" y="-278" font-family="Helvetica,sans-Serif" font-size="10.00">Om::Language::Writer</text>
</a>
</g>
</g>
<!-- Node2&#45;&gt;Node3 -->
<g id="edge2" class="edge"><title>Node2&#45;&gt;Node3</title>
<path fill="none" stroke="midnightblue" d="M354.963,-274.935C374.314,-275.973 394.171,-277.038 411.736,-277.981"/>
<polygon fill="midnightblue" stroke="midnightblue" points="355.078,-271.436 344.905,-274.395 354.703,-278.426 355.078,-271.436"/>
</g>
<!-- Node5 -->
<g id="node5" class="node"><title>Node5</title>
<g id="a_node5"><a xlink:href="class_om_1_1_language_1_1_evaluator.html" target="_top" xlink:title="A Consumer that evaluates Program instances.">
<polygon fill="none" stroke="black" points="404.02,-235 404.02,-253 533.98,-253 533.98,-235 404.02,-235"/>
<text text-anchor="middle" x="469" y="-241" font-family="Helvetica,sans-Serif" font-size="10.00">Om::Language::Evaluator</text>
</a>
</g>
</g>
<!-- Node4&#45;&gt;Node5 -->
<g id="edge4" class="edge"><title>Node4&#45;&gt;Node5</title>
<path fill="none" stroke="midnightblue" d="M354.913,-226.899C373.036,-229.64 391.605,-232.448 408.321,-234.975"/>
<polygon fill="midnightblue" stroke="midnightblue" points="355.316,-223.42 344.905,-225.386 354.269,-230.342 355.316,-223.42"/>
</g>
<!-- Node7 -->
<g id="node7" class="node"><title>Node7</title>
<g id="a_node7"><a xlink:href="class_om_1_1_language_1_1_default_program.html" target="_top" xlink:title=" ">
<polygon fill="none" stroke="black" points="390.128,-178 390.128,-216 547.872,-216 547.872,-178 390.128,-178"/>
<text text-anchor="start" x="398.128" y="-204" font-family="Helvetica,sans-Serif" font-size="10.00">Om::Language::DefaultProgram</text>
<text text-anchor="start" x="398.128" y="-194" font-family="Helvetica,sans-Serif" font-size="10.00">&lt; ThisImplementation, Om</text>
<text text-anchor="middle" x="469" y="-184" font-family="Helvetica,sans-Serif" font-size="10.00">::Language::Element &gt;</text>
</a>
</g>
</g>
<!-- Node6&#45;&gt;Node7 -->
<g id="edge6" class="edge"><title>Node6&#45;&gt;Node7</title>
<path fill="none" stroke="midnightblue" d="M328.136,-161.522C348.782,-166.759 371.772,-172.591 393.051,-177.989"/>
<polygon fill="midnightblue" stroke="midnightblue" points="328.76,-158.07 318.206,-159.003 327.038,-164.855 328.76,-158.07"/>
</g>
<!-- Node13 -->
<g id="node13" class="node"><title>Node13</title>
<g id="a_node13"><a xlink:href="class_om_1_1_language_1_1_default_program.html" target="_top" xlink:title=" ">
<polygon fill="none" stroke="black" points="390.128,-131 390.128,-159 547.872,-159 547.872,-131 390.128,-131"/>
<text text-anchor="start" x="398.128" y="-147" font-family="Helvetica,sans-Serif" font-size="10.00">Om::Language::DefaultProgram</text>
<text text-anchor="middle" x="469" y="-137" font-family="Helvetica,sans-Serif" font-size="10.00">&lt; Literal &gt;</text>
</a>
</g>
</g>
<!-- Node6&#45;&gt;Node13 -->
<g id="edge12" class="edge"><title>Node6&#45;&gt;Node13</title>
<path fill="none" stroke="midnightblue" d="M364.059,-145C372.808,-145 381.57,-145 390.091,-145"/>
<polygon fill="midnightblue" stroke="midnightblue" points="363.811,-141.5 353.811,-145 363.811,-148.5 363.811,-141.5"/>
</g>
<!-- Node15 -->
<g id="node15" class="node"><title>Node15</title>
<g id="a_node15"><a xlink:href="class_om_1_1_language_1_1_default_program.html" target="_top" xlink:title=" ">
<polygon fill="none" stroke="black" points="390.128,-84 390.128,-112 547.872,-112 547.872,-84 390.128,-84"/>
<text text-anchor="start" x="398.128" y="-100" font-family="Helvetica,sans-Serif" font-size="10.00">Om::Language::DefaultProgram</text>
<text text-anchor="middle" x="469" y="-90" font-family="Helvetica,sans-Serif" font-size="10.00">&lt; Lexicon &gt;</text>
</a>
</g>
</g>
<!-- Node6&#45;&gt;Node15 -->
<g id="edge14" class="edge"><title>Node6&#45;&gt;Node15</title>
<path fill="none" stroke="midnightblue" d="M334.191,-128.678C357.824,-123.26 383.914,-117.278 406.732,-112.047"/>
<polygon fill="midnightblue" stroke="midnightblue" points="333.194,-125.316 324.229,-130.962 334.758,-132.139 333.194,-125.316"/>
</g>
<!-- Node17 -->
<g id="node17" class="node"><title>Node17</title>
<g id="a_node17"><a xlink:href="class_om_1_1_language_1_1_default_program.html" target="_top" xlink:title=" ">
<polygon fill="none" stroke="black" points="390.128,-37 390.128,-65 547.872,-65 547.872,-37 390.128,-37"/>
<text text-anchor="start" x="398.128" y="-53" font-family="Helvetica,sans-Serif" font-size="10.00">Om::Language::DefaultProgram</text>
<text text-anchor="middle" x="469" y="-43" font-family="Helvetica,sans-Serif" font-size="10.00">&lt; Expression &gt;</text>
</a>
</g>
</g>
<!-- Node6&#45;&gt;Node17 -->
<g id="edge16" class="edge"><title>Node6&#45;&gt;Node17</title>
<path fill="none" stroke="midnightblue" d="M293.419,-125.445C318.556,-109.918 355.577,-88.4831 390,-74 397.808,-70.7149 406.241,-67.7062 414.576,-65.0249"/>
<polygon fill="midnightblue" stroke="midnightblue" points="291.351,-122.609 284.722,-130.874 295.058,-128.547 291.351,-122.609"/>
</g>
<!-- Node8 -->
<g id="node8" class="node"><title>Node8</title>
<g id="a_node8"><a xlink:href="class_om_1_1_language_1_1_default_element.html" target="_top" xlink:title="A partial implementation of Element.">
<polygon fill="none" stroke="black" points="584.248,-183 584.248,-211 767.752,-211 767.752,-183 584.248,-183"/>
<text text-anchor="start" x="592.248" y="-199" font-family="Helvetica,sans-Serif" font-size="10.00">Om::Language::DefaultElement</text>
<text text-anchor="middle" x="676" y="-189" font-family="Helvetica,sans-Serif" font-size="10.00">&lt; ThisImplementation, ThisInterface &gt;</text>
</a>
</g>
</g>
<!-- Node7&#45;&gt;Node8 -->
<g id="edge7" class="edge"><title>Node7&#45;&gt;Node8</title>
<path fill="none" stroke="midnightblue" d="M558.109,-197C566.713,-197 575.455,-197 584.086,-197"/>
<polygon fill="midnightblue" stroke="midnightblue" points="558.087,-193.5 548.087,-197 558.086,-200.5 558.087,-193.5"/>
</g>
<!-- Node9 -->
<g id="node9" class="node"><title>Node9</title>
<g id="a_node9"><a xlink:href="class_om_1_1_language_1_1_default_atom.html" target="_top" xlink:title=" ">
<polygon fill="none" stroke="black" points="804.631,-206 804.631,-234 947.369,-234 947.369,-206 804.631,-206"/>
<text text-anchor="start" x="812.631" y="-222" font-family="Helvetica,sans-Serif" font-size="10.00">Om::Language::DefaultAtom</text>
<text text-anchor="middle" x="876" y="-212" font-family="Helvetica,sans-Serif" font-size="10.00">&lt; Operator &gt;</text>
</a>
</g>
</g>
<!-- Node8&#45;&gt;Node9 -->
<g id="edge8" class="edge"><title>Node8&#45;&gt;Node9</title>
<path fill="none" stroke="midnightblue" d="M778,-208.732C786.962,-209.773 795.903,-210.812 804.528,-211.814"/>
<polygon fill="midnightblue" stroke="midnightblue" points="778.224,-205.235 767.887,-207.558 777.416,-212.188 778.224,-205.235"/>
</g>
<!-- Node11 -->
<g id="node11" class="node"><title>Node11</title>
<g id="a_node11"><a xlink:href="class_om_1_1_language_1_1_default_atom.html" target="_top" xlink:title=" ">
<polygon fill="none" stroke="black" points="804.631,-159 804.631,-187 947.369,-187 947.369,-159 804.631,-159"/>
<text text-anchor="start" x="812.631" y="-175" font-family="Helvetica,sans-Serif" font-size="10.00">Om::Language::DefaultAtom</text>
<text text-anchor="middle" x="876" y="-165" font-family="Helvetica,sans-Serif" font-size="10.00">&lt; Separator &gt;</text>
</a>
</g>
</g>
<!-- Node8&#45;&gt;Node11 -->
<g id="edge10" class="edge"><title>Node8&#45;&gt;Node11</title>
<path fill="none" stroke="midnightblue" d="M778,-184.758C786.962,-183.671 795.903,-182.587 804.528,-181.542"/>
<polygon fill="midnightblue" stroke="midnightblue" points="777.393,-181.305 767.887,-185.983 778.236,-188.255 777.393,-181.305"/>
</g>
<!-- Node10 -->
<g id="node10" class="node"><title>Node10</title>
<g id="a_node10"><a xlink:href="class_om_1_1_language_1_1_operator.html" target="_top" xlink:title="The Operator implementation.">
<polygon fill="none" stroke="black" points="986.412,-211 986.412,-229 1113.59,-229 1113.59,-211 986.412,-211"/>
<text text-anchor="middle" x="1050" y="-217" font-family="Helvetica,sans-Serif" font-size="10.00">Om::Language::Operator</text>
</a>
</g>
</g>
<!-- Node9&#45;&gt;Node10 -->
<g id="edge9" class="edge"><title>Node9&#45;&gt;Node10</title>
<path fill="none" stroke="midnightblue" d="M957.505,-220C967.2,-220 976.989,-220 986.377,-220"/>
<polygon fill="midnightblue" stroke="midnightblue" points="957.455,-216.5 947.455,-220 957.455,-223.5 957.455,-216.5"/>
</g>
<!-- Node12 -->
<g id="node12" class="node"><title>Node12</title>
<g id="a_node12"><a xlink:href="class_om_1_1_language_1_1_separator.html" target="_top" xlink:title="The Separator implementation.">
<polygon fill="none" stroke="black" points="984.185,-164 984.185,-182 1115.81,-182 1115.81,-164 984.185,-164"/>
<text text-anchor="middle" x="1050" y="-170" font-family="Helvetica,sans-Serif" font-size="10.00">Om::Language::Separator</text>
</a>
</g>
</g>
<!-- Node11&#45;&gt;Node12 -->
<g id="edge11" class="edge"><title>Node11&#45;&gt;Node12</title>
<path fill="none" stroke="midnightblue" d="M957.709,-173C966.492,-173 975.349,-173 983.911,-173"/>
<polygon fill="midnightblue" stroke="midnightblue" points="957.455,-169.5 947.455,-173 957.455,-176.5 957.455,-169.5"/>
</g>
<!-- Node14 -->
<g id="node14" class="node"><title>Node14</title>
<g id="a_node14"><a xlink:href="class_om_1_1_language_1_1_literal.html" target="_top" xlink:title="The Literal Program implementation.">
<polygon fill="none" stroke="black" points="618.525,-136 618.525,-154 733.475,-154 733.475,-136 618.525,-136"/>
<text text-anchor="middle" x="676" y="-142" font-family="Helvetica,sans-Serif" font-size="10.00">Om::Language::Literal</text>
</a>
</g>
</g>
<!-- Node13&#45;&gt;Node14 -->
<g id="edge13" class="edge"><title>Node13&#45;&gt;Node14</title>
<path fill="none" stroke="midnightblue" d="M558.339,-145C578.728,-145 599.879,-145 618.482,-145"/>
<polygon fill="midnightblue" stroke="midnightblue" points="558.087,-141.5 548.087,-145 558.086,-148.5 558.087,-141.5"/>
</g>
<!-- Node16 -->
<g id="node16" class="node"><title>Node16</title>
<g id="a_node16"><a xlink:href="class_om_1_1_language_1_1_lexicon.html" target="_top" xlink:title="The Lexicon Program implementation.">
<polygon fill="none" stroke="black" points="614.909,-89 614.909,-107 737.091,-107 737.091,-89 614.909,-89"/>
<text text-anchor="middle" x="676" y="-95" font-family="Helvetica,sans-Serif" font-size="10.00">Om::Language::Lexicon</text>
</a>
</g>
</g>
<!-- Node15&#45;&gt;Node16 -->
<g id="edge15" class="edge"><title>Node15&#45;&gt;Node16</title>
<path fill="none" stroke="midnightblue" d="M558.267,-98C577.296,-98 596.994,-98 614.666,-98"/>
<polygon fill="midnightblue" stroke="midnightblue" points="558.087,-94.5001 548.087,-98 558.086,-101.5 558.087,-94.5001"/>
</g>
<!-- Node18 -->
<g id="node18" class="node"><title>Node18</title>
<g id="a_node18"><a xlink:href="class_om_1_1_language_1_1_expression.html" target="_top" xlink:title="The Expression Program implementation.">
<polygon fill="none" stroke="black" points="607.409,-42 607.409,-60 744.591,-60 744.591,-42 607.409,-42"/>
<text text-anchor="middle" x="676" y="-48" font-family="Helvetica,sans-Serif" font-size="10.00">Om::Language::Expression</text>
</a>
</g>
</g>
<!-- Node17&#45;&gt;Node18 -->
<g id="edge17" class="edge"><title>Node17&#45;&gt;Node18</title>
<path fill="none" stroke="midnightblue" d="M558.217,-51C574.614,-51 591.509,-51 607.178,-51"/>
<polygon fill="midnightblue" stroke="midnightblue" points="558.087,-47.5001 548.087,-51 558.086,-54.5001 558.087,-47.5001"/>
</g>
<!-- Node20 -->
<g id="node20" class="node"><title>Node20</title>
<g id="a_node20"><a xlink:href="class_om_1_1_language_1_1_element.html" target="_top" xlink:title="A Program that contains a single elemental item (or none, when IsEmpty() returns true).">
<polygon fill="none" stroke="black" points="406.801,-0 406.801,-18 531.199,-18 531.199,-0 406.801,-0"/>
<text text-anchor="middle" x="469" y="-6" font-family="Helvetica,sans-Serif" font-size="10.00">Om::Language::Element</text>
</a>
</g>
</g>
<!-- Node19&#45;&gt;Node20 -->
<g id="edge19" class="edge"><title>Node19&#45;&gt;Node20</title>
<path fill="none" stroke="midnightblue" d="M312.702,-44.6049C348.302,-36.4429 395.591,-25.6011 428.595,-18.0343"/>
<polygon fill="midnightblue" stroke="midnightblue" points="311.491,-41.2917 302.526,-46.9379 313.055,-48.1146 311.491,-41.2917"/>
</g>
<!-- Node21 -->
<g id="node21" class="node"><title>Node21</title>
<g id="a_node21"><a xlink:href="class_om_1_1_language_1_1_atom.html" target="_top" xlink:title="An atomic Element defined by a string.">
<polygon fill="none" stroke="black" points="620.473,-0 620.473,-18 731.527,-18 731.527,-0 620.473,-0"/>
<text text-anchor="middle" x="676" y="-6" font-family="Helvetica,sans-Serif" font-size="10.00">Om::Language::Atom</text>
</a>
</g>
</g>
<!-- Node20&#45;&gt;Node21 -->
<g id="edge20" class="edge"><title>Node20&#45;&gt;Node21</title>
<path fill="none" stroke="midnightblue" d="M541.374,-9C567.282,-9 596.122,-9 620.358,-9"/>
<polygon fill="midnightblue" stroke="midnightblue" points="541.229,-5.5001 531.229,-9 541.229,-12.5001 541.229,-5.5001"/>
</g>
</g>
</svg>
