<?xml version="1.0" encoding="UTF-8" standalone="no"?>
<!DOCTYPE svg PUBLIC "-//W3C//DTD SVG 1.1//EN"
 "http://www.w3.org/Graphics/SVG/1.1/DTD/svg11.dtd">
<!-- Generated by graphviz version 2.36.0 (20140111.2315)
 -->
<!-- Title: Om::Language::Form Pages: 1 -->
<svg width="2078pt" height="153pt"
 viewBox="0.00 0.00 2078.00 153.00" xmlns="http://www.w3.org/2000/svg" xmlns:xlink="http://www.w3.org/1999/xlink">
<g id="graph0" class="graph" transform="scale(1 1) rotate(0) translate(4 149)">
<title>Om::Language::Form</title>
<!-- Node1 -->
<g id="node1" class="node"><title>Node1</title>
<g id="a_node1"><a xlink:title="An Operator (which may be empty), followed by zero or more Operand instances.">
<polygon fill="#bfbfbf" stroke="black" points="1958.48,-40 1958.48,-58 2069.52,-58 2069.52,-40 1958.48,-40"/>
<text text-anchor="middle" x="2014" y="-46" font-family="Helvetica,sans-Serif" font-size="10.00">Om::Language::Form</text>
</a>
</g>
</g>
<!-- Node2 -->
<g id="node2" class="node"><title>Node2</title>
<g id="a_node2"><a xlink:title=" ">
<polygon fill="none" stroke="#bfbfbf" points="1710.57,-58 1710.57,-76 1829.43,-76 1829.43,-58 1710.57,-58"/>
<text text-anchor="middle" x="1770" y="-64" font-family="Helvetica,sans-Serif" font-size="10.00">std::deque&lt; Operand &gt;</text>
</a>
</g>
</g>
<!-- Node2&#45;&gt;Node1 -->
<g id="edge1" class="edge"><title>Node2&#45;&gt;Node1</title>
<path fill="none" stroke="#9a32cd" stroke-dasharray="5,2" d="M1839.93,-61.873C1877.45,-59.0821 1923.23,-55.6773 1958.28,-53.0704"/>
<polygon fill="#9a32cd" stroke="#9a32cd" points="1839.29,-58.4105 1829.58,-62.6427 1839.81,-65.3912 1839.29,-58.4105"/>
<text text-anchor="middle" x="1896" y="-63" font-family="Helvetica,sans-Serif" font-size="10.00"> thisOperandDeque</text>
</g>
<!-- Node3 -->
<g id="node3" class="node"><title>Node3</title>
<g id="a_node3"><a xlink:href="class_om_1_1_language_1_1_operand.html" target="_top" xlink:title="The Operand implementation.">
<polygon fill="none" stroke="black" points="1490.69,-61 1490.69,-79 1617.31,-79 1617.31,-61 1490.69,-61"/>
<text text-anchor="middle" x="1554" y="-67" font-family="Helvetica,sans-Serif" font-size="10.00">Om::Language::Operand</text>
</a>
</g>
</g>
<!-- Node3&#45;&gt;Node2 -->
<g id="edge2" class="edge"><title>Node3&#45;&gt;Node2</title>
<path fill="none" stroke="#9a32cd" stroke-dasharray="5,2" d="M1627.64,-68.9816C1654.64,-68.6031 1684.91,-68.1788 1710.49,-67.8203"/>
<polygon fill="#9a32cd" stroke="#9a32cd" points="1627.42,-65.4843 1617.47,-69.1242 1627.52,-72.4836 1627.42,-65.4843"/>
<text text-anchor="middle" x="1666" y="-71" font-family="Helvetica,sans-Serif" font-size="10.00"> elements</text>
</g>
<!-- Node4 -->
<g id="node4" class="node"><title>Node4</title>
<g id="a_node4"><a xlink:href="class_om_1_1_language_1_1_default_element.html" target="_top" xlink:title=" ">
<polygon fill="none" stroke="black" points="1273.96,-99 1273.96,-127 1430.04,-127 1430.04,-99 1273.96,-99"/>
<text text-anchor="start" x="1281.96" y="-115" font-family="Helvetica,sans-Serif" font-size="10.00">Om::Language::DefaultElement</text>
<text text-anchor="middle" x="1352" y="-105" font-family="Helvetica,sans-Serif" font-size="10.00">&lt; Operand &gt;</text>
</a>
</g>
</g>
<!-- Node4&#45;&gt;Node3 -->
<g id="edge3" class="edge"><title>Node4&#45;&gt;Node3</title>
<path fill="none" stroke="midnightblue" d="M1427.99,-96.8774C1456.01,-90.8532 1486.83,-84.2272 1510.85,-79.0614"/>
<polygon fill="midnightblue" stroke="midnightblue" points="1427.25,-93.4558 1418.21,-98.9797 1428.72,-100.299 1427.25,-93.4558"/>
</g>
<!-- Node5 -->
<g id="node5" class="node"><title>Node5</title>
<g id="a_node5"><a xlink:href="class_om_1_1_language_1_1_default_program.html" target="_top" xlink:title="A partial implementation of Program.">
<polygon fill="none" stroke="black" points="898.248,-99 898.248,-127 1081.75,-127 1081.75,-99 898.248,-99"/>
<text text-anchor="start" x="906.248" y="-115" font-family="Helvetica,sans-Serif" font-size="10.00">Om::Language::DefaultProgram</text>
<text text-anchor="middle" x="990" y="-105" font-family="Helvetica,sans-Serif" font-size="10.00">&lt; ThisImplementation, ThisInterface &gt;</text>
</a>
</g>
</g>
<!-- Node5&#45;&gt;Node4 -->
<g id="edge4" class="edge"><title>Node5&#45;&gt;Node4</title>
<path fill="none" stroke="midnightblue" d="M1092.07,-113C1149.71,-113 1220.8,-113 1273.9,-113"/>
<polygon fill="midnightblue" stroke="midnightblue" points="1091.84,-109.5 1081.84,-113 1091.84,-116.5 1091.84,-109.5"/>
</g>
<!-- Node6 -->
<g id="node6" class="node"><title>Node6</title>
<g id="a_node6"><a xlink:href="class_om_1_1_language_1_1_default_consumer.html" target="_top" xlink:title=" ">
<polygon fill="none" stroke="black" points="671.794,-97 671.794,-145 860.206,-145 860.206,-97 671.794,-97"/>
<text text-anchor="start" x="679.794" y="-133" font-family="Helvetica,sans-Serif" font-size="10.00">Om::Language::DefaultConsumer</text>
<text text-anchor="start" x="679.794" y="-123" font-family="Helvetica,sans-Serif" font-size="10.00">&lt; ThisImplementation, DefaultGiveable</text>
<text text-anchor="start" x="679.794" y="-113" font-family="Helvetica,sans-Serif" font-size="10.00">&lt; ThisImplementation, Om::Language</text>
<text text-anchor="middle" x="766" y="-103" font-family="Helvetica,sans-Serif" font-size="10.00">::Program &gt; &gt;</text>
</a>
</g>
</g>
<!-- Node6&#45;&gt;Node5 -->
<g id="edge5" class="edge"><title>Node6&#45;&gt;Node5</title>
<path fill="none" stroke="midnightblue" d="M870.765,-117.261C879.89,-116.932 889.08,-116.601 898.087,-116.276"/>
<polygon fill="midnightblue" stroke="midnightblue" points="870.372,-113.773 860.505,-117.63 870.624,-120.768 870.372,-113.773"/>
</g>
<!-- Node7 -->
<g id="node7" class="node"><title>Node7</title>
<g id="a_node7"><a xlink:href="class_om_1_1_default_giveable.html" target="_top" xlink:title="A partial implementation of Giveable.">
<polygon fill="none" stroke="black" points="509.759,-102 509.759,-140 624.241,-140 624.241,-102 509.759,-102"/>
<text text-anchor="start" x="517.759" y="-128" font-family="Helvetica,sans-Serif" font-size="10.00">Om::DefaultGiveable</text>
<text text-anchor="start" x="517.759" y="-118" font-family="Helvetica,sans-Serif" font-size="10.00">&lt; ThisImplementation,</text>
<text text-anchor="middle" x="567" y="-108" font-family="Helvetica,sans-Serif" font-size="10.00"> ThisInterface &gt;</text>
</a>
</g>
</g>
<!-- Node7&#45;&gt;Node6 -->
<g id="edge6" class="edge"><title>Node7&#45;&gt;Node6</title>
<path fill="none" stroke="midnightblue" d="M634.718,-121C646.625,-121 659.227,-121 671.717,-121"/>
<polygon fill="midnightblue" stroke="midnightblue" points="634.452,-117.5 624.452,-121 634.452,-124.5 634.452,-117.5"/>
</g>
<!-- Node8 -->
<g id="node8" class="node"><title>Node8</title>
<g id="a_node8"><a xlink:href="class_om_1_1_default_moveable.html" target="_top" xlink:title=" ">
<polygon fill="none" stroke="black" points="270.402,-97 270.402,-145 461.598,-145 461.598,-97 270.402,-97"/>
<text text-anchor="start" x="278.402" y="-133" font-family="Helvetica,sans-Serif" font-size="10.00">Om::DefaultMoveable</text>
<text text-anchor="start" x="278.402" y="-123" font-family="Helvetica,sans-Serif" font-size="10.00">&lt; ThisImplementation,</text>
<text text-anchor="start" x="278.402" y="-113" font-family="Helvetica,sans-Serif" font-size="10.00"> DefaultCopyable&lt; ThisImplementation,</text>
<text text-anchor="middle" x="366" y="-103" font-family="Helvetica,sans-Serif" font-size="10.00"> Giveable &gt; &gt;</text>
</a>
</g>
</g>
<!-- Node8&#45;&gt;Node7 -->
<g id="edge7" class="edge"><title>Node8&#45;&gt;Node7</title>
<path fill="none" stroke="midnightblue" d="M472.169,-121C485.039,-121 497.781,-121 509.532,-121"/>
<polygon fill="midnightblue" stroke="midnightblue" points="471.837,-117.5 461.837,-121 471.837,-124.5 471.837,-117.5"/>
</g>
<!-- Node9 -->
<g id="node9" class="node"><title>Node9</title>
<g id="a_node9"><a xlink:href="class_om_1_1_default_copyable.html" target="_top" xlink:title="A partial implementation of Copyable.">
<polygon fill="none" stroke="black" points="117.759,-102 117.759,-140 232.241,-140 232.241,-102 117.759,-102"/>
<text text-anchor="start" x="125.759" y="-128" font-family="Helvetica,sans-Serif" font-size="10.00">Om::DefaultCopyable</text>
<text text-anchor="start" x="125.759" y="-118" font-family="Helvetica,sans-Serif" font-size="10.00">&lt; ThisImplementation,</text>
<text text-anchor="middle" x="175" y="-108" font-family="Helvetica,sans-Serif" font-size="10.00"> ThisInterface &gt;</text>
</a>
</g>
</g>
<!-- Node9&#45;&gt;Node8 -->
<g id="edge8" class="edge"><title>Node9&#45;&gt;Node8</title>
<path fill="none" stroke="midnightblue" d="M242.465,-121C251.493,-121 260.897,-121 270.304,-121"/>
<polygon fill="midnightblue" stroke="midnightblue" points="242.45,-117.5 232.45,-121 242.45,-124.5 242.45,-117.5"/>
</g>
<!-- Node10 -->
<g id="node10" class="node"><title>Node10</title>
<g id="a_node10"><a xlink:href="class_om_1_1_copyable.html" target="_top" xlink:title="An object that can be passed to Copy to be copied.">
<polygon fill="none" stroke="black" points="0.0419922,-112 0.0419922,-130 79.958,-130 79.958,-112 0.0419922,-112"/>
<text text-anchor="middle" x="40" y="-118" font-family="Helvetica,sans-Serif" font-size="10.00">Om::Copyable</text>
</a>
</g>
</g>
<!-- Node10&#45;&gt;Node9 -->
<g id="edge9" class="edge"><title>Node10&#45;&gt;Node9</title>
<path fill="none" stroke="midnightblue" d="M90.2925,-121C99.1067,-121 108.354,-121 117.355,-121"/>
<polygon fill="midnightblue" stroke="midnightblue" points="90.1851,-117.5 80.185,-121 90.185,-124.5 90.1851,-117.5"/>
</g>
<!-- Node11 -->
<g id="node11" class="node"><title>Node11</title>
<g id="a_node11"><a xlink:href="class_om_1_1_taker.html" target="_top" xlink:title="An object that can take (copy or swap) another of the same type.">
<polygon fill="none" stroke="black" points="682.78,-60 682.78,-78 849.22,-78 849.22,-60 682.78,-60"/>
<text text-anchor="middle" x="766" y="-66" font-family="Helvetica,sans-Serif" font-size="10.00">Om::Taker&lt; ThisImplementation &gt;</text>
</a>
</g>
</g>
<!-- Node11&#45;&gt;Node5 -->
<g id="edge10" class="edge"><title>Node11&#45;&gt;Node5</title>
<path fill="none" stroke="midnightblue" d="M824.484,-80.0541C836.237,-82.3344 848.52,-84.7321 860,-87 879.387,-90.8299 900.401,-95.04 919.728,-98.9362"/>
<polygon fill="midnightblue" stroke="midnightblue" points="824.808,-76.552 814.325,-78.0867 823.477,-83.4243 824.808,-76.552"/>
</g>
<!-- Node12 -->
<g id="node12" class="node"><title>Node12</title>
<g id="a_node12"><a xlink:href="class_om_1_1_owner.html" target="_top" xlink:title=" ">
<polygon fill="none" stroke="black" points="1100.05,-56 1100.05,-84 1241.95,-84 1241.95,-56 1100.05,-56"/>
<text text-anchor="start" x="1108.05" y="-72" font-family="Helvetica,sans-Serif" font-size="10.00">Om::Owner&lt; Om::Language</text>
<text text-anchor="middle" x="1171" y="-62" font-family="Helvetica,sans-Serif" font-size="10.00">::Program &gt;</text>
</a>
</g>
</g>
<!-- Node11&#45;&gt;Node12 -->
<g id="edge12" class="edge"><title>Node11&#45;&gt;Node12</title>
<path fill="none" stroke="midnightblue" d="M859.666,-69.2299C932.866,-69.4116 1033.44,-69.6611 1100.01,-69.8263"/>
<polygon fill="midnightblue" stroke="midnightblue" points="859.534,-65.7297 849.526,-69.2048 859.517,-72.7297 859.534,-65.7297"/>
</g>
<!-- Node16 -->
<g id="node16" class="node"><title>Node16</title>
<g id="a_node16"><a xlink:href="class_om_1_1_language_1_1_default_program.html" target="_top" xlink:title=" ">
<polygon fill="none" stroke="black" points="911.128,-0 911.128,-38 1068.87,-38 1068.87,-0 911.128,-0"/>
<text text-anchor="start" x="919.128" y="-26" font-family="Helvetica,sans-Serif" font-size="10.00">Om::Language::DefaultProgram</text>
<text text-anchor="start" x="919.128" y="-16" font-family="Helvetica,sans-Serif" font-size="10.00">&lt; ThisImplementation, Om</text>
<text text-anchor="middle" x="990" y="-6" font-family="Helvetica,sans-Serif" font-size="10.00">::Language::Element &gt;</text>
</a>
</g>
</g>
<!-- Node11&#45;&gt;Node16 -->
<g id="edge19" class="edge"><title>Node11&#45;&gt;Node16</title>
<path fill="none" stroke="midnightblue" d="M817.046,-57.7284C844.72,-51.4955 879.721,-43.6124 910.91,-36.5878"/>
<polygon fill="midnightblue" stroke="midnightblue" points="816.189,-54.3336 807.203,-59.9454 817.727,-61.1626 816.189,-54.3336"/>
</g>
<!-- Node12&#45;&gt;Node3 -->
<g id="edge11" class="edge"><title>Node12&#45;&gt;Node3</title>
<path fill="none" stroke="#9a32cd" stroke-dasharray="5,2" d="M1252.57,-70C1323.62,-70 1425.68,-70 1490.66,-70"/>
<polygon fill="#9a32cd" stroke="#9a32cd" points="1252.33,-66.5001 1242.33,-70 1252.33,-73.5001 1252.33,-66.5001"/>
<text text-anchor="middle" x="1352" y="-72" font-family="Helvetica,sans-Serif" font-size="10.00"> thisProgram</text>
</g>
<!-- Node13 -->
<g id="node13" class="node"><title>Node13</title>
<g id="a_node13"><a xlink:href="class_om_1_1_language_1_1_operator.html" target="_top" xlink:title="The Operator implementation.">
<polygon fill="none" stroke="black" points="1706.41,-21 1706.41,-39 1833.59,-39 1833.59,-21 1706.41,-21"/>
<text text-anchor="middle" x="1770" y="-27" font-family="Helvetica,sans-Serif" font-size="10.00">Om::Language::Operator</text>
</a>
</g>
</g>
<!-- Node13&#45;&gt;Node1 -->
<g id="edge13" class="edge"><title>Node13&#45;&gt;Node1</title>
<path fill="none" stroke="#9a32cd" stroke-dasharray="5,2" d="M1843.97,-34.0432C1873.77,-35.8783 1908.56,-38.2552 1940,-41 1945.97,-41.5211 1952.21,-42.1205 1958.41,-42.752"/>
<polygon fill="#9a32cd" stroke="#9a32cd" points="1843.85,-30.5293 1833.65,-33.417 1843.42,-37.5164 1843.85,-30.5293"/>
<text text-anchor="middle" x="1896" y="-43" font-family="Helvetica,sans-Serif" font-size="10.00"> thisOperator</text>
</g>
<!-- Node14 -->
<g id="node14" class="node"><title>Node14</title>
<g id="a_node14"><a xlink:href="class_om_1_1_language_1_1_default_atom.html" target="_top" xlink:title=" ">
<polygon fill="none" stroke="black" points="1482.63,-12 1482.63,-40 1625.37,-40 1625.37,-12 1482.63,-12"/>
<text text-anchor="start" x="1490.63" y="-28" font-family="Helvetica,sans-Serif" font-size="10.00">Om::Language::DefaultAtom</text>
<text text-anchor="middle" x="1554" y="-18" font-family="Helvetica,sans-Serif" font-size="10.00">&lt; Operator &gt;</text>
</a>
</g>
</g>
<!-- Node14&#45;&gt;Node13 -->
<g id="edge14" class="edge"><title>Node14&#45;&gt;Node13</title>
<path fill="none" stroke="midnightblue" d="M1635.89,-27.5119C1659.21,-27.9478 1684.29,-28.4167 1706.33,-28.8286"/>
<polygon fill="midnightblue" stroke="midnightblue" points="1635.73,-24.0084 1625.66,-27.3208 1635.6,-31.0072 1635.73,-24.0084"/>
</g>
<!-- Node15 -->
<g id="node15" class="node"><title>Node15</title>
<g id="a_node15"><a xlink:href="class_om_1_1_language_1_1_default_element.html" target="_top" xlink:title="A partial implementation of Element.">
<polygon fill="none" stroke="black" points="1260.25,-5 1260.25,-33 1443.75,-33 1443.75,-5 1260.25,-5"/>
<text text-anchor="start" x="1268.25" y="-21" font-family="Helvetica,sans-Serif" font-size="10.00">Om::Language::DefaultElement</text>
<text text-anchor="middle" x="1352" y="-11" font-family="Helvetica,sans-Serif" font-size="10.00">&lt; ThisImplementation, ThisInterface &gt;</text>
</a>
</g>
</g>
<!-- Node15&#45;&gt;Node14 -->
<g id="edge15" class="edge"><title>Node15&#45;&gt;Node14</title>
<path fill="none" stroke="midnightblue" d="M1453.93,-22.5326C1463.54,-22.8689 1473.14,-23.2047 1482.37,-23.5278"/>
<polygon fill="midnightblue" stroke="midnightblue" points="1454.05,-19.0345 1443.93,-22.1825 1453.8,-26.0303 1454.05,-19.0345"/>
</g>
<!-- Node16&#45;&gt;Node15 -->
<g id="edge16" class="edge"><title>Node16&#45;&gt;Node15</title>
<path fill="none" stroke="midnightblue" d="M1079.18,-19C1134.09,-19 1204.57,-19 1260.01,-19"/>
<polygon fill="midnightblue" stroke="midnightblue" points="1079.11,-15.5001 1069.11,-19 1079.11,-22.5001 1079.11,-15.5001"/>
</g>
<!-- Node17 -->
<g id="node17" class="node"><title>Node17</title>
<g id="a_node17"><a xlink:href="class_om_1_1_language_1_1_default_consumer.html" target="_top" xlink:title="A partial implementation of Consumer.">
<polygon fill="none" stroke="black" points="674.248,-5 674.248,-33 857.752,-33 857.752,-5 674.248,-5"/>
<text text-anchor="start" x="682.248" y="-21" font-family="Helvetica,sans-Serif" font-size="10.00">Om::Language::DefaultConsumer</text>
<text text-anchor="middle" x="766" y="-11" font-family="Helvetica,sans-Serif" font-size="10.00">&lt; ThisImplementation, ThisInterface &gt;</text>
</a>
</g>
</g>
<!-- Node17&#45;&gt;Node16 -->
<g id="edge17" class="edge"><title>Node17&#45;&gt;Node16</title>
<path fill="none" stroke="midnightblue" d="M868.316,-19C882.642,-19 897.186,-19 910.981,-19"/>
<polygon fill="midnightblue" stroke="midnightblue" points="867.936,-15.5001 857.936,-19 867.936,-22.5001 867.936,-15.5001"/>
</g>
<!-- Node18 -->
<g id="node18" class="node"><title>Node18</title>
<g id="a_node18"><a xlink:href="class_om_1_1_language_1_1_consumer.html" target="_top" xlink:title="An Element taker; takes at the back.">
<polygon fill="none" stroke="black" points="500.079,-10 500.079,-28 633.921,-28 633.921,-10 500.079,-10"/>
<text text-anchor="middle" x="567" y="-16" font-family="Helvetica,sans-Serif" font-size="10.00">Om::Language::Consumer</text>
</a>
</g>
</g>
<!-- Node18&#45;&gt;Node17 -->
<g id="edge18" class="edge"><title>Node18&#45;&gt;Node17</title>
<path fill="none" stroke="midnightblue" d="M644.236,-19C654.042,-19 664.16,-19 674.171,-19"/>
<polygon fill="midnightblue" stroke="midnightblue" points="644.146,-15.5001 634.146,-19 644.146,-22.5001 644.146,-15.5001"/>
</g>
</g>
</svg>
