<?xml version="1.0" encoding="UTF-8" standalone="no"?>
<!DOCTYPE svg PUBLIC "-//W3C//DTD SVG 1.1//EN"
 "http://www.w3.org/Graphics/SVG/1.1/DTD/svg11.dtd">
<!-- Generated by graphviz version 2.30.1 (20130221.2233)
 -->
<!-- Title: Om::Form Pages: 1 -->
<svg width="606pt" height="992pt"
 viewBox="0.00 0.00 606.00 992.00" xmlns="http://www.w3.org/2000/svg" xmlns:xlink="http://www.w3.org/1999/xlink">
<g id="graph0" class="graph" transform="scale(1 1) rotate(0) translate(4 988)">
<title>Om::Form</title>
<!-- Node1 -->
<g id="node1" class="node"><title>Node1</title>
<polygon fill="#bfbfbf" stroke="black" points="210.502,-1 210.502,-21 271.498,-21 271.498,-1 210.502,-1"/>
<text text-anchor="middle" x="241" y="-7" font-family="Helvetica,sans-Serif" font-size="10.00">Om::Form</text>
</g>
<!-- Node2 -->
<g id="node2" class="node"><title>Node2</title>
<g id="a_node2"><a xlink:href="class_om_1_1_operator.html" target="_top" xlink:title="The Operator implementation.">
<polygon fill="none" stroke="black" points="301.436,-71 301.436,-91 378.564,-91 378.564,-71 301.436,-71"/>
<text text-anchor="middle" x="340" y="-77" font-family="Helvetica,sans-Serif" font-size="10.00">Om::Operator</text>
</a>
</g>
</g>
<!-- Node2&#45;&gt;Node1 -->
<g id="edge1" class="edge"><title>Node2&#45;&gt;Node1</title>
<path fill="none" stroke="#9a32cd" stroke-dasharray="5,2" d="M318.325,-65.1119C298.729,-51.652 270.516,-32.2734 254.14,-21.0255"/>
<polygon fill="#9a32cd" stroke="#9a32cd" points="316.424,-68.0524 326.648,-70.8292 320.387,-62.2824 316.424,-68.0524"/>
<text text-anchor="middle" x="325.901" y="-42" font-family="Helvetica,sans-Serif" font-size="10.00"> thisOperator</text>
</g>
<!-- Node3 -->
<g id="node3" class="node"><title>Node3</title>
<g id="a_node3"><a xlink:href="class_om_1_1_default_atom.html" target="_top" xlink:title="Om::DefaultAtom\&lt; Operator \&gt;">
<polygon fill="none" stroke="black" points="265.306,-151 265.306,-171 414.694,-171 414.694,-151 265.306,-151"/>
<text text-anchor="middle" x="340" y="-157" font-family="Helvetica,sans-Serif" font-size="10.00">Om::DefaultAtom&lt; Operator &gt;</text>
</a>
</g>
</g>
<!-- Node3&#45;&gt;Node2 -->
<g id="edge2" class="edge"><title>Node3&#45;&gt;Node2</title>
<path fill="none" stroke="midnightblue" d="M340,-140.509C340,-124.768 340,-103.315 340,-91.2419"/>
<polygon fill="midnightblue" stroke="midnightblue" points="336.5,-140.746 340,-150.746 343.5,-140.746 336.5,-140.746"/>
</g>
<!-- Node4 -->
<g id="node4" class="node"><title>Node4</title>
<g id="a_node4"><a xlink:href="class_om_1_1_default_element.html" target="_top" xlink:title="Om::DefaultElement\l\&lt; Operator, Atom \&gt;">
<polygon fill="none" stroke="black" points="387.983,-221 387.983,-253 494.017,-253 494.017,-221 387.983,-221"/>
<text text-anchor="start" x="395.983" y="-239" font-family="Helvetica,sans-Serif" font-size="10.00">Om::DefaultElement</text>
<text text-anchor="middle" x="441" y="-227" font-family="Helvetica,sans-Serif" font-size="10.00">&lt; Operator, Atom &gt;</text>
</a>
</g>
</g>
<!-- Node4&#45;&gt;Node3 -->
<g id="edge3" class="edge"><title>Node4&#45;&gt;Node3</title>
<path fill="none" stroke="midnightblue" d="M417,-214.05C407.88,-206.118 397.223,-197.32 387,-190 377.424,-183.143 366.098,-176.36 356.964,-171.187"/>
<polygon fill="midnightblue" stroke="midnightblue" points="414.757,-216.739 424.568,-220.739 419.393,-211.494 414.757,-216.739"/>
</g>
<!-- Node5 -->
<g id="node5" class="node"><title>Node5</title>
<g id="a_node5"><a xlink:href="class_om_1_1_default_program.html" target="_top" xlink:title="Om::DefaultProgram\l\&lt; Operator, Atom \&gt;">
<polygon fill="none" stroke="black" points="399.153,-303 399.153,-335 506.847,-335 506.847,-303 399.153,-303"/>
<text text-anchor="start" x="407.153" y="-321" font-family="Helvetica,sans-Serif" font-size="10.00">Om::DefaultProgram</text>
<text text-anchor="middle" x="453" y="-309" font-family="Helvetica,sans-Serif" font-size="10.00">&lt; Operator, Atom &gt;</text>
</a>
</g>
</g>
<!-- Node5&#45;&gt;Node4 -->
<g id="edge4" class="edge"><title>Node5&#45;&gt;Node4</title>
<path fill="none" stroke="midnightblue" d="M449.215,-292.767C447.269,-279.793 444.961,-264.407 443.288,-253.252"/>
<polygon fill="midnightblue" stroke="midnightblue" points="445.798,-293.582 450.743,-302.953 452.721,-292.544 445.798,-293.582"/>
</g>
<!-- Node6 -->
<g id="node6" class="node"><title>Node6</title>
<g id="a_node6"><a xlink:href="class_om_1_1_default_queue.html" target="_top" xlink:title="Om::DefaultQueue\&lt; Operator,\l DefaultGiveable\&lt; Operator,\l Atom \&gt; \&gt;">
<polygon fill="none" stroke="black" points="312.157,-375 312.157,-419 461.843,-419 461.843,-375 312.157,-375"/>
<text text-anchor="start" x="320.157" y="-405" font-family="Helvetica,sans-Serif" font-size="10.00">Om::DefaultQueue&lt; Operator,</text>
<text text-anchor="start" x="320.157" y="-393" font-family="Helvetica,sans-Serif" font-size="10.00"> DefaultGiveable&lt; Operator,</text>
<text text-anchor="middle" x="387" y="-381" font-family="Helvetica,sans-Serif" font-size="10.00"> Atom &gt; &gt;</text>
</a>
</g>
</g>
<!-- Node6&#45;&gt;Node5 -->
<g id="edge5" class="edge"><title>Node6&#45;&gt;Node5</title>
<path fill="none" stroke="midnightblue" d="M412.082,-367.117C421.573,-356.189 431.992,-344.191 439.941,-335.038"/>
<polygon fill="midnightblue" stroke="midnightblue" points="409.299,-364.984 405.385,-374.83 414.584,-369.574 409.299,-364.984"/>
</g>
<!-- Node7 -->
<g id="node7" class="node"><title>Node7</title>
<g id="a_node7"><a xlink:href="class_om_1_1_default_giveable.html" target="_top" xlink:title="Om::DefaultGiveable\l\&lt; Operator, Atom \&gt;">
<polygon fill="none" stroke="black" points="332.591,-465 332.591,-497 441.409,-497 441.409,-465 332.591,-465"/>
<text text-anchor="start" x="340.591" y="-483" font-family="Helvetica,sans-Serif" font-size="10.00">Om::DefaultGiveable</text>
<text text-anchor="middle" x="387" y="-471" font-family="Helvetica,sans-Serif" font-size="10.00">&lt; Operator, Atom &gt;</text>
</a>
</g>
</g>
<!-- Node7&#45;&gt;Node6 -->
<g id="edge6" class="edge"><title>Node7&#45;&gt;Node6</title>
<path fill="none" stroke="midnightblue" d="M387,-454.747C387,-443.331 387,-429.995 387,-419.12"/>
<polygon fill="midnightblue" stroke="midnightblue" points="383.5,-454.96 387,-464.96 390.5,-454.96 383.5,-454.96"/>
</g>
<!-- Node8 -->
<g id="node8" class="node"><title>Node8</title>
<g id="a_node8"><a xlink:href="class_om_1_1_default_moveable.html" target="_top" xlink:title="Om::DefaultMoveable\l\&lt; Operator, DefaultCopyable\l\&lt; Operator, Atom \&gt; \&gt;">
<polygon fill="none" stroke="black" points="315.487,-543 315.487,-587 458.513,-587 458.513,-543 315.487,-543"/>
<text text-anchor="start" x="323.487" y="-573" font-family="Helvetica,sans-Serif" font-size="10.00">Om::DefaultMoveable</text>
<text text-anchor="start" x="323.487" y="-561" font-family="Helvetica,sans-Serif" font-size="10.00">&lt; Operator, DefaultCopyable</text>
<text text-anchor="middle" x="387" y="-549" font-family="Helvetica,sans-Serif" font-size="10.00">&lt; Operator, Atom &gt; &gt;</text>
</a>
</g>
</g>
<!-- Node8&#45;&gt;Node7 -->
<g id="edge7" class="edge"><title>Node8&#45;&gt;Node7</title>
<path fill="none" stroke="midnightblue" d="M387,-532.601C387,-520.416 387,-507.033 387,-497.092"/>
<polygon fill="midnightblue" stroke="midnightblue" points="383.5,-532.883 387,-542.883 390.5,-532.883 383.5,-532.883"/>
</g>
<!-- Node9 -->
<g id="node9" class="node"><title>Node9</title>
<g id="a_node9"><a xlink:href="class_om_1_1_default_copyable.html" target="_top" xlink:title="Om::DefaultCopyable\l\&lt; Operator, Atom \&gt;">
<polygon fill="none" stroke="black" points="330.2,-633 330.2,-665 441.8,-665 441.8,-633 330.2,-633"/>
<text text-anchor="start" x="338.2" y="-651" font-family="Helvetica,sans-Serif" font-size="10.00">Om::DefaultCopyable</text>
<text text-anchor="middle" x="386" y="-639" font-family="Helvetica,sans-Serif" font-size="10.00">&lt; Operator, Atom &gt;</text>
</a>
</g>
</g>
<!-- Node9&#45;&gt;Node8 -->
<g id="edge8" class="edge"><title>Node9&#45;&gt;Node8</title>
<path fill="none" stroke="midnightblue" d="M386.308,-622.747C386.447,-611.331 386.61,-597.995 386.742,-587.12"/>
<polygon fill="midnightblue" stroke="midnightblue" points="382.806,-622.918 386.183,-632.96 389.805,-623.003 382.806,-622.918"/>
</g>
<!-- Node10 -->
<g id="node10" class="node"><title>Node10</title>
<g id="a_node10"><a xlink:href="class_om_1_1_atom.html" target="_top" xlink:title="An &quot;atomic&quot; Element defined by a string.">
<polygon fill="none" stroke="black" points="342.498,-717 342.498,-737 403.502,-737 403.502,-717 342.498,-717"/>
<text text-anchor="middle" x="373" y="-723" font-family="Helvetica,sans-Serif" font-size="10.00">Om::Atom</text>
</a>
</g>
</g>
<!-- Node10&#45;&gt;Node9 -->
<g id="edge9" class="edge"><title>Node10&#45;&gt;Node9</title>
<path fill="none" stroke="midnightblue" d="M376.28,-706.824C378.496,-693.867 381.381,-677.004 383.43,-665.022"/>
<polygon fill="midnightblue" stroke="midnightblue" points="372.779,-706.536 374.542,-716.983 379.678,-707.717 372.779,-706.536"/>
</g>
<!-- Node11 -->
<g id="node11" class="node"><title>Node11</title>
<g id="a_node11"><a xlink:href="class_om_1_1_element.html" target="_top" xlink:title="A Program that contains a single &quot;elemental&quot; item (or none, when IsEmpty() returns true)...">
<polygon fill="none" stroke="black" points="291.825,-783 291.825,-803 366.175,-803 366.175,-783 291.825,-783"/>
<text text-anchor="middle" x="329" y="-789" font-family="Helvetica,sans-Serif" font-size="10.00">Om::Element</text>
</a>
</g>
</g>
<!-- Node11&#45;&gt;Node10 -->
<g id="edge10" class="edge"><title>Node11&#45;&gt;Node10</title>
<path fill="none" stroke="midnightblue" d="M341.077,-774.433C349.372,-762.369 360.047,-746.841 366.708,-737.153"/>
<polygon fill="midnightblue" stroke="midnightblue" points="338.085,-772.607 335.304,-782.83 343.854,-776.573 338.085,-772.607"/>
</g>
<!-- Node28 -->
<g id="node28" class="node"><title>Node28</title>
<g id="a_node28"><a xlink:href="class_om_1_1_default_copyable.html" target="_top" xlink:title="Om::DefaultCopyable\l\&lt; Operand, Element \&gt;">
<polygon fill="none" stroke="black" points="207.803,-711 207.803,-743 322.197,-743 322.197,-711 207.803,-711"/>
<text text-anchor="start" x="215.803" y="-729" font-family="Helvetica,sans-Serif" font-size="10.00">Om::DefaultCopyable</text>
<text text-anchor="middle" x="265" y="-717" font-family="Helvetica,sans-Serif" font-size="10.00">&lt; Operand, Element &gt;</text>
</a>
</g>
</g>
<!-- Node11&#45;&gt;Node28 -->
<g id="edge28" class="edge"><title>Node11&#45;&gt;Node28</title>
<path fill="none" stroke="midnightblue" d="M312.485,-775.485C302.481,-765.481 289.817,-752.817 280.084,-743.084"/>
<polygon fill="midnightblue" stroke="midnightblue" points="310.284,-778.234 319.83,-782.83 315.234,-773.284 310.284,-778.234"/>
</g>
<!-- Node12 -->
<g id="node12" class="node"><title>Node12</title>
<g id="a_node12"><a xlink:href="class_om_1_1_program.html" target="_top" xlink:title="The Program implementation.">
<polygon fill="none" stroke="black" points="290.995,-843 290.995,-863 367.005,-863 367.005,-843 290.995,-843"/>
<text text-anchor="middle" x="329" y="-849" font-family="Helvetica,sans-Serif" font-size="10.00">Om::Program</text>
</a>
</g>
</g>
<!-- Node12&#45;&gt;Node11 -->
<g id="edge11" class="edge"><title>Node12&#45;&gt;Node11</title>
<path fill="none" stroke="midnightblue" d="M329,-832.731C329,-822.781 329,-811.102 329,-803.19"/>
<polygon fill="midnightblue" stroke="midnightblue" points="325.5,-832.937 329,-842.938 332.5,-832.938 325.5,-832.937"/>
</g>
<!-- Node13 -->
<g id="node13" class="node"><title>Node13</title>
<g id="a_node13"><a xlink:href="class_om_1_1_giveable.html" target="_top" xlink:title="An object that can be copied or moved via Give.">
<polygon fill="none" stroke="black" points="200.434,-903 200.434,-923 277.566,-923 277.566,-903 200.434,-903"/>
<text text-anchor="middle" x="239" y="-909" font-family="Helvetica,sans-Serif" font-size="10.00">Om::Giveable</text>
</a>
</g>
</g>
<!-- Node13&#45;&gt;Node12 -->
<g id="edge12" class="edge"><title>Node13&#45;&gt;Node12</title>
<path fill="none" stroke="midnightblue" d="M261.674,-897.388C278.342,-886.646 300.483,-872.378 314.739,-863.19"/>
<polygon fill="midnightblue" stroke="midnightblue" points="259.572,-894.578 253.062,-902.938 263.364,-900.462 259.572,-894.578"/>
</g>
<!-- Node14 -->
<g id="node14" class="node"><title>Node14</title>
<g id="a_node14"><a xlink:href="class_om_1_1_copyable.html" target="_top" xlink:title="An object that can be passed to Copy to be copied.">
<polygon fill="none" stroke="black" points="150.042,-963 150.042,-983 229.958,-983 229.958,-963 150.042,-963"/>
<text text-anchor="middle" x="190" y="-969" font-family="Helvetica,sans-Serif" font-size="10.00">Om::Copyable</text>
</a>
</g>
</g>
<!-- Node14&#45;&gt;Node13 -->
<g id="edge13" class="edge"><title>Node14&#45;&gt;Node13</title>
<path fill="none" stroke="midnightblue" d="M204.145,-955.257C212.964,-944.818 223.977,-931.782 231.236,-923.19"/>
<polygon fill="midnightblue" stroke="midnightblue" points="201.436,-953.04 197.656,-962.938 206.783,-957.557 201.436,-953.04"/>
</g>
<!-- Node15 -->
<g id="node15" class="node"><title>Node15</title>
<g id="a_node15"><a xlink:href="class_om_1_1_moveable.html" target="_top" xlink:title="An object that can be passed to Move to be moved.">
<polygon fill="none" stroke="black" points="247.488,-963 247.488,-983 328.512,-983 328.512,-963 247.488,-963"/>
<text text-anchor="middle" x="288" y="-969" font-family="Helvetica,sans-Serif" font-size="10.00">Om::Moveable</text>
</a>
</g>
</g>
<!-- Node15&#45;&gt;Node13 -->
<g id="edge14" class="edge"><title>Node15&#45;&gt;Node13</title>
<path fill="none" stroke="midnightblue" d="M273.855,-955.257C265.036,-944.818 254.023,-931.782 246.764,-923.19"/>
<polygon fill="midnightblue" stroke="midnightblue" points="271.217,-957.557 280.344,-962.938 276.564,-953.04 271.217,-957.557"/>
</g>
<!-- Node16 -->
<g id="node16" class="node"><title>Node16</title>
<g id="a_node16"><a xlink:href="class_om_1_1_queue.html" target="_top" xlink:title="A first&#45;in, first&#45;out Element processor.">
<polygon fill="none" stroke="black" points="295.155,-903 295.155,-923 362.845,-923 362.845,-903 295.155,-903"/>
<text text-anchor="middle" x="329" y="-909" font-family="Helvetica,sans-Serif" font-size="10.00">Om::Queue</text>
</a>
</g>
</g>
<!-- Node16&#45;&gt;Node12 -->
<g id="edge15" class="edge"><title>Node16&#45;&gt;Node12</title>
<path fill="none" stroke="midnightblue" d="M329,-892.731C329,-882.781 329,-871.102 329,-863.19"/>
<polygon fill="midnightblue" stroke="midnightblue" points="325.5,-892.937 329,-902.938 332.5,-892.938 325.5,-892.937"/>
</g>
<!-- Node17 -->
<g id="node17" class="node"><title>Node17</title>
<g id="a_node17"><a xlink:href="class_om_1_1_shareable.html" target="_top" xlink:title="Om::Shareable\&lt;\&gt;">
<polygon fill="none" stroke="black" points="380.532,-903 380.532,-923 475.468,-923 475.468,-903 380.532,-903"/>
<text text-anchor="middle" x="428" y="-909" font-family="Helvetica,sans-Serif" font-size="10.00">Om::Shareable&lt;&gt;</text>
</a>
</g>
</g>
<!-- Node17&#45;&gt;Node12 -->
<g id="edge16" class="edge"><title>Node17&#45;&gt;Node12</title>
<path fill="none" stroke="midnightblue" d="M403.818,-897.833C385.402,-887.043 360.587,-872.505 344.687,-863.19"/>
<polygon fill="midnightblue" stroke="midnightblue" points="402.134,-900.902 412.531,-902.938 405.672,-894.863 402.134,-900.902"/>
</g>
<!-- Node18 -->
<g id="node18" class="node"><title>Node18</title>
<g id="a_node18"><a xlink:href="class_om_1_1_taker.html" target="_top" xlink:title="Om::Taker\&lt; Operator \&gt;">
<polygon fill="none" stroke="black" points="479.591,-387 479.591,-407 598.409,-407 598.409,-387 479.591,-387"/>
<text text-anchor="middle" x="539" y="-393" font-family="Helvetica,sans-Serif" font-size="10.00">Om::Taker&lt; Operator &gt;</text>
</a>
</g>
</g>
<!-- Node18&#45;&gt;Node5 -->
<g id="edge17" class="edge"><title>Node18&#45;&gt;Node5</title>
<path fill="none" stroke="midnightblue" d="M521.182,-380.254C506.154,-366.973 484.79,-348.094 469.999,-335.022"/>
<polygon fill="midnightblue" stroke="midnightblue" points="518.986,-382.984 528.797,-386.983 523.621,-377.739 518.986,-382.984"/>
</g>
<!-- Node19 -->
<g id="node19" class="node"><title>Node19</title>
<g id="a_node19"><a xlink:title="STL class.">
<polygon fill="none" stroke="#bfbfbf" points="306.325,-227 306.325,-247 365.675,-247 365.675,-227 306.325,-227"/>
<text text-anchor="middle" x="336" y="-233" font-family="Helvetica,sans-Serif" font-size="10.00">std::string</text>
</a>
</g>
</g>
<!-- Node19&#45;&gt;Node3 -->
<g id="edge18" class="edge"><title>Node19&#45;&gt;Node3</title>
<path fill="none" stroke="#9a32cd" stroke-dasharray="5,2" d="M337.034,-216.866C337.829,-202.161 338.892,-182.502 339.506,-171.148"/>
<polygon fill="#9a32cd" stroke="#9a32cd" points="333.535,-216.752 336.49,-226.926 340.525,-217.13 333.535,-216.752"/>
<text text-anchor="middle" x="361.231" y="-192" font-family="Helvetica,sans-Serif" font-size="10.00"> thisString</text>
</g>
<!-- Node20 -->
<g id="node20" class="node"><title>Node20</title>
<g id="a_node20"><a xlink:title="STL class.">
<polygon fill="none" stroke="#bfbfbf" points="286.952,-303 286.952,-335 381.048,-335 381.048,-303 286.952,-303"/>
<text text-anchor="start" x="294.952" y="-321" font-family="Helvetica,sans-Serif" font-size="10.00">std::basic_string&lt;</text>
<text text-anchor="middle" x="334" y="-309" font-family="Helvetica,sans-Serif" font-size="10.00"> char &gt;</text>
</a>
</g>
</g>
<!-- Node20&#45;&gt;Node19 -->
<g id="edge19" class="edge"><title>Node20&#45;&gt;Node19</title>
<path fill="none" stroke="midnightblue" d="M334.629,-292.837C335.02,-277.205 335.499,-258.052 335.775,-247.014"/>
<polygon fill="midnightblue" stroke="midnightblue" points="331.127,-292.868 334.376,-302.953 338.125,-293.043 331.127,-292.868"/>
</g>
<!-- Node21 -->
<g id="node21" class="node"><title>Node21</title>
<polygon fill="none" stroke="#bfbfbf" points="137.572,-111 137.572,-131 256.428,-131 256.428,-111 137.572,-111"/>
<text text-anchor="middle" x="197" y="-117" font-family="Helvetica,sans-Serif" font-size="10.00">std::deque&lt; Operand &gt;</text>
</g>
<!-- Node21&#45;&gt;Node1 -->
<g id="edge20" class="edge"><title>Node21&#45;&gt;Node1</title>
<path fill="none" stroke="#9a32cd" stroke-dasharray="5,2" d="M198.412,-100.868C199.55,-91.3603 201.597,-79.8322 205.276,-70 212.239,-51.3919 225.448,-32.2284 233.707,-21.2523"/>
<polygon fill="#9a32cd" stroke="#9a32cd" points="194.923,-100.589 197.452,-110.878 201.891,-101.258 194.923,-100.589"/>
<text text-anchor="middle" x="249.362" y="-77" font-family="Helvetica,sans-Serif" font-size="10.00"> thisOperandDeque</text>
</g>
<!-- Node22 -->
<g id="node22" class="node"><title>Node22</title>
<g id="a_node22"><a xlink:href="class_om_1_1_operand.html" target="_top" xlink:title="The Operand implementation.">
<polygon fill="none" stroke="black" points="158.709,-227 158.709,-247 235.291,-247 235.291,-227 158.709,-227"/>
<text text-anchor="middle" x="197" y="-233" font-family="Helvetica,sans-Serif" font-size="10.00">Om::Operand</text>
</a>
</g>
</g>
<!-- Node22&#45;&gt;Node21 -->
<g id="edge21" class="edge"><title>Node22&#45;&gt;Node21</title>
<path fill="none" stroke="#9a32cd" stroke-dasharray="5,2" d="M197,-216.603C197,-191.731 197,-149.609 197,-131.139"/>
<polygon fill="#9a32cd" stroke="#9a32cd" points="193.5,-216.671 197,-226.671 200.5,-216.671 193.5,-216.671"/>
<text text-anchor="middle" x="218.677" y="-192" font-family="Helvetica,sans-Serif" font-size="10.00"> elements</text>
</g>
<!-- Node23 -->
<g id="node23" class="node"><title>Node23</title>
<g id="a_node23"><a xlink:href="class_om_1_1_default_element.html" target="_top" xlink:title="Om::DefaultElement\l\&lt; Operand \&gt;">
<polygon fill="none" stroke="black" points="161.983,-303 161.983,-335 268.017,-335 268.017,-303 161.983,-303"/>
<text text-anchor="start" x="169.983" y="-321" font-family="Helvetica,sans-Serif" font-size="10.00">Om::DefaultElement</text>
<text text-anchor="middle" x="215" y="-309" font-family="Helvetica,sans-Serif" font-size="10.00">&lt; Operand &gt;</text>
</a>
</g>
</g>
<!-- Node23&#45;&gt;Node22 -->
<g id="edge22" class="edge"><title>Node23&#45;&gt;Node22</title>
<path fill="none" stroke="midnightblue" d="M209.338,-292.837C205.821,-277.205 201.512,-258.052 199.028,-247.014"/>
<polygon fill="midnightblue" stroke="midnightblue" points="206.005,-293.965 211.614,-302.953 212.834,-292.428 206.005,-293.965"/>
</g>
<!-- Node24 -->
<g id="node24" class="node"><title>Node24</title>
<g id="a_node24"><a xlink:href="class_om_1_1_default_program.html" target="_top" xlink:title="Om::DefaultProgram\l\&lt; Operand, Element \&gt;">
<polygon fill="none" stroke="black" points="157.803,-381 157.803,-413 272.197,-413 272.197,-381 157.803,-381"/>
<text text-anchor="start" x="165.803" y="-399" font-family="Helvetica,sans-Serif" font-size="10.00">Om::DefaultProgram</text>
<text text-anchor="middle" x="215" y="-387" font-family="Helvetica,sans-Serif" font-size="10.00">&lt; Operand, Element &gt;</text>
</a>
</g>
</g>
<!-- Node24&#45;&gt;Node23 -->
<g id="edge23" class="edge"><title>Node24&#45;&gt;Node23</title>
<path fill="none" stroke="midnightblue" d="M215,-370.848C215,-359.072 215,-345.431 215,-335.244"/>
<polygon fill="midnightblue" stroke="midnightblue" points="211.5,-370.985 215,-380.985 218.5,-370.985 211.5,-370.985"/>
</g>
<!-- Node25 -->
<g id="node25" class="node"><title>Node25</title>
<g id="a_node25"><a xlink:href="class_om_1_1_default_queue.html" target="_top" xlink:title="Om::DefaultQueue\&lt; Operand,\l DefaultGiveable\&lt; Operand,\l Element \&gt; \&gt;">
<polygon fill="none" stroke="black" points="165.157,-459 165.157,-503 314.843,-503 314.843,-459 165.157,-459"/>
<text text-anchor="start" x="173.157" y="-489" font-family="Helvetica,sans-Serif" font-size="10.00">Om::DefaultQueue&lt; Operand,</text>
<text text-anchor="start" x="173.157" y="-477" font-family="Helvetica,sans-Serif" font-size="10.00"> DefaultGiveable&lt; Operand,</text>
<text text-anchor="middle" x="240" y="-465" font-family="Helvetica,sans-Serif" font-size="10.00"> Element &gt; &gt;</text>
</a>
</g>
</g>
<!-- Node25&#45;&gt;Node24 -->
<g id="edge24" class="edge"><title>Node25&#45;&gt;Node24</title>
<path fill="none" stroke="midnightblue" d="M230.539,-448.969C226.795,-436.687 222.663,-423.134 219.601,-413.092"/>
<polygon fill="midnightblue" stroke="midnightblue" points="227.298,-450.338 233.562,-458.883 233.993,-448.297 227.298,-450.338"/>
</g>
<!-- Node26 -->
<g id="node26" class="node"><title>Node26</title>
<g id="a_node26"><a xlink:href="class_om_1_1_default_giveable.html" target="_top" xlink:title="Om::DefaultGiveable\l\&lt; Operand, Element \&gt;">
<polygon fill="none" stroke="black" points="182.803,-549 182.803,-581 297.197,-581 297.197,-549 182.803,-549"/>
<text text-anchor="start" x="190.803" y="-567" font-family="Helvetica,sans-Serif" font-size="10.00">Om::DefaultGiveable</text>
<text text-anchor="middle" x="240" y="-555" font-family="Helvetica,sans-Serif" font-size="10.00">&lt; Operand, Element &gt;</text>
</a>
</g>
</g>
<!-- Node26&#45;&gt;Node25 -->
<g id="edge25" class="edge"><title>Node26&#45;&gt;Node25</title>
<path fill="none" stroke="midnightblue" d="M240,-538.747C240,-527.331 240,-513.995 240,-503.12"/>
<polygon fill="midnightblue" stroke="midnightblue" points="236.5,-538.96 240,-548.96 243.5,-538.96 236.5,-538.96"/>
</g>
<!-- Node27 -->
<g id="node27" class="node"><title>Node27</title>
<g id="a_node27"><a xlink:href="class_om_1_1_default_moveable.html" target="_top" xlink:title="Om::DefaultMoveable\l\&lt; Operand, DefaultCopyable\l\&lt; Operand, Element \&gt; \&gt;">
<polygon fill="none" stroke="black" points="169.487,-627 169.487,-671 312.513,-671 312.513,-627 169.487,-627"/>
<text text-anchor="start" x="177.487" y="-657" font-family="Helvetica,sans-Serif" font-size="10.00">Om::DefaultMoveable</text>
<text text-anchor="start" x="177.487" y="-645" font-family="Helvetica,sans-Serif" font-size="10.00">&lt; Operand, DefaultCopyable</text>
<text text-anchor="middle" x="241" y="-633" font-family="Helvetica,sans-Serif" font-size="10.00">&lt; Operand, Element &gt; &gt;</text>
</a>
</g>
</g>
<!-- Node27&#45;&gt;Node26 -->
<g id="edge26" class="edge"><title>Node27&#45;&gt;Node26</title>
<path fill="none" stroke="midnightblue" d="M240.617,-616.601C240.468,-604.416 240.305,-591.033 240.184,-581.092"/>
<polygon fill="midnightblue" stroke="midnightblue" points="237.121,-616.926 240.742,-626.883 244.12,-616.841 237.121,-616.926"/>
</g>
<!-- Node28&#45;&gt;Node27 -->
<g id="edge27" class="edge"><title>Node28&#45;&gt;Node27</title>
<path fill="none" stroke="midnightblue" d="M257.231,-701.398C254.137,-691.599 250.612,-680.438 247.64,-671.025"/>
<polygon fill="midnightblue" stroke="midnightblue" points="253.909,-702.503 260.258,-710.985 260.585,-700.395 253.909,-702.503"/>
</g>
<!-- Node29 -->
<g id="node29" class="node"><title>Node29</title>
<g id="a_node29"><a xlink:href="class_om_1_1_taker.html" target="_top" xlink:title="Om::Taker\&lt; Operand \&gt;">
<polygon fill="none" stroke="black" points="28.8647,-471 28.8647,-491 147.135,-491 147.135,-471 28.8647,-471"/>
<text text-anchor="middle" x="88" y="-477" font-family="Helvetica,sans-Serif" font-size="10.00">Om::Taker&lt; Operand &gt;</text>
</a>
</g>
</g>
<!-- Node29&#45;&gt;Node24 -->
<g id="edge29" class="edge"><title>Node29&#45;&gt;Node24</title>
<path fill="none" stroke="midnightblue" d="M110.726,-465.326C133.47,-450.641 168.307,-428.149 191.366,-413.26"/>
<polygon fill="midnightblue" stroke="midnightblue" points="108.579,-462.547 102.076,-470.911 112.376,-468.427 108.579,-462.547"/>
</g>
<!-- Node30 -->
<g id="node30" class="node"><title>Node30</title>
<g id="a_node30"><a xlink:href="class_om_1_1_owner.html" target="_top" xlink:title="Om::Owner\&lt; Om::Program \&gt;">
<polygon fill="none" stroke="black" points="-0.182129,-309 -0.182129,-329 144.182,-329 144.182,-309 -0.182129,-309"/>
<text text-anchor="middle" x="72" y="-315" font-family="Helvetica,sans-Serif" font-size="10.00">Om::Owner&lt; Om::Program &gt;</text>
</a>
</g>
</g>
<!-- Node30&#45;&gt;Node22 -->
<g id="edge30" class="edge"><title>Node30&#45;&gt;Node22</title>
<path fill="none" stroke="#9a32cd" stroke-dasharray="5,2" d="M95.0581,-303.243C120.742,-286.805 161.454,-260.75 182.828,-247.07"/>
<polygon fill="#9a32cd" stroke="#9a32cd" points="92.8751,-300.484 86.3391,-308.823 96.6485,-306.38 92.8751,-300.484"/>
<text text-anchor="middle" x="170.342" y="-274" font-family="Helvetica,sans-Serif" font-size="10.00"> thisProgram</text>
</g>
<!-- Node31 -->
<g id="node31" class="node"><title>Node31</title>
<g id="a_node31"><a xlink:href="class_om_1_1_taker.html" target="_top" xlink:title="Om::Taker\&lt; Owner\&lt; Om\l::Program \&gt; \&gt;">
<polygon fill="none" stroke="black" points="9.54199,-381 9.54199,-413 134.458,-413 134.458,-381 9.54199,-381"/>
<text text-anchor="start" x="17.542" y="-399" font-family="Helvetica,sans-Serif" font-size="10.00">Om::Taker&lt; Owner&lt; Om</text>
<text text-anchor="middle" x="72" y="-387" font-family="Helvetica,sans-Serif" font-size="10.00">::Program &gt; &gt;</text>
</a>
</g>
</g>
<!-- Node31&#45;&gt;Node30 -->
<g id="edge31" class="edge"><title>Node31&#45;&gt;Node30</title>
<path fill="none" stroke="midnightblue" d="M72,-370.758C72,-356.488 72,-339.502 72,-329.245"/>
<polygon fill="midnightblue" stroke="midnightblue" points="68.5001,-370.985 72,-380.985 75.5001,-370.985 68.5001,-370.985"/>
</g>
</g>
</svg>
