<?xml version="1.0" encoding="UTF-8" standalone="no"?>
<!DOCTYPE svg PUBLIC "-//W3C//DTD SVG 1.1//EN"
 "http://www.w3.org/Graphics/SVG/1.1/DTD/svg11.dtd">
<!-- Generated by graphviz version 2.36.0 (20140111.2315)
 -->
<!-- Title: Om::Source::CollectionFrontSource&lt; ThisItem, ThisIterator &gt; Pages: 1 -->
<svg width="748pt" height="104pt"
 viewBox="0.00 0.00 748.00 104.00" xmlns="http://www.w3.org/2000/svg" xmlns:xlink="http://www.w3.org/1999/xlink">
<g id="graph0" class="graph" transform="scale(1 1) rotate(0) translate(4 100)">
<title>Om::Source::CollectionFrontSource&lt; ThisItem, ThisIterator &gt;</title>
<!-- Node5 -->
<g id="node1" class="node"><title>Node5</title>
<g id="a_node1"><a xlink:title="A range over a collection, starting from the front.">
<polygon fill="#bfbfbf" stroke="black" points="580.481,-15 580.481,-43 739.519,-43 739.519,-15 580.481,-15"/>
<text text-anchor="start" x="588.481" y="-31" font-family="Helvetica,sans-Serif" font-size="10.00">Om::Source::CollectionFront</text>
<text text-anchor="middle" x="660" y="-21" font-family="Helvetica,sans-Serif" font-size="10.00">Source&lt; ThisItem, ThisIterator &gt;</text>
</a>
</g>
</g>
<!-- Node6 -->
<g id="node2" class="node"><title>Node6</title>
<g id="a_node2"><a xlink:href="class_om_1_1_source_1_1_iterator_pair_source.html" target="_top" xlink:title="A Source adapter for a start and end input iterator pair.">
<polygon fill="none" stroke="black" points="382.481,-15 382.481,-43 541.519,-43 541.519,-15 382.481,-15"/>
<text text-anchor="start" x="390.481" y="-31" font-family="Helvetica,sans-Serif" font-size="10.00">Om::Source::IteratorPair</text>
<text text-anchor="middle" x="462" y="-21" font-family="Helvetica,sans-Serif" font-size="10.00">Source&lt; ThisItem, ThisIterator &gt;</text>
</a>
</g>
</g>
<!-- Node6&#45;&gt;Node5 -->
<g id="edge1" class="edge"><title>Node6&#45;&gt;Node5</title>
<path fill="none" stroke="midnightblue" d="M551.855,-29C561.372,-29 571.005,-29 580.391,-29"/>
<polygon fill="midnightblue" stroke="midnightblue" points="551.591,-25.5001 541.591,-29 551.591,-32.5001 551.591,-25.5001"/>
</g>
<!-- Node7 -->
<g id="node3" class="node"><title>Node7</title>
<g id="a_node3"><a xlink:href="class_om_1_1_source_1_1_default_source.html" target="_top" xlink:title=" ">
<polygon fill="none" stroke="black" points="146.257,-37 146.257,-75 295.743,-75 295.743,-37 146.257,-37"/>
<text text-anchor="start" x="154.257" y="-63" font-family="Helvetica,sans-Serif" font-size="10.00">Om::Source::DefaultSource</text>
<text text-anchor="start" x="154.257" y="-53" font-family="Helvetica,sans-Serif" font-size="10.00">&lt; ThisItem, IteratorPairSource</text>
<text text-anchor="middle" x="221" y="-43" font-family="Helvetica,sans-Serif" font-size="10.00">&lt; ThisItem, ThisIterator &gt; &gt;</text>
</a>
</g>
</g>
<!-- Node7&#45;&gt;Node6 -->
<g id="edge2" class="edge"><title>Node7&#45;&gt;Node6</title>
<path fill="none" stroke="midnightblue" d="M306.098,-46.4994C330.904,-43.697 357.949,-40.6418 382.396,-37.88"/>
<polygon fill="midnightblue" stroke="midnightblue" points="305.528,-43.0414 295.984,-47.6419 306.314,-49.9972 305.528,-43.0414"/>
</g>
<!-- Node8 -->
<g id="node4" class="node"><title>Node8</title>
<g id="a_node4"><a xlink:href="class_om_1_1_source_1_1_source.html" target="_top" xlink:title="Any object that items can be pulled from.">
<polygon fill="none" stroke="black" points="0.70459,-68 0.70459,-96 107.295,-96 107.295,-68 0.70459,-68"/>
<text text-anchor="start" x="8.70459" y="-84" font-family="Helvetica,sans-Serif" font-size="10.00">Om::Source::Source</text>
<text text-anchor="middle" x="54" y="-74" font-family="Helvetica,sans-Serif" font-size="10.00">&lt; ThisItem &gt;</text>
</a>
</g>
</g>
<!-- Node8&#45;&gt;Node7 -->
<g id="edge3" class="edge"><title>Node8&#45;&gt;Node7</title>
<path fill="none" stroke="midnightblue" d="M117.622,-72.1324C126.954,-70.6617 136.648,-69.1343 146.185,-67.6315"/>
<polygon fill="midnightblue" stroke="midnightblue" points="116.994,-68.688 107.661,-73.702 118.084,-75.6027 116.994,-68.688"/>
</g>
<!-- Node9 -->
<g id="node5" class="node"><title>Node9</title>
<g id="a_node5"><a xlink:title=" ">
<polygon fill="none" stroke="#bfbfbf" points="2.9165,-11 2.9165,-49 105.083,-49 105.083,-11 2.9165,-11"/>
<text text-anchor="start" x="10.9165" y="-37" font-family="Helvetica,sans-Serif" font-size="10.00">std::iterator&lt; std</text>
<text text-anchor="start" x="10.9165" y="-27" font-family="Helvetica,sans-Serif" font-size="10.00">::input_iterator_tag,</text>
<text text-anchor="middle" x="54" y="-17" font-family="Helvetica,sans-Serif" font-size="10.00"> ThisItem &gt;</text>
</a>
</g>
</g>
<!-- Node9&#45;&gt;Node7 -->
<g id="edge4" class="edge"><title>Node9&#45;&gt;Node7</title>
<path fill="none" stroke="midnightblue" d="M115.591,-39.5477C125.554,-41.1175 135.976,-42.7598 146.217,-44.3736"/>
<polygon fill="midnightblue" stroke="midnightblue" points="115.825,-36.0414 105.402,-37.9421 114.735,-42.9561 115.825,-36.0414"/>
</g>
<!-- Node10 -->
<g id="node6" class="node"><title>Node10</title>
<g id="a_node6"><a xlink:title=" ">
<polygon fill="none" stroke="#bfbfbf" points="187.714,-0 187.714,-18 254.286,-18 254.286,-0 187.714,-0"/>
<text text-anchor="middle" x="221" y="-6" font-family="Helvetica,sans-Serif" font-size="10.00">ThisIterator</text>
</a>
</g>
</g>
<!-- Node10&#45;&gt;Node6 -->
<g id="edge5" class="edge"><title>Node10&#45;&gt;Node6</title>
<path fill="none" stroke="#9a32cd" stroke-dasharray="5,2" d="M264.801,-10.1733C293.017,-11.1774 330.762,-12.9589 364,-16 370.007,-16.5496 376.213,-17.1967 382.447,-17.9038"/>
<polygon fill="#9a32cd" stroke="#9a32cd" points="264.595,-6.6645 254.483,-9.82559 264.359,-13.6605 264.595,-6.6645"/>
<text text-anchor="middle" x="339" y="-28" font-family="Helvetica,sans-Serif" font-size="10.00"> thisEnd</text>
<text text-anchor="middle" x="339" y="-18" font-family="Helvetica,sans-Serif" font-size="10.00">thisCurrent</text>
</g>
</g>
</svg>
