<?xml version="1.0" encoding="UTF-8" standalone="no"?>
<!DOCTYPE svg PUBLIC "-//W3C//DTD SVG 1.1//EN"
 "http://www.w3.org/Graphics/SVG/1.1/DTD/svg11.dtd">
<!-- Generated by graphviz version 2.34.0 (20130907.0228)
 -->
<!-- Title: Om::Sink::ContainerFrontSink&lt; ThisItem, ThisContainer &gt; Pages: 1 -->
<svg width="271pt" height="206pt"
 viewBox="0.00 0.00 271.00 206.00" xmlns="http://www.w3.org/2000/svg" xmlns:xlink="http://www.w3.org/1999/xlink">
<g id="graph0" class="graph" transform="scale(1 1) rotate(0) translate(4 202)">
<title>Om::Sink::ContainerFrontSink&lt; ThisItem, ThisContainer &gt;</title>
<!-- Node1 -->
<g id="node1" class="node"><title>Node1</title>
<polygon fill="#bfbfbf" stroke="black" points="58.7573,-1 58.7573,-33 217.243,-33 217.243,-1 58.7573,-1"/>
<text text-anchor="start" x="66.7573" y="-19" font-family="Helvetica,sans-Serif" font-size="10.00">Om::Sink::ContainerFront</text>
<text text-anchor="middle" x="138" y="-7" font-family="Helvetica,sans-Serif" font-size="10.00">Sink&lt; ThisItem, ThisContainer &gt;</text>
</g>
<!-- Node2 -->
<g id="node2" class="node"><title>Node2</title>
<g id="a_node2"><a xlink:href="class_om_1_1_sink_1_1_default_sink.html" target="_top" xlink:title="Om::Sink::DefaultSink\l\&lt; ThisItem, ContainerFrontSink\l\&lt; ThisItem, ThisContainer \&gt; \&gt;">
<polygon fill="none" stroke="black" points="60.7544,-71 60.7544,-115 215.246,-115 215.246,-71 60.7544,-71"/>
<text text-anchor="start" x="68.7544" y="-101" font-family="Helvetica,sans-Serif" font-size="10.00">Om::Sink::DefaultSink</text>
<text text-anchor="start" x="68.7544" y="-89" font-family="Helvetica,sans-Serif" font-size="10.00">&lt; ThisItem, ContainerFrontSink</text>
<text text-anchor="middle" x="138" y="-77" font-family="Helvetica,sans-Serif" font-size="10.00">&lt; ThisItem, ThisContainer &gt; &gt;</text>
</a>
</g>
</g>
<!-- Node2&#45;&gt;Node1 -->
<g id="edge1" class="edge"><title>Node2&#45;&gt;Node1</title>
<path fill="none" stroke="midnightblue" d="M138,-60.6933C138,-51.2613 138,-41.3236 138,-33.4115"/>
<polygon fill="midnightblue" stroke="midnightblue" points="134.5,-60.9925 138,-70.9925 141.5,-60.9925 134.5,-60.9925"/>
</g>
<!-- Node3 -->
<g id="node3" class="node"><title>Node3</title>
<g id="a_node3"><a xlink:href="class_om_1_1_sink_1_1_sink.html" target="_top" xlink:title="Any object that items can be pushed to. ">
<polygon fill="none" stroke="black" points="-0.76416,-165 -0.76416,-185 136.764,-185 136.764,-165 -0.76416,-165"/>
<text text-anchor="middle" x="68" y="-171" font-family="Helvetica,sans-Serif" font-size="10.00">Om::Sink::Sink&lt; ThisItem &gt;</text>
</a>
</g>
</g>
<!-- Node3&#45;&gt;Node2 -->
<g id="edge2" class="edge"><title>Node3&#45;&gt;Node2</title>
<path fill="none" stroke="midnightblue" d="M82.7592,-157.132C93.4969,-144.861 108.107,-128.163 119.605,-115.022"/>
<polygon fill="midnightblue" stroke="midnightblue" points="79.9809,-154.992 76.0299,-164.823 85.249,-159.602 79.9809,-154.992"/>
</g>
<!-- Node4 -->
<g id="node4" class="node"><title>Node4</title>
<polygon fill="none" stroke="#bfbfbf" points="154.857,-153 154.857,-197 263.143,-197 263.143,-153 154.857,-153"/>
<text text-anchor="start" x="162.857" y="-183" font-family="Helvetica,sans-Serif" font-size="10.00">std::iterator&lt; std</text>
<text text-anchor="start" x="162.857" y="-171" font-family="Helvetica,sans-Serif" font-size="10.00">::output_iterator_tag,</text>
<text text-anchor="middle" x="209" y="-159" font-family="Helvetica,sans-Serif" font-size="10.00"> ThisItem &gt;</text>
</g>
<!-- Node4&#45;&gt;Node2 -->
<g id="edge3" class="edge"><title>Node4&#45;&gt;Node2</title>
<path fill="none" stroke="midnightblue" d="M183.508,-145.277C174.684,-135.334 164.961,-124.379 156.776,-115.156"/>
<polygon fill="midnightblue" stroke="midnightblue" points="181.09,-147.825 190.346,-152.981 186.325,-143.178 181.09,-147.825"/>
</g>
</g>
</svg>
