<?xml version="1.0" encoding="UTF-8" standalone="no"?>
<!DOCTYPE svg PUBLIC "-//W3C//DTD SVG 1.1//EN"
 "http://www.w3.org/Graphics/SVG/1.1/DTD/svg11.dtd">
<!-- Generated by graphviz version 2.36.0 (20140111.2315)
 -->
<!-- Title: Om::Language::Literal Pages: 1 -->
<svg width="1118pt" height="83pt"
 viewBox="0.00 0.00 1118.00 83.00" xmlns="http://www.w3.org/2000/svg" xmlns:xlink="http://www.w3.org/1999/xlink">
<g id="graph0" class="graph" transform="scale(1 1) rotate(0) translate(4 79)">
<title>Om::Language::Literal</title>
<!-- Node1 -->
<g id="node1" class="node"><title>Node1</title>
<polygon fill="#bfbfbf" stroke="black" points="994.525,-23 994.525,-41 1109.48,-41 1109.48,-23 994.525,-23"/>
<text text-anchor="middle" x="1052" y="-29" font-family="Helvetica,sans-Serif" font-size="10.00">Om::Language::Literal</text>
</g>
<!-- Node2 -->
<g id="node2" class="node"><title>Node2</title>
<g id="a_node2"><a xlink:href="class_om_1_1_language_1_1_default_program.html" target="_top" xlink:title="Om::Language::DefaultProgram\l\&lt; Literal \&gt;">
<polygon fill="none" stroke="black" points="800.128,-18 800.128,-46 957.872,-46 957.872,-18 800.128,-18"/>
<text text-anchor="start" x="808.128" y="-34" font-family="Helvetica,sans-Serif" font-size="10.00">Om::Language::DefaultProgram</text>
<text text-anchor="middle" x="879" y="-24" font-family="Helvetica,sans-Serif" font-size="10.00">&lt; Literal &gt;</text>
</a>
</g>
</g>
<!-- Node2&#45;&gt;Node1 -->
<g id="edge1" class="edge"><title>Node2&#45;&gt;Node1</title>
<path fill="none" stroke="midnightblue" d="M968.063,-32C976.986,-32 985.872,-32 994.331,-32"/>
<polygon fill="midnightblue" stroke="midnightblue" points="967.994,-28.5001 957.994,-32 967.994,-35.5001 967.994,-28.5001"/>
</g>
<!-- Node3 -->
<g id="node3" class="node"><title>Node3</title>
<g id="a_node3"><a xlink:href="class_om_1_1_language_1_1_default_consumer.html" target="_top" xlink:title="Om::Language::DefaultConsumer\l\&lt; Literal, DefaultGiveable\l\&lt; Literal, ThisInterface \&gt; \&gt;">
<polygon fill="none" stroke="black" points="598.237,-37 598.237,-75 763.763,-75 763.763,-37 598.237,-37"/>
<text text-anchor="start" x="606.237" y="-63" font-family="Helvetica,sans-Serif" font-size="10.00">Om::Language::DefaultConsumer</text>
<text text-anchor="start" x="606.237" y="-53" font-family="Helvetica,sans-Serif" font-size="10.00">&lt; Literal, DefaultGiveable</text>
<text text-anchor="middle" x="681" y="-43" font-family="Helvetica,sans-Serif" font-size="10.00">&lt; Literal, ThisInterface &gt; &gt;</text>
</a>
</g>
</g>
<!-- Node3&#45;&gt;Node2 -->
<g id="edge2" class="edge"><title>Node3&#45;&gt;Node2</title>
<path fill="none" stroke="midnightblue" d="M774.137,-44.7179C782.823,-43.6544 791.57,-42.5833 800.104,-41.5382"/>
<polygon fill="midnightblue" stroke="midnightblue" points="773.486,-41.2713 763.986,-45.9609 774.337,-48.2195 773.486,-41.2713"/>
</g>
<!-- Node4 -->
<g id="node4" class="node"><title>Node4</title>
<g id="a_node4"><a xlink:href="class_om_1_1_default_giveable.html" target="_top" xlink:title="Om::DefaultGiveable\l\&lt; Literal, ThisInterface \&gt;">
<polygon fill="none" stroke="black" points="438.172,-42 438.172,-70 561.828,-70 561.828,-42 438.172,-42"/>
<text text-anchor="start" x="446.172" y="-58" font-family="Helvetica,sans-Serif" font-size="10.00">Om::DefaultGiveable</text>
<text text-anchor="middle" x="500" y="-48" font-family="Helvetica,sans-Serif" font-size="10.00">&lt; Literal, ThisInterface &gt;</text>
</a>
</g>
</g>
<!-- Node4&#45;&gt;Node3 -->
<g id="edge3" class="edge"><title>Node4&#45;&gt;Node3</title>
<path fill="none" stroke="midnightblue" d="M572.118,-56C580.648,-56 589.411,-56 598.078,-56"/>
<polygon fill="midnightblue" stroke="midnightblue" points="571.851,-52.5001 561.851,-56 571.851,-59.5001 571.851,-52.5001"/>
</g>
<!-- Node5 -->
<g id="node5" class="node"><title>Node5</title>
<g id="a_node5"><a xlink:href="class_om_1_1_default_moveable.html" target="_top" xlink:title="Om::DefaultMoveable\l\&lt; Literal, DefaultCopyable\l\&lt; Literal, ThisInterface \&gt; \&gt;">
<polygon fill="none" stroke="black" points="269.863,-37 269.863,-75 402.137,-75 402.137,-37 269.863,-37"/>
<text text-anchor="start" x="277.863" y="-63" font-family="Helvetica,sans-Serif" font-size="10.00">Om::DefaultMoveable</text>
<text text-anchor="start" x="277.863" y="-53" font-family="Helvetica,sans-Serif" font-size="10.00">&lt; Literal, DefaultCopyable</text>
<text text-anchor="middle" x="336" y="-43" font-family="Helvetica,sans-Serif" font-size="10.00">&lt; Literal, ThisInterface &gt; &gt;</text>
</a>
</g>
</g>
<!-- Node5&#45;&gt;Node4 -->
<g id="edge4" class="edge"><title>Node5&#45;&gt;Node4</title>
<path fill="none" stroke="midnightblue" d="M412.438,-56C421.021,-56 429.687,-56 438.049,-56"/>
<polygon fill="midnightblue" stroke="midnightblue" points="412.425,-52.5001 402.425,-56 412.425,-59.5001 412.425,-52.5001"/>
</g>
<!-- Node6 -->
<g id="node6" class="node"><title>Node6</title>
<g id="a_node6"><a xlink:href="class_om_1_1_default_copyable.html" target="_top" xlink:title="Om::DefaultCopyable\l\&lt; Literal, ThisInterface \&gt;">
<polygon fill="none" stroke="black" points="110.172,-42 110.172,-70 233.828,-70 233.828,-42 110.172,-42"/>
<text text-anchor="start" x="118.172" y="-58" font-family="Helvetica,sans-Serif" font-size="10.00">Om::DefaultCopyable</text>
<text text-anchor="middle" x="172" y="-48" font-family="Helvetica,sans-Serif" font-size="10.00">&lt; Literal, ThisInterface &gt;</text>
</a>
</g>
</g>
<!-- Node6&#45;&gt;Node5 -->
<g id="edge5" class="edge"><title>Node6&#45;&gt;Node5</title>
<path fill="none" stroke="midnightblue" d="M244.387,-56C252.779,-56 261.31,-56 269.614,-56"/>
<polygon fill="midnightblue" stroke="midnightblue" points="244.245,-52.5001 234.245,-56 244.245,-59.5001 244.245,-52.5001"/>
</g>
<!-- Node7 -->
<g id="node7" class="node"><title>Node7</title>
<polygon fill="none" stroke="#bfbfbf" points="0.0986328,-47 0.0986328,-65 73.9014,-65 73.9014,-47 0.0986328,-47"/>
<text text-anchor="middle" x="37" y="-53" font-family="Helvetica,sans-Serif" font-size="10.00">ThisInterface</text>
</g>
<!-- Node7&#45;&gt;Node6 -->
<g id="edge6" class="edge"><title>Node7&#45;&gt;Node6</title>
<path fill="none" stroke="midnightblue" d="M84.2681,-56C92.6151,-56 101.432,-56 110.12,-56"/>
<polygon fill="midnightblue" stroke="midnightblue" points="83.9917,-52.5001 73.9917,-56 83.9917,-59.5001 83.9917,-52.5001"/>
</g>
<!-- Node8 -->
<g id="node8" class="node"><title>Node8</title>
<g id="a_node8"><a xlink:href="class_om_1_1_taker.html" target="_top" xlink:title="Om::Taker\&lt; Literal \&gt;">
<polygon fill="none" stroke="black" points="627.705,-0 627.705,-18 734.295,-18 734.295,-0 627.705,-0"/>
<text text-anchor="middle" x="681" y="-6" font-family="Helvetica,sans-Serif" font-size="10.00">Om::Taker&lt; Literal &gt;</text>
</a>
</g>
</g>
<!-- Node8&#45;&gt;Node2 -->
<g id="edge7" class="edge"><title>Node8&#45;&gt;Node2</title>
<path fill="none" stroke="midnightblue" d="M744.646,-16.3514C762.216,-18.4131 781.537,-20.6804 799.887,-22.8336"/>
<polygon fill="midnightblue" stroke="midnightblue" points="744.864,-12.853 734.524,-15.1636 744.048,-19.8053 744.864,-12.853"/>
</g>
</g>
</svg>
