<?xml version="1.0" encoding="UTF-8" standalone="no"?>
<!DOCTYPE svg PUBLIC "-//W3C//DTD SVG 1.1//EN"
 "http://www.w3.org/Graphics/SVG/1.1/DTD/svg11.dtd">
<!-- Generated by graphviz version 2.30.1 (20130221.2233)
 -->
<!-- Title: Om::Program Pages: 1 -->
<svg width="332pt" height="146pt"
 viewBox="0.00 0.00 332.00 146.00" xmlns="http://www.w3.org/2000/svg" xmlns:xlink="http://www.w3.org/1999/xlink">
<g id="graph0" class="graph" transform="scale(1 1) rotate(0) translate(4 142)">
<title>Om::Program</title>
<!-- Node1 -->
<g id="node1" class="node"><title>Node1</title>
<polygon fill="#bfbfbf" stroke="black" points="139.995,-1 139.995,-21 216.005,-21 216.005,-1 139.995,-1"/>
<text text-anchor="middle" x="178" y="-7" font-family="Helvetica,sans-Serif" font-size="10.00">Om::Program</text>
</g>
<!-- Node2 -->
<g id="node2" class="node"><title>Node2</title>
<g id="a_node2"><a xlink:href="class_om_1_1_giveable.html" target="_top" xlink:title="An object that can be copied or moved via Give.">
<polygon fill="none" stroke="black" points="49.4336,-59 49.4336,-79 126.566,-79 126.566,-59 49.4336,-59"/>
<text text-anchor="middle" x="88" y="-65" font-family="Helvetica,sans-Serif" font-size="10.00">Om::Giveable</text>
</a>
</g>
</g>
<!-- Node2&#45;&gt;Node1 -->
<g id="edge1" class="edge"><title>Node2&#45;&gt;Node1</title>
<path fill="none" stroke="midnightblue" d="M111.403,-53.438C127.856,-43.2008 149.357,-29.8221 163.415,-21.0752"/>
<polygon fill="midnightblue" stroke="midnightblue" points="109.503,-50.498 102.862,-58.7527 113.201,-56.4414 109.503,-50.498"/>
</g>
<!-- Node3 -->
<g id="node3" class="node"><title>Node3</title>
<g id="a_node3"><a xlink:href="class_om_1_1_copyable.html" target="_top" xlink:title="An object that can be passed to Copy to be copied.">
<polygon fill="none" stroke="black" points="-0.958008,-117 -0.958008,-137 78.958,-137 78.958,-117 -0.958008,-117"/>
<text text-anchor="middle" x="39" y="-123" font-family="Helvetica,sans-Serif" font-size="10.00">Om::Copyable</text>
</a>
</g>
</g>
<!-- Node3&#45;&gt;Node2 -->
<g id="edge2" class="edge"><title>Node3&#45;&gt;Node2</title>
<path fill="none" stroke="midnightblue" d="M53.7748,-109.114C62.4114,-99.2442 72.9726,-87.1742 80.0592,-79.0752"/>
<polygon fill="midnightblue" stroke="midnightblue" points="51.0424,-106.922 47.0914,-116.753 56.3105,-111.532 51.0424,-106.922"/>
</g>
<!-- Node4 -->
<g id="node4" class="node"><title>Node4</title>
<g id="a_node4"><a xlink:href="class_om_1_1_moveable.html" target="_top" xlink:title="An object that can be passed to Move to be moved.">
<polygon fill="none" stroke="black" points="96.4878,-117 96.4878,-137 177.512,-137 177.512,-117 96.4878,-117"/>
<text text-anchor="middle" x="137" y="-123" font-family="Helvetica,sans-Serif" font-size="10.00">Om::Moveable</text>
</a>
</g>
</g>
<!-- Node4&#45;&gt;Node2 -->
<g id="edge3" class="edge"><title>Node4&#45;&gt;Node2</title>
<path fill="none" stroke="midnightblue" d="M122.225,-109.114C113.589,-99.2442 103.027,-87.1742 95.9408,-79.0752"/>
<polygon fill="midnightblue" stroke="midnightblue" points="119.69,-111.532 128.909,-116.753 124.958,-106.922 119.69,-111.532"/>
</g>
<!-- Node5 -->
<g id="node5" class="node"><title>Node5</title>
<g id="a_node5"><a xlink:href="class_om_1_1_queue.html" target="_top" xlink:title="A first&#45;in, first&#45;out Element processor.">
<polygon fill="none" stroke="black" points="144.155,-59 144.155,-79 211.845,-79 211.845,-59 144.155,-59"/>
<text text-anchor="middle" x="178" y="-65" font-family="Helvetica,sans-Serif" font-size="10.00">Om::Queue</text>
</a>
</g>
</g>
<!-- Node5&#45;&gt;Node1 -->
<g id="edge4" class="edge"><title>Node5&#45;&gt;Node1</title>
<path fill="none" stroke="midnightblue" d="M178,-48.7065C178,-39.3384 178,-28.5262 178,-21.0752"/>
<polygon fill="midnightblue" stroke="midnightblue" points="174.5,-48.7527 178,-58.7527 181.5,-48.7528 174.5,-48.7527"/>
</g>
<!-- Node6 -->
<g id="node6" class="node"><title>Node6</title>
<g id="a_node6"><a xlink:href="class_om_1_1_shareable.html" target="_top" xlink:title="Om::Shareable\&lt;\&gt;">
<polygon fill="none" stroke="black" points="229.532,-59 229.532,-79 324.468,-79 324.468,-59 229.532,-59"/>
<text text-anchor="middle" x="277" y="-65" font-family="Helvetica,sans-Serif" font-size="10.00">Om::Shareable&lt;&gt;</text>
</a>
</g>
</g>
<!-- Node6&#45;&gt;Node1 -->
<g id="edge5" class="edge"><title>Node6&#45;&gt;Node1</title>
<path fill="none" stroke="midnightblue" d="M251.758,-53.7215C233.597,-43.4489 209.65,-29.9031 194.044,-21.0752"/>
<polygon fill="midnightblue" stroke="midnightblue" points="250.225,-56.8756 260.652,-58.7527 253.671,-50.7828 250.225,-56.8756"/>
</g>
</g>
</svg>
