<?xml version="1.0" encoding="UTF-8" standalone="no"?>
<!DOCTYPE svg PUBLIC "-//W3C//DTD SVG 1.1//EN"
 "http://www.w3.org/Graphics/SVG/1.1/DTD/svg11.dtd">
<!-- Generated by graphviz version 2.34.0 (20130907.0228)
 -->
<!-- Title: Om::Form::ElementRange Pages: 1 -->
<svg width="832pt" height="219pt"
 viewBox="0.00 0.00 832.00 219.00" xmlns="http://www.w3.org/2000/svg" xmlns:xlink="http://www.w3.org/1999/xlink">
<g id="graph0" class="graph" transform="scale(1 1) rotate(0) translate(4 215)">
<title>Om::Form::ElementRange</title>
<!-- Node1 -->
<g id="node1" class="node"><title>Node1</title>
<polygon fill="#bfbfbf" stroke="black" points="690.648,-100 690.648,-120 823.352,-120 823.352,-100 690.648,-100"/>
<text text-anchor="middle" x="757" y="-106" font-family="Helvetica,sans-Serif" font-size="10.00">Om::Form::ElementRange</text>
</g>
<!-- Node2 -->
<g id="node2" class="node"><title>Node2</title>
<g id="a_node2"><a xlink:href="class_om_1_1_source_1_1_default_source.html" target="_top" xlink:title="Om::Source::DefaultSource\l\&lt; Element const, ElementRange \&gt;">
<polygon fill="none" stroke="black" points="399.845,-145 399.845,-177 568.155,-177 568.155,-145 399.845,-145"/>
<text text-anchor="start" x="407.845" y="-163" font-family="Helvetica,sans-Serif" font-size="10.00">Om::Source::DefaultSource</text>
<text text-anchor="middle" x="484" y="-151" font-family="Helvetica,sans-Serif" font-size="10.00">&lt; Element const, ElementRange &gt;</text>
</a>
</g>
</g>
<!-- Node2&#45;&gt;Node1 -->
<g id="edge1" class="edge"><title>Node2&#45;&gt;Node1</title>
<path fill="none" stroke="midnightblue" d="M578.525,-153.199C608.591,-149.707 641.901,-144.796 672,-138 691.943,-133.497 713.837,-126.115 730.271,-120.062"/>
<polygon fill="midnightblue" stroke="midnightblue" points="578.009,-149.734 568.462,-154.329 578.791,-156.691 578.009,-149.734"/>
</g>
<!-- Node3 -->
<g id="node3" class="node"><title>Node3</title>
<g id="a_node3"><a xlink:href="class_om_1_1_source_1_1_source.html" target="_top" xlink:title="Om::Source::Source\l\&lt; Element const &#160;\&gt;">
<polygon fill="none" stroke="black" points="254.705,-179 254.705,-211 361.295,-211 361.295,-179 254.705,-179"/>
<text text-anchor="start" x="262.705" y="-197" font-family="Helvetica,sans-Serif" font-size="10.00">Om::Source::Source</text>
<text text-anchor="middle" x="308" y="-185" font-family="Helvetica,sans-Serif" font-size="10.00">&lt; Element const &gt;</text>
</a>
</g>
</g>
<!-- Node3&#45;&gt;Node2 -->
<g id="edge2" class="edge"><title>Node3&#45;&gt;Node2</title>
<path fill="none" stroke="midnightblue" d="M371.773,-182.734C381.248,-180.883 391.14,-178.95 400.948,-177.033"/>
<polygon fill="midnightblue" stroke="midnightblue" points="370.821,-179.354 361.678,-184.707 372.164,-186.224 370.821,-179.354"/>
</g>
<!-- Node4 -->
<g id="node4" class="node"><title>Node4</title>
<polygon fill="none" stroke="#bfbfbf" points="256.917,-116 256.917,-160 359.083,-160 359.083,-116 256.917,-116"/>
<text text-anchor="start" x="264.917" y="-146" font-family="Helvetica,sans-Serif" font-size="10.00">std::iterator&lt; std</text>
<text text-anchor="start" x="264.917" y="-134" font-family="Helvetica,sans-Serif" font-size="10.00">::input_iterator_tag,</text>
<text text-anchor="middle" x="308" y="-122" font-family="Helvetica,sans-Serif" font-size="10.00"> Element const &gt;</text>
</g>
<!-- Node4&#45;&gt;Node2 -->
<g id="edge3" class="edge"><title>Node4&#45;&gt;Node2</title>
<path fill="none" stroke="midnightblue" d="M369.338,-145.976C379.14,-147.271 389.441,-148.633 399.675,-149.986"/>
<polygon fill="midnightblue" stroke="midnightblue" points="369.7,-142.493 359.328,-144.653 368.783,-149.433 369.7,-142.493"/>
</g>
<!-- Node5 -->
<g id="node5" class="node"><title>Node5</title>
<g id="a_node5"><a xlink:title="STL iterator class. ">
<polygon fill="none" stroke="#bfbfbf" points="426.422,-94 426.422,-126 541.578,-126 541.578,-94 426.422,-94"/>
<text text-anchor="start" x="434.422" y="-112" font-family="Helvetica,sans-Serif" font-size="10.00">std::deque&lt; T &gt;::const</text>
<text text-anchor="middle" x="484" y="-100" font-family="Helvetica,sans-Serif" font-size="10.00">_iterator</text>
</a>
</g>
</g>
<!-- Node5&#45;&gt;Node1 -->
<g id="edge4" class="edge"><title>Node5&#45;&gt;Node1</title>
<path fill="none" stroke="#9a32cd" stroke-dasharray="5,2" d="M551.978,-110C594.127,-110 648.281,-110 690.203,-110"/>
<polygon fill="#9a32cd" stroke="#9a32cd" points="551.811,-106.5 541.81,-110 551.81,-113.5 551.811,-106.5"/>
<text text-anchor="middle" x="629" y="-124" font-family="Helvetica,sans-Serif" font-size="10.00"> thisOperandEnd</text>
<text text-anchor="middle" x="629" y="-112" font-family="Helvetica,sans-Serif" font-size="10.00">thisOperandIterator</text>
</g>
<!-- Node6 -->
<g id="node6" class="node"><title>Node6</title>
<g id="a_node6"><a xlink:href="class_om_1_1_element.html" target="_top" xlink:title="A Program that contains a single &quot;elemental&quot; item (or none, when IsEmpty() returns true)...">
<polygon fill="none" stroke="black" points="446.825,-55 446.825,-75 521.175,-75 521.175,-55 446.825,-55"/>
<text text-anchor="middle" x="484" y="-61" font-family="Helvetica,sans-Serif" font-size="10.00">Om::Element</text>
</a>
</g>
</g>
<!-- Node6&#45;&gt;Node1 -->
<g id="edge5" class="edge"><title>Node6&#45;&gt;Node1</title>
<path fill="none" stroke="#9a32cd" stroke-dasharray="5,2" d="M531.473,-71.7536C569.354,-77.3676 624.209,-85.7453 672,-94 682.679,-95.8446 694.098,-97.9382 704.967,-99.9888"/>
<polygon fill="#9a32cd" stroke="#9a32cd" points="531.663,-68.2437 521.259,-70.2459 530.64,-75.1687 531.663,-68.2437"/>
<text text-anchor="middle" x="629" y="-96" font-family="Helvetica,sans-Serif" font-size="10.00"> thisElement</text>
</g>
<!-- Node7 -->
<g id="node7" class="node"><title>Node7</title>
<g id="a_node7"><a xlink:href="class_om_1_1_program.html" target="_top" xlink:title="The Program implementation. ">
<polygon fill="none" stroke="black" points="269.995,-55 269.995,-75 346.005,-75 346.005,-55 269.995,-55"/>
<text text-anchor="middle" x="308" y="-61" font-family="Helvetica,sans-Serif" font-size="10.00">Om::Program</text>
</a>
</g>
</g>
<!-- Node7&#45;&gt;Node6 -->
<g id="edge6" class="edge"><title>Node7&#45;&gt;Node6</title>
<path fill="none" stroke="midnightblue" d="M356.444,-65C384.864,-65 420.44,-65 446.629,-65"/>
<polygon fill="midnightblue" stroke="midnightblue" points="356.327,-61.5001 346.327,-65 356.327,-68.5001 356.327,-61.5001"/>
</g>
<!-- Node8 -->
<g id="node8" class="node"><title>Node8</title>
<g id="a_node8"><a xlink:href="class_om_1_1_consumer.html" target="_top" xlink:title="An Element taker; takes at the back. ">
<polygon fill="none" stroke="black" points="126.104,-117 126.104,-137 209.896,-137 209.896,-117 126.104,-117"/>
<text text-anchor="middle" x="168" y="-123" font-family="Helvetica,sans-Serif" font-size="10.00">Om::Consumer</text>
</a>
</g>
</g>
<!-- Node8&#45;&gt;Node7 -->
<g id="edge7" class="edge"><title>Node8&#45;&gt;Node7</title>
<path fill="none" stroke="midnightblue" d="M202.273,-112.988C206.893,-111 211.572,-108.964 216,-107 240.019,-96.3497 267.363,-83.651 285.754,-75.0257"/>
<polygon fill="midnightblue" stroke="midnightblue" points="200.79,-109.816 192.97,-116.964 203.541,-116.252 200.79,-109.816"/>
</g>
<!-- Node9 -->
<g id="node9" class="node"><title>Node9</title>
<g id="a_node9"><a xlink:href="class_om_1_1_giveable.html" target="_top" xlink:title="An object that can be copied or moved via Give. ">
<polygon fill="none" stroke="black" points="129.434,-78 129.434,-98 206.566,-98 206.566,-78 129.434,-78"/>
<text text-anchor="middle" x="168" y="-84" font-family="Helvetica,sans-Serif" font-size="10.00">Om::Giveable</text>
</a>
</g>
</g>
<!-- Node9&#45;&gt;Node7 -->
<g id="edge8" class="edge"><title>Node9&#45;&gt;Node7</title>
<path fill="none" stroke="midnightblue" d="M216.68,-80.0534C234.072,-77.1547 253.468,-73.922 269.814,-71.1976"/>
<polygon fill="midnightblue" stroke="midnightblue" points="215.998,-76.6187 206.709,-81.7151 217.148,-83.5235 215.998,-76.6187"/>
</g>
<!-- Node10 -->
<g id="node10" class="node"><title>Node10</title>
<g id="a_node10"><a xlink:href="class_om_1_1_copyable.html" target="_top" xlink:title="An object that can be passed to Copy to be copied. ">
<polygon fill="none" stroke="black" points="1.04199,-97 1.04199,-117 80.958,-117 80.958,-97 1.04199,-97"/>
<text text-anchor="middle" x="41" y="-103" font-family="Helvetica,sans-Serif" font-size="10.00">Om::Copyable</text>
</a>
</g>
</g>
<!-- Node10&#45;&gt;Node9 -->
<g id="edge9" class="edge"><title>Node10&#45;&gt;Node9</title>
<path fill="none" stroke="midnightblue" d="M91.1525,-99.5288C103.81,-97.6049 117.234,-95.5644 129.214,-93.7435"/>
<polygon fill="midnightblue" stroke="midnightblue" points="90.5683,-96.0773 81.2078,-101.04 91.6203,-102.998 90.5683,-96.0773"/>
</g>
<!-- Node11 -->
<g id="node11" class="node"><title>Node11</title>
<g id="a_node11"><a xlink:href="class_om_1_1_moveable.html" target="_top" xlink:title="An object that can be passed to Move to be moved. ">
<polygon fill="none" stroke="black" points="0.487793,-58 0.487793,-78 81.5122,-78 81.5122,-58 0.487793,-58"/>
<text text-anchor="middle" x="41" y="-64" font-family="Helvetica,sans-Serif" font-size="10.00">Om::Moveable</text>
</a>
</g>
</g>
<!-- Node11&#45;&gt;Node9 -->
<g id="edge10" class="edge"><title>Node11&#45;&gt;Node9</title>
<path fill="none" stroke="midnightblue" d="M91.4797,-75.9168C104.111,-77.9377 117.485,-80.0775 129.411,-81.9858"/>
<polygon fill="midnightblue" stroke="midnightblue" points="91.9782,-72.4521 81.5508,-74.3281 90.8722,-79.3642 91.9782,-72.4521"/>
</g>
<!-- Node12 -->
<g id="node12" class="node"><title>Node12</title>
<g id="a_node12"><a xlink:href="class_om_1_1_producer.html" target="_top" xlink:title="An Element giver; gives from the front. ">
<polygon fill="none" stroke="black" points="128.879,-39 128.879,-59 207.121,-59 207.121,-39 128.879,-39"/>
<text text-anchor="middle" x="168" y="-45" font-family="Helvetica,sans-Serif" font-size="10.00">Om::Producer</text>
</a>
</g>
</g>
<!-- Node12&#45;&gt;Node7 -->
<g id="edge11" class="edge"><title>Node12&#45;&gt;Node7</title>
<path fill="none" stroke="midnightblue" d="M217.793,-54.6571C234.861,-56.6361 253.74,-58.8249 269.718,-60.6774"/>
<polygon fill="midnightblue" stroke="midnightblue" points="217.777,-51.132 207.441,-53.4569 216.971,-58.0854 217.777,-51.132"/>
</g>
<!-- Node13 -->
<g id="node13" class="node"><title>Node13</title>
<g id="a_node13"><a xlink:href="class_om_1_1_shareable.html" target="_top" xlink:title="Om::Shareable\&lt;\&gt;">
<polygon fill="none" stroke="black" points="120.532,-0 120.532,-20 215.468,-20 215.468,-0 120.532,-0"/>
<text text-anchor="middle" x="168" y="-6" font-family="Helvetica,sans-Serif" font-size="10.00">Om::Shareable&lt;&gt;</text>
</a>
</g>
</g>
<!-- Node13&#45;&gt;Node7 -->
<g id="edge12" class="edge"><title>Node13&#45;&gt;Node7</title>
<path fill="none" stroke="midnightblue" d="M203.878,-23.9008C228.174,-33.584 260.014,-46.2735 281.849,-54.9761"/>
<polygon fill="midnightblue" stroke="midnightblue" points="204.897,-20.5389 194.311,-20.0878 202.305,-27.0415 204.897,-20.5389"/>
</g>
</g>
</svg>
