<?xml version="1.0" encoding="UTF-8" standalone="no"?>
<!DOCTYPE svg PUBLIC "-//W3C//DTD SVG 1.1//EN"
 "http://www.w3.org/Graphics/SVG/1.1/DTD/svg11.dtd">
<!-- Generated by graphviz version 2.30.1 (20130221.2233)
 -->
<!-- Title: Om::Sources::IteratorSource&lt; ThisItem, ThisIterator &gt; Pages: 1 -->
<svg width="532pt" height="113pt"
 viewBox="0.00 0.00 532.00 113.00" xmlns="http://www.w3.org/2000/svg" xmlns:xlink="http://www.w3.org/1999/xlink">
<g id="graph0" class="graph" transform="scale(1 1) rotate(0) translate(4 109)">
<title>Om::Sources::IteratorSource&lt; ThisItem, ThisIterator &gt;</title>
<!-- Node1 -->
<g id="node1" class="node"><title>Node1</title>
<polygon fill="#bfbfbf" stroke="black" points="380.365,-13 380.365,-45 523.635,-45 523.635,-13 380.365,-13"/>
<text text-anchor="start" x="388.365" y="-31" font-family="Helvetica,sans-Serif" font-size="10.00">Om::Sources::IteratorSource</text>
<text text-anchor="middle" x="452" y="-19" font-family="Helvetica,sans-Serif" font-size="10.00">&lt; ThisItem, ThisIterator &gt;</text>
</g>
<!-- Node2 -->
<g id="node2" class="node"><title>Node2</title>
<g id="a_node2"><a xlink:href="class_om_1_1_sources_1_1_default_source.html" target="_top" xlink:title="Om::Sources::DefaultSource\l\&lt; ThisItem, IteratorSource\l\&lt; ThisItem, ThisIterator \&gt; \&gt;">
<polygon fill="none" stroke="black" points="150.362,-39 150.362,-83 293.638,-83 293.638,-39 150.362,-39"/>
<text text-anchor="start" x="158.362" y="-69" font-family="Helvetica,sans-Serif" font-size="10.00">Om::Sources::DefaultSource</text>
<text text-anchor="start" x="158.362" y="-57" font-family="Helvetica,sans-Serif" font-size="10.00">&lt; ThisItem, IteratorSource</text>
<text text-anchor="middle" x="222" y="-45" font-family="Helvetica,sans-Serif" font-size="10.00">&lt; ThisItem, ThisIterator &gt; &gt;</text>
</a>
</g>
</g>
<!-- Node2&#45;&gt;Node1 -->
<g id="edge1" class="edge"><title>Node2&#45;&gt;Node1</title>
<path fill="none" stroke="midnightblue" d="M304.022,-49.6285C328.881,-46.1395 356.029,-42.3292 380.153,-38.9434"/>
<polygon fill="midnightblue" stroke="midnightblue" points="303.307,-46.1944 293.891,-51.0504 304.28,-53.1265 303.307,-46.1944"/>
</g>
<!-- Node3 -->
<g id="node3" class="node"><title>Node3</title>
<g id="a_node3"><a xlink:href="class_om_1_1_sources_1_1_source.html" target="_top" xlink:title="Any object that items can be pulled from. ">
<polygon fill="none" stroke="black" points="0.20459,-73 0.20459,-105 111.795,-105 111.795,-73 0.20459,-73"/>
<text text-anchor="start" x="8.20459" y="-91" font-family="Helvetica,sans-Serif" font-size="10.00">Om::Sources::Source</text>
<text text-anchor="middle" x="56" y="-79" font-family="Helvetica,sans-Serif" font-size="10.00">&lt; ThisItem &gt;</text>
</a>
</g>
</g>
<!-- Node3&#45;&gt;Node2 -->
<g id="edge2" class="edge"><title>Node3&#45;&gt;Node2</title>
<path fill="none" stroke="midnightblue" d="M122.022,-77.8987C131.33,-76.3096 140.943,-74.6683 150.352,-73.0618"/>
<polygon fill="midnightblue" stroke="midnightblue" points="121.334,-74.4654 112.066,-79.5985 122.512,-81.3655 121.334,-74.4654"/>
</g>
<!-- Node4 -->
<g id="node4" class="node"><title>Node4</title>
<polygon fill="none" stroke="#bfbfbf" points="4.9165,-10 4.9165,-54 107.083,-54 107.083,-10 4.9165,-10"/>
<text text-anchor="start" x="12.9165" y="-40" font-family="Helvetica,sans-Serif" font-size="10.00">std::iterator&lt; std</text>
<text text-anchor="start" x="12.9165" y="-28" font-family="Helvetica,sans-Serif" font-size="10.00">::input_iterator_tag,</text>
<text text-anchor="middle" x="56" y="-16" font-family="Helvetica,sans-Serif" font-size="10.00"> ThisItem &gt;</text>
</g>
<!-- Node4&#45;&gt;Node2 -->
<g id="edge3" class="edge"><title>Node4&#45;&gt;Node2</title>
<path fill="none" stroke="midnightblue" d="M117.169,-42.6396C127.872,-44.5323 139.111,-46.5197 150.081,-48.4594"/>
<polygon fill="midnightblue" stroke="midnightblue" points="117.553,-39.1534 107.097,-40.8585 116.334,-46.0464 117.553,-39.1534"/>
</g>
<!-- Node5 -->
<g id="node5" class="node"><title>Node5</title>
<polygon fill="none" stroke="#bfbfbf" points="188.714,-0 188.714,-20 255.286,-20 255.286,-0 188.714,-0"/>
<text text-anchor="middle" x="222" y="-6" font-family="Helvetica,sans-Serif" font-size="10.00">ThisIterator</text>
</g>
<!-- Node5&#45;&gt;Node1 -->
<g id="edge4" class="edge"><title>Node5&#45;&gt;Node1</title>
<path fill="none" stroke="#9a32cd" stroke-dasharray="5,2" d="M265.652,-13.5543C297.858,-16.2382 342.769,-19.9808 380.316,-23.1097"/>
<polygon fill="#9a32cd" stroke="#9a32cd" points="265.923,-10.0649 255.667,-12.7222 265.342,-17.0407 265.923,-10.0649"/>
<text text-anchor="middle" x="337" y="-24" font-family="Helvetica,sans-Serif" font-size="10.00"> thisIterator</text>
</g>
</g>
</svg>
