<?xml version="1.0" encoding="UTF-8" standalone="no"?>
<!DOCTYPE svg PUBLIC "-//W3C//DTD SVG 1.1//EN"
 "http://www.w3.org/Graphics/SVG/1.1/DTD/svg11.dtd">
<!-- Generated by graphviz version 2.28.0 (20120817.0054)
 -->
<!-- Title: Om::Lexicon Pages: 1 -->
<svg width="1204pt" height="154pt"
 viewBox="0.00 0.00 1204.00 154.00" xmlns="http://www.w3.org/2000/svg" xmlns:xlink="http://www.w3.org/1999/xlink">
<g id="graph1" class="graph" transform="scale(1 1) rotate(0) translate(4 150)">
<title>Om::Lexicon</title>
<!-- Node1 -->
<g id="node1" class="node"><title>Node1</title>
<polygon fill="#bfbfbf" stroke="black" points="1126.5,-22.5 1126.5,-41.5 1195.5,-41.5 1195.5,-22.5 1126.5,-22.5"/>
<text text-anchor="middle" x="1161" y="-29.5" font-family="Helvetica,sans-Serif" font-size="10.00">Om::Lexicon</text>
</g>
<!-- Node2 -->
<g id="node2" class="node"><title>Node2</title>
<a xlink:href="class_om_1_1_default_program.html" target="_top" xlink:title="Om::DefaultProgram\l\&lt; Lexicon \&gt;">
<polygon fill="none" stroke="black" points="988,-39 988,-69 1090,-69 1090,-39 988,-39"/>
<text text-anchor="start" x="996" y="-57" font-family="Helvetica,sans-Serif" font-size="10.00">Om::DefaultProgram</text>
<text text-anchor="middle" x="1039" y="-46" font-family="Helvetica,sans-Serif" font-size="10.00">&lt; Lexicon &gt;</text>
</a>
</g>
<!-- Node2&#45;&gt;Node1 -->
<g id="edge2" class="edge"><title>Node2&#45;&gt;Node1</title>
<path fill="none" stroke="midnightblue" d="M1100.29,-42.9473C1109.26,-41.3022 1118.23,-39.6587 1126.38,-38.1639"/>
<polygon fill="midnightblue" stroke="midnightblue" points="1099.4,-39.5515 1090.2,-44.7975 1100.66,-46.4368 1099.4,-39.5515"/>
</g>
<!-- Node3 -->
<g id="node4" class="node"><title>Node3</title>
<a xlink:href="class_om_1_1_default_queue.html" target="_top" xlink:title="Om::DefaultQueue\&lt; Lexicon,\l DefaultGiveable\&lt; Lexicon,\l Program \&gt; \&gt;">
<polygon fill="none" stroke="black" points="812.5,-58.5 812.5,-99.5 951.5,-99.5 951.5,-58.5 812.5,-58.5"/>
<text text-anchor="start" x="820.5" y="-87.5" font-family="Helvetica,sans-Serif" font-size="10.00">Om::DefaultQueue&lt; Lexicon,</text>
<text text-anchor="start" x="820.5" y="-76.5" font-family="Helvetica,sans-Serif" font-size="10.00"> DefaultGiveable&lt; Lexicon,</text>
<text text-anchor="middle" x="882" y="-65.5" font-family="Helvetica,sans-Serif" font-size="10.00"> Program &gt; &gt;</text>
</a>
</g>
<!-- Node3&#45;&gt;Node2 -->
<g id="edge4" class="edge"><title>Node3&#45;&gt;Node2</title>
<path fill="none" stroke="midnightblue" d="M961.876,-66.2781C970.735,-64.8492 979.57,-63.4241 987.918,-62.0777"/>
<polygon fill="midnightblue" stroke="midnightblue" points="961.203,-62.8413 951.888,-67.889 962.318,-69.752 961.203,-62.8413"/>
</g>
<!-- Node4 -->
<g id="node6" class="node"><title>Node4</title>
<a xlink:href="class_om_1_1_default_giveable.html" target="_top" xlink:title="Om::DefaultGiveable\l\&lt; Lexicon, Program \&gt;">
<polygon fill="none" stroke="black" points="670,-64 670,-94 776,-94 776,-64 670,-64"/>
<text text-anchor="start" x="678" y="-82" font-family="Helvetica,sans-Serif" font-size="10.00">Om::DefaultGiveable</text>
<text text-anchor="middle" x="723" y="-71" font-family="Helvetica,sans-Serif" font-size="10.00">&lt; Lexicon, Program &gt;</text>
</a>
</g>
<!-- Node4&#45;&gt;Node3 -->
<g id="edge6" class="edge"><title>Node4&#45;&gt;Node3</title>
<path fill="none" stroke="midnightblue" d="M786.522,-79C795.051,-79 803.842,-79 812.469,-79"/>
<polygon fill="midnightblue" stroke="midnightblue" points="786.279,-75.5001 776.279,-79 786.279,-82.5001 786.279,-75.5001"/>
</g>
<!-- Node5 -->
<g id="node8" class="node"><title>Node5</title>
<a xlink:href="class_om_1_1_default_moveable.html" target="_top" xlink:title="Om::DefaultMoveable\l\&lt; Lexicon, DefaultCopyable\l\&lt; Lexicon, Program \&gt; \&gt;">
<polygon fill="none" stroke="black" points="498.5,-58.5 498.5,-99.5 633.5,-99.5 633.5,-58.5 498.5,-58.5"/>
<text text-anchor="start" x="506.5" y="-87.5" font-family="Helvetica,sans-Serif" font-size="10.00">Om::DefaultMoveable</text>
<text text-anchor="start" x="506.5" y="-76.5" font-family="Helvetica,sans-Serif" font-size="10.00">&lt; Lexicon, DefaultCopyable</text>
<text text-anchor="middle" x="566" y="-65.5" font-family="Helvetica,sans-Serif" font-size="10.00">&lt; Lexicon, Program &gt; &gt;</text>
</a>
</g>
<!-- Node5&#45;&gt;Node4 -->
<g id="edge8" class="edge"><title>Node5&#45;&gt;Node4</title>
<path fill="none" stroke="midnightblue" d="M643.651,-79C652.552,-79 661.468,-79 669.929,-79"/>
<polygon fill="midnightblue" stroke="midnightblue" points="643.634,-75.5001 633.633,-79 643.633,-82.5001 643.634,-75.5001"/>
</g>
<!-- Node6 -->
<g id="node10" class="node"><title>Node6</title>
<a xlink:href="class_om_1_1_default_copyable.html" target="_top" xlink:title="Om::DefaultCopyable\l\&lt; Lexicon, Program \&gt;">
<polygon fill="none" stroke="black" points="352,-64 352,-94 462,-94 462,-64 352,-64"/>
<text text-anchor="start" x="360" y="-82" font-family="Helvetica,sans-Serif" font-size="10.00">Om::DefaultCopyable</text>
<text text-anchor="middle" x="407" y="-71" font-family="Helvetica,sans-Serif" font-size="10.00">&lt; Lexicon, Program &gt;</text>
</a>
</g>
<!-- Node6&#45;&gt;Node5 -->
<g id="edge10" class="edge"><title>Node6&#45;&gt;Node5</title>
<path fill="none" stroke="midnightblue" d="M472.074,-79C480.748,-79 489.665,-79 498.382,-79"/>
<polygon fill="midnightblue" stroke="midnightblue" points="472.031,-75.5001 462.03,-79 472.03,-82.5001 472.031,-75.5001"/>
</g>
<!-- Node7 -->
<g id="node12" class="node"><title>Node7</title>
<a xlink:href="class_om_1_1_program.html" target="_top" xlink:title="The Program implementation.">
<polygon fill="none" stroke="black" points="244,-69.5 244,-88.5 316,-88.5 316,-69.5 244,-69.5"/>
<text text-anchor="middle" x="280" y="-76.5" font-family="Helvetica,sans-Serif" font-size="10.00">Om::Program</text>
</a>
</g>
<!-- Node7&#45;&gt;Node6 -->
<g id="edge12" class="edge"><title>Node7&#45;&gt;Node6</title>
<path fill="none" stroke="midnightblue" d="M326.388,-79C334.692,-79 343.432,-79 351.958,-79"/>
<polygon fill="midnightblue" stroke="midnightblue" points="326.152,-75.5001 316.152,-79 326.152,-82.5001 326.152,-75.5001"/>
</g>
<!-- Node8 -->
<g id="node14" class="node"><title>Node8</title>
<a xlink:href="class_om_1_1_giveable.html" target="_top" xlink:title="An object that can be copied or moved via Give.">
<polygon fill="none" stroke="black" points="124,-107.5 124,-126.5 200,-126.5 200,-107.5 124,-107.5"/>
<text text-anchor="middle" x="162" y="-114.5" font-family="Helvetica,sans-Serif" font-size="10.00">Om::Giveable</text>
</a>
</g>
<!-- Node8&#45;&gt;Node7 -->
<g id="edge14" class="edge"><title>Node8&#45;&gt;Node7</title>
<path fill="none" stroke="midnightblue" d="M202.153,-104.174C217.718,-99.0753 235.314,-93.3109 249.738,-88.5859"/>
<polygon fill="midnightblue" stroke="midnightblue" points="200.685,-100.972 192.272,-107.411 202.864,-107.624 200.685,-100.972"/>
</g>
<!-- Node9 -->
<g id="node16" class="node"><title>Node9</title>
<a xlink:href="class_om_1_1_copyable.html" target="_top" xlink:title="An object that can be passed to Copy to be copied.">
<polygon fill="none" stroke="black" points="0,-126.5 0,-145.5 80,-145.5 80,-126.5 0,-126.5"/>
<text text-anchor="middle" x="40" y="-133.5" font-family="Helvetica,sans-Serif" font-size="10.00">Om::Copyable</text>
</a>
</g>
<!-- Node9&#45;&gt;Node8 -->
<g id="edge16" class="edge"><title>Node9&#45;&gt;Node8</title>
<path fill="none" stroke="midnightblue" d="M90.3313,-128.189C101.468,-126.426 113.11,-124.583 123.658,-122.912"/>
<polygon fill="midnightblue" stroke="midnightblue" points="89.6221,-124.758 80.2925,-129.779 90.7168,-131.672 89.6221,-124.758"/>
</g>
<!-- Node10 -->
<g id="node18" class="node"><title>Node10</title>
<a xlink:href="class_om_1_1_moveable.html" target="_top" xlink:title="An object that can be passed to Move to be moved.">
<polygon fill="none" stroke="black" points="0,-88.5 0,-107.5 80,-107.5 80,-88.5 0,-88.5"/>
<text text-anchor="middle" x="40" y="-95.5" font-family="Helvetica,sans-Serif" font-size="10.00">Om::Moveable</text>
</a>
</g>
<!-- Node10&#45;&gt;Node8 -->
<g id="edge18" class="edge"><title>Node10&#45;&gt;Node8</title>
<path fill="none" stroke="midnightblue" d="M90.3313,-105.811C101.468,-107.574 113.11,-109.417 123.658,-111.088"/>
<polygon fill="midnightblue" stroke="midnightblue" points="90.7168,-102.328 80.2925,-104.221 89.6221,-109.242 90.7168,-102.328"/>
</g>
<!-- Node11 -->
<g id="node20" class="node"><title>Node11</title>
<a xlink:href="class_om_1_1_queue.html" target="_top" xlink:title="A first&#45;in, first&#45;out Element processor.">
<polygon fill="none" stroke="black" points="129,-69.5 129,-88.5 195,-88.5 195,-69.5 129,-69.5"/>
<text text-anchor="middle" x="162" y="-76.5" font-family="Helvetica,sans-Serif" font-size="10.00">Om::Queue</text>
</a>
</g>
<!-- Node11&#45;&gt;Node7 -->
<g id="edge20" class="edge"><title>Node11&#45;&gt;Node7</title>
<path fill="none" stroke="midnightblue" d="M205.321,-79C217.973,-79 231.701,-79 243.841,-79"/>
<polygon fill="midnightblue" stroke="midnightblue" points="205.005,-75.5001 195.005,-79 205.005,-82.5001 205.005,-75.5001"/>
</g>
<!-- Node12 -->
<g id="node22" class="node"><title>Node12</title>
<a xlink:href="class_om_1_1_shareable.html" target="_top" xlink:title="Om::Shareable\&lt;\&gt;">
<polygon fill="none" stroke="black" points="116,-31.5 116,-50.5 208,-50.5 208,-31.5 116,-31.5"/>
<text text-anchor="middle" x="162" y="-38.5" font-family="Helvetica,sans-Serif" font-size="10.00">Om::Shareable&lt;&gt;</text>
</a>
</g>
<!-- Node12&#45;&gt;Node7 -->
<g id="edge22" class="edge"><title>Node12&#45;&gt;Node7</title>
<path fill="none" stroke="midnightblue" d="M202.153,-53.8259C217.718,-58.9247 235.314,-64.6891 249.738,-69.4141"/>
<polygon fill="midnightblue" stroke="midnightblue" points="202.864,-50.3761 192.272,-50.589 200.685,-57.0282 202.864,-50.3761"/>
</g>
<!-- Node13 -->
<g id="node24" class="node"><title>Node13</title>
<a xlink:href="class_om_1_1_taker.html" target="_top" xlink:title="Om::Taker\&lt; Lexicon \&gt;">
<polygon fill="none" stroke="black" points="827.5,-20.5 827.5,-39.5 936.5,-39.5 936.5,-20.5 827.5,-20.5"/>
<text text-anchor="middle" x="882" y="-27.5" font-family="Helvetica,sans-Serif" font-size="10.00">Om::Taker&lt; Lexicon &gt;</text>
</a>
</g>
<!-- Node13&#45;&gt;Node2 -->
<g id="edge24" class="edge"><title>Node13&#45;&gt;Node2</title>
<path fill="none" stroke="midnightblue" d="M946.669,-39.8584C960.436,-41.9901 974.805,-44.215 987.962,-46.2522"/>
<polygon fill="midnightblue" stroke="midnightblue" points="947.194,-36.3981 936.776,-38.3267 946.123,-43.3157 947.194,-36.3981"/>
</g>
<!-- Node14 -->
<g id="node26" class="node"><title>Node14</title>
<a xlink:href="class_om_1_1_translator.html" target="_top" xlink:title="An Operator lookup for use by an Evaluator.">
<polygon fill="none" stroke="black" points="1000,-0.5 1000,-19.5 1078,-19.5 1078,-0.5 1000,-0.5"/>
<text text-anchor="middle" x="1039" y="-7.5" font-family="Helvetica,sans-Serif" font-size="10.00">Om::Translator</text>
</a>
</g>
<!-- Node14&#45;&gt;Node1 -->
<g id="edge26" class="edge"><title>Node14&#45;&gt;Node1</title>
<path fill="none" stroke="midnightblue" d="M1088.27,-18.8493C1100.95,-21.1746 1114.36,-23.6332 1126.11,-25.7876"/>
<polygon fill="midnightblue" stroke="midnightblue" points="1088.77,-15.3822 1078.3,-17.0214 1087.5,-22.2674 1088.77,-15.3822"/>
</g>
</g>
</svg>
