<?xml version="1.0" encoding="UTF-8" standalone="no"?>
<!DOCTYPE svg PUBLIC "-//W3C//DTD SVG 1.1//EN"
 "http://www.w3.org/Graphics/SVG/1.1/DTD/svg11.dtd">
<!-- Generated by graphviz version 2.34.0 (20130907.0228)
 -->
<!-- Title: Om::Producer Pages: 1 -->
<svg width="1814pt" height="190pt"
 viewBox="0.00 0.00 1814.00 190.00" xmlns="http://www.w3.org/2000/svg" xmlns:xlink="http://www.w3.org/1999/xlink">
<g id="graph0" class="graph" transform="scale(1 1) rotate(0) translate(4 186)">
<title>Om::Producer</title>
<!-- Node1 -->
<g id="node1" class="node"><title>Node1</title>
<polygon fill="#bfbfbf" stroke="black" points="-0.120605,-106 -0.120605,-126 78.1206,-126 78.1206,-106 -0.120605,-106"/>
<text text-anchor="middle" x="39" y="-112" font-family="Helvetica,sans-Serif" font-size="10.00">Om::Producer</text>
</g>
<!-- Node2 -->
<g id="node2" class="node"><title>Node2</title>
<g id="a_node2"><a xlink:href="class_om_1_1_evaluator.html" target="_top" xlink:title="A Consumer that evaluates Program instances. ">
<polygon fill="none" stroke="black" points="114.044,-126 114.044,-146 193.956,-146 193.956,-126 114.044,-126"/>
<text text-anchor="middle" x="154" y="-132" font-family="Helvetica,sans-Serif" font-size="10.00">Om::Evaluator</text>
</a>
</g>
</g>
<!-- Node1&#45;&gt;Node2 -->
<g id="edge1" class="edge"><title>Node1&#45;&gt;Node2</title>
<path fill="none" stroke="midnightblue" d="M88.2006,-124.531C96.8165,-126.056 105.696,-127.628 114.013,-129.1"/>
<polygon fill="midnightblue" stroke="midnightblue" points="88.7136,-121.068 78.2566,-122.771 87.4936,-127.96 88.7136,-121.068"/>
</g>
<!-- Node3 -->
<g id="node3" class="node"><title>Node3</title>
<g id="a_node3"><a xlink:href="class_om_1_1_program.html" target="_top" xlink:title="The Program implementation. ">
<polygon fill="none" stroke="black" points="115.995,-87 115.995,-107 192.005,-107 192.005,-87 115.995,-87"/>
<text text-anchor="middle" x="154" y="-93" font-family="Helvetica,sans-Serif" font-size="10.00">Om::Program</text>
</a>
</g>
</g>
<!-- Node1&#45;&gt;Node3 -->
<g id="edge2" class="edge"><title>Node1&#45;&gt;Node3</title>
<path fill="none" stroke="midnightblue" d="M88.1694,-107.901C97.461,-106.338 107.06,-104.724 115.931,-103.233"/>
<polygon fill="midnightblue" stroke="midnightblue" points="87.5378,-104.458 78.2566,-109.567 88.6986,-111.361 87.5378,-104.458"/>
</g>
<!-- Node4 -->
<g id="node4" class="node"><title>Node4</title>
<g id="a_node4"><a xlink:href="class_om_1_1_element.html" target="_top" xlink:title="A Program that contains a single elemental item (or none, when IsEmpty() returns true). ">
<polygon fill="none" stroke="black" points="229.825,-87 229.825,-107 304.175,-107 304.175,-87 229.825,-87"/>
<text text-anchor="middle" x="267" y="-93" font-family="Helvetica,sans-Serif" font-size="10.00">Om::Element</text>
</a>
</g>
</g>
<!-- Node3&#45;&gt;Node4 -->
<g id="edge3" class="edge"><title>Node3&#45;&gt;Node4</title>
<path fill="none" stroke="midnightblue" d="M202.426,-97C211.583,-97 221.04,-97 229.77,-97"/>
<polygon fill="midnightblue" stroke="midnightblue" points="202.27,-93.5001 192.27,-97 202.27,-100.5 202.27,-93.5001"/>
</g>
<!-- Node5 -->
<g id="node5" class="node"><title>Node5</title>
<g id="a_node5"><a xlink:href="class_om_1_1_atom.html" target="_top" xlink:title="An atomic Element defined by a string. ">
<polygon fill="none" stroke="black" points="340.498,-87 340.498,-107 401.502,-107 401.502,-87 340.498,-87"/>
<text text-anchor="middle" x="371" y="-93" font-family="Helvetica,sans-Serif" font-size="10.00">Om::Atom</text>
</a>
</g>
</g>
<!-- Node4&#45;&gt;Node5 -->
<g id="edge4" class="edge"><title>Node4&#45;&gt;Node5</title>
<path fill="none" stroke="midnightblue" d="M314.412,-97C323.194,-97 332.16,-97 340.255,-97"/>
<polygon fill="midnightblue" stroke="midnightblue" points="314.249,-93.5001 304.249,-97 314.249,-100.5 314.249,-93.5001"/>
</g>
<!-- Node6 -->
<g id="node6" class="node"><title>Node6</title>
<g id="a_node6"><a xlink:href="class_om_1_1_default_copyable.html" target="_top" xlink:title="Om::DefaultCopyable\l\&lt; Operator, Atom \&gt;">
<polygon fill="none" stroke="black" points="439.2,-138 439.2,-170 550.8,-170 550.8,-138 439.2,-138"/>
<text text-anchor="start" x="447.2" y="-156" font-family="Helvetica,sans-Serif" font-size="10.00">Om::DefaultCopyable</text>
<text text-anchor="middle" x="495" y="-144" font-family="Helvetica,sans-Serif" font-size="10.00">&lt; Operator, Atom &gt;</text>
</a>
</g>
</g>
<!-- Node5&#45;&gt;Node6 -->
<g id="edge5" class="edge"><title>Node5&#45;&gt;Node6</title>
<path fill="none" stroke="midnightblue" d="M402.61,-111.301C419.851,-119.357 441.442,-129.444 459.309,-137.792"/>
<polygon fill="midnightblue" stroke="midnightblue" points="404.072,-108.121 393.53,-107.059 401.109,-114.463 404.072,-108.121"/>
</g>
<!-- Node14 -->
<g id="node14" class="node"><title>Node14</title>
<g id="a_node14"><a xlink:href="class_om_1_1_default_copyable.html" target="_top" xlink:title="Om::DefaultCopyable\l\&lt; Separator, Atom \&gt;">
<polygon fill="none" stroke="black" points="439.2,-81 439.2,-113 550.8,-113 550.8,-81 439.2,-81"/>
<text text-anchor="start" x="447.2" y="-99" font-family="Helvetica,sans-Serif" font-size="10.00">Om::DefaultCopyable</text>
<text text-anchor="middle" x="495" y="-87" font-family="Helvetica,sans-Serif" font-size="10.00">&lt; Separator, Atom &gt;</text>
</a>
</g>
</g>
<!-- Node5&#45;&gt;Node14 -->
<g id="edge13" class="edge"><title>Node5&#45;&gt;Node14</title>
<path fill="none" stroke="midnightblue" d="M411.757,-97C420.453,-97 429.806,-97 438.978,-97"/>
<polygon fill="midnightblue" stroke="midnightblue" points="411.533,-93.5001 401.533,-97 411.533,-100.5 411.533,-93.5001"/>
</g>
<!-- Node22 -->
<g id="node22" class="node"><title>Node22</title>
<g id="a_node22"><a xlink:href="class_om_1_1_default_copyable.html" target="_top" xlink:title="Om::DefaultCopyable\l\&lt; ThisImplementation,\l Atom \&gt;">
<polygon fill="none" stroke="black" points="437.759,-12 437.759,-56 552.241,-56 552.241,-12 437.759,-12"/>
<text text-anchor="start" x="445.759" y="-42" font-family="Helvetica,sans-Serif" font-size="10.00">Om::DefaultCopyable</text>
<text text-anchor="start" x="445.759" y="-30" font-family="Helvetica,sans-Serif" font-size="10.00">&lt; ThisImplementation,</text>
<text text-anchor="middle" x="495" y="-18" font-family="Helvetica,sans-Serif" font-size="10.00"> Atom &gt;</text>
</a>
</g>
</g>
<!-- Node5&#45;&gt;Node22 -->
<g id="edge21" class="edge"><title>Node5&#45;&gt;Node22</title>
<path fill="none" stroke="midnightblue" d="M400.884,-82.0847C415.894,-74.3337 434.533,-64.7084 451.183,-56.1104"/>
<polygon fill="midnightblue" stroke="midnightblue" points="398.881,-79.1798 391.601,-86.878 402.093,-85.3995 398.881,-79.1798"/>
</g>
<!-- Node7 -->
<g id="node7" class="node"><title>Node7</title>
<g id="a_node7"><a xlink:href="class_om_1_1_default_moveable.html" target="_top" xlink:title="Om::DefaultMoveable\l\&lt; Operator, DefaultCopyable\l\&lt; Operator, Atom \&gt; \&gt;">
<polygon fill="none" stroke="black" points="612.487,-138 612.487,-182 755.513,-182 755.513,-138 612.487,-138"/>
<text text-anchor="start" x="620.487" y="-168" font-family="Helvetica,sans-Serif" font-size="10.00">Om::DefaultMoveable</text>
<text text-anchor="start" x="620.487" y="-156" font-family="Helvetica,sans-Serif" font-size="10.00">&lt; Operator, DefaultCopyable</text>
<text text-anchor="middle" x="684" y="-144" font-family="Helvetica,sans-Serif" font-size="10.00">&lt; Operator, Atom &gt; &gt;</text>
</a>
</g>
</g>
<!-- Node6&#45;&gt;Node7 -->
<g id="edge6" class="edge"><title>Node6&#45;&gt;Node7</title>
<path fill="none" stroke="midnightblue" d="M560.946,-156.084C577.481,-156.614 595.333,-157.187 612.146,-157.727"/>
<polygon fill="midnightblue" stroke="midnightblue" points="560.95,-152.582 550.843,-155.76 560.725,-159.579 560.95,-152.582"/>
</g>
<!-- Node8 -->
<g id="node8" class="node"><title>Node8</title>
<g id="a_node8"><a xlink:href="class_om_1_1_default_giveable.html" target="_top" xlink:title="Om::DefaultGiveable\l\&lt; Operator, Atom \&gt;">
<polygon fill="none" stroke="black" points="818.591,-144 818.591,-176 927.409,-176 927.409,-144 818.591,-144"/>
<text text-anchor="start" x="826.591" y="-162" font-family="Helvetica,sans-Serif" font-size="10.00">Om::DefaultGiveable</text>
<text text-anchor="middle" x="873" y="-150" font-family="Helvetica,sans-Serif" font-size="10.00">&lt; Operator, Atom &gt;</text>
</a>
</g>
</g>
<!-- Node7&#45;&gt;Node8 -->
<g id="edge7" class="edge"><title>Node7&#45;&gt;Node8</title>
<path fill="none" stroke="midnightblue" d="M766.038,-160C783.756,-160 802.081,-160 818.407,-160"/>
<polygon fill="midnightblue" stroke="midnightblue" points="765.697,-156.5 755.697,-160 765.697,-163.5 765.697,-156.5"/>
</g>
<!-- Node9 -->
<g id="node9" class="node"><title>Node9</title>
<g id="a_node9"><a xlink:href="class_om_1_1_default_consumer.html" target="_top" xlink:title="Om::DefaultConsumer\l\&lt; Operator, DefaultGiveable\l\&lt; Operator, Atom \&gt; \&gt;">
<polygon fill="none" stroke="black" points="989.878,-138 989.878,-182 1130.12,-182 1130.12,-138 989.878,-138"/>
<text text-anchor="start" x="997.878" y="-168" font-family="Helvetica,sans-Serif" font-size="10.00">Om::DefaultConsumer</text>
<text text-anchor="start" x="997.878" y="-156" font-family="Helvetica,sans-Serif" font-size="10.00">&lt; Operator, DefaultGiveable</text>
<text text-anchor="middle" x="1060" y="-144" font-family="Helvetica,sans-Serif" font-size="10.00">&lt; Operator, Atom &gt; &gt;</text>
</a>
</g>
</g>
<!-- Node8&#45;&gt;Node9 -->
<g id="edge8" class="edge"><title>Node8&#45;&gt;Node9</title>
<path fill="none" stroke="midnightblue" d="M937.75,-160C954.524,-160 972.699,-160 989.747,-160"/>
<polygon fill="midnightblue" stroke="midnightblue" points="937.51,-156.5 927.51,-160 937.51,-163.5 937.51,-156.5"/>
</g>
<!-- Node10 -->
<g id="node10" class="node"><title>Node10</title>
<g id="a_node10"><a xlink:href="class_om_1_1_default_program.html" target="_top" xlink:title="Om::DefaultProgram\l\&lt; Operator, Atom \&gt;">
<polygon fill="none" stroke="black" points="1193.15,-144 1193.15,-176 1300.85,-176 1300.85,-144 1193.15,-144"/>
<text text-anchor="start" x="1201.15" y="-162" font-family="Helvetica,sans-Serif" font-size="10.00">Om::DefaultProgram</text>
<text text-anchor="middle" x="1247" y="-150" font-family="Helvetica,sans-Serif" font-size="10.00">&lt; Operator, Atom &gt;</text>
</a>
</g>
</g>
<!-- Node9&#45;&gt;Node10 -->
<g id="edge9" class="edge"><title>Node9&#45;&gt;Node10</title>
<path fill="none" stroke="midnightblue" d="M1140.52,-160C1158.3,-160 1176.72,-160 1193.11,-160"/>
<polygon fill="midnightblue" stroke="midnightblue" points="1140.15,-156.5 1130.15,-160 1140.15,-163.5 1140.15,-156.5"/>
</g>
<!-- Node11 -->
<g id="node11" class="node"><title>Node11</title>
<g id="a_node11"><a xlink:href="class_om_1_1_default_element.html" target="_top" xlink:title="Om::DefaultElement\l\&lt; Operator, Atom \&gt;">
<polygon fill="none" stroke="black" points="1343.98,-144 1343.98,-176 1450.02,-176 1450.02,-144 1343.98,-144"/>
<text text-anchor="start" x="1351.98" y="-162" font-family="Helvetica,sans-Serif" font-size="10.00">Om::DefaultElement</text>
<text text-anchor="middle" x="1397" y="-150" font-family="Helvetica,sans-Serif" font-size="10.00">&lt; Operator, Atom &gt;</text>
</a>
</g>
</g>
<!-- Node10&#45;&gt;Node11 -->
<g id="edge10" class="edge"><title>Node10&#45;&gt;Node11</title>
<path fill="none" stroke="midnightblue" d="M1311.3,-160C1322.16,-160 1333.33,-160 1343.85,-160"/>
<polygon fill="midnightblue" stroke="midnightblue" points="1311.01,-156.5 1301.01,-160 1311.01,-163.5 1311.01,-156.5"/>
</g>
<!-- Node12 -->
<g id="node12" class="node"><title>Node12</title>
<g id="a_node12"><a xlink:href="class_om_1_1_default_atom.html" target="_top" xlink:title="Om::DefaultAtom\&lt; Operator \&gt;">
<polygon fill="none" stroke="black" points="1514.31,-150 1514.31,-170 1663.69,-170 1663.69,-150 1514.31,-150"/>
<text text-anchor="middle" x="1589" y="-156" font-family="Helvetica,sans-Serif" font-size="10.00">Om::DefaultAtom&lt; Operator &gt;</text>
</a>
</g>
</g>
<!-- Node11&#45;&gt;Node12 -->
<g id="edge11" class="edge"><title>Node11&#45;&gt;Node12</title>
<path fill="none" stroke="midnightblue" d="M1460.62,-160C1477.77,-160 1496.53,-160 1514.24,-160"/>
<polygon fill="midnightblue" stroke="midnightblue" points="1460.17,-156.5 1450.17,-160 1460.17,-163.5 1460.17,-156.5"/>
</g>
<!-- Node13 -->
<g id="node13" class="node"><title>Node13</title>
<g id="a_node13"><a xlink:href="class_om_1_1_operator.html" target="_top" xlink:title="The Operator implementation. ">
<polygon fill="none" stroke="black" points="1726.44,-150 1726.44,-170 1803.56,-170 1803.56,-150 1726.44,-150"/>
<text text-anchor="middle" x="1765" y="-156" font-family="Helvetica,sans-Serif" font-size="10.00">Om::Operator</text>
</a>
</g>
</g>
<!-- Node12&#45;&gt;Node13 -->
<g id="edge12" class="edge"><title>Node12&#45;&gt;Node13</title>
<path fill="none" stroke="midnightblue" d="M1673.92,-160C1692.23,-160 1710.73,-160 1726.15,-160"/>
<polygon fill="midnightblue" stroke="midnightblue" points="1673.79,-156.5 1663.79,-160 1673.79,-163.5 1673.79,-156.5"/>
</g>
<!-- Node15 -->
<g id="node15" class="node"><title>Node15</title>
<g id="a_node15"><a xlink:href="class_om_1_1_default_moveable.html" target="_top" xlink:title="Om::DefaultMoveable\l\&lt; Separator, DefaultCopyable\l\&lt; Separator, Atom \&gt; \&gt;">
<polygon fill="none" stroke="black" points="610.26,-75 610.26,-119 757.74,-119 757.74,-75 610.26,-75"/>
<text text-anchor="start" x="618.26" y="-105" font-family="Helvetica,sans-Serif" font-size="10.00">Om::DefaultMoveable</text>
<text text-anchor="start" x="618.26" y="-93" font-family="Helvetica,sans-Serif" font-size="10.00">&lt; Separator, DefaultCopyable</text>
<text text-anchor="middle" x="684" y="-81" font-family="Helvetica,sans-Serif" font-size="10.00">&lt; Separator, Atom &gt; &gt;</text>
</a>
</g>
</g>
<!-- Node14&#45;&gt;Node15 -->
<g id="edge14" class="edge"><title>Node14&#45;&gt;Node15</title>
<path fill="none" stroke="midnightblue" d="M561.052,-97C576.883,-97 593.918,-97 610.088,-97"/>
<polygon fill="midnightblue" stroke="midnightblue" points="560.843,-93.5001 550.843,-97 560.843,-100.5 560.843,-93.5001"/>
</g>
<!-- Node16 -->
<g id="node16" class="node"><title>Node16</title>
<g id="a_node16"><a xlink:href="class_om_1_1_default_giveable.html" target="_top" xlink:title="Om::DefaultGiveable\l\&lt; Separator, Atom \&gt;">
<polygon fill="none" stroke="black" points="818.591,-81 818.591,-113 927.409,-113 927.409,-81 818.591,-81"/>
<text text-anchor="start" x="826.591" y="-99" font-family="Helvetica,sans-Serif" font-size="10.00">Om::DefaultGiveable</text>
<text text-anchor="middle" x="873" y="-87" font-family="Helvetica,sans-Serif" font-size="10.00">&lt; Separator, Atom &gt;</text>
</a>
</g>
</g>
<!-- Node15&#45;&gt;Node16 -->
<g id="edge15" class="edge"><title>Node15&#45;&gt;Node16</title>
<path fill="none" stroke="midnightblue" d="M767.87,-97C785.039,-97 802.692,-97 818.474,-97"/>
<polygon fill="midnightblue" stroke="midnightblue" points="767.835,-93.5001 757.835,-97 767.835,-100.5 767.835,-93.5001"/>
</g>
<!-- Node17 -->
<g id="node17" class="node"><title>Node17</title>
<g id="a_node17"><a xlink:href="class_om_1_1_default_consumer.html" target="_top" xlink:title="Om::DefaultConsumer\l\&lt; Separator, DefaultGiveable\l\&lt; Separator, Atom \&gt; \&gt;">
<polygon fill="none" stroke="black" points="987.652,-75 987.652,-119 1132.35,-119 1132.35,-75 987.652,-75"/>
<text text-anchor="start" x="995.652" y="-105" font-family="Helvetica,sans-Serif" font-size="10.00">Om::DefaultConsumer</text>
<text text-anchor="start" x="995.652" y="-93" font-family="Helvetica,sans-Serif" font-size="10.00">&lt; Separator, DefaultGiveable</text>
<text text-anchor="middle" x="1060" y="-81" font-family="Helvetica,sans-Serif" font-size="10.00">&lt; Separator, Atom &gt; &gt;</text>
</a>
</g>
</g>
<!-- Node16&#45;&gt;Node17 -->
<g id="edge16" class="edge"><title>Node16&#45;&gt;Node17</title>
<path fill="none" stroke="midnightblue" d="M937.805,-97C953.785,-97 971.032,-97 987.365,-97"/>
<polygon fill="midnightblue" stroke="midnightblue" points="937.51,-93.5001 927.51,-97 937.51,-100.5 937.51,-93.5001"/>
</g>
<!-- Node18 -->
<g id="node18" class="node"><title>Node18</title>
<g id="a_node18"><a xlink:href="class_om_1_1_default_program.html" target="_top" xlink:title="Om::DefaultProgram\l\&lt; Separator, Atom \&gt;">
<polygon fill="none" stroke="black" points="1193.15,-81 1193.15,-113 1300.85,-113 1300.85,-81 1193.15,-81"/>
<text text-anchor="start" x="1201.15" y="-99" font-family="Helvetica,sans-Serif" font-size="10.00">Om::DefaultProgram</text>
<text text-anchor="middle" x="1247" y="-87" font-family="Helvetica,sans-Serif" font-size="10.00">&lt; Separator, Atom &gt;</text>
</a>
</g>
</g>
<!-- Node17&#45;&gt;Node18 -->
<g id="edge17" class="edge"><title>Node17&#45;&gt;Node18</title>
<path fill="none" stroke="midnightblue" d="M1142.53,-97C1159.65,-97 1177.28,-97 1193.03,-97"/>
<polygon fill="midnightblue" stroke="midnightblue" points="1142.53,-93.5001 1132.53,-97 1142.53,-100.5 1142.53,-93.5001"/>
</g>
<!-- Node19 -->
<g id="node19" class="node"><title>Node19</title>
<g id="a_node19"><a xlink:href="class_om_1_1_default_element.html" target="_top" xlink:title="Om::DefaultElement\l\&lt; Separator, Atom \&gt;">
<polygon fill="none" stroke="black" points="1343.98,-81 1343.98,-113 1450.02,-113 1450.02,-81 1343.98,-81"/>
<text text-anchor="start" x="1351.98" y="-99" font-family="Helvetica,sans-Serif" font-size="10.00">Om::DefaultElement</text>
<text text-anchor="middle" x="1397" y="-87" font-family="Helvetica,sans-Serif" font-size="10.00">&lt; Separator, Atom &gt;</text>
</a>
</g>
</g>
<!-- Node18&#45;&gt;Node19 -->
<g id="edge18" class="edge"><title>Node18&#45;&gt;Node19</title>
<path fill="none" stroke="midnightblue" d="M1311.3,-97C1322.16,-97 1333.33,-97 1343.85,-97"/>
<polygon fill="midnightblue" stroke="midnightblue" points="1311.01,-93.5001 1301.01,-97 1311.01,-100.5 1311.01,-93.5001"/>
</g>
<!-- Node20 -->
<g id="node20" class="node"><title>Node20</title>
<g id="a_node20"><a xlink:href="class_om_1_1_default_atom.html" target="_top" xlink:title="Om::DefaultAtom\&lt; Separator \&gt;">
<polygon fill="none" stroke="black" points="1512.08,-87 1512.08,-107 1665.92,-107 1665.92,-87 1512.08,-87"/>
<text text-anchor="middle" x="1589" y="-93" font-family="Helvetica,sans-Serif" font-size="10.00">Om::DefaultAtom&lt; Separator &gt;</text>
</a>
</g>
</g>
<!-- Node19&#45;&gt;Node20 -->
<g id="edge19" class="edge"><title>Node19&#45;&gt;Node20</title>
<path fill="none" stroke="midnightblue" d="M1460.2,-97C1476.67,-97 1494.63,-97 1511.74,-97"/>
<polygon fill="midnightblue" stroke="midnightblue" points="1460.17,-93.5001 1450.17,-97 1460.17,-100.5 1460.17,-93.5001"/>
</g>
<!-- Node21 -->
<g id="node21" class="node"><title>Node21</title>
<g id="a_node21"><a xlink:href="class_om_1_1_separator.html" target="_top" xlink:title="The Separator implementation. ">
<polygon fill="none" stroke="black" points="1724.21,-87 1724.21,-107 1805.79,-107 1805.79,-87 1724.21,-87"/>
<text text-anchor="middle" x="1765" y="-93" font-family="Helvetica,sans-Serif" font-size="10.00">Om::Separator</text>
</a>
</g>
</g>
<!-- Node20&#45;&gt;Node21 -->
<g id="edge20" class="edge"><title>Node20&#45;&gt;Node21</title>
<path fill="none" stroke="midnightblue" d="M1676.39,-97C1693.02,-97 1709.67,-97 1723.93,-97"/>
<polygon fill="midnightblue" stroke="midnightblue" points="1676.07,-93.5001 1666.07,-97 1676.07,-100.5 1676.07,-93.5001"/>
</g>
<!-- Node23 -->
<g id="node23" class="node"><title>Node23</title>
<g id="a_node23"><a xlink:href="class_om_1_1_default_moveable.html" target="_top" xlink:title="Om::DefaultMoveable\l\&lt; ThisImplementation,\l DefaultCopyable\&lt; ThisImplementation,\l Atom \&gt; \&gt;">
<polygon fill="none" stroke="black" points="588.402,-0 588.402,-56 779.598,-56 779.598,-0 588.402,-0"/>
<text text-anchor="start" x="596.402" y="-42" font-family="Helvetica,sans-Serif" font-size="10.00">Om::DefaultMoveable</text>
<text text-anchor="start" x="596.402" y="-30" font-family="Helvetica,sans-Serif" font-size="10.00">&lt; ThisImplementation,</text>
<text text-anchor="start" x="596.402" y="-18" font-family="Helvetica,sans-Serif" font-size="10.00"> DefaultCopyable&lt; ThisImplementation,</text>
<text text-anchor="middle" x="684" y="-6" font-family="Helvetica,sans-Serif" font-size="10.00"> Atom &gt; &gt;</text>
</a>
</g>
</g>
<!-- Node22&#45;&gt;Node23 -->
<g id="edge22" class="edge"><title>Node22&#45;&gt;Node23</title>
<path fill="none" stroke="midnightblue" d="M562.445,-31.8681C570.86,-31.5981 579.595,-31.3178 588.343,-31.0371"/>
<polygon fill="midnightblue" stroke="midnightblue" points="562.242,-28.3727 552.36,-32.1917 562.467,-35.3691 562.242,-28.3727"/>
</g>
<!-- Node24 -->
<g id="node24" class="node"><title>Node24</title>
<g id="a_node24"><a xlink:href="class_om_1_1_default_giveable.html" target="_top" xlink:title="Om::DefaultGiveable\l\&lt; ThisImplementation,\l Atom \&gt;">
<polygon fill="none" stroke="black" points="815.759,-6 815.759,-50 930.241,-50 930.241,-6 815.759,-6"/>
<text text-anchor="start" x="823.759" y="-36" font-family="Helvetica,sans-Serif" font-size="10.00">Om::DefaultGiveable</text>
<text text-anchor="start" x="823.759" y="-24" font-family="Helvetica,sans-Serif" font-size="10.00">&lt; ThisImplementation,</text>
<text text-anchor="middle" x="873" y="-12" font-family="Helvetica,sans-Serif" font-size="10.00"> Atom &gt;</text>
</a>
</g>
</g>
<!-- Node23&#45;&gt;Node24 -->
<g id="edge23" class="edge"><title>Node23&#45;&gt;Node24</title>
<path fill="none" stroke="midnightblue" d="M790.142,-28C798.854,-28 807.43,-28 815.559,-28"/>
<polygon fill="midnightblue" stroke="midnightblue" points="789.87,-24.5001 779.87,-28 789.87,-31.5001 789.87,-24.5001"/>
</g>
<!-- Node25 -->
<g id="node25" class="node"><title>Node25</title>
<g id="a_node25"><a xlink:href="class_om_1_1_default_consumer.html" target="_top" xlink:title="Om::DefaultConsumer\l\&lt; ThisImplementation,\l DefaultGiveable\&lt; ThisImplementation,\l Atom \&gt; \&gt;">
<polygon fill="none" stroke="black" points="965.794,-0 965.794,-56 1154.21,-56 1154.21,-0 965.794,-0"/>
<text text-anchor="start" x="973.794" y="-42" font-family="Helvetica,sans-Serif" font-size="10.00">Om::DefaultConsumer</text>
<text text-anchor="start" x="973.794" y="-30" font-family="Helvetica,sans-Serif" font-size="10.00">&lt; ThisImplementation,</text>
<text text-anchor="start" x="973.794" y="-18" font-family="Helvetica,sans-Serif" font-size="10.00"> DefaultGiveable&lt; ThisImplementation,</text>
<text text-anchor="middle" x="1060" y="-6" font-family="Helvetica,sans-Serif" font-size="10.00"> Atom &gt; &gt;</text>
</a>
</g>
</g>
<!-- Node24&#45;&gt;Node25 -->
<g id="edge24" class="edge"><title>Node24&#45;&gt;Node25</title>
<path fill="none" stroke="midnightblue" d="M940.499,-28C948.726,-28 957.252,-28 965.785,-28"/>
<polygon fill="midnightblue" stroke="midnightblue" points="940.26,-24.5001 930.26,-28 940.26,-31.5001 940.26,-24.5001"/>
</g>
<!-- Node26 -->
<g id="node26" class="node"><title>Node26</title>
<g id="a_node26"><a xlink:href="class_om_1_1_default_program.html" target="_top" xlink:title="Om::DefaultProgram\l\&lt; ThisImplementation,\l Atom \&gt;">
<polygon fill="none" stroke="black" points="1189.76,-6 1189.76,-50 1304.24,-50 1304.24,-6 1189.76,-6"/>
<text text-anchor="start" x="1197.76" y="-36" font-family="Helvetica,sans-Serif" font-size="10.00">Om::DefaultProgram</text>
<text text-anchor="start" x="1197.76" y="-24" font-family="Helvetica,sans-Serif" font-size="10.00">&lt; ThisImplementation,</text>
<text text-anchor="middle" x="1247" y="-12" font-family="Helvetica,sans-Serif" font-size="10.00"> Atom &gt;</text>
</a>
</g>
</g>
<!-- Node25&#45;&gt;Node26 -->
<g id="edge25" class="edge"><title>Node25&#45;&gt;Node26</title>
<path fill="none" stroke="midnightblue" d="M1164.44,-28C1173.04,-28 1181.51,-28 1189.54,-28"/>
<polygon fill="midnightblue" stroke="midnightblue" points="1164.31,-24.5001 1154.31,-28 1164.31,-31.5001 1164.31,-24.5001"/>
</g>
<!-- Node27 -->
<g id="node27" class="node"><title>Node27</title>
<g id="a_node27"><a xlink:href="class_om_1_1_default_element.html" target="_top" xlink:title="Om::DefaultElement\l\&lt; ThisImplementation,\l Atom \&gt;">
<polygon fill="none" stroke="black" points="1339.76,-6 1339.76,-50 1454.24,-50 1454.24,-6 1339.76,-6"/>
<text text-anchor="start" x="1347.76" y="-36" font-family="Helvetica,sans-Serif" font-size="10.00">Om::DefaultElement</text>
<text text-anchor="start" x="1347.76" y="-24" font-family="Helvetica,sans-Serif" font-size="10.00">&lt; ThisImplementation,</text>
<text text-anchor="middle" x="1397" y="-12" font-family="Helvetica,sans-Serif" font-size="10.00"> Atom &gt;</text>
</a>
</g>
</g>
<!-- Node26&#45;&gt;Node27 -->
<g id="edge26" class="edge"><title>Node26&#45;&gt;Node27</title>
<path fill="none" stroke="midnightblue" d="M1314.41,-28C1322.72,-28 1331.15,-28 1339.29,-28"/>
<polygon fill="midnightblue" stroke="midnightblue" points="1314.37,-24.5001 1304.37,-28 1314.37,-31.5001 1314.37,-24.5001"/>
</g>
<!-- Node28 -->
<g id="node28" class="node"><title>Node28</title>
<g id="a_node28"><a xlink:href="class_om_1_1_default_atom.html" target="_top" xlink:title="A partial implementation of Atom. ">
<polygon fill="none" stroke="black" points="1490.49,-18 1490.49,-38 1687.51,-38 1687.51,-18 1490.49,-18"/>
<text text-anchor="middle" x="1589" y="-24" font-family="Helvetica,sans-Serif" font-size="10.00">Om::DefaultAtom&lt; ThisImplementation &gt;</text>
</a>
</g>
</g>
<!-- Node27&#45;&gt;Node28 -->
<g id="edge27" class="edge"><title>Node27&#45;&gt;Node28</title>
<path fill="none" stroke="midnightblue" d="M1464.56,-28C1472.96,-28 1481.69,-28 1490.45,-28"/>
<polygon fill="midnightblue" stroke="midnightblue" points="1464.49,-24.5001 1454.49,-28 1464.49,-31.5001 1464.49,-24.5001"/>
</g>
</g>
</svg>
