<?xml version="1.0" encoding="UTF-8" standalone="no"?>
<!DOCTYPE svg PUBLIC "-//W3C//DTD SVG 1.1//EN"
 "http://www.w3.org/Graphics/SVG/1.1/DTD/svg11.dtd">
<!-- Generated by graphviz version 2.30.1 (20130221.2233)
 -->
<!-- Title: Om::Separator Pages: 1 -->
<svg width="404pt" height="822pt"
 viewBox="0.00 0.00 404.00 822.00" xmlns="http://www.w3.org/2000/svg" xmlns:xlink="http://www.w3.org/1999/xlink">
<g id="graph0" class="graph" transform="scale(1 1) rotate(0) translate(4 818)">
<title>Om::Separator</title>
<!-- Node1 -->
<g id="node1" class="node"><title>Node1</title>
<polygon fill="#bfbfbf" stroke="black" points="215.209,-1 215.209,-21 296.791,-21 296.791,-1 215.209,-1"/>
<text text-anchor="middle" x="256" y="-7" font-family="Helvetica,sans-Serif" font-size="10.00">Om::Separator</text>
</g>
<!-- Node2 -->
<g id="node2" class="node"><title>Node2</title>
<g id="a_node2"><a xlink:href="class_om_1_1_default_atom.html" target="_top" xlink:title="Om::DefaultAtom\&lt; Separator \&gt;">
<polygon fill="none" stroke="black" points="179.079,-59 179.079,-79 332.921,-79 332.921,-59 179.079,-59"/>
<text text-anchor="middle" x="256" y="-65" font-family="Helvetica,sans-Serif" font-size="10.00">Om::DefaultAtom&lt; Separator &gt;</text>
</a>
</g>
</g>
<!-- Node2&#45;&gt;Node1 -->
<g id="edge1" class="edge"><title>Node2&#45;&gt;Node1</title>
<path fill="none" stroke="midnightblue" d="M256,-48.7065C256,-39.3384 256,-28.5262 256,-21.0752"/>
<polygon fill="midnightblue" stroke="midnightblue" points="252.5,-48.7527 256,-58.7527 259.5,-48.7528 252.5,-48.7527"/>
</g>
<!-- Node3 -->
<g id="node3" class="node"><title>Node3</title>
<g id="a_node3"><a xlink:href="class_om_1_1_default_element.html" target="_top" xlink:title="Om::DefaultElement\l\&lt; Separator, Atom \&gt;">
<polygon fill="none" stroke="black" points="202.983,-117 202.983,-149 309.017,-149 309.017,-117 202.983,-117"/>
<text text-anchor="start" x="210.983" y="-135" font-family="Helvetica,sans-Serif" font-size="10.00">Om::DefaultElement</text>
<text text-anchor="middle" x="256" y="-123" font-family="Helvetica,sans-Serif" font-size="10.00">&lt; Separator, Atom &gt;</text>
</a>
</g>
</g>
<!-- Node3&#45;&gt;Node2 -->
<g id="edge2" class="edge"><title>Node3&#45;&gt;Node2</title>
<path fill="none" stroke="midnightblue" d="M256,-106.922C256,-97.1719 256,-86.6099 256,-79.2904"/>
<polygon fill="midnightblue" stroke="midnightblue" points="252.5,-106.991 256,-116.992 259.5,-106.992 252.5,-106.991"/>
</g>
<!-- Node4 -->
<g id="node4" class="node"><title>Node4</title>
<g id="a_node4"><a xlink:href="class_om_1_1_default_program.html" target="_top" xlink:title="Om::DefaultProgram\l\&lt; Separator, Atom \&gt;">
<polygon fill="none" stroke="black" points="202.153,-187 202.153,-219 309.847,-219 309.847,-187 202.153,-187"/>
<text text-anchor="start" x="210.153" y="-205" font-family="Helvetica,sans-Serif" font-size="10.00">Om::DefaultProgram</text>
<text text-anchor="middle" x="256" y="-193" font-family="Helvetica,sans-Serif" font-size="10.00">&lt; Separator, Atom &gt;</text>
</a>
</g>
</g>
<!-- Node4&#45;&gt;Node3 -->
<g id="edge3" class="edge"><title>Node4&#45;&gt;Node3</title>
<path fill="none" stroke="midnightblue" d="M256,-176.617C256,-167.338 256,-157.141 256,-149.049"/>
<polygon fill="midnightblue" stroke="midnightblue" points="252.5,-176.909 256,-186.909 259.5,-176.909 252.5,-176.909"/>
</g>
<!-- Node5 -->
<g id="node5" class="node"><title>Node5</title>
<g id="a_node5"><a xlink:href="class_om_1_1_default_queue.html" target="_top" xlink:title="Om::DefaultQueue\&lt; Separator,\l DefaultGiveable\&lt; Separator,\l Atom \&gt; \&gt;">
<polygon fill="none" stroke="black" points="100.93,-257 100.93,-301 255.07,-301 255.07,-257 100.93,-257"/>
<text text-anchor="start" x="108.93" y="-287" font-family="Helvetica,sans-Serif" font-size="10.00">Om::DefaultQueue&lt; Separator,</text>
<text text-anchor="start" x="108.93" y="-275" font-family="Helvetica,sans-Serif" font-size="10.00"> DefaultGiveable&lt; Separator,</text>
<text text-anchor="middle" x="178" y="-263" font-family="Helvetica,sans-Serif" font-size="10.00"> Atom &gt; &gt;</text>
</a>
</g>
</g>
<!-- Node5&#45;&gt;Node4 -->
<g id="edge4" class="edge"><title>Node5&#45;&gt;Node4</title>
<path fill="none" stroke="midnightblue" d="M207.498,-250.015C218.433,-239.64 230.429,-228.259 239.755,-219.412"/>
<polygon fill="midnightblue" stroke="midnightblue" points="204.989,-247.571 200.143,-256.993 209.807,-252.649 204.989,-247.571"/>
</g>
<!-- Node6 -->
<g id="node6" class="node"><title>Node6</title>
<g id="a_node6"><a xlink:href="class_om_1_1_default_giveable.html" target="_top" xlink:title="Om::DefaultGiveable\l\&lt; Separator, Atom \&gt;">
<polygon fill="none" stroke="black" points="123.591,-339 123.591,-371 232.409,-371 232.409,-339 123.591,-339"/>
<text text-anchor="start" x="131.591" y="-357" font-family="Helvetica,sans-Serif" font-size="10.00">Om::DefaultGiveable</text>
<text text-anchor="middle" x="178" y="-345" font-family="Helvetica,sans-Serif" font-size="10.00">&lt; Separator, Atom &gt;</text>
</a>
</g>
</g>
<!-- Node6&#45;&gt;Node5 -->
<g id="edge5" class="edge"><title>Node6&#45;&gt;Node5</title>
<path fill="none" stroke="midnightblue" d="M178,-328.467C178,-319.577 178,-309.706 178,-301.205"/>
<polygon fill="midnightblue" stroke="midnightblue" points="174.5,-328.667 178,-338.667 181.5,-328.667 174.5,-328.667"/>
</g>
<!-- Node7 -->
<g id="node7" class="node"><title>Node7</title>
<g id="a_node7"><a xlink:href="class_om_1_1_default_moveable.html" target="_top" xlink:title="Om::DefaultMoveable\l\&lt; Separator, DefaultCopyable\l\&lt; Separator, Atom \&gt; \&gt;">
<polygon fill="none" stroke="black" points="104.26,-409 104.26,-453 251.74,-453 251.74,-409 104.26,-409"/>
<text text-anchor="start" x="112.26" y="-439" font-family="Helvetica,sans-Serif" font-size="10.00">Om::DefaultMoveable</text>
<text text-anchor="start" x="112.26" y="-427" font-family="Helvetica,sans-Serif" font-size="10.00">&lt; Separator, DefaultCopyable</text>
<text text-anchor="middle" x="178" y="-415" font-family="Helvetica,sans-Serif" font-size="10.00">&lt; Separator, Atom &gt; &gt;</text>
</a>
</g>
</g>
<!-- Node7&#45;&gt;Node6 -->
<g id="edge6" class="edge"><title>Node7&#45;&gt;Node6</title>
<path fill="none" stroke="midnightblue" d="M178,-398.693C178,-389.261 178,-379.324 178,-371.412"/>
<polygon fill="midnightblue" stroke="midnightblue" points="174.5,-398.992 178,-408.993 181.5,-398.993 174.5,-398.992"/>
</g>
<!-- Node8 -->
<g id="node8" class="node"><title>Node8</title>
<g id="a_node8"><a xlink:href="class_om_1_1_default_copyable.html" target="_top" xlink:title="Om::DefaultCopyable\l\&lt; Separator, Atom \&gt;">
<polygon fill="none" stroke="black" points="122.2,-491 122.2,-523 233.8,-523 233.8,-491 122.2,-491"/>
<text text-anchor="start" x="130.2" y="-509" font-family="Helvetica,sans-Serif" font-size="10.00">Om::DefaultCopyable</text>
<text text-anchor="middle" x="178" y="-497" font-family="Helvetica,sans-Serif" font-size="10.00">&lt; Separator, Atom &gt;</text>
</a>
</g>
</g>
<!-- Node8&#45;&gt;Node7 -->
<g id="edge7" class="edge"><title>Node8&#45;&gt;Node7</title>
<path fill="none" stroke="midnightblue" d="M178,-480.467C178,-471.577 178,-461.706 178,-453.205"/>
<polygon fill="midnightblue" stroke="midnightblue" points="174.5,-480.667 178,-490.667 181.5,-480.667 174.5,-480.667"/>
</g>
<!-- Node9 -->
<g id="node9" class="node"><title>Node9</title>
<g id="a_node9"><a xlink:href="class_om_1_1_atom.html" target="_top" xlink:title="A leaf Element defined by a string.">
<polygon fill="none" stroke="black" points="147.498,-561 147.498,-581 208.502,-581 208.502,-561 147.498,-561"/>
<text text-anchor="middle" x="178" y="-567" font-family="Helvetica,sans-Serif" font-size="10.00">Om::Atom</text>
</a>
</g>
</g>
<!-- Node9&#45;&gt;Node8 -->
<g id="edge8" class="edge"><title>Node9&#45;&gt;Node8</title>
<path fill="none" stroke="midnightblue" d="M178,-550.775C178,-541.986 178,-531.715 178,-523.44"/>
<polygon fill="midnightblue" stroke="midnightblue" points="174.5,-550.852 178,-560.852 181.5,-550.852 174.5,-550.852"/>
</g>
<!-- Node10 -->
<g id="node10" class="node"><title>Node10</title>
<g id="a_node10"><a xlink:href="class_om_1_1_element.html" target="_top" xlink:title="An &quot;elemental&quot; Program comprised of a single item (or empty).">
<polygon fill="none" stroke="black" points="140.825,-619 140.825,-639 215.175,-639 215.175,-619 140.825,-619"/>
<text text-anchor="middle" x="178" y="-625" font-family="Helvetica,sans-Serif" font-size="10.00">Om::Element</text>
</a>
</g>
</g>
<!-- Node10&#45;&gt;Node9 -->
<g id="edge9" class="edge"><title>Node10&#45;&gt;Node9</title>
<path fill="none" stroke="midnightblue" d="M178,-608.707C178,-599.338 178,-588.526 178,-581.075"/>
<polygon fill="midnightblue" stroke="midnightblue" points="174.5,-608.753 178,-618.753 181.5,-608.753 174.5,-608.753"/>
</g>
<!-- Node11 -->
<g id="node11" class="node"><title>Node11</title>
<g id="a_node11"><a xlink:href="class_om_1_1_program.html" target="_top" xlink:title="The Program implementation.">
<polygon fill="none" stroke="black" points="139.995,-677 139.995,-697 216.005,-697 216.005,-677 139.995,-677"/>
<text text-anchor="middle" x="178" y="-683" font-family="Helvetica,sans-Serif" font-size="10.00">Om::Program</text>
</a>
</g>
</g>
<!-- Node11&#45;&gt;Node10 -->
<g id="edge10" class="edge"><title>Node11&#45;&gt;Node10</title>
<path fill="none" stroke="midnightblue" d="M178,-666.707C178,-657.338 178,-646.526 178,-639.075"/>
<polygon fill="midnightblue" stroke="midnightblue" points="174.5,-666.753 178,-676.753 181.5,-666.753 174.5,-666.753"/>
</g>
<!-- Node12 -->
<g id="node12" class="node"><title>Node12</title>
<g id="a_node12"><a xlink:href="class_om_1_1_giveable.html" target="_top" xlink:title="An object that can be copied or moved via Give.">
<polygon fill="none" stroke="black" points="49.4336,-735 49.4336,-755 126.566,-755 126.566,-735 49.4336,-735"/>
<text text-anchor="middle" x="88" y="-741" font-family="Helvetica,sans-Serif" font-size="10.00">Om::Giveable</text>
</a>
</g>
</g>
<!-- Node12&#45;&gt;Node11 -->
<g id="edge11" class="edge"><title>Node12&#45;&gt;Node11</title>
<path fill="none" stroke="midnightblue" d="M111.403,-729.438C127.856,-719.201 149.357,-705.822 163.415,-697.075"/>
<polygon fill="midnightblue" stroke="midnightblue" points="109.503,-726.498 102.862,-734.753 113.201,-732.441 109.503,-726.498"/>
</g>
<!-- Node13 -->
<g id="node13" class="node"><title>Node13</title>
<g id="a_node13"><a xlink:href="class_om_1_1_copyable.html" target="_top" xlink:title="An object that can be passed to Copy to be copied.">
<polygon fill="none" stroke="black" points="-0.958008,-793 -0.958008,-813 78.958,-813 78.958,-793 -0.958008,-793"/>
<text text-anchor="middle" x="39" y="-799" font-family="Helvetica,sans-Serif" font-size="10.00">Om::Copyable</text>
</a>
</g>
</g>
<!-- Node13&#45;&gt;Node12 -->
<g id="edge12" class="edge"><title>Node13&#45;&gt;Node12</title>
<path fill="none" stroke="midnightblue" d="M53.7748,-785.114C62.4114,-775.244 72.9726,-763.174 80.0592,-755.075"/>
<polygon fill="midnightblue" stroke="midnightblue" points="51.0424,-782.922 47.0914,-792.753 56.3105,-787.532 51.0424,-782.922"/>
</g>
<!-- Node14 -->
<g id="node14" class="node"><title>Node14</title>
<g id="a_node14"><a xlink:href="class_om_1_1_moveable.html" target="_top" xlink:title="An object that can be passed to Move to be moved.">
<polygon fill="none" stroke="black" points="96.4878,-793 96.4878,-813 177.512,-813 177.512,-793 96.4878,-793"/>
<text text-anchor="middle" x="137" y="-799" font-family="Helvetica,sans-Serif" font-size="10.00">Om::Moveable</text>
</a>
</g>
</g>
<!-- Node14&#45;&gt;Node12 -->
<g id="edge13" class="edge"><title>Node14&#45;&gt;Node12</title>
<path fill="none" stroke="midnightblue" d="M122.225,-785.114C113.589,-775.244 103.027,-763.174 95.9408,-755.075"/>
<polygon fill="midnightblue" stroke="midnightblue" points="119.69,-787.532 128.909,-792.753 124.958,-782.922 119.69,-787.532"/>
</g>
<!-- Node15 -->
<g id="node15" class="node"><title>Node15</title>
<g id="a_node15"><a xlink:href="class_om_1_1_queue.html" target="_top" xlink:title="A first&#45;in, first&#45;out Element processor.">
<polygon fill="none" stroke="black" points="144.155,-735 144.155,-755 211.845,-755 211.845,-735 144.155,-735"/>
<text text-anchor="middle" x="178" y="-741" font-family="Helvetica,sans-Serif" font-size="10.00">Om::Queue</text>
</a>
</g>
</g>
<!-- Node15&#45;&gt;Node11 -->
<g id="edge14" class="edge"><title>Node15&#45;&gt;Node11</title>
<path fill="none" stroke="midnightblue" d="M178,-724.707C178,-715.338 178,-704.526 178,-697.075"/>
<polygon fill="midnightblue" stroke="midnightblue" points="174.5,-724.753 178,-734.753 181.5,-724.753 174.5,-724.753"/>
</g>
<!-- Node16 -->
<g id="node16" class="node"><title>Node16</title>
<g id="a_node16"><a xlink:href="class_om_1_1_shareable.html" target="_top" xlink:title="Om::Shareable\&lt;\&gt;">
<polygon fill="none" stroke="black" points="229.532,-735 229.532,-755 324.468,-755 324.468,-735 229.532,-735"/>
<text text-anchor="middle" x="277" y="-741" font-family="Helvetica,sans-Serif" font-size="10.00">Om::Shareable&lt;&gt;</text>
</a>
</g>
</g>
<!-- Node16&#45;&gt;Node11 -->
<g id="edge15" class="edge"><title>Node16&#45;&gt;Node11</title>
<path fill="none" stroke="midnightblue" d="M251.758,-729.722C233.597,-719.449 209.65,-705.903 194.044,-697.075"/>
<polygon fill="midnightblue" stroke="midnightblue" points="250.225,-732.876 260.652,-734.753 253.671,-726.783 250.225,-732.876"/>
</g>
<!-- Node17 -->
<g id="node17" class="node"><title>Node17</title>
<g id="a_node17"><a xlink:href="class_om_1_1_taker.html" target="_top" xlink:title="Om::Taker\&lt; Separator \&gt;">
<polygon fill="none" stroke="black" points="273.365,-269 273.365,-289 396.635,-289 396.635,-269 273.365,-269"/>
<text text-anchor="middle" x="335" y="-275" font-family="Helvetica,sans-Serif" font-size="10.00">Om::Taker&lt; Separator &gt;</text>
</a>
</g>
</g>
<!-- Node17&#45;&gt;Node4 -->
<g id="edge16" class="edge"><title>Node17&#45;&gt;Node4</title>
<path fill="none" stroke="midnightblue" d="M318,-262.076C304.389,-249.326 285.43,-231.567 272.07,-219.053"/>
<polygon fill="midnightblue" stroke="midnightblue" points="315.622,-264.644 325.313,-268.926 320.407,-259.535 315.622,-264.644"/>
</g>
</g>
</svg>
