<?xml version="1.0" encoding="UTF-8" standalone="no"?>
<!DOCTYPE svg PUBLIC "-//W3C//DTD SVG 1.1//EN"
 "http://www.w3.org/Graphics/SVG/1.1/DTD/svg11.dtd">
<!-- Generated by graphviz version 2.34.0 (20130907.0228)
 -->
<!-- Title: Om::Evaluator Pages: 1 -->
<svg width="390pt" height="172pt"
 viewBox="0.00 0.00 390.00 172.00" xmlns="http://www.w3.org/2000/svg" xmlns:xlink="http://www.w3.org/1999/xlink">
<g id="graph0" class="graph" transform="scale(1 1) rotate(0) translate(4 168)">
<title>Om::Evaluator</title>
<!-- Node1 -->
<g id="node1" class="node"><title>Node1</title>
<polygon fill="#bfbfbf" stroke="black" points="174.044,-1 174.044,-21 253.956,-21 253.956,-1 174.044,-1"/>
<text text-anchor="middle" x="214" y="-7" font-family="Helvetica,sans-Serif" font-size="10.00">Om::Evaluator</text>
</g>
<!-- Node2 -->
<g id="node2" class="node"><title>Node2</title>
<g id="a_node2"><a xlink:href="class_om_1_1_default_consumer.html" target="_top" xlink:title="Om::DefaultConsumer\l\&lt; Evaluator \&gt;">
<polygon fill="none" stroke="black" points="70.2612,-71 70.2612,-103 185.739,-103 185.739,-71 70.2612,-71"/>
<text text-anchor="start" x="78.2612" y="-89" font-family="Helvetica,sans-Serif" font-size="10.00">Om::DefaultConsumer</text>
<text text-anchor="middle" x="128" y="-77" font-family="Helvetica,sans-Serif" font-size="10.00">&lt; Evaluator &gt;</text>
</a>
</g>
</g>
<!-- Node2&#45;&gt;Node1 -->
<g id="edge1" class="edge"><title>Node2&#45;&gt;Node1</title>
<path fill="none" stroke="midnightblue" d="M153.57,-63.9983C170.15,-49.7313 190.893,-31.8829 203.26,-21.2412"/>
<polygon fill="midnightblue" stroke="midnightblue" points="151.117,-61.4917 145.819,-70.6672 155.682,-66.7977 151.117,-61.4917"/>
</g>
<!-- Node3 -->
<g id="node3" class="node"><title>Node3</title>
<g id="a_node3"><a xlink:href="class_om_1_1_consumer.html" target="_top" xlink:title="An Element taker; takes at the back. ">
<polygon fill="none" stroke="black" points="-0.896484,-143 -0.896484,-163 82.8965,-163 82.8965,-143 -0.896484,-143"/>
<text text-anchor="middle" x="41" y="-149" font-family="Helvetica,sans-Serif" font-size="10.00">Om::Consumer</text>
</a>
</g>
</g>
<!-- Node3&#45;&gt;Node1 -->
<g id="edge4" class="edge"><title>Node3&#45;&gt;Node1</title>
<path fill="none" stroke="#9a32cd" stroke-dasharray="5,2" d="M26.144,-134.492C13.0234,-116.796 -1.93814,-89.3708 12.6406,-70 32.0012,-44.2756 120.848,-26.3968 173.84,-17.8119"/>
<polygon fill="#9a32cd" stroke="#9a32cd" points="23.7293,-137.082 32.6712,-142.764 29.2247,-132.746 23.7293,-137.082"/>
<text text-anchor="middle" x="37.1797" y="-83" font-family="Helvetica,sans-Serif" font-size="10.00"> thisOutput</text>
</g>
<!-- Node3&#45;&gt;Node2 -->
<g id="edge2" class="edge"><title>Node3&#45;&gt;Node2</title>
<path fill="none" stroke="midnightblue" d="M61.8523,-136.66C75.6795,-126.489 93.7404,-113.202 107.496,-103.084"/>
<polygon fill="midnightblue" stroke="midnightblue" points="59.4462,-134.085 53.465,-142.83 63.5942,-139.724 59.4462,-134.085"/>
</g>
<!-- Node4 -->
<g id="node4" class="node"><title>Node4</title>
<g id="a_node4"><a xlink:href="class_om_1_1_producer.html" target="_top" xlink:title="An Element giver; gives from the front. ">
<polygon fill="none" stroke="black" points="203.879,-77 203.879,-97 282.121,-97 282.121,-77 203.879,-77"/>
<text text-anchor="middle" x="243" y="-83" font-family="Helvetica,sans-Serif" font-size="10.00">Om::Producer</text>
</a>
</g>
</g>
<!-- Node4&#45;&gt;Node1 -->
<g id="edge3" class="edge"><title>Node4&#45;&gt;Node1</title>
<path fill="none" stroke="midnightblue" d="M235.671,-67.2975C229.89,-52.5478 222.078,-32.6134 217.585,-21.1481"/>
<polygon fill="midnightblue" stroke="midnightblue" points="232.537,-68.8926 239.444,-76.9261 239.054,-66.3385 232.537,-68.8926"/>
</g>
<!-- Node5 -->
<g id="node5" class="node"><title>Node5</title>
<g id="a_node5"><a xlink:href="class_om_1_1_translator.html" target="_top" xlink:title="An Operator lookup for use by an Evaluator. ">
<polygon fill="none" stroke="black" points="299.843,-77 299.843,-97 382.157,-97 382.157,-77 299.843,-77"/>
<text text-anchor="middle" x="341" y="-83" font-family="Helvetica,sans-Serif" font-size="10.00">Om::Translator</text>
</a>
</g>
</g>
<!-- Node5&#45;&gt;Node1 -->
<g id="edge5" class="edge"><title>Node5&#45;&gt;Node1</title>
<path fill="none" stroke="#9a32cd" stroke-dasharray="5,2" d="M316.68,-71.8292C291.062,-56.9022 251.478,-33.8378 229.7,-21.1481"/>
<polygon fill="#9a32cd" stroke="#9a32cd" points="315.025,-74.9157 325.427,-76.9261 318.549,-68.8675 315.025,-74.9157"/>
<text text-anchor="middle" x="313.494" y="-42" font-family="Helvetica,sans-Serif" font-size="10.00"> thisTranslator</text>
</g>
</g>
</svg>
