<?xml version="1.0" encoding="UTF-8" standalone="no"?>
<!DOCTYPE svg PUBLIC "-//W3C//DTD SVG 1.1//EN"
 "http://www.w3.org/Graphics/SVG/1.1/DTD/svg11.dtd">
<!-- Generated by graphviz version 2.36.0 (20140111.2315)
 -->
<!-- Title: Om::Form::OperandRange&lt; Operand const &#160;&gt; Pages: 1 -->
<svg width="916pt" height="93pt"
 viewBox="0.00 0.00 916.00 93.00" xmlns="http://www.w3.org/2000/svg" xmlns:xlink="http://www.w3.org/1999/xlink">
<g id="graph0" class="graph" transform="scale(1 1) rotate(0) translate(4 89)">
<title>Om::Form::OperandRange&lt; Operand const &#160;&gt;</title>
<!-- Node1 -->
<g id="node1" class="node"><title>Node1</title>
<polygon fill="#bfbfbf" stroke="black" points="772.532,-31 772.532,-59 907.468,-59 907.468,-31 772.532,-31"/>
<text text-anchor="start" x="780.532" y="-47" font-family="Helvetica,sans-Serif" font-size="10.00">Om::Form::OperandRange</text>
<text text-anchor="middle" x="840" y="-37" font-family="Helvetica,sans-Serif" font-size="10.00">&lt; Operand const &gt;</text>
</g>
<!-- Node2 -->
<g id="node2" class="node"><title>Node2</title>
<g id="a_node2"><a xlink:href="class_om_1_1_source_1_1_collection_front_source.html" target="_top" xlink:title="Om::Source::CollectionFront\lSource\&lt; Operand const, OperandDeque\l::const_iterator \&gt;">
<polygon fill="none" stroke="black" points="540.081,-26 540.081,-64 735.919,-64 735.919,-26 540.081,-26"/>
<text text-anchor="start" x="548.081" y="-52" font-family="Helvetica,sans-Serif" font-size="10.00">Om::Source::CollectionFront</text>
<text text-anchor="start" x="548.081" y="-42" font-family="Helvetica,sans-Serif" font-size="10.00">Source&lt; Operand const, OperandDeque</text>
<text text-anchor="middle" x="638" y="-32" font-family="Helvetica,sans-Serif" font-size="10.00">::const_iterator &gt;</text>
</a>
</g>
</g>
<!-- Node2&#45;&gt;Node1 -->
<g id="edge1" class="edge"><title>Node2&#45;&gt;Node1</title>
<path fill="none" stroke="midnightblue" d="M746.192,-45C755.142,-45 764.014,-45 772.52,-45"/>
<polygon fill="midnightblue" stroke="midnightblue" points="746.071,-41.5001 736.071,-45 746.071,-48.5001 746.071,-41.5001"/>
</g>
<!-- Node3 -->
<g id="node3" class="node"><title>Node3</title>
<g id="a_node3"><a xlink:href="class_om_1_1_source_1_1_iterator_pair_source.html" target="_top" xlink:title="Om::Source::IteratorPair\lSource\&lt; Operand const\l , OperandDeque::const\l_iterator \&gt;">
<polygon fill="none" stroke="black" points="379.815,-21 379.815,-69 504.185,-69 504.185,-21 379.815,-21"/>
<text text-anchor="start" x="387.815" y="-57" font-family="Helvetica,sans-Serif" font-size="10.00">Om::Source::IteratorPair</text>
<text text-anchor="start" x="387.815" y="-47" font-family="Helvetica,sans-Serif" font-size="10.00">Source&lt; Operand const</text>
<text text-anchor="start" x="387.815" y="-37" font-family="Helvetica,sans-Serif" font-size="10.00"> , OperandDeque::const</text>
<text text-anchor="middle" x="442" y="-27" font-family="Helvetica,sans-Serif" font-size="10.00">_iterator &gt;</text>
</a>
</g>
</g>
<!-- Node3&#45;&gt;Node2 -->
<g id="edge2" class="edge"><title>Node3&#45;&gt;Node2</title>
<path fill="none" stroke="midnightblue" d="M514.646,-45C522.875,-45 531.366,-45 539.858,-45"/>
<polygon fill="midnightblue" stroke="midnightblue" points="514.383,-41.5001 504.383,-45 514.383,-48.5001 514.383,-41.5001"/>
</g>
<!-- Node4 -->
<g id="node4" class="node"><title>Node4</title>
<g id="a_node4"><a xlink:href="class_om_1_1_source_1_1_default_source.html" target="_top" xlink:title="Om::Source::DefaultSource\l\&lt; Operand const , IteratorPair\lSource\&lt; Operand const , OperandDeque\l::const_iterator \&gt; \&gt;">
<polygon fill="none" stroke="black" points="144.691,-21 144.691,-69 343.309,-69 343.309,-21 144.691,-21"/>
<text text-anchor="start" x="152.691" y="-57" font-family="Helvetica,sans-Serif" font-size="10.00">Om::Source::DefaultSource</text>
<text text-anchor="start" x="152.691" y="-47" font-family="Helvetica,sans-Serif" font-size="10.00">&lt; Operand const , IteratorPair</text>
<text text-anchor="start" x="152.691" y="-37" font-family="Helvetica,sans-Serif" font-size="10.00">Source&lt; Operand const , OperandDeque</text>
<text text-anchor="middle" x="244" y="-27" font-family="Helvetica,sans-Serif" font-size="10.00">::const_iterator &gt; &gt;</text>
</a>
</g>
</g>
<!-- Node4&#45;&gt;Node3 -->
<g id="edge3" class="edge"><title>Node4&#45;&gt;Node3</title>
<path fill="none" stroke="midnightblue" d="M353.643,-45C362.531,-45 371.301,-45 379.655,-45"/>
<polygon fill="midnightblue" stroke="midnightblue" points="353.574,-41.5001 343.574,-45 353.574,-48.5001 353.574,-41.5001"/>
</g>
<!-- Node5 -->
<g id="node5" class="node"><title>Node5</title>
<g id="a_node5"><a xlink:href="class_om_1_1_source_1_1_source.html" target="_top" xlink:title="Om::Source::Source\l\&lt; Operand const &#160;\&gt;">
<polygon fill="none" stroke="black" points="0.70459,-57 0.70459,-85 107.295,-85 107.295,-57 0.70459,-57"/>
<text text-anchor="start" x="8.70459" y="-73" font-family="Helvetica,sans-Serif" font-size="10.00">Om::Source::Source</text>
<text text-anchor="middle" x="54" y="-63" font-family="Helvetica,sans-Serif" font-size="10.00">&lt; Operand const &gt;</text>
</a>
</g>
</g>
<!-- Node5&#45;&gt;Node4 -->
<g id="edge4" class="edge"><title>Node5&#45;&gt;Node4</title>
<path fill="none" stroke="midnightblue" d="M117.409,-62.369C126.141,-61.1614 135.284,-59.8969 144.486,-58.6243"/>
<polygon fill="midnightblue" stroke="midnightblue" points="116.795,-58.9205 107.368,-63.7576 117.754,-65.8545 116.795,-58.9205"/>
</g>
<!-- Node6 -->
<g id="node6" class="node"><title>Node6</title>
<polygon fill="none" stroke="#bfbfbf" points="2.9165,-0 2.9165,-38 105.083,-38 105.083,-0 2.9165,-0"/>
<text text-anchor="start" x="10.9165" y="-26" font-family="Helvetica,sans-Serif" font-size="10.00">std::iterator&lt; std</text>
<text text-anchor="start" x="10.9165" y="-16" font-family="Helvetica,sans-Serif" font-size="10.00">::input_iterator_tag,</text>
<text text-anchor="middle" x="54" y="-6" font-family="Helvetica,sans-Serif" font-size="10.00"> Operand const &gt;</text>
</g>
<!-- Node6&#45;&gt;Node4 -->
<g id="edge5" class="edge"><title>Node6&#45;&gt;Node4</title>
<path fill="none" stroke="midnightblue" d="M115.332,-27.3438C124.71,-28.6407 134.602,-30.0088 144.561,-31.3861"/>
<polygon fill="midnightblue" stroke="midnightblue" points="115.766,-23.8705 105.381,-25.9675 114.807,-30.8046 115.766,-23.8705"/>
</g>
</g>
</svg>
