<?xml version="1.0" encoding="UTF-8" standalone="no"?>
<!DOCTYPE svg PUBLIC "-//W3C//DTD SVG 1.1//EN"
 "http://www.w3.org/Graphics/SVG/1.1/DTD/svg11.dtd">
<!-- Generated by graphviz version 2.36.0 (20140111.2315)
 -->
<!-- Title: Om::Language::Expression::FormRange&lt; Form const &gt; Pages: 1 -->
<svg width="896pt" height="93pt"
 viewBox="0.00 0.00 896.00 93.00" xmlns="http://www.w3.org/2000/svg" xmlns:xlink="http://www.w3.org/1999/xlink">
<g id="graph0" class="graph" transform="scale(1 1) rotate(0) translate(4 89)">
<title>Om::Language::Expression::FormRange&lt; Form const &gt;</title>
<!-- Node0 -->
<g id="node1" class="node"><title>Node0</title>
<g id="a_node1"><a xlink:title="An immutable Expression Form range.">
<polygon fill="#bfbfbf" stroke="black" points="746.2,-31 746.2,-59 887.8,-59 887.8,-31 746.2,-31"/>
<text text-anchor="start" x="754.2" y="-47" font-family="Helvetica,sans-Serif" font-size="10.00">Om::Language::Expression</text>
<text text-anchor="middle" x="817" y="-37" font-family="Helvetica,sans-Serif" font-size="10.00">::FormRange&lt; Form const &gt;</text>
</a>
</g>
</g>
<!-- Node1 -->
<g id="node2" class="node"><title>Node1</title>
<g id="a_node2"><a xlink:href="class_om_1_1_source_1_1_collection_front_source.html" target="_top" xlink:title=" ">
<polygon fill="none" stroke="black" points="544.667,-26 544.667,-64 709.333,-64 709.333,-26 544.667,-26"/>
<text text-anchor="start" x="552.667" y="-52" font-family="Helvetica,sans-Serif" font-size="10.00">Om::Source::CollectionFront</text>
<text text-anchor="start" x="552.667" y="-42" font-family="Helvetica,sans-Serif" font-size="10.00">Source&lt; Form const, FormDeque</text>
<text text-anchor="middle" x="627" y="-32" font-family="Helvetica,sans-Serif" font-size="10.00">::const_iterator &gt;</text>
</a>
</g>
</g>
<!-- Node1&#45;&gt;Node0 -->
<g id="edge1" class="edge"><title>Node1&#45;&gt;Node0</title>
<path fill="none" stroke="midnightblue" d="M719.427,-45C728.364,-45 737.333,-45 746.009,-45"/>
<polygon fill="midnightblue" stroke="midnightblue" points="719.366,-41.5001 709.366,-45 719.366,-48.5001 719.366,-41.5001"/>
</g>
<!-- Node2 -->
<g id="node3" class="node"><title>Node2</title>
<g id="a_node3"><a xlink:href="class_om_1_1_source_1_1_iterator_pair_source.html" target="_top" xlink:title=" ">
<polygon fill="none" stroke="black" points="342.667,-26 342.667,-64 507.333,-64 507.333,-26 342.667,-26"/>
<text text-anchor="start" x="350.667" y="-52" font-family="Helvetica,sans-Serif" font-size="10.00">Om::Source::IteratorPair</text>
<text text-anchor="start" x="350.667" y="-42" font-family="Helvetica,sans-Serif" font-size="10.00">Source&lt; Form const, FormDeque</text>
<text text-anchor="middle" x="425" y="-32" font-family="Helvetica,sans-Serif" font-size="10.00">::const_iterator &gt;</text>
</a>
</g>
</g>
<!-- Node2&#45;&gt;Node1 -->
<g id="edge2" class="edge"><title>Node2&#45;&gt;Node1</title>
<path fill="none" stroke="midnightblue" d="M517.443,-45C526.434,-45 535.517,-45 544.4,-45"/>
<polygon fill="midnightblue" stroke="midnightblue" points="517.348,-41.5001 507.348,-45 517.348,-48.5001 517.348,-41.5001"/>
</g>
<!-- Node3 -->
<g id="node4" class="node"><title>Node3</title>
<g id="a_node4"><a xlink:href="class_om_1_1_source_1_1_default_source.html" target="_top" xlink:title=" ">
<polygon fill="none" stroke="black" points="143.78,-21 143.78,-69 306.22,-69 306.22,-21 143.78,-21"/>
<text text-anchor="start" x="151.78" y="-57" font-family="Helvetica,sans-Serif" font-size="10.00">Om::Source::DefaultSource</text>
<text text-anchor="start" x="151.78" y="-47" font-family="Helvetica,sans-Serif" font-size="10.00">&lt; Form const, IteratorPairSource</text>
<text text-anchor="start" x="151.78" y="-37" font-family="Helvetica,sans-Serif" font-size="10.00">&lt; Form const, FormDeque::const</text>
<text text-anchor="middle" x="225" y="-27" font-family="Helvetica,sans-Serif" font-size="10.00">_iterator &gt; &gt;</text>
</a>
</g>
</g>
<!-- Node3&#45;&gt;Node2 -->
<g id="edge3" class="edge"><title>Node3&#45;&gt;Node2</title>
<path fill="none" stroke="midnightblue" d="M316.361,-45C325.024,-45 333.776,-45 342.349,-45"/>
<polygon fill="midnightblue" stroke="midnightblue" points="316.249,-41.5001 306.249,-45 316.249,-48.5001 316.249,-41.5001"/>
</g>
<!-- Node4 -->
<g id="node5" class="node"><title>Node4</title>
<g id="a_node5"><a xlink:href="class_om_1_1_source_1_1_source.html" target="_top" xlink:title=" ">
<polygon fill="none" stroke="black" points="0.70459,-57 0.70459,-85 107.295,-85 107.295,-57 0.70459,-57"/>
<text text-anchor="start" x="8.70459" y="-73" font-family="Helvetica,sans-Serif" font-size="10.00">Om::Source::Source</text>
<text text-anchor="middle" x="54" y="-63" font-family="Helvetica,sans-Serif" font-size="10.00">&lt; Form const &gt;</text>
</a>
</g>
</g>
<!-- Node4&#45;&gt;Node3 -->
<g id="edge4" class="edge"><title>Node4&#45;&gt;Node3</title>
<path fill="none" stroke="midnightblue" d="M117.666,-61.3591C126.11,-60.0601 134.866,-58.713 143.564,-57.3748"/>
<polygon fill="midnightblue" stroke="midnightblue" points="116.898,-57.936 107.546,-62.916 117.962,-64.8546 116.898,-57.936"/>
</g>
<!-- Node5 -->
<g id="node6" class="node"><title>Node5</title>
<g id="a_node6"><a xlink:title=" ">
<polygon fill="none" stroke="#bfbfbf" points="2.9165,-0 2.9165,-38 105.083,-38 105.083,-0 2.9165,-0"/>
<text text-anchor="start" x="10.9165" y="-26" font-family="Helvetica,sans-Serif" font-size="10.00">std::iterator&lt; std</text>
<text text-anchor="start" x="10.9165" y="-16" font-family="Helvetica,sans-Serif" font-size="10.00">::input_iterator_tag,</text>
<text text-anchor="middle" x="54" y="-6" font-family="Helvetica,sans-Serif" font-size="10.00"> Form const &gt;</text>
</a>
</g>
</g>
<!-- Node5&#45;&gt;Node3 -->
<g id="edge5" class="edge"><title>Node5&#45;&gt;Node3</title>
<path fill="none" stroke="midnightblue" d="M115.371,-28.2878C124.515,-29.6946 134.07,-31.1646 143.556,-32.624"/>
<polygon fill="midnightblue" stroke="midnightblue" points="115.664,-24.7918 105.248,-26.7305 114.599,-31.7104 115.664,-24.7918"/>
</g>
</g>
</svg>
