<?xml version="1.0" encoding="UTF-8" standalone="no"?>
<!DOCTYPE svg PUBLIC "-//W3C//DTD SVG 1.1//EN"
 "http://www.w3.org/Graphics/SVG/1.1/DTD/svg11.dtd">
<!-- Generated by graphviz version 2.34.0 (20130907.0228)
 -->
<!-- Title: Om::Expression::FormRange&lt; Form &gt; Pages: 1 -->
<svg width="846pt" height="103pt"
 viewBox="0.00 0.00 846.00 103.00" xmlns="http://www.w3.org/2000/svg" xmlns:xlink="http://www.w3.org/1999/xlink">
<g id="graph0" class="graph" transform="scale(1 1) rotate(0) translate(4 99)">
<title>Om::Expression::FormRange&lt; Form &gt;</title>
<!-- Node1 -->
<g id="node1" class="node"><title>Node1</title>
<polygon fill="#bfbfbf" stroke="black" points="692.256,-34 692.256,-66 837.744,-66 837.744,-34 692.256,-34"/>
<text text-anchor="start" x="700.256" y="-52" font-family="Helvetica,sans-Serif" font-size="10.00">Om::Expression::FormRange</text>
<text text-anchor="middle" x="765" y="-40" font-family="Helvetica,sans-Serif" font-size="10.00">&lt; Form &gt;</text>
</g>
<!-- Node2 -->
<g id="node2" class="node"><title>Node2</title>
<g id="a_node2"><a xlink:href="class_om_1_1_source_1_1_collection_front_source.html" target="_top" xlink:title="Om::Source::CollectionFront\lSource\&lt; Form, FormDeque\l::iterator \&gt;">
<polygon fill="none" stroke="black" points="513.921,-28 513.921,-72 656.079,-72 656.079,-28 513.921,-28"/>
<text text-anchor="start" x="521.921" y="-58" font-family="Helvetica,sans-Serif" font-size="10.00">Om::Source::CollectionFront</text>
<text text-anchor="start" x="521.921" y="-46" font-family="Helvetica,sans-Serif" font-size="10.00">Source&lt; Form, FormDeque</text>
<text text-anchor="middle" x="585" y="-34" font-family="Helvetica,sans-Serif" font-size="10.00">::iterator &gt;</text>
</a>
</g>
</g>
<!-- Node2&#45;&gt;Node1 -->
<g id="edge1" class="edge"><title>Node2&#45;&gt;Node1</title>
<path fill="none" stroke="midnightblue" d="M666.201,-50C674.871,-50 683.653,-50 692.215,-50"/>
<polygon fill="midnightblue" stroke="midnightblue" points="666.095,-46.5001 656.095,-50 666.095,-53.5001 666.095,-46.5001"/>
</g>
<!-- Node3 -->
<g id="node3" class="node"><title>Node3</title>
<g id="a_node3"><a xlink:href="class_om_1_1_source_1_1_iterator_pair_source.html" target="_top" xlink:title="Om::Source::IteratorPair\lSource\&lt; Form, FormDeque\l::iterator \&gt;">
<polygon fill="none" stroke="black" points="340.006,-28 340.006,-72 477.994,-72 477.994,-28 340.006,-28"/>
<text text-anchor="start" x="348.006" y="-58" font-family="Helvetica,sans-Serif" font-size="10.00">Om::Source::IteratorPair</text>
<text text-anchor="start" x="348.006" y="-46" font-family="Helvetica,sans-Serif" font-size="10.00">Source&lt; Form, FormDeque</text>
<text text-anchor="middle" x="409" y="-34" font-family="Helvetica,sans-Serif" font-size="10.00">::iterator &gt;</text>
</a>
</g>
</g>
<!-- Node3&#45;&gt;Node2 -->
<g id="edge2" class="edge"><title>Node3&#45;&gt;Node2</title>
<path fill="none" stroke="midnightblue" d="M488.439,-50C496.836,-50 505.342,-50 513.637,-50"/>
<polygon fill="midnightblue" stroke="midnightblue" points="488.27,-46.5001 478.27,-50 488.27,-53.5001 488.27,-46.5001"/>
</g>
<!-- Node4 -->
<g id="node4" class="node"><title>Node4</title>
<g id="a_node4"><a xlink:href="class_om_1_1_source_1_1_default_source.html" target="_top" xlink:title="Om::Source::DefaultSource\l\&lt; Form, IteratorPairSource\l\&lt; Form, FormDeque::iterator \&gt; \&gt;">
<polygon fill="none" stroke="black" points="143.891,-28 143.891,-72 304.109,-72 304.109,-28 143.891,-28"/>
<text text-anchor="start" x="151.891" y="-58" font-family="Helvetica,sans-Serif" font-size="10.00">Om::Source::DefaultSource</text>
<text text-anchor="start" x="151.891" y="-46" font-family="Helvetica,sans-Serif" font-size="10.00">&lt; Form, IteratorPairSource</text>
<text text-anchor="middle" x="224" y="-34" font-family="Helvetica,sans-Serif" font-size="10.00">&lt; Form, FormDeque::iterator &gt; &gt;</text>
</a>
</g>
</g>
<!-- Node4&#45;&gt;Node3 -->
<g id="edge3" class="edge"><title>Node4&#45;&gt;Node3</title>
<path fill="none" stroke="midnightblue" d="M314.276,-50C322.883,-50 331.516,-50 339.871,-50"/>
<polygon fill="midnightblue" stroke="midnightblue" points="314.202,-46.5001 304.202,-50 314.202,-53.5001 314.202,-46.5001"/>
</g>
<!-- Node5 -->
<g id="node5" class="node"><title>Node5</title>
<g id="a_node5"><a xlink:href="class_om_1_1_source_1_1_source.html" target="_top" xlink:title="Om::Source::Source\l\&lt; Form \&gt;">
<polygon fill="none" stroke="black" points="0.70459,-63 0.70459,-95 107.295,-95 107.295,-63 0.70459,-63"/>
<text text-anchor="start" x="8.70459" y="-81" font-family="Helvetica,sans-Serif" font-size="10.00">Om::Source::Source</text>
<text text-anchor="middle" x="54" y="-69" font-family="Helvetica,sans-Serif" font-size="10.00">&lt; Form &gt;</text>
</a>
</g>
</g>
<!-- Node5&#45;&gt;Node4 -->
<g id="edge4" class="edge"><title>Node5&#45;&gt;Node4</title>
<path fill="none" stroke="midnightblue" d="M117.828,-68.1548C126.279,-66.6959 135.037,-65.1842 143.726,-63.6841"/>
<polygon fill="midnightblue" stroke="midnightblue" points="116.954,-64.7537 107.695,-69.9038 118.145,-71.6517 116.954,-64.7537"/>
</g>
<!-- Node6 -->
<g id="node6" class="node"><title>Node6</title>
<polygon fill="none" stroke="#bfbfbf" points="2.9165,-0 2.9165,-44 105.083,-44 105.083,-0 2.9165,-0"/>
<text text-anchor="start" x="10.9165" y="-30" font-family="Helvetica,sans-Serif" font-size="10.00">std::iterator&lt; std</text>
<text text-anchor="start" x="10.9165" y="-18" font-family="Helvetica,sans-Serif" font-size="10.00">::input_iterator_tag,</text>
<text text-anchor="middle" x="54" y="-6" font-family="Helvetica,sans-Serif" font-size="10.00"> Form &gt;</text>
</g>
<!-- Node6&#45;&gt;Node4 -->
<g id="edge5" class="edge"><title>Node6&#45;&gt;Node4</title>
<path fill="none" stroke="midnightblue" d="M115.539,-32.0899C124.69,-33.6149 134.244,-35.2073 143.718,-36.7863"/>
<polygon fill="midnightblue" stroke="midnightblue" points="115.845,-28.5926 105.406,-30.4009 114.694,-35.4974 115.845,-28.5926"/>
</g>
</g>
</svg>
