<?xml version="1.0" encoding="UTF-8" standalone="no"?>
<!DOCTYPE svg PUBLIC "-//W3C//DTD SVG 1.1//EN"
 "http://www.w3.org/Graphics/SVG/1.1/DTD/svg11.dtd">
<!-- Generated by graphviz version 2.28.0 (20120817.0054)
 -->
<!-- Title: Om::Sinks::CodePointSink&lt; ThisCodeUnitIterator &gt; Pages: 1 -->
<svg width="548pt" height="110pt"
 viewBox="0.00 0.00 548.00 110.00" xmlns="http://www.w3.org/2000/svg" xmlns:xlink="http://www.w3.org/1999/xlink">
<g id="graph1" class="graph" transform="scale(1 1) rotate(0) translate(4 106)">
<title>Om::Sinks::CodePointSink&lt; ThisCodeUnitIterator &gt;</title>
<!-- Node1 -->
<g id="node1" class="node"><title>Node1</title>
<polygon fill="#bfbfbf" stroke="black" points="412.5,-13 412.5,-43 539.5,-43 539.5,-13 412.5,-13"/>
<text text-anchor="start" x="420.5" y="-31" font-family="Helvetica,sans-Serif" font-size="10.00">Om::Sinks::CodePointSink</text>
<text text-anchor="middle" x="476" y="-20" font-family="Helvetica,sans-Serif" font-size="10.00">&lt; ThisCodeUnitIterator &gt;</text>
</g>
<!-- Node2 -->
<g id="node2" class="node"><title>Node2</title>
<a xlink:href="class_om_1_1_sinks_1_1_default_sink.html" target="_top" xlink:title="Om::Sinks::DefaultSink\l\&lt; CodePoint const, CodePoint\lSink\&lt; ThisCodeUnitIterator \&gt; \&gt;">
<polygon fill="none" stroke="black" points="146,-38.5 146,-79.5 290,-79.5 290,-38.5 146,-38.5"/>
<text text-anchor="start" x="154" y="-67.5" font-family="Helvetica,sans-Serif" font-size="10.00">Om::Sinks::DefaultSink</text>
<text text-anchor="start" x="154" y="-56.5" font-family="Helvetica,sans-Serif" font-size="10.00">&lt; CodePoint const, CodePoint</text>
<text text-anchor="middle" x="218" y="-45.5" font-family="Helvetica,sans-Serif" font-size="10.00">Sink&lt; ThisCodeUnitIterator &gt; &gt;</text>
</a>
</g>
<!-- Node2&#45;&gt;Node1 -->
<g id="edge2" class="edge"><title>Node2&#45;&gt;Node1</title>
<path fill="none" stroke="midnightblue" d="M300.366,-49.1471C336.601,-44.7593 378.612,-39.672 412.347,-35.5869"/>
<polygon fill="midnightblue" stroke="midnightblue" points="299.817,-45.6879 290.31,-50.3648 300.659,-52.6371 299.817,-45.6879"/>
</g>
<!-- Node3 -->
<g id="node4" class="node"><title>Node3</title>
<a xlink:href="class_om_1_1_sink.html" target="_top" xlink:title="Om::Sink\&lt; CodePoint\l const &#160;\&gt;">
<polygon fill="none" stroke="black" points="0.5,-72 0.5,-102 107.5,-102 107.5,-72 0.5,-72"/>
<text text-anchor="start" x="8.5" y="-90" font-family="Helvetica,sans-Serif" font-size="10.00">Om::Sink&lt; CodePoint</text>
<text text-anchor="middle" x="54" y="-79" font-family="Helvetica,sans-Serif" font-size="10.00"> const &gt;</text>
</a>
</g>
<!-- Node3&#45;&gt;Node2 -->
<g id="edge4" class="edge"><title>Node3&#45;&gt;Node2</title>
<path fill="none" stroke="midnightblue" d="M117.498,-76.1978C126.77,-74.5954 136.383,-72.9338 145.816,-71.3035"/>
<polygon fill="midnightblue" stroke="midnightblue" points="116.855,-72.7571 107.597,-77.9092 118.047,-79.6548 116.855,-72.7571"/>
</g>
<!-- Node4 -->
<g id="node6" class="node"><title>Node4</title>
<polygon fill="none" stroke="#bfbfbf" points="3.5,-11.5 3.5,-52.5 104.5,-52.5 104.5,-11.5 3.5,-11.5"/>
<text text-anchor="start" x="11.5" y="-40.5" font-family="Helvetica,sans-Serif" font-size="10.00">std::iterator&lt; std</text>
<text text-anchor="start" x="11.5" y="-29.5" font-family="Helvetica,sans-Serif" font-size="10.00">::output_iterator_tag,</text>
<text text-anchor="middle" x="54" y="-18.5" font-family="Helvetica,sans-Serif" font-size="10.00"> CodePoint const &gt;</text>
</g>
<!-- Node4&#45;&gt;Node2 -->
<g id="edge6" class="edge"><title>Node4&#45;&gt;Node2</title>
<path fill="none" stroke="midnightblue" d="M114.827,-41.9711C124.909,-43.6515 135.461,-45.4102 145.798,-47.133"/>
<polygon fill="midnightblue" stroke="midnightblue" points="115.367,-38.5129 104.927,-40.3212 114.216,-45.4177 115.367,-38.5129"/>
</g>
<!-- Node5 -->
<g id="node8" class="node"><title>Node5</title>
<polygon fill="none" stroke="#bfbfbf" points="167.5,-0.5 167.5,-19.5 268.5,-19.5 268.5,-0.5 167.5,-0.5"/>
<text text-anchor="middle" x="218" y="-7.5" font-family="Helvetica,sans-Serif" font-size="10.00">ThisCodeUnitIterator</text>
</g>
<!-- Node5&#45;&gt;Node1 -->
<g id="edge8" class="edge"><title>Node5&#45;&gt;Node1</title>
<path fill="none" stroke="#9a32cd" stroke-dasharray="5,2" d="M278.966,-14.0305C312.756,-16.322 355.736,-19.2709 394,-22 399.907,-22.4213 406.057,-22.8659 412.209,-23.3148"/>
<polygon fill="#9a32cd" stroke="#9a32cd" points="279.004,-10.5251 268.79,-13.3414 278.531,-17.5091 279.004,-10.5251"/>
<text text-anchor="middle" x="351" y="-25" font-family="Helvetica,sans-Serif" font-size="10.00"> thisCodeUnitIterator</text>
</g>
</g>
</svg>
