<?xml version="1.0" encoding="UTF-8" standalone="no"?>
<!DOCTYPE svg PUBLIC "-//W3C//DTD SVG 1.1//EN"
 "http://www.w3.org/Graphics/SVG/1.1/DTD/svg11.dtd">
<!-- Generated by graphviz version 2.36.0 (20140111.2315)
 -->
<!-- Title: Om::Language::Form::OperandRange&lt; Operand const &gt; Pages: 1 -->
<svg width="990pt" height="119pt"
 viewBox="0.00 0.00 990.00 119.00" xmlns="http://www.w3.org/2000/svg" xmlns:xlink="http://www.w3.org/1999/xlink">
<g id="graph0" class="graph" transform="scale(1 1) rotate(0) translate(4 115)">
<title>Om::Language::Form::OperandRange&lt; Operand const &gt;</title>
<!-- Node1 -->
<g id="node1" class="node"><title>Node1</title>
<g id="a_node1"><a xlink:title="An immutable Form Operand range.">
<polygon fill="#bfbfbf" stroke="black" points="844.263,-18 844.263,-56 981.737,-56 981.737,-18 844.263,-18"/>
<text text-anchor="start" x="852.263" y="-44" font-family="Helvetica,sans-Serif" font-size="10.00">Om::Language::Form</text>
<text text-anchor="start" x="852.263" y="-34" font-family="Helvetica,sans-Serif" font-size="10.00">::OperandRange&lt; Operand</text>
<text text-anchor="middle" x="913" y="-24" font-family="Helvetica,sans-Serif" font-size="10.00"> const &gt;</text>
</a>
</g>
</g>
<!-- Node2 -->
<g id="node2" class="node"><title>Node2</title>
<g id="a_node2"><a xlink:href="class_om_1_1_source_1_1_collection_front_source.html" target="_top" xlink:title=" ">
<polygon fill="none" stroke="black" points="610.081,-18 610.081,-56 805.919,-56 805.919,-18 610.081,-18"/>
<text text-anchor="start" x="618.081" y="-44" font-family="Helvetica,sans-Serif" font-size="10.00">Om::Source::CollectionFront</text>
<text text-anchor="start" x="618.081" y="-34" font-family="Helvetica,sans-Serif" font-size="10.00">Source&lt; Operand const, OperandDeque</text>
<text text-anchor="middle" x="708" y="-24" font-family="Helvetica,sans-Serif" font-size="10.00">::const_iterator &gt;</text>
</a>
</g>
</g>
<!-- Node2&#45;&gt;Node1 -->
<g id="edge1" class="edge"><title>Node2&#45;&gt;Node1</title>
<path fill="none" stroke="midnightblue" d="M816.281,-37C825.708,-37 835.068,-37 844.035,-37"/>
<polygon fill="midnightblue" stroke="midnightblue" points="816.041,-33.5001 806.041,-37 816.041,-40.5001 816.041,-33.5001"/>
</g>
<!-- Node3 -->
<g id="node3" class="node"><title>Node3</title>
<g id="a_node3"><a xlink:href="class_om_1_1_source_1_1_iterator_pair_source.html" target="_top" xlink:title=" ">
<polygon fill="none" stroke="black" points="410.039,-18 410.039,-56 571.961,-56 571.961,-18 410.039,-18"/>
<text text-anchor="start" x="418.039" y="-44" font-family="Helvetica,sans-Serif" font-size="10.00">Om::Source::IteratorPair</text>
<text text-anchor="start" x="418.039" y="-34" font-family="Helvetica,sans-Serif" font-size="10.00">Source&lt; Operand const,</text>
<text text-anchor="middle" x="491" y="-24" font-family="Helvetica,sans-Serif" font-size="10.00"> OperandDeque::const_iterator &gt;</text>
</a>
</g>
</g>
<!-- Node3&#45;&gt;Node2 -->
<g id="edge2" class="edge"><title>Node3&#45;&gt;Node2</title>
<path fill="none" stroke="midnightblue" d="M582.246,-37C591.347,-37 600.617,-37 609.786,-37"/>
<polygon fill="midnightblue" stroke="midnightblue" points="582.058,-33.5001 572.058,-37 582.058,-40.5001 582.058,-33.5001"/>
</g>
<!-- Node4 -->
<g id="node4" class="node"><title>Node4</title>
<g id="a_node4"><a xlink:href="class_om_1_1_source_1_1_default_source.html" target="_top" xlink:title=" ">
<polygon fill="none" stroke="black" points="146.541,-47 146.541,-95 323.459,-95 323.459,-47 146.541,-47"/>
<text text-anchor="start" x="154.541" y="-83" font-family="Helvetica,sans-Serif" font-size="10.00">Om::Source::DefaultSource</text>
<text text-anchor="start" x="154.541" y="-73" font-family="Helvetica,sans-Serif" font-size="10.00">&lt; Operand const, IteratorPairSource</text>
<text text-anchor="start" x="154.541" y="-63" font-family="Helvetica,sans-Serif" font-size="10.00">&lt; Operand const, OperandDeque</text>
<text text-anchor="middle" x="235" y="-53" font-family="Helvetica,sans-Serif" font-size="10.00">::const_iterator &gt; &gt;</text>
</a>
</g>
</g>
<!-- Node4&#45;&gt;Node3 -->
<g id="edge3" class="edge"><title>Node4&#45;&gt;Node3</title>
<path fill="none" stroke="midnightblue" d="M333.704,-57.9215C358.896,-54.5493 385.715,-50.9594 409.895,-47.7227"/>
<polygon fill="midnightblue" stroke="midnightblue" points="333.215,-54.4556 323.768,-59.2515 334.144,-61.3937 333.215,-54.4556"/>
</g>
<!-- Node5 -->
<g id="node5" class="node"><title>Node5</title>
<g id="a_node5"><a xlink:href="class_om_1_1_source_1_1_source.html" target="_top" xlink:title=" ">
<polygon fill="none" stroke="black" points="0.70459,-83 0.70459,-111 107.295,-111 107.295,-83 0.70459,-83"/>
<text text-anchor="start" x="8.70459" y="-99" font-family="Helvetica,sans-Serif" font-size="10.00">Om::Source::Source</text>
<text text-anchor="middle" x="54" y="-89" font-family="Helvetica,sans-Serif" font-size="10.00">&lt; Operand const &gt;</text>
</a>
</g>
</g>
<!-- Node5&#45;&gt;Node4 -->
<g id="edge4" class="edge"><title>Node5&#45;&gt;Node4</title>
<path fill="none" stroke="midnightblue" d="M117.646,-87.9006C126.951,-86.5491 136.682,-85.1355 146.384,-83.7263"/>
<polygon fill="midnightblue" stroke="midnightblue" points="117.131,-84.4386 107.738,-89.3398 118.137,-91.3659 117.131,-84.4386"/>
</g>
<!-- Node6 -->
<g id="node6" class="node"><title>Node6</title>
<g id="a_node6"><a xlink:title=" ">
<polygon fill="none" stroke="#bfbfbf" points="2.9165,-26 2.9165,-64 105.083,-64 105.083,-26 2.9165,-26"/>
<text text-anchor="start" x="10.9165" y="-52" font-family="Helvetica,sans-Serif" font-size="10.00">std::iterator&lt; std</text>
<text text-anchor="start" x="10.9165" y="-42" font-family="Helvetica,sans-Serif" font-size="10.00">::input_iterator_tag,</text>
<text text-anchor="middle" x="54" y="-32" font-family="Helvetica,sans-Serif" font-size="10.00"> Operand const &gt;</text>
</a>
</g>
</g>
<!-- Node6&#45;&gt;Node4 -->
<g id="edge5" class="edge"><title>Node6&#45;&gt;Node4</title>
<path fill="none" stroke="midnightblue" d="M115.497,-53.7873C125.456,-55.2339 135.952,-56.7584 146.413,-58.2779"/>
<polygon fill="midnightblue" stroke="midnightblue" points="115.737,-50.2855 105.338,-52.3116 114.731,-57.2128 115.737,-50.2855"/>
</g>
<!-- Node7 -->
<g id="node7" class="node"><title>Node7</title>
<g id="a_node7"><a xlink:title="STL iterator class.">
<polygon fill="none" stroke="#bfbfbf" points="177.422,-0 177.422,-28 292.578,-28 292.578,-0 177.422,-0"/>
<text text-anchor="start" x="185.422" y="-16" font-family="Helvetica,sans-Serif" font-size="10.00">std::deque&lt; T &gt;::const</text>
<text text-anchor="middle" x="235" y="-6" font-family="Helvetica,sans-Serif" font-size="10.00">_iterator</text>
</a>
</g>
</g>
<!-- Node7&#45;&gt;Node3 -->
<g id="edge6" class="edge"><title>Node7&#45;&gt;Node3</title>
<path fill="none" stroke="#9a32cd" stroke-dasharray="5,2" d="M303.05,-18.6408C330.624,-20.6837 362.865,-23.2452 392,-26 397.795,-26.548 403.78,-27.1444 409.801,-27.7668"/>
<polygon fill="#9a32cd" stroke="#9a32cd" points="302.956,-15.1246 292.727,-17.8839 302.445,-22.1059 302.956,-15.1246"/>
<text text-anchor="middle" x="367" y="-38" font-family="Helvetica,sans-Serif" font-size="10.00"> thisEnd</text>
<text text-anchor="middle" x="367" y="-28" font-family="Helvetica,sans-Serif" font-size="10.00">thisCurrent</text>
</g>
</g>
</svg>
