<?xml version="1.0" encoding="UTF-8" standalone="no"?>
<!DOCTYPE svg PUBLIC "-//W3C//DTD SVG 1.1//EN"
 "http://www.w3.org/Graphics/SVG/1.1/DTD/svg11.dtd">
<!-- Generated by graphviz version 2.36.0 (20140111.2315)
 -->
<!-- Title: Om::Sink::StreamSink&lt; ThisItem &gt; Pages: 1 -->
<svg width="620pt" height="83pt"
 viewBox="0.00 0.00 620.00 83.00" xmlns="http://www.w3.org/2000/svg" xmlns:xlink="http://www.w3.org/1999/xlink">
<g id="graph0" class="graph" transform="scale(1 1) rotate(0) translate(4 79)">
<title>Om::Sink::StreamSink&lt; ThisItem &gt;</title>
<!-- Node1 -->
<g id="node1" class="node"><title>Node1</title>
<polygon fill="#bfbfbf" stroke="black" points="497.82,-28 497.82,-56 612.18,-56 612.18,-28 497.82,-28"/>
<text text-anchor="start" x="505.82" y="-44" font-family="Helvetica,sans-Serif" font-size="10.00">Om::Sink::StreamSink</text>
<text text-anchor="middle" x="555" y="-34" font-family="Helvetica,sans-Serif" font-size="10.00">&lt; ThisItem &gt;</text>
</g>
<!-- Node2 -->
<g id="node2" class="node"><title>Node2</title>
<g id="a_node2"><a xlink:href="class_om_1_1_sink_1_1_iterator_sink.html" target="_top" xlink:title="Om::Sink::IteratorSink\l\&lt; ThisItem const, std\l::ostreambuf_iterator\&lt;\l ThisItem \&gt; \&gt;">
<polygon fill="none" stroke="black" points="347.947,-18 347.947,-66 462.053,-66 462.053,-18 347.947,-18"/>
<text text-anchor="start" x="355.947" y="-54" font-family="Helvetica,sans-Serif" font-size="10.00">Om::Sink::IteratorSink</text>
<text text-anchor="start" x="355.947" y="-44" font-family="Helvetica,sans-Serif" font-size="10.00">&lt; ThisItem const, std</text>
<text text-anchor="start" x="355.947" y="-34" font-family="Helvetica,sans-Serif" font-size="10.00">::ostreambuf_iterator&lt;</text>
<text text-anchor="middle" x="405" y="-24" font-family="Helvetica,sans-Serif" font-size="10.00"> ThisItem &gt; &gt;</text>
</a>
</g>
</g>
<!-- Node2&#45;&gt;Node1 -->
<g id="edge1" class="edge"><title>Node2&#45;&gt;Node1</title>
<path fill="none" stroke="midnightblue" d="M472.558,-42C480.984,-42 489.539,-42 497.782,-42"/>
<polygon fill="midnightblue" stroke="midnightblue" points="472.375,-38.5001 462.375,-42 472.375,-45.5001 472.375,-38.5001"/>
</g>
<!-- Node3 -->
<g id="node3" class="node"><title>Node3</title>
<g id="a_node3"><a xlink:href="class_om_1_1_sink_1_1_default_sink.html" target="_top" xlink:title="Om::Sink::DefaultSink\l\&lt; ThisItem, IteratorSink\l\&lt; ThisItem, std::ostreambuf\l_iterator\&lt; ThisItem \&gt; \&gt; \&gt;">
<polygon fill="none" stroke="black" points="174.37,-18 174.37,-66 311.63,-66 311.63,-18 174.37,-18"/>
<text text-anchor="start" x="182.37" y="-54" font-family="Helvetica,sans-Serif" font-size="10.00">Om::Sink::DefaultSink</text>
<text text-anchor="start" x="182.37" y="-44" font-family="Helvetica,sans-Serif" font-size="10.00">&lt; ThisItem, IteratorSink</text>
<text text-anchor="start" x="182.37" y="-34" font-family="Helvetica,sans-Serif" font-size="10.00">&lt; ThisItem, std::ostreambuf</text>
<text text-anchor="middle" x="243" y="-24" font-family="Helvetica,sans-Serif" font-size="10.00">_iterator&lt; ThisItem &gt; &gt; &gt;</text>
</a>
</g>
</g>
<!-- Node3&#45;&gt;Node2 -->
<g id="edge2" class="edge"><title>Node3&#45;&gt;Node2</title>
<path fill="none" stroke="midnightblue" d="M321.978,-42C330.636,-42 339.325,-42 347.639,-42"/>
<polygon fill="midnightblue" stroke="midnightblue" points="321.854,-38.5001 311.854,-42 321.854,-45.5001 321.854,-38.5001"/>
</g>
<!-- Node4 -->
<g id="node4" class="node"><title>Node4</title>
<g id="a_node4"><a xlink:href="class_om_1_1_sink_1_1_sink.html" target="_top" xlink:title="Any object that items can be pushed to. ">
<polygon fill="none" stroke="black" points="0.23584,-57 0.23584,-75 137.764,-75 137.764,-57 0.23584,-57"/>
<text text-anchor="middle" x="69" y="-63" font-family="Helvetica,sans-Serif" font-size="10.00">Om::Sink::Sink&lt; ThisItem &gt;</text>
</a>
</g>
</g>
<!-- Node4&#45;&gt;Node3 -->
<g id="edge3" class="edge"><title>Node4&#45;&gt;Node3</title>
<path fill="none" stroke="midnightblue" d="M144.679,-55.5796C154.504,-54.2088 164.529,-52.8099 174.229,-51.4564"/>
<polygon fill="midnightblue" stroke="midnightblue" points="143.956,-52.1465 134.536,-56.995 144.924,-59.0794 143.956,-52.1465"/>
</g>
<!-- Node5 -->
<g id="node5" class="node"><title>Node5</title>
<polygon fill="none" stroke="#bfbfbf" points="14.8574,-0 14.8574,-38 123.143,-38 123.143,-0 14.8574,-0"/>
<text text-anchor="start" x="22.8574" y="-26" font-family="Helvetica,sans-Serif" font-size="10.00">std::iterator&lt; std</text>
<text text-anchor="start" x="22.8574" y="-16" font-family="Helvetica,sans-Serif" font-size="10.00">::output_iterator_tag,</text>
<text text-anchor="middle" x="69" y="-6" font-family="Helvetica,sans-Serif" font-size="10.00"> ThisItem &gt;</text>
</g>
<!-- Node5&#45;&gt;Node3 -->
<g id="edge4" class="edge"><title>Node5&#45;&gt;Node3</title>
<path fill="none" stroke="midnightblue" d="M133.471,-27.4874C146.765,-29.2651 160.832,-31.1461 174.274,-32.9436"/>
<polygon fill="midnightblue" stroke="midnightblue" points="133.855,-24.0076 123.479,-26.1513 132.927,-30.9459 133.855,-24.0076"/>
</g>
</g>
</svg>
