<?xml version="1.0" encoding="UTF-8" standalone="no"?>
<!DOCTYPE svg PUBLIC "-//W3C//DTD SVG 1.1//EN"
 "http://www.w3.org/Graphics/SVG/1.1/DTD/svg11.dtd">
<!-- Generated by graphviz version 2.30.1 (20130221.2233)
 -->
<!-- Title: Om::Sources::IteratorPairSource&lt; ThisItem, ThisIterator &gt; Pages: 1 -->
<svg width="554pt" height="113pt"
 viewBox="0.00 0.00 554.00 113.00" xmlns="http://www.w3.org/2000/svg" xmlns:xlink="http://www.w3.org/1999/xlink">
<g id="graph0" class="graph" transform="scale(1 1) rotate(0) translate(4 109)">
<title>Om::Sources::IteratorPairSource&lt; ThisItem, ThisIterator &gt;</title>
<!-- Node1 -->
<g id="node1" class="node"><title>Node1</title>
<polygon fill="#bfbfbf" stroke="black" points="386.481,-16 386.481,-48 545.519,-48 545.519,-16 386.481,-16"/>
<text text-anchor="start" x="394.481" y="-34" font-family="Helvetica,sans-Serif" font-size="10.00">Om::Sources::IteratorPair</text>
<text text-anchor="middle" x="466" y="-22" font-family="Helvetica,sans-Serif" font-size="10.00">Source&lt; ThisItem, ThisIterator &gt;</text>
</g>
<!-- Node2 -->
<g id="node2" class="node"><title>Node2</title>
<g id="a_node2"><a xlink:href="class_om_1_1_sources_1_1_default_source.html" target="_top" xlink:title="Om::Sources::DefaultSource\l\&lt; ThisItem, IteratorPairSource\l\&lt; ThisItem, ThisIterator \&gt; \&gt;">
<polygon fill="none" stroke="black" points="150.257,-39 150.257,-83 299.743,-83 299.743,-39 150.257,-39"/>
<text text-anchor="start" x="158.257" y="-69" font-family="Helvetica,sans-Serif" font-size="10.00">Om::Sources::DefaultSource</text>
<text text-anchor="start" x="158.257" y="-57" font-family="Helvetica,sans-Serif" font-size="10.00">&lt; ThisItem, IteratorPairSource</text>
<text text-anchor="middle" x="225" y="-45" font-family="Helvetica,sans-Serif" font-size="10.00">&lt; ThisItem, ThisIterator &gt; &gt;</text>
</a>
</g>
</g>
<!-- Node2&#45;&gt;Node1 -->
<g id="edge1" class="edge"><title>Node2&#45;&gt;Node1</title>
<path fill="none" stroke="midnightblue" d="M310.098,-50.7957C334.904,-47.7856 361.949,-44.5041 386.396,-41.5377"/>
<polygon fill="midnightblue" stroke="midnightblue" points="309.49,-47.3437 299.984,-52.0228 310.333,-54.2927 309.49,-47.3437"/>
</g>
<!-- Node3 -->
<g id="node3" class="node"><title>Node3</title>
<g id="a_node3"><a xlink:href="class_om_1_1_sources_1_1_source.html" target="_top" xlink:title="Any object that items can be pulled from. ">
<polygon fill="none" stroke="black" points="0.20459,-73 0.20459,-105 111.795,-105 111.795,-73 0.20459,-73"/>
<text text-anchor="start" x="8.20459" y="-91" font-family="Helvetica,sans-Serif" font-size="10.00">Om::Sources::Source</text>
<text text-anchor="middle" x="56" y="-79" font-family="Helvetica,sans-Serif" font-size="10.00">&lt; ThisItem &gt;</text>
</a>
</g>
</g>
<!-- Node3&#45;&gt;Node2 -->
<g id="edge2" class="edge"><title>Node3&#45;&gt;Node2</title>
<path fill="none" stroke="midnightblue" d="M122.3,-78.0515C131.431,-76.5205 140.868,-74.9383 150.144,-73.3831"/>
<polygon fill="midnightblue" stroke="midnightblue" points="121.428,-74.6487 112.145,-79.7542 122.586,-81.5523 121.428,-74.6487"/>
</g>
<!-- Node4 -->
<g id="node4" class="node"><title>Node4</title>
<polygon fill="none" stroke="#bfbfbf" points="4.9165,-10 4.9165,-54 107.083,-54 107.083,-10 4.9165,-10"/>
<text text-anchor="start" x="12.9165" y="-40" font-family="Helvetica,sans-Serif" font-size="10.00">std::iterator&lt; std</text>
<text text-anchor="start" x="12.9165" y="-28" font-family="Helvetica,sans-Serif" font-size="10.00">::input_iterator_tag,</text>
<text text-anchor="middle" x="56" y="-16" font-family="Helvetica,sans-Serif" font-size="10.00"> ThisItem &gt;</text>
</g>
<!-- Node4&#45;&gt;Node2 -->
<g id="edge3" class="edge"><title>Node4&#45;&gt;Node2</title>
<path fill="none" stroke="midnightblue" d="M117.17,-42.4486C127.871,-44.3069 139.128,-46.2617 150.157,-48.177"/>
<polygon fill="midnightblue" stroke="midnightblue" points="117.557,-38.9636 107.106,-40.701 116.359,-45.8604 117.557,-38.9636"/>
</g>
<!-- Node5 -->
<g id="node5" class="node"><title>Node5</title>
<polygon fill="none" stroke="#bfbfbf" points="191.714,-0 191.714,-20 258.286,-20 258.286,-0 191.714,-0"/>
<text text-anchor="middle" x="225" y="-6" font-family="Helvetica,sans-Serif" font-size="10.00">ThisIterator</text>
</g>
<!-- Node5&#45;&gt;Node1 -->
<g id="edge4" class="edge"><title>Node5&#45;&gt;Node1</title>
<path fill="none" stroke="#9a32cd" stroke-dasharray="5,2" d="M268.823,-10.9493C297.048,-11.8608 334.794,-13.6234 368,-17 374.018,-17.612 380.233,-18.3427 386.473,-19.1474"/>
<polygon fill="#9a32cd" stroke="#9a32cd" points="268.601,-7.4412 258.501,-10.6401 268.392,-14.4381 268.601,-7.4412"/>
<text text-anchor="middle" x="343" y="-31" font-family="Helvetica,sans-Serif" font-size="10.00"> thisEnd</text>
<text text-anchor="middle" x="343" y="-19" font-family="Helvetica,sans-Serif" font-size="10.00">thisCurrent</text>
</g>
</g>
</svg>
