<?xml version="1.0" encoding="UTF-8" standalone="no"?>
<!DOCTYPE svg PUBLIC "-//W3C//DTD SVG 1.1//EN"
 "http://www.w3.org/Graphics/SVG/1.1/DTD/svg11.dtd">
<!-- Generated by graphviz version 2.30.1 (20130221.2233)
 -->
<!-- Title: Om::Expression::ElementRange Pages: 1 -->
<svg width="600pt" height="119pt"
 viewBox="0.00 0.00 600.00 119.00" xmlns="http://www.w3.org/2000/svg" xmlns:xlink="http://www.w3.org/1999/xlink">
<g id="graph0" class="graph" transform="scale(1 1) rotate(0) translate(4 115)">
<title>Om::Expression::ElementRange</title>
<!-- Node1 -->
<g id="node1" class="node"><title>Node1</title>
<polygon fill="#bfbfbf" stroke="black" points="432.579,-28 432.579,-48 591.421,-48 591.421,-28 432.579,-28"/>
<text text-anchor="middle" x="512" y="-34" font-family="Helvetica,sans-Serif" font-size="10.00">Om::Expression::ElementRange</text>
</g>
<!-- Node2 -->
<g id="node2" class="node"><title>Node2</title>
<g id="a_node2"><a xlink:href="class_om_1_1_sources_1_1_default_source.html" target="_top" xlink:title="Om::Sources::DefaultSource\l\&lt; Element const, ElementRange \&gt;">
<polygon fill="none" stroke="black" points="153.845,-51 153.845,-83 322.155,-83 322.155,-51 153.845,-51"/>
<text text-anchor="start" x="161.845" y="-69" font-family="Helvetica,sans-Serif" font-size="10.00">Om::Sources::DefaultSource</text>
<text text-anchor="middle" x="238" y="-57" font-family="Helvetica,sans-Serif" font-size="10.00">&lt; Element const, ElementRange &gt;</text>
</a>
</g>
</g>
<!-- Node2&#45;&gt;Node1 -->
<g id="edge1" class="edge"><title>Node2&#45;&gt;Node1</title>
<path fill="none" stroke="midnightblue" d="M332.431,-57.0386C364.972,-53.5692 401.129,-49.7142 432.349,-46.3856"/>
<polygon fill="midnightblue" stroke="midnightblue" points="332.03,-53.5614 322.457,-58.102 332.772,-60.522 332.03,-53.5614"/>
</g>
<!-- Node3 -->
<g id="node3" class="node"><title>Node3</title>
<g id="a_node3"><a xlink:href="class_om_1_1_source.html" target="_top" xlink:title="Om::Source\&lt; Element\l const &#160;\&gt;">
<polygon fill="none" stroke="black" points="0.673828,-79 0.673828,-111 115.326,-111 115.326,-79 0.673828,-79"/>
<text text-anchor="start" x="8.67383" y="-97" font-family="Helvetica,sans-Serif" font-size="10.00">Om::Source&lt; Element</text>
<text text-anchor="middle" x="58" y="-85" font-family="Helvetica,sans-Serif" font-size="10.00"> const &gt;</text>
</a>
</g>
</g>
<!-- Node3&#45;&gt;Node2 -->
<g id="edge2" class="edge"><title>Node3&#45;&gt;Node2</title>
<path fill="none" stroke="midnightblue" d="M125.926,-84.4724C135.029,-83.0404 144.461,-81.5567 153.807,-80.0865"/>
<polygon fill="midnightblue" stroke="midnightblue" points="125.144,-81.0521 115.81,-86.0636 126.232,-87.9671 125.144,-81.0521"/>
</g>
<!-- Node4 -->
<g id="node4" class="node"><title>Node4</title>
<polygon fill="none" stroke="#bfbfbf" points="6.9165,-16 6.9165,-60 109.083,-60 109.083,-16 6.9165,-16"/>
<text text-anchor="start" x="14.9165" y="-46" font-family="Helvetica,sans-Serif" font-size="10.00">std::iterator&lt; std</text>
<text text-anchor="start" x="14.9165" y="-34" font-family="Helvetica,sans-Serif" font-size="10.00">::input_iterator_tag,</text>
<text text-anchor="middle" x="58" y="-22" font-family="Helvetica,sans-Serif" font-size="10.00"> Element const &gt;</text>
</g>
<!-- Node4&#45;&gt;Node2 -->
<g id="edge3" class="edge"><title>Node4&#45;&gt;Node2</title>
<path fill="none" stroke="midnightblue" d="M119.444,-47.8476C130.462,-49.6427 142.133,-51.5441 153.676,-53.4247"/>
<polygon fill="midnightblue" stroke="midnightblue" points="119.964,-44.3863 109.532,-46.2327 118.839,-51.2952 119.964,-44.3863"/>
</g>
<!-- Node5 -->
<g id="node5" class="node"><title>Node5</title>
<g id="a_node5"><a xlink:title="STL iterator class.">
<polygon fill="none" stroke="#bfbfbf" points="180.422,-0 180.422,-32 295.578,-32 295.578,-0 180.422,-0"/>
<text text-anchor="start" x="188.422" y="-18" font-family="Helvetica,sans-Serif" font-size="10.00">std::deque&lt; T &gt;::const</text>
<text text-anchor="middle" x="238" y="-6" font-family="Helvetica,sans-Serif" font-size="10.00">_iterator</text>
</a>
</g>
</g>
<!-- Node5&#45;&gt;Node1 -->
<g id="edge4" class="edge"><title>Node5&#45;&gt;Node1</title>
<path fill="none" stroke="#9a32cd" stroke-dasharray="5,2" d="M306.18,-16.9052C338.788,-17.7987 378.499,-19.5562 414,-23 426.805,-24.2422 440.495,-26.0563 453.432,-27.9971"/>
<polygon fill="#9a32cd" stroke="#9a32cd" points="305.942,-13.3981 295.857,-16.6444 305.765,-20.3959 305.942,-13.3981"/>
<text text-anchor="middle" x="377" y="-37" font-family="Helvetica,sans-Serif" font-size="10.00"> thisFormIterator</text>
<text text-anchor="middle" x="377" y="-25" font-family="Helvetica,sans-Serif" font-size="10.00">thisFormEnd</text>
</g>
</g>
</svg>
