<?xml version="1.0" encoding="UTF-8" standalone="no"?>
<!DOCTYPE svg PUBLIC "-//W3C//DTD SVG 1.1//EN"
 "http://www.w3.org/Graphics/SVG/1.1/DTD/svg11.dtd">
<!-- Generated by graphviz version 2.30.1 (20130221.2233)
 -->
<!-- Title: Om::Form::ElementRange Pages: 1 -->
<svg width="840pt" height="203pt"
 viewBox="0.00 0.00 840.00 203.00" xmlns="http://www.w3.org/2000/svg" xmlns:xlink="http://www.w3.org/1999/xlink">
<g id="graph0" class="graph" transform="scale(1 1) rotate(0) translate(4 199)">
<title>Om::Form::ElementRange</title>
<!-- Node1 -->
<g id="node1" class="node"><title>Node1</title>
<polygon fill="#bfbfbf" stroke="black" points="698.648,-84 698.648,-104 831.352,-104 831.352,-84 698.648,-84"/>
<text text-anchor="middle" x="765" y="-90" font-family="Helvetica,sans-Serif" font-size="10.00">Om::Form::ElementRange</text>
</g>
<!-- Node2 -->
<g id="node2" class="node"><title>Node2</title>
<g id="a_node2"><a xlink:href="class_om_1_1_sources_1_1_default_source.html" target="_top" xlink:title="Om::Sources::DefaultSource\l\&lt; Element const, ElementRange \&gt;">
<polygon fill="none" stroke="black" points="407.845,-129 407.845,-161 576.155,-161 576.155,-129 407.845,-129"/>
<text text-anchor="start" x="415.845" y="-147" font-family="Helvetica,sans-Serif" font-size="10.00">Om::Sources::DefaultSource</text>
<text text-anchor="middle" x="492" y="-135" font-family="Helvetica,sans-Serif" font-size="10.00">&lt; Element const, ElementRange &gt;</text>
</a>
</g>
</g>
<!-- Node2&#45;&gt;Node1 -->
<g id="edge1" class="edge"><title>Node2&#45;&gt;Node1</title>
<path fill="none" stroke="midnightblue" d="M586.525,-137.199C616.591,-133.707 649.901,-128.796 680,-122 699.943,-117.497 721.837,-110.115 738.271,-104.062"/>
<polygon fill="midnightblue" stroke="midnightblue" points="586.009,-133.734 576.462,-138.329 586.791,-140.691 586.009,-133.734"/>
</g>
<!-- Node3 -->
<g id="node3" class="node"><title>Node3</title>
<g id="a_node3"><a xlink:href="class_om_1_1_source.html" target="_top" xlink:title="Om::Source\&lt; Element\l const &#160;\&gt;">
<polygon fill="none" stroke="black" points="254.674,-163 254.674,-195 369.326,-195 369.326,-163 254.674,-163"/>
<text text-anchor="start" x="262.674" y="-181" font-family="Helvetica,sans-Serif" font-size="10.00">Om::Source&lt; Element</text>
<text text-anchor="middle" x="312" y="-169" font-family="Helvetica,sans-Serif" font-size="10.00"> const &gt;</text>
</a>
</g>
</g>
<!-- Node3&#45;&gt;Node2 -->
<g id="edge2" class="edge"><title>Node3&#45;&gt;Node2</title>
<path fill="none" stroke="midnightblue" d="M379.926,-166.216C389.029,-164.478 398.461,-162.676 407.807,-160.891"/>
<polygon fill="midnightblue" stroke="midnightblue" points="378.975,-162.835 369.81,-168.149 380.289,-169.71 378.975,-162.835"/>
</g>
<!-- Node4 -->
<g id="node4" class="node"><title>Node4</title>
<polygon fill="none" stroke="#bfbfbf" points="260.917,-100 260.917,-144 363.083,-144 363.083,-100 260.917,-100"/>
<text text-anchor="start" x="268.917" y="-130" font-family="Helvetica,sans-Serif" font-size="10.00">std::iterator&lt; std</text>
<text text-anchor="start" x="268.917" y="-118" font-family="Helvetica,sans-Serif" font-size="10.00">::input_iterator_tag,</text>
<text text-anchor="middle" x="312" y="-106" font-family="Helvetica,sans-Serif" font-size="10.00"> Element const &gt;</text>
</g>
<!-- Node4&#45;&gt;Node2 -->
<g id="edge3" class="edge"><title>Node4&#45;&gt;Node2</title>
<path fill="none" stroke="midnightblue" d="M373.781,-129.854C384.7,-131.265 396.251,-132.757 407.676,-134.233"/>
<polygon fill="midnightblue" stroke="midnightblue" points="373.898,-126.34 363.532,-128.529 373.001,-133.282 373.898,-126.34"/>
</g>
<!-- Node5 -->
<g id="node5" class="node"><title>Node5</title>
<g id="a_node5"><a xlink:title="STL iterator class.">
<polygon fill="none" stroke="#bfbfbf" points="434.422,-78 434.422,-110 549.578,-110 549.578,-78 434.422,-78"/>
<text text-anchor="start" x="442.422" y="-96" font-family="Helvetica,sans-Serif" font-size="10.00">std::deque&lt; T &gt;::const</text>
<text text-anchor="middle" x="492" y="-84" font-family="Helvetica,sans-Serif" font-size="10.00">_iterator</text>
</a>
</g>
</g>
<!-- Node5&#45;&gt;Node1 -->
<g id="edge4" class="edge"><title>Node5&#45;&gt;Node1</title>
<path fill="none" stroke="#9a32cd" stroke-dasharray="5,2" d="M559.978,-94C602.127,-94 656.281,-94 698.203,-94"/>
<polygon fill="#9a32cd" stroke="#9a32cd" points="559.811,-90.5001 549.81,-94 559.81,-97.5001 559.811,-90.5001"/>
<text text-anchor="middle" x="637" y="-108" font-family="Helvetica,sans-Serif" font-size="10.00"> thisOperandEnd</text>
<text text-anchor="middle" x="637" y="-96" font-family="Helvetica,sans-Serif" font-size="10.00">thisOperandIterator</text>
</g>
<!-- Node6 -->
<g id="node6" class="node"><title>Node6</title>
<g id="a_node6"><a xlink:href="class_om_1_1_element.html" target="_top" xlink:title="An &quot;elemental&quot; Program comprised of a single item (or empty).">
<polygon fill="none" stroke="black" points="454.825,-39 454.825,-59 529.175,-59 529.175,-39 454.825,-39"/>
<text text-anchor="middle" x="492" y="-45" font-family="Helvetica,sans-Serif" font-size="10.00">Om::Element</text>
</a>
</g>
</g>
<!-- Node6&#45;&gt;Node1 -->
<g id="edge5" class="edge"><title>Node6&#45;&gt;Node1</title>
<path fill="none" stroke="#9a32cd" stroke-dasharray="5,2" d="M539.473,-55.7536C577.354,-61.3676 632.209,-69.7453 680,-78 690.679,-79.8446 702.098,-81.9382 712.967,-83.9888"/>
<polygon fill="#9a32cd" stroke="#9a32cd" points="539.663,-52.2437 529.259,-54.2459 538.64,-59.1687 539.663,-52.2437"/>
<text text-anchor="middle" x="637" y="-80" font-family="Helvetica,sans-Serif" font-size="10.00"> thisElement</text>
</g>
<!-- Node7 -->
<g id="node7" class="node"><title>Node7</title>
<g id="a_node7"><a xlink:href="class_om_1_1_program.html" target="_top" xlink:title="The Program implementation.">
<polygon fill="none" stroke="black" points="273.995,-39 273.995,-59 350.005,-59 350.005,-39 273.995,-39"/>
<text text-anchor="middle" x="312" y="-45" font-family="Helvetica,sans-Serif" font-size="10.00">Om::Program</text>
</a>
</g>
</g>
<!-- Node7&#45;&gt;Node6 -->
<g id="edge6" class="edge"><title>Node7&#45;&gt;Node6</title>
<path fill="none" stroke="midnightblue" d="M360.412,-49C389.976,-49 427.437,-49 454.648,-49"/>
<polygon fill="midnightblue" stroke="midnightblue" points="360.315,-45.5001 350.315,-49 360.315,-52.5001 360.315,-45.5001"/>
</g>
<!-- Node8 -->
<g id="node8" class="node"><title>Node8</title>
<g id="a_node8"><a xlink:href="class_om_1_1_giveable.html" target="_top" xlink:title="An object that can be copied or moved via Give.">
<polygon fill="none" stroke="black" points="129.434,-78 129.434,-98 206.566,-98 206.566,-78 129.434,-78"/>
<text text-anchor="middle" x="168" y="-84" font-family="Helvetica,sans-Serif" font-size="10.00">Om::Giveable</text>
</a>
</g>
</g>
<!-- Node8&#45;&gt;Node7 -->
<g id="edge7" class="edge"><title>Node8&#45;&gt;Node7</title>
<path fill="none" stroke="midnightblue" d="M215.331,-75.2752C234.549,-69.9972 256.519,-63.963 274.555,-59.0094"/>
<polygon fill="midnightblue" stroke="midnightblue" points="214.284,-71.933 205.569,-77.9565 216.138,-78.6831 214.284,-71.933"/>
</g>
<!-- Node9 -->
<g id="node9" class="node"><title>Node9</title>
<g id="a_node9"><a xlink:href="class_om_1_1_copyable.html" target="_top" xlink:title="An object that can be passed to Copy to be copied.">
<polygon fill="none" stroke="black" points="1.04199,-97 1.04199,-117 80.958,-117 80.958,-97 1.04199,-97"/>
<text text-anchor="middle" x="41" y="-103" font-family="Helvetica,sans-Serif" font-size="10.00">Om::Copyable</text>
</a>
</g>
</g>
<!-- Node9&#45;&gt;Node8 -->
<g id="edge8" class="edge"><title>Node9&#45;&gt;Node8</title>
<path fill="none" stroke="midnightblue" d="M91.1525,-99.5288C103.81,-97.6049 117.234,-95.5644 129.214,-93.7435"/>
<polygon fill="midnightblue" stroke="midnightblue" points="90.5683,-96.0773 81.2078,-101.04 91.6203,-102.998 90.5683,-96.0773"/>
</g>
<!-- Node10 -->
<g id="node10" class="node"><title>Node10</title>
<g id="a_node10"><a xlink:href="class_om_1_1_moveable.html" target="_top" xlink:title="An object that can be passed to Move to be moved.">
<polygon fill="none" stroke="black" points="0.487793,-58 0.487793,-78 81.5122,-78 81.5122,-58 0.487793,-58"/>
<text text-anchor="middle" x="41" y="-64" font-family="Helvetica,sans-Serif" font-size="10.00">Om::Moveable</text>
</a>
</g>
</g>
<!-- Node10&#45;&gt;Node8 -->
<g id="edge9" class="edge"><title>Node10&#45;&gt;Node8</title>
<path fill="none" stroke="midnightblue" d="M91.4797,-75.9168C104.111,-77.9377 117.485,-80.0775 129.411,-81.9858"/>
<polygon fill="midnightblue" stroke="midnightblue" points="91.9782,-72.4521 81.5508,-74.3281 90.8722,-79.3642 91.9782,-72.4521"/>
</g>
<!-- Node11 -->
<g id="node11" class="node"><title>Node11</title>
<g id="a_node11"><a xlink:href="class_om_1_1_queue.html" target="_top" xlink:title="A first&#45;in, first&#45;out Element processor.">
<polygon fill="none" stroke="black" points="134.155,-39 134.155,-59 201.845,-59 201.845,-39 134.155,-39"/>
<text text-anchor="middle" x="168" y="-45" font-family="Helvetica,sans-Serif" font-size="10.00">Om::Queue</text>
</a>
</g>
</g>
<!-- Node11&#45;&gt;Node7 -->
<g id="edge10" class="edge"><title>Node11&#45;&gt;Node7</title>
<path fill="none" stroke="midnightblue" d="M212.201,-49C231.935,-49 255.071,-49 273.992,-49"/>
<polygon fill="midnightblue" stroke="midnightblue" points="211.935,-45.5001 201.935,-49 211.935,-52.5001 211.935,-45.5001"/>
</g>
<!-- Node12 -->
<g id="node12" class="node"><title>Node12</title>
<g id="a_node12"><a xlink:href="class_om_1_1_shareable.html" target="_top" xlink:title="Om::Shareable\&lt;\&gt;">
<polygon fill="none" stroke="black" points="120.532,-0 120.532,-20 215.468,-20 215.468,-0 120.532,-0"/>
<text text-anchor="middle" x="168" y="-6" font-family="Helvetica,sans-Serif" font-size="10.00">Om::Shareable&lt;&gt;</text>
</a>
</g>
</g>
<!-- Node12&#45;&gt;Node7 -->
<g id="edge11" class="edge"><title>Node12&#45;&gt;Node7</title>
<path fill="none" stroke="midnightblue" d="M215.331,-22.7248C234.549,-28.0028 256.519,-34.037 274.555,-38.9906"/>
<polygon fill="midnightblue" stroke="midnightblue" points="216.138,-19.3169 205.569,-20.0435 214.284,-26.067 216.138,-19.3169"/>
</g>
</g>
</svg>
