<?xml version="1.0" encoding="UTF-8" standalone="no"?>
<!DOCTYPE svg PUBLIC "-//W3C//DTD SVG 1.1//EN"
 "http://www.w3.org/Graphics/SVG/1.1/DTD/svg11.dtd">
<!-- Generated by graphviz version 2.30.1 (20130221.2233)
 -->
<!-- Title: Om::Sinks::CodePointSink&lt; ThisCodeUnitIterator &gt; Pages: 1 -->
<svg width="574pt" height="113pt"
 viewBox="0.00 0.00 574.00 113.00" xmlns="http://www.w3.org/2000/svg" xmlns:xlink="http://www.w3.org/1999/xlink">
<g id="graph0" class="graph" transform="scale(1 1) rotate(0) translate(4 109)">
<title>Om::Sinks::CodePointSink&lt; ThisCodeUnitIterator &gt;</title>
<!-- Node1 -->
<g id="node1" class="node"><title>Node1</title>
<polygon fill="#bfbfbf" stroke="black" points="432.086,-13 432.086,-45 565.914,-45 565.914,-13 432.086,-13"/>
<text text-anchor="start" x="440.086" y="-31" font-family="Helvetica,sans-Serif" font-size="10.00">Om::Sinks::CodePointSink</text>
<text text-anchor="middle" x="499" y="-19" font-family="Helvetica,sans-Serif" font-size="10.00">&lt; ThisCodeUnitIterator &gt;</text>
</g>
<!-- Node2 -->
<g id="node2" class="node"><title>Node2</title>
<g id="a_node2"><a xlink:href="class_om_1_1_sinks_1_1_default_sink.html" target="_top" xlink:title="Om::Sinks::DefaultSink\l\&lt; CodePoint const, CodePoint\lSink\&lt; ThisCodeUnitIterator \&gt; \&gt;">
<polygon fill="none" stroke="black" points="150.304,-39 150.304,-83 303.696,-83 303.696,-39 150.304,-39"/>
<text text-anchor="start" x="158.304" y="-69" font-family="Helvetica,sans-Serif" font-size="10.00">Om::Sinks::DefaultSink</text>
<text text-anchor="start" x="158.304" y="-57" font-family="Helvetica,sans-Serif" font-size="10.00">&lt; CodePoint const, CodePoint</text>
<text text-anchor="middle" x="227" y="-45" font-family="Helvetica,sans-Serif" font-size="10.00">Sink&lt; ThisCodeUnitIterator &gt; &gt;</text>
</a>
</g>
</g>
<!-- Node2&#45;&gt;Node1 -->
<g id="edge1" class="edge"><title>Node2&#45;&gt;Node1</title>
<path fill="none" stroke="midnightblue" d="M313.997,-50.8077C352.134,-46.2878 396.308,-41.0524 431.813,-36.8444"/>
<polygon fill="midnightblue" stroke="midnightblue" points="313.447,-47.3483 303.929,-52.0011 314.271,-54.2997 313.447,-47.3483"/>
</g>
<!-- Node3 -->
<g id="node3" class="node"><title>Node3</title>
<g id="a_node3"><a xlink:href="class_om_1_1_sink.html" target="_top" xlink:title="Om::Sink\&lt; CodePoint\l const &#160;\&gt;">
<polygon fill="none" stroke="black" points="-0.217773,-73 -0.217773,-105 112.218,-105 112.218,-73 -0.217773,-73"/>
<text text-anchor="start" x="7.78223" y="-91" font-family="Helvetica,sans-Serif" font-size="10.00">Om::Sink&lt; CodePoint</text>
<text text-anchor="middle" x="56" y="-79" font-family="Helvetica,sans-Serif" font-size="10.00"> const &gt;</text>
</a>
</g>
</g>
<!-- Node3&#45;&gt;Node2 -->
<g id="edge2" class="edge"><title>Node3&#45;&gt;Node2</title>
<path fill="none" stroke="midnightblue" d="M122.468,-78.1533C131.579,-76.6437 141.002,-75.0825 150.282,-73.545"/>
<polygon fill="midnightblue" stroke="midnightblue" points="121.63,-74.7442 112.337,-79.8318 122.775,-81.6501 121.63,-74.7442"/>
</g>
<!-- Node4 -->
<g id="node4" class="node"><title>Node4</title>
<polygon fill="none" stroke="#bfbfbf" points="1.85742,-10 1.85742,-54 110.143,-54 110.143,-10 1.85742,-10"/>
<text text-anchor="start" x="9.85742" y="-40" font-family="Helvetica,sans-Serif" font-size="10.00">std::iterator&lt; std</text>
<text text-anchor="start" x="9.85742" y="-28" font-family="Helvetica,sans-Serif" font-size="10.00">::output_iterator_tag,</text>
<text text-anchor="middle" x="56" y="-16" font-family="Helvetica,sans-Serif" font-size="10.00"> CodePoint const &gt;</text>
</g>
<!-- Node4&#45;&gt;Node2 -->
<g id="edge3" class="edge"><title>Node4&#45;&gt;Node2</title>
<path fill="none" stroke="midnightblue" d="M120.385,-42.8767C130.056,-44.5362 140.121,-46.2633 150.028,-47.9634"/>
<polygon fill="midnightblue" stroke="midnightblue" points="120.921,-39.4175 110.473,-41.1758 119.737,-46.3167 120.921,-39.4175"/>
</g>
<!-- Node5 -->
<g id="node5" class="node"><title>Node5</title>
<polygon fill="none" stroke="#bfbfbf" points="172.87,-0 172.87,-20 281.13,-20 281.13,-0 172.87,-0"/>
<text text-anchor="middle" x="227" y="-6" font-family="Helvetica,sans-Serif" font-size="10.00">ThisCodeUnitIterator</text>
</g>
<!-- Node5&#45;&gt;Node1 -->
<g id="edge4" class="edge"><title>Node5&#45;&gt;Node1</title>
<path fill="none" stroke="#9a32cd" stroke-dasharray="5,2" d="M291.656,-14.4249C327.58,-16.9281 373.296,-20.1239 414,-23 419.834,-23.4122 425.895,-23.8421 431.971,-24.274"/>
<polygon fill="#9a32cd" stroke="#9a32cd" points="291.537,-10.9083 281.318,-13.7048 291.051,-17.8913 291.537,-10.9083"/>
<text text-anchor="middle" x="368" y="-25" font-family="Helvetica,sans-Serif" font-size="10.00"> thisCodeUnitIterator</text>
</g>
</g>
</svg>
