<?xml version="1.0" encoding="UTF-8" standalone="no"?>
<!DOCTYPE svg PUBLIC "-//W3C//DTD SVG 1.1//EN"
 "http://www.w3.org/Graphics/SVG/1.1/DTD/svg11.dtd">
<!-- Generated by graphviz version 2.36.0 (20140111.2315)
 -->
<!-- Title: Om::Source::CodePointSource&lt; ThisCodeUnitIterator &gt; Pages: 1 -->
<svg width="596pt" height="104pt"
 viewBox="0.00 0.00 596.00 104.00" xmlns="http://www.w3.org/2000/svg" xmlns:xlink="http://www.w3.org/1999/xlink">
<g id="graph0" class="graph" transform="scale(1 1) rotate(0) translate(4 100)">
<title>Om::Source::CodePointSource&lt; ThisCodeUnitIterator &gt;</title>
<!-- Node1 -->
<g id="node1" class="node"><title>Node1</title>
<polygon fill="#bfbfbf" stroke="black" points="434.355,-15 434.355,-43 587.645,-43 587.645,-15 434.355,-15"/>
<text text-anchor="start" x="442.355" y="-31" font-family="Helvetica,sans-Serif" font-size="10.00">Om::Source::CodePointSource</text>
<text text-anchor="middle" x="511" y="-21" font-family="Helvetica,sans-Serif" font-size="10.00">&lt; ThisCodeUnitIterator &gt;</text>
</g>
<!-- Node2 -->
<g id="node2" class="node"><title>Node2</title>
<g id="a_node2"><a xlink:href="class_om_1_1_source_1_1_default_source.html" target="_top" xlink:title="Om::Source::DefaultSource\l\&lt; CodePoint const, CodePointSource\l\&lt; ThisCodeUnitIterator \&gt; \&gt;">
<polygon fill="none" stroke="black" points="146.031,-37 146.031,-75 327.969,-75 327.969,-37 146.031,-37"/>
<text text-anchor="start" x="154.031" y="-63" font-family="Helvetica,sans-Serif" font-size="10.00">Om::Source::DefaultSource</text>
<text text-anchor="start" x="154.031" y="-53" font-family="Helvetica,sans-Serif" font-size="10.00">&lt; CodePoint const, CodePointSource</text>
<text text-anchor="middle" x="237" y="-43" font-family="Helvetica,sans-Serif" font-size="10.00">&lt; ThisCodeUnitIterator &gt; &gt;</text>
</a>
</g>
</g>
<!-- Node2&#45;&gt;Node1 -->
<g id="edge1" class="edge"><title>Node2&#45;&gt;Node1</title>
<path fill="none" stroke="midnightblue" d="M338.369,-46.0369C370.035,-42.8936 404.474,-39.475 434.135,-36.5307"/>
<polygon fill="midnightblue" stroke="midnightblue" points="337.8,-42.5761 328.194,-47.0469 338.491,-49.5419 337.8,-42.5761"/>
</g>
<!-- Node3 -->
<g id="node3" class="node"><title>Node3</title>
<g id="a_node3"><a xlink:href="class_om_1_1_source_1_1_source.html" target="_top" xlink:title="Om::Source::Source\l\&lt; CodePoint const &#160;\&gt;">
<polygon fill="none" stroke="black" points="0.692383,-68 0.692383,-96 107.308,-96 107.308,-68 0.692383,-68"/>
<text text-anchor="start" x="8.69238" y="-84" font-family="Helvetica,sans-Serif" font-size="10.00">Om::Source::Source</text>
<text text-anchor="middle" x="54" y="-74" font-family="Helvetica,sans-Serif" font-size="10.00">&lt; CodePoint const &gt;</text>
</a>
</g>
</g>
<!-- Node3&#45;&gt;Node2 -->
<g id="edge2" class="edge"><title>Node3&#45;&gt;Node2</title>
<path fill="none" stroke="midnightblue" d="M117.515,-73.02C126.696,-71.7011 136.304,-70.3209 145.906,-68.9417"/>
<polygon fill="midnightblue" stroke="midnightblue" points="116.753,-69.5933 107.353,-74.4797 117.749,-76.5222 116.753,-69.5933"/>
</g>
<!-- Node4 -->
<g id="node4" class="node"><title>Node4</title>
<polygon fill="none" stroke="#bfbfbf" points="2.9165,-11 2.9165,-49 105.083,-49 105.083,-11 2.9165,-11"/>
<text text-anchor="start" x="10.9165" y="-37" font-family="Helvetica,sans-Serif" font-size="10.00">std::iterator&lt; std</text>
<text text-anchor="start" x="10.9165" y="-27" font-family="Helvetica,sans-Serif" font-size="10.00">::input_iterator_tag,</text>
<text text-anchor="middle" x="54" y="-17" font-family="Helvetica,sans-Serif" font-size="10.00"> CodePoint const &gt;</text>
</g>
<!-- Node4&#45;&gt;Node2 -->
<g id="edge3" class="edge"><title>Node4&#45;&gt;Node2</title>
<path fill="none" stroke="midnightblue" d="M115.447,-38.6829C125.276,-40.095 135.64,-41.5837 145.995,-43.0711"/>
<polygon fill="midnightblue" stroke="midnightblue" points="115.815,-35.2 105.419,-37.2424 114.819,-42.1288 115.815,-35.2"/>
</g>
<!-- Node5 -->
<g id="node5" class="node"><title>Node5</title>
<polygon fill="none" stroke="#bfbfbf" points="182.87,-0 182.87,-18 291.13,-18 291.13,-0 182.87,-0"/>
<text text-anchor="middle" x="237" y="-6" font-family="Helvetica,sans-Serif" font-size="10.00">ThisCodeUnitIterator</text>
</g>
<!-- Node5&#45;&gt;Node1 -->
<g id="edge4" class="edge"><title>Node5&#45;&gt;Node1</title>
<path fill="none" stroke="#9a32cd" stroke-dasharray="5,2" d="M301.699,-9.99116C335.678,-10.9016 378.171,-12.6485 416,-16 421.908,-16.5234 428.013,-17.1567 434.143,-17.8586"/>
<polygon fill="#9a32cd" stroke="#9a32cd" points="301.526,-6.48583 291.441,-9.73459 301.351,-13.4836 301.526,-6.48583"/>
<text text-anchor="middle" x="381" y="-28" font-family="Helvetica,sans-Serif" font-size="10.00"> thisInputEnd</text>
<text text-anchor="middle" x="381" y="-18" font-family="Helvetica,sans-Serif" font-size="10.00">thisInputIterator</text>
</g>
</g>
</svg>
