<?xml version="1.0" encoding="UTF-8" standalone="no"?>
<!DOCTYPE svg PUBLIC "-//W3C//DTD SVG 1.1//EN"
 "http://www.w3.org/Graphics/SVG/1.1/DTD/svg11.dtd">
<!-- Generated by graphviz version 2.36.0 (20140111.2315)
 -->
<!-- Title: Om::Language::Operand Pages: 1 -->
<svg width="1570pt" height="98pt"
 viewBox="0.00 0.00 1570.00 98.00" xmlns="http://www.w3.org/2000/svg" xmlns:xlink="http://www.w3.org/1999/xlink">
<g id="graph0" class="graph" transform="scale(1 1) rotate(0) translate(4 94)">
<title>Om::Language::Operand</title>
<!-- Node1 -->
<g id="node1" class="node"><title>Node1</title>
<g id="a_node1"><a xlink:title="The Operand implementation.">
<polygon fill="#bfbfbf" stroke="black" points="1434.69,-22 1434.69,-40 1561.31,-40 1561.31,-22 1434.69,-22"/>
<text text-anchor="middle" x="1498" y="-28" font-family="Helvetica,sans-Serif" font-size="10.00">Om::Language::Operand</text>
</a>
</g>
</g>
<!-- Node2 -->
<g id="node2" class="node"><title>Node2</title>
<g id="a_node2"><a xlink:href="class_om_1_1_language_1_1_default_element.html" target="_top" xlink:title=" ">
<polygon fill="none" stroke="black" points="1239.96,-43 1239.96,-71 1396.04,-71 1396.04,-43 1239.96,-43"/>
<text text-anchor="start" x="1247.96" y="-59" font-family="Helvetica,sans-Serif" font-size="10.00">Om::Language::DefaultElement</text>
<text text-anchor="middle" x="1318" y="-49" font-family="Helvetica,sans-Serif" font-size="10.00">&lt; Operand &gt;</text>
</a>
</g>
</g>
<!-- Node2&#45;&gt;Node1 -->
<g id="edge1" class="edge"><title>Node2&#45;&gt;Node1</title>
<path fill="none" stroke="midnightblue" d="M1406.43,-44.2291C1416.18,-42.8044 1425.96,-41.3762 1435.3,-40.0127"/>
<polygon fill="midnightblue" stroke="midnightblue" points="1405.69,-40.8008 1396.3,-45.7095 1406.7,-47.7273 1405.69,-40.8008"/>
</g>
<!-- Node3 -->
<g id="node3" class="node"><title>Node3</title>
<g id="a_node3"><a xlink:href="class_om_1_1_language_1_1_default_program.html" target="_top" xlink:title="A partial implementation of Program.">
<polygon fill="none" stroke="black" points="878.248,-43 878.248,-71 1061.75,-71 1061.75,-43 878.248,-43"/>
<text text-anchor="start" x="886.248" y="-59" font-family="Helvetica,sans-Serif" font-size="10.00">Om::Language::DefaultProgram</text>
<text text-anchor="middle" x="970" y="-49" font-family="Helvetica,sans-Serif" font-size="10.00">&lt; ThisImplementation, ThisInterface &gt;</text>
</a>
</g>
</g>
<!-- Node3&#45;&gt;Node2 -->
<g id="edge2" class="edge"><title>Node3&#45;&gt;Node2</title>
<path fill="none" stroke="midnightblue" d="M1072.12,-57C1125.68,-57 1190.42,-57 1239.88,-57"/>
<polygon fill="midnightblue" stroke="midnightblue" points="1071.91,-53.5001 1061.91,-57 1071.91,-60.5001 1071.91,-53.5001"/>
</g>
<!-- Node4 -->
<g id="node4" class="node"><title>Node4</title>
<g id="a_node4"><a xlink:href="class_om_1_1_language_1_1_default_consumer.html" target="_top" xlink:title=" ">
<polygon fill="none" stroke="black" points="651.794,-42 651.794,-90 840.206,-90 840.206,-42 651.794,-42"/>
<text text-anchor="start" x="659.794" y="-78" font-family="Helvetica,sans-Serif" font-size="10.00">Om::Language::DefaultConsumer</text>
<text text-anchor="start" x="659.794" y="-68" font-family="Helvetica,sans-Serif" font-size="10.00">&lt; ThisImplementation, DefaultGiveable</text>
<text text-anchor="start" x="659.794" y="-58" font-family="Helvetica,sans-Serif" font-size="10.00">&lt; ThisImplementation, Om::Language</text>
<text text-anchor="middle" x="746" y="-48" font-family="Helvetica,sans-Serif" font-size="10.00">::Program &gt; &gt;</text>
</a>
</g>
</g>
<!-- Node4&#45;&gt;Node3 -->
<g id="edge3" class="edge"><title>Node4&#45;&gt;Node3</title>
<path fill="none" stroke="midnightblue" d="M850.765,-61.7933C859.89,-61.4234 869.08,-61.0508 878.087,-60.6856"/>
<polygon fill="midnightblue" stroke="midnightblue" points="850.355,-58.307 840.505,-62.2093 850.638,-65.3012 850.355,-58.307"/>
</g>
<!-- Node5 -->
<g id="node5" class="node"><title>Node5</title>
<g id="a_node5"><a xlink:href="class_om_1_1_default_giveable.html" target="_top" xlink:title="A partial implementation of Giveable.">
<polygon fill="none" stroke="black" points="499.759,-47 499.759,-85 614.241,-85 614.241,-47 499.759,-47"/>
<text text-anchor="start" x="507.759" y="-73" font-family="Helvetica,sans-Serif" font-size="10.00">Om::DefaultGiveable</text>
<text text-anchor="start" x="507.759" y="-63" font-family="Helvetica,sans-Serif" font-size="10.00">&lt; ThisImplementation,</text>
<text text-anchor="middle" x="557" y="-53" font-family="Helvetica,sans-Serif" font-size="10.00"> ThisInterface &gt;</text>
</a>
</g>
</g>
<!-- Node5&#45;&gt;Node4 -->
<g id="edge4" class="edge"><title>Node5&#45;&gt;Node4</title>
<path fill="none" stroke="midnightblue" d="M624.544,-66C633.376,-66 642.558,-66 651.736,-66"/>
<polygon fill="midnightblue" stroke="midnightblue" points="624.36,-62.5001 614.36,-66 624.36,-69.5001 624.36,-62.5001"/>
</g>
<!-- Node6 -->
<g id="node6" class="node"><title>Node6</title>
<g id="a_node6"><a xlink:href="class_om_1_1_default_moveable.html" target="_top" xlink:title=" ">
<polygon fill="none" stroke="black" points="270.402,-42 270.402,-90 461.598,-90 461.598,-42 270.402,-42"/>
<text text-anchor="start" x="278.402" y="-78" font-family="Helvetica,sans-Serif" font-size="10.00">Om::DefaultMoveable</text>
<text text-anchor="start" x="278.402" y="-68" font-family="Helvetica,sans-Serif" font-size="10.00">&lt; ThisImplementation,</text>
<text text-anchor="start" x="278.402" y="-58" font-family="Helvetica,sans-Serif" font-size="10.00"> DefaultCopyable&lt; ThisImplementation,</text>
<text text-anchor="middle" x="366" y="-48" font-family="Helvetica,sans-Serif" font-size="10.00"> Giveable &gt; &gt;</text>
</a>
</g>
</g>
<!-- Node6&#45;&gt;Node5 -->
<g id="edge5" class="edge"><title>Node6&#45;&gt;Node5</title>
<path fill="none" stroke="midnightblue" d="M471.803,-66C481.391,-66 490.835,-66 499.735,-66"/>
<polygon fill="midnightblue" stroke="midnightblue" points="471.777,-62.5001 461.777,-66 471.777,-69.5001 471.777,-62.5001"/>
</g>
<!-- Node7 -->
<g id="node7" class="node"><title>Node7</title>
<g id="a_node7"><a xlink:href="class_om_1_1_default_copyable.html" target="_top" xlink:title="A partial implementation of Copyable.">
<polygon fill="none" stroke="black" points="117.759,-47 117.759,-85 232.241,-85 232.241,-47 117.759,-47"/>
<text text-anchor="start" x="125.759" y="-73" font-family="Helvetica,sans-Serif" font-size="10.00">Om::DefaultCopyable</text>
<text text-anchor="start" x="125.759" y="-63" font-family="Helvetica,sans-Serif" font-size="10.00">&lt; ThisImplementation,</text>
<text text-anchor="middle" x="175" y="-53" font-family="Helvetica,sans-Serif" font-size="10.00"> ThisInterface &gt;</text>
</a>
</g>
</g>
<!-- Node7&#45;&gt;Node6 -->
<g id="edge6" class="edge"><title>Node7&#45;&gt;Node6</title>
<path fill="none" stroke="midnightblue" d="M242.465,-66C251.493,-66 260.897,-66 270.304,-66"/>
<polygon fill="midnightblue" stroke="midnightblue" points="242.45,-62.5001 232.45,-66 242.45,-69.5001 242.45,-62.5001"/>
</g>
<!-- Node8 -->
<g id="node8" class="node"><title>Node8</title>
<g id="a_node8"><a xlink:href="class_om_1_1_copyable.html" target="_top" xlink:title="An object that can be passed to Copy to be copied.">
<polygon fill="none" stroke="black" points="0.0419922,-57 0.0419922,-75 79.958,-75 79.958,-57 0.0419922,-57"/>
<text text-anchor="middle" x="40" y="-63" font-family="Helvetica,sans-Serif" font-size="10.00">Om::Copyable</text>
</a>
</g>
</g>
<!-- Node8&#45;&gt;Node7 -->
<g id="edge7" class="edge"><title>Node8&#45;&gt;Node7</title>
<path fill="none" stroke="midnightblue" d="M90.2925,-66C99.1067,-66 108.354,-66 117.355,-66"/>
<polygon fill="midnightblue" stroke="midnightblue" points="90.1851,-62.5001 80.185,-66 90.185,-69.5001 90.1851,-62.5001"/>
</g>
<!-- Node9 -->
<g id="node9" class="node"><title>Node9</title>
<g id="a_node9"><a xlink:href="class_om_1_1_taker.html" target="_top" xlink:title="An object that can take (copy or swap) another of the same type.">
<polygon fill="none" stroke="black" points="662.78,-5 662.78,-23 829.22,-23 829.22,-5 662.78,-5"/>
<text text-anchor="middle" x="746" y="-11" font-family="Helvetica,sans-Serif" font-size="10.00">Om::Taker&lt; ThisImplementation &gt;</text>
</a>
</g>
</g>
<!-- Node9&#45;&gt;Node3 -->
<g id="edge8" class="edge"><title>Node9&#45;&gt;Node3</title>
<path fill="none" stroke="midnightblue" d="M803.728,-24.9773C815.706,-27.2959 828.269,-29.7281 840,-32 858.365,-35.5568 878.2,-39.4 896.68,-42.9813"/>
<polygon fill="midnightblue" stroke="midnightblue" points="804.318,-21.5266 793.835,-23.0625 802.988,-28.3991 804.318,-21.5266"/>
</g>
<!-- Node10 -->
<g id="node10" class="node"><title>Node10</title>
<g id="a_node10"><a xlink:href="class_om_1_1_owner.html" target="_top" xlink:title=" ">
<polygon fill="none" stroke="black" points="1080.05,-0 1080.05,-28 1221.95,-28 1221.95,-0 1080.05,-0"/>
<text text-anchor="start" x="1088.05" y="-16" font-family="Helvetica,sans-Serif" font-size="10.00">Om::Owner&lt; Om::Language</text>
<text text-anchor="middle" x="1151" y="-6" font-family="Helvetica,sans-Serif" font-size="10.00">::Program &gt;</text>
</a>
</g>
</g>
<!-- Node9&#45;&gt;Node10 -->
<g id="edge10" class="edge"><title>Node9&#45;&gt;Node10</title>
<path fill="none" stroke="midnightblue" d="M839.666,-14C912.866,-14 1013.44,-14 1080.01,-14"/>
<polygon fill="midnightblue" stroke="midnightblue" points="839.526,-10.5001 829.526,-14 839.525,-17.5001 839.526,-10.5001"/>
</g>
<!-- Node10&#45;&gt;Node1 -->
<g id="edge9" class="edge"><title>Node10&#45;&gt;Node1</title>
<path fill="none" stroke="#9a32cd" stroke-dasharray="5,2" d="M1232.23,-16.1076C1279.85,-17.5709 1341.4,-19.8318 1396,-23 1408.47,-23.7234 1421.79,-24.6609 1434.53,-25.6381"/>
<polygon fill="#9a32cd" stroke="#9a32cd" points="1232.08,-12.6016 1221.98,-15.7983 1231.87,-19.5984 1232.08,-12.6016"/>
<text text-anchor="middle" x="1318" y="-25" font-family="Helvetica,sans-Serif" font-size="10.00"> thisProgram</text>
</g>
</g>
</svg>
