<?xml version="1.0" encoding="UTF-8" standalone="no"?>
<!DOCTYPE svg PUBLIC "-//W3C//DTD SVG 1.1//EN"
 "http://www.w3.org/Graphics/SVG/1.1/DTD/svg11.dtd">
<!-- Generated by graphviz version 2.34.0 (20130907.0228)
 -->
<!-- Title: Om::Lexicon Pages: 1 -->
<svg width="1084pt" height="149pt"
 viewBox="0.00 0.00 1084.00 149.00" xmlns="http://www.w3.org/2000/svg" xmlns:xlink="http://www.w3.org/1999/xlink">
<g id="graph0" class="graph" transform="scale(1 1) rotate(0) translate(4 145)">
<title>Om::Lexicon</title>
<!-- Node1 -->
<g id="node1" class="node"><title>Node1</title>
<polygon fill="#bfbfbf" stroke="black" points="1003.93,-39 1003.93,-59 1076.07,-59 1076.07,-39 1003.93,-39"/>
<text text-anchor="middle" x="1040" y="-45" font-family="Helvetica,sans-Serif" font-size="10.00">Om::Lexicon</text>
</g>
<!-- Node2 -->
<g id="node2" class="node"><title>Node2</title>
<g id="a_node2"><a xlink:href="class_om_1_1_default_program.html" target="_top" xlink:title="Om::DefaultProgram\l\&lt; Lexicon \&gt;">
<polygon fill="none" stroke="black" points="808.153,-78 808.153,-110 915.847,-110 915.847,-78 808.153,-78"/>
<text text-anchor="start" x="816.153" y="-96" font-family="Helvetica,sans-Serif" font-size="10.00">Om::DefaultProgram</text>
<text text-anchor="middle" x="862" y="-84" font-family="Helvetica,sans-Serif" font-size="10.00">&lt; Lexicon &gt;</text>
</a>
</g>
</g>
<!-- Node2&#45;&gt;Node1 -->
<g id="edge1" class="edge"><title>Node2&#45;&gt;Node1</title>
<path fill="none" stroke="midnightblue" d="M925.897,-78.2941C945.192,-73.4366 966.48,-68.0378 986,-63 991.713,-61.5255 997.768,-59.944 1003.66,-58.3939"/>
<polygon fill="midnightblue" stroke="midnightblue" points="924.853,-74.9475 916.008,-80.7801 926.56,-81.7363 924.853,-74.9475"/>
</g>
<!-- Node3 -->
<g id="node3" class="node"><title>Node3</title>
<g id="a_node3"><a xlink:href="class_om_1_1_default_consumer.html" target="_top" xlink:title="Om::DefaultConsumer\l\&lt; Lexicon, DefaultGiveable\l\&lt; Lexicon, ThisInterface \&gt; \&gt;">
<polygon fill="none" stroke="black" points="630.247,-97 630.247,-141 769.753,-141 769.753,-97 630.247,-97"/>
<text text-anchor="start" x="638.247" y="-127" font-family="Helvetica,sans-Serif" font-size="10.00">Om::DefaultConsumer</text>
<text text-anchor="start" x="638.247" y="-115" font-family="Helvetica,sans-Serif" font-size="10.00">&lt; Lexicon, DefaultGiveable</text>
<text text-anchor="middle" x="700" y="-103" font-family="Helvetica,sans-Serif" font-size="10.00">&lt; Lexicon, ThisInterface &gt; &gt;</text>
</a>
</g>
</g>
<!-- Node3&#45;&gt;Node2 -->
<g id="edge2" class="edge"><title>Node3&#45;&gt;Node2</title>
<path fill="none" stroke="midnightblue" d="M779.663,-106.709C789.175,-105.223 798.712,-103.732 807.736,-102.322"/>
<polygon fill="midnightblue" stroke="midnightblue" points="779.123,-103.251 769.783,-108.253 780.203,-110.167 779.123,-103.251"/>
</g>
<!-- Node4 -->
<g id="node4" class="node"><title>Node4</title>
<g id="a_node4"><a xlink:href="class_om_1_1_default_giveable.html" target="_top" xlink:title="Om::DefaultGiveable\l\&lt; Lexicon, ThisInterface \&gt;">
<polygon fill="none" stroke="black" points="460.556,-103 460.556,-135 591.444,-135 591.444,-103 460.556,-103"/>
<text text-anchor="start" x="468.556" y="-121" font-family="Helvetica,sans-Serif" font-size="10.00">Om::DefaultGiveable</text>
<text text-anchor="middle" x="526" y="-109" font-family="Helvetica,sans-Serif" font-size="10.00">&lt; Lexicon, ThisInterface &gt;</text>
</a>
</g>
</g>
<!-- Node4&#45;&gt;Node3 -->
<g id="edge3" class="edge"><title>Node4&#45;&gt;Node3</title>
<path fill="none" stroke="midnightblue" d="M601.679,-119C611.114,-119 620.734,-119 630.075,-119"/>
<polygon fill="midnightblue" stroke="midnightblue" points="601.536,-115.5 591.536,-119 601.536,-122.5 601.536,-115.5"/>
</g>
<!-- Node5 -->
<g id="node5" class="node"><title>Node5</title>
<g id="a_node5"><a xlink:href="class_om_1_1_default_moveable.html" target="_top" xlink:title="Om::DefaultMoveable\l\&lt; Lexicon, DefaultCopyable\l\&lt; Lexicon, ThisInterface \&gt; \&gt;">
<polygon fill="none" stroke="black" points="282.247,-97 282.247,-141 421.753,-141 421.753,-97 282.247,-97"/>
<text text-anchor="start" x="290.247" y="-127" font-family="Helvetica,sans-Serif" font-size="10.00">Om::DefaultMoveable</text>
<text text-anchor="start" x="290.247" y="-115" font-family="Helvetica,sans-Serif" font-size="10.00">&lt; Lexicon, DefaultCopyable</text>
<text text-anchor="middle" x="352" y="-103" font-family="Helvetica,sans-Serif" font-size="10.00">&lt; Lexicon, ThisInterface &gt; &gt;</text>
</a>
</g>
</g>
<!-- Node5&#45;&gt;Node4 -->
<g id="edge4" class="edge"><title>Node5&#45;&gt;Node4</title>
<path fill="none" stroke="midnightblue" d="M432.184,-119C441.66,-119 451.246,-119 460.479,-119"/>
<polygon fill="midnightblue" stroke="midnightblue" points="431.968,-115.5 421.968,-119 431.968,-122.5 431.968,-115.5"/>
</g>
<!-- Node6 -->
<g id="node6" class="node"><title>Node6</title>
<g id="a_node6"><a xlink:href="class_om_1_1_default_copyable.html" target="_top" xlink:title="Om::DefaultCopyable\l\&lt; Lexicon, ThisInterface \&gt;">
<polygon fill="none" stroke="black" points="112.556,-103 112.556,-135 243.444,-135 243.444,-103 112.556,-103"/>
<text text-anchor="start" x="120.556" y="-121" font-family="Helvetica,sans-Serif" font-size="10.00">Om::DefaultCopyable</text>
<text text-anchor="middle" x="178" y="-109" font-family="Helvetica,sans-Serif" font-size="10.00">&lt; Lexicon, ThisInterface &gt;</text>
</a>
</g>
</g>
<!-- Node6&#45;&gt;Node5 -->
<g id="edge5" class="edge"><title>Node6&#45;&gt;Node5</title>
<path fill="none" stroke="midnightblue" d="M253.679,-119C263.114,-119 272.734,-119 282.075,-119"/>
<polygon fill="midnightblue" stroke="midnightblue" points="253.536,-115.5 243.536,-119 253.536,-122.5 253.536,-115.5"/>
</g>
<!-- Node7 -->
<g id="node7" class="node"><title>Node7</title>
<polygon fill="none" stroke="#bfbfbf" points="0.0986328,-109 0.0986328,-129 73.9014,-129 73.9014,-109 0.0986328,-109"/>
<text text-anchor="middle" x="37" y="-115" font-family="Helvetica,sans-Serif" font-size="10.00">ThisInterface</text>
</g>
<!-- Node7&#45;&gt;Node6 -->
<g id="edge6" class="edge"><title>Node7&#45;&gt;Node6</title>
<path fill="none" stroke="midnightblue" d="M84.4196,-119C93.4255,-119 103.015,-119 112.48,-119"/>
<polygon fill="midnightblue" stroke="midnightblue" points="84.1578,-115.5 74.1578,-119 84.1577,-122.5 84.1578,-115.5"/>
</g>
<!-- Node8 -->
<g id="node8" class="node"><title>Node8</title>
<g id="a_node8"><a xlink:href="class_om_1_1_taker.html" target="_top" xlink:title="Om::Taker\&lt; Lexicon \&gt;">
<polygon fill="none" stroke="black" points="643.089,-58 643.089,-78 756.911,-78 756.911,-58 643.089,-58"/>
<text text-anchor="middle" x="700" y="-64" font-family="Helvetica,sans-Serif" font-size="10.00">Om::Taker&lt; Lexicon &gt;</text>
</a>
</g>
</g>
<!-- Node8&#45;&gt;Node2 -->
<g id="edge7" class="edge"><title>Node8&#45;&gt;Node2</title>
<path fill="none" stroke="midnightblue" d="M767.225,-78.7616C780.824,-80.9714 794.97,-83.2702 808.028,-85.392"/>
<polygon fill="midnightblue" stroke="midnightblue" points="767.392,-75.2429 756.96,-77.0935 766.269,-82.1523 767.392,-75.2429"/>
</g>
<!-- Node9 -->
<g id="node9" class="node"><title>Node9</title>
<g id="a_node9"><a xlink:href="class_om_1_1_translator.html" target="_top" xlink:title="An Operator lookup for use by an Evaluator. ">
<polygon fill="none" stroke="black" points="820.843,-39 820.843,-59 903.157,-59 903.157,-39 820.843,-39"/>
<text text-anchor="middle" x="862" y="-45" font-family="Helvetica,sans-Serif" font-size="10.00">Om::Translator</text>
</a>
</g>
</g>
<!-- Node9&#45;&gt;Node1 -->
<g id="edge8" class="edge"><title>Node9&#45;&gt;Node1</title>
<path fill="none" stroke="midnightblue" d="M913.693,-49C942.58,-49 978.049,-49 1003.87,-49"/>
<polygon fill="midnightblue" stroke="midnightblue" points="913.378,-45.5001 903.378,-49 913.378,-52.5001 913.378,-45.5001"/>
</g>
<!-- Node10 -->
<g id="node10" class="node"><title>Node10</title>
<g id="a_node10"><a xlink:href="class_om_1_1_list.html" target="_top" xlink:title="Om::List\&lt; Pair \&gt;">
<polygon fill="none" stroke="black" points="817.877,-0 817.877,-20 906.123,-20 906.123,-0 817.877,-0"/>
<text text-anchor="middle" x="862" y="-6" font-family="Helvetica,sans-Serif" font-size="10.00">Om::List&lt; Pair &gt;</text>
</a>
</g>
</g>
<!-- Node10&#45;&gt;Node1 -->
<g id="edge9" class="edge"><title>Node10&#45;&gt;Node1</title>
<path fill="none" stroke="#9a32cd" stroke-dasharray="5,2" d="M916.257,-18.66C937.997,-22.5317 963.315,-27.4721 986,-33 993.097,-34.7294 1000.65,-36.8422 1007.77,-38.9582"/>
<polygon fill="#9a32cd" stroke="#9a32cd" points="916.675,-15.1801 906.221,-16.9028 915.467,-22.0752 916.675,-15.1801"/>
<text text-anchor="middle" x="960" y="-35" font-family="Helvetica,sans-Serif" font-size="10.00"> thisPairList</text>
</g>
</g>
</svg>
