<?xml version="1.0" encoding="UTF-8" standalone="no"?>
<!DOCTYPE svg PUBLIC "-//W3C//DTD SVG 1.1//EN"
 "http://www.w3.org/Graphics/SVG/1.1/DTD/svg11.dtd">
<!-- Generated by graphviz version 2.36.0 (20140111.2315)
 -->
<!-- Title: Om::Language::Operation::PullOperation&lt; ThisProgram, ThisImplementation &gt; Pages: 1 -->
<svg width="518pt" height="56pt"
 viewBox="0.00 0.00 518.00 56.00" xmlns="http://www.w3.org/2000/svg" xmlns:xlink="http://www.w3.org/1999/xlink">
<g id="graph0" class="graph" transform="scale(1 1) rotate(0) translate(4 52)">
<title>Om::Language::Operation::PullOperation&lt; ThisProgram, ThisImplementation &gt;</title>
<!-- Node0 -->
<g id="node1" class="node"><title>Node0</title>
<g id="a_node1"><a xlink:title="An Operation that pulls part of a Program.">
<polygon fill="#bfbfbf" stroke="black" points="358.698,-5 358.698,-43 509.302,-43 509.302,-5 358.698,-5"/>
<text text-anchor="start" x="366.698" y="-31" font-family="Helvetica,sans-Serif" font-size="10.00">Om::Language::Operation</text>
<text text-anchor="start" x="366.698" y="-21" font-family="Helvetica,sans-Serif" font-size="10.00">::PullOperation&lt; ThisProgram,</text>
<text text-anchor="middle" x="434" y="-11" font-family="Helvetica,sans-Serif" font-size="10.00"> ThisImplementation &gt;</text>
</a>
</g>
</g>
<!-- Node1 -->
<g id="node2" class="node"><title>Node1</title>
<g id="a_node2"><a xlink:href="class_om_1_1_language_1_1_operation_1_1_default_incomplete_operation.html" target="_top" xlink:title=" ">
<polygon fill="none" stroke="black" points="168.167,-0 168.167,-48 321.833,-48 321.833,-0 168.167,-0"/>
<text text-anchor="start" x="176.167" y="-36" font-family="Helvetica,sans-Serif" font-size="10.00">Om::Language::Operation</text>
<text text-anchor="start" x="176.167" y="-26" font-family="Helvetica,sans-Serif" font-size="10.00">::DefaultIncompleteOperation</text>
<text text-anchor="start" x="176.167" y="-16" font-family="Helvetica,sans-Serif" font-size="10.00">&lt; PullOperation&lt; ThisProgram,</text>
<text text-anchor="middle" x="245" y="-6" font-family="Helvetica,sans-Serif" font-size="10.00"> ThisImplementation &gt; &gt;</text>
</a>
</g>
</g>
<!-- Node1&#45;&gt;Node0 -->
<g id="edge1" class="edge"><title>Node1&#45;&gt;Node0</title>
<path fill="none" stroke="midnightblue" d="M332.289,-24C341.052,-24 349.899,-24 358.522,-24"/>
<polygon fill="midnightblue" stroke="midnightblue" points="332.06,-20.5001 322.06,-24 332.06,-27.5001 332.06,-20.5001"/>
</g>
<!-- Node2 -->
<g id="node3" class="node"><title>Node2</title>
<g id="a_node3"><a xlink:href="class_om_1_1_language_1_1_operation_1_1_incomplete_operation.html" target="_top" xlink:title="An Operation that has yet to consume one or more Operands and must live in memory until complete.">
<polygon fill="none" stroke="black" points="0.185059,-10 0.185059,-38 131.815,-38 131.815,-10 0.185059,-10"/>
<text text-anchor="start" x="8.18506" y="-26" font-family="Helvetica,sans-Serif" font-size="10.00">Om::Language::Operation</text>
<text text-anchor="middle" x="66" y="-16" font-family="Helvetica,sans-Serif" font-size="10.00">::IncompleteOperation</text>
</a>
</g>
</g>
<!-- Node2&#45;&gt;Node1 -->
<g id="edge2" class="edge"><title>Node2&#45;&gt;Node1</title>
<path fill="none" stroke="midnightblue" d="M141.931,-24C150.56,-24 159.365,-24 168.007,-24"/>
<polygon fill="midnightblue" stroke="midnightblue" points="141.903,-20.5001 131.903,-24 141.903,-27.5001 141.903,-20.5001"/>
</g>
</g>
</svg>
