<?xml version="1.0" encoding="UTF-8" standalone="no"?>
<!DOCTYPE svg PUBLIC "-//W3C//DTD SVG 1.1//EN"
 "http://www.w3.org/Graphics/SVG/1.1/DTD/svg11.dtd">
<!-- Generated by graphviz version 2.36.0 (20140111.2315)
 -->
<!-- Title: Om::Taker&lt; ThisImplementation &gt; Pages: 1 -->
<svg width="962pt" height="349pt"
 viewBox="0.00 0.00 962.00 349.00" xmlns="http://www.w3.org/2000/svg" xmlns:xlink="http://www.w3.org/1999/xlink">
<g id="graph0" class="graph" transform="scale(1 1) rotate(0) translate(4 345)">
<title>Om::Taker&lt; ThisImplementation &gt;</title>
<!-- Node1 -->
<g id="node1" class="node"><title>Node1</title>
<g id="a_node1"><a xlink:title="An object that can take (copy or swap) another of the same type.">
<polygon fill="#bfbfbf" stroke="black" points="-0.219727,-172 -0.219727,-190 166.22,-190 166.22,-172 -0.219727,-172"/>
<text text-anchor="middle" x="83" y="-178" font-family="Helvetica,sans-Serif" font-size="10.00">Om::Taker&lt; ThisImplementation &gt;</text>
</a>
</g>
</g>
<!-- Node2 -->
<g id="node2" class="node"><title>Node2</title>
<g id="a_node2"><a xlink:href="class_om_1_1_language_1_1_default_program.html" target="_top" xlink:title=" ">
<polygon fill="none" stroke="black" points="215.128,-285 215.128,-323 372.872,-323 372.872,-285 215.128,-285"/>
<text text-anchor="start" x="223.128" y="-311" font-family="Helvetica,sans-Serif" font-size="10.00">Om::Language::DefaultProgram</text>
<text text-anchor="start" x="223.128" y="-301" font-family="Helvetica,sans-Serif" font-size="10.00">&lt; ThisImplementation, Om</text>
<text text-anchor="middle" x="294" y="-291" font-family="Helvetica,sans-Serif" font-size="10.00">::Language::Element &gt;</text>
</a>
</g>
</g>
<!-- Node1&#45;&gt;Node2 -->
<g id="edge1" class="edge"><title>Node1&#45;&gt;Node2</title>
<path fill="none" stroke="midnightblue" d="M100.267,-197.218C121.828,-217.902 161.849,-253.553 202,-275 208.874,-278.672 216.291,-281.973 223.821,-284.915"/>
<polygon fill="midnightblue" stroke="midnightblue" points="102.55,-194.556 92.9453,-190.084 97.6652,-199.57 102.55,-194.556"/>
</g>
<!-- Node8 -->
<g id="node8" class="node"><title>Node8</title>
<g id="a_node8"><a xlink:href="class_om_1_1_language_1_1_default_program.html" target="_top" xlink:title=" ">
<polygon fill="none" stroke="black" points="215.128,-238 215.128,-266 372.872,-266 372.872,-238 215.128,-238"/>
<text text-anchor="start" x="223.128" y="-254" font-family="Helvetica,sans-Serif" font-size="10.00">Om::Language::DefaultProgram</text>
<text text-anchor="middle" x="294" y="-244" font-family="Helvetica,sans-Serif" font-size="10.00">&lt; Literal &gt;</text>
</a>
</g>
</g>
<!-- Node1&#45;&gt;Node8 -->
<g id="edge7" class="edge"><title>Node1&#45;&gt;Node8</title>
<path fill="none" stroke="midnightblue" d="M114.066,-194.148C137.693,-204.193 171.581,-217.972 202,-228 212.707,-231.53 224.253,-234.9 235.408,-237.941"/>
<polygon fill="midnightblue" stroke="midnightblue" points="115.178,-190.816 104.608,-190.093 112.42,-197.25 115.178,-190.816"/>
</g>
<!-- Node10 -->
<g id="node10" class="node"><title>Node10</title>
<g id="a_node10"><a xlink:href="class_om_1_1_language_1_1_default_program.html" target="_top" xlink:title=" ">
<polygon fill="none" stroke="black" points="215.128,-191 215.128,-219 372.872,-219 372.872,-191 215.128,-191"/>
<text text-anchor="start" x="223.128" y="-207" font-family="Helvetica,sans-Serif" font-size="10.00">Om::Language::DefaultProgram</text>
<text text-anchor="middle" x="294" y="-197" font-family="Helvetica,sans-Serif" font-size="10.00">&lt; Lexicon &gt;</text>
</a>
</g>
</g>
<!-- Node1&#45;&gt;Node10 -->
<g id="edge9" class="edge"><title>Node1&#45;&gt;Node10</title>
<path fill="none" stroke="midnightblue" d="M172.563,-191.17C186.61,-192.783 201.051,-194.441 214.837,-196.024"/>
<polygon fill="midnightblue" stroke="midnightblue" points="172.753,-187.669 162.419,-190.005 171.954,-194.623 172.753,-187.669"/>
</g>
<!-- Node12 -->
<g id="node12" class="node"><title>Node12</title>
<g id="a_node12"><a xlink:href="class_om_1_1_language_1_1_default_program.html" target="_top" xlink:title=" ">
<polygon fill="none" stroke="black" points="215.128,-144 215.128,-172 372.872,-172 372.872,-144 215.128,-144"/>
<text text-anchor="start" x="223.128" y="-160" font-family="Helvetica,sans-Serif" font-size="10.00">Om::Language::DefaultProgram</text>
<text text-anchor="middle" x="294" y="-150" font-family="Helvetica,sans-Serif" font-size="10.00">&lt; Expression &gt;</text>
</a>
</g>
</g>
<!-- Node1&#45;&gt;Node12 -->
<g id="edge11" class="edge"><title>Node1&#45;&gt;Node12</title>
<path fill="none" stroke="midnightblue" d="M176.291,-170.844C189.207,-169.422 202.375,-167.973 214.992,-166.585"/>
<polygon fill="midnightblue" stroke="midnightblue" points="175.56,-167.403 166.002,-171.976 176.325,-174.361 175.56,-167.403"/>
</g>
<!-- Node14 -->
<g id="node14" class="node"><title>Node14</title>
<g id="a_node14"><a xlink:href="class_om_1_1_owner.html" target="_top" xlink:title=" ">
<polygon fill="none" stroke="black" points="223.053,-97 223.053,-125 364.947,-125 364.947,-97 223.053,-97"/>
<text text-anchor="start" x="231.053" y="-113" font-family="Helvetica,sans-Serif" font-size="10.00">Om::Owner&lt; Om::Language</text>
<text text-anchor="middle" x="294" y="-103" font-family="Helvetica,sans-Serif" font-size="10.00">::Program &gt;</text>
</a>
</g>
</g>
<!-- Node1&#45;&gt;Node14 -->
<g id="edge13" class="edge"><title>Node1&#45;&gt;Node14</title>
<path fill="none" stroke="midnightblue" d="M114.037,-167.764C137.649,-157.672 171.53,-143.872 202,-134 211.766,-130.836 222.237,-127.836 232.474,-125.112"/>
<polygon fill="midnightblue" stroke="midnightblue" points="112.383,-164.666 104.586,-171.841 115.155,-171.094 112.383,-164.666"/>
</g>
<!-- Node15 -->
<g id="node15" class="node"><title>Node15</title>
<g id="a_node15"><a xlink:href="class_om_1_1_language_1_1_default_program.html" target="_top" xlink:title="A partial implementation of Program.">
<polygon fill="none" stroke="black" points="202.248,-48 202.248,-76 385.752,-76 385.752,-48 202.248,-48"/>
<text text-anchor="start" x="210.248" y="-64" font-family="Helvetica,sans-Serif" font-size="10.00">Om::Language::DefaultProgram</text>
<text text-anchor="middle" x="294" y="-54" font-family="Helvetica,sans-Serif" font-size="10.00">&lt; ThisImplementation, ThisInterface &gt;</text>
</a>
</g>
</g>
<!-- Node1&#45;&gt;Node15 -->
<g id="edge14" class="edge"><title>Node1&#45;&gt;Node15</title>
<path fill="none" stroke="midnightblue" d="M100.135,-164.53C121.555,-143.574 161.424,-107.631 202,-87 210.471,-82.693 219.774,-79.0544 229.098,-76.0024"/>
<polygon fill="midnightblue" stroke="midnightblue" points="97.4854,-162.229 92.8663,-171.764 102.423,-167.191 97.4854,-162.229"/>
</g>
<!-- Node3 -->
<g id="node3" class="node"><title>Node3</title>
<g id="a_node3"><a xlink:href="class_om_1_1_language_1_1_default_element.html" target="_top" xlink:title="A partial implementation of Element.">
<polygon fill="none" stroke="black" points="422.248,-290 422.248,-318 605.752,-318 605.752,-290 422.248,-290"/>
<text text-anchor="start" x="430.248" y="-306" font-family="Helvetica,sans-Serif" font-size="10.00">Om::Language::DefaultElement</text>
<text text-anchor="middle" x="514" y="-296" font-family="Helvetica,sans-Serif" font-size="10.00">&lt; ThisImplementation, ThisInterface &gt;</text>
</a>
</g>
</g>
<!-- Node2&#45;&gt;Node3 -->
<g id="edge2" class="edge"><title>Node2&#45;&gt;Node3</title>
<path fill="none" stroke="midnightblue" d="M383.251,-304C396.048,-304 409.242,-304 422.09,-304"/>
<polygon fill="midnightblue" stroke="midnightblue" points="383.087,-300.5 373.087,-304 383.087,-307.5 383.087,-300.5"/>
</g>
<!-- Node4 -->
<g id="node4" class="node"><title>Node4</title>
<g id="a_node4"><a xlink:href="class_om_1_1_language_1_1_default_atom.html" target="_top" xlink:title=" ">
<polygon fill="none" stroke="black" points="642.631,-313 642.631,-341 785.369,-341 785.369,-313 642.631,-313"/>
<text text-anchor="start" x="650.631" y="-329" font-family="Helvetica,sans-Serif" font-size="10.00">Om::Language::DefaultAtom</text>
<text text-anchor="middle" x="714" y="-319" font-family="Helvetica,sans-Serif" font-size="10.00">&lt; Operator &gt;</text>
</a>
</g>
</g>
<!-- Node3&#45;&gt;Node4 -->
<g id="edge3" class="edge"><title>Node3&#45;&gt;Node4</title>
<path fill="none" stroke="midnightblue" d="M616,-315.732C624.962,-316.773 633.903,-317.812 642.528,-318.814"/>
<polygon fill="midnightblue" stroke="midnightblue" points="616.224,-312.235 605.887,-314.558 615.416,-319.188 616.224,-312.235"/>
</g>
<!-- Node6 -->
<g id="node6" class="node"><title>Node6</title>
<g id="a_node6"><a xlink:href="class_om_1_1_language_1_1_default_atom.html" target="_top" xlink:title=" ">
<polygon fill="none" stroke="black" points="642.631,-266 642.631,-294 785.369,-294 785.369,-266 642.631,-266"/>
<text text-anchor="start" x="650.631" y="-282" font-family="Helvetica,sans-Serif" font-size="10.00">Om::Language::DefaultAtom</text>
<text text-anchor="middle" x="714" y="-272" font-family="Helvetica,sans-Serif" font-size="10.00">&lt; Separator &gt;</text>
</a>
</g>
</g>
<!-- Node3&#45;&gt;Node6 -->
<g id="edge5" class="edge"><title>Node3&#45;&gt;Node6</title>
<path fill="none" stroke="midnightblue" d="M616,-291.758C624.962,-290.671 633.903,-289.587 642.528,-288.542"/>
<polygon fill="midnightblue" stroke="midnightblue" points="615.393,-288.305 605.887,-292.983 616.236,-295.255 615.393,-288.305"/>
</g>
<!-- Node5 -->
<g id="node5" class="node"><title>Node5</title>
<g id="a_node5"><a xlink:href="class_om_1_1_language_1_1_operator.html" target="_top" xlink:title="The Operator implementation.">
<polygon fill="none" stroke="black" points="824.412,-318 824.412,-336 951.588,-336 951.588,-318 824.412,-318"/>
<text text-anchor="middle" x="888" y="-324" font-family="Helvetica,sans-Serif" font-size="10.00">Om::Language::Operator</text>
</a>
</g>
</g>
<!-- Node4&#45;&gt;Node5 -->
<g id="edge4" class="edge"><title>Node4&#45;&gt;Node5</title>
<path fill="none" stroke="midnightblue" d="M795.505,-327C805.2,-327 814.989,-327 824.377,-327"/>
<polygon fill="midnightblue" stroke="midnightblue" points="795.455,-323.5 785.455,-327 795.455,-330.5 795.455,-323.5"/>
</g>
<!-- Node7 -->
<g id="node7" class="node"><title>Node7</title>
<g id="a_node7"><a xlink:href="class_om_1_1_language_1_1_separator.html" target="_top" xlink:title="The Separator implementation.">
<polygon fill="none" stroke="black" points="822.185,-271 822.185,-289 953.815,-289 953.815,-271 822.185,-271"/>
<text text-anchor="middle" x="888" y="-277" font-family="Helvetica,sans-Serif" font-size="10.00">Om::Language::Separator</text>
</a>
</g>
</g>
<!-- Node6&#45;&gt;Node7 -->
<g id="edge6" class="edge"><title>Node6&#45;&gt;Node7</title>
<path fill="none" stroke="midnightblue" d="M795.709,-280C804.492,-280 813.349,-280 821.911,-280"/>
<polygon fill="midnightblue" stroke="midnightblue" points="795.455,-276.5 785.455,-280 795.455,-283.5 795.455,-276.5"/>
</g>
<!-- Node9 -->
<g id="node9" class="node"><title>Node9</title>
<g id="a_node9"><a xlink:href="class_om_1_1_language_1_1_literal.html" target="_top" xlink:title="The Literal Program implementation.">
<polygon fill="none" stroke="black" points="456.525,-243 456.525,-261 571.475,-261 571.475,-243 456.525,-243"/>
<text text-anchor="middle" x="514" y="-249" font-family="Helvetica,sans-Serif" font-size="10.00">Om::Language::Literal</text>
</a>
</g>
</g>
<!-- Node8&#45;&gt;Node9 -->
<g id="edge8" class="edge"><title>Node8&#45;&gt;Node9</title>
<path fill="none" stroke="midnightblue" d="M383.185,-252C407.854,-252 433.999,-252 456.311,-252"/>
<polygon fill="midnightblue" stroke="midnightblue" points="383.087,-248.5 373.087,-252 383.087,-255.5 383.087,-248.5"/>
</g>
<!-- Node11 -->
<g id="node11" class="node"><title>Node11</title>
<g id="a_node11"><a xlink:href="class_om_1_1_language_1_1_lexicon.html" target="_top" xlink:title="The Lexicon Program implementation.">
<polygon fill="none" stroke="black" points="452.909,-196 452.909,-214 575.091,-214 575.091,-196 452.909,-196"/>
<text text-anchor="middle" x="514" y="-202" font-family="Helvetica,sans-Serif" font-size="10.00">Om::Language::Lexicon</text>
</a>
</g>
</g>
<!-- Node10&#45;&gt;Node11 -->
<g id="edge10" class="edge"><title>Node10&#45;&gt;Node11</title>
<path fill="none" stroke="midnightblue" d="M383.361,-205C406.73,-205 431.412,-205 452.897,-205"/>
<polygon fill="midnightblue" stroke="midnightblue" points="383.087,-201.5 373.087,-205 383.087,-208.5 383.087,-201.5"/>
</g>
<!-- Node13 -->
<g id="node13" class="node"><title>Node13</title>
<g id="a_node13"><a xlink:href="class_om_1_1_language_1_1_expression.html" target="_top" xlink:title="The Expression Program implementation.">
<polygon fill="none" stroke="black" points="445.409,-151 445.409,-169 582.591,-169 582.591,-151 445.409,-151"/>
<text text-anchor="middle" x="514" y="-157" font-family="Helvetica,sans-Serif" font-size="10.00">Om::Language::Expression</text>
</a>
</g>
</g>
<!-- Node12&#45;&gt;Node13 -->
<g id="edge12" class="edge"><title>Node12&#45;&gt;Node13</title>
<path fill="none" stroke="midnightblue" d="M383.146,-158.809C403.834,-158.998 425.564,-159.198 445.201,-159.378"/>
<polygon fill="midnightblue" stroke="midnightblue" points="383.119,-155.308 373.087,-158.716 383.055,-162.308 383.119,-155.308"/>
</g>
<!-- Node16 -->
<g id="node16" class="node"><title>Node16</title>
<g id="a_node16"><a xlink:href="class_om_1_1_language_1_1_default_element.html" target="_top" xlink:title=" ">
<polygon fill="none" stroke="black" points="435.958,-94 435.958,-132 592.042,-132 592.042,-94 435.958,-94"/>
<text text-anchor="start" x="443.958" y="-120" font-family="Helvetica,sans-Serif" font-size="10.00">Om::Language::DefaultElement</text>
<text text-anchor="start" x="443.958" y="-110" font-family="Helvetica,sans-Serif" font-size="10.00">&lt; ThisImplementation, Om</text>
<text text-anchor="middle" x="514" y="-100" font-family="Helvetica,sans-Serif" font-size="10.00">::Language::Atom &gt;</text>
</a>
</g>
</g>
<!-- Node15&#45;&gt;Node16 -->
<g id="edge15" class="edge"><title>Node15&#45;&gt;Node16</title>
<path fill="none" stroke="midnightblue" d="M364.711,-78.3085C387.325,-83.5989 412.544,-89.4987 435.677,-94.9108"/>
<polygon fill="midnightblue" stroke="midnightblue" points="365.392,-74.8735 354.858,-76.0034 363.798,-81.6894 365.392,-74.8735"/>
</g>
<!-- Node18 -->
<g id="node18" class="node"><title>Node18</title>
<g id="a_node18"><a xlink:href="class_om_1_1_language_1_1_default_element.html" target="_top" xlink:title=" ">
<polygon fill="none" stroke="black" points="435.958,-47 435.958,-75 592.042,-75 592.042,-47 435.958,-47"/>
<text text-anchor="start" x="443.958" y="-63" font-family="Helvetica,sans-Serif" font-size="10.00">Om::Language::DefaultElement</text>
<text text-anchor="middle" x="514" y="-53" font-family="Helvetica,sans-Serif" font-size="10.00">&lt; Operand &gt;</text>
</a>
</g>
</g>
<!-- Node15&#45;&gt;Node18 -->
<g id="edge17" class="edge"><title>Node15&#45;&gt;Node18</title>
<path fill="none" stroke="midnightblue" d="M396.04,-61.5365C409.395,-61.4753 422.909,-61.4133 435.776,-61.3542"/>
<polygon fill="midnightblue" stroke="midnightblue" points="395.857,-58.0372 385.873,-61.5832 395.889,-65.0371 395.857,-58.0372"/>
</g>
<!-- Node20 -->
<g id="node20" class="node"><title>Node20</title>
<g id="a_node20"><a xlink:href="class_om_1_1_language_1_1_default_element.html" target="_top" xlink:title=" ">
<polygon fill="none" stroke="black" points="435.958,-0 435.958,-28 592.042,-28 592.042,-0 435.958,-0"/>
<text text-anchor="start" x="443.958" y="-16" font-family="Helvetica,sans-Serif" font-size="10.00">Om::Language::DefaultElement</text>
<text text-anchor="middle" x="514" y="-6" font-family="Helvetica,sans-Serif" font-size="10.00">&lt; Null &gt;</text>
</a>
</g>
</g>
<!-- Node15&#45;&gt;Node20 -->
<g id="edge19" class="edge"><title>Node15&#45;&gt;Node20</title>
<path fill="none" stroke="midnightblue" d="M368.515,-45.8131C394.711,-40.0453 423.975,-33.6017 449.28,-28.03"/>
<polygon fill="midnightblue" stroke="midnightblue" points="367.654,-42.4188 358.641,-47.9874 369.159,-49.2551 367.654,-42.4188"/>
</g>
<!-- Node17 -->
<g id="node17" class="node"><title>Node17</title>
<g id="a_node17"><a xlink:href="class_om_1_1_language_1_1_default_atom.html" target="_top" xlink:title="A partial implementation of Atom.">
<polygon fill="none" stroke="black" points="642.631,-99 642.631,-127 785.369,-127 785.369,-99 642.631,-99"/>
<text text-anchor="start" x="650.631" y="-115" font-family="Helvetica,sans-Serif" font-size="10.00">Om::Language::DefaultAtom</text>
<text text-anchor="middle" x="714" y="-105" font-family="Helvetica,sans-Serif" font-size="10.00">&lt; ThisImplementation &gt;</text>
</a>
</g>
</g>
<!-- Node16&#45;&gt;Node17 -->
<g id="edge16" class="edge"><title>Node16&#45;&gt;Node17</title>
<path fill="none" stroke="midnightblue" d="M602.333,-113C615.786,-113 629.531,-113 642.554,-113"/>
<polygon fill="midnightblue" stroke="midnightblue" points="602.119,-109.5 592.119,-113 602.119,-116.5 602.119,-109.5"/>
</g>
<!-- Node19 -->
<g id="node19" class="node"><title>Node19</title>
<g id="a_node19"><a xlink:href="class_om_1_1_language_1_1_operand.html" target="_top" xlink:title="The Operand implementation.">
<polygon fill="none" stroke="black" points="650.685,-52 650.685,-70 777.315,-70 777.315,-52 650.685,-52"/>
<text text-anchor="middle" x="714" y="-58" font-family="Helvetica,sans-Serif" font-size="10.00">Om::Language::Operand</text>
</a>
</g>
</g>
<!-- Node18&#45;&gt;Node19 -->
<g id="edge18" class="edge"><title>Node18&#45;&gt;Node19</title>
<path fill="none" stroke="midnightblue" d="M602.173,-61C618.435,-61 635.129,-61 650.466,-61"/>
<polygon fill="midnightblue" stroke="midnightblue" points="602.119,-57.5001 592.119,-61 602.119,-64.5001 602.119,-57.5001"/>
</g>
<!-- Node21 -->
<g id="node21" class="node"><title>Node21</title>
<g id="a_node21"><a xlink:href="class_om_1_1_language_1_1_null.html" target="_top" xlink:title="The Null Element implementation.">
<polygon fill="none" stroke="black" points="661.53,-5 661.53,-23 766.47,-23 766.47,-5 661.53,-5"/>
<text text-anchor="middle" x="714" y="-11" font-family="Helvetica,sans-Serif" font-size="10.00">Om::Language::Null</text>
</a>
</g>
</g>
<!-- Node20&#45;&gt;Node21 -->
<g id="edge20" class="edge"><title>Node20&#45;&gt;Node21</title>
<path fill="none" stroke="midnightblue" d="M602.284,-14C622.483,-14 643.343,-14 661.434,-14"/>
<polygon fill="midnightblue" stroke="midnightblue" points="602.119,-10.5001 592.119,-14 602.119,-17.5001 602.119,-10.5001"/>
</g>
</g>
</svg>
