<?xml version="1.0" encoding="UTF-8" standalone="no"?>
<!DOCTYPE svg PUBLIC "-//W3C//DTD SVG 1.1//EN"
 "http://www.w3.org/Graphics/SVG/1.1/DTD/svg11.dtd">
<!-- Generated by graphviz version 2.34.0 (20130907.0228)
 -->
<!-- Title: Om::DefaultAtom&lt; ThisImplementation &gt; Pages: 1 -->
<svg width="1892pt" height="178pt"
 viewBox="0.00 0.00 1892.00 178.00" xmlns="http://www.w3.org/2000/svg" xmlns:xlink="http://www.w3.org/1999/xlink">
<g id="graph0" class="graph" transform="scale(1 1) rotate(0) translate(4 174)">
<title>Om::DefaultAtom&lt; ThisImplementation &gt;</title>
<!-- Node1 -->
<g id="node1" class="node"><title>Node1</title>
<polygon fill="#bfbfbf" stroke="black" points="1686.49,-35 1686.49,-55 1883.51,-55 1883.51,-35 1686.49,-35"/>
<text text-anchor="middle" x="1785" y="-41" font-family="Helvetica,sans-Serif" font-size="10.00">Om::DefaultAtom&lt; ThisImplementation &gt;</text>
</g>
<!-- Node2 -->
<g id="node2" class="node"><title>Node2</title>
<g id="a_node2"><a xlink:href="class_om_1_1_default_element.html" target="_top" xlink:title="Om::DefaultElement\l\&lt; ThisImplementation,\l Atom \&gt;">
<polygon fill="none" stroke="black" points="1491.76,-47 1491.76,-91 1606.24,-91 1606.24,-47 1491.76,-47"/>
<text text-anchor="start" x="1499.76" y="-77" font-family="Helvetica,sans-Serif" font-size="10.00">Om::DefaultElement</text>
<text text-anchor="start" x="1499.76" y="-65" font-family="Helvetica,sans-Serif" font-size="10.00">&lt; ThisImplementation,</text>
<text text-anchor="middle" x="1549" y="-53" font-family="Helvetica,sans-Serif" font-size="10.00"> Atom &gt;</text>
</a>
</g>
</g>
<!-- Node2&#45;&gt;Node1 -->
<g id="edge1" class="edge"><title>Node2&#45;&gt;Node1</title>
<path fill="none" stroke="midnightblue" d="M1616.41,-62.1886C1638.08,-59.9659 1662.62,-57.4492 1686.1,-55.0407"/>
<polygon fill="midnightblue" stroke="midnightblue" points="1615.94,-58.7187 1606.35,-63.2209 1616.65,-65.6822 1615.94,-58.7187"/>
</g>
<!-- Node3 -->
<g id="node3" class="node"><title>Node3</title>
<g id="a_node3"><a xlink:href="class_om_1_1_default_program.html" target="_top" xlink:title="Om::DefaultProgram\l\&lt; ThisImplementation,\l Atom \&gt;">
<polygon fill="none" stroke="black" points="1339.76,-51 1339.76,-95 1454.24,-95 1454.24,-51 1339.76,-51"/>
<text text-anchor="start" x="1347.76" y="-81" font-family="Helvetica,sans-Serif" font-size="10.00">Om::DefaultProgram</text>
<text text-anchor="start" x="1347.76" y="-69" font-family="Helvetica,sans-Serif" font-size="10.00">&lt; ThisImplementation,</text>
<text text-anchor="middle" x="1397" y="-57" font-family="Helvetica,sans-Serif" font-size="10.00"> Atom &gt;</text>
</a>
</g>
</g>
<!-- Node3&#45;&gt;Node2 -->
<g id="edge2" class="edge"><title>Node3&#45;&gt;Node2</title>
<path fill="none" stroke="midnightblue" d="M1464.37,-71.2302C1473.39,-70.9897 1482.58,-70.7446 1491.4,-70.5092"/>
<polygon fill="midnightblue" stroke="midnightblue" points="1464.18,-67.7337 1454.28,-71.4992 1464.37,-74.7313 1464.18,-67.7337"/>
</g>
<!-- Node4 -->
<g id="node4" class="node"><title>Node4</title>
<g id="a_node4"><a xlink:href="class_om_1_1_default_consumer.html" target="_top" xlink:title="Om::DefaultConsumer\l\&lt; ThisImplementation,\l DefaultGiveable\&lt; ThisImplementation,\l Atom \&gt; \&gt;">
<polygon fill="none" stroke="black" points="1113.79,-73 1113.79,-129 1302.21,-129 1302.21,-73 1113.79,-73"/>
<text text-anchor="start" x="1121.79" y="-115" font-family="Helvetica,sans-Serif" font-size="10.00">Om::DefaultConsumer</text>
<text text-anchor="start" x="1121.79" y="-103" font-family="Helvetica,sans-Serif" font-size="10.00">&lt; ThisImplementation,</text>
<text text-anchor="start" x="1121.79" y="-91" font-family="Helvetica,sans-Serif" font-size="10.00"> DefaultGiveable&lt; ThisImplementation,</text>
<text text-anchor="middle" x="1208" y="-79" font-family="Helvetica,sans-Serif" font-size="10.00"> Atom &gt; &gt;</text>
</a>
</g>
</g>
<!-- Node4&#45;&gt;Node3 -->
<g id="edge3" class="edge"><title>Node4&#45;&gt;Node3</title>
<path fill="none" stroke="midnightblue" d="M1312.12,-85.56C1321.58,-84.1433 1330.91,-82.7466 1339.71,-81.4285"/>
<polygon fill="midnightblue" stroke="midnightblue" points="1311.6,-82.0987 1302.23,-87.041 1312.63,-89.0215 1311.6,-82.0987"/>
</g>
<!-- Node5 -->
<g id="node5" class="node"><title>Node5</title>
<g id="a_node5"><a xlink:href="class_om_1_1_default_giveable.html" target="_top" xlink:title="Om::DefaultGiveable\l\&lt; ThisImplementation,\l Atom \&gt;">
<polygon fill="none" stroke="black" points="961.759,-79 961.759,-123 1076.24,-123 1076.24,-79 961.759,-79"/>
<text text-anchor="start" x="969.759" y="-109" font-family="Helvetica,sans-Serif" font-size="10.00">Om::DefaultGiveable</text>
<text text-anchor="start" x="969.759" y="-97" font-family="Helvetica,sans-Serif" font-size="10.00">&lt; ThisImplementation,</text>
<text text-anchor="middle" x="1019" y="-85" font-family="Helvetica,sans-Serif" font-size="10.00"> Atom &gt;</text>
</a>
</g>
</g>
<!-- Node5&#45;&gt;Node4 -->
<g id="edge4" class="edge"><title>Node5&#45;&gt;Node4</title>
<path fill="none" stroke="midnightblue" d="M1086.54,-101C1095.38,-101 1104.56,-101 1113.74,-101"/>
<polygon fill="midnightblue" stroke="midnightblue" points="1086.36,-97.5001 1076.36,-101 1086.36,-104.5 1086.36,-97.5001"/>
</g>
<!-- Node6 -->
<g id="node6" class="node"><title>Node6</title>
<g id="a_node6"><a xlink:href="class_om_1_1_default_moveable.html" target="_top" xlink:title="Om::DefaultMoveable\l\&lt; ThisImplementation,\l DefaultCopyable\&lt; ThisImplementation,\l Atom \&gt; \&gt;">
<polygon fill="none" stroke="black" points="732.402,-73 732.402,-129 923.598,-129 923.598,-73 732.402,-73"/>
<text text-anchor="start" x="740.402" y="-115" font-family="Helvetica,sans-Serif" font-size="10.00">Om::DefaultMoveable</text>
<text text-anchor="start" x="740.402" y="-103" font-family="Helvetica,sans-Serif" font-size="10.00">&lt; ThisImplementation,</text>
<text text-anchor="start" x="740.402" y="-91" font-family="Helvetica,sans-Serif" font-size="10.00"> DefaultCopyable&lt; ThisImplementation,</text>
<text text-anchor="middle" x="828" y="-79" font-family="Helvetica,sans-Serif" font-size="10.00"> Atom &gt; &gt;</text>
</a>
</g>
</g>
<!-- Node6&#45;&gt;Node5 -->
<g id="edge5" class="edge"><title>Node6&#45;&gt;Node5</title>
<path fill="none" stroke="midnightblue" d="M933.803,-101C943.391,-101 952.835,-101 961.735,-101"/>
<polygon fill="midnightblue" stroke="midnightblue" points="933.777,-97.5001 923.777,-101 933.777,-104.5 933.777,-97.5001"/>
</g>
<!-- Node7 -->
<g id="node7" class="node"><title>Node7</title>
<g id="a_node7"><a xlink:href="class_om_1_1_default_copyable.html" target="_top" xlink:title="Om::DefaultCopyable\l\&lt; ThisImplementation,\l Atom \&gt;">
<polygon fill="none" stroke="black" points="579.759,-79 579.759,-123 694.241,-123 694.241,-79 579.759,-79"/>
<text text-anchor="start" x="587.759" y="-109" font-family="Helvetica,sans-Serif" font-size="10.00">Om::DefaultCopyable</text>
<text text-anchor="start" x="587.759" y="-97" font-family="Helvetica,sans-Serif" font-size="10.00">&lt; ThisImplementation,</text>
<text text-anchor="middle" x="637" y="-85" font-family="Helvetica,sans-Serif" font-size="10.00"> Atom &gt;</text>
</a>
</g>
</g>
<!-- Node7&#45;&gt;Node6 -->
<g id="edge6" class="edge"><title>Node7&#45;&gt;Node6</title>
<path fill="none" stroke="midnightblue" d="M704.465,-101C713.493,-101 722.897,-101 732.304,-101"/>
<polygon fill="midnightblue" stroke="midnightblue" points="704.45,-97.5001 694.45,-101 704.45,-104.5 704.45,-97.5001"/>
</g>
<!-- Node8 -->
<g id="node8" class="node"><title>Node8</title>
<g id="a_node8"><a xlink:href="class_om_1_1_atom.html" target="_top" xlink:title="An atomic Element defined by a string. ">
<polygon fill="none" stroke="black" points="480.498,-91 480.498,-111 541.502,-111 541.502,-91 480.498,-91"/>
<text text-anchor="middle" x="511" y="-97" font-family="Helvetica,sans-Serif" font-size="10.00">Om::Atom</text>
</a>
</g>
</g>
<!-- Node8&#45;&gt;Node7 -->
<g id="edge7" class="edge"><title>Node8&#45;&gt;Node7</title>
<path fill="none" stroke="midnightblue" d="M551.962,-101C560.692,-101 570.093,-101 579.334,-101"/>
<polygon fill="midnightblue" stroke="midnightblue" points="551.701,-97.5001 541.701,-101 551.701,-104.5 551.701,-97.5001"/>
</g>
<!-- Node9 -->
<g id="node9" class="node"><title>Node9</title>
<g id="a_node9"><a xlink:href="class_om_1_1_element.html" target="_top" xlink:title="A Program that contains a single elemental item (or none, when IsEmpty() returns true). ">
<polygon fill="none" stroke="black" points="367.825,-91 367.825,-111 442.175,-111 442.175,-91 367.825,-91"/>
<text text-anchor="middle" x="405" y="-97" font-family="Helvetica,sans-Serif" font-size="10.00">Om::Element</text>
</a>
</g>
</g>
<!-- Node9&#45;&gt;Node8 -->
<g id="edge8" class="edge"><title>Node9&#45;&gt;Node8</title>
<path fill="none" stroke="midnightblue" d="M452.487,-101C461.951,-101 471.662,-101 480.346,-101"/>
<polygon fill="midnightblue" stroke="midnightblue" points="452.374,-97.5001 442.374,-101 452.374,-104.5 452.374,-97.5001"/>
</g>
<!-- Node10 -->
<g id="node10" class="node"><title>Node10</title>
<g id="a_node10"><a xlink:href="class_om_1_1_program.html" target="_top" xlink:title="The Program implementation. ">
<polygon fill="none" stroke="black" points="253.995,-91 253.995,-111 330.005,-111 330.005,-91 253.995,-91"/>
<text text-anchor="middle" x="292" y="-97" font-family="Helvetica,sans-Serif" font-size="10.00">Om::Program</text>
</a>
</g>
</g>
<!-- Node10&#45;&gt;Node9 -->
<g id="edge9" class="edge"><title>Node10&#45;&gt;Node9</title>
<path fill="none" stroke="midnightblue" d="M340.426,-101C349.583,-101 359.04,-101 367.77,-101"/>
<polygon fill="midnightblue" stroke="midnightblue" points="340.27,-97.5001 330.27,-101 340.27,-104.5 340.27,-97.5001"/>
</g>
<!-- Node11 -->
<g id="node11" class="node"><title>Node11</title>
<g id="a_node11"><a xlink:href="class_om_1_1_consumer.html" target="_top" xlink:title="An Element taker; takes at the back. ">
<polygon fill="none" stroke="black" points="126.104,-150 126.104,-170 209.896,-170 209.896,-150 126.104,-150"/>
<text text-anchor="middle" x="168" y="-156" font-family="Helvetica,sans-Serif" font-size="10.00">Om::Consumer</text>
</a>
</g>
</g>
<!-- Node11&#45;&gt;Node10 -->
<g id="edge10" class="edge"><title>Node11&#45;&gt;Node10</title>
<path fill="none" stroke="midnightblue" d="M203.018,-145.893C207.409,-143.964 211.827,-141.969 216,-140 235.643,-130.73 257.641,-119.144 272.706,-111.017"/>
<polygon fill="midnightblue" stroke="midnightblue" points="201.35,-142.801 193.553,-149.974 204.121,-149.228 201.35,-142.801"/>
</g>
<!-- Node12 -->
<g id="node12" class="node"><title>Node12</title>
<g id="a_node12"><a xlink:href="class_om_1_1_giveable.html" target="_top" xlink:title="An object that can be copied or moved via Give. ">
<polygon fill="none" stroke="black" points="129.434,-111 129.434,-131 206.566,-131 206.566,-111 129.434,-111"/>
<text text-anchor="middle" x="168" y="-117" font-family="Helvetica,sans-Serif" font-size="10.00">Om::Giveable</text>
</a>
</g>
</g>
<!-- Node12&#45;&gt;Node10 -->
<g id="edge11" class="edge"><title>Node12&#45;&gt;Node10</title>
<path fill="none" stroke="midnightblue" d="M216.704,-113.18C229.001,-111.164 242.055,-109.024 253.734,-107.109"/>
<polygon fill="midnightblue" stroke="midnightblue" points="215.902,-109.764 206.6,-114.836 217.034,-116.672 215.902,-109.764"/>
</g>
<!-- Node13 -->
<g id="node13" class="node"><title>Node13</title>
<g id="a_node13"><a xlink:href="class_om_1_1_copyable.html" target="_top" xlink:title="An object that can be passed to Copy to be copied. ">
<polygon fill="none" stroke="black" points="1.04199,-130 1.04199,-150 80.958,-150 80.958,-130 1.04199,-130"/>
<text text-anchor="middle" x="41" y="-136" font-family="Helvetica,sans-Serif" font-size="10.00">Om::Copyable</text>
</a>
</g>
</g>
<!-- Node13&#45;&gt;Node12 -->
<g id="edge12" class="edge"><title>Node13&#45;&gt;Node12</title>
<path fill="none" stroke="midnightblue" d="M91.1525,-132.529C103.81,-130.605 117.234,-128.564 129.214,-126.744"/>
<polygon fill="midnightblue" stroke="midnightblue" points="90.5683,-129.077 81.2078,-134.04 91.6203,-135.998 90.5683,-129.077"/>
</g>
<!-- Node14 -->
<g id="node14" class="node"><title>Node14</title>
<g id="a_node14"><a xlink:href="class_om_1_1_moveable.html" target="_top" xlink:title="An object that can be passed to Move to be moved. ">
<polygon fill="none" stroke="black" points="0.487793,-91 0.487793,-111 81.5122,-111 81.5122,-91 0.487793,-91"/>
<text text-anchor="middle" x="41" y="-97" font-family="Helvetica,sans-Serif" font-size="10.00">Om::Moveable</text>
</a>
</g>
</g>
<!-- Node14&#45;&gt;Node12 -->
<g id="edge13" class="edge"><title>Node14&#45;&gt;Node12</title>
<path fill="none" stroke="midnightblue" d="M91.4797,-108.917C104.111,-110.938 117.485,-113.078 129.411,-114.986"/>
<polygon fill="midnightblue" stroke="midnightblue" points="91.9782,-105.452 81.5508,-107.328 90.8722,-112.364 91.9782,-105.452"/>
</g>
<!-- Node15 -->
<g id="node15" class="node"><title>Node15</title>
<g id="a_node15"><a xlink:href="class_om_1_1_producer.html" target="_top" xlink:title="An Element giver; gives from the front. ">
<polygon fill="none" stroke="black" points="128.879,-72 128.879,-92 207.121,-92 207.121,-72 128.879,-72"/>
<text text-anchor="middle" x="168" y="-78" font-family="Helvetica,sans-Serif" font-size="10.00">Om::Producer</text>
</a>
</g>
</g>
<!-- Node15&#45;&gt;Node10 -->
<g id="edge14" class="edge"><title>Node15&#45;&gt;Node10</title>
<path fill="none" stroke="midnightblue" d="M217.244,-89.5134C229.372,-91.4022 242.204,-93.4006 253.705,-95.1917"/>
<polygon fill="midnightblue" stroke="midnightblue" points="217.686,-86.0402 207.267,-87.9596 216.609,-92.9568 217.686,-86.0402"/>
</g>
<!-- Node16 -->
<g id="node16" class="node"><title>Node16</title>
<g id="a_node16"><a xlink:href="class_om_1_1_shareable.html" target="_top" xlink:title="Om::Shareable\&lt;\&gt;">
<polygon fill="none" stroke="black" points="120.532,-33 120.532,-53 215.468,-53 215.468,-33 120.532,-33"/>
<text text-anchor="middle" x="168" y="-39" font-family="Helvetica,sans-Serif" font-size="10.00">Om::Shareable&lt;&gt;</text>
</a>
</g>
</g>
<!-- Node16&#45;&gt;Node10 -->
<g id="edge15" class="edge"><title>Node16&#45;&gt;Node10</title>
<path fill="none" stroke="midnightblue" d="M204.586,-56.966C208.461,-58.6111 212.328,-60.3078 216,-62 235.726,-71.0911 257.711,-82.7055 272.75,-90.8872"/>
<polygon fill="midnightblue" stroke="midnightblue" points="205.625,-53.6082 195.047,-53.015 202.947,-60.0754 205.625,-53.6082"/>
</g>
<!-- Node17 -->
<g id="node17" class="node"><title>Node17</title>
<g id="a_node17"><a xlink:href="class_om_1_1_taker.html" target="_top" xlink:title="An object that can take (copy or swap) another of the same type. ">
<polygon fill="none" stroke="black" points="1124.78,-34 1124.78,-54 1291.22,-54 1291.22,-34 1124.78,-34"/>
<text text-anchor="middle" x="1208" y="-40" font-family="Helvetica,sans-Serif" font-size="10.00">Om::Taker&lt; ThisImplementation &gt;</text>
</a>
</g>
</g>
<!-- Node17&#45;&gt;Node3 -->
<g id="edge16" class="edge"><title>Node17&#45;&gt;Node3</title>
<path fill="none" stroke="midnightblue" d="M1283.55,-55.5611C1302.19,-58.4525 1321.89,-61.5065 1339.49,-64.237"/>
<polygon fill="midnightblue" stroke="midnightblue" points="1284.03,-52.0947 1273.62,-54.0208 1282.96,-59.012 1284.03,-52.0947"/>
</g>
<!-- Node18 -->
<g id="node18" class="node"><title>Node18</title>
<g id="a_node18"><a xlink:title="STL class. ">
<polygon fill="none" stroke="#bfbfbf" points="1519.33,-7 1519.33,-27 1578.67,-27 1578.67,-7 1519.33,-7"/>
<text text-anchor="middle" x="1549" y="-13" font-family="Helvetica,sans-Serif" font-size="10.00">std::string</text>
</a>
</g>
</g>
<!-- Node18&#45;&gt;Node1 -->
<g id="edge17" class="edge"><title>Node18&#45;&gt;Node1</title>
<path fill="none" stroke="#9a32cd" stroke-dasharray="5,2" d="M1588.85,-21.6484C1619.16,-25.2753 1662.36,-30.4451 1700.42,-34.9988"/>
<polygon fill="#9a32cd" stroke="#9a32cd" points="1589.04,-18.1463 1578.69,-20.4333 1588.21,-25.0968 1589.04,-18.1463"/>
<text text-anchor="middle" x="1646" y="-33" font-family="Helvetica,sans-Serif" font-size="10.00"> thisString</text>
</g>
<!-- Node19 -->
<g id="node19" class="node"><title>Node19</title>
<g id="a_node19"><a xlink:title="STL class. ">
<polygon fill="none" stroke="#bfbfbf" points="1349.95,-0 1349.95,-32 1444.05,-32 1444.05,-0 1349.95,-0"/>
<text text-anchor="start" x="1357.95" y="-18" font-family="Helvetica,sans-Serif" font-size="10.00">std::basic_string&lt;</text>
<text text-anchor="middle" x="1397" y="-6" font-family="Helvetica,sans-Serif" font-size="10.00"> char &gt;</text>
</a>
</g>
</g>
<!-- Node19&#45;&gt;Node18 -->
<g id="edge18" class="edge"><title>Node19&#45;&gt;Node18</title>
<path fill="none" stroke="midnightblue" d="M1454.49,-16.3766C1476.52,-16.5235 1500.83,-16.6855 1519.14,-16.8076"/>
<polygon fill="midnightblue" stroke="midnightblue" points="1454.25,-12.875 1444.23,-16.3082 1454.21,-19.8749 1454.25,-12.875"/>
</g>
</g>
</svg>
