<?xml version="1.0" encoding="UTF-8" standalone="no"?>
<!DOCTYPE svg PUBLIC "-//W3C//DTD SVG 1.1//EN"
 "http://www.w3.org/Graphics/SVG/1.1/DTD/svg11.dtd">
<!-- Generated by graphviz version 2.30.1 (20130221.2233)
 -->
<!-- Title: Om::Sources::ContainerBackSource&lt; ThisItem, ThisContainer &gt; Pages: 1 -->
<svg width="544pt" height="91pt"
 viewBox="0.00 0.00 544.00 91.00" xmlns="http://www.w3.org/2000/svg" xmlns:xlink="http://www.w3.org/1999/xlink">
<g id="graph0" class="graph" transform="scale(1 1) rotate(0) translate(4 87)">
<title>Om::Sources::ContainerBackSource&lt; ThisItem, ThisContainer &gt;</title>
<!-- Node1 -->
<g id="node1" class="node"><title>Node1</title>
<polygon fill="#bfbfbf" stroke="black" points="364.642,-31 364.642,-63 535.358,-63 535.358,-31 364.642,-31"/>
<text text-anchor="start" x="372.642" y="-49" font-family="Helvetica,sans-Serif" font-size="10.00">Om::Sources::ContainerBack</text>
<text text-anchor="middle" x="450" y="-37" font-family="Helvetica,sans-Serif" font-size="10.00">Source&lt; ThisItem, ThisContainer &gt;</text>
</g>
<!-- Node2 -->
<g id="node2" class="node"><title>Node2</title>
<g id="a_node2"><a xlink:href="class_om_1_1_sources_1_1_default_source.html" target="_top" xlink:title="Om::Sources::DefaultSource\l\&lt; ThisItem, ContainerBackSource\l\&lt; ThisItem, ThisContainer \&gt; \&gt;">
<polygon fill="none" stroke="black" points="162.193,-25 162.193,-69 327.807,-69 327.807,-25 162.193,-25"/>
<text text-anchor="start" x="170.193" y="-55" font-family="Helvetica,sans-Serif" font-size="10.00">Om::Sources::DefaultSource</text>
<text text-anchor="start" x="170.193" y="-43" font-family="Helvetica,sans-Serif" font-size="10.00">&lt; ThisItem, ContainerBackSource</text>
<text text-anchor="middle" x="245" y="-31" font-family="Helvetica,sans-Serif" font-size="10.00">&lt; ThisItem, ThisContainer &gt; &gt;</text>
</a>
</g>
</g>
<!-- Node2&#45;&gt;Node1 -->
<g id="edge1" class="edge"><title>Node2&#45;&gt;Node1</title>
<path fill="none" stroke="midnightblue" d="M338.177,-47C346.91,-47 355.737,-47 364.395,-47"/>
<polygon fill="midnightblue" stroke="midnightblue" points="337.983,-43.5001 327.983,-47 337.983,-50.5001 337.983,-43.5001"/>
</g>
<!-- Node3 -->
<g id="node3" class="node"><title>Node3</title>
<g id="a_node3"><a xlink:href="class_om_1_1_source.html" target="_top" xlink:title="Any object that items can be pulled from.">
<polygon fill="none" stroke="black" points="0.625,-63 0.625,-83 125.375,-83 125.375,-63 0.625,-63"/>
<text text-anchor="middle" x="63" y="-69" font-family="Helvetica,sans-Serif" font-size="10.00">Om::Source&lt; ThisItem &gt;</text>
</a>
</g>
</g>
<!-- Node3&#45;&gt;Node2 -->
<g id="edge2" class="edge"><title>Node3&#45;&gt;Node2</title>
<path fill="none" stroke="midnightblue" d="M135.563,-62.6631C144.297,-61.4015 153.274,-60.1049 162.143,-58.8237"/>
<polygon fill="midnightblue" stroke="midnightblue" points="134.839,-59.2313 125.442,-64.125 135.84,-66.1594 134.839,-59.2313"/>
</g>
<!-- Node4 -->
<g id="node4" class="node"><title>Node4</title>
<polygon fill="none" stroke="#bfbfbf" points="11.9165,-0 11.9165,-44 114.083,-44 114.083,-0 11.9165,-0"/>
<text text-anchor="start" x="19.9165" y="-30" font-family="Helvetica,sans-Serif" font-size="10.00">std::iterator&lt; std</text>
<text text-anchor="start" x="19.9165" y="-18" font-family="Helvetica,sans-Serif" font-size="10.00">::input_iterator_tag,</text>
<text text-anchor="middle" x="63" y="-6" font-family="Helvetica,sans-Serif" font-size="10.00"> ThisItem &gt;</text>
</g>
<!-- Node4&#45;&gt;Node2 -->
<g id="edge3" class="edge"><title>Node4&#45;&gt;Node2</title>
<path fill="none" stroke="midnightblue" d="M124.141,-30.3529C136.303,-32.0421 149.286,-33.8453 162.051,-35.6182"/>
<polygon fill="midnightblue" stroke="midnightblue" points="124.526,-26.8729 114.14,-28.9639 123.563,-33.8064 124.526,-26.8729"/>
</g>
</g>
</svg>
