<?xml version="1.0" encoding="UTF-8" standalone="no"?>
<!DOCTYPE svg PUBLIC "-//W3C//DTD SVG 1.1//EN"
 "http://www.w3.org/Graphics/SVG/1.1/DTD/svg11.dtd">
<!-- Generated by graphviz version 2.34.0 (20130907.0228)
 -->
<!-- Title: Om::Form::OperandRange&lt; Operand &gt; Pages: 1 -->
<svg width="928pt" height="103pt"
 viewBox="0.00 0.00 928.00 103.00" xmlns="http://www.w3.org/2000/svg" xmlns:xlink="http://www.w3.org/1999/xlink">
<g id="graph0" class="graph" transform="scale(1 1) rotate(0) translate(4 99)">
<title>Om::Form::OperandRange&lt; Operand &gt;</title>
<!-- Node1 -->
<g id="node1" class="node"><title>Node1</title>
<polygon fill="#bfbfbf" stroke="black" points="784.532,-34 784.532,-66 919.468,-66 919.468,-34 784.532,-34"/>
<text text-anchor="start" x="792.532" y="-52" font-family="Helvetica,sans-Serif" font-size="10.00">Om::Form::OperandRange</text>
<text text-anchor="middle" x="852" y="-40" font-family="Helvetica,sans-Serif" font-size="10.00">&lt; Operand &gt;</text>
</g>
<!-- Node2 -->
<g id="node2" class="node"><title>Node2</title>
<g id="a_node2"><a xlink:href="class_om_1_1_source_1_1_collection_front_source.html" target="_top" xlink:title="Om::Source::CollectionFront\lSource\&lt; Operand, OperandDeque\l::iterator \&gt;">
<polygon fill="none" stroke="black" points="578.42,-28 578.42,-72 747.58,-72 747.58,-28 578.42,-28"/>
<text text-anchor="start" x="586.42" y="-58" font-family="Helvetica,sans-Serif" font-size="10.00">Om::Source::CollectionFront</text>
<text text-anchor="start" x="586.42" y="-46" font-family="Helvetica,sans-Serif" font-size="10.00">Source&lt; Operand, OperandDeque</text>
<text text-anchor="middle" x="663" y="-34" font-family="Helvetica,sans-Serif" font-size="10.00">::iterator &gt;</text>
</a>
</g>
</g>
<!-- Node2&#45;&gt;Node1 -->
<g id="edge1" class="edge"><title>Node2&#45;&gt;Node1</title>
<path fill="none" stroke="midnightblue" d="M757.82,-50C766.838,-50 775.851,-50 784.526,-50"/>
<polygon fill="midnightblue" stroke="midnightblue" points="757.655,-46.5001 747.655,-50 757.655,-53.5001 757.655,-46.5001"/>
</g>
<!-- Node3 -->
<g id="node3" class="node"><title>Node3</title>
<g id="a_node3"><a xlink:href="class_om_1_1_source_1_1_iterator_pair_source.html" target="_top" xlink:title="Om::Source::IteratorPair\lSource\&lt; Operand, OperandDeque\l::iterator \&gt;">
<polygon fill="none" stroke="black" points="372.42,-28 372.42,-72 541.58,-72 541.58,-28 372.42,-28"/>
<text text-anchor="start" x="380.42" y="-58" font-family="Helvetica,sans-Serif" font-size="10.00">Om::Source::IteratorPair</text>
<text text-anchor="start" x="380.42" y="-46" font-family="Helvetica,sans-Serif" font-size="10.00">Source&lt; Operand, OperandDeque</text>
<text text-anchor="middle" x="457" y="-34" font-family="Helvetica,sans-Serif" font-size="10.00">::iterator &gt;</text>
</a>
</g>
</g>
<!-- Node3&#45;&gt;Node2 -->
<g id="edge2" class="edge"><title>Node3&#45;&gt;Node2</title>
<path fill="none" stroke="midnightblue" d="M552.031,-50C560.741,-50 569.529,-50 578.138,-50"/>
<polygon fill="midnightblue" stroke="midnightblue" points="551.858,-46.5001 541.858,-50 551.858,-53.5001 551.858,-46.5001"/>
</g>
<!-- Node4 -->
<g id="node4" class="node"><title>Node4</title>
<g id="a_node4"><a xlink:href="class_om_1_1_source_1_1_default_source.html" target="_top" xlink:title="Om::Source::DefaultSource\l\&lt; Operand, IteratorPairSource\l\&lt; Operand, OperandDeque::iterator \&gt; \&gt;">
<polygon fill="none" stroke="black" points="144.305,-28 144.305,-72 335.695,-72 335.695,-28 144.305,-28"/>
<text text-anchor="start" x="152.305" y="-58" font-family="Helvetica,sans-Serif" font-size="10.00">Om::Source::DefaultSource</text>
<text text-anchor="start" x="152.305" y="-46" font-family="Helvetica,sans-Serif" font-size="10.00">&lt; Operand, IteratorPairSource</text>
<text text-anchor="middle" x="240" y="-34" font-family="Helvetica,sans-Serif" font-size="10.00">&lt; Operand, OperandDeque::iterator &gt; &gt;</text>
</a>
</g>
</g>
<!-- Node4&#45;&gt;Node3 -->
<g id="edge3" class="edge"><title>Node4&#45;&gt;Node3</title>
<path fill="none" stroke="midnightblue" d="M345.93,-50C354.809,-50 363.711,-50 372.394,-50"/>
<polygon fill="midnightblue" stroke="midnightblue" points="345.928,-46.5001 335.928,-50 345.928,-53.5001 345.928,-46.5001"/>
</g>
<!-- Node5 -->
<g id="node5" class="node"><title>Node5</title>
<g id="a_node5"><a xlink:href="class_om_1_1_source_1_1_source.html" target="_top" xlink:title="Om::Source::Source\l\&lt; Operand \&gt;">
<polygon fill="none" stroke="black" points="0.70459,-63 0.70459,-95 107.295,-95 107.295,-63 0.70459,-63"/>
<text text-anchor="start" x="8.70459" y="-81" font-family="Helvetica,sans-Serif" font-size="10.00">Om::Source::Source</text>
<text text-anchor="middle" x="54" y="-69" font-family="Helvetica,sans-Serif" font-size="10.00">&lt; Operand &gt;</text>
</a>
</g>
</g>
<!-- Node5&#45;&gt;Node4 -->
<g id="edge4" class="edge"><title>Node5&#45;&gt;Node4</title>
<path fill="none" stroke="midnightblue" d="M117.621,-69.1304C126.217,-67.7756 135.195,-66.3606 144.208,-64.94"/>
<polygon fill="midnightblue" stroke="midnightblue" points="117.06,-65.6755 107.727,-70.6898 118.15,-72.5901 117.06,-65.6755"/>
</g>
<!-- Node6 -->
<g id="node6" class="node"><title>Node6</title>
<polygon fill="none" stroke="#bfbfbf" points="2.9165,-0 2.9165,-44 105.083,-44 105.083,-0 2.9165,-0"/>
<text text-anchor="start" x="10.9165" y="-30" font-family="Helvetica,sans-Serif" font-size="10.00">std::iterator&lt; std</text>
<text text-anchor="start" x="10.9165" y="-18" font-family="Helvetica,sans-Serif" font-size="10.00">::input_iterator_tag,</text>
<text text-anchor="middle" x="54" y="-6" font-family="Helvetica,sans-Serif" font-size="10.00"> Operand &gt;</text>
</g>
<!-- Node6&#45;&gt;Node4 -->
<g id="edge5" class="edge"><title>Node6&#45;&gt;Node4</title>
<path fill="none" stroke="midnightblue" d="M115.183,-31.1583C124.511,-32.5777 134.336,-34.0729 144.204,-35.5745"/>
<polygon fill="midnightblue" stroke="midnightblue" points="115.692,-27.6955 105.279,-29.6511 114.638,-34.6158 115.692,-27.6955"/>
</g>
</g>
</svg>
