<?xml version="1.0" encoding="UTF-8" standalone="no"?>
<!DOCTYPE svg PUBLIC "-//W3C//DTD SVG 1.1//EN"
 "http://www.w3.org/Graphics/SVG/1.1/DTD/svg11.dtd">
<!-- Generated by graphviz version 2.30.1 (20130221.2233)
 -->
<!-- Title: Om::DefaultAtom&lt; ThisImplementation &gt; Pages: 1 -->
<svg width="1838pt" height="137pt"
 viewBox="0.00 0.00 1838.00 137.00" xmlns="http://www.w3.org/2000/svg" xmlns:xlink="http://www.w3.org/1999/xlink">
<g id="graph0" class="graph" transform="scale(1 1) rotate(0) translate(4 133)">
<title>Om::DefaultAtom&lt; ThisImplementation &gt;</title>
<!-- Node1 -->
<g id="node1" class="node"><title>Node1</title>
<polygon fill="#bfbfbf" stroke="black" points="1632.49,-25 1632.49,-45 1829.51,-45 1829.51,-25 1632.49,-25"/>
<text text-anchor="middle" x="1731" y="-31" font-family="Helvetica,sans-Serif" font-size="10.00">Om::DefaultAtom&lt; ThisImplementation &gt;</text>
</g>
<!-- Node2 -->
<g id="node2" class="node"><title>Node2</title>
<g id="a_node2"><a xlink:href="class_om_1_1_default_element.html" target="_top" xlink:title="Om::DefaultElement\l\&lt; ThisImplementation,\l Atom \&gt;">
<polygon fill="none" stroke="black" points="1481.76,-13 1481.76,-57 1596.24,-57 1596.24,-13 1481.76,-13"/>
<text text-anchor="start" x="1489.76" y="-43" font-family="Helvetica,sans-Serif" font-size="10.00">Om::DefaultElement</text>
<text text-anchor="start" x="1489.76" y="-31" font-family="Helvetica,sans-Serif" font-size="10.00">&lt; ThisImplementation,</text>
<text text-anchor="middle" x="1539" y="-19" font-family="Helvetica,sans-Serif" font-size="10.00"> Atom &gt;</text>
</a>
</g>
</g>
<!-- Node2&#45;&gt;Node1 -->
<g id="edge1" class="edge"><title>Node2&#45;&gt;Node1</title>
<path fill="none" stroke="midnightblue" d="M1606.56,-35C1614.96,-35 1623.69,-35 1632.45,-35"/>
<polygon fill="midnightblue" stroke="midnightblue" points="1606.49,-31.5001 1596.49,-35 1606.49,-38.5001 1606.49,-31.5001"/>
</g>
<!-- Node3 -->
<g id="node3" class="node"><title>Node3</title>
<g id="a_node3"><a xlink:href="class_om_1_1_default_program.html" target="_top" xlink:title="Om::DefaultProgram\l\&lt; ThisImplementation,\l Atom \&gt;">
<polygon fill="none" stroke="black" points="1331.76,-13 1331.76,-57 1446.24,-57 1446.24,-13 1331.76,-13"/>
<text text-anchor="start" x="1339.76" y="-43" font-family="Helvetica,sans-Serif" font-size="10.00">Om::DefaultProgram</text>
<text text-anchor="start" x="1339.76" y="-31" font-family="Helvetica,sans-Serif" font-size="10.00">&lt; ThisImplementation,</text>
<text text-anchor="middle" x="1389" y="-19" font-family="Helvetica,sans-Serif" font-size="10.00"> Atom &gt;</text>
</a>
</g>
</g>
<!-- Node3&#45;&gt;Node2 -->
<g id="edge2" class="edge"><title>Node3&#45;&gt;Node2</title>
<path fill="none" stroke="midnightblue" d="M1456.41,-35C1464.72,-35 1473.15,-35 1481.29,-35"/>
<polygon fill="midnightblue" stroke="midnightblue" points="1456.37,-31.5001 1446.37,-35 1456.37,-38.5001 1456.37,-31.5001"/>
</g>
<!-- Node4 -->
<g id="node4" class="node"><title>Node4</title>
<g id="a_node4"><a xlink:href="class_om_1_1_default_queue.html" target="_top" xlink:title="Om::DefaultQueue\&lt; ThisImplementation,\l DefaultGiveable\&lt; ThisImplementation,\l Atom \&gt; \&gt;">
<polygon fill="none" stroke="black" points="1098.07,-39 1098.07,-83 1295.93,-83 1295.93,-39 1098.07,-39"/>
<text text-anchor="start" x="1106.07" y="-69" font-family="Helvetica,sans-Serif" font-size="10.00">Om::DefaultQueue&lt; ThisImplementation,</text>
<text text-anchor="start" x="1106.07" y="-57" font-family="Helvetica,sans-Serif" font-size="10.00"> DefaultGiveable&lt; ThisImplementation,</text>
<text text-anchor="middle" x="1197" y="-45" font-family="Helvetica,sans-Serif" font-size="10.00"> Atom &gt; &gt;</text>
</a>
</g>
</g>
<!-- Node4&#45;&gt;Node3 -->
<g id="edge3" class="edge"><title>Node4&#45;&gt;Node3</title>
<path fill="none" stroke="midnightblue" d="M1306,-46.2205C1314.77,-45.0212 1323.38,-43.8425 1331.54,-42.7262"/>
<polygon fill="midnightblue" stroke="midnightblue" points="1305.49,-42.7576 1296.06,-47.5811 1306.44,-49.6929 1305.49,-42.7576"/>
</g>
<!-- Node5 -->
<g id="node5" class="node"><title>Node5</title>
<g id="a_node5"><a xlink:href="class_om_1_1_default_giveable.html" target="_top" xlink:title="Om::DefaultGiveable\l\&lt; ThisImplementation,\l Atom \&gt;">
<polygon fill="none" stroke="black" points="947.759,-39 947.759,-83 1062.24,-83 1062.24,-39 947.759,-39"/>
<text text-anchor="start" x="955.759" y="-69" font-family="Helvetica,sans-Serif" font-size="10.00">Om::DefaultGiveable</text>
<text text-anchor="start" x="955.759" y="-57" font-family="Helvetica,sans-Serif" font-size="10.00">&lt; ThisImplementation,</text>
<text text-anchor="middle" x="1005" y="-45" font-family="Helvetica,sans-Serif" font-size="10.00"> Atom &gt;</text>
</a>
</g>
</g>
<!-- Node5&#45;&gt;Node4 -->
<g id="edge4" class="edge"><title>Node5&#45;&gt;Node4</title>
<path fill="none" stroke="midnightblue" d="M1072.63,-61C1080.79,-61 1089.25,-61 1097.74,-61"/>
<polygon fill="midnightblue" stroke="midnightblue" points="1072.49,-57.5001 1062.49,-61 1072.49,-64.5001 1072.49,-57.5001"/>
</g>
<!-- Node6 -->
<g id="node6" class="node"><title>Node6</title>
<g id="a_node6"><a xlink:href="class_om_1_1_default_moveable.html" target="_top" xlink:title="Om::DefaultMoveable\l\&lt; ThisImplementation,\l DefaultCopyable\&lt; ThisImplementation,\l Atom \&gt; \&gt;">
<polygon fill="none" stroke="black" points="720.402,-33 720.402,-89 911.598,-89 911.598,-33 720.402,-33"/>
<text text-anchor="start" x="728.402" y="-75" font-family="Helvetica,sans-Serif" font-size="10.00">Om::DefaultMoveable</text>
<text text-anchor="start" x="728.402" y="-63" font-family="Helvetica,sans-Serif" font-size="10.00">&lt; ThisImplementation,</text>
<text text-anchor="start" x="728.402" y="-51" font-family="Helvetica,sans-Serif" font-size="10.00"> DefaultCopyable&lt; ThisImplementation,</text>
<text text-anchor="middle" x="816" y="-39" font-family="Helvetica,sans-Serif" font-size="10.00"> Atom &gt; &gt;</text>
</a>
</g>
</g>
<!-- Node6&#45;&gt;Node5 -->
<g id="edge5" class="edge"><title>Node6&#45;&gt;Node5</title>
<path fill="none" stroke="midnightblue" d="M922.142,-61C930.854,-61 939.43,-61 947.559,-61"/>
<polygon fill="midnightblue" stroke="midnightblue" points="921.87,-57.5001 911.87,-61 921.87,-64.5001 921.87,-57.5001"/>
</g>
<!-- Node7 -->
<g id="node7" class="node"><title>Node7</title>
<g id="a_node7"><a xlink:href="class_om_1_1_default_copyable.html" target="_top" xlink:title="Om::DefaultCopyable\l\&lt; ThisImplementation,\l Atom \&gt;">
<polygon fill="none" stroke="black" points="569.759,-39 569.759,-83 684.241,-83 684.241,-39 569.759,-39"/>
<text text-anchor="start" x="577.759" y="-69" font-family="Helvetica,sans-Serif" font-size="10.00">Om::DefaultCopyable</text>
<text text-anchor="start" x="577.759" y="-57" font-family="Helvetica,sans-Serif" font-size="10.00">&lt; ThisImplementation,</text>
<text text-anchor="middle" x="627" y="-45" font-family="Helvetica,sans-Serif" font-size="10.00"> Atom &gt;</text>
</a>
</g>
</g>
<!-- Node7&#45;&gt;Node6 -->
<g id="edge6" class="edge"><title>Node7&#45;&gt;Node6</title>
<path fill="none" stroke="midnightblue" d="M694.445,-61C702.86,-61 711.595,-61 720.343,-61"/>
<polygon fill="midnightblue" stroke="midnightblue" points="694.36,-57.5001 684.36,-61 694.36,-64.5001 694.36,-57.5001"/>
</g>
<!-- Node8 -->
<g id="node8" class="node"><title>Node8</title>
<g id="a_node8"><a xlink:href="class_om_1_1_atom.html" target="_top" xlink:title="An &quot;atomic&quot; Element defined by a string.">
<polygon fill="none" stroke="black" points="472.498,-51 472.498,-71 533.502,-71 533.502,-51 472.498,-51"/>
<text text-anchor="middle" x="503" y="-57" font-family="Helvetica,sans-Serif" font-size="10.00">Om::Atom</text>
</a>
</g>
</g>
<!-- Node8&#45;&gt;Node7 -->
<g id="edge7" class="edge"><title>Node8&#45;&gt;Node7</title>
<path fill="none" stroke="midnightblue" d="M543.635,-61C551.907,-61 560.779,-61 569.526,-61"/>
<polygon fill="midnightblue" stroke="midnightblue" points="543.533,-57.5001 533.533,-61 543.533,-64.5001 543.533,-57.5001"/>
</g>
<!-- Node9 -->
<g id="node9" class="node"><title>Node9</title>
<g id="a_node9"><a xlink:href="class_om_1_1_element.html" target="_top" xlink:title="A Program that contains a single &quot;elemental&quot; item (or none, when IsEmpty() returns true)...">
<polygon fill="none" stroke="black" points="361.825,-51 361.825,-71 436.175,-71 436.175,-51 361.825,-51"/>
<text text-anchor="middle" x="399" y="-57" font-family="Helvetica,sans-Serif" font-size="10.00">Om::Element</text>
</a>
</g>
</g>
<!-- Node9&#45;&gt;Node8 -->
<g id="edge8" class="edge"><title>Node9&#45;&gt;Node8</title>
<path fill="none" stroke="midnightblue" d="M446.412,-61C455.194,-61 464.16,-61 472.255,-61"/>
<polygon fill="midnightblue" stroke="midnightblue" points="446.249,-57.5001 436.249,-61 446.249,-64.5001 446.249,-57.5001"/>
</g>
<!-- Node10 -->
<g id="node10" class="node"><title>Node10</title>
<g id="a_node10"><a xlink:href="class_om_1_1_program.html" target="_top" xlink:title="The Program implementation.">
<polygon fill="none" stroke="black" points="249.995,-51 249.995,-71 326.005,-71 326.005,-51 249.995,-51"/>
<text text-anchor="middle" x="288" y="-57" font-family="Helvetica,sans-Serif" font-size="10.00">Om::Program</text>
</a>
</g>
</g>
<!-- Node10&#45;&gt;Node9 -->
<g id="edge9" class="edge"><title>Node10&#45;&gt;Node9</title>
<path fill="none" stroke="midnightblue" d="M336.384,-61C344.868,-61 353.587,-61 361.699,-61"/>
<polygon fill="midnightblue" stroke="midnightblue" points="336.207,-57.5001 326.207,-61 336.207,-64.5001 336.207,-57.5001"/>
</g>
<!-- Node11 -->
<g id="node11" class="node"><title>Node11</title>
<g id="a_node11"><a xlink:href="class_om_1_1_giveable.html" target="_top" xlink:title="An object that can be copied or moved via Give.">
<polygon fill="none" stroke="black" points="127.434,-90 127.434,-110 204.566,-110 204.566,-90 127.434,-90"/>
<text text-anchor="middle" x="166" y="-96" font-family="Helvetica,sans-Serif" font-size="10.00">Om::Giveable</text>
</a>
</g>
</g>
<!-- Node11&#45;&gt;Node10 -->
<g id="edge10" class="edge"><title>Node11&#45;&gt;Node10</title>
<path fill="none" stroke="midnightblue" d="M207.499,-86.8377C223.413,-81.6659 241.379,-75.8267 256.202,-71.0094"/>
<polygon fill="midnightblue" stroke="midnightblue" points="206.332,-83.537 197.903,-89.9565 208.495,-90.1942 206.332,-83.537"/>
</g>
<!-- Node12 -->
<g id="node12" class="node"><title>Node12</title>
<g id="a_node12"><a xlink:href="class_om_1_1_copyable.html" target="_top" xlink:title="An object that can be passed to Copy to be copied.">
<polygon fill="none" stroke="black" points="1.04199,-109 1.04199,-129 80.958,-129 80.958,-109 1.04199,-109"/>
<text text-anchor="middle" x="41" y="-115" font-family="Helvetica,sans-Serif" font-size="10.00">Om::Copyable</text>
</a>
</g>
</g>
<!-- Node12&#45;&gt;Node11 -->
<g id="edge11" class="edge"><title>Node12&#45;&gt;Node11</title>
<path fill="none" stroke="midnightblue" d="M91.186,-111.402C103.243,-109.54 115.958,-107.576 127.374,-105.812"/>
<polygon fill="midnightblue" stroke="midnightblue" points="90.6046,-107.95 81.2561,-112.936 91.6733,-114.868 90.6046,-107.95"/>
</g>
<!-- Node13 -->
<g id="node13" class="node"><title>Node13</title>
<g id="a_node13"><a xlink:href="class_om_1_1_moveable.html" target="_top" xlink:title="An object that can be passed to Move to be moved.">
<polygon fill="none" stroke="black" points="0.487793,-70 0.487793,-90 81.5122,-90 81.5122,-70 0.487793,-70"/>
<text text-anchor="middle" x="41" y="-76" font-family="Helvetica,sans-Serif" font-size="10.00">Om::Moveable</text>
</a>
</g>
</g>
<!-- Node13&#45;&gt;Node11 -->
<g id="edge12" class="edge"><title>Node13&#45;&gt;Node11</title>
<path fill="none" stroke="midnightblue" d="M91.7696,-88.0926C103.575,-90.0123 115.98,-92.0293 127.155,-93.8464"/>
<polygon fill="midnightblue" stroke="midnightblue" points="92.0271,-84.5886 81.595,-86.4382 90.9036,-91.4979 92.0271,-84.5886"/>
</g>
<!-- Node14 -->
<g id="node14" class="node"><title>Node14</title>
<g id="a_node14"><a xlink:href="class_om_1_1_queue.html" target="_top" xlink:title="A first&#45;in, first&#45;out Element processor.">
<polygon fill="none" stroke="black" points="132.155,-51 132.155,-71 199.845,-71 199.845,-51 132.155,-51"/>
<text text-anchor="middle" x="166" y="-57" font-family="Helvetica,sans-Serif" font-size="10.00">Om::Queue</text>
</a>
</g>
</g>
<!-- Node14&#45;&gt;Node10 -->
<g id="edge13" class="edge"><title>Node14&#45;&gt;Node10</title>
<path fill="none" stroke="midnightblue" d="M210.201,-61C223.153,-61 237.241,-61 249.772,-61"/>
<polygon fill="midnightblue" stroke="midnightblue" points="210.108,-57.5001 200.108,-61 210.108,-64.5001 210.108,-57.5001"/>
</g>
<!-- Node15 -->
<g id="node15" class="node"><title>Node15</title>
<g id="a_node15"><a xlink:href="class_om_1_1_shareable.html" target="_top" xlink:title="Om::Shareable\&lt;\&gt;">
<polygon fill="none" stroke="black" points="118.532,-12 118.532,-32 213.468,-32 213.468,-12 118.532,-12"/>
<text text-anchor="middle" x="166" y="-18" font-family="Helvetica,sans-Serif" font-size="10.00">Om::Shareable&lt;&gt;</text>
</a>
</g>
</g>
<!-- Node15&#45;&gt;Node10 -->
<g id="edge14" class="edge"><title>Node15&#45;&gt;Node10</title>
<path fill="none" stroke="midnightblue" d="M207.499,-35.1623C223.413,-40.3341 241.379,-46.1733 256.202,-50.9906"/>
<polygon fill="midnightblue" stroke="midnightblue" points="208.495,-31.8058 197.903,-32.0435 206.332,-38.463 208.495,-31.8058"/>
</g>
<!-- Node16 -->
<g id="node16" class="node"><title>Node16</title>
<g id="a_node16"><a xlink:href="class_om_1_1_taker.html" target="_top" xlink:title="An object that can take (copy or swap) another of the same type.">
<polygon fill="none" stroke="black" points="1113.78,-0 1113.78,-20 1280.22,-20 1280.22,-0 1113.78,-0"/>
<text text-anchor="middle" x="1197" y="-6" font-family="Helvetica,sans-Serif" font-size="10.00">Om::Taker&lt; ThisImplementation &gt;</text>
</a>
</g>
</g>
<!-- Node16&#45;&gt;Node3 -->
<g id="edge15" class="edge"><title>Node16&#45;&gt;Node3</title>
<path fill="none" stroke="midnightblue" d="M1284.16,-21.3375C1300.29,-23.4593 1316.76,-25.6261 1331.69,-27.5906"/>
<polygon fill="midnightblue" stroke="midnightblue" points="1284.56,-17.8589 1274.19,-20.0244 1283.64,-24.7991 1284.56,-17.8589"/>
</g>
</g>
</svg>
