<?xml version="1.0" encoding="UTF-8" standalone="no"?>
<!DOCTYPE svg PUBLIC "-//W3C//DTD SVG 1.1//EN"
 "http://www.w3.org/Graphics/SVG/1.1/DTD/svg11.dtd">
<!-- Generated by graphviz version 2.28.0 (20120817.0054)
 -->
<!-- Title: Om::Writer Pages: 1 -->
<svg width="280pt" height="166pt"
 viewBox="0.00 0.00 280.00 166.00" xmlns="http://www.w3.org/2000/svg" xmlns:xlink="http://www.w3.org/1999/xlink">
<g id="graph1" class="graph" transform="scale(1 1) rotate(0) translate(4 162)">
<title>Om::Writer</title>
<!-- Node1 -->
<g id="node1" class="node"><title>Node1</title>
<polygon fill="#bfbfbf" stroke="black" points="143,-0.5 143,-19.5 203,-19.5 203,-0.5 143,-0.5"/>
<text text-anchor="middle" x="173" y="-7.5" font-family="Helvetica,sans-Serif" font-size="10.00">Om::Writer</text>
</g>
<!-- Node2 -->
<g id="node2" class="node"><title>Node2</title>
<a xlink:href="class_om_1_1_default_queue.html" target="_top" xlink:title="Om::DefaultQueue\&lt; Writer \&gt;">
<polygon fill="none" stroke="black" points="0,-74.5 0,-93.5 136,-93.5 136,-74.5 0,-74.5"/>
<text text-anchor="middle" x="68" y="-81.5" font-family="Helvetica,sans-Serif" font-size="10.00">Om::DefaultQueue&lt; Writer &gt;</text>
</a>
</g>
<!-- Node2&#45;&gt;Node1 -->
<g id="edge2" class="edge"><title>Node2&#45;&gt;Node1</title>
<path fill="none" stroke="midnightblue" d="M88.8726,-68.6873C110.285,-54.0048 142.886,-31.6496 160.559,-19.531"/>
<polygon fill="midnightblue" stroke="midnightblue" points="86.7251,-65.916 80.4572,-74.4579 90.6839,-71.6891 86.7251,-65.916"/>
</g>
<!-- Node3 -->
<g id="node4" class="node"><title>Node3</title>
<a xlink:href="class_om_1_1_queue.html" target="_top" xlink:title="A first&#45;in, first&#45;out Element processor.">
<polygon fill="none" stroke="black" points="35,-138.5 35,-157.5 101,-157.5 101,-138.5 35,-138.5"/>
<text text-anchor="middle" x="68" y="-145.5" font-family="Helvetica,sans-Serif" font-size="10.00">Om::Queue</text>
</a>
</g>
<!-- Node3&#45;&gt;Node2 -->
<g id="edge4" class="edge"><title>Node3&#45;&gt;Node2</title>
<path fill="none" stroke="midnightblue" d="M68,-128.037C68,-116.53 68,-102.403 68,-93.5476"/>
<polygon fill="midnightblue" stroke="midnightblue" points="64.5001,-128.379 68,-138.379 71.5001,-128.379 64.5001,-128.379"/>
</g>
<!-- Node4 -->
<g id="node6" class="node"><title>Node4</title>
<a xlink:href="class_om_1_1_sink.html" target="_top" xlink:title="Om::Sink\&lt; CodePoint\l const &#160;\&gt;">
<polygon fill="none" stroke="black" points="154.5,-69 154.5,-99 261.5,-99 261.5,-69 154.5,-69"/>
<text text-anchor="start" x="162.5" y="-87" font-family="Helvetica,sans-Serif" font-size="10.00">Om::Sink&lt; CodePoint</text>
<text text-anchor="middle" x="208" y="-76" font-family="Helvetica,sans-Serif" font-size="10.00"> const &gt;</text>
</a>
</g>
<!-- Node4&#45;&gt;Node1 -->
<g id="edge6" class="edge"><title>Node4&#45;&gt;Node1</title>
<path fill="none" stroke="#9a32cd" stroke-dasharray="5,2" d="M196.568,-59.4835C189.957,-45.8836 182.028,-29.571 177.258,-19.7589"/>
<polygon fill="#9a32cd" stroke="#9a32cd" points="193.565,-61.3116 201.085,-68.7751 199.861,-58.2512 193.565,-61.3116"/>
<text text-anchor="middle" x="232" y="-41.5" font-family="Helvetica,sans-Serif" font-size="10.00"> thisCodePointSink</text>
</g>
</g>
</svg>
