<?xml version="1.0" encoding="UTF-8" standalone="no"?>
<!DOCTYPE svg PUBLIC "-//W3C//DTD SVG 1.1//EN"
 "http://www.w3.org/Graphics/SVG/1.1/DTD/svg11.dtd">
<!-- Generated by graphviz version 2.36.0 (20140111.2315)
 -->
<!-- Title: Om::Copyable Pages: 1 -->
<svg width="134pt" height="252pt"
 viewBox="0.00 0.00 134.00 252.00" xmlns="http://www.w3.org/2000/svg" xmlns:xlink="http://www.w3.org/1999/xlink">
<g id="graph0" class="graph" transform="scale(1 1) rotate(0) translate(4 248)">
<title>Om::Copyable</title>
<!-- Node1 -->
<g id="node1" class="node"><title>Node1</title>
<polygon fill="#bfbfbf" stroke="black" points="23.042,-225 23.042,-243 102.958,-243 102.958,-225 23.042,-225"/>
<text text-anchor="middle" x="63" y="-231" font-family="Helvetica,sans-Serif" font-size="10.00">Om::Copyable</text>
</g>
<!-- Node2 -->
<g id="node2" class="node"><title>Node2</title>
<g id="a_node2"><a xlink:href="class_om_1_1_giveable.html" target="_top" xlink:title="An object that can be copied or moved via Give. ">
<polygon fill="none" stroke="black" points="24.4336,-169 24.4336,-187 101.566,-187 101.566,-169 24.4336,-169"/>
<text text-anchor="middle" x="63" y="-175" font-family="Helvetica,sans-Serif" font-size="10.00">Om::Giveable</text>
</a>
</g>
</g>
<!-- Node1&#45;&gt;Node2 -->
<g id="edge1" class="edge"><title>Node1&#45;&gt;Node2</title>
<path fill="none" stroke="midnightblue" d="M63,-214.329C63,-205.077 63,-194.38 63,-187.201"/>
<polygon fill="midnightblue" stroke="midnightblue" points="59.5001,-214.562 63,-224.562 66.5001,-214.563 59.5001,-214.562"/>
</g>
<!-- Node3 -->
<g id="node3" class="node"><title>Node3</title>
<g id="a_node3"><a xlink:href="class_om_1_1_language_1_1_program.html" target="_top" xlink:title="The Program implementation. ">
<polygon fill="none" stroke="black" points="-0.0292969,-113 -0.0292969,-131 126.029,-131 126.029,-113 -0.0292969,-113"/>
<text text-anchor="middle" x="63" y="-119" font-family="Helvetica,sans-Serif" font-size="10.00">Om::Language::Program</text>
</a>
</g>
</g>
<!-- Node2&#45;&gt;Node3 -->
<g id="edge2" class="edge"><title>Node2&#45;&gt;Node3</title>
<path fill="none" stroke="midnightblue" d="M63,-158.329C63,-149.077 63,-138.38 63,-131.201"/>
<polygon fill="midnightblue" stroke="midnightblue" points="59.5001,-158.562 63,-168.562 66.5001,-158.563 59.5001,-158.562"/>
</g>
<!-- Node4 -->
<g id="node4" class="node"><title>Node4</title>
<g id="a_node4"><a xlink:href="class_om_1_1_language_1_1_element.html" target="_top" xlink:title="A Program that contains a single elemental item (or none, when IsEmpty() returns true). ">
<polygon fill="none" stroke="black" points="0.800781,-57 0.800781,-75 125.199,-75 125.199,-57 0.800781,-57"/>
<text text-anchor="middle" x="63" y="-63" font-family="Helvetica,sans-Serif" font-size="10.00">Om::Language::Element</text>
</a>
</g>
</g>
<!-- Node3&#45;&gt;Node4 -->
<g id="edge3" class="edge"><title>Node3&#45;&gt;Node4</title>
<path fill="none" stroke="midnightblue" d="M63,-102.329C63,-93.0774 63,-82.3798 63,-75.2014"/>
<polygon fill="midnightblue" stroke="midnightblue" points="59.5001,-102.562 63,-112.562 66.5001,-102.563 59.5001,-102.562"/>
</g>
<!-- Node5 -->
<g id="node5" class="node"><title>Node5</title>
<g id="a_node5"><a xlink:href="class_om_1_1_language_1_1_atom.html" target="_top" xlink:title="An atomic Element defined by a string. ">
<polygon fill="none" stroke="black" points="7.47314,-1 7.47314,-19 118.527,-19 118.527,-1 7.47314,-1"/>
<text text-anchor="middle" x="63" y="-7" font-family="Helvetica,sans-Serif" font-size="10.00">Om::Language::Atom</text>
</a>
</g>
</g>
<!-- Node4&#45;&gt;Node5 -->
<g id="edge4" class="edge"><title>Node4&#45;&gt;Node5</title>
<path fill="none" stroke="midnightblue" d="M63,-46.3288C63,-37.0774 63,-26.3798 63,-19.2014"/>
<polygon fill="midnightblue" stroke="midnightblue" points="59.5001,-46.5625 63,-56.5625 66.5001,-46.5625 59.5001,-46.5625"/>
</g>
</g>
</svg>
