<?xml version="1.0" encoding="UTF-8" standalone="no"?>
<!DOCTYPE svg PUBLIC "-//W3C//DTD SVG 1.1//EN"
 "http://www.w3.org/Graphics/SVG/1.1/DTD/svg11.dtd">
<!-- Generated by graphviz version 2.30.1 (20130221.2233)
 -->
<!-- Title: Om::Lexicon::ElementRange Pages: 1 -->
<svg width="508pt" height="103pt"
 viewBox="0.00 0.00 508.00 103.00" xmlns="http://www.w3.org/2000/svg" xmlns:xlink="http://www.w3.org/1999/xlink">
<g id="graph0" class="graph" transform="scale(1 1) rotate(0) translate(4 99)">
<title>Om::Lexicon::ElementRange</title>
<!-- Node1 -->
<g id="node1" class="node"><title>Node1</title>
<polygon fill="#bfbfbf" stroke="black" points="356.079,-40 356.079,-60 499.921,-60 499.921,-40 356.079,-40"/>
<text text-anchor="middle" x="428" y="-46" font-family="Helvetica,sans-Serif" font-size="10.00">Om::Lexicon::ElementRange</text>
</g>
<!-- Node2 -->
<g id="node2" class="node"><title>Node2</title>
<g id="a_node2"><a xlink:href="class_om_1_1_sources_1_1_default_source.html" target="_top" xlink:title="Om::Sources::DefaultSource\l\&lt; Element const, ElementRange \&gt;">
<polygon fill="none" stroke="black" points="151.845,-34 151.845,-66 320.155,-66 320.155,-34 151.845,-34"/>
<text text-anchor="start" x="159.845" y="-52" font-family="Helvetica,sans-Serif" font-size="10.00">Om::Sources::DefaultSource</text>
<text text-anchor="middle" x="236" y="-40" font-family="Helvetica,sans-Serif" font-size="10.00">&lt; Element const, ElementRange &gt;</text>
</a>
</g>
</g>
<!-- Node2&#45;&gt;Node1 -->
<g id="edge1" class="edge"><title>Node2&#45;&gt;Node1</title>
<path fill="none" stroke="midnightblue" d="M330.39,-50C338.975,-50 347.577,-50 355.916,-50"/>
<polygon fill="midnightblue" stroke="midnightblue" points="330.337,-46.5001 320.337,-50 330.337,-53.5001 330.337,-46.5001"/>
</g>
<!-- Node3 -->
<g id="node3" class="node"><title>Node3</title>
<g id="a_node3"><a xlink:href="class_om_1_1_source.html" target="_top" xlink:title="Om::Source\&lt; Element\l const &#160;\&gt;">
<polygon fill="none" stroke="black" points="0.673828,-63 0.673828,-95 115.326,-95 115.326,-63 0.673828,-63"/>
<text text-anchor="start" x="8.67383" y="-81" font-family="Helvetica,sans-Serif" font-size="10.00">Om::Source&lt; Element</text>
<text text-anchor="middle" x="58" y="-69" font-family="Helvetica,sans-Serif" font-size="10.00"> const &gt;</text>
</a>
</g>
</g>
<!-- Node3&#45;&gt;Node2 -->
<g id="edge2" class="edge"><title>Node3&#45;&gt;Node2</title>
<path fill="none" stroke="midnightblue" d="M125.772,-67.9977C134.196,-66.6097 142.897,-65.1761 151.538,-63.7522"/>
<polygon fill="midnightblue" stroke="midnightblue" points="124.954,-64.5853 115.656,-69.6646 126.092,-71.4921 124.954,-64.5853"/>
</g>
<!-- Node4 -->
<g id="node4" class="node"><title>Node4</title>
<polygon fill="none" stroke="#bfbfbf" points="6.9165,-0 6.9165,-44 109.083,-44 109.083,-0 6.9165,-0"/>
<text text-anchor="start" x="14.9165" y="-30" font-family="Helvetica,sans-Serif" font-size="10.00">std::iterator&lt; std</text>
<text text-anchor="start" x="14.9165" y="-18" font-family="Helvetica,sans-Serif" font-size="10.00">::input_iterator_tag,</text>
<text text-anchor="middle" x="58" y="-6" font-family="Helvetica,sans-Serif" font-size="10.00"> Element const &gt;</text>
</g>
<!-- Node4&#45;&gt;Node2 -->
<g id="edge3" class="edge"><title>Node4&#45;&gt;Node2</title>
<path fill="none" stroke="midnightblue" d="M119.575,-31.6369C129.926,-33.2837 140.841,-35.0201 151.661,-36.7415"/>
<polygon fill="midnightblue" stroke="midnightblue" points="119.86,-28.1384 109.435,-30.0237 118.76,-35.0514 119.86,-28.1384"/>
</g>
</g>
</svg>
