<?xml version="1.0" encoding="UTF-8" standalone="no"?>
<!DOCTYPE svg PUBLIC "-//W3C//DTD SVG 1.1//EN"
 "http://www.w3.org/Graphics/SVG/1.1/DTD/svg11.dtd">
<!-- Generated by graphviz version 2.28.0 (20120817.0054)
 -->
<!-- Title: Om::Operations::FrontPushOperation&lt; ThisProgram, ThisImplementation &gt; Pages: 1 -->
<svg width="186pt" height="184pt"
 viewBox="0.00 0.00 186.00 184.00" xmlns="http://www.w3.org/2000/svg" xmlns:xlink="http://www.w3.org/1999/xlink">
<g id="graph1" class="graph" transform="scale(1 1) rotate(0) translate(4 180)">
<title>Om::Operations::FrontPushOperation&lt; ThisProgram, ThisImplementation &gt;</title>
<!-- Node1 -->
<g id="node1" class="node"><title>Node1</title>
<polygon fill="#bfbfbf" stroke="black" points="23.5,-0.5 23.5,-41.5 154.5,-41.5 154.5,-0.5 23.5,-0.5"/>
<text text-anchor="start" x="31.5" y="-29.5" font-family="Helvetica,sans-Serif" font-size="10.00">Om::Operations::FrontPush</text>
<text text-anchor="start" x="31.5" y="-18.5" font-family="Helvetica,sans-Serif" font-size="10.00">Operation&lt; ThisProgram,</text>
<text text-anchor="middle" x="89" y="-7.5" font-family="Helvetica,sans-Serif" font-size="10.00"> ThisImplementation &gt;</text>
</g>
<!-- Node2 -->
<g id="node2" class="node"><title>Node2</title>
<a xlink:href="class_om_1_1_default_operation.html" target="_top" xlink:title="Om::DefaultOperation\l\&lt; FrontPushOperation\l\&lt; ThisProgram, ThisImplementation \&gt; \&gt;">
<polygon fill="none" stroke="black" points="-0.5,-78.5 -0.5,-119.5 178.5,-119.5 178.5,-78.5 -0.5,-78.5"/>
<text text-anchor="start" x="7.5" y="-107.5" font-family="Helvetica,sans-Serif" font-size="10.00">Om::DefaultOperation</text>
<text text-anchor="start" x="7.5" y="-96.5" font-family="Helvetica,sans-Serif" font-size="10.00">&lt; FrontPushOperation</text>
<text text-anchor="middle" x="89" y="-85.5" font-family="Helvetica,sans-Serif" font-size="10.00">&lt; ThisProgram, ThisImplementation &gt; &gt;</text>
</a>
</g>
<!-- Node2&#45;&gt;Node1 -->
<g id="edge2" class="edge"><title>Node2&#45;&gt;Node1</title>
<path fill="none" stroke="midnightblue" d="M89,-68.2965C89,-59.3009 89,-49.6532 89,-41.5056"/>
<polygon fill="midnightblue" stroke="midnightblue" points="85.5001,-68.4281 89,-78.4281 92.5001,-68.4281 85.5001,-68.4281"/>
</g>
<!-- Node3 -->
<g id="node4" class="node"><title>Node3</title>
<a xlink:href="class_om_1_1_operation.html" target="_top" xlink:title="An Operation that has yet to consume one or more Operands, and therefore must live in memory while &quot;i...">
<polygon fill="none" stroke="black" points="49.5,-156.5 49.5,-175.5 128.5,-175.5 128.5,-156.5 49.5,-156.5"/>
<text text-anchor="middle" x="89" y="-163.5" font-family="Helvetica,sans-Serif" font-size="10.00">Om::Operation</text>
</a>
</g>
<!-- Node3&#45;&gt;Node2 -->
<g id="edge4" class="edge"><title>Node3&#45;&gt;Node2</title>
<path fill="none" stroke="midnightblue" d="M89,-146.037C89,-137.708 89,-127.936 89,-119.542"/>
<polygon fill="midnightblue" stroke="midnightblue" points="85.5001,-146.234 89,-156.234 92.5001,-146.234 85.5001,-146.234"/>
</g>
</g>
</svg>
