<?xml version="1.0" encoding="UTF-8" standalone="no"?>
<!DOCTYPE svg PUBLIC "-//W3C//DTD SVG 1.1//EN"
 "http://www.w3.org/Graphics/SVG/1.1/DTD/svg11.dtd">
<!-- Generated by graphviz version 2.36.0 (20140111.2315)
 -->
<!-- Title: Om::Language::Form::ElementRange Pages: 1 -->
<svg width="866pt" height="203pt"
 viewBox="0.00 0.00 866.00 203.00" xmlns="http://www.w3.org/2000/svg" xmlns:xlink="http://www.w3.org/1999/xlink">
<g id="graph0" class="graph" transform="scale(1 1) rotate(0) translate(4 199)">
<title>Om::Language::Form::ElementRange</title>
<!-- Node1 -->
<g id="node1" class="node"><title>Node1</title>
<polygon fill="#bfbfbf" stroke="black" points="746.478,-89 746.478,-117 857.522,-117 857.522,-89 746.478,-89"/>
<text text-anchor="start" x="754.478" y="-105" font-family="Helvetica,sans-Serif" font-size="10.00">Om::Language::Form</text>
<text text-anchor="middle" x="802" y="-95" font-family="Helvetica,sans-Serif" font-size="10.00">::ElementRange</text>
</g>
<!-- Node2 -->
<g id="node2" class="node"><title>Node2</title>
<g id="a_node2"><a xlink:href="class_om_1_1_source_1_1_default_source.html" target="_top" xlink:title="Om::Source::DefaultSource\l\&lt; Element const, ElementRange \&gt;">
<polygon fill="none" stroke="black" points="455.845,-136 455.845,-164 624.155,-164 624.155,-136 455.845,-136"/>
<text text-anchor="start" x="463.845" y="-152" font-family="Helvetica,sans-Serif" font-size="10.00">Om::Source::DefaultSource</text>
<text text-anchor="middle" x="540" y="-142" font-family="Helvetica,sans-Serif" font-size="10.00">&lt; Element const, ElementRange &gt;</text>
</a>
</g>
</g>
<!-- Node2&#45;&gt;Node1 -->
<g id="edge1" class="edge"><title>Node2&#45;&gt;Node1</title>
<path fill="none" stroke="midnightblue" d="M634.508,-142.124C664.574,-138.629 697.887,-133.734 728,-127 739.587,-124.409 751.941,-120.718 763.128,-117.007"/>
<polygon fill="midnightblue" stroke="midnightblue" points="633.992,-138.66 624.446,-143.257 634.775,-145.616 633.992,-138.66"/>
</g>
<!-- Node3 -->
<g id="node3" class="node"><title>Node3</title>
<g id="a_node3"><a xlink:href="class_om_1_1_source_1_1_source.html" target="_top" xlink:title="Om::Source::Source\l\&lt; Element const &#160;\&gt;">
<polygon fill="none" stroke="black" points="301.705,-167 301.705,-195 408.295,-195 408.295,-167 301.705,-167"/>
<text text-anchor="start" x="309.705" y="-183" font-family="Helvetica,sans-Serif" font-size="10.00">Om::Source::Source</text>
<text text-anchor="middle" x="355" y="-173" font-family="Helvetica,sans-Serif" font-size="10.00">&lt; Element const &gt;</text>
</a>
</g>
</g>
<!-- Node3&#45;&gt;Node2 -->
<g id="edge2" class="edge"><title>Node3&#45;&gt;Node2</title>
<path fill="none" stroke="midnightblue" d="M418.436,-170.423C430.574,-168.367 443.473,-166.182 456.149,-164.035"/>
<polygon fill="midnightblue" stroke="midnightblue" points="417.715,-166.996 408.44,-172.117 418.885,-173.897 417.715,-166.996"/>
</g>
<!-- Node4 -->
<g id="node4" class="node"><title>Node4</title>
<polygon fill="none" stroke="#bfbfbf" points="303.917,-110 303.917,-148 406.083,-148 406.083,-110 303.917,-110"/>
<text text-anchor="start" x="311.917" y="-136" font-family="Helvetica,sans-Serif" font-size="10.00">std::iterator&lt; std</text>
<text text-anchor="start" x="311.917" y="-126" font-family="Helvetica,sans-Serif" font-size="10.00">::input_iterator_tag,</text>
<text text-anchor="middle" x="355" y="-116" font-family="Helvetica,sans-Serif" font-size="10.00"> Element const &gt;</text>
</g>
<!-- Node4&#45;&gt;Node2 -->
<g id="edge3" class="edge"><title>Node4&#45;&gt;Node2</title>
<path fill="none" stroke="midnightblue" d="M416.738,-135.97C429.209,-137.401 442.542,-138.931 455.65,-140.435"/>
<polygon fill="midnightblue" stroke="midnightblue" points="416.824,-132.457 406.49,-134.794 416.026,-139.411 416.824,-132.457"/>
</g>
<!-- Node5 -->
<g id="node5" class="node"><title>Node5</title>
<g id="a_node5"><a xlink:title="STL iterator class. ">
<polygon fill="none" stroke="#bfbfbf" points="482.422,-89 482.422,-117 597.578,-117 597.578,-89 482.422,-89"/>
<text text-anchor="start" x="490.422" y="-105" font-family="Helvetica,sans-Serif" font-size="10.00">std::deque&lt; T &gt;::const</text>
<text text-anchor="middle" x="540" y="-95" font-family="Helvetica,sans-Serif" font-size="10.00">_iterator</text>
</a>
</g>
</g>
<!-- Node5&#45;&gt;Node1 -->
<g id="edge4" class="edge"><title>Node5&#45;&gt;Node1</title>
<path fill="none" stroke="#9a32cd" stroke-dasharray="5,2" d="M607.813,-103C650.74,-103 705.813,-103 746.167,-103"/>
<polygon fill="#9a32cd" stroke="#9a32cd" points="607.737,-99.5001 597.737,-103 607.737,-106.5 607.737,-99.5001"/>
<text text-anchor="middle" x="685" y="-115" font-family="Helvetica,sans-Serif" font-size="10.00"> thisOperandEnd</text>
<text text-anchor="middle" x="685" y="-105" font-family="Helvetica,sans-Serif" font-size="10.00">thisOperandIterator</text>
</g>
<!-- Node6 -->
<g id="node6" class="node"><title>Node6</title>
<g id="a_node6"><a xlink:href="class_om_1_1_language_1_1_element.html" target="_top" xlink:title="A Program that contains a single elemental item (or none, when IsEmpty() returns true). ">
<polygon fill="none" stroke="black" points="477.801,-52 477.801,-70 602.199,-70 602.199,-52 477.801,-52"/>
<text text-anchor="middle" x="540" y="-58" font-family="Helvetica,sans-Serif" font-size="10.00">Om::Language::Element</text>
</a>
</g>
</g>
<!-- Node6&#45;&gt;Node1 -->
<g id="edge5" class="edge"><title>Node6&#45;&gt;Node1</title>
<path fill="none" stroke="#9a32cd" stroke-dasharray="5,2" d="M612.672,-71.0318C647.529,-76.0891 690.007,-82.5152 728,-89 733.979,-90.0205 740.223,-91.1381 746.433,-92.2829"/>
<polygon fill="#9a32cd" stroke="#9a32cd" points="612.982,-67.5403 602.584,-69.5754 611.981,-74.4684 612.982,-67.5403"/>
<text text-anchor="middle" x="685" y="-91" font-family="Helvetica,sans-Serif" font-size="10.00"> thisElement</text>
</g>
<!-- Node7 -->
<g id="node7" class="node"><title>Node7</title>
<g id="a_node7"><a xlink:href="class_om_1_1_language_1_1_program.html" target="_top" xlink:title="The Program implementation. ">
<polygon fill="none" stroke="black" points="291.971,-52 291.971,-70 418.029,-70 418.029,-52 291.971,-52"/>
<text text-anchor="middle" x="355" y="-58" font-family="Helvetica,sans-Serif" font-size="10.00">Om::Language::Program</text>
</a>
</g>
</g>
<!-- Node7&#45;&gt;Node6 -->
<g id="edge6" class="edge"><title>Node7&#45;&gt;Node6</title>
<path fill="none" stroke="midnightblue" d="M428.245,-61C444.57,-61 461.752,-61 477.582,-61"/>
<polygon fill="midnightblue" stroke="midnightblue" points="428.211,-57.5001 418.211,-61 428.211,-64.5001 428.211,-57.5001"/>
</g>
<!-- Node8 -->
<g id="node8" class="node"><title>Node8</title>
<g id="a_node8"><a xlink:href="class_om_1_1_language_1_1_consumer.html" target="_top" xlink:title="An Element taker; takes at the back. ">
<polygon fill="none" stroke="black" points="120.079,-111 120.079,-129 253.921,-129 253.921,-111 120.079,-111"/>
<text text-anchor="middle" x="187" y="-117" font-family="Helvetica,sans-Serif" font-size="10.00">Om::Language::Consumer</text>
</a>
</g>
</g>
<!-- Node8&#45;&gt;Node7 -->
<g id="edge7" class="edge"><title>Node8&#45;&gt;Node7</title>
<path fill="none" stroke="midnightblue" d="M231.517,-108.143C239.055,-105.899 246.785,-103.475 254,-101 281.769,-91.476 313.089,-78.5892 333.16,-70.0464"/>
<polygon fill="midnightblue" stroke="midnightblue" points="230.402,-104.823 221.779,-110.98 232.359,-111.544 230.402,-104.823"/>
</g>
<!-- Node9 -->
<g id="node9" class="node"><title>Node9</title>
<g id="a_node9"><a xlink:href="class_om_1_1_giveable.html" target="_top" xlink:title="An object that can be copied or moved via Give. ">
<polygon fill="none" stroke="black" points="148.434,-74 148.434,-92 225.566,-92 225.566,-74 148.434,-74"/>
<text text-anchor="middle" x="187" y="-80" font-family="Helvetica,sans-Serif" font-size="10.00">Om::Giveable</text>
</a>
</g>
</g>
<!-- Node9&#45;&gt;Node7 -->
<g id="edge8" class="edge"><title>Node9&#45;&gt;Node7</title>
<path fill="none" stroke="midnightblue" d="M235.631,-76.6874C253.111,-74.3709 273.164,-71.7132 291.738,-69.2516"/>
<polygon fill="midnightblue" stroke="midnightblue" points="235.121,-73.2243 225.668,-78.0079 236.041,-80.1636 235.121,-73.2243"/>
</g>
<!-- Node10 -->
<g id="node10" class="node"><title>Node10</title>
<g id="a_node10"><a xlink:href="class_om_1_1_copyable.html" target="_top" xlink:title="An object that can be passed to Copy to be copied. ">
<polygon fill="none" stroke="black" points="1.04199,-92 1.04199,-110 80.958,-110 80.958,-92 1.04199,-92"/>
<text text-anchor="middle" x="41" y="-98" font-family="Helvetica,sans-Serif" font-size="10.00">Om::Copyable</text>
</a>
</g>
</g>
<!-- Node10&#45;&gt;Node9 -->
<g id="edge9" class="edge"><title>Node10&#45;&gt;Node9</title>
<path fill="none" stroke="midnightblue" d="M91.0376,-94.8703C109.651,-92.5436 130.552,-89.931 147.996,-87.7504"/>
<polygon fill="midnightblue" stroke="midnightblue" points="90.4571,-91.4155 80.9685,-96.1289 91.3254,-98.3615 90.4571,-91.4155"/>
</g>
<!-- Node11 -->
<g id="node11" class="node"><title>Node11</title>
<g id="a_node11"><a xlink:href="class_om_1_1_moveable.html" target="_top" xlink:title="An object that can be passed to Move to be moved. ">
<polygon fill="none" stroke="black" points="0.487793,-55 0.487793,-73 81.5122,-73 81.5122,-55 0.487793,-55"/>
<text text-anchor="middle" x="41" y="-61" font-family="Helvetica,sans-Serif" font-size="10.00">Om::Moveable</text>
</a>
</g>
</g>
<!-- Node11&#45;&gt;Node9 -->
<g id="edge10" class="edge"><title>Node11&#45;&gt;Node9</title>
<path fill="none" stroke="midnightblue" d="M91.7819,-70.5684C110.345,-73.0177 131.092,-75.7551 148.382,-78.0365"/>
<polygon fill="midnightblue" stroke="midnightblue" points="92.1018,-67.0804 81.7298,-69.2421 91.186,-74.0202 92.1018,-67.0804"/>
</g>
<!-- Node12 -->
<g id="node12" class="node"><title>Node12</title>
<g id="a_node12"><a xlink:href="class_om_1_1_language_1_1_producer.html" target="_top" xlink:title="An Element giver; gives from the front. ">
<polygon fill="none" stroke="black" points="122.855,-37 122.855,-55 251.145,-55 251.145,-37 122.855,-37"/>
<text text-anchor="middle" x="187" y="-43" font-family="Helvetica,sans-Serif" font-size="10.00">Om::Language::Producer</text>
</a>
</g>
</g>
<!-- Node12&#45;&gt;Node7 -->
<g id="edge11" class="edge"><title>Node12&#45;&gt;Node7</title>
<path fill="none" stroke="midnightblue" d="M261.307,-52.6241C271.471,-53.5425 281.832,-54.4788 291.768,-55.3766"/>
<polygon fill="midnightblue" stroke="midnightblue" points="261.505,-49.1279 251.231,-51.7136 260.875,-56.0995 261.505,-49.1279"/>
</g>
<!-- Node13 -->
<g id="node13" class="node"><title>Node13</title>
<g id="a_node13"><a xlink:href="class_om_1_1_shareable.html" target="_top" xlink:title="Om::Shareable\&lt;\&gt;">
<polygon fill="none" stroke="black" points="139.532,-0 139.532,-18 234.468,-18 234.468,-0 139.532,-0"/>
<text text-anchor="middle" x="187" y="-6" font-family="Helvetica,sans-Serif" font-size="10.00">Om::Shareable&lt;&gt;</text>
</a>
</g>
</g>
<!-- Node13&#45;&gt;Node7 -->
<g id="edge12" class="edge"><title>Node13&#45;&gt;Node7</title>
<path fill="none" stroke="midnightblue" d="M232.419,-20.7119C239.653,-22.7349 247.051,-24.8733 254,-27 279.6,-34.8349 308.526,-44.7918 328.657,-51.902"/>
<polygon fill="midnightblue" stroke="midnightblue" points="233.282,-17.3194 222.711,-18.0368 231.422,-24.0678 233.282,-17.3194"/>
</g>
</g>
</svg>
