<?xml version="1.0" encoding="UTF-8" standalone="no"?>
<!DOCTYPE svg PUBLIC "-//W3C//DTD SVG 1.1//EN"
 "http://www.w3.org/Graphics/SVG/1.1/DTD/svg11.dtd">
<!-- Generated by graphviz version 2.34.0 (20130907.0228)
 -->
<!-- Title: Om::Source::CodePointStringFrontSource&lt; ThisStringIterator &gt; Pages: 1 -->
<svg width="596pt" height="154pt"
 viewBox="0.00 0.00 596.00 154.00" xmlns="http://www.w3.org/2000/svg" xmlns:xlink="http://www.w3.org/1999/xlink">
<g id="graph0" class="graph" transform="scale(1 1) rotate(0) translate(4 150)">
<title>Om::Source::CodePointStringFrontSource&lt; ThisStringIterator &gt;</title>
<!-- Node1 -->
<g id="node1" class="node"><title>Node1</title>
<polygon fill="#bfbfbf" stroke="black" points="422.61,-33 422.61,-65 587.39,-65 587.39,-33 422.61,-33"/>
<text text-anchor="start" x="430.61" y="-51" font-family="Helvetica,sans-Serif" font-size="10.00">Om::Source::CodePointString</text>
<text text-anchor="middle" x="505" y="-39" font-family="Helvetica,sans-Serif" font-size="10.00">FrontSource&lt; ThisStringIterator &gt;</text>
</g>
<!-- Node2 -->
<g id="node2" class="node"><title>Node2</title>
<g id="a_node2"><a xlink:href="class_om_1_1_source_1_1_default_source.html" target="_top" xlink:title="Om::Source::DefaultSource\l\&lt; std::string, CodePointString\lFrontSource\&lt; ThisStringIterator \&gt; \&gt;">
<polygon fill="none" stroke="black" points="146.301,-51 146.301,-95 319.699,-95 319.699,-51 146.301,-51"/>
<text text-anchor="start" x="154.301" y="-81" font-family="Helvetica,sans-Serif" font-size="10.00">Om::Source::DefaultSource</text>
<text text-anchor="start" x="154.301" y="-69" font-family="Helvetica,sans-Serif" font-size="10.00">&lt; std::string, CodePointString</text>
<text text-anchor="middle" x="233" y="-57" font-family="Helvetica,sans-Serif" font-size="10.00">FrontSource&lt; ThisStringIterator &gt; &gt;</text>
</a>
</g>
</g>
<!-- Node2&#45;&gt;Node1 -->
<g id="edge1" class="edge"><title>Node2&#45;&gt;Node1</title>
<path fill="none" stroke="midnightblue" d="M329.952,-64.471C360.238,-61.7789 393.392,-58.8318 422.564,-56.2387"/>
<polygon fill="midnightblue" stroke="midnightblue" points="329.451,-61.0015 319.801,-65.3733 330.071,-67.974 329.451,-61.0015"/>
</g>
<!-- Node3 -->
<g id="node3" class="node"><title>Node3</title>
<g id="a_node3"><a xlink:href="class_om_1_1_source_1_1_source.html" target="_top" xlink:title="Om::Source::Source\l\&lt; std::string \&gt;">
<polygon fill="none" stroke="black" points="0.70459,-114 0.70459,-146 107.295,-146 107.295,-114 0.70459,-114"/>
<text text-anchor="start" x="8.70459" y="-132" font-family="Helvetica,sans-Serif" font-size="10.00">Om::Source::Source</text>
<text text-anchor="middle" x="54" y="-120" font-family="Helvetica,sans-Serif" font-size="10.00">&lt; std::string &gt;</text>
</a>
</g>
</g>
<!-- Node3&#45;&gt;Node2 -->
<g id="edge2" class="edge"><title>Node3&#45;&gt;Node2</title>
<path fill="none" stroke="midnightblue" d="M114.381,-110.877C130.128,-105.806 147.259,-100.289 163.45,-95.0753"/>
<polygon fill="midnightblue" stroke="midnightblue" points="113.221,-107.574 104.775,-113.971 115.367,-114.237 113.221,-107.574"/>
</g>
<!-- Node4 -->
<g id="node4" class="node"><title>Node4</title>
<polygon fill="none" stroke="#bfbfbf" points="2.9165,-51 2.9165,-95 105.083,-95 105.083,-51 2.9165,-51"/>
<text text-anchor="start" x="10.9165" y="-81" font-family="Helvetica,sans-Serif" font-size="10.00">std::iterator&lt; std</text>
<text text-anchor="start" x="10.9165" y="-69" font-family="Helvetica,sans-Serif" font-size="10.00">::input_iterator_tag,</text>
<text text-anchor="middle" x="54" y="-57" font-family="Helvetica,sans-Serif" font-size="10.00"> std::string &gt;</text>
</g>
<!-- Node4&#45;&gt;Node2 -->
<g id="edge3" class="edge"><title>Node4&#45;&gt;Node2</title>
<path fill="none" stroke="midnightblue" d="M115.367,-73C125.284,-73 135.726,-73 146.121,-73"/>
<polygon fill="midnightblue" stroke="midnightblue" points="115.248,-69.5001 105.248,-73 115.248,-76.5001 115.248,-69.5001"/>
</g>
<!-- Node5 -->
<g id="node5" class="node"><title>Node5</title>
<g id="a_node5"><a xlink:title="STL class. ">
<polygon fill="none" stroke="#bfbfbf" points="203.325,-9 203.325,-29 262.675,-29 262.675,-9 203.325,-9"/>
<text text-anchor="middle" x="233" y="-15" font-family="Helvetica,sans-Serif" font-size="10.00">std::string</text>
</a>
</g>
</g>
<!-- Node5&#45;&gt;Node1 -->
<g id="edge4" class="edge"><title>Node5&#45;&gt;Node1</title>
<path fill="none" stroke="#9a32cd" stroke-dasharray="5,2" d="M273.262,-23.3625C312.174,-27.686 372.947,-34.4385 422.356,-39.9284"/>
<polygon fill="#9a32cd" stroke="#9a32cd" points="273.22,-19.8363 262.895,-22.2105 272.447,-26.7935 273.22,-19.8363"/>
<text text-anchor="middle" x="371" y="-39" font-family="Helvetica,sans-Serif" font-size="10.00"> thisCodePoint</text>
</g>
<!-- Node6 -->
<g id="node6" class="node"><title>Node6</title>
<g id="a_node6"><a xlink:title="STL class. ">
<polygon fill="none" stroke="#bfbfbf" points="6.95215,-0 6.95215,-32 101.048,-32 101.048,-0 6.95215,-0"/>
<text text-anchor="start" x="14.9521" y="-18" font-family="Helvetica,sans-Serif" font-size="10.00">std::basic_string&lt;</text>
<text text-anchor="middle" x="54" y="-6" font-family="Helvetica,sans-Serif" font-size="10.00"> char &gt;</text>
</a>
</g>
</g>
<!-- Node6&#45;&gt;Node5 -->
<g id="edge5" class="edge"><title>Node6&#45;&gt;Node5</title>
<path fill="none" stroke="midnightblue" d="M111.61,-16.9595C142.143,-17.477 178.521,-18.0936 203.239,-18.5125"/>
<polygon fill="midnightblue" stroke="midnightblue" points="111.563,-13.4583 101.505,-16.7882 111.444,-20.4573 111.563,-13.4583"/>
</g>
</g>
</svg>
