<?xml version="1.0" encoding="UTF-8" standalone="no"?>
<!DOCTYPE svg PUBLIC "-//W3C//DTD SVG 1.1//EN"
 "http://www.w3.org/Graphics/SVG/1.1/DTD/svg11.dtd">
<!-- Generated by graphviz version 2.30.1 (20130221.2233)
 -->
<!-- Title: Om::Expression::FormRange&lt; Form &gt; Pages: 1 -->
<svg width="902pt" height="113pt"
 viewBox="0.00 0.00 902.00 113.00" xmlns="http://www.w3.org/2000/svg" xmlns:xlink="http://www.w3.org/1999/xlink">
<g id="graph0" class="graph" transform="scale(1 1) rotate(0) translate(4 109)">
<title>Om::Expression::FormRange&lt; Form &gt;</title>
<!-- Node1 -->
<g id="node1" class="node"><title>Node1</title>
<polygon fill="#bfbfbf" stroke="black" points="748.256,-16 748.256,-48 893.744,-48 893.744,-16 748.256,-16"/>
<text text-anchor="start" x="756.256" y="-34" font-family="Helvetica,sans-Serif" font-size="10.00">Om::Expression::FormRange</text>
<text text-anchor="middle" x="821" y="-22" font-family="Helvetica,sans-Serif" font-size="10.00">&lt; Form &gt;</text>
</g>
<!-- Node2 -->
<g id="node2" class="node"><title>Node2</title>
<g id="a_node2"><a xlink:href="class_om_1_1_source_1_1_collection_front_source.html" target="_top" xlink:title="Om::Source::CollectionFront\lSource\&lt; Form, FormDeque\l::iterator \&gt;">
<polygon fill="none" stroke="black" points="567.921,-10 567.921,-54 710.079,-54 710.079,-10 567.921,-10"/>
<text text-anchor="start" x="575.921" y="-40" font-family="Helvetica,sans-Serif" font-size="10.00">Om::Source::CollectionFront</text>
<text text-anchor="start" x="575.921" y="-28" font-family="Helvetica,sans-Serif" font-size="10.00">Source&lt; Form, FormDeque</text>
<text text-anchor="middle" x="639" y="-16" font-family="Helvetica,sans-Serif" font-size="10.00">::iterator &gt;</text>
</a>
</g>
</g>
<!-- Node2&#45;&gt;Node1 -->
<g id="edge1" class="edge"><title>Node2&#45;&gt;Node1</title>
<path fill="none" stroke="midnightblue" d="M720.113,-32C729.403,-32 738.835,-32 748.006,-32"/>
<polygon fill="midnightblue" stroke="midnightblue" points="720.108,-28.5001 710.108,-32 720.108,-35.5001 720.108,-28.5001"/>
</g>
<!-- Node3 -->
<g id="node3" class="node"><title>Node3</title>
<g id="a_node3"><a xlink:href="class_om_1_1_source_1_1_iterator_pair_source.html" target="_top" xlink:title="Om::Source::IteratorPair\lSource\&lt; Form, FormDeque\l::iterator \&gt;">
<polygon fill="none" stroke="black" points="392.006,-10 392.006,-54 529.994,-54 529.994,-10 392.006,-10"/>
<text text-anchor="start" x="400.006" y="-40" font-family="Helvetica,sans-Serif" font-size="10.00">Om::Source::IteratorPair</text>
<text text-anchor="start" x="400.006" y="-28" font-family="Helvetica,sans-Serif" font-size="10.00">Source&lt; Form, FormDeque</text>
<text text-anchor="middle" x="461" y="-16" font-family="Helvetica,sans-Serif" font-size="10.00">::iterator &gt;</text>
</a>
</g>
</g>
<!-- Node3&#45;&gt;Node2 -->
<g id="edge2" class="edge"><title>Node3&#45;&gt;Node2</title>
<path fill="none" stroke="midnightblue" d="M540.306,-32C549.466,-32 558.768,-32 567.808,-32"/>
<polygon fill="midnightblue" stroke="midnightblue" points="540.046,-28.5001 530.046,-32 540.046,-35.5001 540.046,-28.5001"/>
</g>
<!-- Node4 -->
<g id="node4" class="node"><title>Node4</title>
<g id="a_node4"><a xlink:href="class_om_1_1_source_1_1_default_source.html" target="_top" xlink:title="Om::Source::DefaultSource\l\&lt; Form, IteratorPairSource\l\&lt; Form, FormDeque::iterator \&gt; \&gt;">
<polygon fill="none" stroke="black" points="145.891,-39 145.891,-83 306.109,-83 306.109,-39 145.891,-39"/>
<text text-anchor="start" x="153.891" y="-69" font-family="Helvetica,sans-Serif" font-size="10.00">Om::Source::DefaultSource</text>
<text text-anchor="start" x="153.891" y="-57" font-family="Helvetica,sans-Serif" font-size="10.00">&lt; Form, IteratorPairSource</text>
<text text-anchor="middle" x="226" y="-45" font-family="Helvetica,sans-Serif" font-size="10.00">&lt; Form, FormDeque::iterator &gt; &gt;</text>
</a>
</g>
</g>
<!-- Node4&#45;&gt;Node3 -->
<g id="edge3" class="edge"><title>Node4&#45;&gt;Node3</title>
<path fill="none" stroke="midnightblue" d="M316.448,-49.867C341.495,-46.7496 368.308,-43.4123 391.9,-40.4759"/>
<polygon fill="midnightblue" stroke="midnightblue" points="315.699,-46.4331 306.208,-51.1415 316.564,-53.3795 315.699,-46.4331"/>
</g>
<!-- Node5 -->
<g id="node5" class="node"><title>Node5</title>
<g id="a_node5"><a xlink:href="class_om_1_1_source_1_1_source.html" target="_top" xlink:title="Om::Source::Source\l\&lt; Form \&gt;">
<polygon fill="none" stroke="black" points="0.70459,-73 0.70459,-105 107.295,-105 107.295,-73 0.70459,-73"/>
<text text-anchor="start" x="8.70459" y="-91" font-family="Helvetica,sans-Serif" font-size="10.00">Om::Source::Source</text>
<text text-anchor="middle" x="54" y="-79" font-family="Helvetica,sans-Serif" font-size="10.00">&lt; Form &gt;</text>
</a>
</g>
</g>
<!-- Node5&#45;&gt;Node4 -->
<g id="edge4" class="edge"><title>Node5&#45;&gt;Node4</title>
<path fill="none" stroke="midnightblue" d="M117.524,-78.7019C126.661,-77.1971 136.17,-75.6308 145.588,-74.0797"/>
<polygon fill="midnightblue" stroke="midnightblue" points="116.691,-75.2919 107.393,-80.3706 117.829,-82.1988 116.691,-75.2919"/>
</g>
<!-- Node6 -->
<g id="node6" class="node"><title>Node6</title>
<polygon fill="none" stroke="#bfbfbf" points="2.9165,-10 2.9165,-54 105.083,-54 105.083,-10 2.9165,-10"/>
<text text-anchor="start" x="10.9165" y="-40" font-family="Helvetica,sans-Serif" font-size="10.00">std::iterator&lt; std</text>
<text text-anchor="start" x="10.9165" y="-28" font-family="Helvetica,sans-Serif" font-size="10.00">::input_iterator_tag,</text>
<text text-anchor="middle" x="54" y="-16" font-family="Helvetica,sans-Serif" font-size="10.00"> Form &gt;</text>
</g>
<!-- Node6&#45;&gt;Node4 -->
<g id="edge5" class="edge"><title>Node6&#45;&gt;Node4</title>
<path fill="none" stroke="midnightblue" d="M115.161,-42.2628C125.023,-43.945 135.373,-45.7108 145.615,-47.4578"/>
<polygon fill="midnightblue" stroke="midnightblue" points="115.532,-38.7756 105.086,-40.5441 114.355,-45.6759 115.532,-38.7756"/>
</g>
<!-- Node7 -->
<g id="node7" class="node"><title>Node7</title>
<g id="a_node7"><a xlink:title="STL iterator class. ">
<polygon fill="none" stroke="#bfbfbf" points="164.812,-0 164.812,-20 287.188,-20 287.188,-0 164.812,-0"/>
<text text-anchor="middle" x="226" y="-6" font-family="Helvetica,sans-Serif" font-size="10.00">std::deque&lt; T &gt;::iterator</text>
</a>
</g>
</g>
<!-- Node7&#45;&gt;Node3 -->
<g id="edge6" class="edge"><title>Node7&#45;&gt;Node3</title>
<path fill="none" stroke="#9a32cd" stroke-dasharray="5,2" d="M297.427,-11.5631C321.738,-12.5772 349.113,-14.248 374,-17 379.724,-17.633 385.644,-18.4086 391.575,-19.2705"/>
<polygon fill="#9a32cd" stroke="#9a32cd" points="297.339,-8.05714 287.211,-11.1674 297.068,-15.0519 297.339,-8.05714"/>
<text text-anchor="middle" x="349" y="-31" font-family="Helvetica,sans-Serif" font-size="10.00"> thisEnd</text>
<text text-anchor="middle" x="349" y="-19" font-family="Helvetica,sans-Serif" font-size="10.00">thisCurrent</text>
</g>
</g>
</svg>
