<?xml version="1.0" encoding="UTF-8" standalone="no"?>
<!DOCTYPE svg PUBLIC "-//W3C//DTD SVG 1.1//EN"
 "http://www.w3.org/Graphics/SVG/1.1/DTD/svg11.dtd">
<!-- Generated by graphviz version 2.36.0 (20140111.2315)
 -->
<!-- Title: Om::Literal Pages: 1 -->
<svg width="1208pt" height="137pt"
 viewBox="0.00 0.00 1208.00 137.00" xmlns="http://www.w3.org/2000/svg" xmlns:xlink="http://www.w3.org/1999/xlink">
<g id="graph0" class="graph" transform="scale(1 1) rotate(0) translate(4 133)">
<title>Om::Literal</title>
<!-- Node1 -->
<g id="node1" class="node"><title>Node1</title>
<polygon fill="#bfbfbf" stroke="black" points="1134.55,-31 1134.55,-49 1199.45,-49 1199.45,-31 1134.55,-31"/>
<text text-anchor="middle" x="1167" y="-37" font-family="Helvetica,sans-Serif" font-size="10.00">Om::Literal</text>
</g>
<!-- Node2 -->
<g id="node2" class="node"><title>Node2</title>
<g id="a_node2"><a xlink:href="class_om_1_1_default_program.html" target="_top" xlink:title="Om::DefaultProgram\l\&lt; Literal, Program \&gt;">
<polygon fill="none" stroke="black" points="990.153,-26 990.153,-54 1097.85,-54 1097.85,-26 990.153,-26"/>
<text text-anchor="start" x="998.153" y="-42" font-family="Helvetica,sans-Serif" font-size="10.00">Om::DefaultProgram</text>
<text text-anchor="middle" x="1044" y="-32" font-family="Helvetica,sans-Serif" font-size="10.00">&lt; Literal, Program &gt;</text>
</a>
</g>
</g>
<!-- Node2&#45;&gt;Node1 -->
<g id="edge1" class="edge"><title>Node2&#45;&gt;Node1</title>
<path fill="none" stroke="midnightblue" d="M1108.33,-40C1117.43,-40 1126.44,-40 1134.54,-40"/>
<polygon fill="midnightblue" stroke="midnightblue" points="1108.07,-36.5001 1098.07,-40 1108.07,-43.5001 1108.07,-36.5001"/>
</g>
<!-- Node3 -->
<g id="node3" class="node"><title>Node3</title>
<g id="a_node3"><a xlink:href="class_om_1_1_default_consumer.html" target="_top" xlink:title="Om::DefaultConsumer\l\&lt; Literal, DefaultGiveable\l\&lt; Literal, Program \&gt; \&gt;">
<polygon fill="none" stroke="black" points="824.718,-45 824.718,-83 953.282,-83 953.282,-45 824.718,-45"/>
<text text-anchor="start" x="832.718" y="-71" font-family="Helvetica,sans-Serif" font-size="10.00">Om::DefaultConsumer</text>
<text text-anchor="start" x="832.718" y="-61" font-family="Helvetica,sans-Serif" font-size="10.00">&lt; Literal, DefaultGiveable</text>
<text text-anchor="middle" x="889" y="-51" font-family="Helvetica,sans-Serif" font-size="10.00">&lt; Literal, Program &gt; &gt;</text>
</a>
</g>
</g>
<!-- Node3&#45;&gt;Node2 -->
<g id="edge2" class="edge"><title>Node3&#45;&gt;Node2</title>
<path fill="none" stroke="midnightblue" d="M963.599,-52.4551C972.537,-51.0531 981.527,-49.6428 990.082,-48.3009"/>
<polygon fill="midnightblue" stroke="midnightblue" points="962.893,-49.0229 953.557,-54.0303 963.978,-55.9383 962.893,-49.0229"/>
</g>
<!-- Node4 -->
<g id="node4" class="node"><title>Node4</title>
<g id="a_node4"><a xlink:href="class_om_1_1_default_giveable.html" target="_top" xlink:title="Om::DefaultGiveable\l\&lt; Literal, Program \&gt;">
<polygon fill="none" stroke="black" points="678.591,-50 678.591,-78 787.409,-78 787.409,-50 678.591,-50"/>
<text text-anchor="start" x="686.591" y="-66" font-family="Helvetica,sans-Serif" font-size="10.00">Om::DefaultGiveable</text>
<text text-anchor="middle" x="733" y="-56" font-family="Helvetica,sans-Serif" font-size="10.00">&lt; Literal, Program &gt;</text>
</a>
</g>
</g>
<!-- Node4&#45;&gt;Node3 -->
<g id="edge3" class="edge"><title>Node4&#45;&gt;Node3</title>
<path fill="none" stroke="midnightblue" d="M797.715,-64C806.598,-64 815.723,-64 824.6,-64"/>
<polygon fill="midnightblue" stroke="midnightblue" points="797.43,-60.5001 787.43,-64 797.429,-67.5001 797.43,-60.5001"/>
</g>
<!-- Node5 -->
<g id="node5" class="node"><title>Node5</title>
<g id="a_node5"><a xlink:href="class_om_1_1_default_moveable.html" target="_top" xlink:title="Om::DefaultMoveable\l\&lt; Literal, DefaultCopyable\l\&lt; Literal, Program \&gt; \&gt;">
<polygon fill="none" stroke="black" points="510.327,-45 510.327,-83 641.673,-83 641.673,-45 510.327,-45"/>
<text text-anchor="start" x="518.327" y="-71" font-family="Helvetica,sans-Serif" font-size="10.00">Om::DefaultMoveable</text>
<text text-anchor="start" x="518.327" y="-61" font-family="Helvetica,sans-Serif" font-size="10.00">&lt; Literal, DefaultCopyable</text>
<text text-anchor="middle" x="576" y="-51" font-family="Helvetica,sans-Serif" font-size="10.00">&lt; Literal, Program &gt; &gt;</text>
</a>
</g>
</g>
<!-- Node5&#45;&gt;Node4 -->
<g id="edge4" class="edge"><title>Node5&#45;&gt;Node4</title>
<path fill="none" stroke="midnightblue" d="M651.841,-64C660.743,-64 669.692,-64 678.217,-64"/>
<polygon fill="midnightblue" stroke="midnightblue" points="651.836,-60.5001 641.836,-64 651.836,-67.5001 651.836,-60.5001"/>
</g>
<!-- Node6 -->
<g id="node6" class="node"><title>Node6</title>
<g id="a_node6"><a xlink:href="class_om_1_1_default_copyable.html" target="_top" xlink:title="Om::DefaultCopyable\l\&lt; Literal, Program \&gt;">
<polygon fill="none" stroke="black" points="362.2,-50 362.2,-78 473.8,-78 473.8,-50 362.2,-50"/>
<text text-anchor="start" x="370.2" y="-66" font-family="Helvetica,sans-Serif" font-size="10.00">Om::DefaultCopyable</text>
<text text-anchor="middle" x="418" y="-56" font-family="Helvetica,sans-Serif" font-size="10.00">&lt; Literal, Program &gt;</text>
</a>
</g>
</g>
<!-- Node6&#45;&gt;Node5 -->
<g id="edge5" class="edge"><title>Node6&#45;&gt;Node5</title>
<path fill="none" stroke="midnightblue" d="M484.278,-64C492.812,-64 501.555,-64 510.084,-64"/>
<polygon fill="midnightblue" stroke="midnightblue" points="484,-60.5001 474,-64 484,-67.5001 484,-60.5001"/>
</g>
<!-- Node7 -->
<g id="node7" class="node"><title>Node7</title>
<g id="a_node7"><a xlink:href="class_om_1_1_program.html" target="_top" xlink:title="The Program implementation. ">
<polygon fill="none" stroke="black" points="249.995,-55 249.995,-73 326.005,-73 326.005,-55 249.995,-55"/>
<text text-anchor="middle" x="288" y="-61" font-family="Helvetica,sans-Serif" font-size="10.00">Om::Program</text>
</a>
</g>
</g>
<!-- Node7&#45;&gt;Node6 -->
<g id="edge6" class="edge"><title>Node7&#45;&gt;Node6</title>
<path fill="none" stroke="midnightblue" d="M336.051,-64C344.48,-64 353.332,-64 361.962,-64"/>
<polygon fill="midnightblue" stroke="midnightblue" points="336.023,-60.5001 326.023,-64 336.023,-67.5001 336.023,-60.5001"/>
</g>
<!-- Node8 -->
<g id="node8" class="node"><title>Node8</title>
<g id="a_node8"><a xlink:href="class_om_1_1_consumer.html" target="_top" xlink:title="An Element taker; takes at the back. ">
<polygon fill="none" stroke="black" points="124.104,-111 124.104,-129 207.896,-129 207.896,-111 124.104,-111"/>
<text text-anchor="middle" x="166" y="-117" font-family="Helvetica,sans-Serif" font-size="10.00">Om::Consumer</text>
</a>
</g>
</g>
<!-- Node8&#45;&gt;Node7 -->
<g id="edge7" class="edge"><title>Node8&#45;&gt;Node7</title>
<path fill="none" stroke="midnightblue" d="M200.069,-107.045C204.772,-105.082 209.528,-103.033 214,-101 233.532,-92.1216 255.42,-80.8441 270.089,-73.0866"/>
<polygon fill="midnightblue" stroke="midnightblue" points="198.527,-103.893 190.595,-110.917 201.176,-110.373 198.527,-103.893"/>
</g>
<!-- Node9 -->
<g id="node9" class="node"><title>Node9</title>
<g id="a_node9"><a xlink:href="class_om_1_1_giveable.html" target="_top" xlink:title="An object that can be copied or moved via Give. ">
<polygon fill="none" stroke="black" points="127.434,-74 127.434,-92 204.566,-92 204.566,-74 127.434,-74"/>
<text text-anchor="middle" x="166" y="-80" font-family="Helvetica,sans-Serif" font-size="10.00">Om::Giveable</text>
</a>
</g>
</g>
<!-- Node9&#45;&gt;Node7 -->
<g id="edge8" class="edge"><title>Node9&#45;&gt;Node7</title>
<path fill="none" stroke="midnightblue" d="M214.713,-75.4454C226.421,-73.5917 238.781,-71.6346 249.906,-69.8733"/>
<polygon fill="midnightblue" stroke="midnightblue" points="213.969,-72.0195 204.64,-77.0404 215.064,-78.9334 213.969,-72.0195"/>
</g>
<!-- Node10 -->
<g id="node10" class="node"><title>Node10</title>
<g id="a_node10"><a xlink:href="class_om_1_1_copyable.html" target="_top" xlink:title="An object that can be passed to Copy to be copied. ">
<polygon fill="none" stroke="black" points="1.04199,-92 1.04199,-110 80.958,-110 80.958,-92 1.04199,-92"/>
<text text-anchor="middle" x="41" y="-98" font-family="Helvetica,sans-Serif" font-size="10.00">Om::Copyable</text>
</a>
</g>
</g>
<!-- Node10&#45;&gt;Node9 -->
<g id="edge9" class="edge"><title>Node10&#45;&gt;Node9</title>
<path fill="none" stroke="midnightblue" d="M91.186,-93.802C103.243,-92.0376 115.958,-90.1769 127.374,-88.5063"/>
<polygon fill="midnightblue" stroke="midnightblue" points="90.6439,-90.344 81.2561,-95.2552 91.6576,-97.2702 90.6439,-90.344"/>
</g>
<!-- Node11 -->
<g id="node11" class="node"><title>Node11</title>
<g id="a_node11"><a xlink:href="class_om_1_1_moveable.html" target="_top" xlink:title="An object that can be passed to Move to be moved. ">
<polygon fill="none" stroke="black" points="0.487793,-55 0.487793,-73 81.5122,-73 81.5122,-55 0.487793,-55"/>
<text text-anchor="middle" x="41" y="-61" font-family="Helvetica,sans-Serif" font-size="10.00">Om::Moveable</text>
</a>
</g>
</g>
<!-- Node11&#45;&gt;Node9 -->
<g id="edge10" class="edge"><title>Node11&#45;&gt;Node9</title>
<path fill="none" stroke="midnightblue" d="M91.7696,-71.688C103.575,-73.5116 115.98,-75.4278 127.155,-77.1541"/>
<polygon fill="midnightblue" stroke="midnightblue" points="92.0122,-68.184 81.595,-70.1163 90.9435,-75.102 92.0122,-68.184"/>
</g>
<!-- Node12 -->
<g id="node12" class="node"><title>Node12</title>
<g id="a_node12"><a xlink:href="class_om_1_1_producer.html" target="_top" xlink:title="An Element giver; gives from the front. ">
<polygon fill="none" stroke="black" points="126.879,-37 126.879,-55 205.121,-55 205.121,-37 126.879,-37"/>
<text text-anchor="middle" x="166" y="-43" font-family="Helvetica,sans-Serif" font-size="10.00">Om::Producer</text>
</a>
</g>
</g>
<!-- Node12&#45;&gt;Node7 -->
<g id="edge11" class="edge"><title>Node12&#45;&gt;Node7</title>
<path fill="none" stroke="midnightblue" d="M215.242,-53.2363C226.785,-54.9678 238.933,-56.7899 249.884,-58.4326"/>
<polygon fill="midnightblue" stroke="midnightblue" points="215.707,-49.767 205.299,-51.7448 214.669,-56.6896 215.707,-49.767"/>
</g>
<!-- Node13 -->
<g id="node13" class="node"><title>Node13</title>
<g id="a_node13"><a xlink:href="class_om_1_1_shareable.html" target="_top" xlink:title="Om::Shareable\&lt;\&gt;">
<polygon fill="none" stroke="black" points="118.532,-0 118.532,-18 213.468,-18 213.468,-0 118.532,-0"/>
<text text-anchor="middle" x="166" y="-6" font-family="Helvetica,sans-Serif" font-size="10.00">Om::Shareable&lt;&gt;</text>
</a>
</g>
</g>
<!-- Node13&#45;&gt;Node7 -->
<g id="edge12" class="edge"><title>Node13&#45;&gt;Node7</title>
<path fill="none" stroke="midnightblue" d="M201.69,-21.8185C205.864,-23.4982 210.046,-25.2465 214,-27 233.743,-35.7557 255.776,-47.1579 270.42,-54.9772"/>
<polygon fill="midnightblue" stroke="midnightblue" points="202.664,-18.441 192.076,-18.0539 200.111,-24.9591 202.664,-18.441"/>
</g>
<!-- Node14 -->
<g id="node14" class="node"><title>Node14</title>
<g id="a_node14"><a xlink:href="class_om_1_1_taker.html" target="_top" xlink:title="Om::Taker\&lt; Literal \&gt;">
<polygon fill="none" stroke="black" points="835.705,-8 835.705,-26 942.295,-26 942.295,-8 835.705,-8"/>
<text text-anchor="middle" x="889" y="-14" font-family="Helvetica,sans-Serif" font-size="10.00">Om::Taker&lt; Literal &gt;</text>
</a>
</g>
</g>
<!-- Node14&#45;&gt;Node2 -->
<g id="edge13" class="edge"><title>Node14&#45;&gt;Node2</title>
<path fill="none" stroke="midnightblue" d="M952.868,-26.4508C965.2,-28.3045 978.019,-30.2317 989.989,-32.0311"/>
<polygon fill="midnightblue" stroke="midnightblue" points="953.063,-22.9408 942.654,-24.9153 952.022,-29.8631 953.063,-22.9408"/>
</g>
</g>
</svg>
