<?xml version="1.0" encoding="UTF-8" standalone="no"?>
<!DOCTYPE svg PUBLIC "-//W3C//DTD SVG 1.1//EN"
 "http://www.w3.org/Graphics/SVG/1.1/DTD/svg11.dtd">
<!-- Generated by graphviz version 2.30.1 (20130221.2233)
 -->
<!-- Title: Om::Sources::CollectionBackSource&lt; ThisItem, ThisIterator &gt; Pages: 1 -->
<svg width="712pt" height="91pt"
 viewBox="0.00 0.00 712.00 91.00" xmlns="http://www.w3.org/2000/svg" xmlns:xlink="http://www.w3.org/1999/xlink">
<g id="graph0" class="graph" transform="scale(1 1) rotate(0) translate(4 87)">
<title>Om::Sources::CollectionBackSource&lt; ThisItem, ThisIterator &gt;</title>
<!-- Node1 -->
<g id="node1" class="node"><title>Node1</title>
<polygon fill="#bfbfbf" stroke="black" points="544.481,-31 544.481,-63 703.519,-63 703.519,-31 544.481,-31"/>
<text text-anchor="start" x="552.481" y="-49" font-family="Helvetica,sans-Serif" font-size="10.00">Om::Sources::CollectionBack</text>
<text text-anchor="middle" x="624" y="-37" font-family="Helvetica,sans-Serif" font-size="10.00">Source&lt; ThisItem, ThisIterator &gt;</text>
</g>
<!-- Node2 -->
<g id="node2" class="node"><title>Node2</title>
<g id="a_node2"><a xlink:href="class_om_1_1_sources_1_1_iterator_pair_source.html" target="_top" xlink:title="A Source adapter for a start and end input iterator pair. ">
<polygon fill="none" stroke="black" points="348.481,-31 348.481,-63 507.519,-63 507.519,-31 348.481,-31"/>
<text text-anchor="start" x="356.481" y="-49" font-family="Helvetica,sans-Serif" font-size="10.00">Om::Sources::IteratorPair</text>
<text text-anchor="middle" x="428" y="-37" font-family="Helvetica,sans-Serif" font-size="10.00">Source&lt; ThisItem, ThisIterator &gt;</text>
</a>
</g>
</g>
<!-- Node2&#45;&gt;Node1 -->
<g id="edge1" class="edge"><title>Node2&#45;&gt;Node1</title>
<path fill="none" stroke="midnightblue" d="M517.895,-47C526.691,-47 535.577,-47 544.26,-47"/>
<polygon fill="midnightblue" stroke="midnightblue" points="517.628,-43.5001 507.628,-47 517.628,-50.5001 517.628,-43.5001"/>
</g>
<!-- Node3 -->
<g id="node3" class="node"><title>Node3</title>
<g id="a_node3"><a xlink:href="class_om_1_1_sources_1_1_default_source.html" target="_top" xlink:title="Om::Sources::DefaultSource\l\&lt; ThisItem, IteratorPairSource\l\&lt; ThisItem, ThisIterator \&gt; \&gt;">
<polygon fill="none" stroke="black" points="162.257,-25 162.257,-69 311.743,-69 311.743,-25 162.257,-25"/>
<text text-anchor="start" x="170.257" y="-55" font-family="Helvetica,sans-Serif" font-size="10.00">Om::Sources::DefaultSource</text>
<text text-anchor="start" x="170.257" y="-43" font-family="Helvetica,sans-Serif" font-size="10.00">&lt; ThisItem, IteratorPairSource</text>
<text text-anchor="middle" x="237" y="-31" font-family="Helvetica,sans-Serif" font-size="10.00">&lt; ThisItem, ThisIterator &gt; &gt;</text>
</a>
</g>
</g>
<!-- Node3&#45;&gt;Node2 -->
<g id="edge2" class="edge"><title>Node3&#45;&gt;Node2</title>
<path fill="none" stroke="midnightblue" d="M322.021,-47C330.719,-47 339.536,-47 348.173,-47"/>
<polygon fill="midnightblue" stroke="midnightblue" points="321.884,-43.5001 311.884,-47 321.884,-50.5001 321.884,-43.5001"/>
</g>
<!-- Node4 -->
<g id="node4" class="node"><title>Node4</title>
<g id="a_node4"><a xlink:href="class_om_1_1_source.html" target="_top" xlink:title="Any object that items can be pulled from. ">
<polygon fill="none" stroke="black" points="0.625,-63 0.625,-83 125.375,-83 125.375,-63 0.625,-63"/>
<text text-anchor="middle" x="63" y="-69" font-family="Helvetica,sans-Serif" font-size="10.00">Om::Source&lt; ThisItem &gt;</text>
</a>
</g>
</g>
<!-- Node4&#45;&gt;Node3 -->
<g id="edge3" class="edge"><title>Node4&#45;&gt;Node3</title>
<path fill="none" stroke="midnightblue" d="M135.752,-62.1538C144.489,-60.8331 153.428,-59.4819 162.194,-58.1567"/>
<polygon fill="midnightblue" stroke="midnightblue" points="134.975,-58.7314 125.61,-63.6868 136.021,-65.6528 134.975,-58.7314"/>
</g>
<!-- Node5 -->
<g id="node5" class="node"><title>Node5</title>
<polygon fill="none" stroke="#bfbfbf" points="11.9165,-0 11.9165,-44 114.083,-44 114.083,-0 11.9165,-0"/>
<text text-anchor="start" x="19.9165" y="-30" font-family="Helvetica,sans-Serif" font-size="10.00">std::iterator&lt; std</text>
<text text-anchor="start" x="19.9165" y="-18" font-family="Helvetica,sans-Serif" font-size="10.00">::input_iterator_tag,</text>
<text text-anchor="middle" x="63" y="-6" font-family="Helvetica,sans-Serif" font-size="10.00"> ThisItem &gt;</text>
</g>
<!-- Node5&#45;&gt;Node3 -->
<g id="edge4" class="edge"><title>Node5&#45;&gt;Node3</title>
<path fill="none" stroke="midnightblue" d="M124.266,-30.7596C136.478,-32.5346 149.452,-34.4204 162.073,-36.2548"/>
<polygon fill="midnightblue" stroke="midnightblue" points="124.611,-27.2731 114.212,-29.2982 123.604,-34.2003 124.611,-27.2731"/>
</g>
</g>
</svg>
