<?xml version="1.0" encoding="UTF-8" standalone="no"?>
<!DOCTYPE svg PUBLIC "-//W3C//DTD SVG 1.1//EN"
 "http://www.w3.org/Graphics/SVG/1.1/DTD/svg11.dtd">
<!-- Generated by graphviz version 2.36.0 (20140111.2315)
 -->
<!-- Title: Om::Operation::InjectOperation Pages: 1 -->
<svg width="809pt" height="1182pt"
 viewBox="0.00 0.00 809.00 1182.00" xmlns="http://www.w3.org/2000/svg" xmlns:xlink="http://www.w3.org/1999/xlink">
<g id="graph0" class="graph" transform="scale(1 1) rotate(0) translate(4 1178)">
<title>Om::Operation::InjectOperation</title>
<!-- Node1 -->
<g id="node1" class="node"><title>Node1</title>
<polygon fill="#bfbfbf" stroke="black" points="91.5225,-1 91.5225,-19 246.478,-19 246.478,-1 91.5225,-1"/>
<text text-anchor="middle" x="169" y="-7" font-family="Helvetica,sans-Serif" font-size="10.00">Om::Operation::InjectOperation</text>
</g>
<!-- Node2 -->
<g id="node2" class="node"><title>Node2</title>
<g id="a_node2"><a xlink:href="class_om_1_1_operation_1_1_default_incomplete_operation.html" target="_top" xlink:title="Om::Operation::DefaultIncomplete\lOperation\&lt; InjectOperation \&gt;">
<polygon fill="none" stroke="black" points="-0.869141,-77 -0.869141,-105 166.869,-105 166.869,-77 -0.869141,-77"/>
<text text-anchor="start" x="7.13086" y="-93" font-family="Helvetica,sans-Serif" font-size="10.00">Om::Operation::DefaultIncomplete</text>
<text text-anchor="middle" x="83" y="-83" font-family="Helvetica,sans-Serif" font-size="10.00">Operation&lt; InjectOperation &gt;</text>
</a>
</g>
</g>
<!-- Node2&#45;&gt;Node1 -->
<g id="edge1" class="edge"><title>Node2&#45;&gt;Node1</title>
<path fill="none" stroke="midnightblue" d="M104.938,-69.8477C122.918,-53.3309 147.423,-30.8207 160.291,-19.0005"/>
<polygon fill="midnightblue" stroke="midnightblue" points="102.198,-67.6122 97.2012,-76.9548 106.933,-72.7673 102.198,-67.6122"/>
</g>
<!-- Node3 -->
<g id="node3" class="node"><title>Node3</title>
<g id="a_node3"><a xlink:href="class_om_1_1_operation_1_1_incomplete_operation.html" target="_top" xlink:title="An Operation that has yet to consume one or more Operands and must live in memory until complete...">
<polygon fill="none" stroke="black" points="14.9731,-153 14.9731,-181 151.027,-181 151.027,-153 14.9731,-153"/>
<text text-anchor="start" x="22.9731" y="-169" font-family="Helvetica,sans-Serif" font-size="10.00">Om::Operation::Incomplete</text>
<text text-anchor="middle" x="83" y="-159" font-family="Helvetica,sans-Serif" font-size="10.00">Operation</text>
</a>
</g>
</g>
<!-- Node3&#45;&gt;Node2 -->
<g id="edge2" class="edge"><title>Node3&#45;&gt;Node2</title>
<path fill="none" stroke="midnightblue" d="M83,-142.663C83,-130.271 83,-115.501 83,-105.115"/>
<polygon fill="midnightblue" stroke="midnightblue" points="79.5001,-142.77 83,-152.77 86.5001,-142.77 79.5001,-142.77"/>
</g>
<!-- Node4 -->
<g id="node4" class="node"><title>Node4</title>
<g id="a_node4"><a xlink:href="class_om_1_1_expression.html" target="_top" xlink:title="The Expression Program implementation. ">
<polygon fill="none" stroke="black" points="184.434,-82 184.434,-100 271.566,-100 271.566,-82 184.434,-82"/>
<text text-anchor="middle" x="228" y="-88" font-family="Helvetica,sans-Serif" font-size="10.00">Om::Expression</text>
</a>
</g>
</g>
<!-- Node4&#45;&gt;Node1 -->
<g id="edge3" class="edge"><title>Node4&#45;&gt;Node1</title>
<path fill="none" stroke="#9a32cd" stroke-dasharray="5,2" d="M215.768,-73.6222C203.38,-57.0345 184.721,-32.0507 175.147,-19.2308"/>
<polygon fill="#9a32cd" stroke="#9a32cd" points="213.12,-75.9253 221.908,-81.8432 218.729,-71.7367 213.12,-75.9253"/>
<text text-anchor="middle" x="229.566" y="-50" font-family="Helvetica,sans-Serif" font-size="10.00"> thisInjector</text>
<text text-anchor="middle" x="229.566" y="-40" font-family="Helvetica,sans-Serif" font-size="10.00">thisOutput</text>
</g>
<!-- Node5 -->
<g id="node5" class="node"><title>Node5</title>
<g id="a_node5"><a xlink:href="class_om_1_1_default_program.html" target="_top" xlink:title="Om::DefaultProgram\l\&lt; Expression, Program \&gt;">
<polygon fill="none" stroke="black" points="143.697,-664 143.697,-692 270.303,-692 270.303,-664 143.697,-664"/>
<text text-anchor="start" x="151.697" y="-680" font-family="Helvetica,sans-Serif" font-size="10.00">Om::DefaultProgram</text>
<text text-anchor="middle" x="207" y="-670" font-family="Helvetica,sans-Serif" font-size="10.00">&lt; Expression, Program &gt;</text>
</a>
</g>
</g>
<!-- Node5&#45;&gt;Node4 -->
<g id="edge4" class="edge"><title>Node5&#45;&gt;Node4</title>
<path fill="none" stroke="midnightblue" d="M207,-653.405C207,-638.4 207,-618.559 207,-601 207,-601 207,-601 207,-166 207,-141.161 218.086,-113.352 224.148,-100.001"/>
<polygon fill="midnightblue" stroke="midnightblue" points="203.5,-653.819 207,-663.819 210.5,-653.819 203.5,-653.819"/>
</g>
<!-- Node6 -->
<g id="node6" class="node"><title>Node6</title>
<g id="a_node6"><a xlink:href="class_om_1_1_default_consumer.html" target="_top" xlink:title="Om::DefaultConsumer\l\&lt; Expression, DefaultGiveable\l\&lt; Expression, Program \&gt; \&gt;">
<polygon fill="none" stroke="black" points="60.6025,-737 60.6025,-775 211.397,-775 211.397,-737 60.6025,-737"/>
<text text-anchor="start" x="68.6025" y="-763" font-family="Helvetica,sans-Serif" font-size="10.00">Om::DefaultConsumer</text>
<text text-anchor="start" x="68.6025" y="-753" font-family="Helvetica,sans-Serif" font-size="10.00">&lt; Expression, DefaultGiveable</text>
<text text-anchor="middle" x="136" y="-743" font-family="Helvetica,sans-Serif" font-size="10.00">&lt; Expression, Program &gt; &gt;</text>
</a>
</g>
</g>
<!-- Node6&#45;&gt;Node5 -->
<g id="edge5" class="edge"><title>Node6&#45;&gt;Node5</title>
<path fill="none" stroke="midnightblue" d="M159.772,-729.554C171.404,-717.103 184.928,-702.626 194.516,-692.363"/>
<polygon fill="midnightblue" stroke="midnightblue" points="157.095,-727.292 152.826,-736.989 162.21,-732.071 157.095,-727.292"/>
</g>
<!-- Node7 -->
<g id="node7" class="node"><title>Node7</title>
<g id="a_node7"><a xlink:href="class_om_1_1_default_giveable.html" target="_top" xlink:title="Om::DefaultGiveable\l\&lt; Expression, Program \&gt;">
<polygon fill="none" stroke="black" points="203.697,-820 203.697,-848 330.303,-848 330.303,-820 203.697,-820"/>
<text text-anchor="start" x="211.697" y="-836" font-family="Helvetica,sans-Serif" font-size="10.00">Om::DefaultGiveable</text>
<text text-anchor="middle" x="267" y="-826" font-family="Helvetica,sans-Serif" font-size="10.00">&lt; Expression, Program &gt;</text>
</a>
</g>
</g>
<!-- Node7&#45;&gt;Node6 -->
<g id="edge6" class="edge"><title>Node7&#45;&gt;Node6</title>
<path fill="none" stroke="midnightblue" d="M235.717,-814.851C214.938,-802.796 187.772,-787.036 167.043,-775.009"/>
<polygon fill="midnightblue" stroke="midnightblue" points="234.074,-817.944 244.48,-819.935 237.587,-811.89 234.074,-817.944"/>
</g>
<!-- Node8 -->
<g id="node8" class="node"><title>Node8</title>
<g id="a_node8"><a xlink:href="class_om_1_1_default_moveable.html" target="_top" xlink:title="Om::DefaultMoveable\l\&lt; Expression, DefaultCopyable\l\&lt; Expression, Program \&gt; \&gt;">
<polygon fill="none" stroke="black" points="232.211,-893 232.211,-931 385.789,-931 385.789,-893 232.211,-893"/>
<text text-anchor="start" x="240.211" y="-919" font-family="Helvetica,sans-Serif" font-size="10.00">Om::DefaultMoveable</text>
<text text-anchor="start" x="240.211" y="-909" font-family="Helvetica,sans-Serif" font-size="10.00">&lt; Expression, DefaultCopyable</text>
<text text-anchor="middle" x="309" y="-899" font-family="Helvetica,sans-Serif" font-size="10.00">&lt; Expression, Program &gt; &gt;</text>
</a>
</g>
</g>
<!-- Node8&#45;&gt;Node7 -->
<g id="edge7" class="edge"><title>Node8&#45;&gt;Node7</title>
<path fill="none" stroke="midnightblue" d="M294.154,-884.136C287.456,-872.016 279.843,-858.239 274.385,-848.363"/>
<polygon fill="midnightblue" stroke="midnightblue" points="291.146,-885.93 299.047,-892.989 297.273,-882.544 291.146,-885.93"/>
</g>
<!-- Node9 -->
<g id="node9" class="node"><title>Node9</title>
<g id="a_node9"><a xlink:href="class_om_1_1_default_copyable.html" target="_top" xlink:title="Om::DefaultCopyable\l\&lt; Expression, Program \&gt;">
<polygon fill="none" stroke="black" points="261.697,-971 261.697,-999 388.303,-999 388.303,-971 261.697,-971"/>
<text text-anchor="start" x="269.697" y="-987" font-family="Helvetica,sans-Serif" font-size="10.00">Om::DefaultCopyable</text>
<text text-anchor="middle" x="325" y="-977" font-family="Helvetica,sans-Serif" font-size="10.00">&lt; Expression, Program &gt;</text>
</a>
</g>
</g>
<!-- Node9&#45;&gt;Node8 -->
<g id="edge8" class="edge"><title>Node9&#45;&gt;Node8</title>
<path fill="none" stroke="midnightblue" d="M319.848,-961.137C317.65,-951.385 315.123,-940.17 313.061,-931.02"/>
<polygon fill="midnightblue" stroke="midnightblue" points="316.453,-961.992 322.065,-970.978 323.281,-960.453 316.453,-961.992"/>
</g>
<!-- Node10 -->
<g id="node10" class="node"><title>Node10</title>
<g id="a_node10"><a xlink:href="class_om_1_1_program.html" target="_top" xlink:title="The Program implementation. ">
<polygon fill="none" stroke="black" points="359.995,-1039 359.995,-1057 436.005,-1057 436.005,-1039 359.995,-1039"/>
<text text-anchor="middle" x="398" y="-1045" font-family="Helvetica,sans-Serif" font-size="10.00">Om::Program</text>
</a>
</g>
</g>
<!-- Node10&#45;&gt;Node9 -->
<g id="edge9" class="edge"><title>Node10&#45;&gt;Node9</title>
<path fill="none" stroke="midnightblue" d="M380.162,-1032.09C368.133,-1022.04 352.406,-1008.9 340.823,-999.222"/>
<polygon fill="midnightblue" stroke="midnightblue" points="378.237,-1035.05 388.155,-1038.77 382.726,-1029.68 378.237,-1035.05"/>
</g>
<!-- Node29 -->
<g id="node29" class="node"><title>Node29</title>
<g id="a_node29"><a xlink:href="class_om_1_1_element.html" target="_top" xlink:title="A Program that contains a single elemental item (or none, when IsEmpty() returns true). ">
<polygon fill="none" stroke="black" points="410.825,-976 410.825,-994 485.175,-994 485.175,-976 410.825,-976"/>
<text text-anchor="middle" x="448" y="-982" font-family="Helvetica,sans-Serif" font-size="10.00">Om::Element</text>
</a>
</g>
</g>
<!-- Node10&#45;&gt;Node29 -->
<g id="edge29" class="edge"><title>Node10&#45;&gt;Node29</title>
<path fill="none" stroke="midnightblue" d="M411.151,-1030.96C420.867,-1019.1 433.689,-1003.46 441.364,-994.096"/>
<polygon fill="midnightblue" stroke="midnightblue" points="408.376,-1028.82 404.743,-1038.77 413.789,-1033.26 408.376,-1028.82"/>
</g>
<!-- Node11 -->
<g id="node11" class="node"><title>Node11</title>
<g id="a_node11"><a xlink:href="class_om_1_1_consumer.html" target="_top" xlink:title="An Element taker; takes at the back. ">
<polygon fill="none" stroke="black" points="193.104,-1097 193.104,-1115 276.896,-1115 276.896,-1097 193.104,-1097"/>
<text text-anchor="middle" x="235" y="-1103" font-family="Helvetica,sans-Serif" font-size="10.00">Om::Consumer</text>
</a>
</g>
</g>
<!-- Node11&#45;&gt;Node10 -->
<g id="edge10" class="edge"><title>Node11&#45;&gt;Node10</title>
<path fill="none" stroke="midnightblue" d="M268.058,-1093.64C299.739,-1082.76 346.749,-1066.61 374.689,-1057.01"/>
<polygon fill="midnightblue" stroke="midnightblue" points="266.674,-1090.42 258.354,-1096.98 268.949,-1097.04 266.674,-1090.42"/>
</g>
<!-- Node12 -->
<g id="node12" class="node"><title>Node12</title>
<g id="a_node12"><a xlink:href="class_om_1_1_giveable.html" target="_top" xlink:title="An object that can be copied or moved via Give. ">
<polygon fill="none" stroke="black" points="294.434,-1097 294.434,-1115 371.566,-1115 371.566,-1097 294.434,-1097"/>
<text text-anchor="middle" x="333" y="-1103" font-family="Helvetica,sans-Serif" font-size="10.00">Om::Giveable</text>
</a>
</g>
</g>
<!-- Node12&#45;&gt;Node10 -->
<g id="edge11" class="edge"><title>Node12&#45;&gt;Node10</title>
<path fill="none" stroke="midnightblue" d="M350.124,-1090.25C362.474,-1079.61 378.672,-1065.65 388.704,-1057.01"/>
<polygon fill="midnightblue" stroke="midnightblue" points="347.605,-1087.8 342.313,-1096.98 352.174,-1093.1 347.605,-1087.8"/>
</g>
<!-- Node13 -->
<g id="node13" class="node"><title>Node13</title>
<g id="a_node13"><a xlink:href="class_om_1_1_copyable.html" target="_top" xlink:title="An object that can be passed to Copy to be copied. ">
<polygon fill="none" stroke="black" points="244.042,-1155 244.042,-1173 323.958,-1173 323.958,-1155 244.042,-1155"/>
<text text-anchor="middle" x="284" y="-1161" font-family="Helvetica,sans-Serif" font-size="10.00">Om::Copyable</text>
</a>
</g>
</g>
<!-- Node13&#45;&gt;Node12 -->
<g id="edge12" class="edge"><title>Node13&#45;&gt;Node12</title>
<path fill="none" stroke="midnightblue" d="M297.862,-1147.16C306.933,-1136.79 318.419,-1123.66 325.74,-1115.3"/>
<polygon fill="midnightblue" stroke="midnightblue" points="295.181,-1144.91 291.23,-1154.74 300.449,-1149.52 295.181,-1144.91"/>
</g>
<!-- Node14 -->
<g id="node14" class="node"><title>Node14</title>
<g id="a_node14"><a xlink:href="class_om_1_1_moveable.html" target="_top" xlink:title="An object that can be passed to Move to be moved. ">
<polygon fill="none" stroke="black" points="341.488,-1155 341.488,-1173 422.512,-1173 422.512,-1155 341.488,-1155"/>
<text text-anchor="middle" x="382" y="-1161" font-family="Helvetica,sans-Serif" font-size="10.00">Om::Moveable</text>
</a>
</g>
</g>
<!-- Node14&#45;&gt;Node12 -->
<g id="edge13" class="edge"><title>Node14&#45;&gt;Node12</title>
<path fill="none" stroke="midnightblue" d="M368.138,-1147.16C359.067,-1136.79 347.581,-1123.66 340.26,-1115.3"/>
<polygon fill="midnightblue" stroke="midnightblue" points="365.551,-1149.52 374.77,-1154.74 370.819,-1144.91 365.551,-1149.52"/>
</g>
<!-- Node15 -->
<g id="node15" class="node"><title>Node15</title>
<g id="a_node15"><a xlink:href="class_om_1_1_producer.html" target="_top" xlink:title="An Element giver; gives from the front. ">
<polygon fill="none" stroke="black" points="389.879,-1097 389.879,-1115 468.121,-1115 468.121,-1097 389.879,-1097"/>
<text text-anchor="middle" x="429" y="-1103" font-family="Helvetica,sans-Serif" font-size="10.00">Om::Producer</text>
</a>
</g>
</g>
<!-- Node15&#45;&gt;Node10 -->
<g id="edge14" class="edge"><title>Node15&#45;&gt;Node10</title>
<path fill="none" stroke="midnightblue" d="M419.542,-1087.91C413.92,-1077.76 407.041,-1065.33 402.593,-1057.3"/>
<polygon fill="midnightblue" stroke="midnightblue" points="416.521,-1089.68 424.426,-1096.74 422.645,-1086.29 416.521,-1089.68"/>
</g>
<!-- Node16 -->
<g id="node16" class="node"><title>Node16</title>
<g id="a_node16"><a xlink:href="class_om_1_1_shareable.html" target="_top" xlink:title="Om::Shareable\&lt;\&gt;">
<polygon fill="none" stroke="black" points="486.532,-1097 486.532,-1115 581.468,-1115 581.468,-1097 486.532,-1097"/>
<text text-anchor="middle" x="534" y="-1103" font-family="Helvetica,sans-Serif" font-size="10.00">Om::Shareable&lt;&gt;</text>
</a>
</g>
</g>
<!-- Node16&#45;&gt;Node10 -->
<g id="edge15" class="edge"><title>Node16&#45;&gt;Node10</title>
<path fill="none" stroke="midnightblue" d="M505.034,-1093.07C478.631,-1082.2 440.358,-1066.44 417.449,-1057.01"/>
<polygon fill="midnightblue" stroke="midnightblue" points="503.935,-1096.41 514.515,-1096.98 506.6,-1089.93 503.935,-1096.41"/>
</g>
<!-- Node17 -->
<g id="node17" class="node"><title>Node17</title>
<g id="a_node17"><a xlink:href="class_om_1_1_taker.html" target="_top" xlink:title="Om::Taker\&lt; Expression \&gt;">
<polygon fill="none" stroke="black" points="229.589,-747 229.589,-765 358.411,-765 358.411,-747 229.589,-747"/>
<text text-anchor="middle" x="294" y="-753" font-family="Helvetica,sans-Serif" font-size="10.00">Om::Taker&lt; Expression &gt;</text>
</a>
</g>
</g>
<!-- Node17&#45;&gt;Node5 -->
<g id="edge16" class="edge"><title>Node17&#45;&gt;Node5</title>
<path fill="none" stroke="midnightblue" d="M277.132,-740.265C261.158,-726.31 237.395,-705.552 222.049,-692.146"/>
<polygon fill="midnightblue" stroke="midnightblue" points="274.856,-742.924 284.689,-746.867 279.461,-737.652 274.856,-742.924"/>
</g>
<!-- Node18 -->
<g id="node18" class="node"><title>Node18</title>
<polygon fill="none" stroke="#bfbfbf" points="243.365,-158 243.365,-176 346.635,-176 346.635,-158 243.365,-158"/>
<text text-anchor="middle" x="295" y="-164" font-family="Helvetica,sans-Serif" font-size="10.00">std::deque&lt; Form &gt;</text>
</g>
<!-- Node18&#45;&gt;Node4 -->
<g id="edge17" class="edge"><title>Node18&#45;&gt;Node4</title>
<path fill="none" stroke="#9a32cd" stroke-dasharray="5,2" d="M280.613,-150.11C266.667,-134.706 246.078,-111.967 235.256,-100.014"/>
<polygon fill="#9a32cd" stroke="#9a32cd" points="278.267,-152.734 287.574,-157.798 283.457,-148.036 278.267,-152.734"/>
<text text-anchor="middle" x="300.569" y="-126" font-family="Helvetica,sans-Serif" font-size="10.00"> thisFormDeque</text>
</g>
<!-- Node19 -->
<g id="node19" class="node"><title>Node19</title>
<g id="a_node19"><a xlink:href="class_om_1_1_form.html" target="_top" xlink:title="An Operator (which may be empty), followed by zero or more Operand instances. ">
<polygon fill="none" stroke="black" points="289.502,-229 289.502,-247 350.498,-247 350.498,-229 289.502,-229"/>
<text text-anchor="middle" x="320" y="-235" font-family="Helvetica,sans-Serif" font-size="10.00">Om::Form</text>
</a>
</g>
</g>
<!-- Node19&#45;&gt;Node18 -->
<g id="edge18" class="edge"><title>Node19&#45;&gt;Node18</title>
<path fill="none" stroke="#9a32cd" stroke-dasharray="5,2" d="M313.605,-219.351C308.574,-205.465 301.794,-186.752 297.962,-176.176"/>
<polygon fill="#9a32cd" stroke="#9a32cd" points="310.337,-220.604 317.034,-228.814 316.918,-218.22 310.337,-220.604"/>
<text text-anchor="middle" x="330.677" y="-202" font-family="Helvetica,sans-Serif" font-size="10.00"> elements</text>
</g>
<!-- Node20 -->
<g id="node20" class="node"><title>Node20</title>
<g id="a_node20"><a xlink:href="class_om_1_1_operator.html" target="_top" xlink:title="The Operator implementation. ">
<polygon fill="none" stroke="black" points="281.436,-295 281.436,-313 358.564,-313 358.564,-295 281.436,-295"/>
<text text-anchor="middle" x="320" y="-301" font-family="Helvetica,sans-Serif" font-size="10.00">Om::Operator</text>
</a>
</g>
</g>
<!-- Node20&#45;&gt;Node19 -->
<g id="edge19" class="edge"><title>Node20&#45;&gt;Node19</title>
<path fill="none" stroke="#9a32cd" stroke-dasharray="5,2" d="M320,-284.777C320,-272.421 320,-256.677 320,-247.242"/>
<polygon fill="#9a32cd" stroke="#9a32cd" points="316.5,-284.894 320,-294.894 323.5,-284.894 316.5,-284.894"/>
<text text-anchor="middle" x="348.901" y="-268" font-family="Helvetica,sans-Serif" font-size="10.00"> thisOperator</text>
</g>
<!-- Node21 -->
<g id="node21" class="node"><title>Node21</title>
<g id="a_node21"><a xlink:href="class_om_1_1_default_atom.html" target="_top" xlink:title="Om::DefaultAtom\&lt; Operator \&gt;">
<polygon fill="none" stroke="black" points="245.306,-371 245.306,-389 394.694,-389 394.694,-371 245.306,-371"/>
<text text-anchor="middle" x="320" y="-377" font-family="Helvetica,sans-Serif" font-size="10.00">Om::DefaultAtom&lt; Operator &gt;</text>
</a>
</g>
</g>
<!-- Node21&#45;&gt;Node20 -->
<g id="edge20" class="edge"><title>Node21&#45;&gt;Node20</title>
<path fill="none" stroke="midnightblue" d="M320,-360.478C320,-345.213 320,-324.303 320,-313.014"/>
<polygon fill="midnightblue" stroke="midnightblue" points="316.5,-360.798 320,-370.798 323.5,-360.798 316.5,-360.798"/>
</g>
<!-- Node22 -->
<g id="node22" class="node"><title>Node22</title>
<g id="a_node22"><a xlink:href="class_om_1_1_default_element.html" target="_top" xlink:title="Om::DefaultElement\l\&lt; Operator, Atom \&gt;">
<polygon fill="none" stroke="black" points="264.983,-437 264.983,-465 371.017,-465 371.017,-437 264.983,-437"/>
<text text-anchor="start" x="272.983" y="-453" font-family="Helvetica,sans-Serif" font-size="10.00">Om::DefaultElement</text>
<text text-anchor="middle" x="318" y="-443" font-family="Helvetica,sans-Serif" font-size="10.00">&lt; Operator, Atom &gt;</text>
</a>
</g>
</g>
<!-- Node22&#45;&gt;Node21 -->
<g id="edge21" class="edge"><title>Node22&#45;&gt;Node21</title>
<path fill="none" stroke="midnightblue" d="M318.68,-426.524C319.057,-413.54 319.501,-398.229 319.766,-389.084"/>
<polygon fill="midnightblue" stroke="midnightblue" points="315.177,-426.599 318.386,-436.696 322.174,-426.802 315.177,-426.599"/>
</g>
<!-- Node23 -->
<g id="node23" class="node"><title>Node23</title>
<g id="a_node23"><a xlink:href="class_om_1_1_default_program.html" target="_top" xlink:title="Om::DefaultProgram\l\&lt; Operator, Atom \&gt;">
<polygon fill="none" stroke="black" points="263.153,-513 263.153,-541 370.847,-541 370.847,-513 263.153,-513"/>
<text text-anchor="start" x="271.153" y="-529" font-family="Helvetica,sans-Serif" font-size="10.00">Om::DefaultProgram</text>
<text text-anchor="middle" x="317" y="-519" font-family="Helvetica,sans-Serif" font-size="10.00">&lt; Operator, Atom &gt;</text>
</a>
</g>
</g>
<!-- Node23&#45;&gt;Node22 -->
<g id="edge22" class="edge"><title>Node23&#45;&gt;Node22</title>
<path fill="none" stroke="midnightblue" d="M317.315,-502.663C317.483,-490.271 317.682,-475.501 317.823,-465.115"/>
<polygon fill="midnightblue" stroke="midnightblue" points="313.814,-502.724 317.179,-512.77 320.814,-502.819 313.814,-502.724"/>
</g>
<!-- Node24 -->
<g id="node24" class="node"><title>Node24</title>
<g id="a_node24"><a xlink:href="class_om_1_1_default_consumer.html" target="_top" xlink:title="Om::DefaultConsumer\l\&lt; Operator, DefaultGiveable\l\&lt; Operator, Atom \&gt; \&gt;">
<polygon fill="none" stroke="black" points="234.878,-581 234.878,-619 375.122,-619 375.122,-581 234.878,-581"/>
<text text-anchor="start" x="242.878" y="-607" font-family="Helvetica,sans-Serif" font-size="10.00">Om::DefaultConsumer</text>
<text text-anchor="start" x="242.878" y="-597" font-family="Helvetica,sans-Serif" font-size="10.00">&lt; Operator, DefaultGiveable</text>
<text text-anchor="middle" x="305" y="-587" font-family="Helvetica,sans-Serif" font-size="10.00">&lt; Operator, Atom &gt; &gt;</text>
</a>
</g>
</g>
<!-- Node24&#45;&gt;Node23 -->
<g id="edge23" class="edge"><title>Node24&#45;&gt;Node23</title>
<path fill="none" stroke="midnightblue" d="M309.8,-570.599C311.512,-560.473 313.359,-549.543 314.754,-541.289"/>
<polygon fill="midnightblue" stroke="midnightblue" points="306.306,-570.272 308.09,-580.716 313.208,-571.439 306.306,-570.272"/>
</g>
<!-- Node25 -->
<g id="node25" class="node"><title>Node25</title>
<g id="a_node25"><a xlink:href="class_om_1_1_default_giveable.html" target="_top" xlink:title="Om::DefaultGiveable\l\&lt; Operator, Atom \&gt;">
<polygon fill="none" stroke="black" points="343.591,-664 343.591,-692 452.409,-692 452.409,-664 343.591,-664"/>
<text text-anchor="start" x="351.591" y="-680" font-family="Helvetica,sans-Serif" font-size="10.00">Om::DefaultGiveable</text>
<text text-anchor="middle" x="398" y="-670" font-family="Helvetica,sans-Serif" font-size="10.00">&lt; Operator, Atom &gt;</text>
</a>
</g>
</g>
<!-- Node25&#45;&gt;Node24 -->
<g id="edge24" class="edge"><title>Node25&#45;&gt;Node24</title>
<path fill="none" stroke="midnightblue" d="M373.823,-657.242C359.439,-645.488 341.319,-630.68 327.283,-619.21"/>
<polygon fill="midnightblue" stroke="midnightblue" points="371.843,-660.144 381.801,-663.762 376.272,-654.724 371.843,-660.144"/>
</g>
<!-- Node26 -->
<g id="node26" class="node"><title>Node26</title>
<g id="a_node26"><a xlink:href="class_om_1_1_default_moveable.html" target="_top" xlink:title="Om::DefaultMoveable\l\&lt; Operator, DefaultCopyable\l\&lt; Operator, Atom \&gt; \&gt;">
<polygon fill="none" stroke="black" points="376.487,-737 376.487,-775 519.513,-775 519.513,-737 376.487,-737"/>
<text text-anchor="start" x="384.487" y="-763" font-family="Helvetica,sans-Serif" font-size="10.00">Om::DefaultMoveable</text>
<text text-anchor="start" x="384.487" y="-753" font-family="Helvetica,sans-Serif" font-size="10.00">&lt; Operator, DefaultCopyable</text>
<text text-anchor="middle" x="448" y="-743" font-family="Helvetica,sans-Serif" font-size="10.00">&lt; Operator, Atom &gt; &gt;</text>
</a>
</g>
</g>
<!-- Node26&#45;&gt;Node25 -->
<g id="edge25" class="edge"><title>Node26&#45;&gt;Node25</title>
<path fill="none" stroke="midnightblue" d="M430.561,-728.492C422.531,-716.287 413.352,-702.336 406.792,-692.363"/>
<polygon fill="midnightblue" stroke="midnightblue" points="427.731,-730.559 436.151,-736.989 433.578,-726.711 427.731,-730.559"/>
</g>
<!-- Node27 -->
<g id="node27" class="node"><title>Node27</title>
<g id="a_node27"><a xlink:href="class_om_1_1_default_copyable.html" target="_top" xlink:title="Om::DefaultCopyable\l\&lt; Operator, Atom \&gt;">
<polygon fill="none" stroke="black" points="392.2,-820 392.2,-848 503.8,-848 503.8,-820 392.2,-820"/>
<text text-anchor="start" x="400.2" y="-836" font-family="Helvetica,sans-Serif" font-size="10.00">Om::DefaultCopyable</text>
<text text-anchor="middle" x="448" y="-826" font-family="Helvetica,sans-Serif" font-size="10.00">&lt; Operator, Atom &gt;</text>
</a>
</g>
</g>
<!-- Node27&#45;&gt;Node26 -->
<g id="edge26" class="edge"><title>Node27&#45;&gt;Node26</title>
<path fill="none" stroke="midnightblue" d="M448,-809.527C448,-798.479 448,-785.501 448,-775.21"/>
<polygon fill="midnightblue" stroke="midnightblue" points="444.5,-809.762 448,-819.762 451.5,-809.762 444.5,-809.762"/>
</g>
<!-- Node28 -->
<g id="node28" class="node"><title>Node28</title>
<g id="a_node28"><a xlink:href="class_om_1_1_atom.html" target="_top" xlink:title="An atomic Element defined by a string. ">
<polygon fill="none" stroke="black" points="417.498,-903 417.498,-921 478.502,-921 478.502,-903 417.498,-903"/>
<text text-anchor="middle" x="448" y="-909" font-family="Helvetica,sans-Serif" font-size="10.00">Om::Atom</text>
</a>
</g>
</g>
<!-- Node28&#45;&gt;Node27 -->
<g id="edge27" class="edge"><title>Node28&#45;&gt;Node27</title>
<path fill="none" stroke="midnightblue" d="M448,-892.677C448,-878.933 448,-860.445 448,-848.146"/>
<polygon fill="midnightblue" stroke="midnightblue" points="444.5,-892.867 448,-902.867 451.5,-892.867 444.5,-892.867"/>
</g>
<!-- Node29&#45;&gt;Node28 -->
<g id="edge28" class="edge"><title>Node29&#45;&gt;Node28</title>
<path fill="none" stroke="midnightblue" d="M448,-965.608C448,-951.183 448,-931.806 448,-921.05"/>
<polygon fill="midnightblue" stroke="midnightblue" points="444.5,-965.855 448,-975.855 451.5,-965.855 444.5,-965.855"/>
</g>
<!-- Node40 -->
<g id="node40" class="node"><title>Node40</title>
<g id="a_node40"><a xlink:href="class_om_1_1_default_copyable.html" target="_top" xlink:title="Om::DefaultCopyable\l\&lt; Operand, Element \&gt;">
<polygon fill="none" stroke="black" points="508.803,-898 508.803,-926 623.197,-926 623.197,-898 508.803,-898"/>
<text text-anchor="start" x="516.803" y="-914" font-family="Helvetica,sans-Serif" font-size="10.00">Om::DefaultCopyable</text>
<text text-anchor="middle" x="566" y="-904" font-family="Helvetica,sans-Serif" font-size="10.00">&lt; Operand, Element &gt;</text>
</a>
</g>
</g>
<!-- Node29&#45;&gt;Node40 -->
<g id="edge41" class="edge"><title>Node29&#45;&gt;Node40</title>
<path fill="none" stroke="midnightblue" d="M470.187,-970.65C491.394,-957.89 523.167,-938.772 544.232,-926.097"/>
<polygon fill="midnightblue" stroke="midnightblue" points="468.3,-967.701 461.536,-975.855 471.909,-973.699 468.3,-967.701"/>
</g>
<!-- Node30 -->
<g id="node30" class="node"><title>Node30</title>
<g id="a_node30"><a xlink:href="class_om_1_1_taker.html" target="_top" xlink:title="Om::Taker\&lt; Operator \&gt;">
<polygon fill="none" stroke="black" points="393.591,-591 393.591,-609 512.409,-609 512.409,-591 393.591,-591"/>
<text text-anchor="middle" x="453" y="-597" font-family="Helvetica,sans-Serif" font-size="10.00">Om::Taker&lt; Operator &gt;</text>
</a>
</g>
</g>
<!-- Node30&#45;&gt;Node23 -->
<g id="edge30" class="edge"><title>Node30&#45;&gt;Node23</title>
<path fill="none" stroke="midnightblue" d="M428.669,-586.298C404.195,-573.521 366.639,-553.915 341.948,-541.024"/>
<polygon fill="midnightblue" stroke="midnightblue" points="427.179,-589.468 437.663,-590.993 430.419,-583.263 427.179,-589.468"/>
</g>
<!-- Node31 -->
<g id="node31" class="node"><title>Node31</title>
<g id="a_node31"><a xlink:title="STL class. ">
<polygon fill="none" stroke="#bfbfbf" points="398.325,-442 398.325,-460 457.675,-460 457.675,-442 398.325,-442"/>
<text text-anchor="middle" x="428" y="-448" font-family="Helvetica,sans-Serif" font-size="10.00">std::string</text>
</a>
</g>
</g>
<!-- Node31&#45;&gt;Node21 -->
<g id="edge31" class="edge"><title>Node31&#45;&gt;Node21</title>
<path fill="none" stroke="#9a32cd" stroke-dasharray="5,2" d="M406.531,-436.284C384.507,-422.213 350.974,-400.789 332.796,-389.176"/>
<polygon fill="#9a32cd" stroke="#9a32cd" points="404.876,-439.379 415.187,-441.814 408.644,-433.48 404.876,-439.379"/>
<text text-anchor="middle" x="399.231" y="-410" font-family="Helvetica,sans-Serif" font-size="10.00"> thisString</text>
</g>
<!-- Node32 -->
<g id="node32" class="node"><title>Node32</title>
<g id="a_node32"><a xlink:title="STL class. ">
<polygon fill="none" stroke="#bfbfbf" points="388.952,-513 388.952,-541 483.048,-541 483.048,-513 388.952,-513"/>
<text text-anchor="start" x="396.952" y="-529" font-family="Helvetica,sans-Serif" font-size="10.00">std::basic_string&lt;</text>
<text text-anchor="middle" x="436" y="-519" font-family="Helvetica,sans-Serif" font-size="10.00"> char &gt;</text>
</a>
</g>
</g>
<!-- Node32&#45;&gt;Node31 -->
<g id="edge32" class="edge"><title>Node32&#45;&gt;Node31</title>
<path fill="none" stroke="midnightblue" d="M433.456,-502.463C431.885,-487.933 429.967,-470.194 428.874,-460.087"/>
<polygon fill="midnightblue" stroke="midnightblue" points="430.015,-503.204 434.57,-512.77 436.975,-502.452 430.015,-503.204"/>
</g>
<!-- Node33 -->
<g id="node33" class="node"><title>Node33</title>
<polygon fill="none" stroke="#bfbfbf" points="383.572,-333 383.572,-351 502.428,-351 502.428,-333 383.572,-333"/>
<text text-anchor="middle" x="443" y="-339" font-family="Helvetica,sans-Serif" font-size="10.00">std::deque&lt; Operand &gt;</text>
</g>
<!-- Node33&#45;&gt;Node19 -->
<g id="edge33" class="edge"><title>Node33&#45;&gt;Node19</title>
<path fill="none" stroke="#9a32cd" stroke-dasharray="5,2" d="M432.576,-324.311C421.495,-307.697 402.613,-282.374 381,-266 370.292,-257.887 356.763,-251.583 345.169,-247.114"/>
<polygon fill="#9a32cd" stroke="#9a32cd" points="429.793,-326.454 438.16,-332.954 435.673,-322.655 429.793,-326.454"/>
<text text-anchor="middle" x="467.362" y="-301" font-family="Helvetica,sans-Serif" font-size="10.00"> thisOperandDeque</text>
</g>
<!-- Node34 -->
<g id="node34" class="node"><title>Node34</title>
<g id="a_node34"><a xlink:href="class_om_1_1_operand.html" target="_top" xlink:title="The Operand implementation. ">
<polygon fill="none" stroke="black" points="545.709,-442 545.709,-460 622.291,-460 622.291,-442 545.709,-442"/>
<text text-anchor="middle" x="584" y="-448" font-family="Helvetica,sans-Serif" font-size="10.00">Om::Operand</text>
</a>
</g>
</g>
<!-- Node34&#45;&gt;Node33 -->
<g id="edge34" class="edge"><title>Node34&#45;&gt;Node33</title>
<path fill="none" stroke="#9a32cd" stroke-dasharray="5,2" d="M565.422,-435.902C535.511,-413.204 477.621,-369.273 453.721,-351.136"/>
<polygon fill="#9a32cd" stroke="#9a32cd" points="563.32,-438.701 573.402,-441.958 567.552,-433.124 563.32,-438.701"/>
<text text-anchor="middle" x="561.677" y="-410" font-family="Helvetica,sans-Serif" font-size="10.00"> elements</text>
</g>
<!-- Node35 -->
<g id="node35" class="node"><title>Node35</title>
<g id="a_node35"><a xlink:href="class_om_1_1_default_element.html" target="_top" xlink:title="Om::DefaultElement\l\&lt; Operand, Element \&gt;">
<polygon fill="none" stroke="black" points="673.803,-513 673.803,-541 788.197,-541 788.197,-513 673.803,-513"/>
<text text-anchor="start" x="681.803" y="-529" font-family="Helvetica,sans-Serif" font-size="10.00">Om::DefaultElement</text>
<text text-anchor="middle" x="731" y="-519" font-family="Helvetica,sans-Serif" font-size="10.00">&lt; Operand, Element &gt;</text>
</a>
</g>
</g>
<!-- Node35&#45;&gt;Node34 -->
<g id="edge35" class="edge"><title>Node35&#45;&gt;Node34</title>
<path fill="none" stroke="midnightblue" d="M696.063,-508.413C665.699,-493.127 623.084,-471.675 600.143,-460.127"/>
<polygon fill="midnightblue" stroke="midnightblue" points="694.552,-511.57 705.058,-512.941 697.699,-505.318 694.552,-511.57"/>
</g>
<!-- Node36 -->
<g id="node36" class="node"><title>Node36</title>
<g id="a_node36"><a xlink:href="class_om_1_1_default_program.html" target="_top" xlink:title="Om::DefaultProgram\l\&lt; Operand, Element \&gt;">
<polygon fill="none" stroke="black" points="673.803,-586 673.803,-614 788.197,-614 788.197,-586 673.803,-586"/>
<text text-anchor="start" x="681.803" y="-602" font-family="Helvetica,sans-Serif" font-size="10.00">Om::DefaultProgram</text>
<text text-anchor="middle" x="731" y="-592" font-family="Helvetica,sans-Serif" font-size="10.00">&lt; Operand, Element &gt;</text>
</a>
</g>
</g>
<!-- Node36&#45;&gt;Node35 -->
<g id="edge36" class="edge"><title>Node36&#45;&gt;Node35</title>
<path fill="none" stroke="midnightblue" d="M731,-575.83C731,-564.437 731,-551.111 731,-541.422"/>
<polygon fill="midnightblue" stroke="midnightblue" points="727.5,-575.977 731,-585.978 734.5,-575.978 727.5,-575.977"/>
</g>
<!-- Node37 -->
<g id="node37" class="node"><title>Node37</title>
<g id="a_node37"><a xlink:href="class_om_1_1_default_consumer.html" target="_top" xlink:title="Om::DefaultConsumer\l\&lt; Operand, DefaultGiveable\l\&lt; Operand, Element \&gt; \&gt;">
<polygon fill="none" stroke="black" points="660.878,-659 660.878,-697 801.122,-697 801.122,-659 660.878,-659"/>
<text text-anchor="start" x="668.878" y="-685" font-family="Helvetica,sans-Serif" font-size="10.00">Om::DefaultConsumer</text>
<text text-anchor="start" x="668.878" y="-675" font-family="Helvetica,sans-Serif" font-size="10.00">&lt; Operand, DefaultGiveable</text>
<text text-anchor="middle" x="731" y="-665" font-family="Helvetica,sans-Serif" font-size="10.00">&lt; Operand, Element &gt; &gt;</text>
</a>
</g>
</g>
<!-- Node37&#45;&gt;Node36 -->
<g id="edge37" class="edge"><title>Node37&#45;&gt;Node36</title>
<path fill="none" stroke="midnightblue" d="M731,-648.703C731,-636.942 731,-623.852 731,-614.363"/>
<polygon fill="midnightblue" stroke="midnightblue" points="727.5,-648.989 731,-658.989 734.5,-648.989 727.5,-648.989"/>
</g>
<!-- Node38 -->
<g id="node38" class="node"><title>Node38</title>
<g id="a_node38"><a xlink:href="class_om_1_1_default_giveable.html" target="_top" xlink:title="Om::DefaultGiveable\l\&lt; Operand, Element \&gt;">
<polygon fill="none" stroke="black" points="580.803,-742 580.803,-770 695.197,-770 695.197,-742 580.803,-742"/>
<text text-anchor="start" x="588.803" y="-758" font-family="Helvetica,sans-Serif" font-size="10.00">Om::DefaultGiveable</text>
<text text-anchor="middle" x="638" y="-748" font-family="Helvetica,sans-Serif" font-size="10.00">&lt; Operand, Element &gt;</text>
</a>
</g>
</g>
<!-- Node38&#45;&gt;Node37 -->
<g id="edge38" class="edge"><title>Node38&#45;&gt;Node37</title>
<path fill="none" stroke="midnightblue" d="M662.177,-735.242C676.561,-723.488 694.681,-708.68 708.717,-697.21"/>
<polygon fill="midnightblue" stroke="midnightblue" points="659.728,-732.724 654.199,-741.762 664.157,-738.144 659.728,-732.724"/>
</g>
<!-- Node39 -->
<g id="node39" class="node"><title>Node39</title>
<g id="a_node39"><a xlink:href="class_om_1_1_default_moveable.html" target="_top" xlink:title="Om::DefaultMoveable\l\&lt; Operand, DefaultCopyable\l\&lt; Operand, Element \&gt; \&gt;">
<polygon fill="none" stroke="black" points="532.487,-815 532.487,-853 675.513,-853 675.513,-815 532.487,-815"/>
<text text-anchor="start" x="540.487" y="-841" font-family="Helvetica,sans-Serif" font-size="10.00">Om::DefaultMoveable</text>
<text text-anchor="start" x="540.487" y="-831" font-family="Helvetica,sans-Serif" font-size="10.00">&lt; Operand, DefaultCopyable</text>
<text text-anchor="middle" x="604" y="-821" font-family="Helvetica,sans-Serif" font-size="10.00">&lt; Operand, Element &gt; &gt;</text>
</a>
</g>
</g>
<!-- Node39&#45;&gt;Node38 -->
<g id="edge39" class="edge"><title>Node39&#45;&gt;Node38</title>
<path fill="none" stroke="midnightblue" d="M616.178,-805.779C621.561,-793.747 627.647,-780.142 632.022,-770.363"/>
<polygon fill="midnightblue" stroke="midnightblue" points="612.946,-804.432 612.058,-814.989 619.336,-807.29 612.946,-804.432"/>
</g>
<!-- Node40&#45;&gt;Node39 -->
<g id="edge40" class="edge"><title>Node40&#45;&gt;Node39</title>
<path fill="none" stroke="midnightblue" d="M577.221,-888.557C582.854,-877.292 589.589,-863.823 594.895,-853.21"/>
<polygon fill="midnightblue" stroke="midnightblue" points="573.961,-887.252 572.619,-897.762 580.222,-890.383 573.961,-887.252"/>
</g>
<!-- Node41 -->
<g id="node41" class="node"><title>Node41</title>
<g id="a_node41"><a xlink:href="class_om_1_1_taker.html" target="_top" xlink:title="Om::Taker\&lt; Operand \&gt;">
<polygon fill="none" stroke="black" points="524.865,-669 524.865,-687 643.135,-687 643.135,-669 524.865,-669"/>
<text text-anchor="middle" x="584" y="-675" font-family="Helvetica,sans-Serif" font-size="10.00">Om::Taker&lt; Operand &gt;</text>
</a>
</g>
</g>
<!-- Node41&#45;&gt;Node36 -->
<g id="edge42" class="edge"><title>Node41&#45;&gt;Node36</title>
<path fill="none" stroke="midnightblue" d="M608.902,-664.126C635.897,-650.169 678.743,-628.017 705.839,-614.008"/>
<polygon fill="midnightblue" stroke="midnightblue" points="607.007,-661.165 599.732,-668.867 610.222,-667.383 607.007,-661.165"/>
</g>
<!-- Node42 -->
<g id="node42" class="node"><title>Node42</title>
<g id="a_node42"><a xlink:href="class_om_1_1_owner.html" target="_top" xlink:title="Om::Owner\&lt; Om::Program \&gt;">
<polygon fill="none" stroke="black" points="511.818,-518 511.818,-536 656.182,-536 656.182,-518 511.818,-518"/>
<text text-anchor="middle" x="584" y="-524" font-family="Helvetica,sans-Serif" font-size="10.00">Om::Owner&lt; Om::Program &gt;</text>
</a>
</g>
</g>
<!-- Node42&#45;&gt;Node34 -->
<g id="edge43" class="edge"><title>Node42&#45;&gt;Node34</title>
<path fill="none" stroke="#9a32cd" stroke-dasharray="5,2" d="M584,-507.478C584,-492.213 584,-471.303 584,-460.014"/>
<polygon fill="#9a32cd" stroke="#9a32cd" points="580.5,-507.798 584,-517.798 587.5,-507.798 580.5,-507.798"/>
<text text-anchor="middle" x="612.342" y="-486" font-family="Helvetica,sans-Serif" font-size="10.00"> thisProgram</text>
</g>
<!-- Node43 -->
<g id="node43" class="node"><title>Node43</title>
<g id="a_node43"><a xlink:href="class_om_1_1_taker.html" target="_top" xlink:title="Om::Taker\&lt; Owner\&lt; Om\l::Program \&gt; \&gt;">
<polygon fill="none" stroke="black" points="530.542,-586 530.542,-614 655.458,-614 655.458,-586 530.542,-586"/>
<text text-anchor="start" x="538.542" y="-602" font-family="Helvetica,sans-Serif" font-size="10.00">Om::Taker&lt; Owner&lt; Om</text>
<text text-anchor="middle" x="593" y="-592" font-family="Helvetica,sans-Serif" font-size="10.00">::Program &gt; &gt;</text>
</a>
</g>
</g>
<!-- Node43&#45;&gt;Node42 -->
<g id="edge44" class="edge"><title>Node43&#45;&gt;Node42</title>
<path fill="none" stroke="midnightblue" d="M590.058,-575.794C588.326,-562.125 586.241,-545.682 585.024,-536.08"/>
<polygon fill="midnightblue" stroke="midnightblue" points="586.619,-576.497 591.349,-585.978 593.564,-575.617 586.619,-576.497"/>
</g>
</g>
</svg>
