<?xml version="1.0" encoding="UTF-8" standalone="no"?>
<!DOCTYPE svg PUBLIC "-//W3C//DTD SVG 1.1//EN"
 "http://www.w3.org/Graphics/SVG/1.1/DTD/svg11.dtd">
<!-- Generated by graphviz version 2.30.1 (20130221.2233)
 -->
<!-- Title: Om::Null Pages: 1 -->
<svg width="395pt" height="578pt"
 viewBox="0.00 0.00 395.00 578.00" xmlns="http://www.w3.org/2000/svg" xmlns:xlink="http://www.w3.org/1999/xlink">
<g id="graph0" class="graph" transform="scale(1 1) rotate(0) translate(4 574)">
<title>Om::Null</title>
<!-- Node1 -->
<g id="node1" class="node"><title>Node1</title>
<polygon fill="#bfbfbf" stroke="black" points="222.554,-1 222.554,-21 277.446,-21 277.446,-1 222.554,-1"/>
<text text-anchor="middle" x="250" y="-7" font-family="Helvetica,sans-Serif" font-size="10.00">Om::Null</text>
</g>
<!-- Node2 -->
<g id="node2" class="node"><title>Node2</title>
<g id="a_node2"><a xlink:href="class_om_1_1_default_program.html" target="_top" xlink:title="Om::DefaultProgram\l\&lt; Null \&gt;">
<polygon fill="none" stroke="black" points="196.153,-59 196.153,-91 303.847,-91 303.847,-59 196.153,-59"/>
<text text-anchor="start" x="204.153" y="-77" font-family="Helvetica,sans-Serif" font-size="10.00">Om::DefaultProgram</text>
<text text-anchor="middle" x="250" y="-65" font-family="Helvetica,sans-Serif" font-size="10.00">&lt; Null &gt;</text>
</a>
</g>
</g>
<!-- Node2&#45;&gt;Node1 -->
<g id="edge1" class="edge"><title>Node2&#45;&gt;Node1</title>
<path fill="none" stroke="midnightblue" d="M250,-48.922C250,-39.1719 250,-28.6099 250,-21.2904"/>
<polygon fill="midnightblue" stroke="midnightblue" points="246.5,-48.9915 250,-58.9915 253.5,-48.9916 246.5,-48.9915"/>
</g>
<!-- Node3 -->
<g id="node3" class="node"><title>Node3</title>
<g id="a_node3"><a xlink:href="class_om_1_1_default_consumer.html" target="_top" xlink:title="Om::DefaultConsumer\l\&lt; Null, DefaultGiveable\l\&lt; Null, Program \&gt; \&gt;">
<polygon fill="none" stroke="black" points="127.723,-129 127.723,-173 246.277,-173 246.277,-129 127.723,-129"/>
<text text-anchor="start" x="135.723" y="-159" font-family="Helvetica,sans-Serif" font-size="10.00">Om::DefaultConsumer</text>
<text text-anchor="start" x="135.723" y="-147" font-family="Helvetica,sans-Serif" font-size="10.00">&lt; Null, DefaultGiveable</text>
<text text-anchor="middle" x="187" y="-135" font-family="Helvetica,sans-Serif" font-size="10.00">&lt; Null, Program &gt; &gt;</text>
</a>
</g>
</g>
<!-- Node3&#45;&gt;Node2 -->
<g id="edge2" class="edge"><title>Node3&#45;&gt;Node2</title>
<path fill="none" stroke="midnightblue" d="M211.592,-121.115C220.215,-110.986 229.564,-100.004 236.879,-91.4115"/>
<polygon fill="midnightblue" stroke="midnightblue" points="208.702,-119.109 204.885,-128.993 214.032,-123.647 208.702,-119.109"/>
</g>
<!-- Node4 -->
<g id="node4" class="node"><title>Node4</title>
<g id="a_node4"><a xlink:href="class_om_1_1_default_giveable.html" target="_top" xlink:title="Om::DefaultGiveable\l\&lt; Null, Program \&gt;">
<polygon fill="none" stroke="black" points="132.591,-211 132.591,-243 241.409,-243 241.409,-211 132.591,-211"/>
<text text-anchor="start" x="140.591" y="-229" font-family="Helvetica,sans-Serif" font-size="10.00">Om::DefaultGiveable</text>
<text text-anchor="middle" x="187" y="-217" font-family="Helvetica,sans-Serif" font-size="10.00">&lt; Null, Program &gt;</text>
</a>
</g>
</g>
<!-- Node4&#45;&gt;Node3 -->
<g id="edge3" class="edge"><title>Node4&#45;&gt;Node3</title>
<path fill="none" stroke="midnightblue" d="M187,-200.467C187,-191.577 187,-181.706 187,-173.205"/>
<polygon fill="midnightblue" stroke="midnightblue" points="183.5,-200.667 187,-210.667 190.5,-200.667 183.5,-200.667"/>
</g>
<!-- Node5 -->
<g id="node5" class="node"><title>Node5</title>
<g id="a_node5"><a xlink:href="class_om_1_1_default_moveable.html" target="_top" xlink:title="Om::DefaultMoveable\l\&lt; Null, DefaultCopyable\l\&lt; Null, Program \&gt; \&gt;">
<polygon fill="none" stroke="black" points="126.332,-281 126.332,-325 247.668,-325 247.668,-281 126.332,-281"/>
<text text-anchor="start" x="134.332" y="-311" font-family="Helvetica,sans-Serif" font-size="10.00">Om::DefaultMoveable</text>
<text text-anchor="start" x="134.332" y="-299" font-family="Helvetica,sans-Serif" font-size="10.00">&lt; Null, DefaultCopyable</text>
<text text-anchor="middle" x="187" y="-287" font-family="Helvetica,sans-Serif" font-size="10.00">&lt; Null, Program &gt; &gt;</text>
</a>
</g>
</g>
<!-- Node5&#45;&gt;Node4 -->
<g id="edge4" class="edge"><title>Node5&#45;&gt;Node4</title>
<path fill="none" stroke="midnightblue" d="M187,-270.693C187,-261.261 187,-251.324 187,-243.412"/>
<polygon fill="midnightblue" stroke="midnightblue" points="183.5,-270.992 187,-280.993 190.5,-270.993 183.5,-270.992"/>
</g>
<!-- Node6 -->
<g id="node6" class="node"><title>Node6</title>
<g id="a_node6"><a xlink:href="class_om_1_1_default_copyable.html" target="_top" xlink:title="Om::DefaultCopyable\l\&lt; Null, Program \&gt;">
<polygon fill="none" stroke="black" points="131.2,-363 131.2,-395 242.8,-395 242.8,-363 131.2,-363"/>
<text text-anchor="start" x="139.2" y="-381" font-family="Helvetica,sans-Serif" font-size="10.00">Om::DefaultCopyable</text>
<text text-anchor="middle" x="187" y="-369" font-family="Helvetica,sans-Serif" font-size="10.00">&lt; Null, Program &gt;</text>
</a>
</g>
</g>
<!-- Node6&#45;&gt;Node5 -->
<g id="edge5" class="edge"><title>Node6&#45;&gt;Node5</title>
<path fill="none" stroke="midnightblue" d="M187,-352.467C187,-343.577 187,-333.706 187,-325.205"/>
<polygon fill="midnightblue" stroke="midnightblue" points="183.5,-352.667 187,-362.667 190.5,-352.667 183.5,-352.667"/>
</g>
<!-- Node7 -->
<g id="node7" class="node"><title>Node7</title>
<g id="a_node7"><a xlink:href="class_om_1_1_program.html" target="_top" xlink:title="The Program implementation.">
<polygon fill="none" stroke="black" points="148.995,-433 148.995,-453 225.005,-453 225.005,-433 148.995,-433"/>
<text text-anchor="middle" x="187" y="-439" font-family="Helvetica,sans-Serif" font-size="10.00">Om::Program</text>
</a>
</g>
</g>
<!-- Node7&#45;&gt;Node6 -->
<g id="edge6" class="edge"><title>Node7&#45;&gt;Node6</title>
<path fill="none" stroke="midnightblue" d="M187,-422.775C187,-413.986 187,-403.715 187,-395.44"/>
<polygon fill="midnightblue" stroke="midnightblue" points="183.5,-422.852 187,-432.852 190.5,-422.852 183.5,-422.852"/>
</g>
<!-- Node8 -->
<g id="node8" class="node"><title>Node8</title>
<g id="a_node8"><a xlink:href="class_om_1_1_consumer.html" target="_top" xlink:title="An Element taker; takes at the back.">
<polygon fill="none" stroke="black" points="-0.896484,-491 -0.896484,-511 82.8965,-511 82.8965,-491 -0.896484,-491"/>
<text text-anchor="middle" x="41" y="-497" font-family="Helvetica,sans-Serif" font-size="10.00">Om::Consumer</text>
</a>
</g>
</g>
<!-- Node8&#45;&gt;Node7 -->
<g id="edge7" class="edge"><title>Node8&#45;&gt;Node7</title>
<path fill="none" stroke="midnightblue" d="M74.2565,-487.244C101.386,-476.838 139.051,-462.391 163.228,-453.118"/>
<polygon fill="midnightblue" stroke="midnightblue" points="72.8657,-484.029 64.7824,-490.878 75.3726,-490.565 72.8657,-484.029"/>
</g>
<!-- Node9 -->
<g id="node9" class="node"><title>Node9</title>
<g id="a_node9"><a xlink:href="class_om_1_1_giveable.html" target="_top" xlink:title="An object that can be copied or moved via Give.">
<polygon fill="none" stroke="black" points="100.434,-491 100.434,-511 177.566,-511 177.566,-491 100.434,-491"/>
<text text-anchor="middle" x="139" y="-497" font-family="Helvetica,sans-Serif" font-size="10.00">Om::Giveable</text>
</a>
</g>
</g>
<!-- Node9&#45;&gt;Node7 -->
<g id="edge8" class="edge"><title>Node9&#45;&gt;Node7</title>
<path fill="none" stroke="midnightblue" d="M153.473,-483.114C161.934,-473.244 172.279,-461.174 179.221,-453.075"/>
<polygon fill="midnightblue" stroke="midnightblue" points="150.777,-480.882 146.926,-490.753 156.092,-485.438 150.777,-480.882"/>
</g>
<!-- Node10 -->
<g id="node10" class="node"><title>Node10</title>
<g id="a_node10"><a xlink:href="class_om_1_1_copyable.html" target="_top" xlink:title="An object that can be passed to Copy to be copied.">
<polygon fill="none" stroke="black" points="50.042,-549 50.042,-569 129.958,-569 129.958,-549 50.042,-549"/>
<text text-anchor="middle" x="90" y="-555" font-family="Helvetica,sans-Serif" font-size="10.00">Om::Copyable</text>
</a>
</g>
</g>
<!-- Node10&#45;&gt;Node9 -->
<g id="edge9" class="edge"><title>Node10&#45;&gt;Node9</title>
<path fill="none" stroke="midnightblue" d="M104.775,-541.114C113.411,-531.244 123.973,-519.174 131.059,-511.075"/>
<polygon fill="midnightblue" stroke="midnightblue" points="102.042,-538.922 98.0914,-548.753 107.31,-543.532 102.042,-538.922"/>
</g>
<!-- Node11 -->
<g id="node11" class="node"><title>Node11</title>
<g id="a_node11"><a xlink:href="class_om_1_1_moveable.html" target="_top" xlink:title="An object that can be passed to Move to be moved.">
<polygon fill="none" stroke="black" points="147.488,-549 147.488,-569 228.512,-569 228.512,-549 147.488,-549"/>
<text text-anchor="middle" x="188" y="-555" font-family="Helvetica,sans-Serif" font-size="10.00">Om::Moveable</text>
</a>
</g>
</g>
<!-- Node11&#45;&gt;Node9 -->
<g id="edge10" class="edge"><title>Node11&#45;&gt;Node9</title>
<path fill="none" stroke="midnightblue" d="M173.225,-541.114C164.589,-531.244 154.027,-519.174 146.941,-511.075"/>
<polygon fill="midnightblue" stroke="midnightblue" points="170.69,-543.532 179.909,-548.753 175.958,-538.922 170.69,-543.532"/>
</g>
<!-- Node12 -->
<g id="node12" class="node"><title>Node12</title>
<g id="a_node12"><a xlink:href="class_om_1_1_producer.html" target="_top" xlink:title="An Element giver; gives from the front.">
<polygon fill="none" stroke="black" points="195.879,-491 195.879,-511 274.121,-511 274.121,-491 195.879,-491"/>
<text text-anchor="middle" x="235" y="-497" font-family="Helvetica,sans-Serif" font-size="10.00">Om::Producer</text>
</a>
</g>
</g>
<!-- Node12&#45;&gt;Node7 -->
<g id="edge11" class="edge"><title>Node12&#45;&gt;Node7</title>
<path fill="none" stroke="midnightblue" d="M220.527,-483.114C212.066,-473.244 201.721,-461.174 194.779,-453.075"/>
<polygon fill="midnightblue" stroke="midnightblue" points="217.908,-485.438 227.074,-490.753 223.223,-480.882 217.908,-485.438"/>
</g>
<!-- Node13 -->
<g id="node13" class="node"><title>Node13</title>
<g id="a_node13"><a xlink:href="class_om_1_1_shareable.html" target="_top" xlink:title="Om::Shareable\&lt;\&gt;">
<polygon fill="none" stroke="black" points="292.532,-491 292.532,-511 387.468,-511 387.468,-491 292.532,-491"/>
<text text-anchor="middle" x="340" y="-497" font-family="Helvetica,sans-Serif" font-size="10.00">Om::Shareable&lt;&gt;</text>
</a>
</g>
</g>
<!-- Node13&#45;&gt;Node7 -->
<g id="edge12" class="edge"><title>Node13&#45;&gt;Node7</title>
<path fill="none" stroke="midnightblue" d="M305.493,-487.37C276.942,-476.92 237.085,-462.332 211.658,-453.025"/>
<polygon fill="midnightblue" stroke="midnightblue" points="304.484,-490.728 315.077,-490.878 306.89,-484.154 304.484,-490.728"/>
</g>
<!-- Node14 -->
<g id="node14" class="node"><title>Node14</title>
<g id="a_node14"><a xlink:href="class_om_1_1_taker.html" target="_top" xlink:title="Om::Taker\&lt; Null \&gt;">
<polygon fill="none" stroke="black" points="264.709,-141 264.709,-161 361.291,-161 361.291,-141 264.709,-141"/>
<text text-anchor="middle" x="313" y="-147" font-family="Helvetica,sans-Serif" font-size="10.00">Om::Taker&lt; Null &gt;</text>
</a>
</g>
</g>
<!-- Node14&#45;&gt;Node2 -->
<g id="edge13" class="edge"><title>Node14&#45;&gt;Node2</title>
<path fill="none" stroke="midnightblue" d="M298.52,-132.992C287.744,-120.334 273.17,-103.216 262.815,-91.053"/>
<polygon fill="midnightblue" stroke="midnightblue" points="296.127,-135.581 305.275,-140.926 301.457,-131.043 296.127,-135.581"/>
</g>
</g>
</svg>
