<?xml version="1.0" encoding="UTF-8" standalone="no"?>
<!DOCTYPE svg PUBLIC "-//W3C//DTD SVG 1.1//EN"
 "http://www.w3.org/Graphics/SVG/1.1/DTD/svg11.dtd">
<!-- Generated by graphviz version 2.30.1 (20130221.2233)
 -->
<!-- Title: Om::Operations::DequoteOperation Pages: 1 -->
<svg width="180pt" height="158pt"
 viewBox="0.00 0.00 180.00 158.00" xmlns="http://www.w3.org/2000/svg" xmlns:xlink="http://www.w3.org/1999/xlink">
<g id="graph0" class="graph" transform="scale(1 1) rotate(0) translate(4 154)">
<title>Om::Operations::DequoteOperation</title>
<!-- Node1 -->
<g id="node1" class="node"><title>Node1</title>
<polygon fill="#bfbfbf" stroke="black" points="-0.930664,-1 -0.930664,-21 172.931,-21 172.931,-1 -0.930664,-1"/>
<text text-anchor="middle" x="86" y="-7" font-family="Helvetica,sans-Serif" font-size="10.00">Om::Operations::DequoteOperation</text>
</g>
<!-- Node2 -->
<g id="node2" class="node"><title>Node2</title>
<g id="a_node2"><a xlink:href="class_om_1_1_default_operation.html" target="_top" xlink:title="Om::DefaultOperation\l\&lt; DequoteOperation \&gt;">
<polygon fill="none" stroke="black" points="28.52,-59 28.52,-91 143.48,-91 143.48,-59 28.52,-59"/>
<text text-anchor="start" x="36.52" y="-77" font-family="Helvetica,sans-Serif" font-size="10.00">Om::DefaultOperation</text>
<text text-anchor="middle" x="86" y="-65" font-family="Helvetica,sans-Serif" font-size="10.00">&lt; DequoteOperation &gt;</text>
</a>
</g>
</g>
<!-- Node2&#45;&gt;Node1 -->
<g id="edge1" class="edge"><title>Node2&#45;&gt;Node1</title>
<path fill="none" stroke="midnightblue" d="M86,-48.922C86,-39.1719 86,-28.6099 86,-21.2904"/>
<polygon fill="midnightblue" stroke="midnightblue" points="82.5001,-48.9915 86,-58.9915 89.5001,-48.9916 82.5001,-48.9915"/>
</g>
<!-- Node3 -->
<g id="node3" class="node"><title>Node3</title>
<g id="a_node3"><a xlink:href="class_om_1_1_operation.html" target="_top" xlink:title="An Operation that has yet to consume one or more Operands, and therefore must live in memory while &quot;i...">
<polygon fill="none" stroke="black" points="45.2095,-129 45.2095,-149 126.791,-149 126.791,-129 45.2095,-129"/>
<text text-anchor="middle" x="86" y="-135" font-family="Helvetica,sans-Serif" font-size="10.00">Om::Operation</text>
</a>
</g>
</g>
<!-- Node3&#45;&gt;Node2 -->
<g id="edge2" class="edge"><title>Node3&#45;&gt;Node2</title>
<path fill="none" stroke="midnightblue" d="M86,-118.775C86,-109.986 86,-99.715 86,-91.4404"/>
<polygon fill="midnightblue" stroke="midnightblue" points="82.5001,-118.852 86,-128.852 89.5001,-118.852 82.5001,-118.852"/>
</g>
</g>
</svg>
