<?xml version="1.0" encoding="UTF-8" standalone="no"?>
<!DOCTYPE svg PUBLIC "-//W3C//DTD SVG 1.1//EN"
 "http://www.w3.org/Graphics/SVG/1.1/DTD/svg11.dtd">
<!-- Generated by graphviz version 2.36.0 (20140111.2315)
 -->
<!-- Title: Om::Language::Lexicon::ElementRange Pages: 1 -->
<svg width="478pt" height="93pt"
 viewBox="0.00 0.00 478.00 93.00" xmlns="http://www.w3.org/2000/svg" xmlns:xlink="http://www.w3.org/1999/xlink">
<g id="graph0" class="graph" transform="scale(1 1) rotate(0) translate(4 89)">
<title>Om::Language::Lexicon::ElementRange</title>
<!-- Node1 -->
<g id="node1" class="node"><title>Node1</title>
<polygon fill="#bfbfbf" stroke="black" points="347.909,-31 347.909,-59 470.091,-59 470.091,-31 347.909,-31"/>
<text text-anchor="start" x="355.909" y="-47" font-family="Helvetica,sans-Serif" font-size="10.00">Om::Language::Lexicon</text>
<text text-anchor="middle" x="409" y="-37" font-family="Helvetica,sans-Serif" font-size="10.00">::ElementRange</text>
</g>
<!-- Node2 -->
<g id="node2" class="node"><title>Node2</title>
<g id="a_node2"><a xlink:href="class_om_1_1_source_1_1_default_source.html" target="_top" xlink:title="Om::Source::DefaultSource\l\&lt; Element const, ElementRange \&gt;">
<polygon fill="none" stroke="black" points="143.845,-31 143.845,-59 312.155,-59 312.155,-31 143.845,-31"/>
<text text-anchor="start" x="151.845" y="-47" font-family="Helvetica,sans-Serif" font-size="10.00">Om::Source::DefaultSource</text>
<text text-anchor="middle" x="228" y="-37" font-family="Helvetica,sans-Serif" font-size="10.00">&lt; Element const, ElementRange &gt;</text>
</a>
</g>
</g>
<!-- Node2&#45;&gt;Node1 -->
<g id="edge1" class="edge"><title>Node2&#45;&gt;Node1</title>
<path fill="none" stroke="midnightblue" d="M322.32,-45C330.928,-45 339.489,-45 347.683,-45"/>
<polygon fill="midnightblue" stroke="midnightblue" points="322.212,-41.5001 312.212,-45 322.212,-48.5001 322.212,-41.5001"/>
</g>
<!-- Node3 -->
<g id="node3" class="node"><title>Node3</title>
<g id="a_node3"><a xlink:href="class_om_1_1_source_1_1_source.html" target="_top" xlink:title="Om::Source::Source\l\&lt; Element const &#160;\&gt;">
<polygon fill="none" stroke="black" points="0.70459,-57 0.70459,-85 107.295,-85 107.295,-57 0.70459,-57"/>
<text text-anchor="start" x="8.70459" y="-73" font-family="Helvetica,sans-Serif" font-size="10.00">Om::Source::Source</text>
<text text-anchor="middle" x="54" y="-63" font-family="Helvetica,sans-Serif" font-size="10.00">&lt; Element const &gt;</text>
</a>
</g>
</g>
<!-- Node3&#45;&gt;Node2 -->
<g id="edge2" class="edge"><title>Node3&#45;&gt;Node2</title>
<path fill="none" stroke="midnightblue" d="M117.689,-61.5237C126.162,-60.2429 134.962,-58.9127 143.724,-57.5883"/>
<polygon fill="midnightblue" stroke="midnightblue" points="116.905,-58.1025 107.54,-63.0579 117.951,-65.0238 116.905,-58.1025"/>
</g>
<!-- Node4 -->
<g id="node4" class="node"><title>Node4</title>
<polygon fill="none" stroke="#bfbfbf" points="2.9165,-0 2.9165,-38 105.083,-38 105.083,-0 2.9165,-0"/>
<text text-anchor="start" x="10.9165" y="-26" font-family="Helvetica,sans-Serif" font-size="10.00">std::iterator&lt; std</text>
<text text-anchor="start" x="10.9165" y="-16" font-family="Helvetica,sans-Serif" font-size="10.00">::input_iterator_tag,</text>
<text text-anchor="middle" x="54" y="-6" font-family="Helvetica,sans-Serif" font-size="10.00"> Element const &gt;</text>
</g>
<!-- Node4&#45;&gt;Node2 -->
<g id="edge3" class="edge"><title>Node4&#45;&gt;Node2</title>
<path fill="none" stroke="midnightblue" d="M115.368,-28.1254C124.547,-29.5129 134.155,-30.9653 143.718,-32.4109"/>
<polygon fill="midnightblue" stroke="midnightblue" points="115.623,-24.6242 105.212,-26.5902 114.576,-31.5456 115.623,-24.6242"/>
</g>
</g>
</svg>
