<?xml version="1.0" encoding="UTF-8" standalone="no"?>
<!DOCTYPE svg PUBLIC "-//W3C//DTD SVG 1.1//EN"
 "http://www.w3.org/Graphics/SVG/1.1/DTD/svg11.dtd">
<!-- Generated by graphviz version 2.36.0 (20140111.2315)
 -->
<!-- Title: Om::Program Pages: 1 -->
<svg width="395pt" height="140pt"
 viewBox="0.00 0.00 395.00 140.00" xmlns="http://www.w3.org/2000/svg" xmlns:xlink="http://www.w3.org/1999/xlink">
<g id="graph0" class="graph" transform="scale(1 1) rotate(0) translate(4 136)">
<title>Om::Program</title>
<!-- Node1 -->
<g id="node1" class="node"><title>Node1</title>
<polygon fill="#bfbfbf" stroke="black" points="148.995,-1 148.995,-19 225.005,-19 225.005,-1 148.995,-1"/>
<text text-anchor="middle" x="187" y="-7" font-family="Helvetica,sans-Serif" font-size="10.00">Om::Program</text>
</g>
<!-- Node2 -->
<g id="node2" class="node"><title>Node2</title>
<g id="a_node2"><a xlink:href="class_om_1_1_consumer.html" target="_top" xlink:title="An Element taker; takes at the back. ">
<polygon fill="none" stroke="black" points="-0.896484,-57 -0.896484,-75 82.8965,-75 82.8965,-57 -0.896484,-57"/>
<text text-anchor="middle" x="41" y="-63" font-family="Helvetica,sans-Serif" font-size="10.00">Om::Consumer</text>
</a>
</g>
</g>
<!-- Node2&#45;&gt;Node1 -->
<g id="edge1" class="edge"><title>Node2&#45;&gt;Node1</title>
<path fill="none" stroke="midnightblue" d="M72.5376,-53.3354C100.434,-43.0175 140.417,-28.2294 164.993,-19.1396"/>
<polygon fill="midnightblue" stroke="midnightblue" points="71.0226,-50.164 62.8577,-56.9157 73.4509,-56.7293 71.0226,-50.164"/>
</g>
<!-- Node3 -->
<g id="node3" class="node"><title>Node3</title>
<g id="a_node3"><a xlink:href="class_om_1_1_giveable.html" target="_top" xlink:title="An object that can be copied or moved via Give. ">
<polygon fill="none" stroke="black" points="100.434,-57 100.434,-75 177.566,-75 177.566,-57 100.434,-57"/>
<text text-anchor="middle" x="139" y="-63" font-family="Helvetica,sans-Serif" font-size="10.00">Om::Giveable</text>
</a>
</g>
</g>
<!-- Node3&#45;&gt;Node1 -->
<g id="edge2" class="edge"><title>Node3&#45;&gt;Node1</title>
<path fill="none" stroke="midnightblue" d="M153.199,-49.0265C161.909,-39.2278 172.698,-27.0897 179.71,-19.2014"/>
<polygon fill="midnightblue" stroke="midnightblue" points="150.528,-46.7631 146.5,-56.5625 155.76,-51.4137 150.528,-46.7631"/>
</g>
<!-- Node4 -->
<g id="node4" class="node"><title>Node4</title>
<g id="a_node4"><a xlink:href="class_om_1_1_copyable.html" target="_top" xlink:title="An object that can be passed to Copy to be copied. ">
<polygon fill="none" stroke="black" points="50.042,-113 50.042,-131 129.958,-131 129.958,-113 50.042,-113"/>
<text text-anchor="middle" x="90" y="-119" font-family="Helvetica,sans-Serif" font-size="10.00">Om::Copyable</text>
</a>
</g>
</g>
<!-- Node4&#45;&gt;Node3 -->
<g id="edge3" class="edge"><title>Node4&#45;&gt;Node3</title>
<path fill="none" stroke="midnightblue" d="M104.494,-105.027C113.386,-95.2278 124.4,-83.0897 131.558,-75.2014"/>
<polygon fill="midnightblue" stroke="midnightblue" points="101.784,-102.805 97.6562,-112.562 106.968,-107.509 101.784,-102.805"/>
</g>
<!-- Node5 -->
<g id="node5" class="node"><title>Node5</title>
<g id="a_node5"><a xlink:href="class_om_1_1_moveable.html" target="_top" xlink:title="An object that can be passed to Move to be moved. ">
<polygon fill="none" stroke="black" points="147.488,-113 147.488,-131 228.512,-131 228.512,-113 147.488,-113"/>
<text text-anchor="middle" x="188" y="-119" font-family="Helvetica,sans-Serif" font-size="10.00">Om::Moveable</text>
</a>
</g>
</g>
<!-- Node5&#45;&gt;Node3 -->
<g id="edge4" class="edge"><title>Node5&#45;&gt;Node3</title>
<path fill="none" stroke="midnightblue" d="M173.506,-105.027C164.614,-95.2278 153.6,-83.0897 146.442,-75.2014"/>
<polygon fill="midnightblue" stroke="midnightblue" points="171.032,-107.509 180.344,-112.562 176.216,-102.805 171.032,-107.509"/>
</g>
<!-- Node6 -->
<g id="node6" class="node"><title>Node6</title>
<g id="a_node6"><a xlink:href="class_om_1_1_producer.html" target="_top" xlink:title="An Element giver; gives from the front. ">
<polygon fill="none" stroke="black" points="195.879,-57 195.879,-75 274.121,-75 274.121,-57 195.879,-57"/>
<text text-anchor="middle" x="235" y="-63" font-family="Helvetica,sans-Serif" font-size="10.00">Om::Producer</text>
</a>
</g>
</g>
<!-- Node6&#45;&gt;Node1 -->
<g id="edge5" class="edge"><title>Node6&#45;&gt;Node1</title>
<path fill="none" stroke="midnightblue" d="M220.801,-49.0265C212.091,-39.2278 201.302,-27.0897 194.29,-19.2014"/>
<polygon fill="midnightblue" stroke="midnightblue" points="218.24,-51.4137 227.5,-56.5625 223.472,-46.7631 218.24,-51.4137"/>
</g>
<!-- Node7 -->
<g id="node7" class="node"><title>Node7</title>
<g id="a_node7"><a xlink:href="class_om_1_1_shareable.html" target="_top" xlink:title="Om::Shareable\&lt;\&gt;">
<polygon fill="none" stroke="black" points="292.532,-57 292.532,-75 387.468,-75 387.468,-57 292.532,-57"/>
<text text-anchor="middle" x="340" y="-63" font-family="Helvetica,sans-Serif" font-size="10.00">Om::Shareable&lt;&gt;</text>
</a>
</g>
</g>
<!-- Node7&#45;&gt;Node1 -->
<g id="edge6" class="edge"><title>Node7&#45;&gt;Node1</title>
<path fill="none" stroke="midnightblue" d="M307.334,-53.4709C278.084,-43.1473 235.93,-28.2693 210.062,-19.1396"/>
<polygon fill="midnightblue" stroke="midnightblue" points="306.5,-56.8879 317.094,-56.9157 308.829,-50.2869 306.5,-56.8879"/>
</g>
</g>
</svg>
