<?xml version="1.0" encoding="UTF-8" standalone="no"?>
<!DOCTYPE svg PUBLIC "-//W3C//DTD SVG 1.1//EN"
 "http://www.w3.org/Graphics/SVG/1.1/DTD/svg11.dtd">
<!-- Generated by graphviz version 2.30.1 (20130221.2233)
 -->
<!-- Title: Om::Expression Pages: 1 -->
<svg width="1316pt" height="137pt"
 viewBox="0.00 0.00 1316.00 137.00" xmlns="http://www.w3.org/2000/svg" xmlns:xlink="http://www.w3.org/1999/xlink">
<g id="graph0" class="graph" transform="scale(1 1) rotate(0) translate(4 133)">
<title>Om::Expression</title>
<!-- Node1 -->
<g id="node1" class="node"><title>Node1</title>
<polygon fill="#bfbfbf" stroke="black" points="1220.43,-25 1220.43,-45 1307.57,-45 1307.57,-25 1220.43,-25"/>
<text text-anchor="middle" x="1264" y="-31" font-family="Helvetica,sans-Serif" font-size="10.00">Om::Expression</text>
</g>
<!-- Node2 -->
<g id="node2" class="node"><title>Node2</title>
<g id="a_node2"><a xlink:href="class_om_1_1_default_program.html" target="_top" xlink:title="Om::DefaultProgram\l\&lt; Expression \&gt;">
<polygon fill="none" stroke="black" points="1076.15,-19 1076.15,-51 1183.85,-51 1183.85,-19 1076.15,-19"/>
<text text-anchor="start" x="1084.15" y="-37" font-family="Helvetica,sans-Serif" font-size="10.00">Om::DefaultProgram</text>
<text text-anchor="middle" x="1130" y="-25" font-family="Helvetica,sans-Serif" font-size="10.00">&lt; Expression &gt;</text>
</a>
</g>
</g>
<!-- Node2&#45;&gt;Node1 -->
<g id="edge1" class="edge"><title>Node2&#45;&gt;Node1</title>
<path fill="none" stroke="midnightblue" d="M1194.2,-35C1203.01,-35 1211.89,-35 1220.2,-35"/>
<polygon fill="midnightblue" stroke="midnightblue" points="1193.93,-31.5001 1183.93,-35 1193.93,-38.5001 1193.93,-31.5001"/>
</g>
<!-- Node3 -->
<g id="node3" class="node"><title>Node3</title>
<g id="a_node3"><a xlink:href="class_om_1_1_default_queue.html" target="_top" xlink:title="Om::DefaultQueue\&lt; Expression,\l DefaultGiveable\&lt; Expression,\l Program \&gt; \&gt;">
<polygon fill="none" stroke="black" points="879.881,-39 879.881,-83 1040.12,-83 1040.12,-39 879.881,-39"/>
<text text-anchor="start" x="887.881" y="-69" font-family="Helvetica,sans-Serif" font-size="10.00">Om::DefaultQueue&lt; Expression,</text>
<text text-anchor="start" x="887.881" y="-57" font-family="Helvetica,sans-Serif" font-size="10.00"> DefaultGiveable&lt; Expression,</text>
<text text-anchor="middle" x="960" y="-45" font-family="Helvetica,sans-Serif" font-size="10.00"> Program &gt; &gt;</text>
</a>
</g>
</g>
<!-- Node3&#45;&gt;Node2 -->
<g id="edge2" class="edge"><title>Node3&#45;&gt;Node2</title>
<path fill="none" stroke="midnightblue" d="M1050.46,-47.1553C1059.2,-45.802 1067.87,-44.4609 1076.07,-43.1912"/>
<polygon fill="midnightblue" stroke="midnightblue" points="1049.92,-43.6969 1040.57,-48.6853 1050.99,-50.6146 1049.92,-43.6969"/>
</g>
<!-- Node4 -->
<g id="node4" class="node"><title>Node4</title>
<g id="a_node4"><a xlink:href="class_om_1_1_default_giveable.html" target="_top" xlink:title="Om::DefaultGiveable\l\&lt; Expression, Program \&gt;">
<polygon fill="none" stroke="black" points="716.697,-45 716.697,-77 843.303,-77 843.303,-45 716.697,-45"/>
<text text-anchor="start" x="724.697" y="-63" font-family="Helvetica,sans-Serif" font-size="10.00">Om::DefaultGiveable</text>
<text text-anchor="middle" x="780" y="-51" font-family="Helvetica,sans-Serif" font-size="10.00">&lt; Expression, Program &gt;</text>
</a>
</g>
</g>
<!-- Node4&#45;&gt;Node3 -->
<g id="edge3" class="edge"><title>Node4&#45;&gt;Node3</title>
<path fill="none" stroke="midnightblue" d="M853.534,-61C862.179,-61 871.038,-61 879.77,-61"/>
<polygon fill="midnightblue" stroke="midnightblue" points="853.506,-57.5001 843.506,-61 853.506,-64.5001 853.506,-57.5001"/>
</g>
<!-- Node5 -->
<g id="node5" class="node"><title>Node5</title>
<g id="a_node5"><a xlink:href="class_om_1_1_default_moveable.html" target="_top" xlink:title="Om::DefaultMoveable\l\&lt; Expression, DefaultCopyable\l\&lt; Expression, Program \&gt; \&gt;">
<polygon fill="none" stroke="black" points="526.211,-39 526.211,-83 679.789,-83 679.789,-39 526.211,-39"/>
<text text-anchor="start" x="534.211" y="-69" font-family="Helvetica,sans-Serif" font-size="10.00">Om::DefaultMoveable</text>
<text text-anchor="start" x="534.211" y="-57" font-family="Helvetica,sans-Serif" font-size="10.00">&lt; Expression, DefaultCopyable</text>
<text text-anchor="middle" x="603" y="-45" font-family="Helvetica,sans-Serif" font-size="10.00">&lt; Expression, Program &gt; &gt;</text>
</a>
</g>
</g>
<!-- Node5&#45;&gt;Node4 -->
<g id="edge4" class="edge"><title>Node5&#45;&gt;Node4</title>
<path fill="none" stroke="midnightblue" d="M690.03,-61C698.944,-61 707.879,-61 716.464,-61"/>
<polygon fill="midnightblue" stroke="midnightblue" points="689.994,-57.5001 679.994,-61 689.994,-64.5001 689.994,-57.5001"/>
</g>
<!-- Node6 -->
<g id="node6" class="node"><title>Node6</title>
<g id="a_node6"><a xlink:href="class_om_1_1_default_copyable.html" target="_top" xlink:title="Om::DefaultCopyable\l\&lt; Expression, Program \&gt;">
<polygon fill="none" stroke="black" points="362.697,-45 362.697,-77 489.303,-77 489.303,-45 362.697,-45"/>
<text text-anchor="start" x="370.697" y="-63" font-family="Helvetica,sans-Serif" font-size="10.00">Om::DefaultCopyable</text>
<text text-anchor="middle" x="426" y="-51" font-family="Helvetica,sans-Serif" font-size="10.00">&lt; Expression, Program &gt;</text>
</a>
</g>
</g>
<!-- Node6&#45;&gt;Node5 -->
<g id="edge5" class="edge"><title>Node6&#45;&gt;Node5</title>
<path fill="none" stroke="midnightblue" d="M499.749,-61C508.417,-61 517.285,-61 525.998,-61"/>
<polygon fill="midnightblue" stroke="midnightblue" points="499.685,-57.5001 489.685,-61 499.685,-64.5001 499.685,-57.5001"/>
</g>
<!-- Node7 -->
<g id="node7" class="node"><title>Node7</title>
<g id="a_node7"><a xlink:href="class_om_1_1_program.html" target="_top" xlink:title="The Program implementation.">
<polygon fill="none" stroke="black" points="249.995,-51 249.995,-71 326.005,-71 326.005,-51 249.995,-51"/>
<text text-anchor="middle" x="288" y="-57" font-family="Helvetica,sans-Serif" font-size="10.00">Om::Program</text>
</a>
</g>
</g>
<!-- Node7&#45;&gt;Node6 -->
<g id="edge6" class="edge"><title>Node7&#45;&gt;Node6</title>
<path fill="none" stroke="midnightblue" d="M336.233,-61C344.716,-61 353.676,-61 362.51,-61"/>
<polygon fill="midnightblue" stroke="midnightblue" points="336.163,-57.5001 326.163,-61 336.163,-64.5001 336.163,-57.5001"/>
</g>
<!-- Node8 -->
<g id="node8" class="node"><title>Node8</title>
<g id="a_node8"><a xlink:href="class_om_1_1_giveable.html" target="_top" xlink:title="An object that can be copied or moved via Give.">
<polygon fill="none" stroke="black" points="127.434,-90 127.434,-110 204.566,-110 204.566,-90 127.434,-90"/>
<text text-anchor="middle" x="166" y="-96" font-family="Helvetica,sans-Serif" font-size="10.00">Om::Giveable</text>
</a>
</g>
</g>
<!-- Node8&#45;&gt;Node7 -->
<g id="edge7" class="edge"><title>Node8&#45;&gt;Node7</title>
<path fill="none" stroke="midnightblue" d="M207.499,-86.8377C223.413,-81.6659 241.379,-75.8267 256.202,-71.0094"/>
<polygon fill="midnightblue" stroke="midnightblue" points="206.332,-83.537 197.903,-89.9565 208.495,-90.1942 206.332,-83.537"/>
</g>
<!-- Node9 -->
<g id="node9" class="node"><title>Node9</title>
<g id="a_node9"><a xlink:href="class_om_1_1_copyable.html" target="_top" xlink:title="An object that can be passed to Copy to be copied.">
<polygon fill="none" stroke="black" points="1.04199,-109 1.04199,-129 80.958,-129 80.958,-109 1.04199,-109"/>
<text text-anchor="middle" x="41" y="-115" font-family="Helvetica,sans-Serif" font-size="10.00">Om::Copyable</text>
</a>
</g>
</g>
<!-- Node9&#45;&gt;Node8 -->
<g id="edge8" class="edge"><title>Node9&#45;&gt;Node8</title>
<path fill="none" stroke="midnightblue" d="M91.186,-111.402C103.243,-109.54 115.958,-107.576 127.374,-105.812"/>
<polygon fill="midnightblue" stroke="midnightblue" points="90.6046,-107.95 81.2561,-112.936 91.6733,-114.868 90.6046,-107.95"/>
</g>
<!-- Node10 -->
<g id="node10" class="node"><title>Node10</title>
<g id="a_node10"><a xlink:href="class_om_1_1_moveable.html" target="_top" xlink:title="An object that can be passed to Move to be moved.">
<polygon fill="none" stroke="black" points="0.487793,-70 0.487793,-90 81.5122,-90 81.5122,-70 0.487793,-70"/>
<text text-anchor="middle" x="41" y="-76" font-family="Helvetica,sans-Serif" font-size="10.00">Om::Moveable</text>
</a>
</g>
</g>
<!-- Node10&#45;&gt;Node8 -->
<g id="edge9" class="edge"><title>Node10&#45;&gt;Node8</title>
<path fill="none" stroke="midnightblue" d="M91.7696,-88.0926C103.575,-90.0123 115.98,-92.0293 127.155,-93.8464"/>
<polygon fill="midnightblue" stroke="midnightblue" points="92.0271,-84.5886 81.595,-86.4382 90.9036,-91.4979 92.0271,-84.5886"/>
</g>
<!-- Node11 -->
<g id="node11" class="node"><title>Node11</title>
<g id="a_node11"><a xlink:href="class_om_1_1_queue.html" target="_top" xlink:title="A first&#45;in, first&#45;out Element processor.">
<polygon fill="none" stroke="black" points="132.155,-51 132.155,-71 199.845,-71 199.845,-51 132.155,-51"/>
<text text-anchor="middle" x="166" y="-57" font-family="Helvetica,sans-Serif" font-size="10.00">Om::Queue</text>
</a>
</g>
</g>
<!-- Node11&#45;&gt;Node7 -->
<g id="edge10" class="edge"><title>Node11&#45;&gt;Node7</title>
<path fill="none" stroke="midnightblue" d="M210.201,-61C223.153,-61 237.241,-61 249.772,-61"/>
<polygon fill="midnightblue" stroke="midnightblue" points="210.108,-57.5001 200.108,-61 210.108,-64.5001 210.108,-57.5001"/>
</g>
<!-- Node12 -->
<g id="node12" class="node"><title>Node12</title>
<g id="a_node12"><a xlink:href="class_om_1_1_shareable.html" target="_top" xlink:title="Om::Shareable\&lt;\&gt;">
<polygon fill="none" stroke="black" points="118.532,-12 118.532,-32 213.468,-32 213.468,-12 118.532,-12"/>
<text text-anchor="middle" x="166" y="-18" font-family="Helvetica,sans-Serif" font-size="10.00">Om::Shareable&lt;&gt;</text>
</a>
</g>
</g>
<!-- Node12&#45;&gt;Node7 -->
<g id="edge11" class="edge"><title>Node12&#45;&gt;Node7</title>
<path fill="none" stroke="midnightblue" d="M207.499,-35.1623C223.413,-40.3341 241.379,-46.1733 256.202,-50.9906"/>
<polygon fill="midnightblue" stroke="midnightblue" points="208.495,-31.8058 197.903,-32.0435 206.332,-38.463 208.495,-31.8058"/>
</g>
<!-- Node13 -->
<g id="node13" class="node"><title>Node13</title>
<g id="a_node13"><a xlink:href="class_om_1_1_taker.html" target="_top" xlink:title="Om::Taker\&lt; Expression \&gt;">
<polygon fill="none" stroke="black" points="895.589,-0 895.589,-20 1024.41,-20 1024.41,-0 895.589,-0"/>
<text text-anchor="middle" x="960" y="-6" font-family="Helvetica,sans-Serif" font-size="10.00">Om::Taker&lt; Expression &gt;</text>
</a>
</g>
</g>
<!-- Node13&#45;&gt;Node2 -->
<g id="edge12" class="edge"><title>Node13&#45;&gt;Node2</title>
<path fill="none" stroke="midnightblue" d="M1034.59,-20.951C1048.56,-23.0292 1062.91,-25.1653 1076.08,-27.125"/>
<polygon fill="midnightblue" stroke="midnightblue" points="1034.92,-17.4615 1024.51,-19.4514 1033.89,-24.3853 1034.92,-17.4615"/>
</g>
</g>
</svg>
