<?xml version="1.0" encoding="UTF-8" standalone="no"?>
<!DOCTYPE svg PUBLIC "-//W3C//DTD SVG 1.1//EN"
 "http://www.w3.org/Graphics/SVG/1.1/DTD/svg11.dtd">
<!-- Generated by graphviz version 2.30.1 (20130221.2233)
 -->
<!-- Title: Om::Operations::EvaluateOperation Pages: 1 -->
<svg width="138pt" height="170pt"
 viewBox="0.00 0.00 138.00 170.00" xmlns="http://www.w3.org/2000/svg" xmlns:xlink="http://www.w3.org/1999/xlink">
<g id="graph0" class="graph" transform="scale(1 1) rotate(0) translate(4 166)">
<title>Om::Operations::EvaluateOperation</title>
<!-- Node1 -->
<g id="node1" class="node"><title>Node1</title>
<polygon fill="#bfbfbf" stroke="black" points="-0.526855,-1 -0.526855,-33 130.527,-33 130.527,-1 -0.526855,-1"/>
<text text-anchor="start" x="7.47314" y="-19" font-family="Helvetica,sans-Serif" font-size="10.00">Om::Operations::Evaluate</text>
<text text-anchor="middle" x="65" y="-7" font-family="Helvetica,sans-Serif" font-size="10.00">Operation</text>
</g>
<!-- Node2 -->
<g id="node2" class="node"><title>Node2</title>
<g id="a_node2"><a xlink:href="class_om_1_1_default_operation.html" target="_top" xlink:title="Om::DefaultOperation\l\&lt; EvaluateOperation \&gt;">
<polygon fill="none" stroke="black" points="6.96582,-71 6.96582,-103 123.034,-103 123.034,-71 6.96582,-71"/>
<text text-anchor="start" x="14.9658" y="-89" font-family="Helvetica,sans-Serif" font-size="10.00">Om::DefaultOperation</text>
<text text-anchor="middle" x="65" y="-77" font-family="Helvetica,sans-Serif" font-size="10.00">&lt; EvaluateOperation &gt;</text>
</a>
</g>
</g>
<!-- Node2&#45;&gt;Node1 -->
<g id="edge1" class="edge"><title>Node2&#45;&gt;Node1</title>
<path fill="none" stroke="midnightblue" d="M65,-60.6174C65,-51.3378 65,-41.1413 65,-33.0492"/>
<polygon fill="midnightblue" stroke="midnightblue" points="61.5001,-60.9086 65,-70.9086 68.5001,-60.9086 61.5001,-60.9086"/>
</g>
<!-- Node3 -->
<g id="node3" class="node"><title>Node3</title>
<g id="a_node3"><a xlink:href="class_om_1_1_operation.html" target="_top" xlink:title="An Operation that has yet to consume one or more Operands, and therefore must live in memory while &quot;i...">
<polygon fill="none" stroke="black" points="24.2095,-141 24.2095,-161 105.791,-161 105.791,-141 24.2095,-141"/>
<text text-anchor="middle" x="65" y="-147" font-family="Helvetica,sans-Serif" font-size="10.00">Om::Operation</text>
</a>
</g>
</g>
<!-- Node3&#45;&gt;Node2 -->
<g id="edge2" class="edge"><title>Node3&#45;&gt;Node2</title>
<path fill="none" stroke="midnightblue" d="M65,-130.775C65,-121.986 65,-111.715 65,-103.44"/>
<polygon fill="midnightblue" stroke="midnightblue" points="61.5001,-130.852 65,-140.852 68.5001,-130.852 61.5001,-130.852"/>
</g>
</g>
</svg>
