<?xml version="1.0" encoding="UTF-8" standalone="no"?>
<!DOCTYPE svg PUBLIC "-//W3C//DTD SVG 1.1//EN"
 "http://www.w3.org/Graphics/SVG/1.1/DTD/svg11.dtd">
<!-- Generated by graphviz version 2.36.0 (20140111.2315)
 -->
<!-- Title: Om::Operation::DequoteOperation Pages: 1 -->
<svg width="176pt" height="160pt"
 viewBox="0.00 0.00 176.00 160.00" xmlns="http://www.w3.org/2000/svg" xmlns:xlink="http://www.w3.org/1999/xlink">
<g id="graph0" class="graph" transform="scale(1 1) rotate(0) translate(4 156)">
<title>Om::Operation::DequoteOperation</title>
<!-- Node1 -->
<g id="node1" class="node"><title>Node1</title>
<polygon fill="#bfbfbf" stroke="black" points="-0.430664,-1 -0.430664,-19 168.431,-19 168.431,-1 -0.430664,-1"/>
<text text-anchor="middle" x="84" y="-7" font-family="Helvetica,sans-Serif" font-size="10.00">Om::Operation::DequoteOperation</text>
</g>
<!-- Node2 -->
<g id="node2" class="node"><title>Node2</title>
<g id="a_node2"><a xlink:href="class_om_1_1_operation_1_1_default_incomplete_operation.html" target="_top" xlink:title="Om::Operation::DefaultIncomplete\lOperation\&lt; DequoteOperation \&gt;">
<polygon fill="none" stroke="black" points="0.130859,-57 0.130859,-85 167.869,-85 167.869,-57 0.130859,-57"/>
<text text-anchor="start" x="8.13086" y="-73" font-family="Helvetica,sans-Serif" font-size="10.00">Om::Operation::DefaultIncomplete</text>
<text text-anchor="middle" x="84" y="-63" font-family="Helvetica,sans-Serif" font-size="10.00">Operation&lt; DequoteOperation &gt;</text>
</a>
</g>
</g>
<!-- Node2&#45;&gt;Node1 -->
<g id="edge1" class="edge"><title>Node2&#45;&gt;Node1</title>
<path fill="none" stroke="midnightblue" d="M84,-46.8856C84,-37.0939 84,-26.3163 84,-19.1534"/>
<polygon fill="midnightblue" stroke="midnightblue" points="80.5001,-46.906 84,-56.906 87.5001,-46.906 80.5001,-46.906"/>
</g>
<!-- Node3 -->
<g id="node3" class="node"><title>Node3</title>
<g id="a_node3"><a xlink:href="class_om_1_1_operation_1_1_incomplete_operation.html" target="_top" xlink:title="An Operation that has yet to consume one or more Operands and must live in memory until complete...">
<polygon fill="none" stroke="black" points="15.9731,-123 15.9731,-151 152.027,-151 152.027,-123 15.9731,-123"/>
<text text-anchor="start" x="23.9731" y="-139" font-family="Helvetica,sans-Serif" font-size="10.00">Om::Operation::Incomplete</text>
<text text-anchor="middle" x="84" y="-129" font-family="Helvetica,sans-Serif" font-size="10.00">Operation</text>
</a>
</g>
</g>
<!-- Node3&#45;&gt;Node2 -->
<g id="edge2" class="edge"><title>Node3&#45;&gt;Node2</title>
<path fill="none" stroke="midnightblue" d="M84,-112.595C84,-103.379 84,-93.1352 84,-85.2439"/>
<polygon fill="midnightblue" stroke="midnightblue" points="80.5001,-112.739 84,-122.739 87.5001,-112.739 80.5001,-112.739"/>
</g>
</g>
</svg>
