<?xml version="1.0" encoding="UTF-8" standalone="no"?>
<!DOCTYPE svg PUBLIC "-//W3C//DTD SVG 1.1//EN"
 "http://www.w3.org/Graphics/SVG/1.1/DTD/svg11.dtd">
<!-- Generated by graphviz version 2.36.0 (20140111.2315)
 -->
<!-- Title: Om::Language::Operator Pages: 1 -->
<svg width="599pt" height="872pt"
 viewBox="0.00 0.00 599.00 872.00" xmlns="http://www.w3.org/2000/svg" xmlns:xlink="http://www.w3.org/1999/xlink">
<g id="graph0" class="graph" transform="scale(1 1) rotate(0) translate(4 868)">
<title>Om::Language::Operator</title>
<!-- Node1 -->
<g id="node1" class="node"><title>Node1</title>
<g id="a_node1"><a xlink:title="The Operator implementation.">
<polygon fill="#bfbfbf" stroke="black" points="422.412,-1 422.412,-19 549.588,-19 549.588,-1 422.412,-1"/>
<text text-anchor="middle" x="486" y="-7" font-family="Helvetica,sans-Serif" font-size="10.00">Om::Language::Operator</text>
</a>
</g>
</g>
<!-- Node2 -->
<g id="node2" class="node"><title>Node2</title>
<g id="a_node2"><a xlink:href="class_om_1_1_language_1_1_default_atom.html" target="_top" xlink:title=" ">
<polygon fill="none" stroke="black" points="414.631,-59 414.631,-87 557.369,-87 557.369,-59 414.631,-59"/>
<text text-anchor="start" x="422.631" y="-75" font-family="Helvetica,sans-Serif" font-size="10.00">Om::Language::DefaultAtom</text>
<text text-anchor="middle" x="486" y="-65" font-family="Helvetica,sans-Serif" font-size="10.00">&lt; Operator &gt;</text>
</a>
</g>
</g>
<!-- Node2&#45;&gt;Node1 -->
<g id="edge1" class="edge"><title>Node2&#45;&gt;Node1</title>
<path fill="none" stroke="midnightblue" d="M486,-48.5882C486,-38.2132 486,-26.6798 486,-19.1595"/>
<polygon fill="midnightblue" stroke="midnightblue" points="482.5,-48.7639 486,-58.7639 489.5,-48.7639 482.5,-48.7639"/>
</g>
<!-- Node3 -->
<g id="node3" class="node"><title>Node3</title>
<g id="a_node3"><a xlink:href="class_om_1_1_language_1_1_default_element.html" target="_top" xlink:title=" ">
<polygon fill="none" stroke="black" points="327.958,-135 327.958,-173 484.042,-173 484.042,-135 327.958,-135"/>
<text text-anchor="start" x="335.958" y="-161" font-family="Helvetica,sans-Serif" font-size="10.00">Om::Language::DefaultElement</text>
<text text-anchor="start" x="335.958" y="-151" font-family="Helvetica,sans-Serif" font-size="10.00">&lt; Operator, Om::Language</text>
<text text-anchor="middle" x="406" y="-141" font-family="Helvetica,sans-Serif" font-size="10.00">::Atom &gt;</text>
</a>
</g>
</g>
<!-- Node3&#45;&gt;Node2 -->
<g id="edge2" class="edge"><title>Node3&#45;&gt;Node2</title>
<path fill="none" stroke="midnightblue" d="M431.836,-127.487C445.497,-113.996 461.69,-98.006 472.79,-87.0452"/>
<polygon fill="midnightblue" stroke="midnightblue" points="429.211,-125.16 424.555,-134.677 434.129,-130.141 429.211,-125.16"/>
</g>
<!-- Node4 -->
<g id="node4" class="node"><title>Node4</title>
<g id="a_node4"><a xlink:href="class_om_1_1_language_1_1_default_program.html" target="_top" xlink:title=" ">
<polygon fill="none" stroke="black" points="320.128,-213 320.128,-251 477.872,-251 477.872,-213 320.128,-213"/>
<text text-anchor="start" x="328.128" y="-239" font-family="Helvetica,sans-Serif" font-size="10.00">Om::Language::DefaultProgram</text>
<text text-anchor="start" x="328.128" y="-229" font-family="Helvetica,sans-Serif" font-size="10.00">&lt; Operator, Om::Language</text>
<text text-anchor="middle" x="399" y="-219" font-family="Helvetica,sans-Serif" font-size="10.00">::Atom &gt;</text>
</a>
</g>
</g>
<!-- Node4&#45;&gt;Node3 -->
<g id="edge3" class="edge"><title>Node4&#45;&gt;Node3</title>
<path fill="none" stroke="midnightblue" d="M401.602,-202.754C402.514,-192.85 403.513,-181.998 404.329,-173.145"/>
<polygon fill="midnightblue" stroke="midnightblue" points="398.091,-202.71 400.659,-212.989 405.061,-203.352 398.091,-202.71"/>
</g>
<!-- Node5 -->
<g id="node5" class="node"><title>Node5</title>
<g id="a_node5"><a xlink:href="class_om_1_1_language_1_1_default_consumer.html" target="_top" xlink:title=" ">
<polygon fill="none" stroke="black" points="182.31,-291 182.31,-329 363.69,-329 363.69,-291 182.31,-291"/>
<text text-anchor="start" x="190.31" y="-317" font-family="Helvetica,sans-Serif" font-size="10.00">Om::Language::DefaultConsumer</text>
<text text-anchor="start" x="190.31" y="-307" font-family="Helvetica,sans-Serif" font-size="10.00">&lt; Operator, DefaultGiveable</text>
<text text-anchor="middle" x="273" y="-297" font-family="Helvetica,sans-Serif" font-size="10.00">&lt; Operator, Om::Language::Atom &gt; &gt;</text>
</a>
</g>
</g>
<!-- Node5&#45;&gt;Node4 -->
<g id="edge4" class="edge"><title>Node5&#45;&gt;Node4</title>
<path fill="none" stroke="midnightblue" d="M311.605,-285.714C330.028,-274.602 351.742,-261.505 368.917,-251.145"/>
<polygon fill="midnightblue" stroke="midnightblue" points="309.615,-282.827 302.86,-290.989 313.231,-288.821 309.615,-282.827"/>
</g>
<!-- Node6 -->
<g id="node6" class="node"><title>Node6</title>
<g id="a_node6"><a xlink:href="class_om_1_1_default_giveable.html" target="_top" xlink:title=" ">
<polygon fill="none" stroke="black" points="205.376,-369 205.376,-407 340.624,-407 340.624,-369 205.376,-369"/>
<text text-anchor="start" x="213.376" y="-395" font-family="Helvetica,sans-Serif" font-size="10.00">Om::DefaultGiveable</text>
<text text-anchor="start" x="213.376" y="-385" font-family="Helvetica,sans-Serif" font-size="10.00">&lt; Operator, Om::Language</text>
<text text-anchor="middle" x="273" y="-375" font-family="Helvetica,sans-Serif" font-size="10.00">::Atom &gt;</text>
</a>
</g>
</g>
<!-- Node6&#45;&gt;Node5 -->
<g id="edge5" class="edge"><title>Node6&#45;&gt;Node5</title>
<path fill="none" stroke="midnightblue" d="M273,-358.754C273,-348.85 273,-337.998 273,-329.145"/>
<polygon fill="midnightblue" stroke="midnightblue" points="269.5,-358.989 273,-368.989 276.5,-358.989 269.5,-358.989"/>
</g>
<!-- Node7 -->
<g id="node7" class="node"><title>Node7</title>
<g id="a_node7"><a xlink:href="class_om_1_1_default_moveable.html" target="_top" xlink:title=" ">
<polygon fill="none" stroke="black" points="201.487,-447 201.487,-495 344.513,-495 344.513,-447 201.487,-447"/>
<text text-anchor="start" x="209.487" y="-483" font-family="Helvetica,sans-Serif" font-size="10.00">Om::DefaultMoveable</text>
<text text-anchor="start" x="209.487" y="-473" font-family="Helvetica,sans-Serif" font-size="10.00">&lt; Operator, DefaultCopyable</text>
<text text-anchor="start" x="209.487" y="-463" font-family="Helvetica,sans-Serif" font-size="10.00">&lt; Operator, Om::Language</text>
<text text-anchor="middle" x="273" y="-453" font-family="Helvetica,sans-Serif" font-size="10.00">::Atom &gt; &gt;</text>
</a>
</g>
</g>
<!-- Node7&#45;&gt;Node6 -->
<g id="edge6" class="edge"><title>Node7&#45;&gt;Node6</title>
<path fill="none" stroke="midnightblue" d="M273,-436.462C273,-426.455 273,-415.864 273,-407.232"/>
<polygon fill="midnightblue" stroke="midnightblue" points="269.5,-436.571 273,-446.571 276.5,-436.571 269.5,-436.571"/>
</g>
<!-- Node8 -->
<g id="node8" class="node"><title>Node8</title>
<g id="a_node8"><a xlink:href="class_om_1_1_default_copyable.html" target="_top" xlink:title=" ">
<polygon fill="none" stroke="black" points="205.376,-535 205.376,-573 340.624,-573 340.624,-535 205.376,-535"/>
<text text-anchor="start" x="213.376" y="-561" font-family="Helvetica,sans-Serif" font-size="10.00">Om::DefaultCopyable</text>
<text text-anchor="start" x="213.376" y="-551" font-family="Helvetica,sans-Serif" font-size="10.00">&lt; Operator, Om::Language</text>
<text text-anchor="middle" x="273" y="-541" font-family="Helvetica,sans-Serif" font-size="10.00">::Atom &gt;</text>
</a>
</g>
</g>
<!-- Node8&#45;&gt;Node7 -->
<g id="edge7" class="edge"><title>Node8&#45;&gt;Node7</title>
<path fill="none" stroke="midnightblue" d="M273,-524.382C273,-514.838 273,-504.328 273,-495.244"/>
<polygon fill="midnightblue" stroke="midnightblue" points="269.5,-524.62 273,-534.62 276.5,-524.62 269.5,-524.62"/>
</g>
<!-- Node9 -->
<g id="node9" class="node"><title>Node9</title>
<g id="a_node9"><a xlink:href="class_om_1_1_language_1_1_atom.html" target="_top" xlink:title="An atomic Element defined by a string.">
<polygon fill="none" stroke="black" points="217.473,-613 217.473,-631 328.527,-631 328.527,-613 217.473,-613"/>
<text text-anchor="middle" x="273" y="-619" font-family="Helvetica,sans-Serif" font-size="10.00">Om::Language::Atom</text>
</a>
</g>
</g>
<!-- Node9&#45;&gt;Node8 -->
<g id="edge8" class="edge"><title>Node9&#45;&gt;Node8</title>
<path fill="none" stroke="midnightblue" d="M273,-602.863C273,-593.609 273,-582.386 273,-573.133"/>
<polygon fill="midnightblue" stroke="midnightblue" points="269.5,-602.907 273,-612.907 276.5,-602.907 269.5,-602.907"/>
</g>
<!-- Node10 -->
<g id="node10" class="node"><title>Node10</title>
<g id="a_node10"><a xlink:href="class_om_1_1_language_1_1_element.html" target="_top" xlink:title="A Program that contains a single elemental item (or none, when IsEmpty() returns true).">
<polygon fill="none" stroke="black" points="210.801,-671 210.801,-689 335.199,-689 335.199,-671 210.801,-671"/>
<text text-anchor="middle" x="273" y="-677" font-family="Helvetica,sans-Serif" font-size="10.00">Om::Language::Element</text>
</a>
</g>
</g>
<!-- Node10&#45;&gt;Node9 -->
<g id="edge9" class="edge"><title>Node10&#45;&gt;Node9</title>
<path fill="none" stroke="midnightblue" d="M273,-660.646C273,-650.741 273,-639.001 273,-631.297"/>
<polygon fill="midnightblue" stroke="midnightblue" points="269.5,-660.737 273,-670.737 276.5,-660.737 269.5,-660.737"/>
</g>
<!-- Node11 -->
<g id="node11" class="node"><title>Node11</title>
<g id="a_node11"><a xlink:href="class_om_1_1_language_1_1_program.html" target="_top" xlink:title="The Program implementation.">
<polygon fill="none" stroke="black" points="209.971,-729 209.971,-747 336.029,-747 336.029,-729 209.971,-729"/>
<text text-anchor="middle" x="273" y="-735" font-family="Helvetica,sans-Serif" font-size="10.00">Om::Language::Program</text>
</a>
</g>
</g>
<!-- Node11&#45;&gt;Node10 -->
<g id="edge10" class="edge"><title>Node11&#45;&gt;Node10</title>
<path fill="none" stroke="midnightblue" d="M273,-718.646C273,-708.741 273,-697.001 273,-689.297"/>
<polygon fill="midnightblue" stroke="midnightblue" points="269.5,-718.737 273,-728.737 276.5,-718.737 269.5,-718.737"/>
</g>
<!-- Node12 -->
<g id="node12" class="node"><title>Node12</title>
<g id="a_node12"><a xlink:href="class_om_1_1_language_1_1_consumer.html" target="_top" xlink:title="An Element taker; takes at the back.">
<polygon fill="none" stroke="black" points="-0.920898,-787 -0.920898,-805 132.921,-805 132.921,-787 -0.920898,-787"/>
<text text-anchor="middle" x="66" y="-793" font-family="Helvetica,sans-Serif" font-size="10.00">Om::Language::Consumer</text>
</a>
</g>
</g>
<!-- Node12&#45;&gt;Node11 -->
<g id="edge11" class="edge"><title>Node12&#45;&gt;Node11</title>
<path fill="none" stroke="midnightblue" d="M105.397,-784.342C145.619,-773.461 207.146,-756.816 243.397,-747.009"/>
<polygon fill="midnightblue" stroke="midnightblue" points="104.397,-780.987 95.6581,-786.977 106.225,-787.744 104.397,-780.987"/>
</g>
<!-- Node13 -->
<g id="node13" class="node"><title>Node13</title>
<g id="a_node13"><a xlink:href="class_om_1_1_giveable.html" target="_top" xlink:title="An object that can be copied or moved via Give.">
<polygon fill="none" stroke="black" points="150.434,-787 150.434,-805 227.566,-805 227.566,-787 150.434,-787"/>
<text text-anchor="middle" x="189" y="-793" font-family="Helvetica,sans-Serif" font-size="10.00">Om::Giveable</text>
</a>
</g>
</g>
<!-- Node13&#45;&gt;Node11 -->
<g id="edge12" class="edge"><title>Node13&#45;&gt;Node11</title>
<path fill="none" stroke="midnightblue" d="M209.762,-781.159C225.875,-770.417 247.648,-755.901 260.987,-747.009"/>
<polygon fill="midnightblue" stroke="midnightblue" points="207.414,-778.517 201.035,-786.977 211.297,-784.342 207.414,-778.517"/>
</g>
<!-- Node14 -->
<g id="node14" class="node"><title>Node14</title>
<g id="a_node14"><a xlink:href="class_om_1_1_copyable.html" target="_top" xlink:title="An object that can be passed to Copy to be copied.">
<polygon fill="none" stroke="black" points="100.042,-845 100.042,-863 179.958,-863 179.958,-845 100.042,-845"/>
<text text-anchor="middle" x="140" y="-851" font-family="Helvetica,sans-Serif" font-size="10.00">Om::Copyable</text>
</a>
</g>
</g>
<!-- Node14&#45;&gt;Node13 -->
<g id="edge13" class="edge"><title>Node14&#45;&gt;Node13</title>
<path fill="none" stroke="midnightblue" d="M153.862,-837.158C162.933,-826.791 174.419,-813.664 181.74,-805.297"/>
<polygon fill="midnightblue" stroke="midnightblue" points="151.181,-834.906 147.23,-844.737 156.449,-839.516 151.181,-834.906"/>
</g>
<!-- Node15 -->
<g id="node15" class="node"><title>Node15</title>
<g id="a_node15"><a xlink:href="class_om_1_1_moveable.html" target="_top" xlink:title="An object that can be passed to Move to be moved.">
<polygon fill="none" stroke="black" points="197.488,-845 197.488,-863 278.512,-863 278.512,-845 197.488,-845"/>
<text text-anchor="middle" x="238" y="-851" font-family="Helvetica,sans-Serif" font-size="10.00">Om::Moveable</text>
</a>
</g>
</g>
<!-- Node15&#45;&gt;Node13 -->
<g id="edge14" class="edge"><title>Node15&#45;&gt;Node13</title>
<path fill="none" stroke="midnightblue" d="M224.138,-837.158C215.067,-826.791 203.581,-813.664 196.26,-805.297"/>
<polygon fill="midnightblue" stroke="midnightblue" points="221.551,-839.516 230.77,-844.737 226.819,-834.906 221.551,-839.516"/>
</g>
<!-- Node16 -->
<g id="node16" class="node"><title>Node16</title>
<g id="a_node16"><a xlink:href="class_om_1_1_language_1_1_producer.html" target="_top" xlink:title="An Element giver; gives from the front.">
<polygon fill="none" stroke="black" points="245.855,-787 245.855,-805 374.145,-805 374.145,-787 245.855,-787"/>
<text text-anchor="middle" x="310" y="-793" font-family="Helvetica,sans-Serif" font-size="10.00">Om::Language::Producer</text>
</a>
</g>
</g>
<!-- Node16&#45;&gt;Node11 -->
<g id="edge15" class="edge"><title>Node16&#45;&gt;Node11</title>
<path fill="none" stroke="midnightblue" d="M298.918,-778.227C292.171,-768.015 283.846,-755.416 278.482,-747.297"/>
<polygon fill="midnightblue" stroke="midnightblue" points="296.108,-780.323 304.541,-786.737 301.948,-776.464 296.108,-780.323"/>
</g>
<!-- Node17 -->
<g id="node17" class="node"><title>Node17</title>
<g id="a_node17"><a xlink:href="class_om_1_1_shareable.html" target="_top" xlink:title=" ">
<polygon fill="none" stroke="black" points="392.532,-787 392.532,-805 487.468,-805 487.468,-787 392.532,-787"/>
<text text-anchor="middle" x="440" y="-793" font-family="Helvetica,sans-Serif" font-size="10.00">Om::Shareable&lt;&gt;</text>
</a>
</g>
</g>
<!-- Node17&#45;&gt;Node11 -->
<g id="edge16" class="edge"><title>Node17&#45;&gt;Node11</title>
<path fill="none" stroke="midnightblue" d="M406.552,-783.784C374.09,-772.898 325.633,-756.649 296.883,-747.009"/>
<polygon fill="midnightblue" stroke="midnightblue" points="405.479,-787.116 416.073,-786.977 407.705,-780.479 405.479,-787.116"/>
</g>
<!-- Node18 -->
<g id="node18" class="node"><title>Node18</title>
<g id="a_node18"><a xlink:href="class_om_1_1_taker.html" target="_top" xlink:title=" ">
<polygon fill="none" stroke="black" points="381.591,-301 381.591,-319 500.409,-319 500.409,-301 381.591,-301"/>
<text text-anchor="middle" x="441" y="-307" font-family="Helvetica,sans-Serif" font-size="10.00">Om::Taker&lt; Operator &gt;</text>
</a>
</g>
</g>
<!-- Node18&#45;&gt;Node4 -->
<g id="edge17" class="edge"><title>Node18&#45;&gt;Node4</title>
<path fill="none" stroke="midnightblue" d="M431.502,-291.813C424.797,-279.681 415.83,-263.455 409.013,-251.119"/>
<polygon fill="midnightblue" stroke="midnightblue" points="428.605,-293.807 436.505,-300.867 434.732,-290.421 428.605,-293.807"/>
</g>
<!-- Node19 -->
<g id="node19" class="node"><title>Node19</title>
<g id="a_node19"><a xlink:title="STL class.">
<polygon fill="none" stroke="#bfbfbf" points="511.325,-145 511.325,-163 570.675,-163 570.675,-145 511.325,-145"/>
<text text-anchor="middle" x="541" y="-151" font-family="Helvetica,sans-Serif" font-size="10.00">std::string</text>
</a>
</g>
</g>
<!-- Node19&#45;&gt;Node2 -->
<g id="edge18" class="edge"><title>Node19&#45;&gt;Node2</title>
<path fill="none" stroke="#9a32cd" stroke-dasharray="5,2" d="M529.365,-136.287C519.18,-121.659 504.583,-100.692 495.197,-87.2103"/>
<polygon fill="#9a32cd" stroke="#9a32cd" points="526.735,-138.636 535.321,-144.843 532.48,-134.636 526.735,-138.636"/>
<text text-anchor="middle" x="538.231" y="-108" font-family="Helvetica,sans-Serif" font-size="10.00"> thisString</text>
</g>
<!-- Node20 -->
<g id="node20" class="node"><title>Node20</title>
<g id="a_node20"><a xlink:title="STL class.">
<polygon fill="none" stroke="#bfbfbf" points="495.952,-218 495.952,-246 590.048,-246 590.048,-218 495.952,-218"/>
<text text-anchor="start" x="503.952" y="-234" font-family="Helvetica,sans-Serif" font-size="10.00">std::basic_string&lt;</text>
<text text-anchor="middle" x="543" y="-224" font-family="Helvetica,sans-Serif" font-size="10.00"> char &gt;</text>
</a>
</g>
</g>
<!-- Node20&#45;&gt;Node19 -->
<g id="edge19" class="edge"><title>Node20&#45;&gt;Node19</title>
<path fill="none" stroke="midnightblue" d="M542.385,-207.622C541.989,-192.595 541.499,-173.968 541.221,-163.387"/>
<polygon fill="midnightblue" stroke="midnightblue" points="538.89,-207.857 542.652,-217.762 545.887,-207.673 538.89,-207.857"/>
</g>
</g>
</svg>
