<?xml version="1.0" encoding="UTF-8" standalone="no"?>
<!DOCTYPE svg PUBLIC "-//W3C//DTD SVG 1.1//EN"
 "http://www.w3.org/Graphics/SVG/1.1/DTD/svg11.dtd">
<!-- Generated by graphviz version 2.30.1 (20130221.2233)
 -->
<!-- Title: Om::Operations::EqualsOperation Pages: 1 -->
<svg width="174pt" height="158pt"
 viewBox="0.00 0.00 174.00 158.00" xmlns="http://www.w3.org/2000/svg" xmlns:xlink="http://www.w3.org/1999/xlink">
<g id="graph0" class="graph" transform="scale(1 1) rotate(0) translate(4 154)">
<title>Om::Operations::EqualsOperation</title>
<!-- Node1 -->
<g id="node1" class="node"><title>Node1</title>
<polygon fill="#bfbfbf" stroke="black" points="-0.314941,-1 -0.314941,-21 166.315,-21 166.315,-1 -0.314941,-1"/>
<text text-anchor="middle" x="83" y="-7" font-family="Helvetica,sans-Serif" font-size="10.00">Om::Operations::EqualsOperation</text>
</g>
<!-- Node2 -->
<g id="node2" class="node"><title>Node2</title>
<g id="a_node2"><a xlink:href="class_om_1_1_default_operation.html" target="_top" xlink:title="Om::DefaultOperation\l\&lt; EqualsOperation \&gt;">
<polygon fill="none" stroke="black" points="26.3672,-59 26.3672,-91 139.633,-91 139.633,-59 26.3672,-59"/>
<text text-anchor="start" x="34.3672" y="-77" font-family="Helvetica,sans-Serif" font-size="10.00">Om::DefaultOperation</text>
<text text-anchor="middle" x="83" y="-65" font-family="Helvetica,sans-Serif" font-size="10.00">&lt; EqualsOperation &gt;</text>
</a>
</g>
</g>
<!-- Node2&#45;&gt;Node1 -->
<g id="edge1" class="edge"><title>Node2&#45;&gt;Node1</title>
<path fill="none" stroke="midnightblue" d="M83,-48.922C83,-39.1719 83,-28.6099 83,-21.2904"/>
<polygon fill="midnightblue" stroke="midnightblue" points="79.5001,-48.9915 83,-58.9915 86.5001,-48.9916 79.5001,-48.9915"/>
</g>
<!-- Node3 -->
<g id="node3" class="node"><title>Node3</title>
<g id="a_node3"><a xlink:href="class_om_1_1_operation.html" target="_top" xlink:title="An Operation that has yet to consume one or more Operands, and therefore must live in memory while &quot;i...">
<polygon fill="none" stroke="black" points="42.2095,-129 42.2095,-149 123.791,-149 123.791,-129 42.2095,-129"/>
<text text-anchor="middle" x="83" y="-135" font-family="Helvetica,sans-Serif" font-size="10.00">Om::Operation</text>
</a>
</g>
</g>
<!-- Node3&#45;&gt;Node2 -->
<g id="edge2" class="edge"><title>Node3&#45;&gt;Node2</title>
<path fill="none" stroke="midnightblue" d="M83,-118.775C83,-109.986 83,-99.715 83,-91.4404"/>
<polygon fill="midnightblue" stroke="midnightblue" points="79.5001,-118.852 83,-128.852 86.5001,-118.852 79.5001,-118.852"/>
</g>
</g>
</svg>
