<?xml version="1.0" encoding="UTF-8" standalone="no"?>
<!DOCTYPE svg PUBLIC "-//W3C//DTD SVG 1.1//EN"
 "http://www.w3.org/Graphics/SVG/1.1/DTD/svg11.dtd">
<!-- Generated by graphviz version 2.30.1 (20130221.2233)
 -->
<!-- Title: Om::Sources::Source&lt; ThisItem &gt; Pages: 1 -->
<svg width="716pt" height="457pt"
 viewBox="0.00 0.00 716.00 457.00" xmlns="http://www.w3.org/2000/svg" xmlns:xlink="http://www.w3.org/1999/xlink">
<g id="graph0" class="graph" transform="scale(1 1) rotate(0) translate(4 453)">
<title>Om::Sources::Source&lt; ThisItem &gt;</title>
<!-- Node1 -->
<g id="node1" class="node"><title>Node1</title>
<polygon fill="#bfbfbf" stroke="black" points="0.20459,-199 0.20459,-231 111.795,-231 111.795,-199 0.20459,-199"/>
<text text-anchor="start" x="8.20459" y="-217" font-family="Helvetica,sans-Serif" font-size="10.00">Om::Sources::Source</text>
<text text-anchor="middle" x="56" y="-205" font-family="Helvetica,sans-Serif" font-size="10.00">&lt; ThisItem &gt;</text>
</g>
<!-- Node2 -->
<g id="node2" class="node"><title>Node2</title>
<g id="a_node2"><a xlink:href="class_om_1_1_sources_1_1_default_source.html" target="_top" xlink:title="DefaultSource\&lt; ThisItem\l const, StreamSource\&lt;\l ThisItem \&gt; \&gt;">
<polygon fill="none" stroke="black" points="162.924,-405 162.924,-449 289.076,-449 289.076,-405 162.924,-405"/>
<text text-anchor="start" x="170.924" y="-435" font-family="Helvetica,sans-Serif" font-size="10.00">DefaultSource&lt; ThisItem</text>
<text text-anchor="start" x="170.924" y="-423" font-family="Helvetica,sans-Serif" font-size="10.00"> const, StreamSource&lt;</text>
<text text-anchor="middle" x="226" y="-411" font-family="Helvetica,sans-Serif" font-size="10.00"> ThisItem &gt; &gt;</text>
</a>
</g>
</g>
<!-- Node1&#45;&gt;Node2 -->
<g id="edge1" class="edge"><title>Node1&#45;&gt;Node2</title>
<path fill="none" stroke="midnightblue" d="M63.8121,-240.911C75.1661,-279.4 101.439,-351.772 148,-395 152.456,-399.137 157.522,-402.778 162.879,-405.974"/>
<polygon fill="midnightblue" stroke="midnightblue" points="67.0983,-239.67 61.0008,-231.006 60.3643,-241.581 67.0983,-239.67"/>
</g>
<!-- Node4 -->
<g id="node4" class="node"><title>Node4</title>
<g id="a_node4"><a xlink:href="class_om_1_1_sources_1_1_default_source.html" target="_top" xlink:title="DefaultSource\&lt; ThisItem,\l ContainerBackSource\&lt;\l ThisItem, ThisContainer \&gt; \&gt;">
<polygon fill="none" stroke="black" points="155.095,-342 155.095,-386 296.905,-386 296.905,-342 155.095,-342"/>
<text text-anchor="start" x="163.095" y="-372" font-family="Helvetica,sans-Serif" font-size="10.00">DefaultSource&lt; ThisItem,</text>
<text text-anchor="start" x="163.095" y="-360" font-family="Helvetica,sans-Serif" font-size="10.00"> ContainerBackSource&lt;</text>
<text text-anchor="middle" x="226" y="-348" font-family="Helvetica,sans-Serif" font-size="10.00"> ThisItem, ThisContainer &gt; &gt;</text>
</a>
</g>
</g>
<!-- Node1&#45;&gt;Node4 -->
<g id="edge3" class="edge"><title>Node1&#45;&gt;Node4</title>
<path fill="none" stroke="midnightblue" d="M71.1053,-240.037C86.8852,-266.087 114.657,-306.557 148,-332 152.719,-335.601 157.901,-338.869 163.277,-341.818"/>
<polygon fill="midnightblue" stroke="midnightblue" points="73.95,-237.972 65.8462,-231.147 67.9252,-241.536 73.95,-237.972"/>
</g>
<!-- Node6 -->
<g id="node6" class="node"><title>Node6</title>
<g id="a_node6"><a xlink:href="class_om_1_1_sources_1_1_default_source.html" target="_top" xlink:title="DefaultSource\&lt; ThisItem,\l ContainerFrontSource\l\&lt; ThisItem, ThisContainer \&gt; \&gt;">
<polygon fill="none" stroke="black" points="152.175,-279 152.175,-323 299.825,-323 299.825,-279 152.175,-279"/>
<text text-anchor="start" x="160.175" y="-309" font-family="Helvetica,sans-Serif" font-size="10.00">DefaultSource&lt; ThisItem,</text>
<text text-anchor="start" x="160.175" y="-297" font-family="Helvetica,sans-Serif" font-size="10.00"> ContainerFrontSource</text>
<text text-anchor="middle" x="226" y="-285" font-family="Helvetica,sans-Serif" font-size="10.00">&lt; ThisItem, ThisContainer &gt; &gt;</text>
</a>
</g>
</g>
<!-- Node1&#45;&gt;Node6 -->
<g id="edge5" class="edge"><title>Node1&#45;&gt;Node6</title>
<path fill="none" stroke="midnightblue" d="M90.874,-236.655C107.729,-247.027 128.601,-259.275 148,-269 154.729,-272.374 161.902,-275.697 169.06,-278.852"/>
<polygon fill="midnightblue" stroke="midnightblue" points="92.2991,-233.42 81.9582,-231.114 88.6041,-239.366 92.2991,-233.42"/>
</g>
<!-- Node8 -->
<g id="node8" class="node"><title>Node8</title>
<g id="a_node8"><a xlink:href="class_om_1_1_sources_1_1_default_source.html" target="_top" xlink:title="DefaultSource\&lt; ThisItem,\l EmptySource\&lt; ThisItem \&gt; \&gt;">
<polygon fill="none" stroke="black" points="154.589,-228 154.589,-260 297.411,-260 297.411,-228 154.589,-228"/>
<text text-anchor="start" x="162.589" y="-246" font-family="Helvetica,sans-Serif" font-size="10.00">DefaultSource&lt; ThisItem,</text>
<text text-anchor="middle" x="226" y="-234" font-family="Helvetica,sans-Serif" font-size="10.00"> EmptySource&lt; ThisItem &gt; &gt;</text>
</a>
</g>
</g>
<!-- Node1&#45;&gt;Node8 -->
<g id="edge7" class="edge"><title>Node1&#45;&gt;Node8</title>
<path fill="none" stroke="midnightblue" d="M122.062,-226.231C132.708,-228.069 143.782,-229.98 154.552,-231.839"/>
<polygon fill="midnightblue" stroke="midnightblue" points="122.459,-222.748 112.009,-224.496 121.268,-229.646 122.459,-222.748"/>
</g>
<!-- Node10 -->
<g id="node10" class="node"><title>Node10</title>
<g id="a_node10"><a xlink:href="class_om_1_1_sources_1_1_default_source.html" target="_top" xlink:title="DefaultSource\&lt; ThisItem,\l IteratorPairSource\&lt; ThisItem,\l ThisIterator \&gt; \&gt;">
<polygon fill="none" stroke="black" points="151.257,-165 151.257,-209 300.743,-209 300.743,-165 151.257,-165"/>
<text text-anchor="start" x="159.257" y="-195" font-family="Helvetica,sans-Serif" font-size="10.00">DefaultSource&lt; ThisItem,</text>
<text text-anchor="start" x="159.257" y="-183" font-family="Helvetica,sans-Serif" font-size="10.00"> IteratorPairSource&lt; ThisItem,</text>
<text text-anchor="middle" x="226" y="-171" font-family="Helvetica,sans-Serif" font-size="10.00"> ThisIterator &gt; &gt;</text>
</a>
</g>
</g>
<!-- Node1&#45;&gt;Node10 -->
<g id="edge9" class="edge"><title>Node1&#45;&gt;Node10</title>
<path fill="none" stroke="midnightblue" d="M121.878,-204.187C131.493,-202.584 141.461,-200.923 151.24,-199.293"/>
<polygon fill="midnightblue" stroke="midnightblue" points="121.298,-200.735 112.009,-205.832 122.449,-207.64 121.298,-200.735"/>
</g>
<!-- Node14 -->
<g id="node14" class="node"><title>Node14</title>
<g id="a_node14"><a xlink:href="class_om_1_1_sources_1_1_default_source.html" target="_top" xlink:title="DefaultSource\&lt; ThisItem,\l IteratorSource\&lt; ThisItem,\l ThisIterator \&gt; \&gt;">
<polygon fill="none" stroke="black" points="160.148,-102 160.148,-146 291.852,-146 291.852,-102 160.148,-102"/>
<text text-anchor="start" x="168.148" y="-132" font-family="Helvetica,sans-Serif" font-size="10.00">DefaultSource&lt; ThisItem,</text>
<text text-anchor="start" x="168.148" y="-120" font-family="Helvetica,sans-Serif" font-size="10.00"> IteratorSource&lt; ThisItem,</text>
<text text-anchor="middle" x="226" y="-108" font-family="Helvetica,sans-Serif" font-size="10.00"> ThisIterator &gt; &gt;</text>
</a>
</g>
</g>
<!-- Node1&#45;&gt;Node14 -->
<g id="edge13" class="edge"><title>Node1&#45;&gt;Node14</title>
<path fill="none" stroke="midnightblue" d="M88.0173,-192.885C105.228,-181.133 127.285,-166.904 148,-156 154.533,-152.561 161.519,-149.222 168.518,-146.08"/>
<polygon fill="midnightblue" stroke="midnightblue" points="85.7304,-190.211 79.4919,-198.774 89.709,-195.97 85.7304,-190.211"/>
</g>
<!-- Node16 -->
<g id="node16" class="node"><title>Node16</title>
<g id="a_node16"><a xlink:href="class_om_1_1_sources_1_1_default_source.html" target="_top" xlink:title="DefaultSource\&lt; ThisItem,\l SingletonSource\&lt; ThisItem \&gt; \&gt;">
<polygon fill="none" stroke="black" points="147.91,-51 147.91,-83 304.09,-83 304.09,-51 147.91,-51"/>
<text text-anchor="start" x="155.91" y="-69" font-family="Helvetica,sans-Serif" font-size="10.00">DefaultSource&lt; ThisItem,</text>
<text text-anchor="middle" x="226" y="-57" font-family="Helvetica,sans-Serif" font-size="10.00"> SingletonSource&lt; ThisItem &gt; &gt;</text>
</a>
</g>
</g>
<!-- Node1&#45;&gt;Node16 -->
<g id="edge15" class="edge"><title>Node1&#45;&gt;Node16</title>
<path fill="none" stroke="midnightblue" d="M69.4601,-189.826C84.4463,-162.034 112.13,-117.819 148,-92 152.677,-88.6336 157.831,-85.7042 163.189,-83.1582"/>
<polygon fill="midnightblue" stroke="midnightblue" points="66.2389,-188.432 64.6963,-198.914 72.4389,-191.682 66.2389,-188.432"/>
</g>
<!-- Node18 -->
<g id="node18" class="node"><title>Node18</title>
<g id="a_node18"><a xlink:href="class_om_1_1_sources_1_1_default_source.html" target="_top" xlink:title="A partial implementation of Source. ">
<polygon fill="none" stroke="black" points="154.362,-0 154.362,-32 297.638,-32 297.638,-0 154.362,-0"/>
<text text-anchor="start" x="162.362" y="-18" font-family="Helvetica,sans-Serif" font-size="10.00">Om::Sources::DefaultSource</text>
<text text-anchor="middle" x="226" y="-6" font-family="Helvetica,sans-Serif" font-size="10.00">&lt; ThisItem &gt;</text>
</a>
</g>
</g>
<!-- Node1&#45;&gt;Node18 -->
<g id="edge17" class="edge"><title>Node1&#45;&gt;Node18</title>
<path fill="none" stroke="midnightblue" d="M63.721,-189.19C74.8953,-151.3 100.868,-80.8144 148,-41 152.08,-37.5534 156.645,-34.5793 161.462,-32.0131"/>
<polygon fill="midnightblue" stroke="midnightblue" points="60.3114,-188.385 60.9563,-198.96 67.047,-190.291 60.3114,-188.385"/>
</g>
<!-- Node3 -->
<g id="node3" class="node"><title>Node3</title>
<g id="a_node3"><a xlink:href="class_om_1_1_sources_1_1_stream_source.html" target="_top" xlink:title="A Source adapter for an input stream. ">
<polygon fill="none" stroke="black" points="354.089,-411 354.089,-443 497.911,-443 497.911,-411 354.089,-411"/>
<text text-anchor="start" x="362.089" y="-429" font-family="Helvetica,sans-Serif" font-size="10.00">Om::Sources::StreamSource</text>
<text text-anchor="middle" x="426" y="-417" font-family="Helvetica,sans-Serif" font-size="10.00">&lt; ThisItem &gt;</text>
</a>
</g>
</g>
<!-- Node2&#45;&gt;Node3 -->
<g id="edge2" class="edge"><title>Node2&#45;&gt;Node3</title>
<path fill="none" stroke="midnightblue" d="M299.389,-427C317.129,-427 336.101,-427 353.785,-427"/>
<polygon fill="midnightblue" stroke="midnightblue" points="299.105,-423.5 289.105,-427 299.105,-430.5 299.105,-423.5"/>
</g>
<!-- Node5 -->
<g id="node5" class="node"><title>Node5</title>
<g id="a_node5"><a xlink:href="class_om_1_1_sources_1_1_container_back_source.html" target="_top" xlink:title="A Source adapter for a container; pulls items from the back. ">
<polygon fill="none" stroke="black" points="340.642,-348 340.642,-380 511.358,-380 511.358,-348 340.642,-348"/>
<text text-anchor="start" x="348.642" y="-366" font-family="Helvetica,sans-Serif" font-size="10.00">Om::Sources::ContainerBack</text>
<text text-anchor="middle" x="426" y="-354" font-family="Helvetica,sans-Serif" font-size="10.00">Source&lt; ThisItem, ThisContainer &gt;</text>
</a>
</g>
</g>
<!-- Node4&#45;&gt;Node5 -->
<g id="edge4" class="edge"><title>Node4&#45;&gt;Node5</title>
<path fill="none" stroke="midnightblue" d="M307.402,-364C318.279,-364 329.467,-364 340.414,-364"/>
<polygon fill="midnightblue" stroke="midnightblue" points="307.086,-360.5 297.086,-364 307.086,-367.5 307.086,-360.5"/>
</g>
<!-- Node7 -->
<g id="node7" class="node"><title>Node7</title>
<g id="a_node7"><a xlink:href="class_om_1_1_sources_1_1_container_front_source.html" target="_top" xlink:title="A Source adapter for a container; pulls items from the front. ">
<polygon fill="none" stroke="black" points="340.642,-285 340.642,-317 511.358,-317 511.358,-285 340.642,-285"/>
<text text-anchor="start" x="348.642" y="-303" font-family="Helvetica,sans-Serif" font-size="10.00">Om::Sources::ContainerFront</text>
<text text-anchor="middle" x="426" y="-291" font-family="Helvetica,sans-Serif" font-size="10.00">Source&lt; ThisItem, ThisContainer &gt;</text>
</a>
</g>
</g>
<!-- Node6&#45;&gt;Node7 -->
<g id="edge6" class="edge"><title>Node6&#45;&gt;Node7</title>
<path fill="none" stroke="midnightblue" d="M309.918,-301C320.044,-301 330.401,-301 340.55,-301"/>
<polygon fill="midnightblue" stroke="midnightblue" points="309.884,-297.5 299.884,-301 309.884,-304.5 309.884,-297.5"/>
</g>
<!-- Node9 -->
<g id="node9" class="node"><title>Node9</title>
<g id="a_node9"><a xlink:href="class_om_1_1_sources_1_1_empty_source.html" target="_top" xlink:title="An empty Source. ">
<polygon fill="none" stroke="black" points="356.035,-228 356.035,-260 495.965,-260 495.965,-228 356.035,-228"/>
<text text-anchor="start" x="364.035" y="-246" font-family="Helvetica,sans-Serif" font-size="10.00">Om::Sources::EmptySource</text>
<text text-anchor="middle" x="426" y="-234" font-family="Helvetica,sans-Serif" font-size="10.00">&lt; ThisItem &gt;</text>
</a>
</g>
</g>
<!-- Node8&#45;&gt;Node9 -->
<g id="edge8" class="edge"><title>Node8&#45;&gt;Node9</title>
<path fill="none" stroke="midnightblue" d="M307.949,-244C323.798,-244 340.286,-244 355.713,-244"/>
<polygon fill="midnightblue" stroke="midnightblue" points="307.644,-240.5 297.644,-244 307.644,-247.5 307.644,-240.5"/>
</g>
<!-- Node11 -->
<g id="node11" class="node"><title>Node11</title>
<g id="a_node11"><a xlink:href="class_om_1_1_sources_1_1_iterator_pair_source.html" target="_top" xlink:title="A Source adapter for a start and end input iterator pair. ">
<polygon fill="none" stroke="black" points="346.481,-171 346.481,-203 505.519,-203 505.519,-171 346.481,-171"/>
<text text-anchor="start" x="354.481" y="-189" font-family="Helvetica,sans-Serif" font-size="10.00">Om::Sources::IteratorPair</text>
<text text-anchor="middle" x="426" y="-177" font-family="Helvetica,sans-Serif" font-size="10.00">Source&lt; ThisItem, ThisIterator &gt;</text>
</a>
</g>
</g>
<!-- Node10&#45;&gt;Node11 -->
<g id="edge10" class="edge"><title>Node10&#45;&gt;Node11</title>
<path fill="none" stroke="midnightblue" d="M311.195,-187C322.887,-187 334.86,-187 346.444,-187"/>
<polygon fill="midnightblue" stroke="midnightblue" points="311.009,-183.5 301.009,-187 311.009,-190.5 311.009,-183.5"/>
</g>
<!-- Node12 -->
<g id="node12" class="node"><title>Node12</title>
<g id="a_node12"><a xlink:href="class_om_1_1_sources_1_1_collection_back_source.html" target="_top" xlink:title="A range over a collection, starting from the back. ">
<polygon fill="none" stroke="black" points="548.481,-196 548.481,-228 707.519,-228 707.519,-196 548.481,-196"/>
<text text-anchor="start" x="556.481" y="-214" font-family="Helvetica,sans-Serif" font-size="10.00">Om::Sources::CollectionBack</text>
<text text-anchor="middle" x="628" y="-202" font-family="Helvetica,sans-Serif" font-size="10.00">Source&lt; ThisItem, ThisIterator &gt;</text>
</a>
</g>
</g>
<!-- Node11&#45;&gt;Node12 -->
<g id="edge11" class="edge"><title>Node11&#45;&gt;Node12</title>
<path fill="none" stroke="midnightblue" d="M516.01,-198.126C526.775,-199.472 537.712,-200.839 548.314,-202.164"/>
<polygon fill="midnightblue" stroke="midnightblue" points="516.115,-194.612 505.758,-196.845 515.247,-201.558 516.115,-194.612"/>
</g>
<!-- Node13 -->
<g id="node13" class="node"><title>Node13</title>
<g id="a_node13"><a xlink:href="class_om_1_1_sources_1_1_collection_front_source.html" target="_top" xlink:title="A range over a collection, starting from the front. ">
<polygon fill="none" stroke="black" points="548.481,-145 548.481,-177 707.519,-177 707.519,-145 548.481,-145"/>
<text text-anchor="start" x="556.481" y="-163" font-family="Helvetica,sans-Serif" font-size="10.00">Om::Sources::CollectionFront</text>
<text text-anchor="middle" x="628" y="-151" font-family="Helvetica,sans-Serif" font-size="10.00">Source&lt; ThisItem, ThisIterator &gt;</text>
</a>
</g>
</g>
<!-- Node11&#45;&gt;Node13 -->
<g id="edge12" class="edge"><title>Node11&#45;&gt;Node13</title>
<path fill="none" stroke="midnightblue" d="M515.677,-175.472C526.549,-174.059 537.603,-172.622 548.314,-171.229"/>
<polygon fill="midnightblue" stroke="midnightblue" points="515.224,-172.001 505.758,-176.761 516.126,-178.943 515.224,-172.001"/>
</g>
<!-- Node15 -->
<g id="node15" class="node"><title>Node15</title>
<g id="a_node15"><a xlink:href="class_om_1_1_sources_1_1_iterator_source.html" target="_top" xlink:title="A Source adapter for a sentinal&#45;terminated input iterator. ">
<polygon fill="none" stroke="black" points="354.365,-108 354.365,-140 497.635,-140 497.635,-108 354.365,-108"/>
<text text-anchor="start" x="362.365" y="-126" font-family="Helvetica,sans-Serif" font-size="10.00">Om::Sources::IteratorSource</text>
<text text-anchor="middle" x="426" y="-114" font-family="Helvetica,sans-Serif" font-size="10.00">&lt; ThisItem, ThisIterator &gt;</text>
</a>
</g>
</g>
<!-- Node14&#45;&gt;Node15 -->
<g id="edge14" class="edge"><title>Node14&#45;&gt;Node15</title>
<path fill="none" stroke="midnightblue" d="M302.499,-124C319.423,-124 337.319,-124 354.051,-124"/>
<polygon fill="midnightblue" stroke="midnightblue" points="302.107,-120.5 292.107,-124 302.107,-127.5 302.107,-120.5"/>
</g>
<!-- Node17 -->
<g id="node17" class="node"><title>Node17</title>
<g id="a_node17"><a xlink:href="class_om_1_1_sources_1_1_singleton_source.html" target="_top" xlink:title="A single item Source. ">
<polygon fill="none" stroke="black" points="349.355,-51 349.355,-83 502.645,-83 502.645,-51 349.355,-51"/>
<text text-anchor="start" x="357.355" y="-69" font-family="Helvetica,sans-Serif" font-size="10.00">Om::Sources::SingletonSource</text>
<text text-anchor="middle" x="426" y="-57" font-family="Helvetica,sans-Serif" font-size="10.00">&lt; ThisItem &gt;</text>
</a>
</g>
</g>
<!-- Node16&#45;&gt;Node17 -->
<g id="edge16" class="edge"><title>Node16&#45;&gt;Node17</title>
<path fill="none" stroke="midnightblue" d="M314.245,-67C325.851,-67 337.675,-67 349.067,-67"/>
<polygon fill="midnightblue" stroke="midnightblue" points="314.119,-63.5001 304.119,-67 314.119,-70.5001 314.119,-63.5001"/>
</g>
</g>
</svg>
