<?xml version="1.0" encoding="UTF-8" standalone="no"?>
<!DOCTYPE svg PUBLIC "-//W3C//DTD SVG 1.1//EN"
 "http://www.w3.org/Graphics/SVG/1.1/DTD/svg11.dtd">
<!-- Generated by graphviz version 2.36.0 (20140111.2315)
 -->
<!-- Title: Om::Language::Operand Pages: 1 -->
<svg width="1364pt" height="111pt"
 viewBox="0.00 0.00 1364.00 111.00" xmlns="http://www.w3.org/2000/svg" xmlns:xlink="http://www.w3.org/1999/xlink">
<g id="graph0" class="graph" transform="scale(1 1) rotate(0) translate(4 107)">
<title>Om::Language::Operand</title>
<!-- Node9 -->
<g id="node1" class="node"><title>Node9</title>
<g id="a_node1"><a xlink:title="The Operand implementation.">
<polygon fill="#bfbfbf" stroke="black" points="1228.69,-31 1228.69,-49 1355.31,-49 1355.31,-31 1228.69,-31"/>
<text text-anchor="middle" x="1292" y="-37" font-family="Helvetica,sans-Serif" font-size="10.00">Om::Language::Operand</text>
</a>
</g>
</g>
<!-- Node10 -->
<g id="node2" class="node"><title>Node10</title>
<g id="a_node2"><a xlink:href="class_om_1_1_language_1_1_default_element.html" target="_top" xlink:title=" ">
<polygon fill="none" stroke="black" points="977.958,-47 977.958,-75 1134.04,-75 1134.04,-47 977.958,-47"/>
<text text-anchor="start" x="985.958" y="-63" font-family="Helvetica,sans-Serif" font-size="10.00">Om::Language::DefaultElement</text>
<text text-anchor="middle" x="1056" y="-53" font-family="Helvetica,sans-Serif" font-size="10.00">&lt; Operand &gt;</text>
</a>
</g>
</g>
<!-- Node10&#45;&gt;Node9 -->
<g id="edge1" class="edge"><title>Node10&#45;&gt;Node9</title>
<path fill="none" stroke="midnightblue" d="M1144.45,-53.1519C1172.42,-50.6421 1202.79,-47.9159 1228.6,-45.5998"/>
<polygon fill="midnightblue" stroke="midnightblue" points="1143.92,-49.6857 1134.27,-54.0656 1144.54,-56.6577 1143.92,-49.6857"/>
</g>
<!-- Node11 -->
<g id="node3" class="node"><title>Node11</title>
<g id="a_node3"><a xlink:href="class_om_1_1_language_1_1_default_program.html" target="_top" xlink:title=" ">
<polygon fill="none" stroke="black" points="782.128,-47 782.128,-75 939.872,-75 939.872,-47 782.128,-47"/>
<text text-anchor="start" x="790.128" y="-63" font-family="Helvetica,sans-Serif" font-size="10.00">Om::Language::DefaultProgram</text>
<text text-anchor="middle" x="861" y="-53" font-family="Helvetica,sans-Serif" font-size="10.00">&lt; Operand, Element &gt;</text>
</a>
</g>
</g>
<!-- Node11&#45;&gt;Node10 -->
<g id="edge2" class="edge"><title>Node11&#45;&gt;Node10</title>
<path fill="none" stroke="midnightblue" d="M950.235,-61C959.403,-61 968.672,-61 977.706,-61"/>
<polygon fill="midnightblue" stroke="midnightblue" points="949.944,-57.5001 939.944,-61 949.944,-64.5001 949.944,-57.5001"/>
</g>
<!-- Node12 -->
<g id="node4" class="node"><title>Node12</title>
<g id="a_node4"><a xlink:href="class_om_1_1_language_1_1_default_consumer.html" target="_top" xlink:title=" ">
<polygon fill="none" stroke="black" points="578.237,-65 578.237,-103 743.763,-103 743.763,-65 578.237,-65"/>
<text text-anchor="start" x="586.237" y="-91" font-family="Helvetica,sans-Serif" font-size="10.00">Om::Language::DefaultConsumer</text>
<text text-anchor="start" x="586.237" y="-81" font-family="Helvetica,sans-Serif" font-size="10.00">&lt; Operand, DefaultGiveable</text>
<text text-anchor="middle" x="661" y="-71" font-family="Helvetica,sans-Serif" font-size="10.00">&lt; Operand, Element &gt; &gt;</text>
</a>
</g>
</g>
<!-- Node12&#45;&gt;Node11 -->
<g id="edge3" class="edge"><title>Node12&#45;&gt;Node11</title>
<path fill="none" stroke="midnightblue" d="M754.031,-73.3095C763.354,-72.2266 772.76,-71.134 781.915,-70.0705"/>
<polygon fill="midnightblue" stroke="midnightblue" points="753.493,-69.8484 743.963,-74.479 754.301,-76.8017 753.493,-69.8484"/>
</g>
<!-- Node13 -->
<g id="node5" class="node"><title>Node13</title>
<g id="a_node5"><a xlink:href="class_om_1_1_default_giveable.html" target="_top" xlink:title=" ">
<polygon fill="none" stroke="black" points="425.803,-70 425.803,-98 540.197,-98 540.197,-70 425.803,-70"/>
<text text-anchor="start" x="433.803" y="-86" font-family="Helvetica,sans-Serif" font-size="10.00">Om::DefaultGiveable</text>
<text text-anchor="middle" x="483" y="-76" font-family="Helvetica,sans-Serif" font-size="10.00">&lt; Operand, Element &gt;</text>
</a>
</g>
</g>
<!-- Node13&#45;&gt;Node12 -->
<g id="edge4" class="edge"><title>Node13&#45;&gt;Node12</title>
<path fill="none" stroke="midnightblue" d="M550.933,-84C559.827,-84 569.026,-84 578.137,-84"/>
<polygon fill="midnightblue" stroke="midnightblue" points="550.656,-80.5001 540.656,-84 550.656,-87.5001 550.656,-80.5001"/>
</g>
<!-- Node14 -->
<g id="node6" class="node"><title>Node14</title>
<g id="a_node6"><a xlink:href="class_om_1_1_default_moveable.html" target="_top" xlink:title=" ">
<polygon fill="none" stroke="black" points="244.487,-65 244.487,-103 387.513,-103 387.513,-65 244.487,-65"/>
<text text-anchor="start" x="252.487" y="-91" font-family="Helvetica,sans-Serif" font-size="10.00">Om::DefaultMoveable</text>
<text text-anchor="start" x="252.487" y="-81" font-family="Helvetica,sans-Serif" font-size="10.00">&lt; Operand, DefaultCopyable</text>
<text text-anchor="middle" x="316" y="-71" font-family="Helvetica,sans-Serif" font-size="10.00">&lt; Operand, Element &gt; &gt;</text>
</a>
</g>
</g>
<!-- Node14&#45;&gt;Node13 -->
<g id="edge5" class="edge"><title>Node14&#45;&gt;Node13</title>
<path fill="none" stroke="midnightblue" d="M398.01,-84C407.328,-84 416.67,-84 425.563,-84"/>
<polygon fill="midnightblue" stroke="midnightblue" points="397.932,-80.5001 387.932,-84 397.932,-87.5001 397.932,-80.5001"/>
</g>
<!-- Node15 -->
<g id="node7" class="node"><title>Node15</title>
<g id="a_node7"><a xlink:href="class_om_1_1_default_copyable.html" target="_top" xlink:title=" ">
<polygon fill="none" stroke="black" points="91.8032,-70 91.8032,-98 206.197,-98 206.197,-70 91.8032,-70"/>
<text text-anchor="start" x="99.8032" y="-86" font-family="Helvetica,sans-Serif" font-size="10.00">Om::DefaultCopyable</text>
<text text-anchor="middle" x="149" y="-76" font-family="Helvetica,sans-Serif" font-size="10.00">&lt; Operand, Element &gt;</text>
</a>
</g>
</g>
<!-- Node15&#45;&gt;Node14 -->
<g id="edge6" class="edge"><title>Node15&#45;&gt;Node14</title>
<path fill="none" stroke="midnightblue" d="M216.521,-84C225.68,-84 235.112,-84 244.342,-84"/>
<polygon fill="midnightblue" stroke="midnightblue" points="216.322,-80.5001 206.322,-84 216.322,-87.5001 216.322,-80.5001"/>
</g>
<!-- Node16 -->
<g id="node8" class="node"><title>Node16</title>
<g id="a_node8"><a xlink:title=" ">
<polygon fill="none" stroke="#bfbfbf" points="0.657715,-75 0.657715,-93 53.3423,-93 53.3423,-75 0.657715,-75"/>
<text text-anchor="middle" x="27" y="-81" font-family="Helvetica,sans-Serif" font-size="10.00">Element</text>
</a>
</g>
</g>
<!-- Node16&#45;&gt;Node15 -->
<g id="edge7" class="edge"><title>Node16&#45;&gt;Node15</title>
<path fill="none" stroke="midnightblue" d="M63.6551,-84C72.4134,-84 82.0053,-84 91.4809,-84"/>
<polygon fill="midnightblue" stroke="midnightblue" points="63.4489,-80.5001 53.4489,-84 63.4489,-87.5001 63.4489,-80.5001"/>
</g>
<!-- Node17 -->
<g id="node9" class="node"><title>Node17</title>
<g id="a_node9"><a xlink:href="class_om_1_1_taker.html" target="_top" xlink:title=" ">
<polygon fill="none" stroke="black" points="601.865,-28 601.865,-46 720.135,-46 720.135,-28 601.865,-28"/>
<text text-anchor="middle" x="661" y="-34" font-family="Helvetica,sans-Serif" font-size="10.00">Om::Taker&lt; Operand &gt;</text>
</a>
</g>
</g>
<!-- Node17&#45;&gt;Node11 -->
<g id="edge8" class="edge"><title>Node17&#45;&gt;Node11</title>
<path fill="none" stroke="midnightblue" d="M730.478,-45.3003C747.06,-47.3103 764.908,-49.4737 781.896,-51.5329"/>
<polygon fill="midnightblue" stroke="midnightblue" points="730.684,-41.7998 720.336,-44.071 729.842,-48.749 730.684,-41.7998"/>
</g>
<!-- Node18 -->
<g id="node10" class="node"><title>Node18</title>
<g id="a_node10"><a xlink:href="class_om_1_1_owner.html" target="_top" xlink:title=" ">
<polygon fill="none" stroke="black" points="985.053,-0 985.053,-28 1126.95,-28 1126.95,-0 985.053,-0"/>
<text text-anchor="start" x="993.053" y="-16" font-family="Helvetica,sans-Serif" font-size="10.00">Om::Owner&lt; Om::Language</text>
<text text-anchor="middle" x="1056" y="-6" font-family="Helvetica,sans-Serif" font-size="10.00">::Program &gt;</text>
</a>
</g>
</g>
<!-- Node18&#45;&gt;Node9 -->
<g id="edge9" class="edge"><title>Node18&#45;&gt;Node9</title>
<path fill="none" stroke="#9a32cd" stroke-dasharray="5,2" d="M1137.17,-22.9081C1167,-26.2219 1200.38,-29.9308 1228.4,-33.0445"/>
<polygon fill="#9a32cd" stroke="#9a32cd" points="1137.53,-19.4267 1127.21,-21.8009 1136.76,-26.3839 1137.53,-19.4267"/>
<text text-anchor="middle" x="1181" y="-33" font-family="Helvetica,sans-Serif" font-size="10.00"> thisProgram</text>
</g>
<!-- Node19 -->
<g id="node11" class="node"><title>Node19</title>
<g id="a_node11"><a xlink:href="class_om_1_1_taker.html" target="_top" xlink:title=" ">
<polygon fill="none" stroke="black" points="797.407,-0 797.407,-28 924.593,-28 924.593,-0 797.407,-0"/>
<text text-anchor="start" x="805.407" y="-16" font-family="Helvetica,sans-Serif" font-size="10.00">Om::Taker&lt; Owner&lt; Om</text>
<text text-anchor="middle" x="861" y="-6" font-family="Helvetica,sans-Serif" font-size="10.00">::Language::Program &gt; &gt;</text>
</a>
</g>
</g>
<!-- Node19&#45;&gt;Node18 -->
<g id="edge10" class="edge"><title>Node19&#45;&gt;Node18</title>
<path fill="none" stroke="midnightblue" d="M934.757,-14C951.205,-14 968.635,-14 984.968,-14"/>
<polygon fill="midnightblue" stroke="midnightblue" points="934.662,-10.5001 924.662,-14 934.662,-17.5001 934.662,-10.5001"/>
</g>
</g>
</svg>
