<?xml version="1.0" encoding="UTF-8" standalone="no"?>
<!DOCTYPE svg PUBLIC "-//W3C//DTD SVG 1.1//EN"
 "http://www.w3.org/Graphics/SVG/1.1/DTD/svg11.dtd">
<!-- Generated by graphviz version 2.30.1 (20130221.2233)
 -->
<!-- Title: Om::Source::CollectionFrontSource&lt; ThisItem, ThisIterator &gt; Pages: 1 -->
<svg width="694pt" height="103pt"
 viewBox="0.00 0.00 694.00 103.00" xmlns="http://www.w3.org/2000/svg" xmlns:xlink="http://www.w3.org/1999/xlink">
<g id="graph0" class="graph" transform="scale(1 1) rotate(0) translate(4 99)">
<title>Om::Source::CollectionFrontSource&lt; ThisItem, ThisIterator &gt;</title>
<!-- Node1 -->
<g id="node1" class="node"><title>Node1</title>
<polygon fill="#bfbfbf" stroke="black" points="526.481,-34 526.481,-66 685.519,-66 685.519,-34 526.481,-34"/>
<text text-anchor="start" x="534.481" y="-52" font-family="Helvetica,sans-Serif" font-size="10.00">Om::Source::CollectionFront</text>
<text text-anchor="middle" x="606" y="-40" font-family="Helvetica,sans-Serif" font-size="10.00">Source&lt; ThisItem, ThisIterator &gt;</text>
</g>
<!-- Node2 -->
<g id="node2" class="node"><title>Node2</title>
<g id="a_node2"><a xlink:href="class_om_1_1_source_1_1_iterator_pair_source.html" target="_top" xlink:title="A Source adapter for a start and end input iterator pair. ">
<polygon fill="none" stroke="black" points="330.481,-34 330.481,-66 489.519,-66 489.519,-34 330.481,-34"/>
<text text-anchor="start" x="338.481" y="-52" font-family="Helvetica,sans-Serif" font-size="10.00">Om::Source::IteratorPair</text>
<text text-anchor="middle" x="410" y="-40" font-family="Helvetica,sans-Serif" font-size="10.00">Source&lt; ThisItem, ThisIterator &gt;</text>
</a>
</g>
</g>
<!-- Node2&#45;&gt;Node1 -->
<g id="edge1" class="edge"><title>Node2&#45;&gt;Node1</title>
<path fill="none" stroke="midnightblue" d="M499.895,-50C508.691,-50 517.577,-50 526.26,-50"/>
<polygon fill="midnightblue" stroke="midnightblue" points="499.628,-46.5001 489.628,-50 499.628,-53.5001 499.628,-46.5001"/>
</g>
<!-- Node3 -->
<g id="node3" class="node"><title>Node3</title>
<g id="a_node3"><a xlink:href="class_om_1_1_source_1_1_default_source.html" target="_top" xlink:title="Om::Source::DefaultSource\l\&lt; ThisItem, IteratorPairSource\l\&lt; ThisItem, ThisIterator \&gt; \&gt;">
<polygon fill="none" stroke="black" points="144.257,-28 144.257,-72 293.743,-72 293.743,-28 144.257,-28"/>
<text text-anchor="start" x="152.257" y="-58" font-family="Helvetica,sans-Serif" font-size="10.00">Om::Source::DefaultSource</text>
<text text-anchor="start" x="152.257" y="-46" font-family="Helvetica,sans-Serif" font-size="10.00">&lt; ThisItem, IteratorPairSource</text>
<text text-anchor="middle" x="219" y="-34" font-family="Helvetica,sans-Serif" font-size="10.00">&lt; ThisItem, ThisIterator &gt; &gt;</text>
</a>
</g>
</g>
<!-- Node3&#45;&gt;Node2 -->
<g id="edge2" class="edge"><title>Node3&#45;&gt;Node2</title>
<path fill="none" stroke="midnightblue" d="M304.021,-50C312.719,-50 321.536,-50 330.173,-50"/>
<polygon fill="midnightblue" stroke="midnightblue" points="303.884,-46.5001 293.884,-50 303.884,-53.5001 303.884,-46.5001"/>
</g>
<!-- Node4 -->
<g id="node4" class="node"><title>Node4</title>
<g id="a_node4"><a xlink:href="class_om_1_1_source_1_1_source.html" target="_top" xlink:title="Any object that items can be pulled from. ">
<polygon fill="none" stroke="black" points="0.70459,-63 0.70459,-95 107.295,-95 107.295,-63 0.70459,-63"/>
<text text-anchor="start" x="8.70459" y="-81" font-family="Helvetica,sans-Serif" font-size="10.00">Om::Source::Source</text>
<text text-anchor="middle" x="54" y="-69" font-family="Helvetica,sans-Serif" font-size="10.00">&lt; ThisItem &gt;</text>
</a>
</g>
</g>
<!-- Node4&#45;&gt;Node3 -->
<g id="edge3" class="edge"><title>Node4&#45;&gt;Node3</title>
<path fill="none" stroke="midnightblue" d="M117.559,-67.87C126.294,-66.3159 135.336,-64.7071 144.253,-63.1206"/>
<polygon fill="midnightblue" stroke="midnightblue" points="116.704,-64.467 107.471,-69.6646 117.93,-71.3588 116.704,-64.467"/>
</g>
<!-- Node5 -->
<g id="node5" class="node"><title>Node5</title>
<polygon fill="none" stroke="#bfbfbf" points="2.9165,-0 2.9165,-44 105.083,-44 105.083,-0 2.9165,-0"/>
<text text-anchor="start" x="10.9165" y="-30" font-family="Helvetica,sans-Serif" font-size="10.00">std::iterator&lt; std</text>
<text text-anchor="start" x="10.9165" y="-18" font-family="Helvetica,sans-Serif" font-size="10.00">::input_iterator_tag,</text>
<text text-anchor="middle" x="54" y="-6" font-family="Helvetica,sans-Serif" font-size="10.00"> ThisItem &gt;</text>
</g>
<!-- Node5&#45;&gt;Node3 -->
<g id="edge4" class="edge"><title>Node5&#45;&gt;Node3</title>
<path fill="none" stroke="midnightblue" d="M115.21,-32.3428C124.571,-33.9509 134.336,-35.6283 143.961,-37.2816"/>
<polygon fill="midnightblue" stroke="midnightblue" points="115.684,-28.873 105.235,-30.6294 114.498,-35.7719 115.684,-28.873"/>
</g>
</g>
</svg>
