<?xml version="1.0" encoding="UTF-8" standalone="no"?>
<!DOCTYPE svg PUBLIC "-//W3C//DTD SVG 1.1//EN"
 "http://www.w3.org/Graphics/SVG/1.1/DTD/svg11.dtd">
<!-- Generated by graphviz version 2.28.0 (20120817.0054)
 -->
<!-- Title: Om::Expression Pages: 1 -->
<svg width="1280pt" height="134pt"
 viewBox="0.00 0.00 1280.00 134.00" xmlns="http://www.w3.org/2000/svg" xmlns:xlink="http://www.w3.org/1999/xlink">
<g id="graph1" class="graph" transform="scale(1 1) rotate(0) translate(4 130)">
<title>Om::Expression</title>
<!-- Node1 -->
<g id="node1" class="node"><title>Node1</title>
<polygon fill="#bfbfbf" stroke="black" points="1186.5,-24.5 1186.5,-43.5 1271.5,-43.5 1271.5,-24.5 1186.5,-24.5"/>
<text text-anchor="middle" x="1229" y="-31.5" font-family="Helvetica,sans-Serif" font-size="10.00">Om::Expression</text>
</g>
<!-- Node2 -->
<g id="node2" class="node"><title>Node2</title>
<a xlink:href="class_om_1_1_default_program.html" target="_top" xlink:title="Om::DefaultProgram\l\&lt; Expression \&gt;">
<polygon fill="none" stroke="black" points="1048,-19 1048,-49 1150,-49 1150,-19 1048,-19"/>
<text text-anchor="start" x="1056" y="-37" font-family="Helvetica,sans-Serif" font-size="10.00">Om::DefaultProgram</text>
<text text-anchor="middle" x="1099" y="-26" font-family="Helvetica,sans-Serif" font-size="10.00">&lt; Expression &gt;</text>
</a>
</g>
<!-- Node2&#45;&gt;Node1 -->
<g id="edge2" class="edge"><title>Node2&#45;&gt;Node1</title>
<path fill="none" stroke="midnightblue" d="M1160.39,-34C1169.12,-34 1177.93,-34 1186.19,-34"/>
<polygon fill="midnightblue" stroke="midnightblue" points="1160.22,-30.5001 1150.22,-34 1160.22,-37.5001 1160.22,-30.5001"/>
</g>
<!-- Node3 -->
<g id="node4" class="node"><title>Node3</title>
<a xlink:href="class_om_1_1_default_queue.html" target="_top" xlink:title="Om::DefaultQueue\&lt; Expression,\l DefaultGiveable\&lt; Expression,\l Program \&gt; \&gt;">
<polygon fill="none" stroke="black" points="856.5,-38.5 856.5,-79.5 1011.5,-79.5 1011.5,-38.5 856.5,-38.5"/>
<text text-anchor="start" x="864.5" y="-67.5" font-family="Helvetica,sans-Serif" font-size="10.00">Om::DefaultQueue&lt; Expression,</text>
<text text-anchor="start" x="864.5" y="-56.5" font-family="Helvetica,sans-Serif" font-size="10.00"> DefaultGiveable&lt; Expression,</text>
<text text-anchor="middle" x="934" y="-45.5" font-family="Helvetica,sans-Serif" font-size="10.00"> Program &gt; &gt;</text>
</a>
</g>
<!-- Node3&#45;&gt;Node2 -->
<g id="edge4" class="edge"><title>Node3&#45;&gt;Node2</title>
<path fill="none" stroke="midnightblue" d="M1021.76,-45.693C1030.64,-44.3316 1039.43,-42.9831 1047.72,-41.7123"/>
<polygon fill="midnightblue" stroke="midnightblue" points="1021.08,-42.2564 1011.73,-47.232 1022.14,-49.1755 1021.08,-42.2564"/>
</g>
<!-- Node4 -->
<g id="node6" class="node"><title>Node4</title>
<a xlink:href="class_om_1_1_default_giveable.html" target="_top" xlink:title="Om::DefaultGiveable\l\&lt; Expression, Program \&gt;">
<polygon fill="none" stroke="black" points="698,-44 698,-74 820,-74 820,-44 698,-44"/>
<text text-anchor="start" x="706" y="-62" font-family="Helvetica,sans-Serif" font-size="10.00">Om::DefaultGiveable</text>
<text text-anchor="middle" x="759" y="-51" font-family="Helvetica,sans-Serif" font-size="10.00">&lt; Expression, Program &gt;</text>
</a>
</g>
<!-- Node4&#45;&gt;Node3 -->
<g id="edge6" class="edge"><title>Node4&#45;&gt;Node3</title>
<path fill="none" stroke="midnightblue" d="M830.051,-59C838.702,-59 847.581,-59 856.325,-59"/>
<polygon fill="midnightblue" stroke="midnightblue" points="830.022,-55.5001 820.021,-59 830.021,-62.5001 830.022,-55.5001"/>
</g>
<!-- Node5 -->
<g id="node8" class="node"><title>Node5</title>
<a xlink:href="class_om_1_1_default_moveable.html" target="_top" xlink:title="Om::DefaultMoveable\l\&lt; Expression, DefaultCopyable\l\&lt; Expression, Program \&gt; \&gt;">
<polygon fill="none" stroke="black" points="510.5,-38.5 510.5,-79.5 661.5,-79.5 661.5,-38.5 510.5,-38.5"/>
<text text-anchor="start" x="518.5" y="-67.5" font-family="Helvetica,sans-Serif" font-size="10.00">Om::DefaultMoveable</text>
<text text-anchor="start" x="518.5" y="-56.5" font-family="Helvetica,sans-Serif" font-size="10.00">&lt; Expression, DefaultCopyable</text>
<text text-anchor="middle" x="586" y="-45.5" font-family="Helvetica,sans-Serif" font-size="10.00">&lt; Expression, Program &gt; &gt;</text>
</a>
</g>
<!-- Node5&#45;&gt;Node4 -->
<g id="edge8" class="edge"><title>Node5&#45;&gt;Node4</title>
<path fill="none" stroke="midnightblue" d="M671.52,-59C680.413,-59 689.32,-59 697.856,-59"/>
<polygon fill="midnightblue" stroke="midnightblue" points="671.506,-55.5001 661.506,-59 671.506,-62.5001 671.506,-55.5001"/>
</g>
<!-- Node6 -->
<g id="node10" class="node"><title>Node6</title>
<a xlink:href="class_om_1_1_default_copyable.html" target="_top" xlink:title="Om::DefaultCopyable\l\&lt; Expression, Program \&gt;">
<polygon fill="none" stroke="black" points="352,-44 352,-74 474,-74 474,-44 352,-44"/>
<text text-anchor="start" x="360" y="-62" font-family="Helvetica,sans-Serif" font-size="10.00">Om::DefaultCopyable</text>
<text text-anchor="middle" x="413" y="-51" font-family="Helvetica,sans-Serif" font-size="10.00">&lt; Expression, Program &gt;</text>
</a>
</g>
<!-- Node6&#45;&gt;Node5 -->
<g id="edge10" class="edge"><title>Node6&#45;&gt;Node5</title>
<path fill="none" stroke="midnightblue" d="M484.526,-59C493.021,-59 501.719,-59 510.272,-59"/>
<polygon fill="midnightblue" stroke="midnightblue" points="484.288,-55.5001 474.288,-59 484.288,-62.5001 484.288,-55.5001"/>
</g>
<!-- Node7 -->
<g id="node12" class="node"><title>Node7</title>
<a xlink:href="class_om_1_1_program.html" target="_top" xlink:title="The Program implementation.">
<polygon fill="none" stroke="black" points="244,-49.5 244,-68.5 316,-68.5 316,-49.5 244,-49.5"/>
<text text-anchor="middle" x="280" y="-56.5" font-family="Helvetica,sans-Serif" font-size="10.00">Om::Program</text>
</a>
</g>
<!-- Node7&#45;&gt;Node6 -->
<g id="edge12" class="edge"><title>Node7&#45;&gt;Node6</title>
<path fill="none" stroke="midnightblue" d="M326.236,-59C334.469,-59 343.176,-59 351.762,-59"/>
<polygon fill="midnightblue" stroke="midnightblue" points="326.106,-55.5001 316.106,-59 326.106,-62.5001 326.106,-55.5001"/>
</g>
<!-- Node8 -->
<g id="node14" class="node"><title>Node8</title>
<a xlink:href="class_om_1_1_giveable.html" target="_top" xlink:title="An object that can be copied or moved via Give.">
<polygon fill="none" stroke="black" points="124,-87.5 124,-106.5 200,-106.5 200,-87.5 124,-87.5"/>
<text text-anchor="middle" x="162" y="-94.5" font-family="Helvetica,sans-Serif" font-size="10.00">Om::Giveable</text>
</a>
</g>
<!-- Node8&#45;&gt;Node7 -->
<g id="edge14" class="edge"><title>Node8&#45;&gt;Node7</title>
<path fill="none" stroke="midnightblue" d="M202.153,-84.1741C217.718,-79.0753 235.314,-73.3109 249.738,-68.5859"/>
<polygon fill="midnightblue" stroke="midnightblue" points="200.685,-80.9718 192.272,-87.411 202.864,-87.6239 200.685,-80.9718"/>
</g>
<!-- Node9 -->
<g id="node16" class="node"><title>Node9</title>
<a xlink:href="class_om_1_1_copyable.html" target="_top" xlink:title="An object that can be passed to Copy to be copied.">
<polygon fill="none" stroke="black" points="0,-106.5 0,-125.5 80,-125.5 80,-106.5 0,-106.5"/>
<text text-anchor="middle" x="40" y="-113.5" font-family="Helvetica,sans-Serif" font-size="10.00">Om::Copyable</text>
</a>
</g>
<!-- Node9&#45;&gt;Node8 -->
<g id="edge16" class="edge"><title>Node9&#45;&gt;Node8</title>
<path fill="none" stroke="midnightblue" d="M90.3313,-108.189C101.468,-106.426 113.11,-104.583 123.658,-102.912"/>
<polygon fill="midnightblue" stroke="midnightblue" points="89.6221,-104.758 80.2925,-109.779 90.7168,-111.672 89.6221,-104.758"/>
</g>
<!-- Node10 -->
<g id="node18" class="node"><title>Node10</title>
<a xlink:href="class_om_1_1_moveable.html" target="_top" xlink:title="An object that can be passed to Move to be moved.">
<polygon fill="none" stroke="black" points="0,-68.5 0,-87.5 80,-87.5 80,-68.5 0,-68.5"/>
<text text-anchor="middle" x="40" y="-75.5" font-family="Helvetica,sans-Serif" font-size="10.00">Om::Moveable</text>
</a>
</g>
<!-- Node10&#45;&gt;Node8 -->
<g id="edge18" class="edge"><title>Node10&#45;&gt;Node8</title>
<path fill="none" stroke="midnightblue" d="M90.3313,-85.8108C101.468,-87.574 113.11,-89.4175 123.658,-91.0876"/>
<polygon fill="midnightblue" stroke="midnightblue" points="90.7168,-82.3283 80.2925,-84.2213 89.6221,-89.2422 90.7168,-82.3283"/>
</g>
<!-- Node11 -->
<g id="node20" class="node"><title>Node11</title>
<a xlink:href="class_om_1_1_queue.html" target="_top" xlink:title="A first&#45;in, first&#45;out Element processor.">
<polygon fill="none" stroke="black" points="129,-49.5 129,-68.5 195,-68.5 195,-49.5 129,-49.5"/>
<text text-anchor="middle" x="162" y="-56.5" font-family="Helvetica,sans-Serif" font-size="10.00">Om::Queue</text>
</a>
</g>
<!-- Node11&#45;&gt;Node7 -->
<g id="edge20" class="edge"><title>Node11&#45;&gt;Node7</title>
<path fill="none" stroke="midnightblue" d="M205.321,-59C217.973,-59 231.701,-59 243.841,-59"/>
<polygon fill="midnightblue" stroke="midnightblue" points="205.005,-55.5001 195.005,-59 205.005,-62.5001 205.005,-55.5001"/>
</g>
<!-- Node12 -->
<g id="node22" class="node"><title>Node12</title>
<a xlink:href="class_om_1_1_shareable.html" target="_top" xlink:title="Om::Shareable\&lt;\&gt;">
<polygon fill="none" stroke="black" points="116,-11.5 116,-30.5 208,-30.5 208,-11.5 116,-11.5"/>
<text text-anchor="middle" x="162" y="-18.5" font-family="Helvetica,sans-Serif" font-size="10.00">Om::Shareable&lt;&gt;</text>
</a>
</g>
<!-- Node12&#45;&gt;Node7 -->
<g id="edge22" class="edge"><title>Node12&#45;&gt;Node7</title>
<path fill="none" stroke="midnightblue" d="M202.153,-33.8259C217.718,-38.9247 235.314,-44.6891 249.738,-49.4141"/>
<polygon fill="midnightblue" stroke="midnightblue" points="202.864,-30.3761 192.272,-30.589 200.685,-37.0282 202.864,-30.3761"/>
</g>
<!-- Node13 -->
<g id="node24" class="node"><title>Node13</title>
<a xlink:href="class_om_1_1_taker.html" target="_top" xlink:title="Om::Taker\&lt; Expression \&gt;">
<polygon fill="none" stroke="black" points="871.5,-0.5 871.5,-19.5 996.5,-19.5 996.5,-0.5 871.5,-0.5"/>
<text text-anchor="middle" x="934" y="-7.5" font-family="Helvetica,sans-Serif" font-size="10.00">Om::Taker&lt; Expression &gt;</text>
</a>
</g>
<!-- Node13&#45;&gt;Node2 -->
<g id="edge24" class="edge"><title>Node13&#45;&gt;Node2</title>
<path fill="none" stroke="midnightblue" d="M1006.67,-20.5527C1020.6,-22.603 1034.91,-24.7105 1047.95,-26.631"/>
<polygon fill="midnightblue" stroke="midnightblue" points="1007.03,-17.0675 996.623,-19.0734 1006.01,-23.9928 1007.03,-17.0675"/>
</g>
</g>
</svg>
