<?xml version="1.0" encoding="UTF-8" standalone="no"?>
<!DOCTYPE svg PUBLIC "-//W3C//DTD SVG 1.1//EN"
 "http://www.w3.org/Graphics/SVG/1.1/DTD/svg11.dtd">
<!-- Generated by graphviz version 2.36.0 (20140111.2315)
 -->
<!-- Title: Om::Form::OperandRange&lt; Operand const &#160;&gt; Pages: 1 -->
<svg width="972pt" height="119pt"
 viewBox="0.00 0.00 972.00 119.00" xmlns="http://www.w3.org/2000/svg" xmlns:xlink="http://www.w3.org/1999/xlink">
<g id="graph0" class="graph" transform="scale(1 1) rotate(0) translate(4 115)">
<title>Om::Form::OperandRange&lt; Operand const &#160;&gt;</title>
<!-- Node1 -->
<g id="node1" class="node"><title>Node1</title>
<polygon fill="#bfbfbf" stroke="black" points="828.532,-23 828.532,-51 963.468,-51 963.468,-23 828.532,-23"/>
<text text-anchor="start" x="836.532" y="-39" font-family="Helvetica,sans-Serif" font-size="10.00">Om::Form::OperandRange</text>
<text text-anchor="middle" x="896" y="-29" font-family="Helvetica,sans-Serif" font-size="10.00">&lt; Operand const &gt;</text>
</g>
<!-- Node2 -->
<g id="node2" class="node"><title>Node2</title>
<g id="a_node2"><a xlink:href="class_om_1_1_source_1_1_collection_front_source.html" target="_top" xlink:title="Om::Source::CollectionFront\lSource\&lt; Operand const, OperandDeque\l::const_iterator \&gt;">
<polygon fill="none" stroke="black" points="594.081,-18 594.081,-56 789.919,-56 789.919,-18 594.081,-18"/>
<text text-anchor="start" x="602.081" y="-44" font-family="Helvetica,sans-Serif" font-size="10.00">Om::Source::CollectionFront</text>
<text text-anchor="start" x="602.081" y="-34" font-family="Helvetica,sans-Serif" font-size="10.00">Source&lt; Operand const, OperandDeque</text>
<text text-anchor="middle" x="692" y="-24" font-family="Helvetica,sans-Serif" font-size="10.00">::const_iterator &gt;</text>
</a>
</g>
</g>
<!-- Node2&#45;&gt;Node1 -->
<g id="edge1" class="edge"><title>Node2&#45;&gt;Node1</title>
<path fill="none" stroke="midnightblue" d="M800.162,-37C809.755,-37 819.272,-37 828.368,-37"/>
<polygon fill="midnightblue" stroke="midnightblue" points="800.154,-33.5001 790.154,-37 800.154,-40.5001 800.154,-33.5001"/>
</g>
<!-- Node3 -->
<g id="node3" class="node"><title>Node3</title>
<g id="a_node3"><a xlink:href="class_om_1_1_source_1_1_iterator_pair_source.html" target="_top" xlink:title="Om::Source::IteratorPair\lSource\&lt; Operand const\l , OperandDeque::const\l_iterator \&gt;">
<polygon fill="none" stroke="black" points="431.815,-13 431.815,-61 556.185,-61 556.185,-13 431.815,-13"/>
<text text-anchor="start" x="439.815" y="-49" font-family="Helvetica,sans-Serif" font-size="10.00">Om::Source::IteratorPair</text>
<text text-anchor="start" x="439.815" y="-39" font-family="Helvetica,sans-Serif" font-size="10.00">Source&lt; Operand const</text>
<text text-anchor="start" x="439.815" y="-29" font-family="Helvetica,sans-Serif" font-size="10.00"> , OperandDeque::const</text>
<text text-anchor="middle" x="494" y="-19" font-family="Helvetica,sans-Serif" font-size="10.00">_iterator &gt;</text>
</a>
</g>
</g>
<!-- Node3&#45;&gt;Node2 -->
<g id="edge2" class="edge"><title>Node3&#45;&gt;Node2</title>
<path fill="none" stroke="midnightblue" d="M566.244,-37C575.271,-37 584.626,-37 593.97,-37"/>
<polygon fill="midnightblue" stroke="midnightblue" points="566.209,-33.5001 556.209,-37 566.209,-40.5001 566.209,-33.5001"/>
</g>
<!-- Node4 -->
<g id="node4" class="node"><title>Node4</title>
<g id="a_node4"><a xlink:href="class_om_1_1_source_1_1_default_source.html" target="_top" xlink:title="Om::Source::DefaultSource\l\&lt; Operand const , IteratorPair\lSource\&lt; Operand const , OperandDeque\l::const_iterator \&gt; \&gt;">
<polygon fill="none" stroke="black" points="146.691,-47 146.691,-95 345.309,-95 345.309,-47 146.691,-47"/>
<text text-anchor="start" x="154.691" y="-83" font-family="Helvetica,sans-Serif" font-size="10.00">Om::Source::DefaultSource</text>
<text text-anchor="start" x="154.691" y="-73" font-family="Helvetica,sans-Serif" font-size="10.00">&lt; Operand const , IteratorPair</text>
<text text-anchor="start" x="154.691" y="-63" font-family="Helvetica,sans-Serif" font-size="10.00">Source&lt; Operand const , OperandDeque</text>
<text text-anchor="middle" x="246" y="-53" font-family="Helvetica,sans-Serif" font-size="10.00">::const_iterator &gt; &gt;</text>
</a>
</g>
</g>
<!-- Node4&#45;&gt;Node3 -->
<g id="edge3" class="edge"><title>Node4&#45;&gt;Node3</title>
<path fill="none" stroke="midnightblue" d="M355.56,-55.9957C381.582,-52.3993 408.477,-48.682 431.501,-45.4998"/>
<polygon fill="midnightblue" stroke="midnightblue" points="355.067,-52.5306 345.64,-57.3668 356.025,-59.4647 355.067,-52.5306"/>
</g>
<!-- Node5 -->
<g id="node5" class="node"><title>Node5</title>
<g id="a_node5"><a xlink:href="class_om_1_1_source_1_1_source.html" target="_top" xlink:title="Om::Source::Source\l\&lt; Operand const &#160;\&gt;">
<polygon fill="none" stroke="black" points="0.70459,-83 0.70459,-111 107.295,-111 107.295,-83 0.70459,-83"/>
<text text-anchor="start" x="8.70459" y="-99" font-family="Helvetica,sans-Serif" font-size="10.00">Om::Source::Source</text>
<text text-anchor="middle" x="54" y="-89" font-family="Helvetica,sans-Serif" font-size="10.00">&lt; Operand const &gt;</text>
</a>
</g>
</g>
<!-- Node5&#45;&gt;Node4 -->
<g id="edge4" class="edge"><title>Node5&#45;&gt;Node4</title>
<path fill="none" stroke="midnightblue" d="M117.367,-88.4656C126.724,-87.1851 136.563,-85.8387 146.453,-84.4853"/>
<polygon fill="midnightblue" stroke="midnightblue" points="116.854,-85.003 107.421,-89.8266 117.804,-91.9384 116.854,-85.003"/>
</g>
<!-- Node6 -->
<g id="node6" class="node"><title>Node6</title>
<polygon fill="none" stroke="#bfbfbf" points="2.9165,-26 2.9165,-64 105.083,-64 105.083,-26 2.9165,-26"/>
<text text-anchor="start" x="10.9165" y="-52" font-family="Helvetica,sans-Serif" font-size="10.00">std::iterator&lt; std</text>
<text text-anchor="start" x="10.9165" y="-42" font-family="Helvetica,sans-Serif" font-size="10.00">::input_iterator_tag,</text>
<text text-anchor="middle" x="54" y="-32" font-family="Helvetica,sans-Serif" font-size="10.00"> Operand const &gt;</text>
</g>
<!-- Node6&#45;&gt;Node4 -->
<g id="edge5" class="edge"><title>Node6&#45;&gt;Node4</title>
<path fill="none" stroke="midnightblue" d="M115.536,-53.2838C125.468,-54.643 135.981,-56.0817 146.552,-57.5282"/>
<polygon fill="midnightblue" stroke="midnightblue" points="115.8,-49.7874 105.418,-51.8993 114.851,-56.7228 115.8,-49.7874"/>
</g>
<!-- Node7 -->
<g id="node7" class="node"><title>Node7</title>
<g id="a_node7"><a xlink:title="STL iterator class. ">
<polygon fill="none" stroke="#bfbfbf" points="188.422,-0 188.422,-28 303.578,-28 303.578,-0 188.422,-0"/>
<text text-anchor="start" x="196.422" y="-16" font-family="Helvetica,sans-Serif" font-size="10.00">std::deque&lt; T &gt;::const</text>
<text text-anchor="middle" x="246" y="-6" font-family="Helvetica,sans-Serif" font-size="10.00">_iterator</text>
</a>
</g>
</g>
<!-- Node7&#45;&gt;Node3 -->
<g id="edge6" class="edge"><title>Node7&#45;&gt;Node3</title>
<path fill="none" stroke="#9a32cd" stroke-dasharray="5,2" d="M314.006,-17.7917C344.548,-19.7828 381.146,-22.5362 414,-26 419.784,-26.6098 425.796,-27.3156 431.807,-28.0695"/>
<polygon fill="#9a32cd" stroke="#9a32cd" points="314.098,-14.2905 303.895,-17.1458 313.652,-21.2763 314.098,-14.2905"/>
<text text-anchor="middle" x="389" y="-38" font-family="Helvetica,sans-Serif" font-size="10.00"> thisEnd</text>
<text text-anchor="middle" x="389" y="-28" font-family="Helvetica,sans-Serif" font-size="10.00">thisCurrent</text>
</g>
</g>
</svg>
