<?xml version="1.0" encoding="UTF-8" standalone="no"?>
<!DOCTYPE svg PUBLIC "-//W3C//DTD SVG 1.1//EN"
 "http://www.w3.org/Graphics/SVG/1.1/DTD/svg11.dtd">
<!-- Generated by graphviz version 2.36.0 (20140111.2315)
 -->
<!-- Title: Om::Writer Pages: 1 -->
<svg width="122pt" height="150pt"
 viewBox="0.00 0.00 122.00 150.00" xmlns="http://www.w3.org/2000/svg" xmlns:xlink="http://www.w3.org/1999/xlink">
<g id="graph0" class="graph" transform="scale(1 1) rotate(0) translate(4 146)">
<title>Om::Writer</title>
<!-- Node1 -->
<g id="node1" class="node"><title>Node1</title>
<polygon fill="#bfbfbf" stroke="black" points="24.9253,-1 24.9253,-19 89.0747,-19 89.0747,-1 24.9253,-1"/>
<text text-anchor="middle" x="57" y="-7" font-family="Helvetica,sans-Serif" font-size="10.00">Om::Writer</text>
</g>
<!-- Node2 -->
<g id="node2" class="node"><title>Node2</title>
<g id="a_node2"><a xlink:href="class_om_1_1_default_consumer.html" target="_top" xlink:title="Om::DefaultConsumer\l\&lt; Writer, Consumer \&gt;">
<polygon fill="none" stroke="black" points="-0.73877,-57 -0.73877,-85 114.739,-85 114.739,-57 -0.73877,-57"/>
<text text-anchor="start" x="7.26123" y="-73" font-family="Helvetica,sans-Serif" font-size="10.00">Om::DefaultConsumer</text>
<text text-anchor="middle" x="57" y="-63" font-family="Helvetica,sans-Serif" font-size="10.00">&lt; Writer, Consumer &gt;</text>
</a>
</g>
</g>
<!-- Node2&#45;&gt;Node1 -->
<g id="edge1" class="edge"><title>Node2&#45;&gt;Node1</title>
<path fill="none" stroke="midnightblue" d="M57,-46.8856C57,-37.0939 57,-26.3163 57,-19.1534"/>
<polygon fill="midnightblue" stroke="midnightblue" points="53.5001,-46.906 57,-56.906 60.5001,-46.906 53.5001,-46.906"/>
</g>
<!-- Node3 -->
<g id="node3" class="node"><title>Node3</title>
<g id="a_node3"><a xlink:href="class_om_1_1_consumer.html" target="_top" xlink:title="An Element taker; takes at the back. ">
<polygon fill="none" stroke="black" points="15.1035,-123 15.1035,-141 98.8965,-141 98.8965,-123 15.1035,-123"/>
<text text-anchor="middle" x="57" y="-129" font-family="Helvetica,sans-Serif" font-size="10.00">Om::Consumer</text>
</a>
</g>
</g>
<!-- Node3&#45;&gt;Node2 -->
<g id="edge2" class="edge"><title>Node3&#45;&gt;Node2</title>
<path fill="none" stroke="midnightblue" d="M57,-112.654C57,-103.736 57,-93.2225 57,-85.1215"/>
<polygon fill="midnightblue" stroke="midnightblue" points="53.5001,-112.796 57,-122.796 60.5001,-112.796 53.5001,-112.796"/>
</g>
</g>
</svg>
