<?xml version="1.0" encoding="UTF-8" standalone="no"?>
<!DOCTYPE svg PUBLIC "-//W3C//DTD SVG 1.1//EN"
 "http://www.w3.org/Graphics/SVG/1.1/DTD/svg11.dtd">
<!-- Generated by graphviz version 2.30.1 (20130221.2233)
 -->
<!-- Title: Om::Source::CodePointSource&lt; ThisCodeUnitIterator &gt; Pages: 1 -->
<svg width="596pt" height="113pt"
 viewBox="0.00 0.00 596.00 113.00" xmlns="http://www.w3.org/2000/svg" xmlns:xlink="http://www.w3.org/1999/xlink">
<g id="graph0" class="graph" transform="scale(1 1) rotate(0) translate(4 109)">
<title>Om::Source::CodePointSource&lt; ThisCodeUnitIterator &gt;</title>
<!-- Node1 -->
<g id="node1" class="node"><title>Node1</title>
<polygon fill="#bfbfbf" stroke="black" points="434.355,-16 434.355,-48 587.645,-48 587.645,-16 434.355,-16"/>
<text text-anchor="start" x="442.355" y="-34" font-family="Helvetica,sans-Serif" font-size="10.00">Om::Source::CodePointSource</text>
<text text-anchor="middle" x="511" y="-22" font-family="Helvetica,sans-Serif" font-size="10.00">&lt; ThisCodeUnitIterator &gt;</text>
</g>
<!-- Node2 -->
<g id="node2" class="node"><title>Node2</title>
<g id="a_node2"><a xlink:href="class_om_1_1_source_1_1_default_source.html" target="_top" xlink:title="Om::Source::DefaultSource\l\&lt; CodePoint const, CodePointSource\l\&lt; ThisCodeUnitIterator \&gt; \&gt;">
<polygon fill="none" stroke="black" points="146.031,-39 146.031,-83 327.969,-83 327.969,-39 146.031,-39"/>
<text text-anchor="start" x="154.031" y="-69" font-family="Helvetica,sans-Serif" font-size="10.00">Om::Source::DefaultSource</text>
<text text-anchor="start" x="154.031" y="-57" font-family="Helvetica,sans-Serif" font-size="10.00">&lt; CodePoint const, CodePointSource</text>
<text text-anchor="middle" x="237" y="-45" font-family="Helvetica,sans-Serif" font-size="10.00">&lt; ThisCodeUnitIterator &gt; &gt;</text>
</a>
</g>
</g>
<!-- Node2&#45;&gt;Node1 -->
<g id="edge1" class="edge"><title>Node2&#45;&gt;Node1</title>
<path fill="none" stroke="midnightblue" d="M338.369,-50.2989C370.035,-46.9227 404.474,-43.2509 434.135,-40.0885"/>
<polygon fill="midnightblue" stroke="midnightblue" points="337.767,-46.8432 328.194,-51.3837 338.509,-53.8037 337.767,-46.8432"/>
</g>
<!-- Node3 -->
<g id="node3" class="node"><title>Node3</title>
<g id="a_node3"><a xlink:href="class_om_1_1_source_1_1_source.html" target="_top" xlink:title="Om::Source::Source\l\&lt; CodePoint const &#160;\&gt;">
<polygon fill="none" stroke="black" points="0.692383,-73 0.692383,-105 107.308,-105 107.308,-73 0.692383,-73"/>
<text text-anchor="start" x="8.69238" y="-91" font-family="Helvetica,sans-Serif" font-size="10.00">Om::Source::Source</text>
<text text-anchor="middle" x="54" y="-79" font-family="Helvetica,sans-Serif" font-size="10.00">&lt; CodePoint const &gt;</text>
</a>
</g>
</g>
<!-- Node3&#45;&gt;Node2 -->
<g id="edge2" class="edge"><title>Node3&#45;&gt;Node2</title>
<path fill="none" stroke="midnightblue" d="M117.515,-79.3292C126.696,-77.9088 136.304,-76.4225 145.906,-74.9372"/>
<polygon fill="midnightblue" stroke="midnightblue" points="116.7,-75.9135 107.353,-80.9012 117.77,-82.8312 116.7,-75.9135"/>
</g>
<!-- Node4 -->
<g id="node4" class="node"><title>Node4</title>
<polygon fill="none" stroke="#bfbfbf" points="2.9165,-10 2.9165,-54 105.083,-54 105.083,-10 2.9165,-10"/>
<text text-anchor="start" x="10.9165" y="-40" font-family="Helvetica,sans-Serif" font-size="10.00">std::iterator&lt; std</text>
<text text-anchor="start" x="10.9165" y="-28" font-family="Helvetica,sans-Serif" font-size="10.00">::input_iterator_tag,</text>
<text text-anchor="middle" x="54" y="-16" font-family="Helvetica,sans-Serif" font-size="10.00"> CodePoint const &gt;</text>
</g>
<!-- Node4&#45;&gt;Node2 -->
<g id="edge3" class="edge"><title>Node4&#45;&gt;Node2</title>
<path fill="none" stroke="midnightblue" d="M115.447,-41.6848C125.276,-43.2598 135.64,-44.9202 145.995,-46.5793"/>
<polygon fill="midnightblue" stroke="midnightblue" points="115.846,-38.2043 105.419,-40.0781 114.739,-45.1162 115.846,-38.2043"/>
</g>
<!-- Node5 -->
<g id="node5" class="node"><title>Node5</title>
<polygon fill="none" stroke="#bfbfbf" points="182.87,-0 182.87,-20 291.13,-20 291.13,-0 182.87,-0"/>
<text text-anchor="middle" x="237" y="-6" font-family="Helvetica,sans-Serif" font-size="10.00">ThisCodeUnitIterator</text>
</g>
<!-- Node5&#45;&gt;Node1 -->
<g id="edge4" class="edge"><title>Node5&#45;&gt;Node1</title>
<path fill="none" stroke="#9a32cd" stroke-dasharray="5,2" d="M301.729,-10.6716C335.716,-11.4921 378.208,-13.255 416,-17 421.92,-17.5867 428.034,-18.305 434.171,-19.1063"/>
<polygon fill="#9a32cd" stroke="#9a32cd" points="301.543,-7.16672 291.468,-10.446 301.389,-14.165 301.543,-7.16672"/>
<text text-anchor="middle" x="381" y="-31" font-family="Helvetica,sans-Serif" font-size="10.00"> thisInputEnd</text>
<text text-anchor="middle" x="381" y="-19" font-family="Helvetica,sans-Serif" font-size="10.00">thisInputIterator</text>
</g>
</g>
</svg>
