<?xml version="1.0" encoding="UTF-8" standalone="no"?>
<!DOCTYPE svg PUBLIC "-//W3C//DTD SVG 1.1//EN"
 "http://www.w3.org/Graphics/SVG/1.1/DTD/svg11.dtd">
<!-- Generated by graphviz version 2.36.0 (20140111.2315)
 -->
<!-- Title: Om::Expression::FormRange&lt; Form const &#160;&gt; Pages: 1 -->
<svg width="962pt" height="119pt"
 viewBox="0.00 0.00 962.00 119.00" xmlns="http://www.w3.org/2000/svg" xmlns:xlink="http://www.w3.org/1999/xlink">
<g id="graph0" class="graph" transform="scale(1 1) rotate(0) translate(4 115)">
<title>Om::Expression::FormRange&lt; Form const &#160;&gt;</title>
<!-- Node1 -->
<g id="node1" class="node"><title>Node1</title>
<polygon fill="#bfbfbf" stroke="black" points="808.256,-23 808.256,-51 953.744,-51 953.744,-23 808.256,-23"/>
<text text-anchor="start" x="816.256" y="-39" font-family="Helvetica,sans-Serif" font-size="10.00">Om::Expression::FormRange</text>
<text text-anchor="middle" x="881" y="-29" font-family="Helvetica,sans-Serif" font-size="10.00">&lt; Form const &gt;</text>
</g>
<!-- Node2 -->
<g id="node2" class="node"><title>Node2</title>
<g id="a_node2"><a xlink:href="class_om_1_1_source_1_1_collection_front_source.html" target="_top" xlink:title="Om::Source::CollectionFront\lSource\&lt; Form const, FormDeque\l::const_iterator \&gt;">
<polygon fill="none" stroke="black" points="604.667,-18 604.667,-56 769.333,-56 769.333,-18 604.667,-18"/>
<text text-anchor="start" x="612.667" y="-44" font-family="Helvetica,sans-Serif" font-size="10.00">Om::Source::CollectionFront</text>
<text text-anchor="start" x="612.667" y="-34" font-family="Helvetica,sans-Serif" font-size="10.00">Source&lt; Form const, FormDeque</text>
<text text-anchor="middle" x="687" y="-24" font-family="Helvetica,sans-Serif" font-size="10.00">::const_iterator &gt;</text>
</a>
</g>
</g>
<!-- Node2&#45;&gt;Node1 -->
<g id="edge1" class="edge"><title>Node2&#45;&gt;Node1</title>
<path fill="none" stroke="midnightblue" d="M779.441,-37C789.088,-37 798.798,-37 808.178,-37"/>
<polygon fill="midnightblue" stroke="midnightblue" points="779.425,-33.5001 769.425,-37 779.425,-40.5001 779.425,-33.5001"/>
</g>
<!-- Node3 -->
<g id="node3" class="node"><title>Node3</title>
<g id="a_node3"><a xlink:href="class_om_1_1_source_1_1_iterator_pair_source.html" target="_top" xlink:title="Om::Source::IteratorPair\lSource\&lt; Form const , FormDeque\l::const_iterator \&gt;">
<polygon fill="none" stroke="black" points="398.277,-18 398.277,-56 565.723,-56 565.723,-18 398.277,-18"/>
<text text-anchor="start" x="406.277" y="-44" font-family="Helvetica,sans-Serif" font-size="10.00">Om::Source::IteratorPair</text>
<text text-anchor="start" x="406.277" y="-34" font-family="Helvetica,sans-Serif" font-size="10.00">Source&lt; Form const , FormDeque</text>
<text text-anchor="middle" x="482" y="-24" font-family="Helvetica,sans-Serif" font-size="10.00">::const_iterator &gt;</text>
</a>
</g>
</g>
<!-- Node3&#45;&gt;Node2 -->
<g id="edge2" class="edge"><title>Node3&#45;&gt;Node2</title>
<path fill="none" stroke="midnightblue" d="M576.065,-37C585.518,-37 595.07,-37 604.39,-37"/>
<polygon fill="midnightblue" stroke="midnightblue" points="575.861,-33.5001 565.861,-37 575.861,-40.5001 575.861,-33.5001"/>
</g>
<!-- Node4 -->
<g id="node4" class="node"><title>Node4</title>
<g id="a_node4"><a xlink:href="class_om_1_1_source_1_1_default_source.html" target="_top" xlink:title="Om::Source::DefaultSource\l\&lt; Form const , IteratorPairSource\l\&lt; Form const , FormDeque::const\l_iterator \&gt; \&gt;">
<polygon fill="none" stroke="black" points="146.391,-47 146.391,-95 311.609,-95 311.609,-47 146.391,-47"/>
<text text-anchor="start" x="154.391" y="-83" font-family="Helvetica,sans-Serif" font-size="10.00">Om::Source::DefaultSource</text>
<text text-anchor="start" x="154.391" y="-73" font-family="Helvetica,sans-Serif" font-size="10.00">&lt; Form const , IteratorPairSource</text>
<text text-anchor="start" x="154.391" y="-63" font-family="Helvetica,sans-Serif" font-size="10.00">&lt; Form const , FormDeque::const</text>
<text text-anchor="middle" x="229" y="-53" font-family="Helvetica,sans-Serif" font-size="10.00">_iterator &gt; &gt;</text>
</a>
</g>
</g>
<!-- Node4&#45;&gt;Node3 -->
<g id="edge3" class="edge"><title>Node4&#45;&gt;Node3</title>
<path fill="none" stroke="midnightblue" d="M322,-58.5378C346.871,-55.1689 373.636,-51.5433 397.982,-48.2454"/>
<polygon fill="midnightblue" stroke="midnightblue" points="321.279,-55.1034 311.839,-59.9142 322.219,-62.0401 321.279,-55.1034"/>
</g>
<!-- Node5 -->
<g id="node5" class="node"><title>Node5</title>
<g id="a_node5"><a xlink:href="class_om_1_1_source_1_1_source.html" target="_top" xlink:title="Om::Source::Source\l\&lt; Form const &#160;\&gt;">
<polygon fill="none" stroke="black" points="0.70459,-83 0.70459,-111 107.295,-111 107.295,-83 0.70459,-83"/>
<text text-anchor="start" x="8.70459" y="-99" font-family="Helvetica,sans-Serif" font-size="10.00">Om::Source::Source</text>
<text text-anchor="middle" x="54" y="-89" font-family="Helvetica,sans-Serif" font-size="10.00">&lt; Form const &gt;</text>
</a>
</g>
</g>
<!-- Node5&#45;&gt;Node4 -->
<g id="edge4" class="edge"><title>Node5&#45;&gt;Node4</title>
<path fill="none" stroke="midnightblue" d="M117.329,-87.6326C126.672,-86.2285 136.424,-84.7629 146.098,-83.3089"/>
<polygon fill="midnightblue" stroke="midnightblue" points="116.744,-84.1812 107.375,-89.1286 117.784,-91.1034 116.744,-84.1812"/>
</g>
<!-- Node6 -->
<g id="node6" class="node"><title>Node6</title>
<polygon fill="none" stroke="#bfbfbf" points="2.9165,-26 2.9165,-64 105.083,-64 105.083,-26 2.9165,-26"/>
<text text-anchor="start" x="10.9165" y="-52" font-family="Helvetica,sans-Serif" font-size="10.00">std::iterator&lt; std</text>
<text text-anchor="start" x="10.9165" y="-42" font-family="Helvetica,sans-Serif" font-size="10.00">::input_iterator_tag,</text>
<text text-anchor="middle" x="54" y="-32" font-family="Helvetica,sans-Serif" font-size="10.00"> Form const &gt;</text>
</g>
<!-- Node6&#45;&gt;Node4 -->
<g id="edge5" class="edge"><title>Node6&#45;&gt;Node4</title>
<path fill="none" stroke="midnightblue" d="M115.607,-54.1085C125.498,-55.595 135.886,-57.1563 146.186,-58.7043"/>
<polygon fill="midnightblue" stroke="midnightblue" points="115.913,-50.6153 105.504,-52.5902 114.873,-57.5376 115.913,-50.6153"/>
</g>
<!-- Node7 -->
<g id="node7" class="node"><title>Node7</title>
<g id="a_node7"><a xlink:title="STL iterator class. ">
<polygon fill="none" stroke="#bfbfbf" points="171.422,-0 171.422,-28 286.578,-28 286.578,-0 171.422,-0"/>
<text text-anchor="start" x="179.422" y="-16" font-family="Helvetica,sans-Serif" font-size="10.00">std::deque&lt; T &gt;::const</text>
<text text-anchor="middle" x="229" y="-6" font-family="Helvetica,sans-Serif" font-size="10.00">_iterator</text>
</a>
</g>
</g>
<!-- Node7&#45;&gt;Node3 -->
<g id="edge6" class="edge"><title>Node7&#45;&gt;Node3</title>
<path fill="none" stroke="#9a32cd" stroke-dasharray="5,2" d="M296.781,-18.9304C322.771,-20.9571 352.791,-23.4305 380,-26 385.883,-26.5555 391.955,-27.154 398.067,-27.7748"/>
<polygon fill="#9a32cd" stroke="#9a32cd" points="296.9,-15.4293 286.66,-18.1477 296.36,-22.4084 296.9,-15.4293"/>
<text text-anchor="middle" x="355" y="-38" font-family="Helvetica,sans-Serif" font-size="10.00"> thisEnd</text>
<text text-anchor="middle" x="355" y="-28" font-family="Helvetica,sans-Serif" font-size="10.00">thisCurrent</text>
</g>
</g>
</svg>
