<?xml version="1.0" encoding="UTF-8" standalone="no"?>
<!DOCTYPE svg PUBLIC "-//W3C//DTD SVG 1.1//EN"
 "http://www.w3.org/Graphics/SVG/1.1/DTD/svg11.dtd">
<!-- Generated by graphviz version 2.34.0 (20130907.0228)
 -->
<!-- Title: Om::DefaultGiveable&lt; ThisImplementation, ThisInterface &gt; Pages: 1 -->
<svg width="1138pt" height="64pt"
 viewBox="0.00 0.00 1138.00 64.00" xmlns="http://www.w3.org/2000/svg" xmlns:xlink="http://www.w3.org/1999/xlink">
<g id="graph0" class="graph" transform="scale(1 1) rotate(0) translate(4 60)">
<title>Om::DefaultGiveable&lt; ThisImplementation, ThisInterface &gt;</title>
<!-- Node1 -->
<g id="node1" class="node"><title>Node1</title>
<polygon fill="#bfbfbf" stroke="black" points="487.759,-6 487.759,-50 602.241,-50 602.241,-6 487.759,-6"/>
<text text-anchor="start" x="495.759" y="-36" font-family="Helvetica,sans-Serif" font-size="10.00">Om::DefaultGiveable</text>
<text text-anchor="start" x="495.759" y="-24" font-family="Helvetica,sans-Serif" font-size="10.00">&lt; ThisImplementation,</text>
<text text-anchor="middle" x="545" y="-12" font-family="Helvetica,sans-Serif" font-size="10.00"> ThisInterface &gt;</text>
</g>
<!-- Node5 -->
<g id="node5" class="node"><title>Node5</title>
<g id="a_node5"><a xlink:href="class_om_1_1_default_consumer.html" target="_top" xlink:title="DefaultConsumer\&lt; ThisImplementation,\l DefaultGiveable\&lt; ThisImplementation,\l ThisInterface \&gt; \&gt;">
<polygon fill="none" stroke="black" points="637.853,-6 637.853,-50 830.147,-50 830.147,-6 637.853,-6"/>
<text text-anchor="start" x="645.853" y="-36" font-family="Helvetica,sans-Serif" font-size="10.00">DefaultConsumer&lt; ThisImplementation,</text>
<text text-anchor="start" x="645.853" y="-24" font-family="Helvetica,sans-Serif" font-size="10.00"> DefaultGiveable&lt; ThisImplementation,</text>
<text text-anchor="middle" x="734" y="-12" font-family="Helvetica,sans-Serif" font-size="10.00"> ThisInterface &gt; &gt;</text>
</a>
</g>
</g>
<!-- Node1&#45;&gt;Node5 -->
<g id="edge4" class="edge"><title>Node1&#45;&gt;Node5</title>
<path fill="none" stroke="midnightblue" d="M612.523,-28C620.691,-28 629.159,-28 637.647,-28"/>
<polygon fill="midnightblue" stroke="midnightblue" points="612.36,-24.5001 602.36,-28 612.36,-31.5001 612.36,-24.5001"/>
</g>
<!-- Node2 -->
<g id="node2" class="node"><title>Node2</title>
<g id="a_node2"><a xlink:href="class_om_1_1_default_moveable.html" target="_top" xlink:title="Om::DefaultMoveable\l\&lt; ThisImplementation,\l DefaultCopyable\&lt; ThisImplementation,\l ThisInterface \&gt; \&gt;">
<polygon fill="none" stroke="black" points="260.402,-0 260.402,-56 451.598,-56 451.598,-0 260.402,-0"/>
<text text-anchor="start" x="268.402" y="-42" font-family="Helvetica,sans-Serif" font-size="10.00">Om::DefaultMoveable</text>
<text text-anchor="start" x="268.402" y="-30" font-family="Helvetica,sans-Serif" font-size="10.00">&lt; ThisImplementation,</text>
<text text-anchor="start" x="268.402" y="-18" font-family="Helvetica,sans-Serif" font-size="10.00"> DefaultCopyable&lt; ThisImplementation,</text>
<text text-anchor="middle" x="356" y="-6" font-family="Helvetica,sans-Serif" font-size="10.00"> ThisInterface &gt; &gt;</text>
</a>
</g>
</g>
<!-- Node2&#45;&gt;Node1 -->
<g id="edge1" class="edge"><title>Node2&#45;&gt;Node1</title>
<path fill="none" stroke="midnightblue" d="M462.142,-28C470.854,-28 479.43,-28 487.559,-28"/>
<polygon fill="midnightblue" stroke="midnightblue" points="461.87,-24.5001 451.87,-28 461.87,-31.5001 461.87,-24.5001"/>
</g>
<!-- Node3 -->
<g id="node3" class="node"><title>Node3</title>
<g id="a_node3"><a xlink:href="class_om_1_1_default_copyable.html" target="_top" xlink:title="A partial implementation of Copyable. ">
<polygon fill="none" stroke="black" points="109.759,-6 109.759,-50 224.241,-50 224.241,-6 109.759,-6"/>
<text text-anchor="start" x="117.759" y="-36" font-family="Helvetica,sans-Serif" font-size="10.00">Om::DefaultCopyable</text>
<text text-anchor="start" x="117.759" y="-24" font-family="Helvetica,sans-Serif" font-size="10.00">&lt; ThisImplementation,</text>
<text text-anchor="middle" x="167" y="-12" font-family="Helvetica,sans-Serif" font-size="10.00"> ThisInterface &gt;</text>
</a>
</g>
</g>
<!-- Node3&#45;&gt;Node2 -->
<g id="edge2" class="edge"><title>Node3&#45;&gt;Node2</title>
<path fill="none" stroke="midnightblue" d="M234.445,-28C242.86,-28 251.595,-28 260.343,-28"/>
<polygon fill="midnightblue" stroke="midnightblue" points="234.36,-24.5001 224.36,-28 234.36,-31.5001 234.36,-24.5001"/>
</g>
<!-- Node4 -->
<g id="node4" class="node"><title>Node4</title>
<polygon fill="none" stroke="#bfbfbf" points="0.0986328,-18 0.0986328,-38 73.9014,-38 73.9014,-18 0.0986328,-18"/>
<text text-anchor="middle" x="37" y="-24" font-family="Helvetica,sans-Serif" font-size="10.00">ThisInterface</text>
</g>
<!-- Node4&#45;&gt;Node3 -->
<g id="edge3" class="edge"><title>Node4&#45;&gt;Node3</title>
<path fill="none" stroke="midnightblue" d="M84.1974,-28C92.47,-28 101.174,-28 109.693,-28"/>
<polygon fill="midnightblue" stroke="midnightblue" points="83.9958,-24.5001 73.9958,-28 83.9957,-31.5001 83.9958,-24.5001"/>
</g>
<!-- Node6 -->
<g id="node6" class="node"><title>Node6</title>
<g id="a_node6"><a xlink:href="class_om_1_1_default_program.html" target="_top" xlink:title="A partial implementation of Program. ">
<polygon fill="none" stroke="black" points="865.759,-6 865.759,-50 980.241,-50 980.241,-6 865.759,-6"/>
<text text-anchor="start" x="873.759" y="-36" font-family="Helvetica,sans-Serif" font-size="10.00">Om::DefaultProgram</text>
<text text-anchor="start" x="873.759" y="-24" font-family="Helvetica,sans-Serif" font-size="10.00">&lt; ThisImplementation,</text>
<text text-anchor="middle" x="923" y="-12" font-family="Helvetica,sans-Serif" font-size="10.00"> ThisInterface &gt;</text>
</a>
</g>
</g>
<!-- Node5&#45;&gt;Node6 -->
<g id="edge5" class="edge"><title>Node5&#45;&gt;Node6</title>
<path fill="none" stroke="midnightblue" d="M840.57,-28C849.179,-28 857.65,-28 865.683,-28"/>
<polygon fill="midnightblue" stroke="midnightblue" points="840.417,-24.5001 830.417,-28 840.417,-31.5001 840.417,-24.5001"/>
</g>
<!-- Node7 -->
<g id="node7" class="node"><title>Node7</title>
<g id="a_node7"><a xlink:href="class_om_1_1_default_element.html" target="_top" xlink:title="A partial implementation of Element. ">
<polygon fill="none" stroke="black" points="1015.76,-6 1015.76,-50 1130.24,-50 1130.24,-6 1015.76,-6"/>
<text text-anchor="start" x="1023.76" y="-36" font-family="Helvetica,sans-Serif" font-size="10.00">Om::DefaultElement</text>
<text text-anchor="start" x="1023.76" y="-24" font-family="Helvetica,sans-Serif" font-size="10.00">&lt; ThisImplementation,</text>
<text text-anchor="middle" x="1073" y="-12" font-family="Helvetica,sans-Serif" font-size="10.00"> ThisInterface &gt;</text>
</a>
</g>
</g>
<!-- Node6&#45;&gt;Node7 -->
<g id="edge6" class="edge"><title>Node6&#45;&gt;Node7</title>
<path fill="none" stroke="midnightblue" d="M990.413,-28C998.719,-28 1007.15,-28 1015.29,-28"/>
<polygon fill="midnightblue" stroke="midnightblue" points="990.375,-24.5001 980.375,-28 990.375,-31.5001 990.375,-24.5001"/>
</g>
</g>
</svg>
