<?xml version="1.0" encoding="UTF-8" standalone="no"?>
<!DOCTYPE svg PUBLIC "-//W3C//DTD SVG 1.1//EN"
 "http://www.w3.org/Graphics/SVG/1.1/DTD/svg11.dtd">
<!-- Generated by graphviz version 2.36.0 (20140111.2315)
 -->
<!-- Title: Om::Taker&lt; ThisImplementation &gt; Pages: 1 -->
<svg width="796pt" height="138pt"
 viewBox="0.00 0.00 796.00 138.00" xmlns="http://www.w3.org/2000/svg" xmlns:xlink="http://www.w3.org/1999/xlink">
<g id="graph0" class="graph" transform="scale(1 1) rotate(0) translate(4 134)">
<title>Om::Taker&lt; ThisImplementation &gt;</title>
<!-- Node1 -->
<g id="node1" class="node"><title>Node1</title>
<g id="a_node1"><a xlink:title="An object that can take (copy or swap) another of the same type.">
<polygon fill="#bfbfbf" stroke="black" points="-0.219727,-52 -0.219727,-70 166.22,-70 166.22,-52 -0.219727,-52"/>
<text text-anchor="middle" x="83" y="-58" font-family="Helvetica,sans-Serif" font-size="10.00">Om::Taker&lt; ThisImplementation &gt;</text>
</a>
</g>
</g>
<!-- Node2 -->
<g id="node2" class="node"><title>Node2</title>
<g id="a_node2"><a xlink:href="class_om_1_1_language_1_1_default_program.html" target="_top" xlink:title=" ">
<polygon fill="none" stroke="black" points="202.745,-95 202.745,-123 387.255,-123 387.255,-95 202.745,-95"/>
<text text-anchor="start" x="210.745" y="-111" font-family="Helvetica,sans-Serif" font-size="10.00">DefaultProgram&lt; ThisImplementation,</text>
<text text-anchor="middle" x="295" y="-101" font-family="Helvetica,sans-Serif" font-size="10.00"> Om::Language::Atom &gt;</text>
</a>
</g>
</g>
<!-- Node1&#45;&gt;Node2 -->
<g id="edge1" class="edge"><title>Node1&#45;&gt;Node2</title>
<path fill="none" stroke="midnightblue" d="M133.588,-72.3345C163.147,-79.0908 200.917,-87.7239 232.381,-94.9157"/>
<polygon fill="midnightblue" stroke="midnightblue" points="134.028,-68.8448 123.499,-70.0284 132.468,-75.6688 134.028,-68.8448"/>
</g>
<!-- Node5 -->
<g id="node5" class="node"><title>Node5</title>
<g id="a_node5"><a xlink:href="class_om_1_1_language_1_1_default_program.html" target="_top" xlink:title=" ">
<polygon fill="none" stroke="black" points="202.745,-47 202.745,-75 387.255,-75 387.255,-47 202.745,-47"/>
<text text-anchor="start" x="210.745" y="-63" font-family="Helvetica,sans-Serif" font-size="10.00">DefaultProgram&lt; ThisImplementation,</text>
<text text-anchor="middle" x="295" y="-53" font-family="Helvetica,sans-Serif" font-size="10.00"> Om::Language::Element &gt;</text>
</a>
</g>
</g>
<!-- Node1&#45;&gt;Node5 -->
<g id="edge4" class="edge"><title>Node1&#45;&gt;Node5</title>
<path fill="none" stroke="midnightblue" d="M176.462,-61C185.095,-61 193.843,-61 202.467,-61"/>
<polygon fill="midnightblue" stroke="midnightblue" points="176.395,-57.5001 166.395,-61 176.395,-64.5001 176.395,-57.5001"/>
</g>
<!-- Node7 -->
<g id="node7" class="node"><title>Node7</title>
<g id="a_node7"><a xlink:href="class_om_1_1_language_1_1_default_program.html" target="_top" xlink:title="A partial implementation of Program.">
<polygon fill="none" stroke="black" points="216.128,-0 216.128,-28 373.872,-28 373.872,-0 216.128,-0"/>
<text text-anchor="start" x="224.128" y="-16" font-family="Helvetica,sans-Serif" font-size="10.00">Om::Language::DefaultProgram</text>
<text text-anchor="middle" x="295" y="-6" font-family="Helvetica,sans-Serif" font-size="10.00">&lt; ThisImplementation &gt;</text>
</a>
</g>
</g>
<!-- Node1&#45;&gt;Node7 -->
<g id="edge6" class="edge"><title>Node1&#45;&gt;Node7</title>
<path fill="none" stroke="midnightblue" d="M134.436,-49.7119C163.531,-43.2001 200.367,-34.956 231.313,-28.0299"/>
<polygon fill="midnightblue" stroke="midnightblue" points="133.484,-46.3383 124.49,-51.9379 135.013,-53.1693 133.484,-46.3383"/>
</g>
<!-- Node3 -->
<g id="node3" class="node"><title>Node3</title>
<g id="a_node3"><a xlink:href="class_om_1_1_language_1_1_default_element.html" target="_top" xlink:title=" ">
<polygon fill="none" stroke="black" points="437.958,-92 437.958,-130 594.042,-130 594.042,-92 437.958,-92"/>
<text text-anchor="start" x="445.958" y="-118" font-family="Helvetica,sans-Serif" font-size="10.00">Om::Language::DefaultElement</text>
<text text-anchor="start" x="445.958" y="-108" font-family="Helvetica,sans-Serif" font-size="10.00">&lt; ThisImplementation, Om</text>
<text text-anchor="middle" x="516" y="-98" font-family="Helvetica,sans-Serif" font-size="10.00">::Language::Atom &gt;</text>
</a>
</g>
</g>
<!-- Node2&#45;&gt;Node3 -->
<g id="edge2" class="edge"><title>Node2&#45;&gt;Node3</title>
<path fill="none" stroke="midnightblue" d="M397.576,-109.928C411.087,-110.051 424.759,-110.176 437.764,-110.295"/>
<polygon fill="midnightblue" stroke="midnightblue" points="397.321,-106.425 387.29,-109.834 397.257,-113.425 397.321,-106.425"/>
</g>
<!-- Node4 -->
<g id="node4" class="node"><title>Node4</title>
<g id="a_node4"><a xlink:href="class_om_1_1_language_1_1_default_atom.html" target="_top" xlink:title="A partial implementation of Atom.">
<polygon fill="none" stroke="black" points="644.631,-97 644.631,-125 787.369,-125 787.369,-97 644.631,-97"/>
<text text-anchor="start" x="652.631" y="-113" font-family="Helvetica,sans-Serif" font-size="10.00">Om::Language::DefaultAtom</text>
<text text-anchor="middle" x="716" y="-103" font-family="Helvetica,sans-Serif" font-size="10.00">&lt; ThisImplementation &gt;</text>
</a>
</g>
</g>
<!-- Node3&#45;&gt;Node4 -->
<g id="edge3" class="edge"><title>Node3&#45;&gt;Node4</title>
<path fill="none" stroke="midnightblue" d="M604.333,-111C617.786,-111 631.531,-111 644.554,-111"/>
<polygon fill="midnightblue" stroke="midnightblue" points="604.119,-107.5 594.119,-111 604.119,-114.5 604.119,-107.5"/>
</g>
<!-- Node6 -->
<g id="node6" class="node"><title>Node6</title>
<g id="a_node6"><a xlink:href="class_om_1_1_language_1_1_default_element.html" target="_top" xlink:title="A partial implementation of Element.">
<polygon fill="none" stroke="black" points="424.248,-45 424.248,-73 607.752,-73 607.752,-45 424.248,-45"/>
<text text-anchor="start" x="432.248" y="-61" font-family="Helvetica,sans-Serif" font-size="10.00">Om::Language::DefaultElement</text>
<text text-anchor="middle" x="516" y="-51" font-family="Helvetica,sans-Serif" font-size="10.00">&lt; ThisImplementation, ThisInterface &gt;</text>
</a>
</g>
</g>
<!-- Node5&#45;&gt;Node6 -->
<g id="edge5" class="edge"><title>Node5&#45;&gt;Node6</title>
<path fill="none" stroke="midnightblue" d="M397.359,-60.0743C406.317,-59.9925 415.348,-59.9101 424.21,-59.8291"/>
<polygon fill="midnightblue" stroke="midnightblue" points="397.257,-56.575 387.29,-60.1663 397.321,-63.5747 397.257,-56.575"/>
</g>
</g>
</svg>
