<?xml version="1.0" encoding="UTF-8" standalone="no"?>
<!DOCTYPE svg PUBLIC "-//W3C//DTD SVG 1.1//EN"
 "http://www.w3.org/Graphics/SVG/1.1/DTD/svg11.dtd">
<!-- Generated by graphviz version 2.34.0 (20130907.0228)
 -->
<!-- Title: Om::System Pages: 1 -->
<svg width="843pt" height="1400pt"
 viewBox="0.00 0.00 843.00 1400.00" xmlns="http://www.w3.org/2000/svg" xmlns:xlink="http://www.w3.org/1999/xlink">
<g id="graph0" class="graph" transform="scale(1 1) rotate(0) translate(4 1396)">
<title>Om::System</title>
<!-- Node1 -->
<g id="node1" class="node"><title>Node1</title>
<polygon fill="#bfbfbf" stroke="black" points="38.4976,-1 38.4976,-21 109.502,-21 109.502,-1 38.4976,-1"/>
<text text-anchor="middle" x="74" y="-7" font-family="Helvetica,sans-Serif" font-size="10.00">Om::System</text>
</g>
<!-- Node2 -->
<g id="node2" class="node"><title>Node2</title>
<g id="a_node2"><a xlink:href="class_om_1_1_translator.html" target="_top" xlink:title="An Operator lookup for use by an Evaluator. ">
<polygon fill="none" stroke="black" points="-0.156738,-1245 -0.156738,-1265 82.1567,-1265 82.1567,-1245 -0.156738,-1245"/>
<text text-anchor="middle" x="41" y="-1251" font-family="Helvetica,sans-Serif" font-size="10.00">Om::Translator</text>
</a>
</g>
</g>
<!-- Node2&#45;&gt;Node1 -->
<g id="edge1" class="edge"><title>Node2&#45;&gt;Node1</title>
<path fill="none" stroke="midnightblue" d="M41,-1234.29C41,-1218.1 41,-1194.56 41,-1174 41,-1174 41,-1174 41,-86 41,-60.9611 56.9542,-34.9659 66.6762,-21.4496"/>
<polygon fill="midnightblue" stroke="midnightblue" points="37.5001,-1234.64 41,-1244.64 44.5001,-1234.64 37.5001,-1234.64"/>
</g>
<!-- Node45 -->
<g id="node45" class="node"><title>Node45</title>
<g id="a_node45"><a xlink:href="class_om_1_1_evaluator.html" target="_top" xlink:title="A Consumer that evaluates Program instances. ">
<polygon fill="none" stroke="black" points="118.044,-1163 118.044,-1183 197.956,-1183 197.956,-1163 118.044,-1163"/>
<text text-anchor="middle" x="158" y="-1169" font-family="Helvetica,sans-Serif" font-size="10.00">Om::Evaluator</text>
</a>
</g>
</g>
<!-- Node2&#45;&gt;Node45 -->
<g id="edge52" class="edge"><title>Node2&#45;&gt;Node45</title>
<path fill="none" stroke="#9a32cd" stroke-dasharray="5,2" d="M56.6742,-1237.48C66.0789,-1228.13 78.5941,-1216.62 91.0117,-1208 105.37,-1198.04 123.051,-1189.19 136.642,-1183.02"/>
<polygon fill="#9a32cd" stroke="#9a32cd" points="54.0797,-1235.13 49.5763,-1244.72 59.0773,-1240.03 54.0797,-1235.13"/>
<text text-anchor="middle" x="123.494" y="-1210" font-family="Helvetica,sans-Serif" font-size="10.00"> thisTranslator</text>
</g>
<!-- Node3 -->
<g id="node3" class="node"><title>Node3</title>
<polygon fill="none" stroke="#bfbfbf" points="82.4497,-71 82.4497,-103 201.55,-103 201.55,-71 82.4497,-71"/>
<text text-anchor="start" x="90.4497" y="-89" font-family="Helvetica,sans-Serif" font-size="10.00">std::map&lt; std::string,</text>
<text text-anchor="middle" x="142" y="-77" font-family="Helvetica,sans-Serif" font-size="10.00"> void(*)(Evaluation &amp;) &gt;</text>
</g>
<!-- Node3&#45;&gt;Node1 -->
<g id="edge2" class="edge"><title>Node3&#45;&gt;Node1</title>
<path fill="none" stroke="#9a32cd" stroke-dasharray="5,2" d="M121.064,-63.2166C108.078,-49.0846 92.093,-31.6894 82.4919,-21.2412"/>
<polygon fill="#9a32cd" stroke="#9a32cd" points="118.567,-65.6721 127.91,-70.6672 123.721,-60.9357 118.567,-65.6721"/>
<text text-anchor="middle" x="129.896" y="-42" font-family="Helvetica,sans-Serif" font-size="10.00"> thisMap</text>
</g>
<!-- Node4 -->
<g id="node4" class="node"><title>Node4</title>
<g id="a_node4"><a xlink:title="STL class. ">
<polygon fill="none" stroke="#bfbfbf" points="125.325,-589 125.325,-609 184.675,-609 184.675,-589 125.325,-589"/>
<text text-anchor="middle" x="155" y="-595" font-family="Helvetica,sans-Serif" font-size="10.00">std::string</text>
</a>
</g>
</g>
<!-- Node4&#45;&gt;Node3 -->
<g id="edge3" class="edge"><title>Node4&#45;&gt;Node3</title>
<path fill="none" stroke="#9a32cd" stroke-dasharray="5,2" d="M149.79,-579.005C146.172,-564.151 142,-542.918 142,-524 142,-524 142,-524 142,-162 142,-141.573 142,-117.974 142,-103.023"/>
<polygon fill="#9a32cd" stroke="#9a32cd" points="146.476,-580.171 152.369,-588.976 153.253,-578.418 146.476,-580.171"/>
<text text-anchor="middle" x="153.67" y="-334" font-family="Helvetica,sans-Serif" font-size="10.00"> keys</text>
</g>
<!-- Node24 -->
<g id="node24" class="node"><title>Node24</title>
<g id="a_node24"><a xlink:href="class_om_1_1_default_atom.html" target="_top" xlink:title="Om::DefaultAtom\&lt; Operator \&gt;">
<polygon fill="none" stroke="black" points="426.306,-513 426.306,-533 575.694,-533 575.694,-513 426.306,-513"/>
<text text-anchor="middle" x="501" y="-519" font-family="Helvetica,sans-Serif" font-size="10.00">Om::DefaultAtom&lt; Operator &gt;</text>
</a>
</g>
</g>
<!-- Node4&#45;&gt;Node24 -->
<g id="edge34" class="edge"><title>Node4&#45;&gt;Node24</title>
<path fill="none" stroke="#9a32cd" stroke-dasharray="5,2" d="M186.765,-585.358C214.121,-574.942 254.87,-560.544 291.537,-552 335.665,-541.718 385.965,-534.84 426.212,-530.475"/>
<polygon fill="#9a32cd" stroke="#9a32cd" points="185.397,-582.134 177.325,-588.997 187.914,-588.666 185.397,-582.134"/>
<text text-anchor="middle" x="314.231" y="-554" font-family="Helvetica,sans-Serif" font-size="10.00"> thisString</text>
</g>
<!-- Node5 -->
<g id="node5" class="node"><title>Node5</title>
<g id="a_node5"><a xlink:title="STL class. ">
<polygon fill="none" stroke="#bfbfbf" points="106.952,-665 106.952,-697 201.048,-697 201.048,-665 106.952,-665"/>
<text text-anchor="start" x="114.952" y="-683" font-family="Helvetica,sans-Serif" font-size="10.00">std::basic_string&lt;</text>
<text text-anchor="middle" x="154" y="-671" font-family="Helvetica,sans-Serif" font-size="10.00"> char &gt;</text>
</a>
</g>
</g>
<!-- Node5&#45;&gt;Node4 -->
<g id="edge4" class="edge"><title>Node5&#45;&gt;Node4</title>
<path fill="none" stroke="midnightblue" d="M154.315,-654.837C154.51,-639.205 154.749,-620.052 154.887,-609.014"/>
<polygon fill="midnightblue" stroke="midnightblue" points="150.813,-654.91 154.188,-664.953 157.813,-654.997 150.813,-654.91"/>
</g>
<!-- Node6 -->
<g id="node6" class="node"><title>Node6</title>
<g id="a_node6"><a xlink:href="class_om_1_1_evaluation.html" target="_top" xlink:title="The current evaluation. ">
<polygon fill="none" stroke="black" points="169.818,-153 169.818,-173 254.182,-173 254.182,-153 169.818,-153"/>
<text text-anchor="middle" x="212" y="-159" font-family="Helvetica,sans-Serif" font-size="10.00">Om::Evaluation</text>
</a>
</g>
</g>
<!-- Node6&#45;&gt;Node3 -->
<g id="edge5" class="edge"><title>Node6&#45;&gt;Node3</title>
<path fill="none" stroke="#9a32cd" stroke-dasharray="5,2" d="M196.255,-145.356C184.25,-132.664 167.856,-115.333 156.239,-103.053"/>
<polygon fill="#9a32cd" stroke="#9a32cd" points="194.002,-148.067 203.417,-152.926 199.087,-143.256 194.002,-148.067"/>
<text text-anchor="middle" x="207.677" y="-124" font-family="Helvetica,sans-Serif" font-size="10.00"> elements</text>
</g>
<!-- Node7 -->
<g id="node7" class="node"><title>Node7</title>
<g id="a_node7"><a xlink:href="class_om_1_1_expression.html" target="_top" xlink:title="The Expression Program implementation. ">
<polygon fill="none" stroke="black" points="358.434,-223 358.434,-243 445.566,-243 445.566,-223 358.434,-223"/>
<text text-anchor="middle" x="402" y="-229" font-family="Helvetica,sans-Serif" font-size="10.00">Om::Expression</text>
</a>
</g>
</g>
<!-- Node7&#45;&gt;Node6 -->
<g id="edge6" class="edge"><title>Node7&#45;&gt;Node6</title>
<path fill="none" stroke="#9a32cd" stroke-dasharray="5,2" d="M367.247,-219.562C329.691,-206.121 270.747,-185.025 237.335,-173.067"/>
<polygon fill="#9a32cd" stroke="#9a32cd" points="366.175,-222.896 376.769,-222.97 368.534,-216.305 366.175,-222.896"/>
<text text-anchor="middle" x="351.904" y="-194" font-family="Helvetica,sans-Serif" font-size="10.00"> thisExpression</text>
</g>
<!-- Node8 -->
<g id="node8" class="node"><title>Node8</title>
<g id="a_node8"><a xlink:href="class_om_1_1_default_program.html" target="_top" xlink:title="Om::DefaultProgram\l\&lt; Expression \&gt;">
<polygon fill="none" stroke="black" points="706.153,-827 706.153,-859 813.847,-859 813.847,-827 706.153,-827"/>
<text text-anchor="start" x="714.153" y="-845" font-family="Helvetica,sans-Serif" font-size="10.00">Om::DefaultProgram</text>
<text text-anchor="middle" x="760" y="-833" font-family="Helvetica,sans-Serif" font-size="10.00">&lt; Expression &gt;</text>
</a>
</g>
</g>
<!-- Node8&#45;&gt;Node7 -->
<g id="edge7" class="edge"><title>Node8&#45;&gt;Node7</title>
<path fill="none" stroke="midnightblue" d="M771.197,-817.32C777.453,-801.319 784,-779.834 784,-760 784,-760 784,-760 784,-302 784,-267.982 546.159,-245.311 445.82,-237.26"/>
<polygon fill="midnightblue" stroke="midnightblue" points="767.794,-816.392 767.201,-826.97 774.261,-819.07 767.794,-816.392"/>
</g>
<!-- Node9 -->
<g id="node9" class="node"><title>Node9</title>
<g id="a_node9"><a xlink:href="class_om_1_1_default_consumer.html" target="_top" xlink:title="Om::DefaultConsumer\l\&lt; Expression, DefaultGiveable\l\&lt; Expression, Program \&gt; \&gt;">
<polygon fill="none" stroke="black" points="684.603,-905 684.603,-949 835.397,-949 835.397,-905 684.603,-905"/>
<text text-anchor="start" x="692.603" y="-935" font-family="Helvetica,sans-Serif" font-size="10.00">Om::DefaultConsumer</text>
<text text-anchor="start" x="692.603" y="-923" font-family="Helvetica,sans-Serif" font-size="10.00">&lt; Expression, DefaultGiveable</text>
<text text-anchor="middle" x="760" y="-911" font-family="Helvetica,sans-Serif" font-size="10.00">&lt; Expression, Program &gt; &gt;</text>
</a>
</g>
</g>
<!-- Node9&#45;&gt;Node8 -->
<g id="edge8" class="edge"><title>Node9&#45;&gt;Node8</title>
<path fill="none" stroke="midnightblue" d="M760,-894.601C760,-882.416 760,-869.033 760,-859.092"/>
<polygon fill="midnightblue" stroke="midnightblue" points="756.5,-894.883 760,-904.883 763.5,-894.883 756.5,-894.883"/>
</g>
<!-- Node10 -->
<g id="node10" class="node"><title>Node10</title>
<g id="a_node10"><a xlink:href="class_om_1_1_default_giveable.html" target="_top" xlink:title="Om::DefaultGiveable\l\&lt; Expression, Program \&gt;">
<polygon fill="none" stroke="black" points="555.697,-995 555.697,-1027 682.303,-1027 682.303,-995 555.697,-995"/>
<text text-anchor="start" x="563.697" y="-1013" font-family="Helvetica,sans-Serif" font-size="10.00">Om::DefaultGiveable</text>
<text text-anchor="middle" x="619" y="-1001" font-family="Helvetica,sans-Serif" font-size="10.00">&lt; Expression, Program &gt;</text>
</a>
</g>
</g>
<!-- Node10&#45;&gt;Node9 -->
<g id="edge9" class="edge"><title>Node10&#45;&gt;Node9</title>
<path fill="none" stroke="midnightblue" d="M653.582,-989.888C674.86,-977.514 702.093,-961.676 723.683,-949.12"/>
<polygon fill="midnightblue" stroke="midnightblue" points="651.746,-986.907 644.862,-994.96 655.266,-992.958 651.746,-986.907"/>
</g>
<!-- Node11 -->
<g id="node11" class="node"><title>Node11</title>
<g id="a_node11"><a xlink:href="class_om_1_1_default_moveable.html" target="_top" xlink:title="Om::DefaultMoveable\l\&lt; Expression, DefaultCopyable\l\&lt; Expression, Program \&gt; \&gt;">
<polygon fill="none" stroke="black" points="487.211,-1073 487.211,-1117 640.789,-1117 640.789,-1073 487.211,-1073"/>
<text text-anchor="start" x="495.211" y="-1103" font-family="Helvetica,sans-Serif" font-size="10.00">Om::DefaultMoveable</text>
<text text-anchor="start" x="495.211" y="-1091" font-family="Helvetica,sans-Serif" font-size="10.00">&lt; Expression, DefaultCopyable</text>
<text text-anchor="middle" x="564" y="-1079" font-family="Helvetica,sans-Serif" font-size="10.00">&lt; Expression, Program &gt; &gt;</text>
</a>
</g>
</g>
<!-- Node11&#45;&gt;Node10 -->
<g id="edge10" class="edge"><title>Node11&#45;&gt;Node10</title>
<path fill="none" stroke="midnightblue" d="M583.829,-1064.44C592.32,-1051.78 601.873,-1037.54 608.877,-1027.09"/>
<polygon fill="midnightblue" stroke="midnightblue" points="580.828,-1062.63 578.164,-1072.88 586.641,-1066.53 580.828,-1062.63"/>
</g>
<!-- Node12 -->
<g id="node12" class="node"><title>Node12</title>
<g id="a_node12"><a xlink:href="class_om_1_1_default_copyable.html" target="_top" xlink:title="Om::DefaultCopyable\l\&lt; Expression, Program \&gt;">
<polygon fill="none" stroke="black" points="475.697,-1157 475.697,-1189 602.303,-1189 602.303,-1157 475.697,-1157"/>
<text text-anchor="start" x="483.697" y="-1175" font-family="Helvetica,sans-Serif" font-size="10.00">Om::DefaultCopyable</text>
<text text-anchor="middle" x="539" y="-1163" font-family="Helvetica,sans-Serif" font-size="10.00">&lt; Expression, Program &gt;</text>
</a>
</g>
</g>
<!-- Node12&#45;&gt;Node11 -->
<g id="edge11" class="edge"><title>Node12&#45;&gt;Node11</title>
<path fill="none" stroke="midnightblue" d="M547.093,-1147.4C550.316,-1137.6 553.988,-1126.44 557.084,-1117.03"/>
<polygon fill="midnightblue" stroke="midnightblue" points="543.739,-1146.39 543.939,-1156.98 550.389,-1148.58 543.739,-1146.39"/>
</g>
<!-- Node13 -->
<g id="node13" class="node"><title>Node13</title>
<g id="a_node13"><a xlink:href="class_om_1_1_program.html" target="_top" xlink:title="The Program implementation. ">
<polygon fill="none" stroke="black" points="370.995,-1245 370.995,-1265 447.005,-1265 447.005,-1245 370.995,-1245"/>
<text text-anchor="middle" x="409" y="-1251" font-family="Helvetica,sans-Serif" font-size="10.00">Om::Program</text>
</a>
</g>
</g>
<!-- Node13&#45;&gt;Node12 -->
<g id="edge12" class="edge"><title>Node13&#45;&gt;Node12</title>
<path fill="none" stroke="midnightblue" d="M432.482,-1239.55C455.643,-1225.3 490.9,-1203.6 514.431,-1189.12"/>
<polygon fill="midnightblue" stroke="midnightblue" points="430.342,-1236.76 423.66,-1244.98 434.011,-1242.72 430.342,-1236.76"/>
</g>
<!-- Node32 -->
<g id="node32" class="node"><title>Node32</title>
<g id="a_node32"><a xlink:href="class_om_1_1_element.html" target="_top" xlink:title="A Program that contains a single elemental item (or none, when IsEmpty() returns true). ">
<polygon fill="none" stroke="black" points="371.825,-1163 371.825,-1183 446.175,-1183 446.175,-1163 371.825,-1163"/>
<text text-anchor="middle" x="409" y="-1169" font-family="Helvetica,sans-Serif" font-size="10.00">Om::Element</text>
</a>
</g>
</g>
<!-- Node13&#45;&gt;Node32 -->
<g id="edge32" class="edge"><title>Node13&#45;&gt;Node32</title>
<path fill="none" stroke="midnightblue" d="M409,-1234.71C409,-1218.33 409,-1195.55 409,-1183.07"/>
<polygon fill="midnightblue" stroke="midnightblue" points="405.5,-1234.82 409,-1244.82 412.5,-1234.82 405.5,-1234.82"/>
</g>
<!-- Node14 -->
<g id="node14" class="node"><title>Node14</title>
<g id="a_node14"><a xlink:href="class_om_1_1_consumer.html" target="_top" xlink:title="An Element taker; takes at the back. ">
<polygon fill="none" stroke="black" points="155.104,-1311 155.104,-1331 238.896,-1331 238.896,-1311 155.104,-1311"/>
<text text-anchor="middle" x="197" y="-1317" font-family="Helvetica,sans-Serif" font-size="10.00">Om::Consumer</text>
</a>
</g>
</g>
<!-- Node14&#45;&gt;Node13 -->
<g id="edge13" class="edge"><title>Node14&#45;&gt;Node13</title>
<path fill="none" stroke="midnightblue" d="M236.644,-1308.03C277.895,-1295.58 341.574,-1276.36 378.885,-1265.09"/>
<polygon fill="midnightblue" stroke="midnightblue" points="235.487,-1304.73 226.925,-1310.97 237.51,-1311.43 235.487,-1304.73"/>
</g>
<!-- Node14&#45;&gt;Node45 -->
<g id="edge51" class="edge"><title>Node14&#45;&gt;Node45</title>
<path fill="none" stroke="#9a32cd" stroke-dasharray="5,2" d="M210.119,-1302.4C220.949,-1285.58 233.168,-1259.66 224,-1238 213.673,-1213.6 188.988,-1193.93 172.907,-1183.12"/>
<polygon fill="#9a32cd" stroke="#9a32cd" points="207.178,-1300.5 204.39,-1310.72 212.943,-1304.47 207.178,-1300.5"/>
<text text-anchor="middle" x="252.18" y="-1251" font-family="Helvetica,sans-Serif" font-size="10.00"> thisOutput</text>
</g>
<!-- Node46 -->
<g id="node46" class="node"><title>Node46</title>
<g id="a_node46"><a xlink:href="class_om_1_1_default_consumer.html" target="_top" xlink:title="Om::DefaultConsumer\l\&lt; Evaluator \&gt;">
<polygon fill="none" stroke="black" points="100.261,-1239 100.261,-1271 215.739,-1271 215.739,-1239 100.261,-1239"/>
<text text-anchor="start" x="108.261" y="-1257" font-family="Helvetica,sans-Serif" font-size="10.00">Om::DefaultConsumer</text>
<text text-anchor="middle" x="158" y="-1245" font-family="Helvetica,sans-Serif" font-size="10.00">&lt; Evaluator &gt;</text>
</a>
</g>
</g>
<!-- Node14&#45;&gt;Node46 -->
<g id="edge49" class="edge"><title>Node14&#45;&gt;Node46</title>
<path fill="none" stroke="midnightblue" d="M186.204,-1302.28C180.232,-1292.48 172.888,-1280.43 167.192,-1271.08"/>
<polygon fill="midnightblue" stroke="midnightblue" points="183.22,-1304.11 191.412,-1310.83 189.197,-1300.47 183.22,-1304.11"/>
</g>
<!-- Node15 -->
<g id="node15" class="node"><title>Node15</title>
<g id="a_node15"><a xlink:href="class_om_1_1_giveable.html" target="_top" xlink:title="An object that can be copied or moved via Give. ">
<polygon fill="none" stroke="black" points="466.434,-1311 466.434,-1331 543.566,-1331 543.566,-1311 466.434,-1311"/>
<text text-anchor="middle" x="505" y="-1317" font-family="Helvetica,sans-Serif" font-size="10.00">Om::Giveable</text>
</a>
</g>
</g>
<!-- Node15&#45;&gt;Node13 -->
<g id="edge14" class="edge"><title>Node15&#45;&gt;Node13</title>
<path fill="none" stroke="midnightblue" d="M482.806,-1305.2C464.26,-1292.84 438.401,-1275.6 422.729,-1265.15"/>
<polygon fill="midnightblue" stroke="midnightblue" points="480.984,-1308.2 491.246,-1310.83 484.866,-1302.37 480.984,-1308.2"/>
</g>
<!-- Node16 -->
<g id="node16" class="node"><title>Node16</title>
<g id="a_node16"><a xlink:href="class_om_1_1_copyable.html" target="_top" xlink:title="An object that can be passed to Copy to be copied. ">
<polygon fill="none" stroke="black" points="416.042,-1371 416.042,-1391 495.958,-1391 495.958,-1371 416.042,-1371"/>
<text text-anchor="middle" x="456" y="-1377" font-family="Helvetica,sans-Serif" font-size="10.00">Om::Copyable</text>
</a>
</g>
</g>
<!-- Node16&#45;&gt;Node15 -->
<g id="edge15" class="edge"><title>Node16&#45;&gt;Node15</title>
<path fill="none" stroke="midnightblue" d="M470.145,-1363.26C478.964,-1352.82 489.977,-1339.78 497.236,-1331.19"/>
<polygon fill="midnightblue" stroke="midnightblue" points="467.436,-1361.04 463.656,-1370.94 472.783,-1365.56 467.436,-1361.04"/>
</g>
<!-- Node17 -->
<g id="node17" class="node"><title>Node17</title>
<g id="a_node17"><a xlink:href="class_om_1_1_moveable.html" target="_top" xlink:title="An object that can be passed to Move to be moved. ">
<polygon fill="none" stroke="black" points="513.488,-1371 513.488,-1391 594.512,-1391 594.512,-1371 513.488,-1371"/>
<text text-anchor="middle" x="554" y="-1377" font-family="Helvetica,sans-Serif" font-size="10.00">Om::Moveable</text>
</a>
</g>
</g>
<!-- Node17&#45;&gt;Node15 -->
<g id="edge16" class="edge"><title>Node17&#45;&gt;Node15</title>
<path fill="none" stroke="midnightblue" d="M539.855,-1363.26C531.036,-1352.82 520.023,-1339.78 512.764,-1331.19"/>
<polygon fill="midnightblue" stroke="midnightblue" points="537.217,-1365.56 546.344,-1370.94 542.564,-1361.04 537.217,-1365.56"/>
</g>
<!-- Node18 -->
<g id="node18" class="node"><title>Node18</title>
<g id="a_node18"><a xlink:href="class_om_1_1_producer.html" target="_top" xlink:title="An Element giver; gives from the front. ">
<polygon fill="none" stroke="black" points="369.879,-1311 369.879,-1331 448.121,-1331 448.121,-1311 369.879,-1311"/>
<text text-anchor="middle" x="409" y="-1317" font-family="Helvetica,sans-Serif" font-size="10.00">Om::Producer</text>
</a>
</g>
</g>
<!-- Node18&#45;&gt;Node13 -->
<g id="edge17" class="edge"><title>Node18&#45;&gt;Node13</title>
<path fill="none" stroke="midnightblue" d="M409,-1300.64C409,-1288.86 409,-1274.37 409,-1265.15"/>
<polygon fill="midnightblue" stroke="midnightblue" points="405.5,-1300.83 409,-1310.83 412.5,-1300.83 405.5,-1300.83"/>
</g>
<!-- Node18&#45;&gt;Node45 -->
<g id="edge50" class="edge"><title>Node18&#45;&gt;Node45</title>
<path fill="none" stroke="midnightblue" d="M386.761,-1305.08C361.321,-1288.2 318.237,-1260.17 280,-1238 255.233,-1223.64 248.35,-1221.3 223,-1208 206.874,-1199.54 188.482,-1189.92 175.387,-1183.08"/>
<polygon fill="midnightblue" stroke="midnightblue" points="385.031,-1308.13 395.294,-1310.76 388.912,-1302.31 385.031,-1308.13"/>
</g>
<!-- Node19 -->
<g id="node19" class="node"><title>Node19</title>
<g id="a_node19"><a xlink:href="class_om_1_1_shareable.html" target="_top" xlink:title="Om::Shareable\&lt;\&gt;">
<polygon fill="none" stroke="black" points="256.532,-1311 256.532,-1331 351.468,-1331 351.468,-1311 256.532,-1311"/>
<text text-anchor="middle" x="304" y="-1317" font-family="Helvetica,sans-Serif" font-size="10.00">Om::Shareable&lt;&gt;</text>
</a>
</g>
</g>
<!-- Node19&#45;&gt;Node13 -->
<g id="edge18" class="edge"><title>Node19&#45;&gt;Node13</title>
<path fill="none" stroke="midnightblue" d="M327.724,-1305.54C348.044,-1293.15 376.687,-1275.7 393.984,-1265.15"/>
<polygon fill="midnightblue" stroke="midnightblue" points="325.761,-1302.64 319.044,-1310.83 329.404,-1308.61 325.761,-1302.64"/>
</g>
<!-- Node20 -->
<g id="node20" class="node"><title>Node20</title>
<g id="a_node20"><a xlink:href="class_om_1_1_taker.html" target="_top" xlink:title="Om::Taker\&lt; Expression \&gt;">
<polygon fill="none" stroke="black" points="537.589,-917 537.589,-937 666.411,-937 666.411,-917 537.589,-917"/>
<text text-anchor="middle" x="602" y="-923" font-family="Helvetica,sans-Serif" font-size="10.00">Om::Taker&lt; Expression &gt;</text>
</a>
</g>
</g>
<!-- Node20&#45;&gt;Node8 -->
<g id="edge19" class="edge"><title>Node20&#45;&gt;Node8</title>
<path fill="none" stroke="midnightblue" d="M628.438,-912.279C656.76,-897.58 701.579,-874.32 730.89,-859.108"/>
<polygon fill="midnightblue" stroke="midnightblue" points="626.776,-909.198 619.512,-916.911 630.001,-915.411 626.776,-909.198"/>
</g>
<!-- Node21 -->
<g id="node21" class="node"><title>Node21</title>
<polygon fill="none" stroke="#bfbfbf" points="350.365,-293 350.365,-313 453.635,-313 453.635,-293 350.365,-293"/>
<text text-anchor="middle" x="402" y="-299" font-family="Helvetica,sans-Serif" font-size="10.00">std::deque&lt; Form &gt;</text>
</g>
<!-- Node21&#45;&gt;Node7 -->
<g id="edge20" class="edge"><title>Node21&#45;&gt;Node7</title>
<path fill="none" stroke="#9a32cd" stroke-dasharray="5,2" d="M402,-282.557C402,-269.557 402,-253.057 402,-243.025"/>
<polygon fill="#9a32cd" stroke="#9a32cd" points="398.5,-282.829 402,-292.829 405.5,-282.829 398.5,-282.829"/>
<text text-anchor="middle" x="437.569" y="-264" font-family="Helvetica,sans-Serif" font-size="10.00"> thisFormDeque</text>
</g>
<!-- Node22 -->
<g id="node22" class="node"><title>Node22</title>
<g id="a_node22"><a xlink:href="class_om_1_1_form.html" target="_top" xlink:title="An Operator (which may be empty), followed by zero or more Operand instances. ">
<polygon fill="none" stroke="black" points="371.502,-363 371.502,-383 432.498,-383 432.498,-363 371.502,-363"/>
<text text-anchor="middle" x="402" y="-369" font-family="Helvetica,sans-Serif" font-size="10.00">Om::Form</text>
</a>
</g>
</g>
<!-- Node22&#45;&gt;Node21 -->
<g id="edge21" class="edge"><title>Node22&#45;&gt;Node21</title>
<path fill="none" stroke="#9a32cd" stroke-dasharray="5,2" d="M402,-352.557C402,-339.557 402,-323.057 402,-313.025"/>
<polygon fill="#9a32cd" stroke="#9a32cd" points="398.5,-352.829 402,-362.829 405.5,-352.829 398.5,-352.829"/>
<text text-anchor="middle" x="423.677" y="-334" font-family="Helvetica,sans-Serif" font-size="10.00"> elements</text>
</g>
<!-- Node23 -->
<g id="node23" class="node"><title>Node23</title>
<g id="a_node23"><a xlink:href="class_om_1_1_operator.html" target="_top" xlink:title="The Operator implementation. ">
<polygon fill="none" stroke="black" points="462.436,-433 462.436,-453 539.564,-453 539.564,-433 462.436,-433"/>
<text text-anchor="middle" x="501" y="-439" font-family="Helvetica,sans-Serif" font-size="10.00">Om::Operator</text>
</a>
</g>
</g>
<!-- Node23&#45;&gt;Node22 -->
<g id="edge22" class="edge"><title>Node23&#45;&gt;Node22</title>
<path fill="none" stroke="#9a32cd" stroke-dasharray="5,2" d="M479.325,-427.112C459.729,-413.652 431.516,-394.273 415.14,-383.025"/>
<polygon fill="#9a32cd" stroke="#9a32cd" points="477.424,-430.052 487.648,-432.829 481.387,-424.282 477.424,-430.052"/>
<text text-anchor="middle" x="485.901" y="-404" font-family="Helvetica,sans-Serif" font-size="10.00"> thisOperator</text>
</g>
<!-- Node24&#45;&gt;Node23 -->
<g id="edge23" class="edge"><title>Node24&#45;&gt;Node23</title>
<path fill="none" stroke="midnightblue" d="M501,-502.509C501,-486.768 501,-465.315 501,-453.242"/>
<polygon fill="midnightblue" stroke="midnightblue" points="497.5,-502.746 501,-512.746 504.5,-502.746 497.5,-502.746"/>
</g>
<!-- Node25 -->
<g id="node25" class="node"><title>Node25</title>
<g id="a_node25"><a xlink:href="class_om_1_1_default_element.html" target="_top" xlink:title="Om::DefaultElement\l\&lt; Operator, Atom \&gt;">
<polygon fill="none" stroke="black" points="505.983,-583 505.983,-615 612.017,-615 612.017,-583 505.983,-583"/>
<text text-anchor="start" x="513.983" y="-601" font-family="Helvetica,sans-Serif" font-size="10.00">Om::DefaultElement</text>
<text text-anchor="middle" x="559" y="-589" font-family="Helvetica,sans-Serif" font-size="10.00">&lt; Operator, Atom &gt;</text>
</a>
</g>
</g>
<!-- Node25&#45;&gt;Node24 -->
<g id="edge24" class="edge"><title>Node25&#45;&gt;Node24</title>
<path fill="none" stroke="midnightblue" d="M540.525,-574.428C529.563,-560.443 516.281,-543.496 508.243,-533.241"/>
<polygon fill="midnightblue" stroke="midnightblue" points="538.059,-576.956 546.982,-582.667 543.568,-572.637 538.059,-576.956"/>
</g>
<!-- Node26 -->
<g id="node26" class="node"><title>Node26</title>
<g id="a_node26"><a xlink:href="class_om_1_1_default_program.html" target="_top" xlink:title="Om::DefaultProgram\l\&lt; Operator, Atom \&gt;">
<polygon fill="none" stroke="black" points="505.153,-665 505.153,-697 612.847,-697 612.847,-665 505.153,-665"/>
<text text-anchor="start" x="513.153" y="-683" font-family="Helvetica,sans-Serif" font-size="10.00">Om::DefaultProgram</text>
<text text-anchor="middle" x="559" y="-671" font-family="Helvetica,sans-Serif" font-size="10.00">&lt; Operator, Atom &gt;</text>
</a>
</g>
</g>
<!-- Node26&#45;&gt;Node25 -->
<g id="edge25" class="edge"><title>Node26&#45;&gt;Node25</title>
<path fill="none" stroke="midnightblue" d="M559,-654.767C559,-641.793 559,-626.407 559,-615.252"/>
<polygon fill="midnightblue" stroke="midnightblue" points="555.5,-654.953 559,-664.953 562.5,-654.953 555.5,-654.953"/>
</g>
<!-- Node27 -->
<g id="node27" class="node"><title>Node27</title>
<g id="a_node27"><a xlink:href="class_om_1_1_default_consumer.html" target="_top" xlink:title="Om::DefaultConsumer\l\&lt; Operator, DefaultGiveable\l\&lt; Operator, Atom \&gt; \&gt;">
<polygon fill="none" stroke="black" points="615.878,-737 615.878,-781 756.122,-781 756.122,-737 615.878,-737"/>
<text text-anchor="start" x="623.878" y="-767" font-family="Helvetica,sans-Serif" font-size="10.00">Om::DefaultConsumer</text>
<text text-anchor="start" x="623.878" y="-755" font-family="Helvetica,sans-Serif" font-size="10.00">&lt; Operator, DefaultGiveable</text>
<text text-anchor="middle" x="686" y="-743" font-family="Helvetica,sans-Serif" font-size="10.00">&lt; Operator, Atom &gt; &gt;</text>
</a>
</g>
</g>
<!-- Node27&#45;&gt;Node26 -->
<g id="edge26" class="edge"><title>Node27&#45;&gt;Node26</title>
<path fill="none" stroke="midnightblue" d="M641.955,-731.642C622.616,-720.07 600.613,-706.902 584.129,-697.038"/>
<polygon fill="midnightblue" stroke="midnightblue" points="640.245,-734.698 650.623,-736.83 643.84,-728.691 640.245,-734.698"/>
</g>
<!-- Node28 -->
<g id="node28" class="node"><title>Node28</title>
<g id="a_node28"><a xlink:href="class_om_1_1_default_giveable.html" target="_top" xlink:title="Om::DefaultGiveable\l\&lt; Operator, Atom \&gt;">
<polygon fill="none" stroke="black" points="515.591,-827 515.591,-859 624.409,-859 624.409,-827 515.591,-827"/>
<text text-anchor="start" x="523.591" y="-845" font-family="Helvetica,sans-Serif" font-size="10.00">Om::DefaultGiveable</text>
<text text-anchor="middle" x="570" y="-833" font-family="Helvetica,sans-Serif" font-size="10.00">&lt; Operator, Atom &gt;</text>
</a>
</g>
</g>
<!-- Node28&#45;&gt;Node27 -->
<g id="edge27" class="edge"><title>Node28&#45;&gt;Node27</title>
<path fill="none" stroke="midnightblue" d="M599.867,-820.887C617.152,-808.668 638.836,-793.34 656.122,-781.12"/>
<polygon fill="midnightblue" stroke="midnightblue" points="597.422,-818.33 591.276,-826.96 601.462,-824.046 597.422,-818.33"/>
</g>
<!-- Node29 -->
<g id="node29" class="node"><title>Node29</title>
<g id="a_node29"><a xlink:href="class_om_1_1_default_moveable.html" target="_top" xlink:title="Om::DefaultMoveable\l\&lt; Operator, DefaultCopyable\l\&lt; Operator, Atom \&gt; \&gt;">
<polygon fill="none" stroke="black" points="371.487,-905 371.487,-949 514.513,-949 514.513,-905 371.487,-905"/>
<text text-anchor="start" x="379.487" y="-935" font-family="Helvetica,sans-Serif" font-size="10.00">Om::DefaultMoveable</text>
<text text-anchor="start" x="379.487" y="-923" font-family="Helvetica,sans-Serif" font-size="10.00">&lt; Operator, DefaultCopyable</text>
<text text-anchor="middle" x="443" y="-911" font-family="Helvetica,sans-Serif" font-size="10.00">&lt; Operator, Atom &gt; &gt;</text>
</a>
</g>
</g>
<!-- Node29&#45;&gt;Node28 -->
<g id="edge28" class="edge"><title>Node29&#45;&gt;Node28</title>
<path fill="none" stroke="midnightblue" d="M484.309,-899.328C504.966,-885.99 529.208,-870.338 546.625,-859.092"/>
<polygon fill="midnightblue" stroke="midnightblue" points="482.208,-896.518 475.706,-904.883 486.005,-902.399 482.208,-896.518"/>
</g>
<!-- Node30 -->
<g id="node30" class="node"><title>Node30</title>
<g id="a_node30"><a xlink:href="class_om_1_1_default_copyable.html" target="_top" xlink:title="Om::DefaultCopyable\l\&lt; Operator, Atom \&gt;">
<polygon fill="none" stroke="black" points="380.2,-995 380.2,-1027 491.8,-1027 491.8,-995 380.2,-995"/>
<text text-anchor="start" x="388.2" y="-1013" font-family="Helvetica,sans-Serif" font-size="10.00">Om::DefaultCopyable</text>
<text text-anchor="middle" x="436" y="-1001" font-family="Helvetica,sans-Serif" font-size="10.00">&lt; Operator, Atom &gt;</text>
</a>
</g>
</g>
<!-- Node30&#45;&gt;Node29 -->
<g id="edge29" class="edge"><title>Node30&#45;&gt;Node29</title>
<path fill="none" stroke="midnightblue" d="M438.156,-984.747C439.13,-973.331 440.269,-959.995 441.197,-949.12"/>
<polygon fill="midnightblue" stroke="midnightblue" points="434.647,-984.698 437.284,-994.96 441.622,-985.294 434.647,-984.698"/>
</g>
<!-- Node31 -->
<g id="node31" class="node"><title>Node31</title>
<g id="a_node31"><a xlink:href="class_om_1_1_atom.html" target="_top" xlink:title="An atomic Element defined by a string. ">
<polygon fill="none" stroke="black" points="385.498,-1085 385.498,-1105 446.502,-1105 446.502,-1085 385.498,-1085"/>
<text text-anchor="middle" x="416" y="-1091" font-family="Helvetica,sans-Serif" font-size="10.00">Om::Atom</text>
</a>
</g>
</g>
<!-- Node31&#45;&gt;Node30 -->
<g id="edge30" class="edge"><title>Node31&#45;&gt;Node30</title>
<path fill="none" stroke="midnightblue" d="M420.629,-1075.02C424.169,-1060.51 428.986,-1040.76 432.278,-1027.26"/>
<polygon fill="midnightblue" stroke="midnightblue" points="417.186,-1074.37 418.217,-1084.91 423.987,-1076.03 417.186,-1074.37"/>
</g>
<!-- Node32&#45;&gt;Node31 -->
<g id="edge31" class="edge"><title>Node32&#45;&gt;Node31</title>
<path fill="none" stroke="midnightblue" d="M410.749,-1153.01C412.162,-1137.67 414.087,-1116.77 415.171,-1105"/>
<polygon fill="midnightblue" stroke="midnightblue" points="407.262,-1152.7 409.83,-1162.98 414.233,-1153.35 407.262,-1152.7"/>
</g>
<!-- Node41 -->
<g id="node41" class="node"><title>Node41</title>
<g id="a_node41"><a xlink:href="class_om_1_1_default_copyable.html" target="_top" xlink:title="Om::DefaultCopyable\l\&lt; Operand, Element \&gt;">
<polygon fill="none" stroke="black" points="246.803,-1079 246.803,-1111 361.197,-1111 361.197,-1079 246.803,-1079"/>
<text text-anchor="start" x="254.803" y="-1097" font-family="Helvetica,sans-Serif" font-size="10.00">Om::DefaultCopyable</text>
<text text-anchor="middle" x="304" y="-1085" font-family="Helvetica,sans-Serif" font-size="10.00">&lt; Operand, Element &gt;</text>
</a>
</g>
</g>
<!-- Node32&#45;&gt;Node41 -->
<g id="edge43" class="edge"><title>Node32&#45;&gt;Node41</title>
<path fill="none" stroke="midnightblue" d="M388.257,-1156.99C369.866,-1143.67 343.148,-1124.34 324.754,-1111.02"/>
<polygon fill="midnightblue" stroke="midnightblue" points="386.39,-1159.96 396.543,-1162.98 390.494,-1154.28 386.39,-1159.96"/>
</g>
<!-- Node33 -->
<g id="node33" class="node"><title>Node33</title>
<g id="a_node33"><a xlink:href="class_om_1_1_taker.html" target="_top" xlink:title="Om::Taker\&lt; Operator \&gt;">
<polygon fill="none" stroke="black" points="478.591,-749 478.591,-769 597.409,-769 597.409,-749 478.591,-749"/>
<text text-anchor="middle" x="538" y="-755" font-family="Helvetica,sans-Serif" font-size="10.00">Om::Taker&lt; Operator &gt;</text>
</a>
</g>
</g>
<!-- Node33&#45;&gt;Node26 -->
<g id="edge33" class="edge"><title>Node33&#45;&gt;Node26</title>
<path fill="none" stroke="midnightblue" d="M543.191,-739.215C546.785,-726.208 551.505,-709.125 554.849,-697.022"/>
<polygon fill="midnightblue" stroke="midnightblue" points="539.781,-738.412 540.491,-748.983 546.528,-740.277 539.781,-738.412"/>
</g>
<!-- Node34 -->
<g id="node34" class="node"><title>Node34</title>
<polygon fill="none" stroke="#bfbfbf" points="298.572,-473 298.572,-493 417.428,-493 417.428,-473 298.572,-473"/>
<text text-anchor="middle" x="358" y="-479" font-family="Helvetica,sans-Serif" font-size="10.00">std::deque&lt; Operand &gt;</text>
</g>
<!-- Node34&#45;&gt;Node22 -->
<g id="edge35" class="edge"><title>Node34&#45;&gt;Node22</title>
<path fill="none" stroke="#9a32cd" stroke-dasharray="5,2" d="M359.412,-462.868C360.55,-453.36 362.597,-441.832 366.276,-432 373.239,-413.392 386.448,-394.228 394.707,-383.252"/>
<polygon fill="#9a32cd" stroke="#9a32cd" points="355.923,-462.589 358.452,-472.878 362.891,-463.258 355.923,-462.589"/>
<text text-anchor="middle" x="409.362" y="-439" font-family="Helvetica,sans-Serif" font-size="10.00"> thisOperandDeque</text>
</g>
<!-- Node35 -->
<g id="node35" class="node"><title>Node35</title>
<g id="a_node35"><a xlink:href="class_om_1_1_operand.html" target="_top" xlink:title="The Operand implementation. ">
<polygon fill="none" stroke="black" points="319.709,-589 319.709,-609 396.291,-609 396.291,-589 319.709,-589"/>
<text text-anchor="middle" x="358" y="-595" font-family="Helvetica,sans-Serif" font-size="10.00">Om::Operand</text>
</a>
</g>
</g>
<!-- Node35&#45;&gt;Node34 -->
<g id="edge36" class="edge"><title>Node35&#45;&gt;Node34</title>
<path fill="none" stroke="#9a32cd" stroke-dasharray="5,2" d="M358,-578.603C358,-553.731 358,-511.609 358,-493.139"/>
<polygon fill="#9a32cd" stroke="#9a32cd" points="354.5,-578.671 358,-588.671 361.5,-578.671 354.5,-578.671"/>
<text text-anchor="middle" x="379.677" y="-554" font-family="Helvetica,sans-Serif" font-size="10.00"> elements</text>
</g>
<!-- Node36 -->
<g id="node36" class="node"><title>Node36</title>
<g id="a_node36"><a xlink:href="class_om_1_1_default_element.html" target="_top" xlink:title="Om::DefaultElement\l\&lt; Operand \&gt;">
<polygon fill="none" stroke="black" points="218.983,-665 218.983,-697 325.017,-697 325.017,-665 218.983,-665"/>
<text text-anchor="start" x="226.983" y="-683" font-family="Helvetica,sans-Serif" font-size="10.00">Om::DefaultElement</text>
<text text-anchor="middle" x="272" y="-671" font-family="Helvetica,sans-Serif" font-size="10.00">&lt; Operand &gt;</text>
</a>
</g>
</g>
<!-- Node36&#45;&gt;Node35 -->
<g id="edge37" class="edge"><title>Node36&#45;&gt;Node35</title>
<path fill="none" stroke="midnightblue" d="M295.713,-657.941C313.043,-641.82 335.646,-620.795 348.31,-609.014"/>
<polygon fill="midnightblue" stroke="midnightblue" points="293.114,-655.579 288.176,-664.953 297.882,-660.704 293.114,-655.579"/>
</g>
<!-- Node37 -->
<g id="node37" class="node"><title>Node37</title>
<g id="a_node37"><a xlink:href="class_om_1_1_default_program.html" target="_top" xlink:title="Om::DefaultProgram\l\&lt; Operand, Element \&gt;">
<polygon fill="none" stroke="black" points="202.803,-743 202.803,-775 317.197,-775 317.197,-743 202.803,-743"/>
<text text-anchor="start" x="210.803" y="-761" font-family="Helvetica,sans-Serif" font-size="10.00">Om::DefaultProgram</text>
<text text-anchor="middle" x="260" y="-749" font-family="Helvetica,sans-Serif" font-size="10.00">&lt; Operand, Element &gt;</text>
</a>
</g>
</g>
<!-- Node37&#45;&gt;Node36 -->
<g id="edge38" class="edge"><title>Node37&#45;&gt;Node36</title>
<path fill="none" stroke="midnightblue" d="M263.971,-732.848C265.831,-721.072 267.985,-707.431 269.593,-697.244"/>
<polygon fill="midnightblue" stroke="midnightblue" points="260.473,-732.561 262.371,-742.985 267.388,-733.653 260.473,-732.561"/>
</g>
<!-- Node38 -->
<g id="node38" class="node"><title>Node38</title>
<g id="a_node38"><a xlink:href="class_om_1_1_default_consumer.html" target="_top" xlink:title="Om::DefaultConsumer\l\&lt; Operand, DefaultGiveable\l\&lt; Operand, Element \&gt; \&gt;">
<polygon fill="none" stroke="black" points="189.878,-821 189.878,-865 330.122,-865 330.122,-821 189.878,-821"/>
<text text-anchor="start" x="197.878" y="-851" font-family="Helvetica,sans-Serif" font-size="10.00">Om::DefaultConsumer</text>
<text text-anchor="start" x="197.878" y="-839" font-family="Helvetica,sans-Serif" font-size="10.00">&lt; Operand, DefaultGiveable</text>
<text text-anchor="middle" x="260" y="-827" font-family="Helvetica,sans-Serif" font-size="10.00">&lt; Operand, Element &gt; &gt;</text>
</a>
</g>
</g>
<!-- Node38&#45;&gt;Node37 -->
<g id="edge39" class="edge"><title>Node38&#45;&gt;Node37</title>
<path fill="none" stroke="midnightblue" d="M260,-810.601C260,-798.416 260,-785.033 260,-775.092"/>
<polygon fill="midnightblue" stroke="midnightblue" points="256.5,-810.883 260,-820.883 263.5,-810.883 256.5,-810.883"/>
</g>
<!-- Node39 -->
<g id="node39" class="node"><title>Node39</title>
<g id="a_node39"><a xlink:href="class_om_1_1_default_giveable.html" target="_top" xlink:title="Om::DefaultGiveable\l\&lt; Operand, Element \&gt;">
<polygon fill="none" stroke="black" points="228.803,-911 228.803,-943 343.197,-943 343.197,-911 228.803,-911"/>
<text text-anchor="start" x="236.803" y="-929" font-family="Helvetica,sans-Serif" font-size="10.00">Om::DefaultGiveable</text>
<text text-anchor="middle" x="286" y="-917" font-family="Helvetica,sans-Serif" font-size="10.00">&lt; Operand, Element &gt;</text>
</a>
</g>
</g>
<!-- Node39&#45;&gt;Node38 -->
<g id="edge40" class="edge"><title>Node39&#45;&gt;Node38</title>
<path fill="none" stroke="midnightblue" d="M278.105,-901.099C274.46,-889.606 270.18,-876.107 266.697,-865.12"/>
<polygon fill="midnightblue" stroke="midnightblue" points="274.872,-902.486 281.231,-910.96 281.545,-900.37 274.872,-902.486"/>
</g>
<!-- Node40 -->
<g id="node40" class="node"><title>Node40</title>
<g id="a_node40"><a xlink:href="class_om_1_1_default_moveable.html" target="_top" xlink:title="Om::DefaultMoveable\l\&lt; Operand, DefaultCopyable\l\&lt; Operand, Element \&gt; \&gt;">
<polygon fill="none" stroke="black" points="218.487,-989 218.487,-1033 361.513,-1033 361.513,-989 218.487,-989"/>
<text text-anchor="start" x="226.487" y="-1019" font-family="Helvetica,sans-Serif" font-size="10.00">Om::DefaultMoveable</text>
<text text-anchor="start" x="226.487" y="-1007" font-family="Helvetica,sans-Serif" font-size="10.00">&lt; Operand, DefaultCopyable</text>
<text text-anchor="middle" x="290" y="-995" font-family="Helvetica,sans-Serif" font-size="10.00">&lt; Operand, Element &gt; &gt;</text>
</a>
</g>
</g>
<!-- Node40&#45;&gt;Node39 -->
<g id="edge41" class="edge"><title>Node40&#45;&gt;Node39</title>
<path fill="none" stroke="midnightblue" d="M288.468,-978.601C287.874,-966.416 287.221,-953.033 286.736,-943.092"/>
<polygon fill="midnightblue" stroke="midnightblue" points="284.987,-979.065 288.97,-988.883 291.978,-978.724 284.987,-979.065"/>
</g>
<!-- Node41&#45;&gt;Node40 -->
<g id="edge42" class="edge"><title>Node41&#45;&gt;Node40</title>
<path fill="none" stroke="midnightblue" d="M299.749,-1069.1C297.786,-1057.61 295.482,-1044.11 293.606,-1033.12"/>
<polygon fill="midnightblue" stroke="midnightblue" points="296.299,-1069.69 301.432,-1078.96 303.199,-1068.51 296.299,-1069.69"/>
</g>
<!-- Node42 -->
<g id="node42" class="node"><title>Node42</title>
<g id="a_node42"><a xlink:href="class_om_1_1_taker.html" target="_top" xlink:title="Om::Taker\&lt; Operand \&gt;">
<polygon fill="none" stroke="black" points="347.865,-833 347.865,-853 466.135,-853 466.135,-833 347.865,-833"/>
<text text-anchor="middle" x="407" y="-839" font-family="Helvetica,sans-Serif" font-size="10.00">Om::Taker&lt; Operand &gt;</text>
</a>
</g>
</g>
<!-- Node42&#45;&gt;Node37 -->
<g id="edge44" class="edge"><title>Node42&#45;&gt;Node37</title>
<path fill="none" stroke="midnightblue" d="M381.711,-827.893C355.329,-813.176 314.117,-790.187 287.084,-775.108"/>
<polygon fill="midnightblue" stroke="midnightblue" points="380.269,-831.096 390.707,-832.911 383.679,-824.983 380.269,-831.096"/>
</g>
<!-- Node43 -->
<g id="node43" class="node"><title>Node43</title>
<g id="a_node43"><a xlink:href="class_om_1_1_owner.html" target="_top" xlink:title="Om::Owner\&lt; Om::Program \&gt;">
<polygon fill="none" stroke="black" points="342.818,-671 342.818,-691 487.182,-691 487.182,-671 342.818,-671"/>
<text text-anchor="middle" x="415" y="-677" font-family="Helvetica,sans-Serif" font-size="10.00">Om::Owner&lt; Om::Program &gt;</text>
</a>
</g>
</g>
<!-- Node43&#45;&gt;Node35 -->
<g id="edge45" class="edge"><title>Node43&#45;&gt;Node35</title>
<path fill="none" stroke="#9a32cd" stroke-dasharray="5,2" d="M402.582,-662.571C390.844,-646.097 373.696,-622.03 364.462,-609.07"/>
<polygon fill="#9a32cd" stroke="#9a32cd" points="399.808,-664.71 408.461,-670.823 405.509,-660.648 399.808,-664.71"/>
<text text-anchor="middle" x="417.342" y="-636" font-family="Helvetica,sans-Serif" font-size="10.00"> thisProgram</text>
</g>
<!-- Node44 -->
<g id="node44" class="node"><title>Node44</title>
<g id="a_node44"><a xlink:href="class_om_1_1_taker.html" target="_top" xlink:title="Om::Taker\&lt; Owner\&lt; Om\l::Program \&gt; \&gt;">
<polygon fill="none" stroke="black" points="335.542,-743 335.542,-775 460.458,-775 460.458,-743 335.542,-743"/>
<text text-anchor="start" x="343.542" y="-761" font-family="Helvetica,sans-Serif" font-size="10.00">Om::Taker&lt; Owner&lt; Om</text>
<text text-anchor="middle" x="398" y="-749" font-family="Helvetica,sans-Serif" font-size="10.00">::Program &gt; &gt;</text>
</a>
</g>
</g>
<!-- Node44&#45;&gt;Node43 -->
<g id="edge46" class="edge"><title>Node44&#45;&gt;Node43</title>
<path fill="none" stroke="midnightblue" d="M403.553,-733.177C406.764,-718.822 410.615,-701.603 412.932,-691.245"/>
<polygon fill="midnightblue" stroke="midnightblue" points="400.126,-732.462 401.359,-742.985 406.957,-733.99 400.126,-732.462"/>
</g>
<!-- Node45&#45;&gt;Node6 -->
<g id="edge47" class="edge"><title>Node45&#45;&gt;Node6</title>
<path fill="none" stroke="#9a32cd" stroke-dasharray="5,2" d="M128.32,-1158.23C105.911,-1145.57 79,-1124.44 79,-1096 79,-1096 79,-1096 79,-232 79,-190.637 130.629,-174.419 169.552,-168.07"/>
<polygon fill="#9a32cd" stroke="#9a32cd" points="126.772,-1161.38 137.244,-1162.99 130.061,-1155.2 126.772,-1161.38"/>
<text text-anchor="middle" x="109.293" y="-636" font-family="Helvetica,sans-Serif" font-size="10.00"> thisEvaluator</text>
</g>
<!-- Node46&#45;&gt;Node45 -->
<g id="edge48" class="edge"><title>Node46&#45;&gt;Node45</title>
<path fill="none" stroke="midnightblue" d="M158,-1228.84C158,-1213.21 158,-1194.05 158,-1183.01"/>
<polygon fill="midnightblue" stroke="midnightblue" points="154.5,-1228.95 158,-1238.95 161.5,-1228.95 154.5,-1228.95"/>
</g>
</g>
</svg>
