<?xml version="1.0" encoding="UTF-8" standalone="no"?>
<!DOCTYPE svg PUBLIC "-//W3C//DTD SVG 1.1//EN"
 "http://www.w3.org/Graphics/SVG/1.1/DTD/svg11.dtd">
<!-- Generated by graphviz version 2.36.0 (20140111.2315)
 -->
<!-- Title: Om::Language::Form Pages: 1 -->
<svg width="660pt" height="994pt"
 viewBox="0.00 0.00 660.00 994.00" xmlns="http://www.w3.org/2000/svg" xmlns:xlink="http://www.w3.org/1999/xlink">
<g id="graph0" class="graph" transform="scale(1 1) rotate(0) translate(4 990)">
<title>Om::Language::Form</title>
<!-- Node1 -->
<g id="node1" class="node"><title>Node1</title>
<g id="a_node1"><a xlink:title="An Operator (which may be empty), followed by zero or more Operand instances.">
<polygon fill="#bfbfbf" stroke="black" points="296.478,-1 296.478,-19 407.522,-19 407.522,-1 296.478,-1"/>
<text text-anchor="middle" x="352" y="-7" font-family="Helvetica,sans-Serif" font-size="10.00">Om::Language::Form</text>
</a>
</g>
</g>
<!-- Node2 -->
<g id="node2" class="node"><title>Node2</title>
<g id="a_node2"><a xlink:title=" ">
<polygon fill="none" stroke="#bfbfbf" points="341.572,-105 341.572,-123 460.428,-123 460.428,-105 341.572,-105"/>
<text text-anchor="middle" x="401" y="-111" font-family="Helvetica,sans-Serif" font-size="10.00">std::deque&lt; Operand &gt;</text>
</a>
</g>
</g>
<!-- Node2&#45;&gt;Node1 -->
<g id="edge1" class="edge"><title>Node2&#45;&gt;Node1</title>
<path fill="none" stroke="#9a32cd" stroke-dasharray="5,2" d="M399.401,-94.8571C397.326,-78.9143 392.612,-55.5821 382,-38 377.51,-30.5612 370.331,-23.994 364.122,-19.1994"/>
<polygon fill="#9a32cd" stroke="#9a32cd" points="395.94,-95.4054 400.492,-104.972 402.899,-94.6543 395.94,-95.4054"/>
<text text-anchor="middle" x="441.362" y="-73" font-family="Helvetica,sans-Serif" font-size="10.00"> thisOperandDeque</text>
</g>
<!-- Node3 -->
<g id="node3" class="node"><title>Node3</title>
<g id="a_node3"><a xlink:href="class_om_1_1_language_1_1_operand.html" target="_top" xlink:title="The Operand implementation.">
<polygon fill="none" stroke="black" points="350.685,-229 350.685,-247 477.315,-247 477.315,-229 350.685,-229"/>
<text text-anchor="middle" x="414" y="-235" font-family="Helvetica,sans-Serif" font-size="10.00">Om::Language::Operand</text>
</a>
</g>
</g>
<!-- Node3&#45;&gt;Node2 -->
<g id="edge2" class="edge"><title>Node3&#45;&gt;Node2</title>
<path fill="none" stroke="#9a32cd" stroke-dasharray="5,2" d="M412.085,-219.031C409.225,-192.187 403.95,-142.686 401.873,-123.194"/>
<polygon fill="#9a32cd" stroke="#9a32cd" points="408.607,-219.422 413.147,-228.995 415.568,-218.681 408.607,-219.422"/>
<text text-anchor="middle" x="431.677" y="-192" font-family="Helvetica,sans-Serif" font-size="10.00"> elements</text>
</g>
<!-- Node4 -->
<g id="node4" class="node"><title>Node4</title>
<g id="a_node4"><a xlink:href="class_om_1_1_language_1_1_default_element.html" target="_top" xlink:title=" ">
<polygon fill="none" stroke="black" points="335.958,-310 335.958,-338 492.042,-338 492.042,-310 335.958,-310"/>
<text text-anchor="start" x="343.958" y="-326" font-family="Helvetica,sans-Serif" font-size="10.00">Om::Language::DefaultElement</text>
<text text-anchor="middle" x="414" y="-316" font-family="Helvetica,sans-Serif" font-size="10.00">&lt; Operand &gt;</text>
</a>
</g>
</g>
<!-- Node4&#45;&gt;Node3 -->
<g id="edge3" class="edge"><title>Node4&#45;&gt;Node3</title>
<path fill="none" stroke="midnightblue" d="M414,-299.828C414,-282.312 414,-259.286 414,-247.207"/>
<polygon fill="midnightblue" stroke="midnightblue" points="410.5,-299.875 414,-309.875 417.5,-299.875 410.5,-299.875"/>
</g>
<!-- Node5 -->
<g id="node5" class="node"><title>Node5</title>
<g id="a_node5"><a xlink:href="class_om_1_1_language_1_1_default_program.html" target="_top" xlink:title=" ">
<polygon fill="none" stroke="black" points="335.128,-383 335.128,-421 492.872,-421 492.872,-383 335.128,-383"/>
<text text-anchor="start" x="343.128" y="-409" font-family="Helvetica,sans-Serif" font-size="10.00">Om::Language::DefaultProgram</text>
<text text-anchor="start" x="343.128" y="-399" font-family="Helvetica,sans-Serif" font-size="10.00">&lt; Operand, Om::Language::</text>
<text text-anchor="middle" x="414" y="-389" font-family="Helvetica,sans-Serif" font-size="10.00">Element &gt;</text>
</a>
</g>
</g>
<!-- Node5&#45;&gt;Node4 -->
<g id="edge4" class="edge"><title>Node5&#45;&gt;Node4</title>
<path fill="none" stroke="midnightblue" d="M414,-372.703C414,-360.942 414,-347.852 414,-338.363"/>
<polygon fill="midnightblue" stroke="midnightblue" points="410.5,-372.989 414,-382.989 417.5,-372.989 410.5,-372.989"/>
</g>
<!-- Node6 -->
<g id="node6" class="node"><title>Node6</title>
<g id="a_node6"><a xlink:href="class_om_1_1_language_1_1_default_consumer.html" target="_top" xlink:title=" ">
<polygon fill="none" stroke="black" points="316.637,-461 316.637,-499 511.363,-499 511.363,-461 316.637,-461"/>
<text text-anchor="start" x="324.637" y="-487" font-family="Helvetica,sans-Serif" font-size="10.00">Om::Language::DefaultConsumer</text>
<text text-anchor="start" x="324.637" y="-477" font-family="Helvetica,sans-Serif" font-size="10.00">&lt; Operand, DefaultGiveable</text>
<text text-anchor="middle" x="414" y="-467" font-family="Helvetica,sans-Serif" font-size="10.00">&lt; Operand, Om::Language::Element &gt; &gt;</text>
</a>
</g>
</g>
<!-- Node6&#45;&gt;Node5 -->
<g id="edge5" class="edge"><title>Node6&#45;&gt;Node5</title>
<path fill="none" stroke="midnightblue" d="M414,-450.754C414,-440.85 414,-429.998 414,-421.145"/>
<polygon fill="midnightblue" stroke="midnightblue" points="410.5,-450.989 414,-460.989 417.5,-450.989 410.5,-450.989"/>
</g>
<!-- Node7 -->
<g id="node7" class="node"><title>Node7</title>
<g id="a_node7"><a xlink:href="class_om_1_1_default_giveable.html" target="_top" xlink:title=" ">
<polygon fill="none" stroke="black" points="304.376,-544 304.376,-582 439.624,-582 439.624,-544 304.376,-544"/>
<text text-anchor="start" x="312.376" y="-570" font-family="Helvetica,sans-Serif" font-size="10.00">Om::DefaultGiveable</text>
<text text-anchor="start" x="312.376" y="-560" font-family="Helvetica,sans-Serif" font-size="10.00">&lt; Operand, Om::Language</text>
<text text-anchor="middle" x="372" y="-550" font-family="Helvetica,sans-Serif" font-size="10.00">::Element &gt;</text>
</a>
</g>
</g>
<!-- Node7&#45;&gt;Node6 -->
<g id="edge6" class="edge"><title>Node7&#45;&gt;Node6</title>
<path fill="none" stroke="midnightblue" d="M386.185,-534.642C392.276,-522.897 399.224,-509.497 404.652,-499.028"/>
<polygon fill="midnightblue" stroke="midnightblue" points="383.027,-533.131 381.53,-543.62 389.241,-536.353 383.027,-533.131"/>
</g>
<!-- Node8 -->
<g id="node8" class="node"><title>Node8</title>
<g id="a_node8"><a xlink:href="class_om_1_1_default_moveable.html" target="_top" xlink:title=" ">
<polygon fill="none" stroke="black" points="292.487,-627 292.487,-675 435.513,-675 435.513,-627 292.487,-627"/>
<text text-anchor="start" x="300.487" y="-663" font-family="Helvetica,sans-Serif" font-size="10.00">Om::DefaultMoveable</text>
<text text-anchor="start" x="300.487" y="-653" font-family="Helvetica,sans-Serif" font-size="10.00">&lt; Operand, DefaultCopyable</text>
<text text-anchor="start" x="300.487" y="-643" font-family="Helvetica,sans-Serif" font-size="10.00">&lt; Operand, Om::Language</text>
<text text-anchor="middle" x="364" y="-633" font-family="Helvetica,sans-Serif" font-size="10.00">::Element &gt; &gt;</text>
</a>
</g>
</g>
<!-- Node8&#45;&gt;Node7 -->
<g id="edge7" class="edge"><title>Node8&#45;&gt;Node7</title>
<path fill="none" stroke="midnightblue" d="M367.074,-616.952C368.172,-605.152 369.368,-592.294 370.307,-582.204"/>
<polygon fill="midnightblue" stroke="midnightblue" points="363.585,-616.672 366.144,-626.954 370.555,-617.321 363.585,-616.672"/>
</g>
<!-- Node9 -->
<g id="node9" class="node"><title>Node9</title>
<g id="a_node9"><a xlink:href="class_om_1_1_default_copyable.html" target="_top" xlink:title=" ">
<polygon fill="none" stroke="black" points="290.376,-715 290.376,-753 425.624,-753 425.624,-715 290.376,-715"/>
<text text-anchor="start" x="298.376" y="-741" font-family="Helvetica,sans-Serif" font-size="10.00">Om::DefaultCopyable</text>
<text text-anchor="start" x="298.376" y="-731" font-family="Helvetica,sans-Serif" font-size="10.00">&lt; Operand, Om::Language</text>
<text text-anchor="middle" x="358" y="-721" font-family="Helvetica,sans-Serif" font-size="10.00">::Element &gt;</text>
</a>
</g>
</g>
<!-- Node9&#45;&gt;Node8 -->
<g id="edge8" class="edge"><title>Node9&#45;&gt;Node8</title>
<path fill="none" stroke="midnightblue" d="M360.12,-704.382C360.827,-694.838 361.605,-684.328 362.278,-675.244"/>
<polygon fill="midnightblue" stroke="midnightblue" points="356.61,-704.389 359.361,-714.62 363.591,-704.906 356.61,-704.389"/>
</g>
<!-- Node10 -->
<g id="node10" class="node"><title>Node10</title>
<g id="a_node10"><a xlink:href="class_om_1_1_language_1_1_element.html" target="_top" xlink:title="A Program that contains a single elemental item (or none, when IsEmpty() returns true).">
<polygon fill="none" stroke="black" points="238.801,-793 238.801,-811 363.199,-811 363.199,-793 238.801,-793"/>
<text text-anchor="middle" x="301" y="-799" font-family="Helvetica,sans-Serif" font-size="10.00">Om::Language::Element</text>
</a>
</g>
</g>
<!-- Node10&#45;&gt;Node9 -->
<g id="edge9" class="edge"><title>Node10&#45;&gt;Node9</title>
<path fill="none" stroke="midnightblue" d="M314.598,-785.255C322.938,-775.598 333.646,-763.199 342.34,-753.133"/>
<polygon fill="midnightblue" stroke="midnightblue" points="311.877,-783.051 307.989,-792.907 317.174,-787.627 311.877,-783.051"/>
</g>
<!-- Node29 -->
<g id="node29" class="node"><title>Node29</title>
<g id="a_node29"><a xlink:href="class_om_1_1_language_1_1_atom.html" target="_top" xlink:title="An atomic Element defined by a string.">
<polygon fill="none" stroke="black" points="160.473,-725 160.473,-743 271.527,-743 271.527,-725 160.473,-725"/>
<text text-anchor="middle" x="216" y="-731" font-family="Helvetica,sans-Serif" font-size="10.00">Om::Language::Atom</text>
</a>
</g>
</g>
<!-- Node10&#45;&gt;Node29 -->
<g id="edge29" class="edge"><title>Node10&#45;&gt;Node29</title>
<path fill="none" stroke="midnightblue" d="M282.415,-786.569C265.276,-773.261 240.445,-753.981 226.508,-743.159"/>
<polygon fill="midnightblue" stroke="midnightblue" points="280.532,-789.539 290.577,-792.907 284.825,-784.01 280.532,-789.539"/>
</g>
<!-- Node11 -->
<g id="node11" class="node"><title>Node11</title>
<g id="a_node11"><a xlink:href="class_om_1_1_language_1_1_program.html" target="_top" xlink:title="The Program implementation.">
<polygon fill="none" stroke="black" points="237.971,-851 237.971,-869 364.029,-869 364.029,-851 237.971,-851"/>
<text text-anchor="middle" x="301" y="-857" font-family="Helvetica,sans-Serif" font-size="10.00">Om::Language::Program</text>
</a>
</g>
</g>
<!-- Node11&#45;&gt;Node10 -->
<g id="edge10" class="edge"><title>Node11&#45;&gt;Node10</title>
<path fill="none" stroke="midnightblue" d="M301,-840.646C301,-830.741 301,-819.001 301,-811.297"/>
<polygon fill="midnightblue" stroke="midnightblue" points="297.5,-840.737 301,-850.737 304.5,-840.737 297.5,-840.737"/>
</g>
<!-- Node12 -->
<g id="node12" class="node"><title>Node12</title>
<g id="a_node12"><a xlink:href="class_om_1_1_language_1_1_consumer.html" target="_top" xlink:title="An Element taker; takes at the back.">
<polygon fill="none" stroke="black" points="27.0791,-909 27.0791,-927 160.921,-927 160.921,-909 27.0791,-909"/>
<text text-anchor="middle" x="94" y="-915" font-family="Helvetica,sans-Serif" font-size="10.00">Om::Language::Consumer</text>
</a>
</g>
</g>
<!-- Node12&#45;&gt;Node11 -->
<g id="edge11" class="edge"><title>Node12&#45;&gt;Node11</title>
<path fill="none" stroke="midnightblue" d="M133.397,-906.342C173.619,-895.461 235.146,-878.816 271.397,-869.009"/>
<polygon fill="midnightblue" stroke="midnightblue" points="132.397,-902.987 123.658,-908.977 134.225,-909.744 132.397,-902.987"/>
</g>
<!-- Node13 -->
<g id="node13" class="node"><title>Node13</title>
<g id="a_node13"><a xlink:href="class_om_1_1_giveable.html" target="_top" xlink:title="An object that can be copied or moved via Give.">
<polygon fill="none" stroke="black" points="178.434,-909 178.434,-927 255.566,-927 255.566,-909 178.434,-909"/>
<text text-anchor="middle" x="217" y="-915" font-family="Helvetica,sans-Serif" font-size="10.00">Om::Giveable</text>
</a>
</g>
</g>
<!-- Node13&#45;&gt;Node11 -->
<g id="edge12" class="edge"><title>Node13&#45;&gt;Node11</title>
<path fill="none" stroke="midnightblue" d="M237.762,-903.159C253.875,-892.417 275.648,-877.901 288.987,-869.009"/>
<polygon fill="midnightblue" stroke="midnightblue" points="235.414,-900.517 229.035,-908.977 239.297,-906.342 235.414,-900.517"/>
</g>
<!-- Node14 -->
<g id="node14" class="node"><title>Node14</title>
<g id="a_node14"><a xlink:href="class_om_1_1_copyable.html" target="_top" xlink:title="An object that can be passed to Copy to be copied.">
<polygon fill="none" stroke="black" points="128.042,-967 128.042,-985 207.958,-985 207.958,-967 128.042,-967"/>
<text text-anchor="middle" x="168" y="-973" font-family="Helvetica,sans-Serif" font-size="10.00">Om::Copyable</text>
</a>
</g>
</g>
<!-- Node14&#45;&gt;Node13 -->
<g id="edge13" class="edge"><title>Node14&#45;&gt;Node13</title>
<path fill="none" stroke="midnightblue" d="M181.862,-959.158C190.933,-948.791 202.419,-935.664 209.74,-927.297"/>
<polygon fill="midnightblue" stroke="midnightblue" points="179.181,-956.906 175.23,-966.737 184.449,-961.516 179.181,-956.906"/>
</g>
<!-- Node15 -->
<g id="node15" class="node"><title>Node15</title>
<g id="a_node15"><a xlink:href="class_om_1_1_moveable.html" target="_top" xlink:title="An object that can be passed to Move to be moved.">
<polygon fill="none" stroke="black" points="225.488,-967 225.488,-985 306.512,-985 306.512,-967 225.488,-967"/>
<text text-anchor="middle" x="266" y="-973" font-family="Helvetica,sans-Serif" font-size="10.00">Om::Moveable</text>
</a>
</g>
</g>
<!-- Node15&#45;&gt;Node13 -->
<g id="edge14" class="edge"><title>Node15&#45;&gt;Node13</title>
<path fill="none" stroke="midnightblue" d="M252.138,-959.158C243.067,-948.791 231.581,-935.664 224.26,-927.297"/>
<polygon fill="midnightblue" stroke="midnightblue" points="249.551,-961.516 258.77,-966.737 254.819,-956.906 249.551,-961.516"/>
</g>
<!-- Node16 -->
<g id="node16" class="node"><title>Node16</title>
<g id="a_node16"><a xlink:href="class_om_1_1_language_1_1_producer.html" target="_top" xlink:title="An Element giver; gives from the front.">
<polygon fill="none" stroke="black" points="273.855,-909 273.855,-927 402.145,-927 402.145,-909 273.855,-909"/>
<text text-anchor="middle" x="338" y="-915" font-family="Helvetica,sans-Serif" font-size="10.00">Om::Language::Producer</text>
</a>
</g>
</g>
<!-- Node16&#45;&gt;Node11 -->
<g id="edge15" class="edge"><title>Node16&#45;&gt;Node11</title>
<path fill="none" stroke="midnightblue" d="M326.918,-900.227C320.171,-890.015 311.846,-877.416 306.482,-869.297"/>
<polygon fill="midnightblue" stroke="midnightblue" points="324.108,-902.323 332.541,-908.737 329.948,-898.464 324.108,-902.323"/>
</g>
<!-- Node17 -->
<g id="node17" class="node"><title>Node17</title>
<g id="a_node17"><a xlink:href="class_om_1_1_shareable.html" target="_top" xlink:title=" ">
<polygon fill="none" stroke="black" points="420.532,-909 420.532,-927 515.468,-927 515.468,-909 420.532,-909"/>
<text text-anchor="middle" x="468" y="-915" font-family="Helvetica,sans-Serif" font-size="10.00">Om::Shareable&lt;&gt;</text>
</a>
</g>
</g>
<!-- Node17&#45;&gt;Node11 -->
<g id="edge16" class="edge"><title>Node17&#45;&gt;Node11</title>
<path fill="none" stroke="midnightblue" d="M434.552,-905.784C402.09,-894.898 353.633,-878.649 324.883,-869.009"/>
<polygon fill="midnightblue" stroke="midnightblue" points="433.479,-909.116 444.073,-908.977 435.705,-902.479 433.479,-909.116"/>
</g>
<!-- Node18 -->
<g id="node18" class="node"><title>Node18</title>
<g id="a_node18"><a xlink:href="class_om_1_1_taker.html" target="_top" xlink:title=" ">
<polygon fill="none" stroke="black" points="180.865,-471 180.865,-489 299.135,-489 299.135,-471 180.865,-471"/>
<text text-anchor="middle" x="240" y="-477" font-family="Helvetica,sans-Serif" font-size="10.00">Om::Taker&lt; Operand &gt;</text>
</a>
</g>
</g>
<!-- Node18&#45;&gt;Node5 -->
<g id="edge17" class="edge"><title>Node18&#45;&gt;Node5</title>
<path fill="none" stroke="midnightblue" d="M267.912,-466.809C296.165,-454.468 340.179,-435.243 372.516,-421.119"/>
<polygon fill="midnightblue" stroke="midnightblue" points="266.384,-463.657 258.621,-470.867 269.186,-470.071 266.384,-463.657"/>
</g>
<!-- Node19 -->
<g id="node19" class="node"><title>Node19</title>
<g id="a_node19"><a xlink:href="class_om_1_1_owner.html" target="_top" xlink:title=" ">
<polygon fill="none" stroke="black" points="510.053,-310 510.053,-338 651.947,-338 651.947,-310 510.053,-310"/>
<text text-anchor="start" x="518.053" y="-326" font-family="Helvetica,sans-Serif" font-size="10.00">Om::Owner&lt; Om::Language</text>
<text text-anchor="middle" x="581" y="-316" font-family="Helvetica,sans-Serif" font-size="10.00">::Program &gt;</text>
</a>
</g>
</g>
<!-- Node19&#45;&gt;Node3 -->
<g id="edge18" class="edge"><title>Node19&#45;&gt;Node3</title>
<path fill="none" stroke="#9a32cd" stroke-dasharray="5,2" d="M545.837,-305.313C510.296,-287.436 456.936,-260.597 430.317,-247.207"/>
<polygon fill="#9a32cd" stroke="#9a32cd" points="544.4,-308.508 554.906,-309.875 547.545,-302.255 544.4,-308.508"/>
<text text-anchor="middle" x="531.342" y="-278" font-family="Helvetica,sans-Serif" font-size="10.00"> thisProgram</text>
</g>
<!-- Node20 -->
<g id="node20" class="node"><title>Node20</title>
<g id="a_node20"><a xlink:href="class_om_1_1_taker.html" target="_top" xlink:title=" ">
<polygon fill="none" stroke="black" points="517.407,-388 517.407,-416 644.593,-416 644.593,-388 517.407,-388"/>
<text text-anchor="start" x="525.407" y="-404" font-family="Helvetica,sans-Serif" font-size="10.00">Om::Taker&lt; Owner&lt; Om</text>
<text text-anchor="middle" x="581" y="-394" font-family="Helvetica,sans-Serif" font-size="10.00">::Language::Program &gt; &gt;</text>
</a>
</g>
</g>
<!-- Node20&#45;&gt;Node19 -->
<g id="edge19" class="edge"><title>Node20&#45;&gt;Node19</title>
<path fill="none" stroke="midnightblue" d="M581,-377.641C581,-364.64 581,-348.939 581,-338.086"/>
<polygon fill="midnightblue" stroke="midnightblue" points="577.5,-377.762 581,-387.762 584.5,-377.762 577.5,-377.762"/>
</g>
<!-- Node21 -->
<g id="node21" class="node"><title>Node21</title>
<g id="a_node21"><a xlink:href="class_om_1_1_language_1_1_operator.html" target="_top" xlink:title="The Operator implementation.">
<polygon fill="none" stroke="black" points="231.412,-67 231.412,-85 358.588,-85 358.588,-67 231.412,-67"/>
<text text-anchor="middle" x="295" y="-73" font-family="Helvetica,sans-Serif" font-size="10.00">Om::Language::Operator</text>
</a>
</g>
</g>
<!-- Node21&#45;&gt;Node1 -->
<g id="edge20" class="edge"><title>Node21&#45;&gt;Node1</title>
<path fill="none" stroke="#9a32cd" stroke-dasharray="5,2" d="M307.163,-58.6406C312.241,-52.0662 318.318,-44.5158 324.197,-38 330.147,-31.4058 337.353,-24.4334 342.938,-19.226"/>
<polygon fill="#9a32cd" stroke="#9a32cd" points="304.221,-56.728 300.97,-66.812 309.8,-60.9559 304.221,-56.728"/>
<text text-anchor="middle" x="353.901" y="-40" font-family="Helvetica,sans-Serif" font-size="10.00"> thisOperator</text>
</g>
<!-- Node22 -->
<g id="node22" class="node"><title>Node22</title>
<g id="a_node22"><a xlink:href="class_om_1_1_language_1_1_default_atom.html" target="_top" xlink:title=" ">
<polygon fill="none" stroke="black" points="199.631,-143 199.631,-171 342.369,-171 342.369,-143 199.631,-143"/>
<text text-anchor="start" x="207.631" y="-159" font-family="Helvetica,sans-Serif" font-size="10.00">Om::Language::DefaultAtom</text>
<text text-anchor="middle" x="271" y="-149" font-family="Helvetica,sans-Serif" font-size="10.00">&lt; Operator &gt;</text>
</a>
</g>
</g>
<!-- Node22&#45;&gt;Node21 -->
<g id="edge21" class="edge"><title>Node22&#45;&gt;Node21</title>
<path fill="none" stroke="midnightblue" d="M277.951,-133.119C282.87,-116.929 289.173,-96.1817 292.569,-85.0005"/>
<polygon fill="midnightblue" stroke="midnightblue" points="274.521,-132.369 274.963,-142.955 281.219,-134.404 274.521,-132.369"/>
</g>
<!-- Node23 -->
<g id="node23" class="node"><title>Node23</title>
<g id="a_node23"><a xlink:href="class_om_1_1_language_1_1_default_element.html" target="_top" xlink:title=" ">
<polygon fill="none" stroke="black" points="62.9585,-219 62.9585,-257 219.042,-257 219.042,-219 62.9585,-219"/>
<text text-anchor="start" x="70.9585" y="-245" font-family="Helvetica,sans-Serif" font-size="10.00">Om::Language::DefaultElement</text>
<text text-anchor="start" x="70.9585" y="-235" font-family="Helvetica,sans-Serif" font-size="10.00">&lt; Operator, Om::Language</text>
<text text-anchor="middle" x="141" y="-225" font-family="Helvetica,sans-Serif" font-size="10.00">::Atom &gt;</text>
</a>
</g>
</g>
<!-- Node23&#45;&gt;Node22 -->
<g id="edge22" class="edge"><title>Node23&#45;&gt;Node22</title>
<path fill="none" stroke="midnightblue" d="M179.601,-213.542C202.418,-199.677 230.463,-182.634 249.424,-171.112"/>
<polygon fill="midnightblue" stroke="midnightblue" points="177.553,-210.692 170.825,-218.876 181.188,-216.674 177.553,-210.692"/>
</g>
<!-- Node24 -->
<g id="node24" class="node"><title>Node24</title>
<g id="a_node24"><a xlink:href="class_om_1_1_language_1_1_default_program.html" target="_top" xlink:title=" ">
<polygon fill="none" stroke="black" points="48.1284,-305 48.1284,-343 205.872,-343 205.872,-305 48.1284,-305"/>
<text text-anchor="start" x="56.1284" y="-331" font-family="Helvetica,sans-Serif" font-size="10.00">Om::Language::DefaultProgram</text>
<text text-anchor="start" x="56.1284" y="-321" font-family="Helvetica,sans-Serif" font-size="10.00">&lt; Operator, Om::Language</text>
<text text-anchor="middle" x="127" y="-311" font-family="Helvetica,sans-Serif" font-size="10.00">::Atom &gt;</text>
</a>
</g>
</g>
<!-- Node24&#45;&gt;Node23 -->
<g id="edge23" class="edge"><title>Node24&#45;&gt;Node23</title>
<path fill="none" stroke="midnightblue" d="M131.688,-294.874C133.759,-282.446 136.135,-268.192 137.968,-257.191"/>
<polygon fill="midnightblue" stroke="midnightblue" points="128.229,-294.334 130.038,-304.773 135.134,-295.485 128.229,-294.334"/>
</g>
<!-- Node25 -->
<g id="node25" class="node"><title>Node25</title>
<g id="a_node25"><a xlink:href="class_om_1_1_language_1_1_default_consumer.html" target="_top" xlink:title=" ">
<polygon fill="none" stroke="black" points="-0.69043,-383 -0.69043,-421 180.69,-421 180.69,-383 -0.69043,-383"/>
<text text-anchor="start" x="7.30957" y="-409" font-family="Helvetica,sans-Serif" font-size="10.00">Om::Language::DefaultConsumer</text>
<text text-anchor="start" x="7.30957" y="-399" font-family="Helvetica,sans-Serif" font-size="10.00">&lt; Operator, DefaultGiveable</text>
<text text-anchor="middle" x="90" y="-389" font-family="Helvetica,sans-Serif" font-size="10.00">&lt; Operator, Om::Language::Atom &gt; &gt;</text>
</a>
</g>
</g>
<!-- Node25&#45;&gt;Node24 -->
<g id="edge24" class="edge"><title>Node25&#45;&gt;Node24</title>
<path fill="none" stroke="midnightblue" d="M103.291,-373.699C108.235,-363.545 113.719,-352.28 118.166,-343.145"/>
<polygon fill="midnightblue" stroke="midnightblue" points="99.9989,-372.466 98.7685,-382.989 106.293,-375.53 99.9989,-372.466"/>
</g>
<!-- Node26 -->
<g id="node26" class="node"><title>Node26</title>
<g id="a_node26"><a xlink:href="class_om_1_1_default_giveable.html" target="_top" xlink:title=" ">
<polygon fill="none" stroke="black" points="26.376,-461 26.376,-499 161.624,-499 161.624,-461 26.376,-461"/>
<text text-anchor="start" x="34.376" y="-487" font-family="Helvetica,sans-Serif" font-size="10.00">Om::DefaultGiveable</text>
<text text-anchor="start" x="34.376" y="-477" font-family="Helvetica,sans-Serif" font-size="10.00">&lt; Operator, Om::Language</text>
<text text-anchor="middle" x="94" y="-467" font-family="Helvetica,sans-Serif" font-size="10.00">::Atom &gt;</text>
</a>
</g>
</g>
<!-- Node26&#45;&gt;Node25 -->
<g id="edge25" class="edge"><title>Node26&#45;&gt;Node25</title>
<path fill="none" stroke="midnightblue" d="M92.5134,-450.754C91.9921,-440.85 91.4209,-429.998 90.955,-421.145"/>
<polygon fill="midnightblue" stroke="midnightblue" points="89.0312,-451.187 93.0521,-460.989 96.0215,-450.819 89.0312,-451.187"/>
</g>
<!-- Node27 -->
<g id="node27" class="node"><title>Node27</title>
<g id="a_node27"><a xlink:href="class_om_1_1_default_moveable.html" target="_top" xlink:title=" ">
<polygon fill="none" stroke="black" points="123.487,-539 123.487,-587 266.513,-587 266.513,-539 123.487,-539"/>
<text text-anchor="start" x="131.487" y="-575" font-family="Helvetica,sans-Serif" font-size="10.00">Om::DefaultMoveable</text>
<text text-anchor="start" x="131.487" y="-565" font-family="Helvetica,sans-Serif" font-size="10.00">&lt; Operator, DefaultCopyable</text>
<text text-anchor="start" x="131.487" y="-555" font-family="Helvetica,sans-Serif" font-size="10.00">&lt; Operator, Om::Language</text>
<text text-anchor="middle" x="195" y="-545" font-family="Helvetica,sans-Serif" font-size="10.00">::Atom &gt; &gt;</text>
</a>
</g>
</g>
<!-- Node27&#45;&gt;Node26 -->
<g id="edge26" class="edge"><title>Node27&#45;&gt;Node26</title>
<path fill="none" stroke="midnightblue" d="M158.069,-532.382C144.149,-521.218 128.743,-508.864 116.528,-499.067"/>
<polygon fill="midnightblue" stroke="midnightblue" points="156.067,-535.263 166.057,-538.789 160.446,-529.802 156.067,-535.263"/>
</g>
<!-- Node28 -->
<g id="node28" class="node"><title>Node28</title>
<g id="a_node28"><a xlink:href="class_om_1_1_default_copyable.html" target="_top" xlink:title=" ">
<polygon fill="none" stroke="black" points="138.376,-632 138.376,-670 273.624,-670 273.624,-632 138.376,-632"/>
<text text-anchor="start" x="146.376" y="-658" font-family="Helvetica,sans-Serif" font-size="10.00">Om::DefaultCopyable</text>
<text text-anchor="start" x="146.376" y="-648" font-family="Helvetica,sans-Serif" font-size="10.00">&lt; Operator, Om::Language</text>
<text text-anchor="middle" x="206" y="-638" font-family="Helvetica,sans-Serif" font-size="10.00">::Atom &gt;</text>
</a>
</g>
</g>
<!-- Node28&#45;&gt;Node27 -->
<g id="edge27" class="edge"><title>Node28&#45;&gt;Node27</title>
<path fill="none" stroke="midnightblue" d="M202.369,-621.613C200.938,-610.427 199.316,-597.744 197.959,-587.131"/>
<polygon fill="midnightblue" stroke="midnightblue" points="198.927,-622.287 203.667,-631.762 205.87,-621.398 198.927,-622.287"/>
</g>
<!-- Node29&#45;&gt;Node28 -->
<g id="edge28" class="edge"><title>Node29&#45;&gt;Node28</title>
<path fill="none" stroke="midnightblue" d="M213.741,-714.699C212.104,-701.44 209.9,-683.587 208.262,-670.323"/>
<polygon fill="midnightblue" stroke="midnightblue" points="210.306,-715.441 215.005,-724.937 217.253,-714.584 210.306,-715.441"/>
</g>
<!-- Node30 -->
<g id="node30" class="node"><title>Node30</title>
<g id="a_node30"><a xlink:href="class_om_1_1_taker.html" target="_top" xlink:title=" ">
<polygon fill="none" stroke="black" points="198.591,-393 198.591,-411 317.409,-411 317.409,-393 198.591,-393"/>
<text text-anchor="middle" x="258" y="-399" font-family="Helvetica,sans-Serif" font-size="10.00">Om::Taker&lt; Operator &gt;</text>
</a>
</g>
</g>
<!-- Node30&#45;&gt;Node24 -->
<g id="edge30" class="edge"><title>Node30&#45;&gt;Node24</title>
<path fill="none" stroke="midnightblue" d="M235.29,-387.825C213.985,-375.464 181.94,-356.873 158.232,-343.119"/>
<polygon fill="midnightblue" stroke="midnightblue" points="233.575,-390.876 243.981,-392.867 237.087,-384.821 233.575,-390.876"/>
</g>
<!-- Node31 -->
<g id="node31" class="node"><title>Node31</title>
<g id="a_node31"><a xlink:title="STL class.">
<polygon fill="none" stroke="#bfbfbf" points="241.325,-229 241.325,-247 300.675,-247 300.675,-229 241.325,-229"/>
<text text-anchor="middle" x="271" y="-235" font-family="Helvetica,sans-Serif" font-size="10.00">std::string</text>
</a>
</g>
</g>
<!-- Node31&#45;&gt;Node22 -->
<g id="edge31" class="edge"><title>Node31&#45;&gt;Node22</title>
<path fill="none" stroke="#9a32cd" stroke-dasharray="5,2" d="M271,-218.589C271,-204.072 271,-184.179 271,-171.21"/>
<polygon fill="#9a32cd" stroke="#9a32cd" points="267.5,-218.843 271,-228.843 274.5,-218.843 267.5,-218.843"/>
<text text-anchor="middle" x="293.231" y="-192" font-family="Helvetica,sans-Serif" font-size="10.00"> thisString</text>
</g>
<!-- Node32 -->
<g id="node32" class="node"><title>Node32</title>
<g id="a_node32"><a xlink:title="STL class.">
<polygon fill="none" stroke="#bfbfbf" points="223.952,-310 223.952,-338 318.048,-338 318.048,-310 223.952,-310"/>
<text text-anchor="start" x="231.952" y="-326" font-family="Helvetica,sans-Serif" font-size="10.00">std::basic_string&lt;</text>
<text text-anchor="middle" x="271" y="-316" font-family="Helvetica,sans-Serif" font-size="10.00"> char &gt;</text>
</a>
</g>
</g>
<!-- Node32&#45;&gt;Node31 -->
<g id="edge32" class="edge"><title>Node32&#45;&gt;Node31</title>
<path fill="none" stroke="midnightblue" d="M271,-299.828C271,-282.312 271,-259.286 271,-247.207"/>
<polygon fill="midnightblue" stroke="midnightblue" points="267.5,-299.875 271,-309.875 274.5,-299.875 267.5,-299.875"/>
</g>
</g>
</svg>
