<?xml version="1.0" encoding="UTF-8" standalone="no"?>
<!DOCTYPE svg PUBLIC "-//W3C//DTD SVG 1.1//EN"
 "http://www.w3.org/Graphics/SVG/1.1/DTD/svg11.dtd">
<!-- Generated by graphviz version 2.34.0 (20130907.0228)
 -->
<!-- Title: Om::Operation::SkipOperation Pages: 1 -->
<svg width="903pt" height="1170pt"
 viewBox="0.00 0.00 903.00 1170.00" xmlns="http://www.w3.org/2000/svg" xmlns:xlink="http://www.w3.org/1999/xlink">
<g id="graph0" class="graph" transform="scale(1 1) rotate(0) translate(4 1166)">
<title>Om::Operation::SkipOperation</title>
<!-- Node1 -->
<g id="node1" class="node"><title>Node1</title>
<polygon fill="#bfbfbf" stroke="black" points="177.747,-1 177.747,-21 328.253,-21 328.253,-1 177.747,-1"/>
<text text-anchor="middle" x="253" y="-7" font-family="Helvetica,sans-Serif" font-size="10.00">Om::Operation::SkipOperation</text>
</g>
<!-- Node2 -->
<g id="node2" class="node"><title>Node2</title>
<g id="a_node2"><a xlink:href="class_om_1_1_operation_1_1_default_incomplete_operation.html" target="_top" xlink:title="Om::Operation::DefaultIncomplete\lOperation\&lt; SkipOperation \&gt;">
<polygon fill="none" stroke="black" points="83.1309,-71 83.1309,-103 250.869,-103 250.869,-71 83.1309,-71"/>
<text text-anchor="start" x="91.1309" y="-89" font-family="Helvetica,sans-Serif" font-size="10.00">Om::Operation::DefaultIncomplete</text>
<text text-anchor="middle" x="167" y="-77" font-family="Helvetica,sans-Serif" font-size="10.00">Operation&lt; SkipOperation &gt;</text>
</a>
</g>
</g>
<!-- Node2&#45;&gt;Node1 -->
<g id="edge1" class="edge"><title>Node2&#45;&gt;Node1</title>
<path fill="none" stroke="midnightblue" d="M192.57,-63.9983C209.15,-49.7313 229.893,-31.8829 242.26,-21.2412"/>
<polygon fill="midnightblue" stroke="midnightblue" points="190.117,-61.4917 184.819,-70.6672 194.682,-66.7977 190.117,-61.4917"/>
</g>
<!-- Node3 -->
<g id="node3" class="node"><title>Node3</title>
<g id="a_node3"><a xlink:href="class_om_1_1_operation_1_1_incomplete_operation.html" target="_top" xlink:title="An Operation that has yet to consume one or more Operands and must live in memory until complete...">
<polygon fill="none" stroke="black" points="98.9731,-153 98.9731,-185 235.027,-185 235.027,-153 98.9731,-153"/>
<text text-anchor="start" x="106.973" y="-171" font-family="Helvetica,sans-Serif" font-size="10.00">Om::Operation::Incomplete</text>
<text text-anchor="middle" x="167" y="-159" font-family="Helvetica,sans-Serif" font-size="10.00">Operation</text>
</a>
</g>
</g>
<!-- Node3&#45;&gt;Node2 -->
<g id="edge2" class="edge"><title>Node3&#45;&gt;Node2</title>
<path fill="none" stroke="midnightblue" d="M167,-142.767C167,-129.793 167,-114.407 167,-103.252"/>
<polygon fill="midnightblue" stroke="midnightblue" points="163.5,-142.953 167,-152.953 170.5,-142.953 163.5,-142.953"/>
</g>
<!-- Node4 -->
<g id="node4" class="node"><title>Node4</title>
<g id="a_node4"><a xlink:href="class_om_1_1_expression.html" target="_top" xlink:title="The Expression Program implementation. ">
<polygon fill="none" stroke="black" points="268.434,-77 268.434,-97 355.566,-97 355.566,-77 268.434,-77"/>
<text text-anchor="middle" x="312" y="-83" font-family="Helvetica,sans-Serif" font-size="10.00">Om::Expression</text>
</a>
</g>
</g>
<!-- Node4&#45;&gt;Node1 -->
<g id="edge3" class="edge"><title>Node4&#45;&gt;Node1</title>
<path fill="none" stroke="#9a32cd" stroke-dasharray="5,2" d="M298.439,-68.9917C286.573,-54.1088 269.79,-33.0586 260.294,-21.1481"/>
<polygon fill="#9a32cd" stroke="#9a32cd" points="295.795,-71.2891 304.765,-76.9261 301.268,-66.9252 295.795,-71.2891"/>
<text text-anchor="middle" x="317.904" y="-42" font-family="Helvetica,sans-Serif" font-size="10.00"> thisExpression</text>
</g>
<!-- Node5 -->
<g id="node5" class="node"><title>Node5</title>
<g id="a_node5"><a xlink:href="class_om_1_1_default_program.html" target="_top" xlink:title="Om::DefaultProgram\l\&lt; Expression \&gt;">
<polygon fill="none" stroke="black" points="183.153,-517 183.153,-549 290.847,-549 290.847,-517 183.153,-517"/>
<text text-anchor="start" x="191.153" y="-535" font-family="Helvetica,sans-Serif" font-size="10.00">Om::DefaultProgram</text>
<text text-anchor="middle" x="237" y="-523" font-family="Helvetica,sans-Serif" font-size="10.00">&lt; Expression &gt;</text>
</a>
</g>
</g>
<!-- Node5&#45;&gt;Node4 -->
<g id="edge4" class="edge"><title>Node5&#45;&gt;Node4</title>
<path fill="none" stroke="midnightblue" d="M265.882,-509.947C278.727,-497.514 291,-480.733 291,-462 291,-462 291,-462 291,-168 291,-141.579 301.849,-111.81 307.951,-97.1549"/>
<polygon fill="midnightblue" stroke="midnightblue" points="263.425,-507.45 258.342,-516.746 268.112,-512.648 263.425,-507.45"/>
</g>
<!-- Node6 -->
<g id="node6" class="node"><title>Node6</title>
<g id="a_node6"><a xlink:href="class_om_1_1_default_consumer.html" target="_top" xlink:title="Om::DefaultConsumer\l\&lt; Expression, DefaultGiveable\l\&lt; Expression, ThisInterface \&gt; \&gt;">
<polygon fill="none" stroke="black" points="-0.25293,-589 -0.25293,-633 154.253,-633 154.253,-589 -0.25293,-589"/>
<text text-anchor="start" x="7.74707" y="-619" font-family="Helvetica,sans-Serif" font-size="10.00">Om::DefaultConsumer</text>
<text text-anchor="start" x="7.74707" y="-607" font-family="Helvetica,sans-Serif" font-size="10.00">&lt; Expression, DefaultGiveable</text>
<text text-anchor="middle" x="77" y="-595" font-family="Helvetica,sans-Serif" font-size="10.00">&lt; Expression, ThisInterface &gt; &gt;</text>
</a>
</g>
</g>
<!-- Node6&#45;&gt;Node5 -->
<g id="edge5" class="edge"><title>Node6&#45;&gt;Node5</title>
<path fill="none" stroke="midnightblue" d="M130.849,-584.422C155.601,-572.664 184.106,-559.124 205.341,-549.038"/>
<polygon fill="midnightblue" stroke="midnightblue" points="129.1,-581.378 121.569,-588.83 132.103,-587.701 129.1,-581.378"/>
</g>
<!-- Node7 -->
<g id="node7" class="node"><title>Node7</title>
<g id="a_node7"><a xlink:href="class_om_1_1_default_giveable.html" target="_top" xlink:title="Om::DefaultGiveable\l\&lt; Expression, ThisInterface \&gt;">
<polygon fill="none" stroke="black" points="154.056,-673 154.056,-705 299.944,-705 299.944,-673 154.056,-673"/>
<text text-anchor="start" x="162.056" y="-691" font-family="Helvetica,sans-Serif" font-size="10.00">Om::DefaultGiveable</text>
<text text-anchor="middle" x="227" y="-679" font-family="Helvetica,sans-Serif" font-size="10.00">&lt; Expression, ThisInterface &gt;</text>
</a>
</g>
</g>
<!-- Node7&#45;&gt;Node6 -->
<g id="edge6" class="edge"><title>Node7&#45;&gt;Node6</title>
<path fill="none" stroke="midnightblue" d="M188.244,-668.363C166.86,-657.529 140.301,-644.073 118.497,-633.025"/>
<polygon fill="midnightblue" stroke="midnightblue" points="186.863,-671.587 197.365,-672.985 190.026,-665.343 186.863,-671.587"/>
</g>
<!-- Node8 -->
<g id="node8" class="node"><title>Node8</title>
<g id="a_node8"><a xlink:href="class_om_1_1_default_moveable.html" target="_top" xlink:title="Om::DefaultMoveable\l\&lt; Expression, DefaultCopyable\l\&lt; Expression, ThisInterface \&gt; \&gt;">
<polygon fill="none" stroke="black" points="255.747,-745 255.747,-789 410.253,-789 410.253,-745 255.747,-745"/>
<text text-anchor="start" x="263.747" y="-775" font-family="Helvetica,sans-Serif" font-size="10.00">Om::DefaultMoveable</text>
<text text-anchor="start" x="263.747" y="-763" font-family="Helvetica,sans-Serif" font-size="10.00">&lt; Expression, DefaultCopyable</text>
<text text-anchor="middle" x="333" y="-751" font-family="Helvetica,sans-Serif" font-size="10.00">&lt; Expression, ThisInterface &gt; &gt;</text>
</a>
</g>
</g>
<!-- Node8&#45;&gt;Node7 -->
<g id="edge7" class="edge"><title>Node8&#45;&gt;Node7</title>
<path fill="none" stroke="midnightblue" d="M294.925,-738.701C279.108,-727.36 261.36,-714.636 247.974,-705.038"/>
<polygon fill="midnightblue" stroke="midnightblue" points="293.307,-741.847 303.473,-744.83 297.386,-736.158 293.307,-741.847"/>
</g>
<!-- Node9 -->
<g id="node9" class="node"><title>Node9</title>
<g id="a_node9"><a xlink:href="class_om_1_1_default_copyable.html" target="_top" xlink:title="Om::DefaultCopyable\l\&lt; Expression, ThisInterface \&gt;">
<polygon fill="none" stroke="black" points="265.056,-829 265.056,-861 410.944,-861 410.944,-829 265.056,-829"/>
<text text-anchor="start" x="273.056" y="-847" font-family="Helvetica,sans-Serif" font-size="10.00">Om::DefaultCopyable</text>
<text text-anchor="middle" x="338" y="-835" font-family="Helvetica,sans-Serif" font-size="10.00">&lt; Expression, ThisInterface &gt;</text>
</a>
</g>
</g>
<!-- Node9&#45;&gt;Node8 -->
<g id="edge8" class="edge"><title>Node9&#45;&gt;Node8</title>
<path fill="none" stroke="midnightblue" d="M336.341,-818.777C335.706,-809.13 334.989,-798.24 334.383,-789.025"/>
<polygon fill="midnightblue" stroke="midnightblue" points="332.863,-819.236 337.012,-828.985 339.848,-818.777 332.863,-819.236"/>
</g>
<!-- Node10 -->
<g id="node10" class="node"><title>Node10</title>
<polygon fill="none" stroke="#bfbfbf" points="365.099,-901 365.099,-921 438.901,-921 438.901,-901 365.099,-901"/>
<text text-anchor="middle" x="402" y="-907" font-family="Helvetica,sans-Serif" font-size="10.00">ThisInterface</text>
</g>
<!-- Node10&#45;&gt;Node9 -->
<g id="edge9" class="edge"><title>Node10&#45;&gt;Node9</title>
<path fill="none" stroke="midnightblue" d="M385.485,-893.485C375.481,-883.481 362.817,-870.817 353.084,-861.084"/>
<polygon fill="midnightblue" stroke="midnightblue" points="383.284,-896.234 392.83,-900.83 388.234,-891.284 383.284,-896.234"/>
</g>
<!-- Node41 -->
<g id="node41" class="node"><title>Node41</title>
<g id="a_node41"><a xlink:href="class_om_1_1_default_copyable.html" target="_top" xlink:title="Om::DefaultCopyable\l\&lt; Operand, ThisInterface \&gt;">
<polygon fill="none" stroke="black" points="431.332,-829 431.332,-861 566.668,-861 566.668,-829 431.332,-829"/>
<text text-anchor="start" x="439.332" y="-847" font-family="Helvetica,sans-Serif" font-size="10.00">Om::DefaultCopyable</text>
<text text-anchor="middle" x="499" y="-835" font-family="Helvetica,sans-Serif" font-size="10.00">&lt; Operand, ThisInterface &gt;</text>
</a>
</g>
</g>
<!-- Node10&#45;&gt;Node41 -->
<g id="edge41" class="edge"><title>Node10&#45;&gt;Node41</title>
<path fill="none" stroke="midnightblue" d="M424.373,-895.238C439.897,-884.996 460.51,-871.395 476.139,-861.084"/>
<polygon fill="midnightblue" stroke="midnightblue" points="422.317,-892.402 415.898,-900.83 426.172,-898.245 422.317,-892.402"/>
</g>
<!-- Node11 -->
<g id="node11" class="node"><title>Node11</title>
<g id="a_node11"><a xlink:href="class_om_1_1_taker.html" target="_top" xlink:title="Om::Taker\&lt; Expression \&gt;">
<polygon fill="none" stroke="black" points="172.589,-601 172.589,-621 301.411,-621 301.411,-601 172.589,-601"/>
<text text-anchor="middle" x="237" y="-607" font-family="Helvetica,sans-Serif" font-size="10.00">Om::Taker&lt; Expression &gt;</text>
</a>
</g>
</g>
<!-- Node11&#45;&gt;Node5 -->
<g id="edge10" class="edge"><title>Node11&#45;&gt;Node5</title>
<path fill="none" stroke="midnightblue" d="M237,-590.824C237,-577.867 237,-561.004 237,-549.022"/>
<polygon fill="midnightblue" stroke="midnightblue" points="233.5,-590.983 237,-600.983 240.5,-590.983 233.5,-590.983"/>
</g>
<!-- Node12 -->
<g id="node12" class="node"><title>Node12</title>
<polygon fill="none" stroke="#bfbfbf" points="328.365,-159 328.365,-179 431.635,-179 431.635,-159 328.365,-159"/>
<text text-anchor="middle" x="380" y="-165" font-family="Helvetica,sans-Serif" font-size="10.00">std::deque&lt; Form &gt;</text>
</g>
<!-- Node12&#45;&gt;Node4 -->
<g id="edge11" class="edge"><title>Node12&#45;&gt;Node4</title>
<path fill="none" stroke="#9a32cd" stroke-dasharray="5,2" d="M365.572,-151.026C351.562,-134.543 330.827,-110.15 319.709,-97.07"/>
<polygon fill="#9a32cd" stroke="#9a32cd" points="363.056,-153.47 372.2,-158.823 368.39,-148.937 363.056,-153.47"/>
<text text-anchor="middle" x="385.569" y="-124" font-family="Helvetica,sans-Serif" font-size="10.00"> thisFormDeque</text>
</g>
<!-- Node13 -->
<g id="node13" class="node"><title>Node13</title>
<g id="a_node13"><a xlink:href="class_om_1_1_form.html" target="_top" xlink:title="An Operator (which may be empty), followed by zero or more Operand instances. ">
<polygon fill="none" stroke="black" points="375.502,-235 375.502,-255 436.498,-255 436.498,-235 375.502,-235"/>
<text text-anchor="middle" x="406" y="-241" font-family="Helvetica,sans-Serif" font-size="10.00">Om::Form</text>
</a>
</g>
</g>
<!-- Node13&#45;&gt;Node12 -->
<g id="edge12" class="edge"><title>Node13&#45;&gt;Node12</title>
<path fill="none" stroke="#9a32cd" stroke-dasharray="5,2" d="M399.429,-225.298C394.247,-210.548 387.243,-190.613 383.214,-179.148"/>
<polygon fill="#9a32cd" stroke="#9a32cd" points="396.195,-226.652 402.812,-234.926 402.799,-224.331 396.195,-226.652"/>
<text text-anchor="middle" x="417.677" y="-206" font-family="Helvetica,sans-Serif" font-size="10.00"> elements</text>
</g>
<!-- Node14 -->
<g id="node14" class="node"><title>Node14</title>
<g id="a_node14"><a xlink:href="class_om_1_1_operator.html" target="_top" xlink:title="The Operator implementation. ">
<polygon fill="none" stroke="black" points="522.436,-305 522.436,-325 599.564,-325 599.564,-305 522.436,-305"/>
<text text-anchor="middle" x="561" y="-311" font-family="Helvetica,sans-Serif" font-size="10.00">Om::Operator</text>
</a>
</g>
</g>
<!-- Node14&#45;&gt;Node13 -->
<g id="edge13" class="edge"><title>Node14&#45;&gt;Node13</title>
<path fill="none" stroke="#9a32cd" stroke-dasharray="5,2" d="M539.469,-298.858C527.159,-290.692 511.188,-280.904 496,-274 476.932,-265.332 454.432,-258.332 436.699,-253.499"/>
<polygon fill="#9a32cd" stroke="#9a32cd" points="537.855,-301.993 548.096,-304.711 541.786,-296.2 537.855,-301.993"/>
<text text-anchor="middle" x="546.901" y="-276" font-family="Helvetica,sans-Serif" font-size="10.00"> thisOperator</text>
</g>
<!-- Node15 -->
<g id="node15" class="node"><title>Node15</title>
<g id="a_node15"><a xlink:href="class_om_1_1_default_atom.html" target="_top" xlink:title="Om::DefaultAtom\&lt; Operator \&gt;">
<polygon fill="none" stroke="black" points="580.306,-375 580.306,-395 729.694,-395 729.694,-375 580.306,-375"/>
<text text-anchor="middle" x="655" y="-381" font-family="Helvetica,sans-Serif" font-size="10.00">Om::DefaultAtom&lt; Operator &gt;</text>
</a>
</g>
</g>
<!-- Node15&#45;&gt;Node14 -->
<g id="edge14" class="edge"><title>Node15&#45;&gt;Node14</title>
<path fill="none" stroke="midnightblue" d="M634.167,-368.93C615.572,-355.478 588.955,-336.223 573.476,-325.025"/>
<polygon fill="midnightblue" stroke="midnightblue" points="632.169,-371.804 642.323,-374.829 636.272,-366.132 632.169,-371.804"/>
</g>
<!-- Node16 -->
<g id="node16" class="node"><title>Node16</title>
<g id="a_node16"><a xlink:href="class_om_1_1_default_element.html" target="_top" xlink:title="Om::DefaultElement\l\&lt; Operator, Atom \&gt;">
<polygon fill="none" stroke="black" points="706.983,-445 706.983,-477 813.017,-477 813.017,-445 706.983,-445"/>
<text text-anchor="start" x="714.983" y="-463" font-family="Helvetica,sans-Serif" font-size="10.00">Om::DefaultElement</text>
<text text-anchor="middle" x="760" y="-451" font-family="Helvetica,sans-Serif" font-size="10.00">&lt; Operator, Atom &gt;</text>
</a>
</g>
</g>
<!-- Node16&#45;&gt;Node15 -->
<g id="edge15" class="edge"><title>Node16&#45;&gt;Node15</title>
<path fill="none" stroke="midnightblue" d="M734.848,-438.342C725.145,-430.354 713.797,-421.443 703,-414 693.151,-407.21 681.581,-400.429 672.269,-395.241"/>
<polygon fill="midnightblue" stroke="midnightblue" points="732.643,-441.061 742.563,-444.783 737.129,-435.688 732.643,-441.061"/>
</g>
<!-- Node17 -->
<g id="node17" class="node"><title>Node17</title>
<g id="a_node17"><a xlink:href="class_om_1_1_default_program.html" target="_top" xlink:title="Om::DefaultProgram\l\&lt; Operator, Atom \&gt;">
<polygon fill="none" stroke="black" points="720.153,-517 720.153,-549 827.847,-549 827.847,-517 720.153,-517"/>
<text text-anchor="start" x="728.153" y="-535" font-family="Helvetica,sans-Serif" font-size="10.00">Om::DefaultProgram</text>
<text text-anchor="middle" x="774" y="-523" font-family="Helvetica,sans-Serif" font-size="10.00">&lt; Operator, Atom &gt;</text>
</a>
</g>
</g>
<!-- Node17&#45;&gt;Node16 -->
<g id="edge16" class="edge"><title>Node17&#45;&gt;Node16</title>
<path fill="none" stroke="midnightblue" d="M769,-506.998C767.005,-497.024 764.774,-485.868 763.032,-477.159"/>
<polygon fill="midnightblue" stroke="midnightblue" points="765.569,-507.692 770.962,-516.811 772.433,-506.319 765.569,-507.692"/>
</g>
<!-- Node18 -->
<g id="node18" class="node"><title>Node18</title>
<g id="a_node18"><a xlink:href="class_om_1_1_default_consumer.html" target="_top" xlink:title="Om::DefaultConsumer\l\&lt; Operator, DefaultGiveable\l\&lt; Operator, Atom \&gt; \&gt;">
<polygon fill="none" stroke="black" points="617.878,-589 617.878,-633 758.122,-633 758.122,-589 617.878,-589"/>
<text text-anchor="start" x="625.878" y="-619" font-family="Helvetica,sans-Serif" font-size="10.00">Om::DefaultConsumer</text>
<text text-anchor="start" x="625.878" y="-607" font-family="Helvetica,sans-Serif" font-size="10.00">&lt; Operator, DefaultGiveable</text>
<text text-anchor="middle" x="688" y="-595" font-family="Helvetica,sans-Serif" font-size="10.00">&lt; Operator, Atom &gt; &gt;</text>
</a>
</g>
</g>
<!-- Node18&#45;&gt;Node17 -->
<g id="edge17" class="edge"><title>Node18&#45;&gt;Node17</title>
<path fill="none" stroke="midnightblue" d="M719.606,-582.069C732.256,-570.89 746.324,-558.458 756.983,-549.038"/>
<polygon fill="midnightblue" stroke="midnightblue" points="717.131,-579.585 711.956,-588.83 721.767,-584.83 717.131,-579.585"/>
</g>
<!-- Node19 -->
<g id="node19" class="node"><title>Node19</title>
<g id="a_node19"><a xlink:href="class_om_1_1_default_giveable.html" target="_top" xlink:title="Om::DefaultGiveable\l\&lt; Operator, Atom \&gt;">
<polygon fill="none" stroke="black" points="633.591,-673 633.591,-705 742.409,-705 742.409,-673 633.591,-673"/>
<text text-anchor="start" x="641.591" y="-691" font-family="Helvetica,sans-Serif" font-size="10.00">Om::DefaultGiveable</text>
<text text-anchor="middle" x="688" y="-679" font-family="Helvetica,sans-Serif" font-size="10.00">&lt; Operator, Atom &gt;</text>
</a>
</g>
</g>
<!-- Node19&#45;&gt;Node18 -->
<g id="edge18" class="edge"><title>Node19&#45;&gt;Node18</title>
<path fill="none" stroke="midnightblue" d="M688,-662.777C688,-653.13 688,-642.24 688,-633.025"/>
<polygon fill="midnightblue" stroke="midnightblue" points="684.5,-662.985 688,-672.985 691.5,-662.985 684.5,-662.985"/>
</g>
<!-- Node20 -->
<g id="node20" class="node"><title>Node20</title>
<g id="a_node20"><a xlink:href="class_om_1_1_default_moveable.html" target="_top" xlink:title="Om::DefaultMoveable\l\&lt; Operator, DefaultCopyable\l\&lt; Operator, Atom \&gt; \&gt;">
<polygon fill="none" stroke="black" points="616.487,-745 616.487,-789 759.513,-789 759.513,-745 616.487,-745"/>
<text text-anchor="start" x="624.487" y="-775" font-family="Helvetica,sans-Serif" font-size="10.00">Om::DefaultMoveable</text>
<text text-anchor="start" x="624.487" y="-763" font-family="Helvetica,sans-Serif" font-size="10.00">&lt; Operator, DefaultCopyable</text>
<text text-anchor="middle" x="688" y="-751" font-family="Helvetica,sans-Serif" font-size="10.00">&lt; Operator, Atom &gt; &gt;</text>
</a>
</g>
</g>
<!-- Node20&#45;&gt;Node19 -->
<g id="edge19" class="edge"><title>Node20&#45;&gt;Node19</title>
<path fill="none" stroke="midnightblue" d="M688,-734.553C688,-724.342 688,-713.48 688,-705.038"/>
<polygon fill="midnightblue" stroke="midnightblue" points="684.5,-734.83 688,-744.83 691.5,-734.83 684.5,-734.83"/>
</g>
<!-- Node21 -->
<g id="node21" class="node"><title>Node21</title>
<g id="a_node21"><a xlink:href="class_om_1_1_default_copyable.html" target="_top" xlink:title="Om::DefaultCopyable\l\&lt; Operator, Atom \&gt;">
<polygon fill="none" stroke="black" points="632.2,-829 632.2,-861 743.8,-861 743.8,-829 632.2,-829"/>
<text text-anchor="start" x="640.2" y="-847" font-family="Helvetica,sans-Serif" font-size="10.00">Om::DefaultCopyable</text>
<text text-anchor="middle" x="688" y="-835" font-family="Helvetica,sans-Serif" font-size="10.00">&lt; Operator, Atom &gt;</text>
</a>
</g>
</g>
<!-- Node21&#45;&gt;Node20 -->
<g id="edge20" class="edge"><title>Node21&#45;&gt;Node20</title>
<path fill="none" stroke="midnightblue" d="M688,-818.777C688,-809.13 688,-798.24 688,-789.025"/>
<polygon fill="midnightblue" stroke="midnightblue" points="684.5,-818.985 688,-828.985 691.5,-818.985 684.5,-818.985"/>
</g>
<!-- Node22 -->
<g id="node22" class="node"><title>Node22</title>
<g id="a_node22"><a xlink:href="class_om_1_1_atom.html" target="_top" xlink:title="An atomic Element defined by a string. ">
<polygon fill="none" stroke="black" points="657.498,-901 657.498,-921 718.502,-921 718.502,-901 657.498,-901"/>
<text text-anchor="middle" x="688" y="-907" font-family="Helvetica,sans-Serif" font-size="10.00">Om::Atom</text>
</a>
</g>
</g>
<!-- Node22&#45;&gt;Node21 -->
<g id="edge21" class="edge"><title>Node22&#45;&gt;Node21</title>
<path fill="none" stroke="midnightblue" d="M688,-890.751C688,-881.247 688,-869.95 688,-861.084"/>
<polygon fill="midnightblue" stroke="midnightblue" points="684.5,-890.83 688,-900.83 691.5,-890.83 684.5,-890.83"/>
</g>
<!-- Node23 -->
<g id="node23" class="node"><title>Node23</title>
<g id="a_node23"><a xlink:href="class_om_1_1_element.html" target="_top" xlink:title="A Program that contains a single elemental item (or none, when IsEmpty() returns true). ">
<polygon fill="none" stroke="black" points="650.825,-961 650.825,-981 725.175,-981 725.175,-961 650.825,-961"/>
<text text-anchor="middle" x="688" y="-967" font-family="Helvetica,sans-Serif" font-size="10.00">Om::Element</text>
</a>
</g>
</g>
<!-- Node23&#45;&gt;Node22 -->
<g id="edge22" class="edge"><title>Node23&#45;&gt;Node22</title>
<path fill="none" stroke="midnightblue" d="M688,-950.731C688,-940.781 688,-929.102 688,-921.19"/>
<polygon fill="midnightblue" stroke="midnightblue" points="684.5,-950.937 688,-960.938 691.5,-950.938 684.5,-950.937"/>
</g>
<!-- Node24 -->
<g id="node24" class="node"><title>Node24</title>
<g id="a_node24"><a xlink:href="class_om_1_1_program.html" target="_top" xlink:title="The Program implementation. ">
<polygon fill="none" stroke="black" points="649.995,-1021 649.995,-1041 726.005,-1041 726.005,-1021 649.995,-1021"/>
<text text-anchor="middle" x="688" y="-1027" font-family="Helvetica,sans-Serif" font-size="10.00">Om::Program</text>
</a>
</g>
</g>
<!-- Node24&#45;&gt;Node23 -->
<g id="edge23" class="edge"><title>Node24&#45;&gt;Node23</title>
<path fill="none" stroke="midnightblue" d="M688,-1010.73C688,-1000.78 688,-989.102 688,-981.19"/>
<polygon fill="midnightblue" stroke="midnightblue" points="684.5,-1010.94 688,-1020.94 691.5,-1010.94 684.5,-1010.94"/>
</g>
<!-- Node25 -->
<g id="node25" class="node"><title>Node25</title>
<g id="a_node25"><a xlink:href="class_om_1_1_consumer.html" target="_top" xlink:title="An Element taker; takes at the back. ">
<polygon fill="none" stroke="black" points="483.104,-1081 483.104,-1101 566.896,-1101 566.896,-1081 483.104,-1081"/>
<text text-anchor="middle" x="525" y="-1087" font-family="Helvetica,sans-Serif" font-size="10.00">Om::Consumer</text>
</a>
</g>
</g>
<!-- Node25&#45;&gt;Node24 -->
<g id="edge24" class="edge"><title>Node25&#45;&gt;Node24</title>
<path fill="none" stroke="midnightblue" d="M559.958,-1077.56C590.743,-1066.61 634.855,-1050.91 662.442,-1041.09"/>
<polygon fill="midnightblue" stroke="midnightblue" points="558.717,-1074.29 550.469,-1080.94 561.063,-1080.88 558.717,-1074.29"/>
</g>
<!-- Node26 -->
<g id="node26" class="node"><title>Node26</title>
<g id="a_node26"><a xlink:href="class_om_1_1_giveable.html" target="_top" xlink:title="An object that can be copied or moved via Give. ">
<polygon fill="none" stroke="black" points="584.434,-1081 584.434,-1101 661.566,-1101 661.566,-1081 584.434,-1081"/>
<text text-anchor="middle" x="623" y="-1087" font-family="Helvetica,sans-Serif" font-size="10.00">Om::Giveable</text>
</a>
</g>
</g>
<!-- Node26&#45;&gt;Node24 -->
<g id="edge25" class="edge"><title>Node26&#45;&gt;Node24</title>
<path fill="none" stroke="midnightblue" d="M640.729,-1074.18C652.591,-1063.6 667.786,-1050.04 677.701,-1041.19"/>
<polygon fill="midnightblue" stroke="midnightblue" points="638.287,-1071.67 633.156,-1080.94 642.948,-1076.89 638.287,-1071.67"/>
</g>
<!-- Node27 -->
<g id="node27" class="node"><title>Node27</title>
<g id="a_node27"><a xlink:href="class_om_1_1_copyable.html" target="_top" xlink:title="An object that can be passed to Copy to be copied. ">
<polygon fill="none" stroke="black" points="534.042,-1141 534.042,-1161 613.958,-1161 613.958,-1141 534.042,-1141"/>
<text text-anchor="middle" x="574" y="-1147" font-family="Helvetica,sans-Serif" font-size="10.00">Om::Copyable</text>
</a>
</g>
</g>
<!-- Node27&#45;&gt;Node26 -->
<g id="edge26" class="edge"><title>Node27&#45;&gt;Node26</title>
<path fill="none" stroke="midnightblue" d="M588.145,-1133.26C596.964,-1122.82 607.977,-1109.78 615.236,-1101.19"/>
<polygon fill="midnightblue" stroke="midnightblue" points="585.436,-1131.04 581.656,-1140.94 590.783,-1135.56 585.436,-1131.04"/>
</g>
<!-- Node28 -->
<g id="node28" class="node"><title>Node28</title>
<g id="a_node28"><a xlink:href="class_om_1_1_moveable.html" target="_top" xlink:title="An object that can be passed to Move to be moved. ">
<polygon fill="none" stroke="black" points="631.488,-1141 631.488,-1161 712.512,-1161 712.512,-1141 631.488,-1141"/>
<text text-anchor="middle" x="672" y="-1147" font-family="Helvetica,sans-Serif" font-size="10.00">Om::Moveable</text>
</a>
</g>
</g>
<!-- Node28&#45;&gt;Node26 -->
<g id="edge27" class="edge"><title>Node28&#45;&gt;Node26</title>
<path fill="none" stroke="midnightblue" d="M657.855,-1133.26C649.036,-1122.82 638.023,-1109.78 630.764,-1101.19"/>
<polygon fill="midnightblue" stroke="midnightblue" points="655.217,-1135.56 664.344,-1140.94 660.564,-1131.04 655.217,-1135.56"/>
</g>
<!-- Node29 -->
<g id="node29" class="node"><title>Node29</title>
<g id="a_node29"><a xlink:href="class_om_1_1_producer.html" target="_top" xlink:title="An Element giver; gives from the front. ">
<polygon fill="none" stroke="black" points="679.879,-1081 679.879,-1101 758.121,-1101 758.121,-1081 679.879,-1081"/>
<text text-anchor="middle" x="719" y="-1087" font-family="Helvetica,sans-Serif" font-size="10.00">Om::Producer</text>
</a>
</g>
</g>
<!-- Node29&#45;&gt;Node24 -->
<g id="edge28" class="edge"><title>Node29&#45;&gt;Node24</title>
<path fill="none" stroke="midnightblue" d="M709.382,-1072C703.923,-1061.79 697.322,-1049.44 692.912,-1041.19"/>
<polygon fill="midnightblue" stroke="midnightblue" points="706.356,-1073.77 714.156,-1080.94 712.529,-1070.47 706.356,-1073.77"/>
</g>
<!-- Node30 -->
<g id="node30" class="node"><title>Node30</title>
<g id="a_node30"><a xlink:href="class_om_1_1_shareable.html" target="_top" xlink:title="Om::Shareable\&lt;\&gt;">
<polygon fill="none" stroke="black" points="776.532,-1081 776.532,-1101 871.468,-1101 871.468,-1081 776.532,-1081"/>
<text text-anchor="middle" x="824" y="-1087" font-family="Helvetica,sans-Serif" font-size="10.00">Om::Shareable&lt;&gt;</text>
</a>
</g>
</g>
<!-- Node30&#45;&gt;Node24 -->
<g id="edge29" class="edge"><title>Node30&#45;&gt;Node24</title>
<path fill="none" stroke="midnightblue" d="M793.517,-1077C767.988,-1066.11 732.189,-1050.85 709.55,-1041.19"/>
<polygon fill="midnightblue" stroke="midnightblue" points="792.179,-1080.23 802.75,-1080.94 794.925,-1073.8 792.179,-1080.23"/>
</g>
<!-- Node31 -->
<g id="node31" class="node"><title>Node31</title>
<g id="a_node31"><a xlink:href="class_om_1_1_taker.html" target="_top" xlink:title="Om::Taker\&lt; Operator \&gt;">
<polygon fill="none" stroke="black" points="776.591,-601 776.591,-621 895.409,-621 895.409,-601 776.591,-601"/>
<text text-anchor="middle" x="836" y="-607" font-family="Helvetica,sans-Serif" font-size="10.00">Om::Taker&lt; Operator &gt;</text>
</a>
</g>
</g>
<!-- Node31&#45;&gt;Node17 -->
<g id="edge30" class="edge"><title>Node31&#45;&gt;Node17</title>
<path fill="none" stroke="midnightblue" d="M822.241,-593.134C811.468,-579.929 796.622,-561.731 786.255,-549.022"/>
<polygon fill="midnightblue" stroke="midnightblue" points="819.611,-595.447 828.644,-600.983 825.035,-591.022 819.611,-595.447"/>
</g>
<!-- Node32 -->
<g id="node32" class="node"><title>Node32</title>
<g id="a_node32"><a xlink:title="STL class. ">
<polygon fill="none" stroke="#bfbfbf" points="625.325,-451 625.325,-471 684.675,-471 684.675,-451 625.325,-451"/>
<text text-anchor="middle" x="655" y="-457" font-family="Helvetica,sans-Serif" font-size="10.00">std::string</text>
</a>
</g>
</g>
<!-- Node32&#45;&gt;Node15 -->
<g id="edge31" class="edge"><title>Node32&#45;&gt;Node15</title>
<path fill="none" stroke="#9a32cd" stroke-dasharray="5,2" d="M655,-440.866C655,-426.161 655,-406.502 655,-395.148"/>
<polygon fill="#9a32cd" stroke="#9a32cd" points="651.5,-440.926 655,-450.926 658.5,-440.926 651.5,-440.926"/>
<text text-anchor="middle" x="677.231" y="-416" font-family="Helvetica,sans-Serif" font-size="10.00"> thisString</text>
</g>
<!-- Node33 -->
<g id="node33" class="node"><title>Node33</title>
<g id="a_node33"><a xlink:title="STL class. ">
<polygon fill="none" stroke="#bfbfbf" points="607.952,-517 607.952,-549 702.048,-549 702.048,-517 607.952,-517"/>
<text text-anchor="start" x="615.952" y="-535" font-family="Helvetica,sans-Serif" font-size="10.00">std::basic_string&lt;</text>
<text text-anchor="middle" x="655" y="-523" font-family="Helvetica,sans-Serif" font-size="10.00"> char &gt;</text>
</a>
</g>
</g>
<!-- Node33&#45;&gt;Node32 -->
<g id="edge32" class="edge"><title>Node33&#45;&gt;Node32</title>
<path fill="none" stroke="midnightblue" d="M655,-506.63C655,-494.351 655,-480.357 655,-471.363"/>
<polygon fill="midnightblue" stroke="midnightblue" points="651.5,-506.811 655,-516.811 658.5,-506.811 651.5,-506.811"/>
</g>
<!-- Node34 -->
<g id="node34" class="node"><title>Node34</title>
<polygon fill="none" stroke="#bfbfbf" points="346.572,-305 346.572,-325 465.428,-325 465.428,-305 346.572,-305"/>
<text text-anchor="middle" x="406" y="-311" font-family="Helvetica,sans-Serif" font-size="10.00">std::deque&lt; Operand &gt;</text>
</g>
<!-- Node34&#45;&gt;Node13 -->
<g id="edge33" class="edge"><title>Node34&#45;&gt;Node13</title>
<path fill="none" stroke="#9a32cd" stroke-dasharray="5,2" d="M406,-294.557C406,-281.557 406,-265.057 406,-255.025"/>
<polygon fill="#9a32cd" stroke="#9a32cd" points="402.5,-294.829 406,-304.829 409.5,-294.829 402.5,-294.829"/>
<text text-anchor="middle" x="449.362" y="-276" font-family="Helvetica,sans-Serif" font-size="10.00"> thisOperandDeque</text>
</g>
<!-- Node35 -->
<g id="node35" class="node"><title>Node35</title>
<g id="a_node35"><a xlink:href="class_om_1_1_operand.html" target="_top" xlink:title="The Operand implementation. ">
<polygon fill="none" stroke="black" points="367.709,-375 367.709,-395 444.291,-395 444.291,-375 367.709,-375"/>
<text text-anchor="middle" x="406" y="-381" font-family="Helvetica,sans-Serif" font-size="10.00">Om::Operand</text>
</a>
</g>
</g>
<!-- Node35&#45;&gt;Node34 -->
<g id="edge34" class="edge"><title>Node35&#45;&gt;Node34</title>
<path fill="none" stroke="#9a32cd" stroke-dasharray="5,2" d="M406,-364.557C406,-351.557 406,-335.057 406,-325.025"/>
<polygon fill="#9a32cd" stroke="#9a32cd" points="402.5,-364.829 406,-374.829 409.5,-364.829 402.5,-364.829"/>
<text text-anchor="middle" x="427.677" y="-346" font-family="Helvetica,sans-Serif" font-size="10.00"> elements</text>
</g>
<!-- Node36 -->
<g id="node36" class="node"><title>Node36</title>
<g id="a_node36"><a xlink:href="class_om_1_1_default_element.html" target="_top" xlink:title="Om::DefaultElement\l\&lt; Operand \&gt;">
<polygon fill="none" stroke="black" points="327.983,-445 327.983,-477 434.017,-477 434.017,-445 327.983,-445"/>
<text text-anchor="start" x="335.983" y="-463" font-family="Helvetica,sans-Serif" font-size="10.00">Om::DefaultElement</text>
<text text-anchor="middle" x="381" y="-451" font-family="Helvetica,sans-Serif" font-size="10.00">&lt; Operand &gt;</text>
</a>
</g>
</g>
<!-- Node36&#45;&gt;Node35 -->
<g id="edge35" class="edge"><title>Node36&#45;&gt;Node35</title>
<path fill="none" stroke="midnightblue" d="M389.502,-434.833C394.117,-421.173 399.544,-405.109 402.878,-395.241"/>
<polygon fill="midnightblue" stroke="midnightblue" points="386.065,-434.073 386.18,-444.667 392.697,-436.313 386.065,-434.073"/>
</g>
<!-- Node37 -->
<g id="node37" class="node"><title>Node37</title>
<g id="a_node37"><a xlink:href="class_om_1_1_default_program.html" target="_top" xlink:title="Om::DefaultProgram\l\&lt; Operand, ThisInterface \&gt;">
<polygon fill="none" stroke="black" points="311.332,-517 311.332,-549 446.668,-549 446.668,-517 311.332,-517"/>
<text text-anchor="start" x="319.332" y="-535" font-family="Helvetica,sans-Serif" font-size="10.00">Om::DefaultProgram</text>
<text text-anchor="middle" x="379" y="-523" font-family="Helvetica,sans-Serif" font-size="10.00">&lt; Operand, ThisInterface &gt;</text>
</a>
</g>
</g>
<!-- Node37&#45;&gt;Node36 -->
<g id="edge36" class="edge"><title>Node37&#45;&gt;Node36</title>
<path fill="none" stroke="midnightblue" d="M379.723,-506.682C380.006,-496.789 380.321,-485.776 380.567,-477.159"/>
<polygon fill="midnightblue" stroke="midnightblue" points="376.221,-506.715 379.434,-516.811 383.218,-506.915 376.221,-506.715"/>
</g>
<!-- Node38 -->
<g id="node38" class="node"><title>Node38</title>
<g id="a_node38"><a xlink:href="class_om_1_1_default_consumer.html" target="_top" xlink:title="Om::DefaultConsumer\l\&lt; Operand, DefaultGiveable\l\&lt; Operand, ThisInterface \&gt; \&gt;">
<polygon fill="none" stroke="black" points="456.023,-589 456.023,-633 599.977,-633 599.977,-589 456.023,-589"/>
<text text-anchor="start" x="464.023" y="-619" font-family="Helvetica,sans-Serif" font-size="10.00">Om::DefaultConsumer</text>
<text text-anchor="start" x="464.023" y="-607" font-family="Helvetica,sans-Serif" font-size="10.00">&lt; Operand, DefaultGiveable</text>
<text text-anchor="middle" x="528" y="-595" font-family="Helvetica,sans-Serif" font-size="10.00">&lt; Operand, ThisInterface &gt; &gt;</text>
</a>
</g>
</g>
<!-- Node38&#45;&gt;Node37 -->
<g id="edge37" class="edge"><title>Node38&#45;&gt;Node37</title>
<path fill="none" stroke="midnightblue" d="M477.548,-584.266C454.569,-572.545 428.17,-559.08 408.482,-549.038"/>
<polygon fill="midnightblue" stroke="midnightblue" points="475.997,-587.404 486.495,-588.83 479.177,-581.168 475.997,-587.404"/>
</g>
<!-- Node39 -->
<g id="node39" class="node"><title>Node39</title>
<g id="a_node39"><a xlink:href="class_om_1_1_default_giveable.html" target="_top" xlink:title="Om::DefaultGiveable\l\&lt; Operand, ThisInterface \&gt;">
<polygon fill="none" stroke="black" points="450.332,-673 450.332,-705 585.668,-705 585.668,-673 450.332,-673"/>
<text text-anchor="start" x="458.332" y="-691" font-family="Helvetica,sans-Serif" font-size="10.00">Om::DefaultGiveable</text>
<text text-anchor="middle" x="518" y="-679" font-family="Helvetica,sans-Serif" font-size="10.00">&lt; Operand, ThisInterface &gt;</text>
</a>
</g>
</g>
<!-- Node39&#45;&gt;Node38 -->
<g id="edge38" class="edge"><title>Node39&#45;&gt;Node38</title>
<path fill="none" stroke="midnightblue" d="M521.319,-662.777C522.588,-653.13 524.021,-642.24 525.234,-633.025"/>
<polygon fill="midnightblue" stroke="midnightblue" points="517.81,-662.614 519.976,-672.985 524.75,-663.527 517.81,-662.614"/>
</g>
<!-- Node40 -->
<g id="node40" class="node"><title>Node40</title>
<g id="a_node40"><a xlink:href="class_om_1_1_default_moveable.html" target="_top" xlink:title="Om::DefaultMoveable\l\&lt; Operand, DefaultCopyable\l\&lt; Operand, ThisInterface \&gt; \&gt;">
<polygon fill="none" stroke="black" points="446.023,-745 446.023,-789 589.977,-789 589.977,-745 446.023,-745"/>
<text text-anchor="start" x="454.023" y="-775" font-family="Helvetica,sans-Serif" font-size="10.00">Om::DefaultMoveable</text>
<text text-anchor="start" x="454.023" y="-763" font-family="Helvetica,sans-Serif" font-size="10.00">&lt; Operand, DefaultCopyable</text>
<text text-anchor="middle" x="518" y="-751" font-family="Helvetica,sans-Serif" font-size="10.00">&lt; Operand, ThisInterface &gt; &gt;</text>
</a>
</g>
</g>
<!-- Node40&#45;&gt;Node39 -->
<g id="edge39" class="edge"><title>Node40&#45;&gt;Node39</title>
<path fill="none" stroke="midnightblue" d="M518,-734.553C518,-724.342 518,-713.48 518,-705.038"/>
<polygon fill="midnightblue" stroke="midnightblue" points="514.5,-734.83 518,-744.83 521.5,-734.83 514.5,-734.83"/>
</g>
<!-- Node41&#45;&gt;Node40 -->
<g id="edge40" class="edge"><title>Node41&#45;&gt;Node40</title>
<path fill="none" stroke="midnightblue" d="M505.228,-819.088C507.659,-809.364 510.415,-798.339 512.744,-789.025"/>
<polygon fill="midnightblue" stroke="midnightblue" points="501.784,-818.435 502.754,-828.985 508.575,-820.132 501.784,-818.435"/>
</g>
<!-- Node42 -->
<g id="node42" class="node"><title>Node42</title>
<g id="a_node42"><a xlink:href="class_om_1_1_taker.html" target="_top" xlink:title="Om::Taker\&lt; Operand \&gt;">
<polygon fill="none" stroke="black" points="319.865,-601 319.865,-621 438.135,-621 438.135,-601 319.865,-601"/>
<text text-anchor="middle" x="379" y="-607" font-family="Helvetica,sans-Serif" font-size="10.00">Om::Taker&lt; Operand &gt;</text>
</a>
</g>
</g>
<!-- Node42&#45;&gt;Node37 -->
<g id="edge42" class="edge"><title>Node42&#45;&gt;Node37</title>
<path fill="none" stroke="midnightblue" d="M379,-590.824C379,-577.867 379,-561.004 379,-549.022"/>
<polygon fill="midnightblue" stroke="midnightblue" points="375.5,-590.983 379,-600.983 382.5,-590.983 375.5,-590.983"/>
</g>
<!-- Node43 -->
<g id="node43" class="node"><title>Node43</title>
<g id="a_node43"><a xlink:href="class_om_1_1_owner.html" target="_top" xlink:title="Om::Owner\&lt; Om::Program \&gt;">
<polygon fill="none" stroke="black" points="452.818,-451 452.818,-471 597.182,-471 597.182,-451 452.818,-451"/>
<text text-anchor="middle" x="525" y="-457" font-family="Helvetica,sans-Serif" font-size="10.00">Om::Owner&lt; Om::Program &gt;</text>
</a>
</g>
</g>
<!-- Node43&#45;&gt;Node35 -->
<g id="edge43" class="edge"><title>Node43&#45;&gt;Node35</title>
<path fill="none" stroke="#9a32cd" stroke-dasharray="5,2" d="M501.895,-445.632C477.883,-430.7 441.028,-407.782 420.711,-395.148"/>
<polygon fill="#9a32cd" stroke="#9a32cd" points="500.068,-448.618 510.408,-450.926 503.765,-442.673 500.068,-448.618"/>
<text text-anchor="middle" x="497.342" y="-416" font-family="Helvetica,sans-Serif" font-size="10.00"> thisProgram</text>
</g>
<!-- Node44 -->
<g id="node44" class="node"><title>Node44</title>
<g id="a_node44"><a xlink:href="class_om_1_1_taker.html" target="_top" xlink:title="Om::Taker\&lt; Owner\&lt; Om\l::Program \&gt; \&gt;">
<polygon fill="none" stroke="black" points="464.542,-517 464.542,-549 589.458,-549 589.458,-517 464.542,-517"/>
<text text-anchor="start" x="472.542" y="-535" font-family="Helvetica,sans-Serif" font-size="10.00">Om::Taker&lt; Owner&lt; Om</text>
<text text-anchor="middle" x="527" y="-523" font-family="Helvetica,sans-Serif" font-size="10.00">::Program &gt; &gt;</text>
</a>
</g>
</g>
<!-- Node44&#45;&gt;Node43 -->
<g id="edge44" class="edge"><title>Node44&#45;&gt;Node43</title>
<path fill="none" stroke="midnightblue" d="M526.275,-506.63C525.924,-494.351 525.524,-480.357 525.268,-471.363"/>
<polygon fill="midnightblue" stroke="midnightblue" points="522.782,-506.915 526.566,-516.811 529.779,-506.715 522.782,-506.915"/>
</g>
</g>
</svg>
