<?xml version="1.0" encoding="UTF-8" standalone="no"?>
<!DOCTYPE svg PUBLIC "-//W3C//DTD SVG 1.1//EN"
 "http://www.w3.org/Graphics/SVG/1.1/DTD/svg11.dtd">
<!-- Generated by graphviz version 2.30.1 (20130221.2233)
 -->
<!-- Title: Om::Operations::FrontPushOperation&lt; ThisProgram, ThisImplementation &gt; Pages: 1 -->
<svg width="198pt" height="194pt"
 viewBox="0.00 0.00 198.00 194.00" xmlns="http://www.w3.org/2000/svg" xmlns:xlink="http://www.w3.org/1999/xlink">
<g id="graph0" class="graph" transform="scale(1 1) rotate(0) translate(4 190)">
<title>Om::Operations::FrontPushOperation&lt; ThisProgram, ThisImplementation &gt;</title>
<!-- Node1 -->
<g id="node1" class="node"><title>Node1</title>
<polygon fill="#bfbfbf" stroke="black" points="25.8647,-1 25.8647,-45 164.135,-45 164.135,-1 25.8647,-1"/>
<text text-anchor="start" x="33.8647" y="-31" font-family="Helvetica,sans-Serif" font-size="10.00">Om::Operations::FrontPush</text>
<text text-anchor="start" x="33.8647" y="-19" font-family="Helvetica,sans-Serif" font-size="10.00">Operation&lt; ThisProgram,</text>
<text text-anchor="middle" x="95" y="-7" font-family="Helvetica,sans-Serif" font-size="10.00"> ThisImplementation &gt;</text>
</g>
<!-- Node2 -->
<g id="node2" class="node"><title>Node2</title>
<g id="a_node2"><a xlink:href="class_om_1_1_default_operation.html" target="_top" xlink:title="Om::DefaultOperation\l\&lt; FrontPushOperation\l\&lt; ThisProgram, ThisImplementation \&gt; \&gt;">
<polygon fill="none" stroke="black" points="-0.77832,-83 -0.77832,-127 190.778,-127 190.778,-83 -0.77832,-83"/>
<text text-anchor="start" x="7.22168" y="-113" font-family="Helvetica,sans-Serif" font-size="10.00">Om::DefaultOperation</text>
<text text-anchor="start" x="7.22168" y="-101" font-family="Helvetica,sans-Serif" font-size="10.00">&lt; FrontPushOperation</text>
<text text-anchor="middle" x="95" y="-89" font-family="Helvetica,sans-Serif" font-size="10.00">&lt; ThisProgram, ThisImplementation &gt; &gt;</text>
</a>
</g>
</g>
<!-- Node2&#45;&gt;Node1 -->
<g id="edge1" class="edge"><title>Node2&#45;&gt;Node1</title>
<path fill="none" stroke="midnightblue" d="M95,-72.8963C95,-63.6094 95,-53.6485 95,-45.1564"/>
<polygon fill="midnightblue" stroke="midnightblue" points="91.5001,-72.9809 95,-82.9809 98.5001,-72.981 91.5001,-72.9809"/>
</g>
<!-- Node3 -->
<g id="node3" class="node"><title>Node3</title>
<g id="a_node3"><a xlink:href="class_om_1_1_operation.html" target="_top" xlink:title="An Operation that has yet to consume one or more Operands, and therefore must live in memory while &quot;i...">
<polygon fill="none" stroke="black" points="54.2095,-165 54.2095,-185 135.791,-185 135.791,-165 54.2095,-165"/>
<text text-anchor="middle" x="95" y="-171" font-family="Helvetica,sans-Serif" font-size="10.00">Om::Operation</text>
</a>
</g>
</g>
<!-- Node3&#45;&gt;Node2 -->
<g id="edge2" class="edge"><title>Node3&#45;&gt;Node2</title>
<path fill="none" stroke="midnightblue" d="M95,-154.629C95,-146.002 95,-135.824 95,-127.014"/>
<polygon fill="midnightblue" stroke="midnightblue" points="91.5001,-154.829 95,-164.829 98.5001,-154.829 91.5001,-154.829"/>
</g>
</g>
</svg>
