<?xml version="1.0" encoding="UTF-8" standalone="no"?>
<!DOCTYPE svg PUBLIC "-//W3C//DTD SVG 1.1//EN"
 "http://www.w3.org/Graphics/SVG/1.1/DTD/svg11.dtd">
<!-- Generated by graphviz version 2.36.0 (20140111.2315)
 -->
<!-- Title: Om::Source::CodePointStringBackSource&lt; ThisStringIterator &gt; Pages: 1 -->
<svg width="592pt" height="140pt"
 viewBox="0.00 0.00 592.00 140.00" xmlns="http://www.w3.org/2000/svg" xmlns:xlink="http://www.w3.org/1999/xlink">
<g id="graph0" class="graph" transform="scale(1 1) rotate(0) translate(4 136)">
<title>Om::Source::CodePointStringBackSource&lt; ThisStringIterator &gt;</title>
<!-- Node1 -->
<g id="node1" class="node"><title>Node1</title>
<g id="a_node1"><a xlink:title="A Source of CodePoint strings from the back of a string.">
<polygon fill="#bfbfbf" stroke="black" points="420.165,-30 420.165,-58 583.835,-58 583.835,-30 420.165,-30"/>
<text text-anchor="start" x="428.165" y="-46" font-family="Helvetica,sans-Serif" font-size="10.00">Om::Source::CodePointString</text>
<text text-anchor="middle" x="502" y="-36" font-family="Helvetica,sans-Serif" font-size="10.00">BackSource&lt; ThisStringIterator &gt;</text>
</a>
</g>
</g>
<!-- Node2 -->
<g id="node2" class="node"><title>Node2</title>
<g id="a_node2"><a xlink:href="class_om_1_1_source_1_1_default_source.html" target="_top" xlink:title=" ">
<polygon fill="none" stroke="black" points="145.855,-47 145.855,-85 318.145,-85 318.145,-47 145.855,-47"/>
<text text-anchor="start" x="153.855" y="-73" font-family="Helvetica,sans-Serif" font-size="10.00">Om::Source::DefaultSource</text>
<text text-anchor="start" x="153.855" y="-63" font-family="Helvetica,sans-Serif" font-size="10.00">&lt; std::string, CodePointString</text>
<text text-anchor="middle" x="232" y="-53" font-family="Helvetica,sans-Serif" font-size="10.00">BackSource&lt; ThisStringIterator &gt; &gt;</text>
</a>
</g>
</g>
<!-- Node2&#45;&gt;Node1 -->
<g id="edge1" class="edge"><title>Node2&#45;&gt;Node1</title>
<path fill="none" stroke="midnightblue" d="M328.193,-58.1856C358.11,-55.7297 390.852,-53.042 419.713,-50.6728"/>
<polygon fill="midnightblue" stroke="midnightblue" points="327.845,-54.7023 318.165,-59.0088 328.418,-61.6789 327.845,-54.7023"/>
</g>
<!-- Node3 -->
<g id="node3" class="node"><title>Node3</title>
<g id="a_node3"><a xlink:href="class_om_1_1_source_1_1_source.html" target="_top" xlink:title=" ">
<polygon fill="none" stroke="black" points="0.70459,-104 0.70459,-132 107.295,-132 107.295,-104 0.70459,-104"/>
<text text-anchor="start" x="8.70459" y="-120" font-family="Helvetica,sans-Serif" font-size="10.00">Om::Source::Source</text>
<text text-anchor="middle" x="54" y="-110" font-family="Helvetica,sans-Serif" font-size="10.00">&lt; std::string &gt;</text>
</a>
</g>
</g>
<!-- Node3&#45;&gt;Node2 -->
<g id="edge2" class="edge"><title>Node3&#45;&gt;Node2</title>
<path fill="none" stroke="midnightblue" d="M112.552,-100.996C129.796,-95.9013 148.818,-90.2809 166.48,-85.0627"/>
<polygon fill="midnightblue" stroke="midnightblue" points="111.227,-97.738 102.628,-103.928 113.21,-104.451 111.227,-97.738"/>
</g>
<!-- Node4 -->
<g id="node4" class="node"><title>Node4</title>
<g id="a_node4"><a xlink:title=" ">
<polygon fill="none" stroke="#bfbfbf" points="2.9165,-47 2.9165,-85 105.083,-85 105.083,-47 2.9165,-47"/>
<text text-anchor="start" x="10.9165" y="-73" font-family="Helvetica,sans-Serif" font-size="10.00">std::iterator&lt; std</text>
<text text-anchor="start" x="10.9165" y="-63" font-family="Helvetica,sans-Serif" font-size="10.00">::input_iterator_tag,</text>
<text text-anchor="middle" x="54" y="-53" font-family="Helvetica,sans-Serif" font-size="10.00"> std::string &gt;</text>
</a>
</g>
</g>
<!-- Node4&#45;&gt;Node2 -->
<g id="edge3" class="edge"><title>Node4&#45;&gt;Node2</title>
<path fill="none" stroke="midnightblue" d="M115.714,-66C125.387,-66 135.548,-66 145.662,-66"/>
<polygon fill="midnightblue" stroke="midnightblue" points="115.435,-62.5001 105.435,-66 115.435,-69.5001 115.435,-62.5001"/>
</g>
<!-- Node5 -->
<g id="node5" class="node"><title>Node5</title>
<g id="a_node5"><a xlink:title="STL class.">
<polygon fill="none" stroke="#bfbfbf" points="202.325,-8 202.325,-26 261.675,-26 261.675,-8 202.325,-8"/>
<text text-anchor="middle" x="232" y="-14" font-family="Helvetica,sans-Serif" font-size="10.00">std::string</text>
</a>
</g>
</g>
<!-- Node5&#45;&gt;Node1 -->
<g id="edge4" class="edge"><title>Node5&#45;&gt;Node1</title>
<path fill="none" stroke="#9a32cd" stroke-dasharray="5,2" d="M271.972,-20.9262C310.595,-24.8174 370.917,-30.8947 419.961,-35.8356"/>
<polygon fill="#9a32cd" stroke="#9a32cd" points="271.981,-17.4096 261.681,-19.8895 271.279,-24.3743 271.981,-17.4096"/>
<text text-anchor="middle" x="369" y="-35" font-family="Helvetica,sans-Serif" font-size="10.00"> thisCodePoint</text>
</g>
<!-- Node6 -->
<g id="node6" class="node"><title>Node6</title>
<g id="a_node6"><a xlink:title="STL class.">
<polygon fill="none" stroke="#bfbfbf" points="6.95215,-0 6.95215,-28 101.048,-28 101.048,-0 6.95215,-0"/>
<text text-anchor="start" x="14.9521" y="-16" font-family="Helvetica,sans-Serif" font-size="10.00">std::basic_string&lt;</text>
<text text-anchor="middle" x="54" y="-6" font-family="Helvetica,sans-Serif" font-size="10.00"> char &gt;</text>
</a>
</g>
</g>
<!-- Node6&#45;&gt;Node5 -->
<g id="edge5" class="edge"><title>Node6&#45;&gt;Node5</title>
<path fill="none" stroke="midnightblue" d="M111.257,-14.9589C141.517,-15.4747 177.559,-16.0891 202.14,-16.5081"/>
<polygon fill="midnightblue" stroke="midnightblue" points="111.3,-11.4593 101.242,-14.7882 111.181,-18.4582 111.3,-11.4593"/>
</g>
</g>
</svg>
