<?xml version="1.0" encoding="UTF-8" standalone="no"?>
<!DOCTYPE svg PUBLIC "-//W3C//DTD SVG 1.1//EN"
 "http://www.w3.org/Graphics/SVG/1.1/DTD/svg11.dtd">
<!-- Generated by graphviz version 2.36.0 (20140111.2315)
 -->
<!-- Title: Om::Language::Literal::ElementRange&lt; Literal const &gt; Pages: 1 -->
<svg width="912pt" height="93pt"
 viewBox="0.00 0.00 912.00 93.00" xmlns="http://www.w3.org/2000/svg" xmlns:xlink="http://www.w3.org/1999/xlink">
<g id="graph0" class="graph" transform="scale(1 1) rotate(0) translate(4 89)">
<title>Om::Language::Literal::ElementRange&lt; Literal const &gt;</title>
<!-- Node6 -->
<g id="node1" class="node"><title>Node6</title>
<g id="a_node1"><a xlink:title="An immutable Literal Element range.">
<polygon fill="#bfbfbf" stroke="black" points="780.218,-26 780.218,-64 903.782,-64 903.782,-26 780.218,-26"/>
<text text-anchor="start" x="788.218" y="-52" font-family="Helvetica,sans-Serif" font-size="10.00">Om::Language::Literal</text>
<text text-anchor="start" x="788.218" y="-42" font-family="Helvetica,sans-Serif" font-size="10.00">::ElementRange&lt; Literal</text>
<text text-anchor="middle" x="842" y="-32" font-family="Helvetica,sans-Serif" font-size="10.00"> const &gt;</text>
</a>
</g>
</g>
<!-- Node7 -->
<g id="node2" class="node"><title>Node7</title>
<g id="a_node2"><a xlink:href="class_om_1_1_source_1_1_collection_front_source.html" target="_top" xlink:title=" ">
<polygon fill="none" stroke="black" points="552.312,-26 552.312,-64 743.688,-64 743.688,-26 552.312,-26"/>
<text text-anchor="start" x="560.312" y="-52" font-family="Helvetica,sans-Serif" font-size="10.00">Om::Source::CollectionFront</text>
<text text-anchor="start" x="560.312" y="-42" font-family="Helvetica,sans-Serif" font-size="10.00">Source&lt; Element const, ElementDeque</text>
<text text-anchor="middle" x="648" y="-32" font-family="Helvetica,sans-Serif" font-size="10.00">::const_iterator &gt;</text>
</a>
</g>
</g>
<!-- Node7&#45;&gt;Node6 -->
<g id="edge1" class="edge"><title>Node7&#45;&gt;Node6</title>
<path fill="none" stroke="midnightblue" d="M753.939,-45C762.829,-45 771.615,-45 779.99,-45"/>
<polygon fill="midnightblue" stroke="midnightblue" points="753.875,-41.5001 743.875,-45 753.875,-48.5001 753.875,-41.5001"/>
</g>
<!-- Node8 -->
<g id="node3" class="node"><title>Node8</title>
<g id="a_node3"><a xlink:href="class_om_1_1_source_1_1_iterator_pair_source.html" target="_top" xlink:title=" ">
<polygon fill="none" stroke="black" points="356.154,-26 356.154,-64 515.846,-64 515.846,-26 356.154,-26"/>
<text text-anchor="start" x="364.154" y="-52" font-family="Helvetica,sans-Serif" font-size="10.00">Om::Source::IteratorPair</text>
<text text-anchor="start" x="364.154" y="-42" font-family="Helvetica,sans-Serif" font-size="10.00">Source&lt; Element const,</text>
<text text-anchor="middle" x="436" y="-32" font-family="Helvetica,sans-Serif" font-size="10.00"> ElementDeque::const_iterator &gt;</text>
</a>
</g>
</g>
<!-- Node8&#45;&gt;Node7 -->
<g id="edge2" class="edge"><title>Node8&#45;&gt;Node7</title>
<path fill="none" stroke="midnightblue" d="M526.096,-45C534.686,-45 543.422,-45 552.066,-45"/>
<polygon fill="midnightblue" stroke="midnightblue" points="526.093,-41.5001 516.093,-45 526.093,-48.5001 526.093,-41.5001"/>
</g>
<!-- Node9 -->
<g id="node4" class="node"><title>Node9</title>
<g id="a_node4"><a xlink:href="class_om_1_1_source_1_1_default_source.html" target="_top" xlink:title=" ">
<polygon fill="none" stroke="black" points="144.657,-21 144.657,-69 319.343,-69 319.343,-21 144.657,-21"/>
<text text-anchor="start" x="152.657" y="-57" font-family="Helvetica,sans-Serif" font-size="10.00">Om::Source::DefaultSource</text>
<text text-anchor="start" x="152.657" y="-47" font-family="Helvetica,sans-Serif" font-size="10.00">&lt; Element const, IteratorPairSource</text>
<text text-anchor="start" x="152.657" y="-37" font-family="Helvetica,sans-Serif" font-size="10.00">&lt; Element const, ElementDeque</text>
<text text-anchor="middle" x="232" y="-27" font-family="Helvetica,sans-Serif" font-size="10.00">::const_iterator &gt; &gt;</text>
</a>
</g>
</g>
<!-- Node9&#45;&gt;Node8 -->
<g id="edge3" class="edge"><title>Node9&#45;&gt;Node8</title>
<path fill="none" stroke="midnightblue" d="M329.806,-45C338.577,-45 347.39,-45 355.98,-45"/>
<polygon fill="midnightblue" stroke="midnightblue" points="329.545,-41.5001 319.545,-45 329.545,-48.5001 329.545,-41.5001"/>
</g>
<!-- Node10 -->
<g id="node5" class="node"><title>Node10</title>
<g id="a_node5"><a xlink:href="class_om_1_1_source_1_1_source.html" target="_top" xlink:title=" ">
<polygon fill="none" stroke="black" points="0.70459,-57 0.70459,-85 107.295,-85 107.295,-57 0.70459,-57"/>
<text text-anchor="start" x="8.70459" y="-73" font-family="Helvetica,sans-Serif" font-size="10.00">Om::Source::Source</text>
<text text-anchor="middle" x="54" y="-63" font-family="Helvetica,sans-Serif" font-size="10.00">&lt; Element const &gt;</text>
</a>
</g>
</g>
<!-- Node10&#45;&gt;Node9 -->
<g id="edge4" class="edge"><title>Node10&#45;&gt;Node9</title>
<path fill="none" stroke="midnightblue" d="M117.466,-61.7721C126.266,-60.472 135.44,-59.1168 144.591,-57.7649"/>
<polygon fill="midnightblue" stroke="midnightblue" points="116.71,-58.3456 107.329,-63.2695 117.733,-65.2705 116.71,-58.3456"/>
</g>
<!-- Node11 -->
<g id="node6" class="node"><title>Node11</title>
<g id="a_node6"><a xlink:title=" ">
<polygon fill="none" stroke="#bfbfbf" points="2.9165,-0 2.9165,-38 105.083,-38 105.083,-0 2.9165,-0"/>
<text text-anchor="start" x="10.9165" y="-26" font-family="Helvetica,sans-Serif" font-size="10.00">std::iterator&lt; std</text>
<text text-anchor="start" x="10.9165" y="-16" font-family="Helvetica,sans-Serif" font-size="10.00">::input_iterator_tag,</text>
<text text-anchor="middle" x="54" y="-6" font-family="Helvetica,sans-Serif" font-size="10.00"> Element const &gt;</text>
</a>
</g>
</g>
<!-- Node11&#45;&gt;Node9 -->
<g id="edge5" class="edge"><title>Node11&#45;&gt;Node9</title>
<path fill="none" stroke="midnightblue" d="M115.376,-27.9191C124.725,-29.3003 134.538,-30.75 144.329,-32.1964"/>
<polygon fill="midnightblue" stroke="midnightblue" points="115.839,-24.4496 105.435,-26.4506 114.816,-31.3745 115.839,-24.4496"/>
</g>
</g>
</svg>
