<?xml version="1.0" encoding="UTF-8" standalone="no"?>
<!DOCTYPE svg PUBLIC "-//W3C//DTD SVG 1.1//EN"
 "http://www.w3.org/Graphics/SVG/1.1/DTD/svg11.dtd">
<!-- Generated by graphviz version 2.36.0 (20140111.2315)
 -->
<!-- Title: Om::Source::CollectionBackSource&lt; ThisItem, ThisIterator &gt; Pages: 1 -->
<svg width="694pt" height="93pt"
 viewBox="0.00 0.00 694.00 93.00" xmlns="http://www.w3.org/2000/svg" xmlns:xlink="http://www.w3.org/1999/xlink">
<g id="graph0" class="graph" transform="scale(1 1) rotate(0) translate(4 89)">
<title>Om::Source::CollectionBackSource&lt; ThisItem, ThisIterator &gt;</title>
<!-- Node0 -->
<g id="node1" class="node"><title>Node0</title>
<g id="a_node1"><a xlink:title="A range over a collection, starting from the back.">
<polygon fill="#bfbfbf" stroke="black" points="526.481,-31 526.481,-59 685.519,-59 685.519,-31 526.481,-31"/>
<text text-anchor="start" x="534.481" y="-47" font-family="Helvetica,sans-Serif" font-size="10.00">Om::Source::CollectionBack</text>
<text text-anchor="middle" x="606" y="-37" font-family="Helvetica,sans-Serif" font-size="10.00">Source&lt; ThisItem, ThisIterator &gt;</text>
</a>
</g>
</g>
<!-- Node1 -->
<g id="node2" class="node"><title>Node1</title>
<g id="a_node2"><a xlink:href="class_om_1_1_source_1_1_iterator_pair_source.html" target="_top" xlink:title="A Source adapter for a start and end input iterator pair.">
<polygon fill="none" stroke="black" points="330.481,-31 330.481,-59 489.519,-59 489.519,-31 330.481,-31"/>
<text text-anchor="start" x="338.481" y="-47" font-family="Helvetica,sans-Serif" font-size="10.00">Om::Source::IteratorPair</text>
<text text-anchor="middle" x="410" y="-37" font-family="Helvetica,sans-Serif" font-size="10.00">Source&lt; ThisItem, ThisIterator &gt;</text>
</a>
</g>
</g>
<!-- Node1&#45;&gt;Node0 -->
<g id="edge1" class="edge"><title>Node1&#45;&gt;Node0</title>
<path fill="none" stroke="midnightblue" d="M499.895,-45C508.691,-45 517.577,-45 526.26,-45"/>
<polygon fill="midnightblue" stroke="midnightblue" points="499.628,-41.5001 489.628,-45 499.628,-48.5001 499.628,-41.5001"/>
</g>
<!-- Node2 -->
<g id="node3" class="node"><title>Node2</title>
<g id="a_node3"><a xlink:href="class_om_1_1_source_1_1_default_source.html" target="_top" xlink:title=" ">
<polygon fill="none" stroke="black" points="144.257,-26 144.257,-64 293.743,-64 293.743,-26 144.257,-26"/>
<text text-anchor="start" x="152.257" y="-52" font-family="Helvetica,sans-Serif" font-size="10.00">Om::Source::DefaultSource</text>
<text text-anchor="start" x="152.257" y="-42" font-family="Helvetica,sans-Serif" font-size="10.00">&lt; ThisItem, IteratorPairSource</text>
<text text-anchor="middle" x="219" y="-32" font-family="Helvetica,sans-Serif" font-size="10.00">&lt; ThisItem, ThisIterator &gt; &gt;</text>
</a>
</g>
</g>
<!-- Node2&#45;&gt;Node1 -->
<g id="edge2" class="edge"><title>Node2&#45;&gt;Node1</title>
<path fill="none" stroke="midnightblue" d="M304.021,-45C312.719,-45 321.536,-45 330.173,-45"/>
<polygon fill="midnightblue" stroke="midnightblue" points="303.884,-41.5001 293.884,-45 303.884,-48.5001 303.884,-41.5001"/>
</g>
<!-- Node3 -->
<g id="node4" class="node"><title>Node3</title>
<g id="a_node4"><a xlink:href="class_om_1_1_source_1_1_source.html" target="_top" xlink:title="Any object that items can be pulled from.">
<polygon fill="none" stroke="black" points="0.70459,-57 0.70459,-85 107.295,-85 107.295,-57 0.70459,-57"/>
<text text-anchor="start" x="8.70459" y="-73" font-family="Helvetica,sans-Serif" font-size="10.00">Om::Source::Source</text>
<text text-anchor="middle" x="54" y="-63" font-family="Helvetica,sans-Serif" font-size="10.00">&lt; ThisItem &gt;</text>
</a>
</g>
</g>
<!-- Node3&#45;&gt;Node2 -->
<g id="edge3" class="edge"><title>Node3&#45;&gt;Node2</title>
<path fill="none" stroke="midnightblue" d="M117.559,-61.0213C126.294,-59.628 135.336,-58.1857 144.253,-56.7633"/>
<polygon fill="midnightblue" stroke="midnightblue" points="116.795,-57.5988 107.471,-62.6303 117.898,-64.5114 116.795,-57.5988"/>
</g>
<!-- Node4 -->
<g id="node5" class="node"><title>Node4</title>
<g id="a_node5"><a xlink:title=" ">
<polygon fill="none" stroke="#bfbfbf" points="2.9165,-0 2.9165,-38 105.083,-38 105.083,-0 2.9165,-0"/>
<text text-anchor="start" x="10.9165" y="-26" font-family="Helvetica,sans-Serif" font-size="10.00">std::iterator&lt; std</text>
<text text-anchor="start" x="10.9165" y="-16" font-family="Helvetica,sans-Serif" font-size="10.00">::input_iterator_tag,</text>
<text text-anchor="middle" x="54" y="-6" font-family="Helvetica,sans-Serif" font-size="10.00"> ThisItem &gt;</text>
</a>
</g>
</g>
<!-- Node4&#45;&gt;Node2 -->
<g id="edge4" class="edge"><title>Node4&#45;&gt;Node2</title>
<path fill="none" stroke="midnightblue" d="M115.21,-28.604C124.571,-30.0973 134.336,-31.6548 143.961,-33.19"/>
<polygon fill="midnightblue" stroke="midnightblue" points="115.662,-25.132 105.235,-27.013 114.559,-32.0446 115.662,-25.132"/>
</g>
</g>
</svg>
