<?xml version="1.0" encoding="UTF-8" standalone="no"?>
<!DOCTYPE svg PUBLIC "-//W3C//DTD SVG 1.1//EN"
 "http://www.w3.org/Graphics/SVG/1.1/DTD/svg11.dtd">
<!-- Generated by graphviz version 2.30.1 (20130221.2233)
 -->
<!-- Title: Om::Operation::IncompleteOperation Pages: 1 -->
<svg width="760pt" height="1147pt"
 viewBox="0.00 0.00 760.00 1147.00" xmlns="http://www.w3.org/2000/svg" xmlns:xlink="http://www.w3.org/1999/xlink">
<g id="graph0" class="graph" transform="scale(1 1) rotate(0) translate(4 1143)">
<title>Om::Operation::IncompleteOperation</title>
<!-- Node1 -->
<g id="node1" class="node"><title>Node1</title>
<polygon fill="#bfbfbf" stroke="black" points="-0.0268555,-568 -0.0268555,-600 136.027,-600 136.027,-568 -0.0268555,-568"/>
<text text-anchor="start" x="7.97314" y="-586" font-family="Helvetica,sans-Serif" font-size="10.00">Om::Operation::Incomplete</text>
<text text-anchor="middle" x="68" y="-574" font-family="Helvetica,sans-Serif" font-size="10.00">Operation</text>
</g>
<!-- Node2 -->
<g id="node2" class="node"><title>Node2</title>
<g id="a_node2"><a xlink:href="class_om_1_1_operation_1_1_default_incomplete_operation.html" target="_top" xlink:title="Om::Operation::DefaultIncomplete\lOperation\&lt; ChooseOperation \&gt;">
<polygon fill="none" stroke="black" points="184.131,-1107 184.131,-1139 351.869,-1139 351.869,-1107 184.131,-1107"/>
<text text-anchor="start" x="192.131" y="-1125" font-family="Helvetica,sans-Serif" font-size="10.00">Om::Operation::DefaultIncomplete</text>
<text text-anchor="middle" x="268" y="-1113" font-family="Helvetica,sans-Serif" font-size="10.00">Operation&lt; ChooseOperation &gt;</text>
</a>
</g>
</g>
<!-- Node1&#45;&gt;Node2 -->
<g id="edge1" class="edge"><title>Node1&#45;&gt;Node2</title>
<path fill="none" stroke="midnightblue" d="M70.7024,-610.245C77.344,-704.584 104.556,-1024.73 172,-1097 175.5,-1100.75 179.484,-1103.98 183.792,-1106.76"/>
<polygon fill="midnightblue" stroke="midnightblue" points="74.1849,-609.867 70.009,-600.13 67.2013,-610.346 74.1849,-609.867"/>
</g>
<!-- Node4 -->
<g id="node4" class="node"><title>Node4</title>
<g id="a_node4"><a xlink:href="class_om_1_1_operation_1_1_default_incomplete_operation.html" target="_top" xlink:title="Om::Operation::DefaultIncomplete\lOperation\&lt; CopyOperation \&gt;">
<polygon fill="none" stroke="black" points="184.131,-1056 184.131,-1088 351.869,-1088 351.869,-1056 184.131,-1056"/>
<text text-anchor="start" x="192.131" y="-1074" font-family="Helvetica,sans-Serif" font-size="10.00">Om::Operation::DefaultIncomplete</text>
<text text-anchor="middle" x="268" y="-1062" font-family="Helvetica,sans-Serif" font-size="10.00">Operation&lt; CopyOperation &gt;</text>
</a>
</g>
</g>
<!-- Node1&#45;&gt;Node4 -->
<g id="edge3" class="edge"><title>Node1&#45;&gt;Node4</title>
<path fill="none" stroke="midnightblue" d="M71.3292,-610.205C79.6769,-698.309 110.899,-981.907 172,-1046 175.658,-1049.84 179.823,-1053.13 184.318,-1055.94"/>
<polygon fill="midnightblue" stroke="midnightblue" points="74.8128,-609.864 70.4036,-600.231 67.8428,-610.511 74.8128,-609.864"/>
</g>
<!-- Node6 -->
<g id="node6" class="node"><title>Node6</title>
<g id="a_node6"><a xlink:href="class_om_1_1_operation_1_1_default_incomplete_operation.html" target="_top" xlink:title="Om::Operation::DefaultIncomplete\lOperation\&lt; DecodeOperation \&gt;">
<polygon fill="none" stroke="black" points="184.131,-1005 184.131,-1037 351.869,-1037 351.869,-1005 184.131,-1005"/>
<text text-anchor="start" x="192.131" y="-1023" font-family="Helvetica,sans-Serif" font-size="10.00">Om::Operation::DefaultIncomplete</text>
<text text-anchor="middle" x="268" y="-1011" font-family="Helvetica,sans-Serif" font-size="10.00">Operation&lt; DecodeOperation &gt;</text>
</a>
</g>
</g>
<!-- Node1&#45;&gt;Node6 -->
<g id="edge5" class="edge"><title>Node1&#45;&gt;Node6</title>
<path fill="none" stroke="midnightblue" d="M72.1126,-610.222C82.3077,-691.806 117.221,-939.025 172,-995 175.708,-998.789 179.91,-1002.04 184.434,-1004.83"/>
<polygon fill="midnightblue" stroke="midnightblue" points="75.5829,-609.766 70.8892,-600.267 68.6351,-610.62 75.5829,-609.766"/>
</g>
<!-- Node8 -->
<g id="node8" class="node"><title>Node8</title>
<g id="a_node8"><a xlink:href="class_om_1_1_operation_1_1_default_incomplete_operation.html" target="_top" xlink:title="Om::Operation::DefaultIncomplete\lOperation\&lt; DefineOperation \&gt;">
<polygon fill="none" stroke="black" points="184.131,-954 184.131,-986 351.869,-986 351.869,-954 184.131,-954"/>
<text text-anchor="start" x="192.131" y="-972" font-family="Helvetica,sans-Serif" font-size="10.00">Om::Operation::DefaultIncomplete</text>
<text text-anchor="middle" x="268" y="-960" font-family="Helvetica,sans-Serif" font-size="10.00">Operation&lt; DefineOperation &gt;</text>
</a>
</g>
</g>
<!-- Node1&#45;&gt;Node8 -->
<g id="edge7" class="edge"><title>Node1&#45;&gt;Node8</title>
<path fill="none" stroke="midnightblue" d="M68.3499,-610.344C68.2196,-676.399 77.3824,-850.467 172,-944 175.891,-947.847 180.294,-951.138 185.02,-953.953"/>
<polygon fill="midnightblue" stroke="midnightblue" points="71.853,-610.034 68.451,-600 64.8533,-609.966 71.853,-610.034"/>
</g>
<!-- Node10 -->
<g id="node10" class="node"><title>Node10</title>
<g id="a_node10"><a xlink:href="class_om_1_1_operation_1_1_default_incomplete_operation.html" target="_top" xlink:title="Om::Operation::DefaultIncomplete\lOperation\&lt; DequoteOperation \&gt;">
<polygon fill="none" stroke="black" points="184.131,-903 184.131,-935 351.869,-935 351.869,-903 184.131,-903"/>
<text text-anchor="start" x="192.131" y="-921" font-family="Helvetica,sans-Serif" font-size="10.00">Om::Operation::DefaultIncomplete</text>
<text text-anchor="middle" x="268" y="-909" font-family="Helvetica,sans-Serif" font-size="10.00">Operation&lt; DequoteOperation &gt;</text>
</a>
</g>
</g>
<!-- Node1&#45;&gt;Node10 -->
<g id="edge9" class="edge"><title>Node1&#45;&gt;Node10</title>
<path fill="none" stroke="midnightblue" d="M69.8146,-610.264C73.1184,-669.629 89.6627,-815.041 172,-893 175.973,-896.762 180.438,-899.99 185.208,-902.758"/>
<polygon fill="midnightblue" stroke="midnightblue" points="73.308,-610.039 69.3389,-600.216 66.3158,-610.37 73.308,-610.039"/>
</g>
<!-- Node12 -->
<g id="node12" class="node"><title>Node12</title>
<g id="a_node12"><a xlink:href="class_om_1_1_operation_1_1_default_incomplete_operation.html" target="_top" xlink:title="Om::Operation::DefaultIncomplete\lOperation\&lt; DropOperation \&gt;">
<polygon fill="none" stroke="black" points="184.131,-852 184.131,-884 351.869,-884 351.869,-852 184.131,-852"/>
<text text-anchor="start" x="192.131" y="-870" font-family="Helvetica,sans-Serif" font-size="10.00">Om::Operation::DefaultIncomplete</text>
<text text-anchor="middle" x="268" y="-858" font-family="Helvetica,sans-Serif" font-size="10.00">Operation&lt; DropOperation &gt;</text>
</a>
</g>
</g>
<!-- Node1&#45;&gt;Node12 -->
<g id="edge11" class="edge"><title>Node1&#45;&gt;Node12</title>
<path fill="none" stroke="midnightblue" d="M71.797,-610.197C78.7827,-662.302 101.816,-779.311 172,-842 176.336,-845.873 181.196,-849.176 186.364,-851.992"/>
<polygon fill="midnightblue" stroke="midnightblue" points="75.2493,-609.596 70.5387,-600.106 68.3031,-610.462 75.2493,-609.596"/>
</g>
<!-- Node14 -->
<g id="node14" class="node"><title>Node14</title>
<g id="a_node14"><a xlink:href="class_om_1_1_operation_1_1_default_incomplete_operation.html" target="_top" xlink:title="Om::Operation::DefaultIncomplete\lOperation\&lt; EncodeOperation \&gt;">
<polygon fill="none" stroke="black" points="184.131,-801 184.131,-833 351.869,-833 351.869,-801 184.131,-801"/>
<text text-anchor="start" x="192.131" y="-819" font-family="Helvetica,sans-Serif" font-size="10.00">Om::Operation::DefaultIncomplete</text>
<text text-anchor="middle" x="268" y="-807" font-family="Helvetica,sans-Serif" font-size="10.00">Operation&lt; EncodeOperation &gt;</text>
</a>
</g>
</g>
<!-- Node1&#45;&gt;Node14 -->
<g id="edge13" class="edge"><title>Node1&#45;&gt;Node14</title>
<path fill="none" stroke="midnightblue" d="M74.6027,-609.913C85.484,-653.904 113.708,-743.074 172,-791 176.623,-794.801 181.758,-798.048 187.178,-800.823"/>
<polygon fill="midnightblue" stroke="midnightblue" points="77.9661,-608.927 72.2577,-600.001 71.1542,-610.538 77.9661,-608.927"/>
</g>
<!-- Node16 -->
<g id="node16" class="node"><title>Node16</title>
<g id="a_node16"><a xlink:href="class_om_1_1_operation_1_1_default_incomplete_operation.html" target="_top" xlink:title="Om::Operation::DefaultIncomplete\lOperation\&lt; EqualsOperation \&gt;">
<polygon fill="none" stroke="black" points="184.131,-750 184.131,-782 351.869,-782 351.869,-750 184.131,-750"/>
<text text-anchor="start" x="192.131" y="-768" font-family="Helvetica,sans-Serif" font-size="10.00">Om::Operation::DefaultIncomplete</text>
<text text-anchor="middle" x="268" y="-756" font-family="Helvetica,sans-Serif" font-size="10.00">Operation&lt; EqualsOperation &gt;</text>
</a>
</g>
</g>
<!-- Node1&#45;&gt;Node16 -->
<g id="edge15" class="edge"><title>Node1&#45;&gt;Node16</title>
<path fill="none" stroke="midnightblue" d="M78.963,-609.484C93.8851,-644.284 125.363,-706.196 172,-740 177.261,-743.813 183.054,-747.068 189.104,-749.845"/>
<polygon fill="midnightblue" stroke="midnightblue" points="82.1007,-607.914 75.0293,-600.025 75.6373,-610.602 82.1007,-607.914"/>
</g>
<!-- Node18 -->
<g id="node18" class="node"><title>Node18</title>
<g id="a_node18"><a xlink:href="class_om_1_1_operation_1_1_default_incomplete_operation.html" target="_top" xlink:title="Om::Operation::DefaultIncomplete\lOperation\&lt; EvaluateOperation \&gt;">
<polygon fill="none" stroke="black" points="184.131,-699 184.131,-731 351.869,-731 351.869,-699 184.131,-699"/>
<text text-anchor="start" x="192.131" y="-717" font-family="Helvetica,sans-Serif" font-size="10.00">Om::Operation::DefaultIncomplete</text>
<text text-anchor="middle" x="268" y="-705" font-family="Helvetica,sans-Serif" font-size="10.00">Operation&lt; EvaluateOperation &gt;</text>
</a>
</g>
</g>
<!-- Node1&#45;&gt;Node18 -->
<g id="edge17" class="edge"><title>Node1&#45;&gt;Node18</title>
<path fill="none" stroke="midnightblue" d="M86.6185,-608.353C105.221,-632.325 136.702,-668.267 172,-689 178.488,-692.811 185.551,-696.079 192.802,-698.88"/>
<polygon fill="midnightblue" stroke="midnightblue" points="89.1982,-605.962 80.3645,-600.113 83.6223,-610.194 89.1982,-605.962"/>
</g>
<!-- Node20 -->
<g id="node20" class="node"><title>Node20</title>
<g id="a_node20"><a xlink:href="class_om_1_1_operation_1_1_default_incomplete_operation.html" target="_top" xlink:title="Om::Operation::DefaultIncomplete\lOperation\&lt; FillOperation \&gt;">
<polygon fill="none" stroke="black" points="184.131,-648 184.131,-680 351.869,-680 351.869,-648 184.131,-648"/>
<text text-anchor="start" x="192.131" y="-666" font-family="Helvetica,sans-Serif" font-size="10.00">Om::Operation::DefaultIncomplete</text>
<text text-anchor="middle" x="268" y="-654" font-family="Helvetica,sans-Serif" font-size="10.00">Operation&lt; FillOperation &gt;</text>
</a>
</g>
</g>
<!-- Node1&#45;&gt;Node20 -->
<g id="edge19" class="edge"><title>Node1&#45;&gt;Node20</title>
<path fill="none" stroke="midnightblue" d="M104.592,-605.097C124.031,-615.989 148.807,-628.87 172,-638 181.308,-641.664 191.323,-645.011 201.235,-647.995"/>
<polygon fill="midnightblue" stroke="midnightblue" points="106.209,-601.99 95.7851,-600.094 102.752,-608.077 106.209,-601.99"/>
</g>
<!-- Node22 -->
<g id="node22" class="node"><title>Node22</title>
<g id="a_node22"><a xlink:href="class_om_1_1_operation_1_1_default_incomplete_operation.html" target="_top" xlink:title="Om::Operation::DefaultIncomplete\lOperation\&lt; FindOperation \&gt;">
<polygon fill="none" stroke="black" points="184.131,-597 184.131,-629 351.869,-629 351.869,-597 184.131,-597"/>
<text text-anchor="start" x="192.131" y="-615" font-family="Helvetica,sans-Serif" font-size="10.00">Om::Operation::DefaultIncomplete</text>
<text text-anchor="middle" x="268" y="-603" font-family="Helvetica,sans-Serif" font-size="10.00">Operation&lt; FindOperation &gt;</text>
</a>
</g>
</g>
<!-- Node1&#45;&gt;Node22 -->
<g id="edge21" class="edge"><title>Node1&#45;&gt;Node22</title>
<path fill="none" stroke="midnightblue" d="M146.268,-595.317C158.605,-597.124 171.416,-599 183.882,-600.826"/>
<polygon fill="midnightblue" stroke="midnightblue" points="146.435,-591.804 136.034,-593.818 145.421,-598.73 146.435,-591.804"/>
</g>
<!-- Node24 -->
<g id="node24" class="node"><title>Node24</title>
<g id="a_node24"><a xlink:href="class_om_1_1_operation_1_1_default_incomplete_operation.html" target="_top" xlink:title="Om::Operation::DefaultIncomplete\lOperation\&lt; FrontPushOperation\l\&lt; ThisProgram, ThisImplementation \&gt; \&gt;">
<polygon fill="none" stroke="black" points="172.222,-534 172.222,-578 363.778,-578 363.778,-534 172.222,-534"/>
<text text-anchor="start" x="180.222" y="-564" font-family="Helvetica,sans-Serif" font-size="10.00">Om::Operation::DefaultIncomplete</text>
<text text-anchor="start" x="180.222" y="-552" font-family="Helvetica,sans-Serif" font-size="10.00">Operation&lt; FrontPushOperation</text>
<text text-anchor="middle" x="268" y="-540" font-family="Helvetica,sans-Serif" font-size="10.00">&lt; ThisProgram, ThisImplementation &gt; &gt;</text>
</a>
</g>
</g>
<!-- Node1&#45;&gt;Node24 -->
<g id="edge23" class="edge"><title>Node1&#45;&gt;Node24</title>
<path fill="none" stroke="midnightblue" d="M146.2,-573.083C154.64,-571.889 163.302,-570.664 171.924,-569.445"/>
<polygon fill="midnightblue" stroke="midnightblue" points="145.445,-569.655 136.034,-574.52 146.425,-576.586 145.445,-569.655"/>
</g>
<!-- Node26 -->
<g id="node26" class="node"><title>Node26</title>
<g id="a_node26"><a xlink:href="class_om_1_1_operation_1_1_default_incomplete_operation.html" target="_top" xlink:title="Om::Operation::DefaultIncomplete\lOperation\&lt; InjectOperation \&gt;">
<polygon fill="none" stroke="black" points="184.131,-483 184.131,-515 351.869,-515 351.869,-483 184.131,-483"/>
<text text-anchor="start" x="192.131" y="-501" font-family="Helvetica,sans-Serif" font-size="10.00">Om::Operation::DefaultIncomplete</text>
<text text-anchor="middle" x="268" y="-489" font-family="Helvetica,sans-Serif" font-size="10.00">Operation&lt; InjectOperation &gt;</text>
</a>
</g>
</g>
<!-- Node1&#45;&gt;Node26 -->
<g id="edge25" class="edge"><title>Node1&#45;&gt;Node26</title>
<path fill="none" stroke="midnightblue" d="M101.673,-562.435C121.402,-550.148 147.409,-535.214 172,-525 180.922,-521.294 190.534,-517.958 200.095,-515.008"/>
<polygon fill="midnightblue" stroke="midnightblue" points="99.6612,-559.566 93.0782,-567.867 103.401,-565.483 99.6612,-559.566"/>
</g>
<!-- Node28 -->
<g id="node28" class="node"><title>Node28</title>
<g id="a_node28"><a xlink:href="class_om_1_1_operation_1_1_default_incomplete_operation.html" target="_top" xlink:title="Om::Operation::DefaultIncomplete\lOperation\&lt; NormalizeOperation \&gt;">
<polygon fill="none" stroke="black" points="184.131,-432 184.131,-464 351.869,-464 351.869,-432 184.131,-432"/>
<text text-anchor="start" x="192.131" y="-450" font-family="Helvetica,sans-Serif" font-size="10.00">Om::Operation::DefaultIncomplete</text>
<text text-anchor="middle" x="268" y="-438" font-family="Helvetica,sans-Serif" font-size="10.00">Operation&lt; NormalizeOperation &gt;</text>
</a>
</g>
</g>
<!-- Node1&#45;&gt;Node28 -->
<g id="edge27" class="edge"><title>Node1&#45;&gt;Node28</title>
<path fill="none" stroke="midnightblue" d="M85.5112,-559.626C103.787,-534.504 135.526,-495.997 172,-474 178.296,-470.203 185.158,-466.947 192.217,-464.159"/>
<polygon fill="midnightblue" stroke="midnightblue" points="82.5669,-557.727 79.6227,-567.904 88.2711,-561.784 82.5669,-557.727"/>
</g>
<!-- Node30 -->
<g id="node30" class="node"><title>Node30</title>
<g id="a_node30"><a xlink:href="class_om_1_1_operation_1_1_default_incomplete_operation.html" target="_top" xlink:title="Om::Operation::DefaultIncomplete\lOperation\&lt; PairOperation \&gt;">
<polygon fill="none" stroke="black" points="184.131,-381 184.131,-413 351.869,-413 351.869,-381 184.131,-381"/>
<text text-anchor="start" x="192.131" y="-399" font-family="Helvetica,sans-Serif" font-size="10.00">Om::Operation::DefaultIncomplete</text>
<text text-anchor="middle" x="268" y="-387" font-family="Helvetica,sans-Serif" font-size="10.00">Operation&lt; PairOperation &gt;</text>
</a>
</g>
</g>
<!-- Node1&#45;&gt;Node30 -->
<g id="edge29" class="edge"><title>Node1&#45;&gt;Node30</title>
<path fill="none" stroke="midnightblue" d="M78.5143,-558.254C93.0778,-522.451 124.324,-458.084 172,-423 177.234,-419.149 183.007,-415.868 189.044,-413.073"/>
<polygon fill="midnightblue" stroke="midnightblue" points="75.0973,-557.379 74.6894,-567.966 81.6104,-559.944 75.0973,-557.379"/>
</g>
<!-- Node32 -->
<g id="node32" class="node"><title>Node32</title>
<g id="a_node32"><a xlink:href="class_om_1_1_operation_1_1_default_incomplete_operation.html" target="_top" xlink:title="Om::Operation::DefaultIncomplete\lOperation\&lt; ProgramOperation\l\&lt; ThisProgram \&gt; \&gt;">
<polygon fill="none" stroke="black" points="184.131,-318 184.131,-362 351.869,-362 351.869,-318 184.131,-318"/>
<text text-anchor="start" x="192.131" y="-348" font-family="Helvetica,sans-Serif" font-size="10.00">Om::Operation::DefaultIncomplete</text>
<text text-anchor="start" x="192.131" y="-336" font-family="Helvetica,sans-Serif" font-size="10.00">Operation&lt; ProgramOperation</text>
<text text-anchor="middle" x="268" y="-324" font-family="Helvetica,sans-Serif" font-size="10.00">&lt; ThisProgram &gt; &gt;</text>
</a>
</g>
</g>
<!-- Node1&#45;&gt;Node32 -->
<g id="edge31" class="edge"><title>Node1&#45;&gt;Node32</title>
<path fill="none" stroke="midnightblue" d="M74.648,-558.111C85.6527,-513.716 114.13,-422.932 172,-372 176.181,-368.321 180.8,-365.061 185.684,-362.174"/>
<polygon fill="midnightblue" stroke="midnightblue" points="71.2406,-557.312 72.332,-567.85 78.0507,-558.931 71.2406,-557.312"/>
</g>
<!-- Node34 -->
<g id="node34" class="node"><title>Node34</title>
<g id="a_node34"><a xlink:href="class_om_1_1_operation_1_1_default_incomplete_operation.html" target="_top" xlink:title="Om::Operation::DefaultIncomplete\lOperation\&lt; PullOperation\&lt;\l ThisProgram, ThisImplementation \&gt; \&gt;">
<polygon fill="none" stroke="black" points="175.142,-255 175.142,-299 360.858,-299 360.858,-255 175.142,-255"/>
<text text-anchor="start" x="183.142" y="-285" font-family="Helvetica,sans-Serif" font-size="10.00">Om::Operation::DefaultIncomplete</text>
<text text-anchor="start" x="183.142" y="-273" font-family="Helvetica,sans-Serif" font-size="10.00">Operation&lt; PullOperation&lt;</text>
<text text-anchor="middle" x="268" y="-261" font-family="Helvetica,sans-Serif" font-size="10.00"> ThisProgram, ThisImplementation &gt; &gt;</text>
</a>
</g>
</g>
<!-- Node1&#45;&gt;Node34 -->
<g id="edge33" class="edge"><title>Node1&#45;&gt;Node34</title>
<path fill="none" stroke="midnightblue" d="M71.4388,-557.596C77.848,-503.352 99.9998,-378.63 172,-309 175.878,-305.249 180.21,-301.938 184.829,-299.014"/>
<polygon fill="midnightblue" stroke="midnightblue" points="67.9349,-557.442 70.3271,-567.763 74.8934,-558.203 67.9349,-557.442"/>
</g>
<!-- Node36 -->
<g id="node36" class="node"><title>Node36</title>
<g id="a_node36"><a xlink:href="class_om_1_1_operation_1_1_default_incomplete_operation.html" target="_top" xlink:title="Om::Operation::DefaultIncomplete\lOperation\&lt; QuoteOperation \&gt;">
<polygon fill="none" stroke="black" points="184.131,-204 184.131,-236 351.869,-236 351.869,-204 184.131,-204"/>
<text text-anchor="start" x="192.131" y="-222" font-family="Helvetica,sans-Serif" font-size="10.00">Om::Operation::DefaultIncomplete</text>
<text text-anchor="middle" x="268" y="-210" font-family="Helvetica,sans-Serif" font-size="10.00">Operation&lt; QuoteOperation &gt;</text>
</a>
</g>
</g>
<!-- Node1&#45;&gt;Node36 -->
<g id="edge35" class="edge"><title>Node1&#45;&gt;Node36</title>
<path fill="none" stroke="midnightblue" d="M68.9361,-557.53C70.2763,-494.186 82.77,-332.709 172,-246 175.924,-242.187 180.352,-238.92 185.095,-236.124"/>
<polygon fill="midnightblue" stroke="midnightblue" points="65.4324,-557.796 68.8011,-567.841 72.4318,-557.888 65.4324,-557.796"/>
</g>
<!-- Node38 -->
<g id="node38" class="node"><title>Node38</title>
<g id="a_node38"><a xlink:href="class_om_1_1_operation_1_1_default_incomplete_operation.html" target="_top" xlink:title="Om::Operation::DefaultIncomplete\lOperation\&lt; SkipOperation \&gt;">
<polygon fill="none" stroke="black" points="184.131,-153 184.131,-185 351.869,-185 351.869,-153 184.131,-153"/>
<text text-anchor="start" x="192.131" y="-171" font-family="Helvetica,sans-Serif" font-size="10.00">Om::Operation::DefaultIncomplete</text>
<text text-anchor="middle" x="268" y="-159" font-family="Helvetica,sans-Serif" font-size="10.00">Operation&lt; SkipOperation &gt;</text>
</a>
</g>
</g>
<!-- Node1&#45;&gt;Node38 -->
<g id="edge37" class="edge"><title>Node1&#45;&gt;Node38</title>
<path fill="none" stroke="midnightblue" d="M72.5312,-557.635C83.593,-478.862 119.965,-247.469 172,-195 175.733,-191.236 179.954,-188.003 184.492,-185.226"/>
<polygon fill="midnightblue" stroke="midnightblue" points="69.0418,-557.318 71.1393,-567.703 75.9759,-558.276 69.0418,-557.318"/>
</g>
<!-- Node40 -->
<g id="node40" class="node"><title>Node40</title>
<g id="a_node40"><a xlink:href="class_om_1_1_operation_1_1_default_incomplete_operation.html" target="_top" xlink:title="Om::Operation::DefaultIncomplete\lOperation\&lt; SubstituteOperation \&gt;">
<polygon fill="none" stroke="black" points="184.131,-102 184.131,-134 351.869,-134 351.869,-102 184.131,-102"/>
<text text-anchor="start" x="192.131" y="-120" font-family="Helvetica,sans-Serif" font-size="10.00">Om::Operation::DefaultIncomplete</text>
<text text-anchor="middle" x="268" y="-108" font-family="Helvetica,sans-Serif" font-size="10.00">Operation&lt; SubstituteOperation &gt;</text>
</a>
</g>
</g>
<!-- Node1&#45;&gt;Node40 -->
<g id="edge39" class="edge"><title>Node1&#45;&gt;Node40</title>
<path fill="none" stroke="midnightblue" d="M71.6895,-557.376C80.8778,-471.59 113.724,-204.485 172,-144 175.678,-140.183 179.858,-136.909 184.365,-134.102"/>
<polygon fill="midnightblue" stroke="midnightblue" points="68.1817,-557.268 70.6175,-567.579 75.1434,-557.999 68.1817,-557.268"/>
</g>
<!-- Node43 -->
<g id="node43" class="node"><title>Node43</title>
<g id="a_node43"><a xlink:href="class_om_1_1_operation_1_1_default_incomplete_operation.html" target="_top" xlink:title="Om::Operation::DefaultIncomplete\lOperation\&lt; SwapOperation \&gt;">
<polygon fill="none" stroke="black" points="184.131,-51 184.131,-83 351.869,-83 351.869,-51 184.131,-51"/>
<text text-anchor="start" x="192.131" y="-69" font-family="Helvetica,sans-Serif" font-size="10.00">Om::Operation::DefaultIncomplete</text>
<text text-anchor="middle" x="268" y="-57" font-family="Helvetica,sans-Serif" font-size="10.00">Operation&lt; SwapOperation &gt;</text>
</a>
</g>
</g>
<!-- Node1&#45;&gt;Node43 -->
<g id="edge42" class="edge"><title>Node1&#45;&gt;Node43</title>
<path fill="none" stroke="midnightblue" d="M70.9326,-557.61C78.2004,-465.556 106.867,-160.54 172,-92 175.524,-88.2912 179.528,-85.1083 183.849,-82.379"/>
<polygon fill="midnightblue" stroke="midnightblue" points="67.43,-557.511 70.1514,-567.75 74.4093,-558.049 67.43,-557.511"/>
</g>
<!-- Node45 -->
<g id="node45" class="node"><title>Node45</title>
<g id="a_node45"><a xlink:href="class_om_1_1_operation_1_1_default_incomplete_operation.html" target="_top" xlink:title="A partial implementation of IncompleteOperation. ">
<polygon fill="none" stroke="black" points="184.131,-0 184.131,-32 351.869,-32 351.869,-0 184.131,-0"/>
<text text-anchor="start" x="192.131" y="-18" font-family="Helvetica,sans-Serif" font-size="10.00">Om::Operation::DefaultIncomplete</text>
<text text-anchor="middle" x="268" y="-6" font-family="Helvetica,sans-Serif" font-size="10.00">Operation&lt; ThisImplementation &gt;</text>
</a>
</g>
</g>
<!-- Node1&#45;&gt;Node45 -->
<g id="edge44" class="edge"><title>Node1&#45;&gt;Node45</title>
<path fill="none" stroke="midnightblue" d="M70.375,-557.497C76.0042,-459.269 100.485,-117.694 172,-41 175.489,-37.258 179.465,-34.0498 183.766,-31.3015"/>
<polygon fill="midnightblue" stroke="midnightblue" points="66.8661,-557.562 69.8065,-567.741 73.8553,-557.95 66.8661,-557.562"/>
</g>
<!-- Node3 -->
<g id="node3" class="node"><title>Node3</title>
<g id="a_node3"><a xlink:href="class_om_1_1_operation_1_1_choose_operation.html" target="_top" xlink:title="The choose operation implementation. ">
<polygon fill="none" stroke="black" points="409.239,-1113 409.239,-1133 574.761,-1133 574.761,-1113 409.239,-1113"/>
<text text-anchor="middle" x="492" y="-1119" font-family="Helvetica,sans-Serif" font-size="10.00">Om::Operation::ChooseOperation</text>
</a>
</g>
</g>
<!-- Node2&#45;&gt;Node3 -->
<g id="edge2" class="edge"><title>Node2&#45;&gt;Node3</title>
<path fill="none" stroke="midnightblue" d="M362.168,-1123C377.798,-1123 393.912,-1123 409.227,-1123"/>
<polygon fill="midnightblue" stroke="midnightblue" points="361.98,-1119.5 351.98,-1123 361.98,-1126.5 361.98,-1119.5"/>
</g>
<!-- Node5 -->
<g id="node5" class="node"><title>Node5</title>
<g id="a_node5"><a xlink:href="class_om_1_1_operation_1_1_copy_operation.html" target="_top" xlink:title="The copy operation implementation. ">
<polygon fill="none" stroke="black" points="414.801,-1062 414.801,-1082 569.199,-1082 569.199,-1062 414.801,-1062"/>
<text text-anchor="middle" x="492" y="-1068" font-family="Helvetica,sans-Serif" font-size="10.00">Om::Operation::CopyOperation</text>
</a>
</g>
</g>
<!-- Node4&#45;&gt;Node5 -->
<g id="edge4" class="edge"><title>Node4&#45;&gt;Node5</title>
<path fill="none" stroke="midnightblue" d="M362.2,-1072C379.7,-1072 397.807,-1072 414.717,-1072"/>
<polygon fill="midnightblue" stroke="midnightblue" points="361.98,-1068.5 351.98,-1072 361.98,-1075.5 361.98,-1068.5"/>
</g>
<!-- Node7 -->
<g id="node7" class="node"><title>Node7</title>
<g id="a_node7"><a xlink:href="class_om_1_1_operation_1_1_decode_operation.html" target="_top" xlink:title="The decode operation implementation. ">
<polygon fill="none" stroke="black" points="409.239,-1011 409.239,-1031 574.761,-1031 574.761,-1011 409.239,-1011"/>
<text text-anchor="middle" x="492" y="-1017" font-family="Helvetica,sans-Serif" font-size="10.00">Om::Operation::DecodeOperation</text>
</a>
</g>
</g>
<!-- Node6&#45;&gt;Node7 -->
<g id="edge6" class="edge"><title>Node6&#45;&gt;Node7</title>
<path fill="none" stroke="midnightblue" d="M362.168,-1021C377.798,-1021 393.912,-1021 409.227,-1021"/>
<polygon fill="midnightblue" stroke="midnightblue" points="361.98,-1017.5 351.98,-1021 361.98,-1024.5 361.98,-1017.5"/>
</g>
<!-- Node9 -->
<g id="node9" class="node"><title>Node9</title>
<g id="a_node9"><a xlink:href="class_om_1_1_operation_1_1_define_operation.html" target="_top" xlink:title="The define operation implementation. ">
<polygon fill="none" stroke="black" points="412.02,-960 412.02,-980 571.98,-980 571.98,-960 412.02,-960"/>
<text text-anchor="middle" x="492" y="-966" font-family="Helvetica,sans-Serif" font-size="10.00">Om::Operation::DefineOperation</text>
</a>
</g>
</g>
<!-- Node8&#45;&gt;Node9 -->
<g id="edge8" class="edge"><title>Node8&#45;&gt;Node9</title>
<path fill="none" stroke="midnightblue" d="M362.174,-970C378.679,-970 395.725,-970 411.799,-970"/>
<polygon fill="midnightblue" stroke="midnightblue" points="361.98,-966.5 351.98,-970 361.98,-973.5 361.98,-966.5"/>
</g>
<!-- Node11 -->
<g id="node11" class="node"><title>Node11</title>
<g id="a_node11"><a xlink:href="class_om_1_1_operation_1_1_dequote_operation.html" target="_top" xlink:title="The dequote operation implementation. ">
<polygon fill="none" stroke="black" points="407.569,-909 407.569,-929 576.431,-929 576.431,-909 407.569,-909"/>
<text text-anchor="middle" x="492" y="-915" font-family="Helvetica,sans-Serif" font-size="10.00">Om::Operation::DequoteOperation</text>
</a>
</g>
</g>
<!-- Node10&#45;&gt;Node11 -->
<g id="edge10" class="edge"><title>Node10&#45;&gt;Node11</title>
<path fill="none" stroke="midnightblue" d="M362.262,-919C377.236,-919 392.651,-919 407.381,-919"/>
<polygon fill="midnightblue" stroke="midnightblue" points="361.98,-915.5 351.98,-919 361.98,-922.5 361.98,-915.5"/>
</g>
<!-- Node13 -->
<g id="node13" class="node"><title>Node13</title>
<g id="a_node13"><a xlink:href="class_om_1_1_operation_1_1_drop_operation.html" target="_top" xlink:title="The drop operation implementation. ">
<polygon fill="none" stroke="black" points="415.636,-858 415.636,-878 568.364,-878 568.364,-858 415.636,-858"/>
<text text-anchor="middle" x="492" y="-864" font-family="Helvetica,sans-Serif" font-size="10.00">Om::Operation::DropOperation</text>
</a>
</g>
</g>
<!-- Node12&#45;&gt;Node13 -->
<g id="edge12" class="edge"><title>Node12&#45;&gt;Node13</title>
<path fill="none" stroke="midnightblue" d="M362.324,-868C380.036,-868 398.365,-868 415.443,-868"/>
<polygon fill="midnightblue" stroke="midnightblue" points="361.98,-864.5 351.98,-868 361.98,-871.5 361.98,-864.5"/>
</g>
<!-- Node15 -->
<g id="node15" class="node"><title>Node15</title>
<g id="a_node15"><a xlink:href="class_om_1_1_operation_1_1_encode_operation.html" target="_top" xlink:title="The encode operation implementation. ">
<polygon fill="none" stroke="black" points="409.515,-807 409.515,-827 574.485,-827 574.485,-807 409.515,-807"/>
<text text-anchor="middle" x="492" y="-813" font-family="Helvetica,sans-Serif" font-size="10.00">Om::Operation::EncodeOperation</text>
</a>
</g>
</g>
<!-- Node14&#45;&gt;Node15 -->
<g id="edge14" class="edge"><title>Node14&#45;&gt;Node15</title>
<path fill="none" stroke="midnightblue" d="M362.168,-817C377.798,-817 393.912,-817 409.227,-817"/>
<polygon fill="midnightblue" stroke="midnightblue" points="361.98,-813.5 351.98,-817 361.98,-820.5 361.98,-813.5"/>
</g>
<!-- Node17 -->
<g id="node17" class="node"><title>Node17</title>
<g id="a_node17"><a xlink:href="class_om_1_1_operation_1_1_equals_operation.html" target="_top" xlink:title="The = operation implementation. ">
<polygon fill="none" stroke="black" points="411.185,-756 411.185,-776 572.815,-776 572.815,-756 411.185,-756"/>
<text text-anchor="middle" x="492" y="-762" font-family="Helvetica,sans-Serif" font-size="10.00">Om::Operation::EqualsOperation</text>
</a>
</g>
</g>
<!-- Node16&#45;&gt;Node17 -->
<g id="edge16" class="edge"><title>Node16&#45;&gt;Node17</title>
<path fill="none" stroke="midnightblue" d="M362.045,-766C378.34,-766 395.165,-766 411.065,-766"/>
<polygon fill="midnightblue" stroke="midnightblue" points="361.98,-762.5 351.98,-766 361.98,-769.5 361.98,-762.5"/>
</g>
<!-- Node19 -->
<g id="node19" class="node"><title>Node19</title>
<g id="a_node19"><a xlink:href="class_om_1_1_operation_1_1_evaluate_operation.html" target="_top" xlink:title="The define operation implementation. ">
<polygon fill="none" stroke="black" points="407.015,-705 407.015,-725 576.985,-725 576.985,-705 407.015,-705"/>
<text text-anchor="middle" x="492" y="-711" font-family="Helvetica,sans-Serif" font-size="10.00">Om::Operation::EvaluateOperation</text>
</a>
</g>
</g>
<!-- Node18&#45;&gt;Node19 -->
<g id="edge18" class="edge"><title>Node18&#45;&gt;Node19</title>
<path fill="none" stroke="midnightblue" d="M362.192,-715C377.062,-715 392.37,-715 407.011,-715"/>
<polygon fill="midnightblue" stroke="midnightblue" points="361.98,-711.5 351.98,-715 361.98,-718.5 361.98,-711.5"/>
</g>
<!-- Node21 -->
<g id="node21" class="node"><title>Node21</title>
<g id="a_node21"><a xlink:href="class_om_1_1_operation_1_1_fill_operation.html" target="_top" xlink:title="The fill operation implementation. ">
<polygon fill="none" stroke="black" points="420.086,-654 420.086,-674 563.914,-674 563.914,-654 420.086,-654"/>
<text text-anchor="middle" x="492" y="-660" font-family="Helvetica,sans-Serif" font-size="10.00">Om::Operation::FillOperation</text>
</a>
</g>
</g>
<!-- Node20&#45;&gt;Node21 -->
<g id="edge20" class="edge"><title>Node20&#45;&gt;Node21</title>
<path fill="none" stroke="midnightblue" d="M362.001,-664C381.317,-664 401.381,-664 419.767,-664"/>
<polygon fill="midnightblue" stroke="midnightblue" points="361.98,-660.5 351.98,-664 361.98,-667.5 361.98,-660.5"/>
</g>
<!-- Node23 -->
<g id="node23" class="node"><title>Node23</title>
<g id="a_node23"><a xlink:href="class_om_1_1_operation_1_1_find_operation.html" target="_top" xlink:title="The find operation implementation. ">
<polygon fill="none" stroke="black" points="416.747,-603 416.747,-623 567.253,-623 567.253,-603 416.747,-603"/>
<text text-anchor="middle" x="492" y="-609" font-family="Helvetica,sans-Serif" font-size="10.00">Om::Operation::FindOperation</text>
</a>
</g>
</g>
<!-- Node22&#45;&gt;Node23 -->
<g id="edge22" class="edge"><title>Node22&#45;&gt;Node23</title>
<path fill="none" stroke="midnightblue" d="M362.004,-613C380.191,-613 399.041,-613 416.53,-613"/>
<polygon fill="midnightblue" stroke="midnightblue" points="361.98,-609.5 351.98,-613 361.98,-616.5 361.98,-609.5"/>
</g>
<!-- Node25 -->
<g id="node25" class="node"><title>Node25</title>
<g id="a_node25"><a xlink:href="class_om_1_1_operation_1_1_front_push_operation.html" target="_top" xlink:title="An Operation that joins an Operand to the front of a Program. ">
<polygon fill="none" stroke="black" points="425.365,-534 425.365,-578 558.635,-578 558.635,-534 425.365,-534"/>
<text text-anchor="start" x="433.365" y="-564" font-family="Helvetica,sans-Serif" font-size="10.00">Om::Operation::FrontPush</text>
<text text-anchor="start" x="433.365" y="-552" font-family="Helvetica,sans-Serif" font-size="10.00">Operation&lt; ThisProgram,</text>
<text text-anchor="middle" x="492" y="-540" font-family="Helvetica,sans-Serif" font-size="10.00"> ThisImplementation &gt;</text>
</a>
</g>
</g>
<!-- Node24&#45;&gt;Node25 -->
<g id="edge24" class="edge"><title>Node24&#45;&gt;Node25</title>
<path fill="none" stroke="midnightblue" d="M374.05,-556C391.533,-556 409.214,-556 425.35,-556"/>
<polygon fill="midnightblue" stroke="midnightblue" points="373.792,-552.5 363.792,-556 373.792,-559.5 373.792,-552.5"/>
</g>
<!-- Node27 -->
<g id="node27" class="node"><title>Node27</title>
<g id="a_node27"><a xlink:href="class_om_1_1_operation_1_1_inject_operation.html" target="_top" xlink:title="The inject operation implementation. ">
<polygon fill="none" stroke="black" points="414.522,-489 414.522,-509 569.478,-509 569.478,-489 414.522,-489"/>
<text text-anchor="middle" x="492" y="-495" font-family="Helvetica,sans-Serif" font-size="10.00">Om::Operation::InjectOperation</text>
</a>
</g>
</g>
<!-- Node26&#45;&gt;Node27 -->
<g id="edge26" class="edge"><title>Node26&#45;&gt;Node27</title>
<path fill="none" stroke="midnightblue" d="M362.139,-499C379.533,-499 397.527,-499 414.354,-499"/>
<polygon fill="midnightblue" stroke="midnightblue" points="361.98,-495.5 351.98,-499 361.98,-502.5 361.98,-495.5"/>
</g>
<!-- Node29 -->
<g id="node29" class="node"><title>Node29</title>
<g id="a_node29"><a xlink:href="class_om_1_1_operation_1_1_normalize_operation.html" target="_top" xlink:title="The normalize operation implementation. ">
<polygon fill="none" stroke="black" points="425.926,-432 425.926,-464 558.074,-464 558.074,-432 425.926,-432"/>
<text text-anchor="start" x="433.926" y="-450" font-family="Helvetica,sans-Serif" font-size="10.00">Om::Operation::Normalize</text>
<text text-anchor="middle" x="492" y="-438" font-family="Helvetica,sans-Serif" font-size="10.00">Operation</text>
</a>
</g>
</g>
<!-- Node28&#45;&gt;Node29 -->
<g id="edge28" class="edge"><title>Node28&#45;&gt;Node29</title>
<path fill="none" stroke="midnightblue" d="M362.077,-448C383.501,-448 405.839,-448 425.786,-448"/>
<polygon fill="midnightblue" stroke="midnightblue" points="361.98,-444.5 351.98,-448 361.98,-451.5 361.98,-444.5"/>
</g>
<!-- Node31 -->
<g id="node31" class="node"><title>Node31</title>
<g id="a_node31"><a xlink:href="class_om_1_1_operation_1_1_pair_operation.html" target="_top" xlink:title="The pair operation implementation. ">
<polygon fill="none" stroke="black" points="417.582,-387 417.582,-407 566.418,-407 566.418,-387 417.582,-387"/>
<text text-anchor="middle" x="492" y="-393" font-family="Helvetica,sans-Serif" font-size="10.00">Om::Operation::PairOperation</text>
</a>
</g>
</g>
<!-- Node30&#45;&gt;Node31 -->
<g id="edge30" class="edge"><title>Node30&#45;&gt;Node31</title>
<path fill="none" stroke="midnightblue" d="M362.121,-397C380.523,-397 399.599,-397 417.252,-397"/>
<polygon fill="midnightblue" stroke="midnightblue" points="361.98,-393.5 351.98,-397 361.98,-400.5 361.98,-393.5"/>
</g>
<!-- Node33 -->
<g id="node33" class="node"><title>Node33</title>
<g id="a_node33"><a xlink:href="class_om_1_1_operation_1_1_program_operation.html" target="_top" xlink:title="An Operation that normalizes a Program to a specific type. ">
<polygon fill="none" stroke="black" points="407.301,-324 407.301,-356 576.699,-356 576.699,-324 407.301,-324"/>
<text text-anchor="start" x="415.301" y="-342" font-family="Helvetica,sans-Serif" font-size="10.00">Om::Operation::ProgramOperation</text>
<text text-anchor="middle" x="492" y="-330" font-family="Helvetica,sans-Serif" font-size="10.00">&lt; ThisProgram &gt;</text>
</a>
</g>
</g>
<!-- Node32&#45;&gt;Node33 -->
<g id="edge32" class="edge"><title>Node32&#45;&gt;Node33</title>
<path fill="none" stroke="midnightblue" d="M362.192,-340C377.062,-340 392.37,-340 407.011,-340"/>
<polygon fill="midnightblue" stroke="midnightblue" points="361.98,-336.5 351.98,-340 361.98,-343.5 361.98,-336.5"/>
</g>
<!-- Node35 -->
<g id="node35" class="node"><title>Node35</title>
<g id="a_node35"><a xlink:href="class_om_1_1_operation_1_1_pull_operation.html" target="_top" xlink:title="An Operation that pulls part of a Program. ">
<polygon fill="none" stroke="black" points="400.531,-261 400.531,-293 583.469,-293 583.469,-261 400.531,-261"/>
<text text-anchor="start" x="408.531" y="-279" font-family="Helvetica,sans-Serif" font-size="10.00">Om::Operation::PullOperation</text>
<text text-anchor="middle" x="492" y="-267" font-family="Helvetica,sans-Serif" font-size="10.00">&lt; ThisProgram, ThisImplementation &gt;</text>
</a>
</g>
</g>
<!-- Node34&#45;&gt;Node35 -->
<g id="edge34" class="edge"><title>Node34&#45;&gt;Node35</title>
<path fill="none" stroke="midnightblue" d="M371.014,-277C380.765,-277 390.609,-277 400.243,-277"/>
<polygon fill="midnightblue" stroke="midnightblue" points="370.898,-273.5 360.898,-277 370.898,-280.5 370.898,-273.5"/>
</g>
<!-- Node37 -->
<g id="node37" class="node"><title>Node37</title>
<g id="a_node37"><a xlink:href="class_om_1_1_operation_1_1_quote_operation.html" target="_top" xlink:title="The quote operation implementation. ">
<polygon fill="none" stroke="black" points="412.853,-210 412.853,-230 571.147,-230 571.147,-210 412.853,-210"/>
<text text-anchor="middle" x="492" y="-216" font-family="Helvetica,sans-Serif" font-size="10.00">Om::Operation::QuoteOperation</text>
</a>
</g>
</g>
<!-- Node36&#45;&gt;Node37 -->
<g id="edge36" class="edge"><title>Node36&#45;&gt;Node37</title>
<path fill="none" stroke="midnightblue" d="M362.303,-220C379.019,-220 396.285,-220 412.53,-220"/>
<polygon fill="midnightblue" stroke="midnightblue" points="361.98,-216.5 351.98,-220 361.98,-223.5 361.98,-216.5"/>
</g>
<!-- Node39 -->
<g id="node39" class="node"><title>Node39</title>
<g id="a_node39"><a xlink:href="class_om_1_1_operation_1_1_skip_operation.html" target="_top" xlink:title="The skip operation implementation. ">
<polygon fill="none" stroke="black" points="416.747,-159 416.747,-179 567.253,-179 567.253,-159 416.747,-159"/>
<text text-anchor="middle" x="492" y="-165" font-family="Helvetica,sans-Serif" font-size="10.00">Om::Operation::SkipOperation</text>
</a>
</g>
</g>
<!-- Node38&#45;&gt;Node39 -->
<g id="edge38" class="edge"><title>Node38&#45;&gt;Node39</title>
<path fill="none" stroke="midnightblue" d="M362.004,-169C380.191,-169 399.041,-169 416.53,-169"/>
<polygon fill="midnightblue" stroke="midnightblue" points="361.98,-165.5 351.98,-169 361.98,-172.5 361.98,-165.5"/>
</g>
<!-- Node41 -->
<g id="node41" class="node"><title>Node41</title>
<g id="a_node41"><a xlink:href="class_om_1_1_operation_1_1_translate_operation.html" target="_top" xlink:title="Om::Operation::Translate\lOperation\&lt; SubstituteOperation \&gt;">
<polygon fill="none" stroke="black" points="409.229,-102 409.229,-134 574.771,-134 574.771,-102 409.229,-102"/>
<text text-anchor="start" x="417.229" y="-120" font-family="Helvetica,sans-Serif" font-size="10.00">Om::Operation::Translate</text>
<text text-anchor="middle" x="492" y="-108" font-family="Helvetica,sans-Serif" font-size="10.00">Operation&lt; SubstituteOperation &gt;</text>
</a>
</g>
</g>
<!-- Node40&#45;&gt;Node41 -->
<g id="edge40" class="edge"><title>Node40&#45;&gt;Node41</title>
<path fill="none" stroke="midnightblue" d="M362.168,-118C377.798,-118 393.912,-118 409.227,-118"/>
<polygon fill="midnightblue" stroke="midnightblue" points="361.98,-114.5 351.98,-118 361.98,-121.5 361.98,-114.5"/>
</g>
<!-- Node42 -->
<g id="node42" class="node"><title>Node42</title>
<g id="a_node42"><a xlink:href="class_om_1_1_operation_1_1_substitute_operation.html" target="_top" xlink:title="The substitute operation implementation. ">
<polygon fill="none" stroke="black" points="620.195,-102 620.195,-134 751.805,-134 751.805,-102 620.195,-102"/>
<text text-anchor="start" x="628.195" y="-120" font-family="Helvetica,sans-Serif" font-size="10.00">Om::Operation::Substitute</text>
<text text-anchor="middle" x="686" y="-108" font-family="Helvetica,sans-Serif" font-size="10.00">Operation</text>
</a>
</g>
</g>
<!-- Node41&#45;&gt;Node42 -->
<g id="edge41" class="edge"><title>Node41&#45;&gt;Node42</title>
<path fill="none" stroke="midnightblue" d="M585.29,-118C597.062,-118 608.908,-118 620.119,-118"/>
<polygon fill="midnightblue" stroke="midnightblue" points="584.982,-114.5 574.982,-118 584.982,-121.5 584.982,-114.5"/>
</g>
<!-- Node44 -->
<g id="node44" class="node"><title>Node44</title>
<g id="a_node44"><a xlink:href="class_om_1_1_operation_1_1_swap_operation.html" target="_top" xlink:title="The swap operation implementation. ">
<polygon fill="none" stroke="black" points="413.966,-57 413.966,-77 570.034,-77 570.034,-57 413.966,-57"/>
<text text-anchor="middle" x="492" y="-63" font-family="Helvetica,sans-Serif" font-size="10.00">Om::Operation::SwapOperation</text>
</a>
</g>
</g>
<!-- Node43&#45;&gt;Node44 -->
<g id="edge43" class="edge"><title>Node43&#45;&gt;Node44</title>
<path fill="none" stroke="midnightblue" d="M362.015,-67C379.197,-67 396.969,-67 413.625,-67"/>
<polygon fill="midnightblue" stroke="midnightblue" points="361.98,-63.5001 351.98,-67 361.98,-70.5001 361.98,-63.5001"/>
</g>
<!-- Node46 -->
<g id="node46" class="node"><title>Node46</title>
<g id="a_node46"><a xlink:href="class_om_1_1_operation_1_1_translate_operation.html" target="_top" xlink:title="An Operation that applies each Translator to a Program. ">
<polygon fill="none" stroke="black" points="409.881,-0 409.881,-32 574.119,-32 574.119,-0 409.881,-0"/>
<text text-anchor="start" x="417.881" y="-18" font-family="Helvetica,sans-Serif" font-size="10.00">Om::Operation::Translate</text>
<text text-anchor="middle" x="492" y="-6" font-family="Helvetica,sans-Serif" font-size="10.00">Operation&lt; ThisImplementation &gt;</text>
</a>
</g>
</g>
<!-- Node45&#45;&gt;Node46 -->
<g id="edge45" class="edge"><title>Node45&#45;&gt;Node46</title>
<path fill="none" stroke="midnightblue" d="M362.236,-16C377.97,-16 394.193,-16 409.595,-16"/>
<polygon fill="midnightblue" stroke="midnightblue" points="361.98,-12.5001 351.98,-16 361.98,-19.5001 361.98,-12.5001"/>
</g>
</g>
</svg>
