<?xml version="1.0" encoding="UTF-8" standalone="no"?>
<!DOCTYPE svg PUBLIC "-//W3C//DTD SVG 1.1//EN"
 "http://www.w3.org/Graphics/SVG/1.1/DTD/svg11.dtd">
<!-- Generated by graphviz version 2.36.0 (20140111.2315)
 -->
<!-- Title: Om::Sink::IteratorSink&lt; ThisItem, ThisIterator &gt; Pages: 1 -->
<svg width="271pt" height="190pt"
 viewBox="0.00 0.00 271.00 190.00" xmlns="http://www.w3.org/2000/svg" xmlns:xlink="http://www.w3.org/1999/xlink">
<g id="graph0" class="graph" transform="scale(1 1) rotate(0) translate(4 186)">
<title>Om::Sink::IteratorSink&lt; ThisItem, ThisIterator &gt;</title>
<!-- Node0 -->
<g id="node1" class="node"><title>Node0</title>
<g id="a_node1"><a xlink:title="A Sink adapter for an output iterator.">
<polygon fill="#bfbfbf" stroke="black" points="74.3237,-1 74.3237,-29 201.676,-29 201.676,-1 74.3237,-1"/>
<text text-anchor="start" x="82.3237" y="-17" font-family="Helvetica,sans-Serif" font-size="10.00">Om::Sink::IteratorSink</text>
<text text-anchor="middle" x="138" y="-7" font-family="Helvetica,sans-Serif" font-size="10.00">&lt; ThisItem, ThisIterator &gt;</text>
</a>
</g>
</g>
<!-- Node1 -->
<g id="node2" class="node"><title>Node1</title>
<g id="a_node2"><a xlink:href="class_om_1_1_sink_1_1_default_sink.html" target="_top" xlink:title=" ">
<polygon fill="none" stroke="black" points="70.0146,-67 70.0146,-105 205.985,-105 205.985,-67 70.0146,-67"/>
<text text-anchor="start" x="78.0146" y="-93" font-family="Helvetica,sans-Serif" font-size="10.00">Om::Sink::DefaultSink</text>
<text text-anchor="start" x="78.0146" y="-83" font-family="Helvetica,sans-Serif" font-size="10.00">&lt; ThisItem, IteratorSink</text>
<text text-anchor="middle" x="138" y="-73" font-family="Helvetica,sans-Serif" font-size="10.00">&lt; ThisItem, ThisIterator &gt; &gt;</text>
</a>
</g>
</g>
<!-- Node1&#45;&gt;Node0 -->
<g id="edge1" class="edge"><title>Node1&#45;&gt;Node0</title>
<path fill="none" stroke="midnightblue" d="M138,-56.587C138,-47.0981 138,-36.9748 138,-29.2121"/>
<polygon fill="midnightblue" stroke="midnightblue" points="134.5,-56.871 138,-66.8711 141.5,-56.8711 134.5,-56.871"/>
</g>
<!-- Node2 -->
<g id="node3" class="node"><title>Node2</title>
<g id="a_node3"><a xlink:href="class_om_1_1_sink_1_1_sink.html" target="_top" xlink:title="Any object that items can be pushed to.">
<polygon fill="none" stroke="black" points="-0.76416,-153 -0.76416,-171 136.764,-171 136.764,-153 -0.76416,-153"/>
<text text-anchor="middle" x="68" y="-159" font-family="Helvetica,sans-Serif" font-size="10.00">Om::Sink::Sink&lt; ThisItem &gt;</text>
</a>
</g>
</g>
<!-- Node2&#45;&gt;Node1 -->
<g id="edge2" class="edge"><title>Node2&#45;&gt;Node1</title>
<path fill="none" stroke="midnightblue" d="M82.7083,-145.451C93.8535,-133.669 109.192,-117.454 120.887,-105.091"/>
<polygon fill="midnightblue" stroke="midnightblue" points="80.0881,-143.128 75.7587,-152.798 85.1734,-147.938 80.0881,-143.128"/>
</g>
<!-- Node3 -->
<g id="node4" class="node"><title>Node3</title>
<g id="a_node4"><a xlink:title=" ">
<polygon fill="none" stroke="#bfbfbf" points="154.857,-143 154.857,-181 263.143,-181 263.143,-143 154.857,-143"/>
<text text-anchor="start" x="162.857" y="-169" font-family="Helvetica,sans-Serif" font-size="10.00">std::iterator&lt; std</text>
<text text-anchor="start" x="162.857" y="-159" font-family="Helvetica,sans-Serif" font-size="10.00">::output_iterator_tag,</text>
<text text-anchor="middle" x="209" y="-149" font-family="Helvetica,sans-Serif" font-size="10.00"> ThisItem &gt;</text>
</a>
</g>
</g>
<!-- Node3&#45;&gt;Node1 -->
<g id="edge3" class="edge"><title>Node3&#45;&gt;Node1</title>
<path fill="none" stroke="midnightblue" d="M184.409,-135.37C174.835,-125.391 164.088,-114.19 155.349,-105.082"/>
<polygon fill="midnightblue" stroke="midnightblue" points="182.001,-137.915 191.449,-142.708 187.052,-133.069 182.001,-137.915"/>
</g>
</g>
</svg>
