<?xml version="1.0" encoding="UTF-8" standalone="no"?>
<!DOCTYPE svg PUBLIC "-//W3C//DTD SVG 1.1//EN"
 "http://www.w3.org/Graphics/SVG/1.1/DTD/svg11.dtd">
<!-- Generated by graphviz version 2.30.1 (20130221.2233)
 -->
<!-- Title: Om::Sinks::ContainerBackSink&lt; ThisItem, ThisContainer &gt; Pages: 1 -->
<svg width="246pt" height="206pt"
 viewBox="0.00 0.00 246.00 206.00" xmlns="http://www.w3.org/2000/svg" xmlns:xlink="http://www.w3.org/1999/xlink">
<g id="graph0" class="graph" transform="scale(1 1) rotate(0) translate(4 202)">
<title>Om::Sinks::ContainerBackSink&lt; ThisItem, ThisContainer &gt;</title>
<!-- Node1 -->
<g id="node1" class="node"><title>Node1</title>
<polygon fill="#bfbfbf" stroke="black" points="40.7573,-1 40.7573,-33 199.243,-33 199.243,-1 40.7573,-1"/>
<text text-anchor="start" x="48.7573" y="-19" font-family="Helvetica,sans-Serif" font-size="10.00">Om::Sinks::ContainerBack</text>
<text text-anchor="middle" x="120" y="-7" font-family="Helvetica,sans-Serif" font-size="10.00">Sink&lt; ThisItem, ThisContainer &gt;</text>
</g>
<!-- Node2 -->
<g id="node2" class="node"><title>Node2</title>
<g id="a_node2"><a xlink:href="class_om_1_1_sinks_1_1_default_sink.html" target="_top" xlink:title="Om::Sinks::DefaultSink\l\&lt; ThisItem, ContainerBackSink\l\&lt; ThisItem, ThisContainer \&gt; \&gt;">
<polygon fill="none" stroke="black" points="43.3086,-71 43.3086,-115 196.691,-115 196.691,-71 43.3086,-71"/>
<text text-anchor="start" x="51.3086" y="-101" font-family="Helvetica,sans-Serif" font-size="10.00">Om::Sinks::DefaultSink</text>
<text text-anchor="start" x="51.3086" y="-89" font-family="Helvetica,sans-Serif" font-size="10.00">&lt; ThisItem, ContainerBackSink</text>
<text text-anchor="middle" x="120" y="-77" font-family="Helvetica,sans-Serif" font-size="10.00">&lt; ThisItem, ThisContainer &gt; &gt;</text>
</a>
</g>
</g>
<!-- Node2&#45;&gt;Node1 -->
<g id="edge1" class="edge"><title>Node2&#45;&gt;Node1</title>
<path fill="none" stroke="midnightblue" d="M120,-60.6933C120,-51.2613 120,-41.3236 120,-33.4115"/>
<polygon fill="midnightblue" stroke="midnightblue" points="116.5,-60.9925 120,-70.9925 123.5,-60.9925 116.5,-60.9925"/>
</g>
<!-- Node3 -->
<g id="node3" class="node"><title>Node3</title>
<g id="a_node3"><a xlink:href="class_om_1_1_sink.html" target="_top" xlink:title="Any object that items can be pushed to. ">
<polygon fill="none" stroke="black" points="-0.259277,-165 -0.259277,-185 112.259,-185 112.259,-165 -0.259277,-165"/>
<text text-anchor="middle" x="56" y="-171" font-family="Helvetica,sans-Serif" font-size="10.00">Om::Sink&lt; ThisItem &gt;</text>
</a>
</g>
</g>
<!-- Node3&#45;&gt;Node2 -->
<g id="edge2" class="edge"><title>Node3&#45;&gt;Node2</title>
<path fill="none" stroke="midnightblue" d="M69.7783,-156.777C79.5681,-144.54 92.7706,-128.037 103.182,-115.022"/>
<polygon fill="midnightblue" stroke="midnightblue" points="66.8556,-154.828 63.3416,-164.823 72.3216,-159.201 66.8556,-154.828"/>
</g>
<!-- Node4 -->
<g id="node4" class="node"><title>Node4</title>
<polygon fill="none" stroke="#bfbfbf" points="129.857,-153 129.857,-197 238.143,-197 238.143,-153 129.857,-153"/>
<text text-anchor="start" x="137.857" y="-183" font-family="Helvetica,sans-Serif" font-size="10.00">std::iterator&lt; std</text>
<text text-anchor="start" x="137.857" y="-171" font-family="Helvetica,sans-Serif" font-size="10.00">::output_iterator_tag,</text>
<text text-anchor="middle" x="184" y="-159" font-family="Helvetica,sans-Serif" font-size="10.00"> ThisItem &gt;</text>
</g>
<!-- Node4&#45;&gt;Node2 -->
<g id="edge3" class="edge"><title>Node4&#45;&gt;Node2</title>
<path fill="none" stroke="midnightblue" d="M160.785,-144.981C152.894,-135.117 144.23,-124.288 136.925,-115.156"/>
<polygon fill="midnightblue" stroke="midnightblue" points="158.205,-147.359 167.185,-152.981 163.671,-142.986 158.205,-147.359"/>
</g>
</g>
</svg>
