<?xml version="1.0" encoding="UTF-8" standalone="no"?>
<!DOCTYPE svg PUBLIC "-//W3C//DTD SVG 1.1//EN"
 "http://www.w3.org/Graphics/SVG/1.1/DTD/svg11.dtd">
<!-- Generated by graphviz version 2.30.1 (20130221.2233)
 -->
<!-- Title: Om::Sources::CodePointSource&lt; ThisCodeUnitIterator &gt; Pages: 1 -->
<svg width="546pt" height="103pt"
 viewBox="0.00 0.00 546.00 103.00" xmlns="http://www.w3.org/2000/svg" xmlns:xlink="http://www.w3.org/1999/xlink">
<g id="graph0" class="graph" transform="scale(1 1) rotate(0) translate(4 99)">
<title>Om::Sources::CodePointSource&lt; ThisCodeUnitIterator &gt;</title>
<!-- Node1 -->
<g id="node1" class="node"><title>Node1</title>
<polygon fill="#bfbfbf" stroke="black" points="379.855,-34 379.855,-66 538.145,-66 538.145,-34 379.855,-34"/>
<text text-anchor="start" x="387.855" y="-52" font-family="Helvetica,sans-Serif" font-size="10.00">Om::Sources::CodePointSource</text>
<text text-anchor="middle" x="459" y="-40" font-family="Helvetica,sans-Serif" font-size="10.00">&lt; ThisCodeUnitIterator &gt;</text>
</g>
<!-- Node2 -->
<g id="node2" class="node"><title>Node2</title>
<g id="a_node2"><a xlink:href="class_om_1_1_sources_1_1_default_source.html" target="_top" xlink:title="Om::Sources::DefaultSource\l\&lt; CodePoint const, CodePointSource\l\&lt; ThisCodeUnitIterator \&gt; \&gt;">
<polygon fill="none" stroke="black" points="162.031,-28 162.031,-72 343.969,-72 343.969,-28 162.031,-28"/>
<text text-anchor="start" x="170.031" y="-58" font-family="Helvetica,sans-Serif" font-size="10.00">Om::Sources::DefaultSource</text>
<text text-anchor="start" x="170.031" y="-46" font-family="Helvetica,sans-Serif" font-size="10.00">&lt; CodePoint const, CodePointSource</text>
<text text-anchor="middle" x="253" y="-34" font-family="Helvetica,sans-Serif" font-size="10.00">&lt; ThisCodeUnitIterator &gt; &gt;</text>
</a>
</g>
</g>
<!-- Node2&#45;&gt;Node1 -->
<g id="edge1" class="edge"><title>Node2&#45;&gt;Node1</title>
<path fill="none" stroke="midnightblue" d="M354.105,-50C362.671,-50 371.256,-50 379.616,-50"/>
<polygon fill="midnightblue" stroke="midnightblue" points="354.071,-46.5001 344.071,-50 354.071,-53.5001 354.071,-46.5001"/>
</g>
<!-- Node3 -->
<g id="node3" class="node"><title>Node3</title>
<g id="a_node3"><a xlink:href="class_om_1_1_source.html" target="_top" xlink:title="Om::Source\&lt; CodePoint\l const &#160;\&gt;">
<polygon fill="none" stroke="black" points="0.666504,-63 0.666504,-95 125.333,-95 125.333,-63 0.666504,-63"/>
<text text-anchor="start" x="8.6665" y="-81" font-family="Helvetica,sans-Serif" font-size="10.00">Om::Source&lt; CodePoint</text>
<text text-anchor="middle" x="63" y="-69" font-family="Helvetica,sans-Serif" font-size="10.00"> const &gt;</text>
</a>
</g>
</g>
<!-- Node3&#45;&gt;Node2 -->
<g id="edge2" class="edge"><title>Node3&#45;&gt;Node2</title>
<path fill="none" stroke="midnightblue" d="M135.568,-67.9602C144.217,-66.6261 153.135,-65.2505 162.005,-63.8822"/>
<polygon fill="midnightblue" stroke="midnightblue" points="134.908,-64.5206 125.558,-69.5043 135.975,-71.4388 134.908,-64.5206"/>
</g>
<!-- Node4 -->
<g id="node4" class="node"><title>Node4</title>
<polygon fill="none" stroke="#bfbfbf" points="11.9165,-0 11.9165,-44 114.083,-44 114.083,-0 11.9165,-0"/>
<text text-anchor="start" x="19.9165" y="-30" font-family="Helvetica,sans-Serif" font-size="10.00">std::iterator&lt; std</text>
<text text-anchor="start" x="19.9165" y="-18" font-family="Helvetica,sans-Serif" font-size="10.00">::input_iterator_tag,</text>
<text text-anchor="middle" x="63" y="-6" font-family="Helvetica,sans-Serif" font-size="10.00"> CodePoint const &gt;</text>
</g>
<!-- Node4&#45;&gt;Node2 -->
<g id="edge3" class="edge"><title>Node4&#45;&gt;Node2</title>
<path fill="none" stroke="midnightblue" d="M124.619,-31.0283C136.536,-32.8032 149.276,-34.7007 161.921,-36.584"/>
<polygon fill="midnightblue" stroke="midnightblue" points="124.787,-27.5149 114.381,-29.5035 123.756,-34.4385 124.787,-27.5149"/>
</g>
</g>
</svg>
