<?xml version="1.0" encoding="UTF-8" standalone="no"?>
<!DOCTYPE svg PUBLIC "-//W3C//DTD SVG 1.1//EN"
 "http://www.w3.org/Graphics/SVG/1.1/DTD/svg11.dtd">
<!-- Generated by graphviz version 2.30.1 (20130221.2233)
 -->
<!-- Title: Om::Environment Pages: 1 -->
<svg width="182pt" height="182pt"
 viewBox="0.00 0.00 182.34 182.00" xmlns="http://www.w3.org/2000/svg" xmlns:xlink="http://www.w3.org/1999/xlink">
<g id="graph0" class="graph" transform="scale(1 1) rotate(0) translate(4 178)">
<title>Om::Environment</title>
<!-- Node1 -->
<g id="node1" class="node"><title>Node1</title>
<polygon fill="#bfbfbf" stroke="black" points="-0.901367,-1 -0.901367,-21 92.9014,-21 92.9014,-1 -0.901367,-1"/>
<text text-anchor="middle" x="46" y="-7" font-family="Helvetica,sans-Serif" font-size="10.00">Om::Environment</text>
</g>
<!-- Node2 -->
<g id="node2" class="node"><title>Node2</title>
<g id="a_node2"><a xlink:href="class_om_1_1_translator.html" target="_top" xlink:title="An Operator lookup for use by an Evaluator.">
<polygon fill="none" stroke="black" points="17.8433,-153 17.8433,-173 100.157,-173 100.157,-153 17.8433,-153"/>
<text text-anchor="middle" x="59" y="-159" font-family="Helvetica,sans-Serif" font-size="10.00">Om::Translator</text>
</a>
</g>
</g>
<!-- Node2&#45;&gt;Node1 -->
<g id="edge1" class="edge"><title>Node2&#45;&gt;Node1</title>
<path fill="none" stroke="midnightblue" d="M54.9701,-142.627C52.8079,-131.398 50.3222,-116.961 49,-104 45.9184,-73.7934 45.7585,-37.7472 45.8809,-21.1687"/>
<polygon fill="midnightblue" stroke="midnightblue" points="51.5742,-143.494 56.9695,-152.612 58.4379,-142.119 51.5742,-143.494"/>
</g>
<!-- Node3 -->
<g id="node3" class="node"><title>Node3</title>
<polygon fill="none" stroke="#bfbfbf" points="58.3906,-71 58.3906,-103 173.609,-103 173.609,-71 58.3906,-71"/>
<text text-anchor="start" x="66.3906" y="-89" font-family="Helvetica,sans-Serif" font-size="10.00">std::vector&lt; Translator</text>
<text text-anchor="middle" x="116" y="-77" font-family="Helvetica,sans-Serif" font-size="10.00"> const * &gt;</text>
</g>
<!-- Node2&#45;&gt;Node3 -->
<g id="edge3" class="edge"><title>Node2&#45;&gt;Node3</title>
<path fill="none" stroke="#9a32cd" stroke-dasharray="5,2" d="M72.101,-144.992C81.8506,-132.334 95.0362,-115.216 104.405,-103.053"/>
<polygon fill="#9a32cd" stroke="#9a32cd" points="69.3188,-142.868 65.9893,-152.926 74.8644,-147.14 69.3188,-142.868"/>
<text text-anchor="middle" x="110.677" y="-124" font-family="Helvetica,sans-Serif" font-size="10.00"> elements</text>
</g>
<!-- Node3&#45;&gt;Node1 -->
<g id="edge2" class="edge"><title>Node3&#45;&gt;Node1</title>
<path fill="none" stroke="#9a32cd" stroke-dasharray="5,2" d="M94.4482,-63.2166C81.0801,-49.0846 64.6251,-31.6894 54.7417,-21.2412"/>
<polygon fill="#9a32cd" stroke="#9a32cd" points="92.0813,-65.8077 101.496,-70.6672 97.1666,-60.9972 92.0813,-65.8077"/>
<text text-anchor="middle" x="128.671" y="-42" font-family="Helvetica,sans-Serif" font-size="10.00"> thisTranslatorVector</text>
</g>
</g>
</svg>
