<?xml version="1.0" encoding="UTF-8" standalone="no"?>
<!DOCTYPE svg PUBLIC "-//W3C//DTD SVG 1.1//EN"
 "http://www.w3.org/Graphics/SVG/1.1/DTD/svg11.dtd">
<!-- Generated by graphviz version 2.34.0 (20130907.0228)
 -->
<!-- Title: Om::Expression Pages: 1 -->
<svg width="927pt" height="1076pt"
 viewBox="0.00 0.00 927.00 1076.00" xmlns="http://www.w3.org/2000/svg" xmlns:xlink="http://www.w3.org/1999/xlink">
<g id="graph0" class="graph" transform="scale(1 1) rotate(0) translate(4 1072)">
<title>Om::Expression</title>
<!-- Node1 -->
<g id="node1" class="node"><title>Node1</title>
<polygon fill="#bfbfbf" stroke="black" points="266.434,-1 266.434,-21 353.566,-21 353.566,-1 266.434,-1"/>
<text text-anchor="middle" x="310" y="-7" font-family="Helvetica,sans-Serif" font-size="10.00">Om::Expression</text>
</g>
<!-- Node2 -->
<g id="node2" class="node"><title>Node2</title>
<g id="a_node2"><a xlink:href="class_om_1_1_default_program.html" target="_top" xlink:title="Om::DefaultProgram\l\&lt; Expression \&gt;">
<polygon fill="none" stroke="black" points="183.153,-423 183.153,-455 290.847,-455 290.847,-423 183.153,-423"/>
<text text-anchor="start" x="191.153" y="-441" font-family="Helvetica,sans-Serif" font-size="10.00">Om::DefaultProgram</text>
<text text-anchor="middle" x="237" y="-429" font-family="Helvetica,sans-Serif" font-size="10.00">&lt; Expression &gt;</text>
</a>
</g>
</g>
<!-- Node2&#45;&gt;Node1 -->
<g id="edge1" class="edge"><title>Node2&#45;&gt;Node1</title>
<path fill="none" stroke="midnightblue" d="M256.651,-414.542C265.502,-401.642 274,-384.865 274,-368 274,-368 274,-368 274,-80 274,-56.7572 290.631,-33.6958 301.285,-21.3068"/>
<polygon fill="midnightblue" stroke="midnightblue" points="253.677,-412.679 250.567,-422.808 259.314,-416.829 253.677,-412.679"/>
</g>
<!-- Node3 -->
<g id="node3" class="node"><title>Node3</title>
<g id="a_node3"><a xlink:href="class_om_1_1_default_consumer.html" target="_top" xlink:title="Om::DefaultConsumer\l\&lt; Expression, DefaultGiveable\l\&lt; Expression, ThisInterface \&gt; \&gt;">
<polygon fill="none" stroke="black" points="-0.25293,-495 -0.25293,-539 154.253,-539 154.253,-495 -0.25293,-495"/>
<text text-anchor="start" x="7.74707" y="-525" font-family="Helvetica,sans-Serif" font-size="10.00">Om::DefaultConsumer</text>
<text text-anchor="start" x="7.74707" y="-513" font-family="Helvetica,sans-Serif" font-size="10.00">&lt; Expression, DefaultGiveable</text>
<text text-anchor="middle" x="77" y="-501" font-family="Helvetica,sans-Serif" font-size="10.00">&lt; Expression, ThisInterface &gt; &gt;</text>
</a>
</g>
</g>
<!-- Node3&#45;&gt;Node2 -->
<g id="edge2" class="edge"><title>Node3&#45;&gt;Node2</title>
<path fill="none" stroke="midnightblue" d="M130.849,-490.422C155.601,-478.664 184.106,-465.124 205.341,-455.038"/>
<polygon fill="midnightblue" stroke="midnightblue" points="129.1,-487.378 121.569,-494.83 132.103,-493.701 129.1,-487.378"/>
</g>
<!-- Node4 -->
<g id="node4" class="node"><title>Node4</title>
<g id="a_node4"><a xlink:href="class_om_1_1_default_giveable.html" target="_top" xlink:title="Om::DefaultGiveable\l\&lt; Expression, ThisInterface \&gt;">
<polygon fill="none" stroke="black" points="78.0562,-579 78.0562,-611 223.944,-611 223.944,-579 78.0562,-579"/>
<text text-anchor="start" x="86.0562" y="-597" font-family="Helvetica,sans-Serif" font-size="10.00">Om::DefaultGiveable</text>
<text text-anchor="middle" x="151" y="-585" font-family="Helvetica,sans-Serif" font-size="10.00">&lt; Expression, ThisInterface &gt;</text>
</a>
</g>
</g>
<!-- Node4&#45;&gt;Node3 -->
<g id="edge3" class="edge"><title>Node4&#45;&gt;Node3</title>
<path fill="none" stroke="midnightblue" d="M129.131,-571.54C119.115,-561.253 107.312,-549.131 97.4719,-539.025"/>
<polygon fill="midnightblue" stroke="midnightblue" points="126.896,-574.262 136.38,-578.985 131.911,-569.378 126.896,-574.262"/>
</g>
<!-- Node5 -->
<g id="node5" class="node"><title>Node5</title>
<g id="a_node5"><a xlink:href="class_om_1_1_default_moveable.html" target="_top" xlink:title="Om::DefaultMoveable\l\&lt; Expression, DefaultCopyable\l\&lt; Expression, ThisInterface \&gt; \&gt;">
<polygon fill="none" stroke="black" points="79.7471,-651 79.7471,-695 234.253,-695 234.253,-651 79.7471,-651"/>
<text text-anchor="start" x="87.7471" y="-681" font-family="Helvetica,sans-Serif" font-size="10.00">Om::DefaultMoveable</text>
<text text-anchor="start" x="87.7471" y="-669" font-family="Helvetica,sans-Serif" font-size="10.00">&lt; Expression, DefaultCopyable</text>
<text text-anchor="middle" x="157" y="-657" font-family="Helvetica,sans-Serif" font-size="10.00">&lt; Expression, ThisInterface &gt; &gt;</text>
</a>
</g>
</g>
<!-- Node5&#45;&gt;Node4 -->
<g id="edge4" class="edge"><title>Node5&#45;&gt;Node4</title>
<path fill="none" stroke="midnightblue" d="M154.517,-640.553C153.711,-630.342 152.854,-619.48 152.187,-611.038"/>
<polygon fill="midnightblue" stroke="midnightblue" points="151.052,-641.136 155.329,-650.83 158.031,-640.585 151.052,-641.136"/>
</g>
<!-- Node6 -->
<g id="node6" class="node"><title>Node6</title>
<g id="a_node6"><a xlink:href="class_om_1_1_default_copyable.html" target="_top" xlink:title="Om::DefaultCopyable\l\&lt; Expression, ThisInterface \&gt;">
<polygon fill="none" stroke="black" points="86.0562,-735 86.0562,-767 231.944,-767 231.944,-735 86.0562,-735"/>
<text text-anchor="start" x="94.0562" y="-753" font-family="Helvetica,sans-Serif" font-size="10.00">Om::DefaultCopyable</text>
<text text-anchor="middle" x="159" y="-741" font-family="Helvetica,sans-Serif" font-size="10.00">&lt; Expression, ThisInterface &gt;</text>
</a>
</g>
</g>
<!-- Node6&#45;&gt;Node5 -->
<g id="edge5" class="edge"><title>Node6&#45;&gt;Node5</title>
<path fill="none" stroke="midnightblue" d="M158.336,-724.777C158.082,-715.13 157.796,-704.24 157.553,-695.025"/>
<polygon fill="midnightblue" stroke="midnightblue" points="154.843,-725.08 158.605,-734.985 161.84,-724.896 154.843,-725.08"/>
</g>
<!-- Node7 -->
<g id="node7" class="node"><title>Node7</title>
<polygon fill="none" stroke="#bfbfbf" points="186.099,-807 186.099,-827 259.901,-827 259.901,-807 186.099,-807"/>
<text text-anchor="middle" x="223" y="-813" font-family="Helvetica,sans-Serif" font-size="10.00">ThisInterface</text>
</g>
<!-- Node7&#45;&gt;Node6 -->
<g id="edge6" class="edge"><title>Node7&#45;&gt;Node6</title>
<path fill="none" stroke="midnightblue" d="M206.485,-799.485C196.481,-789.481 183.817,-776.817 174.084,-767.084"/>
<polygon fill="midnightblue" stroke="midnightblue" points="204.284,-802.234 213.83,-806.83 209.234,-797.284 204.284,-802.234"/>
</g>
<!-- Node38 -->
<g id="node38" class="node"><title>Node38</title>
<g id="a_node38"><a xlink:href="class_om_1_1_default_copyable.html" target="_top" xlink:title="Om::DefaultCopyable\l\&lt; Operand, ThisInterface \&gt;">
<polygon fill="none" stroke="black" points="251.332,-735 251.332,-767 386.668,-767 386.668,-735 251.332,-735"/>
<text text-anchor="start" x="259.332" y="-753" font-family="Helvetica,sans-Serif" font-size="10.00">Om::DefaultCopyable</text>
<text text-anchor="middle" x="319" y="-741" font-family="Helvetica,sans-Serif" font-size="10.00">&lt; Operand, ThisInterface &gt;</text>
</a>
</g>
</g>
<!-- Node7&#45;&gt;Node38 -->
<g id="edge38" class="edge"><title>Node7&#45;&gt;Node38</title>
<path fill="none" stroke="midnightblue" d="M245.143,-801.238C260.506,-790.996 280.907,-777.395 296.375,-767.084"/>
<polygon fill="midnightblue" stroke="midnightblue" points="243.134,-798.371 236.754,-806.83 247.016,-804.195 243.134,-798.371"/>
</g>
<!-- Node8 -->
<g id="node8" class="node"><title>Node8</title>
<g id="a_node8"><a xlink:href="class_om_1_1_taker.html" target="_top" xlink:title="Om::Taker\&lt; Expression \&gt;">
<polygon fill="none" stroke="black" points="172.589,-507 172.589,-527 301.411,-527 301.411,-507 172.589,-507"/>
<text text-anchor="middle" x="237" y="-513" font-family="Helvetica,sans-Serif" font-size="10.00">Om::Taker&lt; Expression &gt;</text>
</a>
</g>
</g>
<!-- Node8&#45;&gt;Node2 -->
<g id="edge7" class="edge"><title>Node8&#45;&gt;Node2</title>
<path fill="none" stroke="midnightblue" d="M237,-496.824C237,-483.867 237,-467.004 237,-455.022"/>
<polygon fill="midnightblue" stroke="midnightblue" points="233.5,-496.983 237,-506.983 240.5,-496.983 233.5,-496.983"/>
</g>
<!-- Node9 -->
<g id="node9" class="node"><title>Node9</title>
<polygon fill="none" stroke="#bfbfbf" points="334.365,-71 334.365,-91 437.635,-91 437.635,-71 334.365,-71"/>
<text text-anchor="middle" x="386" y="-77" font-family="Helvetica,sans-Serif" font-size="10.00">std::deque&lt; Form &gt;</text>
</g>
<!-- Node9&#45;&gt;Node1 -->
<g id="edge8" class="edge"><title>Node9&#45;&gt;Node1</title>
<path fill="none" stroke="#9a32cd" stroke-dasharray="5,2" d="M368.126,-64.0078C353.153,-50.6104 332.319,-31.9694 320.087,-21.0255"/>
<polygon fill="#9a32cd" stroke="#9a32cd" points="365.964,-66.7696 375.75,-70.8292 370.632,-61.5529 365.964,-66.7696"/>
<text text-anchor="middle" x="388.569" y="-42" font-family="Helvetica,sans-Serif" font-size="10.00"> thisFormDeque</text>
</g>
<!-- Node10 -->
<g id="node10" class="node"><title>Node10</title>
<g id="a_node10"><a xlink:href="class_om_1_1_form.html" target="_top" xlink:title="An Operator (which may be empty), followed by zero or more Operand instances. ">
<polygon fill="none" stroke="black" points="451.502,-141 451.502,-161 512.498,-161 512.498,-141 451.502,-141"/>
<text text-anchor="middle" x="482" y="-147" font-family="Helvetica,sans-Serif" font-size="10.00">Om::Form</text>
</a>
</g>
</g>
<!-- Node10&#45;&gt;Node9 -->
<g id="edge9" class="edge"><title>Node10&#45;&gt;Node9</title>
<path fill="none" stroke="#9a32cd" stroke-dasharray="5,2" d="M460.724,-134.93C441.733,-121.478 414.55,-102.223 398.742,-91.0255"/>
<polygon fill="#9a32cd" stroke="#9a32cd" points="458.87,-137.905 469.053,-140.829 462.916,-132.193 458.87,-137.905"/>
<text text-anchor="middle" x="460.677" y="-112" font-family="Helvetica,sans-Serif" font-size="10.00"> elements</text>
</g>
<!-- Node11 -->
<g id="node11" class="node"><title>Node11</title>
<g id="a_node11"><a xlink:href="class_om_1_1_operator.html" target="_top" xlink:title="The Operator implementation. ">
<polygon fill="none" stroke="black" points="576.436,-211 576.436,-231 653.564,-231 653.564,-211 576.436,-211"/>
<text text-anchor="middle" x="615" y="-217" font-family="Helvetica,sans-Serif" font-size="10.00">Om::Operator</text>
</a>
</g>
</g>
<!-- Node11&#45;&gt;Node10 -->
<g id="edge10" class="edge"><title>Node11&#45;&gt;Node10</title>
<path fill="none" stroke="#9a32cd" stroke-dasharray="5,2" d="M600.449,-203.324C592.694,-195.31 582.585,-186.137 572,-180 553.597,-169.33 530.676,-162.276 512.571,-157.917"/>
<polygon fill="#9a32cd" stroke="#9a32cd" points="597.993,-205.823 607.348,-210.796 603.136,-201.074 597.993,-205.823"/>
<text text-anchor="middle" x="615.901" y="-182" font-family="Helvetica,sans-Serif" font-size="10.00"> thisOperator</text>
</g>
<!-- Node12 -->
<g id="node12" class="node"><title>Node12</title>
<g id="a_node12"><a xlink:href="class_om_1_1_default_atom.html" target="_top" xlink:title="Om::DefaultAtom\&lt; Operator \&gt;">
<polygon fill="none" stroke="black" points="592.306,-281 592.306,-301 741.694,-301 741.694,-281 592.306,-281"/>
<text text-anchor="middle" x="667" y="-287" font-family="Helvetica,sans-Serif" font-size="10.00">Om::DefaultAtom&lt; Operator &gt;</text>
</a>
</g>
</g>
<!-- Node12&#45;&gt;Node11 -->
<g id="edge11" class="edge"><title>Node12&#45;&gt;Node11</title>
<path fill="none" stroke="midnightblue" d="M653.908,-272.88C643.738,-259.581 630.038,-241.665 621.902,-231.025"/>
<polygon fill="midnightblue" stroke="midnightblue" points="651.132,-275.012 659.987,-280.829 656.693,-270.76 651.132,-275.012"/>
</g>
<!-- Node13 -->
<g id="node13" class="node"><title>Node13</title>
<g id="a_node13"><a xlink:href="class_om_1_1_default_element.html" target="_top" xlink:title="Om::DefaultElement\l\&lt; Operator, Atom \&gt;">
<polygon fill="none" stroke="black" points="718.983,-351 718.983,-383 825.017,-383 825.017,-351 718.983,-351"/>
<text text-anchor="start" x="726.983" y="-369" font-family="Helvetica,sans-Serif" font-size="10.00">Om::DefaultElement</text>
<text text-anchor="middle" x="772" y="-357" font-family="Helvetica,sans-Serif" font-size="10.00">&lt; Operator, Atom &gt;</text>
</a>
</g>
</g>
<!-- Node13&#45;&gt;Node12 -->
<g id="edge12" class="edge"><title>Node13&#45;&gt;Node12</title>
<path fill="none" stroke="midnightblue" d="M746.848,-344.342C737.145,-336.354 725.797,-327.443 715,-320 705.151,-313.21 693.581,-306.429 684.269,-301.241"/>
<polygon fill="midnightblue" stroke="midnightblue" points="744.643,-347.061 754.563,-350.783 749.129,-341.688 744.643,-347.061"/>
</g>
<!-- Node14 -->
<g id="node14" class="node"><title>Node14</title>
<g id="a_node14"><a xlink:href="class_om_1_1_default_program.html" target="_top" xlink:title="Om::DefaultProgram\l\&lt; Operator, Atom \&gt;">
<polygon fill="none" stroke="black" points="732.153,-423 732.153,-455 839.847,-455 839.847,-423 732.153,-423"/>
<text text-anchor="start" x="740.153" y="-441" font-family="Helvetica,sans-Serif" font-size="10.00">Om::DefaultProgram</text>
<text text-anchor="middle" x="786" y="-429" font-family="Helvetica,sans-Serif" font-size="10.00">&lt; Operator, Atom &gt;</text>
</a>
</g>
</g>
<!-- Node14&#45;&gt;Node13 -->
<g id="edge13" class="edge"><title>Node14&#45;&gt;Node13</title>
<path fill="none" stroke="midnightblue" d="M781,-412.998C779.005,-403.024 776.774,-391.868 775.032,-383.159"/>
<polygon fill="midnightblue" stroke="midnightblue" points="777.569,-413.692 782.962,-422.811 784.433,-412.319 777.569,-413.692"/>
</g>
<!-- Node15 -->
<g id="node15" class="node"><title>Node15</title>
<g id="a_node15"><a xlink:href="class_om_1_1_default_consumer.html" target="_top" xlink:title="Om::DefaultConsumer\l\&lt; Operator, DefaultGiveable\l\&lt; Operator, Atom \&gt; \&gt;">
<polygon fill="none" stroke="black" points="641.878,-495 641.878,-539 782.122,-539 782.122,-495 641.878,-495"/>
<text text-anchor="start" x="649.878" y="-525" font-family="Helvetica,sans-Serif" font-size="10.00">Om::DefaultConsumer</text>
<text text-anchor="start" x="649.878" y="-513" font-family="Helvetica,sans-Serif" font-size="10.00">&lt; Operator, DefaultGiveable</text>
<text text-anchor="middle" x="712" y="-501" font-family="Helvetica,sans-Serif" font-size="10.00">&lt; Operator, Atom &gt; &gt;</text>
</a>
</g>
</g>
<!-- Node15&#45;&gt;Node14 -->
<g id="edge14" class="edge"><title>Node15&#45;&gt;Node14</title>
<path fill="none" stroke="midnightblue" d="M739.813,-487.435C750.536,-476.422 762.359,-464.28 771.358,-455.038"/>
<polygon fill="midnightblue" stroke="midnightblue" points="737.082,-485.223 732.613,-494.83 742.097,-490.107 737.082,-485.223"/>
</g>
<!-- Node16 -->
<g id="node16" class="node"><title>Node16</title>
<g id="a_node16"><a xlink:href="class_om_1_1_default_giveable.html" target="_top" xlink:title="Om::DefaultGiveable\l\&lt; Operator, Atom \&gt;">
<polygon fill="none" stroke="black" points="657.591,-579 657.591,-611 766.409,-611 766.409,-579 657.591,-579"/>
<text text-anchor="start" x="665.591" y="-597" font-family="Helvetica,sans-Serif" font-size="10.00">Om::DefaultGiveable</text>
<text text-anchor="middle" x="712" y="-585" font-family="Helvetica,sans-Serif" font-size="10.00">&lt; Operator, Atom &gt;</text>
</a>
</g>
</g>
<!-- Node16&#45;&gt;Node15 -->
<g id="edge15" class="edge"><title>Node16&#45;&gt;Node15</title>
<path fill="none" stroke="midnightblue" d="M712,-568.777C712,-559.13 712,-548.24 712,-539.025"/>
<polygon fill="midnightblue" stroke="midnightblue" points="708.5,-568.985 712,-578.985 715.5,-568.985 708.5,-568.985"/>
</g>
<!-- Node17 -->
<g id="node17" class="node"><title>Node17</title>
<g id="a_node17"><a xlink:href="class_om_1_1_default_moveable.html" target="_top" xlink:title="Om::DefaultMoveable\l\&lt; Operator, DefaultCopyable\l\&lt; Operator, Atom \&gt; \&gt;">
<polygon fill="none" stroke="black" points="640.487,-651 640.487,-695 783.513,-695 783.513,-651 640.487,-651"/>
<text text-anchor="start" x="648.487" y="-681" font-family="Helvetica,sans-Serif" font-size="10.00">Om::DefaultMoveable</text>
<text text-anchor="start" x="648.487" y="-669" font-family="Helvetica,sans-Serif" font-size="10.00">&lt; Operator, DefaultCopyable</text>
<text text-anchor="middle" x="712" y="-657" font-family="Helvetica,sans-Serif" font-size="10.00">&lt; Operator, Atom &gt; &gt;</text>
</a>
</g>
</g>
<!-- Node17&#45;&gt;Node16 -->
<g id="edge16" class="edge"><title>Node17&#45;&gt;Node16</title>
<path fill="none" stroke="midnightblue" d="M712,-640.553C712,-630.342 712,-619.48 712,-611.038"/>
<polygon fill="midnightblue" stroke="midnightblue" points="708.5,-640.83 712,-650.83 715.5,-640.83 708.5,-640.83"/>
</g>
<!-- Node18 -->
<g id="node18" class="node"><title>Node18</title>
<g id="a_node18"><a xlink:href="class_om_1_1_default_copyable.html" target="_top" xlink:title="Om::DefaultCopyable\l\&lt; Operator, Atom \&gt;">
<polygon fill="none" stroke="black" points="656.2,-735 656.2,-767 767.8,-767 767.8,-735 656.2,-735"/>
<text text-anchor="start" x="664.2" y="-753" font-family="Helvetica,sans-Serif" font-size="10.00">Om::DefaultCopyable</text>
<text text-anchor="middle" x="712" y="-741" font-family="Helvetica,sans-Serif" font-size="10.00">&lt; Operator, Atom &gt;</text>
</a>
</g>
</g>
<!-- Node18&#45;&gt;Node17 -->
<g id="edge17" class="edge"><title>Node18&#45;&gt;Node17</title>
<path fill="none" stroke="midnightblue" d="M712,-724.777C712,-715.13 712,-704.24 712,-695.025"/>
<polygon fill="midnightblue" stroke="midnightblue" points="708.5,-724.985 712,-734.985 715.5,-724.985 708.5,-724.985"/>
</g>
<!-- Node19 -->
<g id="node19" class="node"><title>Node19</title>
<g id="a_node19"><a xlink:href="class_om_1_1_atom.html" target="_top" xlink:title="An atomic Element defined by a string. ">
<polygon fill="none" stroke="black" points="681.498,-807 681.498,-827 742.502,-827 742.502,-807 681.498,-807"/>
<text text-anchor="middle" x="712" y="-813" font-family="Helvetica,sans-Serif" font-size="10.00">Om::Atom</text>
</a>
</g>
</g>
<!-- Node19&#45;&gt;Node18 -->
<g id="edge18" class="edge"><title>Node19&#45;&gt;Node18</title>
<path fill="none" stroke="midnightblue" d="M712,-796.751C712,-787.247 712,-775.95 712,-767.084"/>
<polygon fill="midnightblue" stroke="midnightblue" points="708.5,-796.83 712,-806.83 715.5,-796.83 708.5,-796.83"/>
</g>
<!-- Node20 -->
<g id="node20" class="node"><title>Node20</title>
<g id="a_node20"><a xlink:href="class_om_1_1_element.html" target="_top" xlink:title="A Program that contains a single elemental item (or none, when IsEmpty() returns true). ">
<polygon fill="none" stroke="black" points="674.825,-867 674.825,-887 749.175,-887 749.175,-867 674.825,-867"/>
<text text-anchor="middle" x="712" y="-873" font-family="Helvetica,sans-Serif" font-size="10.00">Om::Element</text>
</a>
</g>
</g>
<!-- Node20&#45;&gt;Node19 -->
<g id="edge19" class="edge"><title>Node20&#45;&gt;Node19</title>
<path fill="none" stroke="midnightblue" d="M712,-856.731C712,-846.781 712,-835.102 712,-827.19"/>
<polygon fill="midnightblue" stroke="midnightblue" points="708.5,-856.937 712,-866.938 715.5,-856.938 708.5,-856.937"/>
</g>
<!-- Node21 -->
<g id="node21" class="node"><title>Node21</title>
<g id="a_node21"><a xlink:href="class_om_1_1_program.html" target="_top" xlink:title="The Program implementation. ">
<polygon fill="none" stroke="black" points="673.995,-927 673.995,-947 750.005,-947 750.005,-927 673.995,-927"/>
<text text-anchor="middle" x="712" y="-933" font-family="Helvetica,sans-Serif" font-size="10.00">Om::Program</text>
</a>
</g>
</g>
<!-- Node21&#45;&gt;Node20 -->
<g id="edge20" class="edge"><title>Node21&#45;&gt;Node20</title>
<path fill="none" stroke="midnightblue" d="M712,-916.731C712,-906.781 712,-895.102 712,-887.19"/>
<polygon fill="midnightblue" stroke="midnightblue" points="708.5,-916.937 712,-926.938 715.5,-916.938 708.5,-916.937"/>
</g>
<!-- Node22 -->
<g id="node22" class="node"><title>Node22</title>
<g id="a_node22"><a xlink:href="class_om_1_1_consumer.html" target="_top" xlink:title="An Element taker; takes at the back. ">
<polygon fill="none" stroke="black" points="507.104,-987 507.104,-1007 590.896,-1007 590.896,-987 507.104,-987"/>
<text text-anchor="middle" x="549" y="-993" font-family="Helvetica,sans-Serif" font-size="10.00">Om::Consumer</text>
</a>
</g>
</g>
<!-- Node22&#45;&gt;Node21 -->
<g id="edge21" class="edge"><title>Node22&#45;&gt;Node21</title>
<path fill="none" stroke="midnightblue" d="M583.958,-983.561C614.743,-972.607 658.855,-956.911 686.442,-947.094"/>
<polygon fill="midnightblue" stroke="midnightblue" points="582.717,-980.288 574.469,-986.938 585.063,-986.883 582.717,-980.288"/>
</g>
<!-- Node23 -->
<g id="node23" class="node"><title>Node23</title>
<g id="a_node23"><a xlink:href="class_om_1_1_giveable.html" target="_top" xlink:title="An object that can be copied or moved via Give. ">
<polygon fill="none" stroke="black" points="608.434,-987 608.434,-1007 685.566,-1007 685.566,-987 608.434,-987"/>
<text text-anchor="middle" x="647" y="-993" font-family="Helvetica,sans-Serif" font-size="10.00">Om::Giveable</text>
</a>
</g>
</g>
<!-- Node23&#45;&gt;Node21 -->
<g id="edge22" class="edge"><title>Node23&#45;&gt;Node21</title>
<path fill="none" stroke="midnightblue" d="M664.729,-980.18C676.591,-969.596 691.786,-956.037 701.701,-947.19"/>
<polygon fill="midnightblue" stroke="midnightblue" points="662.287,-977.668 657.156,-986.938 666.948,-982.891 662.287,-977.668"/>
</g>
<!-- Node24 -->
<g id="node24" class="node"><title>Node24</title>
<g id="a_node24"><a xlink:href="class_om_1_1_copyable.html" target="_top" xlink:title="An object that can be passed to Copy to be copied. ">
<polygon fill="none" stroke="black" points="558.042,-1047 558.042,-1067 637.958,-1067 637.958,-1047 558.042,-1047"/>
<text text-anchor="middle" x="598" y="-1053" font-family="Helvetica,sans-Serif" font-size="10.00">Om::Copyable</text>
</a>
</g>
</g>
<!-- Node24&#45;&gt;Node23 -->
<g id="edge23" class="edge"><title>Node24&#45;&gt;Node23</title>
<path fill="none" stroke="midnightblue" d="M612.145,-1039.26C620.964,-1028.82 631.977,-1015.78 639.236,-1007.19"/>
<polygon fill="midnightblue" stroke="midnightblue" points="609.436,-1037.04 605.656,-1046.94 614.783,-1041.56 609.436,-1037.04"/>
</g>
<!-- Node25 -->
<g id="node25" class="node"><title>Node25</title>
<g id="a_node25"><a xlink:href="class_om_1_1_moveable.html" target="_top" xlink:title="An object that can be passed to Move to be moved. ">
<polygon fill="none" stroke="black" points="655.488,-1047 655.488,-1067 736.512,-1067 736.512,-1047 655.488,-1047"/>
<text text-anchor="middle" x="696" y="-1053" font-family="Helvetica,sans-Serif" font-size="10.00">Om::Moveable</text>
</a>
</g>
</g>
<!-- Node25&#45;&gt;Node23 -->
<g id="edge24" class="edge"><title>Node25&#45;&gt;Node23</title>
<path fill="none" stroke="midnightblue" d="M681.855,-1039.26C673.036,-1028.82 662.023,-1015.78 654.764,-1007.19"/>
<polygon fill="midnightblue" stroke="midnightblue" points="679.217,-1041.56 688.344,-1046.94 684.564,-1037.04 679.217,-1041.56"/>
</g>
<!-- Node26 -->
<g id="node26" class="node"><title>Node26</title>
<g id="a_node26"><a xlink:href="class_om_1_1_producer.html" target="_top" xlink:title="An Element giver; gives from the front. ">
<polygon fill="none" stroke="black" points="703.879,-987 703.879,-1007 782.121,-1007 782.121,-987 703.879,-987"/>
<text text-anchor="middle" x="743" y="-993" font-family="Helvetica,sans-Serif" font-size="10.00">Om::Producer</text>
</a>
</g>
</g>
<!-- Node26&#45;&gt;Node21 -->
<g id="edge25" class="edge"><title>Node26&#45;&gt;Node21</title>
<path fill="none" stroke="midnightblue" d="M733.382,-978.005C727.923,-967.792 721.322,-955.442 716.912,-947.19"/>
<polygon fill="midnightblue" stroke="midnightblue" points="730.356,-979.768 738.156,-986.938 736.529,-976.468 730.356,-979.768"/>
</g>
<!-- Node27 -->
<g id="node27" class="node"><title>Node27</title>
<g id="a_node27"><a xlink:href="class_om_1_1_shareable.html" target="_top" xlink:title="Om::Shareable\&lt;\&gt;">
<polygon fill="none" stroke="black" points="800.532,-987 800.532,-1007 895.468,-1007 895.468,-987 800.532,-987"/>
<text text-anchor="middle" x="848" y="-993" font-family="Helvetica,sans-Serif" font-size="10.00">Om::Shareable&lt;&gt;</text>
</a>
</g>
</g>
<!-- Node27&#45;&gt;Node21 -->
<g id="edge26" class="edge"><title>Node27&#45;&gt;Node21</title>
<path fill="none" stroke="midnightblue" d="M817.517,-983C791.988,-972.113 756.189,-956.846 733.55,-947.19"/>
<polygon fill="midnightblue" stroke="midnightblue" points="816.179,-986.234 826.75,-986.938 818.925,-979.795 816.179,-986.234"/>
</g>
<!-- Node28 -->
<g id="node28" class="node"><title>Node28</title>
<g id="a_node28"><a xlink:href="class_om_1_1_taker.html" target="_top" xlink:title="Om::Taker\&lt; Operator \&gt;">
<polygon fill="none" stroke="black" points="800.591,-507 800.591,-527 919.409,-527 919.409,-507 800.591,-507"/>
<text text-anchor="middle" x="860" y="-513" font-family="Helvetica,sans-Serif" font-size="10.00">Om::Taker&lt; Operator &gt;</text>
</a>
</g>
</g>
<!-- Node28&#45;&gt;Node14 -->
<g id="edge27" class="edge"><title>Node28&#45;&gt;Node14</title>
<path fill="none" stroke="midnightblue" d="M843.944,-499.51C831.058,-486.276 813.119,-467.852 800.627,-455.022"/>
<polygon fill="midnightblue" stroke="midnightblue" points="841.737,-502.26 851.221,-506.983 846.752,-497.377 841.737,-502.26"/>
</g>
<!-- Node29 -->
<g id="node29" class="node"><title>Node29</title>
<g id="a_node29"><a xlink:title="STL class. ">
<polygon fill="none" stroke="#bfbfbf" points="637.325,-357 637.325,-377 696.675,-377 696.675,-357 637.325,-357"/>
<text text-anchor="middle" x="667" y="-363" font-family="Helvetica,sans-Serif" font-size="10.00">std::string</text>
</a>
</g>
</g>
<!-- Node29&#45;&gt;Node12 -->
<g id="edge28" class="edge"><title>Node29&#45;&gt;Node12</title>
<path fill="none" stroke="#9a32cd" stroke-dasharray="5,2" d="M667,-346.866C667,-332.161 667,-312.502 667,-301.148"/>
<polygon fill="#9a32cd" stroke="#9a32cd" points="663.5,-346.926 667,-356.926 670.5,-346.926 663.5,-346.926"/>
<text text-anchor="middle" x="689.231" y="-322" font-family="Helvetica,sans-Serif" font-size="10.00"> thisString</text>
</g>
<!-- Node30 -->
<g id="node30" class="node"><title>Node30</title>
<g id="a_node30"><a xlink:title="STL class. ">
<polygon fill="none" stroke="#bfbfbf" points="619.952,-423 619.952,-455 714.048,-455 714.048,-423 619.952,-423"/>
<text text-anchor="start" x="627.952" y="-441" font-family="Helvetica,sans-Serif" font-size="10.00">std::basic_string&lt;</text>
<text text-anchor="middle" x="667" y="-429" font-family="Helvetica,sans-Serif" font-size="10.00"> char &gt;</text>
</a>
</g>
</g>
<!-- Node30&#45;&gt;Node29 -->
<g id="edge29" class="edge"><title>Node30&#45;&gt;Node29</title>
<path fill="none" stroke="midnightblue" d="M667,-412.63C667,-400.351 667,-386.357 667,-377.363"/>
<polygon fill="midnightblue" stroke="midnightblue" points="663.5,-412.811 667,-422.811 670.5,-412.811 663.5,-412.811"/>
</g>
<!-- Node31 -->
<g id="node31" class="node"><title>Node31</title>
<polygon fill="none" stroke="#bfbfbf" points="422.572,-211 422.572,-231 541.428,-231 541.428,-211 422.572,-211"/>
<text text-anchor="middle" x="482" y="-217" font-family="Helvetica,sans-Serif" font-size="10.00">std::deque&lt; Operand &gt;</text>
</g>
<!-- Node31&#45;&gt;Node10 -->
<g id="edge30" class="edge"><title>Node31&#45;&gt;Node10</title>
<path fill="none" stroke="#9a32cd" stroke-dasharray="5,2" d="M482,-200.557C482,-187.557 482,-171.057 482,-161.025"/>
<polygon fill="#9a32cd" stroke="#9a32cd" points="478.5,-200.829 482,-210.829 485.5,-200.829 478.5,-200.829"/>
<text text-anchor="middle" x="525.362" y="-182" font-family="Helvetica,sans-Serif" font-size="10.00"> thisOperandDeque</text>
</g>
<!-- Node32 -->
<g id="node32" class="node"><title>Node32</title>
<g id="a_node32"><a xlink:href="class_om_1_1_operand.html" target="_top" xlink:title="The Operand implementation. ">
<polygon fill="none" stroke="black" points="443.709,-281 443.709,-301 520.291,-301 520.291,-281 443.709,-281"/>
<text text-anchor="middle" x="482" y="-287" font-family="Helvetica,sans-Serif" font-size="10.00">Om::Operand</text>
</a>
</g>
</g>
<!-- Node32&#45;&gt;Node31 -->
<g id="edge31" class="edge"><title>Node32&#45;&gt;Node31</title>
<path fill="none" stroke="#9a32cd" stroke-dasharray="5,2" d="M482,-270.557C482,-257.557 482,-241.057 482,-231.025"/>
<polygon fill="#9a32cd" stroke="#9a32cd" points="478.5,-270.829 482,-280.829 485.5,-270.829 478.5,-270.829"/>
<text text-anchor="middle" x="503.677" y="-252" font-family="Helvetica,sans-Serif" font-size="10.00"> elements</text>
</g>
<!-- Node33 -->
<g id="node33" class="node"><title>Node33</title>
<g id="a_node33"><a xlink:href="class_om_1_1_default_element.html" target="_top" xlink:title="Om::DefaultElement\l\&lt; Operand \&gt;">
<polygon fill="none" stroke="black" points="339.983,-351 339.983,-383 446.017,-383 446.017,-351 339.983,-351"/>
<text text-anchor="start" x="347.983" y="-369" font-family="Helvetica,sans-Serif" font-size="10.00">Om::DefaultElement</text>
<text text-anchor="middle" x="393" y="-357" font-family="Helvetica,sans-Serif" font-size="10.00">&lt; Operand &gt;</text>
</a>
</g>
</g>
<!-- Node33&#45;&gt;Node32 -->
<g id="edge32" class="edge"><title>Node33&#45;&gt;Node32</title>
<path fill="none" stroke="midnightblue" d="M419.461,-343.998C436.62,-329.731 458.087,-311.883 470.886,-301.241"/>
<polygon fill="midnightblue" stroke="midnightblue" points="416.892,-341.583 411.441,-350.667 421.368,-346.965 416.892,-341.583"/>
</g>
<!-- Node34 -->
<g id="node34" class="node"><title>Node34</title>
<g id="a_node34"><a xlink:href="class_om_1_1_default_program.html" target="_top" xlink:title="Om::DefaultProgram\l\&lt; Operand, ThisInterface \&gt;">
<polygon fill="none" stroke="black" points="323.332,-423 323.332,-455 458.668,-455 458.668,-423 323.332,-423"/>
<text text-anchor="start" x="331.332" y="-441" font-family="Helvetica,sans-Serif" font-size="10.00">Om::DefaultProgram</text>
<text text-anchor="middle" x="391" y="-429" font-family="Helvetica,sans-Serif" font-size="10.00">&lt; Operand, ThisInterface &gt;</text>
</a>
</g>
</g>
<!-- Node34&#45;&gt;Node33 -->
<g id="edge33" class="edge"><title>Node34&#45;&gt;Node33</title>
<path fill="none" stroke="midnightblue" d="M391.723,-412.682C392.006,-402.789 392.321,-391.776 392.567,-383.159"/>
<polygon fill="midnightblue" stroke="midnightblue" points="388.221,-412.715 391.434,-422.811 395.218,-412.915 388.221,-412.715"/>
</g>
<!-- Node35 -->
<g id="node35" class="node"><title>Node35</title>
<g id="a_node35"><a xlink:href="class_om_1_1_default_consumer.html" target="_top" xlink:title="Om::DefaultConsumer\l\&lt; Operand, DefaultGiveable\l\&lt; Operand, ThisInterface \&gt; \&gt;">
<polygon fill="none" stroke="black" points="319.023,-495 319.023,-539 462.977,-539 462.977,-495 319.023,-495"/>
<text text-anchor="start" x="327.023" y="-525" font-family="Helvetica,sans-Serif" font-size="10.00">Om::DefaultConsumer</text>
<text text-anchor="start" x="327.023" y="-513" font-family="Helvetica,sans-Serif" font-size="10.00">&lt; Operand, DefaultGiveable</text>
<text text-anchor="middle" x="391" y="-501" font-family="Helvetica,sans-Serif" font-size="10.00">&lt; Operand, ThisInterface &gt; &gt;</text>
</a>
</g>
</g>
<!-- Node35&#45;&gt;Node34 -->
<g id="edge34" class="edge"><title>Node35&#45;&gt;Node34</title>
<path fill="none" stroke="midnightblue" d="M391,-484.553C391,-474.342 391,-463.48 391,-455.038"/>
<polygon fill="midnightblue" stroke="midnightblue" points="387.5,-484.83 391,-494.83 394.5,-484.83 387.5,-484.83"/>
</g>
<!-- Node36 -->
<g id="node36" class="node"><title>Node36</title>
<g id="a_node36"><a xlink:href="class_om_1_1_default_giveable.html" target="_top" xlink:title="Om::DefaultGiveable\l\&lt; Operand, ThisInterface \&gt;">
<polygon fill="none" stroke="black" points="268.332,-579 268.332,-611 403.668,-611 403.668,-579 268.332,-579"/>
<text text-anchor="start" x="276.332" y="-597" font-family="Helvetica,sans-Serif" font-size="10.00">Om::DefaultGiveable</text>
<text text-anchor="middle" x="336" y="-585" font-family="Helvetica,sans-Serif" font-size="10.00">&lt; Operand, ThisInterface &gt;</text>
</a>
</g>
</g>
<!-- Node36&#45;&gt;Node35 -->
<g id="edge35" class="edge"><title>Node36&#45;&gt;Node35</title>
<path fill="none" stroke="midnightblue" d="M352.914,-570.628C360.213,-560.542 368.686,-548.834 375.784,-539.025"/>
<polygon fill="midnightblue" stroke="midnightblue" points="349.894,-568.832 346.866,-578.985 355.564,-572.936 349.894,-568.832"/>
</g>
<!-- Node37 -->
<g id="node37" class="node"><title>Node37</title>
<g id="a_node37"><a xlink:href="class_om_1_1_default_moveable.html" target="_top" xlink:title="Om::DefaultMoveable\l\&lt; Operand, DefaultCopyable\l\&lt; Operand, ThisInterface \&gt; \&gt;">
<polygon fill="none" stroke="black" points="253.023,-651 253.023,-695 396.977,-695 396.977,-651 253.023,-651"/>
<text text-anchor="start" x="261.023" y="-681" font-family="Helvetica,sans-Serif" font-size="10.00">Om::DefaultMoveable</text>
<text text-anchor="start" x="261.023" y="-669" font-family="Helvetica,sans-Serif" font-size="10.00">&lt; Operand, DefaultCopyable</text>
<text text-anchor="middle" x="325" y="-657" font-family="Helvetica,sans-Serif" font-size="10.00">&lt; Operand, ThisInterface &gt; &gt;</text>
</a>
</g>
</g>
<!-- Node37&#45;&gt;Node36 -->
<g id="edge36" class="edge"><title>Node37&#45;&gt;Node36</title>
<path fill="none" stroke="midnightblue" d="M329.505,-640.875C330.996,-630.571 332.589,-619.569 333.823,-611.038"/>
<polygon fill="midnightblue" stroke="midnightblue" points="326.033,-640.432 328.064,-650.83 332.961,-641.434 326.033,-640.432"/>
</g>
<!-- Node38&#45;&gt;Node37 -->
<g id="edge37" class="edge"><title>Node38&#45;&gt;Node37</title>
<path fill="none" stroke="midnightblue" d="M320.991,-724.777C321.753,-715.13 322.613,-704.24 323.34,-695.025"/>
<polygon fill="midnightblue" stroke="midnightblue" points="317.483,-724.74 320.185,-734.985 324.462,-725.291 317.483,-724.74"/>
</g>
<!-- Node39 -->
<g id="node39" class="node"><title>Node39</title>
<g id="a_node39"><a xlink:href="class_om_1_1_taker.html" target="_top" xlink:title="Om::Taker\&lt; Operand \&gt;">
<polygon fill="none" stroke="black" points="480.865,-507 480.865,-527 599.135,-527 599.135,-507 480.865,-507"/>
<text text-anchor="middle" x="540" y="-513" font-family="Helvetica,sans-Serif" font-size="10.00">Om::Taker&lt; Operand &gt;</text>
</a>
</g>
</g>
<!-- Node39&#45;&gt;Node34 -->
<g id="edge39" class="edge"><title>Node39&#45;&gt;Node34</title>
<path fill="none" stroke="midnightblue" d="M513.363,-502.413C487.241,-489.089 447.502,-468.82 420.452,-455.022"/>
<polygon fill="midnightblue" stroke="midnightblue" points="511.824,-505.557 522.323,-506.983 515.005,-499.322 511.824,-505.557"/>
</g>
<!-- Node40 -->
<g id="node40" class="node"><title>Node40</title>
<g id="a_node40"><a xlink:href="class_om_1_1_owner.html" target="_top" xlink:title="Om::Owner\&lt; Om::Program \&gt;">
<polygon fill="none" stroke="black" points="464.818,-357 464.818,-377 609.182,-377 609.182,-357 464.818,-357"/>
<text text-anchor="middle" x="537" y="-363" font-family="Helvetica,sans-Serif" font-size="10.00">Om::Owner&lt; Om::Program &gt;</text>
</a>
</g>
</g>
<!-- Node40&#45;&gt;Node32 -->
<g id="edge40" class="edge"><title>Node40&#45;&gt;Node32</title>
<path fill="none" stroke="#9a32cd" stroke-dasharray="5,2" d="M524.047,-348.573C513.005,-333.716 497.569,-312.947 488.799,-301.148"/>
<polygon fill="#9a32cd" stroke="#9a32cd" points="521.482,-350.988 530.256,-356.926 527.1,-346.812 521.482,-350.988"/>
<text text-anchor="middle" x="539.342" y="-322" font-family="Helvetica,sans-Serif" font-size="10.00"> thisProgram</text>
</g>
<!-- Node41 -->
<g id="node41" class="node"><title>Node41</title>
<g id="a_node41"><a xlink:href="class_om_1_1_taker.html" target="_top" xlink:title="Om::Taker\&lt; Owner\&lt; Om\l::Program \&gt; \&gt;">
<polygon fill="none" stroke="black" points="476.542,-423 476.542,-455 601.458,-455 601.458,-423 476.542,-423"/>
<text text-anchor="start" x="484.542" y="-441" font-family="Helvetica,sans-Serif" font-size="10.00">Om::Taker&lt; Owner&lt; Om</text>
<text text-anchor="middle" x="539" y="-429" font-family="Helvetica,sans-Serif" font-size="10.00">::Program &gt; &gt;</text>
</a>
</g>
</g>
<!-- Node41&#45;&gt;Node40 -->
<g id="edge41" class="edge"><title>Node41&#45;&gt;Node40</title>
<path fill="none" stroke="midnightblue" d="M538.275,-412.63C537.924,-400.351 537.524,-386.357 537.268,-377.363"/>
<polygon fill="midnightblue" stroke="midnightblue" points="534.782,-412.915 538.566,-422.811 541.779,-412.715 534.782,-412.915"/>
</g>
</g>
</svg>
