<?xml version="1.0" encoding="UTF-8" standalone="no"?>
<!DOCTYPE svg PUBLIC "-//W3C//DTD SVG 1.1//EN"
 "http://www.w3.org/Graphics/SVG/1.1/DTD/svg11.dtd">
<!-- Generated by graphviz version 2.36.0 (20140111.2315)
 -->
<!-- Title: Om::Language::DefaultConsumer&lt; ThisImplementation, ThisInterface &gt; Pages: 1 -->
<svg width="1124pt" height="205pt"
 viewBox="0.00 0.00 1124.00 205.00" xmlns="http://www.w3.org/2000/svg" xmlns:xlink="http://www.w3.org/1999/xlink">
<g id="graph0" class="graph" transform="scale(1 1) rotate(0) translate(4 201)">
<title>Om::Language::DefaultConsumer&lt; ThisImplementation, ThisInterface &gt;</title>
<!-- Node1 -->
<g id="node1" class="node"><title>Node1</title>
<g id="a_node1"><a xlink:title="A partial implementation of Consumer.">
<polygon fill="#bfbfbf" stroke="black" points="170.248,-70 170.248,-98 353.752,-98 353.752,-70 170.248,-70"/>
<text text-anchor="start" x="178.248" y="-86" font-family="Helvetica,sans-Serif" font-size="10.00">Om::Language::DefaultConsumer</text>
<text text-anchor="middle" x="262" y="-76" font-family="Helvetica,sans-Serif" font-size="10.00">&lt; ThisImplementation, ThisInterface &gt;</text>
</a>
</g>
</g>
<!-- Node3 -->
<g id="node3" class="node"><title>Node3</title>
<g id="a_node3"><a xlink:href="class_om_1_1_language_1_1_default_program.html" target="_top" xlink:title=" ">
<polygon fill="none" stroke="black" points="390.128,-141 390.128,-179 547.872,-179 547.872,-141 390.128,-141"/>
<text text-anchor="start" x="398.128" y="-167" font-family="Helvetica,sans-Serif" font-size="10.00">Om::Language::DefaultProgram</text>
<text text-anchor="start" x="398.128" y="-157" font-family="Helvetica,sans-Serif" font-size="10.00">&lt; ThisImplementation, Om</text>
<text text-anchor="middle" x="469" y="-147" font-family="Helvetica,sans-Serif" font-size="10.00">::Language::Element &gt;</text>
</a>
</g>
</g>
<!-- Node1&#45;&gt;Node3 -->
<g id="edge2" class="edge"><title>Node1&#45;&gt;Node3</title>
<path fill="none" stroke="midnightblue" d="M310.592,-101.644C342.348,-113.417 384.08,-128.888 416.595,-140.943"/>
<polygon fill="midnightblue" stroke="midnightblue" points="311.672,-98.3114 301.078,-98.1169 309.238,-104.875 311.672,-98.3114"/>
</g>
<!-- Node9 -->
<g id="node9" class="node"><title>Node9</title>
<g id="a_node9"><a xlink:href="class_om_1_1_language_1_1_default_program.html" target="_top" xlink:title=" ">
<polygon fill="none" stroke="black" points="390.128,-94 390.128,-122 547.872,-122 547.872,-94 390.128,-94"/>
<text text-anchor="start" x="398.128" y="-110" font-family="Helvetica,sans-Serif" font-size="10.00">Om::Language::DefaultProgram</text>
<text text-anchor="middle" x="469" y="-100" font-family="Helvetica,sans-Serif" font-size="10.00">&lt; Literal &gt;</text>
</a>
</g>
</g>
<!-- Node1&#45;&gt;Node9 -->
<g id="edge8" class="edge"><title>Node1&#45;&gt;Node9</title>
<path fill="none" stroke="midnightblue" d="M363.774,-95.7979C372.617,-96.8332 381.477,-97.8705 390.091,-98.879"/>
<polygon fill="midnightblue" stroke="midnightblue" points="364.15,-92.3182 353.811,-94.6316 363.336,-99.2707 364.15,-92.3182"/>
</g>
<!-- Node11 -->
<g id="node11" class="node"><title>Node11</title>
<g id="a_node11"><a xlink:href="class_om_1_1_language_1_1_default_program.html" target="_top" xlink:title=" ">
<polygon fill="none" stroke="black" points="390.128,-47 390.128,-75 547.872,-75 547.872,-47 390.128,-47"/>
<text text-anchor="start" x="398.128" y="-63" font-family="Helvetica,sans-Serif" font-size="10.00">Om::Language::DefaultProgram</text>
<text text-anchor="middle" x="469" y="-53" font-family="Helvetica,sans-Serif" font-size="10.00">&lt; Lexicon &gt;</text>
</a>
</g>
</g>
<!-- Node1&#45;&gt;Node11 -->
<g id="edge10" class="edge"><title>Node1&#45;&gt;Node11</title>
<path fill="none" stroke="midnightblue" d="M363.774,-72.6936C372.617,-71.7015 381.477,-70.7074 390.091,-69.741"/>
<polygon fill="midnightblue" stroke="midnightblue" points="363.359,-69.2182 353.811,-73.8114 364.139,-76.1746 363.359,-69.2182"/>
</g>
<!-- Node13 -->
<g id="node13" class="node"><title>Node13</title>
<g id="a_node13"><a xlink:href="class_om_1_1_language_1_1_default_program.html" target="_top" xlink:title=" ">
<polygon fill="none" stroke="black" points="390.128,-0 390.128,-28 547.872,-28 547.872,-0 390.128,-0"/>
<text text-anchor="start" x="398.128" y="-16" font-family="Helvetica,sans-Serif" font-size="10.00">Om::Language::DefaultProgram</text>
<text text-anchor="middle" x="469" y="-6" font-family="Helvetica,sans-Serif" font-size="10.00">&lt; Expression &gt;</text>
</a>
</g>
</g>
<!-- Node1&#45;&gt;Node13 -->
<g id="edge12" class="edge"><title>Node1&#45;&gt;Node13</title>
<path fill="none" stroke="midnightblue" d="M308.488,-66.3161C332.577,-57.1672 362.742,-46.0512 390,-37 399.111,-33.9746 408.885,-30.9337 418.328,-28.0989"/>
<polygon fill="midnightblue" stroke="midnightblue" points="306.995,-63.1395 298.9,-69.9751 309.491,-69.6794 306.995,-63.1395"/>
</g>
<!-- Node2 -->
<g id="node2" class="node"><title>Node2</title>
<g id="a_node2"><a xlink:href="class_om_1_1_language_1_1_consumer.html" target="_top" xlink:title="An Element taker; takes at the back.">
<polygon fill="none" stroke="black" points="0.0791016,-75 0.0791016,-93 133.921,-93 133.921,-75 0.0791016,-75"/>
<text text-anchor="middle" x="67" y="-81" font-family="Helvetica,sans-Serif" font-size="10.00">Om::Language::Consumer</text>
</a>
</g>
</g>
<!-- Node2&#45;&gt;Node1 -->
<g id="edge1" class="edge"><title>Node2&#45;&gt;Node1</title>
<path fill="none" stroke="midnightblue" d="M144.324,-84C152.768,-84 161.428,-84 170.029,-84"/>
<polygon fill="midnightblue" stroke="midnightblue" points="144.15,-80.5001 134.15,-84 144.15,-87.5001 144.15,-80.5001"/>
</g>
<!-- Node4 -->
<g id="node4" class="node"><title>Node4</title>
<g id="a_node4"><a xlink:href="class_om_1_1_language_1_1_default_element.html" target="_top" xlink:title="A partial implementation of Element.">
<polygon fill="none" stroke="black" points="584.248,-146 584.248,-174 767.752,-174 767.752,-146 584.248,-146"/>
<text text-anchor="start" x="592.248" y="-162" font-family="Helvetica,sans-Serif" font-size="10.00">Om::Language::DefaultElement</text>
<text text-anchor="middle" x="676" y="-152" font-family="Helvetica,sans-Serif" font-size="10.00">&lt; ThisImplementation, ThisInterface &gt;</text>
</a>
</g>
</g>
<!-- Node3&#45;&gt;Node4 -->
<g id="edge3" class="edge"><title>Node3&#45;&gt;Node4</title>
<path fill="none" stroke="midnightblue" d="M558.109,-160C566.713,-160 575.455,-160 584.086,-160"/>
<polygon fill="midnightblue" stroke="midnightblue" points="558.087,-156.5 548.087,-160 558.086,-163.5 558.087,-156.5"/>
</g>
<!-- Node5 -->
<g id="node5" class="node"><title>Node5</title>
<g id="a_node5"><a xlink:href="class_om_1_1_language_1_1_default_atom.html" target="_top" xlink:title=" ">
<polygon fill="none" stroke="black" points="804.631,-169 804.631,-197 947.369,-197 947.369,-169 804.631,-169"/>
<text text-anchor="start" x="812.631" y="-185" font-family="Helvetica,sans-Serif" font-size="10.00">Om::Language::DefaultAtom</text>
<text text-anchor="middle" x="876" y="-175" font-family="Helvetica,sans-Serif" font-size="10.00">&lt; Operator &gt;</text>
</a>
</g>
</g>
<!-- Node4&#45;&gt;Node5 -->
<g id="edge4" class="edge"><title>Node4&#45;&gt;Node5</title>
<path fill="none" stroke="midnightblue" d="M778,-171.732C786.962,-172.773 795.903,-173.812 804.528,-174.814"/>
<polygon fill="midnightblue" stroke="midnightblue" points="778.224,-168.235 767.887,-170.558 777.416,-175.188 778.224,-168.235"/>
</g>
<!-- Node7 -->
<g id="node7" class="node"><title>Node7</title>
<g id="a_node7"><a xlink:href="class_om_1_1_language_1_1_default_atom.html" target="_top" xlink:title=" ">
<polygon fill="none" stroke="black" points="804.631,-122 804.631,-150 947.369,-150 947.369,-122 804.631,-122"/>
<text text-anchor="start" x="812.631" y="-138" font-family="Helvetica,sans-Serif" font-size="10.00">Om::Language::DefaultAtom</text>
<text text-anchor="middle" x="876" y="-128" font-family="Helvetica,sans-Serif" font-size="10.00">&lt; Separator &gt;</text>
</a>
</g>
</g>
<!-- Node4&#45;&gt;Node7 -->
<g id="edge6" class="edge"><title>Node4&#45;&gt;Node7</title>
<path fill="none" stroke="midnightblue" d="M778,-147.758C786.962,-146.671 795.903,-145.587 804.528,-144.542"/>
<polygon fill="midnightblue" stroke="midnightblue" points="777.393,-144.305 767.887,-148.983 778.236,-151.255 777.393,-144.305"/>
</g>
<!-- Node6 -->
<g id="node6" class="node"><title>Node6</title>
<g id="a_node6"><a xlink:href="class_om_1_1_language_1_1_operator.html" target="_top" xlink:title="The Operator implementation.">
<polygon fill="none" stroke="black" points="986.412,-174 986.412,-192 1113.59,-192 1113.59,-174 986.412,-174"/>
<text text-anchor="middle" x="1050" y="-180" font-family="Helvetica,sans-Serif" font-size="10.00">Om::Language::Operator</text>
</a>
</g>
</g>
<!-- Node5&#45;&gt;Node6 -->
<g id="edge5" class="edge"><title>Node5&#45;&gt;Node6</title>
<path fill="none" stroke="midnightblue" d="M957.505,-183C967.2,-183 976.989,-183 986.377,-183"/>
<polygon fill="midnightblue" stroke="midnightblue" points="957.455,-179.5 947.455,-183 957.455,-186.5 957.455,-179.5"/>
</g>
<!-- Node8 -->
<g id="node8" class="node"><title>Node8</title>
<g id="a_node8"><a xlink:href="class_om_1_1_language_1_1_separator.html" target="_top" xlink:title="The Separator implementation.">
<polygon fill="none" stroke="black" points="984.185,-127 984.185,-145 1115.81,-145 1115.81,-127 984.185,-127"/>
<text text-anchor="middle" x="1050" y="-133" font-family="Helvetica,sans-Serif" font-size="10.00">Om::Language::Separator</text>
</a>
</g>
</g>
<!-- Node7&#45;&gt;Node8 -->
<g id="edge7" class="edge"><title>Node7&#45;&gt;Node8</title>
<path fill="none" stroke="midnightblue" d="M957.709,-136C966.492,-136 975.349,-136 983.911,-136"/>
<polygon fill="midnightblue" stroke="midnightblue" points="957.455,-132.5 947.455,-136 957.455,-139.5 957.455,-132.5"/>
</g>
<!-- Node10 -->
<g id="node10" class="node"><title>Node10</title>
<g id="a_node10"><a xlink:href="class_om_1_1_language_1_1_literal.html" target="_top" xlink:title="The Literal Program implementation.">
<polygon fill="none" stroke="black" points="618.525,-99 618.525,-117 733.475,-117 733.475,-99 618.525,-99"/>
<text text-anchor="middle" x="676" y="-105" font-family="Helvetica,sans-Serif" font-size="10.00">Om::Language::Literal</text>
</a>
</g>
</g>
<!-- Node9&#45;&gt;Node10 -->
<g id="edge9" class="edge"><title>Node9&#45;&gt;Node10</title>
<path fill="none" stroke="midnightblue" d="M558.339,-108C578.728,-108 599.879,-108 618.482,-108"/>
<polygon fill="midnightblue" stroke="midnightblue" points="558.087,-104.5 548.087,-108 558.086,-111.5 558.087,-104.5"/>
</g>
<!-- Node12 -->
<g id="node12" class="node"><title>Node12</title>
<g id="a_node12"><a xlink:href="class_om_1_1_language_1_1_lexicon.html" target="_top" xlink:title="The Lexicon Program implementation.">
<polygon fill="none" stroke="black" points="614.909,-52 614.909,-70 737.091,-70 737.091,-52 614.909,-52"/>
<text text-anchor="middle" x="676" y="-58" font-family="Helvetica,sans-Serif" font-size="10.00">Om::Language::Lexicon</text>
</a>
</g>
</g>
<!-- Node11&#45;&gt;Node12 -->
<g id="edge11" class="edge"><title>Node11&#45;&gt;Node12</title>
<path fill="none" stroke="midnightblue" d="M558.267,-61C577.296,-61 596.994,-61 614.666,-61"/>
<polygon fill="midnightblue" stroke="midnightblue" points="558.087,-57.5001 548.087,-61 558.086,-64.5001 558.087,-57.5001"/>
</g>
<!-- Node14 -->
<g id="node14" class="node"><title>Node14</title>
<g id="a_node14"><a xlink:href="class_om_1_1_language_1_1_expression.html" target="_top" xlink:title="The Expression Program implementation.">
<polygon fill="none" stroke="black" points="607.409,-5 607.409,-23 744.591,-23 744.591,-5 607.409,-5"/>
<text text-anchor="middle" x="676" y="-11" font-family="Helvetica,sans-Serif" font-size="10.00">Om::Language::Expression</text>
</a>
</g>
</g>
<!-- Node13&#45;&gt;Node14 -->
<g id="edge13" class="edge"><title>Node13&#45;&gt;Node14</title>
<path fill="none" stroke="midnightblue" d="M558.217,-14C574.614,-14 591.509,-14 607.178,-14"/>
<polygon fill="midnightblue" stroke="midnightblue" points="558.087,-10.5001 548.087,-14 558.086,-17.5001 558.087,-10.5001"/>
</g>
</g>
</svg>
