<?xml version="1.0" encoding="UTF-8" standalone="no"?>
<!DOCTYPE svg PUBLIC "-//W3C//DTD SVG 1.1//EN"
 "http://www.w3.org/Graphics/SVG/1.1/DTD/svg11.dtd">
<!-- Generated by graphviz version 2.30.1 (20130221.2233)
 -->
<!-- Title: Om::Sources::CodePointStringBackSource&lt; ThisStringIterator &gt; Pages: 1 -->
<svg width="594pt" height="154pt"
 viewBox="0.00 0.00 594.00 154.00" xmlns="http://www.w3.org/2000/svg" xmlns:xlink="http://www.w3.org/1999/xlink">
<g id="graph0" class="graph" transform="scale(1 1) rotate(0) translate(4 150)">
<title>Om::Sources::CodePointStringBackSource&lt; ThisStringIterator &gt;</title>
<!-- Node1 -->
<g id="node1" class="node"><title>Node1</title>
<polygon fill="#bfbfbf" stroke="black" points="422.165,-33 422.165,-65 585.835,-65 585.835,-33 422.165,-33"/>
<text text-anchor="start" x="430.165" y="-51" font-family="Helvetica,sans-Serif" font-size="10.00">Om::Sources::CodePointString</text>
<text text-anchor="middle" x="504" y="-39" font-family="Helvetica,sans-Serif" font-size="10.00">BackSource&lt; ThisStringIterator &gt;</text>
</g>
<!-- Node2 -->
<g id="node2" class="node"><title>Node2</title>
<g id="a_node2"><a xlink:href="class_om_1_1_sources_1_1_default_source.html" target="_top" xlink:title="Om::Sources::DefaultSource\l\&lt; std::string, CodePointStringBack\lSource\&lt; ThisStringIterator \&gt; \&gt;">
<polygon fill="none" stroke="black" points="150.711,-51 150.711,-95 319.289,-95 319.289,-51 150.711,-51"/>
<text text-anchor="start" x="158.711" y="-81" font-family="Helvetica,sans-Serif" font-size="10.00">Om::Sources::DefaultSource</text>
<text text-anchor="start" x="158.711" y="-69" font-family="Helvetica,sans-Serif" font-size="10.00">&lt; std::string, CodePointStringBack</text>
<text text-anchor="middle" x="235" y="-57" font-family="Helvetica,sans-Serif" font-size="10.00">Source&lt; ThisStringIterator &gt; &gt;</text>
</a>
</g>
</g>
<!-- Node2&#45;&gt;Node1 -->
<g id="edge1" class="edge"><title>Node2&#45;&gt;Node1</title>
<path fill="none" stroke="midnightblue" d="M329.494,-64.596C359.682,-61.8825 392.877,-58.8987 422.077,-56.2739"/>
<polygon fill="midnightblue" stroke="midnightblue" points="329.029,-61.1237 319.382,-65.505 329.655,-68.0956 329.029,-61.1237"/>
</g>
<!-- Node3 -->
<g id="node3" class="node"><title>Node3</title>
<g id="a_node3"><a xlink:href="class_om_1_1_sources_1_1_source.html" target="_top" xlink:title="Om::Sources::Source\l\&lt; std::string \&gt;">
<polygon fill="none" stroke="black" points="0.20459,-114 0.20459,-146 111.795,-146 111.795,-114 0.20459,-114"/>
<text text-anchor="start" x="8.20459" y="-132" font-family="Helvetica,sans-Serif" font-size="10.00">Om::Sources::Source</text>
<text text-anchor="middle" x="56" y="-120" font-family="Helvetica,sans-Serif" font-size="10.00">&lt; std::string &gt;</text>
</a>
</g>
</g>
<!-- Node3&#45;&gt;Node2 -->
<g id="edge2" class="edge"><title>Node3&#45;&gt;Node2</title>
<path fill="none" stroke="midnightblue" d="M116.381,-110.877C132.128,-105.806 149.259,-100.289 165.45,-95.0753"/>
<polygon fill="midnightblue" stroke="midnightblue" points="115.221,-107.574 106.775,-113.971 117.367,-114.237 115.221,-107.574"/>
</g>
<!-- Node4 -->
<g id="node4" class="node"><title>Node4</title>
<polygon fill="none" stroke="#bfbfbf" points="4.9165,-51 4.9165,-95 107.083,-95 107.083,-51 4.9165,-51"/>
<text text-anchor="start" x="12.9165" y="-81" font-family="Helvetica,sans-Serif" font-size="10.00">std::iterator&lt; std</text>
<text text-anchor="start" x="12.9165" y="-69" font-family="Helvetica,sans-Serif" font-size="10.00">::input_iterator_tag,</text>
<text text-anchor="middle" x="56" y="-57" font-family="Helvetica,sans-Serif" font-size="10.00"> std::string &gt;</text>
</g>
<!-- Node4&#45;&gt;Node2 -->
<g id="edge3" class="edge"><title>Node4&#45;&gt;Node2</title>
<path fill="none" stroke="midnightblue" d="M117.285,-73C127.974,-73 139.276,-73 150.473,-73"/>
<polygon fill="midnightblue" stroke="midnightblue" points="117.248,-69.5001 107.248,-73 117.248,-76.5001 117.248,-69.5001"/>
</g>
<!-- Node5 -->
<g id="node5" class="node"><title>Node5</title>
<g id="a_node5"><a xlink:title="STL class. ">
<polygon fill="none" stroke="#bfbfbf" points="205.325,-9 205.325,-29 264.675,-29 264.675,-9 205.325,-9"/>
<text text-anchor="middle" x="235" y="-15" font-family="Helvetica,sans-Serif" font-size="10.00">std::string</text>
</a>
</g>
</g>
<!-- Node5&#45;&gt;Node1 -->
<g id="edge4" class="edge"><title>Node5&#45;&gt;Node1</title>
<path fill="none" stroke="#9a32cd" stroke-dasharray="5,2" d="M275.079,-23.3909C313.536,-27.7119 373.409,-34.4393 422.14,-39.9147"/>
<polygon fill="#9a32cd" stroke="#9a32cd" points="275.156,-19.8776 264.827,-22.239 274.374,-26.8338 275.156,-19.8776"/>
<text text-anchor="middle" x="371" y="-39" font-family="Helvetica,sans-Serif" font-size="10.00"> thisCodePoint</text>
</g>
<!-- Node6 -->
<g id="node6" class="node"><title>Node6</title>
<g id="a_node6"><a xlink:title="STL class. ">
<polygon fill="none" stroke="#bfbfbf" points="8.95215,-0 8.95215,-32 103.048,-32 103.048,-0 8.95215,-0"/>
<text text-anchor="start" x="16.9521" y="-18" font-family="Helvetica,sans-Serif" font-size="10.00">std::basic_string&lt;</text>
<text text-anchor="middle" x="56" y="-6" font-family="Helvetica,sans-Serif" font-size="10.00"> char &gt;</text>
</a>
</g>
</g>
<!-- Node6&#45;&gt;Node5 -->
<g id="edge5" class="edge"><title>Node6&#45;&gt;Node5</title>
<path fill="none" stroke="midnightblue" d="M113.61,-16.9595C144.143,-17.477 180.521,-18.0936 205.239,-18.5125"/>
<polygon fill="midnightblue" stroke="midnightblue" points="113.563,-13.4583 103.505,-16.7882 113.444,-20.4573 113.563,-13.4583"/>
</g>
</g>
</svg>
