<?xml version="1.0" encoding="UTF-8" standalone="no"?>
<!DOCTYPE svg PUBLIC "-//W3C//DTD SVG 1.1//EN"
 "http://www.w3.org/Graphics/SVG/1.1/DTD/svg11.dtd">
<!-- Generated by graphviz version 2.28.0 (20120817.0054)
 -->
<!-- Title: Om::Operations::ProgramOperation&lt; ThisProgram &gt; Pages: 1 -->
<svg width="186pt" height="164pt"
 viewBox="0.00 0.00 186.00 164.00" xmlns="http://www.w3.org/2000/svg" xmlns:xlink="http://www.w3.org/1999/xlink">
<g id="graph1" class="graph" transform="scale(1 1) rotate(0) translate(4 160)">
<title>Om::Operations::ProgramOperation&lt; ThisProgram &gt;</title>
<!-- Node1 -->
<g id="node1" class="node"><title>Node1</title>
<polygon fill="#bfbfbf" stroke="black" points="6,-1 6,-31 172,-31 172,-1 6,-1"/>
<text text-anchor="start" x="14" y="-19" font-family="Helvetica,sans-Serif" font-size="10.00">Om::Operations::ProgramOperation</text>
<text text-anchor="middle" x="89" y="-8" font-family="Helvetica,sans-Serif" font-size="10.00">&lt; ThisProgram &gt;</text>
</g>
<!-- Node2 -->
<g id="node2" class="node"><title>Node2</title>
<a xlink:href="class_om_1_1_default_operation.html" target="_top" xlink:title="Om::DefaultOperation\l\&lt; ProgramOperation\&lt; ThisProgram \&gt; \&gt;">
<polygon fill="none" stroke="black" points="-0.5,-69 -0.5,-99 178.5,-99 178.5,-69 -0.5,-69"/>
<text text-anchor="start" x="7.5" y="-87" font-family="Helvetica,sans-Serif" font-size="10.00">Om::DefaultOperation</text>
<text text-anchor="middle" x="89" y="-76" font-family="Helvetica,sans-Serif" font-size="10.00">&lt; ProgramOperation&lt; ThisProgram &gt; &gt;</text>
</a>
</g>
<!-- Node2&#45;&gt;Node1 -->
<g id="edge2" class="edge"><title>Node2&#45;&gt;Node1</title>
<path fill="none" stroke="midnightblue" d="M89,-58.5322C89,-49.3606 89,-39.2449 89,-31.2931"/>
<polygon fill="midnightblue" stroke="midnightblue" points="85.5001,-58.6789 89,-68.679 92.5001,-58.679 85.5001,-58.6789"/>
</g>
<!-- Node3 -->
<g id="node4" class="node"><title>Node3</title>
<a xlink:href="class_om_1_1_operation.html" target="_top" xlink:title="An Operation that has yet to consume one or more Operands, and therefore must live in memory while &quot;i...">
<polygon fill="none" stroke="black" points="49.5,-136.5 49.5,-155.5 128.5,-155.5 128.5,-136.5 49.5,-136.5"/>
<text text-anchor="middle" x="89" y="-143.5" font-family="Helvetica,sans-Serif" font-size="10.00">Om::Operation</text>
</a>
</g>
<!-- Node3&#45;&gt;Node2 -->
<g id="edge4" class="edge"><title>Node3&#45;&gt;Node2</title>
<path fill="none" stroke="midnightblue" d="M89,-126.371C89,-117.585 89,-107.272 89,-99.1408"/>
<polygon fill="midnightblue" stroke="midnightblue" points="85.5001,-126.403 89,-136.403 92.5001,-126.403 85.5001,-126.403"/>
</g>
</g>
</svg>
