<?xml version="1.0" encoding="UTF-8" standalone="no"?>
<!DOCTYPE svg PUBLIC "-//W3C//DTD SVG 1.1//EN"
 "http://www.w3.org/Graphics/SVG/1.1/DTD/svg11.dtd">
<!-- Generated by graphviz version 2.36.0 (20140111.2315)
 -->
<!-- Title: Om::Expression Pages: 1 -->
<svg width="1328pt" height="137pt"
 viewBox="0.00 0.00 1328.00 137.00" xmlns="http://www.w3.org/2000/svg" xmlns:xlink="http://www.w3.org/1999/xlink">
<g id="graph0" class="graph" transform="scale(1 1) rotate(0) translate(4 133)">
<title>Om::Expression</title>
<!-- Node1 -->
<g id="node1" class="node"><title>Node1</title>
<polygon fill="#bfbfbf" stroke="black" points="1232.43,-31 1232.43,-49 1319.57,-49 1319.57,-31 1232.43,-31"/>
<text text-anchor="middle" x="1276" y="-37" font-family="Helvetica,sans-Serif" font-size="10.00">Om::Expression</text>
</g>
<!-- Node2 -->
<g id="node2" class="node"><title>Node2</title>
<g id="a_node2"><a xlink:href="class_om_1_1_default_program.html" target="_top" xlink:title="Om::DefaultProgram\l\&lt; Expression, Program \&gt;">
<polygon fill="none" stroke="black" points="1068.7,-26 1068.7,-54 1195.3,-54 1195.3,-26 1068.7,-26"/>
<text text-anchor="start" x="1076.7" y="-42" font-family="Helvetica,sans-Serif" font-size="10.00">Om::DefaultProgram</text>
<text text-anchor="middle" x="1132" y="-32" font-family="Helvetica,sans-Serif" font-size="10.00">&lt; Expression, Program &gt;</text>
</a>
</g>
</g>
<!-- Node2&#45;&gt;Node1 -->
<g id="edge1" class="edge"><title>Node2&#45;&gt;Node1</title>
<path fill="none" stroke="midnightblue" d="M1205.86,-40C1214.87,-40 1223.85,-40 1232.2,-40"/>
<polygon fill="midnightblue" stroke="midnightblue" points="1205.7,-36.5001 1195.7,-40 1205.7,-43.5001 1205.7,-36.5001"/>
</g>
<!-- Node3 -->
<g id="node3" class="node"><title>Node3</title>
<g id="a_node3"><a xlink:href="class_om_1_1_default_consumer.html" target="_top" xlink:title="Om::DefaultConsumer\l\&lt; Expression, DefaultGiveable\l\&lt; Expression, Program \&gt; \&gt;">
<polygon fill="none" stroke="black" points="880.603,-45 880.603,-83 1031.4,-83 1031.4,-45 880.603,-45"/>
<text text-anchor="start" x="888.603" y="-71" font-family="Helvetica,sans-Serif" font-size="10.00">Om::DefaultConsumer</text>
<text text-anchor="start" x="888.603" y="-61" font-family="Helvetica,sans-Serif" font-size="10.00">&lt; Expression, DefaultGiveable</text>
<text text-anchor="middle" x="956" y="-51" font-family="Helvetica,sans-Serif" font-size="10.00">&lt; Expression, Program &gt; &gt;</text>
</a>
</g>
</g>
<!-- Node3&#45;&gt;Node2 -->
<g id="edge2" class="edge"><title>Node3&#45;&gt;Node2</title>
<path fill="none" stroke="midnightblue" d="M1041.74,-52.3112C1050.8,-51.0615 1059.9,-49.8072 1068.63,-48.6027"/>
<polygon fill="midnightblue" stroke="midnightblue" points="1040.98,-48.8838 1031.55,-53.7174 1041.93,-55.8181 1040.98,-48.8838"/>
</g>
<!-- Node4 -->
<g id="node4" class="node"><title>Node4</title>
<g id="a_node4"><a xlink:href="class_om_1_1_default_giveable.html" target="_top" xlink:title="Om::DefaultGiveable\l\&lt; Expression, Program \&gt;">
<polygon fill="none" stroke="black" points="716.697,-50 716.697,-78 843.303,-78 843.303,-50 716.697,-50"/>
<text text-anchor="start" x="724.697" y="-66" font-family="Helvetica,sans-Serif" font-size="10.00">Om::DefaultGiveable</text>
<text text-anchor="middle" x="780" y="-56" font-family="Helvetica,sans-Serif" font-size="10.00">&lt; Expression, Program &gt;</text>
</a>
</g>
</g>
<!-- Node4&#45;&gt;Node3 -->
<g id="edge3" class="edge"><title>Node4&#45;&gt;Node3</title>
<path fill="none" stroke="midnightblue" d="M853.586,-64C862.425,-64 871.467,-64 880.336,-64"/>
<polygon fill="midnightblue" stroke="midnightblue" points="853.327,-60.5001 843.327,-64 853.326,-67.5001 853.327,-60.5001"/>
</g>
<!-- Node5 -->
<g id="node5" class="node"><title>Node5</title>
<g id="a_node5"><a xlink:href="class_om_1_1_default_moveable.html" target="_top" xlink:title="Om::DefaultMoveable\l\&lt; Expression, DefaultCopyable\l\&lt; Expression, Program \&gt; \&gt;">
<polygon fill="none" stroke="black" points="526.211,-45 526.211,-83 679.789,-83 679.789,-45 526.211,-45"/>
<text text-anchor="start" x="534.211" y="-71" font-family="Helvetica,sans-Serif" font-size="10.00">Om::DefaultMoveable</text>
<text text-anchor="start" x="534.211" y="-61" font-family="Helvetica,sans-Serif" font-size="10.00">&lt; Expression, DefaultCopyable</text>
<text text-anchor="middle" x="603" y="-51" font-family="Helvetica,sans-Serif" font-size="10.00">&lt; Expression, Program &gt; &gt;</text>
</a>
</g>
</g>
<!-- Node5&#45;&gt;Node4 -->
<g id="edge4" class="edge"><title>Node5&#45;&gt;Node4</title>
<path fill="none" stroke="midnightblue" d="M690.03,-64C698.944,-64 707.879,-64 716.464,-64"/>
<polygon fill="midnightblue" stroke="midnightblue" points="689.994,-60.5001 679.994,-64 689.994,-67.5001 689.994,-60.5001"/>
</g>
<!-- Node6 -->
<g id="node6" class="node"><title>Node6</title>
<g id="a_node6"><a xlink:href="class_om_1_1_default_copyable.html" target="_top" xlink:title="Om::DefaultCopyable\l\&lt; Expression, Program \&gt;">
<polygon fill="none" stroke="black" points="362.697,-50 362.697,-78 489.303,-78 489.303,-50 362.697,-50"/>
<text text-anchor="start" x="370.697" y="-66" font-family="Helvetica,sans-Serif" font-size="10.00">Om::DefaultCopyable</text>
<text text-anchor="middle" x="426" y="-56" font-family="Helvetica,sans-Serif" font-size="10.00">&lt; Expression, Program &gt;</text>
</a>
</g>
</g>
<!-- Node6&#45;&gt;Node5 -->
<g id="edge5" class="edge"><title>Node6&#45;&gt;Node5</title>
<path fill="none" stroke="midnightblue" d="M499.749,-64C508.417,-64 517.285,-64 525.998,-64"/>
<polygon fill="midnightblue" stroke="midnightblue" points="499.685,-60.5001 489.685,-64 499.685,-67.5001 499.685,-60.5001"/>
</g>
<!-- Node7 -->
<g id="node7" class="node"><title>Node7</title>
<g id="a_node7"><a xlink:href="class_om_1_1_program.html" target="_top" xlink:title="The Program implementation. ">
<polygon fill="none" stroke="black" points="249.995,-55 249.995,-73 326.005,-73 326.005,-55 249.995,-55"/>
<text text-anchor="middle" x="288" y="-61" font-family="Helvetica,sans-Serif" font-size="10.00">Om::Program</text>
</a>
</g>
</g>
<!-- Node7&#45;&gt;Node6 -->
<g id="edge6" class="edge"><title>Node7&#45;&gt;Node6</title>
<path fill="none" stroke="midnightblue" d="M336.233,-64C344.716,-64 353.676,-64 362.51,-64"/>
<polygon fill="midnightblue" stroke="midnightblue" points="336.163,-60.5001 326.163,-64 336.163,-67.5001 336.163,-60.5001"/>
</g>
<!-- Node8 -->
<g id="node8" class="node"><title>Node8</title>
<g id="a_node8"><a xlink:href="class_om_1_1_consumer.html" target="_top" xlink:title="An Element taker; takes at the back. ">
<polygon fill="none" stroke="black" points="124.104,-111 124.104,-129 207.896,-129 207.896,-111 124.104,-111"/>
<text text-anchor="middle" x="166" y="-117" font-family="Helvetica,sans-Serif" font-size="10.00">Om::Consumer</text>
</a>
</g>
</g>
<!-- Node8&#45;&gt;Node7 -->
<g id="edge7" class="edge"><title>Node8&#45;&gt;Node7</title>
<path fill="none" stroke="midnightblue" d="M200.069,-107.045C204.772,-105.082 209.528,-103.033 214,-101 233.532,-92.1216 255.42,-80.8441 270.089,-73.0866"/>
<polygon fill="midnightblue" stroke="midnightblue" points="198.527,-103.893 190.595,-110.917 201.176,-110.373 198.527,-103.893"/>
</g>
<!-- Node9 -->
<g id="node9" class="node"><title>Node9</title>
<g id="a_node9"><a xlink:href="class_om_1_1_giveable.html" target="_top" xlink:title="An object that can be copied or moved via Give. ">
<polygon fill="none" stroke="black" points="127.434,-74 127.434,-92 204.566,-92 204.566,-74 127.434,-74"/>
<text text-anchor="middle" x="166" y="-80" font-family="Helvetica,sans-Serif" font-size="10.00">Om::Giveable</text>
</a>
</g>
</g>
<!-- Node9&#45;&gt;Node7 -->
<g id="edge8" class="edge"><title>Node9&#45;&gt;Node7</title>
<path fill="none" stroke="midnightblue" d="M214.713,-75.4454C226.421,-73.5917 238.781,-71.6346 249.906,-69.8733"/>
<polygon fill="midnightblue" stroke="midnightblue" points="213.969,-72.0195 204.64,-77.0404 215.064,-78.9334 213.969,-72.0195"/>
</g>
<!-- Node10 -->
<g id="node10" class="node"><title>Node10</title>
<g id="a_node10"><a xlink:href="class_om_1_1_copyable.html" target="_top" xlink:title="An object that can be passed to Copy to be copied. ">
<polygon fill="none" stroke="black" points="1.04199,-92 1.04199,-110 80.958,-110 80.958,-92 1.04199,-92"/>
<text text-anchor="middle" x="41" y="-98" font-family="Helvetica,sans-Serif" font-size="10.00">Om::Copyable</text>
</a>
</g>
</g>
<!-- Node10&#45;&gt;Node9 -->
<g id="edge9" class="edge"><title>Node10&#45;&gt;Node9</title>
<path fill="none" stroke="midnightblue" d="M91.186,-93.802C103.243,-92.0376 115.958,-90.1769 127.374,-88.5063"/>
<polygon fill="midnightblue" stroke="midnightblue" points="90.6439,-90.344 81.2561,-95.2552 91.6576,-97.2702 90.6439,-90.344"/>
</g>
<!-- Node11 -->
<g id="node11" class="node"><title>Node11</title>
<g id="a_node11"><a xlink:href="class_om_1_1_moveable.html" target="_top" xlink:title="An object that can be passed to Move to be moved. ">
<polygon fill="none" stroke="black" points="0.487793,-55 0.487793,-73 81.5122,-73 81.5122,-55 0.487793,-55"/>
<text text-anchor="middle" x="41" y="-61" font-family="Helvetica,sans-Serif" font-size="10.00">Om::Moveable</text>
</a>
</g>
</g>
<!-- Node11&#45;&gt;Node9 -->
<g id="edge10" class="edge"><title>Node11&#45;&gt;Node9</title>
<path fill="none" stroke="midnightblue" d="M91.7696,-71.688C103.575,-73.5116 115.98,-75.4278 127.155,-77.1541"/>
<polygon fill="midnightblue" stroke="midnightblue" points="92.0122,-68.184 81.595,-70.1163 90.9435,-75.102 92.0122,-68.184"/>
</g>
<!-- Node12 -->
<g id="node12" class="node"><title>Node12</title>
<g id="a_node12"><a xlink:href="class_om_1_1_producer.html" target="_top" xlink:title="An Element giver; gives from the front. ">
<polygon fill="none" stroke="black" points="126.879,-37 126.879,-55 205.121,-55 205.121,-37 126.879,-37"/>
<text text-anchor="middle" x="166" y="-43" font-family="Helvetica,sans-Serif" font-size="10.00">Om::Producer</text>
</a>
</g>
</g>
<!-- Node12&#45;&gt;Node7 -->
<g id="edge11" class="edge"><title>Node12&#45;&gt;Node7</title>
<path fill="none" stroke="midnightblue" d="M215.242,-53.2363C226.785,-54.9678 238.933,-56.7899 249.884,-58.4326"/>
<polygon fill="midnightblue" stroke="midnightblue" points="215.707,-49.767 205.299,-51.7448 214.669,-56.6896 215.707,-49.767"/>
</g>
<!-- Node13 -->
<g id="node13" class="node"><title>Node13</title>
<g id="a_node13"><a xlink:href="class_om_1_1_shareable.html" target="_top" xlink:title="Om::Shareable\&lt;\&gt;">
<polygon fill="none" stroke="black" points="118.532,-0 118.532,-18 213.468,-18 213.468,-0 118.532,-0"/>
<text text-anchor="middle" x="166" y="-6" font-family="Helvetica,sans-Serif" font-size="10.00">Om::Shareable&lt;&gt;</text>
</a>
</g>
</g>
<!-- Node13&#45;&gt;Node7 -->
<g id="edge12" class="edge"><title>Node13&#45;&gt;Node7</title>
<path fill="none" stroke="midnightblue" d="M201.69,-21.8185C205.864,-23.4982 210.046,-25.2465 214,-27 233.743,-35.7557 255.776,-47.1579 270.42,-54.9772"/>
<polygon fill="midnightblue" stroke="midnightblue" points="202.664,-18.441 192.076,-18.0539 200.111,-24.9591 202.664,-18.441"/>
</g>
<!-- Node14 -->
<g id="node14" class="node"><title>Node14</title>
<g id="a_node14"><a xlink:href="class_om_1_1_taker.html" target="_top" xlink:title="Om::Taker\&lt; Expression \&gt;">
<polygon fill="none" stroke="black" points="891.589,-8 891.589,-26 1020.41,-26 1020.41,-8 891.589,-8"/>
<text text-anchor="middle" x="956" y="-14" font-family="Helvetica,sans-Serif" font-size="10.00">Om::Taker&lt; Expression &gt;</text>
</a>
</g>
</g>
<!-- Node14&#45;&gt;Node2 -->
<g id="edge13" class="edge"><title>Node14&#45;&gt;Node2</title>
<path fill="none" stroke="midnightblue" d="M1030.81,-26.7562C1043.41,-28.4219 1056.39,-30.1377 1068.66,-31.7592"/>
<polygon fill="midnightblue" stroke="midnightblue" points="1031.18,-23.2745 1020.8,-25.4338 1030.26,-30.2141 1031.18,-23.2745"/>
</g>
</g>
</svg>
