<?xml version="1.0" encoding="UTF-8" standalone="no"?>
<!DOCTYPE svg PUBLIC "-//W3C//DTD SVG 1.1//EN"
 "http://www.w3.org/Graphics/SVG/1.1/DTD/svg11.dtd">
<!-- Generated by graphviz version 2.36.0 (20140111.2315)
 -->
<!-- Title: Om::Language::Expression Pages: 1 -->
<svg width="2372pt" height="228pt"
 viewBox="0.00 0.00 2372.00 228.00" xmlns="http://www.w3.org/2000/svg" xmlns:xlink="http://www.w3.org/1999/xlink">
<g id="graph0" class="graph" transform="scale(1 1) rotate(0) translate(4 224)">
<title>Om::Language::Expression</title>
<!-- Node8 -->
<g id="node1" class="node"><title>Node8</title>
<g id="a_node1"><a xlink:title="The Expression Program implementation.">
<polygon fill="#bfbfbf" stroke="black" points="2226.41,-124 2226.41,-142 2363.59,-142 2363.59,-124 2226.41,-124"/>
<text text-anchor="middle" x="2295" y="-130" font-family="Helvetica,sans-Serif" font-size="10.00">Om::Language::Expression</text>
</a>
</g>
</g>
<!-- Node9 -->
<g id="node2" class="node"><title>Node9</title>
<g id="a_node2"><a xlink:href="class_om_1_1_language_1_1_default_program.html" target="_top" xlink:title=" ">
<polygon fill="none" stroke="black" points="1960.13,-139 1960.13,-167 2117.87,-167 2117.87,-139 1960.13,-139"/>
<text text-anchor="start" x="1968.13" y="-155" font-family="Helvetica,sans-Serif" font-size="10.00">Om::Language::DefaultProgram</text>
<text text-anchor="middle" x="2039" y="-145" font-family="Helvetica,sans-Serif" font-size="10.00">&lt; Expression &gt;</text>
</a>
</g>
</g>
<!-- Node9&#45;&gt;Node8 -->
<g id="edge1" class="edge"><title>Node9&#45;&gt;Node8</title>
<path fill="none" stroke="midnightblue" d="M2128.21,-146.054C2160.3,-143.528 2196.04,-140.713 2226.1,-138.347"/>
<polygon fill="midnightblue" stroke="midnightblue" points="2127.63,-142.589 2117.93,-146.863 2128.18,-149.568 2127.63,-142.589"/>
</g>
<!-- Node10 -->
<g id="node3" class="node"><title>Node10</title>
<g id="a_node3"><a xlink:href="class_om_1_1_language_1_1_default_consumer.html" target="_top" xlink:title=" ">
<polygon fill="none" stroke="black" points="1714.24,-181 1714.24,-219 1879.76,-219 1879.76,-181 1714.24,-181"/>
<text text-anchor="start" x="1722.24" y="-207" font-family="Helvetica,sans-Serif" font-size="10.00">Om::Language::DefaultConsumer</text>
<text text-anchor="start" x="1722.24" y="-197" font-family="Helvetica,sans-Serif" font-size="10.00">&lt; Expression, DefaultGiveable</text>
<text text-anchor="middle" x="1797" y="-187" font-family="Helvetica,sans-Serif" font-size="10.00">&lt; Expression, Program &gt; &gt;</text>
</a>
</g>
</g>
<!-- Node10&#45;&gt;Node9 -->
<g id="edge2" class="edge"><title>Node10&#45;&gt;Node9</title>
<path fill="none" stroke="midnightblue" d="M1889.92,-181.999C1915.29,-177.03 1942.44,-171.714 1966.47,-167.008"/>
<polygon fill="midnightblue" stroke="midnightblue" points="1889.06,-178.6 1879.92,-183.957 1890.41,-185.47 1889.06,-178.6"/>
</g>
<!-- Node11 -->
<g id="node4" class="node"><title>Node11</title>
<g id="a_node4"><a xlink:href="class_om_1_1_default_giveable.html" target="_top" xlink:title=" ">
<polygon fill="none" stroke="black" points="1462.7,-187 1462.7,-215 1589.3,-215 1589.3,-187 1462.7,-187"/>
<text text-anchor="start" x="1470.7" y="-203" font-family="Helvetica,sans-Serif" font-size="10.00">Om::DefaultGiveable</text>
<text text-anchor="middle" x="1526" y="-193" font-family="Helvetica,sans-Serif" font-size="10.00">&lt; Expression, Program &gt;</text>
</a>
</g>
</g>
<!-- Node11&#45;&gt;Node10 -->
<g id="edge3" class="edge"><title>Node11&#45;&gt;Node10</title>
<path fill="none" stroke="midnightblue" d="M1599.63,-200.73C1634.96,-200.599 1677.57,-200.44 1714.06,-200.305"/>
<polygon fill="midnightblue" stroke="midnightblue" points="1599.38,-197.231 1589.39,-200.768 1599.4,-204.231 1599.38,-197.231"/>
</g>
<!-- Node12 -->
<g id="node5" class="node"><title>Node12</title>
<g id="a_node5"><a xlink:href="class_om_1_1_default_moveable.html" target="_top" xlink:title=" ">
<polygon fill="none" stroke="black" points="1228.21,-182 1228.21,-220 1381.79,-220 1381.79,-182 1228.21,-182"/>
<text text-anchor="start" x="1236.21" y="-208" font-family="Helvetica,sans-Serif" font-size="10.00">Om::DefaultMoveable</text>
<text text-anchor="start" x="1236.21" y="-198" font-family="Helvetica,sans-Serif" font-size="10.00">&lt; Expression, DefaultCopyable</text>
<text text-anchor="middle" x="1305" y="-188" font-family="Helvetica,sans-Serif" font-size="10.00">&lt; Expression, Program &gt; &gt;</text>
</a>
</g>
</g>
<!-- Node12&#45;&gt;Node11 -->
<g id="edge4" class="edge"><title>Node12&#45;&gt;Node11</title>
<path fill="none" stroke="midnightblue" d="M1392.28,-201C1415.75,-201 1440.7,-201 1462.57,-201"/>
<polygon fill="midnightblue" stroke="midnightblue" points="1391.98,-197.5 1381.98,-201 1391.98,-204.5 1391.98,-197.5"/>
</g>
<!-- Node13 -->
<g id="node6" class="node"><title>Node13</title>
<g id="a_node6"><a xlink:href="class_om_1_1_default_copyable.html" target="_top" xlink:title=" ">
<polygon fill="none" stroke="black" points="992.697,-188 992.697,-216 1119.3,-216 1119.3,-188 992.697,-188"/>
<text text-anchor="start" x="1000.7" y="-204" font-family="Helvetica,sans-Serif" font-size="10.00">Om::DefaultCopyable</text>
<text text-anchor="middle" x="1056" y="-194" font-family="Helvetica,sans-Serif" font-size="10.00">&lt; Expression, Program &gt;</text>
</a>
</g>
</g>
<!-- Node13&#45;&gt;Node12 -->
<g id="edge5" class="edge"><title>Node13&#45;&gt;Node12</title>
<path fill="none" stroke="midnightblue" d="M1129.61,-201.706C1160.57,-201.581 1196.7,-201.434 1228.01,-201.308"/>
<polygon fill="midnightblue" stroke="midnightblue" points="1129.31,-198.207 1119.33,-201.748 1129.34,-205.207 1129.31,-198.207"/>
</g>
<!-- Node14 -->
<g id="node7" class="node"><title>Node14</title>
<g id="a_node7"><a xlink:title=" ">
<polygon fill="none" stroke="#bfbfbf" points="833.828,-193 833.828,-211 888.172,-211 888.172,-193 833.828,-193"/>
<text text-anchor="middle" x="861" y="-199" font-family="Helvetica,sans-Serif" font-size="10.00">Program</text>
</a>
</g>
</g>
<!-- Node14&#45;&gt;Node13 -->
<g id="edge6" class="edge"><title>Node14&#45;&gt;Node13</title>
<path fill="none" stroke="midnightblue" d="M898.747,-202C925.159,-202 961.417,-202 992.357,-202"/>
<polygon fill="midnightblue" stroke="midnightblue" points="898.431,-198.5 888.431,-202 898.431,-205.5 898.431,-198.5"/>
</g>
<!-- Node15 -->
<g id="node8" class="node"><title>Node15</title>
<g id="a_node8"><a xlink:href="class_om_1_1_taker.html" target="_top" xlink:title=" ">
<polygon fill="none" stroke="black" points="1732.59,-144 1732.59,-162 1861.41,-162 1861.41,-144 1732.59,-144"/>
<text text-anchor="middle" x="1797" y="-150" font-family="Helvetica,sans-Serif" font-size="10.00">Om::Taker&lt; Expression &gt;</text>
</a>
</g>
</g>
<!-- Node15&#45;&gt;Node9 -->
<g id="edge7" class="edge"><title>Node15&#45;&gt;Node9</title>
<path fill="none" stroke="midnightblue" d="M1871.78,-153C1899.7,-153 1931.56,-153 1959.87,-153"/>
<polygon fill="midnightblue" stroke="midnightblue" points="1871.69,-149.5 1861.69,-153 1871.69,-156.5 1871.69,-149.5"/>
</g>
<!-- Node16 -->
<g id="node9" class="node"><title>Node16</title>
<g id="a_node9"><a xlink:title=" ">
<polygon fill="none" stroke="#bfbfbf" points="1987.36,-102 1987.36,-120 2090.64,-120 2090.64,-102 1987.36,-102"/>
<text text-anchor="middle" x="2039" y="-108" font-family="Helvetica,sans-Serif" font-size="10.00">std::deque&lt; Form &gt;</text>
</a>
</g>
</g>
<!-- Node16&#45;&gt;Node8 -->
<g id="edge8" class="edge"><title>Node16&#45;&gt;Node8</title>
<path fill="none" stroke="#9a32cd" stroke-dasharray="5,2" d="M2101.11,-116.293C2138.76,-119.554 2187.1,-123.741 2225.97,-127.108"/>
<polygon fill="#9a32cd" stroke="#9a32cd" points="2101.05,-112.775 2090.79,-115.399 2100.45,-119.749 2101.05,-112.775"/>
<text text-anchor="middle" x="2172" y="-127" font-family="Helvetica,sans-Serif" font-size="10.00"> thisFormDeque</text>
</g>
<!-- Node17 -->
<g id="node10" class="node"><title>Node17</title>
<g id="a_node10"><a xlink:href="class_om_1_1_language_1_1_form.html" target="_top" xlink:title="An Operator (which may be empty), followed by zero or more Operand instances.">
<polygon fill="none" stroke="black" points="1741.48,-102 1741.48,-120 1852.52,-120 1852.52,-102 1741.48,-102"/>
<text text-anchor="middle" x="1797" y="-108" font-family="Helvetica,sans-Serif" font-size="10.00">Om::Language::Form</text>
</a>
</g>
</g>
<!-- Node17&#45;&gt;Node16 -->
<g id="edge9" class="edge"><title>Node17&#45;&gt;Node16</title>
<path fill="none" stroke="#9a32cd" stroke-dasharray="5,2" d="M1862.97,-111C1902.01,-111 1950.96,-111 1987.16,-111"/>
<polygon fill="#9a32cd" stroke="#9a32cd" points="1862.76,-107.5 1852.76,-111 1862.76,-114.5 1862.76,-107.5"/>
<text text-anchor="middle" x="1920" y="-113" font-family="Helvetica,sans-Serif" font-size="10.00"> elements</text>
</g>
<!-- Node18 -->
<g id="node11" class="node"><title>Node18</title>
<g id="a_node11"><a xlink:title=" ">
<polygon fill="none" stroke="#bfbfbf" points="1466.57,-102 1466.57,-120 1585.43,-120 1585.43,-102 1466.57,-102"/>
<text text-anchor="middle" x="1526" y="-108" font-family="Helvetica,sans-Serif" font-size="10.00">std::deque&lt; Operand &gt;</text>
</a>
</g>
</g>
<!-- Node18&#45;&gt;Node17 -->
<g id="edge10" class="edge"><title>Node18&#45;&gt;Node17</title>
<path fill="none" stroke="#9a32cd" stroke-dasharray="5,2" d="M1595.7,-111C1640.82,-111 1699.06,-111 1741.09,-111"/>
<polygon fill="#9a32cd" stroke="#9a32cd" points="1595.7,-107.5 1585.7,-111 1595.7,-114.5 1595.7,-107.5"/>
<text text-anchor="middle" x="1652" y="-113" font-family="Helvetica,sans-Serif" font-size="10.00"> thisOperandDeque</text>
</g>
<!-- Node19 -->
<g id="node12" class="node"><title>Node19</title>
<g id="a_node12"><a xlink:href="class_om_1_1_language_1_1_operand.html" target="_top" xlink:title="The Operand implementation.">
<polygon fill="none" stroke="black" points="1241.69,-102 1241.69,-120 1368.31,-120 1368.31,-102 1241.69,-102"/>
<text text-anchor="middle" x="1305" y="-108" font-family="Helvetica,sans-Serif" font-size="10.00">Om::Language::Operand</text>
</a>
</g>
</g>
<!-- Node19&#45;&gt;Node18 -->
<g id="edge11" class="edge"><title>Node19&#45;&gt;Node18</title>
<path fill="none" stroke="#9a32cd" stroke-dasharray="5,2" d="M1378.75,-111C1407.16,-111 1439.31,-111 1466.22,-111"/>
<polygon fill="#9a32cd" stroke="#9a32cd" points="1378.46,-107.5 1368.46,-111 1378.46,-114.5 1378.46,-107.5"/>
<text text-anchor="middle" x="1422" y="-113" font-family="Helvetica,sans-Serif" font-size="10.00"> elements</text>
</g>
<!-- Node20 -->
<g id="node13" class="node"><title>Node20</title>
<g id="a_node13"><a xlink:href="class_om_1_1_language_1_1_default_element.html" target="_top" xlink:title=" ">
<polygon fill="none" stroke="black" points="977.958,-141 977.958,-169 1134.04,-169 1134.04,-141 977.958,-141"/>
<text text-anchor="start" x="985.958" y="-157" font-family="Helvetica,sans-Serif" font-size="10.00">Om::Language::DefaultElement</text>
<text text-anchor="middle" x="1056" y="-147" font-family="Helvetica,sans-Serif" font-size="10.00">&lt; Operand &gt;</text>
</a>
</g>
</g>
<!-- Node20&#45;&gt;Node19 -->
<g id="edge12" class="edge"><title>Node20&#45;&gt;Node19</title>
<path fill="none" stroke="midnightblue" d="M1144.28,-139.452C1180.73,-132.959 1221.79,-125.645 1253.15,-120.058"/>
<polygon fill="midnightblue" stroke="midnightblue" points="1143.37,-136.06 1134.14,-141.259 1144.6,-142.951 1143.37,-136.06"/>
</g>
<!-- Node21 -->
<g id="node14" class="node"><title>Node21</title>
<g id="a_node14"><a xlink:href="class_om_1_1_language_1_1_default_program.html" target="_top" xlink:title=" ">
<polygon fill="none" stroke="black" points="782.128,-141 782.128,-169 939.872,-169 939.872,-141 782.128,-141"/>
<text text-anchor="start" x="790.128" y="-157" font-family="Helvetica,sans-Serif" font-size="10.00">Om::Language::DefaultProgram</text>
<text text-anchor="middle" x="861" y="-147" font-family="Helvetica,sans-Serif" font-size="10.00">&lt; Operand, Element &gt;</text>
</a>
</g>
</g>
<!-- Node21&#45;&gt;Node20 -->
<g id="edge13" class="edge"><title>Node21&#45;&gt;Node20</title>
<path fill="none" stroke="midnightblue" d="M950.235,-155C959.403,-155 968.672,-155 977.706,-155"/>
<polygon fill="midnightblue" stroke="midnightblue" points="949.944,-151.5 939.944,-155 949.944,-158.5 949.944,-151.5"/>
</g>
<!-- Node22 -->
<g id="node15" class="node"><title>Node22</title>
<g id="a_node15"><a xlink:href="class_om_1_1_language_1_1_default_consumer.html" target="_top" xlink:title=" ">
<polygon fill="none" stroke="black" points="578.237,-170 578.237,-208 743.763,-208 743.763,-170 578.237,-170"/>
<text text-anchor="start" x="586.237" y="-196" font-family="Helvetica,sans-Serif" font-size="10.00">Om::Language::DefaultConsumer</text>
<text text-anchor="start" x="586.237" y="-186" font-family="Helvetica,sans-Serif" font-size="10.00">&lt; Operand, DefaultGiveable</text>
<text text-anchor="middle" x="661" y="-176" font-family="Helvetica,sans-Serif" font-size="10.00">&lt; Operand, Element &gt; &gt;</text>
</a>
</g>
</g>
<!-- Node22&#45;&gt;Node21 -->
<g id="edge14" class="edge"><title>Node22&#45;&gt;Node21</title>
<path fill="none" stroke="midnightblue" d="M754.031,-173.197C763.354,-171.596 772.76,-169.981 781.915,-168.409"/>
<polygon fill="midnightblue" stroke="midnightblue" points="753.227,-169.783 743.963,-174.925 754.412,-176.682 753.227,-169.783"/>
</g>
<!-- Node23 -->
<g id="node16" class="node"><title>Node23</title>
<g id="a_node16"><a xlink:href="class_om_1_1_default_giveable.html" target="_top" xlink:title=" ">
<polygon fill="none" stroke="black" points="425.803,-175 425.803,-203 540.197,-203 540.197,-175 425.803,-175"/>
<text text-anchor="start" x="433.803" y="-191" font-family="Helvetica,sans-Serif" font-size="10.00">Om::DefaultGiveable</text>
<text text-anchor="middle" x="483" y="-181" font-family="Helvetica,sans-Serif" font-size="10.00">&lt; Operand, Element &gt;</text>
</a>
</g>
</g>
<!-- Node23&#45;&gt;Node22 -->
<g id="edge15" class="edge"><title>Node23&#45;&gt;Node22</title>
<path fill="none" stroke="midnightblue" d="M550.933,-189C559.827,-189 569.026,-189 578.137,-189"/>
<polygon fill="midnightblue" stroke="midnightblue" points="550.656,-185.5 540.656,-189 550.656,-192.5 550.656,-185.5"/>
</g>
<!-- Node24 -->
<g id="node17" class="node"><title>Node24</title>
<g id="a_node17"><a xlink:href="class_om_1_1_default_moveable.html" target="_top" xlink:title=" ">
<polygon fill="none" stroke="black" points="244.487,-170 244.487,-208 387.513,-208 387.513,-170 244.487,-170"/>
<text text-anchor="start" x="252.487" y="-196" font-family="Helvetica,sans-Serif" font-size="10.00">Om::DefaultMoveable</text>
<text text-anchor="start" x="252.487" y="-186" font-family="Helvetica,sans-Serif" font-size="10.00">&lt; Operand, DefaultCopyable</text>
<text text-anchor="middle" x="316" y="-176" font-family="Helvetica,sans-Serif" font-size="10.00">&lt; Operand, Element &gt; &gt;</text>
</a>
</g>
</g>
<!-- Node24&#45;&gt;Node23 -->
<g id="edge16" class="edge"><title>Node24&#45;&gt;Node23</title>
<path fill="none" stroke="midnightblue" d="M398.01,-189C407.328,-189 416.67,-189 425.563,-189"/>
<polygon fill="midnightblue" stroke="midnightblue" points="397.932,-185.5 387.932,-189 397.932,-192.5 397.932,-185.5"/>
</g>
<!-- Node25 -->
<g id="node18" class="node"><title>Node25</title>
<g id="a_node18"><a xlink:href="class_om_1_1_default_copyable.html" target="_top" xlink:title=" ">
<polygon fill="none" stroke="black" points="91.8032,-175 91.8032,-203 206.197,-203 206.197,-175 91.8032,-175"/>
<text text-anchor="start" x="99.8032" y="-191" font-family="Helvetica,sans-Serif" font-size="10.00">Om::DefaultCopyable</text>
<text text-anchor="middle" x="149" y="-181" font-family="Helvetica,sans-Serif" font-size="10.00">&lt; Operand, Element &gt;</text>
</a>
</g>
</g>
<!-- Node25&#45;&gt;Node24 -->
<g id="edge17" class="edge"><title>Node25&#45;&gt;Node24</title>
<path fill="none" stroke="midnightblue" d="M216.521,-189C225.68,-189 235.112,-189 244.342,-189"/>
<polygon fill="midnightblue" stroke="midnightblue" points="216.322,-185.5 206.322,-189 216.322,-192.5 216.322,-185.5"/>
</g>
<!-- Node26 -->
<g id="node19" class="node"><title>Node26</title>
<g id="a_node19"><a xlink:title=" ">
<polygon fill="none" stroke="#bfbfbf" points="0.657715,-180 0.657715,-198 53.3423,-198 53.3423,-180 0.657715,-180"/>
<text text-anchor="middle" x="27" y="-186" font-family="Helvetica,sans-Serif" font-size="10.00">Element</text>
</a>
</g>
</g>
<!-- Node26&#45;&gt;Node25 -->
<g id="edge18" class="edge"><title>Node26&#45;&gt;Node25</title>
<path fill="none" stroke="midnightblue" d="M63.6551,-189C72.4134,-189 82.0053,-189 91.4809,-189"/>
<polygon fill="midnightblue" stroke="midnightblue" points="63.4489,-185.5 53.4489,-189 63.4489,-192.5 63.4489,-185.5"/>
</g>
<!-- Node27 -->
<g id="node20" class="node"><title>Node27</title>
<g id="a_node20"><a xlink:href="class_om_1_1_taker.html" target="_top" xlink:title=" ">
<polygon fill="none" stroke="black" points="601.865,-133 601.865,-151 720.135,-151 720.135,-133 601.865,-133"/>
<text text-anchor="middle" x="661" y="-139" font-family="Helvetica,sans-Serif" font-size="10.00">Om::Taker&lt; Operand &gt;</text>
</a>
</g>
</g>
<!-- Node27&#45;&gt;Node21 -->
<g id="edge19" class="edge"><title>Node27&#45;&gt;Node21</title>
<path fill="none" stroke="midnightblue" d="M730.478,-146.496C747.06,-147.585 764.908,-148.757 781.896,-149.872"/>
<polygon fill="midnightblue" stroke="midnightblue" points="730.543,-142.993 720.336,-145.83 730.085,-149.978 730.543,-142.993"/>
</g>
<!-- Node28 -->
<g id="node21" class="node"><title>Node28</title>
<g id="a_node21"><a xlink:href="class_om_1_1_owner.html" target="_top" xlink:title=" ">
<polygon fill="none" stroke="black" points="985.053,-94 985.053,-122 1126.95,-122 1126.95,-94 985.053,-94"/>
<text text-anchor="start" x="993.053" y="-110" font-family="Helvetica,sans-Serif" font-size="10.00">Om::Owner&lt; Om::Language</text>
<text text-anchor="middle" x="1056" y="-100" font-family="Helvetica,sans-Serif" font-size="10.00">::Program &gt;</text>
</a>
</g>
</g>
<!-- Node28&#45;&gt;Node19 -->
<g id="edge20" class="edge"><title>Node28&#45;&gt;Node19</title>
<path fill="none" stroke="#9a32cd" stroke-dasharray="5,2" d="M1137.41,-108.977C1171.13,-109.386 1209.74,-109.855 1241.29,-110.238"/>
<polygon fill="#9a32cd" stroke="#9a32cd" points="1137.16,-105.473 1127.12,-108.852 1137.08,-112.473 1137.16,-105.473"/>
<text text-anchor="middle" x="1181" y="-111" font-family="Helvetica,sans-Serif" font-size="10.00"> thisProgram</text>
</g>
<!-- Node29 -->
<g id="node22" class="node"><title>Node29</title>
<g id="a_node22"><a xlink:href="class_om_1_1_taker.html" target="_top" xlink:title=" ">
<polygon fill="none" stroke="black" points="797.407,-94 797.407,-122 924.593,-122 924.593,-94 797.407,-94"/>
<text text-anchor="start" x="805.407" y="-110" font-family="Helvetica,sans-Serif" font-size="10.00">Om::Taker&lt; Owner&lt; Om</text>
<text text-anchor="middle" x="861" y="-100" font-family="Helvetica,sans-Serif" font-size="10.00">::Language::Program &gt; &gt;</text>
</a>
</g>
</g>
<!-- Node29&#45;&gt;Node28 -->
<g id="edge21" class="edge"><title>Node29&#45;&gt;Node28</title>
<path fill="none" stroke="midnightblue" d="M934.757,-108C951.205,-108 968.635,-108 984.968,-108"/>
<polygon fill="midnightblue" stroke="midnightblue" points="934.662,-104.5 924.662,-108 934.662,-111.5 934.662,-104.5"/>
</g>
<!-- Node30 -->
<g id="node23" class="node"><title>Node30</title>
<g id="a_node23"><a xlink:href="class_om_1_1_language_1_1_operator.html" target="_top" xlink:title="The Operator implementation.">
<polygon fill="none" stroke="black" points="1462.41,-59 1462.41,-77 1589.59,-77 1589.59,-59 1462.41,-59"/>
<text text-anchor="middle" x="1526" y="-65" font-family="Helvetica,sans-Serif" font-size="10.00">Om::Language::Operator</text>
</a>
</g>
</g>
<!-- Node30&#45;&gt;Node17 -->
<g id="edge22" class="edge"><title>Node30&#45;&gt;Node17</title>
<path fill="none" stroke="#9a32cd" stroke-dasharray="5,2" d="M1593.44,-78.6206C1638.85,-85.8802 1698.33,-95.3866 1741.06,-102.218"/>
<polygon fill="#9a32cd" stroke="#9a32cd" points="1593.82,-75.1366 1583.39,-77.0142 1592.71,-82.0489 1593.82,-75.1366"/>
<text text-anchor="middle" x="1652" y="-96" font-family="Helvetica,sans-Serif" font-size="10.00"> thisOperator</text>
</g>
<!-- Node31 -->
<g id="node24" class="node"><title>Node31</title>
<g id="a_node24"><a xlink:href="class_om_1_1_language_1_1_default_atom.html" target="_top" xlink:title=" ">
<polygon fill="none" stroke="black" points="1233.63,-47 1233.63,-75 1376.37,-75 1376.37,-47 1233.63,-47"/>
<text text-anchor="start" x="1241.63" y="-63" font-family="Helvetica,sans-Serif" font-size="10.00">Om::Language::DefaultAtom</text>
<text text-anchor="middle" x="1305" y="-53" font-family="Helvetica,sans-Serif" font-size="10.00">&lt; Operator &gt;</text>
</a>
</g>
</g>
<!-- Node31&#45;&gt;Node30 -->
<g id="edge23" class="edge"><title>Node31&#45;&gt;Node30</title>
<path fill="none" stroke="midnightblue" d="M1386.69,-63.5791C1411.68,-64.3779 1438.83,-65.2456 1462.4,-65.999"/>
<polygon fill="midnightblue" stroke="midnightblue" points="1386.61,-60.0747 1376.5,-63.2534 1386.38,-67.0712 1386.61,-60.0747"/>
</g>
<!-- Node32 -->
<g id="node25" class="node"><title>Node32</title>
<g id="a_node25"><a xlink:href="class_om_1_1_language_1_1_default_element.html" target="_top" xlink:title=" ">
<polygon fill="none" stroke="black" points="977.958,-47 977.958,-75 1134.04,-75 1134.04,-47 977.958,-47"/>
<text text-anchor="start" x="985.958" y="-63" font-family="Helvetica,sans-Serif" font-size="10.00">Om::Language::DefaultElement</text>
<text text-anchor="middle" x="1056" y="-53" font-family="Helvetica,sans-Serif" font-size="10.00">&lt; Operator, Atom &gt;</text>
</a>
</g>
</g>
<!-- Node32&#45;&gt;Node31 -->
<g id="edge24" class="edge"><title>Node32&#45;&gt;Node31</title>
<path fill="none" stroke="midnightblue" d="M1144.32,-61C1173.48,-61 1205.59,-61 1233.32,-61"/>
<polygon fill="midnightblue" stroke="midnightblue" points="1144.14,-57.5001 1134.14,-61 1144.14,-64.5001 1144.14,-57.5001"/>
</g>
<!-- Node33 -->
<g id="node26" class="node"><title>Node33</title>
<g id="a_node26"><a xlink:href="class_om_1_1_language_1_1_default_program.html" target="_top" xlink:title=" ">
<polygon fill="none" stroke="black" points="782.128,-47 782.128,-75 939.872,-75 939.872,-47 782.128,-47"/>
<text text-anchor="start" x="790.128" y="-63" font-family="Helvetica,sans-Serif" font-size="10.00">Om::Language::DefaultProgram</text>
<text text-anchor="middle" x="861" y="-53" font-family="Helvetica,sans-Serif" font-size="10.00">&lt; Operator, Atom &gt;</text>
</a>
</g>
</g>
<!-- Node33&#45;&gt;Node32 -->
<g id="edge25" class="edge"><title>Node33&#45;&gt;Node32</title>
<path fill="none" stroke="midnightblue" d="M950.235,-61C959.403,-61 968.672,-61 977.706,-61"/>
<polygon fill="midnightblue" stroke="midnightblue" points="949.944,-57.5001 939.944,-61 949.944,-64.5001 949.944,-57.5001"/>
</g>
<!-- Node34 -->
<g id="node27" class="node"><title>Node34</title>
<g id="a_node27"><a xlink:href="class_om_1_1_language_1_1_default_consumer.html" target="_top" xlink:title=" ">
<polygon fill="none" stroke="black" points="578.237,-65 578.237,-103 743.763,-103 743.763,-65 578.237,-65"/>
<text text-anchor="start" x="586.237" y="-91" font-family="Helvetica,sans-Serif" font-size="10.00">Om::Language::DefaultConsumer</text>
<text text-anchor="start" x="586.237" y="-81" font-family="Helvetica,sans-Serif" font-size="10.00">&lt; Operator, DefaultGiveable</text>
<text text-anchor="middle" x="661" y="-71" font-family="Helvetica,sans-Serif" font-size="10.00">&lt; Operator, Atom &gt; &gt;</text>
</a>
</g>
</g>
<!-- Node34&#45;&gt;Node33 -->
<g id="edge26" class="edge"><title>Node34&#45;&gt;Node33</title>
<path fill="none" stroke="midnightblue" d="M754.031,-73.3095C763.354,-72.2266 772.76,-71.134 781.915,-70.0705"/>
<polygon fill="midnightblue" stroke="midnightblue" points="753.493,-69.8484 743.963,-74.479 754.301,-76.8017 753.493,-69.8484"/>
</g>
<!-- Node35 -->
<g id="node28" class="node"><title>Node35</title>
<g id="a_node28"><a xlink:href="class_om_1_1_default_giveable.html" target="_top" xlink:title=" ">
<polygon fill="none" stroke="black" points="428.591,-70 428.591,-98 537.409,-98 537.409,-70 428.591,-70"/>
<text text-anchor="start" x="436.591" y="-86" font-family="Helvetica,sans-Serif" font-size="10.00">Om::DefaultGiveable</text>
<text text-anchor="middle" x="483" y="-76" font-family="Helvetica,sans-Serif" font-size="10.00">&lt; Operator, Atom &gt;</text>
</a>
</g>
</g>
<!-- Node35&#45;&gt;Node34 -->
<g id="edge27" class="edge"><title>Node35&#45;&gt;Node34</title>
<path fill="none" stroke="midnightblue" d="M547.817,-84C557.639,-84 567.896,-84 578.046,-84"/>
<polygon fill="midnightblue" stroke="midnightblue" points="547.762,-80.5001 537.762,-84 547.762,-87.5001 547.762,-80.5001"/>
</g>
<!-- Node36 -->
<g id="node29" class="node"><title>Node36</title>
<g id="a_node29"><a xlink:href="class_om_1_1_default_moveable.html" target="_top" xlink:title=" ">
<polygon fill="none" stroke="black" points="244.487,-65 244.487,-103 387.513,-103 387.513,-65 244.487,-65"/>
<text text-anchor="start" x="252.487" y="-91" font-family="Helvetica,sans-Serif" font-size="10.00">Om::DefaultMoveable</text>
<text text-anchor="start" x="252.487" y="-81" font-family="Helvetica,sans-Serif" font-size="10.00">&lt; Operator, DefaultCopyable</text>
<text text-anchor="middle" x="316" y="-71" font-family="Helvetica,sans-Serif" font-size="10.00">&lt; Operator, Atom &gt; &gt;</text>
</a>
</g>
</g>
<!-- Node36&#45;&gt;Node35 -->
<g id="edge28" class="edge"><title>Node36&#45;&gt;Node35</title>
<path fill="none" stroke="midnightblue" d="M398.208,-84C408.517,-84 418.853,-84 428.572,-84"/>
<polygon fill="midnightblue" stroke="midnightblue" points="397.932,-80.5001 387.932,-84 397.932,-87.5001 397.932,-80.5001"/>
</g>
<!-- Node37 -->
<g id="node30" class="node"><title>Node37</title>
<g id="a_node30"><a xlink:href="class_om_1_1_default_copyable.html" target="_top" xlink:title=" ">
<polygon fill="none" stroke="black" points="93.1997,-70 93.1997,-98 204.8,-98 204.8,-70 93.1997,-70"/>
<text text-anchor="start" x="101.2" y="-86" font-family="Helvetica,sans-Serif" font-size="10.00">Om::DefaultCopyable</text>
<text text-anchor="middle" x="149" y="-76" font-family="Helvetica,sans-Serif" font-size="10.00">&lt; Operator, Atom &gt;</text>
</a>
</g>
</g>
<!-- Node37&#45;&gt;Node36 -->
<g id="edge29" class="edge"><title>Node37&#45;&gt;Node36</title>
<path fill="none" stroke="midnightblue" d="M215.209,-84C224.812,-84 234.742,-84 244.447,-84"/>
<polygon fill="midnightblue" stroke="midnightblue" points="214.943,-80.5001 204.943,-84 214.943,-87.5001 214.943,-80.5001"/>
</g>
<!-- Node38 -->
<g id="node31" class="node"><title>Node38</title>
<g id="a_node31"><a xlink:title=" ">
<polygon fill="none" stroke="#bfbfbf" points="7.33008,-75 7.33008,-93 46.6699,-93 46.6699,-75 7.33008,-75"/>
<text text-anchor="middle" x="27" y="-81" font-family="Helvetica,sans-Serif" font-size="10.00">Atom</text>
</a>
</g>
</g>
<!-- Node38&#45;&gt;Node37 -->
<g id="edge30" class="edge"><title>Node38&#45;&gt;Node37</title>
<path fill="none" stroke="midnightblue" d="M56.9339,-84C67.8276,-84 80.608,-84 93.0922,-84"/>
<polygon fill="midnightblue" stroke="midnightblue" points="56.75,-80.5001 46.75,-84 56.75,-87.5001 56.75,-80.5001"/>
</g>
<!-- Node39 -->
<g id="node32" class="node"><title>Node39</title>
<g id="a_node32"><a xlink:href="class_om_1_1_taker.html" target="_top" xlink:title=" ">
<polygon fill="none" stroke="black" points="601.591,-28 601.591,-46 720.409,-46 720.409,-28 601.591,-28"/>
<text text-anchor="middle" x="661" y="-34" font-family="Helvetica,sans-Serif" font-size="10.00">Om::Taker&lt; Operator &gt;</text>
</a>
</g>
</g>
<!-- Node39&#45;&gt;Node33 -->
<g id="edge31" class="edge"><title>Node39&#45;&gt;Node33</title>
<path fill="none" stroke="midnightblue" d="M730.739,-45.3321C747.309,-47.3405 765.131,-49.5007 782.087,-51.5559"/>
<polygon fill="midnightblue" stroke="midnightblue" points="730.951,-41.8322 720.603,-44.1034 730.109,-48.7813 730.951,-41.8322"/>
</g>
<!-- Node40 -->
<g id="node33" class="node"><title>Node40</title>
<g id="a_node33"><a xlink:title="STL class.">
<polygon fill="none" stroke="#bfbfbf" points="1026.33,-8 1026.33,-26 1085.67,-26 1085.67,-8 1026.33,-8"/>
<text text-anchor="middle" x="1056" y="-14" font-family="Helvetica,sans-Serif" font-size="10.00">std::string</text>
</a>
</g>
</g>
<!-- Node40&#45;&gt;Node31 -->
<g id="edge32" class="edge"><title>Node40&#45;&gt;Node31</title>
<path fill="none" stroke="#9a32cd" stroke-dasharray="5,2" d="M1096.13,-23.9697C1132.92,-30.5249 1188.87,-40.4911 1233.46,-48.4336"/>
<polygon fill="#9a32cd" stroke="#9a32cd" points="1096.28,-20.4416 1085.82,-22.1335 1095.05,-27.3331 1096.28,-20.4416"/>
<text text-anchor="middle" x="1181" y="-47" font-family="Helvetica,sans-Serif" font-size="10.00"> thisString</text>
</g>
<!-- Node41 -->
<g id="node34" class="node"><title>Node41</title>
<g id="a_node34"><a xlink:title="STL class.">
<polygon fill="none" stroke="#bfbfbf" points="813.952,-0 813.952,-28 908.048,-28 908.048,-0 813.952,-0"/>
<text text-anchor="start" x="821.952" y="-16" font-family="Helvetica,sans-Serif" font-size="10.00">std::basic_string&lt;</text>
<text text-anchor="middle" x="861" y="-6" font-family="Helvetica,sans-Serif" font-size="10.00"> char &gt;</text>
</a>
</g>
</g>
<!-- Node41&#45;&gt;Node40 -->
<g id="edge33" class="edge"><title>Node41&#45;&gt;Node40</title>
<path fill="none" stroke="midnightblue" d="M918.419,-14.877C953.774,-15.4265 997.858,-16.1118 1026.21,-16.5526"/>
<polygon fill="midnightblue" stroke="midnightblue" points="918.282,-11.3745 908.228,-14.7186 918.173,-18.3737 918.282,-11.3745"/>
</g>
</g>
</svg>
