<?xml version="1.0" encoding="UTF-8" standalone="no"?>
<!DOCTYPE svg PUBLIC "-//W3C//DTD SVG 1.1//EN"
 "http://www.w3.org/Graphics/SVG/1.1/DTD/svg11.dtd">
<!-- Generated by graphviz version 2.28.0 (20120817.0054)
 -->
<!-- Title: Om::DefaultGiveable&lt; ThisImplementation, ThisInterface &gt; Pages: 1 -->
<svg width="588pt" height="60pt"
 viewBox="0.00 0.00 588.00 60.00" xmlns="http://www.w3.org/2000/svg" xmlns:xlink="http://www.w3.org/1999/xlink">
<g id="graph1" class="graph" transform="scale(1 1) rotate(0) translate(4 56)">
<title>Om::DefaultGiveable&lt; ThisImplementation, ThisInterface &gt;</title>
<!-- Node1 -->
<g id="node1" class="node"><title>Node1</title>
<polygon fill="#bfbfbf" stroke="black" points="472.5,-5.5 472.5,-46.5 579.5,-46.5 579.5,-5.5 472.5,-5.5"/>
<text text-anchor="start" x="480.5" y="-34.5" font-family="Helvetica,sans-Serif" font-size="10.00">Om::DefaultGiveable</text>
<text text-anchor="start" x="480.5" y="-23.5" font-family="Helvetica,sans-Serif" font-size="10.00">&lt; ThisImplementation,</text>
<text text-anchor="middle" x="526" y="-12.5" font-family="Helvetica,sans-Serif" font-size="10.00"> ThisInterface &gt;</text>
</g>
<!-- Node2 -->
<g id="node2" class="node"><title>Node2</title>
<a xlink:href="class_om_1_1_default_moveable.html" target="_top" xlink:title="Om::DefaultMoveable\l\&lt; ThisImplementation,\l DefaultCopyable\&lt; ThisImplementation,\l ThisInterface \&gt; \&gt;">
<polygon fill="none" stroke="black" points="252.5,-0 252.5,-52 435.5,-52 435.5,-0 252.5,-0"/>
<text text-anchor="start" x="260.5" y="-40" font-family="Helvetica,sans-Serif" font-size="10.00">Om::DefaultMoveable</text>
<text text-anchor="start" x="260.5" y="-29" font-family="Helvetica,sans-Serif" font-size="10.00">&lt; ThisImplementation,</text>
<text text-anchor="start" x="260.5" y="-18" font-family="Helvetica,sans-Serif" font-size="10.00"> DefaultCopyable&lt; ThisImplementation,</text>
<text text-anchor="middle" x="344" y="-7" font-family="Helvetica,sans-Serif" font-size="10.00"> ThisInterface &gt; &gt;</text>
</a>
</g>
<!-- Node2&#45;&gt;Node1 -->
<g id="edge2" class="edge"><title>Node2&#45;&gt;Node1</title>
<path fill="none" stroke="midnightblue" d="M445.552,-26C454.753,-26 463.805,-26 472.316,-26"/>
<polygon fill="midnightblue" stroke="midnightblue" points="445.527,-22.5001 435.527,-26 445.527,-29.5001 445.527,-22.5001"/>
</g>
<!-- Node3 -->
<g id="node4" class="node"><title>Node3</title>
<a xlink:href="class_om_1_1_default_copyable.html" target="_top" xlink:title="A partial implementation of Copyable.">
<polygon fill="none" stroke="black" points="106,-5.5 106,-46.5 216,-46.5 216,-5.5 106,-5.5"/>
<text text-anchor="start" x="114" y="-34.5" font-family="Helvetica,sans-Serif" font-size="10.00">Om::DefaultCopyable</text>
<text text-anchor="start" x="114" y="-23.5" font-family="Helvetica,sans-Serif" font-size="10.00">&lt; ThisImplementation,</text>
<text text-anchor="middle" x="161" y="-12.5" font-family="Helvetica,sans-Serif" font-size="10.00"> ThisInterface &gt;</text>
</a>
</g>
<!-- Node3&#45;&gt;Node2 -->
<g id="edge4" class="edge"><title>Node3&#45;&gt;Node2</title>
<path fill="none" stroke="midnightblue" d="M226.355,-26C234.744,-26 243.462,-26 252.183,-26"/>
<polygon fill="midnightblue" stroke="midnightblue" points="226.306,-22.5001 216.306,-26 226.306,-29.5001 226.306,-22.5001"/>
</g>
<!-- Node4 -->
<g id="node6" class="node"><title>Node4</title>
<polygon fill="none" stroke="#bfbfbf" points="0.5,-16.5 0.5,-35.5 69.5,-35.5 69.5,-16.5 0.5,-16.5"/>
<text text-anchor="middle" x="35" y="-23.5" font-family="Helvetica,sans-Serif" font-size="10.00">ThisInterface</text>
</g>
<!-- Node4&#45;&gt;Node3 -->
<g id="edge6" class="edge"><title>Node4&#45;&gt;Node3</title>
<path fill="none" stroke="midnightblue" d="M79.6064,-26C88.0909,-26 97.0807,-26 105.857,-26"/>
<polygon fill="midnightblue" stroke="midnightblue" points="79.5562,-22.5001 69.5562,-26 79.5562,-29.5001 79.5562,-22.5001"/>
</g>
</g>
</svg>
