<?xml version="1.0" encoding="UTF-8" standalone="no"?>
<!DOCTYPE svg PUBLIC "-//W3C//DTD SVG 1.1//EN"
 "http://www.w3.org/Graphics/SVG/1.1/DTD/svg11.dtd">
<!-- Generated by graphviz version 2.36.0 (20140111.2315)
 -->
<!-- Title: Om::Taker&lt; ThisImplementation &gt; Pages: 1 -->
<svg width="780pt" height="103pt"
 viewBox="0.00 0.00 780.00 103.00" xmlns="http://www.w3.org/2000/svg" xmlns:xlink="http://www.w3.org/1999/xlink">
<g id="graph0" class="graph" transform="scale(1 1) rotate(0) translate(4 99)">
<title>Om::Taker&lt; ThisImplementation &gt;</title>
<!-- Node1 -->
<g id="node1" class="node"><title>Node1</title>
<polygon fill="#bfbfbf" stroke="black" points="-0.219727,-39 -0.219727,-57 166.22,-57 166.22,-39 -0.219727,-39"/>
<text text-anchor="middle" x="83" y="-45" font-family="Helvetica,sans-Serif" font-size="10.00">Om::Taker&lt; ThisImplementation &gt;</text>
</g>
<!-- Node2 -->
<g id="node2" class="node"><title>Node2</title>
<g id="a_node2"><a xlink:href="class_om_1_1_default_program.html" target="_top" xlink:title="DefaultProgram\&lt; ThisImplementation,\l Atom \&gt;">
<polygon fill="none" stroke="black" points="202.745,-59 202.745,-87 387.255,-87 387.255,-59 202.745,-59"/>
<text text-anchor="start" x="210.745" y="-75" font-family="Helvetica,sans-Serif" font-size="10.00">DefaultProgram&lt; ThisImplementation,</text>
<text text-anchor="middle" x="295" y="-65" font-family="Helvetica,sans-Serif" font-size="10.00"> Atom &gt;</text>
</a>
</g>
</g>
<!-- Node1&#45;&gt;Node2 -->
<g id="edge1" class="edge"><title>Node1&#45;&gt;Node2</title>
<path fill="none" stroke="midnightblue" d="M170.002,-58.2383C180.73,-59.5155 191.732,-60.8253 202.54,-62.1119"/>
<polygon fill="midnightblue" stroke="midnightblue" points="170.158,-54.7323 159.815,-57.0256 169.331,-61.6832 170.158,-54.7323"/>
</g>
<!-- Node5 -->
<g id="node5" class="node"><title>Node5</title>
<g id="a_node5"><a xlink:href="class_om_1_1_default_program.html" target="_top" xlink:title="A partial implementation of Program. ">
<polygon fill="none" stroke="black" points="234.839,-10 234.839,-38 355.161,-38 355.161,-10 234.839,-10"/>
<text text-anchor="start" x="242.839" y="-26" font-family="Helvetica,sans-Serif" font-size="10.00">Om::DefaultProgram</text>
<text text-anchor="middle" x="295" y="-16" font-family="Helvetica,sans-Serif" font-size="10.00">&lt; ThisImplementation &gt;</text>
</a>
</g>
</g>
<!-- Node1&#45;&gt;Node5 -->
<g id="edge4" class="edge"><title>Node1&#45;&gt;Node5</title>
<path fill="none" stroke="midnightblue" d="M172.959,-37.8333C193.837,-35.4472 215.582,-32.9621 234.786,-30.7673"/>
<polygon fill="midnightblue" stroke="midnightblue" points="172.332,-34.3821 162.794,-38.995 173.126,-41.3368 172.332,-34.3821"/>
</g>
<!-- Node3 -->
<g id="node3" class="node"><title>Node3</title>
<g id="a_node3"><a xlink:href="class_om_1_1_default_element.html" target="_top" xlink:title="Om::DefaultElement\l\&lt; ThisImplementation,\l Atom \&gt;">
<polygon fill="none" stroke="black" points="423.759,-57 423.759,-95 538.241,-95 538.241,-57 423.759,-57"/>
<text text-anchor="start" x="431.759" y="-83" font-family="Helvetica,sans-Serif" font-size="10.00">Om::DefaultElement</text>
<text text-anchor="start" x="431.759" y="-73" font-family="Helvetica,sans-Serif" font-size="10.00">&lt; ThisImplementation,</text>
<text text-anchor="middle" x="481" y="-63" font-family="Helvetica,sans-Serif" font-size="10.00"> Atom &gt;</text>
</a>
</g>
</g>
<!-- Node2&#45;&gt;Node3 -->
<g id="edge2" class="edge"><title>Node2&#45;&gt;Node3</title>
<path fill="none" stroke="midnightblue" d="M397.582,-74.6562C406.516,-74.8019 415.329,-74.9456 423.678,-75.0817"/>
<polygon fill="midnightblue" stroke="midnightblue" points="397.517,-71.1548 387.461,-74.4912 397.403,-78.1539 397.517,-71.1548"/>
</g>
<!-- Node4 -->
<g id="node4" class="node"><title>Node4</title>
<g id="a_node4"><a xlink:href="class_om_1_1_default_atom.html" target="_top" xlink:title="A partial implementation of Atom. ">
<polygon fill="none" stroke="black" points="574.495,-67 574.495,-85 771.505,-85 771.505,-67 574.495,-67"/>
<text text-anchor="middle" x="673" y="-73" font-family="Helvetica,sans-Serif" font-size="10.00">Om::DefaultAtom&lt; ThisImplementation &gt;</text>
</a>
</g>
</g>
<!-- Node3&#45;&gt;Node4 -->
<g id="edge3" class="edge"><title>Node3&#45;&gt;Node4</title>
<path fill="none" stroke="midnightblue" d="M548.56,-76C556.963,-76 565.693,-76 574.452,-76"/>
<polygon fill="midnightblue" stroke="midnightblue" points="548.492,-72.5001 538.492,-76 548.492,-79.5001 548.492,-72.5001"/>
</g>
<!-- Node6 -->
<g id="node6" class="node"><title>Node6</title>
<g id="a_node6"><a xlink:href="class_om_1_1_default_element.html" target="_top" xlink:title="A partial implementation of Element. ">
<polygon fill="none" stroke="black" points="423.759,-0 423.759,-38 538.241,-38 538.241,-0 423.759,-0"/>
<text text-anchor="start" x="431.759" y="-26" font-family="Helvetica,sans-Serif" font-size="10.00">Om::DefaultElement</text>
<text text-anchor="start" x="431.759" y="-16" font-family="Helvetica,sans-Serif" font-size="10.00">&lt; ThisImplementation,</text>
<text text-anchor="middle" x="481" y="-6" font-family="Helvetica,sans-Serif" font-size="10.00"> ThisInterface &gt;</text>
</a>
</g>
</g>
<!-- Node5&#45;&gt;Node6 -->
<g id="edge5" class="edge"><title>Node5&#45;&gt;Node6</title>
<path fill="none" stroke="midnightblue" d="M365.445,-22.1129C384.678,-21.5903 405.314,-21.0295 423.698,-20.5299"/>
<polygon fill="midnightblue" stroke="midnightblue" points="365.133,-18.62 355.232,-22.3904 365.323,-25.6174 365.133,-18.62"/>
</g>
</g>
</svg>
