<?xml version="1.0" encoding="UTF-8" standalone="no"?>
<!DOCTYPE svg PUBLIC "-//W3C//DTD SVG 1.1//EN"
 "http://www.w3.org/Graphics/SVG/1.1/DTD/svg11.dtd">
<!-- Generated by graphviz version 2.30.1 (20130221.2233)
 -->
<!-- Title: Om::Evaluator Pages: 1 -->
<svg width="351pt" height="160pt"
 viewBox="0.00 0.00 351.00 160.00" xmlns="http://www.w3.org/2000/svg" xmlns:xlink="http://www.w3.org/1999/xlink">
<g id="graph0" class="graph" transform="scale(1 1) rotate(0) translate(4 156)">
<title>Om::Evaluator</title>
<!-- Node1 -->
<g id="node1" class="node"><title>Node1</title>
<polygon fill="#bfbfbf" stroke="black" points="154.044,-1 154.044,-21 233.956,-21 233.956,-1 154.044,-1"/>
<text text-anchor="middle" x="194" y="-7" font-family="Helvetica,sans-Serif" font-size="10.00">Om::Evaluator</text>
</g>
<!-- Node2 -->
<g id="node2" class="node"><title>Node2</title>
<g id="a_node2"><a xlink:href="class_om_1_1_default_queue.html" target="_top" xlink:title="Om::DefaultQueue\&lt; Evaluator \&gt;">
<polygon fill="none" stroke="black" points="-0.428223,-71 -0.428223,-91 158.428,-91 158.428,-71 -0.428223,-71"/>
<text text-anchor="middle" x="79" y="-77" font-family="Helvetica,sans-Serif" font-size="10.00">Om::DefaultQueue&lt; Evaluator &gt;</text>
</a>
</g>
</g>
<!-- Node2&#45;&gt;Node1 -->
<g id="edge1" class="edge"><title>Node2&#45;&gt;Node1</title>
<path fill="none" stroke="midnightblue" d="M103.261,-65.6543C126.053,-52.1772 159.457,-32.4254 178.736,-21.0255"/>
<polygon fill="midnightblue" stroke="midnightblue" points="101.336,-62.7266 94.5094,-70.8292 104.899,-68.7521 101.336,-62.7266"/>
</g>
<!-- Node3 -->
<g id="node3" class="node"><title>Node3</title>
<g id="a_node3"><a xlink:href="class_om_1_1_queue.html" target="_top" xlink:title="A first&#45;in, first&#45;out Element processor.">
<polygon fill="none" stroke="black" points="125.155,-131 125.155,-151 192.845,-151 192.845,-131 125.155,-131"/>
<text text-anchor="middle" x="159" y="-137" font-family="Helvetica,sans-Serif" font-size="10.00">Om::Queue</text>
</a>
</g>
</g>
<!-- Node3&#45;&gt;Node2 -->
<g id="edge2" class="edge"><title>Node3&#45;&gt;Node2</title>
<path fill="none" stroke="midnightblue" d="M138.017,-124.787C123.303,-114.119 104.114,-100.207 91.6762,-91.1903"/>
<polygon fill="midnightblue" stroke="midnightblue" points="136.349,-127.901 146.5,-130.938 140.458,-122.234 136.349,-127.901"/>
</g>
<!-- Node3&#45;&gt;Node1 -->
<g id="edge3" class="edge"><title>Node3&#45;&gt;Node1</title>
<path fill="none" stroke="#9a32cd" stroke-dasharray="5,2" d="M164.192,-121.014C171.836,-93.0577 185.827,-41.8902 191.506,-21.122"/>
<polygon fill="#9a32cd" stroke="#9a32cd" points="160.779,-120.225 161.517,-130.795 167.531,-122.072 160.779,-120.225"/>
<text text-anchor="middle" x="202.18" y="-77" font-family="Helvetica,sans-Serif" font-size="10.00"> thisOutput</text>
</g>
<!-- Node4 -->
<g id="node4" class="node"><title>Node4</title>
<g id="a_node4"><a xlink:href="class_om_1_1_translator.html" target="_top" xlink:title="An Operator lookup for use by an Evaluator.">
<polygon fill="none" stroke="black" points="260.843,-71 260.843,-91 343.157,-91 343.157,-71 260.843,-71"/>
<text text-anchor="middle" x="302" y="-77" font-family="Helvetica,sans-Serif" font-size="10.00">Om::Translator</text>
</a>
</g>
</g>
<!-- Node4&#45;&gt;Node1 -->
<g id="edge4" class="edge"><title>Node4&#45;&gt;Node1</title>
<path fill="none" stroke="#9a32cd" stroke-dasharray="5,2" d="M278.93,-65.4742C257.532,-52.0018 226.36,-32.3747 208.335,-21.0255"/>
<polygon fill="#9a32cd" stroke="#9a32cd" points="277.107,-68.4629 287.435,-70.8292 280.837,-62.5392 277.107,-68.4629"/>
<text text-anchor="middle" x="286.494" y="-42" font-family="Helvetica,sans-Serif" font-size="10.00"> thisTranslator</text>
</g>
</g>
</svg>
