<?xml version="1.0" encoding="UTF-8" standalone="no"?>
<!DOCTYPE svg PUBLIC "-//W3C//DTD SVG 1.1//EN"
 "http://www.w3.org/Graphics/SVG/1.1/DTD/svg11.dtd">
<!-- Generated by graphviz version 2.36.0 (20140111.2315)
 -->
<!-- Title: Om::Expression::FormRange&lt; Form &gt; Pages: 1 -->
<svg width="902pt" height="104pt"
 viewBox="0.00 0.00 902.00 104.00" xmlns="http://www.w3.org/2000/svg" xmlns:xlink="http://www.w3.org/1999/xlink">
<g id="graph0" class="graph" transform="scale(1 1) rotate(0) translate(4 100)">
<title>Om::Expression::FormRange&lt; Form &gt;</title>
<!-- Node1 -->
<g id="node1" class="node"><title>Node1</title>
<polygon fill="#bfbfbf" stroke="black" points="748.256,-15 748.256,-43 893.744,-43 893.744,-15 748.256,-15"/>
<text text-anchor="start" x="756.256" y="-31" font-family="Helvetica,sans-Serif" font-size="10.00">Om::Expression::FormRange</text>
<text text-anchor="middle" x="821" y="-21" font-family="Helvetica,sans-Serif" font-size="10.00">&lt; Form &gt;</text>
</g>
<!-- Node2 -->
<g id="node2" class="node"><title>Node2</title>
<g id="a_node2"><a xlink:href="class_om_1_1_source_1_1_collection_front_source.html" target="_top" xlink:title="Om::Source::CollectionFront\lSource\&lt; Form, FormDeque\l::iterator \&gt;">
<polygon fill="none" stroke="black" points="567.921,-10 567.921,-48 710.079,-48 710.079,-10 567.921,-10"/>
<text text-anchor="start" x="575.921" y="-36" font-family="Helvetica,sans-Serif" font-size="10.00">Om::Source::CollectionFront</text>
<text text-anchor="start" x="575.921" y="-26" font-family="Helvetica,sans-Serif" font-size="10.00">Source&lt; Form, FormDeque</text>
<text text-anchor="middle" x="639" y="-16" font-family="Helvetica,sans-Serif" font-size="10.00">::iterator &gt;</text>
</a>
</g>
</g>
<!-- Node2&#45;&gt;Node1 -->
<g id="edge1" class="edge"><title>Node2&#45;&gt;Node1</title>
<path fill="none" stroke="midnightblue" d="M720.113,-29C729.403,-29 738.835,-29 748.006,-29"/>
<polygon fill="midnightblue" stroke="midnightblue" points="720.108,-25.5001 710.108,-29 720.108,-32.5001 720.108,-25.5001"/>
</g>
<!-- Node3 -->
<g id="node3" class="node"><title>Node3</title>
<g id="a_node3"><a xlink:href="class_om_1_1_source_1_1_iterator_pair_source.html" target="_top" xlink:title="Om::Source::IteratorPair\lSource\&lt; Form, FormDeque\l::iterator \&gt;">
<polygon fill="none" stroke="black" points="392.006,-10 392.006,-48 529.994,-48 529.994,-10 392.006,-10"/>
<text text-anchor="start" x="400.006" y="-36" font-family="Helvetica,sans-Serif" font-size="10.00">Om::Source::IteratorPair</text>
<text text-anchor="start" x="400.006" y="-26" font-family="Helvetica,sans-Serif" font-size="10.00">Source&lt; Form, FormDeque</text>
<text text-anchor="middle" x="461" y="-16" font-family="Helvetica,sans-Serif" font-size="10.00">::iterator &gt;</text>
</a>
</g>
</g>
<!-- Node3&#45;&gt;Node2 -->
<g id="edge2" class="edge"><title>Node3&#45;&gt;Node2</title>
<path fill="none" stroke="midnightblue" d="M540.306,-29C549.466,-29 558.768,-29 567.808,-29"/>
<polygon fill="midnightblue" stroke="midnightblue" points="540.046,-25.5001 530.046,-29 540.046,-32.5001 540.046,-25.5001"/>
</g>
<!-- Node4 -->
<g id="node4" class="node"><title>Node4</title>
<g id="a_node4"><a xlink:href="class_om_1_1_source_1_1_default_source.html" target="_top" xlink:title="Om::Source::DefaultSource\l\&lt; Form, IteratorPairSource\l\&lt; Form, FormDeque::iterator \&gt; \&gt;">
<polygon fill="none" stroke="black" points="145.891,-37 145.891,-75 306.109,-75 306.109,-37 145.891,-37"/>
<text text-anchor="start" x="153.891" y="-63" font-family="Helvetica,sans-Serif" font-size="10.00">Om::Source::DefaultSource</text>
<text text-anchor="start" x="153.891" y="-53" font-family="Helvetica,sans-Serif" font-size="10.00">&lt; Form, IteratorPairSource</text>
<text text-anchor="middle" x="226" y="-43" font-family="Helvetica,sans-Serif" font-size="10.00">&lt; Form, FormDeque::iterator &gt; &gt;</text>
</a>
</g>
</g>
<!-- Node4&#45;&gt;Node3 -->
<g id="edge3" class="edge"><title>Node4&#45;&gt;Node3</title>
<path fill="none" stroke="midnightblue" d="M316.448,-45.6348C341.495,-42.7324 368.308,-39.6253 391.9,-36.8914"/>
<polygon fill="midnightblue" stroke="midnightblue" points="315.739,-42.1934 306.208,-46.8214 316.545,-49.1469 315.739,-42.1934"/>
</g>
<!-- Node5 -->
<g id="node5" class="node"><title>Node5</title>
<g id="a_node5"><a xlink:href="class_om_1_1_source_1_1_source.html" target="_top" xlink:title="Om::Source::Source\l\&lt; Form \&gt;">
<polygon fill="none" stroke="black" points="0.70459,-68 0.70459,-96 107.295,-96 107.295,-68 0.70459,-68"/>
<text text-anchor="start" x="8.70459" y="-84" font-family="Helvetica,sans-Serif" font-size="10.00">Om::Source::Source</text>
<text text-anchor="middle" x="54" y="-74" font-family="Helvetica,sans-Serif" font-size="10.00">&lt; Form &gt;</text>
</a>
</g>
</g>
<!-- Node5&#45;&gt;Node4 -->
<g id="edge4" class="edge"><title>Node5&#45;&gt;Node4</title>
<path fill="none" stroke="midnightblue" d="M117.524,-72.4374C126.661,-71.0401 136.17,-69.5857 145.588,-68.1454"/>
<polygon fill="midnightblue" stroke="midnightblue" points="116.749,-69.0153 107.393,-73.987 117.807,-75.9348 116.749,-69.0153"/>
</g>
<!-- Node6 -->
<g id="node6" class="node"><title>Node6</title>
<polygon fill="none" stroke="#bfbfbf" points="2.9165,-11 2.9165,-49 105.083,-49 105.083,-11 2.9165,-11"/>
<text text-anchor="start" x="10.9165" y="-37" font-family="Helvetica,sans-Serif" font-size="10.00">std::iterator&lt; std</text>
<text text-anchor="start" x="10.9165" y="-27" font-family="Helvetica,sans-Serif" font-size="10.00">::input_iterator_tag,</text>
<text text-anchor="middle" x="54" y="-17" font-family="Helvetica,sans-Serif" font-size="10.00"> Form &gt;</text>
</g>
<!-- Node6&#45;&gt;Node4 -->
<g id="edge5" class="edge"><title>Node6&#45;&gt;Node4</title>
<path fill="none" stroke="midnightblue" d="M115.161,-39.2011C125.023,-40.7094 135.373,-42.2924 145.615,-43.8588"/>
<polygon fill="midnightblue" stroke="midnightblue" points="115.5,-35.7124 105.086,-37.6602 114.442,-42.6319 115.5,-35.7124"/>
</g>
<!-- Node7 -->
<g id="node7" class="node"><title>Node7</title>
<g id="a_node7"><a xlink:title="STL iterator class. ">
<polygon fill="none" stroke="#bfbfbf" points="164.812,-0 164.812,-18 287.188,-18 287.188,-0 164.812,-0"/>
<text text-anchor="middle" x="226" y="-6" font-family="Helvetica,sans-Serif" font-size="10.00">std::deque&lt; T &gt;::iterator</text>
</a>
</g>
</g>
<!-- Node7&#45;&gt;Node3 -->
<g id="edge6" class="edge"><title>Node7&#45;&gt;Node3</title>
<path fill="none" stroke="#9a32cd" stroke-dasharray="5,2" d="M297.719,-10.8994C321.946,-11.9397 349.195,-13.5411 374,-16 379.71,-16.566 385.62,-17.2505 391.544,-18.0057"/>
<polygon fill="#9a32cd" stroke="#9a32cd" points="297.67,-7.39461 287.537,-10.487 297.387,-14.3889 297.67,-7.39461"/>
<text text-anchor="middle" x="349" y="-28" font-family="Helvetica,sans-Serif" font-size="10.00"> thisEnd</text>
<text text-anchor="middle" x="349" y="-18" font-family="Helvetica,sans-Serif" font-size="10.00">thisCurrent</text>
</g>
</g>
</svg>
