<?xml version="1.0" encoding="UTF-8" standalone="no"?>
<!DOCTYPE svg PUBLIC "-//W3C//DTD SVG 1.1//EN"
 "http://www.w3.org/Graphics/SVG/1.1/DTD/svg11.dtd">
<!-- Generated by graphviz version 2.36.0 (20140111.2315)
 -->
<!-- Title: Om::Language::Lexicon Pages: 1 -->
<svg width="1088pt" height="101pt"
 viewBox="0.00 0.00 1088.00 101.00" xmlns="http://www.w3.org/2000/svg" xmlns:xlink="http://www.w3.org/1999/xlink">
<g id="graph0" class="graph" transform="scale(1 1) rotate(0) translate(4 97)">
<title>Om::Language::Lexicon</title>
<!-- Node0 -->
<g id="node1" class="node"><title>Node0</title>
<g id="a_node1"><a xlink:title="The Lexicon Program implementation.">
<polygon fill="#bfbfbf" stroke="black" points="957.909,-21 957.909,-39 1080.09,-39 1080.09,-21 957.909,-21"/>
<text text-anchor="middle" x="1019" y="-27" font-family="Helvetica,sans-Serif" font-size="10.00">Om::Language::Lexicon</text>
</a>
</g>
</g>
<!-- Node1 -->
<g id="node2" class="node"><title>Node1</title>
<g id="a_node2"><a xlink:href="class_om_1_1_language_1_1_default_program.html" target="_top" xlink:title=" ">
<polygon fill="none" stroke="black" points="764.128,-37 764.128,-65 921.872,-65 921.872,-37 764.128,-37"/>
<text text-anchor="start" x="772.128" y="-53" font-family="Helvetica,sans-Serif" font-size="10.00">Om::Language::DefaultProgram</text>
<text text-anchor="middle" x="843" y="-43" font-family="Helvetica,sans-Serif" font-size="10.00">&lt; Lexicon &gt;</text>
</a>
</g>
</g>
<!-- Node1&#45;&gt;Node0 -->
<g id="edge1" class="edge"><title>Node1&#45;&gt;Node0</title>
<path fill="none" stroke="midnightblue" d="M932.265,-40.3473C940.941,-39.3002 949.6,-38.2551 957.898,-37.2537"/>
<polygon fill="midnightblue" stroke="midnightblue" points="931.602,-36.9019 922.093,-41.575 932.44,-43.8515 931.602,-36.9019"/>
</g>
<!-- Node2 -->
<g id="node3" class="node"><title>Node2</title>
<g id="a_node3"><a xlink:href="class_om_1_1_language_1_1_default_consumer.html" target="_top" xlink:title=" ">
<polygon fill="none" stroke="black" points="562.237,-55 562.237,-93 727.763,-93 727.763,-55 562.237,-55"/>
<text text-anchor="start" x="570.237" y="-81" font-family="Helvetica,sans-Serif" font-size="10.00">Om::Language::DefaultConsumer</text>
<text text-anchor="start" x="570.237" y="-71" font-family="Helvetica,sans-Serif" font-size="10.00">&lt; Lexicon, DefaultGiveable</text>
<text text-anchor="middle" x="645" y="-61" font-family="Helvetica,sans-Serif" font-size="10.00">&lt; Lexicon, Program &gt; &gt;</text>
</a>
</g>
</g>
<!-- Node2&#45;&gt;Node1 -->
<g id="edge2" class="edge"><title>Node2&#45;&gt;Node1</title>
<path fill="none" stroke="midnightblue" d="M738.137,-63.188C746.823,-62.1688 755.57,-61.1423 764.104,-60.1408"/>
<polygon fill="midnightblue" stroke="midnightblue" points="737.51,-59.7375 727.986,-64.3792 738.326,-66.6898 737.51,-59.7375"/>
</g>
<!-- Node3 -->
<g id="node4" class="node"><title>Node3</title>
<g id="a_node4"><a xlink:href="class_om_1_1_default_giveable.html" target="_top" xlink:title=" ">
<polygon fill="none" stroke="black" points="414.197,-60 414.197,-88 525.803,-88 525.803,-60 414.197,-60"/>
<text text-anchor="start" x="422.197" y="-76" font-family="Helvetica,sans-Serif" font-size="10.00">Om::DefaultGiveable</text>
<text text-anchor="middle" x="470" y="-66" font-family="Helvetica,sans-Serif" font-size="10.00">&lt; Lexicon, Program &gt;</text>
</a>
</g>
</g>
<!-- Node3&#45;&gt;Node2 -->
<g id="edge3" class="edge"><title>Node3&#45;&gt;Node2</title>
<path fill="none" stroke="midnightblue" d="M536.35,-74C544.796,-74 553.529,-74 562.198,-74"/>
<polygon fill="midnightblue" stroke="midnightblue" points="536.214,-70.5001 526.214,-74 536.214,-77.5001 536.214,-70.5001"/>
</g>
<!-- Node4 -->
<g id="node5" class="node"><title>Node4</title>
<g id="a_node5"><a xlink:href="class_om_1_1_default_moveable.html" target="_top" xlink:title=" ">
<polygon fill="none" stroke="black" points="238.711,-55 238.711,-93 377.289,-93 377.289,-55 238.711,-55"/>
<text text-anchor="start" x="246.711" y="-81" font-family="Helvetica,sans-Serif" font-size="10.00">Om::DefaultMoveable</text>
<text text-anchor="start" x="246.711" y="-71" font-family="Helvetica,sans-Serif" font-size="10.00">&lt; Lexicon, DefaultCopyable</text>
<text text-anchor="middle" x="308" y="-61" font-family="Helvetica,sans-Serif" font-size="10.00">&lt; Lexicon, Program &gt; &gt;</text>
</a>
</g>
</g>
<!-- Node4&#45;&gt;Node3 -->
<g id="edge4" class="edge"><title>Node4&#45;&gt;Node3</title>
<path fill="none" stroke="midnightblue" d="M387.411,-74C396.382,-74 405.379,-74 413.951,-74"/>
<polygon fill="midnightblue" stroke="midnightblue" points="387.319,-70.5001 377.319,-74 387.318,-77.5001 387.319,-70.5001"/>
</g>
<!-- Node5 -->
<g id="node6" class="node"><title>Node5</title>
<g id="a_node6"><a xlink:href="class_om_1_1_default_copyable.html" target="_top" xlink:title=" ">
<polygon fill="none" stroke="black" points="90.1973,-60 90.1973,-88 201.803,-88 201.803,-60 90.1973,-60"/>
<text text-anchor="start" x="98.1973" y="-76" font-family="Helvetica,sans-Serif" font-size="10.00">Om::DefaultCopyable</text>
<text text-anchor="middle" x="146" y="-66" font-family="Helvetica,sans-Serif" font-size="10.00">&lt; Lexicon, Program &gt;</text>
</a>
</g>
</g>
<!-- Node5&#45;&gt;Node4 -->
<g id="edge5" class="edge"><title>Node5&#45;&gt;Node4</title>
<path fill="none" stroke="midnightblue" d="M212.142,-74C220.844,-74 229.79,-74 238.547,-74"/>
<polygon fill="midnightblue" stroke="midnightblue" points="212.063,-70.5001 202.063,-74 212.063,-77.5001 212.063,-70.5001"/>
</g>
<!-- Node6 -->
<g id="node7" class="node"><title>Node6</title>
<g id="a_node7"><a xlink:title=" ">
<polygon fill="none" stroke="#bfbfbf" points="-0.172363,-65 -0.172363,-83 54.1724,-83 54.1724,-65 -0.172363,-65"/>
<text text-anchor="middle" x="27" y="-71" font-family="Helvetica,sans-Serif" font-size="10.00">Program</text>
</a>
</g>
</g>
<!-- Node6&#45;&gt;Node5 -->
<g id="edge6" class="edge"><title>Node6&#45;&gt;Node5</title>
<path fill="none" stroke="midnightblue" d="M64.4994,-74C72.6308,-74 81.426,-74 90.1145,-74"/>
<polygon fill="midnightblue" stroke="midnightblue" points="64.2571,-70.5001 54.2571,-74 64.257,-77.5001 64.2571,-70.5001"/>
</g>
<!-- Node7 -->
<g id="node8" class="node"><title>Node7</title>
<g id="a_node8"><a xlink:href="class_om_1_1_taker.html" target="_top" xlink:title=" ">
<polygon fill="none" stroke="black" points="588.089,-18 588.089,-36 701.911,-36 701.911,-18 588.089,-18"/>
<text text-anchor="middle" x="645" y="-24" font-family="Helvetica,sans-Serif" font-size="10.00">Om::Taker&lt; Lexicon &gt;</text>
</a>
</g>
</g>
<!-- Node7&#45;&gt;Node1 -->
<g id="edge7" class="edge"><title>Node7&#45;&gt;Node1</title>
<path fill="none" stroke="midnightblue" d="M712.296,-35.1179C728.88,-37.1485 746.821,-39.3454 763.917,-41.4389"/>
<polygon fill="midnightblue" stroke="midnightblue" points="712.517,-31.6189 702.166,-33.8774 711.666,-38.567 712.517,-31.6189"/>
</g>
<!-- Node8 -->
<g id="node9" class="node"><title>Node8</title>
<g id="a_node9"><a xlink:href="class_om_1_1_language_1_1_translator.html" target="_top" xlink:title="An Operator lookup for use by an Evaluator.">
<polygon fill="none" stroke="black" points="776.819,-0 776.819,-18 909.181,-18 909.181,-0 776.819,-0"/>
<text text-anchor="middle" x="843" y="-6" font-family="Helvetica,sans-Serif" font-size="10.00">Om::Language::Translator</text>
</a>
</g>
</g>
<!-- Node8&#45;&gt;Node0 -->
<g id="edge8" class="edge"><title>Node8&#45;&gt;Node0</title>
<path fill="none" stroke="midnightblue" d="M919.471,-18.1086C932.29,-19.6556 945.448,-21.2437 957.806,-22.7352"/>
<polygon fill="midnightblue" stroke="midnightblue" points="919.634,-14.6029 909.286,-16.8794 918.795,-21.5524 919.634,-14.6029"/>
</g>
</g>
</svg>
