<?xml version="1.0" encoding="UTF-8" standalone="no"?>
<!DOCTYPE svg PUBLIC "-//W3C//DTD SVG 1.1//EN"
 "http://www.w3.org/Graphics/SVG/1.1/DTD/svg11.dtd">
<!-- Generated by graphviz version 2.30.1 (20130221.2233)
 -->
<!-- Title: Om::Sources::CodePointStringFrontSource&lt; ThisStringIterator &gt; Pages: 1 -->
<svg width="528pt" height="103pt"
 viewBox="0.00 0.00 528.00 103.00" xmlns="http://www.w3.org/2000/svg" xmlns:xlink="http://www.w3.org/1999/xlink">
<g id="graph0" class="graph" transform="scale(1 1) rotate(0) translate(4 99)">
<title>Om::Sources::CodePointStringFrontSource&lt; ThisStringIterator &gt;</title>
<!-- Node1 -->
<g id="node1" class="node"><title>Node1</title>
<polygon fill="#bfbfbf" stroke="black" points="354.61,-34 354.61,-66 519.39,-66 519.39,-34 354.61,-34"/>
<text text-anchor="start" x="362.61" y="-52" font-family="Helvetica,sans-Serif" font-size="10.00">Om::Sources::CodePointString</text>
<text text-anchor="middle" x="437" y="-40" font-family="Helvetica,sans-Serif" font-size="10.00">FrontSource&lt; ThisStringIterator &gt;</text>
</g>
<!-- Node2 -->
<g id="node2" class="node"><title>Node2</title>
<g id="a_node2"><a xlink:href="class_om_1_1_sources_1_1_default_source.html" target="_top" xlink:title="Om::Sources::DefaultSource\l\&lt; std::string, CodePointStringFront\lSource\&lt; ThisStringIterator \&gt; \&gt;">
<polygon fill="none" stroke="black" points="148.157,-28 148.157,-72 317.843,-72 317.843,-28 148.157,-28"/>
<text text-anchor="start" x="156.157" y="-58" font-family="Helvetica,sans-Serif" font-size="10.00">Om::Sources::DefaultSource</text>
<text text-anchor="start" x="156.157" y="-46" font-family="Helvetica,sans-Serif" font-size="10.00">&lt; std::string, CodePointStringFront</text>
<text text-anchor="middle" x="233" y="-34" font-family="Helvetica,sans-Serif" font-size="10.00">Source&lt; ThisStringIterator &gt; &gt;</text>
</a>
</g>
</g>
<!-- Node2&#45;&gt;Node1 -->
<g id="edge1" class="edge"><title>Node2&#45;&gt;Node1</title>
<path fill="none" stroke="midnightblue" d="M328.127,-50C336.869,-50 345.68,-50 354.297,-50"/>
<polygon fill="midnightblue" stroke="midnightblue" points="327.911,-46.5001 317.911,-50 327.911,-53.5001 327.911,-46.5001"/>
</g>
<!-- Node3 -->
<g id="node3" class="node"><title>Node3</title>
<g id="a_node3"><a xlink:href="class_om_1_1_sources_1_1_source.html" target="_top" xlink:title="Om::Sources::Source\l\&lt; std::string \&gt;">
<polygon fill="none" stroke="black" points="0.20459,-63 0.20459,-95 111.795,-95 111.795,-63 0.20459,-63"/>
<text text-anchor="start" x="8.20459" y="-81" font-family="Helvetica,sans-Serif" font-size="10.00">Om::Sources::Source</text>
<text text-anchor="middle" x="56" y="-69" font-family="Helvetica,sans-Serif" font-size="10.00">&lt; std::string &gt;</text>
</a>
</g>
</g>
<!-- Node3&#45;&gt;Node2 -->
<g id="edge2" class="edge"><title>Node3&#45;&gt;Node2</title>
<path fill="none" stroke="midnightblue" d="M121.804,-68.261C130.39,-66.8382 139.29,-65.3634 148.139,-63.897"/>
<polygon fill="midnightblue" stroke="midnightblue" points="121.184,-64.8159 111.891,-69.9038 122.329,-71.7218 121.184,-64.8159"/>
</g>
<!-- Node4 -->
<g id="node4" class="node"><title>Node4</title>
<polygon fill="none" stroke="#bfbfbf" points="4.9165,-0 4.9165,-44 107.083,-44 107.083,-0 4.9165,-0"/>
<text text-anchor="start" x="12.9165" y="-30" font-family="Helvetica,sans-Serif" font-size="10.00">std::iterator&lt; std</text>
<text text-anchor="start" x="12.9165" y="-18" font-family="Helvetica,sans-Serif" font-size="10.00">::input_iterator_tag,</text>
<text text-anchor="middle" x="56" y="-6" font-family="Helvetica,sans-Serif" font-size="10.00"> std::string &gt;</text>
</g>
<!-- Node4&#45;&gt;Node2 -->
<g id="edge3" class="edge"><title>Node4&#45;&gt;Node2</title>
<path fill="none" stroke="midnightblue" d="M117.307,-31.6491C127.26,-33.2417 137.735,-34.9176 148.141,-36.5826"/>
<polygon fill="midnightblue" stroke="midnightblue" points="117.575,-28.1476 107.148,-30.0237 116.469,-35.0597 117.575,-28.1476"/>
</g>
</g>
</svg>
