<?xml version="1.0" encoding="UTF-8" standalone="no"?>
<!DOCTYPE svg PUBLIC "-//W3C//DTD SVG 1.1//EN"
 "http://www.w3.org/Graphics/SVG/1.1/DTD/svg11.dtd">
<!-- Generated by graphviz version 2.36.0 (20140111.2315)
 -->
<!-- Title: Om::Source::ContainerFrontSource&lt; ThisItem, ThisContainer &gt; Pages: 1 -->
<svg width="528pt" height="93pt"
 viewBox="0.00 0.00 528.00 93.00" xmlns="http://www.w3.org/2000/svg" xmlns:xlink="http://www.w3.org/1999/xlink">
<g id="graph0" class="graph" transform="scale(1 1) rotate(0) translate(4 89)">
<title>Om::Source::ContainerFrontSource&lt; ThisItem, ThisContainer &gt;</title>
<!-- Node1 -->
<g id="node1" class="node"><title>Node1</title>
<polygon fill="#bfbfbf" stroke="black" points="348.642,-31 348.642,-59 519.358,-59 519.358,-31 348.642,-31"/>
<text text-anchor="start" x="356.642" y="-47" font-family="Helvetica,sans-Serif" font-size="10.00">Om::Source::ContainerFront</text>
<text text-anchor="middle" x="434" y="-37" font-family="Helvetica,sans-Serif" font-size="10.00">Source&lt; ThisItem, ThisContainer &gt;</text>
</g>
<!-- Node2 -->
<g id="node2" class="node"><title>Node2</title>
<g id="a_node2"><a xlink:href="class_om_1_1_source_1_1_default_source.html" target="_top" xlink:title="Om::Source::DefaultSource\l\&lt; ThisItem, ContainerFrontSource\l\&lt; ThisItem, ThisContainer \&gt; \&gt;">
<polygon fill="none" stroke="black" points="144.639,-26 144.639,-64 311.361,-64 311.361,-26 144.639,-26"/>
<text text-anchor="start" x="152.639" y="-52" font-family="Helvetica,sans-Serif" font-size="10.00">Om::Source::DefaultSource</text>
<text text-anchor="start" x="152.639" y="-42" font-family="Helvetica,sans-Serif" font-size="10.00">&lt; ThisItem, ContainerFrontSource</text>
<text text-anchor="middle" x="228" y="-32" font-family="Helvetica,sans-Serif" font-size="10.00">&lt; ThisItem, ThisContainer &gt; &gt;</text>
</a>
</g>
</g>
<!-- Node2&#45;&gt;Node1 -->
<g id="edge1" class="edge"><title>Node2&#45;&gt;Node1</title>
<path fill="none" stroke="midnightblue" d="M321.437,-45C330.389,-45 339.44,-45 348.311,-45"/>
<polygon fill="midnightblue" stroke="midnightblue" points="321.387,-41.5001 311.387,-45 321.387,-48.5001 321.387,-41.5001"/>
</g>
<!-- Node3 -->
<g id="node3" class="node"><title>Node3</title>
<g id="a_node3"><a xlink:href="class_om_1_1_source_1_1_source.html" target="_top" xlink:title="Any object that items can be pulled from. ">
<polygon fill="none" stroke="black" points="0.70459,-57 0.70459,-85 107.295,-85 107.295,-57 0.70459,-57"/>
<text text-anchor="start" x="8.70459" y="-73" font-family="Helvetica,sans-Serif" font-size="10.00">Om::Source::Source</text>
<text text-anchor="middle" x="54" y="-63" font-family="Helvetica,sans-Serif" font-size="10.00">&lt; ThisItem &gt;</text>
</a>
</g>
</g>
<!-- Node3&#45;&gt;Node2 -->
<g id="edge2" class="edge"><title>Node3&#45;&gt;Node2</title>
<path fill="none" stroke="midnightblue" d="M117.583,-61.5397C126.294,-60.223 135.352,-58.8537 144.361,-57.4919"/>
<polygon fill="midnightblue" stroke="midnightblue" points="116.905,-58.1025 107.54,-63.0579 117.951,-65.0238 116.905,-58.1025"/>
</g>
<!-- Node4 -->
<g id="node4" class="node"><title>Node4</title>
<polygon fill="none" stroke="#bfbfbf" points="2.9165,-0 2.9165,-38 105.083,-38 105.083,-0 2.9165,-0"/>
<text text-anchor="start" x="10.9165" y="-26" font-family="Helvetica,sans-Serif" font-size="10.00">std::iterator&lt; std</text>
<text text-anchor="start" x="10.9165" y="-16" font-family="Helvetica,sans-Serif" font-size="10.00">::input_iterator_tag,</text>
<text text-anchor="middle" x="54" y="-6" font-family="Helvetica,sans-Serif" font-size="10.00"> ThisItem &gt;</text>
</g>
<!-- Node4&#45;&gt;Node2 -->
<g id="edge3" class="edge"><title>Node4&#45;&gt;Node2</title>
<path fill="none" stroke="midnightblue" d="M115.237,-28.1056C124.663,-29.5304 134.543,-31.024 144.365,-32.5087"/>
<polygon fill="midnightblue" stroke="midnightblue" points="115.623,-24.6242 105.212,-26.5902 114.576,-31.5456 115.623,-24.6242"/>
</g>
</g>
</svg>
