<?xml version="1.0" encoding="UTF-8" standalone="no"?>
<!DOCTYPE svg PUBLIC "-//W3C//DTD SVG 1.1//EN"
 "http://www.w3.org/Graphics/SVG/1.1/DTD/svg11.dtd">
<!-- Generated by graphviz version 2.36.0 (20140111.2315)
 -->
<!-- Title: Om::Expression::ElementRange Pages: 1 -->
<svg width="592pt" height="109pt"
 viewBox="0.00 0.00 592.00 109.00" xmlns="http://www.w3.org/2000/svg" xmlns:xlink="http://www.w3.org/1999/xlink">
<g id="graph0" class="graph" transform="scale(1 1) rotate(0) translate(4 105)">
<title>Om::Expression::ElementRange</title>
<!-- Node1 -->
<g id="node1" class="node"><title>Node1</title>
<polygon fill="#bfbfbf" stroke="black" points="424.579,-25 424.579,-43 583.421,-43 583.421,-25 424.579,-25"/>
<text text-anchor="middle" x="504" y="-31" font-family="Helvetica,sans-Serif" font-size="10.00">Om::Expression::ElementRange</text>
</g>
<!-- Node2 -->
<g id="node2" class="node"><title>Node2</title>
<g id="a_node2"><a xlink:href="class_om_1_1_source_1_1_default_source.html" target="_top" xlink:title="Om::Source::DefaultSource\l\&lt; Element const, ElementRange \&gt;">
<polygon fill="none" stroke="black" points="145.845,-47 145.845,-75 314.155,-75 314.155,-47 145.845,-47"/>
<text text-anchor="start" x="153.845" y="-63" font-family="Helvetica,sans-Serif" font-size="10.00">Om::Source::DefaultSource</text>
<text text-anchor="middle" x="230" y="-53" font-family="Helvetica,sans-Serif" font-size="10.00">&lt; Element const, ElementRange &gt;</text>
</a>
</g>
</g>
<!-- Node2&#45;&gt;Node1 -->
<g id="edge1" class="edge"><title>Node2&#45;&gt;Node1</title>
<path fill="none" stroke="midnightblue" d="M324.431,-51.7256C356.972,-48.4955 393.129,-44.9064 424.349,-41.8073"/>
<polygon fill="midnightblue" stroke="midnightblue" points="324.063,-48.2449 314.457,-52.7156 324.754,-55.2106 324.063,-48.2449"/>
</g>
<!-- Node3 -->
<g id="node3" class="node"><title>Node3</title>
<g id="a_node3"><a xlink:href="class_om_1_1_source_1_1_source.html" target="_top" xlink:title="Om::Source::Source\l\&lt; Element const &#160;\&gt;">
<polygon fill="none" stroke="black" points="0.70459,-73 0.70459,-101 107.295,-101 107.295,-73 0.70459,-73"/>
<text text-anchor="start" x="8.70459" y="-89" font-family="Helvetica,sans-Serif" font-size="10.00">Om::Source::Source</text>
<text text-anchor="middle" x="54" y="-79" font-family="Helvetica,sans-Serif" font-size="10.00">&lt; Element const &gt;</text>
</a>
</g>
</g>
<!-- Node3&#45;&gt;Node2 -->
<g id="edge2" class="edge"><title>Node3&#45;&gt;Node2</title>
<path fill="none" stroke="midnightblue" d="M117.734,-77.626C126.805,-76.2706 136.258,-74.858 145.655,-73.4538"/>
<polygon fill="midnightblue" stroke="midnightblue" points="117.051,-74.1891 107.678,-79.1286 118.085,-81.1122 117.051,-74.1891"/>
</g>
<!-- Node4 -->
<g id="node4" class="node"><title>Node4</title>
<polygon fill="none" stroke="#bfbfbf" points="2.9165,-16 2.9165,-54 105.083,-54 105.083,-16 2.9165,-16"/>
<text text-anchor="start" x="10.9165" y="-42" font-family="Helvetica,sans-Serif" font-size="10.00">std::iterator&lt; std</text>
<text text-anchor="start" x="10.9165" y="-32" font-family="Helvetica,sans-Serif" font-size="10.00">::input_iterator_tag,</text>
<text text-anchor="middle" x="54" y="-22" font-family="Helvetica,sans-Serif" font-size="10.00"> Element const &gt;</text>
</g>
<!-- Node4&#45;&gt;Node2 -->
<g id="edge3" class="edge"><title>Node4&#45;&gt;Node2</title>
<path fill="none" stroke="midnightblue" d="M115.338,-44.016C125.14,-45.4806 135.441,-47.02 145.675,-48.5491"/>
<polygon fill="midnightblue" stroke="midnightblue" points="115.735,-40.5366 105.328,-42.5203 114.701,-47.4598 115.735,-40.5366"/>
</g>
<!-- Node5 -->
<g id="node5" class="node"><title>Node5</title>
<g id="a_node5"><a xlink:title="STL iterator class. ">
<polygon fill="none" stroke="#bfbfbf" points="172.422,-0 172.422,-28 287.578,-28 287.578,-0 172.422,-0"/>
<text text-anchor="start" x="180.422" y="-16" font-family="Helvetica,sans-Serif" font-size="10.00">std::deque&lt; T &gt;::const</text>
<text text-anchor="middle" x="230" y="-6" font-family="Helvetica,sans-Serif" font-size="10.00">_iterator</text>
</a>
</g>
</g>
<!-- Node5&#45;&gt;Node1 -->
<g id="edge4" class="edge"><title>Node5&#45;&gt;Node1</title>
<path fill="none" stroke="#9a32cd" stroke-dasharray="5,2" d="M298.151,-15.221C330.752,-16.1874 370.466,-17.9149 406,-21 417.764,-22.0214 430.29,-23.4463 442.297,-24.9805"/>
<polygon fill="#9a32cd" stroke="#9a32cd" points="297.924,-11.7134 287.83,-14.9333 297.729,-18.7107 297.924,-11.7134"/>
<text text-anchor="middle" x="369" y="-33" font-family="Helvetica,sans-Serif" font-size="10.00"> thisFormIterator</text>
<text text-anchor="middle" x="369" y="-23" font-family="Helvetica,sans-Serif" font-size="10.00">thisFormEnd</text>
</g>
</g>
</svg>
