<?xml version="1.0" encoding="UTF-8" standalone="no"?>
<!DOCTYPE svg PUBLIC "-//W3C//DTD SVG 1.1//EN"
 "http://www.w3.org/Graphics/SVG/1.1/DTD/svg11.dtd">
<!-- Generated by graphviz version 2.30.1 (20130221.2233)
 -->
<!-- Title: Om::Operations::PairOperation Pages: 1 -->
<svg width="755pt" height="1238pt"
 viewBox="0.00 0.00 755.00 1238.00" xmlns="http://www.w3.org/2000/svg" xmlns:xlink="http://www.w3.org/1999/xlink">
<g id="graph0" class="graph" transform="scale(1 1) rotate(0) translate(4 1234)">
<title>Om::Operations::PairOperation</title>
<!-- Node1 -->
<g id="node1" class="node"><title>Node1</title>
<polygon fill="#bfbfbf" stroke="black" points="48.0815,-1 48.0815,-21 201.918,-21 201.918,-1 48.0815,-1"/>
<text text-anchor="middle" x="125" y="-7" font-family="Helvetica,sans-Serif" font-size="10.00">Om::Operations::PairOperation</text>
</g>
<!-- Node2 -->
<g id="node2" class="node"><title>Node2</title>
<g id="a_node2"><a xlink:href="class_om_1_1_default_operation.html" target="_top" xlink:title="Om::DefaultOperation\l\&lt; PairOperation \&gt;">
<polygon fill="none" stroke="black" points="-0.632812,-71 -0.632812,-103 112.633,-103 112.633,-71 -0.632812,-71"/>
<text text-anchor="start" x="7.36719" y="-89" font-family="Helvetica,sans-Serif" font-size="10.00">Om::DefaultOperation</text>
<text text-anchor="middle" x="56" y="-77" font-family="Helvetica,sans-Serif" font-size="10.00">&lt; PairOperation &gt;</text>
</a>
</g>
</g>
<!-- Node2&#45;&gt;Node1 -->
<g id="edge1" class="edge"><title>Node2&#45;&gt;Node1</title>
<path fill="none" stroke="midnightblue" d="M77.244,-63.2166C90.4211,-49.0846 106.641,-31.6894 116.383,-21.2412"/>
<polygon fill="midnightblue" stroke="midnightblue" points="74.5567,-60.9664 70.2968,-70.6672 79.6764,-65.7402 74.5567,-60.9664"/>
</g>
<!-- Node3 -->
<g id="node3" class="node"><title>Node3</title>
<g id="a_node3"><a xlink:href="class_om_1_1_operation.html" target="_top" xlink:title="An Operation that has yet to consume one or more Operands, and therefore must live in memory while &quot;i...">
<polygon fill="none" stroke="black" points="15.2095,-153 15.2095,-173 96.7905,-173 96.7905,-153 15.2095,-153"/>
<text text-anchor="middle" x="56" y="-159" font-family="Helvetica,sans-Serif" font-size="10.00">Om::Operation</text>
</a>
</g>
</g>
<!-- Node3&#45;&gt;Node2 -->
<g id="edge2" class="edge"><title>Node3&#45;&gt;Node2</title>
<path fill="none" stroke="midnightblue" d="M56,-142.758C56,-130.376 56,-114.514 56,-103.053"/>
<polygon fill="midnightblue" stroke="midnightblue" points="52.5001,-142.926 56,-152.926 59.5001,-142.926 52.5001,-142.926"/>
</g>
<!-- Node4 -->
<g id="node4" class="node"><title>Node4</title>
<g id="a_node4"><a xlink:href="class_om_1_1_expression.html" target="_top" xlink:title="The Expression Program implementation. ">
<polygon fill="none" stroke="black" points="130.434,-77 130.434,-97 217.566,-97 217.566,-77 130.434,-77"/>
<text text-anchor="middle" x="174" y="-83" font-family="Helvetica,sans-Serif" font-size="10.00">Om::Expression</text>
</a>
</g>
</g>
<!-- Node4&#45;&gt;Node1 -->
<g id="edge3" class="edge"><title>Node4&#45;&gt;Node1</title>
<path fill="none" stroke="#9a32cd" stroke-dasharray="5,2" d="M162.46,-68.5728C152.623,-53.7162 138.871,-32.9473 131.058,-21.1481"/>
<polygon fill="#9a32cd" stroke="#9a32cd" points="159.552,-70.5207 167.992,-76.9261 165.389,-66.656 159.552,-70.5207"/>
<text text-anchor="middle" x="184.904" y="-42" font-family="Helvetica,sans-Serif" font-size="10.00"> thisExpression</text>
</g>
<!-- Node5 -->
<g id="node5" class="node"><title>Node5</title>
<g id="a_node5"><a xlink:href="class_om_1_1_default_program.html" target="_top" xlink:title="Om::DefaultProgram\l\&lt; Expression \&gt;">
<polygon fill="none" stroke="black" points="99.1528,-687 99.1528,-719 206.847,-719 206.847,-687 99.1528,-687"/>
<text text-anchor="start" x="107.153" y="-705" font-family="Helvetica,sans-Serif" font-size="10.00">Om::DefaultProgram</text>
<text text-anchor="middle" x="153" y="-693" font-family="Helvetica,sans-Serif" font-size="10.00">&lt; Expression &gt;</text>
</a>
</g>
</g>
<!-- Node5&#45;&gt;Node4 -->
<g id="edge4" class="edge"><title>Node5&#45;&gt;Node4</title>
<path fill="none" stroke="midnightblue" d="M153,-676.605C153,-660.408 153,-638.97 153,-620 153,-620 153,-620 153,-162 153,-137.962 163.382,-111.143 169.546,-97.3377"/>
<polygon fill="midnightblue" stroke="midnightblue" points="149.5,-676.887 153,-686.887 156.5,-676.887 149.5,-676.887"/>
</g>
<!-- Node6 -->
<g id="node6" class="node"><title>Node6</title>
<g id="a_node6"><a xlink:href="class_om_1_1_default_consumer.html" target="_top" xlink:title="Om::DefaultConsumer\l\&lt; Expression, DefaultGiveable\l\&lt; Expression, Program \&gt; \&gt;">
<polygon fill="none" stroke="black" points="1.60254,-765 1.60254,-809 152.397,-809 152.397,-765 1.60254,-765"/>
<text text-anchor="start" x="9.60254" y="-795" font-family="Helvetica,sans-Serif" font-size="10.00">Om::DefaultConsumer</text>
<text text-anchor="start" x="9.60254" y="-783" font-family="Helvetica,sans-Serif" font-size="10.00">&lt; Expression, DefaultGiveable</text>
<text text-anchor="middle" x="77" y="-771" font-family="Helvetica,sans-Serif" font-size="10.00">&lt; Expression, Program &gt; &gt;</text>
</a>
</g>
</g>
<!-- Node6&#45;&gt;Node5 -->
<g id="edge5" class="edge"><title>Node6&#45;&gt;Node5</title>
<path fill="none" stroke="midnightblue" d="M103.388,-757.528C115.369,-744.602 129.054,-729.836 139.012,-719.092"/>
<polygon fill="midnightblue" stroke="midnightblue" points="100.803,-755.169 96.5719,-764.883 105.937,-759.928 100.803,-755.169"/>
</g>
<!-- Node7 -->
<g id="node7" class="node"><title>Node7</title>
<g id="a_node7"><a xlink:href="class_om_1_1_default_giveable.html" target="_top" xlink:title="Om::DefaultGiveable\l\&lt; Expression, Program \&gt;">
<polygon fill="none" stroke="black" points="144.697,-855 144.697,-887 271.303,-887 271.303,-855 144.697,-855"/>
<text text-anchor="start" x="152.697" y="-873" font-family="Helvetica,sans-Serif" font-size="10.00">Om::DefaultGiveable</text>
<text text-anchor="middle" x="208" y="-861" font-family="Helvetica,sans-Serif" font-size="10.00">&lt; Expression, Program &gt;</text>
</a>
</g>
</g>
<!-- Node7&#45;&gt;Node6 -->
<g id="edge6" class="edge"><title>Node7&#45;&gt;Node6</title>
<path fill="none" stroke="midnightblue" d="M175.34,-849.556C155.651,-837.232 130.621,-821.564 110.741,-809.12"/>
<polygon fill="midnightblue" stroke="midnightblue" points="173.639,-852.621 183.973,-854.96 177.353,-846.687 173.639,-852.621"/>
</g>
<!-- Node8 -->
<g id="node8" class="node"><title>Node8</title>
<g id="a_node8"><a xlink:href="class_om_1_1_default_moveable.html" target="_top" xlink:title="Om::DefaultMoveable\l\&lt; Expression, DefaultCopyable\l\&lt; Expression, Program \&gt; \&gt;">
<polygon fill="none" stroke="black" points="173.211,-933 173.211,-977 326.789,-977 326.789,-933 173.211,-933"/>
<text text-anchor="start" x="181.211" y="-963" font-family="Helvetica,sans-Serif" font-size="10.00">Om::DefaultMoveable</text>
<text text-anchor="start" x="181.211" y="-951" font-family="Helvetica,sans-Serif" font-size="10.00">&lt; Expression, DefaultCopyable</text>
<text text-anchor="middle" x="250" y="-939" font-family="Helvetica,sans-Serif" font-size="10.00">&lt; Expression, Program &gt; &gt;</text>
</a>
</g>
</g>
<!-- Node8&#45;&gt;Node7 -->
<g id="edge7" class="edge"><title>Node8&#45;&gt;Node7</title>
<path fill="none" stroke="midnightblue" d="M234.483,-923.705C228.094,-911.23 220.976,-897.334 215.73,-887.092"/>
<polygon fill="midnightblue" stroke="midnightblue" points="231.51,-925.578 239.184,-932.883 237.74,-922.387 231.51,-925.578"/>
</g>
<!-- Node9 -->
<g id="node9" class="node"><title>Node9</title>
<g id="a_node9"><a xlink:href="class_om_1_1_default_copyable.html" target="_top" xlink:title="Om::DefaultCopyable\l\&lt; Expression, Program \&gt;">
<polygon fill="none" stroke="black" points="202.697,-1017 202.697,-1049 329.303,-1049 329.303,-1017 202.697,-1017"/>
<text text-anchor="start" x="210.697" y="-1035" font-family="Helvetica,sans-Serif" font-size="10.00">Om::DefaultCopyable</text>
<text text-anchor="middle" x="266" y="-1023" font-family="Helvetica,sans-Serif" font-size="10.00">&lt; Expression, Program &gt;</text>
</a>
</g>
</g>
<!-- Node9&#45;&gt;Node8 -->
<g id="edge8" class="edge"><title>Node9&#45;&gt;Node8</title>
<path fill="none" stroke="midnightblue" d="M260.755,-1007.09C258.708,-997.364 256.387,-986.339 254.426,-977.025"/>
<polygon fill="midnightblue" stroke="midnightblue" points="257.354,-1007.92 262.839,-1016.98 264.204,-1006.48 257.354,-1007.92"/>
</g>
<!-- Node10 -->
<g id="node10" class="node"><title>Node10</title>
<g id="a_node10"><a xlink:href="class_om_1_1_program.html" target="_top" xlink:title="The Program implementation. ">
<polygon fill="none" stroke="black" points="300.995,-1089 300.995,-1109 377.005,-1109 377.005,-1089 300.995,-1089"/>
<text text-anchor="middle" x="339" y="-1095" font-family="Helvetica,sans-Serif" font-size="10.00">Om::Program</text>
</a>
</g>
</g>
<!-- Node10&#45;&gt;Node9 -->
<g id="edge9" class="edge"><title>Node10&#45;&gt;Node9</title>
<path fill="none" stroke="midnightblue" d="M320.836,-1082.08C309.325,-1071.98 294.527,-1059.01 283.205,-1049.08"/>
<polygon fill="midnightblue" stroke="midnightblue" points="318.714,-1084.87 328.541,-1088.83 323.329,-1079.61 318.714,-1084.87"/>
</g>
<!-- Node29 -->
<g id="node29" class="node"><title>Node29</title>
<g id="a_node29"><a xlink:href="class_om_1_1_element.html" target="_top" xlink:title="A Program that contains a single &quot;elemental&quot; item (or none, when IsEmpty() returns true)...">
<polygon fill="none" stroke="black" points="351.825,-1023 351.825,-1043 426.175,-1043 426.175,-1023 351.825,-1023"/>
<text text-anchor="middle" x="389" y="-1029" font-family="Helvetica,sans-Serif" font-size="10.00">Om::Element</text>
</a>
</g>
</g>
<!-- Node10&#45;&gt;Node29 -->
<g id="edge29" class="edge"><title>Node10&#45;&gt;Node29</title>
<path fill="none" stroke="midnightblue" d="M352.448,-1080.79C361.911,-1068.67 374.206,-1052.94 381.85,-1043.15"/>
<polygon fill="midnightblue" stroke="midnightblue" points="349.562,-1078.8 346.164,-1088.83 355.078,-1083.1 349.562,-1078.8"/>
</g>
<!-- Node11 -->
<g id="node11" class="node"><title>Node11</title>
<g id="a_node11"><a xlink:href="class_om_1_1_consumer.html" target="_top" xlink:title="An Element taker; takes at the back. ">
<polygon fill="none" stroke="black" points="134.104,-1149 134.104,-1169 217.896,-1169 217.896,-1149 134.104,-1149"/>
<text text-anchor="middle" x="176" y="-1155" font-family="Helvetica,sans-Serif" font-size="10.00">Om::Consumer</text>
</a>
</g>
</g>
<!-- Node11&#45;&gt;Node10 -->
<g id="edge10" class="edge"><title>Node11&#45;&gt;Node10</title>
<path fill="none" stroke="midnightblue" d="M210.958,-1145.56C241.743,-1134.61 285.855,-1118.91 313.442,-1109.09"/>
<polygon fill="midnightblue" stroke="midnightblue" points="209.717,-1142.29 201.469,-1148.94 212.063,-1148.88 209.717,-1142.29"/>
</g>
<!-- Node12 -->
<g id="node12" class="node"><title>Node12</title>
<g id="a_node12"><a xlink:href="class_om_1_1_giveable.html" target="_top" xlink:title="An object that can be copied or moved via Give. ">
<polygon fill="none" stroke="black" points="235.434,-1149 235.434,-1169 312.566,-1169 312.566,-1149 235.434,-1149"/>
<text text-anchor="middle" x="274" y="-1155" font-family="Helvetica,sans-Serif" font-size="10.00">Om::Giveable</text>
</a>
</g>
</g>
<!-- Node12&#45;&gt;Node10 -->
<g id="edge11" class="edge"><title>Node12&#45;&gt;Node10</title>
<path fill="none" stroke="midnightblue" d="M291.729,-1142.18C303.591,-1131.6 318.786,-1118.04 328.701,-1109.19"/>
<polygon fill="midnightblue" stroke="midnightblue" points="289.287,-1139.67 284.156,-1148.94 293.948,-1144.89 289.287,-1139.67"/>
</g>
<!-- Node13 -->
<g id="node13" class="node"><title>Node13</title>
<g id="a_node13"><a xlink:href="class_om_1_1_copyable.html" target="_top" xlink:title="An object that can be passed to Copy to be copied. ">
<polygon fill="none" stroke="black" points="185.042,-1209 185.042,-1229 264.958,-1229 264.958,-1209 185.042,-1209"/>
<text text-anchor="middle" x="225" y="-1215" font-family="Helvetica,sans-Serif" font-size="10.00">Om::Copyable</text>
</a>
</g>
</g>
<!-- Node13&#45;&gt;Node12 -->
<g id="edge12" class="edge"><title>Node13&#45;&gt;Node12</title>
<path fill="none" stroke="midnightblue" d="M239.145,-1201.26C247.964,-1190.82 258.977,-1177.78 266.236,-1169.19"/>
<polygon fill="midnightblue" stroke="midnightblue" points="236.436,-1199.04 232.656,-1208.94 241.783,-1203.56 236.436,-1199.04"/>
</g>
<!-- Node14 -->
<g id="node14" class="node"><title>Node14</title>
<g id="a_node14"><a xlink:href="class_om_1_1_moveable.html" target="_top" xlink:title="An object that can be passed to Move to be moved. ">
<polygon fill="none" stroke="black" points="282.488,-1209 282.488,-1229 363.512,-1229 363.512,-1209 282.488,-1209"/>
<text text-anchor="middle" x="323" y="-1215" font-family="Helvetica,sans-Serif" font-size="10.00">Om::Moveable</text>
</a>
</g>
</g>
<!-- Node14&#45;&gt;Node12 -->
<g id="edge13" class="edge"><title>Node14&#45;&gt;Node12</title>
<path fill="none" stroke="midnightblue" d="M308.855,-1201.26C300.036,-1190.82 289.023,-1177.78 281.764,-1169.19"/>
<polygon fill="midnightblue" stroke="midnightblue" points="306.217,-1203.56 315.344,-1208.94 311.564,-1199.04 306.217,-1203.56"/>
</g>
<!-- Node15 -->
<g id="node15" class="node"><title>Node15</title>
<g id="a_node15"><a xlink:href="class_om_1_1_producer.html" target="_top" xlink:title="An Element giver; gives from the front. ">
<polygon fill="none" stroke="black" points="330.879,-1149 330.879,-1169 409.121,-1169 409.121,-1149 330.879,-1149"/>
<text text-anchor="middle" x="370" y="-1155" font-family="Helvetica,sans-Serif" font-size="10.00">Om::Producer</text>
</a>
</g>
</g>
<!-- Node15&#45;&gt;Node10 -->
<g id="edge14" class="edge"><title>Node15&#45;&gt;Node10</title>
<path fill="none" stroke="midnightblue" d="M360.382,-1140C354.923,-1129.79 348.322,-1117.44 343.912,-1109.19"/>
<polygon fill="midnightblue" stroke="midnightblue" points="357.356,-1141.77 365.156,-1148.94 363.529,-1138.47 357.356,-1141.77"/>
</g>
<!-- Node16 -->
<g id="node16" class="node"><title>Node16</title>
<g id="a_node16"><a xlink:href="class_om_1_1_shareable.html" target="_top" xlink:title="Om::Shareable\&lt;\&gt;">
<polygon fill="none" stroke="black" points="427.532,-1149 427.532,-1169 522.468,-1169 522.468,-1149 427.532,-1149"/>
<text text-anchor="middle" x="475" y="-1155" font-family="Helvetica,sans-Serif" font-size="10.00">Om::Shareable&lt;&gt;</text>
</a>
</g>
</g>
<!-- Node16&#45;&gt;Node10 -->
<g id="edge15" class="edge"><title>Node16&#45;&gt;Node10</title>
<path fill="none" stroke="midnightblue" d="M444.517,-1145C418.988,-1134.11 383.189,-1118.85 360.55,-1109.19"/>
<polygon fill="midnightblue" stroke="midnightblue" points="443.179,-1148.23 453.75,-1148.94 445.925,-1141.8 443.179,-1148.23"/>
</g>
<!-- Node17 -->
<g id="node17" class="node"><title>Node17</title>
<g id="a_node17"><a xlink:href="class_om_1_1_taker.html" target="_top" xlink:title="Om::Taker\&lt; Expression \&gt;">
<polygon fill="none" stroke="black" points="170.589,-777 170.589,-797 299.411,-797 299.411,-777 170.589,-777"/>
<text text-anchor="middle" x="235" y="-783" font-family="Helvetica,sans-Serif" font-size="10.00">Om::Taker&lt; Expression &gt;</text>
</a>
</g>
</g>
<!-- Node17&#45;&gt;Node5 -->
<g id="edge16" class="edge"><title>Node17&#45;&gt;Node5</title>
<path fill="none" stroke="midnightblue" d="M218.528,-769.528C203.854,-754.854 182.553,-733.553 168.26,-719.26"/>
<polygon fill="midnightblue" stroke="midnightblue" points="216.365,-772.315 225.911,-776.911 221.315,-767.365 216.365,-772.315"/>
</g>
<!-- Node18 -->
<g id="node18" class="node"><title>Node18</title>
<polygon fill="none" stroke="#bfbfbf" points="190.365,-153 190.365,-173 293.635,-173 293.635,-153 190.365,-153"/>
<text text-anchor="middle" x="242" y="-159" font-family="Helvetica,sans-Serif" font-size="10.00">std::deque&lt; Form &gt;</text>
</g>
<!-- Node18&#45;&gt;Node4 -->
<g id="edge17" class="edge"><title>Node18&#45;&gt;Node4</title>
<path fill="none" stroke="#9a32cd" stroke-dasharray="5,2" d="M226.753,-145.407C213.057,-130.503 193.453,-109.17 182.406,-97.1481"/>
<polygon fill="#9a32cd" stroke="#9a32cd" points="224.318,-147.931 233.662,-152.926 229.473,-143.195 224.318,-147.931"/>
<text text-anchor="middle" x="251.569" y="-124" font-family="Helvetica,sans-Serif" font-size="10.00"> thisFormDeque</text>
</g>
<!-- Node19 -->
<g id="node19" class="node"><title>Node19</title>
<g id="a_node19"><a xlink:href="class_om_1_1_form.html" target="_top" xlink:title="An Operator (which may be empty), followed by zero or more Operand instances. ">
<polygon fill="none" stroke="black" points="237.502,-223 237.502,-243 298.498,-243 298.498,-223 237.502,-223"/>
<text text-anchor="middle" x="268" y="-229" font-family="Helvetica,sans-Serif" font-size="10.00">Om::Form</text>
</a>
</g>
</g>
<!-- Node19&#45;&gt;Node18 -->
<g id="edge18" class="edge"><title>Node19&#45;&gt;Node18</title>
<path fill="none" stroke="#9a32cd" stroke-dasharray="5,2" d="M260.865,-213.34C255.851,-200.226 249.364,-183.26 245.451,-173.025"/>
<polygon fill="#9a32cd" stroke="#9a32cd" points="257.653,-214.739 264.494,-222.829 264.191,-212.239 257.653,-214.739"/>
<text text-anchor="middle" x="277.677" y="-194" font-family="Helvetica,sans-Serif" font-size="10.00"> elements</text>
</g>
<!-- Node20 -->
<g id="node20" class="node"><title>Node20</title>
<g id="a_node20"><a xlink:href="class_om_1_1_operator.html" target="_top" xlink:title="The Operator implementation. ">
<polygon fill="none" stroke="black" points="229.436,-293 229.436,-313 306.564,-313 306.564,-293 229.436,-293"/>
<text text-anchor="middle" x="268" y="-299" font-family="Helvetica,sans-Serif" font-size="10.00">Om::Operator</text>
</a>
</g>
</g>
<!-- Node20&#45;&gt;Node19 -->
<g id="edge19" class="edge"><title>Node20&#45;&gt;Node19</title>
<path fill="none" stroke="#9a32cd" stroke-dasharray="5,2" d="M268,-282.557C268,-269.557 268,-253.057 268,-243.025"/>
<polygon fill="#9a32cd" stroke="#9a32cd" points="264.5,-282.829 268,-292.829 271.5,-282.829 264.5,-282.829"/>
<text text-anchor="middle" x="296.901" y="-264" font-family="Helvetica,sans-Serif" font-size="10.00"> thisOperator</text>
</g>
<!-- Node21 -->
<g id="node21" class="node"><title>Node21</title>
<g id="a_node21"><a xlink:href="class_om_1_1_default_atom.html" target="_top" xlink:title="Om::DefaultAtom\&lt; Operator \&gt;">
<polygon fill="none" stroke="black" points="193.306,-373 193.306,-393 342.694,-393 342.694,-373 193.306,-373"/>
<text text-anchor="middle" x="268" y="-379" font-family="Helvetica,sans-Serif" font-size="10.00">Om::DefaultAtom&lt; Operator &gt;</text>
</a>
</g>
</g>
<!-- Node21&#45;&gt;Node20 -->
<g id="edge20" class="edge"><title>Node21&#45;&gt;Node20</title>
<path fill="none" stroke="midnightblue" d="M268,-362.509C268,-346.768 268,-325.315 268,-313.242"/>
<polygon fill="midnightblue" stroke="midnightblue" points="264.5,-362.746 268,-372.746 271.5,-362.746 264.5,-362.746"/>
</g>
<!-- Node22 -->
<g id="node22" class="node"><title>Node22</title>
<g id="a_node22"><a xlink:href="class_om_1_1_default_element.html" target="_top" xlink:title="Om::DefaultElement\l\&lt; Operator, Atom \&gt;">
<polygon fill="none" stroke="black" points="212.983,-443 212.983,-475 319.017,-475 319.017,-443 212.983,-443"/>
<text text-anchor="start" x="220.983" y="-461" font-family="Helvetica,sans-Serif" font-size="10.00">Om::DefaultElement</text>
<text text-anchor="middle" x="266" y="-449" font-family="Helvetica,sans-Serif" font-size="10.00">&lt; Operator, Atom &gt;</text>
</a>
</g>
</g>
<!-- Node22&#45;&gt;Node21 -->
<g id="edge21" class="edge"><title>Node22&#45;&gt;Node21</title>
<path fill="none" stroke="midnightblue" d="M266.691,-432.43C267.058,-418.859 267.486,-403.012 267.75,-393.241"/>
<polygon fill="midnightblue" stroke="midnightblue" points="263.186,-432.576 266.414,-442.667 270.183,-432.765 263.186,-432.576"/>
</g>
<!-- Node23 -->
<g id="node23" class="node"><title>Node23</title>
<g id="a_node23"><a xlink:href="class_om_1_1_default_program.html" target="_top" xlink:title="Om::DefaultProgram\l\&lt; Operator, Atom \&gt;">
<polygon fill="none" stroke="black" points="211.153,-525 211.153,-557 318.847,-557 318.847,-525 211.153,-525"/>
<text text-anchor="start" x="219.153" y="-543" font-family="Helvetica,sans-Serif" font-size="10.00">Om::DefaultProgram</text>
<text text-anchor="middle" x="265" y="-531" font-family="Helvetica,sans-Serif" font-size="10.00">&lt; Operator, Atom &gt;</text>
</a>
</g>
</g>
<!-- Node23&#45;&gt;Node22 -->
<g id="edge22" class="edge"><title>Node23&#45;&gt;Node22</title>
<path fill="none" stroke="midnightblue" d="M265.315,-514.767C265.478,-501.793 265.67,-486.407 265.809,-475.252"/>
<polygon fill="midnightblue" stroke="midnightblue" points="261.813,-514.91 265.188,-524.953 268.813,-514.997 261.813,-514.91"/>
</g>
<!-- Node24 -->
<g id="node24" class="node"><title>Node24</title>
<g id="a_node24"><a xlink:href="class_om_1_1_default_consumer.html" target="_top" xlink:title="Om::DefaultConsumer\l\&lt; Operator, DefaultGiveable\l\&lt; Operator, Atom \&gt; \&gt;">
<polygon fill="none" stroke="black" points="180.878,-597 180.878,-641 321.122,-641 321.122,-597 180.878,-597"/>
<text text-anchor="start" x="188.878" y="-627" font-family="Helvetica,sans-Serif" font-size="10.00">Om::DefaultConsumer</text>
<text text-anchor="start" x="188.878" y="-615" font-family="Helvetica,sans-Serif" font-size="10.00">&lt; Operator, DefaultGiveable</text>
<text text-anchor="middle" x="251" y="-603" font-family="Helvetica,sans-Serif" font-size="10.00">&lt; Operator, Atom &gt; &gt;</text>
</a>
</g>
</g>
<!-- Node24&#45;&gt;Node23 -->
<g id="edge23" class="edge"><title>Node24&#45;&gt;Node23</title>
<path fill="none" stroke="midnightblue" d="M256.733,-586.875C258.632,-576.571 260.658,-565.569 262.23,-557.038"/>
<polygon fill="midnightblue" stroke="midnightblue" points="253.269,-586.361 254.9,-596.83 260.154,-587.629 253.269,-586.361"/>
</g>
<!-- Node25 -->
<g id="node25" class="node"><title>Node25</title>
<g id="a_node25"><a xlink:href="class_om_1_1_default_giveable.html" target="_top" xlink:title="Om::DefaultGiveable\l\&lt; Operator, Atom \&gt;">
<polygon fill="none" stroke="black" points="284.591,-687 284.591,-719 393.409,-719 393.409,-687 284.591,-687"/>
<text text-anchor="start" x="292.591" y="-705" font-family="Helvetica,sans-Serif" font-size="10.00">Om::DefaultGiveable</text>
<text text-anchor="middle" x="339" y="-693" font-family="Helvetica,sans-Serif" font-size="10.00">&lt; Operator, Atom &gt;</text>
</a>
</g>
</g>
<!-- Node25&#45;&gt;Node24 -->
<g id="edge24" class="edge"><title>Node25&#45;&gt;Node24</title>
<path fill="none" stroke="midnightblue" d="M315.252,-679.871C302.326,-667.827 286.419,-653.004 273.666,-641.12"/>
<polygon fill="midnightblue" stroke="midnightblue" points="313.157,-682.703 322.859,-686.96 317.929,-677.582 313.157,-682.703"/>
</g>
<!-- Node26 -->
<g id="node26" class="node"><title>Node26</title>
<g id="a_node26"><a xlink:href="class_om_1_1_default_moveable.html" target="_top" xlink:title="Om::DefaultMoveable\l\&lt; Operator, DefaultCopyable\l\&lt; Operator, Atom \&gt; \&gt;">
<polygon fill="none" stroke="black" points="317.487,-765 317.487,-809 460.513,-809 460.513,-765 317.487,-765"/>
<text text-anchor="start" x="325.487" y="-795" font-family="Helvetica,sans-Serif" font-size="10.00">Om::DefaultMoveable</text>
<text text-anchor="start" x="325.487" y="-783" font-family="Helvetica,sans-Serif" font-size="10.00">&lt; Operator, DefaultCopyable</text>
<text text-anchor="middle" x="389" y="-771" font-family="Helvetica,sans-Serif" font-size="10.00">&lt; Operator, Atom &gt; &gt;</text>
</a>
</g>
</g>
<!-- Node26&#45;&gt;Node25 -->
<g id="edge25" class="edge"><title>Node26&#45;&gt;Node25</title>
<path fill="none" stroke="midnightblue" d="M370.751,-756.071C363.087,-743.503 354.509,-729.435 348.203,-719.092"/>
<polygon fill="midnightblue" stroke="midnightblue" points="367.929,-758.167 376.124,-764.883 373.906,-754.523 367.929,-758.167"/>
</g>
<!-- Node27 -->
<g id="node27" class="node"><title>Node27</title>
<g id="a_node27"><a xlink:href="class_om_1_1_default_copyable.html" target="_top" xlink:title="Om::DefaultCopyable\l\&lt; Operator, Atom \&gt;">
<polygon fill="none" stroke="black" points="333.2,-855 333.2,-887 444.8,-887 444.8,-855 333.2,-855"/>
<text text-anchor="start" x="341.2" y="-873" font-family="Helvetica,sans-Serif" font-size="10.00">Om::DefaultCopyable</text>
<text text-anchor="middle" x="389" y="-861" font-family="Helvetica,sans-Serif" font-size="10.00">&lt; Operator, Atom &gt;</text>
</a>
</g>
</g>
<!-- Node27&#45;&gt;Node26 -->
<g id="edge26" class="edge"><title>Node27&#45;&gt;Node26</title>
<path fill="none" stroke="midnightblue" d="M389,-844.747C389,-833.331 389,-819.995 389,-809.12"/>
<polygon fill="midnightblue" stroke="midnightblue" points="385.5,-844.96 389,-854.96 392.5,-844.96 385.5,-844.96"/>
</g>
<!-- Node28 -->
<g id="node28" class="node"><title>Node28</title>
<g id="a_node28"><a xlink:href="class_om_1_1_atom.html" target="_top" xlink:title="An &quot;atomic&quot; Element defined by a string. ">
<polygon fill="none" stroke="black" points="358.498,-945 358.498,-965 419.502,-965 419.502,-945 358.498,-945"/>
<text text-anchor="middle" x="389" y="-951" font-family="Helvetica,sans-Serif" font-size="10.00">Om::Atom</text>
</a>
</g>
</g>
<!-- Node28&#45;&gt;Node27 -->
<g id="edge27" class="edge"><title>Node28&#45;&gt;Node27</title>
<path fill="none" stroke="midnightblue" d="M389,-934.595C389,-920.122 389,-900.627 389,-887.26"/>
<polygon fill="midnightblue" stroke="midnightblue" points="385.5,-934.911 389,-944.911 392.5,-934.911 385.5,-934.911"/>
</g>
<!-- Node29&#45;&gt;Node28 -->
<g id="edge28" class="edge"><title>Node29&#45;&gt;Node28</title>
<path fill="none" stroke="midnightblue" d="M389,-1012.56C389,-997.266 389,-976.655 389,-965.005"/>
<polygon fill="midnightblue" stroke="midnightblue" points="385.5,-1012.98 389,-1022.98 392.5,-1012.98 385.5,-1012.98"/>
</g>
<!-- Node40 -->
<g id="node40" class="node"><title>Node40</title>
<g id="a_node40"><a xlink:href="class_om_1_1_default_copyable.html" target="_top" xlink:title="Om::DefaultCopyable\l\&lt; Operand, Element \&gt;">
<polygon fill="none" stroke="black" points="450.803,-939 450.803,-971 565.197,-971 565.197,-939 450.803,-939"/>
<text text-anchor="start" x="458.803" y="-957" font-family="Helvetica,sans-Serif" font-size="10.00">Om::DefaultCopyable</text>
<text text-anchor="middle" x="508" y="-945" font-family="Helvetica,sans-Serif" font-size="10.00">&lt; Operand, Element &gt;</text>
</a>
</g>
</g>
<!-- Node29&#45;&gt;Node40 -->
<g id="edge41" class="edge"><title>Node29&#45;&gt;Node40</title>
<path fill="none" stroke="midnightblue" d="M411.662,-1017.53C432.524,-1004.2 463.348,-984.517 484.478,-971.022"/>
<polygon fill="midnightblue" stroke="midnightblue" points="409.662,-1014.65 403.118,-1022.98 413.43,-1020.55 409.662,-1014.65"/>
</g>
<!-- Node30 -->
<g id="node30" class="node"><title>Node30</title>
<g id="a_node30"><a xlink:href="class_om_1_1_taker.html" target="_top" xlink:title="Om::Taker\&lt; Operator \&gt;">
<polygon fill="none" stroke="black" points="339.591,-609 339.591,-629 458.409,-629 458.409,-609 339.591,-609"/>
<text text-anchor="middle" x="399" y="-615" font-family="Helvetica,sans-Serif" font-size="10.00">Om::Taker&lt; Operator &gt;</text>
</a>
</g>
</g>
<!-- Node30&#45;&gt;Node23 -->
<g id="edge30" class="edge"><title>Node30&#45;&gt;Node23</title>
<path fill="none" stroke="midnightblue" d="M374.111,-603.884C350.613,-590.557 315.494,-570.638 291.487,-557.022"/>
<polygon fill="midnightblue" stroke="midnightblue" points="372.677,-607.094 383.102,-608.983 376.131,-601.005 372.677,-607.094"/>
</g>
<!-- Node31 -->
<g id="node31" class="node"><title>Node31</title>
<g id="a_node31"><a xlink:title="STL class. ">
<polygon fill="none" stroke="#bfbfbf" points="346.325,-449 346.325,-469 405.675,-469 405.675,-449 346.325,-449"/>
<text text-anchor="middle" x="376" y="-455" font-family="Helvetica,sans-Serif" font-size="10.00">std::string</text>
</a>
</g>
</g>
<!-- Node31&#45;&gt;Node21 -->
<g id="edge31" class="edge"><title>Node31&#45;&gt;Node21</title>
<path fill="none" stroke="#9a32cd" stroke-dasharray="5,2" d="M354.452,-443.236C332.65,-428.297 299.628,-405.671 281.351,-393.148"/>
<polygon fill="#9a32cd" stroke="#9a32cd" points="352.529,-446.161 362.757,-448.926 356.486,-440.387 352.529,-446.161"/>
<text text-anchor="middle" x="347.231" y="-414" font-family="Helvetica,sans-Serif" font-size="10.00"> thisString</text>
</g>
<!-- Node32 -->
<g id="node32" class="node"><title>Node32</title>
<g id="a_node32"><a xlink:title="STL class. ">
<polygon fill="none" stroke="#bfbfbf" points="336.952,-525 336.952,-557 431.048,-557 431.048,-525 336.952,-525"/>
<text text-anchor="start" x="344.952" y="-543" font-family="Helvetica,sans-Serif" font-size="10.00">std::basic_string&lt;</text>
<text text-anchor="middle" x="384" y="-531" font-family="Helvetica,sans-Serif" font-size="10.00"> char &gt;</text>
</a>
</g>
</g>
<!-- Node32&#45;&gt;Node31 -->
<g id="edge32" class="edge"><title>Node32&#45;&gt;Node31</title>
<path fill="none" stroke="midnightblue" d="M381.484,-514.837C379.921,-499.205 378.005,-480.052 376.901,-469.014"/>
<polygon fill="midnightblue" stroke="midnightblue" points="378.018,-515.351 382.495,-524.953 384.983,-514.654 378.018,-515.351"/>
</g>
<!-- Node33 -->
<g id="node33" class="node"><title>Node33</title>
<polygon fill="none" stroke="#bfbfbf" points="331.572,-333 331.572,-353 450.428,-353 450.428,-333 331.572,-333"/>
<text text-anchor="middle" x="391" y="-339" font-family="Helvetica,sans-Serif" font-size="10.00">std::deque&lt; Operand &gt;</text>
</g>
<!-- Node33&#45;&gt;Node19 -->
<g id="edge33" class="edge"><title>Node33&#45;&gt;Node19</title>
<path fill="none" stroke="#9a32cd" stroke-dasharray="5,2" d="M380.737,-324.165C369.808,-306.464 351.064,-279.513 329,-262 318.869,-253.959 306.055,-247.627 294.79,-243.033"/>
<polygon fill="#9a32cd" stroke="#9a32cd" points="377.841,-326.141 385.976,-332.928 383.849,-322.549 377.841,-326.141"/>
<text text-anchor="middle" x="417.362" y="-299" font-family="Helvetica,sans-Serif" font-size="10.00"> thisOperandDeque</text>
</g>
<!-- Node34 -->
<g id="node34" class="node"><title>Node34</title>
<g id="a_node34"><a xlink:href="class_om_1_1_operand.html" target="_top" xlink:title="The Operand implementation. ">
<polygon fill="none" stroke="black" points="495.709,-449 495.709,-469 572.291,-469 572.291,-449 495.709,-449"/>
<text text-anchor="middle" x="534" y="-455" font-family="Helvetica,sans-Serif" font-size="10.00">Om::Operand</text>
</a>
</g>
</g>
<!-- Node34&#45;&gt;Node33 -->
<g id="edge34" class="edge"><title>Node34&#45;&gt;Node33</title>
<path fill="none" stroke="#9a32cd" stroke-dasharray="5,2" d="M514.142,-442.169C483.778,-417.963 426.78,-372.524 402.464,-353.139"/>
<polygon fill="#9a32cd" stroke="#9a32cd" points="512.297,-445.174 522.298,-448.671 516.66,-439.7 512.297,-445.174"/>
<text text-anchor="middle" x="510.677" y="-414" font-family="Helvetica,sans-Serif" font-size="10.00"> elements</text>
</g>
<!-- Node35 -->
<g id="node35" class="node"><title>Node35</title>
<g id="a_node35"><a xlink:href="class_om_1_1_default_element.html" target="_top" xlink:title="Om::DefaultElement\l\&lt; Operand \&gt;">
<polygon fill="none" stroke="black" points="623.983,-525 623.983,-557 730.017,-557 730.017,-525 623.983,-525"/>
<text text-anchor="start" x="631.983" y="-543" font-family="Helvetica,sans-Serif" font-size="10.00">Om::DefaultElement</text>
<text text-anchor="middle" x="677" y="-531" font-family="Helvetica,sans-Serif" font-size="10.00">&lt; Operand &gt;</text>
</a>
</g>
</g>
<!-- Node35&#45;&gt;Node34 -->
<g id="edge35" class="edge"><title>Node35&#45;&gt;Node34</title>
<path fill="none" stroke="midnightblue" d="M641.03,-519.877C611.828,-503.54 572.024,-481.272 550.113,-469.014"/>
<polygon fill="midnightblue" stroke="midnightblue" points="639.667,-523.125 650.103,-524.953 643.084,-517.016 639.667,-523.125"/>
</g>
<!-- Node36 -->
<g id="node36" class="node"><title>Node36</title>
<g id="a_node36"><a xlink:href="class_om_1_1_default_program.html" target="_top" xlink:title="Om::DefaultProgram\l\&lt; Operand, Element \&gt;">
<polygon fill="none" stroke="black" points="619.803,-603 619.803,-635 734.197,-635 734.197,-603 619.803,-603"/>
<text text-anchor="start" x="627.803" y="-621" font-family="Helvetica,sans-Serif" font-size="10.00">Om::DefaultProgram</text>
<text text-anchor="middle" x="677" y="-609" font-family="Helvetica,sans-Serif" font-size="10.00">&lt; Operand, Element &gt;</text>
</a>
</g>
</g>
<!-- Node36&#45;&gt;Node35 -->
<g id="edge36" class="edge"><title>Node36&#45;&gt;Node35</title>
<path fill="none" stroke="midnightblue" d="M677,-592.848C677,-581.072 677,-567.431 677,-557.244"/>
<polygon fill="midnightblue" stroke="midnightblue" points="673.5,-592.985 677,-602.985 680.5,-592.985 673.5,-592.985"/>
</g>
<!-- Node37 -->
<g id="node37" class="node"><title>Node37</title>
<g id="a_node37"><a xlink:href="class_om_1_1_default_consumer.html" target="_top" xlink:title="Om::DefaultConsumer\l\&lt; Operand, DefaultGiveable\l\&lt; Operand, Element \&gt; \&gt;">
<polygon fill="none" stroke="black" points="606.878,-681 606.878,-725 747.122,-725 747.122,-681 606.878,-681"/>
<text text-anchor="start" x="614.878" y="-711" font-family="Helvetica,sans-Serif" font-size="10.00">Om::DefaultConsumer</text>
<text text-anchor="start" x="614.878" y="-699" font-family="Helvetica,sans-Serif" font-size="10.00">&lt; Operand, DefaultGiveable</text>
<text text-anchor="middle" x="677" y="-687" font-family="Helvetica,sans-Serif" font-size="10.00">&lt; Operand, Element &gt; &gt;</text>
</a>
</g>
</g>
<!-- Node37&#45;&gt;Node36 -->
<g id="edge37" class="edge"><title>Node37&#45;&gt;Node36</title>
<path fill="none" stroke="midnightblue" d="M677,-670.601C677,-658.416 677,-645.033 677,-635.092"/>
<polygon fill="midnightblue" stroke="midnightblue" points="673.5,-670.883 677,-680.883 680.5,-670.883 673.5,-670.883"/>
</g>
<!-- Node38 -->
<g id="node38" class="node"><title>Node38</title>
<g id="a_node38"><a xlink:href="class_om_1_1_default_giveable.html" target="_top" xlink:title="Om::DefaultGiveable\l\&lt; Operand, Element \&gt;">
<polygon fill="none" stroke="black" points="524.803,-771 524.803,-803 639.197,-803 639.197,-771 524.803,-771"/>
<text text-anchor="start" x="532.803" y="-789" font-family="Helvetica,sans-Serif" font-size="10.00">Om::DefaultGiveable</text>
<text text-anchor="middle" x="582" y="-777" font-family="Helvetica,sans-Serif" font-size="10.00">&lt; Operand, Element &gt;</text>
</a>
</g>
</g>
<!-- Node38&#45;&gt;Node37 -->
<g id="edge38" class="edge"><title>Node38&#45;&gt;Node37</title>
<path fill="none" stroke="midnightblue" d="M607.243,-764.211C621.267,-752.107 638.634,-737.116 652.531,-725.12"/>
<polygon fill="midnightblue" stroke="midnightblue" points="604.708,-761.776 599.424,-770.96 609.281,-767.075 604.708,-761.776"/>
</g>
<!-- Node39 -->
<g id="node39" class="node"><title>Node39</title>
<g id="a_node39"><a xlink:href="class_om_1_1_default_moveable.html" target="_top" xlink:title="Om::DefaultMoveable\l\&lt; Operand, DefaultCopyable\l\&lt; Operand, Element \&gt; \&gt;">
<polygon fill="none" stroke="black" points="474.487,-849 474.487,-893 617.513,-893 617.513,-849 474.487,-849"/>
<text text-anchor="start" x="482.487" y="-879" font-family="Helvetica,sans-Serif" font-size="10.00">Om::DefaultMoveable</text>
<text text-anchor="start" x="482.487" y="-867" font-family="Helvetica,sans-Serif" font-size="10.00">&lt; Operand, DefaultCopyable</text>
<text text-anchor="middle" x="546" y="-855" font-family="Helvetica,sans-Serif" font-size="10.00">&lt; Operand, Element &gt; &gt;</text>
</a>
</g>
</g>
<!-- Node39&#45;&gt;Node38 -->
<g id="edge39" class="edge"><title>Node39&#45;&gt;Node38</title>
<path fill="none" stroke="midnightblue" d="M559.3,-839.705C564.777,-827.23 570.878,-813.334 575.374,-803.092"/>
<polygon fill="midnightblue" stroke="midnightblue" points="556.086,-838.32 555.271,-848.883 562.496,-841.133 556.086,-838.32"/>
</g>
<!-- Node40&#45;&gt;Node39 -->
<g id="edge40" class="edge"><title>Node40&#45;&gt;Node39</title>
<path fill="none" stroke="midnightblue" d="M519.215,-929.8C524.61,-918.158 531.017,-904.331 536.213,-893.12"/>
<polygon fill="midnightblue" stroke="midnightblue" points="515.999,-928.415 514.97,-938.96 522.35,-931.358 515.999,-928.415"/>
</g>
<!-- Node41 -->
<g id="node41" class="node"><title>Node41</title>
<g id="a_node41"><a xlink:href="class_om_1_1_taker.html" target="_top" xlink:title="Om::Taker\&lt; Operand \&gt;">
<polygon fill="none" stroke="black" points="470.865,-693 470.865,-713 589.135,-713 589.135,-693 470.865,-693"/>
<text text-anchor="middle" x="530" y="-699" font-family="Helvetica,sans-Serif" font-size="10.00">Om::Taker&lt; Operand &gt;</text>
</a>
</g>
</g>
<!-- Node41&#45;&gt;Node36 -->
<g id="edge42" class="edge"><title>Node41&#45;&gt;Node36</title>
<path fill="none" stroke="midnightblue" d="M555.289,-687.893C581.671,-673.176 622.883,-650.187 649.916,-635.108"/>
<polygon fill="midnightblue" stroke="midnightblue" points="553.321,-684.983 546.293,-692.911 556.731,-691.096 553.321,-684.983"/>
</g>
<!-- Node42 -->
<g id="node42" class="node"><title>Node42</title>
<g id="a_node42"><a xlink:href="class_om_1_1_owner.html" target="_top" xlink:title="Om::Owner\&lt; Om::Program \&gt;">
<polygon fill="none" stroke="black" points="461.818,-531 461.818,-551 606.182,-551 606.182,-531 461.818,-531"/>
<text text-anchor="middle" x="534" y="-537" font-family="Helvetica,sans-Serif" font-size="10.00">Om::Owner&lt; Om::Program &gt;</text>
</a>
</g>
</g>
<!-- Node42&#45;&gt;Node34 -->
<g id="edge43" class="edge"><title>Node42&#45;&gt;Node34</title>
<path fill="none" stroke="#9a32cd" stroke-dasharray="5,2" d="M534,-520.71C534,-504.329 534,-481.55 534,-469.07"/>
<polygon fill="#9a32cd" stroke="#9a32cd" points="530.5,-520.823 534,-530.823 537.5,-520.823 530.5,-520.823"/>
<text text-anchor="middle" x="562.342" y="-496" font-family="Helvetica,sans-Serif" font-size="10.00"> thisProgram</text>
</g>
<!-- Node43 -->
<g id="node43" class="node"><title>Node43</title>
<g id="a_node43"><a xlink:href="class_om_1_1_taker.html" target="_top" xlink:title="Om::Taker\&lt; Owner\&lt; Om\l::Program \&gt; \&gt;">
<polygon fill="none" stroke="black" points="476.542,-603 476.542,-635 601.458,-635 601.458,-603 476.542,-603"/>
<text text-anchor="start" x="484.542" y="-621" font-family="Helvetica,sans-Serif" font-size="10.00">Om::Taker&lt; Owner&lt; Om</text>
<text text-anchor="middle" x="539" y="-609" font-family="Helvetica,sans-Serif" font-size="10.00">::Program &gt; &gt;</text>
</a>
</g>
</g>
<!-- Node43&#45;&gt;Node42 -->
<g id="edge44" class="edge"><title>Node43&#45;&gt;Node42</title>
<path fill="none" stroke="midnightblue" d="M537.339,-592.758C536.401,-578.488 535.283,-561.502 534.608,-551.245"/>
<polygon fill="midnightblue" stroke="midnightblue" points="533.863,-593.236 538.012,-602.985 540.848,-592.777 533.863,-593.236"/>
</g>
</g>
</svg>
