<?xml version="1.0" encoding="UTF-8" standalone="no"?>
<!DOCTYPE svg PUBLIC "-//W3C//DTD SVG 1.1//EN"
 "http://www.w3.org/Graphics/SVG/1.1/DTD/svg11.dtd">
<!-- Generated by graphviz version 2.30.1 (20130221.2233)
 -->
<!-- Title: Om::Sources::CodePointSource&lt; ThisCodeUnitIterator &gt; Pages: 1 -->
<svg width="618pt" height="113pt"
 viewBox="0.00 0.00 618.00 113.00" xmlns="http://www.w3.org/2000/svg" xmlns:xlink="http://www.w3.org/1999/xlink">
<g id="graph0" class="graph" transform="scale(1 1) rotate(0) translate(4 109)">
<title>Om::Sources::CodePointSource&lt; ThisCodeUnitIterator &gt;</title>
<!-- Node1 -->
<g id="node1" class="node"><title>Node1</title>
<polygon fill="#bfbfbf" stroke="black" points="451.855,-16 451.855,-48 610.145,-48 610.145,-16 451.855,-16"/>
<text text-anchor="start" x="459.855" y="-34" font-family="Helvetica,sans-Serif" font-size="10.00">Om::Sources::CodePointSource</text>
<text text-anchor="middle" x="531" y="-22" font-family="Helvetica,sans-Serif" font-size="10.00">&lt; ThisCodeUnitIterator &gt;</text>
</g>
<!-- Node2 -->
<g id="node2" class="node"><title>Node2</title>
<g id="a_node2"><a xlink:href="class_om_1_1_sources_1_1_default_source.html" target="_top" xlink:title="Om::Sources::DefaultSource\l\&lt; CodePoint const, CodePointSource\l\&lt; ThisCodeUnitIterator \&gt; \&gt;">
<polygon fill="none" stroke="black" points="164.031,-39 164.031,-83 345.969,-83 345.969,-39 164.031,-39"/>
<text text-anchor="start" x="172.031" y="-69" font-family="Helvetica,sans-Serif" font-size="10.00">Om::Sources::DefaultSource</text>
<text text-anchor="start" x="172.031" y="-57" font-family="Helvetica,sans-Serif" font-size="10.00">&lt; CodePoint const, CodePointSource</text>
<text text-anchor="middle" x="255" y="-45" font-family="Helvetica,sans-Serif" font-size="10.00">&lt; ThisCodeUnitIterator &gt; &gt;</text>
</a>
</g>
</g>
<!-- Node2&#45;&gt;Node1 -->
<g id="edge1" class="edge"><title>Node2&#45;&gt;Node1</title>
<path fill="none" stroke="midnightblue" d="M356.222,-50.3925C387.739,-47.0569 422.06,-43.4243 451.813,-40.2753"/>
<polygon fill="midnightblue" stroke="midnightblue" points="355.673,-46.931 346.097,-51.4641 356.41,-53.8921 355.673,-46.931"/>
</g>
<!-- Node3 -->
<g id="node3" class="node"><title>Node3</title>
<g id="a_node3"><a xlink:href="class_om_1_1_source.html" target="_top" xlink:title="Om::Source\&lt; CodePoint\l const &#160;\&gt;">
<polygon fill="none" stroke="black" points="0.666504,-73 0.666504,-105 125.333,-105 125.333,-73 0.666504,-73"/>
<text text-anchor="start" x="8.6665" y="-91" font-family="Helvetica,sans-Serif" font-size="10.00">Om::Source&lt; CodePoint</text>
<text text-anchor="middle" x="63" y="-79" font-family="Helvetica,sans-Serif" font-size="10.00"> const &gt;</text>
</a>
</g>
</g>
<!-- Node3&#45;&gt;Node2 -->
<g id="edge2" class="edge"><title>Node3&#45;&gt;Node2</title>
<path fill="none" stroke="midnightblue" d="M135.351,-78.4851C144.631,-77.1175 154.233,-75.7025 163.77,-74.297"/>
<polygon fill="midnightblue" stroke="midnightblue" points="134.808,-75.0272 125.425,-79.9479 135.829,-81.9524 134.808,-75.0272"/>
</g>
<!-- Node4 -->
<g id="node4" class="node"><title>Node4</title>
<polygon fill="none" stroke="#bfbfbf" points="11.9165,-10 11.9165,-54 114.083,-54 114.083,-10 11.9165,-10"/>
<text text-anchor="start" x="19.9165" y="-40" font-family="Helvetica,sans-Serif" font-size="10.00">std::iterator&lt; std</text>
<text text-anchor="start" x="19.9165" y="-28" font-family="Helvetica,sans-Serif" font-size="10.00">::input_iterator_tag,</text>
<text text-anchor="middle" x="63" y="-16" font-family="Helvetica,sans-Serif" font-size="10.00"> CodePoint const &gt;</text>
</g>
<!-- Node4&#45;&gt;Node2 -->
<g id="edge3" class="edge"><title>Node4&#45;&gt;Node2</title>
<path fill="none" stroke="midnightblue" d="M124.333,-41.2087C136.976,-43.1384 150.569,-45.2131 164.026,-47.2672"/>
<polygon fill="midnightblue" stroke="midnightblue" points="124.831,-37.7443 114.418,-39.6953 123.775,-44.6642 124.831,-37.7443"/>
</g>
<!-- Node5 -->
<g id="node5" class="node"><title>Node5</title>
<polygon fill="none" stroke="#bfbfbf" points="200.87,-0 200.87,-20 309.13,-20 309.13,-0 200.87,-0"/>
<text text-anchor="middle" x="255" y="-6" font-family="Helvetica,sans-Serif" font-size="10.00">ThisCodeUnitIterator</text>
</g>
<!-- Node5&#45;&gt;Node1 -->
<g id="edge4" class="edge"><title>Node5&#45;&gt;Node1</title>
<path fill="none" stroke="#9a32cd" stroke-dasharray="5,2" d="M319.724,-10.7213C353.71,-11.5559 396.202,-13.3163 434,-17 439.792,-17.5645 445.767,-18.2493 451.77,-19.0117"/>
<polygon fill="#9a32cd" stroke="#9a32cd" points="319.54,-7.21642 309.464,-10.4909 319.383,-14.2147 319.54,-7.21642"/>
<text text-anchor="middle" x="399" y="-31" font-family="Helvetica,sans-Serif" font-size="10.00"> thisInputEnd</text>
<text text-anchor="middle" x="399" y="-19" font-family="Helvetica,sans-Serif" font-size="10.00">thisInputIterator</text>
</g>
</g>
</svg>
