<?xml version="1.0" encoding="UTF-8" standalone="no"?>
<!DOCTYPE svg PUBLIC "-//W3C//DTD SVG 1.1//EN"
 "http://www.w3.org/Graphics/SVG/1.1/DTD/svg11.dtd">
<!-- Generated by graphviz version 2.36.0 (20140111.2315)
 -->
<!-- Title: Om::DefaultGiveable&lt; ThisImplementation, ThisInterface &gt; Pages: 1 -->
<svg width="732pt" height="63pt"
 viewBox="0.00 0.00 732.00 63.00" xmlns="http://www.w3.org/2000/svg" xmlns:xlink="http://www.w3.org/1999/xlink">
<g id="graph0" class="graph" transform="scale(1 1) rotate(0) translate(4 59)">
<title>Om::DefaultGiveable&lt; ThisImplementation, ThisInterface &gt;</title>
<!-- Node1 -->
<g id="node1" class="node"><title>Node1</title>
<g id="a_node1"><a xlink:title="A partial implementation of Giveable.">
<polygon fill="#bfbfbf" stroke="black" points="609.759,-8 609.759,-46 724.241,-46 724.241,-8 609.759,-8"/>
<text text-anchor="start" x="617.759" y="-34" font-family="Helvetica,sans-Serif" font-size="10.00">Om::DefaultGiveable</text>
<text text-anchor="start" x="617.759" y="-24" font-family="Helvetica,sans-Serif" font-size="10.00">&lt; ThisImplementation,</text>
<text text-anchor="middle" x="667" y="-14" font-family="Helvetica,sans-Serif" font-size="10.00"> ThisInterface &gt;</text>
</a>
</g>
</g>
<!-- Node2 -->
<g id="node2" class="node"><title>Node2</title>
<g id="a_node2"><a xlink:href="class_om_1_1_default_moveable.html" target="_top" xlink:title=" ">
<polygon fill="none" stroke="black" points="382.402,-3 382.402,-51 573.598,-51 573.598,-3 382.402,-3"/>
<text text-anchor="start" x="390.402" y="-39" font-family="Helvetica,sans-Serif" font-size="10.00">Om::DefaultMoveable</text>
<text text-anchor="start" x="390.402" y="-29" font-family="Helvetica,sans-Serif" font-size="10.00">&lt; ThisImplementation,</text>
<text text-anchor="start" x="390.402" y="-19" font-family="Helvetica,sans-Serif" font-size="10.00"> DefaultCopyable&lt; ThisImplementation,</text>
<text text-anchor="middle" x="478" y="-9" font-family="Helvetica,sans-Serif" font-size="10.00"> Giveable &gt; &gt;</text>
</a>
</g>
</g>
<!-- Node2&#45;&gt;Node1 -->
<g id="edge1" class="edge"><title>Node2&#45;&gt;Node1</title>
<path fill="none" stroke="midnightblue" d="M584.142,-27C592.854,-27 601.43,-27 609.559,-27"/>
<polygon fill="midnightblue" stroke="midnightblue" points="583.87,-23.5001 573.87,-27 583.87,-30.5001 583.87,-23.5001"/>
</g>
<!-- Node3 -->
<g id="node3" class="node"><title>Node3</title>
<g id="a_node3"><a xlink:href="class_om_1_1_default_copyable.html" target="_top" xlink:title=" ">
<polygon fill="none" stroke="black" points="231.759,-8 231.759,-46 346.241,-46 346.241,-8 231.759,-8"/>
<text text-anchor="start" x="239.759" y="-34" font-family="Helvetica,sans-Serif" font-size="10.00">Om::DefaultCopyable</text>
<text text-anchor="start" x="239.759" y="-24" font-family="Helvetica,sans-Serif" font-size="10.00">&lt; ThisImplementation,</text>
<text text-anchor="middle" x="289" y="-14" font-family="Helvetica,sans-Serif" font-size="10.00"> Giveable &gt;</text>
</a>
</g>
</g>
<!-- Node3&#45;&gt;Node2 -->
<g id="edge2" class="edge"><title>Node3&#45;&gt;Node2</title>
<path fill="none" stroke="midnightblue" d="M356.445,-27C364.86,-27 373.595,-27 382.343,-27"/>
<polygon fill="midnightblue" stroke="midnightblue" points="356.36,-23.5001 346.36,-27 356.36,-30.5001 356.36,-23.5001"/>
</g>
<!-- Node4 -->
<g id="node4" class="node"><title>Node4</title>
<g id="a_node4"><a xlink:href="class_om_1_1_giveable.html" target="_top" xlink:title="An object that can be copied or moved via Give.">
<polygon fill="none" stroke="black" points="118.434,-18 118.434,-36 195.566,-36 195.566,-18 118.434,-18"/>
<text text-anchor="middle" x="157" y="-24" font-family="Helvetica,sans-Serif" font-size="10.00">Om::Giveable</text>
</a>
</g>
</g>
<!-- Node4&#45;&gt;Node3 -->
<g id="edge3" class="edge"><title>Node4&#45;&gt;Node3</title>
<path fill="none" stroke="midnightblue" d="M205.649,-27C214.093,-27 222.958,-27 231.615,-27"/>
<polygon fill="midnightblue" stroke="midnightblue" points="205.601,-23.5001 195.601,-27 205.601,-30.5001 205.601,-23.5001"/>
</g>
<!-- Node5 -->
<g id="node5" class="node"><title>Node5</title>
<g id="a_node5"><a xlink:href="class_om_1_1_copyable.html" target="_top" xlink:title="An object that can be passed to Copy to be copied.">
<polygon fill="none" stroke="black" points="1.04199,-37 1.04199,-55 80.958,-55 80.958,-37 1.04199,-37"/>
<text text-anchor="middle" x="41" y="-43" font-family="Helvetica,sans-Serif" font-size="10.00">Om::Copyable</text>
</a>
</g>
</g>
<!-- Node5&#45;&gt;Node4 -->
<g id="edge4" class="edge"><title>Node5&#45;&gt;Node4</title>
<path fill="none" stroke="midnightblue" d="M91.2707,-37.7882C100.305,-36.2825 109.603,-34.7328 118.235,-33.2942"/>
<polygon fill="midnightblue" stroke="midnightblue" points="90.5208,-34.3648 81.2323,-39.4613 91.6717,-41.2696 90.5208,-34.3648"/>
</g>
<!-- Node6 -->
<g id="node6" class="node"><title>Node6</title>
<g id="a_node6"><a xlink:href="class_om_1_1_moveable.html" target="_top" xlink:title="An object that can be passed to Move to be moved.">
<polygon fill="none" stroke="black" points="0.487793,-0 0.487793,-18 81.5122,-18 81.5122,-0 0.487793,-0"/>
<text text-anchor="middle" x="41" y="-6" font-family="Helvetica,sans-Serif" font-size="10.00">Om::Moveable</text>
</a>
</g>
</g>
<!-- Node6&#45;&gt;Node4 -->
<g id="edge5" class="edge"><title>Node6&#45;&gt;Node4</title>
<path fill="none" stroke="midnightblue" d="M91.4598,-16.8094C100.372,-18.2166 109.534,-19.6633 118.055,-21.0086"/>
<polygon fill="midnightblue" stroke="midnightblue" points="91.9753,-13.3475 81.5517,-15.245 90.8835,-20.2619 91.9753,-13.3475"/>
</g>
</g>
</svg>
