<?xml version="1.0" encoding="UTF-8" standalone="no"?>
<!DOCTYPE svg PUBLIC "-//W3C//DTD SVG 1.1//EN"
 "http://www.w3.org/Graphics/SVG/1.1/DTD/svg11.dtd">
<!-- Generated by graphviz version 2.30.1 (20130221.2233)
 -->
<!-- Title: Om::Literal Pages: 1 -->
<svg width="1208pt" height="145pt"
 viewBox="0.00 0.00 1208.00 145.00" xmlns="http://www.w3.org/2000/svg" xmlns:xlink="http://www.w3.org/1999/xlink">
<g id="graph0" class="graph" transform="scale(1 1) rotate(0) translate(4 141)">
<title>Om::Literal</title>
<!-- Node1 -->
<g id="node1" class="node"><title>Node1</title>
<polygon fill="#bfbfbf" stroke="black" points="1134.55,-32 1134.55,-52 1199.45,-52 1199.45,-32 1134.55,-32"/>
<text text-anchor="middle" x="1167" y="-38" font-family="Helvetica,sans-Serif" font-size="10.00">Om::Literal</text>
</g>
<!-- Node2 -->
<g id="node2" class="node"><title>Node2</title>
<g id="a_node2"><a xlink:href="class_om_1_1_default_program.html" target="_top" xlink:title="Om::DefaultProgram\l\&lt; Literal \&gt;">
<polygon fill="none" stroke="black" points="990.153,-26 990.153,-58 1097.85,-58 1097.85,-26 990.153,-26"/>
<text text-anchor="start" x="998.153" y="-44" font-family="Helvetica,sans-Serif" font-size="10.00">Om::DefaultProgram</text>
<text text-anchor="middle" x="1044" y="-32" font-family="Helvetica,sans-Serif" font-size="10.00">&lt; Literal &gt;</text>
</a>
</g>
</g>
<!-- Node2&#45;&gt;Node1 -->
<g id="edge1" class="edge"><title>Node2&#45;&gt;Node1</title>
<path fill="none" stroke="midnightblue" d="M1108.33,-42C1117.43,-42 1126.44,-42 1134.54,-42"/>
<polygon fill="midnightblue" stroke="midnightblue" points="1108.07,-38.5001 1098.07,-42 1108.07,-45.5001 1108.07,-38.5001"/>
</g>
<!-- Node3 -->
<g id="node3" class="node"><title>Node3</title>
<g id="a_node3"><a xlink:href="class_om_1_1_default_consumer.html" target="_top" xlink:title="Om::DefaultConsumer\l\&lt; Literal, DefaultGiveable\l\&lt; Literal, Program \&gt; \&gt;">
<polygon fill="none" stroke="black" points="824.718,-46 824.718,-90 953.282,-90 953.282,-46 824.718,-46"/>
<text text-anchor="start" x="832.718" y="-76" font-family="Helvetica,sans-Serif" font-size="10.00">Om::DefaultConsumer</text>
<text text-anchor="start" x="832.718" y="-64" font-family="Helvetica,sans-Serif" font-size="10.00">&lt; Literal, DefaultGiveable</text>
<text text-anchor="middle" x="889" y="-52" font-family="Helvetica,sans-Serif" font-size="10.00">&lt; Literal, Program &gt; &gt;</text>
</a>
</g>
</g>
<!-- Node3&#45;&gt;Node2 -->
<g id="edge2" class="edge"><title>Node3&#45;&gt;Node2</title>
<path fill="none" stroke="midnightblue" d="M963.599,-55.493C972.537,-53.9742 981.527,-52.4464 990.082,-50.9927"/>
<polygon fill="midnightblue" stroke="midnightblue" points="962.829,-52.0736 953.557,-57.1995 964.002,-58.9747 962.829,-52.0736"/>
</g>
<!-- Node4 -->
<g id="node4" class="node"><title>Node4</title>
<g id="a_node4"><a xlink:href="class_om_1_1_default_giveable.html" target="_top" xlink:title="Om::DefaultGiveable\l\&lt; Literal, Program \&gt;">
<polygon fill="none" stroke="black" points="678.591,-52 678.591,-84 787.409,-84 787.409,-52 678.591,-52"/>
<text text-anchor="start" x="686.591" y="-70" font-family="Helvetica,sans-Serif" font-size="10.00">Om::DefaultGiveable</text>
<text text-anchor="middle" x="733" y="-58" font-family="Helvetica,sans-Serif" font-size="10.00">&lt; Literal, Program &gt;</text>
</a>
</g>
</g>
<!-- Node4&#45;&gt;Node3 -->
<g id="edge3" class="edge"><title>Node4&#45;&gt;Node3</title>
<path fill="none" stroke="midnightblue" d="M797.715,-68C806.598,-68 815.723,-68 824.6,-68"/>
<polygon fill="midnightblue" stroke="midnightblue" points="797.43,-64.5001 787.43,-68 797.429,-71.5001 797.43,-64.5001"/>
</g>
<!-- Node5 -->
<g id="node5" class="node"><title>Node5</title>
<g id="a_node5"><a xlink:href="class_om_1_1_default_moveable.html" target="_top" xlink:title="Om::DefaultMoveable\l\&lt; Literal, DefaultCopyable\l\&lt; Literal, Program \&gt; \&gt;">
<polygon fill="none" stroke="black" points="510.327,-46 510.327,-90 641.673,-90 641.673,-46 510.327,-46"/>
<text text-anchor="start" x="518.327" y="-76" font-family="Helvetica,sans-Serif" font-size="10.00">Om::DefaultMoveable</text>
<text text-anchor="start" x="518.327" y="-64" font-family="Helvetica,sans-Serif" font-size="10.00">&lt; Literal, DefaultCopyable</text>
<text text-anchor="middle" x="576" y="-52" font-family="Helvetica,sans-Serif" font-size="10.00">&lt; Literal, Program &gt; &gt;</text>
</a>
</g>
</g>
<!-- Node5&#45;&gt;Node4 -->
<g id="edge4" class="edge"><title>Node5&#45;&gt;Node4</title>
<path fill="none" stroke="midnightblue" d="M651.841,-68C660.743,-68 669.692,-68 678.217,-68"/>
<polygon fill="midnightblue" stroke="midnightblue" points="651.836,-64.5001 641.836,-68 651.836,-71.5001 651.836,-64.5001"/>
</g>
<!-- Node6 -->
<g id="node6" class="node"><title>Node6</title>
<g id="a_node6"><a xlink:href="class_om_1_1_default_copyable.html" target="_top" xlink:title="Om::DefaultCopyable\l\&lt; Literal, Program \&gt;">
<polygon fill="none" stroke="black" points="362.2,-52 362.2,-84 473.8,-84 473.8,-52 362.2,-52"/>
<text text-anchor="start" x="370.2" y="-70" font-family="Helvetica,sans-Serif" font-size="10.00">Om::DefaultCopyable</text>
<text text-anchor="middle" x="418" y="-58" font-family="Helvetica,sans-Serif" font-size="10.00">&lt; Literal, Program &gt;</text>
</a>
</g>
</g>
<!-- Node6&#45;&gt;Node5 -->
<g id="edge5" class="edge"><title>Node6&#45;&gt;Node5</title>
<path fill="none" stroke="midnightblue" d="M484.278,-68C492.812,-68 501.555,-68 510.084,-68"/>
<polygon fill="midnightblue" stroke="midnightblue" points="484,-64.5001 474,-68 484,-71.5001 484,-64.5001"/>
</g>
<!-- Node7 -->
<g id="node7" class="node"><title>Node7</title>
<g id="a_node7"><a xlink:href="class_om_1_1_program.html" target="_top" xlink:title="The Program implementation. ">
<polygon fill="none" stroke="black" points="249.995,-58 249.995,-78 326.005,-78 326.005,-58 249.995,-58"/>
<text text-anchor="middle" x="288" y="-64" font-family="Helvetica,sans-Serif" font-size="10.00">Om::Program</text>
</a>
</g>
</g>
<!-- Node7&#45;&gt;Node6 -->
<g id="edge6" class="edge"><title>Node7&#45;&gt;Node6</title>
<path fill="none" stroke="midnightblue" d="M336.051,-68C344.48,-68 353.332,-68 361.962,-68"/>
<polygon fill="midnightblue" stroke="midnightblue" points="336.023,-64.5001 326.023,-68 336.023,-71.5001 336.023,-64.5001"/>
</g>
<!-- Node8 -->
<g id="node8" class="node"><title>Node8</title>
<g id="a_node8"><a xlink:href="class_om_1_1_consumer.html" target="_top" xlink:title="An Element taker; takes at the back. ">
<polygon fill="none" stroke="black" points="124.104,-117 124.104,-137 207.896,-137 207.896,-117 124.104,-117"/>
<text text-anchor="middle" x="166" y="-123" font-family="Helvetica,sans-Serif" font-size="10.00">Om::Consumer</text>
</a>
</g>
</g>
<!-- Node8&#45;&gt;Node7 -->
<g id="edge7" class="edge"><title>Node8&#45;&gt;Node7</title>
<path fill="none" stroke="midnightblue" d="M201.331,-112.808C205.623,-110.912 209.931,-108.948 214,-107 233.181,-97.8172 254.583,-86.2171 269.227,-78.0639"/>
<polygon fill="midnightblue" stroke="midnightblue" points="199.851,-109.635 192.063,-116.819 202.631,-116.059 199.851,-109.635"/>
</g>
<!-- Node9 -->
<g id="node9" class="node"><title>Node9</title>
<g id="a_node9"><a xlink:href="class_om_1_1_giveable.html" target="_top" xlink:title="An object that can be copied or moved via Give. ">
<polygon fill="none" stroke="black" points="127.434,-78 127.434,-98 204.566,-98 204.566,-78 127.434,-78"/>
<text text-anchor="middle" x="166" y="-84" font-family="Helvetica,sans-Serif" font-size="10.00">Om::Giveable</text>
</a>
</g>
</g>
<!-- Node9&#45;&gt;Node7 -->
<g id="edge8" class="edge"><title>Node9&#45;&gt;Node7</title>
<path fill="none" stroke="midnightblue" d="M214.713,-80.0478C226.421,-78.0965 238.781,-76.0364 249.906,-74.1824"/>
<polygon fill="midnightblue" stroke="midnightblue" points="213.928,-76.6303 204.64,-81.7267 215.079,-83.5351 213.928,-76.6303"/>
</g>
<!-- Node10 -->
<g id="node10" class="node"><title>Node10</title>
<g id="a_node10"><a xlink:href="class_om_1_1_copyable.html" target="_top" xlink:title="An object that can be passed to Copy to be copied. ">
<polygon fill="none" stroke="black" points="1.04199,-97 1.04199,-117 80.958,-117 80.958,-97 1.04199,-97"/>
<text text-anchor="middle" x="41" y="-103" font-family="Helvetica,sans-Serif" font-size="10.00">Om::Copyable</text>
</a>
</g>
</g>
<!-- Node10&#45;&gt;Node9 -->
<g id="edge9" class="edge"><title>Node10&#45;&gt;Node9</title>
<path fill="none" stroke="midnightblue" d="M91.186,-99.4022C103.243,-97.5397 115.958,-95.5756 127.374,-93.8122"/>
<polygon fill="midnightblue" stroke="midnightblue" points="90.6046,-95.9504 81.2561,-100.936 91.6733,-102.868 90.6046,-95.9504"/>
</g>
<!-- Node11 -->
<g id="node11" class="node"><title>Node11</title>
<g id="a_node11"><a xlink:href="class_om_1_1_moveable.html" target="_top" xlink:title="An object that can be passed to Move to be moved. ">
<polygon fill="none" stroke="black" points="0.487793,-58 0.487793,-78 81.5122,-78 81.5122,-58 0.487793,-58"/>
<text text-anchor="middle" x="41" y="-64" font-family="Helvetica,sans-Serif" font-size="10.00">Om::Moveable</text>
</a>
</g>
</g>
<!-- Node11&#45;&gt;Node9 -->
<g id="edge10" class="edge"><title>Node11&#45;&gt;Node9</title>
<path fill="none" stroke="midnightblue" d="M91.7696,-76.0926C103.575,-78.0123 115.98,-80.0293 127.155,-81.8464"/>
<polygon fill="midnightblue" stroke="midnightblue" points="92.0271,-72.5886 81.595,-74.4382 90.9036,-79.4979 92.0271,-72.5886"/>
</g>
<!-- Node12 -->
<g id="node12" class="node"><title>Node12</title>
<g id="a_node12"><a xlink:href="class_om_1_1_producer.html" target="_top" xlink:title="An Element giver; gives from the front. ">
<polygon fill="none" stroke="black" points="126.879,-39 126.879,-59 205.121,-59 205.121,-39 126.879,-39"/>
<text text-anchor="middle" x="166" y="-45" font-family="Helvetica,sans-Serif" font-size="10.00">Om::Producer</text>
</a>
</g>
</g>
<!-- Node12&#45;&gt;Node7 -->
<g id="edge11" class="edge"><title>Node12&#45;&gt;Node7</title>
<path fill="none" stroke="midnightblue" d="M215.242,-56.6383C226.785,-58.466 238.933,-60.3893 249.884,-62.1233"/>
<polygon fill="midnightblue" stroke="midnightblue" points="215.723,-53.171 205.299,-55.064 214.628,-60.0848 215.723,-53.171"/>
</g>
<!-- Node13 -->
<g id="node13" class="node"><title>Node13</title>
<g id="a_node13"><a xlink:href="class_om_1_1_shareable.html" target="_top" xlink:title="Om::Shareable\&lt;\&gt;">
<polygon fill="none" stroke="black" points="118.532,-0 118.532,-20 213.468,-20 213.468,-0 118.532,-0"/>
<text text-anchor="middle" x="166" y="-6" font-family="Helvetica,sans-Serif" font-size="10.00">Om::Shareable&lt;&gt;</text>
</a>
</g>
</g>
<!-- Node13&#45;&gt;Node7 -->
<g id="edge12" class="edge"><title>Node13&#45;&gt;Node7</title>
<path fill="none" stroke="midnightblue" d="M202.882,-24.0429C206.66,-25.659 210.425,-27.3281 214,-29 233.264,-38.0083 254.652,-49.6357 269.271,-57.843"/>
<polygon fill="midnightblue" stroke="midnightblue" points="204.139,-20.7753 193.562,-20.1637 201.449,-27.2378 204.139,-20.7753"/>
</g>
<!-- Node14 -->
<g id="node14" class="node"><title>Node14</title>
<g id="a_node14"><a xlink:href="class_om_1_1_taker.html" target="_top" xlink:title="Om::Taker\&lt; Literal \&gt;">
<polygon fill="none" stroke="black" points="835.705,-7 835.705,-27 942.295,-27 942.295,-7 835.705,-7"/>
<text text-anchor="middle" x="889" y="-13" font-family="Helvetica,sans-Serif" font-size="10.00">Om::Taker&lt; Literal &gt;</text>
</a>
</g>
</g>
<!-- Node14&#45;&gt;Node2 -->
<g id="edge13" class="edge"><title>Node14&#45;&gt;Node2</title>
<path fill="none" stroke="midnightblue" d="M952.868,-27.2726C965.2,-29.2875 978.019,-31.3823 989.989,-33.3381"/>
<polygon fill="midnightblue" stroke="midnightblue" points="953.087,-23.7621 942.654,-25.6036 951.959,-30.6705 953.087,-23.7621"/>
</g>
</g>
</svg>
