<?xml version="1.0" encoding="UTF-8" standalone="no"?>
<!DOCTYPE svg PUBLIC "-//W3C//DTD SVG 1.1//EN"
 "http://www.w3.org/Graphics/SVG/1.1/DTD/svg11.dtd">
<!-- Generated by graphviz version 2.36.0 (20140111.2315)
 -->
<!-- Title: Om::Language::Reader Pages: 1 -->
<svg width="456pt" height="93pt"
 viewBox="0.00 0.00 456.00 93.00" xmlns="http://www.w3.org/2000/svg" xmlns:xlink="http://www.w3.org/1999/xlink">
<g id="graph0" class="graph" transform="scale(1 1) rotate(0) translate(4 89)">
<title>Om::Language::Reader</title>
<!-- Node1 -->
<g id="node1" class="node"><title>Node1</title>
<polygon fill="#bfbfbf" stroke="black" points="326.744,-36 326.744,-54 447.256,-54 447.256,-36 326.744,-36"/>
<text text-anchor="middle" x="387" y="-42" font-family="Helvetica,sans-Serif" font-size="10.00">Om::Language::Reader</text>
</g>
<!-- Node2 -->
<g id="node2" class="node"><title>Node2</title>
<g id="a_node2"><a xlink:href="class_om_1_1_source_1_1_default_source.html" target="_top" xlink:title="Om::Source::DefaultSource\l\&lt; CodePoint const, Reader \&gt;">
<polygon fill="none" stroke="black" points="144.515,-31 144.515,-59 289.485,-59 289.485,-31 144.515,-31"/>
<text text-anchor="start" x="152.515" y="-47" font-family="Helvetica,sans-Serif" font-size="10.00">Om::Source::DefaultSource</text>
<text text-anchor="middle" x="217" y="-37" font-family="Helvetica,sans-Serif" font-size="10.00">&lt; CodePoint const, Reader &gt;</text>
</a>
</g>
</g>
<!-- Node2&#45;&gt;Node1 -->
<g id="edge1" class="edge"><title>Node2&#45;&gt;Node1</title>
<path fill="none" stroke="midnightblue" d="M299.889,-45C308.914,-45 317.972,-45 326.646,-45"/>
<polygon fill="midnightblue" stroke="midnightblue" points="299.734,-41.5001 289.734,-45 299.734,-48.5001 299.734,-41.5001"/>
</g>
<!-- Node3 -->
<g id="node3" class="node"><title>Node3</title>
<g id="a_node3"><a xlink:href="class_om_1_1_source_1_1_source.html" target="_top" xlink:title="Om::Source::Source\l\&lt; CodePoint const &#160;\&gt;">
<polygon fill="none" stroke="black" points="0.692383,-57 0.692383,-85 107.308,-85 107.308,-57 0.692383,-57"/>
<text text-anchor="start" x="8.69238" y="-73" font-family="Helvetica,sans-Serif" font-size="10.00">Om::Source::Source</text>
<text text-anchor="middle" x="54" y="-63" font-family="Helvetica,sans-Serif" font-size="10.00">&lt; CodePoint const &gt;</text>
</a>
</g>
</g>
<!-- Node3&#45;&gt;Node2 -->
<g id="edge2" class="edge"><title>Node3&#45;&gt;Node2</title>
<path fill="none" stroke="midnightblue" d="M117.809,-60.857C126.542,-59.4467 135.567,-57.9892 144.445,-56.5554"/>
<polygon fill="midnightblue" stroke="midnightblue" points="117.032,-57.4371 107.717,-62.4866 118.148,-64.3475 117.032,-57.4371"/>
</g>
<!-- Node4 -->
<g id="node4" class="node"><title>Node4</title>
<polygon fill="none" stroke="#bfbfbf" points="2.9165,-0 2.9165,-38 105.083,-38 105.083,-0 2.9165,-0"/>
<text text-anchor="start" x="10.9165" y="-26" font-family="Helvetica,sans-Serif" font-size="10.00">std::iterator&lt; std</text>
<text text-anchor="start" x="10.9165" y="-16" font-family="Helvetica,sans-Serif" font-size="10.00">::input_iterator_tag,</text>
<text text-anchor="middle" x="54" y="-6" font-family="Helvetica,sans-Serif" font-size="10.00"> CodePoint const &gt;</text>
</g>
<!-- Node4&#45;&gt;Node2 -->
<g id="edge3" class="edge"><title>Node4&#45;&gt;Node2</title>
<path fill="none" stroke="midnightblue" d="M115.553,-28.7788C124.984,-30.3017 134.804,-31.8876 144.451,-33.4455"/>
<polygon fill="midnightblue" stroke="midnightblue" points="115.93,-25.2943 105.5,-27.1552 114.814,-32.2048 115.93,-25.2943"/>
</g>
</g>
</svg>
