<?xml version="1.0" encoding="UTF-8" standalone="no"?>
<!DOCTYPE svg PUBLIC "-//W3C//DTD SVG 1.1//EN"
 "http://www.w3.org/Graphics/SVG/1.1/DTD/svg11.dtd">
<!-- Generated by graphviz version 2.36.0 (20140111.2315)
 -->
<!-- Title: Om::Source::ContainerBackSource&lt; ThisItem, ThisContainer &gt; Pages: 1 -->
<svg width="526pt" height="93pt"
 viewBox="0.00 0.00 526.00 93.00" xmlns="http://www.w3.org/2000/svg" xmlns:xlink="http://www.w3.org/1999/xlink">
<g id="graph0" class="graph" transform="scale(1 1) rotate(0) translate(4 89)">
<title>Om::Source::ContainerBackSource&lt; ThisItem, ThisContainer &gt;</title>
<!-- Node0 -->
<g id="node1" class="node"><title>Node0</title>
<g id="a_node1"><a xlink:title="A Source adapter for a container; pulls items from the back.">
<polygon fill="#bfbfbf" stroke="black" points="346.642,-31 346.642,-59 517.358,-59 517.358,-31 346.642,-31"/>
<text text-anchor="start" x="354.642" y="-47" font-family="Helvetica,sans-Serif" font-size="10.00">Om::Source::ContainerBack</text>
<text text-anchor="middle" x="432" y="-37" font-family="Helvetica,sans-Serif" font-size="10.00">Source&lt; ThisItem, ThisContainer &gt;</text>
</a>
</g>
</g>
<!-- Node1 -->
<g id="node2" class="node"><title>Node1</title>
<g id="a_node2"><a xlink:href="class_om_1_1_source_1_1_default_source.html" target="_top" xlink:title=" ">
<polygon fill="none" stroke="black" points="144.193,-26 144.193,-64 309.807,-64 309.807,-26 144.193,-26"/>
<text text-anchor="start" x="152.193" y="-52" font-family="Helvetica,sans-Serif" font-size="10.00">Om::Source::DefaultSource</text>
<text text-anchor="start" x="152.193" y="-42" font-family="Helvetica,sans-Serif" font-size="10.00">&lt; ThisItem, ContainerBackSource</text>
<text text-anchor="middle" x="227" y="-32" font-family="Helvetica,sans-Serif" font-size="10.00">&lt; ThisItem, ThisContainer &gt; &gt;</text>
</a>
</g>
</g>
<!-- Node1&#45;&gt;Node0 -->
<g id="edge1" class="edge"><title>Node1&#45;&gt;Node0</title>
<path fill="none" stroke="midnightblue" d="M320.177,-45C328.91,-45 337.737,-45 346.395,-45"/>
<polygon fill="midnightblue" stroke="midnightblue" points="319.983,-41.5001 309.983,-45 319.983,-48.5001 319.983,-41.5001"/>
</g>
<!-- Node2 -->
<g id="node3" class="node"><title>Node2</title>
<g id="a_node3"><a xlink:href="class_om_1_1_source_1_1_source.html" target="_top" xlink:title="Any object that items can be pulled from.">
<polygon fill="none" stroke="black" points="0.70459,-57 0.70459,-85 107.295,-85 107.295,-57 0.70459,-57"/>
<text text-anchor="start" x="8.70459" y="-73" font-family="Helvetica,sans-Serif" font-size="10.00">Om::Source::Source</text>
<text text-anchor="middle" x="54" y="-63" font-family="Helvetica,sans-Serif" font-size="10.00">&lt; ThisItem &gt;</text>
</a>
</g>
</g>
<!-- Node2&#45;&gt;Node1 -->
<g id="edge2" class="edge"><title>Node2&#45;&gt;Node1</title>
<path fill="none" stroke="midnightblue" d="M117.866,-61.4414C126.35,-60.1515 135.154,-58.8128 143.911,-57.4814"/>
<polygon fill="midnightblue" stroke="midnightblue" points="117.061,-58.0235 107.701,-62.987 118.113,-64.9439 117.061,-58.0235"/>
</g>
<!-- Node3 -->
<g id="node4" class="node"><title>Node3</title>
<g id="a_node4"><a xlink:title=" ">
<polygon fill="none" stroke="#bfbfbf" points="2.9165,-0 2.9165,-38 105.083,-38 105.083,-0 2.9165,-0"/>
<text text-anchor="start" x="10.9165" y="-26" font-family="Helvetica,sans-Serif" font-size="10.00">std::iterator&lt; std</text>
<text text-anchor="start" x="10.9165" y="-16" font-family="Helvetica,sans-Serif" font-size="10.00">::input_iterator_tag,</text>
<text text-anchor="middle" x="54" y="-6" font-family="Helvetica,sans-Serif" font-size="10.00"> ThisItem &gt;</text>
</a>
</g>
</g>
<!-- Node3&#45;&gt;Node1 -->
<g id="edge3" class="edge"><title>Node3&#45;&gt;Node1</title>
<path fill="none" stroke="midnightblue" d="M115.551,-28.2066C124.74,-29.6038 134.351,-31.065 143.904,-32.5176"/>
<polygon fill="midnightblue" stroke="midnightblue" points="115.793,-24.7033 105.381,-26.6602 114.741,-31.6237 115.793,-24.7033"/>
</g>
</g>
</svg>
