<?xml version="1.0" encoding="UTF-8" standalone="no"?>
<!DOCTYPE svg PUBLIC "-//W3C//DTD SVG 1.1//EN"
 "http://www.w3.org/Graphics/SVG/1.1/DTD/svg11.dtd">
<!-- Generated by graphviz version 2.36.0 (20140111.2315)
 -->
<!-- Title: Om::Language::Literal Pages: 1 -->
<svg width="1072pt" height="83pt"
 viewBox="0.00 0.00 1072.00 83.00" xmlns="http://www.w3.org/2000/svg" xmlns:xlink="http://www.w3.org/1999/xlink">
<g id="graph0" class="graph" transform="scale(1 1) rotate(0) translate(4 79)">
<title>Om::Language::Literal</title>
<!-- Node8 -->
<g id="node1" class="node"><title>Node8</title>
<g id="a_node1"><a xlink:title="The Literal Program implementation.">
<polygon fill="#bfbfbf" stroke="black" points="948.525,-23 948.525,-41 1063.48,-41 1063.48,-23 948.525,-23"/>
<text text-anchor="middle" x="1006" y="-29" font-family="Helvetica,sans-Serif" font-size="10.00">Om::Language::Literal</text>
</a>
</g>
</g>
<!-- Node9 -->
<g id="node2" class="node"><title>Node9</title>
<g id="a_node2"><a xlink:href="class_om_1_1_language_1_1_default_program.html" target="_top" xlink:title=" ">
<polygon fill="none" stroke="black" points="754.128,-18 754.128,-46 911.872,-46 911.872,-18 754.128,-18"/>
<text text-anchor="start" x="762.128" y="-34" font-family="Helvetica,sans-Serif" font-size="10.00">Om::Language::DefaultProgram</text>
<text text-anchor="middle" x="833" y="-24" font-family="Helvetica,sans-Serif" font-size="10.00">&lt; Literal &gt;</text>
</a>
</g>
</g>
<!-- Node9&#45;&gt;Node8 -->
<g id="edge1" class="edge"><title>Node9&#45;&gt;Node8</title>
<path fill="none" stroke="midnightblue" d="M922.063,-32C930.986,-32 939.872,-32 948.331,-32"/>
<polygon fill="midnightblue" stroke="midnightblue" points="921.994,-28.5001 911.994,-32 921.994,-35.5001 921.994,-28.5001"/>
</g>
<!-- Node10 -->
<g id="node3" class="node"><title>Node10</title>
<g id="a_node3"><a xlink:href="class_om_1_1_language_1_1_default_consumer.html" target="_top" xlink:title=" ">
<polygon fill="none" stroke="black" points="552.237,-37 552.237,-75 717.763,-75 717.763,-37 552.237,-37"/>
<text text-anchor="start" x="560.237" y="-63" font-family="Helvetica,sans-Serif" font-size="10.00">Om::Language::DefaultConsumer</text>
<text text-anchor="start" x="560.237" y="-53" font-family="Helvetica,sans-Serif" font-size="10.00">&lt; Literal, DefaultGiveable</text>
<text text-anchor="middle" x="635" y="-43" font-family="Helvetica,sans-Serif" font-size="10.00">&lt; Literal, Program &gt; &gt;</text>
</a>
</g>
</g>
<!-- Node10&#45;&gt;Node9 -->
<g id="edge2" class="edge"><title>Node10&#45;&gt;Node9</title>
<path fill="none" stroke="midnightblue" d="M728.137,-44.7179C736.823,-43.6544 745.57,-42.5833 754.104,-41.5382"/>
<polygon fill="midnightblue" stroke="midnightblue" points="727.486,-41.2713 717.986,-45.9609 728.337,-48.2195 727.486,-41.2713"/>
</g>
<!-- Node11 -->
<g id="node4" class="node"><title>Node11</title>
<g id="a_node4"><a xlink:href="class_om_1_1_default_giveable.html" target="_top" xlink:title=" ">
<polygon fill="none" stroke="black" points="406.591,-42 406.591,-70 515.409,-70 515.409,-42 406.591,-42"/>
<text text-anchor="start" x="414.591" y="-58" font-family="Helvetica,sans-Serif" font-size="10.00">Om::DefaultGiveable</text>
<text text-anchor="middle" x="461" y="-48" font-family="Helvetica,sans-Serif" font-size="10.00">&lt; Literal, Program &gt;</text>
</a>
</g>
</g>
<!-- Node11&#45;&gt;Node10 -->
<g id="edge3" class="edge"><title>Node11&#45;&gt;Node10</title>
<path fill="none" stroke="midnightblue" d="M525.495,-56C534.176,-56 543.186,-56 552.136,-56"/>
<polygon fill="midnightblue" stroke="midnightblue" points="525.479,-52.5001 515.479,-56 525.479,-59.5001 525.479,-52.5001"/>
</g>
<!-- Node12 -->
<g id="node5" class="node"><title>Node12</title>
<g id="a_node5"><a xlink:href="class_om_1_1_default_moveable.html" target="_top" xlink:title=" ">
<polygon fill="none" stroke="black" points="238.327,-37 238.327,-75 369.673,-75 369.673,-37 238.327,-37"/>
<text text-anchor="start" x="246.327" y="-63" font-family="Helvetica,sans-Serif" font-size="10.00">Om::DefaultMoveable</text>
<text text-anchor="start" x="246.327" y="-53" font-family="Helvetica,sans-Serif" font-size="10.00">&lt; Literal, DefaultCopyable</text>
<text text-anchor="middle" x="304" y="-43" font-family="Helvetica,sans-Serif" font-size="10.00">&lt; Literal, Program &gt; &gt;</text>
</a>
</g>
</g>
<!-- Node12&#45;&gt;Node11 -->
<g id="edge4" class="edge"><title>Node12&#45;&gt;Node11</title>
<path fill="none" stroke="midnightblue" d="M379.841,-56C388.743,-56 397.692,-56 406.217,-56"/>
<polygon fill="midnightblue" stroke="midnightblue" points="379.836,-52.5001 369.836,-56 379.836,-59.5001 379.836,-52.5001"/>
</g>
<!-- Node13 -->
<g id="node6" class="node"><title>Node13</title>
<g id="a_node6"><a xlink:href="class_om_1_1_default_copyable.html" target="_top" xlink:title=" ">
<polygon fill="none" stroke="black" points="90.1997,-42 90.1997,-70 201.8,-70 201.8,-42 90.1997,-42"/>
<text text-anchor="start" x="98.1997" y="-58" font-family="Helvetica,sans-Serif" font-size="10.00">Om::DefaultCopyable</text>
<text text-anchor="middle" x="146" y="-48" font-family="Helvetica,sans-Serif" font-size="10.00">&lt; Literal, Program &gt;</text>
</a>
</g>
</g>
<!-- Node13&#45;&gt;Node12 -->
<g id="edge5" class="edge"><title>Node13&#45;&gt;Node12</title>
<path fill="none" stroke="midnightblue" d="M212.278,-56C220.812,-56 229.555,-56 238.084,-56"/>
<polygon fill="midnightblue" stroke="midnightblue" points="212,-52.5001 202,-56 212,-59.5001 212,-52.5001"/>
</g>
<!-- Node14 -->
<g id="node7" class="node"><title>Node14</title>
<g id="a_node7"><a xlink:title=" ">
<polygon fill="none" stroke="#bfbfbf" points="-0.172363,-47 -0.172363,-65 54.1724,-65 54.1724,-47 -0.172363,-47"/>
<text text-anchor="middle" x="27" y="-53" font-family="Helvetica,sans-Serif" font-size="10.00">Program</text>
</a>
</g>
</g>
<!-- Node14&#45;&gt;Node13 -->
<g id="edge6" class="edge"><title>Node14&#45;&gt;Node13</title>
<path fill="none" stroke="midnightblue" d="M64.4994,-56C72.6308,-56 81.426,-56 90.1145,-56"/>
<polygon fill="midnightblue" stroke="midnightblue" points="64.2571,-52.5001 54.2571,-56 64.257,-59.5001 64.2571,-52.5001"/>
</g>
<!-- Node15 -->
<g id="node8" class="node"><title>Node15</title>
<g id="a_node8"><a xlink:href="class_om_1_1_taker.html" target="_top" xlink:title=" ">
<polygon fill="none" stroke="black" points="581.705,-0 581.705,-18 688.295,-18 688.295,-0 581.705,-0"/>
<text text-anchor="middle" x="635" y="-6" font-family="Helvetica,sans-Serif" font-size="10.00">Om::Taker&lt; Literal &gt;</text>
</a>
</g>
</g>
<!-- Node15&#45;&gt;Node9 -->
<g id="edge7" class="edge"><title>Node15&#45;&gt;Node9</title>
<path fill="none" stroke="midnightblue" d="M698.646,-16.3514C716.216,-18.4131 735.537,-20.6804 753.887,-22.8336"/>
<polygon fill="midnightblue" stroke="midnightblue" points="698.864,-12.853 688.524,-15.1636 698.048,-19.8053 698.864,-12.853"/>
</g>
</g>
</svg>
