<?xml version="1.0" encoding="UTF-8" standalone="no"?>
<!DOCTYPE svg PUBLIC "-//W3C//DTD SVG 1.1//EN"
 "http://www.w3.org/Graphics/SVG/1.1/DTD/svg11.dtd">
<!-- Generated by graphviz version 2.28.0 (20120817.0054)
 -->
<!-- Title: Om::Expression::FormRange&lt; Form const &#160;&gt; Pages: 1 -->
<svg width="940pt" height="117pt"
 viewBox="0.00 0.00 940.00 117.00" xmlns="http://www.w3.org/2000/svg" xmlns:xlink="http://www.w3.org/1999/xlink">
<g id="graph1" class="graph" transform="scale(1 1) rotate(0) translate(4 113)">
<title>Om::Expression::FormRange&lt; Form const &#160;&gt;</title>
<!-- Node1 -->
<g id="node1" class="node"><title>Node1</title>
<polygon fill="#bfbfbf" stroke="black" points="792.5,-24 792.5,-54 931.5,-54 931.5,-24 792.5,-24"/>
<text text-anchor="start" x="800.5" y="-42" font-family="Helvetica,sans-Serif" font-size="10.00">Om::Expression::FormRange</text>
<text text-anchor="middle" x="862" y="-31" font-family="Helvetica,sans-Serif" font-size="10.00">&lt; Form const &gt;</text>
</g>
<!-- Node2 -->
<g id="node2" class="node"><title>Node2</title>
<a xlink:href="class_om_1_1_sources_1_1_collection_front_source.html" target="_top" xlink:title="Om::Sources::CollectionFront\lSource\&lt; Form const, FormDeque\l::const_iterator \&gt;">
<polygon fill="none" stroke="black" points="600,-18.5 600,-59.5 754,-59.5 754,-18.5 600,-18.5"/>
<text text-anchor="start" x="608" y="-47.5" font-family="Helvetica,sans-Serif" font-size="10.00">Om::Sources::CollectionFront</text>
<text text-anchor="start" x="608" y="-36.5" font-family="Helvetica,sans-Serif" font-size="10.00">Source&lt; Form const, FormDeque</text>
<text text-anchor="middle" x="677" y="-25.5" font-family="Helvetica,sans-Serif" font-size="10.00">::const_iterator &gt;</text>
</a>
</g>
<!-- Node2&#45;&gt;Node1 -->
<g id="edge2" class="edge"><title>Node2&#45;&gt;Node1</title>
<path fill="none" stroke="midnightblue" d="M764.181,-39C773.591,-39 783.076,-39 792.236,-39"/>
<polygon fill="midnightblue" stroke="midnightblue" points="764.019,-35.5001 754.019,-39 764.019,-42.5001 764.019,-35.5001"/>
</g>
<!-- Node3 -->
<g id="node4" class="node"><title>Node3</title>
<a xlink:href="class_om_1_1_sources_1_1_iterator_pair_source.html" target="_top" xlink:title="Om::Sources::IteratorPair\lSource\&lt; Form const , FormDeque\l::const_iterator \&gt;">
<polygon fill="none" stroke="black" points="404.5,-18.5 404.5,-59.5 561.5,-59.5 561.5,-18.5 404.5,-18.5"/>
<text text-anchor="start" x="412.5" y="-47.5" font-family="Helvetica,sans-Serif" font-size="10.00">Om::Sources::IteratorPair</text>
<text text-anchor="start" x="412.5" y="-36.5" font-family="Helvetica,sans-Serif" font-size="10.00">Source&lt; Form const , FormDeque</text>
<text text-anchor="middle" x="483" y="-25.5" font-family="Helvetica,sans-Serif" font-size="10.00">::const_iterator &gt;</text>
</a>
</g>
<!-- Node3&#45;&gt;Node2 -->
<g id="edge4" class="edge"><title>Node3&#45;&gt;Node2</title>
<path fill="none" stroke="midnightblue" d="M571.652,-39C581.024,-39 590.504,-39 599.73,-39"/>
<polygon fill="midnightblue" stroke="midnightblue" points="571.54,-35.5001 561.54,-39 571.54,-42.5001 571.54,-35.5001"/>
</g>
<!-- Node4 -->
<g id="node6" class="node"><title>Node4</title>
<a xlink:href="class_om_1_1_sources_1_1_default_source.html" target="_top" xlink:title="Om::Sources::DefaultSource\l\&lt; Form const , IteratorPairSource\l\&lt; Form const , FormDeque::const\l_iterator \&gt; \&gt;">
<polygon fill="none" stroke="black" points="166.5,-49 166.5,-101 321.5,-101 321.5,-49 166.5,-49"/>
<text text-anchor="start" x="174.5" y="-89" font-family="Helvetica,sans-Serif" font-size="10.00">Om::Sources::DefaultSource</text>
<text text-anchor="start" x="174.5" y="-78" font-family="Helvetica,sans-Serif" font-size="10.00">&lt; Form const , IteratorPairSource</text>
<text text-anchor="start" x="174.5" y="-67" font-family="Helvetica,sans-Serif" font-size="10.00">&lt; Form const , FormDeque::const</text>
<text text-anchor="middle" x="244" y="-56" font-family="Helvetica,sans-Serif" font-size="10.00">_iterator &gt; &gt;</text>
</a>
</g>
<!-- Node4&#45;&gt;Node3 -->
<g id="edge6" class="edge"><title>Node4&#45;&gt;Node3</title>
<path fill="none" stroke="midnightblue" d="M331.698,-61.8307C355.507,-58.2142 381.165,-54.3167 404.426,-50.7835"/>
<polygon fill="midnightblue" stroke="midnightblue" points="330.981,-58.3994 321.62,-63.3615 332.032,-65.32 330.981,-58.3994"/>
</g>
<!-- Node5 -->
<g id="node8" class="node"><title>Node5</title>
<a xlink:href="class_om_1_1_source.html" target="_top" xlink:title="Om::Source\&lt; Form const &#160;\&gt;">
<polygon fill="none" stroke="black" points="0,-89.5 0,-108.5 128,-108.5 128,-89.5 0,-89.5"/>
<text text-anchor="middle" x="64" y="-96.5" font-family="Helvetica,sans-Serif" font-size="10.00">Om::Source&lt; Form const &gt;</text>
</a>
</g>
<!-- Node5&#45;&gt;Node4 -->
<g id="edge8" class="edge"><title>Node5&#45;&gt;Node4</title>
<path fill="none" stroke="midnightblue" d="M138.025,-89.154C147.364,-87.8948 156.945,-86.6029 166.34,-85.3362"/>
<polygon fill="midnightblue" stroke="midnightblue" points="137.449,-85.6998 128.007,-90.5047 138.385,-92.637 137.449,-85.6998"/>
</g>
<!-- Node6 -->
<g id="node10" class="node"><title>Node6</title>
<polygon fill="none" stroke="#bfbfbf" points="16.5,-29.5 16.5,-70.5 111.5,-70.5 111.5,-29.5 16.5,-29.5"/>
<text text-anchor="start" x="24.5" y="-58.5" font-family="Helvetica,sans-Serif" font-size="10.00">std::iterator&lt; std</text>
<text text-anchor="start" x="24.5" y="-47.5" font-family="Helvetica,sans-Serif" font-size="10.00">::input_iterator_tag,</text>
<text text-anchor="middle" x="64" y="-36.5" font-family="Helvetica,sans-Serif" font-size="10.00"> Form const &gt;</text>
</g>
<!-- Node6&#45;&gt;Node4 -->
<g id="edge10" class="edge"><title>Node6&#45;&gt;Node4</title>
<path fill="none" stroke="midnightblue" d="M121.815,-57.9797C135.952,-59.9652 151.341,-62.1265 166.261,-64.222"/>
<polygon fill="midnightblue" stroke="midnightblue" points="122.157,-54.4934 111.767,-56.5685 121.183,-61.4254 122.157,-54.4934"/>
</g>
<!-- Node7 -->
<g id="node12" class="node"><title>Node7</title>
<a xlink:title="STL iterator class.">
<polygon fill="none" stroke="#bfbfbf" points="189.5,-0 189.5,-30 298.5,-30 298.5,-0 189.5,-0"/>
<text text-anchor="start" x="197.5" y="-18" font-family="Helvetica,sans-Serif" font-size="10.00">std::deque&lt; T &gt;::const</text>
<text text-anchor="middle" x="244" y="-7" font-family="Helvetica,sans-Serif" font-size="10.00">_iterator</text>
</a>
</g>
<!-- Node7&#45;&gt;Node3 -->
<g id="edge12" class="edge"><title>Node7&#45;&gt;Node3</title>
<path fill="none" stroke="#9a32cd" stroke-dasharray="5,2" d="M308.748,-19.889C332.959,-21.8866 360.773,-24.3508 386,-27 392.014,-27.6315 398.234,-28.3227 404.485,-29.0443"/>
<polygon fill="#9a32cd" stroke="#9a32cd" points="308.862,-16.3868 298.611,-19.0623 308.293,-23.3636 308.862,-16.3868"/>
<text text-anchor="middle" x="363" y="-41" font-family="Helvetica,sans-Serif" font-size="10.00"> thisEnd</text>
<text text-anchor="middle" x="363" y="-30" font-family="Helvetica,sans-Serif" font-size="10.00">thisCurrent</text>
</g>
</g>
</svg>
