<?xml version="1.0" encoding="UTF-8" standalone="no"?>
<!DOCTYPE svg PUBLIC "-//W3C//DTD SVG 1.1//EN"
 "http://www.w3.org/Graphics/SVG/1.1/DTD/svg11.dtd">
<!-- Generated by graphviz version 2.30.1 (20130221.2233)
 -->
<!-- Title: Om::Sink&lt; ThisItem &gt; Pages: 1 -->
<svg width="662pt" height="304pt"
 viewBox="0.00 0.00 662.00 304.00" xmlns="http://www.w3.org/2000/svg" xmlns:xlink="http://www.w3.org/1999/xlink">
<g id="graph0" class="graph" transform="scale(1 1) rotate(0) translate(4 300)">
<title>Om::Sink&lt; ThisItem &gt;</title>
<!-- Node1 -->
<g id="node1" class="node"><title>Node1</title>
<polygon fill="#bfbfbf" stroke="black" points="0.740723,-132 0.740723,-152 113.259,-152 113.259,-132 0.740723,-132"/>
<text text-anchor="middle" x="57" y="-138" font-family="Helvetica,sans-Serif" font-size="10.00">Om::Sink&lt; ThisItem &gt;</text>
</g>
<!-- Node2 -->
<g id="node2" class="node"><title>Node2</title>
<g id="a_node2"><a xlink:href="class_om_1_1_sinks_1_1_default_sink.html" target="_top" xlink:title="DefaultSink\&lt; ThisItem,\l ContainerBackSink\&lt; ThisItem,\l ThisContainer \&gt; \&gt;">
<polygon fill="none" stroke="black" points="150.309,-252 150.309,-296 303.691,-296 303.691,-252 150.309,-252"/>
<text text-anchor="start" x="158.309" y="-282" font-family="Helvetica,sans-Serif" font-size="10.00">DefaultSink&lt; ThisItem,</text>
<text text-anchor="start" x="158.309" y="-270" font-family="Helvetica,sans-Serif" font-size="10.00"> ContainerBackSink&lt; ThisItem,</text>
<text text-anchor="middle" x="227" y="-258" font-family="Helvetica,sans-Serif" font-size="10.00"> ThisContainer &gt; &gt;</text>
</a>
</g>
</g>
<!-- Node1&#45;&gt;Node2 -->
<g id="edge1" class="edge"><title>Node1&#45;&gt;Node2</title>
<path fill="none" stroke="midnightblue" d="M70.9187,-160.268C87.2095,-182.186 117.095,-218.865 150,-242 155.153,-245.623 160.78,-248.946 166.565,-251.965"/>
<polygon fill="midnightblue" stroke="midnightblue" points="73.7033,-158.147 64.987,-152.124 68.0449,-162.268 73.7033,-158.147"/>
</g>
<!-- Node4 -->
<g id="node4" class="node"><title>Node4</title>
<g id="a_node4"><a xlink:href="class_om_1_1_sinks_1_1_default_sink.html" target="_top" xlink:title="DefaultSink\&lt; ThisItem,\l ContainerFrontSink\&lt;\l ThisItem, ThisContainer \&gt; \&gt;">
<polygon fill="none" stroke="black" points="156.095,-189 156.095,-233 297.905,-233 297.905,-189 156.095,-189"/>
<text text-anchor="start" x="164.095" y="-219" font-family="Helvetica,sans-Serif" font-size="10.00">DefaultSink&lt; ThisItem,</text>
<text text-anchor="start" x="164.095" y="-207" font-family="Helvetica,sans-Serif" font-size="10.00"> ContainerFrontSink&lt;</text>
<text text-anchor="middle" x="227" y="-195" font-family="Helvetica,sans-Serif" font-size="10.00"> ThisItem, ThisContainer &gt; &gt;</text>
</a>
</g>
</g>
<!-- Node1&#45;&gt;Node4 -->
<g id="edge3" class="edge"><title>Node1&#45;&gt;Node4</title>
<path fill="none" stroke="midnightblue" d="M91.7962,-155.881C114.881,-165.362 145.957,-178.125 172.391,-188.982"/>
<polygon fill="midnightblue" stroke="midnightblue" points="93.0086,-152.595 82.4286,-152.033 90.3491,-159.07 93.0086,-152.595"/>
</g>
<!-- Node6 -->
<g id="node6" class="node"><title>Node6</title>
<g id="a_node6"><a xlink:href="class_om_1_1_sinks_1_1_default_sink.html" target="_top" xlink:title="DefaultSink\&lt; ThisItem,\l IteratorSink\&lt; ThisItem,\l std::ostreambuf_iterator\l\&lt; ThisItem \&gt; \&gt; \&gt;">
<polygon fill="none" stroke="black" points="164.808,-114 164.808,-170 289.192,-170 289.192,-114 164.808,-114"/>
<text text-anchor="start" x="172.808" y="-156" font-family="Helvetica,sans-Serif" font-size="10.00">DefaultSink&lt; ThisItem,</text>
<text text-anchor="start" x="172.808" y="-144" font-family="Helvetica,sans-Serif" font-size="10.00"> IteratorSink&lt; ThisItem,</text>
<text text-anchor="start" x="172.808" y="-132" font-family="Helvetica,sans-Serif" font-size="10.00"> std::ostreambuf_iterator</text>
<text text-anchor="middle" x="227" y="-120" font-family="Helvetica,sans-Serif" font-size="10.00">&lt; ThisItem &gt; &gt; &gt;</text>
</a>
</g>
</g>
<!-- Node1&#45;&gt;Node6 -->
<g id="edge5" class="edge"><title>Node1&#45;&gt;Node6</title>
<path fill="none" stroke="midnightblue" d="M123.672,-142C137.21,-142 151.416,-142 164.787,-142"/>
<polygon fill="midnightblue" stroke="midnightblue" points="123.475,-138.5 113.475,-142 123.475,-145.5 123.475,-138.5"/>
</g>
<!-- Node9 -->
<g id="node9" class="node"><title>Node9</title>
<g id="a_node9"><a xlink:href="class_om_1_1_sinks_1_1_default_sink.html" target="_top" xlink:title="DefaultSink\&lt; ThisItem,\l IteratorSink\&lt; ThisItem,\l ThisIterator \&gt; \&gt;">
<polygon fill="none" stroke="black" points="167.264,-51 167.264,-95 286.736,-95 286.736,-51 167.264,-51"/>
<text text-anchor="start" x="175.264" y="-81" font-family="Helvetica,sans-Serif" font-size="10.00">DefaultSink&lt; ThisItem,</text>
<text text-anchor="start" x="175.264" y="-69" font-family="Helvetica,sans-Serif" font-size="10.00"> IteratorSink&lt; ThisItem,</text>
<text text-anchor="middle" x="227" y="-57" font-family="Helvetica,sans-Serif" font-size="10.00"> ThisIterator &gt; &gt;</text>
</a>
</g>
</g>
<!-- Node1&#45;&gt;Node9 -->
<g id="edge8" class="edge"><title>Node1&#45;&gt;Node9</title>
<path fill="none" stroke="midnightblue" d="M91.9017,-127.955C109.268,-120.771 130.756,-111.899 150,-104 156.987,-101.132 164.338,-98.1231 171.604,-95.1541"/>
<polygon fill="midnightblue" stroke="midnightblue" points="90.1026,-124.912 82.2009,-131.97 92.7793,-131.38 90.1026,-124.912"/>
</g>
<!-- Node11 -->
<g id="node11" class="node"><title>Node11</title>
<g id="a_node11"><a xlink:href="class_om_1_1_sinks_1_1_default_sink.html" target="_top" xlink:title="A partial Sink implementation. ">
<polygon fill="none" stroke="black" points="167.594,-0 167.594,-32 286.406,-32 286.406,-0 167.594,-0"/>
<text text-anchor="start" x="175.594" y="-18" font-family="Helvetica,sans-Serif" font-size="10.00">Om::Sinks::DefaultSink</text>
<text text-anchor="middle" x="227" y="-6" font-family="Helvetica,sans-Serif" font-size="10.00">&lt; ThisItem &gt;</text>
</a>
</g>
</g>
<!-- Node1&#45;&gt;Node11 -->
<g id="edge10" class="edge"><title>Node1&#45;&gt;Node11</title>
<path fill="none" stroke="midnightblue" d="M70.3266,-123.437C86.2132,-100.88 115.884,-63.1038 150,-41 155.362,-37.5258 161.251,-34.4929 167.305,-31.855"/>
<polygon fill="midnightblue" stroke="midnightblue" points="67.3496,-121.589 64.5696,-131.813 73.1183,-125.554 67.3496,-121.589"/>
</g>
<!-- Node3 -->
<g id="node3" class="node"><title>Node3</title>
<g id="a_node3"><a xlink:href="class_om_1_1_sinks_1_1_container_back_sink.html" target="_top" xlink:title="A Sink adapter for a container; pushes items into the back. ">
<polygon fill="none" stroke="black" points="339.757,-258 339.757,-290 498.243,-290 498.243,-258 339.757,-258"/>
<text text-anchor="start" x="347.757" y="-276" font-family="Helvetica,sans-Serif" font-size="10.00">Om::Sinks::ContainerBack</text>
<text text-anchor="middle" x="419" y="-264" font-family="Helvetica,sans-Serif" font-size="10.00">Sink&lt; ThisItem, ThisContainer &gt;</text>
</a>
</g>
</g>
<!-- Node2&#45;&gt;Node3 -->
<g id="edge2" class="edge"><title>Node2&#45;&gt;Node3</title>
<path fill="none" stroke="midnightblue" d="M313.934,-274C322.525,-274 331.216,-274 339.722,-274"/>
<polygon fill="midnightblue" stroke="midnightblue" points="313.912,-270.5 303.912,-274 313.912,-277.5 313.912,-270.5"/>
</g>
<!-- Node5 -->
<g id="node5" class="node"><title>Node5</title>
<g id="a_node5"><a xlink:href="class_om_1_1_sinks_1_1_container_front_sink.html" target="_top" xlink:title="A Sink adapter for a container; pushes items into the front. ">
<polygon fill="none" stroke="black" points="339.757,-195 339.757,-227 498.243,-227 498.243,-195 339.757,-195"/>
<text text-anchor="start" x="347.757" y="-213" font-family="Helvetica,sans-Serif" font-size="10.00">Om::Sinks::ContainerFront</text>
<text text-anchor="middle" x="419" y="-201" font-family="Helvetica,sans-Serif" font-size="10.00">Sink&lt; ThisItem, ThisContainer &gt;</text>
</a>
</g>
</g>
<!-- Node4&#45;&gt;Node5 -->
<g id="edge4" class="edge"><title>Node4&#45;&gt;Node5</title>
<path fill="none" stroke="midnightblue" d="M308.216,-211C318.591,-211 329.208,-211 339.554,-211"/>
<polygon fill="midnightblue" stroke="midnightblue" points="307.94,-207.5 297.94,-211 307.94,-214.5 307.94,-207.5"/>
</g>
<!-- Node7 -->
<g id="node7" class="node"><title>Node7</title>
<g id="a_node7"><a xlink:href="class_om_1_1_sinks_1_1_iterator_sink.html" target="_top" xlink:title="Om::Sinks::IteratorSink\l\&lt; ThisItem const, std\l::ostreambuf_iterator\&lt;\l ThisItem \&gt; \&gt;">
<polygon fill="none" stroke="black" points="359.596,-114 359.596,-170 478.404,-170 478.404,-114 359.596,-114"/>
<text text-anchor="start" x="367.596" y="-156" font-family="Helvetica,sans-Serif" font-size="10.00">Om::Sinks::IteratorSink</text>
<text text-anchor="start" x="367.596" y="-144" font-family="Helvetica,sans-Serif" font-size="10.00">&lt; ThisItem const, std</text>
<text text-anchor="start" x="367.596" y="-132" font-family="Helvetica,sans-Serif" font-size="10.00">::ostreambuf_iterator&lt;</text>
<text text-anchor="middle" x="419" y="-120" font-family="Helvetica,sans-Serif" font-size="10.00"> ThisItem &gt; &gt;</text>
</a>
</g>
</g>
<!-- Node6&#45;&gt;Node7 -->
<g id="edge6" class="edge"><title>Node6&#45;&gt;Node7</title>
<path fill="none" stroke="midnightblue" d="M299.589,-142C319.314,-142 340.474,-142 359.373,-142"/>
<polygon fill="midnightblue" stroke="midnightblue" points="299.425,-138.5 289.425,-142 299.425,-145.5 299.425,-138.5"/>
</g>
<!-- Node8 -->
<g id="node8" class="node"><title>Node8</title>
<g id="a_node8"><a xlink:href="class_om_1_1_sinks_1_1_stream_sink.html" target="_top" xlink:title="A Sink adapter for an output stream. ">
<polygon fill="none" stroke="black" points="534.32,-126 534.32,-158 653.68,-158 653.68,-126 534.32,-126"/>
<text text-anchor="start" x="542.32" y="-144" font-family="Helvetica,sans-Serif" font-size="10.00">Om::Sinks::StreamSink</text>
<text text-anchor="middle" x="594" y="-132" font-family="Helvetica,sans-Serif" font-size="10.00">&lt; ThisItem &gt;</text>
</a>
</g>
</g>
<!-- Node7&#45;&gt;Node8 -->
<g id="edge7" class="edge"><title>Node7&#45;&gt;Node8</title>
<path fill="none" stroke="midnightblue" d="M488.826,-142C503.846,-142 519.609,-142 534.196,-142"/>
<polygon fill="midnightblue" stroke="midnightblue" points="488.57,-138.5 478.57,-142 488.57,-145.5 488.57,-138.5"/>
</g>
<!-- Node10 -->
<g id="node10" class="node"><title>Node10</title>
<g id="a_node10"><a xlink:href="class_om_1_1_sinks_1_1_iterator_sink.html" target="_top" xlink:title="A Sink adapter for an output iterator. ">
<polygon fill="none" stroke="black" points="355.324,-57 355.324,-89 482.676,-89 482.676,-57 355.324,-57"/>
<text text-anchor="start" x="363.324" y="-75" font-family="Helvetica,sans-Serif" font-size="10.00">Om::Sinks::IteratorSink</text>
<text text-anchor="middle" x="419" y="-63" font-family="Helvetica,sans-Serif" font-size="10.00">&lt; ThisItem, ThisIterator &gt;</text>
</a>
</g>
</g>
<!-- Node9&#45;&gt;Node10 -->
<g id="edge9" class="edge"><title>Node9&#45;&gt;Node10</title>
<path fill="none" stroke="midnightblue" d="M296.914,-73C315.953,-73 336.507,-73 355.18,-73"/>
<polygon fill="midnightblue" stroke="midnightblue" points="296.816,-69.5001 286.816,-73 296.816,-76.5001 296.816,-69.5001"/>
</g>
</g>
</svg>
