<?xml version="1.0" encoding="UTF-8" standalone="no"?>
<!DOCTYPE svg PUBLIC "-//W3C//DTD SVG 1.1//EN"
 "http://www.w3.org/Graphics/SVG/1.1/DTD/svg11.dtd">
<!-- Generated by graphviz version 2.28.0 (20120817.0054)
 -->
<!-- Title: Om::Lexicon::ElementRange Pages: 1 -->
<svg width="530pt" height="115pt"
 viewBox="0.00 0.00 530.00 115.00" xmlns="http://www.w3.org/2000/svg" xmlns:xlink="http://www.w3.org/1999/xlink">
<g id="graph1" class="graph" transform="scale(1 1) rotate(0) translate(4 111)">
<title>Om::Lexicon::ElementRange</title>
<!-- Node1 -->
<g id="node1" class="node"><title>Node1</title>
<polygon fill="#bfbfbf" stroke="black" points="384.5,-23.5 384.5,-42.5 521.5,-42.5 521.5,-23.5 384.5,-23.5"/>
<text text-anchor="middle" x="453" y="-30.5" font-family="Helvetica,sans-Serif" font-size="10.00">Om::Lexicon::ElementRange</text>
</g>
<!-- Node2 -->
<g id="node2" class="node"><title>Node2</title>
<a xlink:href="class_om_1_1_sources_1_1_default_source.html" target="_top" xlink:title="Om::Sources::DefaultSource\l\&lt; Element const, ElementRange \&gt;">
<polygon fill="none" stroke="black" points="146.5,-49 146.5,-79 307.5,-79 307.5,-49 146.5,-49"/>
<text text-anchor="start" x="154.5" y="-67" font-family="Helvetica,sans-Serif" font-size="10.00">Om::Sources::DefaultSource</text>
<text text-anchor="middle" x="227" y="-56" font-family="Helvetica,sans-Serif" font-size="10.00">&lt; Element const, ElementRange &gt;</text>
</a>
</g>
<!-- Node2&#45;&gt;Node1 -->
<g id="edge2" class="edge"><title>Node2&#45;&gt;Node1</title>
<path fill="none" stroke="midnightblue" d="M317.687,-51.5879C339.846,-48.5214 363.219,-45.2867 384.144,-42.3907"/>
<polygon fill="midnightblue" stroke="midnightblue" points="317.03,-48.1454 307.605,-52.9833 317.99,-55.0793 317.03,-48.1454"/>
</g>
<!-- Node3 -->
<g id="node4" class="node"><title>Node3</title>
<a xlink:href="class_om_1_1_source.html" target="_top" xlink:title="Om::Source\&lt; Element\l const &#160;\&gt;">
<polygon fill="none" stroke="black" points="0,-77 0,-107 108,-107 108,-77 0,-77"/>
<text text-anchor="start" x="8" y="-95" font-family="Helvetica,sans-Serif" font-size="10.00">Om::Source&lt; Element</text>
<text text-anchor="middle" x="54" y="-84" font-family="Helvetica,sans-Serif" font-size="10.00"> const &gt;</text>
</a>
</g>
<!-- Node3&#45;&gt;Node2 -->
<g id="edge4" class="edge"><title>Node3&#45;&gt;Node2</title>
<path fill="none" stroke="midnightblue" d="M118.05,-81.6761C127.314,-80.1591 136.957,-78.5802 146.5,-77.0176"/>
<polygon fill="midnightblue" stroke="midnightblue" points="117.471,-78.2241 108.168,-83.2941 118.602,-85.1321 117.471,-78.2241"/>
</g>
<!-- Node4 -->
<g id="node6" class="node"><title>Node4</title>
<polygon fill="none" stroke="#bfbfbf" points="6.5,-16.5 6.5,-57.5 101.5,-57.5 101.5,-16.5 6.5,-16.5"/>
<text text-anchor="start" x="14.5" y="-45.5" font-family="Helvetica,sans-Serif" font-size="10.00">std::iterator&lt; std</text>
<text text-anchor="start" x="14.5" y="-34.5" font-family="Helvetica,sans-Serif" font-size="10.00">::input_iterator_tag,</text>
<text text-anchor="middle" x="54" y="-23.5" font-family="Helvetica,sans-Serif" font-size="10.00"> Element const &gt;</text>
</g>
<!-- Node4&#45;&gt;Node2 -->
<g id="edge6" class="edge"><title>Node4&#45;&gt;Node2</title>
<path fill="none" stroke="midnightblue" d="M111.719,-45.9556C122.853,-47.7136 134.724,-49.5879 146.445,-51.4387"/>
<polygon fill="midnightblue" stroke="midnightblue" points="112.15,-42.4804 101.727,-44.3779 111.058,-49.3947 112.15,-42.4804"/>
</g>
<!-- Node5 -->
<g id="node8" class="node"><title>Node5</title>
<a xlink:href="class_om_1_1_list_1_1_node.html" target="_top" xlink:title="A List node.">
<polygon fill="none" stroke="black" points="176.5,-0 176.5,-30 277.5,-30 277.5,-0 176.5,-0"/>
<text text-anchor="start" x="184.5" y="-18" font-family="Helvetica,sans-Serif" font-size="10.00">Om::List&lt; ThisValue</text>
<text text-anchor="middle" x="227" y="-7" font-family="Helvetica,sans-Serif" font-size="10.00"> &gt;::Node</text>
</a>
</g>
<!-- Node5&#45;&gt;Node1 -->
<g id="edge8" class="edge"><title>Node5&#45;&gt;Node1</title>
<path fill="none" stroke="#9a32cd" stroke-dasharray="5,2" d="M287.922,-19.8152C317.577,-22.1981 353.498,-25.0847 384.161,-27.5486"/>
<polygon fill="#9a32cd" stroke="#9a32cd" points="287.961,-16.3071 277.713,-18.9948 287.4,-23.2846 287.961,-16.3071"/>
<text text-anchor="middle" x="346" y="-29" font-family="Helvetica,sans-Serif" font-size="10.00"> thisNode</text>
</g>
</g>
</svg>
