<?xml version="1.0" encoding="UTF-8" standalone="no"?>
<!DOCTYPE svg PUBLIC "-//W3C//DTD SVG 1.1//EN"
 "http://www.w3.org/Graphics/SVG/1.1/DTD/svg11.dtd">
<!-- Generated by graphviz version 2.36.0 (20140111.2315)
 -->
<!-- Title: Om::Language::System Pages: 1 -->
<svg width="1018pt" height="1054pt"
 viewBox="0.00 0.00 1018.00 1054.00" xmlns="http://www.w3.org/2000/svg" xmlns:xlink="http://www.w3.org/1999/xlink">
<g id="graph0" class="graph" transform="scale(1 1) rotate(0) translate(4 1050)">
<title>Om::Language::System</title>
<!-- Node1 -->
<g id="node1" class="node"><title>Node1</title>
<polygon fill="#bfbfbf" stroke="black" points="99.4731,-1 99.4731,-19 220.527,-19 220.527,-1 99.4731,-1"/>
<text text-anchor="middle" x="160" y="-7" font-family="Helvetica,sans-Serif" font-size="10.00">Om::Language::System</text>
</g>
<!-- Node2 -->
<g id="node2" class="node"><title>Node2</title>
<g id="a_node2"><a xlink:href="class_om_1_1_language_1_1_translator.html" target="_top" xlink:title="An Operator lookup for use by an Evaluator. ">
<polygon fill="none" stroke="black" points="-0.181152,-280 -0.181152,-298 132.181,-298 132.181,-280 -0.181152,-280"/>
<text text-anchor="middle" x="66" y="-286" font-family="Helvetica,sans-Serif" font-size="10.00">Om::Language::Translator</text>
</a>
</g>
</g>
<!-- Node2&#45;&gt;Node1 -->
<g id="edge1" class="edge"><title>Node2&#45;&gt;Node1</title>
<path fill="none" stroke="midnightblue" d="M63.9591,-269.794C62.5765,-255.897 61,-236.265 61,-219 61,-219 61,-219 61,-80 61,-46.8987 98.7111,-28.3733 127.584,-19.0406"/>
<polygon fill="midnightblue" stroke="midnightblue" points="60.5,-270.366 65.0359,-279.94 67.4609,-269.627 60.5,-270.366"/>
</g>
<!-- Node39 -->
<g id="node39" class="node"><title>Node39</title>
<g id="a_node39"><a xlink:href="class_om_1_1_language_1_1_evaluator.html" target="_top" xlink:title="A Consumer that evaluates Program instances. ">
<polygon fill="none" stroke="black" points="256.02,-209 256.02,-227 385.98,-227 385.98,-209 256.02,-209"/>
<text text-anchor="middle" x="321" y="-215" font-family="Helvetica,sans-Serif" font-size="10.00">Om::Language::Evaluator</text>
</a>
</g>
</g>
<!-- Node2&#45;&gt;Node39 -->
<g id="edge42" class="edge"><title>Node2&#45;&gt;Node39</title>
<path fill="none" stroke="#9a32cd" stroke-dasharray="5,2" d="M73.567,-270.749C78.3895,-261.863 85.5276,-251.719 95.0117,-246 121.278,-230.162 198.799,-223.604 255.749,-220.895"/>
<polygon fill="#9a32cd" stroke="#9a32cd" points="70.3219,-269.419 69.1046,-279.944 76.6195,-272.475 70.3219,-269.419"/>
<text text-anchor="middle" x="127.494" y="-248" font-family="Helvetica,sans-Serif" font-size="10.00"> thisTranslator</text>
</g>
<!-- Node3 -->
<g id="node3" class="node"><title>Node3</title>
<polygon fill="none" stroke="#bfbfbf" points="364.45,-67 364.45,-95 483.55,-95 483.55,-67 364.45,-67"/>
<text text-anchor="start" x="372.45" y="-83" font-family="Helvetica,sans-Serif" font-size="10.00">std::map&lt; std::string,</text>
<text text-anchor="middle" x="424" y="-73" font-family="Helvetica,sans-Serif" font-size="10.00"> void(*)(Evaluation &amp;) &gt;</text>
</g>
<!-- Node3&#45;&gt;Node1 -->
<g id="edge2" class="edge"><title>Node3&#45;&gt;Node1</title>
<path fill="none" stroke="#9a32cd" stroke-dasharray="5,2" d="M364.249,-64.3833C310.329,-50.2904 233.162,-30.1219 190.787,-19.0466"/>
<polygon fill="#9a32cd" stroke="#9a32cd" points="363.473,-67.798 374.033,-66.9405 365.243,-61.0255 363.473,-67.798"/>
<text text-anchor="middle" x="318.896" y="-40" font-family="Helvetica,sans-Serif" font-size="10.00"> thisMap</text>
</g>
<!-- Node4 -->
<g id="node4" class="node"><title>Node4</title>
<g id="a_node4"><a xlink:href="class_om_1_1_language_1_1_evaluation.html" target="_top" xlink:title="The current evaluation. ">
<polygon fill="none" stroke="black" points="356.793,-143 356.793,-161 491.207,-161 491.207,-143 356.793,-143"/>
<text text-anchor="middle" x="424" y="-149" font-family="Helvetica,sans-Serif" font-size="10.00">Om::Language::Evaluation</text>
</a>
</g>
</g>
<!-- Node4&#45;&gt;Node3 -->
<g id="edge3" class="edge"><title>Node4&#45;&gt;Node3</title>
<path fill="none" stroke="#9a32cd" stroke-dasharray="5,2" d="M424,-132.735C424,-120.904 424,-105.772 424,-95.1243"/>
<polygon fill="#9a32cd" stroke="#9a32cd" points="420.5,-132.814 424,-142.814 427.5,-132.814 420.5,-132.814"/>
<text text-anchor="middle" x="445.677" y="-116" font-family="Helvetica,sans-Serif" font-size="10.00"> elements</text>
</g>
<!-- Node5 -->
<g id="node5" class="node"><title>Node5</title>
<g id="a_node5"><a xlink:href="class_om_1_1_language_1_1_expression.html" target="_top" xlink:title="The Expression Program implementation. ">
<polygon fill="none" stroke="black" points="578.409,-209 578.409,-227 715.591,-227 715.591,-209 578.409,-209"/>
<text text-anchor="middle" x="647" y="-215" font-family="Helvetica,sans-Serif" font-size="10.00">Om::Language::Expression</text>
</a>
</g>
</g>
<!-- Node5&#45;&gt;Node4 -->
<g id="edge4" class="edge"><title>Node5&#45;&gt;Node4</title>
<path fill="none" stroke="#9a32cd" stroke-dasharray="5,2" d="M608.888,-206.062C564.342,-193.278 491.682,-172.425 452.014,-161.04"/>
<polygon fill="#9a32cd" stroke="#9a32cd" points="608.179,-209.5 618.757,-208.894 610.11,-202.771 608.179,-209.5"/>
<text text-anchor="middle" x="582.904" y="-182" font-family="Helvetica,sans-Serif" font-size="10.00"> thisExpression</text>
</g>
<!-- Node6 -->
<g id="node6" class="node"><title>Node6</title>
<g id="a_node6"><a xlink:href="class_om_1_1_language_1_1_default_program.html" target="_top" xlink:title="Om::Language::DefaultProgram\l\&lt; Expression, Program \&gt;">
<polygon fill="none" stroke="black" points="568.128,-275 568.128,-303 725.872,-303 725.872,-275 568.128,-275"/>
<text text-anchor="start" x="576.128" y="-291" font-family="Helvetica,sans-Serif" font-size="10.00">Om::Language::DefaultProgram</text>
<text text-anchor="middle" x="647" y="-281" font-family="Helvetica,sans-Serif" font-size="10.00">&lt; Expression, Program &gt;</text>
</a>
</g>
</g>
<!-- Node6&#45;&gt;Node5 -->
<g id="edge5" class="edge"><title>Node6&#45;&gt;Node5</title>
<path fill="none" stroke="midnightblue" d="M647,-264.524C647,-251.54 647,-236.229 647,-227.084"/>
<polygon fill="midnightblue" stroke="midnightblue" points="643.5,-264.696 647,-274.696 650.5,-264.696 643.5,-264.696"/>
</g>
<!-- Node7 -->
<g id="node7" class="node"><title>Node7</title>
<g id="a_node7"><a xlink:href="class_om_1_1_language_1_1_default_consumer.html" target="_top" xlink:title="Om::Language::DefaultConsumer\l\&lt; Expression, DefaultGiveable\l\&lt; Expression, Program \&gt; \&gt;">
<polygon fill="none" stroke="black" points="281.237,-351 281.237,-389 446.763,-389 446.763,-351 281.237,-351"/>
<text text-anchor="start" x="289.237" y="-377" font-family="Helvetica,sans-Serif" font-size="10.00">Om::Language::DefaultConsumer</text>
<text text-anchor="start" x="289.237" y="-367" font-family="Helvetica,sans-Serif" font-size="10.00">&lt; Expression, DefaultGiveable</text>
<text text-anchor="middle" x="364" y="-357" font-family="Helvetica,sans-Serif" font-size="10.00">&lt; Expression, Program &gt; &gt;</text>
</a>
</g>
</g>
<!-- Node7&#45;&gt;Node6 -->
<g id="edge6" class="edge"><title>Node7&#45;&gt;Node6</title>
<path fill="none" stroke="midnightblue" d="M438.295,-348.26C489.63,-333.93 556.336,-315.309 600.349,-303.023"/>
<polygon fill="midnightblue" stroke="midnightblue" points="437.262,-344.915 428.571,-350.975 439.144,-351.657 437.262,-344.915"/>
</g>
<!-- Node8 -->
<g id="node8" class="node"><title>Node8</title>
<g id="a_node8"><a xlink:href="class_om_1_1_default_giveable.html" target="_top" xlink:title="Om::DefaultGiveable\l\&lt; Expression, Program \&gt;">
<polygon fill="none" stroke="black" points="281.697,-437 281.697,-465 408.303,-465 408.303,-437 281.697,-437"/>
<text text-anchor="start" x="289.697" y="-453" font-family="Helvetica,sans-Serif" font-size="10.00">Om::DefaultGiveable</text>
<text text-anchor="middle" x="345" y="-443" font-family="Helvetica,sans-Serif" font-size="10.00">&lt; Expression, Program &gt;</text>
</a>
</g>
</g>
<!-- Node8&#45;&gt;Node7 -->
<g id="edge7" class="edge"><title>Node8&#45;&gt;Node7</title>
<path fill="none" stroke="midnightblue" d="M350.501,-427.127C353.411,-415.029 356.933,-400.386 359.649,-389.09"/>
<polygon fill="midnightblue" stroke="midnightblue" points="347.073,-426.414 348.137,-436.955 353.879,-428.05 347.073,-426.414"/>
</g>
<!-- Node9 -->
<g id="node9" class="node"><title>Node9</title>
<g id="a_node9"><a xlink:href="class_om_1_1_default_moveable.html" target="_top" xlink:title="Om::DefaultMoveable\l\&lt; Expression, DefaultCopyable\l\&lt; Expression, Program \&gt; \&gt;">
<polygon fill="none" stroke="black" points="263.211,-513 263.211,-551 416.789,-551 416.789,-513 263.211,-513"/>
<text text-anchor="start" x="271.211" y="-539" font-family="Helvetica,sans-Serif" font-size="10.00">Om::DefaultMoveable</text>
<text text-anchor="start" x="271.211" y="-529" font-family="Helvetica,sans-Serif" font-size="10.00">&lt; Expression, DefaultCopyable</text>
<text text-anchor="middle" x="340" y="-519" font-family="Helvetica,sans-Serif" font-size="10.00">&lt; Expression, Program &gt; &gt;</text>
</a>
</g>
</g>
<!-- Node9&#45;&gt;Node8 -->
<g id="edge8" class="edge"><title>Node9&#45;&gt;Node8</title>
<path fill="none" stroke="midnightblue" d="M341.807,-502.451C342.617,-489.655 343.532,-475.194 344.174,-465.045"/>
<polygon fill="midnightblue" stroke="midnightblue" points="338.298,-502.476 341.16,-512.677 345.284,-502.918 338.298,-502.476"/>
</g>
<!-- Node10 -->
<g id="node10" class="node"><title>Node10</title>
<g id="a_node10"><a xlink:href="class_om_1_1_default_copyable.html" target="_top" xlink:title="Om::DefaultCopyable\l\&lt; Expression, Program \&gt;">
<polygon fill="none" stroke="black" points="267.697,-599 267.697,-627 394.303,-627 394.303,-599 267.697,-599"/>
<text text-anchor="start" x="275.697" y="-615" font-family="Helvetica,sans-Serif" font-size="10.00">Om::DefaultCopyable</text>
<text text-anchor="middle" x="331" y="-605" font-family="Helvetica,sans-Serif" font-size="10.00">&lt; Expression, Program &gt;</text>
</a>
</g>
</g>
<!-- Node10&#45;&gt;Node9 -->
<g id="edge9" class="edge"><title>Node10&#45;&gt;Node9</title>
<path fill="none" stroke="midnightblue" d="M333.648,-588.759C335.018,-576.734 336.665,-562.272 337.939,-551.09"/>
<polygon fill="midnightblue" stroke="midnightblue" points="330.141,-588.623 332.486,-598.955 337.096,-589.415 330.141,-588.623"/>
</g>
<!-- Node11 -->
<g id="node11" class="node"><title>Node11</title>
<polygon fill="none" stroke="#bfbfbf" points="303.828,-672 303.828,-690 358.172,-690 358.172,-672 303.828,-672"/>
<text text-anchor="middle" x="331" y="-678" font-family="Helvetica,sans-Serif" font-size="10.00">Program</text>
</g>
<!-- Node11&#45;&gt;Node10 -->
<g id="edge10" class="edge"><title>Node11&#45;&gt;Node10</title>
<path fill="none" stroke="midnightblue" d="M331,-661.745C331,-650.782 331,-637.086 331,-627.178"/>
<polygon fill="midnightblue" stroke="midnightblue" points="327.5,-661.907 331,-671.907 334.5,-661.907 327.5,-661.907"/>
</g>
<!-- Node12 -->
<g id="node12" class="node"><title>Node12</title>
<g id="a_node12"><a xlink:href="class_om_1_1_taker.html" target="_top" xlink:title="Om::Taker\&lt; Expression \&gt;">
<polygon fill="none" stroke="black" points="582.589,-361 582.589,-379 711.411,-379 711.411,-361 582.589,-361"/>
<text text-anchor="middle" x="647" y="-367" font-family="Helvetica,sans-Serif" font-size="10.00">Om::Taker&lt; Expression &gt;</text>
</a>
</g>
</g>
<!-- Node12&#45;&gt;Node6 -->
<g id="edge11" class="edge"><title>Node12&#45;&gt;Node6</title>
<path fill="none" stroke="midnightblue" d="M647,-350.589C647,-336.072 647,-316.179 647,-303.21"/>
<polygon fill="midnightblue" stroke="midnightblue" points="643.5,-350.843 647,-360.843 650.5,-350.843 643.5,-350.843"/>
</g>
<!-- Node13 -->
<g id="node13" class="node"><title>Node13</title>
<polygon fill="none" stroke="#bfbfbf" points="744.365,-280 744.365,-298 847.635,-298 847.635,-280 744.365,-280"/>
<text text-anchor="middle" x="796" y="-286" font-family="Helvetica,sans-Serif" font-size="10.00">std::deque&lt; Form &gt;</text>
</g>
<!-- Node13&#45;&gt;Node5 -->
<g id="edge12" class="edge"><title>Node13&#45;&gt;Node5</title>
<path fill="none" stroke="#9a32cd" stroke-dasharray="5,2" d="M769.501,-275.729C739.281,-261.734 690.709,-239.241 664.735,-227.213"/>
<polygon fill="#9a32cd" stroke="#9a32cd" points="768.071,-278.924 778.616,-279.95 771.013,-272.572 768.071,-278.924"/>
<text text-anchor="middle" x="760.569" y="-248" font-family="Helvetica,sans-Serif" font-size="10.00"> thisFormDeque</text>
</g>
<!-- Node14 -->
<g id="node14" class="node"><title>Node14</title>
<g id="a_node14"><a xlink:href="class_om_1_1_language_1_1_form.html" target="_top" xlink:title="An Operator (which may be empty), followed by zero or more Operand instances. ">
<polygon fill="none" stroke="black" points="740.478,-361 740.478,-379 851.522,-379 851.522,-361 740.478,-361"/>
<text text-anchor="middle" x="796" y="-367" font-family="Helvetica,sans-Serif" font-size="10.00">Om::Language::Form</text>
</a>
</g>
</g>
<!-- Node14&#45;&gt;Node13 -->
<g id="edge13" class="edge"><title>Node14&#45;&gt;Node13</title>
<path fill="none" stroke="#9a32cd" stroke-dasharray="5,2" d="M796,-350.746C796,-334.201 796,-310.576 796,-298.231"/>
<polygon fill="#9a32cd" stroke="#9a32cd" points="792.5,-350.843 796,-360.843 799.5,-350.843 792.5,-350.843"/>
<text text-anchor="middle" x="817.677" y="-324" font-family="Helvetica,sans-Serif" font-size="10.00"> elements</text>
</g>
<!-- Node15 -->
<g id="node15" class="node"><title>Node15</title>
<polygon fill="none" stroke="#bfbfbf" points="605.572,-442 605.572,-460 724.428,-460 724.428,-442 605.572,-442"/>
<text text-anchor="middle" x="665" y="-448" font-family="Helvetica,sans-Serif" font-size="10.00">std::deque&lt; Operand &gt;</text>
</g>
<!-- Node15&#45;&gt;Node14 -->
<g id="edge14" class="edge"><title>Node15&#45;&gt;Node14</title>
<path fill="none" stroke="#9a32cd" stroke-dasharray="5,2" d="M679.578,-434.476C688.212,-425.897 699.7,-415.492 711.276,-408 730.411,-395.617 754.385,-385.587 771.944,-379.11"/>
<polygon fill="#9a32cd" stroke="#9a32cd" points="677.005,-432.101 672.531,-441.705 682.017,-436.988 677.005,-432.101"/>
<text text-anchor="middle" x="754.362" y="-410" font-family="Helvetica,sans-Serif" font-size="10.00"> thisOperandDeque</text>
</g>
<!-- Node16 -->
<g id="node16" class="node"><title>Node16</title>
<g id="a_node16"><a xlink:href="class_om_1_1_language_1_1_operand.html" target="_top" xlink:title="The Operand implementation. ">
<polygon fill="none" stroke="black" points="593.685,-523 593.685,-541 720.315,-541 720.315,-523 593.685,-523"/>
<text text-anchor="middle" x="657" y="-529" font-family="Helvetica,sans-Serif" font-size="10.00">Om::Language::Operand</text>
</a>
</g>
</g>
<!-- Node16&#45;&gt;Node15 -->
<g id="edge15" class="edge"><title>Node16&#45;&gt;Node15</title>
<path fill="none" stroke="#9a32cd" stroke-dasharray="5,2" d="M658.849,-512.746C660.524,-496.201 662.916,-472.576 664.166,-460.231"/>
<polygon fill="#9a32cd" stroke="#9a32cd" points="655.351,-512.541 657.826,-522.843 662.316,-513.247 655.351,-512.541"/>
<text text-anchor="middle" x="682.677" y="-486" font-family="Helvetica,sans-Serif" font-size="10.00"> elements</text>
</g>
<!-- Node17 -->
<g id="node17" class="node"><title>Node17</title>
<g id="a_node17"><a xlink:href="class_om_1_1_language_1_1_default_element.html" target="_top" xlink:title="Om::Language::DefaultElement\l\&lt; Operand, Element \&gt;">
<polygon fill="none" stroke="black" points="411.958,-599 411.958,-627 568.042,-627 568.042,-599 411.958,-599"/>
<text text-anchor="start" x="419.958" y="-615" font-family="Helvetica,sans-Serif" font-size="10.00">Om::Language::DefaultElement</text>
<text text-anchor="middle" x="490" y="-605" font-family="Helvetica,sans-Serif" font-size="10.00">&lt; Operand, Element &gt;</text>
</a>
</g>
</g>
<!-- Node17&#45;&gt;Node16 -->
<g id="edge16" class="edge"><title>Node17&#45;&gt;Node16</title>
<path fill="none" stroke="midnightblue" d="M527.055,-594.471C562.305,-577.796 613.75,-553.46 640.087,-541.001"/>
<polygon fill="midnightblue" stroke="midnightblue" points="525.12,-591.515 517.577,-598.955 528.113,-597.842 525.12,-591.515"/>
</g>
<!-- Node18 -->
<g id="node18" class="node"><title>Node18</title>
<g id="a_node18"><a xlink:href="class_om_1_1_language_1_1_default_program.html" target="_top" xlink:title="Om::Language::DefaultProgram\l\&lt; Operand, Element \&gt;">
<polygon fill="none" stroke="black" points="411.128,-667 411.128,-695 568.872,-695 568.872,-667 411.128,-667"/>
<text text-anchor="start" x="419.128" y="-683" font-family="Helvetica,sans-Serif" font-size="10.00">Om::Language::DefaultProgram</text>
<text text-anchor="middle" x="490" y="-673" font-family="Helvetica,sans-Serif" font-size="10.00">&lt; Operand, Element &gt;</text>
</a>
</g>
</g>
<!-- Node18&#45;&gt;Node17 -->
<g id="edge17" class="edge"><title>Node18&#45;&gt;Node17</title>
<path fill="none" stroke="midnightblue" d="M490,-656.827C490,-646.827 490,-635.504 490,-627.012"/>
<polygon fill="midnightblue" stroke="midnightblue" points="486.5,-656.96 490,-666.961 493.5,-656.961 486.5,-656.96"/>
</g>
<!-- Node19 -->
<g id="node19" class="node"><title>Node19</title>
<g id="a_node19"><a xlink:href="class_om_1_1_language_1_1_default_consumer.html" target="_top" xlink:title="Om::Language::DefaultConsumer\l\&lt; Operand, DefaultGiveable\l\&lt; Operand, Element \&gt; \&gt;">
<polygon fill="none" stroke="black" points="289.237,-735 289.237,-773 454.763,-773 454.763,-735 289.237,-735"/>
<text text-anchor="start" x="297.237" y="-761" font-family="Helvetica,sans-Serif" font-size="10.00">Om::Language::DefaultConsumer</text>
<text text-anchor="start" x="297.237" y="-751" font-family="Helvetica,sans-Serif" font-size="10.00">&lt; Operand, DefaultGiveable</text>
<text text-anchor="middle" x="372" y="-741" font-family="Helvetica,sans-Serif" font-size="10.00">&lt; Operand, Element &gt; &gt;</text>
</a>
</g>
</g>
<!-- Node19&#45;&gt;Node18 -->
<g id="edge18" class="edge"><title>Node19&#45;&gt;Node18</title>
<path fill="none" stroke="midnightblue" d="M410.854,-729.622C429.899,-718.163 452.126,-704.788 468.169,-695.136"/>
<polygon fill="midnightblue" stroke="midnightblue" points="408.846,-726.745 402.082,-734.9 412.455,-732.743 408.846,-726.745"/>
</g>
<!-- Node20 -->
<g id="node20" class="node"><title>Node20</title>
<g id="a_node20"><a xlink:href="class_om_1_1_default_giveable.html" target="_top" xlink:title="Om::DefaultGiveable\l\&lt; Operand, Element \&gt;">
<polygon fill="none" stroke="black" points="314.803,-813 314.803,-841 429.197,-841 429.197,-813 314.803,-813"/>
<text text-anchor="start" x="322.803" y="-829" font-family="Helvetica,sans-Serif" font-size="10.00">Om::DefaultGiveable</text>
<text text-anchor="middle" x="372" y="-819" font-family="Helvetica,sans-Serif" font-size="10.00">&lt; Operand, Element &gt;</text>
</a>
</g>
</g>
<!-- Node20&#45;&gt;Node19 -->
<g id="edge19" class="edge"><title>Node20&#45;&gt;Node19</title>
<path fill="none" stroke="midnightblue" d="M372,-802.825C372,-793.147 372,-782.073 372,-773.02"/>
<polygon fill="midnightblue" stroke="midnightblue" points="368.5,-802.977 372,-812.978 375.5,-802.978 368.5,-802.977"/>
</g>
<!-- Node21 -->
<g id="node21" class="node"><title>Node21</title>
<g id="a_node21"><a xlink:href="class_om_1_1_default_moveable.html" target="_top" xlink:title="Om::DefaultMoveable\l\&lt; Operand, DefaultCopyable\l\&lt; Operand, Element \&gt; \&gt;">
<polygon fill="none" stroke="black" points="300.487,-881 300.487,-919 443.513,-919 443.513,-881 300.487,-881"/>
<text text-anchor="start" x="308.487" y="-907" font-family="Helvetica,sans-Serif" font-size="10.00">Om::DefaultMoveable</text>
<text text-anchor="start" x="308.487" y="-897" font-family="Helvetica,sans-Serif" font-size="10.00">&lt; Operand, DefaultCopyable</text>
<text text-anchor="middle" x="372" y="-887" font-family="Helvetica,sans-Serif" font-size="10.00">&lt; Operand, Element &gt; &gt;</text>
</a>
</g>
</g>
<!-- Node21&#45;&gt;Node20 -->
<g id="edge20" class="edge"><title>Node21&#45;&gt;Node20</title>
<path fill="none" stroke="midnightblue" d="M372,-870.599C372,-860.473 372,-849.543 372,-841.289"/>
<polygon fill="midnightblue" stroke="midnightblue" points="368.5,-870.716 372,-880.716 375.5,-870.716 368.5,-870.716"/>
</g>
<!-- Node22 -->
<g id="node22" class="node"><title>Node22</title>
<g id="a_node22"><a xlink:href="class_om_1_1_default_copyable.html" target="_top" xlink:title="Om::DefaultCopyable\l\&lt; Operand, Element \&gt;">
<polygon fill="none" stroke="black" points="314.803,-959 314.803,-987 429.197,-987 429.197,-959 314.803,-959"/>
<text text-anchor="start" x="322.803" y="-975" font-family="Helvetica,sans-Serif" font-size="10.00">Om::DefaultCopyable</text>
<text text-anchor="middle" x="372" y="-965" font-family="Helvetica,sans-Serif" font-size="10.00">&lt; Operand, Element &gt;</text>
</a>
</g>
</g>
<!-- Node22&#45;&gt;Node21 -->
<g id="edge21" class="edge"><title>Node22&#45;&gt;Node21</title>
<path fill="none" stroke="midnightblue" d="M372,-948.825C372,-939.147 372,-928.073 372,-919.02"/>
<polygon fill="midnightblue" stroke="midnightblue" points="368.5,-948.977 372,-958.978 375.5,-948.978 368.5,-948.977"/>
</g>
<!-- Node23 -->
<g id="node23" class="node"><title>Node23</title>
<polygon fill="none" stroke="#bfbfbf" points="345.658,-1027 345.658,-1045 398.342,-1045 398.342,-1027 345.658,-1027"/>
<text text-anchor="middle" x="372" y="-1033" font-family="Helvetica,sans-Serif" font-size="10.00">Element</text>
</g>
<!-- Node23&#45;&gt;Node22 -->
<g id="edge22" class="edge"><title>Node23&#45;&gt;Node22</title>
<path fill="none" stroke="midnightblue" d="M372,-1016.47C372,-1007.03 372,-995.773 372,-987.222"/>
<polygon fill="midnightblue" stroke="midnightblue" points="368.5,-1016.77 372,-1026.77 375.5,-1016.77 368.5,-1016.77"/>
</g>
<!-- Node24 -->
<g id="node24" class="node"><title>Node24</title>
<g id="a_node24"><a xlink:href="class_om_1_1_taker.html" target="_top" xlink:title="Om::Taker\&lt; Operand \&gt;">
<polygon fill="none" stroke="black" points="472.865,-745 472.865,-763 591.135,-763 591.135,-745 472.865,-745"/>
<text text-anchor="middle" x="532" y="-751" font-family="Helvetica,sans-Serif" font-size="10.00">Om::Taker&lt; Operand &gt;</text>
</a>
</g>
</g>
<!-- Node24&#45;&gt;Node18 -->
<g id="edge23" class="edge"><title>Node24&#45;&gt;Node18</title>
<path fill="none" stroke="midnightblue" d="M521.877,-735.887C514.459,-723.347 504.54,-706.579 497.748,-695.097"/>
<polygon fill="midnightblue" stroke="midnightblue" points="519.078,-738.031 527.182,-744.855 525.103,-734.467 519.078,-738.031"/>
</g>
<!-- Node25 -->
<g id="node25" class="node"><title>Node25</title>
<g id="a_node25"><a xlink:href="class_om_1_1_owner.html" target="_top" xlink:title="Om::Owner\&lt; Om::Language\l::Program \&gt;">
<polygon fill="none" stroke="black" points="586.053,-599 586.053,-627 727.947,-627 727.947,-599 586.053,-599"/>
<text text-anchor="start" x="594.053" y="-615" font-family="Helvetica,sans-Serif" font-size="10.00">Om::Owner&lt; Om::Language</text>
<text text-anchor="middle" x="657" y="-605" font-family="Helvetica,sans-Serif" font-size="10.00">::Program &gt;</text>
</a>
</g>
</g>
<!-- Node25&#45;&gt;Node16 -->
<g id="edge24" class="edge"><title>Node25&#45;&gt;Node16</title>
<path fill="none" stroke="#9a32cd" stroke-dasharray="5,2" d="M657,-588.656C657,-572.534 657,-552.075 657,-541.001"/>
<polygon fill="#9a32cd" stroke="#9a32cd" points="653.5,-588.955 657,-598.955 660.5,-588.955 653.5,-588.955"/>
<text text-anchor="middle" x="685.342" y="-572" font-family="Helvetica,sans-Serif" font-size="10.00"> thisProgram</text>
</g>
<!-- Node26 -->
<g id="node26" class="node"><title>Node26</title>
<g id="a_node26"><a xlink:href="class_om_1_1_taker.html" target="_top" xlink:title="Om::Taker\&lt; Owner\&lt; Om\l::Language::Program \&gt; \&gt;">
<polygon fill="none" stroke="black" points="593.407,-667 593.407,-695 720.593,-695 720.593,-667 593.407,-667"/>
<text text-anchor="start" x="601.407" y="-683" font-family="Helvetica,sans-Serif" font-size="10.00">Om::Taker&lt; Owner&lt; Om</text>
<text text-anchor="middle" x="657" y="-673" font-family="Helvetica,sans-Serif" font-size="10.00">::Language::Program &gt; &gt;</text>
</a>
</g>
</g>
<!-- Node26&#45;&gt;Node25 -->
<g id="edge25" class="edge"><title>Node26&#45;&gt;Node25</title>
<path fill="none" stroke="midnightblue" d="M657,-656.827C657,-646.827 657,-635.504 657,-627.012"/>
<polygon fill="midnightblue" stroke="midnightblue" points="653.5,-656.96 657,-666.961 660.5,-656.961 653.5,-656.96"/>
</g>
<!-- Node27 -->
<g id="node27" class="node"><title>Node27</title>
<g id="a_node27"><a xlink:href="class_om_1_1_language_1_1_operator.html" target="_top" xlink:title="The Operator implementation. ">
<polygon fill="none" stroke="black" points="745.412,-442 745.412,-460 872.588,-460 872.588,-442 745.412,-442"/>
<text text-anchor="middle" x="809" y="-448" font-family="Helvetica,sans-Serif" font-size="10.00">Om::Language::Operator</text>
</a>
</g>
</g>
<!-- Node27&#45;&gt;Node14 -->
<g id="edge26" class="edge"><title>Node27&#45;&gt;Node14</title>
<path fill="none" stroke="#9a32cd" stroke-dasharray="5,2" d="M805.996,-431.746C803.274,-415.201 799.386,-391.576 797.354,-379.231"/>
<polygon fill="#9a32cd" stroke="#9a32cd" points="802.58,-432.544 807.658,-441.843 809.487,-431.408 802.58,-432.544"/>
<text text-anchor="middle" x="831.901" y="-410" font-family="Helvetica,sans-Serif" font-size="10.00"> thisOperator</text>
</g>
<!-- Node28 -->
<g id="node28" class="node"><title>Node28</title>
<g id="a_node28"><a xlink:href="class_om_1_1_language_1_1_default_atom.html" target="_top" xlink:title="Om::Language::DefaultAtom\l\&lt; Operator \&gt;">
<polygon fill="none" stroke="black" points="752.631,-518 752.631,-546 895.369,-546 895.369,-518 752.631,-518"/>
<text text-anchor="start" x="760.631" y="-534" font-family="Helvetica,sans-Serif" font-size="10.00">Om::Language::DefaultAtom</text>
<text text-anchor="middle" x="824" y="-524" font-family="Helvetica,sans-Serif" font-size="10.00">&lt; Operator &gt;</text>
</a>
</g>
</g>
<!-- Node28&#45;&gt;Node27 -->
<g id="edge27" class="edge"><title>Node28&#45;&gt;Node27</title>
<path fill="none" stroke="midnightblue" d="M819.656,-508.119C816.581,-491.929 812.642,-471.182 810.519,-460.001"/>
<polygon fill="midnightblue" stroke="midnightblue" points="816.219,-508.783 821.523,-517.955 823.096,-507.477 816.219,-508.783"/>
</g>
<!-- Node29 -->
<g id="node29" class="node"><title>Node29</title>
<g id="a_node29"><a xlink:href="class_om_1_1_language_1_1_default_element.html" target="_top" xlink:title="Om::Language::DefaultElement\l\&lt; Operator, Atom \&gt;">
<polygon fill="none" stroke="black" points="745.958,-599 745.958,-627 902.042,-627 902.042,-599 745.958,-599"/>
<text text-anchor="start" x="753.958" y="-615" font-family="Helvetica,sans-Serif" font-size="10.00">Om::Language::DefaultElement</text>
<text text-anchor="middle" x="824" y="-605" font-family="Helvetica,sans-Serif" font-size="10.00">&lt; Operator, Atom &gt;</text>
</a>
</g>
</g>
<!-- Node29&#45;&gt;Node28 -->
<g id="edge28" class="edge"><title>Node29&#45;&gt;Node28</title>
<path fill="none" stroke="midnightblue" d="M824,-588.663C824,-574.757 824,-557.621 824,-546.065"/>
<polygon fill="midnightblue" stroke="midnightblue" points="820.5,-588.955 824,-598.955 827.5,-588.955 820.5,-588.955"/>
</g>
<!-- Node30 -->
<g id="node30" class="node"><title>Node30</title>
<g id="a_node30"><a xlink:href="class_om_1_1_language_1_1_default_program.html" target="_top" xlink:title="Om::Language::DefaultProgram\l\&lt; Operator, Atom \&gt;">
<polygon fill="none" stroke="black" points="740.128,-667 740.128,-695 897.872,-695 897.872,-667 740.128,-667"/>
<text text-anchor="start" x="748.128" y="-683" font-family="Helvetica,sans-Serif" font-size="10.00">Om::Language::DefaultProgram</text>
<text text-anchor="middle" x="819" y="-673" font-family="Helvetica,sans-Serif" font-size="10.00">&lt; Operator, Atom &gt;</text>
</a>
</g>
</g>
<!-- Node30&#45;&gt;Node29 -->
<g id="edge29" class="edge"><title>Node30&#45;&gt;Node29</title>
<path fill="none" stroke="midnightblue" d="M820.756,-656.827C821.513,-646.827 822.371,-635.504 823.014,-627.012"/>
<polygon fill="midnightblue" stroke="midnightblue" points="817.253,-656.725 819.988,-666.961 824.233,-657.254 817.253,-656.725"/>
</g>
<!-- Node31 -->
<g id="node31" class="node"><title>Node31</title>
<g id="a_node31"><a xlink:href="class_om_1_1_language_1_1_default_consumer.html" target="_top" xlink:title="Om::Language::DefaultConsumer\l\&lt; Operator, DefaultGiveable\l\&lt; Operator, Atom \&gt; \&gt;">
<polygon fill="none" stroke="black" points="651.237,-735 651.237,-773 816.763,-773 816.763,-735 651.237,-735"/>
<text text-anchor="start" x="659.237" y="-761" font-family="Helvetica,sans-Serif" font-size="10.00">Om::Language::DefaultConsumer</text>
<text text-anchor="start" x="659.237" y="-751" font-family="Helvetica,sans-Serif" font-size="10.00">&lt; Operator, DefaultGiveable</text>
<text text-anchor="middle" x="734" y="-741" font-family="Helvetica,sans-Serif" font-size="10.00">&lt; Operator, Atom &gt; &gt;</text>
</a>
</g>
</g>
<!-- Node31&#45;&gt;Node30 -->
<g id="edge30" class="edge"><title>Node31&#45;&gt;Node30</title>
<path fill="none" stroke="midnightblue" d="M763.889,-728.034C777.199,-716.916 792.322,-704.284 803.356,-695.068"/>
<polygon fill="midnightblue" stroke="midnightblue" points="761.321,-725.619 755.89,-734.716 765.808,-730.991 761.321,-725.619"/>
</g>
<!-- Node32 -->
<g id="node32" class="node"><title>Node32</title>
<g id="a_node32"><a xlink:href="class_om_1_1_default_giveable.html" target="_top" xlink:title="Om::DefaultGiveable\l\&lt; Operator, Atom \&gt;">
<polygon fill="none" stroke="black" points="679.591,-813 679.591,-841 788.409,-841 788.409,-813 679.591,-813"/>
<text text-anchor="start" x="687.591" y="-829" font-family="Helvetica,sans-Serif" font-size="10.00">Om::DefaultGiveable</text>
<text text-anchor="middle" x="734" y="-819" font-family="Helvetica,sans-Serif" font-size="10.00">&lt; Operator, Atom &gt;</text>
</a>
</g>
</g>
<!-- Node32&#45;&gt;Node31 -->
<g id="edge31" class="edge"><title>Node32&#45;&gt;Node31</title>
<path fill="none" stroke="midnightblue" d="M734,-802.825C734,-793.147 734,-782.073 734,-773.02"/>
<polygon fill="midnightblue" stroke="midnightblue" points="730.5,-802.977 734,-812.978 737.5,-802.978 730.5,-802.977"/>
</g>
<!-- Node33 -->
<g id="node33" class="node"><title>Node33</title>
<g id="a_node33"><a xlink:href="class_om_1_1_default_moveable.html" target="_top" xlink:title="Om::DefaultMoveable\l\&lt; Operator, DefaultCopyable\l\&lt; Operator, Atom \&gt; \&gt;">
<polygon fill="none" stroke="black" points="662.487,-881 662.487,-919 805.513,-919 805.513,-881 662.487,-881"/>
<text text-anchor="start" x="670.487" y="-907" font-family="Helvetica,sans-Serif" font-size="10.00">Om::DefaultMoveable</text>
<text text-anchor="start" x="670.487" y="-897" font-family="Helvetica,sans-Serif" font-size="10.00">&lt; Operator, DefaultCopyable</text>
<text text-anchor="middle" x="734" y="-887" font-family="Helvetica,sans-Serif" font-size="10.00">&lt; Operator, Atom &gt; &gt;</text>
</a>
</g>
</g>
<!-- Node33&#45;&gt;Node32 -->
<g id="edge32" class="edge"><title>Node33&#45;&gt;Node32</title>
<path fill="none" stroke="midnightblue" d="M734,-870.599C734,-860.473 734,-849.543 734,-841.289"/>
<polygon fill="midnightblue" stroke="midnightblue" points="730.5,-870.716 734,-880.716 737.5,-870.716 730.5,-870.716"/>
</g>
<!-- Node34 -->
<g id="node34" class="node"><title>Node34</title>
<g id="a_node34"><a xlink:href="class_om_1_1_default_copyable.html" target="_top" xlink:title="Om::DefaultCopyable\l\&lt; Operator, Atom \&gt;">
<polygon fill="none" stroke="black" points="678.2,-959 678.2,-987 789.8,-987 789.8,-959 678.2,-959"/>
<text text-anchor="start" x="686.2" y="-975" font-family="Helvetica,sans-Serif" font-size="10.00">Om::DefaultCopyable</text>
<text text-anchor="middle" x="734" y="-965" font-family="Helvetica,sans-Serif" font-size="10.00">&lt; Operator, Atom &gt;</text>
</a>
</g>
</g>
<!-- Node34&#45;&gt;Node33 -->
<g id="edge33" class="edge"><title>Node34&#45;&gt;Node33</title>
<path fill="none" stroke="midnightblue" d="M734,-948.825C734,-939.147 734,-928.073 734,-919.02"/>
<polygon fill="midnightblue" stroke="midnightblue" points="730.5,-948.977 734,-958.978 737.5,-948.978 730.5,-948.977"/>
</g>
<!-- Node35 -->
<g id="node35" class="node"><title>Node35</title>
<polygon fill="none" stroke="#bfbfbf" points="714.33,-1027 714.33,-1045 753.67,-1045 753.67,-1027 714.33,-1027"/>
<text text-anchor="middle" x="734" y="-1033" font-family="Helvetica,sans-Serif" font-size="10.00">Atom</text>
</g>
<!-- Node35&#45;&gt;Node34 -->
<g id="edge34" class="edge"><title>Node35&#45;&gt;Node34</title>
<path fill="none" stroke="midnightblue" d="M734,-1016.47C734,-1007.03 734,-995.773 734,-987.222"/>
<polygon fill="midnightblue" stroke="midnightblue" points="730.5,-1016.77 734,-1026.77 737.5,-1016.77 730.5,-1016.77"/>
</g>
<!-- Node36 -->
<g id="node36" class="node"><title>Node36</title>
<g id="a_node36"><a xlink:href="class_om_1_1_taker.html" target="_top" xlink:title="Om::Taker\&lt; Operator \&gt;">
<polygon fill="none" stroke="black" points="834.591,-745 834.591,-763 953.409,-763 953.409,-745 834.591,-745"/>
<text text-anchor="middle" x="894" y="-751" font-family="Helvetica,sans-Serif" font-size="10.00">Om::Taker&lt; Operator &gt;</text>
</a>
</g>
</g>
<!-- Node36&#45;&gt;Node30 -->
<g id="edge35" class="edge"><title>Node36&#45;&gt;Node30</title>
<path fill="none" stroke="midnightblue" d="M877.856,-737.717C864.444,-725.02 845.564,-707.147 832.835,-695.097"/>
<polygon fill="midnightblue" stroke="midnightblue" points="875.728,-740.522 885.397,-744.855 880.541,-735.439 875.728,-740.522"/>
</g>
<!-- Node37 -->
<g id="node37" class="node"><title>Node37</title>
<g id="a_node37"><a xlink:title="STL class. ">
<polygon fill="none" stroke="#bfbfbf" points="920.325,-604 920.325,-622 979.675,-622 979.675,-604 920.325,-604"/>
<text text-anchor="middle" x="950" y="-610" font-family="Helvetica,sans-Serif" font-size="10.00">std::string</text>
</a>
</g>
</g>
<!-- Node37&#45;&gt;Node3 -->
<g id="edge44" class="edge"><title>Node37&#45;&gt;Node3</title>
<path fill="none" stroke="#9a32cd" stroke-dasharray="5,2" d="M944.889,-593.736C940.889,-577.827 936,-554.072 936,-533 936,-533 936,-533 936,-151 936,-105.817 618.795,-89.0138 483.735,-83.9069"/>
<polygon fill="#9a32cd" stroke="#9a32cd" points="941.608,-595.018 947.561,-603.782 948.373,-593.218 941.608,-595.018"/>
<text text-anchor="middle" x="947.67" y="-324" font-family="Helvetica,sans-Serif" font-size="10.00"> keys</text>
</g>
<!-- Node37&#45;&gt;Node28 -->
<g id="edge36" class="edge"><title>Node37&#45;&gt;Node28</title>
<path fill="none" stroke="#9a32cd" stroke-dasharray="5,2" d="M917.458,-600.112C904.574,-594.779 889.915,-587.902 877.537,-580 862.317,-570.284 847.044,-556.363 836.729,-546.194"/>
<polygon fill="#9a32cd" stroke="#9a32cd" points="916.312,-603.423 926.897,-603.88 918.908,-596.922 916.312,-603.423"/>
<text text-anchor="middle" x="899.231" y="-572" font-family="Helvetica,sans-Serif" font-size="10.00"> thisString</text>
</g>
<!-- Node38 -->
<g id="node38" class="node"><title>Node38</title>
<g id="a_node38"><a xlink:title="STL class. ">
<polygon fill="none" stroke="#bfbfbf" points="915.952,-667 915.952,-695 1010.05,-695 1010.05,-667 915.952,-667"/>
<text text-anchor="start" x="923.952" y="-683" font-family="Helvetica,sans-Serif" font-size="10.00">std::basic_string&lt;</text>
<text text-anchor="middle" x="963" y="-673" font-family="Helvetica,sans-Serif" font-size="10.00"> char &gt;</text>
</a>
</g>
</g>
<!-- Node38&#45;&gt;Node37 -->
<g id="edge37" class="edge"><title>Node38&#45;&gt;Node37</title>
<path fill="none" stroke="midnightblue" d="M958.466,-656.98C956.071,-644.824 953.284,-630.674 951.581,-622.029"/>
<polygon fill="midnightblue" stroke="midnightblue" points="955.065,-657.825 960.432,-666.961 961.933,-656.473 955.065,-657.825"/>
</g>
<!-- Node39&#45;&gt;Node4 -->
<g id="edge38" class="edge"><title>Node39&#45;&gt;Node4</title>
<path fill="none" stroke="#9a32cd" stroke-dasharray="5,2" d="M342.79,-203.461C363.494,-190.596 393.934,-171.682 411.061,-161.04"/>
<polygon fill="#9a32cd" stroke="#9a32cd" points="340.692,-200.644 334.045,-208.894 344.386,-206.589 340.692,-200.644"/>
<text text-anchor="middle" x="409.293" y="-182" font-family="Helvetica,sans-Serif" font-size="10.00"> thisEvaluator</text>
</g>
<!-- Node40 -->
<g id="node40" class="node"><title>Node40</title>
<g id="a_node40"><a xlink:href="class_om_1_1_language_1_1_default_consumer.html" target="_top" xlink:title="Om::Language::DefaultConsumer\l\&lt; Evaluator, Consumer \&gt;">
<polygon fill="none" stroke="black" points="238.237,-275 238.237,-303 403.763,-303 403.763,-275 238.237,-275"/>
<text text-anchor="start" x="246.237" y="-291" font-family="Helvetica,sans-Serif" font-size="10.00">Om::Language::DefaultConsumer</text>
<text text-anchor="middle" x="321" y="-281" font-family="Helvetica,sans-Serif" font-size="10.00">&lt; Evaluator, Consumer &gt;</text>
</a>
</g>
</g>
<!-- Node40&#45;&gt;Node39 -->
<g id="edge39" class="edge"><title>Node40&#45;&gt;Node39</title>
<path fill="none" stroke="midnightblue" d="M321,-264.524C321,-251.54 321,-236.229 321,-227.084"/>
<polygon fill="midnightblue" stroke="midnightblue" points="317.5,-264.696 321,-274.696 324.5,-264.696 317.5,-264.696"/>
</g>
<!-- Node41 -->
<g id="node41" class="node"><title>Node41</title>
<g id="a_node41"><a xlink:href="class_om_1_1_language_1_1_consumer.html" target="_top" xlink:title="An Element taker; takes at the back. ">
<polygon fill="none" stroke="black" points="121.079,-361 121.079,-379 254.921,-379 254.921,-361 121.079,-361"/>
<text text-anchor="middle" x="188" y="-367" font-family="Helvetica,sans-Serif" font-size="10.00">Om::Language::Consumer</text>
</a>
</g>
</g>
<!-- Node41&#45;&gt;Node39 -->
<g id="edge43" class="edge"><title>Node41&#45;&gt;Node39</title>
<path fill="none" stroke="#9a32cd" stroke-dasharray="5,2" d="M180.518,-351.402C173.102,-330.942 164.922,-297.041 180.641,-274 198.413,-247.947 230.553,-234.235 259.596,-227.018"/>
<polygon fill="#9a32cd" stroke="#9a32cd" points="177.276,-352.724 184.195,-360.747 183.79,-350.16 177.276,-352.724"/>
<text text-anchor="middle" x="205.18" y="-286" font-family="Helvetica,sans-Serif" font-size="10.00"> thisOutput</text>
</g>
<!-- Node41&#45;&gt;Node40 -->
<g id="edge40" class="edge"><title>Node41&#45;&gt;Node40</title>
<path fill="none" stroke="midnightblue" d="M210.377,-355.708C234.967,-341.102 274.225,-317.784 298.76,-303.21"/>
<polygon fill="midnightblue" stroke="midnightblue" points="208.543,-352.727 201.732,-360.843 212.117,-358.745 208.543,-352.727"/>
</g>
<!-- Node42 -->
<g id="node42" class="node"><title>Node42</title>
<g id="a_node42"><a xlink:href="class_om_1_1_language_1_1_producer.html" target="_top" xlink:title="An Element giver; gives from the front. ">
<polygon fill="none" stroke="black" points="421.855,-280 421.855,-298 550.145,-298 550.145,-280 421.855,-280"/>
<text text-anchor="middle" x="486" y="-286" font-family="Helvetica,sans-Serif" font-size="10.00">Om::Language::Producer</text>
</a>
</g>
</g>
<!-- Node42&#45;&gt;Node39 -->
<g id="edge41" class="edge"><title>Node42&#45;&gt;Node39</title>
<path fill="none" stroke="midnightblue" d="M457.494,-276.079C423.996,-262.071 369.322,-239.207 340.383,-227.106"/>
<polygon fill="midnightblue" stroke="midnightblue" points="456.173,-279.321 466.749,-279.95 458.874,-272.863 456.173,-279.321"/>
</g>
</g>
</svg>
