<?xml version="1.0" encoding="UTF-8" standalone="no"?>
<!DOCTYPE svg PUBLIC "-//W3C//DTD SVG 1.1//EN"
 "http://www.w3.org/Graphics/SVG/1.1/DTD/svg11.dtd">
<!-- Generated by graphviz version 2.34.0 (20130907.0228)
 -->
<!-- Title: Om::Form::OperandRange&lt; Operand const &#160;&gt; Pages: 1 -->
<svg width="972pt" height="131pt"
 viewBox="0.00 0.00 972.00 131.00" xmlns="http://www.w3.org/2000/svg" xmlns:xlink="http://www.w3.org/1999/xlink">
<g id="graph0" class="graph" transform="scale(1 1) rotate(0) translate(4 127)">
<title>Om::Form::OperandRange&lt; Operand const &#160;&gt;</title>
<!-- Node1 -->
<g id="node1" class="node"><title>Node1</title>
<polygon fill="#bfbfbf" stroke="black" points="828.532,-25 828.532,-57 963.468,-57 963.468,-25 828.532,-25"/>
<text text-anchor="start" x="836.532" y="-43" font-family="Helvetica,sans-Serif" font-size="10.00">Om::Form::OperandRange</text>
<text text-anchor="middle" x="896" y="-31" font-family="Helvetica,sans-Serif" font-size="10.00">&lt; Operand const &gt;</text>
</g>
<!-- Node2 -->
<g id="node2" class="node"><title>Node2</title>
<g id="a_node2"><a xlink:href="class_om_1_1_source_1_1_collection_front_source.html" target="_top" xlink:title="Om::Source::CollectionFront\lSource\&lt; Operand const, OperandDeque\l::const_iterator \&gt;">
<polygon fill="none" stroke="black" points="594.081,-19 594.081,-63 789.919,-63 789.919,-19 594.081,-19"/>
<text text-anchor="start" x="602.081" y="-49" font-family="Helvetica,sans-Serif" font-size="10.00">Om::Source::CollectionFront</text>
<text text-anchor="start" x="602.081" y="-37" font-family="Helvetica,sans-Serif" font-size="10.00">Source&lt; Operand const, OperandDeque</text>
<text text-anchor="middle" x="692" y="-25" font-family="Helvetica,sans-Serif" font-size="10.00">::const_iterator &gt;</text>
</a>
</g>
</g>
<!-- Node2&#45;&gt;Node1 -->
<g id="edge1" class="edge"><title>Node2&#45;&gt;Node1</title>
<path fill="none" stroke="midnightblue" d="M800.162,-41C809.755,-41 819.272,-41 828.368,-41"/>
<polygon fill="midnightblue" stroke="midnightblue" points="800.154,-37.5001 790.154,-41 800.154,-44.5001 800.154,-37.5001"/>
</g>
<!-- Node3 -->
<g id="node3" class="node"><title>Node3</title>
<g id="a_node3"><a xlink:href="class_om_1_1_source_1_1_iterator_pair_source.html" target="_top" xlink:title="Om::Source::IteratorPair\lSource\&lt; Operand const\l , OperandDeque::const\l_iterator \&gt;">
<polygon fill="none" stroke="black" points="431.815,-13 431.815,-69 556.185,-69 556.185,-13 431.815,-13"/>
<text text-anchor="start" x="439.815" y="-55" font-family="Helvetica,sans-Serif" font-size="10.00">Om::Source::IteratorPair</text>
<text text-anchor="start" x="439.815" y="-43" font-family="Helvetica,sans-Serif" font-size="10.00">Source&lt; Operand const</text>
<text text-anchor="start" x="439.815" y="-31" font-family="Helvetica,sans-Serif" font-size="10.00"> , OperandDeque::const</text>
<text text-anchor="middle" x="494" y="-19" font-family="Helvetica,sans-Serif" font-size="10.00">_iterator &gt;</text>
</a>
</g>
</g>
<!-- Node3&#45;&gt;Node2 -->
<g id="edge2" class="edge"><title>Node3&#45;&gt;Node2</title>
<path fill="none" stroke="midnightblue" d="M566.244,-41C575.271,-41 584.626,-41 593.97,-41"/>
<polygon fill="midnightblue" stroke="midnightblue" points="566.209,-37.5001 556.209,-41 566.209,-44.5001 566.209,-37.5001"/>
</g>
<!-- Node4 -->
<g id="node4" class="node"><title>Node4</title>
<g id="a_node4"><a xlink:href="class_om_1_1_source_1_1_default_source.html" target="_top" xlink:title="Om::Source::DefaultSource\l\&lt; Operand const , IteratorPair\lSource\&lt; Operand const , OperandDeque\l::const_iterator \&gt; \&gt;">
<polygon fill="none" stroke="black" points="146.691,-51 146.691,-107 345.309,-107 345.309,-51 146.691,-51"/>
<text text-anchor="start" x="154.691" y="-93" font-family="Helvetica,sans-Serif" font-size="10.00">Om::Source::DefaultSource</text>
<text text-anchor="start" x="154.691" y="-81" font-family="Helvetica,sans-Serif" font-size="10.00">&lt; Operand const , IteratorPair</text>
<text text-anchor="start" x="154.691" y="-69" font-family="Helvetica,sans-Serif" font-size="10.00">Source&lt; Operand const , OperandDeque</text>
<text text-anchor="middle" x="246" y="-57" font-family="Helvetica,sans-Serif" font-size="10.00">::const_iterator &gt; &gt;</text>
</a>
</g>
</g>
<!-- Node4&#45;&gt;Node3 -->
<g id="edge3" class="edge"><title>Node4&#45;&gt;Node3</title>
<path fill="none" stroke="midnightblue" d="M355.56,-62.2305C381.582,-58.211 408.477,-54.0564 431.501,-50.4998"/>
<polygon fill="midnightblue" stroke="midnightblue" points="354.989,-58.7772 345.64,-63.7629 356.057,-65.6952 354.989,-58.7772"/>
</g>
<!-- Node5 -->
<g id="node5" class="node"><title>Node5</title>
<g id="a_node5"><a xlink:href="class_om_1_1_source_1_1_source.html" target="_top" xlink:title="Om::Source::Source\l\&lt; Operand const &#160;\&gt;">
<polygon fill="none" stroke="black" points="0.70459,-91 0.70459,-123 107.295,-123 107.295,-91 0.70459,-91"/>
<text text-anchor="start" x="8.70459" y="-109" font-family="Helvetica,sans-Serif" font-size="10.00">Om::Source::Source</text>
<text text-anchor="middle" x="54" y="-97" font-family="Helvetica,sans-Serif" font-size="10.00">&lt; Operand const &gt;</text>
</a>
</g>
</g>
<!-- Node5&#45;&gt;Node4 -->
<g id="edge4" class="edge"><title>Node5&#45;&gt;Node4</title>
<path fill="none" stroke="midnightblue" d="M117.367,-97.8091C126.724,-96.4301 136.563,-94.9802 146.453,-93.5227"/>
<polygon fill="midnightblue" stroke="midnightblue" points="116.804,-94.3541 107.421,-99.2748 117.825,-101.279 116.804,-94.3541"/>
</g>
<!-- Node6 -->
<g id="node6" class="node"><title>Node6</title>
<polygon fill="none" stroke="#bfbfbf" points="2.9165,-28 2.9165,-72 105.083,-72 105.083,-28 2.9165,-28"/>
<text text-anchor="start" x="10.9165" y="-58" font-family="Helvetica,sans-Serif" font-size="10.00">std::iterator&lt; std</text>
<text text-anchor="start" x="10.9165" y="-46" font-family="Helvetica,sans-Serif" font-size="10.00">::input_iterator_tag,</text>
<text text-anchor="middle" x="54" y="-34" font-family="Helvetica,sans-Serif" font-size="10.00"> Operand const &gt;</text>
</g>
<!-- Node6&#45;&gt;Node4 -->
<g id="edge5" class="edge"><title>Node6&#45;&gt;Node4</title>
<path fill="none" stroke="midnightblue" d="M115.536,-59.2397C125.468,-60.7556 135.981,-62.3603 146.552,-63.9737"/>
<polygon fill="midnightblue" stroke="midnightblue" points="115.831,-55.7443 105.418,-57.6953 114.775,-62.6642 115.831,-55.7443"/>
</g>
<!-- Node7 -->
<g id="node7" class="node"><title>Node7</title>
<g id="a_node7"><a xlink:title="STL iterator class. ">
<polygon fill="none" stroke="#bfbfbf" points="188.422,-0 188.422,-32 303.578,-32 303.578,-0 188.422,-0"/>
<text text-anchor="start" x="196.422" y="-18" font-family="Helvetica,sans-Serif" font-size="10.00">std::deque&lt; T &gt;::const</text>
<text text-anchor="middle" x="246" y="-6" font-family="Helvetica,sans-Serif" font-size="10.00">_iterator</text>
</a>
</g>
</g>
<!-- Node7&#45;&gt;Node3 -->
<g id="edge6" class="edge"><title>Node7&#45;&gt;Node3</title>
<path fill="none" stroke="#9a32cd" stroke-dasharray="5,2" d="M314.024,-20.0944C344.569,-22.2488 381.164,-25.2332 414,-29 419.651,-29.6482 425.518,-30.3966 431.387,-31.1965"/>
<polygon fill="#9a32cd" stroke="#9a32cd" points="314.128,-16.5934 303.911,-19.3957 313.646,-23.5767 314.128,-16.5934"/>
<text text-anchor="middle" x="389" y="-43" font-family="Helvetica,sans-Serif" font-size="10.00"> thisEnd</text>
<text text-anchor="middle" x="389" y="-31" font-family="Helvetica,sans-Serif" font-size="10.00">thisCurrent</text>
</g>
</g>
</svg>
