<?xml version="1.0" encoding="UTF-8" standalone="no"?>
<!DOCTYPE svg PUBLIC "-//W3C//DTD SVG 1.1//EN"
 "http://www.w3.org/Graphics/SVG/1.1/DTD/svg11.dtd">
<!-- Generated by graphviz version 2.36.0 (20140111.2315)
 -->
<!-- Title: Om::Operation::ProgramOperation&lt; ThisProgram &gt; Pages: 1 -->
<svg width="176pt" height="180pt"
 viewBox="0.00 0.00 176.00 180.00" xmlns="http://www.w3.org/2000/svg" xmlns:xlink="http://www.w3.org/1999/xlink">
<g id="graph0" class="graph" transform="scale(1 1) rotate(0) translate(4 176)">
<title>Om::Operation::ProgramOperation&lt; ThisProgram &gt;</title>
<!-- Node1 -->
<g id="node1" class="node"><title>Node1</title>
<polygon fill="#bfbfbf" stroke="black" points="-0.699219,-1 -0.699219,-29 168.699,-29 168.699,-1 -0.699219,-1"/>
<text text-anchor="start" x="7.30078" y="-17" font-family="Helvetica,sans-Serif" font-size="10.00">Om::Operation::ProgramOperation</text>
<text text-anchor="middle" x="84" y="-7" font-family="Helvetica,sans-Serif" font-size="10.00">&lt; ThisProgram &gt;</text>
</g>
<!-- Node2 -->
<g id="node2" class="node"><title>Node2</title>
<g id="a_node2"><a xlink:href="class_om_1_1_operation_1_1_default_incomplete_operation.html" target="_top" xlink:title="Om::Operation::DefaultIncomplete\lOperation\&lt; ProgramOperation\l\&lt; ThisProgram \&gt; \&gt;">
<polygon fill="none" stroke="black" points="0.130859,-67 0.130859,-105 167.869,-105 167.869,-67 0.130859,-67"/>
<text text-anchor="start" x="8.13086" y="-93" font-family="Helvetica,sans-Serif" font-size="10.00">Om::Operation::DefaultIncomplete</text>
<text text-anchor="start" x="8.13086" y="-83" font-family="Helvetica,sans-Serif" font-size="10.00">Operation&lt; ProgramOperation</text>
<text text-anchor="middle" x="84" y="-73" font-family="Helvetica,sans-Serif" font-size="10.00">&lt; ThisProgram &gt; &gt;</text>
</a>
</g>
</g>
<!-- Node2&#45;&gt;Node1 -->
<g id="edge1" class="edge"><title>Node2&#45;&gt;Node1</title>
<path fill="none" stroke="midnightblue" d="M84,-56.587C84,-47.0981 84,-36.9748 84,-29.2121"/>
<polygon fill="midnightblue" stroke="midnightblue" points="80.5001,-56.871 84,-66.8711 87.5001,-56.8711 80.5001,-56.871"/>
</g>
<!-- Node3 -->
<g id="node3" class="node"><title>Node3</title>
<g id="a_node3"><a xlink:href="class_om_1_1_operation_1_1_incomplete_operation.html" target="_top" xlink:title="An Operation that has yet to consume one or more Operands and must live in memory until complete...">
<polygon fill="none" stroke="black" points="15.9731,-143 15.9731,-171 152.027,-171 152.027,-143 15.9731,-143"/>
<text text-anchor="start" x="23.9731" y="-159" font-family="Helvetica,sans-Serif" font-size="10.00">Om::Operation::Incomplete</text>
<text text-anchor="middle" x="84" y="-149" font-family="Helvetica,sans-Serif" font-size="10.00">Operation</text>
</a>
</g>
</g>
<!-- Node3&#45;&gt;Node2 -->
<g id="edge2" class="edge"><title>Node3&#45;&gt;Node2</title>
<path fill="none" stroke="midnightblue" d="M84,-132.541C84,-123.616 84,-113.588 84,-105.219"/>
<polygon fill="midnightblue" stroke="midnightblue" points="80.5001,-132.696 84,-142.696 87.5001,-132.696 80.5001,-132.696"/>
</g>
</g>
</svg>
