<?xml version="1.0" encoding="UTF-8" standalone="no"?>
<!DOCTYPE svg PUBLIC "-//W3C//DTD SVG 1.1//EN"
 "http://www.w3.org/Graphics/SVG/1.1/DTD/svg11.dtd">
<!-- Generated by graphviz version 2.34.0 (20130907.0228)
 -->
<!-- Title: Om::Consumer Pages: 1 -->
<svg width="1816pt" height="190pt"
 viewBox="0.00 0.00 1816.00 190.00" xmlns="http://www.w3.org/2000/svg" xmlns:xlink="http://www.w3.org/1999/xlink">
<g id="graph0" class="graph" transform="scale(1 1) rotate(0) translate(4 186)">
<title>Om::Consumer</title>
<!-- Node1 -->
<g id="node1" class="node"><title>Node1</title>
<polygon fill="#bfbfbf" stroke="black" points="0.103516,-87 0.103516,-107 83.8965,-107 83.8965,-87 0.103516,-87"/>
<text text-anchor="middle" x="42" y="-93" font-family="Helvetica,sans-Serif" font-size="10.00">Om::Consumer</text>
</g>
<!-- Node2 -->
<g id="node2" class="node"><title>Node2</title>
<g id="a_node2"><a xlink:href="class_om_1_1_program.html" target="_top" xlink:title="The Program implementation. ">
<polygon fill="none" stroke="black" points="119.995,-87 119.995,-107 196.005,-107 196.005,-87 119.995,-87"/>
<text text-anchor="middle" x="158" y="-93" font-family="Helvetica,sans-Serif" font-size="10.00">Om::Program</text>
</a>
</g>
</g>
<!-- Node1&#45;&gt;Node2 -->
<g id="edge1" class="edge"><title>Node1&#45;&gt;Node2</title>
<path fill="none" stroke="midnightblue" d="M94.4094,-97C102.926,-97 111.61,-97 119.692,-97"/>
<polygon fill="midnightblue" stroke="midnightblue" points="94.1567,-93.5001 84.1566,-97 94.1566,-100.5 94.1567,-93.5001"/>
</g>
<!-- Node3 -->
<g id="node3" class="node"><title>Node3</title>
<g id="a_node3"><a xlink:href="class_om_1_1_element.html" target="_top" xlink:title="A Program that contains a single elemental item (or none, when IsEmpty() returns true). ">
<polygon fill="none" stroke="black" points="231.825,-87 231.825,-107 306.175,-107 306.175,-87 231.825,-87"/>
<text text-anchor="middle" x="269" y="-93" font-family="Helvetica,sans-Serif" font-size="10.00">Om::Element</text>
</a>
</g>
</g>
<!-- Node2&#45;&gt;Node3 -->
<g id="edge2" class="edge"><title>Node2&#45;&gt;Node3</title>
<path fill="none" stroke="midnightblue" d="M206.384,-97C214.868,-97 223.587,-97 231.699,-97"/>
<polygon fill="midnightblue" stroke="midnightblue" points="206.207,-93.5001 196.207,-97 206.207,-100.5 206.207,-93.5001"/>
</g>
<!-- Node4 -->
<g id="node4" class="node"><title>Node4</title>
<g id="a_node4"><a xlink:href="class_om_1_1_atom.html" target="_top" xlink:title="An atomic Element defined by a string. ">
<polygon fill="none" stroke="black" points="342.498,-87 342.498,-107 403.502,-107 403.502,-87 342.498,-87"/>
<text text-anchor="middle" x="373" y="-93" font-family="Helvetica,sans-Serif" font-size="10.00">Om::Atom</text>
</a>
</g>
</g>
<!-- Node3&#45;&gt;Node4 -->
<g id="edge3" class="edge"><title>Node3&#45;&gt;Node4</title>
<path fill="none" stroke="midnightblue" d="M316.412,-97C325.194,-97 334.16,-97 342.255,-97"/>
<polygon fill="midnightblue" stroke="midnightblue" points="316.249,-93.5001 306.249,-97 316.249,-100.5 316.249,-93.5001"/>
</g>
<!-- Node5 -->
<g id="node5" class="node"><title>Node5</title>
<g id="a_node5"><a xlink:href="class_om_1_1_default_copyable.html" target="_top" xlink:title="Om::DefaultCopyable\l\&lt; Operator, Atom \&gt;">
<polygon fill="none" stroke="black" points="441.2,-138 441.2,-170 552.8,-170 552.8,-138 441.2,-138"/>
<text text-anchor="start" x="449.2" y="-156" font-family="Helvetica,sans-Serif" font-size="10.00">Om::DefaultCopyable</text>
<text text-anchor="middle" x="497" y="-144" font-family="Helvetica,sans-Serif" font-size="10.00">&lt; Operator, Atom &gt;</text>
</a>
</g>
</g>
<!-- Node4&#45;&gt;Node5 -->
<g id="edge4" class="edge"><title>Node4&#45;&gt;Node5</title>
<path fill="none" stroke="midnightblue" d="M404.61,-111.301C421.851,-119.357 443.442,-129.444 461.309,-137.792"/>
<polygon fill="midnightblue" stroke="midnightblue" points="406.072,-108.121 395.53,-107.059 403.109,-114.463 406.072,-108.121"/>
</g>
<!-- Node13 -->
<g id="node13" class="node"><title>Node13</title>
<g id="a_node13"><a xlink:href="class_om_1_1_default_copyable.html" target="_top" xlink:title="Om::DefaultCopyable\l\&lt; Separator, Atom \&gt;">
<polygon fill="none" stroke="black" points="441.2,-81 441.2,-113 552.8,-113 552.8,-81 441.2,-81"/>
<text text-anchor="start" x="449.2" y="-99" font-family="Helvetica,sans-Serif" font-size="10.00">Om::DefaultCopyable</text>
<text text-anchor="middle" x="497" y="-87" font-family="Helvetica,sans-Serif" font-size="10.00">&lt; Separator, Atom &gt;</text>
</a>
</g>
</g>
<!-- Node4&#45;&gt;Node13 -->
<g id="edge12" class="edge"><title>Node4&#45;&gt;Node13</title>
<path fill="none" stroke="midnightblue" d="M413.757,-97C422.453,-97 431.806,-97 440.978,-97"/>
<polygon fill="midnightblue" stroke="midnightblue" points="413.533,-93.5001 403.533,-97 413.533,-100.5 413.533,-93.5001"/>
</g>
<!-- Node21 -->
<g id="node21" class="node"><title>Node21</title>
<g id="a_node21"><a xlink:href="class_om_1_1_default_copyable.html" target="_top" xlink:title="Om::DefaultCopyable\l\&lt; ThisImplementation,\l Atom \&gt;">
<polygon fill="none" stroke="black" points="439.759,-12 439.759,-56 554.241,-56 554.241,-12 439.759,-12"/>
<text text-anchor="start" x="447.759" y="-42" font-family="Helvetica,sans-Serif" font-size="10.00">Om::DefaultCopyable</text>
<text text-anchor="start" x="447.759" y="-30" font-family="Helvetica,sans-Serif" font-size="10.00">&lt; ThisImplementation,</text>
<text text-anchor="middle" x="497" y="-18" font-family="Helvetica,sans-Serif" font-size="10.00"> Atom &gt;</text>
</a>
</g>
</g>
<!-- Node4&#45;&gt;Node21 -->
<g id="edge20" class="edge"><title>Node4&#45;&gt;Node21</title>
<path fill="none" stroke="midnightblue" d="M402.884,-82.0847C417.894,-74.3337 436.533,-64.7084 453.183,-56.1104"/>
<polygon fill="midnightblue" stroke="midnightblue" points="400.881,-79.1798 393.601,-86.878 404.093,-85.3995 400.881,-79.1798"/>
</g>
<!-- Node6 -->
<g id="node6" class="node"><title>Node6</title>
<g id="a_node6"><a xlink:href="class_om_1_1_default_moveable.html" target="_top" xlink:title="Om::DefaultMoveable\l\&lt; Operator, DefaultCopyable\l\&lt; Operator, Atom \&gt; \&gt;">
<polygon fill="none" stroke="black" points="614.487,-138 614.487,-182 757.513,-182 757.513,-138 614.487,-138"/>
<text text-anchor="start" x="622.487" y="-168" font-family="Helvetica,sans-Serif" font-size="10.00">Om::DefaultMoveable</text>
<text text-anchor="start" x="622.487" y="-156" font-family="Helvetica,sans-Serif" font-size="10.00">&lt; Operator, DefaultCopyable</text>
<text text-anchor="middle" x="686" y="-144" font-family="Helvetica,sans-Serif" font-size="10.00">&lt; Operator, Atom &gt; &gt;</text>
</a>
</g>
</g>
<!-- Node5&#45;&gt;Node6 -->
<g id="edge5" class="edge"><title>Node5&#45;&gt;Node6</title>
<path fill="none" stroke="midnightblue" d="M562.946,-156.084C579.481,-156.614 597.333,-157.187 614.146,-157.727"/>
<polygon fill="midnightblue" stroke="midnightblue" points="562.95,-152.582 552.843,-155.76 562.725,-159.579 562.95,-152.582"/>
</g>
<!-- Node7 -->
<g id="node7" class="node"><title>Node7</title>
<g id="a_node7"><a xlink:href="class_om_1_1_default_giveable.html" target="_top" xlink:title="Om::DefaultGiveable\l\&lt; Operator, Atom \&gt;">
<polygon fill="none" stroke="black" points="820.591,-144 820.591,-176 929.409,-176 929.409,-144 820.591,-144"/>
<text text-anchor="start" x="828.591" y="-162" font-family="Helvetica,sans-Serif" font-size="10.00">Om::DefaultGiveable</text>
<text text-anchor="middle" x="875" y="-150" font-family="Helvetica,sans-Serif" font-size="10.00">&lt; Operator, Atom &gt;</text>
</a>
</g>
</g>
<!-- Node6&#45;&gt;Node7 -->
<g id="edge6" class="edge"><title>Node6&#45;&gt;Node7</title>
<path fill="none" stroke="midnightblue" d="M768.038,-160C785.756,-160 804.081,-160 820.407,-160"/>
<polygon fill="midnightblue" stroke="midnightblue" points="767.697,-156.5 757.697,-160 767.697,-163.5 767.697,-156.5"/>
</g>
<!-- Node8 -->
<g id="node8" class="node"><title>Node8</title>
<g id="a_node8"><a xlink:href="class_om_1_1_default_consumer.html" target="_top" xlink:title="Om::DefaultConsumer\l\&lt; Operator, DefaultGiveable\l\&lt; Operator, Atom \&gt; \&gt;">
<polygon fill="none" stroke="black" points="991.878,-138 991.878,-182 1132.12,-182 1132.12,-138 991.878,-138"/>
<text text-anchor="start" x="999.878" y="-168" font-family="Helvetica,sans-Serif" font-size="10.00">Om::DefaultConsumer</text>
<text text-anchor="start" x="999.878" y="-156" font-family="Helvetica,sans-Serif" font-size="10.00">&lt; Operator, DefaultGiveable</text>
<text text-anchor="middle" x="1062" y="-144" font-family="Helvetica,sans-Serif" font-size="10.00">&lt; Operator, Atom &gt; &gt;</text>
</a>
</g>
</g>
<!-- Node7&#45;&gt;Node8 -->
<g id="edge7" class="edge"><title>Node7&#45;&gt;Node8</title>
<path fill="none" stroke="midnightblue" d="M939.75,-160C956.524,-160 974.699,-160 991.747,-160"/>
<polygon fill="midnightblue" stroke="midnightblue" points="939.51,-156.5 929.51,-160 939.51,-163.5 939.51,-156.5"/>
</g>
<!-- Node9 -->
<g id="node9" class="node"><title>Node9</title>
<g id="a_node9"><a xlink:href="class_om_1_1_default_program.html" target="_top" xlink:title="Om::DefaultProgram\l\&lt; Operator, Atom \&gt;">
<polygon fill="none" stroke="black" points="1195.15,-144 1195.15,-176 1302.85,-176 1302.85,-144 1195.15,-144"/>
<text text-anchor="start" x="1203.15" y="-162" font-family="Helvetica,sans-Serif" font-size="10.00">Om::DefaultProgram</text>
<text text-anchor="middle" x="1249" y="-150" font-family="Helvetica,sans-Serif" font-size="10.00">&lt; Operator, Atom &gt;</text>
</a>
</g>
</g>
<!-- Node8&#45;&gt;Node9 -->
<g id="edge8" class="edge"><title>Node8&#45;&gt;Node9</title>
<path fill="none" stroke="midnightblue" d="M1142.52,-160C1160.3,-160 1178.72,-160 1195.11,-160"/>
<polygon fill="midnightblue" stroke="midnightblue" points="1142.15,-156.5 1132.15,-160 1142.15,-163.5 1142.15,-156.5"/>
</g>
<!-- Node10 -->
<g id="node10" class="node"><title>Node10</title>
<g id="a_node10"><a xlink:href="class_om_1_1_default_element.html" target="_top" xlink:title="Om::DefaultElement\l\&lt; Operator, Atom \&gt;">
<polygon fill="none" stroke="black" points="1345.98,-144 1345.98,-176 1452.02,-176 1452.02,-144 1345.98,-144"/>
<text text-anchor="start" x="1353.98" y="-162" font-family="Helvetica,sans-Serif" font-size="10.00">Om::DefaultElement</text>
<text text-anchor="middle" x="1399" y="-150" font-family="Helvetica,sans-Serif" font-size="10.00">&lt; Operator, Atom &gt;</text>
</a>
</g>
</g>
<!-- Node9&#45;&gt;Node10 -->
<g id="edge9" class="edge"><title>Node9&#45;&gt;Node10</title>
<path fill="none" stroke="midnightblue" d="M1313.3,-160C1324.16,-160 1335.33,-160 1345.85,-160"/>
<polygon fill="midnightblue" stroke="midnightblue" points="1313.01,-156.5 1303.01,-160 1313.01,-163.5 1313.01,-156.5"/>
</g>
<!-- Node11 -->
<g id="node11" class="node"><title>Node11</title>
<g id="a_node11"><a xlink:href="class_om_1_1_default_atom.html" target="_top" xlink:title="Om::DefaultAtom\&lt; Operator \&gt;">
<polygon fill="none" stroke="black" points="1516.31,-150 1516.31,-170 1665.69,-170 1665.69,-150 1516.31,-150"/>
<text text-anchor="middle" x="1591" y="-156" font-family="Helvetica,sans-Serif" font-size="10.00">Om::DefaultAtom&lt; Operator &gt;</text>
</a>
</g>
</g>
<!-- Node10&#45;&gt;Node11 -->
<g id="edge10" class="edge"><title>Node10&#45;&gt;Node11</title>
<path fill="none" stroke="midnightblue" d="M1462.62,-160C1479.77,-160 1498.53,-160 1516.24,-160"/>
<polygon fill="midnightblue" stroke="midnightblue" points="1462.17,-156.5 1452.17,-160 1462.17,-163.5 1462.17,-156.5"/>
</g>
<!-- Node12 -->
<g id="node12" class="node"><title>Node12</title>
<g id="a_node12"><a xlink:href="class_om_1_1_operator.html" target="_top" xlink:title="The Operator implementation. ">
<polygon fill="none" stroke="black" points="1728.44,-150 1728.44,-170 1805.56,-170 1805.56,-150 1728.44,-150"/>
<text text-anchor="middle" x="1767" y="-156" font-family="Helvetica,sans-Serif" font-size="10.00">Om::Operator</text>
</a>
</g>
</g>
<!-- Node11&#45;&gt;Node12 -->
<g id="edge11" class="edge"><title>Node11&#45;&gt;Node12</title>
<path fill="none" stroke="midnightblue" d="M1675.92,-160C1694.23,-160 1712.73,-160 1728.15,-160"/>
<polygon fill="midnightblue" stroke="midnightblue" points="1675.79,-156.5 1665.79,-160 1675.79,-163.5 1675.79,-156.5"/>
</g>
<!-- Node14 -->
<g id="node14" class="node"><title>Node14</title>
<g id="a_node14"><a xlink:href="class_om_1_1_default_moveable.html" target="_top" xlink:title="Om::DefaultMoveable\l\&lt; Separator, DefaultCopyable\l\&lt; Separator, Atom \&gt; \&gt;">
<polygon fill="none" stroke="black" points="612.26,-75 612.26,-119 759.74,-119 759.74,-75 612.26,-75"/>
<text text-anchor="start" x="620.26" y="-105" font-family="Helvetica,sans-Serif" font-size="10.00">Om::DefaultMoveable</text>
<text text-anchor="start" x="620.26" y="-93" font-family="Helvetica,sans-Serif" font-size="10.00">&lt; Separator, DefaultCopyable</text>
<text text-anchor="middle" x="686" y="-81" font-family="Helvetica,sans-Serif" font-size="10.00">&lt; Separator, Atom &gt; &gt;</text>
</a>
</g>
</g>
<!-- Node13&#45;&gt;Node14 -->
<g id="edge13" class="edge"><title>Node13&#45;&gt;Node14</title>
<path fill="none" stroke="midnightblue" d="M563.052,-97C578.883,-97 595.918,-97 612.088,-97"/>
<polygon fill="midnightblue" stroke="midnightblue" points="562.843,-93.5001 552.843,-97 562.843,-100.5 562.843,-93.5001"/>
</g>
<!-- Node15 -->
<g id="node15" class="node"><title>Node15</title>
<g id="a_node15"><a xlink:href="class_om_1_1_default_giveable.html" target="_top" xlink:title="Om::DefaultGiveable\l\&lt; Separator, Atom \&gt;">
<polygon fill="none" stroke="black" points="820.591,-81 820.591,-113 929.409,-113 929.409,-81 820.591,-81"/>
<text text-anchor="start" x="828.591" y="-99" font-family="Helvetica,sans-Serif" font-size="10.00">Om::DefaultGiveable</text>
<text text-anchor="middle" x="875" y="-87" font-family="Helvetica,sans-Serif" font-size="10.00">&lt; Separator, Atom &gt;</text>
</a>
</g>
</g>
<!-- Node14&#45;&gt;Node15 -->
<g id="edge14" class="edge"><title>Node14&#45;&gt;Node15</title>
<path fill="none" stroke="midnightblue" d="M769.87,-97C787.039,-97 804.692,-97 820.474,-97"/>
<polygon fill="midnightblue" stroke="midnightblue" points="769.835,-93.5001 759.835,-97 769.835,-100.5 769.835,-93.5001"/>
</g>
<!-- Node16 -->
<g id="node16" class="node"><title>Node16</title>
<g id="a_node16"><a xlink:href="class_om_1_1_default_consumer.html" target="_top" xlink:title="Om::DefaultConsumer\l\&lt; Separator, DefaultGiveable\l\&lt; Separator, Atom \&gt; \&gt;">
<polygon fill="none" stroke="black" points="989.652,-75 989.652,-119 1134.35,-119 1134.35,-75 989.652,-75"/>
<text text-anchor="start" x="997.652" y="-105" font-family="Helvetica,sans-Serif" font-size="10.00">Om::DefaultConsumer</text>
<text text-anchor="start" x="997.652" y="-93" font-family="Helvetica,sans-Serif" font-size="10.00">&lt; Separator, DefaultGiveable</text>
<text text-anchor="middle" x="1062" y="-81" font-family="Helvetica,sans-Serif" font-size="10.00">&lt; Separator, Atom &gt; &gt;</text>
</a>
</g>
</g>
<!-- Node15&#45;&gt;Node16 -->
<g id="edge15" class="edge"><title>Node15&#45;&gt;Node16</title>
<path fill="none" stroke="midnightblue" d="M939.805,-97C955.785,-97 973.032,-97 989.365,-97"/>
<polygon fill="midnightblue" stroke="midnightblue" points="939.51,-93.5001 929.51,-97 939.51,-100.5 939.51,-93.5001"/>
</g>
<!-- Node17 -->
<g id="node17" class="node"><title>Node17</title>
<g id="a_node17"><a xlink:href="class_om_1_1_default_program.html" target="_top" xlink:title="Om::DefaultProgram\l\&lt; Separator, Atom \&gt;">
<polygon fill="none" stroke="black" points="1195.15,-81 1195.15,-113 1302.85,-113 1302.85,-81 1195.15,-81"/>
<text text-anchor="start" x="1203.15" y="-99" font-family="Helvetica,sans-Serif" font-size="10.00">Om::DefaultProgram</text>
<text text-anchor="middle" x="1249" y="-87" font-family="Helvetica,sans-Serif" font-size="10.00">&lt; Separator, Atom &gt;</text>
</a>
</g>
</g>
<!-- Node16&#45;&gt;Node17 -->
<g id="edge16" class="edge"><title>Node16&#45;&gt;Node17</title>
<path fill="none" stroke="midnightblue" d="M1144.53,-97C1161.65,-97 1179.28,-97 1195.03,-97"/>
<polygon fill="midnightblue" stroke="midnightblue" points="1144.53,-93.5001 1134.53,-97 1144.53,-100.5 1144.53,-93.5001"/>
</g>
<!-- Node18 -->
<g id="node18" class="node"><title>Node18</title>
<g id="a_node18"><a xlink:href="class_om_1_1_default_element.html" target="_top" xlink:title="Om::DefaultElement\l\&lt; Separator, Atom \&gt;">
<polygon fill="none" stroke="black" points="1345.98,-81 1345.98,-113 1452.02,-113 1452.02,-81 1345.98,-81"/>
<text text-anchor="start" x="1353.98" y="-99" font-family="Helvetica,sans-Serif" font-size="10.00">Om::DefaultElement</text>
<text text-anchor="middle" x="1399" y="-87" font-family="Helvetica,sans-Serif" font-size="10.00">&lt; Separator, Atom &gt;</text>
</a>
</g>
</g>
<!-- Node17&#45;&gt;Node18 -->
<g id="edge17" class="edge"><title>Node17&#45;&gt;Node18</title>
<path fill="none" stroke="midnightblue" d="M1313.3,-97C1324.16,-97 1335.33,-97 1345.85,-97"/>
<polygon fill="midnightblue" stroke="midnightblue" points="1313.01,-93.5001 1303.01,-97 1313.01,-100.5 1313.01,-93.5001"/>
</g>
<!-- Node19 -->
<g id="node19" class="node"><title>Node19</title>
<g id="a_node19"><a xlink:href="class_om_1_1_default_atom.html" target="_top" xlink:title="Om::DefaultAtom\&lt; Separator \&gt;">
<polygon fill="none" stroke="black" points="1514.08,-87 1514.08,-107 1667.92,-107 1667.92,-87 1514.08,-87"/>
<text text-anchor="middle" x="1591" y="-93" font-family="Helvetica,sans-Serif" font-size="10.00">Om::DefaultAtom&lt; Separator &gt;</text>
</a>
</g>
</g>
<!-- Node18&#45;&gt;Node19 -->
<g id="edge18" class="edge"><title>Node18&#45;&gt;Node19</title>
<path fill="none" stroke="midnightblue" d="M1462.2,-97C1478.67,-97 1496.63,-97 1513.74,-97"/>
<polygon fill="midnightblue" stroke="midnightblue" points="1462.17,-93.5001 1452.17,-97 1462.17,-100.5 1462.17,-93.5001"/>
</g>
<!-- Node20 -->
<g id="node20" class="node"><title>Node20</title>
<g id="a_node20"><a xlink:href="class_om_1_1_separator.html" target="_top" xlink:title="The Separator implementation. ">
<polygon fill="none" stroke="black" points="1726.21,-87 1726.21,-107 1807.79,-107 1807.79,-87 1726.21,-87"/>
<text text-anchor="middle" x="1767" y="-93" font-family="Helvetica,sans-Serif" font-size="10.00">Om::Separator</text>
</a>
</g>
</g>
<!-- Node19&#45;&gt;Node20 -->
<g id="edge19" class="edge"><title>Node19&#45;&gt;Node20</title>
<path fill="none" stroke="midnightblue" d="M1678.39,-97C1695.02,-97 1711.67,-97 1725.93,-97"/>
<polygon fill="midnightblue" stroke="midnightblue" points="1678.07,-93.5001 1668.07,-97 1678.07,-100.5 1678.07,-93.5001"/>
</g>
<!-- Node22 -->
<g id="node22" class="node"><title>Node22</title>
<g id="a_node22"><a xlink:href="class_om_1_1_default_moveable.html" target="_top" xlink:title="Om::DefaultMoveable\l\&lt; ThisImplementation,\l DefaultCopyable\&lt; ThisImplementation,\l Atom \&gt; \&gt;">
<polygon fill="none" stroke="black" points="590.402,-0 590.402,-56 781.598,-56 781.598,-0 590.402,-0"/>
<text text-anchor="start" x="598.402" y="-42" font-family="Helvetica,sans-Serif" font-size="10.00">Om::DefaultMoveable</text>
<text text-anchor="start" x="598.402" y="-30" font-family="Helvetica,sans-Serif" font-size="10.00">&lt; ThisImplementation,</text>
<text text-anchor="start" x="598.402" y="-18" font-family="Helvetica,sans-Serif" font-size="10.00"> DefaultCopyable&lt; ThisImplementation,</text>
<text text-anchor="middle" x="686" y="-6" font-family="Helvetica,sans-Serif" font-size="10.00"> Atom &gt; &gt;</text>
</a>
</g>
</g>
<!-- Node21&#45;&gt;Node22 -->
<g id="edge21" class="edge"><title>Node21&#45;&gt;Node22</title>
<path fill="none" stroke="midnightblue" d="M564.445,-31.8681C572.86,-31.5981 581.595,-31.3178 590.343,-31.0371"/>
<polygon fill="midnightblue" stroke="midnightblue" points="564.242,-28.3727 554.36,-32.1917 564.467,-35.3691 564.242,-28.3727"/>
</g>
<!-- Node23 -->
<g id="node23" class="node"><title>Node23</title>
<g id="a_node23"><a xlink:href="class_om_1_1_default_giveable.html" target="_top" xlink:title="Om::DefaultGiveable\l\&lt; ThisImplementation,\l Atom \&gt;">
<polygon fill="none" stroke="black" points="817.759,-6 817.759,-50 932.241,-50 932.241,-6 817.759,-6"/>
<text text-anchor="start" x="825.759" y="-36" font-family="Helvetica,sans-Serif" font-size="10.00">Om::DefaultGiveable</text>
<text text-anchor="start" x="825.759" y="-24" font-family="Helvetica,sans-Serif" font-size="10.00">&lt; ThisImplementation,</text>
<text text-anchor="middle" x="875" y="-12" font-family="Helvetica,sans-Serif" font-size="10.00"> Atom &gt;</text>
</a>
</g>
</g>
<!-- Node22&#45;&gt;Node23 -->
<g id="edge22" class="edge"><title>Node22&#45;&gt;Node23</title>
<path fill="none" stroke="midnightblue" d="M792.142,-28C800.854,-28 809.43,-28 817.559,-28"/>
<polygon fill="midnightblue" stroke="midnightblue" points="791.87,-24.5001 781.87,-28 791.87,-31.5001 791.87,-24.5001"/>
</g>
<!-- Node24 -->
<g id="node24" class="node"><title>Node24</title>
<g id="a_node24"><a xlink:href="class_om_1_1_default_consumer.html" target="_top" xlink:title="Om::DefaultConsumer\l\&lt; ThisImplementation,\l DefaultGiveable\&lt; ThisImplementation,\l Atom \&gt; \&gt;">
<polygon fill="none" stroke="black" points="967.794,-0 967.794,-56 1156.21,-56 1156.21,-0 967.794,-0"/>
<text text-anchor="start" x="975.794" y="-42" font-family="Helvetica,sans-Serif" font-size="10.00">Om::DefaultConsumer</text>
<text text-anchor="start" x="975.794" y="-30" font-family="Helvetica,sans-Serif" font-size="10.00">&lt; ThisImplementation,</text>
<text text-anchor="start" x="975.794" y="-18" font-family="Helvetica,sans-Serif" font-size="10.00"> DefaultGiveable&lt; ThisImplementation,</text>
<text text-anchor="middle" x="1062" y="-6" font-family="Helvetica,sans-Serif" font-size="10.00"> Atom &gt; &gt;</text>
</a>
</g>
</g>
<!-- Node23&#45;&gt;Node24 -->
<g id="edge23" class="edge"><title>Node23&#45;&gt;Node24</title>
<path fill="none" stroke="midnightblue" d="M942.499,-28C950.726,-28 959.252,-28 967.785,-28"/>
<polygon fill="midnightblue" stroke="midnightblue" points="942.26,-24.5001 932.26,-28 942.26,-31.5001 942.26,-24.5001"/>
</g>
<!-- Node25 -->
<g id="node25" class="node"><title>Node25</title>
<g id="a_node25"><a xlink:href="class_om_1_1_default_program.html" target="_top" xlink:title="Om::DefaultProgram\l\&lt; ThisImplementation,\l Atom \&gt;">
<polygon fill="none" stroke="black" points="1191.76,-6 1191.76,-50 1306.24,-50 1306.24,-6 1191.76,-6"/>
<text text-anchor="start" x="1199.76" y="-36" font-family="Helvetica,sans-Serif" font-size="10.00">Om::DefaultProgram</text>
<text text-anchor="start" x="1199.76" y="-24" font-family="Helvetica,sans-Serif" font-size="10.00">&lt; ThisImplementation,</text>
<text text-anchor="middle" x="1249" y="-12" font-family="Helvetica,sans-Serif" font-size="10.00"> Atom &gt;</text>
</a>
</g>
</g>
<!-- Node24&#45;&gt;Node25 -->
<g id="edge24" class="edge"><title>Node24&#45;&gt;Node25</title>
<path fill="none" stroke="midnightblue" d="M1166.44,-28C1175.04,-28 1183.51,-28 1191.54,-28"/>
<polygon fill="midnightblue" stroke="midnightblue" points="1166.31,-24.5001 1156.31,-28 1166.31,-31.5001 1166.31,-24.5001"/>
</g>
<!-- Node26 -->
<g id="node26" class="node"><title>Node26</title>
<g id="a_node26"><a xlink:href="class_om_1_1_default_element.html" target="_top" xlink:title="Om::DefaultElement\l\&lt; ThisImplementation,\l Atom \&gt;">
<polygon fill="none" stroke="black" points="1341.76,-6 1341.76,-50 1456.24,-50 1456.24,-6 1341.76,-6"/>
<text text-anchor="start" x="1349.76" y="-36" font-family="Helvetica,sans-Serif" font-size="10.00">Om::DefaultElement</text>
<text text-anchor="start" x="1349.76" y="-24" font-family="Helvetica,sans-Serif" font-size="10.00">&lt; ThisImplementation,</text>
<text text-anchor="middle" x="1399" y="-12" font-family="Helvetica,sans-Serif" font-size="10.00"> Atom &gt;</text>
</a>
</g>
</g>
<!-- Node25&#45;&gt;Node26 -->
<g id="edge25" class="edge"><title>Node25&#45;&gt;Node26</title>
<path fill="none" stroke="midnightblue" d="M1316.41,-28C1324.72,-28 1333.15,-28 1341.29,-28"/>
<polygon fill="midnightblue" stroke="midnightblue" points="1316.37,-24.5001 1306.37,-28 1316.37,-31.5001 1316.37,-24.5001"/>
</g>
<!-- Node27 -->
<g id="node27" class="node"><title>Node27</title>
<g id="a_node27"><a xlink:href="class_om_1_1_default_atom.html" target="_top" xlink:title="A partial implementation of Atom. ">
<polygon fill="none" stroke="black" points="1492.49,-18 1492.49,-38 1689.51,-38 1689.51,-18 1492.49,-18"/>
<text text-anchor="middle" x="1591" y="-24" font-family="Helvetica,sans-Serif" font-size="10.00">Om::DefaultAtom&lt; ThisImplementation &gt;</text>
</a>
</g>
</g>
<!-- Node26&#45;&gt;Node27 -->
<g id="edge26" class="edge"><title>Node26&#45;&gt;Node27</title>
<path fill="none" stroke="midnightblue" d="M1466.56,-28C1474.96,-28 1483.69,-28 1492.45,-28"/>
<polygon fill="midnightblue" stroke="midnightblue" points="1466.49,-24.5001 1456.49,-28 1466.49,-31.5001 1466.49,-24.5001"/>
</g>
</g>
</svg>
