<?xml version="1.0" encoding="UTF-8" standalone="no"?>
<!DOCTYPE svg PUBLIC "-//W3C//DTD SVG 1.1//EN"
 "http://www.w3.org/Graphics/SVG/1.1/DTD/svg11.dtd">
<!-- Generated by graphviz version 2.36.0 (20140111.2315)
 -->
<!-- Title: Om::Operand Pages: 1 -->
<svg width="1632pt" height="157pt"
 viewBox="0.00 0.00 1632.00 157.00" xmlns="http://www.w3.org/2000/svg" xmlns:xlink="http://www.w3.org/1999/xlink">
<g id="graph0" class="graph" transform="scale(1 1) rotate(0) translate(4 153)">
<title>Om::Operand</title>
<!-- Node1 -->
<g id="node1" class="node"><title>Node1</title>
<polygon fill="#bfbfbf" stroke="black" points="1546.71,-29 1546.71,-47 1623.29,-47 1623.29,-29 1546.71,-29"/>
<text text-anchor="middle" x="1585" y="-35" font-family="Helvetica,sans-Serif" font-size="10.00">Om::Operand</text>
</g>
<!-- Node2 -->
<g id="node2" class="node"><title>Node2</title>
<g id="a_node2"><a xlink:href="class_om_1_1_default_element.html" target="_top" xlink:title="Om::DefaultElement\l\&lt; Operand, Element \&gt;">
<polygon fill="none" stroke="black" points="1322.8,-44 1322.8,-72 1437.2,-72 1437.2,-44 1322.8,-44"/>
<text text-anchor="start" x="1330.8" y="-60" font-family="Helvetica,sans-Serif" font-size="10.00">Om::DefaultElement</text>
<text text-anchor="middle" x="1380" y="-50" font-family="Helvetica,sans-Serif" font-size="10.00">&lt; Operand, Element &gt;</text>
</a>
</g>
</g>
<!-- Node2&#45;&gt;Node1 -->
<g id="edge1" class="edge"><title>Node2&#45;&gt;Node1</title>
<path fill="none" stroke="midnightblue" d="M1447.3,-51.4684C1480.22,-48.2245 1518.79,-44.4249 1546.55,-41.6899"/>
<polygon fill="midnightblue" stroke="midnightblue" points="1446.89,-47.9917 1437.28,-52.4554 1447.57,-54.958 1446.89,-47.9917"/>
</g>
<!-- Node3 -->
<g id="node3" class="node"><title>Node3</title>
<g id="a_node3"><a xlink:href="class_om_1_1_default_program.html" target="_top" xlink:title="Om::DefaultProgram\l\&lt; Operand, Element \&gt;">
<polygon fill="none" stroke="black" points="1149.8,-47 1149.8,-75 1264.2,-75 1264.2,-47 1149.8,-47"/>
<text text-anchor="start" x="1157.8" y="-63" font-family="Helvetica,sans-Serif" font-size="10.00">Om::DefaultProgram</text>
<text text-anchor="middle" x="1207" y="-53" font-family="Helvetica,sans-Serif" font-size="10.00">&lt; Operand, Element &gt;</text>
</a>
</g>
</g>
<!-- Node3&#45;&gt;Node2 -->
<g id="edge2" class="edge"><title>Node3&#45;&gt;Node2</title>
<path fill="none" stroke="midnightblue" d="M1274.71,-59.8296C1290.54,-59.5519 1307.28,-59.2583 1322.59,-58.9896"/>
<polygon fill="midnightblue" stroke="midnightblue" points="1274.4,-56.3344 1264.47,-60.0094 1274.53,-63.3333 1274.4,-56.3344"/>
</g>
<!-- Node4 -->
<g id="node4" class="node"><title>Node4</title>
<g id="a_node4"><a xlink:href="class_om_1_1_default_consumer.html" target="_top" xlink:title="Om::DefaultConsumer\l\&lt; Operand, DefaultGiveable\l\&lt; Operand, Element \&gt; \&gt;">
<polygon fill="none" stroke="black" points="965.878,-65 965.878,-103 1106.12,-103 1106.12,-65 965.878,-65"/>
<text text-anchor="start" x="973.878" y="-91" font-family="Helvetica,sans-Serif" font-size="10.00">Om::DefaultConsumer</text>
<text text-anchor="start" x="973.878" y="-81" font-family="Helvetica,sans-Serif" font-size="10.00">&lt; Operand, DefaultGiveable</text>
<text text-anchor="middle" x="1036" y="-71" font-family="Helvetica,sans-Serif" font-size="10.00">&lt; Operand, Element &gt; &gt;</text>
</a>
</g>
</g>
<!-- Node4&#45;&gt;Node3 -->
<g id="edge3" class="edge"><title>Node4&#45;&gt;Node3</title>
<path fill="none" stroke="midnightblue" d="M1116.15,-73.2278C1127.51,-71.6822 1138.99,-70.1191 1149.79,-68.6506"/>
<polygon fill="midnightblue" stroke="midnightblue" points="1115.66,-69.762 1106.23,-74.5787 1116.61,-76.6981 1115.66,-69.762"/>
</g>
<!-- Node5 -->
<g id="node5" class="node"><title>Node5</title>
<g id="a_node5"><a xlink:href="class_om_1_1_default_giveable.html" target="_top" xlink:title="Om::DefaultGiveable\l\&lt; Operand, Element \&gt;">
<polygon fill="none" stroke="black" points="813.803,-70 813.803,-98 928.197,-98 928.197,-70 813.803,-70"/>
<text text-anchor="start" x="821.803" y="-86" font-family="Helvetica,sans-Serif" font-size="10.00">Om::DefaultGiveable</text>
<text text-anchor="middle" x="871" y="-76" font-family="Helvetica,sans-Serif" font-size="10.00">&lt; Operand, Element &gt;</text>
</a>
</g>
</g>
<!-- Node5&#45;&gt;Node4 -->
<g id="edge4" class="edge"><title>Node5&#45;&gt;Node4</title>
<path fill="none" stroke="midnightblue" d="M938.8,-84C947.645,-84 956.729,-84 965.617,-84"/>
<polygon fill="midnightblue" stroke="midnightblue" points="938.552,-80.5001 928.552,-84 938.552,-87.5001 938.552,-80.5001"/>
</g>
<!-- Node6 -->
<g id="node6" class="node"><title>Node6</title>
<g id="a_node6"><a xlink:href="class_om_1_1_default_moveable.html" target="_top" xlink:title="Om::DefaultMoveable\l\&lt; Operand, DefaultCopyable\l\&lt; Operand, Element \&gt; \&gt;">
<polygon fill="none" stroke="black" points="632.487,-65 632.487,-103 775.513,-103 775.513,-65 632.487,-65"/>
<text text-anchor="start" x="640.487" y="-91" font-family="Helvetica,sans-Serif" font-size="10.00">Om::DefaultMoveable</text>
<text text-anchor="start" x="640.487" y="-81" font-family="Helvetica,sans-Serif" font-size="10.00">&lt; Operand, DefaultCopyable</text>
<text text-anchor="middle" x="704" y="-71" font-family="Helvetica,sans-Serif" font-size="10.00">&lt; Operand, Element &gt; &gt;</text>
</a>
</g>
</g>
<!-- Node6&#45;&gt;Node5 -->
<g id="edge5" class="edge"><title>Node6&#45;&gt;Node5</title>
<path fill="none" stroke="midnightblue" d="M786.01,-84C795.328,-84 804.67,-84 813.563,-84"/>
<polygon fill="midnightblue" stroke="midnightblue" points="785.932,-80.5001 775.932,-84 785.932,-87.5001 785.932,-80.5001"/>
</g>
<!-- Node7 -->
<g id="node7" class="node"><title>Node7</title>
<g id="a_node7"><a xlink:href="class_om_1_1_default_copyable.html" target="_top" xlink:title="Om::DefaultCopyable\l\&lt; Operand, Element \&gt;">
<polygon fill="none" stroke="black" points="479.803,-70 479.803,-98 594.197,-98 594.197,-70 479.803,-70"/>
<text text-anchor="start" x="487.803" y="-86" font-family="Helvetica,sans-Serif" font-size="10.00">Om::DefaultCopyable</text>
<text text-anchor="middle" x="537" y="-76" font-family="Helvetica,sans-Serif" font-size="10.00">&lt; Operand, Element &gt;</text>
</a>
</g>
</g>
<!-- Node7&#45;&gt;Node6 -->
<g id="edge6" class="edge"><title>Node7&#45;&gt;Node6</title>
<path fill="none" stroke="midnightblue" d="M604.521,-84C613.68,-84 623.112,-84 632.342,-84"/>
<polygon fill="midnightblue" stroke="midnightblue" points="604.322,-80.5001 594.322,-84 604.322,-87.5001 604.322,-80.5001"/>
</g>
<!-- Node8 -->
<g id="node8" class="node"><title>Node8</title>
<g id="a_node8"><a xlink:href="class_om_1_1_element.html" target="_top" xlink:title="A Program that contains a single elemental item (or none, when IsEmpty() returns true). ">
<polygon fill="none" stroke="black" points="367.825,-75 367.825,-93 442.175,-93 442.175,-75 367.825,-75"/>
<text text-anchor="middle" x="405" y="-81" font-family="Helvetica,sans-Serif" font-size="10.00">Om::Element</text>
</a>
</g>
</g>
<!-- Node8&#45;&gt;Node7 -->
<g id="edge7" class="edge"><title>Node8&#45;&gt;Node7</title>
<path fill="none" stroke="midnightblue" d="M452.292,-84C461.113,-84 470.436,-84 479.533,-84"/>
<polygon fill="midnightblue" stroke="midnightblue" points="452.212,-80.5001 442.212,-84 452.212,-87.5001 452.212,-80.5001"/>
</g>
<!-- Node9 -->
<g id="node9" class="node"><title>Node9</title>
<g id="a_node9"><a xlink:href="class_om_1_1_program.html" target="_top" xlink:title="The Program implementation. ">
<polygon fill="none" stroke="black" points="253.995,-75 253.995,-93 330.005,-93 330.005,-75 253.995,-75"/>
<text text-anchor="middle" x="292" y="-81" font-family="Helvetica,sans-Serif" font-size="10.00">Om::Program</text>
</a>
</g>
</g>
<!-- Node9&#45;&gt;Node8 -->
<g id="edge8" class="edge"><title>Node9&#45;&gt;Node8</title>
<path fill="none" stroke="midnightblue" d="M340.426,-84C349.583,-84 359.04,-84 367.77,-84"/>
<polygon fill="midnightblue" stroke="midnightblue" points="340.27,-80.5001 330.27,-84 340.27,-87.5001 340.27,-80.5001"/>
</g>
<!-- Node10 -->
<g id="node10" class="node"><title>Node10</title>
<g id="a_node10"><a xlink:href="class_om_1_1_consumer.html" target="_top" xlink:title="An Element taker; takes at the back. ">
<polygon fill="none" stroke="black" points="126.104,-131 126.104,-149 209.896,-149 209.896,-131 126.104,-131"/>
<text text-anchor="middle" x="168" y="-137" font-family="Helvetica,sans-Serif" font-size="10.00">Om::Consumer</text>
</a>
</g>
</g>
<!-- Node10&#45;&gt;Node9 -->
<g id="edge9" class="edge"><title>Node10&#45;&gt;Node9</title>
<path fill="none" stroke="midnightblue" d="M202.048,-127C206.755,-125.044 211.517,-123.009 216,-121 236.007,-112.036 258.506,-100.774 273.596,-93.0431"/>
<polygon fill="midnightblue" stroke="midnightblue" points="200.509,-123.848 192.573,-130.868 203.154,-130.329 200.509,-123.848"/>
</g>
<!-- Node11 -->
<g id="node11" class="node"><title>Node11</title>
<g id="a_node11"><a xlink:href="class_om_1_1_giveable.html" target="_top" xlink:title="An object that can be copied or moved via Give. ">
<polygon fill="none" stroke="black" points="129.434,-94 129.434,-112 206.566,-112 206.566,-94 129.434,-94"/>
<text text-anchor="middle" x="168" y="-100" font-family="Helvetica,sans-Serif" font-size="10.00">Om::Giveable</text>
</a>
</g>
</g>
<!-- Node11&#45;&gt;Node9 -->
<g id="edge10" class="edge"><title>Node11&#45;&gt;Node9</title>
<path fill="none" stroke="midnightblue" d="M216.704,-95.5707C229.001,-93.6556 242.055,-91.6226 253.734,-89.8037"/>
<polygon fill="midnightblue" stroke="midnightblue" points="215.942,-92.1471 206.6,-97.1443 217.019,-99.0637 215.942,-92.1471"/>
</g>
<!-- Node12 -->
<g id="node12" class="node"><title>Node12</title>
<g id="a_node12"><a xlink:href="class_om_1_1_copyable.html" target="_top" xlink:title="An object that can be passed to Copy to be copied. ">
<polygon fill="none" stroke="black" points="1.04199,-112 1.04199,-130 80.958,-130 80.958,-112 1.04199,-112"/>
<text text-anchor="middle" x="41" y="-118" font-family="Helvetica,sans-Serif" font-size="10.00">Om::Copyable</text>
</a>
</g>
</g>
<!-- Node12&#45;&gt;Node11 -->
<g id="edge11" class="edge"><title>Node12&#45;&gt;Node11</title>
<path fill="none" stroke="midnightblue" d="M91.1525,-113.922C103.81,-112.099 117.234,-110.166 129.214,-108.441"/>
<polygon fill="midnightblue" stroke="midnightblue" points="90.6068,-110.464 81.2078,-115.354 91.6046,-117.393 90.6068,-110.464"/>
</g>
<!-- Node13 -->
<g id="node13" class="node"><title>Node13</title>
<g id="a_node13"><a xlink:href="class_om_1_1_moveable.html" target="_top" xlink:title="An object that can be passed to Move to be moved. ">
<polygon fill="none" stroke="black" points="0.487793,-75 0.487793,-93 81.5122,-93 81.5122,-75 0.487793,-75"/>
<text text-anchor="middle" x="41" y="-81" font-family="Helvetica,sans-Serif" font-size="10.00">Om::Moveable</text>
</a>
</g>
</g>
<!-- Node13&#45;&gt;Node11 -->
<g id="edge12" class="edge"><title>Node13&#45;&gt;Node11</title>
<path fill="none" stroke="midnightblue" d="M91.4797,-91.5209C104.111,-93.4409 117.485,-95.4737 129.411,-97.2865"/>
<polygon fill="midnightblue" stroke="midnightblue" points="91.9632,-88.0543 81.5508,-90.0117 90.9112,-94.9748 91.9632,-88.0543"/>
</g>
<!-- Node14 -->
<g id="node14" class="node"><title>Node14</title>
<g id="a_node14"><a xlink:href="class_om_1_1_producer.html" target="_top" xlink:title="An Element giver; gives from the front. ">
<polygon fill="none" stroke="black" points="128.879,-57 128.879,-75 207.121,-75 207.121,-57 128.879,-57"/>
<text text-anchor="middle" x="168" y="-63" font-family="Helvetica,sans-Serif" font-size="10.00">Om::Producer</text>
</a>
</g>
</g>
<!-- Node14&#45;&gt;Node9 -->
<g id="edge13" class="edge"><title>Node14&#45;&gt;Node9</title>
<path fill="none" stroke="midnightblue" d="M217.244,-73.118C229.372,-74.9073 242.204,-76.8006 253.705,-78.4974"/>
<polygon fill="midnightblue" stroke="midnightblue" points="217.671,-69.6431 207.267,-71.6459 216.649,-76.5681 217.671,-69.6431"/>
</g>
<!-- Node15 -->
<g id="node15" class="node"><title>Node15</title>
<g id="a_node15"><a xlink:href="class_om_1_1_shareable.html" target="_top" xlink:title="Om::Shareable\&lt;\&gt;">
<polygon fill="none" stroke="black" points="120.532,-20 120.532,-38 215.468,-38 215.468,-20 120.532,-20"/>
<text text-anchor="middle" x="168" y="-26" font-family="Helvetica,sans-Serif" font-size="10.00">Om::Shareable&lt;&gt;</text>
</a>
</g>
</g>
<!-- Node15&#45;&gt;Node9 -->
<g id="edge14" class="edge"><title>Node15&#45;&gt;Node9</title>
<path fill="none" stroke="midnightblue" d="M203.672,-41.8603C207.849,-43.5327 212.037,-45.2679 216,-47 236.089,-55.7797 258.573,-67.075 273.637,-74.8637"/>
<polygon fill="midnightblue" stroke="midnightblue" points="204.642,-38.4819 194.054,-38.1031 202.095,-45.002 204.642,-38.4819"/>
</g>
<!-- Node16 -->
<g id="node16" class="node"><title>Node16</title>
<g id="a_node16"><a xlink:href="class_om_1_1_taker.html" target="_top" xlink:title="Om::Taker\&lt; Operand \&gt;">
<polygon fill="none" stroke="black" points="976.865,-28 976.865,-46 1095.14,-46 1095.14,-28 976.865,-28"/>
<text text-anchor="middle" x="1036" y="-34" font-family="Helvetica,sans-Serif" font-size="10.00">Om::Taker&lt; Operand &gt;</text>
</a>
</g>
</g>
<!-- Node16&#45;&gt;Node3 -->
<g id="edge15" class="edge"><title>Node16&#45;&gt;Node3</title>
<path fill="none" stroke="midnightblue" d="M1105.25,-46.6927C1120.02,-48.7903 1135.48,-50.9856 1149.73,-53.0091"/>
<polygon fill="midnightblue" stroke="midnightblue" points="1105.55,-43.2003 1095.16,-45.2594 1104.57,-50.1308 1105.55,-43.2003"/>
</g>
<!-- Node17 -->
<g id="node17" class="node"><title>Node17</title>
<g id="a_node17"><a xlink:href="class_om_1_1_owner.html" target="_top" xlink:title="Om::Owner\&lt; Om::Program \&gt;">
<polygon fill="none" stroke="black" points="1307.82,-6 1307.82,-24 1452.18,-24 1452.18,-6 1307.82,-6"/>
<text text-anchor="middle" x="1380" y="-12" font-family="Helvetica,sans-Serif" font-size="10.00">Om::Owner&lt; Om::Program &gt;</text>
</a>
</g>
</g>
<!-- Node17&#45;&gt;Node1 -->
<g id="edge16" class="edge"><title>Node17&#45;&gt;Node1</title>
<path fill="none" stroke="#9a32cd" stroke-dasharray="5,2" d="M1462.47,-22.7239C1483.81,-24.9086 1506.79,-27.4036 1528,-30 1534.04,-30.7398 1540.44,-31.5904 1546.68,-32.4549"/>
<polygon fill="#9a32cd" stroke="#9a32cd" points="1462.77,-19.2363 1452.47,-21.7101 1462.06,-26.2006 1462.77,-19.2363"/>
<text text-anchor="middle" x="1499" y="-32" font-family="Helvetica,sans-Serif" font-size="10.00"> thisProgram</text>
</g>
<!-- Node18 -->
<g id="node18" class="node"><title>Node18</title>
<g id="a_node18"><a xlink:href="class_om_1_1_taker.html" target="_top" xlink:title="Om::Taker\&lt; Owner\&lt; Om\l::Program \&gt; \&gt;">
<polygon fill="none" stroke="black" points="1144.54,-0 1144.54,-28 1269.46,-28 1269.46,-0 1144.54,-0"/>
<text text-anchor="start" x="1152.54" y="-16" font-family="Helvetica,sans-Serif" font-size="10.00">Om::Taker&lt; Owner&lt; Om</text>
<text text-anchor="middle" x="1207" y="-6" font-family="Helvetica,sans-Serif" font-size="10.00">::Program &gt; &gt;</text>
</a>
</g>
</g>
<!-- Node18&#45;&gt;Node17 -->
<g id="edge17" class="edge"><title>Node18&#45;&gt;Node17</title>
<path fill="none" stroke="midnightblue" d="M1280,-14.421C1289.19,-14.4748 1298.59,-14.5298 1307.77,-14.5834"/>
<polygon fill="midnightblue" stroke="midnightblue" points="1279.76,-10.9197 1269.73,-14.361 1279.71,-17.9195 1279.76,-10.9197"/>
</g>
</g>
</svg>
