<?xml version="1.0" encoding="UTF-8" standalone="no"?>
<!DOCTYPE svg PUBLIC "-//W3C//DTD SVG 1.1//EN"
 "http://www.w3.org/Graphics/SVG/1.1/DTD/svg11.dtd">
<!-- Generated by graphviz version 2.36.0 (20140111.2315)
 -->
<!-- Title: Om::Operation::FillOperation Pages: 1 -->
<svg width="809pt" height="1172pt"
 viewBox="0.00 0.00 809.00 1172.00" xmlns="http://www.w3.org/2000/svg" xmlns:xlink="http://www.w3.org/1999/xlink">
<g id="graph0" class="graph" transform="scale(1 1) rotate(0) translate(4 1168)">
<title>Om::Operation::FillOperation</title>
<!-- Node1 -->
<g id="node1" class="node"><title>Node1</title>
<polygon fill="#bfbfbf" stroke="black" points="97.0864,-1 97.0864,-19 240.914,-19 240.914,-1 97.0864,-1"/>
<text text-anchor="middle" x="169" y="-7" font-family="Helvetica,sans-Serif" font-size="10.00">Om::Operation::FillOperation</text>
</g>
<!-- Node2 -->
<g id="node2" class="node"><title>Node2</title>
<g id="a_node2"><a xlink:href="class_om_1_1_operation_1_1_default_incomplete_operation.html" target="_top" xlink:title="Om::Operation::DefaultIncomplete\lOperation\&lt; FillOperation \&gt;">
<polygon fill="none" stroke="black" points="-0.869141,-67 -0.869141,-95 166.869,-95 166.869,-67 -0.869141,-67"/>
<text text-anchor="start" x="7.13086" y="-83" font-family="Helvetica,sans-Serif" font-size="10.00">Om::Operation::DefaultIncomplete</text>
<text text-anchor="middle" x="83" y="-73" font-family="Helvetica,sans-Serif" font-size="10.00">Operation&lt; FillOperation &gt;</text>
</a>
</g>
</g>
<!-- Node2&#45;&gt;Node1 -->
<g id="edge1" class="edge"><title>Node2&#45;&gt;Node1</title>
<path fill="none" stroke="midnightblue" d="M107.503,-60.3406C124.549,-46.6643 146.386,-29.1439 158.924,-19.0841"/>
<polygon fill="midnightblue" stroke="midnightblue" points="105.191,-57.7081 99.5817,-66.6961 109.572,-63.168 105.191,-57.7081"/>
</g>
<!-- Node3 -->
<g id="node3" class="node"><title>Node3</title>
<g id="a_node3"><a xlink:href="class_om_1_1_operation_1_1_incomplete_operation.html" target="_top" xlink:title="An Operation that has yet to consume one or more Operands and must live in memory until complete...">
<polygon fill="none" stroke="black" points="14.9731,-143 14.9731,-171 151.027,-171 151.027,-143 14.9731,-143"/>
<text text-anchor="start" x="22.9731" y="-159" font-family="Helvetica,sans-Serif" font-size="10.00">Om::Operation::Incomplete</text>
<text text-anchor="middle" x="83" y="-149" font-family="Helvetica,sans-Serif" font-size="10.00">Operation</text>
</a>
</g>
</g>
<!-- Node3&#45;&gt;Node2 -->
<g id="edge2" class="edge"><title>Node3&#45;&gt;Node2</title>
<path fill="none" stroke="midnightblue" d="M83,-132.663C83,-120.271 83,-105.501 83,-95.1152"/>
<polygon fill="midnightblue" stroke="midnightblue" points="79.5001,-132.77 83,-142.77 86.5001,-132.77 79.5001,-132.77"/>
</g>
<!-- Node4 -->
<g id="node4" class="node"><title>Node4</title>
<g id="a_node4"><a xlink:href="class_om_1_1_expression.html" target="_top" xlink:title="The Expression Program implementation. ">
<polygon fill="none" stroke="black" points="184.434,-72 184.434,-90 271.566,-90 271.566,-72 184.434,-72"/>
<text text-anchor="middle" x="228" y="-78" font-family="Helvetica,sans-Serif" font-size="10.00">Om::Expression</text>
</a>
</g>
</g>
<!-- Node4&#45;&gt;Node1 -->
<g id="edge3" class="edge"><title>Node4&#45;&gt;Node1</title>
<path fill="none" stroke="#9a32cd" stroke-dasharray="5,2" d="M214.286,-63.9617C202.301,-49.9457 185.389,-30.1671 175.991,-19.1755"/>
<polygon fill="#9a32cd" stroke="#9a32cd" points="211.841,-66.4881 221,-71.8138 217.161,-61.9389 211.841,-66.4881"/>
<text text-anchor="middle" x="234.904" y="-40" font-family="Helvetica,sans-Serif" font-size="10.00"> thisExpression</text>
</g>
<!-- Node5 -->
<g id="node5" class="node"><title>Node5</title>
<g id="a_node5"><a xlink:href="class_om_1_1_default_program.html" target="_top" xlink:title="Om::DefaultProgram\l\&lt; Expression, Program \&gt;">
<polygon fill="none" stroke="black" points="143.697,-654 143.697,-682 270.303,-682 270.303,-654 143.697,-654"/>
<text text-anchor="start" x="151.697" y="-670" font-family="Helvetica,sans-Serif" font-size="10.00">Om::DefaultProgram</text>
<text text-anchor="middle" x="207" y="-660" font-family="Helvetica,sans-Serif" font-size="10.00">&lt; Expression, Program &gt;</text>
</a>
</g>
</g>
<!-- Node5&#45;&gt;Node4 -->
<g id="edge4" class="edge"><title>Node5&#45;&gt;Node4</title>
<path fill="none" stroke="midnightblue" d="M207,-643.405C207,-628.4 207,-608.559 207,-591 207,-591 207,-591 207,-156 207,-131.161 218.086,-103.352 224.148,-90.0012"/>
<polygon fill="midnightblue" stroke="midnightblue" points="203.5,-643.819 207,-653.819 210.5,-643.819 203.5,-643.819"/>
</g>
<!-- Node6 -->
<g id="node6" class="node"><title>Node6</title>
<g id="a_node6"><a xlink:href="class_om_1_1_default_consumer.html" target="_top" xlink:title="Om::DefaultConsumer\l\&lt; Expression, DefaultGiveable\l\&lt; Expression, Program \&gt; \&gt;">
<polygon fill="none" stroke="black" points="60.6025,-727 60.6025,-765 211.397,-765 211.397,-727 60.6025,-727"/>
<text text-anchor="start" x="68.6025" y="-753" font-family="Helvetica,sans-Serif" font-size="10.00">Om::DefaultConsumer</text>
<text text-anchor="start" x="68.6025" y="-743" font-family="Helvetica,sans-Serif" font-size="10.00">&lt; Expression, DefaultGiveable</text>
<text text-anchor="middle" x="136" y="-733" font-family="Helvetica,sans-Serif" font-size="10.00">&lt; Expression, Program &gt; &gt;</text>
</a>
</g>
</g>
<!-- Node6&#45;&gt;Node5 -->
<g id="edge5" class="edge"><title>Node6&#45;&gt;Node5</title>
<path fill="none" stroke="midnightblue" d="M159.772,-719.554C171.404,-707.103 184.928,-692.626 194.516,-682.363"/>
<polygon fill="midnightblue" stroke="midnightblue" points="157.095,-717.292 152.826,-726.989 162.21,-722.071 157.095,-717.292"/>
</g>
<!-- Node7 -->
<g id="node7" class="node"><title>Node7</title>
<g id="a_node7"><a xlink:href="class_om_1_1_default_giveable.html" target="_top" xlink:title="Om::DefaultGiveable\l\&lt; Expression, Program \&gt;">
<polygon fill="none" stroke="black" points="203.697,-810 203.697,-838 330.303,-838 330.303,-810 203.697,-810"/>
<text text-anchor="start" x="211.697" y="-826" font-family="Helvetica,sans-Serif" font-size="10.00">Om::DefaultGiveable</text>
<text text-anchor="middle" x="267" y="-816" font-family="Helvetica,sans-Serif" font-size="10.00">&lt; Expression, Program &gt;</text>
</a>
</g>
</g>
<!-- Node7&#45;&gt;Node6 -->
<g id="edge6" class="edge"><title>Node7&#45;&gt;Node6</title>
<path fill="none" stroke="midnightblue" d="M235.717,-804.851C214.938,-792.796 187.772,-777.036 167.043,-765.009"/>
<polygon fill="midnightblue" stroke="midnightblue" points="234.074,-807.944 244.48,-809.935 237.587,-801.89 234.074,-807.944"/>
</g>
<!-- Node8 -->
<g id="node8" class="node"><title>Node8</title>
<g id="a_node8"><a xlink:href="class_om_1_1_default_moveable.html" target="_top" xlink:title="Om::DefaultMoveable\l\&lt; Expression, DefaultCopyable\l\&lt; Expression, Program \&gt; \&gt;">
<polygon fill="none" stroke="black" points="232.211,-883 232.211,-921 385.789,-921 385.789,-883 232.211,-883"/>
<text text-anchor="start" x="240.211" y="-909" font-family="Helvetica,sans-Serif" font-size="10.00">Om::DefaultMoveable</text>
<text text-anchor="start" x="240.211" y="-899" font-family="Helvetica,sans-Serif" font-size="10.00">&lt; Expression, DefaultCopyable</text>
<text text-anchor="middle" x="309" y="-889" font-family="Helvetica,sans-Serif" font-size="10.00">&lt; Expression, Program &gt; &gt;</text>
</a>
</g>
</g>
<!-- Node8&#45;&gt;Node7 -->
<g id="edge7" class="edge"><title>Node8&#45;&gt;Node7</title>
<path fill="none" stroke="midnightblue" d="M294.154,-874.136C287.456,-862.016 279.843,-848.239 274.385,-838.363"/>
<polygon fill="midnightblue" stroke="midnightblue" points="291.146,-875.93 299.047,-882.989 297.273,-872.544 291.146,-875.93"/>
</g>
<!-- Node9 -->
<g id="node9" class="node"><title>Node9</title>
<g id="a_node9"><a xlink:href="class_om_1_1_default_copyable.html" target="_top" xlink:title="Om::DefaultCopyable\l\&lt; Expression, Program \&gt;">
<polygon fill="none" stroke="black" points="261.697,-961 261.697,-989 388.303,-989 388.303,-961 261.697,-961"/>
<text text-anchor="start" x="269.697" y="-977" font-family="Helvetica,sans-Serif" font-size="10.00">Om::DefaultCopyable</text>
<text text-anchor="middle" x="325" y="-967" font-family="Helvetica,sans-Serif" font-size="10.00">&lt; Expression, Program &gt;</text>
</a>
</g>
</g>
<!-- Node9&#45;&gt;Node8 -->
<g id="edge8" class="edge"><title>Node9&#45;&gt;Node8</title>
<path fill="none" stroke="midnightblue" d="M319.848,-951.137C317.65,-941.385 315.123,-930.17 313.061,-921.02"/>
<polygon fill="midnightblue" stroke="midnightblue" points="316.453,-951.992 322.065,-960.978 323.281,-950.453 316.453,-951.992"/>
</g>
<!-- Node10 -->
<g id="node10" class="node"><title>Node10</title>
<g id="a_node10"><a xlink:href="class_om_1_1_program.html" target="_top" xlink:title="The Program implementation. ">
<polygon fill="none" stroke="black" points="359.995,-1029 359.995,-1047 436.005,-1047 436.005,-1029 359.995,-1029"/>
<text text-anchor="middle" x="398" y="-1035" font-family="Helvetica,sans-Serif" font-size="10.00">Om::Program</text>
</a>
</g>
</g>
<!-- Node10&#45;&gt;Node9 -->
<g id="edge9" class="edge"><title>Node10&#45;&gt;Node9</title>
<path fill="none" stroke="midnightblue" d="M380.162,-1022.09C368.133,-1012.04 352.406,-998.901 340.823,-989.222"/>
<polygon fill="midnightblue" stroke="midnightblue" points="378.237,-1025.05 388.155,-1028.77 382.726,-1019.68 378.237,-1025.05"/>
</g>
<!-- Node29 -->
<g id="node29" class="node"><title>Node29</title>
<g id="a_node29"><a xlink:href="class_om_1_1_element.html" target="_top" xlink:title="A Program that contains a single elemental item (or none, when IsEmpty() returns true). ">
<polygon fill="none" stroke="black" points="410.825,-966 410.825,-984 485.175,-984 485.175,-966 410.825,-966"/>
<text text-anchor="middle" x="448" y="-972" font-family="Helvetica,sans-Serif" font-size="10.00">Om::Element</text>
</a>
</g>
</g>
<!-- Node10&#45;&gt;Node29 -->
<g id="edge29" class="edge"><title>Node10&#45;&gt;Node29</title>
<path fill="none" stroke="midnightblue" d="M411.151,-1020.96C420.867,-1009.1 433.689,-993.459 441.364,-984.096"/>
<polygon fill="midnightblue" stroke="midnightblue" points="408.376,-1018.82 404.743,-1028.77 413.789,-1023.26 408.376,-1018.82"/>
</g>
<!-- Node11 -->
<g id="node11" class="node"><title>Node11</title>
<g id="a_node11"><a xlink:href="class_om_1_1_consumer.html" target="_top" xlink:title="An Element taker; takes at the back. ">
<polygon fill="none" stroke="black" points="193.104,-1087 193.104,-1105 276.896,-1105 276.896,-1087 193.104,-1087"/>
<text text-anchor="middle" x="235" y="-1093" font-family="Helvetica,sans-Serif" font-size="10.00">Om::Consumer</text>
</a>
</g>
</g>
<!-- Node11&#45;&gt;Node10 -->
<g id="edge10" class="edge"><title>Node11&#45;&gt;Node10</title>
<path fill="none" stroke="midnightblue" d="M268.058,-1083.64C299.739,-1072.76 346.749,-1056.61 374.689,-1047.01"/>
<polygon fill="midnightblue" stroke="midnightblue" points="266.674,-1080.42 258.354,-1086.98 268.949,-1087.04 266.674,-1080.42"/>
</g>
<!-- Node12 -->
<g id="node12" class="node"><title>Node12</title>
<g id="a_node12"><a xlink:href="class_om_1_1_giveable.html" target="_top" xlink:title="An object that can be copied or moved via Give. ">
<polygon fill="none" stroke="black" points="294.434,-1087 294.434,-1105 371.566,-1105 371.566,-1087 294.434,-1087"/>
<text text-anchor="middle" x="333" y="-1093" font-family="Helvetica,sans-Serif" font-size="10.00">Om::Giveable</text>
</a>
</g>
</g>
<!-- Node12&#45;&gt;Node10 -->
<g id="edge11" class="edge"><title>Node12&#45;&gt;Node10</title>
<path fill="none" stroke="midnightblue" d="M350.124,-1080.25C362.474,-1069.61 378.672,-1055.65 388.704,-1047.01"/>
<polygon fill="midnightblue" stroke="midnightblue" points="347.605,-1077.8 342.313,-1086.98 352.174,-1083.1 347.605,-1077.8"/>
</g>
<!-- Node13 -->
<g id="node13" class="node"><title>Node13</title>
<g id="a_node13"><a xlink:href="class_om_1_1_copyable.html" target="_top" xlink:title="An object that can be passed to Copy to be copied. ">
<polygon fill="none" stroke="black" points="244.042,-1145 244.042,-1163 323.958,-1163 323.958,-1145 244.042,-1145"/>
<text text-anchor="middle" x="284" y="-1151" font-family="Helvetica,sans-Serif" font-size="10.00">Om::Copyable</text>
</a>
</g>
</g>
<!-- Node13&#45;&gt;Node12 -->
<g id="edge12" class="edge"><title>Node13&#45;&gt;Node12</title>
<path fill="none" stroke="midnightblue" d="M297.862,-1137.16C306.933,-1126.79 318.419,-1113.66 325.74,-1105.3"/>
<polygon fill="midnightblue" stroke="midnightblue" points="295.181,-1134.91 291.23,-1144.74 300.449,-1139.52 295.181,-1134.91"/>
</g>
<!-- Node14 -->
<g id="node14" class="node"><title>Node14</title>
<g id="a_node14"><a xlink:href="class_om_1_1_moveable.html" target="_top" xlink:title="An object that can be passed to Move to be moved. ">
<polygon fill="none" stroke="black" points="341.488,-1145 341.488,-1163 422.512,-1163 422.512,-1145 341.488,-1145"/>
<text text-anchor="middle" x="382" y="-1151" font-family="Helvetica,sans-Serif" font-size="10.00">Om::Moveable</text>
</a>
</g>
</g>
<!-- Node14&#45;&gt;Node12 -->
<g id="edge13" class="edge"><title>Node14&#45;&gt;Node12</title>
<path fill="none" stroke="midnightblue" d="M368.138,-1137.16C359.067,-1126.79 347.581,-1113.66 340.26,-1105.3"/>
<polygon fill="midnightblue" stroke="midnightblue" points="365.551,-1139.52 374.77,-1144.74 370.819,-1134.91 365.551,-1139.52"/>
</g>
<!-- Node15 -->
<g id="node15" class="node"><title>Node15</title>
<g id="a_node15"><a xlink:href="class_om_1_1_producer.html" target="_top" xlink:title="An Element giver; gives from the front. ">
<polygon fill="none" stroke="black" points="389.879,-1087 389.879,-1105 468.121,-1105 468.121,-1087 389.879,-1087"/>
<text text-anchor="middle" x="429" y="-1093" font-family="Helvetica,sans-Serif" font-size="10.00">Om::Producer</text>
</a>
</g>
</g>
<!-- Node15&#45;&gt;Node10 -->
<g id="edge14" class="edge"><title>Node15&#45;&gt;Node10</title>
<path fill="none" stroke="midnightblue" d="M419.542,-1077.91C413.92,-1067.76 407.041,-1055.33 402.593,-1047.3"/>
<polygon fill="midnightblue" stroke="midnightblue" points="416.521,-1079.68 424.426,-1086.74 422.645,-1076.29 416.521,-1079.68"/>
</g>
<!-- Node16 -->
<g id="node16" class="node"><title>Node16</title>
<g id="a_node16"><a xlink:href="class_om_1_1_shareable.html" target="_top" xlink:title="Om::Shareable\&lt;\&gt;">
<polygon fill="none" stroke="black" points="486.532,-1087 486.532,-1105 581.468,-1105 581.468,-1087 486.532,-1087"/>
<text text-anchor="middle" x="534" y="-1093" font-family="Helvetica,sans-Serif" font-size="10.00">Om::Shareable&lt;&gt;</text>
</a>
</g>
</g>
<!-- Node16&#45;&gt;Node10 -->
<g id="edge15" class="edge"><title>Node16&#45;&gt;Node10</title>
<path fill="none" stroke="midnightblue" d="M505.034,-1083.07C478.631,-1072.2 440.358,-1056.44 417.449,-1047.01"/>
<polygon fill="midnightblue" stroke="midnightblue" points="503.935,-1086.41 514.515,-1086.98 506.6,-1079.93 503.935,-1086.41"/>
</g>
<!-- Node17 -->
<g id="node17" class="node"><title>Node17</title>
<g id="a_node17"><a xlink:href="class_om_1_1_taker.html" target="_top" xlink:title="Om::Taker\&lt; Expression \&gt;">
<polygon fill="none" stroke="black" points="229.589,-737 229.589,-755 358.411,-755 358.411,-737 229.589,-737"/>
<text text-anchor="middle" x="294" y="-743" font-family="Helvetica,sans-Serif" font-size="10.00">Om::Taker&lt; Expression &gt;</text>
</a>
</g>
</g>
<!-- Node17&#45;&gt;Node5 -->
<g id="edge16" class="edge"><title>Node17&#45;&gt;Node5</title>
<path fill="none" stroke="midnightblue" d="M277.132,-730.265C261.158,-716.31 237.395,-695.552 222.049,-682.146"/>
<polygon fill="midnightblue" stroke="midnightblue" points="274.856,-732.924 284.689,-736.867 279.461,-727.652 274.856,-732.924"/>
</g>
<!-- Node18 -->
<g id="node18" class="node"><title>Node18</title>
<polygon fill="none" stroke="#bfbfbf" points="243.365,-148 243.365,-166 346.635,-166 346.635,-148 243.365,-148"/>
<text text-anchor="middle" x="295" y="-154" font-family="Helvetica,sans-Serif" font-size="10.00">std::deque&lt; Form &gt;</text>
</g>
<!-- Node18&#45;&gt;Node4 -->
<g id="edge17" class="edge"><title>Node18&#45;&gt;Node4</title>
<path fill="none" stroke="#9a32cd" stroke-dasharray="5,2" d="M280.613,-140.11C266.667,-124.706 246.078,-101.967 235.256,-90.0138"/>
<polygon fill="#9a32cd" stroke="#9a32cd" points="278.267,-142.734 287.574,-147.798 283.457,-138.036 278.267,-142.734"/>
<text text-anchor="middle" x="300.569" y="-116" font-family="Helvetica,sans-Serif" font-size="10.00"> thisFormDeque</text>
</g>
<!-- Node19 -->
<g id="node19" class="node"><title>Node19</title>
<g id="a_node19"><a xlink:href="class_om_1_1_form.html" target="_top" xlink:title="An Operator (which may be empty), followed by zero or more Operand instances. ">
<polygon fill="none" stroke="black" points="289.502,-219 289.502,-237 350.498,-237 350.498,-219 289.502,-219"/>
<text text-anchor="middle" x="320" y="-225" font-family="Helvetica,sans-Serif" font-size="10.00">Om::Form</text>
</a>
</g>
</g>
<!-- Node19&#45;&gt;Node18 -->
<g id="edge18" class="edge"><title>Node19&#45;&gt;Node18</title>
<path fill="none" stroke="#9a32cd" stroke-dasharray="5,2" d="M313.605,-209.351C308.574,-195.465 301.794,-176.752 297.962,-166.176"/>
<polygon fill="#9a32cd" stroke="#9a32cd" points="310.337,-210.604 317.034,-218.814 316.918,-208.22 310.337,-210.604"/>
<text text-anchor="middle" x="330.677" y="-192" font-family="Helvetica,sans-Serif" font-size="10.00"> elements</text>
</g>
<!-- Node20 -->
<g id="node20" class="node"><title>Node20</title>
<g id="a_node20"><a xlink:href="class_om_1_1_operator.html" target="_top" xlink:title="The Operator implementation. ">
<polygon fill="none" stroke="black" points="281.436,-285 281.436,-303 358.564,-303 358.564,-285 281.436,-285"/>
<text text-anchor="middle" x="320" y="-291" font-family="Helvetica,sans-Serif" font-size="10.00">Om::Operator</text>
</a>
</g>
</g>
<!-- Node20&#45;&gt;Node19 -->
<g id="edge19" class="edge"><title>Node20&#45;&gt;Node19</title>
<path fill="none" stroke="#9a32cd" stroke-dasharray="5,2" d="M320,-274.777C320,-262.421 320,-246.677 320,-237.242"/>
<polygon fill="#9a32cd" stroke="#9a32cd" points="316.5,-274.894 320,-284.894 323.5,-274.894 316.5,-274.894"/>
<text text-anchor="middle" x="348.901" y="-258" font-family="Helvetica,sans-Serif" font-size="10.00"> thisOperator</text>
</g>
<!-- Node21 -->
<g id="node21" class="node"><title>Node21</title>
<g id="a_node21"><a xlink:href="class_om_1_1_default_atom.html" target="_top" xlink:title="Om::DefaultAtom\&lt; Operator \&gt;">
<polygon fill="none" stroke="black" points="245.306,-361 245.306,-379 394.694,-379 394.694,-361 245.306,-361"/>
<text text-anchor="middle" x="320" y="-367" font-family="Helvetica,sans-Serif" font-size="10.00">Om::DefaultAtom&lt; Operator &gt;</text>
</a>
</g>
</g>
<!-- Node21&#45;&gt;Node20 -->
<g id="edge20" class="edge"><title>Node21&#45;&gt;Node20</title>
<path fill="none" stroke="midnightblue" d="M320,-350.478C320,-335.213 320,-314.303 320,-303.014"/>
<polygon fill="midnightblue" stroke="midnightblue" points="316.5,-350.798 320,-360.798 323.5,-350.798 316.5,-350.798"/>
</g>
<!-- Node22 -->
<g id="node22" class="node"><title>Node22</title>
<g id="a_node22"><a xlink:href="class_om_1_1_default_element.html" target="_top" xlink:title="Om::DefaultElement\l\&lt; Operator, Atom \&gt;">
<polygon fill="none" stroke="black" points="264.983,-427 264.983,-455 371.017,-455 371.017,-427 264.983,-427"/>
<text text-anchor="start" x="272.983" y="-443" font-family="Helvetica,sans-Serif" font-size="10.00">Om::DefaultElement</text>
<text text-anchor="middle" x="318" y="-433" font-family="Helvetica,sans-Serif" font-size="10.00">&lt; Operator, Atom &gt;</text>
</a>
</g>
</g>
<!-- Node22&#45;&gt;Node21 -->
<g id="edge21" class="edge"><title>Node22&#45;&gt;Node21</title>
<path fill="none" stroke="midnightblue" d="M318.68,-416.524C319.057,-403.54 319.501,-388.229 319.766,-379.084"/>
<polygon fill="midnightblue" stroke="midnightblue" points="315.177,-416.599 318.386,-426.696 322.174,-416.802 315.177,-416.599"/>
</g>
<!-- Node23 -->
<g id="node23" class="node"><title>Node23</title>
<g id="a_node23"><a xlink:href="class_om_1_1_default_program.html" target="_top" xlink:title="Om::DefaultProgram\l\&lt; Operator, Atom \&gt;">
<polygon fill="none" stroke="black" points="263.153,-503 263.153,-531 370.847,-531 370.847,-503 263.153,-503"/>
<text text-anchor="start" x="271.153" y="-519" font-family="Helvetica,sans-Serif" font-size="10.00">Om::DefaultProgram</text>
<text text-anchor="middle" x="317" y="-509" font-family="Helvetica,sans-Serif" font-size="10.00">&lt; Operator, Atom &gt;</text>
</a>
</g>
</g>
<!-- Node23&#45;&gt;Node22 -->
<g id="edge22" class="edge"><title>Node23&#45;&gt;Node22</title>
<path fill="none" stroke="midnightblue" d="M317.315,-492.663C317.483,-480.271 317.682,-465.501 317.823,-455.115"/>
<polygon fill="midnightblue" stroke="midnightblue" points="313.814,-492.724 317.179,-502.77 320.814,-492.819 313.814,-492.724"/>
</g>
<!-- Node24 -->
<g id="node24" class="node"><title>Node24</title>
<g id="a_node24"><a xlink:href="class_om_1_1_default_consumer.html" target="_top" xlink:title="Om::DefaultConsumer\l\&lt; Operator, DefaultGiveable\l\&lt; Operator, Atom \&gt; \&gt;">
<polygon fill="none" stroke="black" points="234.878,-571 234.878,-609 375.122,-609 375.122,-571 234.878,-571"/>
<text text-anchor="start" x="242.878" y="-597" font-family="Helvetica,sans-Serif" font-size="10.00">Om::DefaultConsumer</text>
<text text-anchor="start" x="242.878" y="-587" font-family="Helvetica,sans-Serif" font-size="10.00">&lt; Operator, DefaultGiveable</text>
<text text-anchor="middle" x="305" y="-577" font-family="Helvetica,sans-Serif" font-size="10.00">&lt; Operator, Atom &gt; &gt;</text>
</a>
</g>
</g>
<!-- Node24&#45;&gt;Node23 -->
<g id="edge23" class="edge"><title>Node24&#45;&gt;Node23</title>
<path fill="none" stroke="midnightblue" d="M309.8,-560.599C311.512,-550.473 313.359,-539.543 314.754,-531.289"/>
<polygon fill="midnightblue" stroke="midnightblue" points="306.306,-560.272 308.09,-570.716 313.208,-561.439 306.306,-560.272"/>
</g>
<!-- Node25 -->
<g id="node25" class="node"><title>Node25</title>
<g id="a_node25"><a xlink:href="class_om_1_1_default_giveable.html" target="_top" xlink:title="Om::DefaultGiveable\l\&lt; Operator, Atom \&gt;">
<polygon fill="none" stroke="black" points="343.591,-654 343.591,-682 452.409,-682 452.409,-654 343.591,-654"/>
<text text-anchor="start" x="351.591" y="-670" font-family="Helvetica,sans-Serif" font-size="10.00">Om::DefaultGiveable</text>
<text text-anchor="middle" x="398" y="-660" font-family="Helvetica,sans-Serif" font-size="10.00">&lt; Operator, Atom &gt;</text>
</a>
</g>
</g>
<!-- Node25&#45;&gt;Node24 -->
<g id="edge24" class="edge"><title>Node25&#45;&gt;Node24</title>
<path fill="none" stroke="midnightblue" d="M373.823,-647.242C359.439,-635.488 341.319,-620.68 327.283,-609.21"/>
<polygon fill="midnightblue" stroke="midnightblue" points="371.843,-650.144 381.801,-653.762 376.272,-644.724 371.843,-650.144"/>
</g>
<!-- Node26 -->
<g id="node26" class="node"><title>Node26</title>
<g id="a_node26"><a xlink:href="class_om_1_1_default_moveable.html" target="_top" xlink:title="Om::DefaultMoveable\l\&lt; Operator, DefaultCopyable\l\&lt; Operator, Atom \&gt; \&gt;">
<polygon fill="none" stroke="black" points="376.487,-727 376.487,-765 519.513,-765 519.513,-727 376.487,-727"/>
<text text-anchor="start" x="384.487" y="-753" font-family="Helvetica,sans-Serif" font-size="10.00">Om::DefaultMoveable</text>
<text text-anchor="start" x="384.487" y="-743" font-family="Helvetica,sans-Serif" font-size="10.00">&lt; Operator, DefaultCopyable</text>
<text text-anchor="middle" x="448" y="-733" font-family="Helvetica,sans-Serif" font-size="10.00">&lt; Operator, Atom &gt; &gt;</text>
</a>
</g>
</g>
<!-- Node26&#45;&gt;Node25 -->
<g id="edge25" class="edge"><title>Node26&#45;&gt;Node25</title>
<path fill="none" stroke="midnightblue" d="M430.561,-718.492C422.531,-706.287 413.352,-692.336 406.792,-682.363"/>
<polygon fill="midnightblue" stroke="midnightblue" points="427.731,-720.559 436.151,-726.989 433.578,-716.711 427.731,-720.559"/>
</g>
<!-- Node27 -->
<g id="node27" class="node"><title>Node27</title>
<g id="a_node27"><a xlink:href="class_om_1_1_default_copyable.html" target="_top" xlink:title="Om::DefaultCopyable\l\&lt; Operator, Atom \&gt;">
<polygon fill="none" stroke="black" points="392.2,-810 392.2,-838 503.8,-838 503.8,-810 392.2,-810"/>
<text text-anchor="start" x="400.2" y="-826" font-family="Helvetica,sans-Serif" font-size="10.00">Om::DefaultCopyable</text>
<text text-anchor="middle" x="448" y="-816" font-family="Helvetica,sans-Serif" font-size="10.00">&lt; Operator, Atom &gt;</text>
</a>
</g>
</g>
<!-- Node27&#45;&gt;Node26 -->
<g id="edge26" class="edge"><title>Node27&#45;&gt;Node26</title>
<path fill="none" stroke="midnightblue" d="M448,-799.527C448,-788.479 448,-775.501 448,-765.21"/>
<polygon fill="midnightblue" stroke="midnightblue" points="444.5,-799.762 448,-809.762 451.5,-799.762 444.5,-799.762"/>
</g>
<!-- Node28 -->
<g id="node28" class="node"><title>Node28</title>
<g id="a_node28"><a xlink:href="class_om_1_1_atom.html" target="_top" xlink:title="An atomic Element defined by a string. ">
<polygon fill="none" stroke="black" points="417.498,-893 417.498,-911 478.502,-911 478.502,-893 417.498,-893"/>
<text text-anchor="middle" x="448" y="-899" font-family="Helvetica,sans-Serif" font-size="10.00">Om::Atom</text>
</a>
</g>
</g>
<!-- Node28&#45;&gt;Node27 -->
<g id="edge27" class="edge"><title>Node28&#45;&gt;Node27</title>
<path fill="none" stroke="midnightblue" d="M448,-882.677C448,-868.933 448,-850.445 448,-838.146"/>
<polygon fill="midnightblue" stroke="midnightblue" points="444.5,-882.867 448,-892.867 451.5,-882.867 444.5,-882.867"/>
</g>
<!-- Node29&#45;&gt;Node28 -->
<g id="edge28" class="edge"><title>Node29&#45;&gt;Node28</title>
<path fill="none" stroke="midnightblue" d="M448,-955.608C448,-941.183 448,-921.806 448,-911.05"/>
<polygon fill="midnightblue" stroke="midnightblue" points="444.5,-955.855 448,-965.855 451.5,-955.855 444.5,-955.855"/>
</g>
<!-- Node40 -->
<g id="node40" class="node"><title>Node40</title>
<g id="a_node40"><a xlink:href="class_om_1_1_default_copyable.html" target="_top" xlink:title="Om::DefaultCopyable\l\&lt; Operand, Element \&gt;">
<polygon fill="none" stroke="black" points="508.803,-888 508.803,-916 623.197,-916 623.197,-888 508.803,-888"/>
<text text-anchor="start" x="516.803" y="-904" font-family="Helvetica,sans-Serif" font-size="10.00">Om::DefaultCopyable</text>
<text text-anchor="middle" x="566" y="-894" font-family="Helvetica,sans-Serif" font-size="10.00">&lt; Operand, Element &gt;</text>
</a>
</g>
</g>
<!-- Node29&#45;&gt;Node40 -->
<g id="edge41" class="edge"><title>Node29&#45;&gt;Node40</title>
<path fill="none" stroke="midnightblue" d="M470.187,-960.65C491.394,-947.89 523.167,-928.772 544.232,-916.097"/>
<polygon fill="midnightblue" stroke="midnightblue" points="468.3,-957.701 461.536,-965.855 471.909,-963.699 468.3,-957.701"/>
</g>
<!-- Node30 -->
<g id="node30" class="node"><title>Node30</title>
<g id="a_node30"><a xlink:href="class_om_1_1_taker.html" target="_top" xlink:title="Om::Taker\&lt; Operator \&gt;">
<polygon fill="none" stroke="black" points="393.591,-581 393.591,-599 512.409,-599 512.409,-581 393.591,-581"/>
<text text-anchor="middle" x="453" y="-587" font-family="Helvetica,sans-Serif" font-size="10.00">Om::Taker&lt; Operator &gt;</text>
</a>
</g>
</g>
<!-- Node30&#45;&gt;Node23 -->
<g id="edge30" class="edge"><title>Node30&#45;&gt;Node23</title>
<path fill="none" stroke="midnightblue" d="M428.669,-576.298C404.195,-563.521 366.639,-543.915 341.948,-531.024"/>
<polygon fill="midnightblue" stroke="midnightblue" points="427.179,-579.468 437.663,-580.993 430.419,-573.263 427.179,-579.468"/>
</g>
<!-- Node31 -->
<g id="node31" class="node"><title>Node31</title>
<g id="a_node31"><a xlink:title="STL class. ">
<polygon fill="none" stroke="#bfbfbf" points="398.325,-432 398.325,-450 457.675,-450 457.675,-432 398.325,-432"/>
<text text-anchor="middle" x="428" y="-438" font-family="Helvetica,sans-Serif" font-size="10.00">std::string</text>
</a>
</g>
</g>
<!-- Node31&#45;&gt;Node21 -->
<g id="edge31" class="edge"><title>Node31&#45;&gt;Node21</title>
<path fill="none" stroke="#9a32cd" stroke-dasharray="5,2" d="M406.531,-426.284C384.507,-412.213 350.974,-390.789 332.796,-379.176"/>
<polygon fill="#9a32cd" stroke="#9a32cd" points="404.876,-429.379 415.187,-431.814 408.644,-423.48 404.876,-429.379"/>
<text text-anchor="middle" x="399.231" y="-400" font-family="Helvetica,sans-Serif" font-size="10.00"> thisString</text>
</g>
<!-- Node32 -->
<g id="node32" class="node"><title>Node32</title>
<g id="a_node32"><a xlink:title="STL class. ">
<polygon fill="none" stroke="#bfbfbf" points="388.952,-503 388.952,-531 483.048,-531 483.048,-503 388.952,-503"/>
<text text-anchor="start" x="396.952" y="-519" font-family="Helvetica,sans-Serif" font-size="10.00">std::basic_string&lt;</text>
<text text-anchor="middle" x="436" y="-509" font-family="Helvetica,sans-Serif" font-size="10.00"> char &gt;</text>
</a>
</g>
</g>
<!-- Node32&#45;&gt;Node31 -->
<g id="edge32" class="edge"><title>Node32&#45;&gt;Node31</title>
<path fill="none" stroke="midnightblue" d="M433.456,-492.463C431.885,-477.933 429.967,-460.194 428.874,-450.087"/>
<polygon fill="midnightblue" stroke="midnightblue" points="430.015,-493.204 434.57,-502.77 436.975,-492.452 430.015,-493.204"/>
</g>
<!-- Node33 -->
<g id="node33" class="node"><title>Node33</title>
<polygon fill="none" stroke="#bfbfbf" points="383.572,-323 383.572,-341 502.428,-341 502.428,-323 383.572,-323"/>
<text text-anchor="middle" x="443" y="-329" font-family="Helvetica,sans-Serif" font-size="10.00">std::deque&lt; Operand &gt;</text>
</g>
<!-- Node33&#45;&gt;Node19 -->
<g id="edge33" class="edge"><title>Node33&#45;&gt;Node19</title>
<path fill="none" stroke="#9a32cd" stroke-dasharray="5,2" d="M432.576,-314.311C421.495,-297.697 402.613,-272.374 381,-256 370.292,-247.887 356.763,-241.583 345.169,-237.114"/>
<polygon fill="#9a32cd" stroke="#9a32cd" points="429.793,-316.454 438.16,-322.954 435.673,-312.655 429.793,-316.454"/>
<text text-anchor="middle" x="467.362" y="-291" font-family="Helvetica,sans-Serif" font-size="10.00"> thisOperandDeque</text>
</g>
<!-- Node34 -->
<g id="node34" class="node"><title>Node34</title>
<g id="a_node34"><a xlink:href="class_om_1_1_operand.html" target="_top" xlink:title="The Operand implementation. ">
<polygon fill="none" stroke="black" points="545.709,-432 545.709,-450 622.291,-450 622.291,-432 545.709,-432"/>
<text text-anchor="middle" x="584" y="-438" font-family="Helvetica,sans-Serif" font-size="10.00">Om::Operand</text>
</a>
</g>
</g>
<!-- Node34&#45;&gt;Node33 -->
<g id="edge34" class="edge"><title>Node34&#45;&gt;Node33</title>
<path fill="none" stroke="#9a32cd" stroke-dasharray="5,2" d="M565.422,-425.902C535.511,-403.204 477.621,-359.273 453.721,-341.136"/>
<polygon fill="#9a32cd" stroke="#9a32cd" points="563.32,-428.701 573.402,-431.958 567.552,-423.124 563.32,-428.701"/>
<text text-anchor="middle" x="561.677" y="-400" font-family="Helvetica,sans-Serif" font-size="10.00"> elements</text>
</g>
<!-- Node35 -->
<g id="node35" class="node"><title>Node35</title>
<g id="a_node35"><a xlink:href="class_om_1_1_default_element.html" target="_top" xlink:title="Om::DefaultElement\l\&lt; Operand, Element \&gt;">
<polygon fill="none" stroke="black" points="673.803,-503 673.803,-531 788.197,-531 788.197,-503 673.803,-503"/>
<text text-anchor="start" x="681.803" y="-519" font-family="Helvetica,sans-Serif" font-size="10.00">Om::DefaultElement</text>
<text text-anchor="middle" x="731" y="-509" font-family="Helvetica,sans-Serif" font-size="10.00">&lt; Operand, Element &gt;</text>
</a>
</g>
</g>
<!-- Node35&#45;&gt;Node34 -->
<g id="edge35" class="edge"><title>Node35&#45;&gt;Node34</title>
<path fill="none" stroke="midnightblue" d="M696.063,-498.413C665.699,-483.127 623.084,-461.675 600.143,-450.127"/>
<polygon fill="midnightblue" stroke="midnightblue" points="694.552,-501.57 705.058,-502.941 697.699,-495.318 694.552,-501.57"/>
</g>
<!-- Node36 -->
<g id="node36" class="node"><title>Node36</title>
<g id="a_node36"><a xlink:href="class_om_1_1_default_program.html" target="_top" xlink:title="Om::DefaultProgram\l\&lt; Operand, Element \&gt;">
<polygon fill="none" stroke="black" points="673.803,-576 673.803,-604 788.197,-604 788.197,-576 673.803,-576"/>
<text text-anchor="start" x="681.803" y="-592" font-family="Helvetica,sans-Serif" font-size="10.00">Om::DefaultProgram</text>
<text text-anchor="middle" x="731" y="-582" font-family="Helvetica,sans-Serif" font-size="10.00">&lt; Operand, Element &gt;</text>
</a>
</g>
</g>
<!-- Node36&#45;&gt;Node35 -->
<g id="edge36" class="edge"><title>Node36&#45;&gt;Node35</title>
<path fill="none" stroke="midnightblue" d="M731,-565.83C731,-554.437 731,-541.111 731,-531.422"/>
<polygon fill="midnightblue" stroke="midnightblue" points="727.5,-565.977 731,-575.978 734.5,-565.978 727.5,-565.977"/>
</g>
<!-- Node37 -->
<g id="node37" class="node"><title>Node37</title>
<g id="a_node37"><a xlink:href="class_om_1_1_default_consumer.html" target="_top" xlink:title="Om::DefaultConsumer\l\&lt; Operand, DefaultGiveable\l\&lt; Operand, Element \&gt; \&gt;">
<polygon fill="none" stroke="black" points="660.878,-649 660.878,-687 801.122,-687 801.122,-649 660.878,-649"/>
<text text-anchor="start" x="668.878" y="-675" font-family="Helvetica,sans-Serif" font-size="10.00">Om::DefaultConsumer</text>
<text text-anchor="start" x="668.878" y="-665" font-family="Helvetica,sans-Serif" font-size="10.00">&lt; Operand, DefaultGiveable</text>
<text text-anchor="middle" x="731" y="-655" font-family="Helvetica,sans-Serif" font-size="10.00">&lt; Operand, Element &gt; &gt;</text>
</a>
</g>
</g>
<!-- Node37&#45;&gt;Node36 -->
<g id="edge37" class="edge"><title>Node37&#45;&gt;Node36</title>
<path fill="none" stroke="midnightblue" d="M731,-638.703C731,-626.942 731,-613.852 731,-604.363"/>
<polygon fill="midnightblue" stroke="midnightblue" points="727.5,-638.989 731,-648.989 734.5,-638.989 727.5,-638.989"/>
</g>
<!-- Node38 -->
<g id="node38" class="node"><title>Node38</title>
<g id="a_node38"><a xlink:href="class_om_1_1_default_giveable.html" target="_top" xlink:title="Om::DefaultGiveable\l\&lt; Operand, Element \&gt;">
<polygon fill="none" stroke="black" points="580.803,-732 580.803,-760 695.197,-760 695.197,-732 580.803,-732"/>
<text text-anchor="start" x="588.803" y="-748" font-family="Helvetica,sans-Serif" font-size="10.00">Om::DefaultGiveable</text>
<text text-anchor="middle" x="638" y="-738" font-family="Helvetica,sans-Serif" font-size="10.00">&lt; Operand, Element &gt;</text>
</a>
</g>
</g>
<!-- Node38&#45;&gt;Node37 -->
<g id="edge38" class="edge"><title>Node38&#45;&gt;Node37</title>
<path fill="none" stroke="midnightblue" d="M662.177,-725.242C676.561,-713.488 694.681,-698.68 708.717,-687.21"/>
<polygon fill="midnightblue" stroke="midnightblue" points="659.728,-722.724 654.199,-731.762 664.157,-728.144 659.728,-722.724"/>
</g>
<!-- Node39 -->
<g id="node39" class="node"><title>Node39</title>
<g id="a_node39"><a xlink:href="class_om_1_1_default_moveable.html" target="_top" xlink:title="Om::DefaultMoveable\l\&lt; Operand, DefaultCopyable\l\&lt; Operand, Element \&gt; \&gt;">
<polygon fill="none" stroke="black" points="532.487,-805 532.487,-843 675.513,-843 675.513,-805 532.487,-805"/>
<text text-anchor="start" x="540.487" y="-831" font-family="Helvetica,sans-Serif" font-size="10.00">Om::DefaultMoveable</text>
<text text-anchor="start" x="540.487" y="-821" font-family="Helvetica,sans-Serif" font-size="10.00">&lt; Operand, DefaultCopyable</text>
<text text-anchor="middle" x="604" y="-811" font-family="Helvetica,sans-Serif" font-size="10.00">&lt; Operand, Element &gt; &gt;</text>
</a>
</g>
</g>
<!-- Node39&#45;&gt;Node38 -->
<g id="edge39" class="edge"><title>Node39&#45;&gt;Node38</title>
<path fill="none" stroke="midnightblue" d="M616.178,-795.779C621.561,-783.747 627.647,-770.142 632.022,-760.363"/>
<polygon fill="midnightblue" stroke="midnightblue" points="612.946,-794.432 612.058,-804.989 619.336,-797.29 612.946,-794.432"/>
</g>
<!-- Node40&#45;&gt;Node39 -->
<g id="edge40" class="edge"><title>Node40&#45;&gt;Node39</title>
<path fill="none" stroke="midnightblue" d="M577.221,-878.557C582.854,-867.292 589.589,-853.823 594.895,-843.21"/>
<polygon fill="midnightblue" stroke="midnightblue" points="573.961,-877.252 572.619,-887.762 580.222,-880.383 573.961,-877.252"/>
</g>
<!-- Node41 -->
<g id="node41" class="node"><title>Node41</title>
<g id="a_node41"><a xlink:href="class_om_1_1_taker.html" target="_top" xlink:title="Om::Taker\&lt; Operand \&gt;">
<polygon fill="none" stroke="black" points="524.865,-659 524.865,-677 643.135,-677 643.135,-659 524.865,-659"/>
<text text-anchor="middle" x="584" y="-665" font-family="Helvetica,sans-Serif" font-size="10.00">Om::Taker&lt; Operand &gt;</text>
</a>
</g>
</g>
<!-- Node41&#45;&gt;Node36 -->
<g id="edge42" class="edge"><title>Node41&#45;&gt;Node36</title>
<path fill="none" stroke="midnightblue" d="M608.902,-654.126C635.897,-640.169 678.743,-618.017 705.839,-604.008"/>
<polygon fill="midnightblue" stroke="midnightblue" points="607.007,-651.165 599.732,-658.867 610.222,-657.383 607.007,-651.165"/>
</g>
<!-- Node42 -->
<g id="node42" class="node"><title>Node42</title>
<g id="a_node42"><a xlink:href="class_om_1_1_owner.html" target="_top" xlink:title="Om::Owner\&lt; Om::Program \&gt;">
<polygon fill="none" stroke="black" points="511.818,-508 511.818,-526 656.182,-526 656.182,-508 511.818,-508"/>
<text text-anchor="middle" x="584" y="-514" font-family="Helvetica,sans-Serif" font-size="10.00">Om::Owner&lt; Om::Program &gt;</text>
</a>
</g>
</g>
<!-- Node42&#45;&gt;Node34 -->
<g id="edge43" class="edge"><title>Node42&#45;&gt;Node34</title>
<path fill="none" stroke="#9a32cd" stroke-dasharray="5,2" d="M584,-497.478C584,-482.213 584,-461.303 584,-450.014"/>
<polygon fill="#9a32cd" stroke="#9a32cd" points="580.5,-497.798 584,-507.798 587.5,-497.798 580.5,-497.798"/>
<text text-anchor="middle" x="612.342" y="-476" font-family="Helvetica,sans-Serif" font-size="10.00"> thisProgram</text>
</g>
<!-- Node43 -->
<g id="node43" class="node"><title>Node43</title>
<g id="a_node43"><a xlink:href="class_om_1_1_taker.html" target="_top" xlink:title="Om::Taker\&lt; Owner\&lt; Om\l::Program \&gt; \&gt;">
<polygon fill="none" stroke="black" points="530.542,-576 530.542,-604 655.458,-604 655.458,-576 530.542,-576"/>
<text text-anchor="start" x="538.542" y="-592" font-family="Helvetica,sans-Serif" font-size="10.00">Om::Taker&lt; Owner&lt; Om</text>
<text text-anchor="middle" x="593" y="-582" font-family="Helvetica,sans-Serif" font-size="10.00">::Program &gt; &gt;</text>
</a>
</g>
</g>
<!-- Node43&#45;&gt;Node42 -->
<g id="edge44" class="edge"><title>Node43&#45;&gt;Node42</title>
<path fill="none" stroke="midnightblue" d="M590.058,-565.794C588.326,-552.125 586.241,-535.682 585.024,-526.08"/>
<polygon fill="midnightblue" stroke="midnightblue" points="586.619,-566.497 591.349,-575.978 593.564,-565.617 586.619,-566.497"/>
</g>
</g>
</svg>
