<?xml version="1.0" encoding="UTF-8" standalone="no"?>
<!DOCTYPE svg PUBLIC "-//W3C//DTD SVG 1.1//EN"
 "http://www.w3.org/Graphics/SVG/1.1/DTD/svg11.dtd">
<!-- Generated by graphviz version 2.34.0 (20130907.0228)
 -->
<!-- Title: om/source/code_point_string_back_source.cpp Pages: 1 -->
<svg width="359pt" height="344pt"
 viewBox="0.00 0.00 359.00 344.00" xmlns="http://www.w3.org/2000/svg" xmlns:xlink="http://www.w3.org/1999/xlink">
<g id="graph0" class="graph" transform="scale(1 1) rotate(0) translate(4 340)">
<title>om/source/code_point_string_back_source.cpp</title>
<!-- Node1 -->
<g id="node1" class="node"><title>Node1</title>
<polygon fill="#bfbfbf" stroke="black" points="154.412,-303 154.412,-335 281.588,-335 281.588,-303 154.412,-303"/>
<text text-anchor="start" x="162.412" y="-321" font-family="Helvetica,sans-Serif" font-size="10.00">om/source/code_point</text>
<text text-anchor="middle" x="218" y="-309" font-family="Helvetica,sans-Serif" font-size="10.00">_string_back_source.cpp</text>
</g>
<!-- Node2 -->
<g id="node2" class="node"><title>Node2</title>
<g id="a_node2"><a xlink:href="utf8_8hpp.html" target="_top" xlink:title="Om header file. ">
<polygon fill="none" stroke="black" points="53.5938,-239 53.5938,-259 122.406,-259 122.406,-239 53.5938,-239"/>
<text text-anchor="middle" x="88" y="-245" font-family="Helvetica,sans-Serif" font-size="10.00">om/utf8.hpp</text>
</a>
</g>
</g>
<!-- Node1&#45;&gt;Node2 -->
<g id="edge1" class="edge"><title>Node1&#45;&gt;Node2</title>
<path fill="none" stroke="midnightblue" d="M189.149,-302.909C166.734,-291.184 135.909,-275.06 114.196,-263.703"/>
<polygon fill="midnightblue" stroke="midnightblue" points="115.696,-260.537 105.213,-259.004 112.451,-266.74 115.696,-260.537"/>
</g>
<!-- Node4 -->
<g id="node4" class="node"><title>Node4</title>
<g id="a_node4"><a xlink:href="code__point__string__back__source_8hpp.html" target="_top" xlink:title="Om header file. ">
<polygon fill="none" stroke="black" points="154.131,-233 154.131,-265 281.869,-265 281.869,-233 154.131,-233"/>
<text text-anchor="start" x="162.131" y="-251" font-family="Helvetica,sans-Serif" font-size="10.00">om/source/code_point</text>
<text text-anchor="middle" x="218" y="-239" font-family="Helvetica,sans-Serif" font-size="10.00">_string_back_source.hpp</text>
</a>
</g>
</g>
<!-- Node1&#45;&gt;Node4 -->
<g id="edge3" class="edge"><title>Node1&#45;&gt;Node4</title>
<path fill="none" stroke="midnightblue" d="M212.28,-302.909C211.281,-294.721 211.009,-284.389 211.463,-275.032"/>
<polygon fill="midnightblue" stroke="midnightblue" points="214.953,-275.303 212.285,-265.049 207.976,-274.728 214.953,-275.303"/>
</g>
<!-- Node3 -->
<g id="node3" class="node"><title>Node3</title>
<polygon fill="none" stroke="#bfbfbf" points="21.6357,-175 21.6357,-195 124.364,-195 124.364,-175 21.6357,-175"/>
<text text-anchor="middle" x="73" y="-181" font-family="Helvetica,sans-Serif" font-size="10.00">boost/locale/utf.hpp</text>
</g>
<!-- Node2&#45;&gt;Node3 -->
<g id="edge2" class="edge"><title>Node2&#45;&gt;Node3</title>
<path fill="none" stroke="midnightblue" d="M85.7867,-238.852C83.6375,-229.969 80.31,-216.215 77.5882,-204.964"/>
<polygon fill="midnightblue" stroke="midnightblue" points="80.9758,-204.082 75.2224,-195.186 74.1721,-205.728 80.9758,-204.082"/>
</g>
<!-- Node4&#45;&gt;Node1 -->
<g id="edge14" class="edge"><title>Node4&#45;&gt;Node1</title>
<path fill="none" stroke="midnightblue" d="M223.715,-265.049C224.716,-273.229 224.991,-283.56 224.539,-292.92"/>
<polygon fill="midnightblue" stroke="midnightblue" points="221.049,-292.656 223.72,-302.909 228.026,-293.228 221.049,-292.656"/>
</g>
<!-- Node5 -->
<g id="node5" class="node"><title>Node5</title>
<g id="a_node5"><a xlink:href="default__source_8hpp.html" target="_top" xlink:title="Om header file. ">
<polygon fill="none" stroke="black" points="142.737,-175 142.737,-195 293.263,-195 293.263,-175 142.737,-175"/>
<text text-anchor="middle" x="218" y="-181" font-family="Helvetica,sans-Serif" font-size="10.00">om/source/default_source.hpp</text>
</a>
</g>
</g>
<!-- Node4&#45;&gt;Node5 -->
<g id="edge4" class="edge"><title>Node4&#45;&gt;Node5</title>
<path fill="none" stroke="midnightblue" d="M218,-232.992C218,-224.726 218,-214.373 218,-205.489"/>
<polygon fill="midnightblue" stroke="midnightblue" points="221.5,-205.29 218,-195.29 214.5,-205.29 221.5,-205.29"/>
</g>
<!-- Node12 -->
<g id="node12" class="node"><title>Node12</title>
<polygon fill="none" stroke="#bfbfbf" points="310.773,-175 310.773,-195 351.227,-195 351.227,-175 310.773,-175"/>
<text text-anchor="middle" x="331" y="-181" font-family="Helvetica,sans-Serif" font-size="10.00">string</text>
</g>
<!-- Node4&#45;&gt;Node12 -->
<g id="edge13" class="edge"><title>Node4&#45;&gt;Node12</title>
<path fill="none" stroke="midnightblue" d="M245.354,-232.992C263.541,-223.013 287.276,-209.99 305.147,-200.185"/>
<polygon fill="midnightblue" stroke="midnightblue" points="307.315,-202.988 314.399,-195.109 303.948,-196.851 307.315,-202.988"/>
</g>
<!-- Node6 -->
<g id="node6" class="node"><title>Node6</title>
<g id="a_node6"><a xlink:href="source_2source_8hpp.html" target="_top" xlink:title="Om header file. ">
<polygon fill="none" stroke="black" points="2.52979,-117 2.52979,-137 117.47,-137 117.47,-117 2.52979,-117"/>
<text text-anchor="middle" x="60" y="-123" font-family="Helvetica,sans-Serif" font-size="10.00">om/source/source.hpp</text>
</a>
</g>
</g>
<!-- Node5&#45;&gt;Node6 -->
<g id="edge5" class="edge"><title>Node5&#45;&gt;Node6</title>
<path fill="none" stroke="midnightblue" d="M192.263,-174.878C165.787,-165.494 124.372,-150.815 94.9453,-140.386"/>
<polygon fill="midnightblue" stroke="midnightblue" points="96.059,-137.067 85.4643,-137.025 93.7205,-143.665 96.059,-137.067"/>
</g>
<!-- Node10 -->
<g id="node10" class="node"><title>Node10</title>
<polygon fill="none" stroke="#bfbfbf" points="135.438,-117 135.438,-137 182.562,-137 182.562,-117 135.438,-117"/>
<text text-anchor="middle" x="159" y="-123" font-family="Helvetica,sans-Serif" font-size="10.00">iterator</text>
</g>
<!-- Node5&#45;&gt;Node10 -->
<g id="edge10" class="edge"><title>Node5&#45;&gt;Node10</title>
<path fill="none" stroke="midnightblue" d="M208.257,-174.753C199.494,-166.435 186.425,-154.031 175.951,-144.089"/>
<polygon fill="midnightblue" stroke="midnightblue" points="178.224,-141.421 168.561,-137.075 173.405,-146.498 178.224,-141.421"/>
</g>
<!-- Node11 -->
<g id="node11" class="node"><title>Node11</title>
<g id="a_node11"><a xlink:href="default__source_8cpp.html" target="_top" xlink:title="Om source file. ">
<polygon fill="none" stroke="black" points="201.018,-117 201.018,-137 350.982,-137 350.982,-117 201.018,-117"/>
<text text-anchor="middle" x="276" y="-123" font-family="Helvetica,sans-Serif" font-size="10.00">om/source/default_source.cpp</text>
</a>
</g>
</g>
<!-- Node5&#45;&gt;Node11 -->
<g id="edge11" class="edge"><title>Node5&#45;&gt;Node11</title>
<path fill="none" stroke="midnightblue" d="M222.411,-174.753C229.402,-166.353 242.091,-153.787 253.494,-143.798"/>
<polygon fill="midnightblue" stroke="midnightblue" points="256.079,-146.196 261.47,-137.075 251.568,-140.844 256.079,-146.196"/>
</g>
<!-- Node7 -->
<g id="node7" class="node"><title>Node7</title>
<g id="a_node7"><a xlink:href="source_2source_8cpp.html" target="_top" xlink:title="Om source file. ">
<polygon fill="none" stroke="black" points="2.81055,-59 2.81055,-79 117.189,-79 117.189,-59 2.81055,-59"/>
<text text-anchor="middle" x="60" y="-65" font-family="Helvetica,sans-Serif" font-size="10.00">om/source/source.cpp</text>
</a>
</g>
</g>
<!-- Node6&#45;&gt;Node7 -->
<g id="edge6" class="edge"><title>Node6&#45;&gt;Node7</title>
<path fill="none" stroke="midnightblue" d="M54.8337,-116.753C53.3076,-109.25 52.8844,-98.4238 53.5643,-89.0781"/>
<polygon fill="midnightblue" stroke="midnightblue" points="57.0461,-89.4439 54.869,-79.0752 50.1049,-88.5385 57.0461,-89.4439"/>
</g>
<!-- Node7&#45;&gt;Node6 -->
<g id="edge9" class="edge"><title>Node7&#45;&gt;Node6</title>
<path fill="none" stroke="midnightblue" d="M65.131,-79.0752C66.674,-86.5262 67.1141,-97.3384 66.4512,-106.707"/>
<polygon fill="midnightblue" stroke="midnightblue" points="62.9633,-106.389 65.1663,-116.753 69.9067,-107.278 62.9633,-106.389"/>
</g>
<!-- Node8 -->
<g id="node8" class="node"><title>Node8</title>
<polygon fill="none" stroke="#bfbfbf" points="-0.115723,-1 -0.115723,-21 48.1157,-21 48.1157,-1 -0.115723,-1"/>
<text text-anchor="middle" x="24" y="-7" font-family="Helvetica,sans-Serif" font-size="10.00">cassert</text>
</g>
<!-- Node7&#45;&gt;Node8 -->
<g id="edge7" class="edge"><title>Node7&#45;&gt;Node8</title>
<path fill="none" stroke="midnightblue" d="M54.0553,-58.7527C48.9703,-50.8427 41.5096,-39.2372 35.2939,-29.5683"/>
<polygon fill="midnightblue" stroke="midnightblue" points="38.1858,-27.5943 29.8341,-21.0752 32.2975,-31.3797 38.1858,-27.5943"/>
</g>
<!-- Node9 -->
<g id="node9" class="node"><title>Node9</title>
<polygon fill="none" stroke="#bfbfbf" points="66.5986,-1 66.5986,-21 125.401,-21 125.401,-1 66.5986,-1"/>
<text text-anchor="middle" x="96" y="-7" font-family="Helvetica,sans-Serif" font-size="10.00">stdexcept</text>
</g>
<!-- Node7&#45;&gt;Node9 -->
<g id="edge8" class="edge"><title>Node7&#45;&gt;Node9</title>
<path fill="none" stroke="midnightblue" d="M65.9447,-58.7527C71.0297,-50.8427 78.4904,-39.2372 84.7061,-29.5683"/>
<polygon fill="midnightblue" stroke="midnightblue" points="87.7025,-31.3797 90.1659,-21.0752 81.8142,-27.5943 87.7025,-31.3797"/>
</g>
<!-- Node11&#45;&gt;Node5 -->
<g id="edge12" class="edge"><title>Node11&#45;&gt;Node5</title>
<path fill="none" stroke="midnightblue" d="M271.732,-137.075C264.752,-145.498 251.915,-158.216 240.409,-168.288"/>
<polygon fill="midnightblue" stroke="midnightblue" points="238.131,-165.63 232.744,-174.753 242.645,-170.981 238.131,-165.63"/>
</g>
</g>
</svg>
