<?xml version="1.0" encoding="UTF-8" standalone="no"?>
<!DOCTYPE svg PUBLIC "-//W3C//DTD SVG 1.1//EN"
 "http://www.w3.org/Graphics/SVG/1.1/DTD/svg11.dtd">
<!-- Generated by graphviz version 2.30.1 (20130221.2233)
 -->
<!-- Title: om/sources/code_point_source.hpp Pages: 1 -->
<svg width="433pt" height="368pt"
 viewBox="0.00 0.00 433.00 368.00" xmlns="http://www.w3.org/2000/svg" xmlns:xlink="http://www.w3.org/1999/xlink">
<g id="graph0" class="graph" transform="scale(1 1) rotate(0) translate(4 364)">
<title>om/sources/code_point_source.hpp</title>
<!-- Node1 -->
<g id="node1" class="node"><title>Node1</title>
<polygon fill="#bfbfbf" stroke="black" points="119.303,-327 119.303,-359 238.697,-359 238.697,-327 119.303,-327"/>
<text text-anchor="start" x="127.303" y="-345" font-family="Helvetica,sans-Serif" font-size="10.00">om/sources/code_point</text>
<text text-anchor="middle" x="179" y="-333" font-family="Helvetica,sans-Serif" font-size="10.00">_source.hpp</text>
</g>
<!-- Node2 -->
<g id="node2" class="node"><title>Node2</title>
<g id="a_node2"><a xlink:href="code__point_8hpp.html" target="_top" xlink:title="Om header file.">
<polygon fill="none" stroke="black" points="0.468262,-263 0.468262,-283 101.532,-283 101.532,-263 0.468262,-263"/>
<text text-anchor="middle" x="51" y="-269" font-family="Helvetica,sans-Serif" font-size="10.00">om/code_point.hpp</text>
</a>
</g>
</g>
<!-- Node1&#45;&gt;Node2 -->
<g id="edge1" class="edge"><title>Node1&#45;&gt;Node2</title>
<path fill="none" stroke="midnightblue" d="M150.593,-326.909C128.522,-315.184 98.1719,-299.06 76.7934,-287.703"/>
<polygon fill="midnightblue" stroke="midnightblue" points="78.4211,-284.604 67.9479,-283.004 75.137,-290.786 78.4211,-284.604"/>
</g>
<!-- Node4 -->
<g id="node4" class="node"><title>Node4</title>
<g id="a_node4"><a xlink:href="iterator__source_8hpp.html" target="_top" xlink:title="Om header file.">
<polygon fill="none" stroke="black" points="290.207,-257 290.207,-289 391.793,-289 391.793,-257 290.207,-257"/>
<text text-anchor="start" x="298.207" y="-275" font-family="Helvetica,sans-Serif" font-size="10.00">om/sources/iterator</text>
<text text-anchor="middle" x="341" y="-263" font-family="Helvetica,sans-Serif" font-size="10.00">_source.hpp</text>
</a>
</g>
</g>
<!-- Node1&#45;&gt;Node4 -->
<g id="edge3" class="edge"><title>Node1&#45;&gt;Node4</title>
<path fill="none" stroke="midnightblue" d="M214.953,-326.909C238.758,-316.916 270.174,-303.729 295.687,-293.02"/>
<polygon fill="midnightblue" stroke="midnightblue" points="297.281,-296.147 305.147,-289.049 294.572,-289.692 297.281,-296.147"/>
</g>
<!-- Node12 -->
<g id="node12" class="node"><title>Node12</title>
<g id="a_node12"><a xlink:href="code__point__source_8cpp.html" target="_top" xlink:title="Om source file.">
<polygon fill="none" stroke="black" points="119.303,-257 119.303,-289 238.697,-289 238.697,-257 119.303,-257"/>
<text text-anchor="start" x="127.303" y="-275" font-family="Helvetica,sans-Serif" font-size="10.00">om/sources/code_point</text>
<text text-anchor="middle" x="179" y="-263" font-family="Helvetica,sans-Serif" font-size="10.00">_source.cpp</text>
</a>
</g>
</g>
<!-- Node1&#45;&gt;Node12 -->
<g id="edge14" class="edge"><title>Node1&#45;&gt;Node12</title>
<path fill="none" stroke="midnightblue" d="M173.28,-326.909C172.281,-318.721 172.009,-308.389 172.463,-299.032"/>
<polygon fill="midnightblue" stroke="midnightblue" points="175.953,-299.303 173.285,-289.049 168.976,-298.728 175.953,-299.303"/>
</g>
<!-- Node3 -->
<g id="node3" class="node"><title>Node3</title>
<polygon fill="none" stroke="#bfbfbf" points="-0.364258,-123 -0.364258,-143 102.364,-143 102.364,-123 -0.364258,-123"/>
<text text-anchor="middle" x="51" y="-129" font-family="Helvetica,sans-Serif" font-size="10.00">boost/locale/utf.hpp</text>
</g>
<!-- Node2&#45;&gt;Node3 -->
<g id="edge2" class="edge"><title>Node2&#45;&gt;Node3</title>
<path fill="none" stroke="midnightblue" d="M51,-262.945C51,-240.826 51,-183.649 51,-153.41"/>
<polygon fill="midnightblue" stroke="midnightblue" points="54.5001,-153.269 51,-143.269 47.5001,-153.269 54.5001,-153.269"/>
</g>
<!-- Node5 -->
<g id="node5" class="node"><title>Node5</title>
<g id="a_node5"><a xlink:href="default__source_8hpp.html" target="_top" xlink:title="Om header file.">
<polygon fill="none" stroke="black" points="205.756,-187 205.756,-219 306.244,-219 306.244,-187 205.756,-187"/>
<text text-anchor="start" x="213.756" y="-205" font-family="Helvetica,sans-Serif" font-size="10.00">om/sources/default</text>
<text text-anchor="middle" x="256" y="-193" font-family="Helvetica,sans-Serif" font-size="10.00">_source.hpp</text>
</a>
</g>
</g>
<!-- Node4&#45;&gt;Node5 -->
<g id="edge4" class="edge"><title>Node4&#45;&gt;Node5</title>
<path fill="none" stroke="midnightblue" d="M322.136,-256.909C310.581,-247.665 295.608,-235.687 282.832,-225.466"/>
<polygon fill="midnightblue" stroke="midnightblue" points="284.807,-222.563 274.812,-219.049 280.434,-228.029 284.807,-222.563"/>
</g>
<!-- Node11 -->
<g id="node11" class="node"><title>Node11</title>
<g id="a_node11"><a xlink:href="iterator__source_8cpp.html" target="_top" xlink:title="Om source file.">
<polygon fill="none" stroke="black" points="324.207,-187 324.207,-219 425.793,-219 425.793,-187 324.207,-187"/>
<text text-anchor="start" x="332.207" y="-205" font-family="Helvetica,sans-Serif" font-size="10.00">om/sources/iterator</text>
<text text-anchor="middle" x="375" y="-193" font-family="Helvetica,sans-Serif" font-size="10.00">_source.cpp</text>
</a>
</g>
</g>
<!-- Node4&#45;&gt;Node11 -->
<g id="edge12" class="edge"><title>Node4&#45;&gt;Node11</title>
<path fill="none" stroke="midnightblue" d="M342.826,-256.909C346.053,-248.369 351.239,-237.496 356.611,-227.83"/>
<polygon fill="midnightblue" stroke="midnightblue" points="359.721,-229.446 361.761,-219.049 353.683,-225.905 359.721,-229.446"/>
</g>
<!-- Node6 -->
<g id="node6" class="node"><title>Node6</title>
<g id="a_node6"><a xlink:href="source_8hpp.html" target="_top" xlink:title="Om header file.">
<polygon fill="none" stroke="black" points="119.926,-123 119.926,-143 202.074,-143 202.074,-123 119.926,-123"/>
<text text-anchor="middle" x="161" y="-129" font-family="Helvetica,sans-Serif" font-size="10.00">om/source.hpp</text>
</a>
</g>
</g>
<!-- Node5&#45;&gt;Node6 -->
<g id="edge5" class="edge"><title>Node5&#45;&gt;Node6</title>
<path fill="none" stroke="midnightblue" d="M234.916,-186.909C219.197,-175.657 197.819,-160.354 182.096,-149.101"/>
<polygon fill="midnightblue" stroke="midnightblue" points="183.747,-145.978 173.578,-143.004 179.673,-151.67 183.747,-145.978"/>
</g>
<!-- Node10 -->
<g id="node10" class="node"><title>Node10</title>
<g id="a_node10"><a xlink:href="default__source_8cpp.html" target="_top" xlink:title="Om source file.">
<polygon fill="none" stroke="black" points="219.756,-117 219.756,-149 320.244,-149 320.244,-117 219.756,-117"/>
<text text-anchor="start" x="227.756" y="-135" font-family="Helvetica,sans-Serif" font-size="10.00">om/sources/default</text>
<text text-anchor="middle" x="270" y="-123" font-family="Helvetica,sans-Serif" font-size="10.00">_source.cpp</text>
</a>
</g>
</g>
<!-- Node5&#45;&gt;Node10 -->
<g id="edge10" class="edge"><title>Node5&#45;&gt;Node10</title>
<path fill="none" stroke="midnightblue" d="M253.387,-186.909C254.081,-178.633 255.969,-168.166 258.386,-158.731"/>
<polygon fill="midnightblue" stroke="midnightblue" points="261.77,-159.628 261.187,-149.049 255.046,-157.683 261.77,-159.628"/>
</g>
<!-- Node7 -->
<g id="node7" class="node"><title>Node7</title>
<g id="a_node7"><a xlink:href="source_8cpp.html" target="_top" xlink:title="Om source file.">
<polygon fill="none" stroke="black" points="120.207,-59 120.207,-79 201.793,-79 201.793,-59 120.207,-59"/>
<text text-anchor="middle" x="161" y="-65" font-family="Helvetica,sans-Serif" font-size="10.00">om/source.cpp</text>
</a>
</g>
</g>
<!-- Node6&#45;&gt;Node7 -->
<g id="edge6" class="edge"><title>Node6&#45;&gt;Node7</title>
<path fill="none" stroke="midnightblue" d="M156.045,-122.852C154.252,-114.06 153.802,-100.498 154.696,-89.3131"/>
<polygon fill="midnightblue" stroke="midnightblue" points="158.194,-89.5588 156.037,-79.1858 151.254,-88.6398 158.194,-89.5588"/>
</g>
<!-- Node8 -->
<g id="node8" class="node"><title>Node8</title>
<polygon fill="none" stroke="#bfbfbf" points="100.884,-1 100.884,-21 149.116,-21 149.116,-1 100.884,-1"/>
<text text-anchor="middle" x="125" y="-7" font-family="Helvetica,sans-Serif" font-size="10.00">cassert</text>
</g>
<!-- Node7&#45;&gt;Node8 -->
<g id="edge7" class="edge"><title>Node7&#45;&gt;Node8</title>
<path fill="none" stroke="midnightblue" d="M155.055,-58.7527C149.97,-50.8427 142.51,-39.2372 136.294,-29.5683"/>
<polygon fill="midnightblue" stroke="midnightblue" points="139.186,-27.5943 130.834,-21.0752 133.298,-31.3797 139.186,-27.5943"/>
</g>
<!-- Node9 -->
<g id="node9" class="node"><title>Node9</title>
<polygon fill="none" stroke="#bfbfbf" points="167.599,-1 167.599,-21 226.401,-21 226.401,-1 167.599,-1"/>
<text text-anchor="middle" x="197" y="-7" font-family="Helvetica,sans-Serif" font-size="10.00">stdexcept</text>
</g>
<!-- Node7&#45;&gt;Node9 -->
<g id="edge8" class="edge"><title>Node7&#45;&gt;Node9</title>
<path fill="none" stroke="midnightblue" d="M166.945,-58.7527C172.03,-50.8427 179.49,-39.2372 185.706,-29.5683"/>
<polygon fill="midnightblue" stroke="midnightblue" points="188.702,-31.3797 191.166,-21.0752 182.814,-27.5943 188.702,-31.3797"/>
</g>
<!-- Node7&#45;&gt;Node6 -->
<g id="edge9" class="edge"><title>Node7&#45;&gt;Node6</title>
<path fill="none" stroke="midnightblue" d="M165.963,-79.1858C167.752,-87.991 168.198,-101.557 167.3,-112.735"/>
<polygon fill="midnightblue" stroke="midnightblue" points="163.804,-112.478 165.955,-122.852 170.743,-113.4 163.804,-112.478"/>
</g>
<!-- Node10&#45;&gt;Node5 -->
<g id="edge11" class="edge"><title>Node10&#45;&gt;Node5</title>
<path fill="none" stroke="midnightblue" d="M272.617,-149.049C271.927,-157.317 270.042,-167.782 267.626,-177.221"/>
<polygon fill="midnightblue" stroke="midnightblue" points="264.24,-176.33 264.827,-186.909 270.965,-178.273 264.24,-176.33"/>
</g>
<!-- Node11&#45;&gt;Node4 -->
<g id="edge13" class="edge"><title>Node11&#45;&gt;Node4</title>
<path fill="none" stroke="midnightblue" d="M373.19,-219.049C369.969,-227.581 364.787,-238.452 359.416,-248.122"/>
<polygon fill="midnightblue" stroke="midnightblue" points="356.303,-246.511 354.266,-256.909 362.342,-250.051 356.303,-246.511"/>
</g>
<!-- Node13 -->
<g id="node13" class="node"><title>Node13</title>
<g id="a_node13"><a xlink:href="utf8_8hpp.html" target="_top" xlink:title="Om header file.">
<polygon fill="none" stroke="black" points="105.594,-193 105.594,-213 174.406,-213 174.406,-193 105.594,-193"/>
<text text-anchor="middle" x="140" y="-199" font-family="Helvetica,sans-Serif" font-size="10.00">om/utf8.hpp</text>
</a>
</g>
</g>
<!-- Node12&#45;&gt;Node13 -->
<g id="edge15" class="edge"><title>Node12&#45;&gt;Node13</title>
<path fill="none" stroke="midnightblue" d="M170.345,-256.909C164.374,-246.498 156.414,-232.62 150.145,-221.689"/>
<polygon fill="midnightblue" stroke="midnightblue" points="153.175,-219.937 145.164,-213.004 147.103,-223.419 153.175,-219.937"/>
</g>
<!-- Node12&#45;&gt;Node1 -->
<g id="edge17" class="edge"><title>Node12&#45;&gt;Node1</title>
<path fill="none" stroke="midnightblue" d="M184.715,-289.049C185.716,-297.229 185.991,-307.56 185.539,-316.92"/>
<polygon fill="midnightblue" stroke="midnightblue" points="182.049,-316.656 184.72,-326.909 189.026,-317.228 182.049,-316.656"/>
</g>
<!-- Node13&#45;&gt;Node3 -->
<g id="edge16" class="edge"><title>Node13&#45;&gt;Node3</title>
<path fill="none" stroke="midnightblue" d="M127.997,-192.829C113.451,-181.716 88.7203,-162.82 71.2156,-149.446"/>
<polygon fill="midnightblue" stroke="midnightblue" points="72.8838,-146.316 62.8128,-143.025 68.634,-151.878 72.8838,-146.316"/>
</g>
</g>
</svg>
