<?xml version="1.0" encoding="UTF-8" standalone="no"?>
<!DOCTYPE svg PUBLIC "-//W3C//DTD SVG 1.1//EN"
 "http://www.w3.org/Graphics/SVG/1.1/DTD/svg11.dtd">
<!-- Generated by graphviz version 2.28.0 (20120817.0054)
 -->
<!-- Title: code/om/sources/code_point_source.hpp Pages: 1 -->
<svg width="411pt" height="300pt"
 viewBox="0.00 0.00 411.00 300.00" xmlns="http://www.w3.org/2000/svg" xmlns:xlink="http://www.w3.org/1999/xlink">
<g id="graph1" class="graph" transform="scale(1 1) rotate(0) translate(4 296)">
<title>code/om/sources/code_point_source.hpp</title>
<!-- Node1 -->
<g id="node1" class="node"><title>Node1</title>
<polygon fill="#bfbfbf" stroke="black" points="228,-261 228,-291 340,-291 340,-261 228,-261"/>
<text text-anchor="start" x="236" y="-279" font-family="Helvetica,sans-Serif" font-size="10.00">code/om/sources/code</text>
<text text-anchor="middle" x="284" y="-268" font-family="Helvetica,sans-Serif" font-size="10.00">_point_source.hpp</text>
</g>
<!-- Node2 -->
<g id="node3" class="node"><title>Node2</title>
<a xlink:href="code__point_8hpp.html" target="_top" xlink:title="Om header file.">
<polygon fill="none" stroke="black" points="59,-198.5 59,-217.5 157,-217.5 157,-198.5 59,-198.5"/>
<text text-anchor="middle" x="108" y="-205.5" font-family="Helvetica,sans-Serif" font-size="10.00">om/code_point.hpp</text>
</a>
</g>
<!-- Node1&#45;&gt;Node2 -->
<g id="edge2" class="edge"><title>Node1&#45;&gt;Node2</title>
<path fill="none" stroke="midnightblue" d="M246.244,-260.841C214.754,-249.033 170.358,-232.384 140.447,-221.168"/>
<polygon fill="midnightblue" stroke="midnightblue" points="141.49,-217.821 130.898,-217.587 139.033,-224.375 141.49,-217.821"/>
</g>
<!-- Node4 -->
<g id="node7" class="node"><title>Node4</title>
<a xlink:href="iterator__source_8hpp.html" target="_top" xlink:title="Om header file.">
<polygon fill="none" stroke="black" points="175.5,-193 175.5,-223 270.5,-223 270.5,-193 175.5,-193"/>
<text text-anchor="start" x="183.5" y="-211" font-family="Helvetica,sans-Serif" font-size="10.00">om/sources/iterator</text>
<text text-anchor="middle" x="223" y="-200" font-family="Helvetica,sans-Serif" font-size="10.00">_source.hpp</text>
</a>
</g>
<!-- Node1&#45;&gt;Node4 -->
<g id="edge6" class="edge"><title>Node1&#45;&gt;Node4</title>
<path fill="none" stroke="midnightblue" d="M270.764,-260.679C262.69,-251.944 252.211,-240.605 243.125,-230.775"/>
<polygon fill="midnightblue" stroke="midnightblue" points="245.568,-228.261 236.21,-223.293 240.427,-233.012 245.568,-228.261"/>
</g>
<!-- Node10 -->
<g id="node22" class="node"><title>Node10</title>
<a xlink:href="code__point__source_8cpp.html" target="_top" xlink:title="Om source file.">
<polygon fill="none" stroke="black" points="289,-193 289,-223 403,-223 403,-193 289,-193"/>
<text text-anchor="start" x="297" y="-211" font-family="Helvetica,sans-Serif" font-size="10.00">om/sources/code_point</text>
<text text-anchor="middle" x="346" y="-200" font-family="Helvetica,sans-Serif" font-size="10.00">_source.cpp</text>
</a>
</g>
<!-- Node1&#45;&gt;Node10 -->
<g id="edge24" class="edge"><title>Node1&#45;&gt;Node10</title>
<path fill="none" stroke="midnightblue" d="M291.775,-260.679C298.922,-251.857 309.473,-240.38 319.448,-230.483"/>
<polygon fill="midnightblue" stroke="midnightblue" points="322.133,-232.756 326.898,-223.293 317.272,-227.719 322.133,-232.756"/>
</g>
<!-- Node3 -->
<g id="node5" class="node"><title>Node3</title>
<polygon fill="none" stroke="#bfbfbf" points="0,-130.5 0,-149.5 100,-149.5 100,-130.5 0,-130.5"/>
<text text-anchor="middle" x="50" y="-137.5" font-family="Helvetica,sans-Serif" font-size="10.00">boost/locale/utf.hpp</text>
</g>
<!-- Node2&#45;&gt;Node3 -->
<g id="edge4" class="edge"><title>Node2&#45;&gt;Node3</title>
<path fill="none" stroke="midnightblue" d="M100.418,-198.372C91.3496,-188.053 75.9693,-170.551 64.5751,-157.585"/>
<polygon fill="midnightblue" stroke="midnightblue" points="66.9997,-155.042 57.7695,-149.841 61.7416,-159.663 66.9997,-155.042"/>
</g>
<!-- Node5 -->
<g id="node9" class="node"><title>Node5</title>
<a xlink:href="default__source_8hpp.html" target="_top" xlink:title="Om header file.">
<polygon fill="none" stroke="black" points="118,-125 118,-155 214,-155 214,-125 118,-125"/>
<text text-anchor="start" x="126" y="-143" font-family="Helvetica,sans-Serif" font-size="10.00">om/sources/default</text>
<text text-anchor="middle" x="166" y="-132" font-family="Helvetica,sans-Serif" font-size="10.00">_source.hpp</text>
</a>
</g>
<!-- Node4&#45;&gt;Node5 -->
<g id="edge8" class="edge"><title>Node4&#45;&gt;Node5</title>
<path fill="none" stroke="midnightblue" d="M210.632,-192.679C203.162,-184.03 193.489,-172.829 185.058,-163.067"/>
<polygon fill="midnightblue" stroke="midnightblue" points="187.529,-160.574 178.344,-155.293 182.231,-165.149 187.529,-160.574"/>
</g>
<!-- Node9 -->
<g id="node19" class="node"><title>Node9</title>
<a xlink:href="iterator__source_8cpp.html" target="_top" xlink:title="Om source file.">
<polygon fill="none" stroke="black" points="232.5,-125 232.5,-155 327.5,-155 327.5,-125 232.5,-125"/>
<text text-anchor="start" x="240.5" y="-143" font-family="Helvetica,sans-Serif" font-size="10.00">om/sources/iterator</text>
<text text-anchor="middle" x="280" y="-132" font-family="Helvetica,sans-Serif" font-size="10.00">_source.cpp</text>
</a>
</g>
<!-- Node4&#45;&gt;Node9 -->
<g id="edge20" class="edge"><title>Node4&#45;&gt;Node9</title>
<path fill="none" stroke="midnightblue" d="M229.69,-192.679C236.105,-183.944 245.661,-172.605 254.804,-162.775"/>
<polygon fill="midnightblue" stroke="midnightblue" points="257.584,-164.933 261.981,-155.293 252.533,-160.087 257.584,-164.933"/>
</g>
<!-- Node6 -->
<g id="node11" class="node"><title>Node6</title>
<a xlink:href="source_8hpp.html" target="_top" xlink:title="Om header file.">
<polygon fill="none" stroke="black" points="20,-62.5 20,-81.5 100,-81.5 100,-62.5 20,-62.5"/>
<text text-anchor="middle" x="60" y="-69.5" font-family="Helvetica,sans-Serif" font-size="10.00">om/source.hpp</text>
</a>
</g>
<!-- Node5&#45;&gt;Node6 -->
<g id="edge10" class="edge"><title>Node5&#45;&gt;Node6</title>
<path fill="none" stroke="midnightblue" d="M143.26,-124.841C125.337,-113.681 100.469,-98.1977 82.5853,-87.0625"/>
<polygon fill="midnightblue" stroke="midnightblue" points="84.2826,-83.9964 73.9436,-81.6819 80.5826,-89.9387 84.2826,-83.9964"/>
</g>
<!-- Node8 -->
<g id="node16" class="node"><title>Node8</title>
<a xlink:href="default__source_8cpp.html" target="_top" xlink:title="Om source file.">
<polygon fill="none" stroke="black" points="118,-57 118,-87 214,-87 214,-57 118,-57"/>
<text text-anchor="start" x="126" y="-75" font-family="Helvetica,sans-Serif" font-size="10.00">om/sources/default</text>
<text text-anchor="middle" x="166" y="-64" font-family="Helvetica,sans-Serif" font-size="10.00">_source.cpp</text>
</a>
</g>
<!-- Node5&#45;&gt;Node8 -->
<g id="edge16" class="edge"><title>Node5&#45;&gt;Node8</title>
<path fill="none" stroke="midnightblue" d="M160.322,-124.679C159.294,-116.722 159.005,-106.605 159.456,-97.4356"/>
<polygon fill="midnightblue" stroke="midnightblue" points="162.959,-97.5554 160.325,-87.2931 155.984,-96.9578 162.959,-97.5554"/>
</g>
<!-- Node7 -->
<g id="node13" class="node"><title>Node7</title>
<a xlink:href="source_8cpp.html" target="_top" xlink:title="Om source file.">
<polygon fill="none" stroke="black" points="20.5,-0.5 20.5,-19.5 99.5,-19.5 99.5,-0.5 20.5,-0.5"/>
<text text-anchor="middle" x="60" y="-7.5" font-family="Helvetica,sans-Serif" font-size="10.00">om/source.cpp</text>
</a>
</g>
<!-- Node6&#45;&gt;Node7 -->
<g id="edge12" class="edge"><title>Node6&#45;&gt;Node7</title>
<path fill="none" stroke="midnightblue" d="M55.0994,-62.4035C53.2684,-53.9381 52.797,-40.7283 53.6851,-29.8199"/>
<polygon fill="midnightblue" stroke="midnightblue" points="57.1982,-29.9661 55.1029,-19.5806 50.2644,-29.006 57.1982,-29.9661"/>
</g>
<!-- Node7&#45;&gt;Node6 -->
<g id="edge14" class="edge"><title>Node7&#45;&gt;Node6</title>
<path fill="none" stroke="midnightblue" d="M64.8971,-19.5806C66.7298,-28.04 67.203,-41.2482 66.3165,-52.1595"/>
<polygon fill="midnightblue" stroke="midnightblue" points="62.8028,-52.0184 64.9006,-62.4035 69.7369,-52.9769 62.8028,-52.0184"/>
</g>
<!-- Node8&#45;&gt;Node5 -->
<g id="edge18" class="edge"><title>Node8&#45;&gt;Node5</title>
<path fill="none" stroke="midnightblue" d="M171.675,-87.2931C172.704,-95.2449 172.995,-105.361 172.545,-114.532"/>
<polygon fill="midnightblue" stroke="midnightblue" points="169.042,-114.417 171.678,-124.679 176.017,-115.013 169.042,-114.417"/>
</g>
<!-- Node9&#45;&gt;Node4 -->
<g id="edge22" class="edge"><title>Node9&#45;&gt;Node4</title>
<path fill="none" stroke="midnightblue" d="M273.331,-155.293C266.922,-164.023 257.369,-175.36 248.225,-185.194"/>
<polygon fill="midnightblue" stroke="midnightblue" points="245.442,-183.039 241.047,-192.679 250.494,-187.884 245.442,-183.039"/>
</g>
<!-- Node10&#45;&gt;Node1 -->
<g id="edge26" class="edge"><title>Node10&#45;&gt;Node1</title>
<path fill="none" stroke="midnightblue" d="M338.248,-223.293C331.108,-232.109 320.56,-243.585 310.583,-253.485"/>
<polygon fill="midnightblue" stroke="midnightblue" points="307.895,-251.216 303.131,-260.679 312.757,-256.252 307.895,-251.216"/>
</g>
</g>
</svg>
