<?xml version="1.0" encoding="UTF-8" standalone="no"?>
<!DOCTYPE svg PUBLIC "-//W3C//DTD SVG 1.1//EN"
 "http://www.w3.org/Graphics/SVG/1.1/DTD/svg11.dtd">
<!-- Generated by graphviz version 2.30.1 (20130221.2233)
 -->
<!-- Title: om/sources/code_point_source.cpp Pages: 1 -->
<svg width="348pt" height="438pt"
 viewBox="0.00 0.00 348.00 438.00" xmlns="http://www.w3.org/2000/svg" xmlns:xlink="http://www.w3.org/1999/xlink">
<g id="graph0" class="graph" transform="scale(1 1) rotate(0) translate(4 434)">
<title>om/sources/code_point_source.cpp</title>
<!-- Node1 -->
<g id="node1" class="node"><title>Node1</title>
<polygon fill="#bfbfbf" stroke="black" points="103.303,-397 103.303,-429 222.697,-429 222.697,-397 103.303,-397"/>
<text text-anchor="start" x="111.303" y="-415" font-family="Helvetica,sans-Serif" font-size="10.00">om/sources/code_point</text>
<text text-anchor="middle" x="163" y="-403" font-family="Helvetica,sans-Serif" font-size="10.00">_source.cpp</text>
</g>
<!-- Node2 -->
<g id="node2" class="node"><title>Node2</title>
<g id="a_node2"><a xlink:href="utf8_8hpp.html" target="_top" xlink:title="Om header file.">
<polygon fill="none" stroke="black" points="16.5938,-333 16.5938,-353 85.4062,-353 85.4062,-333 16.5938,-333"/>
<text text-anchor="middle" x="51" y="-339" font-family="Helvetica,sans-Serif" font-size="10.00">om/utf8.hpp</text>
</a>
</g>
</g>
<!-- Node1&#45;&gt;Node2 -->
<g id="edge1" class="edge"><title>Node1&#45;&gt;Node2</title>
<path fill="none" stroke="midnightblue" d="M138.144,-396.909C119.178,-385.394 93.2258,-369.637 74.5834,-358.318"/>
<polygon fill="midnightblue" stroke="midnightblue" points="76.1937,-355.202 65.8294,-353.004 72.5608,-361.185 76.1937,-355.202"/>
</g>
<!-- Node4 -->
<g id="node4" class="node"><title>Node4</title>
<g id="a_node4"><a xlink:href="code__point__source_8hpp.html" target="_top" xlink:title="Om header file.">
<polygon fill="none" stroke="black" points="103.303,-327 103.303,-359 222.697,-359 222.697,-327 103.303,-327"/>
<text text-anchor="start" x="111.303" y="-345" font-family="Helvetica,sans-Serif" font-size="10.00">om/sources/code_point</text>
<text text-anchor="middle" x="163" y="-333" font-family="Helvetica,sans-Serif" font-size="10.00">_source.hpp</text>
</a>
</g>
</g>
<!-- Node1&#45;&gt;Node4 -->
<g id="edge3" class="edge"><title>Node1&#45;&gt;Node4</title>
<path fill="none" stroke="midnightblue" d="M157.28,-396.909C156.281,-388.721 156.009,-378.389 156.463,-369.032"/>
<polygon fill="midnightblue" stroke="midnightblue" points="159.953,-369.303 157.285,-359.049 152.976,-368.728 159.953,-369.303"/>
</g>
<!-- Node3 -->
<g id="node3" class="node"><title>Node3</title>
<polygon fill="none" stroke="#bfbfbf" points="-0.364258,-193 -0.364258,-213 102.364,-213 102.364,-193 -0.364258,-193"/>
<text text-anchor="middle" x="51" y="-199" font-family="Helvetica,sans-Serif" font-size="10.00">boost/locale/utf.hpp</text>
</g>
<!-- Node2&#45;&gt;Node3 -->
<g id="edge2" class="edge"><title>Node2&#45;&gt;Node3</title>
<path fill="none" stroke="midnightblue" d="M51,-332.945C51,-310.826 51,-253.649 51,-223.41"/>
<polygon fill="midnightblue" stroke="midnightblue" points="54.5001,-223.269 51,-213.269 47.5001,-223.269 54.5001,-223.269"/>
</g>
<!-- Node5 -->
<g id="node5" class="node"><title>Node5</title>
<g id="a_node5"><a xlink:href="code__point_8hpp.html" target="_top" xlink:title="Om header file.">
<polygon fill="none" stroke="black" points="95.4683,-263 95.4683,-283 196.532,-283 196.532,-263 95.4683,-263"/>
<text text-anchor="middle" x="146" y="-269" font-family="Helvetica,sans-Serif" font-size="10.00">om/code_point.hpp</text>
</a>
</g>
</g>
<!-- Node4&#45;&gt;Node5 -->
<g id="edge4" class="edge"><title>Node4&#45;&gt;Node5</title>
<path fill="none" stroke="midnightblue" d="M159.227,-326.909C156.73,-316.919 153.434,-303.736 150.757,-293.028"/>
<polygon fill="midnightblue" stroke="midnightblue" points="154.072,-291.856 148.251,-283.004 147.281,-293.554 154.072,-291.856"/>
</g>
<!-- Node6 -->
<g id="node6" class="node"><title>Node6</title>
<g id="a_node6"><a xlink:href="iterator__source_8hpp.html" target="_top" xlink:title="Om header file.">
<polygon fill="none" stroke="black" points="226.207,-257 226.207,-289 327.793,-289 327.793,-257 226.207,-257"/>
<text text-anchor="start" x="234.207" y="-275" font-family="Helvetica,sans-Serif" font-size="10.00">om/sources/iterator</text>
<text text-anchor="middle" x="277" y="-263" font-family="Helvetica,sans-Serif" font-size="10.00">_source.hpp</text>
</a>
</g>
</g>
<!-- Node4&#45;&gt;Node6 -->
<g id="edge6" class="edge"><title>Node4&#45;&gt;Node6</title>
<path fill="none" stroke="midnightblue" d="M188.3,-326.909C204.388,-317.313 225.415,-304.77 242.958,-294.305"/>
<polygon fill="midnightblue" stroke="midnightblue" points="244.975,-297.178 251.77,-289.049 241.389,-291.166 244.975,-297.178"/>
</g>
<!-- Node4&#45;&gt;Node1 -->
<g id="edge17" class="edge"><title>Node4&#45;&gt;Node1</title>
<path fill="none" stroke="midnightblue" d="M168.715,-359.049C169.716,-367.229 169.991,-377.56 169.539,-386.92"/>
<polygon fill="midnightblue" stroke="midnightblue" points="166.049,-386.656 168.72,-396.909 173.026,-387.228 166.049,-386.656"/>
</g>
<!-- Node5&#45;&gt;Node3 -->
<g id="edge5" class="edge"><title>Node5&#45;&gt;Node3</title>
<path fill="none" stroke="midnightblue" d="M133.188,-262.829C117.448,-251.563 90.5346,-232.298 71.8115,-218.897"/>
<polygon fill="midnightblue" stroke="midnightblue" points="73.7779,-216 63.6091,-213.025 69.7035,-221.692 73.7779,-216"/>
</g>
<!-- Node7 -->
<g id="node7" class="node"><title>Node7</title>
<g id="a_node7"><a xlink:href="default__source_8hpp.html" target="_top" xlink:title="Om header file.">
<polygon fill="none" stroke="black" points="120.756,-187 120.756,-219 221.244,-219 221.244,-187 120.756,-187"/>
<text text-anchor="start" x="128.756" y="-205" font-family="Helvetica,sans-Serif" font-size="10.00">om/sources/default</text>
<text text-anchor="middle" x="171" y="-193" font-family="Helvetica,sans-Serif" font-size="10.00">_source.hpp</text>
</a>
</g>
</g>
<!-- Node6&#45;&gt;Node7 -->
<g id="edge7" class="edge"><title>Node6&#45;&gt;Node7</title>
<path fill="none" stroke="midnightblue" d="M253.475,-256.909C238.654,-247.401 219.323,-235 203.102,-224.594"/>
<polygon fill="midnightblue" stroke="midnightblue" points="204.766,-221.503 194.459,-219.049 200.986,-227.395 204.766,-221.503"/>
</g>
<!-- Node13 -->
<g id="node13" class="node"><title>Node13</title>
<g id="a_node13"><a xlink:href="iterator__source_8cpp.html" target="_top" xlink:title="Om source file.">
<polygon fill="none" stroke="black" points="239.207,-187 239.207,-219 340.793,-219 340.793,-187 239.207,-187"/>
<text text-anchor="start" x="247.207" y="-205" font-family="Helvetica,sans-Serif" font-size="10.00">om/sources/iterator</text>
<text text-anchor="middle" x="290" y="-193" font-family="Helvetica,sans-Serif" font-size="10.00">_source.cpp</text>
</a>
</g>
</g>
<!-- Node6&#45;&gt;Node13 -->
<g id="edge15" class="edge"><title>Node6&#45;&gt;Node13</title>
<path fill="none" stroke="midnightblue" d="M274.165,-256.909C274.737,-248.633 276.471,-238.166 278.75,-228.731"/>
<polygon fill="midnightblue" stroke="midnightblue" points="282.136,-229.619 281.408,-219.049 275.385,-227.766 282.136,-229.619"/>
</g>
<!-- Node8 -->
<g id="node8" class="node"><title>Node8</title>
<g id="a_node8"><a xlink:href="source_8hpp.html" target="_top" xlink:title="Om header file.">
<polygon fill="none" stroke="black" points="20.9263,-123 20.9263,-143 103.074,-143 103.074,-123 20.9263,-123"/>
<text text-anchor="middle" x="62" y="-129" font-family="Helvetica,sans-Serif" font-size="10.00">om/source.hpp</text>
</a>
</g>
</g>
<!-- Node7&#45;&gt;Node8 -->
<g id="edge8" class="edge"><title>Node7&#45;&gt;Node8</title>
<path fill="none" stroke="midnightblue" d="M146.809,-186.909C128.437,-175.447 103.325,-159.781 85.2006,-148.474"/>
<polygon fill="midnightblue" stroke="midnightblue" points="86.7691,-145.327 76.4322,-143.004 83.064,-151.266 86.7691,-145.327"/>
</g>
<!-- Node12 -->
<g id="node12" class="node"><title>Node12</title>
<g id="a_node12"><a xlink:href="default__source_8cpp.html" target="_top" xlink:title="Om source file.">
<polygon fill="none" stroke="black" points="120.756,-117 120.756,-149 221.244,-149 221.244,-117 120.756,-117"/>
<text text-anchor="start" x="128.756" y="-135" font-family="Helvetica,sans-Serif" font-size="10.00">om/sources/default</text>
<text text-anchor="middle" x="171" y="-123" font-family="Helvetica,sans-Serif" font-size="10.00">_source.cpp</text>
</a>
</g>
</g>
<!-- Node7&#45;&gt;Node12 -->
<g id="edge13" class="edge"><title>Node7&#45;&gt;Node12</title>
<path fill="none" stroke="midnightblue" d="M165.28,-186.909C164.281,-178.721 164.009,-168.389 164.463,-159.032"/>
<polygon fill="midnightblue" stroke="midnightblue" points="167.953,-159.303 165.285,-149.049 160.976,-158.728 167.953,-159.303"/>
</g>
<!-- Node9 -->
<g id="node9" class="node"><title>Node9</title>
<g id="a_node9"><a xlink:href="source_8cpp.html" target="_top" xlink:title="Om source file.">
<polygon fill="none" stroke="black" points="21.207,-59 21.207,-79 102.793,-79 102.793,-59 21.207,-59"/>
<text text-anchor="middle" x="62" y="-65" font-family="Helvetica,sans-Serif" font-size="10.00">om/source.cpp</text>
</a>
</g>
</g>
<!-- Node8&#45;&gt;Node9 -->
<g id="edge9" class="edge"><title>Node8&#45;&gt;Node9</title>
<path fill="none" stroke="midnightblue" d="M57.0446,-122.852C55.2519,-114.06 54.8023,-100.498 55.6958,-89.3131"/>
<polygon fill="midnightblue" stroke="midnightblue" points="59.1937,-89.5588 57.037,-79.1858 52.2543,-88.6398 59.1937,-89.5588"/>
</g>
<!-- Node10 -->
<g id="node10" class="node"><title>Node10</title>
<polygon fill="none" stroke="#bfbfbf" points="1.88428,-1 1.88428,-21 50.1157,-21 50.1157,-1 1.88428,-1"/>
<text text-anchor="middle" x="26" y="-7" font-family="Helvetica,sans-Serif" font-size="10.00">cassert</text>
</g>
<!-- Node9&#45;&gt;Node10 -->
<g id="edge10" class="edge"><title>Node9&#45;&gt;Node10</title>
<path fill="none" stroke="midnightblue" d="M56.0553,-58.7527C50.9703,-50.8427 43.5096,-39.2372 37.2939,-29.5683"/>
<polygon fill="midnightblue" stroke="midnightblue" points="40.1858,-27.5943 31.8341,-21.0752 34.2975,-31.3797 40.1858,-27.5943"/>
</g>
<!-- Node11 -->
<g id="node11" class="node"><title>Node11</title>
<polygon fill="none" stroke="#bfbfbf" points="68.5986,-1 68.5986,-21 127.401,-21 127.401,-1 68.5986,-1"/>
<text text-anchor="middle" x="98" y="-7" font-family="Helvetica,sans-Serif" font-size="10.00">stdexcept</text>
</g>
<!-- Node9&#45;&gt;Node11 -->
<g id="edge11" class="edge"><title>Node9&#45;&gt;Node11</title>
<path fill="none" stroke="midnightblue" d="M67.9447,-58.7527C73.0297,-50.8427 80.4904,-39.2372 86.7061,-29.5683"/>
<polygon fill="midnightblue" stroke="midnightblue" points="89.7025,-31.3797 92.1659,-21.0752 83.8142,-27.5943 89.7025,-31.3797"/>
</g>
<!-- Node9&#45;&gt;Node8 -->
<g id="edge12" class="edge"><title>Node9&#45;&gt;Node8</title>
<path fill="none" stroke="midnightblue" d="M66.963,-79.1858C68.7519,-87.991 69.1977,-101.557 68.3004,-112.735"/>
<polygon fill="midnightblue" stroke="midnightblue" points="64.8038,-112.478 66.9554,-122.852 71.7428,-113.4 64.8038,-112.478"/>
</g>
<!-- Node12&#45;&gt;Node7 -->
<g id="edge14" class="edge"><title>Node12&#45;&gt;Node7</title>
<path fill="none" stroke="midnightblue" d="M176.715,-149.049C177.716,-157.229 177.991,-167.56 177.539,-176.92"/>
<polygon fill="midnightblue" stroke="midnightblue" points="174.049,-176.656 176.72,-186.909 181.026,-177.228 174.049,-176.656"/>
</g>
<!-- Node13&#45;&gt;Node6 -->
<g id="edge16" class="edge"><title>Node13&#45;&gt;Node6</title>
<path fill="none" stroke="midnightblue" d="M292.838,-219.049C292.269,-227.317 290.539,-237.782 288.261,-247.221"/>
<polygon fill="midnightblue" stroke="midnightblue" points="284.874,-246.339 285.605,-256.909 291.625,-248.19 284.874,-246.339"/>
</g>
</g>
</svg>
