<?xml version="1.0" encoding="UTF-8" standalone="no"?>
<!DOCTYPE svg PUBLIC "-//W3C//DTD SVG 1.1//EN"
 "http://www.w3.org/Graphics/SVG/1.1/DTD/svg11.dtd">
<!-- Generated by graphviz version 2.30.1 (20130221.2233)
 -->
<!-- Title: om/sources/code_point_string_front_source.cpp Pages: 1 -->
<svg width="241pt" height="368pt"
 viewBox="0.00 0.00 241.00 368.00" xmlns="http://www.w3.org/2000/svg" xmlns:xlink="http://www.w3.org/1999/xlink">
<g id="graph0" class="graph" transform="scale(1 1) rotate(0) translate(4 364)">
<title>om/sources/code_point_string_front_source.cpp</title>
<!-- Node1 -->
<g id="node1" class="node"><title>Node1</title>
<polygon fill="#bfbfbf" stroke="black" points="106.968,-327 106.968,-359 233.032,-359 233.032,-327 106.968,-327"/>
<text text-anchor="start" x="114.968" y="-345" font-family="Helvetica,sans-Serif" font-size="10.00">om/sources/code_point</text>
<text text-anchor="middle" x="170" y="-333" font-family="Helvetica,sans-Serif" font-size="10.00">_string_front_source.cpp</text>
</g>
<!-- Node2 -->
<g id="node2" class="node"><title>Node2</title>
<g id="a_node2"><a xlink:href="utf8_8hpp.html" target="_top" xlink:title="Om header file. ">
<polygon fill="none" stroke="black" points="18.5938,-263 18.5938,-283 87.4062,-283 87.4062,-263 18.5938,-263"/>
<text text-anchor="middle" x="53" y="-269" font-family="Helvetica,sans-Serif" font-size="10.00">om/utf8.hpp</text>
</a>
</g>
</g>
<!-- Node1&#45;&gt;Node2 -->
<g id="edge1" class="edge"><title>Node1&#45;&gt;Node2</title>
<path fill="none" stroke="midnightblue" d="M144.034,-326.909C124.132,-315.341 96.8632,-299.493 77.3699,-288.164"/>
<polygon fill="midnightblue" stroke="midnightblue" points="78.896,-285.002 68.4914,-283.004 75.3785,-291.055 78.896,-285.002"/>
</g>
<!-- Node4 -->
<g id="node4" class="node"><title>Node4</title>
<g id="a_node4"><a xlink:href="code__point__string__front__source_8hpp.html" target="_top" xlink:title="Om header file. ">
<polygon fill="none" stroke="black" points="106.688,-257 106.688,-289 233.312,-289 233.312,-257 106.688,-257"/>
<text text-anchor="start" x="114.688" y="-275" font-family="Helvetica,sans-Serif" font-size="10.00">om/sources/code_point</text>
<text text-anchor="middle" x="170" y="-263" font-family="Helvetica,sans-Serif" font-size="10.00">_string_front_source.hpp</text>
</a>
</g>
</g>
<!-- Node1&#45;&gt;Node4 -->
<g id="edge3" class="edge"><title>Node1&#45;&gt;Node4</title>
<path fill="none" stroke="midnightblue" d="M164.28,-326.909C163.281,-318.721 163.009,-308.389 163.463,-299.032"/>
<polygon fill="midnightblue" stroke="midnightblue" points="166.953,-299.303 164.285,-289.049 159.976,-298.728 166.953,-299.303"/>
</g>
<!-- Node3 -->
<g id="node3" class="node"><title>Node3</title>
<polygon fill="none" stroke="#bfbfbf" points="-0.364258,-193 -0.364258,-213 102.364,-213 102.364,-193 -0.364258,-193"/>
<text text-anchor="middle" x="51" y="-199" font-family="Helvetica,sans-Serif" font-size="10.00">boost/locale/utf.hpp</text>
</g>
<!-- Node2&#45;&gt;Node3 -->
<g id="edge2" class="edge"><title>Node2&#45;&gt;Node3</title>
<path fill="none" stroke="midnightblue" d="M52.7303,-262.829C52.4334,-252.735 51.9477,-236.222 51.5663,-223.256"/>
<polygon fill="midnightblue" stroke="midnightblue" points="55.058,-222.918 51.2655,-213.025 48.0611,-223.124 55.058,-222.918"/>
</g>
<!-- Node5 -->
<g id="node5" class="node"><title>Node5</title>
<g id="a_node5"><a xlink:href="default__source_8hpp.html" target="_top" xlink:title="Om header file. ">
<polygon fill="none" stroke="black" points="120.756,-187 120.756,-219 221.244,-219 221.244,-187 120.756,-187"/>
<text text-anchor="start" x="128.756" y="-205" font-family="Helvetica,sans-Serif" font-size="10.00">om/sources/default</text>
<text text-anchor="middle" x="171" y="-193" font-family="Helvetica,sans-Serif" font-size="10.00">_source.hpp</text>
</a>
</g>
</g>
<!-- Node4&#45;&gt;Node5 -->
<g id="edge4" class="edge"><title>Node4&#45;&gt;Node5</title>
<path fill="none" stroke="midnightblue" d="M170.222,-256.909C170.341,-248.809 170.491,-238.611 170.627,-229.334"/>
<polygon fill="midnightblue" stroke="midnightblue" points="174.131,-229.1 170.779,-219.049 167.132,-228.997 174.131,-229.1"/>
</g>
<!-- Node4&#45;&gt;Node1 -->
<g id="edge12" class="edge"><title>Node4&#45;&gt;Node1</title>
<path fill="none" stroke="midnightblue" d="M175.715,-289.049C176.716,-297.229 176.991,-307.56 176.539,-316.92"/>
<polygon fill="midnightblue" stroke="midnightblue" points="173.049,-316.656 175.72,-326.909 180.026,-317.228 173.049,-316.656"/>
</g>
<!-- Node6 -->
<g id="node6" class="node"><title>Node6</title>
<g id="a_node6"><a xlink:href="source_8hpp.html" target="_top" xlink:title="Om header file. ">
<polygon fill="none" stroke="black" points="20.9263,-123 20.9263,-143 103.074,-143 103.074,-123 20.9263,-123"/>
<text text-anchor="middle" x="62" y="-129" font-family="Helvetica,sans-Serif" font-size="10.00">om/source.hpp</text>
</a>
</g>
</g>
<!-- Node5&#45;&gt;Node6 -->
<g id="edge5" class="edge"><title>Node5&#45;&gt;Node6</title>
<path fill="none" stroke="midnightblue" d="M146.809,-186.909C128.437,-175.447 103.325,-159.781 85.2006,-148.474"/>
<polygon fill="midnightblue" stroke="midnightblue" points="86.7691,-145.327 76.4322,-143.004 83.064,-151.266 86.7691,-145.327"/>
</g>
<!-- Node10 -->
<g id="node10" class="node"><title>Node10</title>
<g id="a_node10"><a xlink:href="default__source_8cpp.html" target="_top" xlink:title="Om source file. ">
<polygon fill="none" stroke="black" points="120.756,-117 120.756,-149 221.244,-149 221.244,-117 120.756,-117"/>
<text text-anchor="start" x="128.756" y="-135" font-family="Helvetica,sans-Serif" font-size="10.00">om/sources/default</text>
<text text-anchor="middle" x="171" y="-123" font-family="Helvetica,sans-Serif" font-size="10.00">_source.cpp</text>
</a>
</g>
</g>
<!-- Node5&#45;&gt;Node10 -->
<g id="edge10" class="edge"><title>Node5&#45;&gt;Node10</title>
<path fill="none" stroke="midnightblue" d="M165.28,-186.909C164.281,-178.721 164.009,-168.389 164.463,-159.032"/>
<polygon fill="midnightblue" stroke="midnightblue" points="167.953,-159.303 165.285,-149.049 160.976,-158.728 167.953,-159.303"/>
</g>
<!-- Node7 -->
<g id="node7" class="node"><title>Node7</title>
<g id="a_node7"><a xlink:href="source_8cpp.html" target="_top" xlink:title="Om source file. ">
<polygon fill="none" stroke="black" points="21.207,-59 21.207,-79 102.793,-79 102.793,-59 21.207,-59"/>
<text text-anchor="middle" x="62" y="-65" font-family="Helvetica,sans-Serif" font-size="10.00">om/source.cpp</text>
</a>
</g>
</g>
<!-- Node6&#45;&gt;Node7 -->
<g id="edge6" class="edge"><title>Node6&#45;&gt;Node7</title>
<path fill="none" stroke="midnightblue" d="M57.0446,-122.852C55.2519,-114.06 54.8023,-100.498 55.6958,-89.3131"/>
<polygon fill="midnightblue" stroke="midnightblue" points="59.1937,-89.5588 57.037,-79.1858 52.2543,-88.6398 59.1937,-89.5588"/>
</g>
<!-- Node8 -->
<g id="node8" class="node"><title>Node8</title>
<polygon fill="none" stroke="#bfbfbf" points="1.88428,-1 1.88428,-21 50.1157,-21 50.1157,-1 1.88428,-1"/>
<text text-anchor="middle" x="26" y="-7" font-family="Helvetica,sans-Serif" font-size="10.00">cassert</text>
</g>
<!-- Node7&#45;&gt;Node8 -->
<g id="edge7" class="edge"><title>Node7&#45;&gt;Node8</title>
<path fill="none" stroke="midnightblue" d="M56.0553,-58.7527C50.9703,-50.8427 43.5096,-39.2372 37.2939,-29.5683"/>
<polygon fill="midnightblue" stroke="midnightblue" points="40.1858,-27.5943 31.8341,-21.0752 34.2975,-31.3797 40.1858,-27.5943"/>
</g>
<!-- Node9 -->
<g id="node9" class="node"><title>Node9</title>
<polygon fill="none" stroke="#bfbfbf" points="68.5986,-1 68.5986,-21 127.401,-21 127.401,-1 68.5986,-1"/>
<text text-anchor="middle" x="98" y="-7" font-family="Helvetica,sans-Serif" font-size="10.00">stdexcept</text>
</g>
<!-- Node7&#45;&gt;Node9 -->
<g id="edge8" class="edge"><title>Node7&#45;&gt;Node9</title>
<path fill="none" stroke="midnightblue" d="M67.9447,-58.7527C73.0297,-50.8427 80.4904,-39.2372 86.7061,-29.5683"/>
<polygon fill="midnightblue" stroke="midnightblue" points="89.7025,-31.3797 92.1659,-21.0752 83.8142,-27.5943 89.7025,-31.3797"/>
</g>
<!-- Node7&#45;&gt;Node6 -->
<g id="edge9" class="edge"><title>Node7&#45;&gt;Node6</title>
<path fill="none" stroke="midnightblue" d="M66.963,-79.1858C68.7519,-87.991 69.1977,-101.557 68.3004,-112.735"/>
<polygon fill="midnightblue" stroke="midnightblue" points="64.8038,-112.478 66.9554,-122.852 71.7428,-113.4 64.8038,-112.478"/>
</g>
<!-- Node10&#45;&gt;Node5 -->
<g id="edge11" class="edge"><title>Node10&#45;&gt;Node5</title>
<path fill="none" stroke="midnightblue" d="M176.715,-149.049C177.716,-157.229 177.991,-167.56 177.539,-176.92"/>
<polygon fill="midnightblue" stroke="midnightblue" points="174.049,-176.656 176.72,-186.909 181.026,-177.228 174.049,-176.656"/>
</g>
</g>
</svg>
