<?xml version="1.0" encoding="UTF-8" standalone="no"?>
<!DOCTYPE svg PUBLIC "-//W3C//DTD SVG 1.1//EN"
 "http://www.w3.org/Graphics/SVG/1.1/DTD/svg11.dtd">
<!-- Generated by graphviz version 2.30.1 (20130221.2233)
 -->
<!-- Title: code/om/sinks/code_point_sink.hpp Pages: 1 -->
<svg width="449pt" height="228pt"
 viewBox="0.00 0.00 449.00 228.00" xmlns="http://www.w3.org/2000/svg" xmlns:xlink="http://www.w3.org/1999/xlink">
<g id="graph0" class="graph" transform="scale(1 1) rotate(0) translate(4 224)">
<title>code/om/sinks/code_point_sink.hpp</title>
<!-- Node1 -->
<g id="node1" class="node"><title>Node1</title>
<polygon fill="#bfbfbf" stroke="black" points="266.811,-187 266.811,-219 371.189,-219 371.189,-187 266.811,-187"/>
<text text-anchor="start" x="274.811" y="-205" font-family="Helvetica,sans-Serif" font-size="10.00">code/om/sinks/code</text>
<text text-anchor="middle" x="319" y="-193" font-family="Helvetica,sans-Serif" font-size="10.00">_point_sink.hpp</text>
</g>
<!-- Node2 -->
<g id="node2" class="node"><title>Node2</title>
<g id="a_node2"><a xlink:href="code__point_8hpp.html" target="_top" xlink:title="Om header file.">
<polygon fill="none" stroke="black" points="44.4683,-123 44.4683,-143 145.532,-143 145.532,-123 44.4683,-123"/>
<text text-anchor="middle" x="95" y="-129" font-family="Helvetica,sans-Serif" font-size="10.00">om/code_point.hpp</text>
</a>
</g>
</g>
<!-- Node1&#45;&gt;Node2 -->
<g id="edge1" class="edge"><title>Node1&#45;&gt;Node2</title>
<path fill="none" stroke="midnightblue" d="M269.565,-186.993C228.88,-174.642 171.977,-157.368 134.338,-145.942"/>
<polygon fill="midnightblue" stroke="midnightblue" points="135.32,-142.582 124.735,-143.027 133.287,-149.281 135.32,-142.582"/>
</g>
<!-- Node4 -->
<g id="node4" class="node"><title>Node4</title>
<g id="a_node4"><a xlink:href="default__sink_8hpp.html" target="_top" xlink:title="Om header file.">
<polygon fill="none" stroke="black" points="185.468,-123 185.468,-143 316.532,-143 316.532,-123 185.468,-123"/>
<text text-anchor="middle" x="251" y="-129" font-family="Helvetica,sans-Serif" font-size="10.00">om/sinks/default_sink.hpp</text>
</a>
</g>
</g>
<!-- Node1&#45;&gt;Node4 -->
<g id="edge3" class="edge"><title>Node1&#45;&gt;Node4</title>
<path fill="none" stroke="midnightblue" d="M303.909,-186.909C293.078,-176.078 278.493,-161.493 267.379,-150.379"/>
<polygon fill="midnightblue" stroke="midnightblue" points="269.55,-147.6 260.004,-143.004 264.6,-152.55 269.55,-147.6"/>
</g>
<!-- Node8 -->
<g id="node8" class="node"><title>Node8</title>
<g id="a_node8"><a xlink:href="code__point__sink_8cpp.html" target="_top" xlink:title="Om source file.">
<polygon fill="none" stroke="black" points="334.419,-117 334.419,-149 441.581,-149 441.581,-117 334.419,-117"/>
<text text-anchor="start" x="342.419" y="-135" font-family="Helvetica,sans-Serif" font-size="10.00">om/sinks/code_point</text>
<text text-anchor="middle" x="388" y="-123" font-family="Helvetica,sans-Serif" font-size="10.00">_sink.cpp</text>
</a>
</g>
</g>
<!-- Node1&#45;&gt;Node8 -->
<g id="edge9" class="edge"><title>Node1&#45;&gt;Node8</title>
<path fill="none" stroke="midnightblue" d="M328.593,-186.909C336.767,-177.753 348.571,-165.914 359.577,-155.758"/>
<polygon fill="midnightblue" stroke="midnightblue" points="361.933,-158.346 367.015,-149.049 357.245,-153.148 361.933,-158.346"/>
</g>
<!-- Node3 -->
<g id="node3" class="node"><title>Node3</title>
<polygon fill="none" stroke="#bfbfbf" points="-0.364258,-59 -0.364258,-79 102.364,-79 102.364,-59 -0.364258,-59"/>
<text text-anchor="middle" x="51" y="-65" font-family="Helvetica,sans-Serif" font-size="10.00">boost/locale/utf.hpp</text>
</g>
<!-- Node2&#45;&gt;Node3 -->
<g id="edge2" class="edge"><title>Node2&#45;&gt;Node3</title>
<path fill="none" stroke="midnightblue" d="M88.5076,-122.852C81.9435,-113.602 71.6318,-99.072 63.4803,-87.5859"/>
<polygon fill="midnightblue" stroke="midnightblue" points="66.1608,-85.3153 57.519,-79.1858 60.4522,-89.3666 66.1608,-85.3153"/>
</g>
<!-- Node5 -->
<g id="node5" class="node"><title>Node5</title>
<g id="a_node5"><a xlink:href="sink_8hpp.html" target="_top" xlink:title="Om header file.">
<polygon fill="none" stroke="black" points="120.042,-59 120.042,-79 189.958,-79 189.958,-59 120.042,-59"/>
<text text-anchor="middle" x="155" y="-65" font-family="Helvetica,sans-Serif" font-size="10.00">om/sink.hpp</text>
</a>
</g>
</g>
<!-- Node4&#45;&gt;Node5 -->
<g id="edge4" class="edge"><title>Node4&#45;&gt;Node5</title>
<path fill="none" stroke="midnightblue" d="M236.835,-122.852C221.308,-112.824 196.17,-96.589 177.847,-84.7555"/>
<polygon fill="midnightblue" stroke="midnightblue" points="179.523,-81.671 169.223,-79.1858 175.725,-87.5513 179.523,-81.671"/>
</g>
<!-- Node7 -->
<g id="node7" class="node"><title>Node7</title>
<g id="a_node7"><a xlink:href="default__sink_8cpp.html" target="_top" xlink:title="Om source file.">
<polygon fill="none" stroke="black" points="207.749,-59 207.749,-79 338.251,-79 338.251,-59 207.749,-59"/>
<text text-anchor="middle" x="273" y="-65" font-family="Helvetica,sans-Serif" font-size="10.00">om/sinks/default_sink.cpp</text>
</a>
</g>
</g>
<!-- Node4&#45;&gt;Node7 -->
<g id="edge7" class="edge"><title>Node4&#45;&gt;Node7</title>
<path fill="none" stroke="midnightblue" d="M249.291,-122.852C250.659,-113.785 255.256,-99.6454 260.3,-88.2717"/>
<polygon fill="midnightblue" stroke="midnightblue" points="263.497,-89.703 264.777,-79.1858 257.218,-86.6087 263.497,-89.703"/>
</g>
<!-- Node6 -->
<g id="node6" class="node"><title>Node6</title>
<g id="a_node6"><a xlink:href="sink_8cpp.html" target="_top" xlink:title="Om source file.">
<polygon fill="none" stroke="black" points="120.323,-1 120.323,-21 189.677,-21 189.677,-1 120.323,-1"/>
<text text-anchor="middle" x="155" y="-7" font-family="Helvetica,sans-Serif" font-size="10.00">om/sink.cpp</text>
</a>
</g>
</g>
<!-- Node5&#45;&gt;Node6 -->
<g id="edge5" class="edge"><title>Node5&#45;&gt;Node6</title>
<path fill="none" stroke="midnightblue" d="M149.834,-58.7527C148.308,-51.2504 147.884,-40.4238 148.564,-31.0781"/>
<polygon fill="midnightblue" stroke="midnightblue" points="152.046,-31.4439 149.869,-21.0752 145.105,-30.5385 152.046,-31.4439"/>
</g>
<!-- Node6&#45;&gt;Node5 -->
<g id="edge6" class="edge"><title>Node6&#45;&gt;Node5</title>
<path fill="none" stroke="midnightblue" d="M160.131,-21.0752C161.674,-28.5262 162.114,-39.3384 161.451,-48.7065"/>
<polygon fill="midnightblue" stroke="midnightblue" points="157.963,-48.3895 160.166,-58.7527 164.907,-49.2776 157.963,-48.3895"/>
</g>
<!-- Node7&#45;&gt;Node4 -->
<g id="edge8" class="edge"><title>Node7&#45;&gt;Node4</title>
<path fill="none" stroke="midnightblue" d="M274.704,-79.1858C273.326,-88.2662 268.724,-102.409 263.679,-113.775"/>
<polygon fill="midnightblue" stroke="midnightblue" points="260.487,-112.335 259.202,-122.852 266.765,-115.432 260.487,-112.335"/>
</g>
<!-- Node8&#45;&gt;Node1 -->
<g id="edge10" class="edge"><title>Node8&#45;&gt;Node1</title>
<path fill="none" stroke="midnightblue" d="M378.444,-149.049C370.282,-158.197 358.483,-170.034 347.474,-180.195"/>
<polygon fill="midnightblue" stroke="midnightblue" points="345.113,-177.611 340.033,-186.909 349.803,-182.808 345.113,-177.611"/>
</g>
</g>
</svg>
