<?xml version="1.0" encoding="UTF-8" standalone="no"?>
<!DOCTYPE svg PUBLIC "-//W3C//DTD SVG 1.1//EN"
 "http://www.w3.org/Graphics/SVG/1.1/DTD/svg11.dtd">
<!-- Generated by graphviz version 2.28.0 (20120817.0054)
 -->
<!-- Title: code/om/sources/code_point_source.hpp Pages: 1 -->
<svg width="2809pt" height="300pt"
 viewBox="0.00 0.00 2809.00 300.00" xmlns="http://www.w3.org/2000/svg" xmlns:xlink="http://www.w3.org/1999/xlink">
<g id="graph1" class="graph" transform="scale(1 1) rotate(0) translate(4 296)">
<title>code/om/sources/code_point_source.hpp</title>
<!-- Node1 -->
<g id="node1" class="node"><title>Node1</title>
<polygon fill="#bfbfbf" stroke="black" points="2626,-261 2626,-291 2738,-291 2738,-261 2626,-261"/>
<text text-anchor="start" x="2634" y="-279" font-family="Helvetica,sans-Serif" font-size="10.00">code/om/sources/code</text>
<text text-anchor="middle" x="2682" y="-268" font-family="Helvetica,sans-Serif" font-size="10.00">_point_source.hpp</text>
</g>
<!-- Node2 -->
<g id="node3" class="node"><title>Node2</title>
<a xlink:href="code__point_8hpp.html" target="_top" xlink:title="Om header file.">
<polygon fill="none" stroke="black" points="1722,-198.5 1722,-217.5 1820,-217.5 1820,-198.5 1722,-198.5"/>
<text text-anchor="middle" x="1771" y="-205.5" font-family="Helvetica,sans-Serif" font-size="10.00">om/code_point.hpp</text>
</a>
</g>
<!-- Node1&#45;&gt;Node2 -->
<g id="edge2" class="edge"><title>Node1&#45;&gt;Node2</title>
<path fill="none" stroke="midnightblue" d="M2625.7,-270.921C2463.45,-259.167 1995.94,-225.297 1830.16,-213.286"/>
<polygon fill="midnightblue" stroke="midnightblue" points="1830.38,-209.793 1820.15,-212.561 1829.87,-216.774 1830.38,-209.793"/>
</g>
<!-- Node27 -->
<g id="node53" class="node"><title>Node27</title>
<a xlink:href="iterator__source_8hpp.html" target="_top" xlink:title="Om header file.">
<polygon fill="none" stroke="black" points="2573.5,-193 2573.5,-223 2668.5,-223 2668.5,-193 2573.5,-193"/>
<text text-anchor="start" x="2581.5" y="-211" font-family="Helvetica,sans-Serif" font-size="10.00">om/sources/iterator</text>
<text text-anchor="middle" x="2621" y="-200" font-family="Helvetica,sans-Serif" font-size="10.00">_source.hpp</text>
</a>
</g>
<!-- Node1&#45;&gt;Node27 -->
<g id="edge52" class="edge"><title>Node1&#45;&gt;Node27</title>
<path fill="none" stroke="midnightblue" d="M2668.76,-260.679C2660.69,-251.944 2650.21,-240.605 2641.13,-230.775"/>
<polygon fill="midnightblue" stroke="midnightblue" points="2643.57,-228.261 2634.21,-223.293 2638.43,-233.012 2643.57,-228.261"/>
</g>
<!-- Node33 -->
<g id="node68" class="node"><title>Node33</title>
<a xlink:href="code__point__source_8cpp.html" target="_top" xlink:title="Om source file.">
<polygon fill="none" stroke="black" points="2687,-193 2687,-223 2801,-223 2801,-193 2687,-193"/>
<text text-anchor="start" x="2695" y="-211" font-family="Helvetica,sans-Serif" font-size="10.00">om/sources/code_point</text>
<text text-anchor="middle" x="2744" y="-200" font-family="Helvetica,sans-Serif" font-size="10.00">_source.cpp</text>
</a>
</g>
<!-- Node1&#45;&gt;Node33 -->
<g id="edge70" class="edge"><title>Node1&#45;&gt;Node33</title>
<path fill="none" stroke="midnightblue" d="M2689.77,-260.679C2696.92,-251.857 2707.47,-240.38 2717.45,-230.483"/>
<polygon fill="midnightblue" stroke="midnightblue" points="2720.13,-232.756 2724.9,-223.293 2715.27,-227.719 2720.13,-232.756"/>
</g>
<!-- Node3 -->
<g id="node5" class="node"><title>Node3</title>
<a xlink:href="external_8hpp.html" target="_top" xlink:title="om/external.hpp">
<polygon fill="none" stroke="black" points="1067.5,-130.5 1067.5,-149.5 1152.5,-149.5 1152.5,-130.5 1067.5,-130.5"/>
<text text-anchor="middle" x="1110" y="-137.5" font-family="Helvetica,sans-Serif" font-size="10.00">om/external.hpp</text>
</a>
</g>
<!-- Node2&#45;&gt;Node3 -->
<g id="edge4" class="edge"><title>Node2&#45;&gt;Node3</title>
<path fill="none" stroke="midnightblue" d="M1721.86,-202.093C1600.65,-189.991 1288.2,-158.793 1163.02,-146.294"/>
<polygon fill="midnightblue" stroke="midnightblue" points="1163.21,-142.796 1152.91,-145.285 1162.52,-149.761 1163.21,-142.796"/>
</g>
<!-- Node4 -->
<g id="node7" class="node"><title>Node4</title>
<polygon fill="none" stroke="#bfbfbf" points="-0.5,-62.5 -0.5,-81.5 46.5,-81.5 46.5,-62.5 -0.5,-62.5"/>
<text text-anchor="middle" x="23" y="-69.5" font-family="Helvetica,sans-Serif" font-size="10.00">cassert</text>
</g>
<!-- Node3&#45;&gt;Node4 -->
<g id="edge6" class="edge"><title>Node3&#45;&gt;Node4</title>
<path fill="none" stroke="midnightblue" d="M1067.32,-139.071C895.298,-139.031 252.754,-135.626 56,-88 53.3393,-87.356 50.63,-86.4977 47.9654,-85.5166"/>
<polygon fill="midnightblue" stroke="midnightblue" points="49.2509,-82.2602 38.6774,-81.5883 46.5241,-88.7072 49.2509,-82.2602"/>
</g>
<!-- Node5 -->
<g id="node9" class="node"><title>Node5</title>
<polygon fill="none" stroke="#bfbfbf" points="65,-62.5 65,-81.5 117,-81.5 117,-62.5 65,-62.5"/>
<text text-anchor="middle" x="91" y="-69.5" font-family="Helvetica,sans-Serif" font-size="10.00">iostream</text>
</g>
<!-- Node3&#45;&gt;Node5 -->
<g id="edge8" class="edge"><title>Node3&#45;&gt;Node5</title>
<path fill="none" stroke="midnightblue" d="M1067.41,-138.781C902.906,-137.628 309.077,-130.545 126,-88 123.102,-87.3266 120.142,-86.4265 117.23,-85.4001"/>
<polygon fill="midnightblue" stroke="midnightblue" points="118.266,-82.0444 107.682,-81.5704 115.66,-88.5414 118.266,-82.0444"/>
</g>
<!-- Node6 -->
<g id="node11" class="node"><title>Node6</title>
<polygon fill="none" stroke="#bfbfbf" points="135,-62.5 135,-81.5 179,-81.5 179,-62.5 135,-62.5"/>
<text text-anchor="middle" x="157" y="-69.5" font-family="Helvetica,sans-Serif" font-size="10.00">iterator</text>
</g>
<!-- Node3&#45;&gt;Node6 -->
<g id="edge10" class="edge"><title>Node3&#45;&gt;Node6</title>
<path fill="none" stroke="midnightblue" d="M1067.36,-138.859C909.345,-137.995 357.569,-131.833 188,-88 185.656,-87.394 183.277,-86.6043 180.934,-85.7042"/>
<polygon fill="midnightblue" stroke="midnightblue" points="182.237,-82.4531 171.679,-81.5705 179.382,-88.8445 182.237,-82.4531"/>
</g>
<!-- Node7 -->
<g id="node13" class="node"><title>Node7</title>
<polygon fill="none" stroke="#bfbfbf" points="197,-62.5 197,-81.5 247,-81.5 247,-62.5 197,-62.5"/>
<text text-anchor="middle" x="222" y="-69.5" font-family="Helvetica,sans-Serif" font-size="10.00">memory</text>
</g>
<!-- Node3&#45;&gt;Node7 -->
<g id="edge12" class="edge"><title>Node3&#45;&gt;Node7</title>
<path fill="none" stroke="midnightblue" d="M1067.29,-138.386C917.045,-135.923 413.551,-125.036 257,-88 254.105,-87.3151 251.146,-86.4075 248.236,-85.3767"/>
<polygon fill="midnightblue" stroke="midnightblue" points="249.272,-82.0213 238.688,-81.5417 246.663,-88.5168 249.272,-82.0213"/>
</g>
<!-- Node8 -->
<g id="node15" class="node"><title>Node8</title>
<polygon fill="none" stroke="#bfbfbf" points="265.5,-62.5 265.5,-81.5 304.5,-81.5 304.5,-62.5 265.5,-62.5"/>
<text text-anchor="middle" x="285" y="-69.5" font-family="Helvetica,sans-Serif" font-size="10.00">stack</text>
</g>
<!-- Node3&#45;&gt;Node8 -->
<g id="edge14" class="edge"><title>Node3&#45;&gt;Node8</title>
<path fill="none" stroke="midnightblue" d="M1067.33,-138.57C923.555,-136.763 457.778,-127.894 314,-88 312.034,-87.4544 310.047,-86.7656 308.084,-85.9847"/>
<polygon fill="midnightblue" stroke="midnightblue" points="309.217,-82.6492 298.679,-81.5489 306.231,-88.9804 309.217,-82.6492"/>
</g>
<!-- Node9 -->
<g id="node17" class="node"><title>Node9</title>
<polygon fill="none" stroke="#bfbfbf" points="323,-62.5 323,-81.5 381,-81.5 381,-62.5 323,-62.5"/>
<text text-anchor="middle" x="352" y="-69.5" font-family="Helvetica,sans-Serif" font-size="10.00">stdexcept</text>
</g>
<!-- Node3&#45;&gt;Node9 -->
<g id="edge16" class="edge"><title>Node3&#45;&gt;Node9</title>
<path fill="none" stroke="midnightblue" d="M1067.37,-137.684C933.127,-133.273 520.297,-117.594 390,-88 386.749,-87.2617 383.411,-86.2888 380.128,-85.1925"/>
<polygon fill="midnightblue" stroke="midnightblue" points="381.175,-81.8477 370.582,-81.644 378.736,-88.4091 381.175,-81.8477"/>
</g>
<!-- Node10 -->
<g id="node19" class="node"><title>Node10</title>
<polygon fill="none" stroke="#bfbfbf" points="399,-62.5 399,-81.5 437,-81.5 437,-62.5 399,-62.5"/>
<text text-anchor="middle" x="418" y="-69.5" font-family="Helvetica,sans-Serif" font-size="10.00">string</text>
</g>
<!-- Node3&#45;&gt;Node10 -->
<g id="edge18" class="edge"><title>Node3&#45;&gt;Node10</title>
<path fill="none" stroke="midnightblue" d="M1067.06,-137.927C939.473,-134.389 564.288,-121.353 447,-88 445.037,-87.4418 443.053,-86.744 441.092,-85.9569"/>
<polygon fill="midnightblue" stroke="midnightblue" points="442.227,-82.6218 431.691,-81.5097 439.234,-88.9496 442.227,-82.6218"/>
</g>
<!-- Node11 -->
<g id="node21" class="node"><title>Node11</title>
<polygon fill="none" stroke="#bfbfbf" points="455.5,-62.5 455.5,-81.5 540.5,-81.5 540.5,-62.5 455.5,-62.5"/>
<text text-anchor="middle" x="498" y="-69.5" font-family="Helvetica,sans-Serif" font-size="10.00">boost/array.hpp</text>
</g>
<!-- Node3&#45;&gt;Node11 -->
<g id="edge20" class="edge"><title>Node3&#45;&gt;Node11</title>
<path fill="none" stroke="midnightblue" d="M1067.47,-137.879C973.41,-134.802 740.928,-123.894 550,-88 544.767,-87.0162 539.302,-85.7328 533.965,-84.3308"/>
<polygon fill="midnightblue" stroke="midnightblue" points="534.526,-80.8537 523.954,-81.5359 532.644,-87.5959 534.526,-80.8537"/>
</g>
<!-- Node12 -->
<g id="node23" class="node"><title>Node12</title>
<polygon fill="none" stroke="#bfbfbf" points="559,-62.5 559,-81.5 687,-81.5 687,-62.5 559,-62.5"/>
<text text-anchor="middle" x="623" y="-69.5" font-family="Helvetica,sans-Serif" font-size="10.00">boost/checked_delete.hpp</text>
</g>
<!-- Node3&#45;&gt;Node12 -->
<g id="edge22" class="edge"><title>Node3&#45;&gt;Node12</title>
<path fill="none" stroke="midnightblue" d="M1067.34,-134.828C992.227,-127.24 831.591,-109.918 697,-88 688.906,-86.6819 680.348,-85.1121 672.037,-83.4925"/>
<polygon fill="midnightblue" stroke="midnightblue" points="672.56,-80.0281 662.069,-81.5057 671.192,-86.8931 672.56,-80.0281"/>
</g>
<!-- Node13 -->
<g id="node25" class="node"><title>Node13</title>
<polygon fill="none" stroke="#bfbfbf" points="705.5,-62.5 705.5,-81.5 820.5,-81.5 820.5,-62.5 705.5,-62.5"/>
<text text-anchor="middle" x="763" y="-69.5" font-family="Helvetica,sans-Serif" font-size="10.00">boost/integer_traits.hpp</text>
</g>
<!-- Node3&#45;&gt;Node13 -->
<g id="edge24" class="edge"><title>Node3&#45;&gt;Node13</title>
<path fill="none" stroke="midnightblue" d="M1067.2,-131.754C1012.19,-122.314 913.773,-105 830,-88 823.407,-86.6621 816.465,-85.1851 809.648,-83.6953"/>
<polygon fill="midnightblue" stroke="midnightblue" points="810.324,-80.2605 799.804,-81.5182 808.812,-87.0953 810.324,-80.2605"/>
</g>
<!-- Node14 -->
<g id="node27" class="node"><title>Node14</title>
<polygon fill="none" stroke="#bfbfbf" points="838.5,-62.5 838.5,-81.5 951.5,-81.5 951.5,-62.5 838.5,-62.5"/>
<text text-anchor="middle" x="895" y="-69.5" font-family="Helvetica,sans-Serif" font-size="10.00">boost/intrusive_ptr.hpp</text>
</g>
<!-- Node3&#45;&gt;Node14 -->
<g id="edge26" class="edge"><title>Node3&#45;&gt;Node14</title>
<path fill="none" stroke="midnightblue" d="M1081.89,-130.372C1043.64,-118.629 975.087,-97.5849 932.489,-84.5083"/>
<polygon fill="midnightblue" stroke="midnightblue" points="933.361,-81.1147 922.774,-81.5259 931.306,-87.8065 933.361,-81.1147"/>
</g>
<!-- Node15 -->
<g id="node29" class="node"><title>Node15</title>
<polygon fill="none" stroke="#bfbfbf" points="969.5,-62.5 969.5,-81.5 1100.5,-81.5 1100.5,-62.5 969.5,-62.5"/>
<text text-anchor="middle" x="1035" y="-69.5" font-family="Helvetica,sans-Serif" font-size="10.00">boost/locale/boundary.hpp</text>
</g>
<!-- Node3&#45;&gt;Node15 -->
<g id="edge28" class="edge"><title>Node3&#45;&gt;Node15</title>
<path fill="none" stroke="midnightblue" d="M1100.2,-130.372C1088.13,-119.758 1067.44,-101.545 1052.6,-88.4855"/>
<polygon fill="midnightblue" stroke="midnightblue" points="1054.87,-85.8199 1045.05,-81.8411 1050.24,-91.0749 1054.87,-85.8199"/>
</g>
<!-- Node16 -->
<g id="node31" class="node"><title>Node16</title>
<polygon fill="none" stroke="#bfbfbf" points="1118.5,-62.5 1118.5,-81.5 1253.5,-81.5 1253.5,-62.5 1118.5,-62.5"/>
<text text-anchor="middle" x="1186" y="-69.5" font-family="Helvetica,sans-Serif" font-size="10.00">boost/locale/conversion.hpp</text>
</g>
<!-- Node3&#45;&gt;Node16 -->
<g id="edge30" class="edge"><title>Node3&#45;&gt;Node16</title>
<path fill="none" stroke="midnightblue" d="M1119.94,-130.372C1132.16,-119.758 1153.13,-101.545 1168.17,-88.4855"/>
<polygon fill="midnightblue" stroke="midnightblue" points="1170.56,-91.0406 1175.82,-81.8411 1165.97,-85.7554 1170.56,-91.0406"/>
</g>
<!-- Node17 -->
<g id="node33" class="node"><title>Node17</title>
<polygon fill="none" stroke="#bfbfbf" points="1272,-62.5 1272,-81.5 1400,-81.5 1400,-62.5 1272,-62.5"/>
<text text-anchor="middle" x="1336" y="-69.5" font-family="Helvetica,sans-Serif" font-size="10.00">boost/locale/encoding.hpp</text>
</g>
<!-- Node3&#45;&gt;Node17 -->
<g id="edge32" class="edge"><title>Node3&#45;&gt;Node17</title>
<path fill="none" stroke="midnightblue" d="M1139.55,-130.372C1179.92,-118.58 1252.42,-97.4071 1297.16,-84.3432"/>
<polygon fill="midnightblue" stroke="midnightblue" points="1298.19,-87.6889 1306.81,-81.5259 1296.23,-80.9695 1298.19,-87.6889"/>
</g>
<!-- Node18 -->
<g id="node35" class="node"><title>Node18</title>
<polygon fill="none" stroke="#bfbfbf" points="1418.5,-62.5 1418.5,-81.5 1547.5,-81.5 1547.5,-62.5 1418.5,-62.5"/>
<text text-anchor="middle" x="1483" y="-69.5" font-family="Helvetica,sans-Serif" font-size="10.00">boost/locale/generator.hpp</text>
</g>
<!-- Node3&#45;&gt;Node18 -->
<g id="edge34" class="edge"><title>Node3&#45;&gt;Node18</title>
<path fill="none" stroke="midnightblue" d="M1152.66,-132.152C1210.73,-122.73 1317.89,-105 1409,-88 1416.44,-86.6124 1424.28,-85.0881 1431.97,-83.5593"/>
<polygon fill="midnightblue" stroke="midnightblue" points="1432.83,-86.957 1441.95,-81.558 1431.45,-80.0938 1432.83,-86.957"/>
</g>
<!-- Node19 -->
<g id="node37" class="node"><title>Node19</title>
<polygon fill="none" stroke="#bfbfbf" points="1566,-62.5 1566,-81.5 1666,-81.5 1666,-62.5 1566,-62.5"/>
<text text-anchor="middle" x="1616" y="-69.5" font-family="Helvetica,sans-Serif" font-size="10.00">boost/locale/utf.hpp</text>
</g>
<!-- Node3&#45;&gt;Node19 -->
<g id="edge36" class="edge"><title>Node3&#45;&gt;Node19</title>
<path fill="none" stroke="midnightblue" d="M1152.7,-135.991C1232.43,-129.959 1409.15,-114.634 1556,-88 1562.24,-86.8683 1568.79,-85.4604 1575.19,-83.9639"/>
<polygon fill="midnightblue" stroke="midnightblue" points="1576.14,-87.3339 1585.03,-81.5664 1574.48,-80.5328 1576.14,-87.3339"/>
</g>
<!-- Node20 -->
<g id="node39" class="node"><title>Node20</title>
<polygon fill="none" stroke="#bfbfbf" points="1684,-62.5 1684,-81.5 1780,-81.5 1780,-62.5 1684,-62.5"/>
<text text-anchor="middle" x="1732" y="-69.5" font-family="Helvetica,sans-Serif" font-size="10.00">boost/optional.hpp</text>
</g>
<!-- Node3&#45;&gt;Node20 -->
<g id="edge38" class="edge"><title>Node3&#45;&gt;Node20</title>
<path fill="none" stroke="midnightblue" d="M1152.85,-137.578C1247.63,-133.899 1481.96,-121.868 1675,-88 1680.94,-86.9579 1687.17,-85.6005 1693.23,-84.1283"/>
<polygon fill="midnightblue" stroke="midnightblue" points="1694.39,-87.4454 1703.21,-81.5778 1692.65,-80.6635 1694.39,-87.4454"/>
</g>
<!-- Node21 -->
<g id="node41" class="node"><title>Node21</title>
<polygon fill="none" stroke="#bfbfbf" points="1798.5,-57 1798.5,-87 1895.5,-87 1895.5,-57 1798.5,-57"/>
<text text-anchor="start" x="1806.5" y="-75" font-family="Helvetica,sans-Serif" font-size="10.00">boost/ptr_container</text>
<text text-anchor="middle" x="1847" y="-64" font-family="Helvetica,sans-Serif" font-size="10.00">/ptr_deque.hpp</text>
</g>
<!-- Node3&#45;&gt;Node21 -->
<g id="edge40" class="edge"><title>Node3&#45;&gt;Node21</title>
<path fill="none" stroke="midnightblue" d="M1152.82,-138.424C1258.99,-136.432 1542.88,-127.67 1788.22,-87.9104"/>
<polygon fill="midnightblue" stroke="midnightblue" points="1789.1,-91.3131 1798.4,-86.2391 1787.97,-84.4056 1789.1,-91.3131"/>
</g>
<!-- Node22 -->
<g id="node43" class="node"><title>Node22</title>
<polygon fill="none" stroke="#bfbfbf" points="1913.5,-57 1913.5,-87 2010.5,-87 2010.5,-57 1913.5,-57"/>
<text text-anchor="start" x="1921.5" y="-75" font-family="Helvetica,sans-Serif" font-size="10.00">boost/ptr_container</text>
<text text-anchor="middle" x="1962" y="-64" font-family="Helvetica,sans-Serif" font-size="10.00">/ptr_map.hpp</text>
</g>
<!-- Node3&#45;&gt;Node22 -->
<g id="edge42" class="edge"><title>Node3&#45;&gt;Node22</title>
<path fill="none" stroke="midnightblue" d="M1152.92,-139.081C1271.27,-138.702 1612.18,-133.552 1903.5,-87.851"/>
<polygon fill="midnightblue" stroke="midnightblue" points="1904.08,-91.3029 1913.41,-86.278 1902.98,-84.3895 1904.08,-91.3029"/>
</g>
<!-- Node23 -->
<g id="node45" class="node"><title>Node23</title>
<polygon fill="none" stroke="#bfbfbf" points="2028.5,-57 2028.5,-87 2125.5,-87 2125.5,-57 2028.5,-57"/>
<text text-anchor="start" x="2036.5" y="-75" font-family="Helvetica,sans-Serif" font-size="10.00">boost/ptr_container</text>
<text text-anchor="middle" x="2077" y="-64" font-family="Helvetica,sans-Serif" font-size="10.00">/ptr_vector.hpp</text>
</g>
<!-- Node3&#45;&gt;Node23 -->
<g id="edge44" class="edge"><title>Node3&#45;&gt;Node23</title>
<path fill="none" stroke="midnightblue" d="M1152.91,-139.578C1282.44,-140.691 1680.8,-139.488 2018.44,-87.8497"/>
<polygon fill="midnightblue" stroke="midnightblue" points="2019.06,-91.2949 2028.41,-86.3072 2017.99,-84.3772 2019.06,-91.2949"/>
</g>
<!-- Node24 -->
<g id="node47" class="node"><title>Node24</title>
<polygon fill="none" stroke="#bfbfbf" points="2143.5,-62.5 2143.5,-81.5 2216.5,-81.5 2216.5,-62.5 2143.5,-62.5"/>
<text text-anchor="middle" x="2180" y="-69.5" font-family="Helvetica,sans-Serif" font-size="10.00">boost/ref.hpp</text>
</g>
<!-- Node3&#45;&gt;Node24 -->
<g id="edge46" class="edge"><title>Node3&#45;&gt;Node24</title>
<path fill="none" stroke="midnightblue" d="M1152.77,-138.38C1321.49,-135.7 1941.13,-123.594 2134,-88 2138.58,-87.154 2143.34,-85.9697 2147.99,-84.6337"/>
<polygon fill="midnightblue" stroke="midnightblue" points="2149.35,-87.8725 2157.85,-81.5389 2147.26,-81.1936 2149.35,-87.8725"/>
</g>
<!-- Node25 -->
<g id="node49" class="node"><title>Node25</title>
<polygon fill="none" stroke="#bfbfbf" points="2235,-62.5 2235,-81.5 2345,-81.5 2345,-62.5 2235,-62.5"/>
<text text-anchor="middle" x="2290" y="-69.5" font-family="Helvetica,sans-Serif" font-size="10.00">boost/scoped_ptr.hpp</text>
</g>
<!-- Node3&#45;&gt;Node25 -->
<g id="edge48" class="edge"><title>Node3&#45;&gt;Node25</title>
<path fill="none" stroke="midnightblue" d="M1152.5,-138.086C1329.9,-134.113 2011.9,-117.217 2225,-88 2232.58,-86.9609 2240.57,-85.4593 2248.27,-83.8032"/>
<polygon fill="midnightblue" stroke="midnightblue" points="2249.17,-87.1882 2258.14,-81.5629 2247.62,-80.3616 2249.17,-87.1882"/>
</g>
<!-- Node26 -->
<g id="node51" class="node"><title>Node26</title>
<polygon fill="none" stroke="#bfbfbf" points="2363.5,-62.5 2363.5,-81.5 2452.5,-81.5 2452.5,-62.5 2363.5,-62.5"/>
<text text-anchor="middle" x="2408" y="-69.5" font-family="Helvetica,sans-Serif" font-size="10.00">boost/swap.hpp</text>
</g>
<!-- Node3&#45;&gt;Node26 -->
<g id="edge50" class="edge"><title>Node3&#45;&gt;Node26</title>
<path fill="none" stroke="midnightblue" d="M1152.56,-138.568C1342.64,-136.436 2114.98,-125.583 2354,-88 2359.91,-87.0705 2366.1,-85.7219 2372.09,-84.2093"/>
<polygon fill="midnightblue" stroke="midnightblue" points="2373.16,-87.545 2381.9,-81.5536 2371.33,-80.7882 2373.16,-87.545"/>
</g>
<!-- Node28 -->
<g id="node55" class="node"><title>Node28</title>
<a xlink:href="default__source_8hpp.html" target="_top" xlink:title="Om header file.">
<polygon fill="none" stroke="black" points="2516,-125 2516,-155 2612,-155 2612,-125 2516,-125"/>
<text text-anchor="start" x="2524" y="-143" font-family="Helvetica,sans-Serif" font-size="10.00">om/sources/default</text>
<text text-anchor="middle" x="2564" y="-132" font-family="Helvetica,sans-Serif" font-size="10.00">_source.hpp</text>
</a>
</g>
<!-- Node27&#45;&gt;Node28 -->
<g id="edge54" class="edge"><title>Node27&#45;&gt;Node28</title>
<path fill="none" stroke="midnightblue" d="M2608.63,-192.679C2601.16,-184.03 2591.49,-172.829 2583.06,-163.067"/>
<polygon fill="midnightblue" stroke="midnightblue" points="2585.53,-160.574 2576.34,-155.293 2580.23,-165.149 2585.53,-160.574"/>
</g>
<!-- Node32 -->
<g id="node65" class="node"><title>Node32</title>
<a xlink:href="iterator__source_8cpp.html" target="_top" xlink:title="Om source file.">
<polygon fill="none" stroke="black" points="2630.5,-125 2630.5,-155 2725.5,-155 2725.5,-125 2630.5,-125"/>
<text text-anchor="start" x="2638.5" y="-143" font-family="Helvetica,sans-Serif" font-size="10.00">om/sources/iterator</text>
<text text-anchor="middle" x="2678" y="-132" font-family="Helvetica,sans-Serif" font-size="10.00">_source.cpp</text>
</a>
</g>
<!-- Node27&#45;&gt;Node32 -->
<g id="edge66" class="edge"><title>Node27&#45;&gt;Node32</title>
<path fill="none" stroke="midnightblue" d="M2627.69,-192.679C2634.11,-183.944 2643.66,-172.605 2652.8,-162.775"/>
<polygon fill="midnightblue" stroke="midnightblue" points="2655.58,-164.933 2659.98,-155.293 2650.53,-160.087 2655.58,-164.933"/>
</g>
<!-- Node29 -->
<g id="node57" class="node"><title>Node29</title>
<a xlink:href="source_8hpp.html" target="_top" xlink:title="Om header file.">
<polygon fill="none" stroke="black" points="2471,-62.5 2471,-81.5 2551,-81.5 2551,-62.5 2471,-62.5"/>
<text text-anchor="middle" x="2511" y="-69.5" font-family="Helvetica,sans-Serif" font-size="10.00">om/source.hpp</text>
</a>
</g>
<!-- Node28&#45;&gt;Node29 -->
<g id="edge56" class="edge"><title>Node28&#45;&gt;Node29</title>
<path fill="none" stroke="midnightblue" d="M2552.5,-124.679C2544.24,-114.388 2533.07,-100.484 2524.4,-89.6897"/>
<polygon fill="midnightblue" stroke="midnightblue" points="2527.08,-87.434 2518.09,-81.8283 2521.62,-91.817 2527.08,-87.434"/>
</g>
<!-- Node31 -->
<g id="node62" class="node"><title>Node31</title>
<a xlink:href="default__source_8cpp.html" target="_top" xlink:title="Om source file.">
<polygon fill="none" stroke="black" points="2569,-57 2569,-87 2665,-87 2665,-57 2569,-57"/>
<text text-anchor="start" x="2577" y="-75" font-family="Helvetica,sans-Serif" font-size="10.00">om/sources/default</text>
<text text-anchor="middle" x="2617" y="-64" font-family="Helvetica,sans-Serif" font-size="10.00">_source.cpp</text>
</a>
</g>
<!-- Node28&#45;&gt;Node31 -->
<g id="edge62" class="edge"><title>Node28&#45;&gt;Node31</title>
<path fill="none" stroke="midnightblue" d="M2569.82,-124.679C2575.71,-115.944 2584.58,-104.605 2593.12,-94.7747"/>
<polygon fill="midnightblue" stroke="midnightblue" points="2595.77,-97.0705 2599.85,-87.2931 2590.56,-92.3916 2595.77,-97.0705"/>
</g>
<!-- Node30 -->
<g id="node59" class="node"><title>Node30</title>
<a xlink:href="source_8cpp.html" target="_top" xlink:title="Om source file.">
<polygon fill="none" stroke="black" points="2471.5,-0.5 2471.5,-19.5 2550.5,-19.5 2550.5,-0.5 2471.5,-0.5"/>
<text text-anchor="middle" x="2511" y="-7.5" font-family="Helvetica,sans-Serif" font-size="10.00">om/source.cpp</text>
</a>
</g>
<!-- Node29&#45;&gt;Node30 -->
<g id="edge58" class="edge"><title>Node29&#45;&gt;Node30</title>
<path fill="none" stroke="midnightblue" d="M2506.1,-62.4035C2504.27,-53.9381 2503.8,-40.7283 2504.69,-29.8199"/>
<polygon fill="midnightblue" stroke="midnightblue" points="2508.2,-29.9661 2506.1,-19.5806 2501.26,-29.006 2508.2,-29.9661"/>
</g>
<!-- Node30&#45;&gt;Node29 -->
<g id="edge60" class="edge"><title>Node30&#45;&gt;Node29</title>
<path fill="none" stroke="midnightblue" d="M2515.9,-19.5806C2517.73,-28.04 2518.2,-41.2482 2517.32,-52.1595"/>
<polygon fill="midnightblue" stroke="midnightblue" points="2513.8,-52.0184 2515.9,-62.4035 2520.74,-52.9769 2513.8,-52.0184"/>
</g>
<!-- Node31&#45;&gt;Node28 -->
<g id="edge64" class="edge"><title>Node31&#45;&gt;Node28</title>
<path fill="none" stroke="midnightblue" d="M2611.2,-87.2931C2605.32,-96.0228 2596.45,-107.36 2587.9,-117.194"/>
<polygon fill="midnightblue" stroke="midnightblue" points="2585.26,-114.901 2581.18,-124.679 2590.47,-119.579 2585.26,-114.901"/>
</g>
<!-- Node32&#45;&gt;Node27 -->
<g id="edge68" class="edge"><title>Node32&#45;&gt;Node27</title>
<path fill="none" stroke="midnightblue" d="M2671.33,-155.293C2664.92,-164.023 2655.37,-175.36 2646.22,-185.194"/>
<polygon fill="midnightblue" stroke="midnightblue" points="2643.44,-183.039 2639.05,-192.679 2648.49,-187.884 2643.44,-183.039"/>
</g>
<!-- Node33&#45;&gt;Node1 -->
<g id="edge72" class="edge"><title>Node33&#45;&gt;Node1</title>
<path fill="none" stroke="midnightblue" d="M2736.25,-223.293C2729.11,-232.109 2718.56,-243.585 2708.58,-253.485"/>
<polygon fill="midnightblue" stroke="midnightblue" points="2705.9,-251.216 2701.13,-260.679 2710.76,-256.252 2705.9,-251.216"/>
</g>
</g>
</svg>
