<?xml version="1.0" encoding="UTF-8" standalone="no"?>
<!DOCTYPE svg PUBLIC "-//W3C//DTD SVG 1.1//EN"
 "http://www.w3.org/Graphics/SVG/1.1/DTD/svg11.dtd">
<!-- Generated by graphviz version 2.30.1 (20130221.2233)
 -->
<!-- Title: code/om/sources/code_point_source.cpp Pages: 1 -->
<svg width="348pt" height="380pt"
 viewBox="0.00 0.00 348.00 380.00" xmlns="http://www.w3.org/2000/svg" xmlns:xlink="http://www.w3.org/1999/xlink">
<g id="graph0" class="graph" transform="scale(1 1) rotate(0) translate(4 376)">
<title>code/om/sources/code_point_source.cpp</title>
<!-- Node1 -->
<g id="node1" class="node"><title>Node1</title>
<polygon fill="#bfbfbf" stroke="black" points="111.695,-339 111.695,-371 228.305,-371 228.305,-339 111.695,-339"/>
<text text-anchor="start" x="119.695" y="-357" font-family="Helvetica,sans-Serif" font-size="10.00">code/om/sources/code</text>
<text text-anchor="middle" x="170" y="-345" font-family="Helvetica,sans-Serif" font-size="10.00">_point_source.cpp</text>
</g>
<!-- Node2 -->
<g id="node2" class="node"><title>Node2</title>
<g id="a_node2"><a xlink:href="code__point__source_8hpp.html" target="_top" xlink:title="Om header file.">
<polygon fill="none" stroke="black" points="110.303,-269 110.303,-301 229.697,-301 229.697,-269 110.303,-269"/>
<text text-anchor="start" x="118.303" y="-287" font-family="Helvetica,sans-Serif" font-size="10.00">om/sources/code_point</text>
<text text-anchor="middle" x="170" y="-275" font-family="Helvetica,sans-Serif" font-size="10.00">_source.hpp</text>
</a>
</g>
</g>
<!-- Node1&#45;&gt;Node2 -->
<g id="edge1" class="edge"><title>Node1&#45;&gt;Node2</title>
<path fill="none" stroke="midnightblue" d="M164.28,-338.909C163.281,-330.721 163.009,-320.389 163.463,-311.032"/>
<polygon fill="midnightblue" stroke="midnightblue" points="166.953,-311.303 164.285,-301.049 159.976,-310.728 166.953,-311.303"/>
</g>
<!-- Node3 -->
<g id="node3" class="node"><title>Node3</title>
<g id="a_node3"><a xlink:href="code__point_8hpp.html" target="_top" xlink:title="Om header file.">
<polygon fill="none" stroke="black" points="60.4683,-205 60.4683,-225 161.532,-225 161.532,-205 60.4683,-205"/>
<text text-anchor="middle" x="111" y="-211" font-family="Helvetica,sans-Serif" font-size="10.00">om/code_point.hpp</text>
</a>
</g>
</g>
<!-- Node2&#45;&gt;Node3 -->
<g id="edge2" class="edge"><title>Node2&#45;&gt;Node3</title>
<path fill="none" stroke="midnightblue" d="M156.906,-268.909C147.6,-258.183 135.099,-243.776 125.493,-232.704"/>
<polygon fill="midnightblue" stroke="midnightblue" points="128.009,-230.263 118.812,-225.004 122.722,-234.851 128.009,-230.263"/>
</g>
<!-- Node5 -->
<g id="node5" class="node"><title>Node5</title>
<g id="a_node5"><a xlink:href="iterator__source_8hpp.html" target="_top" xlink:title="Om header file.">
<polygon fill="none" stroke="black" points="179.207,-199 179.207,-231 280.793,-231 280.793,-199 179.207,-199"/>
<text text-anchor="start" x="187.207" y="-217" font-family="Helvetica,sans-Serif" font-size="10.00">om/sources/iterator</text>
<text text-anchor="middle" x="230" y="-205" font-family="Helvetica,sans-Serif" font-size="10.00">_source.hpp</text>
</a>
</g>
</g>
<!-- Node2&#45;&gt;Node5 -->
<g id="edge4" class="edge"><title>Node2&#45;&gt;Node5</title>
<path fill="none" stroke="midnightblue" d="M183.316,-268.909C191.162,-260.017 201.24,-248.595 210.022,-238.641"/>
<polygon fill="midnightblue" stroke="midnightblue" points="212.729,-240.863 216.721,-231.049 207.481,-236.232 212.729,-240.863"/>
</g>
<!-- Node2&#45;&gt;Node1 -->
<g id="edge13" class="edge"><title>Node2&#45;&gt;Node1</title>
<path fill="none" stroke="midnightblue" d="M175.715,-301.049C176.716,-309.229 176.991,-319.56 176.539,-328.92"/>
<polygon fill="midnightblue" stroke="midnightblue" points="173.049,-328.656 175.72,-338.909 180.026,-329.228 173.049,-328.656"/>
</g>
<!-- Node4 -->
<g id="node4" class="node"><title>Node4</title>
<polygon fill="none" stroke="#bfbfbf" points="-0.364258,-135 -0.364258,-155 102.364,-155 102.364,-135 -0.364258,-135"/>
<text text-anchor="middle" x="51" y="-141" font-family="Helvetica,sans-Serif" font-size="10.00">boost/locale/utf.hpp</text>
</g>
<!-- Node3&#45;&gt;Node4 -->
<g id="edge3" class="edge"><title>Node3&#45;&gt;Node4</title>
<path fill="none" stroke="midnightblue" d="M102.908,-204.829C93.372,-194.022 77.342,-175.854 65.6137,-162.562"/>
<polygon fill="midnightblue" stroke="midnightblue" points="68.2044,-160.208 58.9637,-155.025 62.9555,-164.84 68.2044,-160.208"/>
</g>
<!-- Node6 -->
<g id="node6" class="node"><title>Node6</title>
<g id="a_node6"><a xlink:href="default__source_8hpp.html" target="_top" xlink:title="Om header file.">
<polygon fill="none" stroke="black" points="120.756,-129 120.756,-161 221.244,-161 221.244,-129 120.756,-129"/>
<text text-anchor="start" x="128.756" y="-147" font-family="Helvetica,sans-Serif" font-size="10.00">om/sources/default</text>
<text text-anchor="middle" x="171" y="-135" font-family="Helvetica,sans-Serif" font-size="10.00">_source.hpp</text>
</a>
</g>
</g>
<!-- Node5&#45;&gt;Node6 -->
<g id="edge5" class="edge"><title>Node5&#45;&gt;Node6</title>
<path fill="none" stroke="midnightblue" d="M216.906,-198.909C209.191,-190.017 199.281,-178.595 190.645,-168.641"/>
<polygon fill="midnightblue" stroke="midnightblue" points="193.255,-166.309 184.057,-161.049 187.967,-170.896 193.255,-166.309"/>
</g>
<!-- Node10 -->
<g id="node10" class="node"><title>Node10</title>
<g id="a_node10"><a xlink:href="iterator__source_8cpp.html" target="_top" xlink:title="Om source file.">
<polygon fill="none" stroke="black" points="239.207,-129 239.207,-161 340.793,-161 340.793,-129 239.207,-129"/>
<text text-anchor="start" x="247.207" y="-147" font-family="Helvetica,sans-Serif" font-size="10.00">om/sources/iterator</text>
<text text-anchor="middle" x="290" y="-135" font-family="Helvetica,sans-Serif" font-size="10.00">_source.cpp</text>
</a>
</g>
</g>
<!-- Node5&#45;&gt;Node10 -->
<g id="edge11" class="edge"><title>Node5&#45;&gt;Node10</title>
<path fill="none" stroke="midnightblue" d="M237.596,-198.909C244.424,-189.929 254.402,-178.369 263.899,-168.346"/>
<polygon fill="midnightblue" stroke="midnightblue" points="266.536,-170.655 271.006,-161.049 261.521,-165.77 266.536,-170.655"/>
</g>
<!-- Node7 -->
<g id="node7" class="node"><title>Node7</title>
<g id="a_node7"><a xlink:href="source_8hpp.html" target="_top" xlink:title="Om header file.">
<polygon fill="none" stroke="black" points="20.9263,-65 20.9263,-85 103.074,-85 103.074,-65 20.9263,-65"/>
<text text-anchor="middle" x="62" y="-71" font-family="Helvetica,sans-Serif" font-size="10.00">om/source.hpp</text>
</a>
</g>
</g>
<!-- Node6&#45;&gt;Node7 -->
<g id="edge6" class="edge"><title>Node6&#45;&gt;Node7</title>
<path fill="none" stroke="midnightblue" d="M146.809,-128.909C128.437,-117.447 103.325,-101.781 85.2006,-90.4738"/>
<polygon fill="midnightblue" stroke="midnightblue" points="86.7691,-87.3271 76.4322,-85.0035 83.064,-93.2661 86.7691,-87.3271"/>
</g>
<!-- Node9 -->
<g id="node9" class="node"><title>Node9</title>
<g id="a_node9"><a xlink:href="default__source_8cpp.html" target="_top" xlink:title="Om source file.">
<polygon fill="none" stroke="black" points="120.756,-59 120.756,-91 221.244,-91 221.244,-59 120.756,-59"/>
<text text-anchor="start" x="128.756" y="-77" font-family="Helvetica,sans-Serif" font-size="10.00">om/sources/default</text>
<text text-anchor="middle" x="171" y="-65" font-family="Helvetica,sans-Serif" font-size="10.00">_source.cpp</text>
</a>
</g>
</g>
<!-- Node6&#45;&gt;Node9 -->
<g id="edge9" class="edge"><title>Node6&#45;&gt;Node9</title>
<path fill="none" stroke="midnightblue" d="M165.28,-128.909C164.281,-120.721 164.009,-110.389 164.463,-101.032"/>
<polygon fill="midnightblue" stroke="midnightblue" points="167.953,-101.303 165.285,-91.0492 160.976,-100.728 167.953,-101.303"/>
</g>
<!-- Node8 -->
<g id="node8" class="node"><title>Node8</title>
<g id="a_node8"><a xlink:href="source_8cpp.html" target="_top" xlink:title="Om source file.">
<polygon fill="none" stroke="black" points="21.207,-1 21.207,-21 102.793,-21 102.793,-1 21.207,-1"/>
<text text-anchor="middle" x="62" y="-7" font-family="Helvetica,sans-Serif" font-size="10.00">om/source.cpp</text>
</a>
</g>
</g>
<!-- Node7&#45;&gt;Node8 -->
<g id="edge7" class="edge"><title>Node7&#45;&gt;Node8</title>
<path fill="none" stroke="midnightblue" d="M57.0446,-64.8517C55.2519,-56.0601 54.8023,-42.4977 55.6958,-31.3131"/>
<polygon fill="midnightblue" stroke="midnightblue" points="59.1937,-31.5588 57.037,-21.1858 52.2543,-30.6398 59.1937,-31.5588"/>
</g>
<!-- Node8&#45;&gt;Node7 -->
<g id="edge8" class="edge"><title>Node8&#45;&gt;Node7</title>
<path fill="none" stroke="midnightblue" d="M66.963,-21.1858C68.7519,-29.991 69.1977,-43.5568 68.3004,-54.7346"/>
<polygon fill="midnightblue" stroke="midnightblue" points="64.8038,-54.4776 66.9554,-64.8517 71.7428,-55.4002 64.8038,-54.4776"/>
</g>
<!-- Node9&#45;&gt;Node6 -->
<g id="edge10" class="edge"><title>Node9&#45;&gt;Node6</title>
<path fill="none" stroke="midnightblue" d="M176.715,-91.0492C177.716,-99.2293 177.991,-109.56 177.539,-118.92"/>
<polygon fill="midnightblue" stroke="midnightblue" points="174.049,-118.656 176.72,-128.909 181.026,-119.228 174.049,-118.656"/>
</g>
<!-- Node10&#45;&gt;Node5 -->
<g id="edge12" class="edge"><title>Node10&#45;&gt;Node5</title>
<path fill="none" stroke="midnightblue" d="M282.436,-161.049C275.618,-170.021 265.644,-181.579 256.146,-191.607"/>
<polygon fill="midnightblue" stroke="midnightblue" points="253.505,-189.302 249.036,-198.909 258.52,-194.186 253.505,-189.302"/>
</g>
</g>
</svg>
