<?xml version="1.0" encoding="UTF-8" standalone="no"?>
<!DOCTYPE svg PUBLIC "-//W3C//DTD SVG 1.1//EN"
 "http://www.w3.org/Graphics/SVG/1.1/DTD/svg11.dtd">
<!-- Generated by graphviz version 2.34.0 (20130907.0228)
 -->
<!-- Title: om/source/code_point_string_front_source.hpp Pages: 1 -->
<svg width="518pt" height="286pt"
 viewBox="0.00 0.00 518.00 286.00" xmlns="http://www.w3.org/2000/svg" xmlns:xlink="http://www.w3.org/1999/xlink">
<g id="graph0" class="graph" transform="scale(1 1) rotate(0) translate(4 282)">
<title>om/source/code_point_string_front_source.hpp</title>
<!-- Node1 -->
<g id="node1" class="node"><title>Node1</title>
<polygon fill="#bfbfbf" stroke="black" points="331.688,-245 331.688,-277 458.312,-277 458.312,-245 331.688,-245"/>
<text text-anchor="start" x="339.688" y="-263" font-family="Helvetica,sans-Serif" font-size="10.00">om/source/code_point</text>
<text text-anchor="middle" x="395" y="-251" font-family="Helvetica,sans-Serif" font-size="10.00">_string_front_source.hpp</text>
</g>
<!-- Node2 -->
<g id="node2" class="node"><title>Node2</title>
<g id="a_node2"><a xlink:href="default__source_8hpp.html" target="_top" xlink:title="Om header file. ">
<polygon fill="none" stroke="black" points="156.737,-181 156.737,-201 307.263,-201 307.263,-181 156.737,-181"/>
<text text-anchor="middle" x="232" y="-187" font-family="Helvetica,sans-Serif" font-size="10.00">om/source/default_source.hpp</text>
</a>
</g>
</g>
<!-- Node1&#45;&gt;Node2 -->
<g id="edge1" class="edge"><title>Node1&#45;&gt;Node2</title>
<path fill="none" stroke="midnightblue" d="M358.825,-244.909C330.09,-232.921 290.332,-216.335 263.033,-204.946"/>
<polygon fill="midnightblue" stroke="midnightblue" points="264.159,-201.624 253.582,-201.004 261.464,-208.084 264.159,-201.624"/>
</g>
<!-- Node9 -->
<g id="node9" class="node"><title>Node9</title>
<polygon fill="none" stroke="#bfbfbf" points="324.773,-181 324.773,-201 365.227,-201 365.227,-181 324.773,-181"/>
<text text-anchor="middle" x="345" y="-187" font-family="Helvetica,sans-Serif" font-size="10.00">string</text>
</g>
<!-- Node1&#45;&gt;Node9 -->
<g id="edge10" class="edge"><title>Node1&#45;&gt;Node9</title>
<path fill="none" stroke="midnightblue" d="M383.903,-244.909C376.171,-234.393 365.838,-220.339 357.764,-209.359"/>
<polygon fill="midnightblue" stroke="midnightblue" points="360.364,-206.987 351.62,-201.004 354.724,-211.133 360.364,-206.987"/>
</g>
<!-- Node10 -->
<g id="node10" class="node"><title>Node10</title>
<g id="a_node10"><a xlink:href="code__point__string__front__source_8cpp.html" target="_top" xlink:title="Om source file. ">
<polygon fill="none" stroke="black" points="382.968,-175 382.968,-207 509.032,-207 509.032,-175 382.968,-175"/>
<text text-anchor="start" x="390.968" y="-193" font-family="Helvetica,sans-Serif" font-size="10.00">om/source/code_point</text>
<text text-anchor="middle" x="446" y="-181" font-family="Helvetica,sans-Serif" font-size="10.00">_string_front_source.cpp</text>
</a>
</g>
</g>
<!-- Node1&#45;&gt;Node10 -->
<g id="edge11" class="edge"><title>Node1&#45;&gt;Node10</title>
<path fill="none" stroke="midnightblue" d="M400.599,-244.909C406.127,-236.105 414.356,-224.821 422.375,-214.937"/>
<polygon fill="midnightblue" stroke="midnightblue" points="425.248,-216.958 428.998,-207.049 419.887,-212.457 425.248,-216.958"/>
</g>
<!-- Node3 -->
<g id="node3" class="node"><title>Node3</title>
<g id="a_node3"><a xlink:href="source_2source_8hpp.html" target="_top" xlink:title="Om header file. ">
<polygon fill="none" stroke="black" points="2.52979,-117 2.52979,-137 117.47,-137 117.47,-117 2.52979,-117"/>
<text text-anchor="middle" x="60" y="-123" font-family="Helvetica,sans-Serif" font-size="10.00">om/source/source.hpp</text>
</a>
</g>
</g>
<!-- Node2&#45;&gt;Node3 -->
<g id="edge2" class="edge"><title>Node2&#45;&gt;Node3</title>
<path fill="none" stroke="midnightblue" d="M206.99,-180.985C177.437,-170.332 128.087,-152.543 94.8117,-140.548"/>
<polygon fill="midnightblue" stroke="midnightblue" points="95.6348,-137.125 85.0405,-137.026 93.2611,-143.71 95.6348,-137.125"/>
</g>
<!-- Node7 -->
<g id="node7" class="node"><title>Node7</title>
<polygon fill="none" stroke="#bfbfbf" points="135.438,-117 135.438,-137 182.562,-137 182.562,-117 135.438,-117"/>
<text text-anchor="middle" x="159" y="-123" font-family="Helvetica,sans-Serif" font-size="10.00">iterator</text>
</g>
<!-- Node2&#45;&gt;Node7 -->
<g id="edge7" class="edge"><title>Node2&#45;&gt;Node7</title>
<path fill="none" stroke="midnightblue" d="M221.229,-180.852C209.799,-171.144 191.521,-155.62 177.725,-143.903"/>
<polygon fill="midnightblue" stroke="midnightblue" points="179.703,-140.992 169.816,-137.186 175.172,-146.327 179.703,-140.992"/>
</g>
<!-- Node8 -->
<g id="node8" class="node"><title>Node8</title>
<g id="a_node8"><a xlink:href="default__source_8cpp.html" target="_top" xlink:title="Om source file. ">
<polygon fill="none" stroke="black" points="201.018,-117 201.018,-137 350.982,-137 350.982,-117 201.018,-117"/>
<text text-anchor="middle" x="276" y="-123" font-family="Helvetica,sans-Serif" font-size="10.00">om/source/default_source.cpp</text>
</a>
</g>
</g>
<!-- Node2&#45;&gt;Node8 -->
<g id="edge8" class="edge"><title>Node2&#45;&gt;Node8</title>
<path fill="none" stroke="midnightblue" d="M233.537,-180.852C238.308,-171.419 248.522,-156.495 257.914,-144.907"/>
<polygon fill="midnightblue" stroke="midnightblue" points="260.678,-147.06 264.518,-137.186 255.358,-142.51 260.678,-147.06"/>
</g>
<!-- Node4 -->
<g id="node4" class="node"><title>Node4</title>
<g id="a_node4"><a xlink:href="source_2source_8cpp.html" target="_top" xlink:title="Om source file. ">
<polygon fill="none" stroke="black" points="2.81055,-59 2.81055,-79 117.189,-79 117.189,-59 2.81055,-59"/>
<text text-anchor="middle" x="60" y="-65" font-family="Helvetica,sans-Serif" font-size="10.00">om/source/source.cpp</text>
</a>
</g>
</g>
<!-- Node3&#45;&gt;Node4 -->
<g id="edge3" class="edge"><title>Node3&#45;&gt;Node4</title>
<path fill="none" stroke="midnightblue" d="M54.8337,-116.753C53.3076,-109.25 52.8844,-98.4238 53.5643,-89.0781"/>
<polygon fill="midnightblue" stroke="midnightblue" points="57.0461,-89.4439 54.869,-79.0752 50.1049,-88.5385 57.0461,-89.4439"/>
</g>
<!-- Node4&#45;&gt;Node3 -->
<g id="edge6" class="edge"><title>Node4&#45;&gt;Node3</title>
<path fill="none" stroke="midnightblue" d="M65.131,-79.0752C66.674,-86.5262 67.1141,-97.3384 66.4512,-106.707"/>
<polygon fill="midnightblue" stroke="midnightblue" points="62.9633,-106.389 65.1663,-116.753 69.9067,-107.278 62.9633,-106.389"/>
</g>
<!-- Node5 -->
<g id="node5" class="node"><title>Node5</title>
<polygon fill="none" stroke="#bfbfbf" points="-0.115723,-1 -0.115723,-21 48.1157,-21 48.1157,-1 -0.115723,-1"/>
<text text-anchor="middle" x="24" y="-7" font-family="Helvetica,sans-Serif" font-size="10.00">cassert</text>
</g>
<!-- Node4&#45;&gt;Node5 -->
<g id="edge4" class="edge"><title>Node4&#45;&gt;Node5</title>
<path fill="none" stroke="midnightblue" d="M54.0553,-58.7527C48.9703,-50.8427 41.5096,-39.2372 35.2939,-29.5683"/>
<polygon fill="midnightblue" stroke="midnightblue" points="38.1858,-27.5943 29.8341,-21.0752 32.2975,-31.3797 38.1858,-27.5943"/>
</g>
<!-- Node6 -->
<g id="node6" class="node"><title>Node6</title>
<polygon fill="none" stroke="#bfbfbf" points="66.5986,-1 66.5986,-21 125.401,-21 125.401,-1 66.5986,-1"/>
<text text-anchor="middle" x="96" y="-7" font-family="Helvetica,sans-Serif" font-size="10.00">stdexcept</text>
</g>
<!-- Node4&#45;&gt;Node6 -->
<g id="edge5" class="edge"><title>Node4&#45;&gt;Node6</title>
<path fill="none" stroke="midnightblue" d="M65.9447,-58.7527C71.0297,-50.8427 78.4904,-39.2372 84.7061,-29.5683"/>
<polygon fill="midnightblue" stroke="midnightblue" points="87.7025,-31.3797 90.1659,-21.0752 81.8142,-27.5943 87.7025,-31.3797"/>
</g>
<!-- Node8&#45;&gt;Node2 -->
<g id="edge9" class="edge"><title>Node8&#45;&gt;Node2</title>
<path fill="none" stroke="midnightblue" d="M274.444,-137.186C269.659,-146.633 259.438,-161.56 250.049,-173.139"/>
<polygon fill="midnightblue" stroke="midnightblue" points="247.291,-170.978 243.448,-180.852 252.609,-175.53 247.291,-170.978"/>
</g>
<!-- Node10&#45;&gt;Node1 -->
<g id="edge14" class="edge"><title>Node10&#45;&gt;Node1</title>
<path fill="none" stroke="midnightblue" d="M440.428,-207.049C434.908,-215.845 426.683,-227.127 418.663,-237.015"/>
<polygon fill="midnightblue" stroke="midnightblue" points="415.786,-234.999 412.039,-244.909 421.148,-239.499 415.786,-234.999"/>
</g>
<!-- Node11 -->
<g id="node11" class="node"><title>Node11</title>
<g id="a_node11"><a xlink:href="utf8_8hpp.html" target="_top" xlink:title="Om header file. ">
<polygon fill="none" stroke="black" points="411.594,-117 411.594,-137 480.406,-137 480.406,-117 411.594,-117"/>
<text text-anchor="middle" x="446" y="-123" font-family="Helvetica,sans-Serif" font-size="10.00">om/utf8.hpp</text>
</a>
</g>
</g>
<!-- Node10&#45;&gt;Node11 -->
<g id="edge12" class="edge"><title>Node10&#45;&gt;Node11</title>
<path fill="none" stroke="midnightblue" d="M446,-174.992C446,-166.726 446,-156.373 446,-147.489"/>
<polygon fill="midnightblue" stroke="midnightblue" points="449.5,-147.29 446,-137.29 442.5,-147.29 449.5,-147.29"/>
</g>
<!-- Node12 -->
<g id="node12" class="node"><title>Node12</title>
<polygon fill="none" stroke="#bfbfbf" points="394.636,-59 394.636,-79 497.364,-79 497.364,-59 394.636,-59"/>
<text text-anchor="middle" x="446" y="-65" font-family="Helvetica,sans-Serif" font-size="10.00">boost/locale/utf.hpp</text>
</g>
<!-- Node11&#45;&gt;Node12 -->
<g id="edge13" class="edge"><title>Node11&#45;&gt;Node12</title>
<path fill="none" stroke="midnightblue" d="M446,-116.753C446,-109.25 446,-98.4238 446,-89.0781"/>
<polygon fill="midnightblue" stroke="midnightblue" points="449.5,-89.0752 446,-79.0752 442.5,-89.0752 449.5,-89.0752"/>
</g>
</g>
</svg>
