<?xml version="1.0" encoding="UTF-8" standalone="no"?>
<!DOCTYPE svg PUBLIC "-//W3C//DTD SVG 1.1//EN"
 "http://www.w3.org/Graphics/SVG/1.1/DTD/svg11.dtd">
<!-- Generated by graphviz version 2.36.0 (20140111.2315)
 -->
<!-- Title: om/source/code_point_string_front_source.hpp Pages: 1 -->
<svg width="518pt" height="272pt"
 viewBox="0.00 0.00 518.00 272.00" xmlns="http://www.w3.org/2000/svg" xmlns:xlink="http://www.w3.org/1999/xlink">
<g id="graph0" class="graph" transform="scale(1 1) rotate(0) translate(4 268)">
<title>om/source/code_point_string_front_source.hpp</title>
<!-- Node0 -->
<g id="node1" class="node"><title>Node0</title>
<g id="a_node1"><a xlink:title="Om header file.">
<polygon fill="#bfbfbf" stroke="black" points="331.688,-235 331.688,-263 458.312,-263 458.312,-235 331.688,-235"/>
<text text-anchor="start" x="339.688" y="-251" font-family="Helvetica,sans-Serif" font-size="10.00">om/source/code_point</text>
<text text-anchor="middle" x="395" y="-241" font-family="Helvetica,sans-Serif" font-size="10.00">_string_front_source.hpp</text>
</a>
</g>
</g>
<!-- Node1 -->
<g id="node2" class="node"><title>Node1</title>
<g id="a_node2"><a xlink:href="default__source_8hpp.html" target="_top" xlink:title="Om header file.">
<polygon fill="none" stroke="black" points="156.737,-174 156.737,-192 307.263,-192 307.263,-174 156.737,-174"/>
<text text-anchor="middle" x="232" y="-180" font-family="Helvetica,sans-Serif" font-size="10.00">om/source/default_source.hpp</text>
</a>
</g>
</g>
<!-- Node0&#45;&gt;Node1 -->
<g id="edge1" class="edge"><title>Node0&#45;&gt;Node1</title>
<path fill="none" stroke="midnightblue" d="M361.621,-234.894C332.294,-223.379 290.014,-206.779 261.805,-195.703"/>
<polygon fill="midnightblue" stroke="midnightblue" points="263.046,-192.43 252.458,-192.033 260.487,-198.945 263.046,-192.43"/>
</g>
<!-- Node8 -->
<g id="node9" class="node"><title>Node8</title>
<g id="a_node9"><a xlink:title=" ">
<polygon fill="none" stroke="#bfbfbf" points="324.773,-174 324.773,-192 365.227,-192 365.227,-174 324.773,-174"/>
<text text-anchor="middle" x="345" y="-180" font-family="Helvetica,sans-Serif" font-size="10.00">string</text>
</a>
</g>
</g>
<!-- Node0&#45;&gt;Node8 -->
<g id="edge10" class="edge"><title>Node0&#45;&gt;Node8</title>
<path fill="none" stroke="midnightblue" d="M384.64,-234.739C376.863,-224.785 366.168,-211.095 357.847,-200.444"/>
<polygon fill="midnightblue" stroke="midnightblue" points="360.446,-198.086 351.532,-192.361 354.93,-202.396 360.446,-198.086"/>
</g>
<!-- Node9 -->
<g id="node10" class="node"><title>Node9</title>
<g id="a_node10"><a xlink:href="code__point__string__front__source_8cpp.html" target="_top" xlink:title="Om source file.">
<polygon fill="none" stroke="black" points="382.968,-169 382.968,-197 509.032,-197 509.032,-169 382.968,-169"/>
<text text-anchor="start" x="390.968" y="-185" font-family="Helvetica,sans-Serif" font-size="10.00">om/source/code_point</text>
<text text-anchor="middle" x="446" y="-175" font-family="Helvetica,sans-Serif" font-size="10.00">_string_front_source.cpp</text>
</a>
</g>
</g>
<!-- Node0&#45;&gt;Node9 -->
<g id="edge11" class="edge"><title>Node0&#45;&gt;Node9</title>
<path fill="none" stroke="midnightblue" d="M399.975,-234.739C405.663,-226.072 414.569,-214.573 423.131,-204.714"/>
<polygon fill="midnightblue" stroke="midnightblue" points="425.767,-207.018 429.856,-197.244 420.564,-202.334 425.767,-207.018"/>
</g>
<!-- Node2 -->
<g id="node3" class="node"><title>Node2</title>
<g id="a_node3"><a xlink:href="source_2source_8hpp.html" target="_top" xlink:title="Om header file.">
<polygon fill="none" stroke="black" points="2.52979,-113 2.52979,-131 117.47,-131 117.47,-113 2.52979,-113"/>
<text text-anchor="middle" x="60" y="-119" font-family="Helvetica,sans-Serif" font-size="10.00">om/source/source.hpp</text>
</a>
</g>
</g>
<!-- Node1&#45;&gt;Node2 -->
<g id="edge2" class="edge"><title>Node1&#45;&gt;Node2</title>
<path fill="none" stroke="midnightblue" d="M208.445,-173.92C178.678,-163.709 127.257,-146.071 93.4345,-134.469"/>
<polygon fill="midnightblue" stroke="midnightblue" points="94.1407,-131.011 83.5461,-131.077 91.8694,-137.632 94.1407,-131.011"/>
</g>
<!-- Node6 -->
<g id="node7" class="node"><title>Node6</title>
<g id="a_node7"><a xlink:title=" ">
<polygon fill="none" stroke="#bfbfbf" points="135.438,-113 135.438,-131 182.562,-131 182.562,-113 135.438,-113"/>
<text text-anchor="middle" x="159" y="-119" font-family="Helvetica,sans-Serif" font-size="10.00">iterator</text>
</a>
</g>
</g>
<!-- Node1&#45;&gt;Node6 -->
<g id="edge7" class="edge"><title>Node1&#45;&gt;Node6</title>
<path fill="none" stroke="midnightblue" d="M221.85,-173.796C210.3,-164.462 191.213,-149.035 177.098,-137.627"/>
<polygon fill="midnightblue" stroke="midnightblue" points="179.042,-134.698 169.064,-131.134 174.641,-140.142 179.042,-134.698"/>
</g>
<!-- Node7 -->
<g id="node8" class="node"><title>Node7</title>
<g id="a_node8"><a xlink:href="default__source_8cpp.html" target="_top" xlink:title="Om source file.">
<polygon fill="none" stroke="black" points="201.018,-113 201.018,-131 350.982,-131 350.982,-113 201.018,-113"/>
<text text-anchor="middle" x="276" y="-119" font-family="Helvetica,sans-Serif" font-size="10.00">om/source/default_source.cpp</text>
</a>
</g>
</g>
<!-- Node1&#45;&gt;Node7 -->
<g id="edge8" class="edge"><title>Node1&#45;&gt;Node7</title>
<path fill="none" stroke="midnightblue" d="M233.273,-173.796C237.989,-164.726 248.647,-149.904 258.327,-138.605"/>
<polygon fill="midnightblue" stroke="midnightblue" points="260.978,-140.892 265.105,-131.134 255.794,-136.189 260.978,-140.892"/>
</g>
<!-- Node3 -->
<g id="node4" class="node"><title>Node3</title>
<g id="a_node4"><a xlink:href="source_2source_8cpp.html" target="_top" xlink:title="Om source file.">
<polygon fill="none" stroke="black" points="2.81055,-57 2.81055,-75 117.189,-75 117.189,-57 2.81055,-57"/>
<text text-anchor="middle" x="60" y="-63" font-family="Helvetica,sans-Serif" font-size="10.00">om/source/source.cpp</text>
</a>
</g>
</g>
<!-- Node2&#45;&gt;Node3 -->
<g id="edge3" class="edge"><title>Node2&#45;&gt;Node3</title>
<path fill="none" stroke="midnightblue" d="M54.9375,-112.562C53.3254,-105.308 52.8683,-94.5884 53.5664,-85.3691"/>
<polygon fill="midnightblue" stroke="midnightblue" points="57.0695,-85.5903 54.9906,-75.2014 50.1371,-84.6192 57.0695,-85.5903"/>
</g>
<!-- Node3&#45;&gt;Node2 -->
<g id="edge6" class="edge"><title>Node3&#45;&gt;Node2</title>
<path fill="none" stroke="midnightblue" d="M65.0094,-75.2014C66.6646,-82.4586 67.1393,-93.3129 66.4335,-102.633"/>
<polygon fill="midnightblue" stroke="midnightblue" points="62.9632,-102.178 65.0625,-112.562 69.8974,-103.135 62.9632,-102.178"/>
</g>
<!-- Node4 -->
<g id="node5" class="node"><title>Node4</title>
<g id="a_node5"><a xlink:title=" ">
<polygon fill="none" stroke="#bfbfbf" points="-0.115723,-1 -0.115723,-19 48.1157,-19 48.1157,-1 -0.115723,-1"/>
<text text-anchor="middle" x="24" y="-7" font-family="Helvetica,sans-Serif" font-size="10.00">cassert</text>
</a>
</g>
</g>
<!-- Node3&#45;&gt;Node4 -->
<g id="edge4" class="edge"><title>Node3&#45;&gt;Node4</title>
<path fill="none" stroke="midnightblue" d="M54.375,-56.5625C49.2198,-48.8297 41.4398,-37.1597 35.0443,-27.5665"/>
<polygon fill="midnightblue" stroke="midnightblue" points="37.9269,-25.5805 29.4676,-19.2014 32.1025,-29.4634 37.9269,-25.5805"/>
</g>
<!-- Node5 -->
<g id="node6" class="node"><title>Node5</title>
<g id="a_node6"><a xlink:title=" ">
<polygon fill="none" stroke="#bfbfbf" points="66.5986,-1 66.5986,-19 125.401,-19 125.401,-1 66.5986,-1"/>
<text text-anchor="middle" x="96" y="-7" font-family="Helvetica,sans-Serif" font-size="10.00">stdexcept</text>
</a>
</g>
</g>
<!-- Node3&#45;&gt;Node5 -->
<g id="edge5" class="edge"><title>Node3&#45;&gt;Node5</title>
<path fill="none" stroke="midnightblue" d="M65.625,-56.5625C70.7802,-48.8297 78.5602,-37.1597 84.9557,-27.5665"/>
<polygon fill="midnightblue" stroke="midnightblue" points="87.8975,-29.4634 90.5324,-19.2014 82.0731,-25.5805 87.8975,-29.4634"/>
</g>
<!-- Node7&#45;&gt;Node1 -->
<g id="edge9" class="edge"><title>Node7&#45;&gt;Node1</title>
<path fill="none" stroke="midnightblue" d="M274.763,-131.134C270.077,-140.175 259.433,-154.991 249.747,-166.308"/>
<polygon fill="midnightblue" stroke="midnightblue" points="247.083,-164.035 242.963,-173.796 252.271,-168.735 247.083,-164.035"/>
</g>
<!-- Node9&#45;&gt;Node0 -->
<g id="edge14" class="edge"><title>Node9&#45;&gt;Node0</title>
<path fill="none" stroke="midnightblue" d="M441.037,-197.244C435.352,-205.907 426.448,-217.405 417.885,-227.267"/>
<polygon fill="midnightblue" stroke="midnightblue" points="415.248,-224.965 411.16,-234.739 420.451,-229.648 415.248,-224.965"/>
</g>
<!-- Node10 -->
<g id="node11" class="node"><title>Node10</title>
<g id="a_node11"><a xlink:href="utf8_8hpp.html" target="_top" xlink:title="Om header file.">
<polygon fill="none" stroke="black" points="411.594,-113 411.594,-131 480.406,-131 480.406,-113 411.594,-113"/>
<text text-anchor="middle" x="446" y="-119" font-family="Helvetica,sans-Serif" font-size="10.00">om/utf8.hpp</text>
</a>
</g>
</g>
<!-- Node9&#45;&gt;Node10 -->
<g id="edge12" class="edge"><title>Node9&#45;&gt;Node10</title>
<path fill="none" stroke="midnightblue" d="M446,-168.906C446,-160.79 446,-150.245 446,-141.309"/>
<polygon fill="midnightblue" stroke="midnightblue" points="449.5,-141.153 446,-131.153 442.5,-141.153 449.5,-141.153"/>
</g>
<!-- Node11 -->
<g id="node12" class="node"><title>Node11</title>
<g id="a_node12"><a xlink:title=" ">
<polygon fill="none" stroke="#bfbfbf" points="394.636,-57 394.636,-75 497.364,-75 497.364,-57 394.636,-57"/>
<text text-anchor="middle" x="446" y="-63" font-family="Helvetica,sans-Serif" font-size="10.00">boost/locale/utf.hpp</text>
</a>
</g>
</g>
<!-- Node10&#45;&gt;Node11 -->
<g id="edge13" class="edge"><title>Node10&#45;&gt;Node11</title>
<path fill="none" stroke="midnightblue" d="M446,-112.562C446,-105.308 446,-94.5884 446,-85.3691"/>
<polygon fill="midnightblue" stroke="midnightblue" points="449.5,-85.2014 446,-75.2014 442.5,-85.2015 449.5,-85.2014"/>
</g>
</g>
</svg>
