<?xml version="1.0" encoding="UTF-8" standalone="no"?>
<!DOCTYPE svg PUBLIC "-//W3C//DTD SVG 1.1//EN"
 "http://www.w3.org/Graphics/SVG/1.1/DTD/svg11.dtd">
<!-- Generated by graphviz version 2.28.0 (20120817.0054)
 -->
<!-- Title: code/om/sources/collection_front_source.hpp Pages: 1 -->
<svg width="450pt" height="300pt"
 viewBox="0.00 0.00 450.00 300.00" xmlns="http://www.w3.org/2000/svg" xmlns:xlink="http://www.w3.org/1999/xlink">
<g id="graph1" class="graph" transform="scale(1 1) rotate(0) translate(4 296)">
<title>code/om/sources/collection_front_source.hpp</title>
<!-- Node1 -->
<g id="node1" class="node"><title>Node1</title>
<polygon fill="#bfbfbf" stroke="black" points="314,-261 314,-291 442,-291 442,-261 314,-261"/>
<text text-anchor="start" x="322" y="-279" font-family="Helvetica,sans-Serif" font-size="10.00">code/om/sources/collection</text>
<text text-anchor="middle" x="378" y="-268" font-family="Helvetica,sans-Serif" font-size="10.00">_front_source.hpp</text>
</g>
<!-- Node2 -->
<g id="node3" class="node"><title>Node2</title>
<a xlink:href="iterator__pair__source_8hpp.html" target="_top" xlink:title="Om header file.">
<polygon fill="none" stroke="black" points="212.5,-193 212.5,-223 307.5,-223 307.5,-193 212.5,-193"/>
<text text-anchor="start" x="220.5" y="-211" font-family="Helvetica,sans-Serif" font-size="10.00">om/sources/iterator</text>
<text text-anchor="middle" x="260" y="-200" font-family="Helvetica,sans-Serif" font-size="10.00">_pair_source.hpp</text>
</a>
</g>
<!-- Node1&#45;&gt;Node2 -->
<g id="edge2" class="edge"><title>Node1&#45;&gt;Node2</title>
<path fill="none" stroke="midnightblue" d="M352.686,-260.841C335.576,-251.272 312.783,-238.523 294.081,-228.062"/>
<polygon fill="midnightblue" stroke="midnightblue" points="295.708,-224.962 285.272,-223.135 292.291,-231.071 295.708,-224.962"/>
</g>
<!-- Node8 -->
<g id="node18" class="node"><title>Node8</title>
<a xlink:href="collection__front__source_8cpp.html" target="_top" xlink:title="Om source file.">
<polygon fill="none" stroke="black" points="325.5,-193 325.5,-223 430.5,-223 430.5,-193 325.5,-193"/>
<text text-anchor="start" x="333.5" y="-211" font-family="Helvetica,sans-Serif" font-size="10.00">om/sources/collection</text>
<text text-anchor="middle" x="378" y="-200" font-family="Helvetica,sans-Serif" font-size="10.00">_front_source.cpp</text>
</a>
</g>
<!-- Node1&#45;&gt;Node8 -->
<g id="edge20" class="edge"><title>Node1&#45;&gt;Node8</title>
<path fill="none" stroke="midnightblue" d="M372.322,-260.679C371.294,-252.722 371.005,-242.605 371.456,-233.436"/>
<polygon fill="midnightblue" stroke="midnightblue" points="374.959,-233.555 372.325,-223.293 367.984,-232.958 374.959,-233.555"/>
</g>
<!-- Node3 -->
<g id="node5" class="node"><title>Node3</title>
<a xlink:href="default__source_8hpp.html" target="_top" xlink:title="Om header file.">
<polygon fill="none" stroke="black" points="98,-125 98,-155 194,-155 194,-125 98,-125"/>
<text text-anchor="start" x="106" y="-143" font-family="Helvetica,sans-Serif" font-size="10.00">om/sources/default</text>
<text text-anchor="middle" x="146" y="-132" font-family="Helvetica,sans-Serif" font-size="10.00">_source.hpp</text>
</a>
</g>
<!-- Node2&#45;&gt;Node3 -->
<g id="edge4" class="edge"><title>Node2&#45;&gt;Node3</title>
<path fill="none" stroke="midnightblue" d="M235.544,-192.841C219.165,-183.359 197.393,-170.754 179.42,-160.348"/>
<polygon fill="midnightblue" stroke="midnightblue" points="180.823,-157.117 170.415,-155.135 177.316,-163.175 180.823,-157.117"/>
</g>
<!-- Node7 -->
<g id="node15" class="node"><title>Node7</title>
<a xlink:href="iterator__pair__source_8cpp.html" target="_top" xlink:title="Om source file.">
<polygon fill="none" stroke="black" points="212.5,-125 212.5,-155 307.5,-155 307.5,-125 212.5,-125"/>
<text text-anchor="start" x="220.5" y="-143" font-family="Helvetica,sans-Serif" font-size="10.00">om/sources/iterator</text>
<text text-anchor="middle" x="260" y="-132" font-family="Helvetica,sans-Serif" font-size="10.00">_pair_source.cpp</text>
</a>
</g>
<!-- Node2&#45;&gt;Node7 -->
<g id="edge16" class="edge"><title>Node2&#45;&gt;Node7</title>
<path fill="none" stroke="midnightblue" d="M254.322,-192.679C253.294,-184.722 253.005,-174.605 253.456,-165.436"/>
<polygon fill="midnightblue" stroke="midnightblue" points="256.959,-165.555 254.325,-155.293 249.984,-164.958 256.959,-165.555"/>
</g>
<!-- Node4 -->
<g id="node7" class="node"><title>Node4</title>
<a xlink:href="source_8hpp.html" target="_top" xlink:title="Om header file.">
<polygon fill="none" stroke="black" points="0,-62.5 0,-81.5 80,-81.5 80,-62.5 0,-62.5"/>
<text text-anchor="middle" x="40" y="-69.5" font-family="Helvetica,sans-Serif" font-size="10.00">om/source.hpp</text>
</a>
</g>
<!-- Node3&#45;&gt;Node4 -->
<g id="edge6" class="edge"><title>Node3&#45;&gt;Node4</title>
<path fill="none" stroke="midnightblue" d="M123.26,-124.841C105.337,-113.681 80.469,-98.1977 62.5853,-87.0625"/>
<polygon fill="midnightblue" stroke="midnightblue" points="64.2826,-83.9964 53.9436,-81.6819 60.5826,-89.9387 64.2826,-83.9964"/>
</g>
<!-- Node6 -->
<g id="node12" class="node"><title>Node6</title>
<a xlink:href="default__source_8cpp.html" target="_top" xlink:title="Om source file.">
<polygon fill="none" stroke="black" points="98,-57 98,-87 194,-87 194,-57 98,-57"/>
<text text-anchor="start" x="106" y="-75" font-family="Helvetica,sans-Serif" font-size="10.00">om/sources/default</text>
<text text-anchor="middle" x="146" y="-64" font-family="Helvetica,sans-Serif" font-size="10.00">_source.cpp</text>
</a>
</g>
<!-- Node3&#45;&gt;Node6 -->
<g id="edge12" class="edge"><title>Node3&#45;&gt;Node6</title>
<path fill="none" stroke="midnightblue" d="M140.322,-124.679C139.294,-116.722 139.005,-106.605 139.456,-97.4356"/>
<polygon fill="midnightblue" stroke="midnightblue" points="142.959,-97.5554 140.325,-87.2931 135.984,-96.9578 142.959,-97.5554"/>
</g>
<!-- Node5 -->
<g id="node9" class="node"><title>Node5</title>
<a xlink:href="source_8cpp.html" target="_top" xlink:title="Om source file.">
<polygon fill="none" stroke="black" points="0.5,-0.5 0.5,-19.5 79.5,-19.5 79.5,-0.5 0.5,-0.5"/>
<text text-anchor="middle" x="40" y="-7.5" font-family="Helvetica,sans-Serif" font-size="10.00">om/source.cpp</text>
</a>
</g>
<!-- Node4&#45;&gt;Node5 -->
<g id="edge8" class="edge"><title>Node4&#45;&gt;Node5</title>
<path fill="none" stroke="midnightblue" d="M35.0994,-62.4035C33.2684,-53.9381 32.797,-40.7283 33.6851,-29.8199"/>
<polygon fill="midnightblue" stroke="midnightblue" points="37.1982,-29.9661 35.1029,-19.5806 30.2644,-29.006 37.1982,-29.9661"/>
</g>
<!-- Node5&#45;&gt;Node4 -->
<g id="edge10" class="edge"><title>Node5&#45;&gt;Node4</title>
<path fill="none" stroke="midnightblue" d="M44.8971,-19.5806C46.7298,-28.04 47.203,-41.2482 46.3165,-52.1595"/>
<polygon fill="midnightblue" stroke="midnightblue" points="42.8028,-52.0184 44.9006,-62.4035 49.7369,-52.9769 42.8028,-52.0184"/>
</g>
<!-- Node6&#45;&gt;Node3 -->
<g id="edge14" class="edge"><title>Node6&#45;&gt;Node3</title>
<path fill="none" stroke="midnightblue" d="M151.675,-87.2931C152.704,-95.2449 152.995,-105.361 152.545,-114.532"/>
<polygon fill="midnightblue" stroke="midnightblue" points="149.042,-114.417 151.678,-124.679 156.017,-115.013 149.042,-114.417"/>
</g>
<!-- Node7&#45;&gt;Node2 -->
<g id="edge18" class="edge"><title>Node7&#45;&gt;Node2</title>
<path fill="none" stroke="midnightblue" d="M265.675,-155.293C266.704,-163.245 266.995,-173.361 266.545,-182.532"/>
<polygon fill="midnightblue" stroke="midnightblue" points="263.042,-182.417 265.678,-192.679 270.017,-183.013 263.042,-182.417"/>
</g>
<!-- Node8&#45;&gt;Node1 -->
<g id="edge22" class="edge"><title>Node8&#45;&gt;Node1</title>
<path fill="none" stroke="midnightblue" d="M383.675,-223.293C384.704,-231.245 384.995,-241.361 384.545,-250.532"/>
<polygon fill="midnightblue" stroke="midnightblue" points="381.042,-250.417 383.678,-260.679 388.017,-251.013 381.042,-250.417"/>
</g>
</g>
</svg>
