<?xml version="1.0" encoding="UTF-8" standalone="no"?>
<!DOCTYPE svg PUBLIC "-//W3C//DTD SVG 1.1//EN"
 "http://www.w3.org/Graphics/SVG/1.1/DTD/svg11.dtd">
<!-- Generated by graphviz version 2.34.0 (20130907.0228)
 -->
<!-- Title: om/source/collection_back_source.cpp Pages: 1 -->
<svg width="420pt" height="426pt"
 viewBox="0.00 0.00 420.00 426.00" xmlns="http://www.w3.org/2000/svg" xmlns:xlink="http://www.w3.org/1999/xlink">
<g id="graph0" class="graph" transform="scale(1 1) rotate(0) translate(4 422)">
<title>om/source/collection_back_source.cpp</title>
<!-- Node1 -->
<g id="node1" class="node"><title>Node1</title>
<polygon fill="#bfbfbf" stroke="black" points="305.424,-385 305.424,-417 412.576,-417 412.576,-385 305.424,-385"/>
<text text-anchor="start" x="313.424" y="-403" font-family="Helvetica,sans-Serif" font-size="10.00">om/source/collection</text>
<text text-anchor="middle" x="359" y="-391" font-family="Helvetica,sans-Serif" font-size="10.00">_back_source.cpp</text>
</g>
<!-- Node2 -->
<g id="node2" class="node"><title>Node2</title>
<g id="a_node2"><a xlink:href="collection__back__source_8hpp.html" target="_top" xlink:title="Om header file. ">
<polygon fill="none" stroke="black" points="305.424,-315 305.424,-347 412.576,-347 412.576,-315 305.424,-315"/>
<text text-anchor="start" x="313.424" y="-333" font-family="Helvetica,sans-Serif" font-size="10.00">om/source/collection</text>
<text text-anchor="middle" x="359" y="-321" font-family="Helvetica,sans-Serif" font-size="10.00">_back_source.hpp</text>
</a>
</g>
</g>
<!-- Node1&#45;&gt;Node2 -->
<g id="edge1" class="edge"><title>Node1&#45;&gt;Node2</title>
<path fill="none" stroke="midnightblue" d="M353.28,-384.909C352.281,-376.721 352.009,-366.389 352.463,-357.032"/>
<polygon fill="midnightblue" stroke="midnightblue" points="355.953,-357.303 353.285,-347.049 348.976,-356.728 355.953,-357.303"/>
</g>
<!-- Node2&#45;&gt;Node1 -->
<g id="edge14" class="edge"><title>Node2&#45;&gt;Node1</title>
<path fill="none" stroke="midnightblue" d="M364.715,-347.049C365.716,-355.229 365.991,-365.56 365.539,-374.92"/>
<polygon fill="midnightblue" stroke="midnightblue" points="362.049,-374.656 364.72,-384.909 369.026,-375.228 362.049,-374.656"/>
</g>
<!-- Node3 -->
<g id="node3" class="node"><title>Node3</title>
<g id="a_node3"><a xlink:href="iterator__pair__source_8hpp.html" target="_top" xlink:title="Om header file. ">
<polygon fill="none" stroke="black" points="310.707,-245 310.707,-277 407.293,-277 407.293,-245 310.707,-245"/>
<text text-anchor="start" x="318.707" y="-263" font-family="Helvetica,sans-Serif" font-size="10.00">om/source/iterator</text>
<text text-anchor="middle" x="359" y="-251" font-family="Helvetica,sans-Serif" font-size="10.00">_pair_source.hpp</text>
</a>
</g>
</g>
<!-- Node2&#45;&gt;Node3 -->
<g id="edge2" class="edge"><title>Node2&#45;&gt;Node3</title>
<path fill="none" stroke="midnightblue" d="M359,-314.909C359,-306.809 359,-296.611 359,-287.334"/>
<polygon fill="midnightblue" stroke="midnightblue" points="362.5,-287.049 359,-277.049 355.5,-287.049 362.5,-287.049"/>
</g>
<!-- Node4 -->
<g id="node4" class="node"><title>Node4</title>
<g id="a_node4"><a xlink:href="default__source_8hpp.html" target="_top" xlink:title="Om header file. ">
<polygon fill="none" stroke="black" points="141.737,-181 141.737,-201 292.263,-201 292.263,-181 141.737,-181"/>
<text text-anchor="middle" x="217" y="-187" font-family="Helvetica,sans-Serif" font-size="10.00">om/source/default_source.hpp</text>
</a>
</g>
</g>
<!-- Node3&#45;&gt;Node4 -->
<g id="edge3" class="edge"><title>Node3&#45;&gt;Node4</title>
<path fill="none" stroke="midnightblue" d="M327.486,-244.909C302.782,-233.079 268.727,-216.771 244.979,-205.398"/>
<polygon fill="midnightblue" stroke="midnightblue" points="246.332,-202.166 235.802,-201.004 243.309,-208.479 246.332,-202.166"/>
</g>
<!-- Node11 -->
<g id="node11" class="node"><title>Node11</title>
<g id="a_node11"><a xlink:href="iterator__pair__source_8cpp.html" target="_top" xlink:title="Om source file. ">
<polygon fill="none" stroke="black" points="310.707,-175 310.707,-207 407.293,-207 407.293,-175 310.707,-175"/>
<text text-anchor="start" x="318.707" y="-193" font-family="Helvetica,sans-Serif" font-size="10.00">om/source/iterator</text>
<text text-anchor="middle" x="359" y="-181" font-family="Helvetica,sans-Serif" font-size="10.00">_pair_source.cpp</text>
</a>
</g>
</g>
<!-- Node3&#45;&gt;Node11 -->
<g id="edge12" class="edge"><title>Node3&#45;&gt;Node11</title>
<path fill="none" stroke="midnightblue" d="M353.28,-244.909C352.281,-236.721 352.009,-226.389 352.463,-217.032"/>
<polygon fill="midnightblue" stroke="midnightblue" points="355.953,-217.303 353.285,-207.049 348.976,-216.728 355.953,-217.303"/>
</g>
<!-- Node5 -->
<g id="node5" class="node"><title>Node5</title>
<g id="a_node5"><a xlink:href="source_2source_8hpp.html" target="_top" xlink:title="Om header file. ">
<polygon fill="none" stroke="black" points="2.52979,-117 2.52979,-137 117.47,-137 117.47,-117 2.52979,-117"/>
<text text-anchor="middle" x="60" y="-123" font-family="Helvetica,sans-Serif" font-size="10.00">om/source/source.hpp</text>
</a>
</g>
</g>
<!-- Node4&#45;&gt;Node5 -->
<g id="edge4" class="edge"><title>Node4&#45;&gt;Node5</title>
<path fill="none" stroke="midnightblue" d="M194.171,-180.985C167.312,-170.378 122.538,-152.696 92.1693,-140.704"/>
<polygon fill="midnightblue" stroke="midnightblue" points="93.4433,-137.444 82.8567,-137.026 90.8722,-143.955 93.4433,-137.444"/>
</g>
<!-- Node9 -->
<g id="node9" class="node"><title>Node9</title>
<polygon fill="none" stroke="#bfbfbf" points="135.438,-117 135.438,-137 182.562,-137 182.562,-117 135.438,-117"/>
<text text-anchor="middle" x="159" y="-123" font-family="Helvetica,sans-Serif" font-size="10.00">iterator</text>
</g>
<!-- Node4&#45;&gt;Node9 -->
<g id="edge9" class="edge"><title>Node4&#45;&gt;Node9</title>
<path fill="none" stroke="midnightblue" d="M208.442,-180.852C199.532,-171.327 185.385,-156.204 174.502,-144.571"/>
<polygon fill="midnightblue" stroke="midnightblue" points="176.981,-142.098 167.593,-137.186 171.869,-146.88 176.981,-142.098"/>
</g>
<!-- Node10 -->
<g id="node10" class="node"><title>Node10</title>
<g id="a_node10"><a xlink:href="default__source_8cpp.html" target="_top" xlink:title="Om source file. ">
<polygon fill="none" stroke="black" points="201.018,-117 201.018,-137 350.982,-137 350.982,-117 201.018,-117"/>
<text text-anchor="middle" x="276" y="-123" font-family="Helvetica,sans-Serif" font-size="10.00">om/source/default_source.cpp</text>
</a>
</g>
</g>
<!-- Node4&#45;&gt;Node10 -->
<g id="edge10" class="edge"><title>Node4&#45;&gt;Node10</title>
<path fill="none" stroke="midnightblue" d="M220.75,-180.852C228.008,-171.144 242.439,-155.62 254.885,-143.903"/>
<polygon fill="midnightblue" stroke="midnightblue" points="257.237,-146.495 262.296,-137.186 252.536,-141.309 257.237,-146.495"/>
</g>
<!-- Node6 -->
<g id="node6" class="node"><title>Node6</title>
<g id="a_node6"><a xlink:href="source_2source_8cpp.html" target="_top" xlink:title="Om source file. ">
<polygon fill="none" stroke="black" points="2.81055,-59 2.81055,-79 117.189,-79 117.189,-59 2.81055,-59"/>
<text text-anchor="middle" x="60" y="-65" font-family="Helvetica,sans-Serif" font-size="10.00">om/source/source.cpp</text>
</a>
</g>
</g>
<!-- Node5&#45;&gt;Node6 -->
<g id="edge5" class="edge"><title>Node5&#45;&gt;Node6</title>
<path fill="none" stroke="midnightblue" d="M54.8337,-116.753C53.3076,-109.25 52.8844,-98.4238 53.5643,-89.0781"/>
<polygon fill="midnightblue" stroke="midnightblue" points="57.0461,-89.4439 54.869,-79.0752 50.1049,-88.5385 57.0461,-89.4439"/>
</g>
<!-- Node6&#45;&gt;Node5 -->
<g id="edge8" class="edge"><title>Node6&#45;&gt;Node5</title>
<path fill="none" stroke="midnightblue" d="M65.131,-79.0752C66.674,-86.5262 67.1141,-97.3384 66.4512,-106.707"/>
<polygon fill="midnightblue" stroke="midnightblue" points="62.9633,-106.389 65.1663,-116.753 69.9067,-107.278 62.9633,-106.389"/>
</g>
<!-- Node7 -->
<g id="node7" class="node"><title>Node7</title>
<polygon fill="none" stroke="#bfbfbf" points="-0.115723,-1 -0.115723,-21 48.1157,-21 48.1157,-1 -0.115723,-1"/>
<text text-anchor="middle" x="24" y="-7" font-family="Helvetica,sans-Serif" font-size="10.00">cassert</text>
</g>
<!-- Node6&#45;&gt;Node7 -->
<g id="edge6" class="edge"><title>Node6&#45;&gt;Node7</title>
<path fill="none" stroke="midnightblue" d="M54.0553,-58.7527C48.9703,-50.8427 41.5096,-39.2372 35.2939,-29.5683"/>
<polygon fill="midnightblue" stroke="midnightblue" points="38.1858,-27.5943 29.8341,-21.0752 32.2975,-31.3797 38.1858,-27.5943"/>
</g>
<!-- Node8 -->
<g id="node8" class="node"><title>Node8</title>
<polygon fill="none" stroke="#bfbfbf" points="66.5986,-1 66.5986,-21 125.401,-21 125.401,-1 66.5986,-1"/>
<text text-anchor="middle" x="96" y="-7" font-family="Helvetica,sans-Serif" font-size="10.00">stdexcept</text>
</g>
<!-- Node6&#45;&gt;Node8 -->
<g id="edge7" class="edge"><title>Node6&#45;&gt;Node8</title>
<path fill="none" stroke="midnightblue" d="M65.9447,-58.7527C71.0297,-50.8427 78.4904,-39.2372 84.7061,-29.5683"/>
<polygon fill="midnightblue" stroke="midnightblue" points="87.7025,-31.3797 90.1659,-21.0752 81.8142,-27.5943 87.7025,-31.3797"/>
</g>
<!-- Node10&#45;&gt;Node4 -->
<g id="edge11" class="edge"><title>Node10&#45;&gt;Node4</title>
<path fill="none" stroke="midnightblue" d="M272.222,-137.186C265.014,-146.816 250.779,-162.142 238.42,-173.81"/>
<polygon fill="midnightblue" stroke="midnightblue" points="235.713,-171.539 230.661,-180.852 240.418,-176.722 235.713,-171.539"/>
</g>
<!-- Node11&#45;&gt;Node3 -->
<g id="edge13" class="edge"><title>Node11&#45;&gt;Node3</title>
<path fill="none" stroke="midnightblue" d="M364.715,-207.049C365.716,-215.229 365.991,-225.56 365.539,-234.92"/>
<polygon fill="midnightblue" stroke="midnightblue" points="362.049,-234.656 364.72,-244.909 369.026,-235.228 362.049,-234.656"/>
</g>
</g>
</svg>
