<?xml version="1.0" encoding="UTF-8" standalone="no"?>
<!DOCTYPE svg PUBLIC "-//W3C//DTD SVG 1.1//EN"
 "http://www.w3.org/Graphics/SVG/1.1/DTD/svg11.dtd">
<!-- Generated by graphviz version 2.30.1 (20130221.2233)
 -->
<!-- Title: code/om/sources/collection_back_source.cpp Pages: 1 -->
<svg width="345pt" height="380pt"
 viewBox="0.00 0.00 345.00 380.00" xmlns="http://www.w3.org/2000/svg" xmlns:xlink="http://www.w3.org/1999/xlink">
<g id="graph0" class="graph" transform="scale(1 1) rotate(0) translate(4 376)">
<title>code/om/sources/collection_back_source.cpp</title>
<!-- Node1 -->
<g id="node1" class="node"><title>Node1</title>
<polygon fill="#bfbfbf" stroke="black" points="200.692,-339 200.692,-371 337.308,-371 337.308,-339 200.692,-339"/>
<text text-anchor="start" x="208.692" y="-357" font-family="Helvetica,sans-Serif" font-size="10.00">code/om/sources/collection</text>
<text text-anchor="middle" x="269" y="-345" font-family="Helvetica,sans-Serif" font-size="10.00">_back_source.cpp</text>
</g>
<!-- Node2 -->
<g id="node2" class="node"><title>Node2</title>
<g id="a_node2"><a xlink:href="collection__back__source_8hpp.html" target="_top" xlink:title="Om header file.">
<polygon fill="none" stroke="black" points="212.924,-269 212.924,-301 325.076,-301 325.076,-269 212.924,-269"/>
<text text-anchor="start" x="220.924" y="-287" font-family="Helvetica,sans-Serif" font-size="10.00">om/sources/collection</text>
<text text-anchor="middle" x="269" y="-275" font-family="Helvetica,sans-Serif" font-size="10.00">_back_source.hpp</text>
</a>
</g>
</g>
<!-- Node1&#45;&gt;Node2 -->
<g id="edge1" class="edge"><title>Node1&#45;&gt;Node2</title>
<path fill="none" stroke="midnightblue" d="M263.28,-338.909C262.281,-330.721 262.009,-320.389 262.463,-311.032"/>
<polygon fill="midnightblue" stroke="midnightblue" points="265.953,-311.303 263.285,-301.049 258.976,-310.728 265.953,-311.303"/>
</g>
<!-- Node3 -->
<g id="node3" class="node"><title>Node3</title>
<g id="a_node3"><a xlink:href="iterator__pair__source_8hpp.html" target="_top" xlink:title="Om header file.">
<polygon fill="none" stroke="black" points="218.207,-199 218.207,-231 319.793,-231 319.793,-199 218.207,-199"/>
<text text-anchor="start" x="226.207" y="-217" font-family="Helvetica,sans-Serif" font-size="10.00">om/sources/iterator</text>
<text text-anchor="middle" x="269" y="-205" font-family="Helvetica,sans-Serif" font-size="10.00">_pair_source.hpp</text>
</a>
</g>
</g>
<!-- Node2&#45;&gt;Node3 -->
<g id="edge2" class="edge"><title>Node2&#45;&gt;Node3</title>
<path fill="none" stroke="midnightblue" d="M269,-268.909C269,-260.809 269,-250.611 269,-241.334"/>
<polygon fill="midnightblue" stroke="midnightblue" points="272.5,-241.049 269,-231.049 265.5,-241.049 272.5,-241.049"/>
</g>
<!-- Node2&#45;&gt;Node1 -->
<g id="edge11" class="edge"><title>Node2&#45;&gt;Node1</title>
<path fill="none" stroke="midnightblue" d="M274.715,-301.049C275.716,-309.229 275.991,-319.56 275.539,-328.92"/>
<polygon fill="midnightblue" stroke="midnightblue" points="272.049,-328.656 274.72,-338.909 279.026,-329.228 272.049,-328.656"/>
</g>
<!-- Node4 -->
<g id="node4" class="node"><title>Node4</title>
<g id="a_node4"><a xlink:href="default__source_8hpp.html" target="_top" xlink:title="Om header file.">
<polygon fill="none" stroke="black" points="99.7563,-129 99.7563,-161 200.244,-161 200.244,-129 99.7563,-129"/>
<text text-anchor="start" x="107.756" y="-147" font-family="Helvetica,sans-Serif" font-size="10.00">om/sources/default</text>
<text text-anchor="middle" x="150" y="-135" font-family="Helvetica,sans-Serif" font-size="10.00">_source.hpp</text>
</a>
</g>
</g>
<!-- Node3&#45;&gt;Node4 -->
<g id="edge3" class="edge"><title>Node3&#45;&gt;Node4</title>
<path fill="none" stroke="midnightblue" d="M242.59,-198.909C225.643,-189.225 203.444,-176.54 185.031,-166.018"/>
<polygon fill="midnightblue" stroke="midnightblue" points="186.755,-162.972 176.336,-161.049 183.282,-169.05 186.755,-162.972"/>
</g>
<!-- Node8 -->
<g id="node8" class="node"><title>Node8</title>
<g id="a_node8"><a xlink:href="iterator__pair__source_8cpp.html" target="_top" xlink:title="Om source file.">
<polygon fill="none" stroke="black" points="218.207,-129 218.207,-161 319.793,-161 319.793,-129 218.207,-129"/>
<text text-anchor="start" x="226.207" y="-147" font-family="Helvetica,sans-Serif" font-size="10.00">om/sources/iterator</text>
<text text-anchor="middle" x="269" y="-135" font-family="Helvetica,sans-Serif" font-size="10.00">_pair_source.cpp</text>
</a>
</g>
</g>
<!-- Node3&#45;&gt;Node8 -->
<g id="edge9" class="edge"><title>Node3&#45;&gt;Node8</title>
<path fill="none" stroke="midnightblue" d="M263.28,-198.909C262.281,-190.721 262.009,-180.389 262.463,-171.032"/>
<polygon fill="midnightblue" stroke="midnightblue" points="265.953,-171.303 263.285,-161.049 258.976,-170.728 265.953,-171.303"/>
</g>
<!-- Node5 -->
<g id="node5" class="node"><title>Node5</title>
<g id="a_node5"><a xlink:href="source_8hpp.html" target="_top" xlink:title="Om header file.">
<polygon fill="none" stroke="black" points="-0.0737305,-65 -0.0737305,-85 82.0737,-85 82.0737,-65 -0.0737305,-65"/>
<text text-anchor="middle" x="41" y="-71" font-family="Helvetica,sans-Serif" font-size="10.00">om/source.hpp</text>
</a>
</g>
</g>
<!-- Node4&#45;&gt;Node5 -->
<g id="edge4" class="edge"><title>Node4&#45;&gt;Node5</title>
<path fill="none" stroke="midnightblue" d="M125.809,-128.909C107.437,-117.447 82.3253,-101.781 64.2006,-90.4738"/>
<polygon fill="midnightblue" stroke="midnightblue" points="65.7691,-87.3271 55.4322,-85.0035 62.064,-93.2661 65.7691,-87.3271"/>
</g>
<!-- Node7 -->
<g id="node7" class="node"><title>Node7</title>
<g id="a_node7"><a xlink:href="default__source_8cpp.html" target="_top" xlink:title="Om source file.">
<polygon fill="none" stroke="black" points="99.7563,-59 99.7563,-91 200.244,-91 200.244,-59 99.7563,-59"/>
<text text-anchor="start" x="107.756" y="-77" font-family="Helvetica,sans-Serif" font-size="10.00">om/sources/default</text>
<text text-anchor="middle" x="150" y="-65" font-family="Helvetica,sans-Serif" font-size="10.00">_source.cpp</text>
</a>
</g>
</g>
<!-- Node4&#45;&gt;Node7 -->
<g id="edge7" class="edge"><title>Node4&#45;&gt;Node7</title>
<path fill="none" stroke="midnightblue" d="M144.28,-128.909C143.281,-120.721 143.009,-110.389 143.463,-101.032"/>
<polygon fill="midnightblue" stroke="midnightblue" points="146.953,-101.303 144.285,-91.0492 139.976,-100.728 146.953,-101.303"/>
</g>
<!-- Node6 -->
<g id="node6" class="node"><title>Node6</title>
<g id="a_node6"><a xlink:href="source_8cpp.html" target="_top" xlink:title="Om source file.">
<polygon fill="none" stroke="black" points="0.207031,-1 0.207031,-21 81.793,-21 81.793,-1 0.207031,-1"/>
<text text-anchor="middle" x="41" y="-7" font-family="Helvetica,sans-Serif" font-size="10.00">om/source.cpp</text>
</a>
</g>
</g>
<!-- Node5&#45;&gt;Node6 -->
<g id="edge5" class="edge"><title>Node5&#45;&gt;Node6</title>
<path fill="none" stroke="midnightblue" d="M36.0446,-64.8517C34.2519,-56.0601 33.8023,-42.4977 34.6958,-31.3131"/>
<polygon fill="midnightblue" stroke="midnightblue" points="38.1937,-31.5588 36.037,-21.1858 31.2543,-30.6398 38.1937,-31.5588"/>
</g>
<!-- Node6&#45;&gt;Node5 -->
<g id="edge6" class="edge"><title>Node6&#45;&gt;Node5</title>
<path fill="none" stroke="midnightblue" d="M45.963,-21.1858C47.7519,-29.991 48.1977,-43.5568 47.3004,-54.7346"/>
<polygon fill="midnightblue" stroke="midnightblue" points="43.8038,-54.4776 45.9554,-64.8517 50.7428,-55.4002 43.8038,-54.4776"/>
</g>
<!-- Node7&#45;&gt;Node4 -->
<g id="edge8" class="edge"><title>Node7&#45;&gt;Node4</title>
<path fill="none" stroke="midnightblue" d="M155.715,-91.0492C156.716,-99.2293 156.991,-109.56 156.539,-118.92"/>
<polygon fill="midnightblue" stroke="midnightblue" points="153.049,-118.656 155.72,-128.909 160.026,-119.228 153.049,-118.656"/>
</g>
<!-- Node8&#45;&gt;Node3 -->
<g id="edge10" class="edge"><title>Node8&#45;&gt;Node3</title>
<path fill="none" stroke="midnightblue" d="M274.715,-161.049C275.716,-169.229 275.991,-179.56 275.539,-188.92"/>
<polygon fill="midnightblue" stroke="midnightblue" points="272.049,-188.656 274.72,-198.909 279.026,-189.228 272.049,-188.656"/>
</g>
</g>
</svg>
