<?xml version="1.0" encoding="UTF-8" standalone="no"?>
<!DOCTYPE svg PUBLIC "-//W3C//DTD SVG 1.1//EN"
 "http://www.w3.org/Graphics/SVG/1.1/DTD/svg11.dtd">
<!-- Generated by graphviz version 2.30.1 (20130221.2233)
 -->
<!-- Title: code/om/sources/collection_front_source.hpp Pages: 1 -->
<svg width="808pt" height="310pt"
 viewBox="0.00 0.00 808.00 310.00" xmlns="http://www.w3.org/2000/svg" xmlns:xlink="http://www.w3.org/1999/xlink">
<g id="graph0" class="graph" transform="scale(1 1) rotate(0) translate(4 306)">
<title>code/om/sources/collection_front_source.hpp</title>
<!-- Node1 -->
<g id="node1" class="node"><title>Node1</title>
<polygon fill="#bfbfbf" stroke="black" points="593.692,-269 593.692,-301 730.308,-301 730.308,-269 593.692,-269"/>
<text text-anchor="start" x="601.692" y="-287" font-family="Helvetica,sans-Serif" font-size="10.00">code/om/sources/collection</text>
<text text-anchor="middle" x="662" y="-275" font-family="Helvetica,sans-Serif" font-size="10.00">_front_source.hpp</text>
</g>
<!-- Node2 -->
<g id="node2" class="node"><title>Node2</title>
<g id="a_node2"><a xlink:href="form_8hpp.html" target="_top" xlink:title="Om header file.">
<polygon fill="none" stroke="black" points="428.702,-205 428.702,-225 525.298,-225 525.298,-205 428.702,-205"/>
<text text-anchor="middle" x="477" y="-211" font-family="Helvetica,sans-Serif" font-size="10.00">code/om/form.hpp</text>
</a>
</g>
</g>
<!-- Node1&#45;&gt;Node2 -->
<g id="edge1" class="edge"><title>Node1&#45;&gt;Node2</title>
<path fill="none" stroke="midnightblue" d="M611.176,-265.319C575.481,-252.198 529.318,-235.23 501.495,-225.004"/>
<polygon fill="midnightblue" stroke="midnightblue" points="610.349,-268.744 620.943,-268.909 612.764,-262.173 610.349,-268.744"/>
</g>
<!-- Node16 -->
<g id="node16" class="node"><title>Node16</title>
<g id="a_node16"><a xlink:href="literal_8hpp.html" target="_top" xlink:title="Om header file.">
<polygon fill="none" stroke="black" points="543.754,-205 543.754,-225 644.246,-225 644.246,-205 543.754,-205"/>
<text text-anchor="middle" x="594" y="-211" font-family="Helvetica,sans-Serif" font-size="10.00">code/om/literal.hpp</text>
</a>
</g>
</g>
<!-- Node1&#45;&gt;Node16 -->
<g id="edge21" class="edge"><title>Node1&#45;&gt;Node16</title>
<path fill="none" stroke="midnightblue" d="M639.525,-261.525C627.067,-249.067 612.269,-234.269 603.004,-225.004"/>
<polygon fill="midnightblue" stroke="midnightblue" points="637.363,-264.312 646.909,-268.909 642.312,-259.363 637.363,-264.312"/>
</g>
<!-- Node18 -->
<g id="node18" class="node"><title>Node18</title>
<g id="a_node18"><a xlink:href="collection__front__source_8cpp.html" target="_top" xlink:title="Om source file.">
<polygon fill="none" stroke="black" points="662.692,-199 662.692,-231 799.308,-231 799.308,-199 662.692,-199"/>
<text text-anchor="start" x="670.692" y="-217" font-family="Helvetica,sans-Serif" font-size="10.00">code/om/sources/collection</text>
<text text-anchor="middle" x="731" y="-205" font-family="Helvetica,sans-Serif" font-size="10.00">_front_source.cpp</text>
</a>
</g>
</g>
<!-- Node1&#45;&gt;Node18 -->
<g id="edge24" class="edge"><title>Node1&#45;&gt;Node18</title>
<path fill="none" stroke="midnightblue" d="M678.616,-261.312C688.094,-251.353 699.913,-239.933 710.015,-231.049"/>
<polygon fill="midnightblue" stroke="midnightblue" points="675.811,-259.189 671.593,-268.909 680.951,-263.941 675.811,-259.189"/>
</g>
<!-- Node3 -->
<g id="node3" class="node"><title>Node3</title>
<g id="a_node3"><a xlink:href="expression_8hpp.html" target="_top" xlink:title="Om header file.">
<polygon fill="none" stroke="black" points="286.522,-141 286.522,-161 411.478,-161 411.478,-141 286.522,-141"/>
<text text-anchor="middle" x="349" y="-147" font-family="Helvetica,sans-Serif" font-size="10.00">code/om/expression.hpp</text>
</a>
</g>
</g>
<!-- Node2&#45;&gt;Node3 -->
<g id="edge2" class="edge"><title>Node2&#45;&gt;Node3</title>
<path fill="none" stroke="midnightblue" d="M449.175,-200.522C424.474,-188.558 389.069,-171.408 367.635,-161.026"/>
<polygon fill="midnightblue" stroke="midnightblue" points="447.862,-203.775 458.388,-204.985 450.914,-197.475 447.862,-203.775"/>
</g>
<!-- Node15 -->
<g id="node15" class="node"><title>Node15</title>
<g id="a_node15"><a xlink:href="form_8cpp.html" target="_top" xlink:title="Om source file.">
<polygon fill="none" stroke="black" points="428.983,-141 428.983,-161 525.017,-161 525.017,-141 428.983,-141"/>
<text text-anchor="middle" x="477" y="-147" font-family="Helvetica,sans-Serif" font-size="10.00">code/om/form.cpp</text>
</a>
</g>
</g>
<!-- Node2&#45;&gt;Node15 -->
<g id="edge19" class="edge"><title>Node2&#45;&gt;Node15</title>
<path fill="none" stroke="midnightblue" d="M470.7,-194.735C469.802,-183.557 470.248,-169.991 472.037,-161.186"/>
<polygon fill="midnightblue" stroke="midnightblue" points="467.257,-195.4 472.045,-204.852 474.196,-194.478 467.257,-195.4"/>
</g>
<!-- Node4 -->
<g id="node4" class="node"><title>Node4</title>
<g id="a_node4"><a xlink:href="evaluation_8hpp.html" target="_top" xlink:title="Om header file.">
<polygon fill="none" stroke="black" points="-0.0932617,-77 -0.0932617,-97 122.093,-97 122.093,-77 -0.0932617,-77"/>
<text text-anchor="middle" x="61" y="-83" font-family="Helvetica,sans-Serif" font-size="10.00">code/om/evaluation.hpp</text>
</a>
</g>
</g>
<!-- Node3&#45;&gt;Node4 -->
<g id="edge3" class="edge"><title>Node3&#45;&gt;Node4</title>
<path fill="none" stroke="midnightblue" d="M295.169,-138.903C251.015,-129.738 186.903,-116.286 131,-104 120.894,-101.779 109.983,-99.3163 99.8513,-97.0021"/>
<polygon fill="midnightblue" stroke="midnightblue" points="294.608,-142.361 305.111,-140.964 296.029,-135.507 294.608,-142.361"/>
</g>
<!-- Node6 -->
<g id="node6" class="node"><title>Node6</title>
<g id="a_node6"><a xlink:href="expression_8cpp.html" target="_top" xlink:title="Om source file.">
<polygon fill="none" stroke="black" points="139.803,-77 139.803,-97 264.197,-97 264.197,-77 139.803,-77"/>
<text text-anchor="middle" x="202" y="-83" font-family="Helvetica,sans-Serif" font-size="10.00">code/om/expression.cpp</text>
</a>
</g>
</g>
<!-- Node3&#45;&gt;Node6 -->
<g id="edge6" class="edge"><title>Node3&#45;&gt;Node6</title>
<path fill="none" stroke="midnightblue" d="M313.339,-137.308C283.151,-125.32 241.441,-107.638 218.471,-97.0262"/>
<polygon fill="midnightblue" stroke="midnightblue" points="312.11,-140.586 322.697,-140.985 314.669,-134.071 312.11,-140.586"/>
</g>
<!-- Node7 -->
<g id="node7" class="node"><title>Node7</title>
<g id="a_node7"><a xlink:href="expression__operation_8hpp.html" target="_top" xlink:title="Om header file.">
<polygon fill="none" stroke="black" points="282.069,-71 282.069,-103 415.931,-103 415.931,-71 282.069,-71"/>
<text text-anchor="start" x="290.069" y="-89" font-family="Helvetica,sans-Serif" font-size="10.00">code/om/operations</text>
<text text-anchor="middle" x="349" y="-77" font-family="Helvetica,sans-Serif" font-size="10.00">/expression_operation.hpp</text>
</a>
</g>
</g>
<!-- Node3&#45;&gt;Node7 -->
<g id="edge8" class="edge"><title>Node3&#45;&gt;Node7</title>
<path fill="none" stroke="midnightblue" d="M349,-130.775C349,-121.986 349,-111.715 349,-103.44"/>
<polygon fill="midnightblue" stroke="midnightblue" points="345.5,-130.852 349,-140.852 352.5,-130.852 345.5,-130.852"/>
</g>
<!-- Node9 -->
<g id="node9" class="node"><title>Node9</title>
<g id="a_node9"><a xlink:href="fill__operation_8hpp.html" target="_top" xlink:title="Om header file.">
<polygon fill="none" stroke="black" points="434.084,-71 434.084,-103 537.916,-103 537.916,-71 434.084,-71"/>
<text text-anchor="start" x="442.084" y="-89" font-family="Helvetica,sans-Serif" font-size="10.00">code/om/operations</text>
<text text-anchor="middle" x="486" y="-77" font-family="Helvetica,sans-Serif" font-size="10.00">/fill_operation.hpp</text>
</a>
</g>
</g>
<!-- Node3&#45;&gt;Node9 -->
<g id="edge10" class="edge"><title>Node3&#45;&gt;Node9</title>
<path fill="none" stroke="midnightblue" d="M378.051,-136.853C399.934,-126.95 429.965,-113.359 452.798,-103.026"/>
<polygon fill="midnightblue" stroke="midnightblue" points="376.588,-133.673 368.921,-140.985 379.475,-140.05 376.588,-133.673"/>
</g>
<!-- Node11 -->
<g id="node11" class="node"><title>Node11</title>
<g id="a_node11"><a xlink:href="inject__operation_8hpp.html" target="_top" xlink:title="Om header file.">
<polygon fill="none" stroke="black" points="555.577,-71 555.577,-103 664.423,-103 664.423,-71 555.577,-71"/>
<text text-anchor="start" x="563.577" y="-89" font-family="Helvetica,sans-Serif" font-size="10.00">code/om/operations</text>
<text text-anchor="middle" x="610" y="-77" font-family="Helvetica,sans-Serif" font-size="10.00">/inject_operation.hpp</text>
</a>
</g>
</g>
<!-- Node3&#45;&gt;Node11 -->
<g id="edge13" class="edge"><title>Node3&#45;&gt;Node11</title>
<path fill="none" stroke="midnightblue" d="M398.658,-138.63C438.523,-129.448 495.91,-116.109 546,-104 549.117,-103.246 552.318,-102.466 555.547,-101.675"/>
<polygon fill="midnightblue" stroke="midnightblue" points="397.623,-135.277 388.663,-140.93 399.193,-142.098 397.623,-135.277"/>
</g>
<!-- Node13 -->
<g id="node13" class="node"><title>Node13</title>
<g id="a_node13"><a xlink:href="skip__operation_8hpp.html" target="_top" xlink:title="Om header file.">
<polygon fill="none" stroke="black" points="682.084,-71 682.084,-103 785.916,-103 785.916,-71 682.084,-71"/>
<text text-anchor="start" x="690.084" y="-89" font-family="Helvetica,sans-Serif" font-size="10.00">code/om/operations</text>
<text text-anchor="middle" x="734" y="-77" font-family="Helvetica,sans-Serif" font-size="10.00">/skip_operation.hpp</text>
</a>
</g>
</g>
<!-- Node3&#45;&gt;Node13 -->
<g id="edge16" class="edge"><title>Node3&#45;&gt;Node13</title>
<path fill="none" stroke="midnightblue" d="M421.949,-139.696C516.547,-126.326 669.923,-104.62 673,-104 675.898,-103.416 678.863,-102.778 681.849,-102.102"/>
<polygon fill="midnightblue" stroke="midnightblue" points="421.264,-136.257 411.853,-141.122 422.244,-143.189 421.264,-136.257"/>
</g>
<!-- Node5 -->
<g id="node5" class="node"><title>Node5</title>
<g id="a_node5"><a xlink:href="evaluation_8cpp.html" target="_top" xlink:title="Om source file.">
<polygon fill="none" stroke="black" points="0.1875,-7 0.1875,-27 121.812,-27 121.812,-7 0.1875,-7"/>
<text text-anchor="middle" x="61" y="-13" font-family="Helvetica,sans-Serif" font-size="10.00">code/om/evaluation.cpp</text>
</a>
</g>
</g>
<!-- Node4&#45;&gt;Node5 -->
<g id="edge4" class="edge"><title>Node4&#45;&gt;Node5</title>
<path fill="none" stroke="midnightblue" d="M54.833,-66.5567C53.7261,-53.557 54.1954,-37.0574 56.2409,-27.0255"/>
<polygon fill="midnightblue" stroke="midnightblue" points="51.4125,-67.3836 56.2115,-76.8292 58.3503,-66.4525 51.4125,-67.3836"/>
</g>
<!-- Node5&#45;&gt;Node4 -->
<g id="edge5" class="edge"><title>Node5&#45;&gt;Node4</title>
<path fill="none" stroke="midnightblue" d="M67.1509,-37.2558C68.273,-50.2216 67.8189,-66.7353 65.7885,-76.8292"/>
<polygon fill="midnightblue" stroke="midnightblue" points="70.5753,-36.4624 65.7591,-27.0255 63.6392,-37.4061 70.5753,-36.4624"/>
</g>
<!-- Node6&#45;&gt;Node3 -->
<g id="edge7" class="edge"><title>Node6&#45;&gt;Node3</title>
<path fill="none" stroke="midnightblue" d="M237.692,-100.704C267.888,-112.696 309.596,-130.378 332.553,-140.985"/>
<polygon fill="midnightblue" stroke="midnightblue" points="238.919,-97.4252 228.331,-97.0262 236.359,-103.94 238.919,-97.4252"/>
</g>
<!-- Node8 -->
<g id="node8" class="node"><title>Node8</title>
<g id="a_node8"><a xlink:href="expression__operation_8cpp.html" target="_top" xlink:title="Om source file.">
<polygon fill="none" stroke="black" points="282.35,-1 282.35,-33 415.65,-33 415.65,-1 282.35,-1"/>
<text text-anchor="start" x="290.35" y="-19" font-family="Helvetica,sans-Serif" font-size="10.00">code/om/operations</text>
<text text-anchor="middle" x="349" y="-7" font-family="Helvetica,sans-Serif" font-size="10.00">/expression_operation.cpp</text>
</a>
</g>
</g>
<!-- Node7&#45;&gt;Node8 -->
<g id="edge9" class="edge"><title>Node7&#45;&gt;Node8</title>
<path fill="none" stroke="midnightblue" d="M349,-60.6174C349,-51.3378 349,-41.1413 349,-33.0492"/>
<polygon fill="midnightblue" stroke="midnightblue" points="345.5,-60.9086 349,-70.9086 352.5,-60.9086 345.5,-60.9086"/>
</g>
<!-- Node10 -->
<g id="node10" class="node"><title>Node10</title>
<g id="a_node10"><a xlink:href="fill__operation_8cpp.html" target="_top" xlink:title="Om source file.">
<polygon fill="none" stroke="black" points="434.084,-1 434.084,-33 537.916,-33 537.916,-1 434.084,-1"/>
<text text-anchor="start" x="442.084" y="-19" font-family="Helvetica,sans-Serif" font-size="10.00">code/om/operations</text>
<text text-anchor="middle" x="486" y="-7" font-family="Helvetica,sans-Serif" font-size="10.00">/fill_operation.cpp</text>
</a>
</g>
</g>
<!-- Node9&#45;&gt;Node10 -->
<g id="edge11" class="edge"><title>Node9&#45;&gt;Node10</title>
<path fill="none" stroke="midnightblue" d="M479.461,-60.9196C479.009,-51.5597 479.284,-41.2293 480.285,-33.0492"/>
<polygon fill="midnightblue" stroke="midnightblue" points="475.974,-61.2281 480.28,-70.9086 482.951,-60.656 475.974,-61.2281"/>
</g>
<!-- Node10&#45;&gt;Node9 -->
<g id="edge12" class="edge"><title>Node10&#45;&gt;Node9</title>
<path fill="none" stroke="midnightblue" d="M492.537,-43.0321C492.991,-52.3887 492.719,-62.7211 491.72,-70.9086"/>
<polygon fill="midnightblue" stroke="midnightblue" points="496.024,-42.7283 491.715,-33.0492 489.047,-43.3027 496.024,-42.7283"/>
</g>
<!-- Node12 -->
<g id="node12" class="node"><title>Node12</title>
<g id="a_node12"><a xlink:href="inject__operation_8cpp.html" target="_top" xlink:title="Om source file.">
<polygon fill="none" stroke="black" points="555.857,-1 555.857,-33 664.143,-33 664.143,-1 555.857,-1"/>
<text text-anchor="start" x="563.857" y="-19" font-family="Helvetica,sans-Serif" font-size="10.00">code/om/operations</text>
<text text-anchor="middle" x="610" y="-7" font-family="Helvetica,sans-Serif" font-size="10.00">/inject_operation.cpp</text>
</a>
</g>
</g>
<!-- Node11&#45;&gt;Node12 -->
<g id="edge14" class="edge"><title>Node11&#45;&gt;Node12</title>
<path fill="none" stroke="midnightblue" d="M603.461,-60.9196C603.009,-51.5597 603.284,-41.2293 604.285,-33.0492"/>
<polygon fill="midnightblue" stroke="midnightblue" points="599.974,-61.2281 604.28,-70.9086 606.951,-60.656 599.974,-61.2281"/>
</g>
<!-- Node12&#45;&gt;Node11 -->
<g id="edge15" class="edge"><title>Node12&#45;&gt;Node11</title>
<path fill="none" stroke="midnightblue" d="M616.537,-43.0321C616.991,-52.3887 616.719,-62.7211 615.72,-70.9086"/>
<polygon fill="midnightblue" stroke="midnightblue" points="620.024,-42.7283 615.715,-33.0492 613.047,-43.3027 620.024,-42.7283"/>
</g>
<!-- Node14 -->
<g id="node14" class="node"><title>Node14</title>
<g id="a_node14"><a xlink:href="skip__operation_8cpp.html" target="_top" xlink:title="Om source file.">
<polygon fill="none" stroke="black" points="682.084,-1 682.084,-33 785.916,-33 785.916,-1 682.084,-1"/>
<text text-anchor="start" x="690.084" y="-19" font-family="Helvetica,sans-Serif" font-size="10.00">code/om/operations</text>
<text text-anchor="middle" x="734" y="-7" font-family="Helvetica,sans-Serif" font-size="10.00">/skip_operation.cpp</text>
</a>
</g>
</g>
<!-- Node13&#45;&gt;Node14 -->
<g id="edge17" class="edge"><title>Node13&#45;&gt;Node14</title>
<path fill="none" stroke="midnightblue" d="M727.461,-60.9196C727.009,-51.5597 727.284,-41.2293 728.285,-33.0492"/>
<polygon fill="midnightblue" stroke="midnightblue" points="723.974,-61.2281 728.28,-70.9086 730.951,-60.656 723.974,-61.2281"/>
</g>
<!-- Node14&#45;&gt;Node13 -->
<g id="edge18" class="edge"><title>Node14&#45;&gt;Node13</title>
<path fill="none" stroke="midnightblue" d="M740.537,-43.0321C740.991,-52.3887 740.719,-62.7211 739.72,-70.9086"/>
<polygon fill="midnightblue" stroke="midnightblue" points="744.024,-42.7283 739.715,-33.0492 737.047,-43.3027 744.024,-42.7283"/>
</g>
<!-- Node15&#45;&gt;Node2 -->
<g id="edge20" class="edge"><title>Node15&#45;&gt;Node2</title>
<path fill="none" stroke="midnightblue" d="M483.304,-171.313C484.198,-182.498 483.748,-196.06 481.955,-204.852"/>
<polygon fill="midnightblue" stroke="midnightblue" points="486.746,-170.64 481.963,-161.186 479.806,-171.559 486.746,-170.64"/>
</g>
<!-- Node17 -->
<g id="node17" class="node"><title>Node17</title>
<g id="a_node17"><a xlink:href="literal_8cpp.html" target="_top" xlink:title="Om source file.">
<polygon fill="none" stroke="black" points="544.035,-141 544.035,-161 643.965,-161 643.965,-141 544.035,-141"/>
<text text-anchor="middle" x="594" y="-147" font-family="Helvetica,sans-Serif" font-size="10.00">code/om/literal.cpp</text>
</a>
</g>
</g>
<!-- Node16&#45;&gt;Node17 -->
<g id="edge22" class="edge"><title>Node16&#45;&gt;Node17</title>
<path fill="none" stroke="midnightblue" d="M587.7,-194.735C586.802,-183.557 587.248,-169.991 589.037,-161.186"/>
<polygon fill="midnightblue" stroke="midnightblue" points="584.257,-195.4 589.045,-204.852 591.196,-194.478 584.257,-195.4"/>
</g>
<!-- Node17&#45;&gt;Node16 -->
<g id="edge23" class="edge"><title>Node17&#45;&gt;Node16</title>
<path fill="none" stroke="midnightblue" d="M600.304,-171.313C601.198,-182.498 600.748,-196.06 598.955,-204.852"/>
<polygon fill="midnightblue" stroke="midnightblue" points="603.746,-170.64 598.963,-161.186 596.806,-171.559 603.746,-170.64"/>
</g>
<!-- Node18&#45;&gt;Node1 -->
<g id="edge25" class="edge"><title>Node18&#45;&gt;Node1</title>
<path fill="none" stroke="midnightblue" d="M714.429,-238.641C704.958,-248.595 693.141,-260.017 683.033,-268.909"/>
<polygon fill="midnightblue" stroke="midnightblue" points="717.228,-240.769 721.444,-231.049 712.087,-236.019 717.228,-240.769"/>
</g>
</g>
</svg>
