<?xml version="1.0" encoding="UTF-8" standalone="no"?>
<!DOCTYPE svg PUBLIC "-//W3C//DTD SVG 1.1//EN"
 "http://www.w3.org/Graphics/SVG/1.1/DTD/svg11.dtd">
<!-- Generated by graphviz version 2.30.1 (20130221.2233)
 -->
<!-- Title: om/source/collection_front_source.hpp Pages: 1 -->
<svg width="533pt" height="356pt"
 viewBox="0.00 0.00 533.00 356.00" xmlns="http://www.w3.org/2000/svg" xmlns:xlink="http://www.w3.org/1999/xlink">
<g id="graph0" class="graph" transform="scale(1 1) rotate(0) translate(4 352)">
<title>om/source/collection_front_source.hpp</title>
<!-- Node1 -->
<g id="node1" class="node"><title>Node1</title>
<polygon fill="#bfbfbf" stroke="black" points="418.424,-315 418.424,-347 525.576,-347 525.576,-315 418.424,-315"/>
<text text-anchor="start" x="426.424" y="-333" font-family="Helvetica,sans-Serif" font-size="10.00">om/source/collection</text>
<text text-anchor="middle" x="472" y="-321" font-family="Helvetica,sans-Serif" font-size="10.00">_front_source.hpp</text>
</g>
<!-- Node2 -->
<g id="node2" class="node"><title>Node2</title>
<g id="a_node2"><a xlink:href="iterator__pair__source_8hpp.html" target="_top" xlink:title="Om header file. ">
<polygon fill="none" stroke="black" points="303.707,-245 303.707,-277 400.293,-277 400.293,-245 303.707,-245"/>
<text text-anchor="start" x="311.707" y="-263" font-family="Helvetica,sans-Serif" font-size="10.00">om/source/iterator</text>
<text text-anchor="middle" x="352" y="-251" font-family="Helvetica,sans-Serif" font-size="10.00">_pair_source.hpp</text>
</a>
</g>
</g>
<!-- Node1&#45;&gt;Node2 -->
<g id="edge1" class="edge"><title>Node1&#45;&gt;Node2</title>
<path fill="none" stroke="midnightblue" d="M445.368,-314.909C428.279,-305.225 405.893,-292.54 387.326,-282.018"/>
<polygon fill="midnightblue" stroke="midnightblue" points="388.983,-278.934 378.557,-277.049 385.532,-285.024 388.983,-278.934"/>
</g>
<!-- Node10 -->
<g id="node10" class="node"><title>Node10</title>
<g id="a_node10"><a xlink:href="collection__front__source_8cpp.html" target="_top" xlink:title="Om source file. ">
<polygon fill="none" stroke="black" points="418.424,-245 418.424,-277 525.576,-277 525.576,-245 418.424,-245"/>
<text text-anchor="start" x="426.424" y="-263" font-family="Helvetica,sans-Serif" font-size="10.00">om/source/collection</text>
<text text-anchor="middle" x="472" y="-251" font-family="Helvetica,sans-Serif" font-size="10.00">_front_source.cpp</text>
</a>
</g>
</g>
<!-- Node1&#45;&gt;Node10 -->
<g id="edge12" class="edge"><title>Node1&#45;&gt;Node10</title>
<path fill="none" stroke="midnightblue" d="M466.28,-314.909C465.281,-306.721 465.009,-296.389 465.463,-287.032"/>
<polygon fill="midnightblue" stroke="midnightblue" points="468.953,-287.303 466.285,-277.049 461.976,-286.728 468.953,-287.303"/>
</g>
<!-- Node3 -->
<g id="node3" class="node"><title>Node3</title>
<g id="a_node3"><a xlink:href="default__source_8hpp.html" target="_top" xlink:title="Om header file. ">
<polygon fill="none" stroke="black" points="134.737,-181 134.737,-201 285.263,-201 285.263,-181 134.737,-181"/>
<text text-anchor="middle" x="210" y="-187" font-family="Helvetica,sans-Serif" font-size="10.00">om/source/default_source.hpp</text>
</a>
</g>
</g>
<!-- Node2&#45;&gt;Node3 -->
<g id="edge2" class="edge"><title>Node2&#45;&gt;Node3</title>
<path fill="none" stroke="midnightblue" d="M320.486,-244.909C295.782,-233.079 261.727,-216.771 237.979,-205.398"/>
<polygon fill="midnightblue" stroke="midnightblue" points="239.332,-202.166 228.802,-201.004 236.309,-208.479 239.332,-202.166"/>
</g>
<!-- Node9 -->
<g id="node9" class="node"><title>Node9</title>
<g id="a_node9"><a xlink:href="iterator__pair__source_8cpp.html" target="_top" xlink:title="Om source file. ">
<polygon fill="none" stroke="black" points="303.707,-175 303.707,-207 400.293,-207 400.293,-175 303.707,-175"/>
<text text-anchor="start" x="311.707" y="-193" font-family="Helvetica,sans-Serif" font-size="10.00">om/source/iterator</text>
<text text-anchor="middle" x="352" y="-181" font-family="Helvetica,sans-Serif" font-size="10.00">_pair_source.cpp</text>
</a>
</g>
</g>
<!-- Node2&#45;&gt;Node9 -->
<g id="edge10" class="edge"><title>Node2&#45;&gt;Node9</title>
<path fill="none" stroke="midnightblue" d="M346.28,-244.909C345.281,-236.721 345.009,-226.389 345.463,-217.032"/>
<polygon fill="midnightblue" stroke="midnightblue" points="348.953,-217.303 346.285,-207.049 341.976,-216.728 348.953,-217.303"/>
</g>
<!-- Node4 -->
<g id="node4" class="node"><title>Node4</title>
<g id="a_node4"><a xlink:href="source_8hpp.html" target="_top" xlink:title="Om header file. ">
<polygon fill="none" stroke="black" points="2.52979,-117 2.52979,-137 117.47,-137 117.47,-117 2.52979,-117"/>
<text text-anchor="middle" x="60" y="-123" font-family="Helvetica,sans-Serif" font-size="10.00">om/source/source.hpp</text>
</a>
</g>
</g>
<!-- Node3&#45;&gt;Node4 -->
<g id="edge3" class="edge"><title>Node3&#45;&gt;Node4</title>
<path fill="none" stroke="midnightblue" d="M188.189,-180.985C162.638,-170.424 120.119,-152.849 91.1126,-140.86"/>
<polygon fill="midnightblue" stroke="midnightblue" points="92.4163,-137.612 81.8376,-137.026 89.7423,-144.081 92.4163,-137.612"/>
</g>
<!-- Node8 -->
<g id="node8" class="node"><title>Node8</title>
<g id="a_node8"><a xlink:href="default__source_8cpp.html" target="_top" xlink:title="Om source file. ">
<polygon fill="none" stroke="black" points="135.018,-117 135.018,-137 284.982,-137 284.982,-117 135.018,-117"/>
<text text-anchor="middle" x="210" y="-123" font-family="Helvetica,sans-Serif" font-size="10.00">om/source/default_source.cpp</text>
</a>
</g>
</g>
<!-- Node3&#45;&gt;Node8 -->
<g id="edge8" class="edge"><title>Node3&#45;&gt;Node8</title>
<path fill="none" stroke="midnightblue" d="M205.045,-180.852C203.252,-172.06 202.802,-158.498 203.696,-147.313"/>
<polygon fill="midnightblue" stroke="midnightblue" points="207.194,-147.559 205.037,-137.186 200.254,-146.64 207.194,-147.559"/>
</g>
<!-- Node5 -->
<g id="node5" class="node"><title>Node5</title>
<g id="a_node5"><a xlink:href="source_8cpp.html" target="_top" xlink:title="Om source file. ">
<polygon fill="none" stroke="black" points="2.81055,-59 2.81055,-79 117.189,-79 117.189,-59 2.81055,-59"/>
<text text-anchor="middle" x="60" y="-65" font-family="Helvetica,sans-Serif" font-size="10.00">om/source/source.cpp</text>
</a>
</g>
</g>
<!-- Node4&#45;&gt;Node5 -->
<g id="edge4" class="edge"><title>Node4&#45;&gt;Node5</title>
<path fill="none" stroke="midnightblue" d="M54.8337,-116.753C53.3076,-109.25 52.8844,-98.4238 53.5643,-89.0781"/>
<polygon fill="midnightblue" stroke="midnightblue" points="57.0461,-89.4439 54.869,-79.0752 50.1049,-88.5385 57.0461,-89.4439"/>
</g>
<!-- Node6 -->
<g id="node6" class="node"><title>Node6</title>
<polygon fill="none" stroke="#bfbfbf" points="-0.115723,-1 -0.115723,-21 48.1157,-21 48.1157,-1 -0.115723,-1"/>
<text text-anchor="middle" x="24" y="-7" font-family="Helvetica,sans-Serif" font-size="10.00">cassert</text>
</g>
<!-- Node5&#45;&gt;Node6 -->
<g id="edge5" class="edge"><title>Node5&#45;&gt;Node6</title>
<path fill="none" stroke="midnightblue" d="M54.0553,-58.7527C48.9703,-50.8427 41.5096,-39.2372 35.2939,-29.5683"/>
<polygon fill="midnightblue" stroke="midnightblue" points="38.1858,-27.5943 29.8341,-21.0752 32.2975,-31.3797 38.1858,-27.5943"/>
</g>
<!-- Node7 -->
<g id="node7" class="node"><title>Node7</title>
<polygon fill="none" stroke="#bfbfbf" points="66.5986,-1 66.5986,-21 125.401,-21 125.401,-1 66.5986,-1"/>
<text text-anchor="middle" x="96" y="-7" font-family="Helvetica,sans-Serif" font-size="10.00">stdexcept</text>
</g>
<!-- Node5&#45;&gt;Node7 -->
<g id="edge6" class="edge"><title>Node5&#45;&gt;Node7</title>
<path fill="none" stroke="midnightblue" d="M65.9447,-58.7527C71.0297,-50.8427 78.4904,-39.2372 84.7061,-29.5683"/>
<polygon fill="midnightblue" stroke="midnightblue" points="87.7025,-31.3797 90.1659,-21.0752 81.8142,-27.5943 87.7025,-31.3797"/>
</g>
<!-- Node5&#45;&gt;Node4 -->
<g id="edge7" class="edge"><title>Node5&#45;&gt;Node4</title>
<path fill="none" stroke="midnightblue" d="M65.131,-79.0752C66.674,-86.5262 67.1141,-97.3384 66.4512,-106.707"/>
<polygon fill="midnightblue" stroke="midnightblue" points="62.9633,-106.389 65.1663,-116.753 69.9067,-107.278 62.9633,-106.389"/>
</g>
<!-- Node8&#45;&gt;Node3 -->
<g id="edge9" class="edge"><title>Node8&#45;&gt;Node3</title>
<path fill="none" stroke="midnightblue" d="M214.963,-137.186C216.752,-145.991 217.198,-159.557 216.3,-170.735"/>
<polygon fill="midnightblue" stroke="midnightblue" points="212.804,-170.478 214.955,-180.852 219.743,-171.4 212.804,-170.478"/>
</g>
<!-- Node9&#45;&gt;Node2 -->
<g id="edge11" class="edge"><title>Node9&#45;&gt;Node2</title>
<path fill="none" stroke="midnightblue" d="M357.715,-207.049C358.716,-215.229 358.991,-225.56 358.539,-234.92"/>
<polygon fill="midnightblue" stroke="midnightblue" points="355.049,-234.656 357.72,-244.909 362.026,-235.228 355.049,-234.656"/>
</g>
<!-- Node10&#45;&gt;Node1 -->
<g id="edge13" class="edge"><title>Node10&#45;&gt;Node1</title>
<path fill="none" stroke="midnightblue" d="M477.715,-277.049C478.716,-285.229 478.991,-295.56 478.539,-304.92"/>
<polygon fill="midnightblue" stroke="midnightblue" points="475.049,-304.656 477.72,-314.909 482.026,-305.228 475.049,-304.656"/>
</g>
</g>
</svg>
