<?xml version="1.0" encoding="UTF-8" standalone="no"?>
<!DOCTYPE svg PUBLIC "-//W3C//DTD SVG 1.1//EN"
 "http://www.w3.org/Graphics/SVG/1.1/DTD/svg11.dtd">
<!-- Generated by graphviz version 2.30.1 (20130221.2233)
 -->
<!-- Title: code/om/consumer.cpp Pages: 1 -->
<svg width="126pt" height="88pt"
 viewBox="0.00 0.00 126.00 88.00" xmlns="http://www.w3.org/2000/svg" xmlns:xlink="http://www.w3.org/1999/xlink">
<g id="graph0" class="graph" transform="scale(1 1) rotate(0) translate(4 84)">
<title>code/om/consumer.cpp</title>
<!-- Node1 -->
<g id="node1" class="node"><title>Node1</title>
<polygon fill="#bfbfbf" stroke="black" points="-0.696777,-59 -0.696777,-79 118.697,-79 118.697,-59 -0.696777,-59"/>
<text text-anchor="middle" x="59" y="-65" font-family="Helvetica,sans-Serif" font-size="10.00">code/om/consumer.cpp</text>
</g>
<!-- Node2 -->
<g id="node2" class="node"><title>Node2</title>
<g id="a_node2"><a xlink:href="consumer_8hpp.html" target="_top" xlink:title="Om header file.">
<polygon fill="none" stroke="black" points="11.2539,-1 11.2539,-21 106.746,-21 106.746,-1 11.2539,-1"/>
<text text-anchor="middle" x="59" y="-7" font-family="Helvetica,sans-Serif" font-size="10.00">om/consumer.hpp</text>
</a>
</g>
</g>
<!-- Node1&#45;&gt;Node2 -->
<g id="edge1" class="edge"><title>Node1&#45;&gt;Node2</title>
<path fill="none" stroke="midnightblue" d="M53.8337,-58.7527C52.3076,-51.2504 51.8844,-40.4238 52.5643,-31.0781"/>
<polygon fill="midnightblue" stroke="midnightblue" points="56.0461,-31.4439 53.869,-21.0752 49.1049,-30.5385 56.0461,-31.4439"/>
</g>
<!-- Node2&#45;&gt;Node1 -->
<g id="edge2" class="edge"><title>Node2&#45;&gt;Node1</title>
<path fill="none" stroke="midnightblue" d="M64.131,-21.0752C65.674,-28.5262 66.1141,-39.3384 65.4512,-48.7065"/>
<polygon fill="midnightblue" stroke="midnightblue" points="61.9633,-48.3895 64.1663,-58.7527 68.9067,-49.2776 61.9633,-48.3895"/>
</g>
</g>
</svg>
