<?xml version="1.0" encoding="UTF-8" standalone="no"?>
<!DOCTYPE svg PUBLIC "-//W3C//DTD SVG 1.1//EN"
 "http://www.w3.org/Graphics/SVG/1.1/DTD/svg11.dtd">
<!-- Generated by graphviz version 2.34.0 (20130907.0228)
 -->
<!-- Title: om/consumer.cpp Pages: 1 -->
<svg width="246pt" height="88pt"
 viewBox="0.00 0.00 246.00 88.00" xmlns="http://www.w3.org/2000/svg" xmlns:xlink="http://www.w3.org/1999/xlink">
<g id="graph0" class="graph" transform="scale(1 1) rotate(0) translate(4 84)">
<title>om/consumer.cpp</title>
<!-- Node1 -->
<g id="node1" class="node"><title>Node1</title>
<polygon fill="#bfbfbf" stroke="black" points="95.5347,-59 95.5347,-79 190.465,-79 190.465,-59 95.5347,-59"/>
<text text-anchor="middle" x="143" y="-65" font-family="Helvetica,sans-Serif" font-size="10.00">om/consumer.cpp</text>
</g>
<!-- Node2 -->
<g id="node2" class="node"><title>Node2</title>
<polygon fill="none" stroke="#bfbfbf" points="-0.115723,-1 -0.115723,-21 48.1157,-21 48.1157,-1 -0.115723,-1"/>
<text text-anchor="middle" x="24" y="-7" font-family="Helvetica,sans-Serif" font-size="10.00">cassert</text>
</g>
<!-- Node1&#45;&gt;Node2 -->
<g id="edge1" class="edge"><title>Node1&#45;&gt;Node2</title>
<path fill="none" stroke="midnightblue" d="M123.616,-58.878C104.339,-49.8068 74.5486,-35.7876 52.5638,-25.4418"/>
<polygon fill="midnightblue" stroke="midnightblue" points="53.9145,-22.2093 43.376,-21.1181 50.9338,-28.543 53.9145,-22.2093"/>
</g>
<!-- Node3 -->
<g id="node3" class="node"><title>Node3</title>
<polygon fill="none" stroke="#bfbfbf" points="66.5986,-1 66.5986,-21 125.401,-21 125.401,-1 66.5986,-1"/>
<text text-anchor="middle" x="96" y="-7" font-family="Helvetica,sans-Serif" font-size="10.00">stdexcept</text>
</g>
<!-- Node1&#45;&gt;Node3 -->
<g id="edge2" class="edge"><title>Node1&#45;&gt;Node3</title>
<path fill="none" stroke="midnightblue" d="M135.239,-58.7527C128.463,-50.6796 118.457,-38.7571 110.245,-28.9727"/>
<polygon fill="midnightblue" stroke="midnightblue" points="112.726,-26.4849 103.617,-21.0752 107.365,-30.985 112.726,-26.4849"/>
</g>
<!-- Node4 -->
<g id="node4" class="node"><title>Node4</title>
<g id="a_node4"><a xlink:href="consumer_8hpp.html" target="_top" xlink:title="Om header file. ">
<polygon fill="none" stroke="black" points="143.254,-1 143.254,-21 238.746,-21 238.746,-1 143.254,-1"/>
<text text-anchor="middle" x="191" y="-7" font-family="Helvetica,sans-Serif" font-size="10.00">om/consumer.hpp</text>
</a>
</g>
</g>
<!-- Node1&#45;&gt;Node4 -->
<g id="edge3" class="edge"><title>Node1&#45;&gt;Node4</title>
<path fill="none" stroke="midnightblue" d="M145.76,-58.7527C151.144,-50.5165 161.292,-38.2738 170.753,-28.3824"/>
<polygon fill="midnightblue" stroke="midnightblue" points="173.475,-30.6118 178.09,-21.0752 168.535,-25.6521 173.475,-30.6118"/>
</g>
<!-- Node4&#45;&gt;Node1 -->
<g id="edge4" class="edge"><title>Node4&#45;&gt;Node1</title>
<path fill="none" stroke="midnightblue" d="M188.352,-21.0752C183.035,-29.2551 172.916,-41.486 163.445,-51.4099"/>
<polygon fill="midnightblue" stroke="midnightblue" points="160.695,-49.2098 156.093,-58.7527 165.642,-54.1628 160.695,-49.2098"/>
</g>
</g>
</svg>
