<?xml version="1.0" encoding="UTF-8" standalone="no"?>
<!DOCTYPE svg PUBLIC "-//W3C//DTD SVG 1.1//EN"
 "http://www.w3.org/Graphics/SVG/1.1/DTD/svg11.dtd">
<!-- Generated by graphviz version 2.30.1 (20130221.2233)
 -->
<!-- Title: om/sinks/container_front_sink.hpp Pages: 1 -->
<svg width="368pt" height="286pt"
 viewBox="0.00 0.00 368.00 286.00" xmlns="http://www.w3.org/2000/svg" xmlns:xlink="http://www.w3.org/1999/xlink">
<g id="graph0" class="graph" transform="scale(1 1) rotate(0) translate(4 282)">
<title>om/sinks/container_front_sink.hpp</title>
<!-- Node1 -->
<g id="node1" class="node"><title>Node1</title>
<polygon fill="#bfbfbf" stroke="black" points="261.315,-245 261.315,-277 360.685,-277 360.685,-245 261.315,-245"/>
<text text-anchor="start" x="269.315" y="-263" font-family="Helvetica,sans-Serif" font-size="10.00">om/sinks/container</text>
<text text-anchor="middle" x="311" y="-251" font-family="Helvetica,sans-Serif" font-size="10.00">_front_sink.hpp</text>
</g>
<!-- Node2 -->
<g id="node2" class="node"><title>Node2</title>
<g id="a_node2"><a xlink:href="default__sink_8hpp.html" target="_top" xlink:title="Om header file. ">
<polygon fill="none" stroke="black" points="112.468,-181 112.468,-201 243.532,-201 243.532,-181 112.468,-181"/>
<text text-anchor="middle" x="178" y="-187" font-family="Helvetica,sans-Serif" font-size="10.00">om/sinks/default_sink.hpp</text>
</a>
</g>
</g>
<!-- Node1&#45;&gt;Node2 -->
<g id="edge1" class="edge"><title>Node1&#45;&gt;Node2</title>
<path fill="none" stroke="midnightblue" d="M281.483,-244.909C258.551,-233.184 227.015,-217.06 204.801,-205.703"/>
<polygon fill="midnightblue" stroke="midnightblue" points="206.107,-202.44 195.61,-201.004 202.92,-208.672 206.107,-202.44"/>
</g>
<!-- Node8 -->
<g id="node8" class="node"><title>Node8</title>
<g id="a_node8"><a xlink:href="container__front__sink_8cpp.html" target="_top" xlink:title="Om source file. ">
<polygon fill="none" stroke="black" points="261.315,-175 261.315,-207 360.685,-207 360.685,-175 261.315,-175"/>
<text text-anchor="start" x="269.315" y="-193" font-family="Helvetica,sans-Serif" font-size="10.00">om/sinks/container</text>
<text text-anchor="middle" x="311" y="-181" font-family="Helvetica,sans-Serif" font-size="10.00">_front_sink.cpp</text>
</a>
</g>
</g>
<!-- Node1&#45;&gt;Node8 -->
<g id="edge9" class="edge"><title>Node1&#45;&gt;Node8</title>
<path fill="none" stroke="midnightblue" d="M305.28,-244.909C304.281,-236.721 304.009,-226.389 304.463,-217.032"/>
<polygon fill="midnightblue" stroke="midnightblue" points="307.953,-217.303 305.285,-207.049 300.976,-216.728 307.953,-217.303"/>
</g>
<!-- Node3 -->
<g id="node3" class="node"><title>Node3</title>
<g id="a_node3"><a xlink:href="sink_8hpp.html" target="_top" xlink:title="Om header file. ">
<polygon fill="none" stroke="black" points="25.042,-117 25.042,-137 94.958,-137 94.958,-117 25.042,-117"/>
<text text-anchor="middle" x="60" y="-123" font-family="Helvetica,sans-Serif" font-size="10.00">om/sink.hpp</text>
</a>
</g>
</g>
<!-- Node2&#45;&gt;Node3 -->
<g id="edge2" class="edge"><title>Node2&#45;&gt;Node3</title>
<path fill="none" stroke="midnightblue" d="M160.842,-180.985C141.266,-170.699 109.03,-153.761 86.2823,-141.809"/>
<polygon fill="midnightblue" stroke="midnightblue" points="87.6593,-138.579 77.1789,-137.026 84.4034,-144.776 87.6593,-138.579"/>
</g>
<!-- Node7 -->
<g id="node7" class="node"><title>Node7</title>
<g id="a_node7"><a xlink:href="default__sink_8cpp.html" target="_top" xlink:title="Om source file. ">
<polygon fill="none" stroke="black" points="112.749,-117 112.749,-137 243.251,-137 243.251,-117 112.749,-117"/>
<text text-anchor="middle" x="178" y="-123" font-family="Helvetica,sans-Serif" font-size="10.00">om/sinks/default_sink.cpp</text>
</a>
</g>
</g>
<!-- Node2&#45;&gt;Node7 -->
<g id="edge7" class="edge"><title>Node2&#45;&gt;Node7</title>
<path fill="none" stroke="midnightblue" d="M173.045,-180.852C171.252,-172.06 170.802,-158.498 171.696,-147.313"/>
<polygon fill="midnightblue" stroke="midnightblue" points="175.194,-147.559 173.037,-137.186 168.254,-146.64 175.194,-147.559"/>
</g>
<!-- Node4 -->
<g id="node4" class="node"><title>Node4</title>
<g id="a_node4"><a xlink:href="sink_8cpp.html" target="_top" xlink:title="Om source file. ">
<polygon fill="none" stroke="black" points="25.3228,-59 25.3228,-79 94.6772,-79 94.6772,-59 25.3228,-59"/>
<text text-anchor="middle" x="60" y="-65" font-family="Helvetica,sans-Serif" font-size="10.00">om/sink.cpp</text>
</a>
</g>
</g>
<!-- Node3&#45;&gt;Node4 -->
<g id="edge3" class="edge"><title>Node3&#45;&gt;Node4</title>
<path fill="none" stroke="midnightblue" d="M54.8337,-116.753C53.3076,-109.25 52.8844,-98.4238 53.5643,-89.0781"/>
<polygon fill="midnightblue" stroke="midnightblue" points="57.0461,-89.4439 54.869,-79.0752 50.1049,-88.5385 57.0461,-89.4439"/>
</g>
<!-- Node5 -->
<g id="node5" class="node"><title>Node5</title>
<polygon fill="none" stroke="#bfbfbf" points="-0.115723,-1 -0.115723,-21 48.1157,-21 48.1157,-1 -0.115723,-1"/>
<text text-anchor="middle" x="24" y="-7" font-family="Helvetica,sans-Serif" font-size="10.00">cassert</text>
</g>
<!-- Node4&#45;&gt;Node5 -->
<g id="edge4" class="edge"><title>Node4&#45;&gt;Node5</title>
<path fill="none" stroke="midnightblue" d="M54.0553,-58.7527C48.9703,-50.8427 41.5096,-39.2372 35.2939,-29.5683"/>
<polygon fill="midnightblue" stroke="midnightblue" points="38.1858,-27.5943 29.8341,-21.0752 32.2975,-31.3797 38.1858,-27.5943"/>
</g>
<!-- Node6 -->
<g id="node6" class="node"><title>Node6</title>
<polygon fill="none" stroke="#bfbfbf" points="66.5986,-1 66.5986,-21 125.401,-21 125.401,-1 66.5986,-1"/>
<text text-anchor="middle" x="96" y="-7" font-family="Helvetica,sans-Serif" font-size="10.00">stdexcept</text>
</g>
<!-- Node4&#45;&gt;Node6 -->
<g id="edge5" class="edge"><title>Node4&#45;&gt;Node6</title>
<path fill="none" stroke="midnightblue" d="M65.9447,-58.7527C71.0297,-50.8427 78.4904,-39.2372 84.7061,-29.5683"/>
<polygon fill="midnightblue" stroke="midnightblue" points="87.7025,-31.3797 90.1659,-21.0752 81.8142,-27.5943 87.7025,-31.3797"/>
</g>
<!-- Node4&#45;&gt;Node3 -->
<g id="edge6" class="edge"><title>Node4&#45;&gt;Node3</title>
<path fill="none" stroke="midnightblue" d="M65.131,-79.0752C66.674,-86.5262 67.1141,-97.3384 66.4512,-106.707"/>
<polygon fill="midnightblue" stroke="midnightblue" points="62.9633,-106.389 65.1663,-116.753 69.9067,-107.278 62.9633,-106.389"/>
</g>
<!-- Node7&#45;&gt;Node2 -->
<g id="edge8" class="edge"><title>Node7&#45;&gt;Node2</title>
<path fill="none" stroke="midnightblue" d="M182.963,-137.186C184.752,-145.991 185.198,-159.557 184.3,-170.735"/>
<polygon fill="midnightblue" stroke="midnightblue" points="180.804,-170.478 182.955,-180.852 187.743,-171.4 180.804,-170.478"/>
</g>
<!-- Node8&#45;&gt;Node1 -->
<g id="edge10" class="edge"><title>Node8&#45;&gt;Node1</title>
<path fill="none" stroke="midnightblue" d="M316.715,-207.049C317.716,-215.229 317.991,-225.56 317.539,-234.92"/>
<polygon fill="midnightblue" stroke="midnightblue" points="314.049,-234.656 316.72,-244.909 321.026,-235.228 314.049,-234.656"/>
</g>
</g>
</svg>
