<?xml version="1.0" encoding="UTF-8" standalone="no"?>
<!DOCTYPE svg PUBLIC "-//W3C//DTD SVG 1.1//EN"
 "http://www.w3.org/Graphics/SVG/1.1/DTD/svg11.dtd">
<!-- Generated by graphviz version 2.36.0 (20140111.2315)
 -->
<!-- Title: om/source/container_back_source.hpp Pages: 1 -->
<svg width="114pt" height="104pt"
 viewBox="0.00 0.00 114.00 104.00" xmlns="http://www.w3.org/2000/svg" xmlns:xlink="http://www.w3.org/1999/xlink">
<g id="graph0" class="graph" transform="scale(1 1) rotate(0) translate(4 100)">
<title>om/source/container_back_source.hpp</title>
<!-- Node9 -->
<g id="node1" class="node"><title>Node9</title>
<g id="a_node1"><a xlink:title="Om header file.">
<polygon fill="#bfbfbf" stroke="black" points="-0.300293,-67 -0.300293,-95 106.3,-95 106.3,-67 -0.300293,-67"/>
<text text-anchor="start" x="7.69971" y="-83" font-family="Helvetica,sans-Serif" font-size="10.00">om/source/container</text>
<text text-anchor="middle" x="53" y="-73" font-family="Helvetica,sans-Serif" font-size="10.00">_back_source.hpp</text>
</a>
</g>
</g>
<!-- Node10 -->
<g id="node2" class="node"><title>Node10</title>
<g id="a_node2"><a xlink:href="container__back__source_8cpp.html" target="_top" xlink:title="Om source file.">
<polygon fill="none" stroke="black" points="-0.300293,-1 -0.300293,-29 106.3,-29 106.3,-1 -0.300293,-1"/>
<text text-anchor="start" x="7.69971" y="-17" font-family="Helvetica,sans-Serif" font-size="10.00">om/source/container</text>
<text text-anchor="middle" x="53" y="-7" font-family="Helvetica,sans-Serif" font-size="10.00">_back_source.cpp</text>
</a>
</g>
</g>
<!-- Node9&#45;&gt;Node10 -->
<g id="edge1" class="edge"><title>Node9&#45;&gt;Node10</title>
<path fill="none" stroke="midnightblue" d="M46.4712,-56.5946C45.9861,-47.3785 46.2989,-37.1352 47.4097,-29.2439"/>
<polygon fill="midnightblue" stroke="midnightblue" points="43.0032,-57.1031 47.4073,-66.7392 49.9736,-56.4598 43.0032,-57.1031"/>
</g>
<!-- Node10&#45;&gt;Node9 -->
<g id="edge2" class="edge"><title>Node10&#45;&gt;Node9</title>
<path fill="none" stroke="midnightblue" d="M59.5277,-39.3855C60.014,-48.6002 59.7024,-58.8444 58.5927,-66.7392"/>
<polygon fill="midnightblue" stroke="midnightblue" points="62.996,-38.8792 58.5903,-29.2439 56.0257,-39.5236 62.996,-38.8792"/>
</g>
</g>
</svg>
