<?xml version="1.0" encoding="UTF-8" standalone="no"?>
<!DOCTYPE svg PUBLIC "-//W3C//DTD SVG 1.1//EN"
 "http://www.w3.org/Graphics/SVG/1.1/DTD/svg11.dtd">
<!-- Generated by graphviz version 2.34.0 (20130907.0228)
 -->
<!-- Title: om/sink/container_back_sink.cpp Pages: 1 -->
<svg width="257pt" height="344pt"
 viewBox="0.00 0.00 257.00 344.00" xmlns="http://www.w3.org/2000/svg" xmlns:xlink="http://www.w3.org/1999/xlink">
<g id="graph0" class="graph" transform="scale(1 1) rotate(0) translate(4 340)">
<title>om/sink/container_back_sink.cpp</title>
<!-- Node1 -->
<g id="node1" class="node"><title>Node1</title>
<polygon fill="#bfbfbf" stroke="black" points="125.473,-303 125.473,-335 246.527,-335 246.527,-303 125.473,-303"/>
<text text-anchor="start" x="133.473" y="-321" font-family="Helvetica,sans-Serif" font-size="10.00">om/sink/container_back</text>
<text text-anchor="middle" x="186" y="-309" font-family="Helvetica,sans-Serif" font-size="10.00">_sink.cpp</text>
</g>
<!-- Node2 -->
<g id="node2" class="node"><title>Node2</title>
<g id="a_node2"><a xlink:href="container__back__sink_8hpp.html" target="_top" xlink:title="Om header file. ">
<polygon fill="none" stroke="black" points="125.473,-233 125.473,-265 246.527,-265 246.527,-233 125.473,-233"/>
<text text-anchor="start" x="133.473" y="-251" font-family="Helvetica,sans-Serif" font-size="10.00">om/sink/container_back</text>
<text text-anchor="middle" x="186" y="-239" font-family="Helvetica,sans-Serif" font-size="10.00">_sink.hpp</text>
</a>
</g>
</g>
<!-- Node1&#45;&gt;Node2 -->
<g id="edge1" class="edge"><title>Node1&#45;&gt;Node2</title>
<path fill="none" stroke="midnightblue" d="M180.28,-302.909C179.281,-294.721 179.009,-284.389 179.463,-275.032"/>
<polygon fill="midnightblue" stroke="midnightblue" points="182.953,-275.303 180.285,-265.049 175.976,-274.728 182.953,-275.303"/>
</g>
<!-- Node2&#45;&gt;Node1 -->
<g id="edge10" class="edge"><title>Node2&#45;&gt;Node1</title>
<path fill="none" stroke="midnightblue" d="M191.715,-265.049C192.716,-273.229 192.991,-283.56 192.539,-292.92"/>
<polygon fill="midnightblue" stroke="midnightblue" points="189.049,-292.656 191.72,-302.909 196.026,-293.228 189.049,-292.656"/>
</g>
<!-- Node3 -->
<g id="node3" class="node"><title>Node3</title>
<g id="a_node3"><a xlink:href="default__sink_8hpp.html" target="_top" xlink:title="Om header file. ">
<polygon fill="none" stroke="black" points="122.968,-175 122.968,-195 249.032,-195 249.032,-175 122.968,-175"/>
<text text-anchor="middle" x="186" y="-181" font-family="Helvetica,sans-Serif" font-size="10.00">om/sink/default_sink.hpp</text>
</a>
</g>
</g>
<!-- Node2&#45;&gt;Node3 -->
<g id="edge2" class="edge"><title>Node2&#45;&gt;Node3</title>
<path fill="none" stroke="midnightblue" d="M186,-232.992C186,-224.726 186,-214.373 186,-205.489"/>
<polygon fill="midnightblue" stroke="midnightblue" points="189.5,-205.29 186,-195.29 182.5,-205.29 189.5,-205.29"/>
</g>
<!-- Node4 -->
<g id="node4" class="node"><title>Node4</title>
<g id="a_node4"><a xlink:href="sink_2sink_8hpp.html" target="_top" xlink:title="Om header file. ">
<polygon fill="none" stroke="black" points="14.7612,-117 14.7612,-137 105.239,-137 105.239,-117 14.7612,-117"/>
<text text-anchor="middle" x="60" y="-123" font-family="Helvetica,sans-Serif" font-size="10.00">om/sink/sink.hpp</text>
</a>
</g>
</g>
<!-- Node3&#45;&gt;Node4 -->
<g id="edge3" class="edge"><title>Node3&#45;&gt;Node4</title>
<path fill="none" stroke="midnightblue" d="M165.475,-174.878C144.974,-165.766 113.239,-151.662 89.9314,-141.303"/>
<polygon fill="midnightblue" stroke="midnightblue" points="91.0753,-137.981 80.5157,-137.118 88.2323,-144.378 91.0753,-137.981"/>
</g>
<!-- Node8 -->
<g id="node8" class="node"><title>Node8</title>
<g id="a_node8"><a xlink:href="default__sink_8cpp.html" target="_top" xlink:title="Om source file. ">
<polygon fill="none" stroke="black" points="123.249,-117 123.249,-137 248.751,-137 248.751,-117 123.249,-117"/>
<text text-anchor="middle" x="186" y="-123" font-family="Helvetica,sans-Serif" font-size="10.00">om/sink/default_sink.cpp</text>
</a>
</g>
</g>
<!-- Node3&#45;&gt;Node8 -->
<g id="edge8" class="edge"><title>Node3&#45;&gt;Node8</title>
<path fill="none" stroke="midnightblue" d="M180.834,-174.753C179.308,-167.25 178.884,-156.424 179.564,-147.078"/>
<polygon fill="midnightblue" stroke="midnightblue" points="183.046,-147.444 180.869,-137.075 176.105,-146.538 183.046,-147.444"/>
</g>
<!-- Node5 -->
<g id="node5" class="node"><title>Node5</title>
<g id="a_node5"><a xlink:href="sink_2sink_8cpp.html" target="_top" xlink:title="Om source file. ">
<polygon fill="none" stroke="black" points="15.042,-59 15.042,-79 104.958,-79 104.958,-59 15.042,-59"/>
<text text-anchor="middle" x="60" y="-65" font-family="Helvetica,sans-Serif" font-size="10.00">om/sink/sink.cpp</text>
</a>
</g>
</g>
<!-- Node4&#45;&gt;Node5 -->
<g id="edge4" class="edge"><title>Node4&#45;&gt;Node5</title>
<path fill="none" stroke="midnightblue" d="M54.8337,-116.753C53.3076,-109.25 52.8844,-98.4238 53.5643,-89.0781"/>
<polygon fill="midnightblue" stroke="midnightblue" points="57.0461,-89.4439 54.869,-79.0752 50.1049,-88.5385 57.0461,-89.4439"/>
</g>
<!-- Node5&#45;&gt;Node4 -->
<g id="edge7" class="edge"><title>Node5&#45;&gt;Node4</title>
<path fill="none" stroke="midnightblue" d="M65.131,-79.0752C66.674,-86.5262 67.1141,-97.3384 66.4512,-106.707"/>
<polygon fill="midnightblue" stroke="midnightblue" points="62.9633,-106.389 65.1663,-116.753 69.9067,-107.278 62.9633,-106.389"/>
</g>
<!-- Node6 -->
<g id="node6" class="node"><title>Node6</title>
<polygon fill="none" stroke="#bfbfbf" points="-0.115723,-1 -0.115723,-21 48.1157,-21 48.1157,-1 -0.115723,-1"/>
<text text-anchor="middle" x="24" y="-7" font-family="Helvetica,sans-Serif" font-size="10.00">cassert</text>
</g>
<!-- Node5&#45;&gt;Node6 -->
<g id="edge5" class="edge"><title>Node5&#45;&gt;Node6</title>
<path fill="none" stroke="midnightblue" d="M54.0553,-58.7527C48.9703,-50.8427 41.5096,-39.2372 35.2939,-29.5683"/>
<polygon fill="midnightblue" stroke="midnightblue" points="38.1858,-27.5943 29.8341,-21.0752 32.2975,-31.3797 38.1858,-27.5943"/>
</g>
<!-- Node7 -->
<g id="node7" class="node"><title>Node7</title>
<polygon fill="none" stroke="#bfbfbf" points="66.5986,-1 66.5986,-21 125.401,-21 125.401,-1 66.5986,-1"/>
<text text-anchor="middle" x="96" y="-7" font-family="Helvetica,sans-Serif" font-size="10.00">stdexcept</text>
</g>
<!-- Node5&#45;&gt;Node7 -->
<g id="edge6" class="edge"><title>Node5&#45;&gt;Node7</title>
<path fill="none" stroke="midnightblue" d="M65.9447,-58.7527C71.0297,-50.8427 78.4904,-39.2372 84.7061,-29.5683"/>
<polygon fill="midnightblue" stroke="midnightblue" points="87.7025,-31.3797 90.1659,-21.0752 81.8142,-27.5943 87.7025,-31.3797"/>
</g>
<!-- Node8&#45;&gt;Node3 -->
<g id="edge9" class="edge"><title>Node8&#45;&gt;Node3</title>
<path fill="none" stroke="midnightblue" d="M191.131,-137.075C192.674,-144.526 193.114,-155.338 192.451,-164.707"/>
<polygon fill="midnightblue" stroke="midnightblue" points="188.963,-164.389 191.166,-174.753 195.907,-165.278 188.963,-164.389"/>
</g>
</g>
</svg>
