<?xml version="1.0" encoding="UTF-8" standalone="no"?>
<!DOCTYPE svg PUBLIC "-//W3C//DTD SVG 1.1//EN"
 "http://www.w3.org/Graphics/SVG/1.1/DTD/svg11.dtd">
<!-- Generated by graphviz version 2.34.0 (20130907.0228)
 -->
<!-- Title: om/operation/copy_operation.hpp Pages: 1 -->
<svg width="172pt" height="88pt"
 viewBox="0.00 0.00 172.00 88.00" xmlns="http://www.w3.org/2000/svg" xmlns:xlink="http://www.w3.org/1999/xlink">
<g id="graph0" class="graph" transform="scale(1 1) rotate(0) translate(4 84)">
<title>om/operation/copy_operation.hpp</title>
<!-- Node1 -->
<g id="node1" class="node"><title>Node1</title>
<polygon fill="#bfbfbf" stroke="black" points="-0.49707,-59 -0.49707,-79 164.497,-79 164.497,-59 -0.49707,-59"/>
<text text-anchor="middle" x="82" y="-65" font-family="Helvetica,sans-Serif" font-size="10.00">om/operation/copy_operation.hpp</text>
</g>
<!-- Node2 -->
<g id="node2" class="node"><title>Node2</title>
<g id="a_node2"><a xlink:href="copy__operation_8cpp.html" target="_top" xlink:title="Om source file. ">
<polygon fill="none" stroke="black" points="-0.216309,-1 -0.216309,-21 164.216,-21 164.216,-1 -0.216309,-1"/>
<text text-anchor="middle" x="82" y="-7" font-family="Helvetica,sans-Serif" font-size="10.00">om/operation/copy_operation.cpp</text>
</a>
</g>
</g>
<!-- Node1&#45;&gt;Node2 -->
<g id="edge1" class="edge"><title>Node1&#45;&gt;Node2</title>
<path fill="none" stroke="midnightblue" d="M75.5488,-48.7065C74.8859,-39.3384 75.326,-28.5262 76.869,-21.0752"/>
<polygon fill="midnightblue" stroke="midnightblue" points="72.0933,-49.2776 76.8337,-58.7527 79.0367,-48.3895 72.0933,-49.2776"/>
</g>
<!-- Node2&#45;&gt;Node1 -->
<g id="edge2" class="edge"><title>Node2&#45;&gt;Node1</title>
<path fill="none" stroke="midnightblue" d="M88.4357,-31.0781C89.1156,-40.4238 88.6924,-51.2504 87.1663,-58.7527"/>
<polygon fill="midnightblue" stroke="midnightblue" points="91.8951,-30.5385 87.131,-21.0752 84.9539,-31.4439 91.8951,-30.5385"/>
</g>
</g>
</svg>
