<?xml version="1.0" encoding="UTF-8" standalone="no"?>
<!DOCTYPE svg PUBLIC "-//W3C//DTD SVG 1.1//EN"
 "http://www.w3.org/Graphics/SVG/1.1/DTD/svg11.dtd">
<!-- Generated by graphviz version 2.30.1 (20130221.2233)
 -->
<!-- Title: code/om/copy.cpp Pages: 1 -->
<svg width="104pt" height="146pt"
 viewBox="0.00 0.00 104.00 146.00" xmlns="http://www.w3.org/2000/svg" xmlns:xlink="http://www.w3.org/1999/xlink">
<g id="graph0" class="graph" transform="scale(1 1) rotate(0) translate(4 142)">
<title>code/om/copy.cpp</title>
<!-- Node1 -->
<g id="node1" class="node"><title>Node1</title>
<polygon fill="#bfbfbf" stroke="black" points="-0.209961,-117 -0.209961,-137 96.21,-137 96.21,-117 -0.209961,-117"/>
<text text-anchor="middle" x="48" y="-123" font-family="Helvetica,sans-Serif" font-size="10.00">code/om/copy.cpp</text>
</g>
<!-- Node2 -->
<g id="node2" class="node"><title>Node2</title>
<g id="a_node2"><a xlink:href="copy_8hpp.html" target="_top" xlink:title="Om header file.">
<polygon fill="none" stroke="black" points="11.7407,-59 11.7407,-79 84.2593,-79 84.2593,-59 11.7407,-59"/>
<text text-anchor="middle" x="48" y="-65" font-family="Helvetica,sans-Serif" font-size="10.00">om/copy.hpp</text>
</a>
</g>
</g>
<!-- Node1&#45;&gt;Node2 -->
<g id="edge1" class="edge"><title>Node1&#45;&gt;Node2</title>
<path fill="none" stroke="midnightblue" d="M42.8337,-116.753C41.3076,-109.25 40.8844,-98.4238 41.5643,-89.0781"/>
<polygon fill="midnightblue" stroke="midnightblue" points="45.0461,-89.4439 42.869,-79.0752 38.1049,-88.5385 45.0461,-89.4439"/>
</g>
<!-- Node3 -->
<g id="node3" class="node"><title>Node3</title>
<polygon fill="none" stroke="#bfbfbf" points="21.9434,-1 21.9434,-21 74.0566,-21 74.0566,-1 21.9434,-1"/>
<text text-anchor="middle" x="48" y="-7" font-family="Helvetica,sans-Serif" font-size="10.00">memory</text>
</g>
<!-- Node2&#45;&gt;Node3 -->
<g id="edge2" class="edge"><title>Node2&#45;&gt;Node3</title>
<path fill="none" stroke="midnightblue" d="M48,-58.7527C48,-51.2504 48,-40.4238 48,-31.0781"/>
<polygon fill="midnightblue" stroke="midnightblue" points="51.5001,-31.0752 48,-21.0752 44.5001,-31.0752 51.5001,-31.0752"/>
</g>
<!-- Node2&#45;&gt;Node1 -->
<g id="edge3" class="edge"><title>Node2&#45;&gt;Node1</title>
<path fill="none" stroke="midnightblue" d="M53.131,-79.0752C54.674,-86.5262 55.1141,-97.3384 54.4512,-106.707"/>
<polygon fill="midnightblue" stroke="midnightblue" points="50.9633,-106.389 53.1663,-116.753 57.9067,-107.278 50.9633,-106.389"/>
</g>
</g>
</svg>
