<?xml version="1.0" encoding="UTF-8" standalone="no"?>
<!DOCTYPE svg PUBLIC "-//W3C//DTD SVG 1.1//EN"
 "http://www.w3.org/Graphics/SVG/1.1/DTD/svg11.dtd">
<!-- Generated by graphviz version 2.28.0 (20120817.0054)
 -->
<!-- Title: code/om/default_program.hpp Pages: 1 -->
<svg width="1999pt" height="624pt"
 viewBox="0.00 0.00 1999.00 624.00" xmlns="http://www.w3.org/2000/svg" xmlns:xlink="http://www.w3.org/1999/xlink">
<g id="graph1" class="graph" transform="scale(1 1) rotate(0) translate(4 620)">
<title>code/om/default_program.hpp</title>
<!-- Node1 -->
<g id="node1" class="node"><title>Node1</title>
<polygon fill="#bfbfbf" stroke="black" points="912.5,-596.5 912.5,-615.5 1055.5,-615.5 1055.5,-596.5 912.5,-596.5"/>
<text text-anchor="middle" x="984" y="-603.5" font-family="Helvetica,sans-Serif" font-size="10.00">code/om/default_program.hpp</text>
</g>
<!-- Node2 -->
<g id="node3" class="node"><title>Node2</title>
<a xlink:href="default__element_8hpp.html" target="_top" xlink:title="Om header file.">
<polygon fill="none" stroke="black" points="252,-540.5 252,-559.5 392,-559.5 392,-540.5 252,-540.5"/>
<text text-anchor="middle" x="322" y="-547.5" font-family="Helvetica,sans-Serif" font-size="10.00">code/om/default_element.hpp</text>
</a>
</g>
<!-- Node1&#45;&gt;Node2 -->
<g id="edge2" class="edge"><title>Node1&#45;&gt;Node2</title>
<path fill="none" stroke="midnightblue" d="M902.209,-598.328C770.948,-587.621 515.52,-566.786 392.098,-556.718"/>
<polygon fill="midnightblue" stroke="midnightblue" points="901.959,-601.819 912.21,-599.144 902.528,-594.843 901.959,-601.819"/>
</g>
<!-- Node5 -->
<g id="node10" class="node"><title>Node5</title>
<a xlink:href="internal_8hpp.html" target="_top" xlink:title="code/om/internal.hpp">
<polygon fill="none" stroke="black" points="919,-118.5 919,-137.5 1023,-137.5 1023,-118.5 919,-118.5"/>
<text text-anchor="middle" x="971" y="-125.5" font-family="Helvetica,sans-Serif" font-size="10.00">code/om/internal.hpp</text>
</a>
</g>
<!-- Node1&#45;&gt;Node5 -->
<g id="edge148" class="edge"><title>Node1&#45;&gt;Node5</title>
<path fill="none" stroke="midnightblue" d="M944.312,-592.576C928.905,-585.594 912.861,-575.15 904,-560 899.512,-552.327 901.633,-548.568 904,-540 942.216,-401.64 1062.46,-390.075 1042,-248 1037.51,-216.819 1038.08,-207.089 1022,-180 1011.65,-162.557 993.973,-146.767 982.39,-137.523"/>
<polygon fill="midnightblue" stroke="midnightblue" points="943.175,-595.894 953.753,-596.488 945.854,-589.427 943.175,-595.894"/>
</g>
<!-- Node40 -->
<g id="node112" class="node"><title>Node40</title>
<a xlink:href="default__program_8cpp.html" target="_top" xlink:title="Om source file.">
<polygon fill="none" stroke="black" points="913,-540.5 913,-559.5 1055,-559.5 1055,-540.5 913,-540.5"/>
<text text-anchor="middle" x="984" y="-547.5" font-family="Helvetica,sans-Serif" font-size="10.00">code/om/default_program.cpp</text>
</a>
</g>
<!-- Node1&#45;&gt;Node40 -->
<g id="edge144" class="edge"><title>Node1&#45;&gt;Node40</title>
<path fill="none" stroke="midnightblue" d="M977.528,-586.101C976.896,-577.136 977.343,-566.858 978.869,-559.751"/>
<polygon fill="midnightblue" stroke="midnightblue" points="974.066,-586.622 978.834,-596.083 981.007,-585.713 974.066,-586.622"/>
</g>
<!-- Node41 -->
<g id="node116" class="node"><title>Node41</title>
<a xlink:href="literal_8hpp.html" target="_top" xlink:title="Om header file.">
<polygon fill="none" stroke="black" points="1073.5,-540.5 1073.5,-559.5 1168.5,-559.5 1168.5,-540.5 1073.5,-540.5"/>
<text text-anchor="middle" x="1121" y="-547.5" font-family="Helvetica,sans-Serif" font-size="10.00">code/om/literal.hpp</text>
</a>
</g>
<!-- Node1&#45;&gt;Node41 -->
<g id="edge150" class="edge"><title>Node1&#45;&gt;Node41</title>
<path fill="none" stroke="midnightblue" d="M1015.02,-592.772C1040.76,-582.629 1076.69,-568.467 1099.39,-559.516"/>
<polygon fill="midnightblue" stroke="midnightblue" points="1013.73,-589.52 1005.71,-596.444 1016.29,-596.033 1013.73,-589.52"/>
</g>
<!-- Node43 -->
<g id="node122" class="node"><title>Node43</title>
<a xlink:href="null_8hpp.html" target="_top" xlink:title="Om header file.">
<polygon fill="none" stroke="black" points="1186.5,-540.5 1186.5,-559.5 1275.5,-559.5 1275.5,-540.5 1186.5,-540.5"/>
<text text-anchor="middle" x="1231" y="-547.5" font-family="Helvetica,sans-Serif" font-size="10.00">code/om/null.hpp</text>
</a>
</g>
<!-- Node1&#45;&gt;Node43 -->
<g id="edge158" class="edge"><title>Node1&#45;&gt;Node43</title>
<path fill="none" stroke="midnightblue" d="M1033.03,-594.281C1079.7,-584.077 1149.03,-568.92 1192.05,-559.516"/>
<polygon fill="midnightblue" stroke="midnightblue" points="1032.16,-590.888 1023.14,-596.444 1033.65,-597.727 1032.16,-590.888"/>
</g>
<!-- Node3 -->
<g id="node5" class="node"><title>Node3</title>
<a xlink:href="default__atom_8hpp.html" target="_top" xlink:title="Om header file.">
<polygon fill="none" stroke="black" points="500.5,-484.5 500.5,-503.5 629.5,-503.5 629.5,-484.5 500.5,-484.5"/>
<text text-anchor="middle" x="565" y="-491.5" font-family="Helvetica,sans-Serif" font-size="10.00">code/om/default_atom.hpp</text>
</a>
</g>
<!-- Node2&#45;&gt;Node3 -->
<g id="edge4" class="edge"><title>Node2&#45;&gt;Node3</title>
<path fill="none" stroke="midnightblue" d="M370.522,-538.217C416.44,-528.013 484.447,-512.901 526.676,-503.516"/>
<polygon fill="midnightblue" stroke="midnightblue" points="369.507,-534.858 360.504,-540.444 371.025,-541.691 369.507,-534.858"/>
</g>
<!-- Node2&#45;&gt;Node5 -->
<g id="edge134" class="edge"><title>Node2&#45;&gt;Node5</title>
<path fill="none" stroke="midnightblue" d="M241.696,-540.365C216.222,-533.953 189.819,-522.918 171,-504 149.774,-482.662 152,-469.098 152,-439 152,-439 152,-439 152,-263 152,-178.12 242.064,-202.159 324,-180 435.894,-149.738 785.858,-135.176 918.934,-130.626"/>
<polygon fill="midnightblue" stroke="midnightblue" points="241.242,-543.852 251.772,-542.682 242.81,-537.03 241.242,-543.852"/>
</g>
<!-- Node37 -->
<g id="node102" class="node"><title>Node37</title>
<a xlink:href="default__element_8cpp.html" target="_top" xlink:title="Om source file.">
<polygon fill="none" stroke="black" points="180,-484.5 180,-503.5 320,-503.5 320,-484.5 180,-484.5"/>
<text text-anchor="middle" x="250" y="-491.5" font-family="Helvetica,sans-Serif" font-size="10.00">code/om/default_element.cpp</text>
</a>
</g>
<!-- Node2&#45;&gt;Node37 -->
<g id="edge130" class="edge"><title>Node2&#45;&gt;Node37</title>
<path fill="none" stroke="midnightblue" d="M296.836,-534.658C282.588,-524.859 265.987,-512.184 256.63,-503.834"/>
<polygon fill="midnightblue" stroke="midnightblue" points="295.058,-537.68 305.317,-540.324 298.946,-531.859 295.058,-537.68"/>
</g>
<!-- Node38 -->
<g id="node106" class="node"><title>Node38</title>
<a xlink:href="operand_8hpp.html" target="_top" xlink:title="Om header file.">
<polygon fill="none" stroke="black" points="338,-484.5 338,-503.5 448,-503.5 448,-484.5 338,-484.5"/>
<text text-anchor="middle" x="393" y="-491.5" font-family="Helvetica,sans-Serif" font-size="10.00">code/om/operand.hpp</text>
</a>
</g>
<!-- Node2&#45;&gt;Node38 -->
<g id="edge136" class="edge"><title>Node2&#45;&gt;Node38</title>
<path fill="none" stroke="midnightblue" d="M341.59,-534.101C354.368,-524.382 370.613,-512.027 381.385,-503.834"/>
<polygon fill="midnightblue" stroke="midnightblue" points="339.248,-531.484 333.407,-540.324 343.486,-537.056 339.248,-531.484"/>
</g>
<!-- Node4 -->
<g id="node7" class="node"><title>Node4</title>
<a xlink:href="default__atom_8cpp.html" target="_top" xlink:title="Om source file.">
<polygon fill="none" stroke="black" points="523,-428.5 523,-447.5 651,-447.5 651,-428.5 523,-428.5"/>
<text text-anchor="middle" x="587" y="-435.5" font-family="Helvetica,sans-Serif" font-size="10.00">code/om/default_atom.cpp</text>
</a>
</g>
<!-- Node3&#45;&gt;Node4 -->
<g id="edge6" class="edge"><title>Node3&#45;&gt;Node4</title>
<path fill="none" stroke="midnightblue" d="M566.128,-474.396C569.146,-465.362 573.834,-454.936 578.304,-447.751"/>
<polygon fill="midnightblue" stroke="midnightblue" points="562.741,-473.513 563.467,-484.083 569.491,-475.368 562.741,-473.513"/>
</g>
<!-- Node3&#45;&gt;Node5 -->
<g id="edge10" class="edge"><title>Node3&#45;&gt;Node5</title>
<path fill="none" stroke="midnightblue" d="M494.228,-482.812C449.501,-475.074 397.036,-463.18 380,-448 357.008,-427.513 356,-413.795 356,-383 356,-383 356,-383 356,-263 356,-223.136 357.901,-203.639 390,-180 432.091,-149.002 784.316,-134.828 918.954,-130.506"/>
<polygon fill="midnightblue" stroke="midnightblue" points="493.783,-486.287 504.225,-484.496 494.945,-479.384 493.783,-486.287"/>
</g>
<!-- Node9 -->
<g id="node20" class="node"><title>Node9</title>
<a xlink:href="operator_8hpp.html" target="_top" xlink:title="Om header file.">
<polygon fill="none" stroke="black" points="678,-428.5 678,-447.5 788,-447.5 788,-428.5 678,-428.5"/>
<text text-anchor="middle" x="733" y="-435.5" font-family="Helvetica,sans-Serif" font-size="10.00">code/om/operator.hpp</text>
</a>
</g>
<!-- Node3&#45;&gt;Node9 -->
<g id="edge22" class="edge"><title>Node3&#45;&gt;Node9</title>
<path fill="none" stroke="midnightblue" d="M601.386,-481.304C633.042,-471.129 678.168,-456.625 706.504,-447.516"/>
<polygon fill="midnightblue" stroke="midnightblue" points="600.069,-478.051 591.62,-484.444 602.211,-484.715 600.069,-478.051"/>
</g>
<!-- Node35 -->
<g id="node96" class="node"><title>Node35</title>
<a xlink:href="separator_8hpp.html" target="_top" xlink:title="Om header file.">
<polygon fill="none" stroke="black" points="389,-428.5 389,-447.5 505,-447.5 505,-428.5 389,-428.5"/>
<text text-anchor="middle" x="447" y="-435.5" font-family="Helvetica,sans-Serif" font-size="10.00">code/om/separator.hpp</text>
</a>
</g>
<!-- Node3&#45;&gt;Node35 -->
<g id="edge122" class="edge"><title>Node3&#45;&gt;Node35</title>
<path fill="none" stroke="midnightblue" d="M537.1,-480.232C515.027,-470.131 484.824,-456.309 465.61,-447.516"/>
<polygon fill="midnightblue" stroke="midnightblue" points="535.753,-483.465 546.303,-484.444 538.666,-477.1 535.753,-483.465"/>
</g>
<!-- Node4&#45;&gt;Node3 -->
<g id="edge8" class="edge"><title>Node4&#45;&gt;Node3</title>
<path fill="none" stroke="midnightblue" d="M585.843,-457.691C582.847,-466.635 578.224,-476.927 573.799,-484.083"/>
<polygon fill="midnightblue" stroke="midnightblue" points="589.299,-458.321 588.566,-447.751 582.548,-456.471 589.299,-458.321"/>
</g>
<!-- Node5&#45;&gt;Node5 -->
<g id="edge14" class="edge"><title>Node5&#45;&gt;Node5</title>
<path fill="none" stroke="midnightblue" d="M1005.48,-139.135C1024.05,-141.053 1041,-137.341 1041,-128 1041,-116.98 1017.41,-113.795 995.393,-118.444"/>
<polygon fill="midnightblue" stroke="midnightblue" points="1005.81,-135.645 995.393,-137.556 1004.73,-142.561 1005.81,-135.645"/>
</g>
<!-- Node6 -->
<g id="node12" class="node"><title>Node6</title>
<a xlink:href="internal_8cpp.html" target="_top" xlink:title="code/om/internal.cpp">
<polygon fill="none" stroke="black" points="813,-56.5 813,-75.5 917,-75.5 917,-56.5 813,-56.5"/>
<text text-anchor="middle" x="865" y="-63.5" font-family="Helvetica,sans-Serif" font-size="10.00">code/om/internal.cpp</text>
</a>
</g>
<!-- Node5&#45;&gt;Node6 -->
<g id="edge12" class="edge"><title>Node5&#45;&gt;Node6</title>
<path fill="none" stroke="midnightblue" d="M947.05,-113.443C926.537,-101.832 897.621,-85.4648 880.159,-75.5806"/>
<polygon fill="midnightblue" stroke="midnightblue" points="945.386,-116.523 955.813,-118.403 948.834,-110.432 945.386,-116.523"/>
</g>
<!-- Node7 -->
<g id="node15" class="node"><title>Node7</title>
<a xlink:href="om_8hpp.html" target="_top" xlink:title="Om &quot;umbrella&quot; header file.">
<polygon fill="none" stroke="black" points="935,-56.5 935,-75.5 1007,-75.5 1007,-56.5 935,-56.5"/>
<text text-anchor="middle" x="971" y="-63.5" font-family="Helvetica,sans-Serif" font-size="10.00">code/om.hpp</text>
</a>
</g>
<!-- Node5&#45;&gt;Node7 -->
<g id="edge16" class="edge"><title>Node5&#45;&gt;Node7</title>
<path fill="none" stroke="midnightblue" d="M964.683,-108.16C963.797,-97.2482 964.27,-84.04 966.103,-75.5806"/>
<polygon fill="midnightblue" stroke="midnightblue" points="961.263,-108.977 966.099,-118.403 968.197,-108.018 961.263,-108.977"/>
</g>
<!-- Node7&#45;&gt;Node5 -->
<g id="edge18" class="edge"><title>Node7&#45;&gt;Node5</title>
<path fill="none" stroke="midnightblue" d="M977.315,-85.8199C978.203,-96.7283 977.732,-109.938 975.901,-118.403"/>
<polygon fill="midnightblue" stroke="midnightblue" points="980.736,-85.006 975.897,-75.5806 973.802,-85.9661 980.736,-85.006"/>
</g>
<!-- Node8 -->
<g id="node18" class="node"><title>Node8</title>
<a xlink:href="om_8cpp.html" target="_top" xlink:title="Om source file.">
<polygon fill="none" stroke="black" points="935.5,-0.5 935.5,-19.5 1006.5,-19.5 1006.5,-0.5 935.5,-0.5"/>
<text text-anchor="middle" x="971" y="-7.5" font-family="Helvetica,sans-Serif" font-size="10.00">code/om.cpp</text>
</a>
</g>
<!-- Node7&#45;&gt;Node8 -->
<g id="edge20" class="edge"><title>Node7&#45;&gt;Node8</title>
<path fill="none" stroke="midnightblue" d="M971,-45.8045C971,-36.9102 971,-26.7798 971,-19.7511"/>
<polygon fill="midnightblue" stroke="midnightblue" points="967.5,-46.083 971,-56.083 974.5,-46.083 967.5,-46.083"/>
</g>
<!-- Node9&#45;&gt;Node5 -->
<g id="edge78" class="edge"><title>Node9&#45;&gt;Node5</title>
<path fill="none" stroke="midnightblue" d="M783.649,-425.702C831.826,-411.613 897,-382.328 897,-327 897,-327 897,-327 897,-263 897,-209.583 942.619,-157.44 962.221,-137.501"/>
<polygon fill="midnightblue" stroke="midnightblue" points="782.655,-422.346 773.961,-428.401 784.534,-429.089 782.655,-422.346"/>
</g>
<!-- Node10 -->
<g id="node22" class="node"><title>Node10</title>
<a xlink:href="form_8hpp.html" target="_top" xlink:title="Om header file.">
<polygon fill="none" stroke="black" points="925,-316.5 925,-335.5 1017,-335.5 1017,-316.5 925,-316.5"/>
<text text-anchor="middle" x="971" y="-323.5" font-family="Helvetica,sans-Serif" font-size="10.00">code/om/form.hpp</text>
</a>
</g>
<!-- Node9&#45;&gt;Node10 -->
<g id="edge24" class="edge"><title>Node9&#45;&gt;Node10</title>
<path fill="none" stroke="midnightblue" d="M798.487,-429.662C833.726,-423.516 876.839,-412.315 911,-392 935.552,-377.4 956.1,-349.702 965.502,-335.647"/>
<polygon fill="midnightblue" stroke="midnightblue" points="797.597,-426.261 788.298,-431.338 798.734,-433.168 797.597,-426.261"/>
</g>
<!-- Node24 -->
<g id="node64" class="node"><title>Node24</title>
<a xlink:href="operator_8cpp.html" target="_top" xlink:title="Om source file.">
<polygon fill="none" stroke="black" points="564.5,-372.5 564.5,-391.5 673.5,-391.5 673.5,-372.5 564.5,-372.5"/>
<text text-anchor="middle" x="619" y="-379.5" font-family="Helvetica,sans-Serif" font-size="10.00">code/om/operator.cpp</text>
</a>
</g>
<!-- Node9&#45;&gt;Node24 -->
<g id="edge80" class="edge"><title>Node9&#45;&gt;Node24</title>
<path fill="none" stroke="midnightblue" d="M700.516,-424.368C677.712,-414.255 648.599,-400.349 631.899,-391.516"/>
<polygon fill="midnightblue" stroke="midnightblue" points="699.283,-427.648 709.848,-428.444 702.084,-421.234 699.283,-427.648"/>
</g>
<!-- Node25 -->
<g id="node67" class="node"><title>Node25</title>
<a xlink:href="pair_8hpp.html" target="_top" xlink:title="Om header file.">
<polygon fill="none" stroke="black" points="691.5,-372.5 691.5,-391.5 782.5,-391.5 782.5,-372.5 691.5,-372.5"/>
<text text-anchor="middle" x="737" y="-379.5" font-family="Helvetica,sans-Serif" font-size="10.00">code/om/pair.hpp</text>
</a>
</g>
<!-- Node9&#45;&gt;Node25 -->
<g id="edge84" class="edge"><title>Node9&#45;&gt;Node25</title>
<path fill="none" stroke="midnightblue" d="M734.4,-418.101C735.064,-409.136 735.825,-398.858 736.352,-391.751"/>
<polygon fill="midnightblue" stroke="midnightblue" points="730.909,-417.852 733.661,-428.083 737.89,-418.369 730.909,-417.852"/>
</g>
<!-- Node10&#45;&gt;Node5 -->
<g id="edge76" class="edge"><title>Node10&#45;&gt;Node5</title>
<path fill="none" stroke="midnightblue" d="M996.859,-310.947C1008.01,-303.383 1019.87,-292.932 1026,-280 1032.09,-267.148 1029.05,-261.89 1026,-248 1016.32,-203.988 988.713,-156.87 976.7,-137.78"/>
<polygon fill="midnightblue" stroke="midnightblue" points="994.805,-308.104 988.198,-316.386 998.528,-314.032 994.805,-308.104"/>
</g>
<!-- Node11 -->
<g id="node24" class="node"><title>Node11</title>
<a xlink:href="expression_8hpp.html" target="_top" xlink:title="Om header file.">
<polygon fill="none" stroke="black" points="1369,-254.5 1369,-273.5 1491,-273.5 1491,-254.5 1369,-254.5"/>
<text text-anchor="middle" x="1430" y="-261.5" font-family="Helvetica,sans-Serif" font-size="10.00">code/om/expression.hpp</text>
</a>
</g>
<!-- Node10&#45;&gt;Node11 -->
<g id="edge26" class="edge"><title>Node10&#45;&gt;Node11</title>
<path fill="none" stroke="midnightblue" d="M1027.27,-317.644C1113.88,-306.323 1279.19,-284.714 1368.72,-273.01"/>
<polygon fill="midnightblue" stroke="midnightblue" points="1026.57,-314.206 1017.11,-318.972 1027.48,-321.146 1026.57,-314.206"/>
</g>
<!-- Node23 -->
<g id="node59" class="node"><title>Node23</title>
<a xlink:href="form_8cpp.html" target="_top" xlink:title="Om source file.">
<polygon fill="none" stroke="black" points="925,-254.5 925,-273.5 1017,-273.5 1017,-254.5 925,-254.5"/>
<text text-anchor="middle" x="971" y="-261.5" font-family="Helvetica,sans-Serif" font-size="10.00">code/om/form.cpp</text>
</a>
</g>
<!-- Node10&#45;&gt;Node23 -->
<g id="edge72" class="edge"><title>Node10&#45;&gt;Node23</title>
<path fill="none" stroke="midnightblue" d="M964.683,-306.16C963.797,-295.248 964.27,-282.04 966.103,-273.581"/>
<polygon fill="midnightblue" stroke="midnightblue" points="961.263,-306.977 966.099,-316.403 968.197,-306.018 961.263,-306.977"/>
</g>
<!-- Node11&#45;&gt;Node5 -->
<g id="edge40" class="edge"><title>Node11&#45;&gt;Node5</title>
<path fill="none" stroke="midnightblue" d="M1408.39,-248.801C1393.45,-238.817 1373.24,-224.978 1356,-212 1338.09,-198.515 1337.5,-189.076 1317,-180 1219.56,-136.867 1093.11,-128.904 1023.22,-128.162"/>
<polygon fill="midnightblue" stroke="midnightblue" points="1406.67,-251.86 1416.94,-254.476 1410.54,-246.028 1406.67,-251.86"/>
</g>
<!-- Node12 -->
<g id="node26" class="node"><title>Node12</title>
<a xlink:href="evaluation_8hpp.html" target="_top" xlink:title="Om header file.">
<polygon fill="none" stroke="black" points="1872.5,-186.5 1872.5,-205.5 1991.5,-205.5 1991.5,-186.5 1872.5,-186.5"/>
<text text-anchor="middle" x="1932" y="-193.5" font-family="Helvetica,sans-Serif" font-size="10.00">code/om/evaluation.hpp</text>
</a>
</g>
<!-- Node11&#45;&gt;Node12 -->
<g id="edge28" class="edge"><title>Node11&#45;&gt;Node12</title>
<path fill="none" stroke="midnightblue" d="M1501.4,-256.728C1587.48,-248.674 1736.38,-233.169 1863,-212 1873.76,-210.201 1885.38,-207.84 1895.96,-205.525"/>
<polygon fill="midnightblue" stroke="midnightblue" points="1500.85,-253.264 1491.22,-257.673 1501.5,-260.234 1500.85,-253.264"/>
</g>
<!-- Node14 -->
<g id="node32" class="node"><title>Node14</title>
<a xlink:href="expression_8cpp.html" target="_top" xlink:title="Om source file.">
<polygon fill="none" stroke="black" points="1187.5,-186.5 1187.5,-205.5 1308.5,-205.5 1308.5,-186.5 1187.5,-186.5"/>
<text text-anchor="middle" x="1248" y="-193.5" font-family="Helvetica,sans-Serif" font-size="10.00">code/om/expression.cpp</text>
</a>
</g>
<!-- Node11&#45;&gt;Node14 -->
<g id="edge36" class="edge"><title>Node11&#45;&gt;Node14</title>
<path fill="none" stroke="midnightblue" d="M1391.69,-251.043C1353.37,-237.9 1296.27,-217.115 1266.8,-205.526"/>
<polygon fill="midnightblue" stroke="midnightblue" points="1390.88,-254.466 1401.48,-254.372 1393.13,-247.838 1390.88,-254.466"/>
</g>
<!-- Node15 -->
<g id="node36" class="node"><title>Node15</title>
<a xlink:href="expression__operation_8hpp.html" target="_top" xlink:title="Om header file.">
<polygon fill="none" stroke="black" points="1365,-181 1365,-211 1495,-211 1495,-181 1365,-181"/>
<text text-anchor="start" x="1373" y="-199" font-family="Helvetica,sans-Serif" font-size="10.00">code/om/operations</text>
<text text-anchor="middle" x="1430" y="-188" font-family="Helvetica,sans-Serif" font-size="10.00">/expression_operation.hpp</text>
</a>
</g>
<!-- Node11&#45;&gt;Node15 -->
<g id="edge42" class="edge"><title>Node11&#45;&gt;Node15</title>
<path fill="none" stroke="midnightblue" d="M1430,-244.174C1430,-233.678 1430,-220.821 1430,-211.181"/>
<polygon fill="midnightblue" stroke="midnightblue" points="1426.5,-244.372 1430,-254.372 1433.5,-244.372 1426.5,-244.372"/>
</g>
<!-- Node17 -->
<g id="node41" class="node"><title>Node17</title>
<a xlink:href="fill__operation_8hpp.html" target="_top" xlink:title="Om header file.">
<polygon fill="none" stroke="black" points="1513,-181 1513,-211 1613,-211 1613,-181 1513,-181"/>
<text text-anchor="start" x="1521" y="-199" font-family="Helvetica,sans-Serif" font-size="10.00">code/om/operations</text>
<text text-anchor="middle" x="1563" y="-188" font-family="Helvetica,sans-Serif" font-size="10.00">/fill_operation.hpp</text>
</a>
</g>
<!-- Node11&#45;&gt;Node17 -->
<g id="edge48" class="edge"><title>Node11&#45;&gt;Node17</title>
<path fill="none" stroke="midnightblue" d="M1456.42,-249.889C1479.04,-238.665 1511.52,-222.545 1534.67,-211.056"/>
<polygon fill="midnightblue" stroke="midnightblue" points="1454.79,-246.791 1447.39,-254.372 1457.9,-253.062 1454.79,-246.791"/>
</g>
<!-- Node19 -->
<g id="node47" class="node"><title>Node19</title>
<a xlink:href="inject__operation_8hpp.html" target="_top" xlink:title="Om header file.">
<polygon fill="none" stroke="black" points="1631,-181 1631,-211 1735,-211 1735,-181 1631,-181"/>
<text text-anchor="start" x="1639" y="-199" font-family="Helvetica,sans-Serif" font-size="10.00">code/om/operations</text>
<text text-anchor="middle" x="1683" y="-188" font-family="Helvetica,sans-Serif" font-size="10.00">/inject_operation.hpp</text>
</a>
</g>
<!-- Node11&#45;&gt;Node19 -->
<g id="edge56" class="edge"><title>Node11&#45;&gt;Node19</title>
<path fill="none" stroke="midnightblue" d="M1472.55,-251.901C1516.18,-240.519 1584.09,-222.803 1630.91,-210.589"/>
<polygon fill="midnightblue" stroke="midnightblue" points="1471.61,-248.528 1462.82,-254.439 1473.38,-255.302 1471.61,-248.528"/>
</g>
<!-- Node21 -->
<g id="node53" class="node"><title>Node21</title>
<a xlink:href="skip__operation_8hpp.html" target="_top" xlink:title="Om header file.">
<polygon fill="none" stroke="black" points="1753.5,-181 1753.5,-211 1854.5,-211 1854.5,-181 1753.5,-181"/>
<text text-anchor="start" x="1761.5" y="-199" font-family="Helvetica,sans-Serif" font-size="10.00">code/om/operations</text>
<text text-anchor="middle" x="1804" y="-188" font-family="Helvetica,sans-Serif" font-size="10.00">/skip_operation.hpp</text>
</a>
</g>
<!-- Node11&#45;&gt;Node21 -->
<g id="edge64" class="edge"><title>Node11&#45;&gt;Node21</title>
<path fill="none" stroke="midnightblue" d="M1501.02,-253.203C1564.87,-243.983 1661.07,-229.069 1744,-212 1747.05,-211.372 1750.18,-210.694 1753.33,-209.985"/>
<polygon fill="midnightblue" stroke="midnightblue" points="1500.46,-249.747 1491.06,-254.633 1501.46,-256.676 1500.46,-249.747"/>
</g>
<!-- Node12&#45;&gt;Node5 -->
<g id="edge34" class="edge"><title>Node12&#45;&gt;Node5</title>
<path fill="none" stroke="midnightblue" d="M1887.95,-184.347C1879.7,-182.659 1871.12,-181.107 1863,-180 1698.94,-157.618 1188.11,-137.096 1023.03,-130.9"/>
<polygon fill="midnightblue" stroke="midnightblue" points="1887.28,-187.784 1897.79,-186.453 1888.75,-180.939 1887.28,-187.784"/>
</g>
<!-- Node13 -->
<g id="node28" class="node"><title>Node13</title>
<a xlink:href="evaluation_8cpp.html" target="_top" xlink:title="Om source file.">
<polygon fill="none" stroke="black" points="1873,-118.5 1873,-137.5 1991,-137.5 1991,-118.5 1873,-118.5"/>
<text text-anchor="middle" x="1932" y="-125.5" font-family="Helvetica,sans-Serif" font-size="10.00">code/om/evaluation.cpp</text>
</a>
</g>
<!-- Node12&#45;&gt;Node13 -->
<g id="edge30" class="edge"><title>Node12&#45;&gt;Node13</title>
<path fill="none" stroke="midnightblue" d="M1925.86,-176.425C1924.72,-163.798 1925.18,-147.662 1927.22,-137.841"/>
<polygon fill="midnightblue" stroke="midnightblue" points="1922.4,-176.962 1927.27,-186.372 1929.33,-175.979 1922.4,-176.962"/>
</g>
<!-- Node13&#45;&gt;Node12 -->
<g id="edge32" class="edge"><title>Node13&#45;&gt;Node12</title>
<path fill="none" stroke="midnightblue" d="M1938.17,-147.85C1939.28,-160.528 1938.8,-176.643 1936.73,-186.372"/>
<polygon fill="midnightblue" stroke="midnightblue" points="1941.62,-147.265 1936.78,-137.841 1934.68,-148.227 1941.62,-147.265"/>
</g>
<!-- Node14&#45;&gt;Node11 -->
<g id="edge38" class="edge"><title>Node14&#45;&gt;Node11</title>
<path fill="none" stroke="midnightblue" d="M1285.98,-208.841C1324.18,-221.939 1381.31,-242.728 1410.94,-254.372"/>
<polygon fill="midnightblue" stroke="midnightblue" points="1286.81,-205.43 1276.22,-205.526 1284.56,-212.058 1286.81,-205.43"/>
</g>
<!-- Node15&#45;&gt;Node5 -->
<g id="edge44" class="edge"><title>Node15&#45;&gt;Node5</title>
<path fill="none" stroke="midnightblue" d="M1354.87,-180.635C1353.57,-180.419 1352.28,-180.207 1351,-180 1234.2,-161.088 1096.4,-143.852 1023.07,-135.081"/>
<polygon fill="midnightblue" stroke="midnightblue" points="1354.51,-184.123 1364.95,-182.36 1355.69,-177.224 1354.51,-184.123"/>
</g>
<!-- Node16 -->
<g id="node39" class="node"><title>Node16</title>
<a xlink:href="expression__operation_8cpp.html" target="_top" xlink:title="Om source file.">
<polygon fill="none" stroke="black" points="1365.5,-113 1365.5,-143 1494.5,-143 1494.5,-113 1365.5,-113"/>
<text text-anchor="start" x="1373.5" y="-131" font-family="Helvetica,sans-Serif" font-size="10.00">code/om/operations</text>
<text text-anchor="middle" x="1430" y="-120" font-family="Helvetica,sans-Serif" font-size="10.00">/expression_operation.cpp</text>
</a>
</g>
<!-- Node15&#45;&gt;Node16 -->
<g id="edge46" class="edge"><title>Node15&#45;&gt;Node16</title>
<path fill="none" stroke="midnightblue" d="M1430,-170.532C1430,-161.361 1430,-151.245 1430,-143.293"/>
<polygon fill="midnightblue" stroke="midnightblue" points="1426.5,-170.679 1430,-180.679 1433.5,-170.679 1426.5,-170.679"/>
</g>
<!-- Node17&#45;&gt;Node5 -->
<g id="edge50" class="edge"><title>Node17&#45;&gt;Node5</title>
<path fill="none" stroke="midnightblue" d="M1502.92,-179.985C1321.74,-149.138 1117.29,-136.11 1023.18,-131.33"/>
<polygon fill="midnightblue" stroke="midnightblue" points="1502.45,-183.455 1512.9,-181.706 1503.64,-176.557 1502.45,-183.455"/>
</g>
<!-- Node18 -->
<g id="node44" class="node"><title>Node18</title>
<a xlink:href="fill__operation_8cpp.html" target="_top" xlink:title="Om source file.">
<polygon fill="none" stroke="black" points="1513,-113 1513,-143 1613,-143 1613,-113 1513,-113"/>
<text text-anchor="start" x="1521" y="-131" font-family="Helvetica,sans-Serif" font-size="10.00">code/om/operations</text>
<text text-anchor="middle" x="1563" y="-120" font-family="Helvetica,sans-Serif" font-size="10.00">/fill_operation.cpp</text>
</a>
</g>
<!-- Node17&#45;&gt;Node18 -->
<g id="edge52" class="edge"><title>Node17&#45;&gt;Node18</title>
<path fill="none" stroke="midnightblue" d="M1556.45,-170.532C1556.01,-161.361 1556.3,-151.245 1557.33,-143.293"/>
<polygon fill="midnightblue" stroke="midnightblue" points="1552.98,-171.013 1557.32,-180.679 1559.96,-170.417 1552.98,-171.013"/>
</g>
<!-- Node18&#45;&gt;Node17 -->
<g id="edge54" class="edge"><title>Node18&#45;&gt;Node17</title>
<path fill="none" stroke="midnightblue" d="M1569.54,-153.436C1569.99,-162.605 1569.71,-172.722 1568.68,-180.679"/>
<polygon fill="midnightblue" stroke="midnightblue" points="1573.02,-152.958 1568.67,-143.293 1566.04,-153.555 1573.02,-152.958"/>
</g>
<!-- Node19&#45;&gt;Node5 -->
<g id="edge58" class="edge"><title>Node19&#45;&gt;Node5</title>
<path fill="none" stroke="midnightblue" d="M1620.76,-179.974C1393.44,-144.129 1132.56,-133.359 1023.24,-130.208"/>
<polygon fill="midnightblue" stroke="midnightblue" points="1620.44,-183.468 1630.87,-181.589 1621.55,-176.556 1620.44,-183.468"/>
</g>
<!-- Node20 -->
<g id="node50" class="node"><title>Node20</title>
<a xlink:href="inject__operation_8cpp.html" target="_top" xlink:title="Om source file.">
<polygon fill="none" stroke="black" points="1631,-113 1631,-143 1735,-143 1735,-113 1631,-113"/>
<text text-anchor="start" x="1639" y="-131" font-family="Helvetica,sans-Serif" font-size="10.00">code/om/operations</text>
<text text-anchor="middle" x="1683" y="-120" font-family="Helvetica,sans-Serif" font-size="10.00">/inject_operation.cpp</text>
</a>
</g>
<!-- Node19&#45;&gt;Node20 -->
<g id="edge60" class="edge"><title>Node19&#45;&gt;Node20</title>
<path fill="none" stroke="midnightblue" d="M1676.45,-170.532C1676.01,-161.361 1676.3,-151.245 1677.33,-143.293"/>
<polygon fill="midnightblue" stroke="midnightblue" points="1672.98,-171.013 1677.32,-180.679 1679.96,-170.417 1672.98,-171.013"/>
</g>
<!-- Node20&#45;&gt;Node19 -->
<g id="edge62" class="edge"><title>Node20&#45;&gt;Node19</title>
<path fill="none" stroke="midnightblue" d="M1689.54,-153.436C1689.99,-162.605 1689.71,-172.722 1688.68,-180.679"/>
<polygon fill="midnightblue" stroke="midnightblue" points="1693.02,-152.958 1688.67,-143.293 1686.04,-153.555 1693.02,-152.958"/>
</g>
<!-- Node21&#45;&gt;Node5 -->
<g id="edge66" class="edge"><title>Node21&#45;&gt;Node5</title>
<path fill="none" stroke="midnightblue" d="M1743.4,-180.158C1586,-157.259 1169.96,-137.659 1023.12,-131.219"/>
<polygon fill="midnightblue" stroke="midnightblue" points="1742.98,-183.634 1753.39,-181.671 1744.03,-176.713 1742.98,-183.634"/>
</g>
<!-- Node22 -->
<g id="node56" class="node"><title>Node22</title>
<a xlink:href="skip__operation_8cpp.html" target="_top" xlink:title="Om source file.">
<polygon fill="none" stroke="black" points="1754,-113 1754,-143 1854,-143 1854,-113 1754,-113"/>
<text text-anchor="start" x="1762" y="-131" font-family="Helvetica,sans-Serif" font-size="10.00">code/om/operations</text>
<text text-anchor="middle" x="1804" y="-120" font-family="Helvetica,sans-Serif" font-size="10.00">/skip_operation.cpp</text>
</a>
</g>
<!-- Node21&#45;&gt;Node22 -->
<g id="edge68" class="edge"><title>Node21&#45;&gt;Node22</title>
<path fill="none" stroke="midnightblue" d="M1797.45,-170.532C1797.01,-161.361 1797.3,-151.245 1798.33,-143.293"/>
<polygon fill="midnightblue" stroke="midnightblue" points="1793.98,-171.013 1798.32,-180.679 1800.96,-170.417 1793.98,-171.013"/>
</g>
<!-- Node22&#45;&gt;Node21 -->
<g id="edge70" class="edge"><title>Node22&#45;&gt;Node21</title>
<path fill="none" stroke="midnightblue" d="M1810.54,-153.436C1810.99,-162.605 1810.71,-172.722 1809.68,-180.679"/>
<polygon fill="midnightblue" stroke="midnightblue" points="1814.02,-152.958 1809.67,-143.293 1807.04,-153.555 1814.02,-152.958"/>
</g>
<!-- Node23&#45;&gt;Node10 -->
<g id="edge74" class="edge"><title>Node23&#45;&gt;Node10</title>
<path fill="none" stroke="midnightblue" d="M977.315,-283.82C978.203,-294.728 977.732,-307.938 975.901,-316.403"/>
<polygon fill="midnightblue" stroke="midnightblue" points="980.736,-283.006 975.897,-273.581 973.802,-283.966 980.736,-283.006"/>
</g>
<!-- Node24&#45;&gt;Node9 -->
<g id="edge82" class="edge"><title>Node24&#45;&gt;Node9</title>
<path fill="none" stroke="midnightblue" d="M651.654,-395.707C674.295,-405.753 703.093,-419.507 719.799,-428.324"/>
<polygon fill="midnightblue" stroke="midnightblue" points="652.946,-392.452 642.381,-391.655 650.142,-398.866 652.946,-392.452"/>
</g>
<!-- Node25&#45;&gt;Node5 -->
<g id="edge86" class="edge"><title>Node25&#45;&gt;Node5</title>
<path fill="none" stroke="midnightblue" d="M760.994,-366.851C773.119,-358.875 787.456,-348.094 798,-336 849.888,-276.486 827.909,-236.562 883,-180 901.974,-160.52 929.965,-146.021 949.258,-137.56"/>
<polygon fill="midnightblue" stroke="midnightblue" points="758.834,-364.076 752.252,-372.378 762.575,-369.992 758.834,-364.076"/>
</g>
<!-- Node26 -->
<g id="node70" class="node"><title>Node26</title>
<a xlink:href="lexicon_8hpp.html" target="_top" xlink:title="Om header file.">
<polygon fill="none" stroke="black" points="685,-316.5 685,-335.5 789,-335.5 789,-316.5 685,-316.5"/>
<text text-anchor="middle" x="737" y="-323.5" font-family="Helvetica,sans-Serif" font-size="10.00">code/om/lexicon.hpp</text>
</a>
</g>
<!-- Node25&#45;&gt;Node26 -->
<g id="edge88" class="edge"><title>Node25&#45;&gt;Node26</title>
<path fill="none" stroke="midnightblue" d="M737,-361.805C737,-352.91 737,-342.78 737,-335.751"/>
<polygon fill="midnightblue" stroke="midnightblue" points="733.5,-362.083 737,-372.083 740.5,-362.083 733.5,-362.083"/>
</g>
<!-- Node34 -->
<g id="node93" class="node"><title>Node34</title>
<a xlink:href="pair_8cpp.html" target="_top" xlink:title="Om source file.">
<polygon fill="none" stroke="black" points="577,-316.5 577,-335.5 667,-335.5 667,-316.5 577,-316.5"/>
<text text-anchor="middle" x="622" y="-323.5" font-family="Helvetica,sans-Serif" font-size="10.00">code/om/pair.cpp</text>
</a>
</g>
<!-- Node25&#45;&gt;Node34 -->
<g id="edge118" class="edge"><title>Node25&#45;&gt;Node34</title>
<path fill="none" stroke="midnightblue" d="M704.282,-368.368C681.291,-358.255 651.92,-344.349 635.057,-335.516"/>
<polygon fill="midnightblue" stroke="midnightblue" points="703.122,-371.68 713.689,-372.444 705.905,-365.257 703.122,-371.68"/>
</g>
<!-- Node26&#45;&gt;Node5 -->
<g id="edge90" class="edge"><title>Node26&#45;&gt;Node5</title>
<path fill="none" stroke="midnightblue" d="M763.486,-311.323C776.462,-303.557 791.51,-292.822 802,-280 832.633,-242.555 810.425,-213.84 845,-180 867.684,-157.798 901.312,-144.848 928.124,-137.556"/>
<polygon fill="midnightblue" stroke="midnightblue" points="761.457,-308.45 754.499,-316.44 764.921,-314.533 761.457,-308.45"/>
</g>
<!-- Node27 -->
<g id="node73" class="node"><title>Node27</title>
<a xlink:href="lexicon_8cpp.html" target="_top" xlink:title="Om source file.">
<polygon fill="none" stroke="black" points="559.5,-254.5 559.5,-273.5 662.5,-273.5 662.5,-254.5 559.5,-254.5"/>
<text text-anchor="middle" x="611" y="-261.5" font-family="Helvetica,sans-Serif" font-size="10.00">code/om/lexicon.cpp</text>
</a>
</g>
<!-- Node26&#45;&gt;Node27 -->
<g id="edge92" class="edge"><title>Node26&#45;&gt;Node27</title>
<path fill="none" stroke="midnightblue" d="M704.865,-312.374C678.677,-300.721 643.241,-283.732 624.122,-273.581"/>
<polygon fill="midnightblue" stroke="midnightblue" points="703.483,-315.59 714.047,-316.403 706.296,-309.18 703.483,-315.59"/>
</g>
<!-- Node28 -->
<g id="node76" class="node"><title>Node28</title>
<a xlink:href="lexicon__operation_8hpp.html" target="_top" xlink:title="Om header file.">
<polygon fill="none" stroke="black" points="681,-249 681,-279 793,-279 793,-249 681,-249"/>
<text text-anchor="start" x="689" y="-267" font-family="Helvetica,sans-Serif" font-size="10.00">code/om/operations</text>
<text text-anchor="middle" x="737" y="-256" font-family="Helvetica,sans-Serif" font-size="10.00">/lexicon_operation.hpp</text>
</a>
</g>
<!-- Node26&#45;&gt;Node28 -->
<g id="edge96" class="edge"><title>Node26&#45;&gt;Node28</title>
<path fill="none" stroke="midnightblue" d="M737,-306.371C737,-297.585 737,-287.272 737,-279.141"/>
<polygon fill="midnightblue" stroke="midnightblue" points="733.5,-306.403 737,-316.403 740.5,-306.403 733.5,-306.403"/>
</g>
<!-- Node30 -->
<g id="node81" class="node"><title>Node30</title>
<a xlink:href="translate__operation_8hpp.html" target="_top" xlink:title="Om header file.">
<polygon fill="none" stroke="black" points="422.5,-249 422.5,-279 541.5,-279 541.5,-249 422.5,-249"/>
<text text-anchor="start" x="430.5" y="-267" font-family="Helvetica,sans-Serif" font-size="10.00">code/om/operations</text>
<text text-anchor="middle" x="482" y="-256" font-family="Helvetica,sans-Serif" font-size="10.00">/translate_operation.hpp</text>
</a>
</g>
<!-- Node26&#45;&gt;Node30 -->
<g id="edge102" class="edge"><title>Node26&#45;&gt;Node30</title>
<path fill="none" stroke="midnightblue" d="M690.829,-314.136C649.049,-304.306 587.27,-289.769 541.74,-279.057"/>
<polygon fill="midnightblue" stroke="midnightblue" points="690.2,-317.584 700.736,-316.467 691.803,-310.77 690.2,-317.584"/>
</g>
<!-- Node27&#45;&gt;Node26 -->
<g id="edge94" class="edge"><title>Node27&#45;&gt;Node26</title>
<path fill="none" stroke="midnightblue" d="M643.094,-277.607C669.272,-289.255 704.712,-306.245 723.848,-316.403"/>
<polygon fill="midnightblue" stroke="midnightblue" points="644.48,-274.393 633.916,-273.581 641.668,-280.804 644.48,-274.393"/>
</g>
<!-- Node28&#45;&gt;Node5 -->
<g id="edge98" class="edge"><title>Node28&#45;&gt;Node5</title>
<path fill="none" stroke="midnightblue" d="M750.85,-240.281C763.352,-221.576 783.378,-195.674 807,-180 840.79,-157.58 884.963,-144.587 918.951,-137.333"/>
<polygon fill="midnightblue" stroke="midnightblue" points="747.826,-238.51 745.334,-248.808 753.704,-242.313 747.826,-238.51"/>
</g>
<!-- Node29 -->
<g id="node79" class="node"><title>Node29</title>
<a xlink:href="lexicon__operation_8cpp.html" target="_top" xlink:title="Om source file.">
<polygon fill="none" stroke="black" points="643.5,-181 643.5,-211 754.5,-211 754.5,-181 643.5,-181"/>
<text text-anchor="start" x="651.5" y="-199" font-family="Helvetica,sans-Serif" font-size="10.00">code/om/operations</text>
<text text-anchor="middle" x="699" y="-188" font-family="Helvetica,sans-Serif" font-size="10.00">/lexicon_operation.cpp</text>
</a>
</g>
<!-- Node28&#45;&gt;Node29 -->
<g id="edge100" class="edge"><title>Node28&#45;&gt;Node29</title>
<path fill="none" stroke="midnightblue" d="M723.598,-239.723C718.141,-230.244 712.007,-219.591 707.229,-211.293"/>
<polygon fill="midnightblue" stroke="midnightblue" points="720.732,-241.759 728.755,-248.679 726.798,-238.266 720.732,-241.759"/>
</g>
<!-- Node30&#45;&gt;Node5 -->
<g id="edge104" class="edge"><title>Node30&#45;&gt;Node5</title>
<path fill="none" stroke="midnightblue" d="M511.139,-243.038C540.733,-223.764 588.554,-195.313 634,-180 731.291,-147.218 851.499,-135.445 918.873,-131.262"/>
<polygon fill="midnightblue" stroke="midnightblue" points="508.979,-240.269 502.562,-248.7 512.836,-246.111 508.979,-240.269"/>
</g>
<!-- Node31 -->
<g id="node84" class="node"><title>Node31</title>
<a xlink:href="substitute__operation_8hpp.html" target="_top" xlink:title="Om header file.">
<polygon fill="none" stroke="black" points="0,-181 0,-211 124,-211 124,-181 0,-181"/>
<text text-anchor="start" x="8" y="-199" font-family="Helvetica,sans-Serif" font-size="10.00">code/om/operations</text>
<text text-anchor="middle" x="62" y="-188" font-family="Helvetica,sans-Serif" font-size="10.00">/substitute_operation.hpp</text>
</a>
</g>
<!-- Node30&#45;&gt;Node31 -->
<g id="edge106" class="edge"><title>Node30&#45;&gt;Node31</title>
<path fill="none" stroke="midnightblue" d="M412.252,-252.04C331.953,-239.421 201.258,-218.883 124.261,-206.784"/>
<polygon fill="midnightblue" stroke="midnightblue" points="411.848,-255.519 422.27,-253.614 412.935,-248.604 411.848,-255.519"/>
</g>
<!-- Node33 -->
<g id="node90" class="node"><title>Node33</title>
<a xlink:href="translate__operation_8cpp.html" target="_top" xlink:title="Om source file.">
<polygon fill="none" stroke="black" points="422.5,-181 422.5,-211 541.5,-211 541.5,-181 422.5,-181"/>
<text text-anchor="start" x="430.5" y="-199" font-family="Helvetica,sans-Serif" font-size="10.00">code/om/operations</text>
<text text-anchor="middle" x="482" y="-188" font-family="Helvetica,sans-Serif" font-size="10.00">/translate_operation.cpp</text>
</a>
</g>
<!-- Node30&#45;&gt;Node33 -->
<g id="edge114" class="edge"><title>Node30&#45;&gt;Node33</title>
<path fill="none" stroke="midnightblue" d="M475.455,-238.532C475.005,-229.361 475.296,-219.245 476.325,-211.293"/>
<polygon fill="midnightblue" stroke="midnightblue" points="471.983,-239.013 476.322,-248.679 478.958,-238.417 471.983,-239.013"/>
</g>
<!-- Node31&#45;&gt;Node5 -->
<g id="edge108" class="edge"><title>Node31&#45;&gt;Node5</title>
<path fill="none" stroke="midnightblue" d="M134.144,-180.518C135.438,-180.337 136.724,-180.164 138,-180 431.514,-142.222 786.927,-132.261 918.626,-129.778"/>
<polygon fill="midnightblue" stroke="midnightblue" points="133.465,-177.08 124.103,-182.04 134.514,-184.001 133.465,-177.08"/>
</g>
<!-- Node32 -->
<g id="node87" class="node"><title>Node32</title>
<a xlink:href="substitute__operation_8cpp.html" target="_top" xlink:title="Om source file.">
<polygon fill="none" stroke="black" points="0.5,-113 0.5,-143 123.5,-143 123.5,-113 0.5,-113"/>
<text text-anchor="start" x="8.5" y="-131" font-family="Helvetica,sans-Serif" font-size="10.00">code/om/operations</text>
<text text-anchor="middle" x="62" y="-120" font-family="Helvetica,sans-Serif" font-size="10.00">/substitute_operation.cpp</text>
</a>
</g>
<!-- Node31&#45;&gt;Node32 -->
<g id="edge110" class="edge"><title>Node31&#45;&gt;Node32</title>
<path fill="none" stroke="midnightblue" d="M55.4547,-170.532C55.0055,-161.361 55.2957,-151.245 56.3252,-143.293"/>
<polygon fill="midnightblue" stroke="midnightblue" points="51.9829,-171.013 56.3216,-180.679 58.9575,-170.417 51.9829,-171.013"/>
</g>
<!-- Node32&#45;&gt;Node31 -->
<g id="edge112" class="edge"><title>Node32&#45;&gt;Node31</title>
<path fill="none" stroke="midnightblue" d="M68.5438,-153.436C68.9947,-162.605 68.7062,-172.722 67.6784,-180.679"/>
<polygon fill="midnightblue" stroke="midnightblue" points="72.0157,-152.958 67.6748,-143.293 65.0413,-153.555 72.0157,-152.958"/>
</g>
<!-- Node33&#45;&gt;Node30 -->
<g id="edge116" class="edge"><title>Node33&#45;&gt;Node30</title>
<path fill="none" stroke="midnightblue" d="M488.544,-221.436C488.995,-230.605 488.706,-240.722 487.678,-248.679"/>
<polygon fill="midnightblue" stroke="midnightblue" points="492.016,-220.958 487.675,-211.293 485.041,-221.555 492.016,-220.958"/>
</g>
<!-- Node34&#45;&gt;Node25 -->
<g id="edge120" class="edge"><title>Node34&#45;&gt;Node25</title>
<path fill="none" stroke="midnightblue" d="M654.889,-339.707C677.716,-349.753 706.769,-363.507 723.638,-372.324"/>
<polygon fill="midnightblue" stroke="midnightblue" points="656.108,-336.421 645.541,-335.655 653.324,-342.844 656.108,-336.421"/>
</g>
<!-- Node35&#45;&gt;Node5 -->
<g id="edge124" class="edge"><title>Node35&#45;&gt;Node5</title>
<path fill="none" stroke="midnightblue" d="M432.41,-420.716C425.723,-412.562 418.156,-402.259 413,-392 399.484,-365.108 394,-357.098 394,-327 394,-327 394,-327 394,-263 394,-225.157 384.511,-204.909 413,-180 450.624,-147.104 787.409,-134.158 918.817,-130.331"/>
<polygon fill="midnightblue" stroke="midnightblue" points="429.766,-423.01 438.921,-428.343 435.09,-418.465 429.766,-423.01"/>
</g>
<!-- Node36 -->
<g id="node99" class="node"><title>Node36</title>
<a xlink:href="separator_8cpp.html" target="_top" xlink:title="Om source file.">
<polygon fill="none" stroke="black" points="422.5,-372.5 422.5,-391.5 537.5,-391.5 537.5,-372.5 422.5,-372.5"/>
<text text-anchor="middle" x="480" y="-379.5" font-family="Helvetica,sans-Serif" font-size="10.00">code/om/separator.cpp</text>
</a>
</g>
<!-- Node35&#45;&gt;Node36 -->
<g id="edge126" class="edge"><title>Node35&#45;&gt;Node36</title>
<path fill="none" stroke="midnightblue" d="M451.604,-418.983C456.479,-409.817 463.458,-399.092 469.521,-391.751"/>
<polygon fill="midnightblue" stroke="midnightblue" points="448.411,-417.548 447.283,-428.083 454.734,-420.551 448.411,-417.548"/>
</g>
<!-- Node36&#45;&gt;Node35 -->
<g id="edge128" class="edge"><title>Node36&#45;&gt;Node35</title>
<path fill="none" stroke="midnightblue" d="M475.505,-400.811C470.662,-409.953 463.692,-420.691 457.616,-428.083"/>
<polygon fill="midnightblue" stroke="midnightblue" points="478.678,-402.288 479.783,-391.751 472.348,-399.299 478.678,-402.288"/>
</g>
<!-- Node37&#45;&gt;Node2 -->
<g id="edge132" class="edge"><title>Node37&#45;&gt;Node2</title>
<path fill="none" stroke="midnightblue" d="M275.18,-509.352C289.514,-519.212 306.227,-531.979 315.547,-540.324"/>
<polygon fill="midnightblue" stroke="midnightblue" points="276.909,-506.299 266.649,-503.655 273.021,-512.119 276.909,-506.299"/>
</g>
<!-- Node38&#45;&gt;Node5 -->
<g id="edge138" class="edge"><title>Node38&#45;&gt;Node5</title>
<path fill="none" stroke="midnightblue" d="M373.739,-477.791C351.517,-458.384 318,-422.556 318,-383 318,-383 318,-383 318,-263 318,-221.856 324.986,-203.149 359,-180 404.779,-148.845 779.302,-134.669 918.853,-130.432"/>
<polygon fill="midnightblue" stroke="midnightblue" points="371.7,-480.649 381.609,-484.398 376.201,-475.288 371.7,-480.649"/>
</g>
<!-- Node39 -->
<g id="node109" class="node"><title>Node39</title>
<a xlink:href="operand_8cpp.html" target="_top" xlink:title="Om source file.">
<polygon fill="none" stroke="black" points="180,-428.5 180,-447.5 290,-447.5 290,-428.5 180,-428.5"/>
<text text-anchor="middle" x="235" y="-435.5" font-family="Helvetica,sans-Serif" font-size="10.00">code/om/operand.cpp</text>
</a>
</g>
<!-- Node38&#45;&gt;Node39 -->
<g id="edge140" class="edge"><title>Node38&#45;&gt;Node39</title>
<path fill="none" stroke="midnightblue" d="M353.105,-481.304C321.723,-471.129 279.482,-456.625 254.838,-447.516"/>
<polygon fill="midnightblue" stroke="midnightblue" points="352.284,-484.717 362.876,-484.444 354.425,-478.053 352.284,-484.717"/>
</g>
<!-- Node39&#45;&gt;Node38 -->
<g id="edge142" class="edge"><title>Node39&#45;&gt;Node38</title>
<path fill="none" stroke="midnightblue" d="M274.758,-450.651C306.107,-460.813 348.359,-475.32 373.053,-484.444"/>
<polygon fill="midnightblue" stroke="midnightblue" points="275.59,-447.242 264.998,-447.516 273.449,-453.907 275.59,-447.242"/>
</g>
<!-- Node40&#45;&gt;Node1 -->
<g id="edge146" class="edge"><title>Node40&#45;&gt;Node1</title>
<path fill="none" stroke="midnightblue" d="M990.458,-569.691C991.106,-578.635 990.676,-588.927 989.166,-596.083"/>
<polygon fill="midnightblue" stroke="midnightblue" points="993.923,-569.2 989.131,-559.751 986.985,-570.126 993.923,-569.2"/>
</g>
<!-- Node41&#45;&gt;Node5 -->
<g id="edge152" class="edge"><title>Node41&#45;&gt;Node5</title>
<path fill="none" stroke="midnightblue" d="M1121,-530.251C1121,-508.357 1121,-471.052 1121,-439 1121,-439 1121,-439 1121,-263 1121,-224.6 1122.72,-208.516 1097,-180 1076.61,-157.393 1044.78,-144.62 1018.21,-137.51"/>
<polygon fill="midnightblue" stroke="midnightblue" points="1117.5,-530.442 1121,-540.442 1124.5,-530.442 1117.5,-530.442"/>
</g>
<!-- Node42 -->
<g id="node119" class="node"><title>Node42</title>
<a xlink:href="literal_8cpp.html" target="_top" xlink:title="Om source file.">
<polygon fill="none" stroke="black" points="997.5,-484.5 997.5,-503.5 1092.5,-503.5 1092.5,-484.5 997.5,-484.5"/>
<text text-anchor="middle" x="1045" y="-491.5" font-family="Helvetica,sans-Serif" font-size="10.00">code/om/literal.cpp</text>
</a>
</g>
<!-- Node41&#45;&gt;Node42 -->
<g id="edge154" class="edge"><title>Node41&#45;&gt;Node42</title>
<path fill="none" stroke="midnightblue" d="M1095.2,-534.935C1080.13,-525.099 1062.35,-512.263 1052.28,-503.834"/>
<polygon fill="midnightblue" stroke="midnightblue" points="1093.36,-537.913 1103.67,-540.324 1097.11,-532.006 1093.36,-537.913"/>
</g>
<!-- Node42&#45;&gt;Node41 -->
<g id="edge156" class="edge"><title>Node42&#45;&gt;Node41</title>
<path fill="none" stroke="midnightblue" d="M1070.82,-509.074C1085.97,-518.971 1103.87,-531.9 1113.9,-540.324"/>
<polygon fill="midnightblue" stroke="midnightblue" points="1072.61,-506.065 1062.29,-503.655 1068.85,-511.973 1072.61,-506.065"/>
</g>
<!-- Node43&#45;&gt;Node5 -->
<g id="edge160" class="edge"><title>Node43&#45;&gt;Node5</title>
<path fill="none" stroke="midnightblue" d="M1239.32,-530.983C1244.31,-517.975 1249.13,-499.962 1246,-484 1217.92,-340.809 1228.31,-279.955 1122,-180 1095.09,-154.696 1055.18,-141.914 1023.15,-135.475"/>
<polygon fill="midnightblue" stroke="midnightblue" points="1236.09,-529.634 1235.43,-540.208 1242.54,-532.353 1236.09,-529.634"/>
</g>
<!-- Node44 -->
<g id="node125" class="node"><title>Node44</title>
<a xlink:href="null_8cpp.html" target="_top" xlink:title="Om source file.">
<polygon fill="none" stroke="black" points="1149,-484.5 1149,-503.5 1237,-503.5 1237,-484.5 1149,-484.5"/>
<text text-anchor="middle" x="1193" y="-491.5" font-family="Helvetica,sans-Serif" font-size="10.00">code/om/null.cpp</text>
</a>
</g>
<!-- Node43&#45;&gt;Node44 -->
<g id="edge162" class="edge"><title>Node43&#45;&gt;Node44</title>
<path fill="none" stroke="midnightblue" d="M1213.06,-532.431C1205.51,-522.967 1197.81,-511.483 1194.03,-503.751"/>
<polygon fill="midnightblue" stroke="midnightblue" points="1210.42,-534.727 1219.56,-540.083 1215.75,-530.195 1210.42,-534.727"/>
</g>
<!-- Node44&#45;&gt;Node43 -->
<g id="edge164" class="edge"><title>Node44&#45;&gt;Node43</title>
<path fill="none" stroke="midnightblue" d="M1210.78,-511.367C1218.33,-520.801 1226.06,-532.298 1229.89,-540.083"/>
<polygon fill="midnightblue" stroke="midnightblue" points="1213.44,-509.092 1204.29,-503.751 1208.11,-513.633 1213.44,-509.092"/>
</g>
</g>
</svg>
