<?xml version="1.0" encoding="UTF-8" standalone="no"?>
<!DOCTYPE svg PUBLIC "-//W3C//DTD SVG 1.1//EN"
 "http://www.w3.org/Graphics/SVG/1.1/DTD/svg11.dtd">
<!-- Generated by graphviz version 2.30.1 (20130221.2233)
 -->
<!-- Title: code/om/default_copyable.cpp Pages: 1 -->
<svg width="1475pt" height="704pt"
 viewBox="0.00 0.00 1475.00 704.00" xmlns="http://www.w3.org/2000/svg" xmlns:xlink="http://www.w3.org/1999/xlink">
<g id="graph0" class="graph" transform="scale(1 1) rotate(0) translate(4 700)">
<title>code/om/default_copyable.cpp</title>
<!-- Node1 -->
<g id="node1" class="node"><title>Node1</title>
<polygon fill="#bfbfbf" stroke="black" points="921.175,-675 921.175,-695 1072.82,-695 1072.82,-675 921.175,-675"/>
<text text-anchor="middle" x="997" y="-681" font-family="Helvetica,sans-Serif" font-size="10.00">code/om/default_copyable.cpp</text>
</g>
<!-- Node2 -->
<g id="node2" class="node"><title>Node2</title>
<g id="a_node2"><a xlink:href="default__copyable_8hpp.html" target="_top" xlink:title="Om header file.">
<polygon fill="none" stroke="black" points="920.895,-617 920.895,-637 1073.11,-637 1073.11,-617 920.895,-617"/>
<text text-anchor="middle" x="997" y="-623" font-family="Helvetica,sans-Serif" font-size="10.00">code/om/default_copyable.hpp</text>
</a>
</g>
</g>
<!-- Node1&#45;&gt;Node2 -->
<g id="edge1" class="edge"><title>Node1&#45;&gt;Node2</title>
<path fill="none" stroke="midnightblue" d="M990.549,-664.707C989.886,-655.338 990.326,-644.526 991.869,-637.075"/>
<polygon fill="midnightblue" stroke="midnightblue" points="987.093,-665.278 991.834,-674.753 994.037,-664.389 987.093,-665.278"/>
</g>
<!-- Node2&#45;&gt;Node1 -->
<g id="edge2" class="edge"><title>Node2&#45;&gt;Node1</title>
<path fill="none" stroke="midnightblue" d="M1003.44,-647.078C1004.12,-656.424 1003.69,-667.25 1002.17,-674.753"/>
<polygon fill="midnightblue" stroke="midnightblue" points="1006.9,-646.538 1002.13,-637.075 999.954,-647.444 1006.9,-646.538"/>
</g>
<!-- Node3 -->
<g id="node3" class="node"><title>Node3</title>
<g id="a_node3"><a xlink:href="default__giveable_8hpp.html" target="_top" xlink:title="Om header file.">
<polygon fill="none" stroke="black" points="922.284,-559 922.284,-579 1071.72,-579 1071.72,-559 922.284,-559"/>
<text text-anchor="middle" x="997" y="-565" font-family="Helvetica,sans-Serif" font-size="10.00">code/om/default_giveable.hpp</text>
</a>
</g>
</g>
<!-- Node2&#45;&gt;Node3 -->
<g id="edge3" class="edge"><title>Node2&#45;&gt;Node3</title>
<path fill="none" stroke="midnightblue" d="M997,-606.707C997,-597.338 997,-586.526 997,-579.075"/>
<polygon fill="midnightblue" stroke="midnightblue" points="993.5,-606.753 997,-616.753 1000.5,-606.753 993.5,-606.753"/>
</g>
<!-- Node4 -->
<g id="node4" class="node"><title>Node4</title>
<g id="a_node4"><a xlink:href="default__giveable_8cpp.html" target="_top" xlink:title="Om source file.">
<polygon fill="none" stroke="black" points="922.564,-501 922.564,-521 1071.44,-521 1071.44,-501 922.564,-501"/>
<text text-anchor="middle" x="997" y="-507" font-family="Helvetica,sans-Serif" font-size="10.00">code/om/default_giveable.cpp</text>
</a>
</g>
</g>
<!-- Node3&#45;&gt;Node4 -->
<g id="edge4" class="edge"><title>Node3&#45;&gt;Node4</title>
<path fill="none" stroke="midnightblue" d="M990.549,-548.707C989.886,-539.338 990.326,-528.526 991.869,-521.075"/>
<polygon fill="midnightblue" stroke="midnightblue" points="987.093,-549.278 991.834,-558.753 994.037,-548.389 987.093,-549.278"/>
</g>
<!-- Node5 -->
<g id="node5" class="node"><title>Node5</title>
<g id="a_node5"><a xlink:href="default__program_8hpp.html" target="_top" xlink:title="Om header file.">
<polygon fill="none" stroke="black" points="1089.29,-501 1089.29,-521 1238.71,-521 1238.71,-501 1089.29,-501"/>
<text text-anchor="middle" x="1164" y="-507" font-family="Helvetica,sans-Serif" font-size="10.00">code/om/default_program.hpp</text>
</a>
</g>
</g>
<!-- Node3&#45;&gt;Node5 -->
<g id="edge6" class="edge"><title>Node3&#45;&gt;Node5</title>
<path fill="none" stroke="midnightblue" d="M1033.85,-555.643C1065.07,-545.175 1109.09,-530.413 1137.09,-521.025"/>
<polygon fill="midnightblue" stroke="midnightblue" points="1032.57,-552.38 1024.2,-558.878 1034.8,-559.017 1032.57,-552.38"/>
</g>
<!-- Node4&#45;&gt;Node3 -->
<g id="edge5" class="edge"><title>Node4&#45;&gt;Node3</title>
<path fill="none" stroke="midnightblue" d="M1003.44,-531.078C1004.12,-540.424 1003.69,-551.25 1002.17,-558.753"/>
<polygon fill="midnightblue" stroke="midnightblue" points="1006.9,-530.538 1002.13,-521.075 999.954,-531.444 1006.9,-530.538"/>
</g>
<!-- Node6 -->
<g id="node6" class="node"><title>Node6</title>
<g id="a_node6"><a xlink:href="default__element_8hpp.html" target="_top" xlink:title="Om header file.">
<polygon fill="none" stroke="black" points="924.121,-443 924.121,-463 1071.88,-463 1071.88,-443 924.121,-443"/>
<text text-anchor="middle" x="998" y="-449" font-family="Helvetica,sans-Serif" font-size="10.00">code/om/default_element.hpp</text>
</a>
</g>
</g>
<!-- Node5&#45;&gt;Node6 -->
<g id="edge7" class="edge"><title>Node5&#45;&gt;Node6</title>
<path fill="none" stroke="midnightblue" d="M1127.37,-497.643C1096.34,-487.175 1052.58,-472.413 1024.75,-463.025"/>
<polygon fill="midnightblue" stroke="midnightblue" points="1126.37,-500.998 1136.96,-500.878 1128.6,-494.365 1126.37,-500.998"/>
</g>
<!-- Node40 -->
<g id="node40" class="node"><title>Node40</title>
<g id="a_node40"><a xlink:href="default__program_8cpp.html" target="_top" xlink:title="Om source file.">
<polygon fill="none" stroke="black" points="1089.57,-443 1089.57,-463 1238.43,-463 1238.43,-443 1089.57,-443"/>
<text text-anchor="middle" x="1164" y="-449" font-family="Helvetica,sans-Serif" font-size="10.00">code/om/default_program.cpp</text>
</a>
</g>
</g>
<!-- Node5&#45;&gt;Node40 -->
<g id="edge56" class="edge"><title>Node5&#45;&gt;Node40</title>
<path fill="none" stroke="midnightblue" d="M1157.55,-490.707C1156.89,-481.338 1157.33,-470.526 1158.87,-463.075"/>
<polygon fill="midnightblue" stroke="midnightblue" points="1154.09,-491.278 1158.83,-500.753 1161.04,-490.389 1154.09,-491.278"/>
</g>
<!-- Node41 -->
<g id="node41" class="node"><title>Node41</title>
<g id="a_node41"><a xlink:href="literal_8hpp.html" target="_top" xlink:title="Om header file.">
<polygon fill="none" stroke="black" points="1256.75,-443 1256.75,-463 1357.25,-463 1357.25,-443 1256.75,-443"/>
<text text-anchor="middle" x="1307" y="-449" font-family="Helvetica,sans-Serif" font-size="10.00">code/om/literal.hpp</text>
</a>
</g>
</g>
<!-- Node5&#45;&gt;Node41 -->
<g id="edge58" class="edge"><title>Node5&#45;&gt;Node41</title>
<path fill="none" stroke="midnightblue" d="M1196.92,-497.107C1223.47,-486.711 1260.14,-472.351 1283.72,-463.118"/>
<polygon fill="midnightblue" stroke="midnightblue" points="1195.33,-493.972 1187.29,-500.878 1197.88,-500.491 1195.33,-493.972"/>
</g>
<!-- Node43 -->
<g id="node43" class="node"><title>Node43</title>
<g id="a_node43"><a xlink:href="null_8hpp.html" target="_top" xlink:title="Om header file.">
<polygon fill="none" stroke="black" points="1374.92,-443 1374.92,-463 1467.08,-463 1467.08,-443 1374.92,-443"/>
<text text-anchor="middle" x="1421" y="-449" font-family="Helvetica,sans-Serif" font-size="10.00">code/om/null.hpp</text>
</a>
</g>
</g>
<!-- Node5&#45;&gt;Node43 -->
<g id="edge61" class="edge"><title>Node5&#45;&gt;Node43</title>
<path fill="none" stroke="midnightblue" d="M1215.5,-498.779C1263.7,-488.275 1334.81,-472.781 1379.48,-463.047"/>
<polygon fill="midnightblue" stroke="midnightblue" points="1214.6,-495.392 1205.58,-500.94 1216.09,-502.231 1214.6,-495.392"/>
</g>
<!-- Node7 -->
<g id="node7" class="node"><title>Node7</title>
<g id="a_node7"><a xlink:href="default__atom_8hpp.html" target="_top" xlink:title="Om header file.">
<polygon fill="none" stroke="black" points="736.793,-385 736.793,-405 871.207,-405 871.207,-385 736.793,-385"/>
<text text-anchor="middle" x="804" y="-391" font-family="Helvetica,sans-Serif" font-size="10.00">code/om/default_atom.hpp</text>
</a>
</g>
</g>
<!-- Node6&#45;&gt;Node7 -->
<g id="edge8" class="edge"><title>Node6&#45;&gt;Node7</title>
<path fill="none" stroke="midnightblue" d="M956.596,-440.048C920.26,-429.56 868.211,-414.535 835.266,-405.025"/>
<polygon fill="midnightblue" stroke="midnightblue" points="955.82,-443.467 966.399,-442.878 957.762,-436.742 955.82,-443.467"/>
</g>
<!-- Node37 -->
<g id="node37" class="node"><title>Node37</title>
<g id="a_node37"><a xlink:href="default__element_8cpp.html" target="_top" xlink:title="Om source file.">
<polygon fill="none" stroke="black" points="924.402,-385 924.402,-405 1071.6,-405 1071.6,-385 924.402,-385"/>
<text text-anchor="middle" x="998" y="-391" font-family="Helvetica,sans-Serif" font-size="10.00">code/om/default_element.cpp</text>
</a>
</g>
</g>
<!-- Node6&#45;&gt;Node37 -->
<g id="edge51" class="edge"><title>Node6&#45;&gt;Node37</title>
<path fill="none" stroke="midnightblue" d="M991.549,-432.707C990.886,-423.338 991.326,-412.526 992.869,-405.075"/>
<polygon fill="midnightblue" stroke="midnightblue" points="988.093,-433.278 992.834,-442.753 995.037,-432.389 988.093,-433.278"/>
</g>
<!-- Node38 -->
<g id="node38" class="node"><title>Node38</title>
<g id="a_node38"><a xlink:href="operand_8hpp.html" target="_top" xlink:title="Om header file.">
<polygon fill="none" stroke="black" points="1107.35,-385 1107.35,-405 1220.65,-405 1220.65,-385 1107.35,-385"/>
<text text-anchor="middle" x="1164" y="-391" font-family="Helvetica,sans-Serif" font-size="10.00">code/om/operand.hpp</text>
</a>
</g>
</g>
<!-- Node6&#45;&gt;Node38 -->
<g id="edge53" class="edge"><title>Node6&#45;&gt;Node38</title>
<path fill="none" stroke="midnightblue" d="M1034.63,-439.643C1065.66,-429.175 1109.42,-414.413 1137.25,-405.025"/>
<polygon fill="midnightblue" stroke="midnightblue" points="1033.4,-436.365 1025.04,-442.878 1035.63,-442.998 1033.4,-436.365"/>
</g>
<!-- Node8 -->
<g id="node8" class="node"><title>Node8</title>
<g id="a_node8"><a xlink:href="default__atom_8cpp.html" target="_top" xlink:title="Om source file.">
<polygon fill="none" stroke="black" points="595.074,-327 595.074,-347 728.926,-347 728.926,-327 595.074,-327"/>
<text text-anchor="middle" x="662" y="-333" font-family="Helvetica,sans-Serif" font-size="10.00">code/om/default_atom.cpp</text>
</a>
</g>
</g>
<!-- Node7&#45;&gt;Node8 -->
<g id="edge9" class="edge"><title>Node7&#45;&gt;Node8</title>
<path fill="none" stroke="midnightblue" d="M766.253,-381.381C738.327,-370.965 701.678,-356.432 679.981,-347.118"/>
<polygon fill="midnightblue" stroke="midnightblue" points="765.135,-384.699 775.729,-384.878 767.559,-378.132 765.135,-384.699"/>
</g>
<!-- Node9 -->
<g id="node9" class="node"><title>Node9</title>
<g id="a_node9"><a xlink:href="operator_8hpp.html" target="_top" xlink:title="Om header file.">
<polygon fill="none" stroke="black" points="747.353,-327 747.353,-347 860.647,-347 860.647,-327 747.353,-327"/>
<text text-anchor="middle" x="804" y="-333" font-family="Helvetica,sans-Serif" font-size="10.00">code/om/operator.hpp</text>
</a>
</g>
</g>
<!-- Node7&#45;&gt;Node9 -->
<g id="edge11" class="edge"><title>Node7&#45;&gt;Node9</title>
<path fill="none" stroke="midnightblue" d="M804,-374.707C804,-365.338 804,-354.526 804,-347.075"/>
<polygon fill="midnightblue" stroke="midnightblue" points="800.5,-374.753 804,-384.753 807.5,-374.753 800.5,-374.753"/>
</g>
<!-- Node35 -->
<g id="node35" class="node"><title>Node35</title>
<g id="a_node35"><a xlink:href="separator_8hpp.html" target="_top" xlink:title="Om header file.">
<polygon fill="none" stroke="black" points="970.853,-327 970.853,-347 1089.15,-347 1089.15,-327 970.853,-327"/>
<text text-anchor="middle" x="1030" y="-333" font-family="Helvetica,sans-Serif" font-size="10.00">code/om/separator.hpp</text>
</a>
</g>
</g>
<!-- Node7&#45;&gt;Node35 -->
<g id="edge48" class="edge"><title>Node7&#45;&gt;Node35</title>
<path fill="none" stroke="midnightblue" d="M850.355,-382.514C892.721,-372.016 954.535,-356.699 993.491,-347.047"/>
<polygon fill="midnightblue" stroke="midnightblue" points="849.427,-379.138 840.562,-384.94 851.11,-385.932 849.427,-379.138"/>
</g>
<!-- Node8&#45;&gt;Node7 -->
<g id="edge10" class="edge"><title>Node8&#45;&gt;Node7</title>
<path fill="none" stroke="midnightblue" d="M699.486,-350.522C727.441,-360.943 764.244,-375.535 786.01,-384.878"/>
<polygon fill="midnightblue" stroke="midnightblue" points="700.6,-347.202 690.006,-347.025 698.177,-353.77 700.6,-347.202"/>
</g>
<!-- Node10 -->
<g id="node10" class="node"><title>Node10</title>
<g id="a_node10"><a xlink:href="form_8hpp.html" target="_top" xlink:title="Om header file.">
<polygon fill="none" stroke="black" points="530.702,-269 530.702,-289 627.298,-289 627.298,-269 530.702,-269"/>
<text text-anchor="middle" x="579" y="-275" font-family="Helvetica,sans-Serif" font-size="10.00">code/om/form.hpp</text>
</a>
</g>
</g>
<!-- Node9&#45;&gt;Node10 -->
<g id="edge12" class="edge"><title>Node9&#45;&gt;Node10</title>
<path fill="none" stroke="midnightblue" d="M757.851,-324.514C715.672,-314.016 654.131,-298.699 615.348,-289.047"/>
<polygon fill="midnightblue" stroke="midnightblue" points="757.05,-327.921 767.6,-326.94 758.741,-321.129 757.05,-327.921"/>
</g>
<!-- Node24 -->
<g id="node24" class="node"><title>Node24</title>
<g id="a_node24"><a xlink:href="operator_8cpp.html" target="_top" xlink:title="Om source file.">
<polygon fill="none" stroke="black" points="738.633,-269 738.633,-289 851.367,-289 851.367,-269 738.633,-269"/>
<text text-anchor="middle" x="795" y="-275" font-family="Helvetica,sans-Serif" font-size="10.00">code/om/operator.cpp</text>
</a>
</g>
</g>
<!-- Node9&#45;&gt;Node24 -->
<g id="edge32" class="edge"><title>Node9&#45;&gt;Node24</title>
<path fill="none" stroke="midnightblue" d="M794.519,-317.012C792.308,-307.574 790.978,-296.607 791.328,-289.075"/>
<polygon fill="midnightblue" stroke="midnightblue" points="791.198,-318.125 797.348,-326.753 797.92,-316.173 791.198,-318.125"/>
</g>
<!-- Node25 -->
<g id="node25" class="node"><title>Node25</title>
<g id="a_node25"><a xlink:href="pair_8hpp.html" target="_top" xlink:title="Om header file.">
<polygon fill="none" stroke="black" points="869.638,-269 869.638,-289 962.362,-289 962.362,-269 869.638,-269"/>
<text text-anchor="middle" x="916" y="-275" font-family="Helvetica,sans-Serif" font-size="10.00">code/om/pair.hpp</text>
</a>
</g>
</g>
<!-- Node9&#45;&gt;Node25 -->
<g id="edge34" class="edge"><title>Node9&#45;&gt;Node25</title>
<path fill="none" stroke="midnightblue" d="M831.713,-322.144C852.355,-311.823 879.951,-298.025 897.85,-289.075"/>
<polygon fill="midnightblue" stroke="midnightblue" points="829.874,-319.15 822.495,-326.753 833.004,-325.411 829.874,-319.15"/>
</g>
<!-- Node11 -->
<g id="node11" class="node"><title>Node11</title>
<g id="a_node11"><a xlink:href="expression_8hpp.html" target="_top" xlink:title="Om header file.">
<polygon fill="none" stroke="black" points="320.522,-211 320.522,-231 445.478,-231 445.478,-211 320.522,-211"/>
<text text-anchor="middle" x="383" y="-217" font-family="Helvetica,sans-Serif" font-size="10.00">code/om/expression.hpp</text>
</a>
</g>
</g>
<!-- Node10&#45;&gt;Node11 -->
<g id="edge13" class="edge"><title>Node10&#45;&gt;Node11</title>
<path fill="none" stroke="midnightblue" d="M537.169,-266.048C500.459,-255.56 447.873,-240.535 414.589,-231.025"/>
<polygon fill="midnightblue" stroke="midnightblue" points="536.496,-269.496 547.073,-268.878 538.419,-262.765 536.496,-269.496"/>
</g>
<!-- Node23 -->
<g id="node23" class="node"><title>Node23</title>
<g id="a_node23"><a xlink:href="form_8cpp.html" target="_top" xlink:title="Om source file.">
<polygon fill="none" stroke="black" points="530.983,-211 530.983,-231 627.017,-231 627.017,-211 530.983,-211"/>
<text text-anchor="middle" x="579" y="-217" font-family="Helvetica,sans-Serif" font-size="10.00">code/om/form.cpp</text>
</a>
</g>
</g>
<!-- Node10&#45;&gt;Node23 -->
<g id="edge30" class="edge"><title>Node10&#45;&gt;Node23</title>
<path fill="none" stroke="midnightblue" d="M572.549,-258.707C571.886,-249.338 572.326,-238.526 573.869,-231.075"/>
<polygon fill="midnightblue" stroke="midnightblue" points="569.093,-259.278 573.834,-268.753 576.037,-258.389 569.093,-259.278"/>
</g>
<!-- Node12 -->
<g id="node12" class="node"><title>Node12</title>
<g id="a_node12"><a xlink:href="evaluation_8hpp.html" target="_top" xlink:title="Om header file.">
<polygon fill="none" stroke="black" points="-0.0932617,-147 -0.0932617,-167 122.093,-167 122.093,-147 -0.0932617,-147"/>
<text text-anchor="middle" x="61" y="-153" font-family="Helvetica,sans-Serif" font-size="10.00">code/om/evaluation.hpp</text>
</a>
</g>
</g>
<!-- Node11&#45;&gt;Node12 -->
<g id="edge14" class="edge"><title>Node11&#45;&gt;Node12</title>
<path fill="none" stroke="midnightblue" d="M319.872,-209.273C268.811,-200.405 195.119,-187.173 131,-174 120.621,-171.868 109.417,-169.387 99.0799,-167.025"/>
<polygon fill="midnightblue" stroke="midnightblue" points="319.322,-212.73 329.773,-210.987 320.517,-205.832 319.322,-212.73"/>
</g>
<!-- Node14 -->
<g id="node14" class="node"><title>Node14</title>
<g id="a_node14"><a xlink:href="expression_8cpp.html" target="_top" xlink:title="Om source file.">
<polygon fill="none" stroke="black" points="139.803,-147 139.803,-167 264.197,-167 264.197,-147 139.803,-147"/>
<text text-anchor="middle" x="202" y="-153" font-family="Helvetica,sans-Serif" font-size="10.00">code/om/expression.cpp</text>
</a>
</g>
</g>
<!-- Node11&#45;&gt;Node14 -->
<g id="edge17" class="edge"><title>Node11&#45;&gt;Node14</title>
<path fill="none" stroke="midnightblue" d="M341.804,-207.773C304.955,-195.78 252.584,-177.776 223.42,-167.026"/>
<polygon fill="midnightblue" stroke="midnightblue" points="341.161,-211.243 351.753,-210.985 343.312,-204.582 341.161,-211.243"/>
</g>
<!-- Node15 -->
<g id="node15" class="node"><title>Node15</title>
<g id="a_node15"><a xlink:href="expression__operation_8hpp.html" target="_top" xlink:title="Om header file.">
<polygon fill="none" stroke="black" points="282.069,-141 282.069,-173 415.931,-173 415.931,-141 282.069,-141"/>
<text text-anchor="start" x="290.069" y="-159" font-family="Helvetica,sans-Serif" font-size="10.00">code/om/operations</text>
<text text-anchor="middle" x="349" y="-147" font-family="Helvetica,sans-Serif" font-size="10.00">/expression_operation.hpp</text>
</a>
</g>
</g>
<!-- Node11&#45;&gt;Node15 -->
<g id="edge19" class="edge"><title>Node11&#45;&gt;Node15</title>
<path fill="none" stroke="midnightblue" d="M373.095,-201.937C368.141,-192.903 362.207,-182.083 357.467,-173.44"/>
<polygon fill="midnightblue" stroke="midnightblue" points="370.106,-203.766 377.983,-210.852 376.244,-200.401 370.106,-203.766"/>
</g>
<!-- Node17 -->
<g id="node17" class="node"><title>Node17</title>
<g id="a_node17"><a xlink:href="fill__operation_8hpp.html" target="_top" xlink:title="Om header file.">
<polygon fill="none" stroke="black" points="434.084,-141 434.084,-173 537.916,-173 537.916,-141 434.084,-141"/>
<text text-anchor="start" x="442.084" y="-159" font-family="Helvetica,sans-Serif" font-size="10.00">code/om/operations</text>
<text text-anchor="middle" x="486" y="-147" font-family="Helvetica,sans-Serif" font-size="10.00">/fill_operation.hpp</text>
</a>
</g>
</g>
<!-- Node11&#45;&gt;Node17 -->
<g id="edge21" class="edge"><title>Node11&#45;&gt;Node17</title>
<path fill="none" stroke="midnightblue" d="M407.033,-205.534C423.162,-195.825 444.373,-183.057 460.75,-173.199"/>
<polygon fill="midnightblue" stroke="midnightblue" points="404.961,-202.696 398.198,-210.852 408.571,-208.693 404.961,-202.696"/>
</g>
<!-- Node19 -->
<g id="node19" class="node"><title>Node19</title>
<g id="a_node19"><a xlink:href="inject__operation_8hpp.html" target="_top" xlink:title="Om header file.">
<polygon fill="none" stroke="black" points="555.577,-141 555.577,-173 664.423,-173 664.423,-141 555.577,-141"/>
<text text-anchor="start" x="563.577" y="-159" font-family="Helvetica,sans-Serif" font-size="10.00">code/om/operations</text>
<text text-anchor="middle" x="610" y="-147" font-family="Helvetica,sans-Serif" font-size="10.00">/inject_operation.hpp</text>
</a>
</g>
</g>
<!-- Node11&#45;&gt;Node19 -->
<g id="edge24" class="edge"><title>Node11&#45;&gt;Node19</title>
<path fill="none" stroke="midnightblue" d="M425.906,-208.281C462.625,-198.252 515.692,-183.758 555.426,-172.906"/>
<polygon fill="midnightblue" stroke="midnightblue" points="424.732,-204.973 416.008,-210.985 426.577,-211.726 424.732,-204.973"/>
</g>
<!-- Node21 -->
<g id="node21" class="node"><title>Node21</title>
<g id="a_node21"><a xlink:href="skip__operation_8hpp.html" target="_top" xlink:title="Om header file.">
<polygon fill="none" stroke="black" points="682.084,-141 682.084,-173 785.916,-173 785.916,-141 682.084,-141"/>
<text text-anchor="start" x="690.084" y="-159" font-family="Helvetica,sans-Serif" font-size="10.00">code/om/operations</text>
<text text-anchor="middle" x="734" y="-147" font-family="Helvetica,sans-Serif" font-size="10.00">/skip_operation.hpp</text>
</a>
</g>
</g>
<!-- Node11&#45;&gt;Node21 -->
<g id="edge27" class="edge"><title>Node11&#45;&gt;Node21</title>
<path fill="none" stroke="midnightblue" d="M455.504,-210.534C514.387,-202.359 599.429,-189.444 673,-174 675.893,-173.393 678.854,-172.736 681.837,-172.046"/>
<polygon fill="midnightblue" stroke="midnightblue" points="454.983,-207.073 445.554,-211.905 455.938,-214.007 454.983,-207.073"/>
</g>
<!-- Node13 -->
<g id="node13" class="node"><title>Node13</title>
<g id="a_node13"><a xlink:href="evaluation_8cpp.html" target="_top" xlink:title="Om source file.">
<polygon fill="none" stroke="black" points="0.1875,-77 0.1875,-97 121.812,-97 121.812,-77 0.1875,-77"/>
<text text-anchor="middle" x="61" y="-83" font-family="Helvetica,sans-Serif" font-size="10.00">code/om/evaluation.cpp</text>
</a>
</g>
</g>
<!-- Node12&#45;&gt;Node13 -->
<g id="edge15" class="edge"><title>Node12&#45;&gt;Node13</title>
<path fill="none" stroke="midnightblue" d="M54.833,-136.557C53.7261,-123.557 54.1954,-107.057 56.2409,-97.0255"/>
<polygon fill="midnightblue" stroke="midnightblue" points="51.4125,-137.384 56.2115,-146.829 58.3503,-136.453 51.4125,-137.384"/>
</g>
<!-- Node13&#45;&gt;Node12 -->
<g id="edge16" class="edge"><title>Node13&#45;&gt;Node12</title>
<path fill="none" stroke="midnightblue" d="M67.1509,-107.256C68.273,-120.222 67.8189,-136.735 65.7885,-146.829"/>
<polygon fill="midnightblue" stroke="midnightblue" points="70.5753,-106.462 65.7591,-97.0255 63.6392,-107.406 70.5753,-106.462"/>
</g>
<!-- Node14&#45;&gt;Node11 -->
<g id="edge18" class="edge"><title>Node14&#45;&gt;Node11</title>
<path fill="none" stroke="midnightblue" d="M243.234,-170.239C280.092,-182.236 332.462,-200.24 361.609,-210.985"/>
<polygon fill="midnightblue" stroke="midnightblue" points="243.873,-166.768 233.281,-167.026 241.722,-173.429 243.873,-166.768"/>
</g>
<!-- Node16 -->
<g id="node16" class="node"><title>Node16</title>
<g id="a_node16"><a xlink:href="expression__operation_8cpp.html" target="_top" xlink:title="Om source file.">
<polygon fill="none" stroke="black" points="282.35,-71 282.35,-103 415.65,-103 415.65,-71 282.35,-71"/>
<text text-anchor="start" x="290.35" y="-89" font-family="Helvetica,sans-Serif" font-size="10.00">code/om/operations</text>
<text text-anchor="middle" x="349" y="-77" font-family="Helvetica,sans-Serif" font-size="10.00">/expression_operation.cpp</text>
</a>
</g>
</g>
<!-- Node15&#45;&gt;Node16 -->
<g id="edge20" class="edge"><title>Node15&#45;&gt;Node16</title>
<path fill="none" stroke="midnightblue" d="M349,-130.617C349,-121.338 349,-111.141 349,-103.049"/>
<polygon fill="midnightblue" stroke="midnightblue" points="345.5,-130.909 349,-140.909 352.5,-130.909 345.5,-130.909"/>
</g>
<!-- Node18 -->
<g id="node18" class="node"><title>Node18</title>
<g id="a_node18"><a xlink:href="fill__operation_8cpp.html" target="_top" xlink:title="Om source file.">
<polygon fill="none" stroke="black" points="434.084,-71 434.084,-103 537.916,-103 537.916,-71 434.084,-71"/>
<text text-anchor="start" x="442.084" y="-89" font-family="Helvetica,sans-Serif" font-size="10.00">code/om/operations</text>
<text text-anchor="middle" x="486" y="-77" font-family="Helvetica,sans-Serif" font-size="10.00">/fill_operation.cpp</text>
</a>
</g>
</g>
<!-- Node17&#45;&gt;Node18 -->
<g id="edge22" class="edge"><title>Node17&#45;&gt;Node18</title>
<path fill="none" stroke="midnightblue" d="M479.461,-130.92C479.009,-121.56 479.284,-111.229 480.285,-103.049"/>
<polygon fill="midnightblue" stroke="midnightblue" points="475.974,-131.228 480.28,-140.909 482.951,-130.656 475.974,-131.228"/>
</g>
<!-- Node18&#45;&gt;Node17 -->
<g id="edge23" class="edge"><title>Node18&#45;&gt;Node17</title>
<path fill="none" stroke="midnightblue" d="M492.537,-113.032C492.991,-122.389 492.719,-132.721 491.72,-140.909"/>
<polygon fill="midnightblue" stroke="midnightblue" points="496.024,-112.728 491.715,-103.049 489.047,-113.303 496.024,-112.728"/>
</g>
<!-- Node20 -->
<g id="node20" class="node"><title>Node20</title>
<g id="a_node20"><a xlink:href="inject__operation_8cpp.html" target="_top" xlink:title="Om source file.">
<polygon fill="none" stroke="black" points="555.857,-71 555.857,-103 664.143,-103 664.143,-71 555.857,-71"/>
<text text-anchor="start" x="563.857" y="-89" font-family="Helvetica,sans-Serif" font-size="10.00">code/om/operations</text>
<text text-anchor="middle" x="610" y="-77" font-family="Helvetica,sans-Serif" font-size="10.00">/inject_operation.cpp</text>
</a>
</g>
</g>
<!-- Node19&#45;&gt;Node20 -->
<g id="edge25" class="edge"><title>Node19&#45;&gt;Node20</title>
<path fill="none" stroke="midnightblue" d="M603.461,-130.92C603.009,-121.56 603.284,-111.229 604.285,-103.049"/>
<polygon fill="midnightblue" stroke="midnightblue" points="599.974,-131.228 604.28,-140.909 606.951,-130.656 599.974,-131.228"/>
</g>
<!-- Node20&#45;&gt;Node19 -->
<g id="edge26" class="edge"><title>Node20&#45;&gt;Node19</title>
<path fill="none" stroke="midnightblue" d="M616.537,-113.032C616.991,-122.389 616.719,-132.721 615.72,-140.909"/>
<polygon fill="midnightblue" stroke="midnightblue" points="620.024,-112.728 615.715,-103.049 613.047,-113.303 620.024,-112.728"/>
</g>
<!-- Node22 -->
<g id="node22" class="node"><title>Node22</title>
<g id="a_node22"><a xlink:href="skip__operation_8cpp.html" target="_top" xlink:title="Om source file.">
<polygon fill="none" stroke="black" points="682.084,-71 682.084,-103 785.916,-103 785.916,-71 682.084,-71"/>
<text text-anchor="start" x="690.084" y="-89" font-family="Helvetica,sans-Serif" font-size="10.00">code/om/operations</text>
<text text-anchor="middle" x="734" y="-77" font-family="Helvetica,sans-Serif" font-size="10.00">/skip_operation.cpp</text>
</a>
</g>
</g>
<!-- Node21&#45;&gt;Node22 -->
<g id="edge28" class="edge"><title>Node21&#45;&gt;Node22</title>
<path fill="none" stroke="midnightblue" d="M727.461,-130.92C727.009,-121.56 727.284,-111.229 728.285,-103.049"/>
<polygon fill="midnightblue" stroke="midnightblue" points="723.974,-131.228 728.28,-140.909 730.951,-130.656 723.974,-131.228"/>
</g>
<!-- Node22&#45;&gt;Node21 -->
<g id="edge29" class="edge"><title>Node22&#45;&gt;Node21</title>
<path fill="none" stroke="midnightblue" d="M740.537,-113.032C740.991,-122.389 740.719,-132.721 739.72,-140.909"/>
<polygon fill="midnightblue" stroke="midnightblue" points="744.024,-112.728 739.715,-103.049 737.047,-113.303 744.024,-112.728"/>
</g>
<!-- Node23&#45;&gt;Node10 -->
<g id="edge31" class="edge"><title>Node23&#45;&gt;Node10</title>
<path fill="none" stroke="midnightblue" d="M585.436,-241.078C586.116,-250.424 585.692,-261.25 584.166,-268.753"/>
<polygon fill="midnightblue" stroke="midnightblue" points="588.895,-240.538 584.131,-231.075 581.954,-241.444 588.895,-240.538"/>
</g>
<!-- Node24&#45;&gt;Node9 -->
<g id="edge33" class="edge"><title>Node24&#45;&gt;Node9</title>
<path fill="none" stroke="midnightblue" d="M804.43,-298.774C806.655,-308.188 808.004,-319.169 807.68,-326.753"/>
<polygon fill="midnightblue" stroke="midnightblue" points="807.759,-297.688 801.59,-289.075 801.042,-299.656 807.759,-297.688"/>
</g>
<!-- Node26 -->
<g id="node26" class="node"><title>Node26</title>
<g id="a_node26"><a xlink:href="lexicon_8hpp.html" target="_top" xlink:title="Om header file.">
<polygon fill="none" stroke="black" points="803.138,-211 803.138,-231 910.862,-231 910.862,-211 803.138,-211"/>
<text text-anchor="middle" x="857" y="-217" font-family="Helvetica,sans-Serif" font-size="10.00">code/om/lexicon.hpp</text>
</a>
</g>
</g>
<!-- Node25&#45;&gt;Node26 -->
<g id="edge35" class="edge"><title>Node25&#45;&gt;Node26</title>
<path fill="none" stroke="midnightblue" d="M898.831,-261.704C888.321,-251.729 875.265,-239.336 866.561,-231.075"/>
<polygon fill="midnightblue" stroke="midnightblue" points="896.595,-264.407 906.257,-268.753 901.414,-259.33 896.595,-264.407"/>
</g>
<!-- Node34 -->
<g id="node34" class="node"><title>Node34</title>
<g id="a_node34"><a xlink:href="pair_8cpp.html" target="_top" xlink:title="Om source file.">
<polygon fill="none" stroke="black" points="928.919,-211 928.919,-231 1021.08,-231 1021.08,-211 928.919,-211"/>
<text text-anchor="middle" x="975" y="-217" font-family="Helvetica,sans-Serif" font-size="10.00">code/om/pair.cpp</text>
</a>
</g>
</g>
<!-- Node25&#45;&gt;Node34 -->
<g id="edge46" class="edge"><title>Node25&#45;&gt;Node34</title>
<path fill="none" stroke="midnightblue" d="M927.537,-261.114C937.007,-251.244 950.098,-239.174 960.308,-231.075"/>
<polygon fill="midnightblue" stroke="midnightblue" points="924.725,-259.004 920.576,-268.753 929.899,-263.719 924.725,-259.004"/>
</g>
<!-- Node27 -->
<g id="node27" class="node"><title>Node27</title>
<g id="a_node27"><a xlink:href="lexicon_8cpp.html" target="_top" xlink:title="Om source file.">
<polygon fill="none" stroke="black" points="803.419,-147 803.419,-167 910.581,-167 910.581,-147 803.419,-147"/>
<text text-anchor="middle" x="857" y="-153" font-family="Helvetica,sans-Serif" font-size="10.00">code/om/lexicon.cpp</text>
</a>
</g>
</g>
<!-- Node26&#45;&gt;Node27 -->
<g id="edge36" class="edge"><title>Node26&#45;&gt;Node27</title>
<path fill="none" stroke="midnightblue" d="M850.7,-200.735C849.802,-189.557 850.248,-175.991 852.037,-167.186"/>
<polygon fill="midnightblue" stroke="midnightblue" points="847.257,-201.4 852.045,-210.852 854.196,-200.478 847.257,-201.4"/>
</g>
<!-- Node28 -->
<g id="node28" class="node"><title>Node28</title>
<g id="a_node28"><a xlink:href="lexicon__operation_8hpp.html" target="_top" xlink:title="Om header file.">
<polygon fill="none" stroke="black" points="928.685,-141 928.685,-173 1045.31,-173 1045.31,-141 928.685,-141"/>
<text text-anchor="start" x="936.685" y="-159" font-family="Helvetica,sans-Serif" font-size="10.00">code/om/operations</text>
<text text-anchor="middle" x="987" y="-147" font-family="Helvetica,sans-Serif" font-size="10.00">/lexicon_operation.hpp</text>
</a>
</g>
</g>
<!-- Node26&#45;&gt;Node28 -->
<g id="edge38" class="edge"><title>Node26&#45;&gt;Node28</title>
<path fill="none" stroke="midnightblue" d="M885.127,-206.586C905.842,-196.706 934.023,-183.266 955.494,-173.026"/>
<polygon fill="midnightblue" stroke="midnightblue" points="883.422,-203.521 875.903,-210.985 886.436,-209.839 883.422,-203.521"/>
</g>
<!-- Node30 -->
<g id="node30" class="node"><title>Node30</title>
<g id="a_node30"><a xlink:href="translate__operation_8hpp.html" target="_top" xlink:title="Om header file.">
<polygon fill="none" stroke="black" points="1105.07,-141 1105.07,-173 1228.93,-173 1228.93,-141 1105.07,-141"/>
<text text-anchor="start" x="1113.07" y="-159" font-family="Helvetica,sans-Serif" font-size="10.00">code/om/operations</text>
<text text-anchor="middle" x="1167" y="-147" font-family="Helvetica,sans-Serif" font-size="10.00">/translate_operation.hpp</text>
</a>
</g>
</g>
<!-- Node26&#45;&gt;Node30 -->
<g id="edge40" class="edge"><title>Node26&#45;&gt;Node30</title>
<path fill="none" stroke="midnightblue" d="M912.173,-208.965C966.286,-198.143 1048.65,-181.669 1105,-170.4"/>
<polygon fill="midnightblue" stroke="midnightblue" points="911.196,-205.591 902.077,-210.985 912.569,-212.455 911.196,-205.591"/>
</g>
<!-- Node27&#45;&gt;Node26 -->
<g id="edge37" class="edge"><title>Node27&#45;&gt;Node26</title>
<path fill="none" stroke="midnightblue" d="M863.304,-177.313C864.198,-188.498 863.748,-202.06 861.955,-210.852"/>
<polygon fill="midnightblue" stroke="midnightblue" points="866.746,-176.64 861.963,-167.186 859.806,-177.559 866.746,-176.64"/>
</g>
<!-- Node29 -->
<g id="node29" class="node"><title>Node29</title>
<g id="a_node29"><a xlink:href="lexicon__operation_8cpp.html" target="_top" xlink:title="Om source file.">
<polygon fill="none" stroke="black" points="865.966,-71 865.966,-103 982.034,-103 982.034,-71 865.966,-71"/>
<text text-anchor="start" x="873.966" y="-89" font-family="Helvetica,sans-Serif" font-size="10.00">code/om/operations</text>
<text text-anchor="middle" x="924" y="-77" font-family="Helvetica,sans-Serif" font-size="10.00">/lexicon_operation.cpp</text>
</a>
</g>
</g>
<!-- Node28&#45;&gt;Node29 -->
<g id="edge39" class="edge"><title>Node28&#45;&gt;Node29</title>
<path fill="none" stroke="midnightblue" d="M965.98,-133.312C956.753,-123.353 946.173,-111.933 937.943,-103.049"/>
<polygon fill="midnightblue" stroke="midnightblue" points="963.655,-135.952 973.018,-140.909 968.789,-131.194 963.655,-135.952"/>
</g>
<!-- Node31 -->
<g id="node31" class="node"><title>Node31</title>
<g id="a_node31"><a xlink:href="substitute__operation_8hpp.html" target="_top" xlink:title="Om header file.">
<polygon fill="none" stroke="black" points="999.848,-71 999.848,-103 1128.15,-103 1128.15,-71 999.848,-71"/>
<text text-anchor="start" x="1007.85" y="-89" font-family="Helvetica,sans-Serif" font-size="10.00">code/om/operations</text>
<text text-anchor="middle" x="1064" y="-77" font-family="Helvetica,sans-Serif" font-size="10.00">/substitute_operation.hpp</text>
</a>
</g>
</g>
<!-- Node30&#45;&gt;Node31 -->
<g id="edge41" class="edge"><title>Node30&#45;&gt;Node31</title>
<path fill="none" stroke="midnightblue" d="M1135.74,-135.36C1119.97,-124.948 1101.18,-112.549 1086.8,-103.049"/>
<polygon fill="midnightblue" stroke="midnightblue" points="1133.87,-138.32 1144.14,-140.909 1137.72,-132.478 1133.87,-138.32"/>
</g>
<!-- Node33 -->
<g id="node33" class="node"><title>Node33</title>
<g id="a_node33"><a xlink:href="translate__operation_8cpp.html" target="_top" xlink:title="Om source file.">
<polygon fill="none" stroke="black" points="1146.35,-71 1146.35,-103 1269.65,-103 1269.65,-71 1146.35,-71"/>
<text text-anchor="start" x="1154.35" y="-89" font-family="Helvetica,sans-Serif" font-size="10.00">code/om/operations</text>
<text text-anchor="middle" x="1208" y="-77" font-family="Helvetica,sans-Serif" font-size="10.00">/translate_operation.cpp</text>
</a>
</g>
</g>
<!-- Node30&#45;&gt;Node33 -->
<g id="edge44" class="edge"><title>Node30&#45;&gt;Node33</title>
<path fill="none" stroke="midnightblue" d="M1175.08,-131.822C1180.35,-122.228 1187.09,-111.493 1193.21,-103.049"/>
<polygon fill="midnightblue" stroke="midnightblue" points="1171.87,-130.419 1170.38,-140.909 1178.09,-133.638 1171.87,-130.419"/>
</g>
<!-- Node32 -->
<g id="node32" class="node"><title>Node32</title>
<g id="a_node32"><a xlink:href="substitute__operation_8cpp.html" target="_top" xlink:title="Om source file.">
<polygon fill="none" stroke="black" points="1000.13,-1 1000.13,-33 1127.87,-33 1127.87,-1 1000.13,-1"/>
<text text-anchor="start" x="1008.13" y="-19" font-family="Helvetica,sans-Serif" font-size="10.00">code/om/operations</text>
<text text-anchor="middle" x="1064" y="-7" font-family="Helvetica,sans-Serif" font-size="10.00">/substitute_operation.cpp</text>
</a>
</g>
</g>
<!-- Node31&#45;&gt;Node32 -->
<g id="edge42" class="edge"><title>Node31&#45;&gt;Node32</title>
<path fill="none" stroke="midnightblue" d="M1057.46,-60.9196C1057.01,-51.5597 1057.28,-41.2293 1058.29,-33.0492"/>
<polygon fill="midnightblue" stroke="midnightblue" points="1053.97,-61.2281 1058.28,-70.9086 1060.95,-60.656 1053.97,-61.2281"/>
</g>
<!-- Node32&#45;&gt;Node31 -->
<g id="edge43" class="edge"><title>Node32&#45;&gt;Node31</title>
<path fill="none" stroke="midnightblue" d="M1070.54,-43.0321C1070.99,-52.3887 1070.72,-62.7211 1069.72,-70.9086"/>
<polygon fill="midnightblue" stroke="midnightblue" points="1074.02,-42.7283 1069.71,-33.0492 1067.05,-43.3027 1074.02,-42.7283"/>
</g>
<!-- Node33&#45;&gt;Node30 -->
<g id="edge45" class="edge"><title>Node33&#45;&gt;Node30</title>
<path fill="none" stroke="midnightblue" d="M1199.94,-112.13C1194.68,-121.72 1187.95,-132.457 1181.82,-140.909"/>
<polygon fill="midnightblue" stroke="midnightblue" points="1203.15,-113.539 1204.64,-103.049 1196.94,-110.322 1203.15,-113.539"/>
</g>
<!-- Node34&#45;&gt;Node25 -->
<g id="edge47" class="edge"><title>Node34&#45;&gt;Node25</title>
<path fill="none" stroke="midnightblue" d="M963.663,-238.677C954.245,-248.516 941.159,-260.598 930.909,-268.753"/>
<polygon fill="midnightblue" stroke="midnightblue" points="966.436,-240.83 970.57,-231.075 961.255,-236.123 966.436,-240.83"/>
</g>
<!-- Node36 -->
<g id="node36" class="node"><title>Node36</title>
<g id="a_node36"><a xlink:href="separator_8cpp.html" target="_top" xlink:title="Om source file.">
<polygon fill="none" stroke="black" points="980.133,-269 980.133,-289 1097.87,-289 1097.87,-269 980.133,-269"/>
<text text-anchor="middle" x="1039" y="-275" font-family="Helvetica,sans-Serif" font-size="10.00">code/om/separator.cpp</text>
</a>
</g>
</g>
<!-- Node35&#45;&gt;Node36 -->
<g id="edge49" class="edge"><title>Node35&#45;&gt;Node36</title>
<path fill="none" stroke="midnightblue" d="M1026.65,-316.707C1027.49,-307.338 1029.67,-296.526 1032.41,-289.075"/>
<polygon fill="midnightblue" stroke="midnightblue" points="1023.15,-316.643 1026.32,-326.753 1030.15,-316.873 1023.15,-316.643"/>
</g>
<!-- Node36&#45;&gt;Node35 -->
<g id="edge50" class="edge"><title>Node36&#45;&gt;Node35</title>
<path fill="none" stroke="midnightblue" d="M1042.37,-299.078C1041.55,-308.424 1039.38,-319.25 1036.65,-326.753"/>
<polygon fill="midnightblue" stroke="midnightblue" points="1045.87,-299.177 1042.67,-289.075 1038.87,-298.965 1045.87,-299.177"/>
</g>
<!-- Node37&#45;&gt;Node6 -->
<g id="edge52" class="edge"><title>Node37&#45;&gt;Node6</title>
<path fill="none" stroke="midnightblue" d="M1004.44,-415.078C1005.12,-424.424 1004.69,-435.25 1003.17,-442.753"/>
<polygon fill="midnightblue" stroke="midnightblue" points="1007.9,-414.538 1003.13,-405.075 1000.95,-415.444 1007.9,-414.538"/>
</g>
<!-- Node39 -->
<g id="node39" class="node"><title>Node39</title>
<g id="a_node39"><a xlink:href="operand_8cpp.html" target="_top" xlink:title="Om source file.">
<polygon fill="none" stroke="black" points="1107.63,-327 1107.63,-347 1220.37,-347 1220.37,-327 1107.63,-327"/>
<text text-anchor="middle" x="1164" y="-333" font-family="Helvetica,sans-Serif" font-size="10.00">code/om/operand.cpp</text>
</a>
</g>
</g>
<!-- Node38&#45;&gt;Node39 -->
<g id="edge54" class="edge"><title>Node38&#45;&gt;Node39</title>
<path fill="none" stroke="midnightblue" d="M1157.55,-374.707C1156.89,-365.338 1157.33,-354.526 1158.87,-347.075"/>
<polygon fill="midnightblue" stroke="midnightblue" points="1154.09,-375.278 1158.83,-384.753 1161.04,-374.389 1154.09,-375.278"/>
</g>
<!-- Node39&#45;&gt;Node38 -->
<g id="edge55" class="edge"><title>Node39&#45;&gt;Node38</title>
<path fill="none" stroke="midnightblue" d="M1170.44,-357.078C1171.12,-366.424 1170.69,-377.25 1169.17,-384.753"/>
<polygon fill="midnightblue" stroke="midnightblue" points="1173.9,-356.538 1169.13,-347.075 1166.95,-357.444 1173.9,-356.538"/>
</g>
<!-- Node40&#45;&gt;Node5 -->
<g id="edge57" class="edge"><title>Node40&#45;&gt;Node5</title>
<path fill="none" stroke="midnightblue" d="M1170.44,-473.078C1171.12,-482.424 1170.69,-493.25 1169.17,-500.753"/>
<polygon fill="midnightblue" stroke="midnightblue" points="1173.9,-472.538 1169.13,-463.075 1166.95,-473.444 1173.9,-472.538"/>
</g>
<!-- Node42 -->
<g id="node42" class="node"><title>Node42</title>
<g id="a_node42"><a xlink:href="literal_8cpp.html" target="_top" xlink:title="Om source file.">
<polygon fill="none" stroke="black" points="1257.03,-385 1257.03,-405 1356.97,-405 1356.97,-385 1257.03,-385"/>
<text text-anchor="middle" x="1307" y="-391" font-family="Helvetica,sans-Serif" font-size="10.00">code/om/literal.cpp</text>
</a>
</g>
</g>
<!-- Node41&#45;&gt;Node42 -->
<g id="edge59" class="edge"><title>Node41&#45;&gt;Node42</title>
<path fill="none" stroke="midnightblue" d="M1300.55,-432.707C1299.89,-423.338 1300.33,-412.526 1301.87,-405.075"/>
<polygon fill="midnightblue" stroke="midnightblue" points="1297.09,-433.278 1301.83,-442.753 1304.04,-432.389 1297.09,-433.278"/>
</g>
<!-- Node42&#45;&gt;Node41 -->
<g id="edge60" class="edge"><title>Node42&#45;&gt;Node41</title>
<path fill="none" stroke="midnightblue" d="M1313.44,-415.078C1314.12,-424.424 1313.69,-435.25 1312.17,-442.753"/>
<polygon fill="midnightblue" stroke="midnightblue" points="1316.9,-414.538 1312.13,-405.075 1309.95,-415.444 1316.9,-414.538"/>
</g>
<!-- Node44 -->
<g id="node44" class="node"><title>Node44</title>
<g id="a_node44"><a xlink:href="null_8cpp.html" target="_top" xlink:title="Om source file.">
<polygon fill="none" stroke="black" points="1375.2,-385 1375.2,-405 1466.8,-405 1466.8,-385 1375.2,-385"/>
<text text-anchor="middle" x="1421" y="-391" font-family="Helvetica,sans-Serif" font-size="10.00">code/om/null.cpp</text>
</a>
</g>
</g>
<!-- Node43&#45;&gt;Node44 -->
<g id="edge62" class="edge"><title>Node43&#45;&gt;Node44</title>
<path fill="none" stroke="midnightblue" d="M1414.55,-432.707C1413.89,-423.338 1414.33,-412.526 1415.87,-405.075"/>
<polygon fill="midnightblue" stroke="midnightblue" points="1411.09,-433.278 1415.83,-442.753 1418.04,-432.389 1411.09,-433.278"/>
</g>
<!-- Node44&#45;&gt;Node43 -->
<g id="edge63" class="edge"><title>Node44&#45;&gt;Node43</title>
<path fill="none" stroke="midnightblue" d="M1427.44,-415.078C1428.12,-424.424 1427.69,-435.25 1426.17,-442.753"/>
<polygon fill="midnightblue" stroke="midnightblue" points="1430.9,-414.538 1426.13,-405.075 1423.95,-415.444 1430.9,-414.538"/>
</g>
</g>
</svg>
