<?xml version="1.0" encoding="UTF-8" standalone="no"?>
<!DOCTYPE svg PUBLIC "-//W3C//DTD SVG 1.1//EN"
 "http://www.w3.org/Graphics/SVG/1.1/DTD/svg11.dtd">
<!-- Generated by graphviz version 2.30.1 (20130221.2233)
 -->
<!-- Title: code/om/default_copyable.hpp Pages: 1 -->
<svg width="418pt" height="204pt"
 viewBox="0.00 0.00 418.00 204.00" xmlns="http://www.w3.org/2000/svg" xmlns:xlink="http://www.w3.org/1999/xlink">
<g id="graph0" class="graph" transform="scale(1 1) rotate(0) translate(4 200)">
<title>code/om/default_copyable.hpp</title>
<!-- Node1 -->
<g id="node1" class="node"><title>Node1</title>
<polygon fill="#bfbfbf" stroke="black" points="257.895,-175 257.895,-195 410.105,-195 410.105,-175 257.895,-175"/>
<text text-anchor="middle" x="334" y="-181" font-family="Helvetica,sans-Serif" font-size="10.00">code/om/default_copyable.hpp</text>
</g>
<!-- Node2 -->
<g id="node2" class="node"><title>Node2</title>
<g id="a_node2"><a xlink:href="copyable_8hpp.html" target="_top" xlink:title="Om header file.">
<polygon fill="none" stroke="black" points="159.919,-117 159.919,-137 252.081,-137 252.081,-117 159.919,-117"/>
<text text-anchor="middle" x="206" y="-123" font-family="Helvetica,sans-Serif" font-size="10.00">om/copyable.hpp</text>
</a>
</g>
</g>
<!-- Node1&#45;&gt;Node2 -->
<g id="edge1" class="edge"><title>Node1&#45;&gt;Node2</title>
<path fill="none" stroke="midnightblue" d="M313.15,-174.878C292.23,-165.725 259.796,-151.536 236.09,-141.164"/>
<polygon fill="midnightblue" stroke="midnightblue" points="237.406,-137.92 226.841,-137.118 234.6,-144.333 237.406,-137.92"/>
</g>
<!-- Node7 -->
<g id="node7" class="node"><title>Node7</title>
<g id="a_node7"><a xlink:href="default__copyable_8cpp.html" target="_top" xlink:title="Om source file.">
<polygon fill="none" stroke="black" points="270.407,-117 270.407,-137 397.593,-137 397.593,-117 270.407,-117"/>
<text text-anchor="middle" x="334" y="-123" font-family="Helvetica,sans-Serif" font-size="10.00">om/default_copyable.cpp</text>
</a>
</g>
</g>
<!-- Node1&#45;&gt;Node7 -->
<g id="edge8" class="edge"><title>Node1&#45;&gt;Node7</title>
<path fill="none" stroke="midnightblue" d="M328.834,-174.753C327.308,-167.25 326.884,-156.424 327.564,-147.078"/>
<polygon fill="midnightblue" stroke="midnightblue" points="331.046,-147.444 328.869,-137.075 324.105,-146.538 331.046,-147.444"/>
</g>
<!-- Node3 -->
<g id="node3" class="node"><title>Node3</title>
<g id="a_node3"><a xlink:href="copy_8hpp.html" target="_top" xlink:title="Om header file.">
<polygon fill="none" stroke="black" points="69.7407,-59 69.7407,-79 142.259,-79 142.259,-59 69.7407,-59"/>
<text text-anchor="middle" x="106" y="-65" font-family="Helvetica,sans-Serif" font-size="10.00">om/copy.hpp</text>
</a>
</g>
</g>
<!-- Node2&#45;&gt;Node3 -->
<g id="edge2" class="edge"><title>Node2&#45;&gt;Node3</title>
<path fill="none" stroke="midnightblue" d="M189.487,-116.753C173.614,-107.864 149.409,-94.3092 131.142,-84.0793"/>
<polygon fill="midnightblue" stroke="midnightblue" points="132.641,-80.9075 122.206,-79.0752 129.221,-87.015 132.641,-80.9075"/>
</g>
<!-- Node6 -->
<g id="node6" class="node"><title>Node6</title>
<g id="a_node6"><a xlink:href="copyable_8cpp.html" target="_top" xlink:title="Om source file.">
<polygon fill="none" stroke="black" points="160.2,-59 160.2,-79 251.8,-79 251.8,-59 160.2,-59"/>
<text text-anchor="middle" x="206" y="-65" font-family="Helvetica,sans-Serif" font-size="10.00">om/copyable.cpp</text>
</a>
</g>
</g>
<!-- Node2&#45;&gt;Node6 -->
<g id="edge6" class="edge"><title>Node2&#45;&gt;Node6</title>
<path fill="none" stroke="midnightblue" d="M200.834,-116.753C199.308,-109.25 198.884,-98.4238 199.564,-89.0781"/>
<polygon fill="midnightblue" stroke="midnightblue" points="203.046,-89.4439 200.869,-79.0752 196.105,-88.5385 203.046,-89.4439"/>
</g>
<!-- Node4 -->
<g id="node4" class="node"><title>Node4</title>
<polygon fill="none" stroke="#bfbfbf" points="-0.0566406,-1 -0.0566406,-21 52.0566,-21 52.0566,-1 -0.0566406,-1"/>
<text text-anchor="middle" x="26" y="-7" font-family="Helvetica,sans-Serif" font-size="10.00">memory</text>
</g>
<!-- Node3&#45;&gt;Node4 -->
<g id="edge3" class="edge"><title>Node3&#45;&gt;Node4</title>
<path fill="none" stroke="midnightblue" d="M92.7896,-58.7527C80.4411,-50.1087 61.7883,-37.0518 47.3306,-26.9314"/>
<polygon fill="midnightblue" stroke="midnightblue" points="49.164,-23.9425 38.9646,-21.0752 45.1498,-29.6772 49.164,-23.9425"/>
</g>
<!-- Node5 -->
<g id="node5" class="node"><title>Node5</title>
<g id="a_node5"><a xlink:href="copy_8cpp.html" target="_top" xlink:title="Om source file.">
<polygon fill="none" stroke="black" points="70.0215,-1 70.0215,-21 141.979,-21 141.979,-1 70.0215,-1"/>
<text text-anchor="middle" x="106" y="-7" font-family="Helvetica,sans-Serif" font-size="10.00">om/copy.cpp</text>
</a>
</g>
</g>
<!-- Node3&#45;&gt;Node5 -->
<g id="edge4" class="edge"><title>Node3&#45;&gt;Node5</title>
<path fill="none" stroke="midnightblue" d="M100.834,-58.7527C99.3076,-51.2504 98.8844,-40.4238 99.5643,-31.0781"/>
<polygon fill="midnightblue" stroke="midnightblue" points="103.046,-31.4439 100.869,-21.0752 96.1049,-30.5385 103.046,-31.4439"/>
</g>
<!-- Node5&#45;&gt;Node3 -->
<g id="edge5" class="edge"><title>Node5&#45;&gt;Node3</title>
<path fill="none" stroke="midnightblue" d="M111.131,-21.0752C112.674,-28.5262 113.114,-39.3384 112.451,-48.7065"/>
<polygon fill="midnightblue" stroke="midnightblue" points="108.963,-48.3895 111.166,-58.7527 115.907,-49.2776 108.963,-48.3895"/>
</g>
<!-- Node6&#45;&gt;Node2 -->
<g id="edge7" class="edge"><title>Node6&#45;&gt;Node2</title>
<path fill="none" stroke="midnightblue" d="M211.131,-79.0752C212.674,-86.5262 213.114,-97.3384 212.451,-106.707"/>
<polygon fill="midnightblue" stroke="midnightblue" points="208.963,-106.389 211.166,-116.753 215.907,-107.278 208.963,-106.389"/>
</g>
<!-- Node7&#45;&gt;Node1 -->
<g id="edge9" class="edge"><title>Node7&#45;&gt;Node1</title>
<path fill="none" stroke="midnightblue" d="M339.131,-137.075C340.674,-144.526 341.114,-155.338 340.451,-164.707"/>
<polygon fill="midnightblue" stroke="midnightblue" points="336.963,-164.389 339.166,-174.753 343.907,-165.278 336.963,-164.389"/>
</g>
</g>
</svg>
