<?xml version="1.0" encoding="UTF-8" standalone="no"?>
<!DOCTYPE svg PUBLIC "-//W3C//DTD SVG 1.1//EN"
 "http://www.w3.org/Graphics/SVG/1.1/DTD/svg11.dtd">
<!-- Generated by graphviz version 2.30.1 (20130221.2233)
 -->
<!-- Title: om/default_program.cpp Pages: 1 -->
<svg width="1375pt" height="378pt"
 viewBox="0.00 0.00 1375.00 378.00" xmlns="http://www.w3.org/2000/svg" xmlns:xlink="http://www.w3.org/1999/xlink">
<g id="graph0" class="graph" transform="scale(1 1) rotate(0) translate(4 374)">
<title>om/default_program.cpp</title>
<!-- Node1 -->
<g id="node1" class="node"><title>Node1</title>
<polygon fill="#bfbfbf" stroke="black" points="206.803,-349 206.803,-369 331.197,-369 331.197,-349 206.803,-349"/>
<text text-anchor="middle" x="269" y="-355" font-family="Helvetica,sans-Serif" font-size="10.00">om/default_program.cpp</text>
</g>
<!-- Node2 -->
<g id="node2" class="node"><title>Node2</title>
<g id="a_node2"><a xlink:href="element_8hpp.html" target="_top" xlink:title="Om header file. ">
<polygon fill="none" stroke="black" points="86.1455,-291 86.1455,-311 173.854,-311 173.854,-291 86.1455,-291"/>
<text text-anchor="middle" x="130" y="-297" font-family="Helvetica,sans-Serif" font-size="10.00">om/element.hpp</text>
</a>
</g>
</g>
<!-- Node1&#45;&gt;Node2 -->
<g id="edge1" class="edge"><title>Node1&#45;&gt;Node2</title>
<path fill="none" stroke="midnightblue" d="M246.358,-348.878C223.438,-339.644 187.792,-325.283 161.992,-314.889"/>
<polygon fill="midnightblue" stroke="midnightblue" points="163.216,-311.609 152.632,-311.118 160.6,-318.102 163.216,-311.609"/>
</g>
<!-- Node24 -->
<g id="node24" class="node"><title>Node24</title>
<g id="a_node24"><a xlink:href="source_2source_8hpp.html" target="_top" xlink:title="Om header file. ">
<polygon fill="none" stroke="black" points="-0.470215,-117 -0.470215,-137 114.47,-137 114.47,-117 -0.470215,-117"/>
<text text-anchor="middle" x="57" y="-123" font-family="Helvetica,sans-Serif" font-size="10.00">om/source/source.hpp</text>
</a>
</g>
</g>
<!-- Node1&#45;&gt;Node24 -->
<g id="edge40" class="edge"><title>Node1&#45;&gt;Node24</title>
<path fill="none" stroke="midnightblue" d="M261.825,-348.984C254.604,-339.815 243.243,-325.129 234,-312 209.589,-277.324 210.172,-263.696 182,-232 149.985,-195.981 105.087,-161.756 78.7213,-142.947"/>
<polygon fill="midnightblue" stroke="midnightblue" points="80.7263,-140.078 70.5358,-137.179 76.6942,-145.801 80.7263,-140.078"/>
</g>
<!-- Node26 -->
<g id="node26" class="node"><title>Node26</title>
<polygon fill="none" stroke="#bfbfbf" points="243.488,-291 243.488,-311 294.512,-311 294.512,-291 243.488,-291"/>
<text text-anchor="middle" x="269" y="-297" font-family="Helvetica,sans-Serif" font-size="10.00">typeinfo</text>
</g>
<!-- Node1&#45;&gt;Node26 -->
<g id="edge45" class="edge"><title>Node1&#45;&gt;Node26</title>
<path fill="none" stroke="midnightblue" d="M269,-348.753C269,-341.25 269,-330.424 269,-321.078"/>
<polygon fill="midnightblue" stroke="midnightblue" points="272.5,-321.075 269,-311.075 265.5,-321.075 272.5,-321.075"/>
</g>
<!-- Node27 -->
<g id="node27" class="node"><title>Node27</title>
<g id="a_node27"><a xlink:href="default__program_8hpp.html" target="_top" xlink:title="Om header file. ">
<polygon fill="none" stroke="black" points="465.522,-291 465.522,-311 590.478,-311 590.478,-291 465.522,-291"/>
<text text-anchor="middle" x="528" y="-297" font-family="Helvetica,sans-Serif" font-size="10.00">om/default_program.hpp</text>
</a>
</g>
</g>
<!-- Node1&#45;&gt;Node27 -->
<g id="edge46" class="edge"><title>Node1&#45;&gt;Node27</title>
<path fill="none" stroke="midnightblue" d="M305.773,-348.94C348.887,-339.181 420.626,-323.642 470.954,-313.141"/>
<polygon fill="midnightblue" stroke="midnightblue" points="471.956,-316.508 481.034,-311.047 470.531,-309.655 471.956,-316.508"/>
</g>
<!-- Node3 -->
<g id="node3" class="node"><title>Node3</title>
<g id="a_node3"><a xlink:href="program_8hpp.html" target="_top" xlink:title="Om header file. ">
<polygon fill="none" stroke="black" points="381.315,-233 381.315,-253 470.685,-253 470.685,-233 381.315,-233"/>
<text text-anchor="middle" x="426" y="-239" font-family="Helvetica,sans-Serif" font-size="10.00">om/program.hpp</text>
</a>
</g>
</g>
<!-- Node2&#45;&gt;Node3 -->
<g id="edge2" class="edge"><title>Node2&#45;&gt;Node3</title>
<path fill="none" stroke="midnightblue" d="M173.995,-291.677C226.561,-281.732 314.523,-265.09 371.387,-254.332"/>
<polygon fill="midnightblue" stroke="midnightblue" points="372.104,-257.759 381.279,-252.461 370.802,-250.881 372.104,-257.759"/>
</g>
<!-- Node23 -->
<g id="node23" class="node"><title>Node23</title>
<g id="a_node23"><a xlink:href="element_8cpp.html" target="_top" xlink:title="Om source file. ">
<polygon fill="none" stroke="black" points="86.4263,-233 86.4263,-253 173.574,-253 173.574,-233 86.4263,-233"/>
<text text-anchor="middle" x="130" y="-239" font-family="Helvetica,sans-Serif" font-size="10.00">om/element.cpp</text>
</a>
</g>
</g>
<!-- Node2&#45;&gt;Node23 -->
<g id="edge38" class="edge"><title>Node2&#45;&gt;Node23</title>
<path fill="none" stroke="midnightblue" d="M124.834,-290.753C123.308,-283.25 122.884,-272.424 123.564,-263.078"/>
<polygon fill="midnightblue" stroke="midnightblue" points="127.046,-263.444 124.869,-253.075 120.105,-262.538 127.046,-263.444"/>
</g>
<!-- Node4 -->
<g id="node4" class="node"><title>Node4</title>
<g id="a_node4"><a xlink:href="consumer_8hpp.html" target="_top" xlink:title="Om header file. ">
<polygon fill="none" stroke="black" points="450.254,-175 450.254,-195 545.746,-195 545.746,-175 450.254,-175"/>
<text text-anchor="middle" x="498" y="-181" font-family="Helvetica,sans-Serif" font-size="10.00">om/consumer.hpp</text>
</a>
</g>
</g>
<!-- Node3&#45;&gt;Node4 -->
<g id="edge3" class="edge"><title>Node3&#45;&gt;Node4</title>
<path fill="none" stroke="midnightblue" d="M437.889,-232.753C448.898,-224.19 465.474,-211.298 478.433,-201.219"/>
<polygon fill="midnightblue" stroke="midnightblue" points="480.587,-203.977 486.332,-195.075 476.29,-198.452 480.587,-203.977"/>
</g>
<!-- Node8 -->
<g id="node8" class="node"><title>Node8</title>
<g id="a_node8"><a xlink:href="giveable_8hpp.html" target="_top" xlink:title="Om header file. ">
<polygon fill="none" stroke="black" points="750.308,-175 750.308,-195 839.692,-195 839.692,-175 750.308,-175"/>
<text text-anchor="middle" x="795" y="-181" font-family="Helvetica,sans-Serif" font-size="10.00">om/giveable.hpp</text>
</a>
</g>
</g>
<!-- Node3&#45;&gt;Node8 -->
<g id="edge8" class="edge"><title>Node3&#45;&gt;Node8</title>
<path fill="none" stroke="midnightblue" d="M470.944,-235.985C530.223,-227.931 638.029,-212.866 740.351,-196.058"/>
<polygon fill="midnightblue" stroke="midnightblue" points="740.938,-199.508 750.234,-194.426 739.797,-192.602 740.938,-199.508"/>
</g>
<!-- Node15 -->
<g id="node15" class="node"><title>Node15</title>
<g id="a_node15"><a xlink:href="producer_8hpp.html" target="_top" xlink:title="Om header file. ">
<polygon fill="none" stroke="black" points="535.473,-117 535.473,-137 626.527,-137 626.527,-117 535.473,-117"/>
<text text-anchor="middle" x="581" y="-123" font-family="Helvetica,sans-Serif" font-size="10.00">om/producer.hpp</text>
</a>
</g>
</g>
<!-- Node3&#45;&gt;Node15 -->
<g id="edge23" class="edge"><title>Node3&#45;&gt;Node15</title>
<path fill="none" stroke="midnightblue" d="M470.927,-235.403C498.015,-229.314 531.514,-217.756 554,-196 567.516,-182.922 574.429,-162.225 577.856,-147.097"/>
<polygon fill="midnightblue" stroke="midnightblue" points="581.297,-147.74 579.78,-137.254 574.427,-146.397 581.297,-147.74"/>
</g>
<!-- Node17 -->
<g id="node17" class="node"><title>Node17</title>
<g id="a_node17"><a xlink:href="shareable_8hpp.html" target="_top" xlink:title="Om header file. ">
<polygon fill="none" stroke="black" points="229.973,-175 229.973,-195 326.027,-195 326.027,-175 229.973,-175"/>
<text text-anchor="middle" x="278" y="-181" font-family="Helvetica,sans-Serif" font-size="10.00">om/shareable.hpp</text>
</a>
</g>
</g>
<!-- Node3&#45;&gt;Node17 -->
<g id="edge29" class="edge"><title>Node3&#45;&gt;Node17</title>
<path fill="none" stroke="midnightblue" d="M401.892,-232.878C377.38,-223.603 339.199,-209.156 311.7,-198.752"/>
<polygon fill="midnightblue" stroke="midnightblue" points="312.689,-195.384 302.098,-195.118 310.212,-201.931 312.689,-195.384"/>
</g>
<!-- Node22 -->
<g id="node22" class="node"><title>Node22</title>
<g id="a_node22"><a xlink:href="program_8cpp.html" target="_top" xlink:title="Om source file. ">
<polygon fill="none" stroke="black" points="343.596,-175 343.596,-195 432.404,-195 432.404,-175 343.596,-175"/>
<text text-anchor="middle" x="388" y="-181" font-family="Helvetica,sans-Serif" font-size="10.00">om/program.cpp</text>
</a>
</g>
</g>
<!-- Node3&#45;&gt;Node22 -->
<g id="edge36" class="edge"><title>Node3&#45;&gt;Node22</title>
<path fill="none" stroke="midnightblue" d="M414.559,-232.753C407.726,-225.006 399.664,-213.714 393.963,-204.169"/>
<polygon fill="midnightblue" stroke="midnightblue" points="396.874,-202.194 389.027,-195.075 390.722,-205.534 396.874,-202.194"/>
</g>
<!-- Node5 -->
<g id="node5" class="node"><title>Node5</title>
<g id="a_node5"><a xlink:href="consumer_8cpp.html" target="_top" xlink:title="Om source file. ">
<polygon fill="none" stroke="black" points="459.535,-59 459.535,-79 554.465,-79 554.465,-59 459.535,-59"/>
<text text-anchor="middle" x="507" y="-65" font-family="Helvetica,sans-Serif" font-size="10.00">om/consumer.cpp</text>
</a>
</g>
</g>
<!-- Node4&#45;&gt;Node5 -->
<g id="edge4" class="edge"><title>Node4&#45;&gt;Node5</title>
<path fill="none" stroke="midnightblue" d="M494.825,-174.671C493.004,-156.041 495.903,-113.898 500.291,-89.1428"/>
<polygon fill="midnightblue" stroke="midnightblue" points="503.762,-89.6464 502.4,-79.1394 496.912,-88.202 503.762,-89.6464"/>
</g>
<!-- Node6 -->
<g id="node6" class="node"><title>Node6</title>
<polygon fill="none" stroke="#bfbfbf" points="593.884,-1 593.884,-21 642.116,-21 642.116,-1 593.884,-1"/>
<text text-anchor="middle" x="618" y="-7" font-family="Helvetica,sans-Serif" font-size="10.00">cassert</text>
</g>
<!-- Node5&#45;&gt;Node6 -->
<g id="edge5" class="edge"><title>Node5&#45;&gt;Node6</title>
<path fill="none" stroke="midnightblue" d="M525.329,-58.7527C543.19,-49.7418 570.557,-35.9353 590.926,-25.6589"/>
<polygon fill="midnightblue" stroke="midnightblue" points="592.66,-28.7044 600.012,-21.0752 589.507,-22.4547 592.66,-28.7044"/>
</g>
<!-- Node7 -->
<g id="node7" class="node"><title>Node7</title>
<polygon fill="none" stroke="#bfbfbf" points="496.599,-1 496.599,-21 555.401,-21 555.401,-1 496.599,-1"/>
<text text-anchor="middle" x="526" y="-7" font-family="Helvetica,sans-Serif" font-size="10.00">stdexcept</text>
</g>
<!-- Node5&#45;&gt;Node7 -->
<g id="edge6" class="edge"><title>Node5&#45;&gt;Node7</title>
<path fill="none" stroke="midnightblue" d="M510.137,-58.7527C512.711,-51.1689 516.436,-40.1881 519.63,-30.7739"/>
<polygon fill="midnightblue" stroke="midnightblue" points="523.022,-31.6695 522.921,-21.0752 516.393,-29.4204 523.022,-31.6695"/>
</g>
<!-- Node5&#45;&gt;Node4 -->
<g id="edge7" class="edge"><title>Node5&#45;&gt;Node4</title>
<path fill="none" stroke="midnightblue" d="M510.157,-79.1394C512.009,-97.6088 509.132,-139.731 504.754,-164.603"/>
<polygon fill="midnightblue" stroke="midnightblue" points="501.27,-164.166 502.648,-174.671 508.121,-165.599 501.27,-164.166"/>
</g>
<!-- Node9 -->
<g id="node9" class="node"><title>Node9</title>
<g id="a_node9"><a xlink:href="copyable_8hpp.html" target="_top" xlink:title="Om header file. ">
<polygon fill="none" stroke="black" points="864.919,-117 864.919,-137 957.081,-137 957.081,-117 864.919,-117"/>
<text text-anchor="middle" x="911" y="-123" font-family="Helvetica,sans-Serif" font-size="10.00">om/copyable.hpp</text>
</a>
</g>
</g>
<!-- Node8&#45;&gt;Node9 -->
<g id="edge9" class="edge"><title>Node8&#45;&gt;Node9</title>
<path fill="none" stroke="midnightblue" d="M813.896,-174.878C832.602,-165.847 861.466,-151.913 882.868,-141.581"/>
<polygon fill="midnightblue" stroke="midnightblue" points="884.629,-144.618 892.113,-137.118 881.585,-138.314 884.629,-144.618"/>
</g>
<!-- Node12 -->
<g id="node12" class="node"><title>Node12</title>
<g id="a_node12"><a xlink:href="moveable_8hpp.html" target="_top" xlink:title="Om header file. ">
<polygon fill="none" stroke="black" points="751.254,-117 751.254,-137 846.746,-137 846.746,-117 751.254,-117"/>
<text text-anchor="middle" x="799" y="-123" font-family="Helvetica,sans-Serif" font-size="10.00">om/moveable.hpp</text>
</a>
</g>
</g>
<!-- Node8&#45;&gt;Node12 -->
<g id="edge15" class="edge"><title>Node8&#45;&gt;Node12</title>
<path fill="none" stroke="midnightblue" d="M795.661,-174.753C796.196,-167.25 796.97,-156.424 797.637,-147.078"/>
<polygon fill="midnightblue" stroke="midnightblue" points="801.13,-147.299 798.352,-137.075 794.148,-146.8 801.13,-147.299"/>
</g>
<!-- Node14 -->
<g id="node14" class="node"><title>Node14</title>
<g id="a_node14"><a xlink:href="giveable_8cpp.html" target="_top" xlink:title="Om source file. ">
<polygon fill="none" stroke="black" points="644.589,-117 644.589,-137 733.411,-137 733.411,-117 644.589,-117"/>
<text text-anchor="middle" x="689" y="-123" font-family="Helvetica,sans-Serif" font-size="10.00">om/giveable.cpp</text>
</a>
</g>
</g>
<!-- Node8&#45;&gt;Node14 -->
<g id="edge21" class="edge"><title>Node8&#45;&gt;Node14</title>
<path fill="none" stroke="midnightblue" d="M772.593,-174.878C753.98,-166.01 727.973,-152.414 709.817,-142.143"/>
<polygon fill="midnightblue" stroke="midnightblue" points="711.529,-139.09 701.119,-137.118 708.027,-145.151 711.529,-139.09"/>
</g>
<!-- Node10 -->
<g id="node10" class="node"><title>Node10</title>
<polygon fill="none" stroke="#bfbfbf" points="680.943,-59 680.943,-79 733.057,-79 733.057,-59 680.943,-59"/>
<text text-anchor="middle" x="707" y="-65" font-family="Helvetica,sans-Serif" font-size="10.00">memory</text>
</g>
<!-- Node9&#45;&gt;Node10 -->
<g id="edge10" class="edge"><title>Node9&#45;&gt;Node10</title>
<path fill="none" stroke="midnightblue" d="M877.839,-116.959C843.945,-107.709 789.789,-92.904 743,-80 742.902,-79.9731 742.804,-79.9461 742.706,-79.919"/>
<polygon fill="midnightblue" stroke="midnightblue" points="743.914,-76.6217 733.343,-77.3295 742.048,-83.3685 743.914,-76.6217"/>
</g>
<!-- Node11 -->
<g id="node11" class="node"><title>Node11</title>
<g id="a_node11"><a xlink:href="copyable_8cpp.html" target="_top" xlink:title="Om source file. ">
<polygon fill="none" stroke="black" points="864.2,-59 864.2,-79 955.8,-79 955.8,-59 864.2,-59"/>
<text text-anchor="middle" x="910" y="-65" font-family="Helvetica,sans-Serif" font-size="10.00">om/copyable.cpp</text>
</a>
</g>
</g>
<!-- Node9&#45;&gt;Node11 -->
<g id="edge11" class="edge"><title>Node9&#45;&gt;Node11</title>
<path fill="none" stroke="midnightblue" d="M905.669,-116.753C904.008,-109.25 903.392,-98.4238 903.905,-89.0781"/>
<polygon fill="midnightblue" stroke="midnightblue" points="907.39,-89.404 905.031,-79.0752 900.434,-88.6208 907.39,-89.404"/>
</g>
<!-- Node11&#45;&gt;Node6 -->
<g id="edge12" class="edge"><title>Node11&#45;&gt;Node6</title>
<path fill="none" stroke="midnightblue" d="M864.054,-59.1884C805.181,-47.8977 704.487,-28.5865 652.031,-18.5265"/>
<polygon fill="midnightblue" stroke="midnightblue" points="652.69,-15.0892 642.21,-16.643 651.371,-21.9639 652.69,-15.0892"/>
</g>
<!-- Node11&#45;&gt;Node7 -->
<g id="edge13" class="edge"><title>Node11&#45;&gt;Node7</title>
<path fill="none" stroke="midnightblue" d="M864.112,-59.4891C861.031,-58.9694 857.972,-58.468 855,-58 735.412,-39.1666 704.699,-40.1181 585,-22 578.731,-21.0511 572.097,-19.9862 565.63,-18.9147"/>
<polygon fill="midnightblue" stroke="midnightblue" points="566.121,-15.4483 555.679,-17.241 564.96,-22.3513 566.121,-15.4483"/>
</g>
<!-- Node11&#45;&gt;Node9 -->
<g id="edge14" class="edge"><title>Node11&#45;&gt;Node9</title>
<path fill="none" stroke="midnightblue" d="M915.293,-79.0752C916.969,-86.5262 917.602,-97.3384 917.107,-106.707"/>
<polygon fill="midnightblue" stroke="midnightblue" points="913.616,-106.43 916.001,-116.753 920.574,-107.196 913.616,-106.43"/>
</g>
<!-- Node12&#45;&gt;Node10 -->
<g id="edge16" class="edge"><title>Node12&#45;&gt;Node10</title>
<path fill="none" stroke="midnightblue" d="M783.808,-116.753C769.339,-107.946 747.345,-94.5575 730.594,-84.3617"/>
<polygon fill="midnightblue" stroke="midnightblue" points="732.271,-81.285 721.909,-79.0752 728.631,-87.2644 732.271,-81.285"/>
</g>
<!-- Node13 -->
<g id="node13" class="node"><title>Node13</title>
<g id="a_node13"><a xlink:href="moveable_8cpp.html" target="_top" xlink:title="Om source file. ">
<polygon fill="none" stroke="black" points="751.535,-59 751.535,-79 846.465,-79 846.465,-59 751.535,-59"/>
<text text-anchor="middle" x="799" y="-65" font-family="Helvetica,sans-Serif" font-size="10.00">om/moveable.cpp</text>
</a>
</g>
</g>
<!-- Node12&#45;&gt;Node13 -->
<g id="edge17" class="edge"><title>Node12&#45;&gt;Node13</title>
<path fill="none" stroke="midnightblue" d="M793.834,-116.753C792.308,-109.25 791.884,-98.4238 792.564,-89.0781"/>
<polygon fill="midnightblue" stroke="midnightblue" points="796.046,-89.4439 793.869,-79.0752 789.105,-88.5385 796.046,-89.4439"/>
</g>
<!-- Node13&#45;&gt;Node6 -->
<g id="edge18" class="edge"><title>Node13&#45;&gt;Node6</title>
<path fill="none" stroke="midnightblue" d="M769.516,-58.878C737.38,-48.9352 686.029,-33.0476 652.16,-22.5688"/>
<polygon fill="midnightblue" stroke="midnightblue" points="652.838,-19.115 642.25,-19.5029 650.769,-25.8023 652.838,-19.115"/>
</g>
<!-- Node13&#45;&gt;Node7 -->
<g id="edge19" class="edge"><title>Node13&#45;&gt;Node7</title>
<path fill="none" stroke="midnightblue" d="M754.834,-58.9404C702.456,-48.1961 615.931,-30.4473 565.626,-20.1284"/>
<polygon fill="midnightblue" stroke="midnightblue" points="566.267,-16.6871 555.768,-18.1062 564.86,-23.5443 566.267,-16.6871"/>
</g>
<!-- Node13&#45;&gt;Node12 -->
<g id="edge20" class="edge"><title>Node13&#45;&gt;Node12</title>
<path fill="none" stroke="midnightblue" d="M804.131,-79.0752C805.674,-86.5262 806.114,-97.3384 805.451,-106.707"/>
<polygon fill="midnightblue" stroke="midnightblue" points="801.963,-106.389 804.166,-116.753 808.907,-107.278 801.963,-106.389"/>
</g>
<!-- Node14&#45;&gt;Node8 -->
<g id="edge22" class="edge"><title>Node14&#45;&gt;Node8</title>
<path fill="none" stroke="midnightblue" d="M711.309,-137.075C729.847,-145.903 755.767,-159.449 773.944,-169.722"/>
<polygon fill="midnightblue" stroke="midnightblue" points="772.252,-172.786 782.663,-174.753 775.75,-166.723 772.252,-172.786"/>
</g>
<!-- Node15&#45;&gt;Node10 -->
<g id="edge24" class="edge"><title>Node15&#45;&gt;Node10</title>
<path fill="none" stroke="midnightblue" d="M601.525,-116.878C622.026,-107.766 653.761,-93.6617 677.069,-83.3028"/>
<polygon fill="midnightblue" stroke="midnightblue" points="678.768,-86.3779 686.484,-79.1181 675.925,-79.9812 678.768,-86.3779"/>
</g>
<!-- Node16 -->
<g id="node16" class="node"><title>Node16</title>
<g id="a_node16"><a xlink:href="producer_8cpp.html" target="_top" xlink:title="Om source file. ">
<polygon fill="none" stroke="black" points="572.754,-59 572.754,-79 663.246,-79 663.246,-59 572.754,-59"/>
<text text-anchor="middle" x="618" y="-65" font-family="Helvetica,sans-Serif" font-size="10.00">om/producer.cpp</text>
</a>
</g>
</g>
<!-- Node15&#45;&gt;Node16 -->
<g id="edge25" class="edge"><title>Node15&#45;&gt;Node16</title>
<path fill="none" stroke="midnightblue" d="M581.943,-116.753C585.635,-108.68 593.148,-96.7571 600.525,-86.9727"/>
<polygon fill="midnightblue" stroke="midnightblue" points="603.336,-89.0621 606.873,-79.0752 597.88,-84.6764 603.336,-89.0621"/>
</g>
<!-- Node16&#45;&gt;Node6 -->
<g id="edge26" class="edge"><title>Node16&#45;&gt;Node6</title>
<path fill="none" stroke="midnightblue" d="M618,-58.7527C618,-51.2504 618,-40.4238 618,-31.0781"/>
<polygon fill="midnightblue" stroke="midnightblue" points="621.5,-31.0752 618,-21.0752 614.5,-31.0752 621.5,-31.0752"/>
</g>
<!-- Node16&#45;&gt;Node7 -->
<g id="edge27" class="edge"><title>Node16&#45;&gt;Node7</title>
<path fill="none" stroke="midnightblue" d="M602.808,-58.7527C588.339,-49.9457 566.345,-36.5575 549.594,-26.3617"/>
<polygon fill="midnightblue" stroke="midnightblue" points="551.271,-23.285 540.909,-21.0752 547.631,-29.2644 551.271,-23.285"/>
</g>
<!-- Node16&#45;&gt;Node15 -->
<g id="edge28" class="edge"><title>Node16&#45;&gt;Node15</title>
<path fill="none" stroke="midnightblue" d="M617.135,-79.0752C613.498,-87.0932 606.012,-99.0032 598.633,-108.818"/>
<polygon fill="midnightblue" stroke="midnightblue" points="595.797,-106.76 592.276,-116.753 601.26,-111.137 595.797,-106.76"/>
</g>
<!-- Node18 -->
<g id="node18" class="node"><title>Node18</title>
<polygon fill="none" stroke="#bfbfbf" points="322.879,-117 322.879,-137 371.121,-137 371.121,-117 322.879,-117"/>
<text text-anchor="middle" x="347" y="-123" font-family="Helvetica,sans-Serif" font-size="10.00">cstddef</text>
</g>
<!-- Node17&#45;&gt;Node18 -->
<g id="edge30" class="edge"><title>Node17&#45;&gt;Node18</title>
<path fill="none" stroke="midnightblue" d="M289.394,-174.753C299.844,-166.272 315.527,-153.543 327.893,-143.507"/>
<polygon fill="midnightblue" stroke="midnightblue" points="330.259,-146.095 335.818,-137.075 325.848,-140.659 330.259,-146.095"/>
</g>
<!-- Node19 -->
<g id="node19" class="node"><title>Node19</title>
<g id="a_node19"><a xlink:href="shareable_8cpp.html" target="_top" xlink:title="Om source file. ">
<polygon fill="none" stroke="black" points="209.254,-117 209.254,-137 304.746,-137 304.746,-117 209.254,-117"/>
<text text-anchor="middle" x="257" y="-123" font-family="Helvetica,sans-Serif" font-size="10.00">om/shareable.cpp</text>
</a>
</g>
</g>
<!-- Node17&#45;&gt;Node19 -->
<g id="edge31" class="edge"><title>Node17&#45;&gt;Node19</title>
<path fill="none" stroke="midnightblue" d="M269.366,-174.753C265.026,-167.25 260.543,-156.424 257.719,-147.078"/>
<polygon fill="midnightblue" stroke="midnightblue" points="261.048,-145.957 255.272,-137.075 254.248,-147.62 261.048,-145.957"/>
</g>
<!-- Node19&#45;&gt;Node7 -->
<g id="edge32" class="edge"><title>Node19&#45;&gt;Node7</title>
<path fill="none" stroke="midnightblue" d="M224.002,-116.95C187.904,-105.483 138.035,-84.0413 161,-58 182.283,-33.8665 396.238,-19.2235 486.337,-14.0842"/>
<polygon fill="midnightblue" stroke="midnightblue" points="486.649,-17.5723 496.437,-13.5184 486.257,-10.5833 486.649,-17.5723"/>
</g>
<!-- Node20 -->
<g id="node20" class="node"><title>Node20</title>
<polygon fill="none" stroke="#bfbfbf" points="169.621,-59 169.621,-79 302.379,-79 302.379,-59 169.621,-59"/>
<text text-anchor="middle" x="236" y="-65" font-family="Helvetica,sans-Serif" font-size="10.00">boost/checked_delete.hpp</text>
</g>
<!-- Node19&#45;&gt;Node20 -->
<g id="edge33" class="edge"><title>Node19&#45;&gt;Node20</title>
<path fill="none" stroke="midnightblue" d="M253.532,-116.753C250.658,-109.087 246.482,-97.9515 242.927,-88.4708"/>
<polygon fill="midnightblue" stroke="midnightblue" points="246.192,-87.2095 239.403,-79.0752 239.637,-89.6674 246.192,-87.2095"/>
</g>
<!-- Node21 -->
<g id="node21" class="node"><title>Node21</title>
<polygon fill="none" stroke="#bfbfbf" points="320.744,-59 320.744,-79 441.256,-79 441.256,-59 320.744,-59"/>
<text text-anchor="middle" x="381" y="-65" font-family="Helvetica,sans-Serif" font-size="10.00">boost/integer_traits.hpp</text>
</g>
<!-- Node19&#45;&gt;Node21 -->
<g id="edge34" class="edge"><title>Node19&#45;&gt;Node21</title>
<path fill="none" stroke="midnightblue" d="M277.199,-116.878C297.375,-107.766 328.606,-93.6617 351.544,-83.3028"/>
<polygon fill="midnightblue" stroke="midnightblue" points="353.137,-86.4238 360.81,-79.1181 350.256,-80.0442 353.137,-86.4238"/>
</g>
<!-- Node19&#45;&gt;Node17 -->
<g id="edge35" class="edge"><title>Node19&#45;&gt;Node17</title>
<path fill="none" stroke="midnightblue" d="M265.534,-137.075C269.919,-144.607 274.464,-155.574 277.308,-165.012"/>
<polygon fill="midnightblue" stroke="midnightblue" points="273.916,-165.875 279.699,-174.753 280.715,-164.207 273.916,-165.875"/>
</g>
<!-- Node22&#45;&gt;Node3 -->
<g id="edge37" class="edge"><title>Node22&#45;&gt;Node3</title>
<path fill="none" stroke="midnightblue" d="M399.289,-195.075C406.175,-202.85 414.344,-214.285 420.09,-223.92"/>
<polygon fill="midnightblue" stroke="midnightblue" points="417.04,-225.639 424.891,-232.753 423.19,-222.295 417.04,-225.639"/>
</g>
<!-- Node23&#45;&gt;Node2 -->
<g id="edge39" class="edge"><title>Node23&#45;&gt;Node2</title>
<path fill="none" stroke="midnightblue" d="M135.131,-253.075C136.674,-260.526 137.114,-271.338 136.451,-280.707"/>
<polygon fill="midnightblue" stroke="midnightblue" points="132.963,-280.389 135.166,-290.753 139.907,-281.278 132.963,-280.389"/>
</g>
<!-- Node25 -->
<g id="node25" class="node"><title>Node25</title>
<g id="a_node25"><a xlink:href="source_2source_8cpp.html" target="_top" xlink:title="Om source file. ">
<polygon fill="none" stroke="black" points="-0.189453,-59 -0.189453,-79 114.189,-79 114.189,-59 -0.189453,-59"/>
<text text-anchor="middle" x="57" y="-65" font-family="Helvetica,sans-Serif" font-size="10.00">om/source/source.cpp</text>
</a>
</g>
</g>
<!-- Node24&#45;&gt;Node25 -->
<g id="edge41" class="edge"><title>Node24&#45;&gt;Node25</title>
<path fill="none" stroke="midnightblue" d="M51.8337,-116.753C50.3076,-109.25 49.8844,-98.4238 50.5643,-89.0781"/>
<polygon fill="midnightblue" stroke="midnightblue" points="54.0461,-89.4439 51.869,-79.0752 47.1049,-88.5385 54.0461,-89.4439"/>
</g>
<!-- Node25&#45;&gt;Node6 -->
<g id="edge42" class="edge"><title>Node25&#45;&gt;Node6</title>
<path fill="none" stroke="midnightblue" d="M114.21,-62.4289C129.416,-60.9673 145.828,-59.407 161,-58 340.056,-41.3942 385.839,-46.399 564,-22 570.385,-21.1256 577.163,-20.0158 583.681,-18.8558"/>
<polygon fill="midnightblue" stroke="midnightblue" points="584.42,-22.2786 593.616,-17.0184 583.147,-15.3954 584.42,-22.2786"/>
</g>
<!-- Node25&#45;&gt;Node7 -->
<g id="edge43" class="edge"><title>Node25&#45;&gt;Node7</title>
<path fill="none" stroke="midnightblue" d="M114.335,-59.8001C118.956,-59.1771 123.555,-58.5698 128,-58 258.92,-41.2172 414.431,-24.0403 486.144,-16.2748"/>
<polygon fill="midnightblue" stroke="midnightblue" points="486.945,-19.7087 496.511,-15.1546 486.193,-12.7492 486.945,-19.7087"/>
</g>
<!-- Node25&#45;&gt;Node24 -->
<g id="edge44" class="edge"><title>Node25&#45;&gt;Node24</title>
<path fill="none" stroke="midnightblue" d="M62.131,-79.0752C63.674,-86.5262 64.1141,-97.3384 63.4512,-106.707"/>
<polygon fill="midnightblue" stroke="midnightblue" points="59.9633,-106.389 62.1663,-116.753 66.9067,-107.278 59.9633,-106.389"/>
</g>
<!-- Node28 -->
<g id="node28" class="node"><title>Node28</title>
<g id="a_node28"><a xlink:href="default__consumer_8hpp.html" target="_top" xlink:title="Om header file. ">
<polygon fill="none" stroke="black" points="526.461,-233 526.461,-253 657.539,-253 657.539,-233 526.461,-233"/>
<text text-anchor="middle" x="592" y="-239" font-family="Helvetica,sans-Serif" font-size="10.00">om/default_consumer.hpp</text>
</a>
</g>
</g>
<!-- Node27&#45;&gt;Node28 -->
<g id="edge47" class="edge"><title>Node27&#45;&gt;Node28</title>
<path fill="none" stroke="midnightblue" d="M538.568,-290.753C548.168,-282.353 562.529,-269.787 573.946,-259.798"/>
<polygon fill="midnightblue" stroke="midnightblue" points="576.407,-262.294 581.628,-253.075 571.798,-257.026 576.407,-262.294"/>
</g>
<!-- Node30 -->
<g id="node30" class="node"><title>Node30</title>
<g id="a_node30"><a xlink:href="default__giveable_8hpp.html" target="_top" xlink:title="Om header file. ">
<polygon fill="none" stroke="black" points="933.515,-233 933.515,-253 1058.48,-253 1058.48,-233 933.515,-233"/>
<text text-anchor="middle" x="996" y="-239" font-family="Helvetica,sans-Serif" font-size="10.00">om/default_giveable.hpp</text>
</a>
</g>
</g>
<!-- Node27&#45;&gt;Node30 -->
<g id="edge52" class="edge"><title>Node27&#45;&gt;Node30</title>
<path fill="none" stroke="midnightblue" d="M590.631,-292.506C676.938,-282.178 832.094,-263.613 923.377,-252.69"/>
<polygon fill="midnightblue" stroke="midnightblue" points="923.853,-256.158 933.367,-251.495 923.022,-249.208 923.853,-256.158"/>
</g>
<!-- Node27&#45;&gt;Node3 -->
<g id="edge64" class="edge"><title>Node27&#45;&gt;Node3</title>
<path fill="none" stroke="midnightblue" d="M511.157,-290.753C494.892,-281.823 470.051,-268.185 451.388,-257.939"/>
<polygon fill="midnightblue" stroke="midnightblue" points="452.98,-254.82 442.53,-253.075 449.611,-260.956 452.98,-254.82"/>
</g>
<!-- Node36 -->
<g id="node36" class="node"><title>Node36</title>
<g id="a_node36"><a xlink:href="taker_8hpp.html" target="_top" xlink:title="Om header file. ">
<polygon fill="none" stroke="black" points="1294.09,-233 1294.09,-253 1367.91,-253 1367.91,-233 1294.09,-233"/>
<text text-anchor="middle" x="1331" y="-239" font-family="Helvetica,sans-Serif" font-size="10.00">om/taker.hpp</text>
</a>
</g>
</g>
<!-- Node27&#45;&gt;Node36 -->
<g id="edge65" class="edge"><title>Node27&#45;&gt;Node36</title>
<path fill="none" stroke="midnightblue" d="M590.676,-295.629C745.903,-284.804 1145.6,-256.93 1283.43,-247.317"/>
<polygon fill="midnightblue" stroke="midnightblue" points="1283.93,-250.791 1293.66,-246.604 1283.44,-243.808 1283.93,-250.791"/>
</g>
<!-- Node27&#45;&gt;Node1 -->
<g id="edge68" class="edge"><title>Node27&#45;&gt;Node1</title>
<path fill="none" stroke="midnightblue" d="M491.285,-311.047C448.196,-320.801 376.461,-336.34 326.113,-346.845"/>
<polygon fill="midnightblue" stroke="midnightblue" points="325.107,-343.479 316.028,-348.94 326.531,-350.332 325.107,-343.479"/>
</g>
<!-- Node28&#45;&gt;Node4 -->
<g id="edge48" class="edge"><title>Node28&#45;&gt;Node4</title>
<path fill="none" stroke="midnightblue" d="M576.478,-232.753C561.694,-223.946 539.222,-210.558 522.107,-200.362"/>
<polygon fill="midnightblue" stroke="midnightblue" points="523.616,-197.186 513.233,-195.075 520.033,-203.2 523.616,-197.186"/>
</g>
<!-- Node29 -->
<g id="node29" class="node"><title>Node29</title>
<g id="a_node29"><a xlink:href="default__consumer_8cpp.html" target="_top" xlink:title="Om source file. ">
<polygon fill="none" stroke="black" points="601.742,-175 601.742,-195 732.258,-195 732.258,-175 601.742,-175"/>
<text text-anchor="middle" x="667" y="-181" font-family="Helvetica,sans-Serif" font-size="10.00">om/default_consumer.cpp</text>
</a>
</g>
</g>
<!-- Node28&#45;&gt;Node29 -->
<g id="edge49" class="edge"><title>Node28&#45;&gt;Node29</title>
<path fill="none" stroke="midnightblue" d="M599.218,-232.753C609.129,-224.027 626.555,-210.805 641.37,-200.646"/>
<polygon fill="midnightblue" stroke="midnightblue" points="643.341,-203.538 649.715,-195.075 639.454,-197.716 643.341,-203.538"/>
</g>
<!-- Node29&#45;&gt;Node15 -->
<g id="edge50" class="edge"><title>Node29&#45;&gt;Node15</title>
<path fill="none" stroke="midnightblue" d="M652.799,-174.753C639.399,-166.027 619.093,-152.805 603.492,-142.646"/>
<polygon fill="midnightblue" stroke="midnightblue" points="605.227,-139.599 594.937,-137.075 601.407,-145.465 605.227,-139.599"/>
</g>
<!-- Node29&#45;&gt;Node28 -->
<g id="edge51" class="edge"><title>Node29&#45;&gt;Node28</title>
<path fill="none" stroke="midnightblue" d="M659.977,-195.075C650.165,-203.741 632.773,-216.953 617.924,-227.153"/>
<polygon fill="midnightblue" stroke="midnightblue" points="615.917,-224.284 609.551,-232.753 619.809,-230.102 615.917,-224.284"/>
</g>
<!-- Node31 -->
<g id="node31" class="node"><title>Node31</title>
<g id="a_node31"><a xlink:href="default__copyable_8hpp.html" target="_top" xlink:title="Om header file. ">
<polygon fill="none" stroke="black" points="1006.13,-175 1006.13,-195 1133.87,-195 1133.87,-175 1006.13,-175"/>
<text text-anchor="middle" x="1070" y="-181" font-family="Helvetica,sans-Serif" font-size="10.00">om/default_copyable.hpp</text>
</a>
</g>
</g>
<!-- Node30&#45;&gt;Node31 -->
<g id="edge53" class="edge"><title>Node30&#45;&gt;Node31</title>
<path fill="none" stroke="midnightblue" d="M1008.22,-232.753C1019.53,-224.19 1036.57,-211.298 1049.89,-201.219"/>
<polygon fill="midnightblue" stroke="midnightblue" points="1052.15,-203.901 1058.01,-195.075 1047.92,-198.319 1052.15,-203.901"/>
</g>
<!-- Node33 -->
<g id="node33" class="node"><title>Node33</title>
<g id="a_node33"><a xlink:href="default__moveable_8hpp.html" target="_top" xlink:title="Om header file. ">
<polygon fill="none" stroke="black" points="857.461,-175 857.461,-195 988.539,-195 988.539,-175 857.461,-175"/>
<text text-anchor="middle" x="923" y="-181" font-family="Helvetica,sans-Serif" font-size="10.00">om/default_moveable.hpp</text>
</a>
</g>
</g>
<!-- Node30&#45;&gt;Node33 -->
<g id="edge57" class="edge"><title>Node30&#45;&gt;Node33</title>
<path fill="none" stroke="midnightblue" d="M983.946,-232.753C972.784,-224.19 955.977,-211.298 942.839,-201.219"/>
<polygon fill="midnightblue" stroke="midnightblue" points="944.895,-198.385 934.83,-195.075 940.634,-203.939 944.895,-198.385"/>
</g>
<!-- Node30&#45;&gt;Node8 -->
<g id="edge61" class="edge"><title>Node30&#45;&gt;Node8</title>
<path fill="none" stroke="midnightblue" d="M963.259,-232.878C928.845,-223.29 874.592,-208.175 837.036,-197.712"/>
<polygon fill="midnightblue" stroke="midnightblue" points="837.967,-194.338 827.394,-195.025 836.088,-201.081 837.967,-194.338"/>
</g>
<!-- Node35 -->
<g id="node35" class="node"><title>Node35</title>
<g id="a_node35"><a xlink:href="default__giveable_8cpp.html" target="_top" xlink:title="Om source file. ">
<polygon fill="none" stroke="black" points="1151.8,-175 1151.8,-195 1276.2,-195 1276.2,-175 1151.8,-175"/>
<text text-anchor="middle" x="1214" y="-181" font-family="Helvetica,sans-Serif" font-size="10.00">om/default_giveable.cpp</text>
</a>
</g>
</g>
<!-- Node30&#45;&gt;Node35 -->
<g id="edge62" class="edge"><title>Node30&#45;&gt;Node35</title>
<path fill="none" stroke="midnightblue" d="M1026.37,-232.878C1062.02,-223.209 1121.4,-207.917 1163.88,-197.445"/>
<polygon fill="midnightblue" stroke="midnightblue" points="1164.87,-200.807 1173.75,-195.025 1163.2,-194.008 1164.87,-200.807"/>
</g>
<!-- Node31&#45;&gt;Node9 -->
<g id="edge54" class="edge"><title>Node31&#45;&gt;Node9</title>
<path fill="none" stroke="midnightblue" d="M1044.1,-174.878C1017.46,-165.494 975.78,-150.815 946.167,-140.386"/>
<polygon fill="midnightblue" stroke="midnightblue" points="947.22,-137.046 936.625,-137.025 944.895,-143.649 947.22,-137.046"/>
</g>
<!-- Node32 -->
<g id="node32" class="node"><title>Node32</title>
<g id="a_node32"><a xlink:href="default__copyable_8cpp.html" target="_top" xlink:title="Om source file. ">
<polygon fill="none" stroke="black" points="1123.41,-117 1123.41,-137 1250.59,-137 1250.59,-117 1123.41,-117"/>
<text text-anchor="middle" x="1187" y="-123" font-family="Helvetica,sans-Serif" font-size="10.00">om/default_copyable.cpp</text>
</a>
</g>
</g>
<!-- Node31&#45;&gt;Node32 -->
<g id="edge55" class="edge"><title>Node31&#45;&gt;Node32</title>
<path fill="none" stroke="midnightblue" d="M1084.15,-174.753C1101.38,-165.619 1130.53,-151.56 1153.5,-141.242"/>
<polygon fill="midnightblue" stroke="midnightblue" points="1155.18,-144.324 1162.91,-137.075 1152.35,-137.924 1155.18,-144.324"/>
</g>
<!-- Node32&#45;&gt;Node31 -->
<g id="edge56" class="edge"><title>Node32&#45;&gt;Node31</title>
<path fill="none" stroke="midnightblue" d="M1173.09,-137.118C1155.93,-146.229 1126.7,-160.333 1103.65,-170.693"/>
<polygon fill="midnightblue" stroke="midnightblue" points="1101.92,-167.628 1094.2,-174.878 1104.76,-174.028 1101.92,-167.628"/>
</g>
<!-- Node33&#45;&gt;Node12 -->
<g id="edge58" class="edge"><title>Node33&#45;&gt;Node12</title>
<path fill="none" stroke="midnightblue" d="M902.801,-174.878C882.625,-165.766 851.394,-151.662 828.456,-141.303"/>
<polygon fill="midnightblue" stroke="midnightblue" points="829.744,-138.044 819.19,-137.118 826.863,-144.424 829.744,-138.044"/>
</g>
<!-- Node34 -->
<g id="node34" class="node"><title>Node34</title>
<g id="a_node34"><a xlink:href="default__moveable_8cpp.html" target="_top" xlink:title="Om source file. ">
<polygon fill="none" stroke="black" points="974.742,-117 974.742,-137 1105.26,-137 1105.26,-117 974.742,-117"/>
<text text-anchor="middle" x="1040" y="-123" font-family="Helvetica,sans-Serif" font-size="10.00">om/default_moveable.cpp</text>
</a>
</g>
</g>
<!-- Node33&#45;&gt;Node34 -->
<g id="edge59" class="edge"><title>Node33&#45;&gt;Node34</title>
<path fill="none" stroke="midnightblue" d="M937.154,-174.753C954.378,-165.619 983.53,-151.56 1006.5,-141.242"/>
<polygon fill="midnightblue" stroke="midnightblue" points="1008.18,-144.324 1015.91,-137.075 1005.35,-137.924 1008.18,-144.324"/>
</g>
<!-- Node34&#45;&gt;Node33 -->
<g id="edge60" class="edge"><title>Node34&#45;&gt;Node33</title>
<path fill="none" stroke="midnightblue" d="M1026.09,-137.118C1008.93,-146.229 979.701,-160.333 956.648,-170.693"/>
<polygon fill="midnightblue" stroke="midnightblue" points="954.925,-167.628 947.199,-174.878 957.76,-174.028 954.925,-167.628"/>
</g>
<!-- Node35&#45;&gt;Node30 -->
<g id="edge63" class="edge"><title>Node35&#45;&gt;Node30</title>
<path fill="none" stroke="midnightblue" d="M1183.91,-195.047C1148.34,-204.699 1088.86,-220.016 1046.29,-230.514"/>
<polygon fill="midnightblue" stroke="midnightblue" points="1045.27,-227.159 1036.4,-232.94 1046.94,-233.957 1045.27,-227.159"/>
</g>
<!-- Node37 -->
<g id="node37" class="node"><title>Node37</title>
<g id="a_node37"><a xlink:href="taker_8cpp.html" target="_top" xlink:title="Om source file. ">
<polygon fill="none" stroke="black" points="1294.37,-175 1294.37,-195 1367.63,-195 1367.63,-175 1294.37,-175"/>
<text text-anchor="middle" x="1331" y="-181" font-family="Helvetica,sans-Serif" font-size="10.00">om/taker.cpp</text>
</a>
</g>
</g>
<!-- Node36&#45;&gt;Node37 -->
<g id="edge66" class="edge"><title>Node36&#45;&gt;Node37</title>
<path fill="none" stroke="midnightblue" d="M1325.83,-232.753C1324.31,-225.25 1323.88,-214.424 1324.56,-205.078"/>
<polygon fill="midnightblue" stroke="midnightblue" points="1328.05,-205.444 1325.87,-195.075 1321.1,-204.538 1328.05,-205.444"/>
</g>
<!-- Node37&#45;&gt;Node36 -->
<g id="edge67" class="edge"><title>Node37&#45;&gt;Node36</title>
<path fill="none" stroke="midnightblue" d="M1336.13,-195.075C1337.67,-202.526 1338.11,-213.338 1337.45,-222.707"/>
<polygon fill="midnightblue" stroke="midnightblue" points="1333.96,-222.389 1336.17,-232.753 1340.91,-223.278 1333.96,-222.389"/>
</g>
</g>
</svg>
