<?xml version="1.0" encoding="UTF-8" standalone="no"?>
<!DOCTYPE svg PUBLIC "-//W3C//DTD SVG 1.1//EN"
 "http://www.w3.org/Graphics/SVG/1.1/DTD/svg11.dtd">
<!-- Generated by graphviz version 2.28.0 (20120817.0054)
 -->
<!-- Title: code/om/default_giveable.cpp Pages: 1 -->
<svg width="603pt" height="308pt"
 viewBox="0.00 0.00 603.00 308.00" xmlns="http://www.w3.org/2000/svg" xmlns:xlink="http://www.w3.org/1999/xlink">
<g id="graph1" class="graph" transform="scale(1 1) rotate(0) translate(4 304)">
<title>code/om/default_giveable.cpp</title>
<!-- Node1 -->
<g id="node1" class="node"><title>Node1</title>
<polygon fill="#bfbfbf" stroke="black" points="208.5,-280.5 208.5,-299.5 351.5,-299.5 351.5,-280.5 208.5,-280.5"/>
<text text-anchor="middle" x="280" y="-287.5" font-family="Helvetica,sans-Serif" font-size="10.00">code/om/default_giveable.cpp</text>
</g>
<!-- Node2 -->
<g id="node3" class="node"><title>Node2</title>
<a xlink:href="default__giveable_8hpp.html" target="_top" xlink:title="Om header file.">
<polygon fill="none" stroke="black" points="219.5,-224.5 219.5,-243.5 340.5,-243.5 340.5,-224.5 219.5,-224.5"/>
<text text-anchor="middle" x="280" y="-231.5" font-family="Helvetica,sans-Serif" font-size="10.00">om/default_giveable.hpp</text>
</a>
</g>
<!-- Node1&#45;&gt;Node2 -->
<g id="edge2" class="edge"><title>Node1&#45;&gt;Node2</title>
<path fill="none" stroke="midnightblue" d="M274.834,-280.083C273.324,-272.927 272.894,-262.635 273.542,-253.691"/>
<polygon fill="midnightblue" stroke="midnightblue" points="277.015,-254.126 274.869,-243.751 270.077,-253.2 277.015,-254.126"/>
</g>
<!-- Node2&#45;&gt;Node1 -->
<g id="edge54" class="edge"><title>Node2&#45;&gt;Node1</title>
<path fill="none" stroke="midnightblue" d="M285.131,-243.751C286.657,-250.858 287.104,-261.136 286.472,-270.101"/>
<polygon fill="midnightblue" stroke="midnightblue" points="282.993,-269.713 285.166,-280.083 289.934,-270.622 282.993,-269.713"/>
</g>
<!-- Node3 -->
<g id="node5" class="node"><title>Node3</title>
<a xlink:href="default__copyable_8hpp.html" target="_top" xlink:title="Om header file.">
<polygon fill="none" stroke="black" points="415.5,-168.5 415.5,-187.5 540.5,-187.5 540.5,-168.5 415.5,-168.5"/>
<text text-anchor="middle" x="478" y="-175.5" font-family="Helvetica,sans-Serif" font-size="10.00">om/default_copyable.hpp</text>
</a>
</g>
<!-- Node2&#45;&gt;Node3 -->
<g id="edge4" class="edge"><title>Node2&#45;&gt;Node3</title>
<path fill="none" stroke="midnightblue" d="M311.374,-224.444C345.263,-215.201 399.403,-200.436 436.724,-190.257"/>
<polygon fill="midnightblue" stroke="midnightblue" points="438.046,-193.524 446.773,-187.516 436.205,-186.771 438.046,-193.524"/>
</g>
<!-- Node10 -->
<g id="node22" class="node"><title>Node10</title>
<a xlink:href="default__moveable_8hpp.html" target="_top" xlink:title="Om header file.">
<polygon fill="none" stroke="black" points="216.5,-168.5 216.5,-187.5 343.5,-187.5 343.5,-168.5 216.5,-168.5"/>
<text text-anchor="middle" x="280" y="-175.5" font-family="Helvetica,sans-Serif" font-size="10.00">om/default_moveable.hpp</text>
</a>
</g>
<!-- Node2&#45;&gt;Node10 -->
<g id="edge24" class="edge"><title>Node2&#45;&gt;Node10</title>
<path fill="none" stroke="midnightblue" d="M280,-224.083C280,-217.006 280,-206.861 280,-197.986"/>
<polygon fill="midnightblue" stroke="midnightblue" points="283.5,-197.751 280,-187.751 276.5,-197.751 283.5,-197.751"/>
</g>
<!-- Node16 -->
<g id="node38" class="node"><title>Node16</title>
<a xlink:href="giveable_8hpp.html" target="_top" xlink:title="Om header file.">
<polygon fill="none" stroke="black" points="108,-168.5 108,-187.5 196,-187.5 196,-168.5 108,-168.5"/>
<text text-anchor="middle" x="152" y="-175.5" font-family="Helvetica,sans-Serif" font-size="10.00">om/giveable.hpp</text>
</a>
</g>
<!-- Node2&#45;&gt;Node16 -->
<g id="edge44" class="edge"><title>Node2&#45;&gt;Node16</title>
<path fill="none" stroke="midnightblue" d="M259.718,-224.444C238.653,-215.557 205.483,-201.563 181.514,-191.451"/>
<polygon fill="midnightblue" stroke="midnightblue" points="182.761,-188.179 172.187,-187.516 180.04,-194.628 182.761,-188.179"/>
</g>
<!-- Node4 -->
<g id="node7" class="node"><title>Node4</title>
<a xlink:href="copyable_8hpp.html" target="_top" xlink:title="Om header file.">
<polygon fill="none" stroke="black" points="361,-112.5 361,-131.5 453,-131.5 453,-112.5 361,-112.5"/>
<text text-anchor="middle" x="407" y="-119.5" font-family="Helvetica,sans-Serif" font-size="10.00">om/copyable.hpp</text>
</a>
</g>
<!-- Node3&#45;&gt;Node4 -->
<g id="edge6" class="edge"><title>Node3&#45;&gt;Node4</title>
<path fill="none" stroke="midnightblue" d="M466.593,-168.324C455.891,-160.185 439.659,-147.839 426.837,-138.087"/>
<polygon fill="midnightblue" stroke="midnightblue" points="428.693,-135.102 418.615,-131.834 424.456,-140.673 428.693,-135.102"/>
</g>
<!-- Node9 -->
<g id="node19" class="node"><title>Node9</title>
<a xlink:href="default__copyable_8cpp.html" target="_top" xlink:title="Om source file.">
<polygon fill="none" stroke="black" points="471,-112.5 471,-131.5 595,-131.5 595,-112.5 471,-112.5"/>
<text text-anchor="middle" x="533" y="-119.5" font-family="Helvetica,sans-Serif" font-size="10.00">om/default_copyable.cpp</text>
</a>
</g>
<!-- Node3&#45;&gt;Node9 -->
<g id="edge20" class="edge"><title>Node3&#45;&gt;Node9</title>
<path fill="none" stroke="midnightblue" d="M481.916,-168.083C488.457,-159.984 500.472,-147.866 511.34,-138.233"/>
<polygon fill="midnightblue" stroke="midnightblue" points="513.609,-140.898 518.956,-131.751 509.072,-135.567 513.609,-140.898"/>
</g>
<!-- Node5 -->
<g id="node9" class="node"><title>Node5</title>
<a xlink:href="copy_8hpp.html" target="_top" xlink:title="Om header file.">
<polygon fill="none" stroke="black" points="257.5,-56.5 257.5,-75.5 330.5,-75.5 330.5,-56.5 257.5,-56.5"/>
<text text-anchor="middle" x="294" y="-63.5" font-family="Helvetica,sans-Serif" font-size="10.00">om/copy.hpp</text>
</a>
</g>
<!-- Node4&#45;&gt;Node5 -->
<g id="edge8" class="edge"><title>Node4&#45;&gt;Node5</title>
<path fill="none" stroke="midnightblue" d="M389.095,-112.444C370.746,-103.675 341.995,-89.9355 320.906,-79.8579"/>
<polygon fill="midnightblue" stroke="midnightblue" points="322.353,-76.6703 311.821,-75.5164 319.335,-82.9862 322.353,-76.6703"/>
</g>
<!-- Node8 -->
<g id="node16" class="node"><title>Node8</title>
<a xlink:href="copyable_8cpp.html" target="_top" xlink:title="Om source file.">
<polygon fill="none" stroke="black" points="361.5,-56.5 361.5,-75.5 452.5,-75.5 452.5,-56.5 361.5,-56.5"/>
<text text-anchor="middle" x="407" y="-63.5" font-family="Helvetica,sans-Serif" font-size="10.00">om/copyable.cpp</text>
</a>
</g>
<!-- Node4&#45;&gt;Node8 -->
<g id="edge16" class="edge"><title>Node4&#45;&gt;Node8</title>
<path fill="none" stroke="midnightblue" d="M401.834,-112.083C400.324,-104.927 399.894,-94.6353 400.542,-85.6911"/>
<polygon fill="midnightblue" stroke="midnightblue" points="404.015,-86.1262 401.869,-75.7511 397.077,-85.2002 404.015,-86.1262"/>
</g>
<!-- Node6 -->
<g id="node11" class="node"><title>Node6</title>
<polygon fill="none" stroke="#bfbfbf" points="155,-0.5 155,-19.5 205,-19.5 205,-0.5 155,-0.5"/>
<text text-anchor="middle" x="180" y="-7.5" font-family="Helvetica,sans-Serif" font-size="10.00">memory</text>
</g>
<!-- Node5&#45;&gt;Node6 -->
<g id="edge10" class="edge"><title>Node5&#45;&gt;Node6</title>
<path fill="none" stroke="midnightblue" d="M275.936,-56.4435C257.425,-47.6751 228.419,-33.9355 207.145,-23.8579"/>
<polygon fill="midnightblue" stroke="midnightblue" points="208.515,-20.6343 197.979,-19.5164 205.518,-26.9604 208.515,-20.6343"/>
</g>
<!-- Node7 -->
<g id="node13" class="node"><title>Node7</title>
<a xlink:href="copy_8cpp.html" target="_top" xlink:title="Om source file.">
<polygon fill="none" stroke="black" points="258,-0.5 258,-19.5 330,-19.5 330,-0.5 258,-0.5"/>
<text text-anchor="middle" x="294" y="-7.5" font-family="Helvetica,sans-Serif" font-size="10.00">om/copy.cpp</text>
</a>
</g>
<!-- Node5&#45;&gt;Node7 -->
<g id="edge12" class="edge"><title>Node5&#45;&gt;Node7</title>
<path fill="none" stroke="midnightblue" d="M288.834,-56.083C287.324,-48.9272 286.894,-38.6353 287.542,-29.6911"/>
<polygon fill="midnightblue" stroke="midnightblue" points="291.015,-30.1262 288.869,-19.7511 284.077,-29.2002 291.015,-30.1262"/>
</g>
<!-- Node7&#45;&gt;Node5 -->
<g id="edge14" class="edge"><title>Node7&#45;&gt;Node5</title>
<path fill="none" stroke="midnightblue" d="M299.131,-19.7511C300.657,-26.8579 301.104,-37.1357 300.472,-46.1005"/>
<polygon fill="midnightblue" stroke="midnightblue" points="296.993,-45.7134 299.166,-56.083 303.934,-46.6216 296.993,-45.7134"/>
</g>
<!-- Node8&#45;&gt;Node4 -->
<g id="edge18" class="edge"><title>Node8&#45;&gt;Node4</title>
<path fill="none" stroke="midnightblue" d="M412.131,-75.7511C413.657,-82.8579 414.104,-93.1357 413.472,-102.101"/>
<polygon fill="midnightblue" stroke="midnightblue" points="409.993,-101.713 412.166,-112.083 416.934,-102.622 409.993,-101.713"/>
</g>
<!-- Node9&#45;&gt;Node3 -->
<g id="edge22" class="edge"><title>Node9&#45;&gt;Node3</title>
<path fill="none" stroke="midnightblue" d="M529.151,-131.834C522.614,-139.948 510.521,-152.145 499.6,-161.82"/>
<polygon fill="midnightblue" stroke="midnightblue" points="497.302,-159.179 491.952,-168.324 501.837,-164.512 497.302,-159.179"/>
</g>
<!-- Node11 -->
<g id="node24" class="node"><title>Node11</title>
<a xlink:href="moveable_8hpp.html" target="_top" xlink:title="Om header file.">
<polygon fill="none" stroke="black" points="105,-112.5 105,-131.5 199,-131.5 199,-112.5 105,-112.5"/>
<text text-anchor="middle" x="152" y="-119.5" font-family="Helvetica,sans-Serif" font-size="10.00">om/moveable.hpp</text>
</a>
</g>
<!-- Node10&#45;&gt;Node11 -->
<g id="edge26" class="edge"><title>Node10&#45;&gt;Node11</title>
<path fill="none" stroke="midnightblue" d="M259.718,-168.444C238.653,-159.557 205.483,-145.563 181.514,-135.451"/>
<polygon fill="midnightblue" stroke="midnightblue" points="182.761,-132.179 172.187,-131.516 180.04,-138.628 182.761,-132.179"/>
</g>
<!-- Node15 -->
<g id="node35" class="node"><title>Node15</title>
<a xlink:href="default__moveable_8cpp.html" target="_top" xlink:title="Om source file.">
<polygon fill="none" stroke="black" points="217,-112.5 217,-131.5 343,-131.5 343,-112.5 217,-112.5"/>
<text text-anchor="middle" x="280" y="-119.5" font-family="Helvetica,sans-Serif" font-size="10.00">om/default_moveable.cpp</text>
</a>
</g>
<!-- Node10&#45;&gt;Node15 -->
<g id="edge40" class="edge"><title>Node10&#45;&gt;Node15</title>
<path fill="none" stroke="midnightblue" d="M274.834,-168.083C273.324,-160.927 272.894,-150.635 273.542,-141.691"/>
<polygon fill="midnightblue" stroke="midnightblue" points="277.015,-142.126 274.869,-131.751 270.077,-141.2 277.015,-142.126"/>
</g>
<!-- Node12 -->
<g id="node26" class="node"><title>Node12</title>
<a xlink:href="move_8hpp.html" target="_top" xlink:title="Om header file.">
<polygon fill="none" stroke="black" points="26.5,-56.5 26.5,-75.5 101.5,-75.5 101.5,-56.5 26.5,-56.5"/>
<text text-anchor="middle" x="64" y="-63.5" font-family="Helvetica,sans-Serif" font-size="10.00">om/move.hpp</text>
</a>
</g>
<!-- Node11&#45;&gt;Node12 -->
<g id="edge28" class="edge"><title>Node11&#45;&gt;Node12</title>
<path fill="none" stroke="midnightblue" d="M137.861,-112.324C124.134,-103.9 103.064,-90.9709 86.9357,-81.0741"/>
<polygon fill="midnightblue" stroke="midnightblue" points="88.4574,-77.9016 78.1036,-75.6545 84.7963,-83.8678 88.4574,-77.9016"/>
</g>
<!-- Node14 -->
<g id="node32" class="node"><title>Node14</title>
<a xlink:href="moveable_8cpp.html" target="_top" xlink:title="Om source file.">
<polygon fill="none" stroke="black" points="119.5,-56.5 119.5,-75.5 212.5,-75.5 212.5,-56.5 119.5,-56.5"/>
<text text-anchor="middle" x="166" y="-63.5" font-family="Helvetica,sans-Serif" font-size="10.00">om/moveable.cpp</text>
</a>
</g>
<!-- Node11&#45;&gt;Node14 -->
<g id="edge36" class="edge"><title>Node11&#45;&gt;Node14</title>
<path fill="none" stroke="midnightblue" d="M149.145,-112.083C149.499,-104.77 151.828,-94.1814 154.893,-85.1034"/>
<polygon fill="midnightblue" stroke="midnightblue" points="158.169,-86.3371 158.6,-75.7511 151.662,-83.7578 158.169,-86.3371"/>
</g>
<!-- Node12&#45;&gt;Node6 -->
<g id="edge30" class="edge"><title>Node12&#45;&gt;Node6</title>
<path fill="none" stroke="midnightblue" d="M82.3805,-56.4435C101.216,-47.6751 130.731,-33.9355 152.379,-23.8579"/>
<polygon fill="midnightblue" stroke="midnightblue" points="154.117,-26.9098 161.705,-19.5164 151.162,-20.5637 154.117,-26.9098"/>
</g>
<!-- Node13 -->
<g id="node29" class="node"><title>Node13</title>
<a xlink:href="move_8cpp.html" target="_top" xlink:title="Om source file.">
<polygon fill="none" stroke="black" points="27,-0.5 27,-19.5 101,-19.5 101,-0.5 27,-0.5"/>
<text text-anchor="middle" x="64" y="-7.5" font-family="Helvetica,sans-Serif" font-size="10.00">om/move.cpp</text>
</a>
</g>
<!-- Node12&#45;&gt;Node13 -->
<g id="edge32" class="edge"><title>Node12&#45;&gt;Node13</title>
<path fill="none" stroke="midnightblue" d="M58.8337,-56.083C57.3242,-48.9272 56.8938,-38.6353 57.5425,-29.6911"/>
<polygon fill="midnightblue" stroke="midnightblue" points="61.0154,-30.1262 58.869,-19.7511 54.0769,-29.2002 61.0154,-30.1262"/>
</g>
<!-- Node13&#45;&gt;Node12 -->
<g id="edge34" class="edge"><title>Node13&#45;&gt;Node12</title>
<path fill="none" stroke="midnightblue" d="M69.131,-19.7511C70.6573,-26.8579 71.1044,-37.1357 70.4724,-46.1005"/>
<polygon fill="midnightblue" stroke="midnightblue" points="66.9933,-45.7134 69.1663,-56.083 73.9342,-46.6216 66.9933,-45.7134"/>
</g>
<!-- Node14&#45;&gt;Node11 -->
<g id="edge38" class="edge"><title>Node14&#45;&gt;Node11</title>
<path fill="none" stroke="midnightblue" d="M168.862,-75.7511C168.539,-83.0141 166.23,-93.589 163.176,-102.69"/>
<polygon fill="midnightblue" stroke="midnightblue" points="159.885,-101.496 159.478,-112.083 166.398,-104.06 159.885,-101.496"/>
</g>
<!-- Node15&#45;&gt;Node10 -->
<g id="edge42" class="edge"><title>Node15&#45;&gt;Node10</title>
<path fill="none" stroke="midnightblue" d="M285.131,-131.751C286.657,-138.858 287.104,-149.136 286.472,-158.101"/>
<polygon fill="midnightblue" stroke="midnightblue" points="282.993,-157.713 285.166,-168.083 289.934,-158.622 282.993,-157.713"/>
</g>
<!-- Node16&#45;&gt;Node4 -->
<g id="edge46" class="edge"><title>Node16&#45;&gt;Node4</title>
<path fill="none" stroke="midnightblue" d="M192.406,-168.444C236.983,-159.004 308.768,-143.802 356.892,-133.611"/>
<polygon fill="midnightblue" stroke="midnightblue" points="357.726,-137.012 366.784,-131.516 356.275,-130.164 357.726,-137.012"/>
</g>
<!-- Node16&#45;&gt;Node11 -->
<g id="edge48" class="edge"><title>Node16&#45;&gt;Node11</title>
<path fill="none" stroke="midnightblue" d="M152,-168.083C152,-161.006 152,-150.861 152,-141.986"/>
<polygon fill="midnightblue" stroke="midnightblue" points="155.5,-141.751 152,-131.751 148.5,-141.751 155.5,-141.751"/>
</g>
<!-- Node17 -->
<g id="node42" class="node"><title>Node17</title>
<a xlink:href="giveable_8cpp.html" target="_top" xlink:title="Om source file.">
<polygon fill="none" stroke="black" points="-0.5,-112.5 -0.5,-131.5 86.5,-131.5 86.5,-112.5 -0.5,-112.5"/>
<text text-anchor="middle" x="43" y="-119.5" font-family="Helvetica,sans-Serif" font-size="10.00">om/giveable.cpp</text>
</a>
</g>
<!-- Node16&#45;&gt;Node17 -->
<g id="edge50" class="edge"><title>Node16&#45;&gt;Node17</title>
<path fill="none" stroke="midnightblue" d="M129.64,-168.444C110.371,-159.833 83.0361,-146.429 64.1372,-136.406"/>
<polygon fill="midnightblue" stroke="midnightblue" points="65.5705,-133.202 55.1106,-131.516 62.2363,-139.357 65.5705,-133.202"/>
</g>
<!-- Node17&#45;&gt;Node16 -->
<g id="edge52" class="edge"><title>Node17&#45;&gt;Node16</title>
<path fill="none" stroke="midnightblue" d="M65.5794,-131.655C84.7455,-140.228 111.78,-153.483 130.596,-163.453"/>
<polygon fill="midnightblue" stroke="midnightblue" points="129.141,-166.645 139.602,-168.324 132.472,-160.488 129.141,-166.645"/>
</g>
</g>
</svg>
