<?xml version="1.0" encoding="UTF-8" standalone="no"?>
<!DOCTYPE svg PUBLIC "-//W3C//DTD SVG 1.1//EN"
 "http://www.w3.org/Graphics/SVG/1.1/DTD/svg11.dtd">
<!-- Generated by graphviz version 2.30.1 (20130221.2233)
 -->
<!-- Title: code/om/default_giveable.hpp Pages: 1 -->
<svg width="646pt" height="262pt"
 viewBox="0.00 0.00 646.00 262.00" xmlns="http://www.w3.org/2000/svg" xmlns:xlink="http://www.w3.org/1999/xlink">
<g id="graph0" class="graph" transform="scale(1 1) rotate(0) translate(4 258)">
<title>code/om/default_giveable.hpp</title>
<!-- Node1 -->
<g id="node1" class="node"><title>Node1</title>
<polygon fill="#bfbfbf" stroke="black" points="357.284,-233 357.284,-253 506.716,-253 506.716,-233 357.284,-233"/>
<text text-anchor="middle" x="432" y="-239" font-family="Helvetica,sans-Serif" font-size="10.00">code/om/default_giveable.hpp</text>
</g>
<!-- Node2 -->
<g id="node2" class="node"><title>Node2</title>
<g id="a_node2"><a xlink:href="default__copyable_8hpp.html" target="_top" xlink:title="Om header file.">
<polygon fill="none" stroke="black" points="368.126,-175 368.126,-195 495.874,-195 495.874,-175 368.126,-175"/>
<text text-anchor="middle" x="432" y="-181" font-family="Helvetica,sans-Serif" font-size="10.00">om/default_copyable.hpp</text>
</a>
</g>
</g>
<!-- Node1&#45;&gt;Node2 -->
<g id="edge1" class="edge"><title>Node1&#45;&gt;Node2</title>
<path fill="none" stroke="midnightblue" d="M432,-232.753C432,-225.25 432,-214.424 432,-205.078"/>
<polygon fill="midnightblue" stroke="midnightblue" points="435.5,-205.075 432,-195.075 428.5,-205.075 435.5,-205.075"/>
</g>
<!-- Node9 -->
<g id="node9" class="node"><title>Node9</title>
<g id="a_node9"><a xlink:href="default__moveable_8hpp.html" target="_top" xlink:title="Om header file.">
<polygon fill="none" stroke="black" points="219.461,-175 219.461,-195 350.539,-195 350.539,-175 219.461,-175"/>
<text text-anchor="middle" x="285" y="-181" font-family="Helvetica,sans-Serif" font-size="10.00">om/default_moveable.hpp</text>
</a>
</g>
</g>
<!-- Node1&#45;&gt;Node9 -->
<g id="edge11" class="edge"><title>Node1&#45;&gt;Node9</title>
<path fill="none" stroke="midnightblue" d="M408.055,-232.878C383.709,-223.603 345.786,-209.156 318.473,-198.752"/>
<polygon fill="midnightblue" stroke="midnightblue" points="319.526,-195.407 308.935,-195.118 317.034,-201.949 319.526,-195.407"/>
</g>
<!-- Node15 -->
<g id="node15" class="node"><title>Node15</title>
<g id="a_node15"><a xlink:href="giveable_8hpp.html" target="_top" xlink:title="Om header file.">
<polygon fill="none" stroke="black" points="109.308,-175 109.308,-195 198.692,-195 198.692,-175 109.308,-175"/>
<text text-anchor="middle" x="154" y="-181" font-family="Helvetica,sans-Serif" font-size="10.00">om/giveable.hpp</text>
</a>
</g>
</g>
<!-- Node1&#45;&gt;Node15 -->
<g id="edge21" class="edge"><title>Node1&#45;&gt;Node15</title>
<path fill="none" stroke="midnightblue" d="M387.026,-232.94C338.475,-223.16 261.113,-207.577 208.983,-197.076"/>
<polygon fill="midnightblue" stroke="midnightblue" points="209.404,-193.59 198.91,-195.047 208.022,-200.452 209.404,-193.59"/>
</g>
<!-- Node17 -->
<g id="node17" class="node"><title>Node17</title>
<g id="a_node17"><a xlink:href="default__giveable_8cpp.html" target="_top" xlink:title="Om source file.">
<polygon fill="none" stroke="black" points="513.796,-175 513.796,-195 638.204,-195 638.204,-175 513.796,-175"/>
<text text-anchor="middle" x="576" y="-181" font-family="Helvetica,sans-Serif" font-size="10.00">om/default_giveable.cpp</text>
</a>
</g>
</g>
<!-- Node1&#45;&gt;Node17 -->
<g id="edge26" class="edge"><title>Node1&#45;&gt;Node17</title>
<path fill="none" stroke="midnightblue" d="M450.316,-232.878C472.415,-223.535 509.74,-208.943 538.067,-198.522"/>
<polygon fill="midnightblue" stroke="midnightblue" points="539.472,-201.735 547.671,-195.025 537.077,-195.157 539.472,-201.735"/>
</g>
<!-- Node3 -->
<g id="node3" class="node"><title>Node3</title>
<g id="a_node3"><a xlink:href="copyable_8hpp.html" target="_top" xlink:title="Om header file.">
<polygon fill="none" stroke="black" points="367.919,-117 367.919,-137 460.081,-137 460.081,-117 367.919,-117"/>
<text text-anchor="middle" x="414" y="-123" font-family="Helvetica,sans-Serif" font-size="10.00">om/copyable.hpp</text>
</a>
</g>
</g>
<!-- Node2&#45;&gt;Node3 -->
<g id="edge2" class="edge"><title>Node2&#45;&gt;Node3</title>
<path fill="none" stroke="midnightblue" d="M429.028,-174.753C426.59,-167.169 423.06,-156.188 420.034,-146.774"/>
<polygon fill="midnightblue" stroke="midnightblue" points="423.309,-145.524 416.917,-137.075 416.645,-147.667 423.309,-145.524"/>
</g>
<!-- Node8 -->
<g id="node8" class="node"><title>Node8</title>
<g id="a_node8"><a xlink:href="default__copyable_8cpp.html" target="_top" xlink:title="Om source file.">
<polygon fill="none" stroke="black" points="478.407,-117 478.407,-137 605.593,-137 605.593,-117 478.407,-117"/>
<text text-anchor="middle" x="542" y="-123" font-family="Helvetica,sans-Serif" font-size="10.00">om/default_copyable.cpp</text>
</a>
</g>
</g>
<!-- Node2&#45;&gt;Node8 -->
<g id="edge9" class="edge"><title>Node2&#45;&gt;Node8</title>
<path fill="none" stroke="midnightblue" d="M444.998,-174.753C461.009,-165.66 488.231,-151.685 509.862,-141.381"/>
<polygon fill="midnightblue" stroke="midnightblue" points="511.475,-144.49 519.043,-137.075 508.503,-138.152 511.475,-144.49"/>
</g>
<!-- Node4 -->
<g id="node4" class="node"><title>Node4</title>
<g id="a_node4"><a xlink:href="copy_8hpp.html" target="_top" xlink:title="Om header file.">
<polygon fill="none" stroke="black" points="263.741,-59 263.741,-79 336.259,-79 336.259,-59 263.741,-59"/>
<text text-anchor="middle" x="300" y="-65" font-family="Helvetica,sans-Serif" font-size="10.00">om/copy.hpp</text>
</a>
</g>
</g>
<!-- Node3&#45;&gt;Node4 -->
<g id="edge3" class="edge"><title>Node3&#45;&gt;Node4</title>
<path fill="none" stroke="midnightblue" d="M395.43,-116.878C377.047,-107.847 348.68,-93.9132 327.647,-83.5812"/>
<polygon fill="midnightblue" stroke="midnightblue" points="329.081,-80.3857 318.562,-79.1181 325.994,-86.6686 329.081,-80.3857"/>
</g>
<!-- Node7 -->
<g id="node7" class="node"><title>Node7</title>
<g id="a_node7"><a xlink:href="copyable_8cpp.html" target="_top" xlink:title="Om source file.">
<polygon fill="none" stroke="black" points="368.2,-59 368.2,-79 459.8,-79 459.8,-59 368.2,-59"/>
<text text-anchor="middle" x="414" y="-65" font-family="Helvetica,sans-Serif" font-size="10.00">om/copyable.cpp</text>
</a>
</g>
</g>
<!-- Node3&#45;&gt;Node7 -->
<g id="edge7" class="edge"><title>Node3&#45;&gt;Node7</title>
<path fill="none" stroke="midnightblue" d="M408.834,-116.753C407.308,-109.25 406.884,-98.4238 407.564,-89.0781"/>
<polygon fill="midnightblue" stroke="midnightblue" points="411.046,-89.4439 408.869,-79.0752 404.105,-88.5385 411.046,-89.4439"/>
</g>
<!-- Node5 -->
<g id="node5" class="node"><title>Node5</title>
<polygon fill="none" stroke="#bfbfbf" points="157.943,-1 157.943,-21 210.057,-21 210.057,-1 157.943,-1"/>
<text text-anchor="middle" x="184" y="-7" font-family="Helvetica,sans-Serif" font-size="10.00">memory</text>
</g>
<!-- Node4&#45;&gt;Node5 -->
<g id="edge4" class="edge"><title>Node4&#45;&gt;Node5</title>
<path fill="none" stroke="midnightblue" d="M281.104,-58.878C262.398,-49.8475 233.534,-35.9132 212.132,-25.5812"/>
<polygon fill="midnightblue" stroke="midnightblue" points="213.415,-22.3137 202.887,-21.1181 210.371,-28.6176 213.415,-22.3137"/>
</g>
<!-- Node6 -->
<g id="node6" class="node"><title>Node6</title>
<g id="a_node6"><a xlink:href="copy_8cpp.html" target="_top" xlink:title="Om source file.">
<polygon fill="none" stroke="black" points="264.021,-1 264.021,-21 335.979,-21 335.979,-1 264.021,-1"/>
<text text-anchor="middle" x="300" y="-7" font-family="Helvetica,sans-Serif" font-size="10.00">om/copy.cpp</text>
</a>
</g>
</g>
<!-- Node4&#45;&gt;Node6 -->
<g id="edge5" class="edge"><title>Node4&#45;&gt;Node6</title>
<path fill="none" stroke="midnightblue" d="M294.834,-58.7527C293.308,-51.2504 292.884,-40.4238 293.564,-31.0781"/>
<polygon fill="midnightblue" stroke="midnightblue" points="297.046,-31.4439 294.869,-21.0752 290.105,-30.5385 297.046,-31.4439"/>
</g>
<!-- Node6&#45;&gt;Node4 -->
<g id="edge6" class="edge"><title>Node6&#45;&gt;Node4</title>
<path fill="none" stroke="midnightblue" d="M305.131,-21.0752C306.674,-28.5262 307.114,-39.3384 306.451,-48.7065"/>
<polygon fill="midnightblue" stroke="midnightblue" points="302.963,-48.3895 305.166,-58.7527 309.907,-49.2776 302.963,-48.3895"/>
</g>
<!-- Node7&#45;&gt;Node3 -->
<g id="edge8" class="edge"><title>Node7&#45;&gt;Node3</title>
<path fill="none" stroke="midnightblue" d="M419.131,-79.0752C420.674,-86.5262 421.114,-97.3384 420.451,-106.707"/>
<polygon fill="midnightblue" stroke="midnightblue" points="416.963,-106.389 419.166,-116.753 423.907,-107.278 416.963,-106.389"/>
</g>
<!-- Node8&#45;&gt;Node2 -->
<g id="edge10" class="edge"><title>Node8&#45;&gt;Node2</title>
<path fill="none" stroke="midnightblue" d="M529.229,-137.118C513.284,-146.188 485.987,-160.207 464.276,-170.554"/>
<polygon fill="midnightblue" stroke="midnightblue" points="462.625,-167.462 455.059,-174.878 465.599,-173.799 462.625,-167.462"/>
</g>
<!-- Node10 -->
<g id="node10" class="node"><title>Node10</title>
<g id="a_node10"><a xlink:href="moveable_8hpp.html" target="_top" xlink:title="Om header file.">
<polygon fill="none" stroke="black" points="106.254,-117 106.254,-137 201.746,-137 201.746,-117 106.254,-117"/>
<text text-anchor="middle" x="154" y="-123" font-family="Helvetica,sans-Serif" font-size="10.00">om/moveable.hpp</text>
</a>
</g>
</g>
<!-- Node9&#45;&gt;Node10 -->
<g id="edge12" class="edge"><title>Node9&#45;&gt;Node10</title>
<path fill="none" stroke="midnightblue" d="M263.661,-174.878C242.251,-165.725 209.057,-151.536 184.795,-141.164"/>
<polygon fill="midnightblue" stroke="midnightblue" points="185.901,-137.831 175.33,-137.118 183.149,-144.267 185.901,-137.831"/>
</g>
<!-- Node14 -->
<g id="node14" class="node"><title>Node14</title>
<g id="a_node14"><a xlink:href="default__moveable_8cpp.html" target="_top" xlink:title="Om source file.">
<polygon fill="none" stroke="black" points="219.742,-117 219.742,-137 350.258,-137 350.258,-117 219.742,-117"/>
<text text-anchor="middle" x="285" y="-123" font-family="Helvetica,sans-Serif" font-size="10.00">om/default_moveable.cpp</text>
</a>
</g>
</g>
<!-- Node9&#45;&gt;Node14 -->
<g id="edge19" class="edge"><title>Node9&#45;&gt;Node14</title>
<path fill="none" stroke="midnightblue" d="M279.834,-174.753C278.308,-167.25 277.884,-156.424 278.564,-147.078"/>
<polygon fill="midnightblue" stroke="midnightblue" points="282.046,-147.444 279.869,-137.075 275.105,-146.538 282.046,-147.444"/>
</g>
<!-- Node11 -->
<g id="node11" class="node"><title>Node11</title>
<g id="a_node11"><a xlink:href="move_8hpp.html" target="_top" xlink:title="Om header file.">
<polygon fill="none" stroke="black" points="26.707,-59 26.707,-79 103.293,-79 103.293,-59 26.707,-59"/>
<text text-anchor="middle" x="65" y="-65" font-family="Helvetica,sans-Serif" font-size="10.00">om/move.hpp</text>
</a>
</g>
</g>
<!-- Node10&#45;&gt;Node11 -->
<g id="edge13" class="edge"><title>Node10&#45;&gt;Node11</title>
<path fill="none" stroke="midnightblue" d="M139.303,-116.753C125.436,-108.027 104.422,-94.8051 88.2763,-84.6458"/>
<polygon fill="midnightblue" stroke="midnightblue" points="89.751,-81.4385 79.4231,-79.0752 86.023,-87.3632 89.751,-81.4385"/>
</g>
<!-- Node13 -->
<g id="node13" class="node"><title>Node13</title>
<g id="a_node13"><a xlink:href="moveable_8cpp.html" target="_top" xlink:title="Om source file.">
<polygon fill="none" stroke="black" points="121.535,-59 121.535,-79 216.465,-79 216.465,-59 121.535,-59"/>
<text text-anchor="middle" x="169" y="-65" font-family="Helvetica,sans-Serif" font-size="10.00">om/moveable.cpp</text>
</a>
</g>
</g>
<!-- Node10&#45;&gt;Node13 -->
<g id="edge17" class="edge"><title>Node10&#45;&gt;Node13</title>
<path fill="none" stroke="midnightblue" d="M151.311,-116.753C151.805,-109.087 154.38,-97.9515 157.663,-88.4708"/>
<polygon fill="midnightblue" stroke="midnightblue" points="160.957,-89.6591 161.438,-79.0752 154.462,-87.049 160.957,-89.6591"/>
</g>
<!-- Node11&#45;&gt;Node5 -->
<g id="edge14" class="edge"><title>Node11&#45;&gt;Node5</title>
<path fill="none" stroke="midnightblue" d="M84.3843,-58.878C103.661,-49.8068 133.451,-35.7876 155.436,-25.4418"/>
<polygon fill="midnightblue" stroke="midnightblue" points="157.066,-28.543 164.624,-21.1181 154.086,-22.2093 157.066,-28.543"/>
</g>
<!-- Node12 -->
<g id="node12" class="node"><title>Node12</title>
<g id="a_node12"><a xlink:href="move_8cpp.html" target="_top" xlink:title="Om source file.">
<polygon fill="none" stroke="black" points="26.9878,-1 26.9878,-21 103.012,-21 103.012,-1 26.9878,-1"/>
<text text-anchor="middle" x="65" y="-7" font-family="Helvetica,sans-Serif" font-size="10.00">om/move.cpp</text>
</a>
</g>
</g>
<!-- Node11&#45;&gt;Node12 -->
<g id="edge15" class="edge"><title>Node11&#45;&gt;Node12</title>
<path fill="none" stroke="midnightblue" d="M59.8337,-58.7527C58.3076,-51.2504 57.8844,-40.4238 58.5643,-31.0781"/>
<polygon fill="midnightblue" stroke="midnightblue" points="62.0461,-31.4439 59.869,-21.0752 55.1049,-30.5385 62.0461,-31.4439"/>
</g>
<!-- Node12&#45;&gt;Node11 -->
<g id="edge16" class="edge"><title>Node12&#45;&gt;Node11</title>
<path fill="none" stroke="midnightblue" d="M70.131,-21.0752C71.674,-28.5262 72.1141,-39.3384 71.4512,-48.7065"/>
<polygon fill="midnightblue" stroke="midnightblue" points="67.9633,-48.3895 70.1663,-58.7527 74.9067,-49.2776 67.9633,-48.3895"/>
</g>
<!-- Node13&#45;&gt;Node10 -->
<g id="edge18" class="edge"><title>Node13&#45;&gt;Node10</title>
<path fill="none" stroke="midnightblue" d="M171.7,-79.0752C171.238,-86.6882 168.684,-97.8101 165.411,-107.315"/>
<polygon fill="midnightblue" stroke="midnightblue" points="162.101,-106.168 161.643,-116.753 168.602,-108.763 162.101,-106.168"/>
</g>
<!-- Node14&#45;&gt;Node9 -->
<g id="edge20" class="edge"><title>Node14&#45;&gt;Node9</title>
<path fill="none" stroke="midnightblue" d="M290.131,-137.075C291.674,-144.526 292.114,-155.338 291.451,-164.707"/>
<polygon fill="midnightblue" stroke="midnightblue" points="287.963,-164.389 290.166,-174.753 294.907,-165.278 287.963,-164.389"/>
</g>
<!-- Node15&#45;&gt;Node3 -->
<g id="edge22" class="edge"><title>Node15&#45;&gt;Node3</title>
<path fill="none" stroke="midnightblue" d="M196.062,-174.94C241.28,-165.201 313.22,-149.706 361.966,-139.207"/>
<polygon fill="midnightblue" stroke="midnightblue" points="362.959,-142.574 371.998,-137.047 361.485,-135.731 362.959,-142.574"/>
</g>
<!-- Node15&#45;&gt;Node10 -->
<g id="edge23" class="edge"><title>Node15&#45;&gt;Node10</title>
<path fill="none" stroke="midnightblue" d="M154,-174.753C154,-167.25 154,-156.424 154,-147.078"/>
<polygon fill="midnightblue" stroke="midnightblue" points="157.5,-147.075 154,-137.075 150.5,-147.075 157.5,-147.075"/>
</g>
<!-- Node16 -->
<g id="node16" class="node"><title>Node16</title>
<g id="a_node16"><a xlink:href="giveable_8cpp.html" target="_top" xlink:title="Om source file.">
<polygon fill="none" stroke="black" points="-0.411133,-117 -0.411133,-137 88.4111,-137 88.4111,-117 -0.411133,-117"/>
<text text-anchor="middle" x="44" y="-123" font-family="Helvetica,sans-Serif" font-size="10.00">om/giveable.cpp</text>
</a>
</g>
</g>
<!-- Node15&#45;&gt;Node16 -->
<g id="edge24" class="edge"><title>Node15&#45;&gt;Node16</title>
<path fill="none" stroke="midnightblue" d="M130.941,-174.878C111.606,-165.97 84.4687,-152.289 65.5678,-142.002"/>
<polygon fill="midnightblue" stroke="midnightblue" points="67.2126,-138.912 56.7707,-137.118 63.8148,-145.032 67.2126,-138.912"/>
</g>
<!-- Node16&#45;&gt;Node15 -->
<g id="edge25" class="edge"><title>Node16&#45;&gt;Node15</title>
<path fill="none" stroke="midnightblue" d="M66.9573,-137.075C86.2138,-145.944 113.261,-159.573 132.183,-169.863"/>
<polygon fill="midnightblue" stroke="midnightblue" points="130.559,-172.964 141.002,-174.753 133.954,-166.842 130.559,-172.964"/>
</g>
<!-- Node17&#45;&gt;Node1 -->
<g id="edge27" class="edge"><title>Node17&#45;&gt;Node1</title>
<path fill="none" stroke="midnightblue" d="M557.693,-195.118C535.664,-204.432 498.496,-218.965 470.197,-229.381"/>
<polygon fill="midnightblue" stroke="midnightblue" points="468.795,-226.167 460.597,-232.878 471.191,-232.744 468.795,-226.167"/>
</g>
</g>
</svg>
