<?xml version="1.0" encoding="UTF-8" standalone="no"?>
<!DOCTYPE svg PUBLIC "-//W3C//DTD SVG 1.1//EN"
 "http://www.w3.org/Graphics/SVG/1.1/DTD/svg11.dtd">
<!-- Generated by graphviz version 2.30.1 (20130221.2233)
 -->
<!-- Title: code/om/default_element.hpp Pages: 1 -->
<svg width="1788pt" height="588pt"
 viewBox="0.00 0.00 1788.00 588.00" xmlns="http://www.w3.org/2000/svg" xmlns:xlink="http://www.w3.org/1999/xlink">
<g id="graph0" class="graph" transform="scale(1 1) rotate(0) translate(4 584)">
<title>code/om/default_element.hpp</title>
<!-- Node1 -->
<g id="node1" class="node"><title>Node1</title>
<polygon fill="#bfbfbf" stroke="black" points="1316.12,-559 1316.12,-579 1463.88,-579 1463.88,-559 1316.12,-559"/>
<text text-anchor="middle" x="1390" y="-565" font-family="Helvetica,sans-Serif" font-size="10.00">code/om/default_element.hpp</text>
</g>
<!-- Node2 -->
<g id="node2" class="node"><title>Node2</title>
<g id="a_node2"><a xlink:href="default__atom_8hpp.html" target="_top" xlink:title="Om header file.">
<polygon fill="none" stroke="black" points="1115.79,-501 1115.79,-521 1250.21,-521 1250.21,-501 1115.79,-501"/>
<text text-anchor="middle" x="1183" y="-507" font-family="Helvetica,sans-Serif" font-size="10.00">code/om/default_atom.hpp</text>
</a>
</g>
</g>
<!-- Node1&#45;&gt;Node2 -->
<g id="edge1" class="edge"><title>Node1&#45;&gt;Node2</title>
<path fill="none" stroke="midnightblue" d="M1346.32,-556.183C1307.53,-545.688 1251.66,-530.576 1216.36,-521.025"/>
<polygon fill="midnightblue" stroke="midnightblue" points="1345.71,-559.645 1356.28,-558.878 1347.54,-552.888 1345.71,-559.645"/>
</g>
<!-- Node36 -->
<g id="node36" class="node"><title>Node36</title>
<g id="a_node36"><a xlink:href="default__element_8cpp.html" target="_top" xlink:title="Om source file.">
<polygon fill="none" stroke="black" points="1316.4,-501 1316.4,-521 1463.6,-521 1463.6,-501 1316.4,-501"/>
<text text-anchor="middle" x="1390" y="-507" font-family="Helvetica,sans-Serif" font-size="10.00">code/om/default_element.cpp</text>
</a>
</g>
</g>
<!-- Node1&#45;&gt;Node36 -->
<g id="edge64" class="edge"><title>Node1&#45;&gt;Node36</title>
<path fill="none" stroke="midnightblue" d="M1383.55,-548.707C1382.89,-539.338 1383.33,-528.526 1384.87,-521.075"/>
<polygon fill="midnightblue" stroke="midnightblue" points="1380.09,-549.278 1384.83,-558.753 1387.04,-548.389 1380.09,-549.278"/>
</g>
<!-- Node4 -->
<g id="node4" class="node"><title>Node4</title>
<g id="a_node4"><a xlink:href="internal_8hpp.html" target="_top" xlink:title="code/om/internal.hpp">
<polygon fill="none" stroke="black" points="873.303,-123 873.303,-143 982.697,-143 982.697,-123 873.303,-123"/>
<text text-anchor="middle" x="928" y="-129" font-family="Helvetica,sans-Serif" font-size="10.00">code/om/internal.hpp</text>
</a>
</g>
</g>
<!-- Node1&#45;&gt;Node4 -->
<g id="edge66" class="edge"><title>Node1&#45;&gt;Node4</title>
<path fill="none" stroke="midnightblue" d="M1474.18,-558.687C1525.27,-551.388 1584.16,-539.503 1603,-522 1626.08,-500.556 1623,-485.502 1623,-454 1623,-454 1623,-454 1623,-272 1623,-141.681 1146.94,-132.548 982.826,-133.271"/>
<polygon fill="midnightblue" stroke="midnightblue" points="1473.5,-555.247 1464.08,-560.085 1474.46,-562.18 1473.5,-555.247"/>
</g>
<!-- Node37 -->
<g id="node37" class="node"><title>Node37</title>
<g id="a_node37"><a xlink:href="operand_8hpp.html" target="_top" xlink:title="Om header file.">
<polygon fill="none" stroke="black" points="1481.35,-501 1481.35,-521 1594.65,-521 1594.65,-501 1481.35,-501"/>
<text text-anchor="middle" x="1538" y="-507" font-family="Helvetica,sans-Serif" font-size="10.00">code/om/operand.hpp</text>
</a>
</g>
</g>
<!-- Node1&#45;&gt;Node37 -->
<g id="edge67" class="edge"><title>Node1&#45;&gt;Node37</title>
<path fill="none" stroke="midnightblue" d="M1423.71,-555.244C1451.21,-544.838 1489.39,-530.391 1513.9,-521.118"/>
<polygon fill="midnightblue" stroke="midnightblue" points="1422.22,-552.066 1414.11,-558.878 1424.7,-558.613 1422.22,-552.066"/>
</g>
<!-- Node3 -->
<g id="node3" class="node"><title>Node3</title>
<g id="a_node3"><a xlink:href="default__atom_8cpp.html" target="_top" xlink:title="Om source file.">
<polygon fill="none" stroke="black" points="1116.07,-443 1116.07,-463 1249.93,-463 1249.93,-443 1116.07,-443"/>
<text text-anchor="middle" x="1183" y="-449" font-family="Helvetica,sans-Serif" font-size="10.00">code/om/default_atom.cpp</text>
</a>
</g>
</g>
<!-- Node2&#45;&gt;Node3 -->
<g id="edge2" class="edge"><title>Node2&#45;&gt;Node3</title>
<path fill="none" stroke="midnightblue" d="M1176.55,-490.707C1175.89,-481.338 1176.33,-470.526 1177.87,-463.075"/>
<polygon fill="midnightblue" stroke="midnightblue" points="1173.09,-491.278 1177.83,-500.753 1180.04,-490.389 1173.09,-491.278"/>
</g>
<!-- Node2&#45;&gt;Node4 -->
<g id="edge4" class="edge"><title>Node2&#45;&gt;Node4</title>
<path fill="none" stroke="midnightblue" d="M1105.31,-505.999C977.765,-497.282 738,-470.931 738,-396 738,-396 738,-396 738,-336 738,-299.455 734.146,-284.517 757,-256 779.872,-227.46 800.59,-240.32 831,-220 866.741,-196.117 903.146,-160 919.328,-143.198"/>
<polygon fill="midnightblue" stroke="midnightblue" points="1105.2,-509.499 1115.41,-506.669 1105.67,-502.515 1105.2,-509.499"/>
</g>
<!-- Node8 -->
<g id="node8" class="node"><title>Node8</title>
<g id="a_node8"><a xlink:href="operator_8hpp.html" target="_top" xlink:title="Om header file.">
<polygon fill="none" stroke="black" points="955.353,-443 955.353,-463 1068.65,-463 1068.65,-443 955.353,-443"/>
<text text-anchor="middle" x="1012" y="-449" font-family="Helvetica,sans-Serif" font-size="10.00">code/om/operator.hpp</text>
</a>
</g>
</g>
<!-- Node2&#45;&gt;Node8 -->
<g id="edge10" class="edge"><title>Node2&#45;&gt;Node8</title>
<path fill="none" stroke="midnightblue" d="M1145.27,-497.643C1113.3,-487.175 1068.23,-472.413 1039.56,-463.025"/>
<polygon fill="midnightblue" stroke="midnightblue" points="1144.55,-501.092 1155.15,-500.878 1146.73,-494.44 1144.55,-501.092"/>
</g>
<!-- Node34 -->
<g id="node34" class="node"><title>Node34</title>
<g id="a_node34"><a xlink:href="separator_8hpp.html" target="_top" xlink:title="Om header file.">
<polygon fill="none" stroke="black" points="1282.85,-443 1282.85,-463 1401.15,-463 1401.15,-443 1282.85,-443"/>
<text text-anchor="middle" x="1342" y="-449" font-family="Helvetica,sans-Serif" font-size="10.00">code/om/separator.hpp</text>
</a>
</g>
</g>
<!-- Node2&#45;&gt;Node34 -->
<g id="edge60" class="edge"><title>Node2&#45;&gt;Node34</title>
<path fill="none" stroke="midnightblue" d="M1218.47,-497.506C1248.17,-487.048 1289.84,-472.373 1316.37,-463.025"/>
<polygon fill="midnightblue" stroke="midnightblue" points="1217.17,-494.255 1208.9,-500.878 1219.49,-500.857 1217.17,-494.255"/>
</g>
<!-- Node3&#45;&gt;Node2 -->
<g id="edge3" class="edge"><title>Node3&#45;&gt;Node2</title>
<path fill="none" stroke="midnightblue" d="M1189.44,-473.078C1190.12,-482.424 1189.69,-493.25 1188.17,-500.753"/>
<polygon fill="midnightblue" stroke="midnightblue" points="1192.9,-472.538 1188.13,-463.075 1185.95,-473.444 1192.9,-472.538"/>
</g>
<!-- Node5 -->
<g id="node5" class="node"><title>Node5</title>
<g id="a_node5"><a xlink:href="internal_8cpp.html" target="_top" xlink:title="code/om/internal.cpp">
<polygon fill="none" stroke="black" points="764.584,-59 764.584,-79 873.416,-79 873.416,-59 764.584,-59"/>
<text text-anchor="middle" x="819" y="-65" font-family="Helvetica,sans-Serif" font-size="10.00">code/om/internal.cpp</text>
</a>
</g>
</g>
<!-- Node4&#45;&gt;Node5 -->
<g id="edge5" class="edge"><title>Node4&#45;&gt;Node5</title>
<path fill="none" stroke="midnightblue" d="M902.986,-117.772C882.136,-105.912 853.048,-89.3668 835.149,-79.1858"/>
<polygon fill="midnightblue" stroke="midnightblue" points="901.494,-120.95 911.917,-122.852 904.955,-114.865 901.494,-120.95"/>
</g>
<!-- Node4&#45;&gt;Node4 -->
<g id="edge6" class="edge"><title>Node4&#45;&gt;Node4</title>
<path fill="none" stroke="midnightblue" d="M963.83,-144.532C982.792,-146.424 1000,-142.58 1000,-133 1000,-121.75 976.27,-118.41 953.837,-122.98"/>
<polygon fill="midnightblue" stroke="midnightblue" points="964.248,-141.055 953.837,-143.02 963.201,-147.977 964.248,-141.055"/>
</g>
<!-- Node6 -->
<g id="node6" class="node"><title>Node6</title>
<g id="a_node6"><a xlink:href="om_8hpp.html" target="_top" xlink:title="Om &quot;umbrella&quot; header file.">
<polygon fill="none" stroke="black" points="891.091,-59 891.091,-79 964.909,-79 964.909,-59 891.091,-59"/>
<text text-anchor="middle" x="928" y="-65" font-family="Helvetica,sans-Serif" font-size="10.00">code/om.hpp</text>
</a>
</g>
</g>
<!-- Node4&#45;&gt;Node6 -->
<g id="edge7" class="edge"><title>Node4&#45;&gt;Node6</title>
<path fill="none" stroke="midnightblue" d="M921.7,-112.735C920.802,-101.557 921.248,-87.991 923.037,-79.1858"/>
<polygon fill="midnightblue" stroke="midnightblue" points="918.257,-113.4 923.045,-122.852 925.196,-112.478 918.257,-113.4"/>
</g>
<!-- Node6&#45;&gt;Node4 -->
<g id="edge8" class="edge"><title>Node6&#45;&gt;Node4</title>
<path fill="none" stroke="midnightblue" d="M934.304,-89.3131C935.198,-100.498 934.748,-114.06 932.955,-122.852"/>
<polygon fill="midnightblue" stroke="midnightblue" points="937.746,-88.6398 932.963,-79.1858 930.806,-89.5588 937.746,-88.6398"/>
</g>
<!-- Node7 -->
<g id="node7" class="node"><title>Node7</title>
<g id="a_node7"><a xlink:href="om_8cpp.html" target="_top" xlink:title="Om source file.">
<polygon fill="none" stroke="black" points="891.372,-1 891.372,-21 964.628,-21 964.628,-1 891.372,-1"/>
<text text-anchor="middle" x="928" y="-7" font-family="Helvetica,sans-Serif" font-size="10.00">code/om.cpp</text>
</a>
</g>
</g>
<!-- Node6&#45;&gt;Node7 -->
<g id="edge9" class="edge"><title>Node6&#45;&gt;Node7</title>
<path fill="none" stroke="midnightblue" d="M928,-48.7065C928,-39.3384 928,-28.5262 928,-21.0752"/>
<polygon fill="midnightblue" stroke="midnightblue" points="924.5,-48.7527 928,-58.7527 931.5,-48.7528 924.5,-48.7527"/>
</g>
<!-- Node9 -->
<g id="node9" class="node"><title>Node9</title>
<g id="a_node9"><a xlink:href="form_8hpp.html" target="_top" xlink:title="Om header file.">
<polygon fill="none" stroke="black" points="765.702,-327 765.702,-347 862.298,-347 862.298,-327 765.702,-327"/>
<text text-anchor="middle" x="814" y="-333" font-family="Helvetica,sans-Serif" font-size="10.00">code/om/form.hpp</text>
</a>
</g>
</g>
<!-- Node8&#45;&gt;Node9 -->
<g id="edge11" class="edge"><title>Node8&#45;&gt;Node9</title>
<path fill="none" stroke="midnightblue" d="M980.732,-438.841C961.166,-430.238 935.652,-418.34 914,-406 880.803,-387.08 844.265,-360.692 825.915,-347.018"/>
<polygon fill="midnightblue" stroke="midnightblue" points="979.526,-442.133 990.093,-442.905 982.314,-435.712 979.526,-442.133"/>
</g>
<!-- Node8&#45;&gt;Node4 -->
<g id="edge38" class="edge"><title>Node8&#45;&gt;Node4</title>
<path fill="none" stroke="midnightblue" d="M983.719,-437.834C970.812,-430.057 956.354,-419.278 947,-406 928.929,-380.346 928,-369.38 928,-338 928,-338 928,-338 928,-272 928,-223.365 928,-165.088 928,-143.042"/>
<polygon fill="midnightblue" stroke="midnightblue" points="982.324,-441.067 992.749,-442.959 985.78,-434.979 982.324,-441.067"/>
</g>
<!-- Node23 -->
<g id="node23" class="node"><title>Node23</title>
<g id="a_node23"><a xlink:href="operator_8cpp.html" target="_top" xlink:title="Om source file.">
<polygon fill="none" stroke="black" points="955.633,-385 955.633,-405 1068.37,-405 1068.37,-385 955.633,-385"/>
<text text-anchor="middle" x="1012" y="-391" font-family="Helvetica,sans-Serif" font-size="10.00">code/om/operator.cpp</text>
</a>
</g>
</g>
<!-- Node8&#45;&gt;Node23 -->
<g id="edge39" class="edge"><title>Node8&#45;&gt;Node23</title>
<path fill="none" stroke="midnightblue" d="M1005.55,-432.707C1004.89,-423.338 1005.33,-412.526 1006.87,-405.075"/>
<polygon fill="midnightblue" stroke="midnightblue" points="1002.09,-433.278 1006.83,-442.753 1009.04,-432.389 1002.09,-433.278"/>
</g>
<!-- Node24 -->
<g id="node24" class="node"><title>Node24</title>
<g id="a_node24"><a xlink:href="pair_8hpp.html" target="_top" xlink:title="Om header file.">
<polygon fill="none" stroke="black" points="1086.64,-385 1086.64,-405 1179.36,-405 1179.36,-385 1086.64,-385"/>
<text text-anchor="middle" x="1133" y="-391" font-family="Helvetica,sans-Serif" font-size="10.00">code/om/pair.hpp</text>
</a>
</g>
</g>
<!-- Node8&#45;&gt;Node24 -->
<g id="edge41" class="edge"><title>Node8&#45;&gt;Node24</title>
<path fill="none" stroke="midnightblue" d="M1041.05,-438.554C1063.41,-428.207 1093.7,-414.188 1113.3,-405.118"/>
<polygon fill="midnightblue" stroke="midnightblue" points="1039.32,-435.502 1031.71,-442.878 1042.26,-441.854 1039.32,-435.502"/>
</g>
<!-- Node10 -->
<g id="node10" class="node"><title>Node10</title>
<g id="a_node10"><a xlink:href="expression_8hpp.html" target="_top" xlink:title="Om header file.">
<polygon fill="none" stroke="black" points="514.522,-263 514.522,-283 639.478,-283 639.478,-263 514.522,-263"/>
<text text-anchor="middle" x="577" y="-269" font-family="Helvetica,sans-Serif" font-size="10.00">code/om/expression.hpp</text>
</a>
</g>
</g>
<!-- Node9&#45;&gt;Node10 -->
<g id="edge12" class="edge"><title>Node9&#45;&gt;Node10</title>
<path fill="none" stroke="midnightblue" d="M769.59,-324.382C723.779,-312.398 653.297,-293.959 611.503,-283.026"/>
<polygon fill="midnightblue" stroke="midnightblue" points="768.978,-327.84 779.538,-326.985 770.75,-321.068 768.978,-327.84"/>
</g>
<!-- Node22 -->
<g id="node22" class="node"><title>Node22</title>
<g id="a_node22"><a xlink:href="form_8cpp.html" target="_top" xlink:title="Om source file.">
<polygon fill="none" stroke="black" points="765.983,-263 765.983,-283 862.017,-283 862.017,-263 765.983,-263"/>
<text text-anchor="middle" x="814" y="-269" font-family="Helvetica,sans-Serif" font-size="10.00">code/om/form.cpp</text>
</a>
</g>
</g>
<!-- Node9&#45;&gt;Node22 -->
<g id="edge35" class="edge"><title>Node9&#45;&gt;Node22</title>
<path fill="none" stroke="midnightblue" d="M807.7,-316.735C806.802,-305.557 807.248,-291.991 809.037,-283.186"/>
<polygon fill="midnightblue" stroke="midnightblue" points="804.257,-317.4 809.045,-326.852 811.196,-316.478 804.257,-317.4"/>
</g>
<!-- Node9&#45;&gt;Node4 -->
<g id="edge37" class="edge"><title>Node9&#45;&gt;Node4</title>
<path fill="none" stroke="midnightblue" d="M838.118,-321.022C849.398,-312.995 862.242,-302.24 871,-290 888.953,-264.908 916.722,-172.755 925.35,-143.193"/>
<polygon fill="midnightblue" stroke="midnightblue" points="835.832,-318.344 829.516,-326.85 839.758,-324.139 835.832,-318.344"/>
</g>
<!-- Node11 -->
<g id="node11" class="node"><title>Node11</title>
<g id="a_node11"><a xlink:href="evaluation_8hpp.html" target="_top" xlink:title="Om header file.">
<polygon fill="none" stroke="black" points="-0.0932617,-193 -0.0932617,-213 122.093,-213 122.093,-193 -0.0932617,-193"/>
<text text-anchor="middle" x="61" y="-199" font-family="Helvetica,sans-Serif" font-size="10.00">code/om/evaluation.hpp</text>
</a>
</g>
</g>
<!-- Node10&#45;&gt;Node11 -->
<g id="edge13" class="edge"><title>Node10&#45;&gt;Node11</title>
<path fill="none" stroke="midnightblue" d="M504.065,-265.948C415.46,-258.032 261.619,-242.474 131,-220 119.943,-218.098 108.009,-215.555 97.1805,-213.058"/>
<polygon fill="midnightblue" stroke="midnightblue" points="504.008,-269.457 514.278,-266.852 504.625,-262.484 504.008,-269.457"/>
</g>
<!-- Node13 -->
<g id="node13" class="node"><title>Node13</title>
<g id="a_node13"><a xlink:href="expression_8cpp.html" target="_top" xlink:title="Om source file.">
<polygon fill="none" stroke="black" points="661.803,-193 661.803,-213 786.197,-213 786.197,-193 661.803,-193"/>
<text text-anchor="middle" x="724" y="-199" font-family="Helvetica,sans-Serif" font-size="10.00">code/om/expression.cpp</text>
</a>
</g>
</g>
<!-- Node10&#45;&gt;Node13 -->
<g id="edge17" class="edge"><title>Node10&#45;&gt;Node13</title>
<path fill="none" stroke="midnightblue" d="M600.993,-258.341C628.264,-244.872 672.194,-224.669 699.631,-213.067"/>
<polygon fill="midnightblue" stroke="midnightblue" points="599.131,-255.359 591.76,-262.97 602.269,-261.617 599.131,-255.359"/>
</g>
<!-- Node10&#45;&gt;Node4 -->
<g id="edge19" class="edge"><title>Node10&#45;&gt;Node4</title>
<path fill="none" stroke="midnightblue" d="M649.556,-262.792C693.291,-255.301 749.205,-242.212 795,-220 816.921,-209.368 817.844,-199.686 838,-186 862.335,-169.477 892.168,-152.914 910.632,-143.06"/>
<polygon fill="midnightblue" stroke="midnightblue" points="648.864,-259.358 639.568,-264.442 650.005,-266.265 648.864,-259.358"/>
</g>
<!-- Node14 -->
<g id="node14" class="node"><title>Node14</title>
<g id="a_node14"><a xlink:href="expression__operation_8hpp.html" target="_top" xlink:title="Om header file.">
<polygon fill="none" stroke="black" points="510.069,-187 510.069,-219 643.931,-219 643.931,-187 510.069,-187"/>
<text text-anchor="start" x="518.069" y="-205" font-family="Helvetica,sans-Serif" font-size="10.00">code/om/operations</text>
<text text-anchor="middle" x="577" y="-193" font-family="Helvetica,sans-Serif" font-size="10.00">/expression_operation.hpp</text>
</a>
</g>
</g>
<!-- Node10&#45;&gt;Node14 -->
<g id="edge20" class="edge"><title>Node10&#45;&gt;Node14</title>
<path fill="none" stroke="midnightblue" d="M577,-252.522C577,-241.956 577,-229.087 577,-219.258"/>
<polygon fill="midnightblue" stroke="midnightblue" points="573.5,-252.829 577,-262.829 580.5,-252.829 573.5,-252.829"/>
</g>
<!-- Node16 -->
<g id="node16" class="node"><title>Node16</title>
<g id="a_node16"><a xlink:href="fill__operation_8hpp.html" target="_top" xlink:title="Om header file.">
<polygon fill="none" stroke="black" points="140.084,-187 140.084,-219 243.916,-219 243.916,-187 140.084,-187"/>
<text text-anchor="start" x="148.084" y="-205" font-family="Helvetica,sans-Serif" font-size="10.00">code/om/operations</text>
<text text-anchor="middle" x="192" y="-193" font-family="Helvetica,sans-Serif" font-size="10.00">/fill_operation.hpp</text>
</a>
</g>
</g>
<!-- Node10&#45;&gt;Node16 -->
<g id="edge23" class="edge"><title>Node10&#45;&gt;Node16</title>
<path fill="none" stroke="midnightblue" d="M503.969,-262.351C438.055,-253.152 338.587,-238.048 253,-220 250.108,-219.39 247.147,-218.731 244.164,-218.039"/>
<polygon fill="midnightblue" stroke="midnightblue" points="503.866,-265.87 514.252,-263.776 504.827,-258.937 503.866,-265.87"/>
</g>
<!-- Node18 -->
<g id="node18" class="node"><title>Node18</title>
<g id="a_node18"><a xlink:href="inject__operation_8hpp.html" target="_top" xlink:title="Om header file.">
<polygon fill="none" stroke="black" points="261.577,-187 261.577,-219 370.423,-219 370.423,-187 261.577,-187"/>
<text text-anchor="start" x="269.577" y="-205" font-family="Helvetica,sans-Serif" font-size="10.00">code/om/operations</text>
<text text-anchor="middle" x="316" y="-193" font-family="Helvetica,sans-Serif" font-size="10.00">/inject_operation.hpp</text>
</a>
</g>
</g>
<!-- Node10&#45;&gt;Node18 -->
<g id="edge27" class="edge"><title>Node10&#45;&gt;Node18</title>
<path fill="none" stroke="midnightblue" d="M532.641,-260.443C487.962,-248.802 418.938,-230.819 370.848,-218.29"/>
<polygon fill="midnightblue" stroke="midnightblue" points="531.782,-263.836 542.341,-262.97 533.547,-257.062 531.782,-263.836"/>
</g>
<!-- Node20 -->
<g id="node20" class="node"><title>Node20</title>
<g id="a_node20"><a xlink:href="skip__operation_8hpp.html" target="_top" xlink:title="Om header file.">
<polygon fill="none" stroke="black" points="388.084,-187 388.084,-219 491.916,-219 491.916,-187 388.084,-187"/>
<text text-anchor="start" x="396.084" y="-205" font-family="Helvetica,sans-Serif" font-size="10.00">code/om/operations</text>
<text text-anchor="middle" x="440" y="-193" font-family="Helvetica,sans-Serif" font-size="10.00">/skip_operation.hpp</text>
</a>
</g>
</g>
<!-- Node10&#45;&gt;Node20 -->
<g id="edge31" class="edge"><title>Node10&#45;&gt;Node20</title>
<path fill="none" stroke="midnightblue" d="M549.64,-258.42C526.728,-247.047 494.062,-230.834 470.35,-219.064"/>
<polygon fill="midnightblue" stroke="midnightblue" points="548.294,-261.659 558.807,-262.97 551.406,-255.389 548.294,-261.659"/>
</g>
<!-- Node12 -->
<g id="node12" class="node"><title>Node12</title>
<g id="a_node12"><a xlink:href="evaluation_8cpp.html" target="_top" xlink:title="Om source file.">
<polygon fill="none" stroke="black" points="0.1875,-123 0.1875,-143 121.812,-143 121.812,-123 0.1875,-123"/>
<text text-anchor="middle" x="61" y="-129" font-family="Helvetica,sans-Serif" font-size="10.00">code/om/evaluation.cpp</text>
</a>
</g>
</g>
<!-- Node11&#45;&gt;Node12 -->
<g id="edge14" class="edge"><title>Node11&#45;&gt;Node12</title>
<path fill="none" stroke="midnightblue" d="M54.833,-182.557C53.7261,-169.557 54.1954,-153.057 56.2409,-143.025"/>
<polygon fill="midnightblue" stroke="midnightblue" points="51.4125,-183.384 56.2115,-192.829 58.3503,-182.453 51.4125,-183.384"/>
</g>
<!-- Node11&#45;&gt;Node4 -->
<g id="edge16" class="edge"><title>Node11&#45;&gt;Node4</title>
<path fill="none" stroke="midnightblue" d="M105.676,-190.673C114.047,-188.869 122.756,-187.203 131,-186 167.66,-180.649 698.737,-147.982 873.035,-137.344"/>
<polygon fill="midnightblue" stroke="midnightblue" points="104.675,-187.31 95.6872,-192.921 106.212,-194.14 104.675,-187.31"/>
</g>
<!-- Node12&#45;&gt;Node11 -->
<g id="edge15" class="edge"><title>Node12&#45;&gt;Node11</title>
<path fill="none" stroke="midnightblue" d="M67.1509,-153.256C68.273,-166.222 67.8189,-182.735 65.7885,-192.829"/>
<polygon fill="midnightblue" stroke="midnightblue" points="70.5753,-152.462 65.7591,-143.025 63.6392,-153.406 70.5753,-152.462"/>
</g>
<!-- Node13&#45;&gt;Node10 -->
<g id="edge18" class="edge"><title>Node13&#45;&gt;Node10</title>
<path fill="none" stroke="midnightblue" d="M699.919,-217.702C672.612,-231.186 628.682,-251.387 601.28,-262.97"/>
<polygon fill="midnightblue" stroke="midnightblue" points="701.795,-220.677 709.166,-213.067 698.658,-214.419 701.795,-220.677"/>
</g>
<!-- Node14&#45;&gt;Node4 -->
<g id="edge21" class="edge"><title>Node14&#45;&gt;Node4</title>
<path fill="none" stroke="midnightblue" d="M654.148,-185.791C738.667,-168.978 825.509,-152.794 878.511,-143.04"/>
<polygon fill="midnightblue" stroke="midnightblue" points="653.244,-182.402 644.121,-187.791 654.613,-189.267 653.244,-182.402"/>
</g>
<!-- Node15 -->
<g id="node15" class="node"><title>Node15</title>
<g id="a_node15"><a xlink:href="expression__operation_8cpp.html" target="_top" xlink:title="Om source file.">
<polygon fill="none" stroke="black" points="510.35,-117 510.35,-149 643.65,-149 643.65,-117 510.35,-117"/>
<text text-anchor="start" x="518.35" y="-135" font-family="Helvetica,sans-Serif" font-size="10.00">code/om/operations</text>
<text text-anchor="middle" x="577" y="-123" font-family="Helvetica,sans-Serif" font-size="10.00">/expression_operation.cpp</text>
</a>
</g>
</g>
<!-- Node14&#45;&gt;Node15 -->
<g id="edge22" class="edge"><title>Node14&#45;&gt;Node15</title>
<path fill="none" stroke="midnightblue" d="M577,-176.617C577,-167.338 577,-157.141 577,-149.049"/>
<polygon fill="midnightblue" stroke="midnightblue" points="573.5,-176.909 577,-186.909 580.5,-176.909 573.5,-176.909"/>
</g>
<!-- Node16&#45;&gt;Node4 -->
<g id="edge24" class="edge"><title>Node16&#45;&gt;Node4</title>
<path fill="none" stroke="midnightblue" d="M254.299,-186.022C390.283,-164.897 738.025,-144.418 873.213,-136.947"/>
<polygon fill="midnightblue" stroke="midnightblue" points="253.42,-182.618 244.11,-187.674 254.541,-189.528 253.42,-182.618"/>
</g>
<!-- Node17 -->
<g id="node17" class="node"><title>Node17</title>
<g id="a_node17"><a xlink:href="fill__operation_8cpp.html" target="_top" xlink:title="Om source file.">
<polygon fill="none" stroke="black" points="140.084,-117 140.084,-149 243.916,-149 243.916,-117 140.084,-117"/>
<text text-anchor="start" x="148.084" y="-135" font-family="Helvetica,sans-Serif" font-size="10.00">code/om/operations</text>
<text text-anchor="middle" x="192" y="-123" font-family="Helvetica,sans-Serif" font-size="10.00">/fill_operation.cpp</text>
</a>
</g>
</g>
<!-- Node16&#45;&gt;Node17 -->
<g id="edge25" class="edge"><title>Node16&#45;&gt;Node17</title>
<path fill="none" stroke="midnightblue" d="M185.461,-176.92C185.009,-167.56 185.284,-157.229 186.285,-149.049"/>
<polygon fill="midnightblue" stroke="midnightblue" points="181.974,-177.228 186.28,-186.909 188.951,-176.656 181.974,-177.228"/>
</g>
<!-- Node17&#45;&gt;Node16 -->
<g id="edge26" class="edge"><title>Node17&#45;&gt;Node16</title>
<path fill="none" stroke="midnightblue" d="M198.537,-159.032C198.991,-168.389 198.719,-178.721 197.72,-186.909"/>
<polygon fill="midnightblue" stroke="midnightblue" points="202.024,-158.728 197.715,-149.049 195.047,-159.303 202.024,-158.728"/>
</g>
<!-- Node18&#45;&gt;Node4 -->
<g id="edge28" class="edge"><title>Node18&#45;&gt;Node4</title>
<path fill="none" stroke="midnightblue" d="M380.449,-185.9C565.777,-154.468 775.574,-141.255 873.083,-136.394"/>
<polygon fill="midnightblue" stroke="midnightblue" points="379.788,-182.462 370.525,-187.605 380.973,-189.361 379.788,-182.462"/>
</g>
<!-- Node19 -->
<g id="node19" class="node"><title>Node19</title>
<g id="a_node19"><a xlink:href="inject__operation_8cpp.html" target="_top" xlink:title="Om source file.">
<polygon fill="none" stroke="black" points="261.857,-117 261.857,-149 370.143,-149 370.143,-117 261.857,-117"/>
<text text-anchor="start" x="269.857" y="-135" font-family="Helvetica,sans-Serif" font-size="10.00">code/om/operations</text>
<text text-anchor="middle" x="316" y="-123" font-family="Helvetica,sans-Serif" font-size="10.00">/inject_operation.cpp</text>
</a>
</g>
</g>
<!-- Node18&#45;&gt;Node19 -->
<g id="edge29" class="edge"><title>Node18&#45;&gt;Node19</title>
<path fill="none" stroke="midnightblue" d="M309.461,-176.92C309.009,-167.56 309.284,-157.229 310.285,-149.049"/>
<polygon fill="midnightblue" stroke="midnightblue" points="305.974,-177.228 310.28,-186.909 312.951,-176.656 305.974,-177.228"/>
</g>
<!-- Node19&#45;&gt;Node18 -->
<g id="edge30" class="edge"><title>Node19&#45;&gt;Node18</title>
<path fill="none" stroke="midnightblue" d="M322.537,-159.032C322.991,-168.389 322.719,-178.721 321.72,-186.909"/>
<polygon fill="midnightblue" stroke="midnightblue" points="326.024,-158.728 321.715,-149.049 319.047,-159.303 326.024,-158.728"/>
</g>
<!-- Node20&#45;&gt;Node4 -->
<g id="edge32" class="edge"><title>Node20&#45;&gt;Node4</title>
<path fill="none" stroke="midnightblue" d="M502.096,-185.94C640.763,-159.974 793.286,-145.06 873.035,-138.298"/>
<polygon fill="midnightblue" stroke="midnightblue" points="501.31,-182.527 492.137,-187.829 502.614,-189.404 501.31,-182.527"/>
</g>
<!-- Node21 -->
<g id="node21" class="node"><title>Node21</title>
<g id="a_node21"><a xlink:href="skip__operation_8cpp.html" target="_top" xlink:title="Om source file.">
<polygon fill="none" stroke="black" points="388.084,-117 388.084,-149 491.916,-149 491.916,-117 388.084,-117"/>
<text text-anchor="start" x="396.084" y="-135" font-family="Helvetica,sans-Serif" font-size="10.00">code/om/operations</text>
<text text-anchor="middle" x="440" y="-123" font-family="Helvetica,sans-Serif" font-size="10.00">/skip_operation.cpp</text>
</a>
</g>
</g>
<!-- Node20&#45;&gt;Node21 -->
<g id="edge33" class="edge"><title>Node20&#45;&gt;Node21</title>
<path fill="none" stroke="midnightblue" d="M433.461,-176.92C433.009,-167.56 433.284,-157.229 434.285,-149.049"/>
<polygon fill="midnightblue" stroke="midnightblue" points="429.974,-177.228 434.28,-186.909 436.951,-176.656 429.974,-177.228"/>
</g>
<!-- Node21&#45;&gt;Node20 -->
<g id="edge34" class="edge"><title>Node21&#45;&gt;Node20</title>
<path fill="none" stroke="midnightblue" d="M446.537,-159.032C446.991,-168.389 446.719,-178.721 445.72,-186.909"/>
<polygon fill="midnightblue" stroke="midnightblue" points="450.024,-158.728 445.715,-149.049 443.047,-159.303 450.024,-158.728"/>
</g>
<!-- Node22&#45;&gt;Node9 -->
<g id="edge36" class="edge"><title>Node22&#45;&gt;Node9</title>
<path fill="none" stroke="midnightblue" d="M820.304,-293.313C821.198,-304.498 820.748,-318.06 818.955,-326.852"/>
<polygon fill="midnightblue" stroke="midnightblue" points="823.746,-292.64 818.963,-283.186 816.806,-293.559 823.746,-292.64"/>
</g>
<!-- Node23&#45;&gt;Node8 -->
<g id="edge40" class="edge"><title>Node23&#45;&gt;Node8</title>
<path fill="none" stroke="midnightblue" d="M1018.44,-415.078C1019.12,-424.424 1018.69,-435.25 1017.17,-442.753"/>
<polygon fill="midnightblue" stroke="midnightblue" points="1021.9,-414.538 1017.13,-405.075 1014.95,-415.444 1021.9,-414.538"/>
</g>
<!-- Node24&#45;&gt;Node4 -->
<g id="edge42" class="edge"><title>Node24&#45;&gt;Node4</title>
<path fill="none" stroke="midnightblue" d="M1189.5,-388.67C1249.79,-379.62 1342.5,-355.286 1386,-290 1402.82,-264.754 1371.2,-190.428 1366,-186 1309.52,-137.908 1087.64,-132.826 983.081,-133.198"/>
<polygon fill="midnightblue" stroke="midnightblue" points="1188.79,-385.235 1179.37,-390.092 1189.76,-392.167 1188.79,-385.235"/>
</g>
<!-- Node25 -->
<g id="node25" class="node"><title>Node25</title>
<g id="a_node25"><a xlink:href="lexicon_8hpp.html" target="_top" xlink:title="Om header file.">
<polygon fill="none" stroke="black" points="1131.14,-327 1131.14,-347 1238.86,-347 1238.86,-327 1131.14,-327"/>
<text text-anchor="middle" x="1185" y="-333" font-family="Helvetica,sans-Serif" font-size="10.00">code/om/lexicon.hpp</text>
</a>
</g>
</g>
<!-- Node24&#45;&gt;Node25 -->
<g id="edge43" class="edge"><title>Node24&#45;&gt;Node25</title>
<path fill="none" stroke="midnightblue" d="M1148.41,-377.41C1157.62,-367.486 1168.98,-355.255 1176.57,-347.075"/>
<polygon fill="midnightblue" stroke="midnightblue" points="1145.83,-375.043 1141.59,-384.753 1150.96,-379.806 1145.83,-375.043"/>
</g>
<!-- Node33 -->
<g id="node33" class="node"><title>Node33</title>
<g id="a_node33"><a xlink:href="pair_8cpp.html" target="_top" xlink:title="Om source file.">
<polygon fill="none" stroke="black" points="1020.92,-327 1020.92,-347 1113.08,-347 1113.08,-327 1020.92,-327"/>
<text text-anchor="middle" x="1067" y="-333" font-family="Helvetica,sans-Serif" font-size="10.00">code/om/pair.cpp</text>
</a>
</g>
</g>
<!-- Node24&#45;&gt;Node33 -->
<g id="edge58" class="edge"><title>Node24&#45;&gt;Node33</title>
<path fill="none" stroke="midnightblue" d="M1108.72,-378.578C1095.68,-368.461 1080.83,-355.579 1072.56,-347.075"/>
<polygon fill="midnightblue" stroke="midnightblue" points="1106.84,-381.542 1116.94,-384.753 1111.04,-375.947 1106.84,-381.542"/>
</g>
<!-- Node25&#45;&gt;Node4 -->
<g id="edge44" class="edge"><title>Node25&#45;&gt;Node4</title>
<path fill="none" stroke="midnightblue" d="M1197.1,-317.758C1206.63,-300.915 1216.66,-275.616 1206,-256 1162.46,-175.886 1050.81,-148.336 982.987,-138.893"/>
<polygon fill="midnightblue" stroke="midnightblue" points="1193.93,-316.231 1191.71,-326.59 1199.91,-319.877 1193.93,-316.231"/>
</g>
<!-- Node26 -->
<g id="node26" class="node"><title>Node26</title>
<g id="a_node26"><a xlink:href="lexicon_8cpp.html" target="_top" xlink:title="Om source file.">
<polygon fill="none" stroke="black" points="1090.42,-263 1090.42,-283 1197.58,-283 1197.58,-263 1090.42,-263"/>
<text text-anchor="middle" x="1144" y="-269" font-family="Helvetica,sans-Serif" font-size="10.00">code/om/lexicon.cpp</text>
</a>
</g>
</g>
<!-- Node25&#45;&gt;Node26 -->
<g id="edge45" class="edge"><title>Node25&#45;&gt;Node26</title>
<path fill="none" stroke="midnightblue" d="M1167.51,-318.801C1158.75,-307.271 1149.4,-292.541 1145.11,-283.186"/>
<polygon fill="midnightblue" stroke="midnightblue" points="1165,-321.259 1173.99,-326.852 1170.45,-316.868 1165,-321.259"/>
</g>
<!-- Node27 -->
<g id="node27" class="node"><title>Node27</title>
<g id="a_node27"><a xlink:href="lexicon__operation_8hpp.html" target="_top" xlink:title="Om header file.">
<polygon fill="none" stroke="black" points="955.685,-257 955.685,-289 1072.31,-289 1072.31,-257 955.685,-257"/>
<text text-anchor="start" x="963.685" y="-275" font-family="Helvetica,sans-Serif" font-size="10.00">code/om/operations</text>
<text text-anchor="middle" x="1014" y="-263" font-family="Helvetica,sans-Serif" font-size="10.00">/lexicon_operation.hpp</text>
</a>
</g>
</g>
<!-- Node25&#45;&gt;Node27 -->
<g id="edge47" class="edge"><title>Node25&#45;&gt;Node27</title>
<path fill="none" stroke="midnightblue" d="M1150.56,-323.513C1123.11,-313.561 1084.58,-299.59 1055.44,-289.026"/>
<polygon fill="midnightblue" stroke="midnightblue" points="1149.54,-326.866 1160.14,-326.985 1151.93,-320.286 1149.54,-326.866"/>
</g>
<!-- Node29 -->
<g id="node29" class="node"><title>Node29</title>
<g id="a_node29"><a xlink:href="translate__operation_8hpp.html" target="_top" xlink:title="Om header file.">
<polygon fill="none" stroke="black" points="1254.07,-257 1254.07,-289 1377.93,-289 1377.93,-257 1254.07,-257"/>
<text text-anchor="start" x="1262.07" y="-275" font-family="Helvetica,sans-Serif" font-size="10.00">code/om/operations</text>
<text text-anchor="middle" x="1316" y="-263" font-family="Helvetica,sans-Serif" font-size="10.00">/translate_operation.hpp</text>
</a>
</g>
</g>
<!-- Node25&#45;&gt;Node29 -->
<g id="edge50" class="edge"><title>Node25&#45;&gt;Node29</title>
<path fill="none" stroke="midnightblue" d="M1213.34,-322.586C1234.22,-312.706 1262.62,-299.266 1284.25,-289.026"/>
<polygon fill="midnightblue" stroke="midnightblue" points="1211.59,-319.543 1204.05,-326.985 1214.58,-325.87 1211.59,-319.543"/>
</g>
<!-- Node26&#45;&gt;Node25 -->
<g id="edge46" class="edge"><title>Node26&#45;&gt;Node25</title>
<path fill="none" stroke="midnightblue" d="M1161.53,-291.246C1170.28,-302.784 1179.63,-317.511 1183.91,-326.852"/>
<polygon fill="midnightblue" stroke="midnightblue" points="1164.03,-288.781 1155.04,-283.186 1158.58,-293.17 1164.03,-288.781"/>
</g>
<!-- Node27&#45;&gt;Node4 -->
<g id="edge48" class="edge"><title>Node27&#45;&gt;Node4</title>
<path fill="none" stroke="midnightblue" d="M1052.93,-251.03C1064.07,-242.925 1074.86,-232.54 1081,-220 1087.65,-206.429 1089.8,-198.285 1081,-186 1058.86,-155.096 1017.3,-142.339 983.07,-137.176"/>
<polygon fill="midnightblue" stroke="midnightblue" points="1050.74,-248.287 1044.41,-256.782 1054.65,-254.089 1050.74,-248.287"/>
</g>
<!-- Node28 -->
<g id="node28" class="node"><title>Node28</title>
<g id="a_node28"><a xlink:href="lexicon__operation_8cpp.html" target="_top" xlink:title="Om source file.">
<polygon fill="none" stroke="black" points="955.966,-187 955.966,-219 1072.03,-219 1072.03,-187 955.966,-187"/>
<text text-anchor="start" x="963.966" y="-205" font-family="Helvetica,sans-Serif" font-size="10.00">code/om/operations</text>
<text text-anchor="middle" x="1014" y="-193" font-family="Helvetica,sans-Serif" font-size="10.00">/lexicon_operation.cpp</text>
</a>
</g>
</g>
<!-- Node27&#45;&gt;Node28 -->
<g id="edge49" class="edge"><title>Node27&#45;&gt;Node28</title>
<path fill="none" stroke="midnightblue" d="M1014,-246.617C1014,-237.338 1014,-227.141 1014,-219.049"/>
<polygon fill="midnightblue" stroke="midnightblue" points="1010.5,-246.909 1014,-256.909 1017.5,-246.909 1010.5,-246.909"/>
</g>
<!-- Node29&#45;&gt;Node4 -->
<g id="edge51" class="edge"><title>Node29&#45;&gt;Node4</title>
<path fill="none" stroke="midnightblue" d="M1336.29,-248.868C1350.27,-230.056 1363.74,-203.804 1348,-186 1324.19,-159.058 1091.22,-142.915 982.885,-136.808"/>
<polygon fill="midnightblue" stroke="midnightblue" points="1333.38,-246.91 1329.94,-256.93 1338.88,-251.244 1333.38,-246.91"/>
</g>
<!-- Node30 -->
<g id="node30" class="node"><title>Node30</title>
<g id="a_node30"><a xlink:href="substitute__operation_8hpp.html" target="_top" xlink:title="Om header file.">
<polygon fill="none" stroke="black" points="1650.85,-187 1650.85,-219 1779.15,-219 1779.15,-187 1650.85,-187"/>
<text text-anchor="start" x="1658.85" y="-205" font-family="Helvetica,sans-Serif" font-size="10.00">code/om/operations</text>
<text text-anchor="middle" x="1715" y="-193" font-family="Helvetica,sans-Serif" font-size="10.00">/substitute_operation.hpp</text>
</a>
</g>
</g>
<!-- Node29&#45;&gt;Node30 -->
<g id="edge52" class="edge"><title>Node29&#45;&gt;Node30</title>
<path fill="none" stroke="midnightblue" d="M1388.63,-259.622C1463.51,-246.86 1579.15,-227.153 1650.78,-214.944"/>
<polygon fill="midnightblue" stroke="midnightblue" points="1387.61,-256.245 1378.34,-261.375 1388.79,-263.145 1387.61,-256.245"/>
</g>
<!-- Node32 -->
<g id="node32" class="node"><title>Node32</title>
<g id="a_node32"><a xlink:href="translate__operation_8cpp.html" target="_top" xlink:title="Om source file.">
<polygon fill="none" stroke="black" points="1216.35,-187 1216.35,-219 1339.65,-219 1339.65,-187 1216.35,-187"/>
<text text-anchor="start" x="1224.35" y="-205" font-family="Helvetica,sans-Serif" font-size="10.00">code/om/operations</text>
<text text-anchor="middle" x="1278" y="-193" font-family="Helvetica,sans-Serif" font-size="10.00">/translate_operation.cpp</text>
</a>
</g>
</g>
<!-- Node29&#45;&gt;Node32 -->
<g id="edge56" class="edge"><title>Node29&#45;&gt;Node32</title>
<path fill="none" stroke="midnightblue" d="M1296.36,-248.42C1290.36,-238.677 1284.46,-227.669 1280.69,-219.049"/>
<polygon fill="midnightblue" stroke="midnightblue" points="1293.48,-250.408 1301.85,-256.909 1299.36,-246.61 1293.48,-250.408"/>
</g>
<!-- Node30&#45;&gt;Node4 -->
<g id="edge53" class="edge"><title>Node30&#45;&gt;Node4</title>
<path fill="none" stroke="midnightblue" d="M1640.84,-186.553C1639.55,-186.361 1638.27,-186.176 1637,-186 1394.64,-152.398 1102.45,-139.654 982.962,-135.615"/>
<polygon fill="midnightblue" stroke="midnightblue" points="1640.41,-190.028 1650.84,-188.155 1641.52,-183.117 1640.41,-190.028"/>
</g>
<!-- Node31 -->
<g id="node31" class="node"><title>Node31</title>
<g id="a_node31"><a xlink:href="substitute__operation_8cpp.html" target="_top" xlink:title="Om source file.">
<polygon fill="none" stroke="black" points="1651.13,-117 1651.13,-149 1778.87,-149 1778.87,-117 1651.13,-117"/>
<text text-anchor="start" x="1659.13" y="-135" font-family="Helvetica,sans-Serif" font-size="10.00">code/om/operations</text>
<text text-anchor="middle" x="1715" y="-123" font-family="Helvetica,sans-Serif" font-size="10.00">/substitute_operation.cpp</text>
</a>
</g>
</g>
<!-- Node30&#45;&gt;Node31 -->
<g id="edge54" class="edge"><title>Node30&#45;&gt;Node31</title>
<path fill="none" stroke="midnightblue" d="M1708.46,-176.92C1708.01,-167.56 1708.28,-157.229 1709.29,-149.049"/>
<polygon fill="midnightblue" stroke="midnightblue" points="1704.97,-177.228 1709.28,-186.909 1711.95,-176.656 1704.97,-177.228"/>
</g>
<!-- Node31&#45;&gt;Node30 -->
<g id="edge55" class="edge"><title>Node31&#45;&gt;Node30</title>
<path fill="none" stroke="midnightblue" d="M1721.54,-159.032C1721.99,-168.389 1721.72,-178.721 1720.72,-186.909"/>
<polygon fill="midnightblue" stroke="midnightblue" points="1725.02,-158.728 1720.71,-149.049 1718.05,-159.303 1725.02,-158.728"/>
</g>
<!-- Node32&#45;&gt;Node29 -->
<g id="edge57" class="edge"><title>Node32&#45;&gt;Node29</title>
<path fill="none" stroke="midnightblue" d="M1297.61,-227.532C1303.61,-237.272 1309.52,-248.281 1313.29,-256.909"/>
<polygon fill="midnightblue" stroke="midnightblue" points="1300.49,-225.548 1292.12,-219.049 1294.61,-229.348 1300.49,-225.548"/>
</g>
<!-- Node33&#45;&gt;Node24 -->
<g id="edge59" class="edge"><title>Node33&#45;&gt;Node24</title>
<path fill="none" stroke="midnightblue" d="M1091.02,-353.219C1104.03,-363.298 1118.92,-376.19 1127.27,-384.753"/>
<polygon fill="midnightblue" stroke="midnightblue" points="1092.93,-350.275 1082.83,-347.075 1088.73,-355.875 1092.93,-350.275"/>
</g>
<!-- Node34&#45;&gt;Node4 -->
<g id="edge61" class="edge"><title>Node34&#45;&gt;Node4</title>
<path fill="none" stroke="midnightblue" d="M1368.12,-437.754C1398.34,-419.139 1444,-383.488 1444,-338 1444,-338 1444,-338 1444,-272 1444,-226.389 1426.81,-209.96 1388,-186 1321.41,-144.889 1089.92,-136.234 982.961,-134.446"/>
<polygon fill="midnightblue" stroke="midnightblue" points="1366.12,-434.868 1359.3,-442.976 1369.69,-440.89 1366.12,-434.868"/>
</g>
<!-- Node35 -->
<g id="node35" class="node"><title>Node35</title>
<g id="a_node35"><a xlink:href="separator_8cpp.html" target="_top" xlink:title="Om source file.">
<polygon fill="none" stroke="black" points="1283.13,-385 1283.13,-405 1400.87,-405 1400.87,-385 1283.13,-385"/>
<text text-anchor="middle" x="1342" y="-391" font-family="Helvetica,sans-Serif" font-size="10.00">code/om/separator.cpp</text>
</a>
</g>
</g>
<!-- Node34&#45;&gt;Node35 -->
<g id="edge62" class="edge"><title>Node34&#45;&gt;Node35</title>
<path fill="none" stroke="midnightblue" d="M1335.55,-432.707C1334.89,-423.338 1335.33,-412.526 1336.87,-405.075"/>
<polygon fill="midnightblue" stroke="midnightblue" points="1332.09,-433.278 1336.83,-442.753 1339.04,-432.389 1332.09,-433.278"/>
</g>
<!-- Node35&#45;&gt;Node34 -->
<g id="edge63" class="edge"><title>Node35&#45;&gt;Node34</title>
<path fill="none" stroke="midnightblue" d="M1348.44,-415.078C1349.12,-424.424 1348.69,-435.25 1347.17,-442.753"/>
<polygon fill="midnightblue" stroke="midnightblue" points="1351.9,-414.538 1347.13,-405.075 1344.95,-415.444 1351.9,-414.538"/>
</g>
<!-- Node36&#45;&gt;Node1 -->
<g id="edge65" class="edge"><title>Node36&#45;&gt;Node1</title>
<path fill="none" stroke="midnightblue" d="M1396.44,-531.078C1397.12,-540.424 1396.69,-551.25 1395.17,-558.753"/>
<polygon fill="midnightblue" stroke="midnightblue" points="1399.9,-530.538 1395.13,-521.075 1392.95,-531.444 1399.9,-530.538"/>
</g>
<!-- Node37&#45;&gt;Node4 -->
<g id="edge68" class="edge"><title>Node37&#45;&gt;Node4</title>
<path fill="none" stroke="midnightblue" d="M1507.16,-495.947C1494.46,-488.42 1481.08,-477.815 1474,-464 1469.54,-455.299 1473.62,-451.771 1474,-442 1475.78,-395.675 1482,-384.359 1482,-338 1482,-338 1482,-338 1482,-272 1482,-225.648 1462.83,-209.715 1423,-186 1349.87,-142.453 1096.16,-135.134 983.105,-134.074"/>
<polygon fill="midnightblue" stroke="midnightblue" points="1505.73,-499.157 1516.19,-500.885 1509.09,-493.016 1505.73,-499.157"/>
</g>
<!-- Node38 -->
<g id="node38" class="node"><title>Node38</title>
<g id="a_node38"><a xlink:href="operand_8cpp.html" target="_top" xlink:title="Om source file.">
<polygon fill="none" stroke="black" points="1482.63,-443 1482.63,-463 1595.37,-463 1595.37,-443 1482.63,-443"/>
<text text-anchor="middle" x="1539" y="-449" font-family="Helvetica,sans-Serif" font-size="10.00">code/om/operand.cpp</text>
</a>
</g>
</g>
<!-- Node37&#45;&gt;Node38 -->
<g id="edge69" class="edge"><title>Node37&#45;&gt;Node38</title>
<path fill="none" stroke="midnightblue" d="M1531.89,-490.707C1531.4,-481.338 1532.03,-470.526 1533.71,-463.075"/>
<polygon fill="midnightblue" stroke="midnightblue" points="1528.43,-491.196 1533,-500.753 1535.38,-490.43 1528.43,-491.196"/>
</g>
<!-- Node38&#45;&gt;Node37 -->
<g id="edge70" class="edge"><title>Node38&#45;&gt;Node37</title>
<path fill="none" stroke="midnightblue" d="M1545.1,-473.078C1545.61,-482.424 1544.99,-493.25 1543.33,-500.753"/>
<polygon fill="midnightblue" stroke="midnightblue" points="1548.57,-472.621 1543.97,-463.075 1541.61,-473.404 1548.57,-472.621"/>
</g>
</g>
</svg>
