<?xml version="1.0" encoding="UTF-8" standalone="no"?>
<!DOCTYPE svg PUBLIC "-//W3C//DTD SVG 1.1//EN"
 "http://www.w3.org/Graphics/SVG/1.1/DTD/svg11.dtd">
<!-- Generated by graphviz version 2.36.0 (20140111.2315)
 -->
<!-- Title: om/sink/default_sink.cpp Pages: 1 -->
<svg width="178pt" height="252pt"
 viewBox="0.00 0.00 178.00 252.00" xmlns="http://www.w3.org/2000/svg" xmlns:xlink="http://www.w3.org/1999/xlink">
<g id="graph0" class="graph" transform="scale(1 1) rotate(0) translate(4 248)">
<title>om/sink/default_sink.cpp</title>
<!-- Node1 -->
<g id="node1" class="node"><title>Node1</title>
<polygon fill="#bfbfbf" stroke="black" points="40.249,-225 40.249,-243 165.751,-243 165.751,-225 40.249,-225"/>
<text text-anchor="middle" x="103" y="-231" font-family="Helvetica,sans-Serif" font-size="10.00">om/sink/default_sink.cpp</text>
</g>
<!-- Node2 -->
<g id="node2" class="node"><title>Node2</title>
<g id="a_node2"><a xlink:href="default__sink_8hpp.html" target="_top" xlink:title="Om header file. ">
<polygon fill="none" stroke="black" points="39.9683,-169 39.9683,-187 166.032,-187 166.032,-169 39.9683,-169"/>
<text text-anchor="middle" x="103" y="-175" font-family="Helvetica,sans-Serif" font-size="10.00">om/sink/default_sink.hpp</text>
</a>
</g>
</g>
<!-- Node1&#45;&gt;Node2 -->
<g id="edge1" class="edge"><title>Node1&#45;&gt;Node2</title>
<path fill="none" stroke="midnightblue" d="M97.9375,-224.562C96.3254,-217.308 95.8683,-206.588 96.5664,-197.369"/>
<polygon fill="midnightblue" stroke="midnightblue" points="100.069,-197.59 97.9906,-187.201 93.1371,-196.619 100.069,-197.59"/>
</g>
<!-- Node2&#45;&gt;Node1 -->
<g id="edge8" class="edge"><title>Node2&#45;&gt;Node1</title>
<path fill="none" stroke="midnightblue" d="M108.009,-187.201C109.665,-194.459 110.139,-205.313 109.433,-214.633"/>
<polygon fill="midnightblue" stroke="midnightblue" points="105.963,-214.178 108.062,-224.562 112.897,-215.135 105.963,-214.178"/>
</g>
<!-- Node3 -->
<g id="node3" class="node"><title>Node3</title>
<g id="a_node3"><a xlink:href="sink_2sink_8hpp.html" target="_top" xlink:title="Om header file. ">
<polygon fill="none" stroke="black" points="14.7612,-113 14.7612,-131 105.239,-131 105.239,-113 14.7612,-113"/>
<text text-anchor="middle" x="60" y="-119" font-family="Helvetica,sans-Serif" font-size="10.00">om/sink/sink.hpp</text>
</a>
</g>
</g>
<!-- Node2&#45;&gt;Node3 -->
<g id="edge2" class="edge"><title>Node2&#45;&gt;Node3</title>
<path fill="none" stroke="midnightblue" d="M96.2812,-168.562C90.0602,-160.75 80.6389,-148.919 72.9561,-139.27"/>
<polygon fill="midnightblue" stroke="midnightblue" points="75.4981,-136.844 66.5308,-131.201 70.0221,-141.205 75.4981,-136.844"/>
</g>
<!-- Node7 -->
<g id="node7" class="node"><title>Node7</title>
<polygon fill="none" stroke="#bfbfbf" points="123.438,-113 123.438,-131 170.562,-131 170.562,-113 123.438,-113"/>
<text text-anchor="middle" x="147" y="-119" font-family="Helvetica,sans-Serif" font-size="10.00">iterator</text>
</g>
<!-- Node2&#45;&gt;Node7 -->
<g id="edge7" class="edge"><title>Node2&#45;&gt;Node7</title>
<path fill="none" stroke="midnightblue" d="M109.875,-168.562C116.306,-160.67 126.078,-148.677 133.983,-138.976"/>
<polygon fill="midnightblue" stroke="midnightblue" points="136.714,-141.165 140.317,-131.201 131.287,-136.743 136.714,-141.165"/>
</g>
<!-- Node4 -->
<g id="node4" class="node"><title>Node4</title>
<g id="a_node4"><a xlink:href="sink_2sink_8cpp.html" target="_top" xlink:title="Om source file. ">
<polygon fill="none" stroke="black" points="15.042,-57 15.042,-75 104.958,-75 104.958,-57 15.042,-57"/>
<text text-anchor="middle" x="60" y="-63" font-family="Helvetica,sans-Serif" font-size="10.00">om/sink/sink.cpp</text>
</a>
</g>
</g>
<!-- Node3&#45;&gt;Node4 -->
<g id="edge3" class="edge"><title>Node3&#45;&gt;Node4</title>
<path fill="none" stroke="midnightblue" d="M54.9375,-112.562C53.3254,-105.308 52.8683,-94.5884 53.5664,-85.3691"/>
<polygon fill="midnightblue" stroke="midnightblue" points="57.0695,-85.5903 54.9906,-75.2014 50.1371,-84.6192 57.0695,-85.5903"/>
</g>
<!-- Node4&#45;&gt;Node3 -->
<g id="edge6" class="edge"><title>Node4&#45;&gt;Node3</title>
<path fill="none" stroke="midnightblue" d="M65.0094,-75.2014C66.6646,-82.4586 67.1393,-93.3129 66.4335,-102.633"/>
<polygon fill="midnightblue" stroke="midnightblue" points="62.9632,-102.178 65.0625,-112.562 69.8974,-103.135 62.9632,-102.178"/>
</g>
<!-- Node5 -->
<g id="node5" class="node"><title>Node5</title>
<polygon fill="none" stroke="#bfbfbf" points="-0.115723,-1 -0.115723,-19 48.1157,-19 48.1157,-1 -0.115723,-1"/>
<text text-anchor="middle" x="24" y="-7" font-family="Helvetica,sans-Serif" font-size="10.00">cassert</text>
</g>
<!-- Node4&#45;&gt;Node5 -->
<g id="edge4" class="edge"><title>Node4&#45;&gt;Node5</title>
<path fill="none" stroke="midnightblue" d="M54.375,-56.5625C49.2198,-48.8297 41.4398,-37.1597 35.0443,-27.5665"/>
<polygon fill="midnightblue" stroke="midnightblue" points="37.9269,-25.5805 29.4676,-19.2014 32.1025,-29.4634 37.9269,-25.5805"/>
</g>
<!-- Node6 -->
<g id="node6" class="node"><title>Node6</title>
<polygon fill="none" stroke="#bfbfbf" points="66.5986,-1 66.5986,-19 125.401,-19 125.401,-1 66.5986,-1"/>
<text text-anchor="middle" x="96" y="-7" font-family="Helvetica,sans-Serif" font-size="10.00">stdexcept</text>
</g>
<!-- Node4&#45;&gt;Node6 -->
<g id="edge5" class="edge"><title>Node4&#45;&gt;Node6</title>
<path fill="none" stroke="midnightblue" d="M65.625,-56.5625C70.7802,-48.8297 78.5602,-37.1597 84.9557,-27.5665"/>
<polygon fill="midnightblue" stroke="midnightblue" points="87.8975,-29.4634 90.5324,-19.2014 82.0731,-25.5805 87.8975,-29.4634"/>
</g>
</g>
</svg>
