<?xml version="1.0" encoding="UTF-8" standalone="no"?>
<!DOCTYPE svg PUBLIC "-//W3C//DTD SVG 1.1//EN"
 "http://www.w3.org/Graphics/SVG/1.1/DTD/svg11.dtd">
<!-- Generated by graphviz version 2.30.1 (20130221.2233)
 -->
<!-- Title: om/source/default_source.cpp Pages: 1 -->
<svg width="158pt" height="262pt"
 viewBox="0.00 0.00 158.00 262.00" xmlns="http://www.w3.org/2000/svg" xmlns:xlink="http://www.w3.org/1999/xlink">
<g id="graph0" class="graph" transform="scale(1 1) rotate(0) translate(4 258)">
<title>om/source/default_source.cpp</title>
<!-- Node1 -->
<g id="node1" class="node"><title>Node1</title>
<polygon fill="#bfbfbf" stroke="black" points="0.0175781,-233 0.0175781,-253 149.982,-253 149.982,-233 0.0175781,-233"/>
<text text-anchor="middle" x="75" y="-239" font-family="Helvetica,sans-Serif" font-size="10.00">om/source/default_source.cpp</text>
</g>
<!-- Node2 -->
<g id="node2" class="node"><title>Node2</title>
<g id="a_node2"><a xlink:href="default__source_8hpp.html" target="_top" xlink:title="Om header file. ">
<polygon fill="none" stroke="black" points="-0.263184,-175 -0.263184,-195 150.263,-195 150.263,-175 -0.263184,-175"/>
<text text-anchor="middle" x="75" y="-181" font-family="Helvetica,sans-Serif" font-size="10.00">om/source/default_source.hpp</text>
</a>
</g>
</g>
<!-- Node1&#45;&gt;Node2 -->
<g id="edge1" class="edge"><title>Node1&#45;&gt;Node2</title>
<path fill="none" stroke="midnightblue" d="M69.8337,-232.753C68.3076,-225.25 67.8844,-214.424 68.5643,-205.078"/>
<polygon fill="midnightblue" stroke="midnightblue" points="72.0461,-205.444 69.869,-195.075 65.1049,-204.538 72.0461,-205.444"/>
</g>
<!-- Node3 -->
<g id="node3" class="node"><title>Node3</title>
<g id="a_node3"><a xlink:href="source_2source_8hpp.html" target="_top" xlink:title="Om header file. ">
<polygon fill="none" stroke="black" points="17.5298,-117 17.5298,-137 132.47,-137 132.47,-117 17.5298,-117"/>
<text text-anchor="middle" x="75" y="-123" font-family="Helvetica,sans-Serif" font-size="10.00">om/source/source.hpp</text>
</a>
</g>
</g>
<!-- Node2&#45;&gt;Node3 -->
<g id="edge2" class="edge"><title>Node2&#45;&gt;Node3</title>
<path fill="none" stroke="midnightblue" d="M75,-174.753C75,-167.25 75,-156.424 75,-147.078"/>
<polygon fill="midnightblue" stroke="midnightblue" points="78.5001,-147.075 75,-137.075 71.5001,-147.075 78.5001,-147.075"/>
</g>
<!-- Node2&#45;&gt;Node1 -->
<g id="edge7" class="edge"><title>Node2&#45;&gt;Node1</title>
<path fill="none" stroke="midnightblue" d="M80.131,-195.075C81.674,-202.526 82.1141,-213.338 81.4512,-222.707"/>
<polygon fill="midnightblue" stroke="midnightblue" points="77.9633,-222.389 80.1663,-232.753 84.9067,-223.278 77.9633,-222.389"/>
</g>
<!-- Node4 -->
<g id="node4" class="node"><title>Node4</title>
<g id="a_node4"><a xlink:href="source_2source_8cpp.html" target="_top" xlink:title="Om source file. ">
<polygon fill="none" stroke="black" points="17.8105,-59 17.8105,-79 132.189,-79 132.189,-59 17.8105,-59"/>
<text text-anchor="middle" x="75" y="-65" font-family="Helvetica,sans-Serif" font-size="10.00">om/source/source.cpp</text>
</a>
</g>
</g>
<!-- Node3&#45;&gt;Node4 -->
<g id="edge3" class="edge"><title>Node3&#45;&gt;Node4</title>
<path fill="none" stroke="midnightblue" d="M69.8337,-116.753C68.3076,-109.25 67.8844,-98.4238 68.5643,-89.0781"/>
<polygon fill="midnightblue" stroke="midnightblue" points="72.0461,-89.4439 69.869,-79.0752 65.1049,-88.5385 72.0461,-89.4439"/>
</g>
<!-- Node5 -->
<g id="node5" class="node"><title>Node5</title>
<polygon fill="none" stroke="#bfbfbf" points="14.8843,-1 14.8843,-21 63.1157,-21 63.1157,-1 14.8843,-1"/>
<text text-anchor="middle" x="39" y="-7" font-family="Helvetica,sans-Serif" font-size="10.00">cassert</text>
</g>
<!-- Node4&#45;&gt;Node5 -->
<g id="edge4" class="edge"><title>Node4&#45;&gt;Node5</title>
<path fill="none" stroke="midnightblue" d="M69.0553,-58.7527C63.9703,-50.8427 56.5096,-39.2372 50.2939,-29.5683"/>
<polygon fill="midnightblue" stroke="midnightblue" points="53.1858,-27.5943 44.8341,-21.0752 47.2975,-31.3797 53.1858,-27.5943"/>
</g>
<!-- Node6 -->
<g id="node6" class="node"><title>Node6</title>
<polygon fill="none" stroke="#bfbfbf" points="81.5986,-1 81.5986,-21 140.401,-21 140.401,-1 81.5986,-1"/>
<text text-anchor="middle" x="111" y="-7" font-family="Helvetica,sans-Serif" font-size="10.00">stdexcept</text>
</g>
<!-- Node4&#45;&gt;Node6 -->
<g id="edge5" class="edge"><title>Node4&#45;&gt;Node6</title>
<path fill="none" stroke="midnightblue" d="M80.9447,-58.7527C86.0297,-50.8427 93.4904,-39.2372 99.7061,-29.5683"/>
<polygon fill="midnightblue" stroke="midnightblue" points="102.702,-31.3797 105.166,-21.0752 96.8142,-27.5943 102.702,-31.3797"/>
</g>
<!-- Node4&#45;&gt;Node3 -->
<g id="edge6" class="edge"><title>Node4&#45;&gt;Node3</title>
<path fill="none" stroke="midnightblue" d="M80.131,-79.0752C81.674,-86.5262 82.1141,-97.3384 81.4512,-106.707"/>
<polygon fill="midnightblue" stroke="midnightblue" points="77.9633,-106.389 80.1663,-116.753 84.9067,-107.278 77.9633,-106.389"/>
</g>
</g>
</svg>
