<?xml version="1.0" encoding="UTF-8" standalone="no"?>
<!DOCTYPE svg PUBLIC "-//W3C//DTD SVG 1.1//EN"
 "http://www.w3.org/Graphics/SVG/1.1/DTD/svg11.dtd">
<!-- Generated by graphviz version 2.36.0 (20140111.2315)
 -->
<!-- Title: om/default_program.hpp Pages: 1 -->
<svg width="1804pt" height="608pt"
 viewBox="0.00 0.00 1803.54 608.00" xmlns="http://www.w3.org/2000/svg" xmlns:xlink="http://www.w3.org/1999/xlink">
<g id="graph0" class="graph" transform="scale(1 1) rotate(0) translate(4 604)">
<title>om/default_program.hpp</title>
<!-- Node1 -->
<g id="node1" class="node"><title>Node1</title>
<polygon fill="#bfbfbf" stroke="black" points="1134.52,-581 1134.52,-599 1259.48,-599 1259.48,-581 1134.52,-581"/>
<text text-anchor="middle" x="1197" y="-587" font-family="Helvetica,sans-Serif" font-size="10.00">om/default_program.hpp</text>
</g>
<!-- Node2 -->
<g id="node2" class="node"><title>Node2</title>
<g id="a_node2"><a xlink:href="default__consumer_8hpp.html" target="_top" xlink:title="Om header file. ">
<polygon fill="none" stroke="black" points="909.461,-413 909.461,-431 1040.54,-431 1040.54,-413 909.461,-413"/>
<text text-anchor="middle" x="975" y="-419" font-family="Helvetica,sans-Serif" font-size="10.00">om/default_consumer.hpp</text>
</a>
</g>
</g>
<!-- Node1&#45;&gt;Node2 -->
<g id="edge1" class="edge"><title>Node1&#45;&gt;Node2</title>
<path fill="none" stroke="midnightblue" d="M1161.21,-580.942C1135.22,-573.962 1100.02,-562.096 1073,-544 1031.77,-516.39 999.285,-466.168 984.198,-439.954"/>
<polygon fill="midnightblue" stroke="midnightblue" points="987.225,-438.196 979.287,-431.18 981.117,-441.615 987.225,-438.196"/>
</g>
<!-- Node25 -->
<g id="node25" class="node"><title>Node25</title>
<g id="a_node25"><a xlink:href="default__giveable_8hpp.html" target="_top" xlink:title="Om header file. ">
<polygon fill="none" stroke="black" points="1351.52,-245 1351.52,-263 1476.48,-263 1476.48,-245 1351.52,-245"/>
<text text-anchor="middle" x="1414" y="-251" font-family="Helvetica,sans-Serif" font-size="10.00">om/default_giveable.hpp</text>
</a>
</g>
</g>
<!-- Node1&#45;&gt;Node25 -->
<g id="edge36" class="edge"><title>Node1&#45;&gt;Node25</title>
<path fill="none" stroke="midnightblue" d="M1235.22,-580.983C1283.39,-568.378 1360,-538.915 1360,-479 1360,-479 1360,-479 1360,-365 1360,-328.492 1384.26,-291.501 1400.26,-271.079"/>
<polygon fill="midnightblue" stroke="midnightblue" points="1403.11,-273.12 1406.72,-263.157 1397.69,-268.699 1403.11,-273.12"/>
</g>
<!-- Node37 -->
<g id="node37" class="node"><title>Node37</title>
<g id="a_node37"><a xlink:href="program_8hpp.html" target="_top" xlink:title="Om header file. ">
<polygon fill="none" stroke="black" points="1201.32,-413 1201.32,-431 1290.68,-431 1290.68,-413 1201.32,-413"/>
<text text-anchor="middle" x="1246" y="-419" font-family="Helvetica,sans-Serif" font-size="10.00">om/program.hpp</text>
</a>
</g>
</g>
<!-- Node1&#45;&gt;Node37 -->
<g id="edge62" class="edge"><title>Node1&#45;&gt;Node37</title>
<path fill="none" stroke="midnightblue" d="M1200.64,-580.824C1204.53,-571.896 1210.72,-557.118 1215,-544 1226.74,-508.038 1236.88,-464.899 1242.14,-441.064"/>
<polygon fill="midnightblue" stroke="midnightblue" points="1245.62,-441.546 1244.32,-431.031 1238.78,-440.06 1245.62,-441.546"/>
</g>
<!-- Node44 -->
<g id="node44" class="node"><title>Node44</title>
<g id="a_node44"><a xlink:href="taker_8hpp.html" target="_top" xlink:title="Om header file. ">
<polygon fill="none" stroke="black" points="1388.09,-525 1388.09,-543 1461.91,-543 1461.91,-525 1388.09,-525"/>
<text text-anchor="middle" x="1425" y="-531" font-family="Helvetica,sans-Serif" font-size="10.00">om/taker.hpp</text>
</a>
</g>
</g>
<!-- Node1&#45;&gt;Node44 -->
<g id="edge75" class="edge"><title>Node1&#45;&gt;Node44</title>
<path fill="none" stroke="midnightblue" d="M1231.13,-580.916C1271.13,-571.444 1337.47,-555.731 1381.22,-545.37"/>
<polygon fill="midnightblue" stroke="midnightblue" points="1382.08,-548.762 1391.01,-543.051 1380.47,-541.95 1382.08,-548.762"/>
</g>
<!-- Node46 -->
<g id="node46" class="node"><title>Node46</title>
<g id="a_node46"><a xlink:href="default__program_8cpp.html" target="_top" xlink:title="Om source file. ">
<polygon fill="none" stroke="black" points="1081.8,-525 1081.8,-543 1206.2,-543 1206.2,-525 1081.8,-525"/>
<text text-anchor="middle" x="1144" y="-531" font-family="Helvetica,sans-Serif" font-size="10.00">om/default_program.cpp</text>
</a>
</g>
</g>
<!-- Node1&#45;&gt;Node46 -->
<g id="edge78" class="edge"><title>Node1&#45;&gt;Node46</title>
<path fill="none" stroke="midnightblue" d="M1183.94,-580.799C1174.45,-572.949 1162.2,-560.89 1153.58,-551.116"/>
<polygon fill="midnightblue" stroke="midnightblue" points="1156.17,-548.754 1147.1,-543.279 1150.77,-553.215 1156.17,-548.754"/>
</g>
<!-- Node3 -->
<g id="node3" class="node"><title>Node3</title>
<g id="a_node3"><a xlink:href="consumer_8hpp.html" target="_top" xlink:title="Om header file. ">
<polygon fill="none" stroke="black" points="1049.25,-357 1049.25,-375 1144.75,-375 1144.75,-357 1049.25,-357"/>
<text text-anchor="middle" x="1097" y="-363" font-family="Helvetica,sans-Serif" font-size="10.00">om/consumer.hpp</text>
</a>
</g>
</g>
<!-- Node2&#45;&gt;Node3 -->
<g id="edge2" class="edge"><title>Node2&#45;&gt;Node3</title>
<path fill="none" stroke="midnightblue" d="M993.265,-412.916C1013.39,-404.008 1045.98,-389.581 1069.27,-379.276"/>
<polygon fill="midnightblue" stroke="midnightblue" points="1070.88,-382.388 1078.61,-375.14 1068.05,-375.987 1070.88,-382.388"/>
</g>
<!-- Node21 -->
<g id="node21" class="node"><title>Node21</title>
<g id="a_node21"><a xlink:href="default__consumer_8cpp.html" target="_top" xlink:title="Om source file. ">
<polygon fill="none" stroke="black" points="900.742,-357 900.742,-375 1031.26,-375 1031.26,-357 900.742,-357"/>
<text text-anchor="middle" x="966" y="-363" font-family="Helvetica,sans-Serif" font-size="10.00">om/default_consumer.cpp</text>
</a>
</g>
</g>
<!-- Node2&#45;&gt;Node21 -->
<g id="edge28" class="edge"><title>Node2&#45;&gt;Node21</title>
<path fill="none" stroke="midnightblue" d="M968.531,-412.562C965.71,-405.308 963.466,-394.588 962.628,-385.369"/>
<polygon fill="midnightblue" stroke="midnightblue" points="966.122,-385.105 962.358,-375.201 959.125,-385.291 966.122,-385.105"/>
</g>
<!-- Node4 -->
<g id="node4" class="node"><title>Node4</title>
<g id="a_node4"><a xlink:href="consumer_8cpp.html" target="_top" xlink:title="Om source file. ">
<polygon fill="none" stroke="black" points="1049.53,-301 1049.53,-319 1144.47,-319 1144.47,-301 1049.53,-301"/>
<text text-anchor="middle" x="1097" y="-307" font-family="Helvetica,sans-Serif" font-size="10.00">om/consumer.cpp</text>
</a>
</g>
</g>
<!-- Node3&#45;&gt;Node4 -->
<g id="edge3" class="edge"><title>Node3&#45;&gt;Node4</title>
<path fill="none" stroke="midnightblue" d="M1091.94,-356.562C1090.33,-349.308 1089.87,-338.588 1090.57,-329.369"/>
<polygon fill="midnightblue" stroke="midnightblue" points="1094.07,-329.59 1091.99,-319.201 1087.14,-328.619 1094.07,-329.59"/>
</g>
<!-- Node4&#45;&gt;Node3 -->
<g id="edge27" class="edge"><title>Node4&#45;&gt;Node3</title>
<path fill="none" stroke="midnightblue" d="M1102.01,-319.201C1103.66,-326.459 1104.14,-337.313 1103.43,-346.633"/>
<polygon fill="midnightblue" stroke="midnightblue" points="1099.96,-346.178 1102.06,-356.562 1106.9,-347.135 1099.96,-346.178"/>
</g>
<!-- Node5 -->
<g id="node5" class="node"><title>Node5</title>
<g id="a_node5"><a xlink:href="reader_8hpp.html" target="_top" xlink:title="Om header file. ">
<polygon fill="none" stroke="black" points="565.754,-245 565.754,-263 646.246,-263 646.246,-245 565.754,-245"/>
<text text-anchor="middle" x="606" y="-251" font-family="Helvetica,sans-Serif" font-size="10.00">om/reader.hpp</text>
</a>
</g>
</g>
<!-- Node4&#45;&gt;Node5 -->
<g id="edge4" class="edge"><title>Node4&#45;&gt;Node5</title>
<path fill="none" stroke="midnightblue" d="M1049.47,-303.773C956.592,-293.558 751.758,-271.03 656.522,-260.556"/>
<polygon fill="midnightblue" stroke="midnightblue" points="656.882,-257.075 646.559,-259.461 656.116,-264.033 656.882,-257.075"/>
</g>
<!-- Node11 -->
<g id="node11" class="node"><title>Node11</title>
<polygon fill="none" stroke="#bfbfbf" points="973.884,-6 973.884,-24 1022.12,-24 1022.12,-6 973.884,-6"/>
<text text-anchor="middle" x="998" y="-12" font-family="Helvetica,sans-Serif" font-size="10.00">cassert</text>
</g>
<!-- Node4&#45;&gt;Node11 -->
<g id="edge25" class="edge"><title>Node4&#45;&gt;Node11</title>
<path fill="none" stroke="midnightblue" d="M1049.34,-307.535C935.145,-303.624 648.618,-291.318 557,-264 498.874,-246.668 437,-259.655 437,-199 437,-199 437,-199 437,-136 437,-27.838 840.814,-16.8316 963.237,-15.9801"/>
<polygon fill="midnightblue" stroke="midnightblue" points="963.552,-19.4787 973.534,-15.9284 963.516,-12.4788 963.552,-19.4787"/>
</g>
<!-- Node12 -->
<g id="node12" class="node"><title>Node12</title>
<polygon fill="none" stroke="#bfbfbf" points="1240.6,-6 1240.6,-24 1299.4,-24 1299.4,-6 1240.6,-6"/>
<text text-anchor="middle" x="1270" y="-12" font-family="Helvetica,sans-Serif" font-size="10.00">stdexcept</text>
</g>
<!-- Node4&#45;&gt;Node12 -->
<g id="edge26" class="edge"><title>Node4&#45;&gt;Node12</title>
<path fill="none" stroke="midnightblue" d="M1129.53,-300.963C1204.54,-282.205 1387.61,-235.077 1445,-208 1464.96,-198.585 1516.7,-171.513 1527,-152 1573.9,-63.1721 1392.61,-30.2655 1309.54,-20.0143"/>
<polygon fill="midnightblue" stroke="midnightblue" points="1309.79,-16.5193 1299.44,-18.8207 1308.96,-23.4708 1309.79,-16.5193"/>
</g>
<!-- Node6 -->
<g id="node6" class="node"><title>Node6</title>
<g id="a_node6"><a xlink:href="code__point_8hpp.html" target="_top" xlink:title="Om header file. ">
<polygon fill="none" stroke="black" points="734.468,-189 734.468,-207 835.532,-207 835.532,-189 734.468,-189"/>
<text text-anchor="middle" x="785" y="-195" font-family="Helvetica,sans-Serif" font-size="10.00">om/code_point.hpp</text>
</a>
</g>
</g>
<!-- Node5&#45;&gt;Node6 -->
<g id="edge5" class="edge"><title>Node5&#45;&gt;Node6</title>
<path fill="none" stroke="midnightblue" d="M632.798,-244.916C663.6,-235.623 714.314,-220.324 748.655,-209.964"/>
<polygon fill="midnightblue" stroke="midnightblue" points="749.748,-213.29 758.311,-207.051 747.727,-206.589 749.748,-213.29"/>
</g>
<!-- Node8 -->
<g id="node8" class="node"><title>Node8</title>
<g id="a_node8"><a xlink:href="default__source_8hpp.html" target="_top" xlink:title="Om header file. ">
<polygon fill="none" stroke="black" points="530.737,-189 530.737,-207 681.263,-207 681.263,-189 530.737,-189"/>
<text text-anchor="middle" x="606" y="-195" font-family="Helvetica,sans-Serif" font-size="10.00">om/source/default_source.hpp</text>
</a>
</g>
</g>
<!-- Node5&#45;&gt;Node8 -->
<g id="edge7" class="edge"><title>Node5&#45;&gt;Node8</title>
<path fill="none" stroke="midnightblue" d="M606,-244.562C606,-237.308 606,-226.588 606,-217.369"/>
<polygon fill="midnightblue" stroke="midnightblue" points="609.5,-217.201 606,-207.201 602.5,-217.201 609.5,-217.201"/>
</g>
<!-- Node15 -->
<g id="node15" class="node"><title>Node15</title>
<g id="a_node15"><a xlink:href="reader_8cpp.html" target="_top" xlink:title="Om source file. ">
<polygon fill="none" stroke="black" points="317.035,-189 317.035,-207 396.965,-207 396.965,-189 317.035,-189"/>
<text text-anchor="middle" x="357" y="-195" font-family="Helvetica,sans-Serif" font-size="10.00">om/reader.cpp</text>
</a>
</g>
</g>
<!-- Node5&#45;&gt;Node15 -->
<g id="edge16" class="edge"><title>Node5&#45;&gt;Node15</title>
<path fill="none" stroke="midnightblue" d="M565.702,-245.32C519.756,-235.853 445.232,-219.73 398.713,-209.222"/>
<polygon fill="midnightblue" stroke="midnightblue" points="399.475,-205.806 388.948,-207.005 397.925,-212.633 399.475,-205.806"/>
</g>
<!-- Node7 -->
<g id="node7" class="node"><title>Node7</title>
<polygon fill="none" stroke="#bfbfbf" points="831.636,-128 831.636,-146 934.364,-146 934.364,-128 831.636,-128"/>
<text text-anchor="middle" x="883" y="-134" font-family="Helvetica,sans-Serif" font-size="10.00">boost/locale/utf.hpp</text>
</g>
<!-- Node6&#45;&gt;Node7 -->
<g id="edge6" class="edge"><title>Node6&#45;&gt;Node7</title>
<path fill="none" stroke="midnightblue" d="M798.626,-188.796C814.717,-179.109 841.703,-162.862 860.819,-151.354"/>
<polygon fill="midnightblue" stroke="midnightblue" points="862.727,-154.29 869.489,-146.134 859.117,-148.293 862.727,-154.29"/>
</g>
<!-- Node9 -->
<g id="node9" class="node"><title>Node9</title>
<g id="a_node9"><a xlink:href="source_2source_8hpp.html" target="_top" xlink:title="Om header file. ">
<polygon fill="none" stroke="black" points="698.53,-128 698.53,-146 813.47,-146 813.47,-128 698.53,-128"/>
<text text-anchor="middle" x="756" y="-134" font-family="Helvetica,sans-Serif" font-size="10.00">om/source/source.hpp</text>
</a>
</g>
</g>
<!-- Node8&#45;&gt;Node9 -->
<g id="edge8" class="edge"><title>Node8&#45;&gt;Node9</title>
<path fill="none" stroke="midnightblue" d="M626.542,-188.92C652.206,-178.826 696.325,-161.472 725.828,-149.868"/>
<polygon fill="midnightblue" stroke="midnightblue" points="727.2,-153.089 735.224,-146.172 724.637,-146.575 727.2,-153.089"/>
</g>
<!-- Node13 -->
<g id="node13" class="node"><title>Node13</title>
<polygon fill="none" stroke="#bfbfbf" points="465.438,-128 465.438,-146 512.562,-146 512.562,-128 465.438,-128"/>
<text text-anchor="middle" x="489" y="-134" font-family="Helvetica,sans-Serif" font-size="10.00">iterator</text>
</g>
<!-- Node8&#45;&gt;Node13 -->
<g id="edge13" class="edge"><title>Node8&#45;&gt;Node13</title>
<path fill="none" stroke="midnightblue" d="M589.732,-188.796C570.173,-178.933 537.127,-162.269 514.245,-150.731"/>
<polygon fill="midnightblue" stroke="midnightblue" points="515.635,-147.512 505.13,-146.134 512.483,-153.762 515.635,-147.512"/>
</g>
<!-- Node14 -->
<g id="node14" class="node"><title>Node14</title>
<g id="a_node14"><a xlink:href="default__source_8cpp.html" target="_top" xlink:title="Om source file. ">
<polygon fill="none" stroke="black" points="531.018,-128 531.018,-146 680.982,-146 680.982,-128 531.018,-128"/>
<text text-anchor="middle" x="606" y="-134" font-family="Helvetica,sans-Serif" font-size="10.00">om/source/default_source.cpp</text>
</a>
</g>
</g>
<!-- Node8&#45;&gt;Node14 -->
<g id="edge14" class="edge"><title>Node8&#45;&gt;Node14</title>
<path fill="none" stroke="midnightblue" d="M601.155,-188.796C599.266,-180.43 598.782,-167.171 599.703,-156.297"/>
<polygon fill="midnightblue" stroke="midnightblue" points="603.205,-156.532 601.171,-146.134 596.277,-155.531 603.205,-156.532"/>
</g>
<!-- Node10 -->
<g id="node10" class="node"><title>Node10</title>
<g id="a_node10"><a xlink:href="source_2source_8cpp.html" target="_top" xlink:title="Om source file. ">
<polygon fill="none" stroke="black" points="759.811,-67 759.811,-85 874.189,-85 874.189,-67 759.811,-67"/>
<text text-anchor="middle" x="817" y="-73" font-family="Helvetica,sans-Serif" font-size="10.00">om/source/source.cpp</text>
</a>
</g>
</g>
<!-- Node9&#45;&gt;Node10 -->
<g id="edge9" class="edge"><title>Node9&#45;&gt;Node10</title>
<path fill="none" stroke="midnightblue" d="M759.637,-127.796C767.18,-118.462 782.771,-103.035 795.956,-91.6273"/>
<polygon fill="midnightblue" stroke="midnightblue" points="798.312,-94.2201 803.761,-85.134 793.835,-88.8388 798.312,-94.2201"/>
</g>
<!-- Node10&#45;&gt;Node9 -->
<g id="edge12" class="edge"><title>Node10&#45;&gt;Node9</title>
<path fill="none" stroke="midnightblue" d="M813.419,-85.134C805.916,-94.4383 790.34,-109.859 777.143,-121.287"/>
<polygon fill="midnightblue" stroke="midnightblue" points="774.771,-118.707 769.327,-127.796 779.251,-124.086 774.771,-118.707"/>
</g>
<!-- Node10&#45;&gt;Node11 -->
<g id="edge10" class="edge"><title>Node10&#45;&gt;Node11</title>
<path fill="none" stroke="midnightblue" d="M841.788,-66.92C873.423,-56.608 928.301,-38.7196 963.872,-27.1247"/>
<polygon fill="midnightblue" stroke="midnightblue" points="965.377,-30.3153 973.8,-23.8884 963.208,-23.6599 965.377,-30.3153"/>
</g>
<!-- Node10&#45;&gt;Node12 -->
<g id="edge11" class="edge"><title>Node10&#45;&gt;Node12</title>
<path fill="none" stroke="midnightblue" d="M874.373,-67.5276C967.677,-55.3755 1149.94,-31.637 1230.31,-21.1693"/>
<polygon fill="midnightblue" stroke="midnightblue" points="1231.04,-24.6041 1240.5,-19.8418 1230.13,-17.6627 1231.04,-24.6041"/>
</g>
<!-- Node14&#45;&gt;Node8 -->
<g id="edge15" class="edge"><title>Node14&#45;&gt;Node8</title>
<path fill="none" stroke="midnightblue" d="M610.829,-146.134C612.726,-154.473 613.218,-167.725 612.305,-178.612"/>
<polygon fill="midnightblue" stroke="midnightblue" points="608.8,-178.401 610.845,-188.796 615.729,-179.394 608.8,-178.401"/>
</g>
<!-- Node15&#45;&gt;Node5 -->
<g id="edge24" class="edge"><title>Node15&#45;&gt;Node5</title>
<path fill="none" stroke="midnightblue" d="M397.072,-206.633C442.963,-216.087 517.574,-232.227 564.176,-242.753"/>
<polygon fill="midnightblue" stroke="midnightblue" points="563.433,-246.173 573.96,-244.974 564.983,-239.347 563.433,-246.173"/>
</g>
<!-- Node16 -->
<g id="node16" class="node"><title>Node16</title>
<g id="a_node16"><a xlink:href="operand__symbol_8hpp.html" target="_top" xlink:title="Om header file. ">
<polygon fill="none" stroke="black" points="126.739,-128 126.739,-146 287.261,-146 287.261,-128 126.739,-128"/>
<text text-anchor="middle" x="207" y="-134" font-family="Helvetica,sans-Serif" font-size="10.00">om/symbol/operand_symbol.hpp</text>
</a>
</g>
</g>
<!-- Node15&#45;&gt;Node16 -->
<g id="edge17" class="edge"><title>Node15&#45;&gt;Node16</title>
<path fill="none" stroke="midnightblue" d="M336.458,-188.92C310.794,-178.826 266.675,-161.472 237.172,-149.868"/>
<polygon fill="midnightblue" stroke="midnightblue" points="238.363,-146.575 227.776,-146.172 235.8,-153.089 238.363,-146.575"/>
</g>
<!-- Node19 -->
<g id="node19" class="node"><title>Node19</title>
<g id="a_node19"><a xlink:href="operator__symbol_8hpp.html" target="_top" xlink:title="Om header file. ">
<polygon fill="none" stroke="black" points="304.815,-123 304.815,-151 409.185,-151 409.185,-123 304.815,-123"/>
<text text-anchor="start" x="312.815" y="-139" font-family="Helvetica,sans-Serif" font-size="10.00">om/symbol/operator</text>
<text text-anchor="middle" x="357" y="-129" font-family="Helvetica,sans-Serif" font-size="10.00">_symbol.hpp</text>
</a>
</g>
</g>
<!-- Node15&#45;&gt;Node19 -->
<g id="edge20" class="edge"><title>Node15&#45;&gt;Node19</title>
<path fill="none" stroke="midnightblue" d="M357,-188.796C357,-181.711 357,-171.115 357,-161.431"/>
<polygon fill="midnightblue" stroke="midnightblue" points="360.5,-161.121 357,-151.121 353.5,-161.122 360.5,-161.121"/>
</g>
<!-- Node20 -->
<g id="node20" class="node"><title>Node20</title>
<g id="a_node20"><a xlink:href="separator__symbol_8hpp.html" target="_top" xlink:title="Om header file. ">
<polygon fill="none" stroke="black" points="-0.68457,-123 -0.68457,-151 108.685,-151 108.685,-123 -0.68457,-123"/>
<text text-anchor="start" x="7.31543" y="-139" font-family="Helvetica,sans-Serif" font-size="10.00">om/symbol/separator</text>
<text text-anchor="middle" x="54" y="-129" font-family="Helvetica,sans-Serif" font-size="10.00">_symbol.hpp</text>
</a>
</g>
</g>
<!-- Node15&#45;&gt;Node20 -->
<g id="edge22" class="edge"><title>Node15&#45;&gt;Node20</title>
<path fill="none" stroke="midnightblue" d="M316.757,-189.794C271.243,-181.562 194.656,-167.463 118.976,-152.163"/>
<polygon fill="midnightblue" stroke="midnightblue" points="119.287,-148.655 108.79,-150.096 117.894,-155.515 119.287,-148.655"/>
</g>
<!-- Node17 -->
<g id="node17" class="node"><title>Node17</title>
<g id="a_node17"><a xlink:href="macro_8hpp.html" target="_top" xlink:title="Om header file. ">
<polygon fill="none" stroke="black" points="167.042,-67 167.042,-85 246.958,-85 246.958,-67 167.042,-67"/>
<text text-anchor="middle" x="207" y="-73" font-family="Helvetica,sans-Serif" font-size="10.00">om/macro.hpp</text>
</a>
</g>
</g>
<!-- Node16&#45;&gt;Node17 -->
<g id="edge18" class="edge"><title>Node16&#45;&gt;Node17</title>
<path fill="none" stroke="midnightblue" d="M207,-127.796C207,-119.43 207,-106.171 207,-95.2974"/>
<polygon fill="midnightblue" stroke="midnightblue" points="210.5,-95.134 207,-85.134 203.5,-95.1341 210.5,-95.134"/>
</g>
<!-- Node18 -->
<g id="node18" class="node"><title>Node18</title>
<polygon fill="none" stroke="#bfbfbf" points="156.2,-1 156.2,-29 257.8,-29 257.8,-1 156.2,-1"/>
<text text-anchor="start" x="164.2" y="-17" font-family="Helvetica,sans-Serif" font-size="10.00">boost/preprocessor</text>
<text text-anchor="middle" x="207" y="-7" font-family="Helvetica,sans-Serif" font-size="10.00">/stringize.hpp</text>
</g>
<!-- Node17&#45;&gt;Node18 -->
<g id="edge19" class="edge"><title>Node17&#45;&gt;Node18</title>
<path fill="none" stroke="midnightblue" d="M207,-66.7963C207,-59.7107 207,-49.1152 207,-39.4315"/>
<polygon fill="midnightblue" stroke="midnightblue" points="210.5,-39.1215 207,-29.1215 203.5,-39.1215 210.5,-39.1215"/>
</g>
<!-- Node19&#45;&gt;Node17 -->
<g id="edge21" class="edge"><title>Node19&#45;&gt;Node17</title>
<path fill="none" stroke="midnightblue" d="M323.71,-122.906C297.803,-112.716 262.161,-98.6966 237.101,-88.8399"/>
<polygon fill="midnightblue" stroke="midnightblue" points="238.316,-85.5567 227.729,-85.1534 235.754,-92.0709 238.316,-85.5567"/>
</g>
<!-- Node20&#45;&gt;Node17 -->
<g id="edge23" class="edge"><title>Node20&#45;&gt;Node17</title>
<path fill="none" stroke="midnightblue" d="M87.9557,-122.906C114.381,-112.716 150.736,-98.6966 176.297,-88.8399"/>
<polygon fill="midnightblue" stroke="midnightblue" points="177.786,-92.017 185.857,-85.1534 175.267,-85.4858 177.786,-92.017"/>
</g>
<!-- Node21&#45;&gt;Node2 -->
<g id="edge35" class="edge"><title>Node21&#45;&gt;Node2</title>
<path fill="none" stroke="midnightblue" d="M972.376,-375.201C975.21,-382.38 977.475,-393.077 978.344,-402.329"/>
<polygon fill="midnightblue" stroke="midnightblue" points="974.853,-402.674 978.656,-412.562 981.85,-402.46 974.853,-402.674"/>
</g>
<!-- Node22 -->
<g id="node22" class="node"><title>Node22</title>
<g id="a_node22"><a xlink:href="producer_8hpp.html" target="_top" xlink:title="Om header file. ">
<polygon fill="none" stroke="black" points="952.473,-128 952.473,-146 1043.53,-146 1043.53,-128 952.473,-128"/>
<text text-anchor="middle" x="998" y="-134" font-family="Helvetica,sans-Serif" font-size="10.00">om/producer.hpp</text>
</a>
</g>
</g>
<!-- Node21&#45;&gt;Node22 -->
<g id="edge29" class="edge"><title>Node21&#45;&gt;Node22</title>
<path fill="none" stroke="midnightblue" d="M967.139,-356.921C971.717,-324.448 988.844,-202.953 995.413,-156.353"/>
<polygon fill="midnightblue" stroke="midnightblue" points="998.911,-156.61 996.841,-146.219 991.98,-155.633 998.911,-156.61"/>
</g>
<!-- Node23 -->
<g id="node23" class="node"><title>Node23</title>
<polygon fill="none" stroke="#bfbfbf" points="1097.94,-67 1097.94,-85 1150.06,-85 1150.06,-67 1097.94,-67"/>
<text text-anchor="middle" x="1124" y="-73" font-family="Helvetica,sans-Serif" font-size="10.00">memory</text>
</g>
<!-- Node22&#45;&gt;Node23 -->
<g id="edge30" class="edge"><title>Node22&#45;&gt;Node23</title>
<path fill="none" stroke="midnightblue" d="M1015.26,-127.92C1036.44,-118.001 1072.59,-101.073 1097.35,-89.4784"/>
<polygon fill="midnightblue" stroke="midnightblue" points="1098.98,-92.5822 1106.55,-85.1717 1096.01,-86.2427 1098.98,-92.5822"/>
</g>
<!-- Node24 -->
<g id="node24" class="node"><title>Node24</title>
<g id="a_node24"><a xlink:href="producer_8cpp.html" target="_top" xlink:title="Om source file. ">
<polygon fill="none" stroke="black" points="952.754,-67 952.754,-85 1043.25,-85 1043.25,-67 952.754,-67"/>
<text text-anchor="middle" x="998" y="-73" font-family="Helvetica,sans-Serif" font-size="10.00">om/producer.cpp</text>
</a>
</g>
</g>
<!-- Node22&#45;&gt;Node24 -->
<g id="edge31" class="edge"><title>Node22&#45;&gt;Node24</title>
<path fill="none" stroke="midnightblue" d="M993.155,-127.796C991.266,-119.43 990.782,-106.171 991.703,-95.2974"/>
<polygon fill="midnightblue" stroke="midnightblue" points="995.205,-95.5317 993.171,-85.134 988.277,-94.5308 995.205,-95.5317"/>
</g>
<!-- Node24&#45;&gt;Node11 -->
<g id="edge32" class="edge"><title>Node24&#45;&gt;Node11</title>
<path fill="none" stroke="midnightblue" d="M998,-66.7963C998,-58.4303 998,-45.1713 998,-34.2974"/>
<polygon fill="midnightblue" stroke="midnightblue" points="1001.5,-34.134 998,-24.134 994.5,-34.1341 1001.5,-34.134"/>
</g>
<!-- Node24&#45;&gt;Node12 -->
<g id="edge33" class="edge"><title>Node24&#45;&gt;Node12</title>
<path fill="none" stroke="midnightblue" d="M1034.97,-66.9816C1086.03,-55.9048 1177.78,-36.0028 1230.27,-24.6176"/>
<polygon fill="midnightblue" stroke="midnightblue" points="1231.19,-27.9997 1240.22,-22.4593 1229.71,-21.1587 1231.19,-27.9997"/>
</g>
<!-- Node24&#45;&gt;Node22 -->
<g id="edge34" class="edge"><title>Node24&#45;&gt;Node22</title>
<path fill="none" stroke="midnightblue" d="M1002.83,-85.134C1004.73,-93.4728 1005.22,-106.725 1004.31,-117.612"/>
<polygon fill="midnightblue" stroke="midnightblue" points="1000.8,-117.401 1002.84,-127.796 1007.73,-118.394 1000.8,-117.401"/>
</g>
<!-- Node26 -->
<g id="node26" class="node"><title>Node26</title>
<g id="a_node26"><a xlink:href="default__copyable_8hpp.html" target="_top" xlink:title="Om header file. ">
<polygon fill="none" stroke="black" points="1309.13,-189 1309.13,-207 1436.87,-207 1436.87,-189 1309.13,-189"/>
<text text-anchor="middle" x="1373" y="-195" font-family="Helvetica,sans-Serif" font-size="10.00">om/default_copyable.hpp</text>
</a>
</g>
</g>
<!-- Node25&#45;&gt;Node26 -->
<g id="edge37" class="edge"><title>Node25&#45;&gt;Node26</title>
<path fill="none" stroke="midnightblue" d="M1407.59,-244.562C1401.66,-236.75 1392.68,-224.919 1385.35,-215.27"/>
<polygon fill="midnightblue" stroke="midnightblue" points="1388.06,-213.049 1379.23,-207.201 1382.49,-217.282 1388.06,-213.049"/>
</g>
<!-- Node30 -->
<g id="node30" class="node"><title>Node30</title>
<g id="a_node30"><a xlink:href="default__moveable_8hpp.html" target="_top" xlink:title="Om header file. ">
<polygon fill="none" stroke="black" points="1493.46,-189 1493.46,-207 1624.54,-207 1624.54,-189 1493.46,-189"/>
<text text-anchor="middle" x="1559" y="-195" font-family="Helvetica,sans-Serif" font-size="10.00">om/default_moveable.hpp</text>
</a>
</g>
</g>
<!-- Node25&#45;&gt;Node30 -->
<g id="edge46" class="edge"><title>Node25&#45;&gt;Node30</title>
<path fill="none" stroke="midnightblue" d="M1435.71,-244.916C1460.05,-235.849 1499.76,-221.063 1527.51,-210.727"/>
<polygon fill="midnightblue" stroke="midnightblue" points="1528.99,-213.91 1537.14,-207.14 1526.55,-207.35 1528.99,-213.91"/>
</g>
<!-- Node34 -->
<g id="node34" class="node"><title>Node34</title>
<g id="a_node34"><a xlink:href="giveable_8hpp.html" target="_top" xlink:title="Om header file. ">
<polygon fill="none" stroke="black" points="1201.31,-189 1201.31,-207 1290.69,-207 1290.69,-189 1201.31,-189"/>
<text text-anchor="middle" x="1246" y="-195" font-family="Helvetica,sans-Serif" font-size="10.00">om/giveable.hpp</text>
</a>
</g>
</g>
<!-- Node25&#45;&gt;Node34 -->
<g id="edge55" class="edge"><title>Node25&#45;&gt;Node34</title>
<path fill="none" stroke="midnightblue" d="M1388.85,-244.916C1360.19,-235.703 1313.16,-220.586 1280.94,-210.232"/>
<polygon fill="midnightblue" stroke="midnightblue" points="1281.64,-206.779 1271.05,-207.051 1279.5,-213.444 1281.64,-206.779"/>
</g>
<!-- Node36 -->
<g id="node36" class="node"><title>Node36</title>
<g id="a_node36"><a xlink:href="default__giveable_8cpp.html" target="_top" xlink:title="Om source file. ">
<polygon fill="none" stroke="black" points="1642.8,-189 1642.8,-207 1767.2,-207 1767.2,-189 1642.8,-189"/>
<text text-anchor="middle" x="1705" y="-195" font-family="Helvetica,sans-Serif" font-size="10.00">om/default_giveable.cpp</text>
</a>
</g>
</g>
<!-- Node25&#45;&gt;Node36 -->
<g id="edge60" class="edge"><title>Node25&#45;&gt;Node36</title>
<path fill="none" stroke="midnightblue" d="M1452.28,-244.974C1501.87,-235.356 1588.57,-219.244 1646.44,-208.873"/>
<polygon fill="midnightblue" stroke="midnightblue" points="1647.3,-212.274 1656.53,-207.07 1646.07,-205.383 1647.3,-212.274"/>
</g>
<!-- Node27 -->
<g id="node27" class="node"><title>Node27</title>
<g id="a_node27"><a xlink:href="copyable_8hpp.html" target="_top" xlink:title="Om header file. ">
<polygon fill="none" stroke="black" points="1167.92,-128 1167.92,-146 1260.08,-146 1260.08,-128 1167.92,-128"/>
<text text-anchor="middle" x="1214" y="-134" font-family="Helvetica,sans-Serif" font-size="10.00">om/copyable.hpp</text>
</a>
</g>
</g>
<!-- Node26&#45;&gt;Node27 -->
<g id="edge38" class="edge"><title>Node26&#45;&gt;Node27</title>
<path fill="none" stroke="midnightblue" d="M1351.23,-188.92C1323.83,-178.753 1276.58,-161.223 1245.31,-149.619"/>
<polygon fill="midnightblue" stroke="midnightblue" points="1246.36,-146.274 1235.77,-146.077 1243.92,-152.837 1246.36,-146.274"/>
</g>
<!-- Node29 -->
<g id="node29" class="node"><title>Node29</title>
<g id="a_node29"><a xlink:href="default__copyable_8cpp.html" target="_top" xlink:title="Om source file. ">
<polygon fill="none" stroke="black" points="1391.41,-128 1391.41,-146 1518.59,-146 1518.59,-128 1391.41,-128"/>
<text text-anchor="middle" x="1455" y="-134" font-family="Helvetica,sans-Serif" font-size="10.00">om/default_copyable.cpp</text>
</a>
</g>
</g>
<!-- Node26&#45;&gt;Node29 -->
<g id="edge44" class="edge"><title>Node26&#45;&gt;Node29</title>
<path fill="none" stroke="midnightblue" d="M1379.56,-188.796C1390.73,-179.197 1412.71,-163.157 1430.2,-151.669"/>
<polygon fill="midnightblue" stroke="midnightblue" points="1432.32,-154.468 1438.87,-146.134 1428.55,-148.569 1432.32,-154.468"/>
</g>
<!-- Node27&#45;&gt;Node23 -->
<g id="edge39" class="edge"><title>Node27&#45;&gt;Node23</title>
<path fill="none" stroke="midnightblue" d="M1201.49,-127.796C1186.84,-118.197 1162.38,-102.157 1144.85,-90.6686"/>
<polygon fill="midnightblue" stroke="midnightblue" points="1146.69,-87.6895 1136.41,-85.134 1142.85,-93.5437 1146.69,-87.6895"/>
</g>
<!-- Node28 -->
<g id="node28" class="node"><title>Node28</title>
<g id="a_node28"><a xlink:href="copyable_8cpp.html" target="_top" xlink:title="Om source file. ">
<polygon fill="none" stroke="black" points="1168.2,-67 1168.2,-85 1259.8,-85 1259.8,-67 1168.2,-67"/>
<text text-anchor="middle" x="1214" y="-73" font-family="Helvetica,sans-Serif" font-size="10.00">om/copyable.cpp</text>
</a>
</g>
</g>
<!-- Node27&#45;&gt;Node28 -->
<g id="edge40" class="edge"><title>Node27&#45;&gt;Node28</title>
<path fill="none" stroke="midnightblue" d="M1209.16,-127.796C1207.27,-119.43 1206.78,-106.171 1207.7,-95.2974"/>
<polygon fill="midnightblue" stroke="midnightblue" points="1211.21,-95.5317 1209.17,-85.134 1204.28,-94.5308 1211.21,-95.5317"/>
</g>
<!-- Node28&#45;&gt;Node11 -->
<g id="edge41" class="edge"><title>Node28&#45;&gt;Node11</title>
<path fill="none" stroke="midnightblue" d="M1184.42,-66.92C1144.61,-56.0449 1073.94,-36.7434 1031.99,-25.2839"/>
<polygon fill="midnightblue" stroke="midnightblue" points="1032.8,-21.8771 1022.23,-22.6184 1030.95,-28.6297 1032.8,-21.8771"/>
</g>
<!-- Node28&#45;&gt;Node12 -->
<g id="edge42" class="edge"><title>Node28&#45;&gt;Node12</title>
<path fill="none" stroke="midnightblue" d="M1221.79,-66.7963C1230.4,-57.7258 1244.46,-42.9035 1255.19,-31.6054"/>
<polygon fill="midnightblue" stroke="midnightblue" points="1257.93,-33.7966 1262.28,-24.134 1252.86,-28.9776 1257.93,-33.7966"/>
</g>
<!-- Node28&#45;&gt;Node27 -->
<g id="edge43" class="edge"><title>Node28&#45;&gt;Node27</title>
<path fill="none" stroke="midnightblue" d="M1218.83,-85.134C1220.73,-93.4728 1221.22,-106.725 1220.31,-117.612"/>
<polygon fill="midnightblue" stroke="midnightblue" points="1216.8,-117.401 1218.84,-127.796 1223.73,-118.394 1216.8,-117.401"/>
</g>
<!-- Node29&#45;&gt;Node26 -->
<g id="edge45" class="edge"><title>Node29&#45;&gt;Node26</title>
<path fill="none" stroke="midnightblue" d="M1448.52,-146.134C1437.4,-155.702 1415.44,-171.737 1397.92,-183.248"/>
<polygon fill="midnightblue" stroke="midnightblue" points="1395.79,-180.46 1389.25,-188.796 1399.56,-186.357 1395.79,-180.46"/>
</g>
<!-- Node31 -->
<g id="node31" class="node"><title>Node31</title>
<g id="a_node31"><a xlink:href="moveable_8hpp.html" target="_top" xlink:title="Om header file. ">
<polygon fill="none" stroke="black" points="1278.25,-128 1278.25,-146 1373.75,-146 1373.75,-128 1278.25,-128"/>
<text text-anchor="middle" x="1326" y="-134" font-family="Helvetica,sans-Serif" font-size="10.00">om/moveable.hpp</text>
</a>
</g>
</g>
<!-- Node30&#45;&gt;Node31 -->
<g id="edge47" class="edge"><title>Node30&#45;&gt;Node31</title>
<path fill="none" stroke="midnightblue" d="M1527.09,-188.92C1485.72,-178.445 1413.49,-160.154 1367.79,-148.581"/>
<polygon fill="midnightblue" stroke="midnightblue" points="1368.45,-145.139 1357.9,-146.077 1366.73,-151.925 1368.45,-145.139"/>
</g>
<!-- Node33 -->
<g id="node33" class="node"><title>Node33</title>
<g id="a_node33"><a xlink:href="default__moveable_8cpp.html" target="_top" xlink:title="Om source file. ">
<polygon fill="none" stroke="black" points="1574.74,-128 1574.74,-146 1705.26,-146 1705.26,-128 1574.74,-128"/>
<text text-anchor="middle" x="1640" y="-134" font-family="Helvetica,sans-Serif" font-size="10.00">om/default_moveable.cpp</text>
</a>
</g>
</g>
<!-- Node30&#45;&gt;Node33 -->
<g id="edge53" class="edge"><title>Node30&#45;&gt;Node33</title>
<path fill="none" stroke="midnightblue" d="M1565.42,-188.796C1576.43,-179.197 1598.13,-163.157 1615.44,-151.669"/>
<polygon fill="midnightblue" stroke="midnightblue" points="1617.5,-154.5 1624,-146.134 1613.7,-148.62 1617.5,-154.5"/>
</g>
<!-- Node31&#45;&gt;Node23 -->
<g id="edge48" class="edge"><title>Node31&#45;&gt;Node23</title>
<path fill="none" stroke="midnightblue" d="M1298.34,-127.92C1262.45,-117.439 1199.77,-99.1323 1160.16,-87.5608"/>
<polygon fill="midnightblue" stroke="midnightblue" points="1160.95,-84.1457 1150.37,-84.7016 1158.99,-90.865 1160.95,-84.1457"/>
</g>
<!-- Node32 -->
<g id="node32" class="node"><title>Node32</title>
<g id="a_node32"><a xlink:href="moveable_8cpp.html" target="_top" xlink:title="Om source file. ">
<polygon fill="none" stroke="black" points="1278.53,-67 1278.53,-85 1373.47,-85 1373.47,-67 1278.53,-67"/>
<text text-anchor="middle" x="1326" y="-73" font-family="Helvetica,sans-Serif" font-size="10.00">om/moveable.cpp</text>
</a>
</g>
</g>
<!-- Node31&#45;&gt;Node32 -->
<g id="edge49" class="edge"><title>Node31&#45;&gt;Node32</title>
<path fill="none" stroke="midnightblue" d="M1321.16,-127.796C1319.27,-119.43 1318.78,-106.171 1319.7,-95.2974"/>
<polygon fill="midnightblue" stroke="midnightblue" points="1323.21,-95.5317 1321.17,-85.134 1316.28,-94.5308 1323.21,-95.5317"/>
</g>
<!-- Node32&#45;&gt;Node11 -->
<g id="edge50" class="edge"><title>Node32&#45;&gt;Node11</title>
<path fill="none" stroke="midnightblue" d="M1281.42,-66.9816C1215.16,-55.0628 1092.1,-32.926 1032.34,-22.1765"/>
<polygon fill="midnightblue" stroke="midnightblue" points="1032.75,-18.6938 1022.28,-20.3681 1031.51,-25.5833 1032.75,-18.6938"/>
</g>
<!-- Node32&#45;&gt;Node12 -->
<g id="edge51" class="edge"><title>Node32&#45;&gt;Node12</title>
<path fill="none" stroke="midnightblue" d="M1318.21,-66.7963C1309.6,-57.7258 1295.54,-42.9035 1284.81,-31.6054"/>
<polygon fill="midnightblue" stroke="midnightblue" points="1287.14,-28.9776 1277.72,-24.134 1282.07,-33.7966 1287.14,-28.9776"/>
</g>
<!-- Node32&#45;&gt;Node31 -->
<g id="edge52" class="edge"><title>Node32&#45;&gt;Node31</title>
<path fill="none" stroke="midnightblue" d="M1330.83,-85.134C1332.73,-93.4728 1333.22,-106.725 1332.31,-117.612"/>
<polygon fill="midnightblue" stroke="midnightblue" points="1328.8,-117.401 1330.84,-127.796 1335.73,-118.394 1328.8,-117.401"/>
</g>
<!-- Node33&#45;&gt;Node30 -->
<g id="edge54" class="edge"><title>Node33&#45;&gt;Node30</title>
<path fill="none" stroke="midnightblue" d="M1633.66,-146.134C1622.7,-155.702 1601.02,-171.737 1583.69,-183.248"/>
<polygon fill="midnightblue" stroke="midnightblue" points="1581.61,-180.428 1575.11,-188.796 1585.41,-186.306 1581.61,-180.428"/>
</g>
<!-- Node34&#45;&gt;Node27 -->
<g id="edge56" class="edge"><title>Node34&#45;&gt;Node27</title>
<path fill="none" stroke="midnightblue" d="M1241.55,-188.796C1236.82,-180.078 1229.21,-166.046 1223.19,-154.937"/>
<polygon fill="midnightblue" stroke="midnightblue" points="1226.26,-153.256 1218.41,-146.134 1220.1,-156.593 1226.26,-153.256"/>
</g>
<!-- Node34&#45;&gt;Node31 -->
<g id="edge57" class="edge"><title>Node34&#45;&gt;Node31</title>
<path fill="none" stroke="midnightblue" d="M1257.12,-188.796C1269.9,-179.374 1291.09,-163.744 1306.6,-152.306"/>
<polygon fill="midnightblue" stroke="midnightblue" points="1309,-154.886 1314.97,-146.134 1304.85,-149.253 1309,-154.886"/>
</g>
<!-- Node35 -->
<g id="node35" class="node"><title>Node35</title>
<g id="a_node35"><a xlink:href="giveable_8cpp.html" target="_top" xlink:title="Om source file. ">
<polygon fill="none" stroke="black" points="1061.59,-128 1061.59,-146 1150.41,-146 1150.41,-128 1061.59,-128"/>
<text text-anchor="middle" x="1106" y="-134" font-family="Helvetica,sans-Serif" font-size="10.00">om/giveable.cpp</text>
</a>
</g>
</g>
<!-- Node34&#45;&gt;Node35 -->
<g id="edge58" class="edge"><title>Node34&#45;&gt;Node35</title>
<path fill="none" stroke="midnightblue" d="M1222.01,-188.92C1196.21,-179.001 1155.77,-162.073 1129.98,-150.478"/>
<polygon fill="midnightblue" stroke="midnightblue" points="1131.1,-147.144 1120.55,-146.172 1128.19,-153.511 1131.1,-147.144"/>
</g>
<!-- Node35&#45;&gt;Node34 -->
<g id="edge59" class="edge"><title>Node35&#45;&gt;Node34</title>
<path fill="none" stroke="midnightblue" d="M1130.23,-146.172C1156.12,-156.133 1196.56,-173.066 1222.26,-184.628"/>
<polygon fill="midnightblue" stroke="midnightblue" points="1221.09,-187.944 1231.64,-188.92 1224.01,-181.578 1221.09,-187.944"/>
</g>
<!-- Node36&#45;&gt;Node25 -->
<g id="edge61" class="edge"><title>Node36&#45;&gt;Node25</title>
<path fill="none" stroke="midnightblue" d="M1666.49,-207.07C1616.79,-216.707 1530.08,-232.821 1472.3,-243.174"/>
<polygon fill="midnightblue" stroke="midnightblue" points="1471.45,-239.771 1462.22,-244.974 1472.68,-246.662 1471.45,-239.771"/>
</g>
<!-- Node37&#45;&gt;Node3 -->
<g id="edge63" class="edge"><title>Node37&#45;&gt;Node3</title>
<path fill="none" stroke="midnightblue" d="M1223.69,-412.916C1198.57,-403.809 1157.52,-388.934 1128.98,-378.592"/>
<polygon fill="midnightblue" stroke="midnightblue" points="1130.05,-375.256 1119.46,-375.14 1127.67,-381.838 1130.05,-375.256"/>
</g>
<!-- Node37&#45;&gt;Node22 -->
<g id="edge65" class="edge"><title>Node37&#45;&gt;Node22</title>
<path fill="none" stroke="midnightblue" d="M1232.8,-412.963C1220.78,-404.994 1203.36,-391.723 1193,-376 1176.37,-350.762 1173,-341.225 1173,-311 1173,-311 1173,-311 1173,-253 1173,-218.406 1076.29,-171.692 1026.65,-149.996"/>
<polygon fill="midnightblue" stroke="midnightblue" points="1027.97,-146.75 1017.4,-146.002 1025.19,-153.177 1027.97,-146.75"/>
</g>
<!-- Node37&#45;&gt;Node34 -->
<g id="edge64" class="edge"><title>Node37&#45;&gt;Node34</title>
<path fill="none" stroke="midnightblue" d="M1261.32,-412.998C1274.05,-405.393 1291.29,-392.651 1299,-376 1325.12,-319.564 1281.28,-247.099 1258.47,-215.247"/>
<polygon fill="midnightblue" stroke="midnightblue" points="1261.17,-213.016 1252.41,-207.055 1255.54,-217.177 1261.17,-213.016"/>
</g>
<!-- Node38 -->
<g id="node38" class="node"><title>Node38</title>
<g id="a_node38"><a xlink:href="shareable_8hpp.html" target="_top" xlink:title="Om header file. ">
<polygon fill="none" stroke="black" points="1534.97,-357 1534.97,-375 1631.03,-375 1631.03,-357 1534.97,-357"/>
<text text-anchor="middle" x="1583" y="-363" font-family="Helvetica,sans-Serif" font-size="10.00">om/shareable.hpp</text>
</a>
</g>
</g>
<!-- Node37&#45;&gt;Node38 -->
<g id="edge66" class="edge"><title>Node37&#45;&gt;Node38</title>
<path fill="none" stroke="midnightblue" d="M1290.75,-413.829C1351.04,-404.169 1458.43,-386.961 1524.89,-376.311"/>
<polygon fill="midnightblue" stroke="midnightblue" points="1525.47,-379.763 1534.79,-374.725 1524.36,-372.851 1525.47,-379.763"/>
</g>
<!-- Node43 -->
<g id="node43" class="node"><title>Node43</title>
<g id="a_node43"><a xlink:href="program_8cpp.html" target="_top" xlink:title="Om source file. ">
<polygon fill="none" stroke="black" points="1201.6,-357 1201.6,-375 1290.4,-375 1290.4,-357 1201.6,-357"/>
<text text-anchor="middle" x="1246" y="-363" font-family="Helvetica,sans-Serif" font-size="10.00">om/program.cpp</text>
</a>
</g>
</g>
<!-- Node37&#45;&gt;Node43 -->
<g id="edge73" class="edge"><title>Node37&#45;&gt;Node43</title>
<path fill="none" stroke="midnightblue" d="M1240.94,-412.562C1239.33,-405.308 1238.87,-394.588 1239.57,-385.369"/>
<polygon fill="midnightblue" stroke="midnightblue" points="1243.07,-385.59 1240.99,-375.201 1236.14,-384.619 1243.07,-385.59"/>
</g>
<!-- Node39 -->
<g id="node39" class="node"><title>Node39</title>
<polygon fill="none" stroke="#bfbfbf" points="1513.88,-301 1513.88,-319 1562.12,-319 1562.12,-301 1513.88,-301"/>
<text text-anchor="middle" x="1538" y="-307" font-family="Helvetica,sans-Serif" font-size="10.00">cstddef</text>
</g>
<!-- Node38&#45;&gt;Node39 -->
<g id="edge67" class="edge"><title>Node38&#45;&gt;Node39</title>
<path fill="none" stroke="midnightblue" d="M1575.97,-356.562C1569.39,-348.67 1559.4,-336.677 1551.31,-326.976"/>
<polygon fill="midnightblue" stroke="midnightblue" points="1553.93,-324.643 1544.83,-319.201 1548.55,-329.124 1553.93,-324.643"/>
</g>
<!-- Node40 -->
<g id="node40" class="node"><title>Node40</title>
<g id="a_node40"><a xlink:href="shareable_8cpp.html" target="_top" xlink:title="Om source file. ">
<polygon fill="none" stroke="black" points="1580.25,-301 1580.25,-319 1675.75,-319 1675.75,-301 1580.25,-301"/>
<text text-anchor="middle" x="1628" y="-307" font-family="Helvetica,sans-Serif" font-size="10.00">om/shareable.cpp</text>
</a>
</g>
</g>
<!-- Node38&#45;&gt;Node40 -->
<g id="edge68" class="edge"><title>Node38&#45;&gt;Node40</title>
<path fill="none" stroke="midnightblue" d="M1584.97,-356.562C1589.89,-348.511 1599.79,-336.191 1609.01,-326.391"/>
<polygon fill="midnightblue" stroke="midnightblue" points="1611.59,-328.762 1616.16,-319.201 1606.62,-323.828 1611.59,-328.762"/>
</g>
<!-- Node40&#45;&gt;Node12 -->
<g id="edge69" class="edge"><title>Node40&#45;&gt;Node12</title>
<path fill="none" stroke="midnightblue" d="M1676.03,-306.023C1708.37,-301.524 1749.75,-290.538 1776,-264 1797.17,-242.603 1795,-229.098 1795,-199 1795,-199 1795,-199 1795,-136 1795,-36.5208 1432.24,-19.5086 1309.81,-16.5998"/>
<polygon fill="midnightblue" stroke="midnightblue" points="1309.8,-13.099 1299.73,-16.3797 1309.65,-20.0973 1309.8,-13.099"/>
</g>
<!-- Node40&#45;&gt;Node38 -->
<g id="edge72" class="edge"><title>Node40&#45;&gt;Node38</title>
<path fill="none" stroke="midnightblue" d="M1626.17,-319.201C1621.35,-327.169 1611.5,-339.471 1602.26,-349.32"/>
<polygon fill="midnightblue" stroke="midnightblue" points="1599.64,-346.992 1595.09,-356.562 1604.61,-351.915 1599.64,-346.992"/>
</g>
<!-- Node41 -->
<g id="node41" class="node"><title>Node41</title>
<polygon fill="none" stroke="#bfbfbf" points="1634.62,-245 1634.62,-263 1767.38,-263 1767.38,-245 1634.62,-245"/>
<text text-anchor="middle" x="1701" y="-251" font-family="Helvetica,sans-Serif" font-size="10.00">boost/checked_delete.hpp</text>
</g>
<!-- Node40&#45;&gt;Node41 -->
<g id="edge70" class="edge"><title>Node40&#45;&gt;Node41</title>
<path fill="none" stroke="midnightblue" d="M1639.09,-300.799C1650.34,-292.473 1668,-279.413 1681.58,-269.366"/>
<polygon fill="midnightblue" stroke="midnightblue" points="1683.85,-272.039 1689.81,-263.279 1679.69,-266.412 1683.85,-272.039"/>
</g>
<!-- Node42 -->
<g id="node42" class="node"><title>Node42</title>
<polygon fill="none" stroke="#bfbfbf" points="1495.74,-245 1495.74,-263 1616.26,-263 1616.26,-245 1495.74,-245"/>
<text text-anchor="middle" x="1556" y="-251" font-family="Helvetica,sans-Serif" font-size="10.00">boost/integer_traits.hpp</text>
</g>
<!-- Node40&#45;&gt;Node42 -->
<g id="edge71" class="edge"><title>Node40&#45;&gt;Node42</title>
<path fill="none" stroke="midnightblue" d="M1617.06,-300.799C1605.96,-292.473 1588.55,-279.413 1575.15,-269.366"/>
<polygon fill="midnightblue" stroke="midnightblue" points="1577.14,-266.479 1567.04,-263.279 1572.94,-272.079 1577.14,-266.479"/>
</g>
<!-- Node43&#45;&gt;Node37 -->
<g id="edge74" class="edge"><title>Node43&#45;&gt;Node37</title>
<path fill="none" stroke="midnightblue" d="M1251.01,-375.201C1252.66,-382.459 1253.14,-393.313 1252.43,-402.633"/>
<polygon fill="midnightblue" stroke="midnightblue" points="1248.96,-402.178 1251.06,-412.562 1255.9,-403.135 1248.96,-402.178"/>
</g>
<!-- Node45 -->
<g id="node45" class="node"><title>Node45</title>
<g id="a_node45"><a xlink:href="taker_8cpp.html" target="_top" xlink:title="Om source file. ">
<polygon fill="none" stroke="black" points="1388.37,-469 1388.37,-487 1461.63,-487 1461.63,-469 1388.37,-469"/>
<text text-anchor="middle" x="1425" y="-475" font-family="Helvetica,sans-Serif" font-size="10.00">om/taker.cpp</text>
</a>
</g>
</g>
<!-- Node44&#45;&gt;Node45 -->
<g id="edge76" class="edge"><title>Node44&#45;&gt;Node45</title>
<path fill="none" stroke="midnightblue" d="M1419.94,-524.562C1418.33,-517.308 1417.87,-506.588 1418.57,-497.369"/>
<polygon fill="midnightblue" stroke="midnightblue" points="1422.07,-497.59 1419.99,-487.201 1415.14,-496.619 1422.07,-497.59"/>
</g>
<!-- Node45&#45;&gt;Node44 -->
<g id="edge77" class="edge"><title>Node45&#45;&gt;Node44</title>
<path fill="none" stroke="midnightblue" d="M1430.01,-487.201C1431.66,-494.459 1432.14,-505.313 1431.43,-514.633"/>
<polygon fill="midnightblue" stroke="midnightblue" points="1427.96,-514.178 1430.06,-524.562 1434.9,-515.135 1427.96,-514.178"/>
</g>
<!-- Node46&#45;&gt;Node1 -->
<g id="edge85" class="edge"><title>Node46&#45;&gt;Node1</title>
<path fill="none" stroke="midnightblue" d="M1157.06,-543.201C1166.5,-551.011 1178.67,-562.986 1187.28,-572.732"/>
<polygon fill="midnightblue" stroke="midnightblue" points="1184.7,-575.101 1193.78,-580.562 1190.09,-570.631 1184.7,-575.101"/>
</g>
<!-- Node46&#45;&gt;Node9 -->
<g id="edge83" class="edge"><title>Node46&#45;&gt;Node9</title>
<path fill="none" stroke="midnightblue" d="M1099.8,-524.945C1021.6,-509.422 867,-472.48 867,-423 867,-423 867,-423 867,-253 867,-222.356 863.673,-211.495 844,-188 829.494,-170.677 807.359,-158.141 788.918,-149.954"/>
<polygon fill="midnightblue" stroke="midnightblue" points="790.246,-146.716 779.671,-146.067 787.534,-153.169 790.246,-146.716"/>
</g>
<!-- Node47 -->
<g id="node47" class="node"><title>Node47</title>
<g id="a_node47"><a xlink:href="element_8hpp.html" target="_top" xlink:title="Om header file. ">
<polygon fill="none" stroke="black" points="1100.15,-469 1100.15,-487 1187.85,-487 1187.85,-469 1100.15,-469"/>
<text text-anchor="middle" x="1144" y="-475" font-family="Helvetica,sans-Serif" font-size="10.00">om/element.hpp</text>
</a>
</g>
</g>
<!-- Node46&#45;&gt;Node47 -->
<g id="edge79" class="edge"><title>Node46&#45;&gt;Node47</title>
<path fill="none" stroke="midnightblue" d="M1144,-524.562C1144,-517.308 1144,-506.588 1144,-497.369"/>
<polygon fill="midnightblue" stroke="midnightblue" points="1147.5,-497.201 1144,-487.201 1140.5,-497.201 1147.5,-497.201"/>
</g>
<!-- Node49 -->
<g id="node49" class="node"><title>Node49</title>
<polygon fill="none" stroke="#bfbfbf" points="1031.49,-469 1031.49,-487 1082.51,-487 1082.51,-469 1031.49,-469"/>
<text text-anchor="middle" x="1057" y="-475" font-family="Helvetica,sans-Serif" font-size="10.00">typeinfo</text>
</g>
<!-- Node46&#45;&gt;Node49 -->
<g id="edge84" class="edge"><title>Node46&#45;&gt;Node49</title>
<path fill="none" stroke="midnightblue" d="M1130.79,-524.799C1117.04,-516.265 1095.28,-502.757 1078.94,-492.619"/>
<polygon fill="midnightblue" stroke="midnightblue" points="1080.39,-489.402 1070.05,-487.102 1076.7,-495.349 1080.39,-489.402"/>
</g>
<!-- Node47&#45;&gt;Node37 -->
<g id="edge80" class="edge"><title>Node47&#45;&gt;Node37</title>
<path fill="none" stroke="midnightblue" d="M1159.49,-468.799C1175.99,-460.065 1202.32,-446.123 1221.61,-435.914"/>
<polygon fill="midnightblue" stroke="midnightblue" points="1223.5,-438.874 1230.7,-431.102 1220.22,-432.687 1223.5,-438.874"/>
</g>
<!-- Node48 -->
<g id="node48" class="node"><title>Node48</title>
<g id="a_node48"><a xlink:href="element_8cpp.html" target="_top" xlink:title="Om source file. ">
<polygon fill="none" stroke="black" points="1096.43,-413 1096.43,-431 1183.57,-431 1183.57,-413 1096.43,-413"/>
<text text-anchor="middle" x="1140" y="-419" font-family="Helvetica,sans-Serif" font-size="10.00">om/element.cpp</text>
</a>
</g>
</g>
<!-- Node47&#45;&gt;Node48 -->
<g id="edge81" class="edge"><title>Node47&#45;&gt;Node48</title>
<path fill="none" stroke="midnightblue" d="M1138.31,-468.562C1136.16,-461.308 1134.91,-450.588 1134.93,-441.369"/>
<polygon fill="midnightblue" stroke="midnightblue" points="1138.43,-441.41 1135.6,-431.201 1131.45,-440.949 1138.43,-441.41"/>
</g>
<!-- Node48&#45;&gt;Node47 -->
<g id="edge82" class="edge"><title>Node48&#45;&gt;Node47</title>
<path fill="none" stroke="midnightblue" d="M1145.62,-431.201C1147.79,-438.38 1149.06,-449.077 1149.07,-458.329"/>
<polygon fill="midnightblue" stroke="midnightblue" points="1145.56,-458.365 1148.44,-468.562 1152.55,-458.799 1145.56,-458.365"/>
</g>
</g>
</svg>
