<?xml version="1.0" encoding="UTF-8" standalone="no"?>
<!DOCTYPE svg PUBLIC "-//W3C//DTD SVG 1.1//EN"
 "http://www.w3.org/Graphics/SVG/1.1/DTD/svg11.dtd">
<!-- Generated by graphviz version 2.28.0 (20120817.0054)
 -->
<!-- Title: code/om/default_operation.cpp Pages: 1 -->
<svg width="243pt" height="252pt"
 viewBox="0.00 0.00 243.00 252.00" xmlns="http://www.w3.org/2000/svg" xmlns:xlink="http://www.w3.org/1999/xlink">
<g id="graph1" class="graph" transform="scale(1 1) rotate(0) translate(4 248)">
<title>code/om/default_operation.cpp</title>
<!-- Node1 -->
<g id="node1" class="node"><title>Node1</title>
<polygon fill="#bfbfbf" stroke="black" points="89,-224.5 89,-243.5 235,-243.5 235,-224.5 89,-224.5"/>
<text text-anchor="middle" x="162" y="-231.5" font-family="Helvetica,sans-Serif" font-size="10.00">code/om/default_operation.cpp</text>
</g>
<!-- Node2 -->
<g id="node3" class="node"><title>Node2</title>
<a xlink:href="default__operation_8hpp.html" target="_top" xlink:title="Om header file.">
<polygon fill="none" stroke="black" points="100,-168.5 100,-187.5 224,-187.5 224,-168.5 100,-168.5"/>
<text text-anchor="middle" x="162" y="-175.5" font-family="Helvetica,sans-Serif" font-size="10.00">om/default_operation.hpp</text>
</a>
</g>
<!-- Node1&#45;&gt;Node2 -->
<g id="edge2" class="edge"><title>Node1&#45;&gt;Node2</title>
<path fill="none" stroke="midnightblue" d="M156.834,-224.083C155.324,-216.927 154.894,-206.635 155.542,-197.691"/>
<polygon fill="midnightblue" stroke="midnightblue" points="159.015,-198.126 156.869,-187.751 152.077,-197.2 159.015,-198.126"/>
</g>
<!-- Node2&#45;&gt;Node1 -->
<g id="edge14" class="edge"><title>Node2&#45;&gt;Node1</title>
<path fill="none" stroke="midnightblue" d="M167.131,-187.751C168.657,-194.858 169.104,-205.136 168.472,-214.101"/>
<polygon fill="midnightblue" stroke="midnightblue" points="164.993,-213.713 167.166,-224.083 171.934,-214.622 164.993,-213.713"/>
</g>
<!-- Node3 -->
<g id="node5" class="node"><title>Node3</title>
<a xlink:href="operation_8hpp.html" target="_top" xlink:title="Om header file.">
<polygon fill="none" stroke="black" points="116.5,-112.5 116.5,-131.5 207.5,-131.5 207.5,-112.5 116.5,-112.5"/>
<text text-anchor="middle" x="162" y="-119.5" font-family="Helvetica,sans-Serif" font-size="10.00">om/operation.hpp</text>
</a>
</g>
<!-- Node2&#45;&gt;Node3 -->
<g id="edge4" class="edge"><title>Node2&#45;&gt;Node3</title>
<path fill="none" stroke="midnightblue" d="M162,-168.083C162,-161.006 162,-150.861 162,-141.986"/>
<polygon fill="midnightblue" stroke="midnightblue" points="165.5,-141.751 162,-131.751 158.5,-141.751 165.5,-141.751"/>
</g>
<!-- Node4 -->
<g id="node7" class="node"><title>Node4</title>
<a xlink:href="code__point_8hpp.html" target="_top" xlink:title="Om header file.">
<polygon fill="none" stroke="black" points="1,-56.5 1,-75.5 99,-75.5 99,-56.5 1,-56.5"/>
<text text-anchor="middle" x="50" y="-63.5" font-family="Helvetica,sans-Serif" font-size="10.00">om/code_point.hpp</text>
</a>
</g>
<!-- Node3&#45;&gt;Node4 -->
<g id="edge6" class="edge"><title>Node3&#45;&gt;Node4</title>
<path fill="none" stroke="midnightblue" d="M144.005,-112.324C125.962,-103.625 97.9531,-90.1202 77.1973,-80.113"/>
<polygon fill="midnightblue" stroke="midnightblue" points="78.4778,-76.8449 67.9501,-75.6545 75.4377,-83.1502 78.4778,-76.8449"/>
</g>
<!-- Node6 -->
<g id="node11" class="node"><title>Node6</title>
<a xlink:href="operation_8cpp.html" target="_top" xlink:title="Om source file.">
<polygon fill="none" stroke="black" points="117,-56.5 117,-75.5 207,-75.5 207,-56.5 117,-56.5"/>
<text text-anchor="middle" x="162" y="-63.5" font-family="Helvetica,sans-Serif" font-size="10.00">om/operation.cpp</text>
</a>
</g>
<!-- Node3&#45;&gt;Node6 -->
<g id="edge10" class="edge"><title>Node3&#45;&gt;Node6</title>
<path fill="none" stroke="midnightblue" d="M156.834,-112.083C155.324,-104.927 154.894,-94.6353 155.542,-85.6911"/>
<polygon fill="midnightblue" stroke="midnightblue" points="159.015,-86.1262 156.869,-75.7511 152.077,-85.2002 159.015,-86.1262"/>
</g>
<!-- Node5 -->
<g id="node9" class="node"><title>Node5</title>
<polygon fill="none" stroke="#bfbfbf" points="0,-0.5 0,-19.5 100,-19.5 100,-0.5 0,-0.5"/>
<text text-anchor="middle" x="50" y="-7.5" font-family="Helvetica,sans-Serif" font-size="10.00">boost/locale/utf.hpp</text>
</g>
<!-- Node4&#45;&gt;Node5 -->
<g id="edge8" class="edge"><title>Node4&#45;&gt;Node5</title>
<path fill="none" stroke="midnightblue" d="M50,-56.083C50,-49.0059 50,-38.8611 50,-29.9865"/>
<polygon fill="midnightblue" stroke="midnightblue" points="53.5001,-29.751 50,-19.7511 46.5001,-29.7511 53.5001,-29.751"/>
</g>
<!-- Node6&#45;&gt;Node3 -->
<g id="edge12" class="edge"><title>Node6&#45;&gt;Node3</title>
<path fill="none" stroke="midnightblue" d="M167.131,-75.7511C168.657,-82.8579 169.104,-93.1357 168.472,-102.101"/>
<polygon fill="midnightblue" stroke="midnightblue" points="164.993,-101.713 167.166,-112.083 171.934,-102.622 164.993,-101.713"/>
</g>
</g>
</svg>
