<?xml version="1.0" encoding="UTF-8" standalone="no"?>
<!DOCTYPE svg PUBLIC "-//W3C//DTD SVG 1.1//EN"
 "http://www.w3.org/Graphics/SVG/1.1/DTD/svg11.dtd">
<!-- Generated by graphviz version 2.36.0 (20140111.2315)
 -->
<!-- Title: om/language/default_program.hpp Pages: 1 -->
<svg width="1616pt" height="546pt"
 viewBox="0.00 0.00 1616.00 546.00" xmlns="http://www.w3.org/2000/svg" xmlns:xlink="http://www.w3.org/1999/xlink">
<g id="graph0" class="graph" transform="scale(1 1) rotate(0) translate(4 542)">
<title>om/language/default_program.hpp</title>
<!-- Node1 -->
<g id="node1" class="node"><title>Node1</title>
<g id="a_node1"><a xlink:title="Om header file.">
<polygon fill="#bfbfbf" stroke="black" points="1324.69,-509 1324.69,-537 1431.31,-537 1431.31,-509 1324.69,-509"/>
<text text-anchor="start" x="1332.69" y="-525" font-family="Helvetica,sans-Serif" font-size="10.00">om/language/default</text>
<text text-anchor="middle" x="1378" y="-515" font-family="Helvetica,sans-Serif" font-size="10.00">_program.hpp</text>
</a>
</g>
</g>
<!-- Node2 -->
<g id="node2" class="node"><title>Node2</title>
<g id="a_node2"><a xlink:href="default__element_8hpp.html" target="_top" xlink:title="Om header file.">
<polygon fill="none" stroke="black" points="1122.69,-443 1122.69,-471 1229.31,-471 1229.31,-443 1122.69,-443"/>
<text text-anchor="start" x="1130.69" y="-459" font-family="Helvetica,sans-Serif" font-size="10.00">om/language/default</text>
<text text-anchor="middle" x="1176" y="-449" font-family="Helvetica,sans-Serif" font-size="10.00">_element.hpp</text>
</a>
</g>
</g>
<!-- Node1&#45;&gt;Node2 -->
<g id="edge1" class="edge"><title>Node1&#45;&gt;Node2</title>
<path fill="none" stroke="midnightblue" d="M1326.9,-505.811C1292.98,-495.063 1249.02,-481.136 1217.31,-471.088"/>
<polygon fill="midnightblue" stroke="midnightblue" points="1326.04,-509.21 1336.63,-508.894 1328.16,-502.537 1326.04,-509.21"/>
</g>
<!-- Node38 -->
<g id="node38" class="node"><title>Node38</title>
<g id="a_node38"><a xlink:href="default__program_8cpp.html" target="_top" xlink:title="Om source file.">
<polygon fill="none" stroke="black" points="1324.69,-443 1324.69,-471 1431.31,-471 1431.31,-443 1324.69,-443"/>
<text text-anchor="start" x="1332.69" y="-459" font-family="Helvetica,sans-Serif" font-size="10.00">om/language/default</text>
<text text-anchor="middle" x="1378" y="-449" font-family="Helvetica,sans-Serif" font-size="10.00">_program.cpp</text>
</a>
</g>
</g>
<!-- Node1&#45;&gt;Node38 -->
<g id="edge53" class="edge"><title>Node1&#45;&gt;Node38</title>
<path fill="none" stroke="midnightblue" d="M1371.47,-498.595C1370.99,-489.379 1371.3,-479.135 1372.41,-471.244"/>
<polygon fill="midnightblue" stroke="midnightblue" points="1368,-499.103 1372.41,-508.739 1374.97,-498.46 1368,-499.103"/>
</g>
<!-- Node39 -->
<g id="node39" class="node"><title>Node39</title>
<g id="a_node39"><a xlink:href="literal_8hpp.html" target="_top" xlink:title="Om header file.">
<polygon fill="none" stroke="black" points="1488.02,-448 1488.02,-466 1607.98,-466 1607.98,-448 1488.02,-448"/>
<text text-anchor="middle" x="1548" y="-454" font-family="Helvetica,sans-Serif" font-size="10.00">om/language/literal.hpp</text>
</a>
</g>
</g>
<!-- Node1&#45;&gt;Node39 -->
<g id="edge55" class="edge"><title>Node1&#45;&gt;Node39</title>
<path fill="none" stroke="midnightblue" d="M1422.41,-505.281C1456,-492.635 1500.65,-475.826 1526.66,-466.033"/>
<polygon fill="midnightblue" stroke="midnightblue" points="1420.94,-502.095 1412.81,-508.894 1423.4,-508.646 1420.94,-502.095"/>
</g>
<!-- Node3 -->
<g id="node3" class="node"><title>Node3</title>
<g id="a_node3"><a xlink:href="default__atom_8hpp.html" target="_top" xlink:title="Om header file.">
<polygon fill="none" stroke="black" points="850.688,-377 850.688,-405 957.312,-405 957.312,-377 850.688,-377"/>
<text text-anchor="start" x="858.688" y="-393" font-family="Helvetica,sans-Serif" font-size="10.00">om/language/default</text>
<text text-anchor="middle" x="904" y="-383" font-family="Helvetica,sans-Serif" font-size="10.00">_atom.hpp</text>
</a>
</g>
</g>
<!-- Node2&#45;&gt;Node3 -->
<g id="edge2" class="edge"><title>Node2&#45;&gt;Node3</title>
<path fill="none" stroke="midnightblue" d="M1112.82,-441.134C1065.81,-430.073 1002.34,-415.139 957.756,-404.649"/>
<polygon fill="midnightblue" stroke="midnightblue" points="1112.05,-444.549 1122.59,-443.432 1113.65,-437.735 1112.05,-444.549"/>
</g>
<!-- Node33 -->
<g id="node33" class="node"><title>Node33</title>
<g id="a_node33"><a xlink:href="default__element_8cpp.html" target="_top" xlink:title="Om source file.">
<polygon fill="none" stroke="black" points="1083.69,-377 1083.69,-405 1190.31,-405 1190.31,-377 1083.69,-377"/>
<text text-anchor="start" x="1091.69" y="-393" font-family="Helvetica,sans-Serif" font-size="10.00">om/language/default</text>
<text text-anchor="middle" x="1137" y="-383" font-family="Helvetica,sans-Serif" font-size="10.00">_element.cpp</text>
</a>
</g>
</g>
<!-- Node2&#45;&gt;Node33 -->
<g id="edge45" class="edge"><title>Node2&#45;&gt;Node33</title>
<path fill="none" stroke="midnightblue" d="M1156.4,-434.384C1149.89,-424.725 1143.42,-413.65 1139.48,-405.244"/>
<polygon fill="midnightblue" stroke="midnightblue" points="1153.69,-436.605 1162.33,-442.739 1159.4,-432.557 1153.69,-436.605"/>
</g>
<!-- Node34 -->
<g id="node34" class="node"><title>Node34</title>
<g id="a_node34"><a xlink:href="null_8hpp.html" target="_top" xlink:title="Om header file.">
<polygon fill="none" stroke="black" points="1208.19,-382 1208.19,-400 1319.81,-400 1319.81,-382 1208.19,-382"/>
<text text-anchor="middle" x="1264" y="-388" font-family="Helvetica,sans-Serif" font-size="10.00">om/language/null.hpp</text>
</a>
</g>
</g>
<!-- Node2&#45;&gt;Node34 -->
<g id="edge47" class="edge"><title>Node2&#45;&gt;Node34</title>
<path fill="none" stroke="midnightblue" d="M1202.58,-436.671C1219.36,-424.464 1240.18,-409.325 1252.76,-400.176"/>
<polygon fill="midnightblue" stroke="midnightblue" points="1200.26,-434.027 1194.23,-442.739 1204.38,-439.688 1200.26,-434.027"/>
</g>
<!-- Node36 -->
<g id="node36" class="node"><title>Node36</title>
<g id="a_node36"><a xlink:href="operand_8hpp.html" target="_top" xlink:title="Om header file.">
<polygon fill="none" stroke="black" points="1337.62,-382 1337.62,-400 1470.38,-400 1470.38,-382 1337.62,-382"/>
<text text-anchor="middle" x="1404" y="-388" font-family="Helvetica,sans-Serif" font-size="10.00">om/language/operand.hpp</text>
</a>
</g>
</g>
<!-- Node2&#45;&gt;Node36 -->
<g id="edge50" class="edge"><title>Node2&#45;&gt;Node36</title>
<path fill="none" stroke="midnightblue" d="M1232.12,-440.248C1277.49,-427.512 1339.51,-410.102 1375.31,-400.053"/>
<polygon fill="midnightblue" stroke="midnightblue" points="1231.1,-436.899 1222.41,-442.972 1232.99,-443.639 1231.1,-436.899"/>
</g>
<!-- Node4 -->
<g id="node4" class="node"><title>Node4</title>
<g id="a_node4"><a xlink:href="default__atom_8cpp.html" target="_top" xlink:title="Om source file.">
<polygon fill="none" stroke="black" points="712.688,-311 712.688,-339 819.312,-339 819.312,-311 712.688,-311"/>
<text text-anchor="start" x="720.688" y="-327" font-family="Helvetica,sans-Serif" font-size="10.00">om/language/default</text>
<text text-anchor="middle" x="766" y="-317" font-family="Helvetica,sans-Serif" font-size="10.00">_atom.cpp</text>
</a>
</g>
</g>
<!-- Node3&#45;&gt;Node4 -->
<g id="edge3" class="edge"><title>Node3&#45;&gt;Node4</title>
<path fill="none" stroke="midnightblue" d="M860.926,-372.834C836.997,-362.229 808.277,-348.834 788.653,-339.088"/>
<polygon fill="midnightblue" stroke="midnightblue" points="859.607,-376.077 870.17,-376.894 862.422,-369.668 859.607,-376.077"/>
</g>
<!-- Node5 -->
<g id="node5" class="node"><title>Node5</title>
<g id="a_node5"><a xlink:href="operator_8hpp.html" target="_top" xlink:title="Om header file.">
<polygon fill="none" stroke="black" points="837.619,-316 837.619,-334 970.381,-334 970.381,-316 837.619,-316"/>
<text text-anchor="middle" x="904" y="-322" font-family="Helvetica,sans-Serif" font-size="10.00">om/language/operator.hpp</text>
</a>
</g>
</g>
<!-- Node3&#45;&gt;Node5 -->
<g id="edge5" class="edge"><title>Node3&#45;&gt;Node5</title>
<path fill="none" stroke="midnightblue" d="M904,-366.607C904,-355.336 904,-342.527 904,-334.361"/>
<polygon fill="midnightblue" stroke="midnightblue" points="900.5,-366.739 904,-376.739 907.5,-366.739 900.5,-366.739"/>
</g>
<!-- Node31 -->
<g id="node31" class="node"><title>Node31</title>
<g id="a_node31"><a xlink:href="separator_8hpp.html" target="_top" xlink:title="Om header file.">
<polygon fill="none" stroke="black" points="1053.12,-316 1053.12,-334 1190.88,-334 1190.88,-316 1053.12,-316"/>
<text text-anchor="middle" x="1122" y="-322" font-family="Helvetica,sans-Serif" font-size="10.00">om/language/separator.hpp</text>
</a>
</g>
</g>
<!-- Node3&#45;&gt;Node31 -->
<g id="edge42" class="edge"><title>Node3&#45;&gt;Node31</title>
<path fill="none" stroke="midnightblue" d="M958.201,-374.088C1001.53,-361.366 1060.48,-344.059 1094.57,-334.053"/>
<polygon fill="midnightblue" stroke="midnightblue" points="956.987,-370.796 948.378,-376.972 958.959,-377.513 956.987,-370.796"/>
</g>
<!-- Node4&#45;&gt;Node3 -->
<g id="edge4" class="edge"><title>Node4&#45;&gt;Node3</title>
<path fill="none" stroke="midnightblue" d="M809.031,-343.147C832.954,-353.748 861.677,-367.144 881.311,-376.894"/>
<polygon fill="midnightblue" stroke="midnightblue" points="810.353,-339.905 799.79,-339.088 807.538,-346.314 810.353,-339.905"/>
</g>
<!-- Node6 -->
<g id="node6" class="node"><title>Node6</title>
<g id="a_node6"><a xlink:href="form_8hpp.html" target="_top" xlink:title="Om header file.">
<polygon fill="none" stroke="black" points="622.968,-255 622.968,-273 739.032,-273 739.032,-255 622.968,-255"/>
<text text-anchor="middle" x="681" y="-261" font-family="Helvetica,sans-Serif" font-size="10.00">om/language/form.hpp</text>
</a>
</g>
</g>
<!-- Node5&#45;&gt;Node6 -->
<g id="edge6" class="edge"><title>Node5&#45;&gt;Node6</title>
<path fill="none" stroke="midnightblue" d="M863.718,-313.343C819.959,-301.765 751.029,-283.528 711.528,-273.077"/>
<polygon fill="midnightblue" stroke="midnightblue" points="862.898,-316.746 873.46,-315.92 864.688,-309.979 862.898,-316.746"/>
</g>
<!-- Node20 -->
<g id="node20" class="node"><title>Node20</title>
<g id="a_node20"><a xlink:href="operator_8cpp.html" target="_top" xlink:title="Om source file.">
<polygon fill="none" stroke="black" points="805.899,-255 805.899,-273 938.101,-273 938.101,-255 805.899,-255"/>
<text text-anchor="middle" x="872" y="-261" font-family="Helvetica,sans-Serif" font-size="10.00">om/language/operator.cpp</text>
</a>
</g>
</g>
<!-- Node5&#45;&gt;Node20 -->
<g id="edge26" class="edge"><title>Node5&#45;&gt;Node20</title>
<path fill="none" stroke="midnightblue" d="M888.799,-307.31C881.62,-296.133 874.347,-281.912 871.582,-273.134"/>
<polygon fill="midnightblue" stroke="midnightblue" points="886.12,-309.588 894.706,-315.796 891.865,-305.589 886.12,-309.588"/>
</g>
<!-- Node21 -->
<g id="node21" class="node"><title>Node21</title>
<g id="a_node21"><a xlink:href="pair_8hpp.html" target="_top" xlink:title="Om header file.">
<polygon fill="none" stroke="black" points="955.904,-255 955.904,-273 1068.1,-273 1068.1,-255 955.904,-255"/>
<text text-anchor="middle" x="1012" y="-261" font-family="Helvetica,sans-Serif" font-size="10.00">om/language/pair.hpp</text>
</a>
</g>
</g>
<!-- Node5&#45;&gt;Node21 -->
<g id="edge28" class="edge"><title>Node5&#45;&gt;Node21</title>
<path fill="none" stroke="midnightblue" d="M928.022,-310.877C949.162,-299.328 979.276,-282.877 997.111,-273.134"/>
<polygon fill="midnightblue" stroke="midnightblue" points="926.115,-307.93 919.017,-315.796 929.471,-314.074 926.115,-307.93"/>
</g>
<!-- Node7 -->
<g id="node7" class="node"><title>Node7</title>
<g id="a_node7"><a xlink:href="expression_8hpp.html" target="_top" xlink:title="Om header file.">
<polygon fill="none" stroke="black" points="363.789,-199 363.789,-217 508.211,-217 508.211,-199 363.789,-199"/>
<text text-anchor="middle" x="436" y="-205" font-family="Helvetica,sans-Serif" font-size="10.00">om/language/expression.hpp</text>
</a>
</g>
</g>
<!-- Node6&#45;&gt;Node7 -->
<g id="edge7" class="edge"><title>Node6&#45;&gt;Node7</title>
<path fill="none" stroke="midnightblue" d="M634.657,-252.786C587.634,-242.421 515.796,-226.588 472.614,-217.07"/>
<polygon fill="midnightblue" stroke="midnightblue" points="634.067,-256.239 644.586,-254.974 635.573,-249.404 634.067,-256.239"/>
</g>
<!-- Node19 -->
<g id="node19" class="node"><title>Node19</title>
<g id="a_node19"><a xlink:href="form_8cpp.html" target="_top" xlink:title="Om source file.">
<polygon fill="none" stroke="black" points="623.249,-199 623.249,-217 738.751,-217 738.751,-199 623.249,-199"/>
<text text-anchor="middle" x="681" y="-205" font-family="Helvetica,sans-Serif" font-size="10.00">om/language/form.cpp</text>
</a>
</g>
</g>
<!-- Node6&#45;&gt;Node19 -->
<g id="edge24" class="edge"><title>Node6&#45;&gt;Node19</title>
<path fill="none" stroke="midnightblue" d="M674.567,-244.633C673.861,-235.313 674.335,-224.459 675.991,-217.201"/>
<polygon fill="midnightblue" stroke="midnightblue" points="671.103,-245.135 675.938,-254.562 678.037,-244.178 671.103,-245.135"/>
</g>
<!-- Node8 -->
<g id="node8" class="node"><title>Node8</title>
<g id="a_node8"><a xlink:href="evaluation_8hpp.html" target="_top" xlink:title="Om header file.">
<polygon fill="none" stroke="black" points="-0.827148,-138 -0.827148,-156 140.827,-156 140.827,-138 -0.827148,-138"/>
<text text-anchor="middle" x="70" y="-144" font-family="Helvetica,sans-Serif" font-size="10.00">om/language/evaluation.hpp</text>
</a>
</g>
</g>
<!-- Node7&#45;&gt;Node8 -->
<g id="edge8" class="edge"><title>Node7&#45;&gt;Node8</title>
<path fill="none" stroke="midnightblue" d="M373.139,-197.427C315.158,-188.522 226.712,-174.746 150,-162 138.734,-160.128 126.588,-158.039 115.247,-156.058"/>
<polygon fill="midnightblue" stroke="midnightblue" points="372.829,-200.92 383.244,-198.977 373.89,-194.001 372.829,-200.92"/>
</g>
<!-- Node10 -->
<g id="node10" class="node"><title>Node10</title>
<g id="a_node10"><a xlink:href="expression_8cpp.html" target="_top" xlink:title="Om source file.">
<polygon fill="none" stroke="black" points="159.069,-138 159.069,-156 302.931,-156 302.931,-138 159.069,-138"/>
<text text-anchor="middle" x="231" y="-144" font-family="Helvetica,sans-Serif" font-size="10.00">om/language/expression.cpp</text>
</a>
</g>
</g>
<!-- Node7&#45;&gt;Node10 -->
<g id="edge11" class="edge"><title>Node7&#45;&gt;Node10</title>
<path fill="none" stroke="midnightblue" d="M393.367,-196.269C351.095,-184.688 288.097,-166.506 254.248,-156.077"/>
<polygon fill="midnightblue" stroke="midnightblue" points="392.54,-199.672 403.109,-198.92 394.378,-192.917 392.54,-199.672"/>
</g>
<!-- Node11 -->
<g id="node11" class="node"><title>Node11</title>
<g id="a_node11"><a xlink:href="expression__operation_8hpp.html" target="_top" xlink:title="Om header file.">
<polygon fill="none" stroke="black" points="321.069,-133 321.069,-161 454.931,-161 454.931,-133 321.069,-133"/>
<text text-anchor="start" x="329.069" y="-149" font-family="Helvetica,sans-Serif" font-size="10.00">om/language/operation</text>
<text text-anchor="middle" x="388" y="-139" font-family="Helvetica,sans-Serif" font-size="10.00">/expression_operation.hpp</text>
</a>
</g>
</g>
<!-- Node7&#45;&gt;Node11 -->
<g id="edge13" class="edge"><title>Node7&#45;&gt;Node11</title>
<path fill="none" stroke="midnightblue" d="M422.977,-190.992C415.355,-181.624 405.852,-169.943 398.675,-161.121"/>
<polygon fill="midnightblue" stroke="midnightblue" points="420.3,-193.248 429.326,-198.796 425.73,-188.83 420.3,-193.248"/>
</g>
<!-- Node13 -->
<g id="node13" class="node"><title>Node13</title>
<g id="a_node13"><a xlink:href="fill__operation_8hpp.html" target="_top" xlink:title="Om header file.">
<polygon fill="none" stroke="black" points="472.85,-133 472.85,-161 591.15,-161 591.15,-133 472.85,-133"/>
<text text-anchor="start" x="480.85" y="-149" font-family="Helvetica,sans-Serif" font-size="10.00">om/language/operation</text>
<text text-anchor="middle" x="532" y="-139" font-family="Helvetica,sans-Serif" font-size="10.00">/fill_operation.hpp</text>
</a>
</g>
</g>
<!-- Node7&#45;&gt;Node13 -->
<g id="edge15" class="edge"><title>Node7&#45;&gt;Node13</title>
<path fill="none" stroke="midnightblue" d="M457.949,-193.51C473.759,-183.794 494.979,-170.753 510.65,-161.121"/>
<polygon fill="midnightblue" stroke="midnightblue" points="456.035,-190.578 449.348,-198.796 459.701,-196.542 456.035,-190.578"/>
</g>
<!-- Node15 -->
<g id="node15" class="node"><title>Node15</title>
<g id="a_node15"><a xlink:href="inject__operation_8hpp.html" target="_top" xlink:title="Om header file.">
<polygon fill="none" stroke="black" points="608.85,-133 608.85,-161 727.15,-161 727.15,-133 608.85,-133"/>
<text text-anchor="start" x="616.85" y="-149" font-family="Helvetica,sans-Serif" font-size="10.00">om/language/operation</text>
<text text-anchor="middle" x="668" y="-139" font-family="Helvetica,sans-Serif" font-size="10.00">/inject_operation.hpp</text>
</a>
</g>
</g>
<!-- Node7&#45;&gt;Node15 -->
<g id="edge18" class="edge"><title>Node7&#45;&gt;Node15</title>
<path fill="none" stroke="midnightblue" d="M477.721,-196.39C516.65,-186.49 574.842,-171.691 616.616,-161.067"/>
<polygon fill="midnightblue" stroke="midnightblue" points="476.601,-193.063 467.772,-198.92 478.326,-199.847 476.601,-193.063"/>
</g>
<!-- Node17 -->
<g id="node17" class="node"><title>Node17</title>
<g id="a_node17"><a xlink:href="skip__operation_8hpp.html" target="_top" xlink:title="Om header file.">
<polygon fill="none" stroke="black" points="744.85,-133 744.85,-161 863.15,-161 863.15,-133 744.85,-133"/>
<text text-anchor="start" x="752.85" y="-149" font-family="Helvetica,sans-Serif" font-size="10.00">om/language/operation</text>
<text text-anchor="middle" x="804" y="-139" font-family="Helvetica,sans-Serif" font-size="10.00">/skip_operation.hpp</text>
</a>
</g>
</g>
<!-- Node7&#45;&gt;Node17 -->
<g id="edge21" class="edge"><title>Node7&#45;&gt;Node17</title>
<path fill="none" stroke="midnightblue" d="M506.188,-197.567C567.098,-189.12 657.573,-175.945 736,-162 738.848,-161.494 741.76,-160.959 744.698,-160.406"/>
<polygon fill="midnightblue" stroke="midnightblue" points="505.348,-194.15 495.921,-198.985 506.306,-201.084 505.348,-194.15"/>
</g>
<!-- Node9 -->
<g id="node9" class="node"><title>Node9</title>
<g id="a_node9"><a xlink:href="evaluation_8cpp.html" target="_top" xlink:title="Om source file.">
<polygon fill="none" stroke="black" points="-0.546387,-72 -0.546387,-90 140.546,-90 140.546,-72 -0.546387,-72"/>
<text text-anchor="middle" x="70" y="-78" font-family="Helvetica,sans-Serif" font-size="10.00">om/language/evaluation.cpp</text>
</a>
</g>
</g>
<!-- Node8&#45;&gt;Node9 -->
<g id="edge9" class="edge"><title>Node8&#45;&gt;Node9</title>
<path fill="none" stroke="midnightblue" d="M63.84,-127.777C62.7142,-115.421 63.1996,-99.677 65.2963,-90.242"/>
<polygon fill="midnightblue" stroke="midnightblue" points="60.4099,-128.51 65.3268,-137.894 67.3355,-127.492 60.4099,-128.51"/>
</g>
<!-- Node9&#45;&gt;Node8 -->
<g id="edge10" class="edge"><title>Node9&#45;&gt;Node8</title>
<path fill="none" stroke="midnightblue" d="M76.1763,-100.402C77.2865,-112.791 76.7855,-128.52 74.6732,-137.894"/>
<polygon fill="midnightblue" stroke="midnightblue" points="79.6019,-99.6365 74.7037,-90.242 72.6743,-100.641 79.6019,-99.6365"/>
</g>
<!-- Node10&#45;&gt;Node7 -->
<g id="edge12" class="edge"><title>Node10&#45;&gt;Node7</title>
<path fill="none" stroke="midnightblue" d="M273.62,-158.727C315.888,-170.307 378.887,-188.489 412.742,-198.92"/>
<polygon fill="midnightblue" stroke="midnightblue" points="274.448,-155.325 263.88,-156.077 272.61,-162.08 274.448,-155.325"/>
</g>
<!-- Node12 -->
<g id="node12" class="node"><title>Node12</title>
<g id="a_node12"><a xlink:href="expression__operation_8cpp.html" target="_top" xlink:title="Om source file.">
<polygon fill="none" stroke="black" points="321.35,-67 321.35,-95 454.65,-95 454.65,-67 321.35,-67"/>
<text text-anchor="start" x="329.35" y="-83" font-family="Helvetica,sans-Serif" font-size="10.00">om/language/operation</text>
<text text-anchor="middle" x="388" y="-73" font-family="Helvetica,sans-Serif" font-size="10.00">/expression_operation.cpp</text>
</a>
</g>
</g>
<!-- Node11&#45;&gt;Node12 -->
<g id="edge14" class="edge"><title>Node11&#45;&gt;Node12</title>
<path fill="none" stroke="midnightblue" d="M388,-122.595C388,-113.379 388,-103.135 388,-95.2439"/>
<polygon fill="midnightblue" stroke="midnightblue" points="384.5,-122.739 388,-132.739 391.5,-122.739 384.5,-122.739"/>
</g>
<!-- Node14 -->
<g id="node14" class="node"><title>Node14</title>
<g id="a_node14"><a xlink:href="fill__operation_8cpp.html" target="_top" xlink:title="Om source file.">
<polygon fill="none" stroke="black" points="472.85,-67 472.85,-95 591.15,-95 591.15,-67 472.85,-67"/>
<text text-anchor="start" x="480.85" y="-83" font-family="Helvetica,sans-Serif" font-size="10.00">om/language/operation</text>
<text text-anchor="middle" x="532" y="-73" font-family="Helvetica,sans-Serif" font-size="10.00">/fill_operation.cpp</text>
</a>
</g>
</g>
<!-- Node13&#45;&gt;Node14 -->
<g id="edge16" class="edge"><title>Node13&#45;&gt;Node14</title>
<path fill="none" stroke="midnightblue" d="M525.471,-122.595C524.986,-113.379 525.299,-103.135 526.41,-95.2439"/>
<polygon fill="midnightblue" stroke="midnightblue" points="522.003,-123.103 526.407,-132.739 528.974,-122.46 522.003,-123.103"/>
</g>
<!-- Node14&#45;&gt;Node13 -->
<g id="edge17" class="edge"><title>Node14&#45;&gt;Node13</title>
<path fill="none" stroke="midnightblue" d="M538.528,-105.386C539.014,-114.6 538.702,-124.844 537.593,-132.739"/>
<polygon fill="midnightblue" stroke="midnightblue" points="541.996,-104.879 537.59,-95.2439 535.026,-105.524 541.996,-104.879"/>
</g>
<!-- Node16 -->
<g id="node16" class="node"><title>Node16</title>
<g id="a_node16"><a xlink:href="inject__operation_8cpp.html" target="_top" xlink:title="Om source file.">
<polygon fill="none" stroke="black" points="608.85,-67 608.85,-95 727.15,-95 727.15,-67 608.85,-67"/>
<text text-anchor="start" x="616.85" y="-83" font-family="Helvetica,sans-Serif" font-size="10.00">om/language/operation</text>
<text text-anchor="middle" x="668" y="-73" font-family="Helvetica,sans-Serif" font-size="10.00">/inject_operation.cpp</text>
</a>
</g>
</g>
<!-- Node15&#45;&gt;Node16 -->
<g id="edge19" class="edge"><title>Node15&#45;&gt;Node16</title>
<path fill="none" stroke="midnightblue" d="M661.471,-122.595C660.986,-113.379 661.299,-103.135 662.41,-95.2439"/>
<polygon fill="midnightblue" stroke="midnightblue" points="658.003,-123.103 662.407,-132.739 664.974,-122.46 658.003,-123.103"/>
</g>
<!-- Node16&#45;&gt;Node15 -->
<g id="edge20" class="edge"><title>Node16&#45;&gt;Node15</title>
<path fill="none" stroke="midnightblue" d="M674.528,-105.386C675.014,-114.6 674.702,-124.844 673.593,-132.739"/>
<polygon fill="midnightblue" stroke="midnightblue" points="677.996,-104.879 673.59,-95.2439 671.026,-105.524 677.996,-104.879"/>
</g>
<!-- Node18 -->
<g id="node18" class="node"><title>Node18</title>
<g id="a_node18"><a xlink:href="skip__operation_8cpp.html" target="_top" xlink:title="Om source file.">
<polygon fill="none" stroke="black" points="744.85,-67 744.85,-95 863.15,-95 863.15,-67 744.85,-67"/>
<text text-anchor="start" x="752.85" y="-83" font-family="Helvetica,sans-Serif" font-size="10.00">om/language/operation</text>
<text text-anchor="middle" x="804" y="-73" font-family="Helvetica,sans-Serif" font-size="10.00">/skip_operation.cpp</text>
</a>
</g>
</g>
<!-- Node17&#45;&gt;Node18 -->
<g id="edge22" class="edge"><title>Node17&#45;&gt;Node18</title>
<path fill="none" stroke="midnightblue" d="M797.471,-122.595C796.986,-113.379 797.299,-103.135 798.41,-95.2439"/>
<polygon fill="midnightblue" stroke="midnightblue" points="794.003,-123.103 798.407,-132.739 800.974,-122.46 794.003,-123.103"/>
</g>
<!-- Node18&#45;&gt;Node17 -->
<g id="edge23" class="edge"><title>Node18&#45;&gt;Node17</title>
<path fill="none" stroke="midnightblue" d="M810.528,-105.386C811.014,-114.6 810.702,-124.844 809.593,-132.739"/>
<polygon fill="midnightblue" stroke="midnightblue" points="813.996,-104.879 809.59,-95.2439 807.026,-105.524 813.996,-104.879"/>
</g>
<!-- Node19&#45;&gt;Node6 -->
<g id="edge25" class="edge"><title>Node19&#45;&gt;Node6</title>
<path fill="none" stroke="midnightblue" d="M687.434,-227.369C688.132,-236.588 687.675,-247.308 686.062,-254.562"/>
<polygon fill="midnightblue" stroke="midnightblue" points="690.863,-226.619 686.009,-217.201 683.931,-227.59 690.863,-226.619"/>
</g>
<!-- Node20&#45;&gt;Node5 -->
<g id="edge27" class="edge"><title>Node20&#45;&gt;Node5</title>
<path fill="none" stroke="midnightblue" d="M887.144,-281.601C894.323,-292.762 901.608,-306.99 904.396,-315.796"/>
<polygon fill="midnightblue" stroke="midnightblue" points="889.831,-279.335 881.241,-273.134 884.089,-283.339 889.831,-279.335"/>
</g>
<!-- Node22 -->
<g id="node22" class="node"><title>Node22</title>
<g id="a_node22"><a xlink:href="lexicon_8hpp.html" target="_top" xlink:title="Om header file.">
<polygon fill="none" stroke="black" points="880.404,-199 880.404,-217 1007.6,-217 1007.6,-199 880.404,-199"/>
<text text-anchor="middle" x="944" y="-205" font-family="Helvetica,sans-Serif" font-size="10.00">om/language/lexicon.hpp</text>
</a>
</g>
</g>
<!-- Node21&#45;&gt;Node22 -->
<g id="edge29" class="edge"><title>Node21&#45;&gt;Node22</title>
<path fill="none" stroke="midnightblue" d="M993.665,-248.44C981.086,-238.451 964.846,-225.554 954.425,-217.279"/>
<polygon fill="midnightblue" stroke="midnightblue" points="991.665,-251.321 1001.67,-254.799 996.018,-245.839 991.665,-251.321"/>
</g>
<!-- Node30 -->
<g id="node30" class="node"><title>Node30</title>
<g id="a_node30"><a xlink:href="pair_8cpp.html" target="_top" xlink:title="Om source file.">
<polygon fill="none" stroke="black" points="1025.19,-199 1025.19,-217 1136.81,-217 1136.81,-199 1025.19,-199"/>
<text text-anchor="middle" x="1081" y="-205" font-family="Helvetica,sans-Serif" font-size="10.00">om/language/pair.cpp</text>
</a>
</g>
</g>
<!-- Node21&#45;&gt;Node30 -->
<g id="edge40" class="edge"><title>Node21&#45;&gt;Node30</title>
<path fill="none" stroke="midnightblue" d="M1025.21,-247.86C1036.89,-237.852 1053.53,-225.132 1065.78,-217.026"/>
<polygon fill="midnightblue" stroke="midnightblue" points="1022.84,-245.287 1017.72,-254.562 1027.51,-250.504 1022.84,-245.287"/>
</g>
<!-- Node23 -->
<g id="node23" class="node"><title>Node23</title>
<g id="a_node23"><a xlink:href="lexicon_8cpp.html" target="_top" xlink:title="Om source file.">
<polygon fill="none" stroke="black" points="880.685,-138 880.685,-156 1007.31,-156 1007.31,-138 880.685,-138"/>
<text text-anchor="middle" x="944" y="-144" font-family="Helvetica,sans-Serif" font-size="10.00">om/language/lexicon.cpp</text>
</a>
</g>
</g>
<!-- Node22&#45;&gt;Node23 -->
<g id="edge30" class="edge"><title>Node22&#45;&gt;Node23</title>
<path fill="none" stroke="midnightblue" d="M937.695,-188.612C936.782,-177.725 937.274,-164.473 939.171,-156.134"/>
<polygon fill="midnightblue" stroke="midnightblue" points="934.271,-189.394 939.155,-198.796 941.2,-188.401 934.271,-189.394"/>
</g>
<!-- Node24 -->
<g id="node24" class="node"><title>Node24</title>
<g id="a_node24"><a xlink:href="lexicon__operation_8hpp.html" target="_top" xlink:title="Om header file.">
<polygon fill="none" stroke="black" points="1024.85,-133 1024.85,-161 1143.15,-161 1143.15,-133 1024.85,-133"/>
<text text-anchor="start" x="1032.85" y="-149" font-family="Helvetica,sans-Serif" font-size="10.00">om/language/operation</text>
<text text-anchor="middle" x="1084" y="-139" font-family="Helvetica,sans-Serif" font-size="10.00">/lexicon_operation.hpp</text>
</a>
</g>
</g>
<!-- Node22&#45;&gt;Node24 -->
<g id="edge32" class="edge"><title>Node22&#45;&gt;Node24</title>
<path fill="none" stroke="midnightblue" d="M972.55,-194.968C995.934,-185.114 1028.96,-171.194 1052.99,-161.067"/>
<polygon fill="midnightblue" stroke="midnightblue" points="971.029,-191.811 963.173,-198.92 973.747,-198.262 971.029,-191.811"/>
</g>
<!-- Node26 -->
<g id="node26" class="node"><title>Node26</title>
<g id="a_node26"><a xlink:href="translate__operation_8hpp.html" target="_top" xlink:title="Om header file.">
<polygon fill="none" stroke="black" points="1198.07,-133 1198.07,-161 1321.93,-161 1321.93,-133 1198.07,-133"/>
<text text-anchor="start" x="1206.07" y="-149" font-family="Helvetica,sans-Serif" font-size="10.00">om/language/operation</text>
<text text-anchor="middle" x="1260" y="-139" font-family="Helvetica,sans-Serif" font-size="10.00">/translate_operation.hpp</text>
</a>
</g>
</g>
<!-- Node22&#45;&gt;Node26 -->
<g id="edge34" class="edge"><title>Node22&#45;&gt;Node26</title>
<path fill="none" stroke="midnightblue" d="M996.908,-197.122C1052.3,-186.78 1139.21,-170.552 1197.84,-159.606"/>
<polygon fill="midnightblue" stroke="midnightblue" points="996.134,-193.706 986.946,-198.982 997.419,-200.587 996.134,-193.706"/>
</g>
<!-- Node23&#45;&gt;Node22 -->
<g id="edge31" class="edge"><title>Node23&#45;&gt;Node22</title>
<path fill="none" stroke="midnightblue" d="M950.297,-166.297C951.218,-177.171 950.734,-190.43 948.845,-198.796"/>
<polygon fill="midnightblue" stroke="midnightblue" points="953.723,-165.531 948.829,-156.134 946.795,-166.532 953.723,-165.531"/>
</g>
<!-- Node25 -->
<g id="node25" class="node"><title>Node25</title>
<g id="a_node25"><a xlink:href="lexicon__operation_8cpp.html" target="_top" xlink:title="Om source file.">
<polygon fill="none" stroke="black" points="952.85,-67 952.85,-95 1071.15,-95 1071.15,-67 952.85,-67"/>
<text text-anchor="start" x="960.85" y="-83" font-family="Helvetica,sans-Serif" font-size="10.00">om/language/operation</text>
<text text-anchor="middle" x="1012" y="-73" font-family="Helvetica,sans-Serif" font-size="10.00">/lexicon_operation.cpp</text>
</a>
</g>
</g>
<!-- Node24&#45;&gt;Node25 -->
<g id="edge33" class="edge"><title>Node24&#45;&gt;Node25</title>
<path fill="none" stroke="midnightblue" d="M1061.33,-125.851C1050.09,-115.862 1036.84,-104.079 1026.9,-95.2439"/>
<polygon fill="midnightblue" stroke="midnightblue" points="1059.28,-128.711 1069.08,-132.739 1063.93,-123.48 1059.28,-128.711"/>
</g>
<!-- Node27 -->
<g id="node27" class="node"><title>Node27</title>
<g id="a_node27"><a xlink:href="substitute__operation_8hpp.html" target="_top" xlink:title="Om header file.">
<polygon fill="none" stroke="black" points="1088.85,-67 1088.85,-95 1217.15,-95 1217.15,-67 1088.85,-67"/>
<text text-anchor="start" x="1096.85" y="-83" font-family="Helvetica,sans-Serif" font-size="10.00">om/language/operation</text>
<text text-anchor="middle" x="1153" y="-73" font-family="Helvetica,sans-Serif" font-size="10.00">/substitute_operation.hpp</text>
</a>
</g>
</g>
<!-- Node26&#45;&gt;Node27 -->
<g id="edge35" class="edge"><title>Node26&#45;&gt;Node27</title>
<path fill="none" stroke="midnightblue" d="M1229.4,-127.697C1211.99,-117.286 1190.6,-104.489 1174.88,-95.0883"/>
<polygon fill="midnightblue" stroke="midnightblue" points="1227.71,-130.765 1238.09,-132.894 1231.3,-124.757 1227.71,-130.765"/>
</g>
<!-- Node29 -->
<g id="node29" class="node"><title>Node29</title>
<g id="a_node29"><a xlink:href="translate__operation_8cpp.html" target="_top" xlink:title="Om source file.">
<polygon fill="none" stroke="black" points="1235.35,-67 1235.35,-95 1358.65,-95 1358.65,-67 1235.35,-67"/>
<text text-anchor="start" x="1243.35" y="-83" font-family="Helvetica,sans-Serif" font-size="10.00">om/language/operation</text>
<text text-anchor="middle" x="1297" y="-73" font-family="Helvetica,sans-Serif" font-size="10.00">/translate_operation.cpp</text>
</a>
</g>
</g>
<!-- Node26&#45;&gt;Node29 -->
<g id="edge38" class="edge"><title>Node26&#45;&gt;Node29</title>
<path fill="none" stroke="midnightblue" d="M1266.53,-123.493C1271.44,-114.049 1277.9,-103.393 1283.75,-95.2439"/>
<polygon fill="midnightblue" stroke="midnightblue" points="1263.27,-122.212 1262.07,-132.739 1269.57,-125.252 1263.27,-122.212"/>
</g>
<!-- Node28 -->
<g id="node28" class="node"><title>Node28</title>
<g id="a_node28"><a xlink:href="substitute__operation_8cpp.html" target="_top" xlink:title="Om source file.">
<polygon fill="none" stroke="black" points="1089.13,-1 1089.13,-29 1216.87,-29 1216.87,-1 1089.13,-1"/>
<text text-anchor="start" x="1097.13" y="-17" font-family="Helvetica,sans-Serif" font-size="10.00">om/language/operation</text>
<text text-anchor="middle" x="1153" y="-7" font-family="Helvetica,sans-Serif" font-size="10.00">/substitute_operation.cpp</text>
</a>
</g>
</g>
<!-- Node27&#45;&gt;Node28 -->
<g id="edge36" class="edge"><title>Node27&#45;&gt;Node28</title>
<path fill="none" stroke="midnightblue" d="M1146.47,-56.5946C1145.99,-47.3785 1146.3,-37.1352 1147.41,-29.2439"/>
<polygon fill="midnightblue" stroke="midnightblue" points="1143,-57.1031 1147.41,-66.7392 1149.97,-56.4598 1143,-57.1031"/>
</g>
<!-- Node28&#45;&gt;Node27 -->
<g id="edge37" class="edge"><title>Node28&#45;&gt;Node27</title>
<path fill="none" stroke="midnightblue" d="M1159.53,-39.3855C1160.01,-48.6002 1159.7,-58.8444 1158.59,-66.7392"/>
<polygon fill="midnightblue" stroke="midnightblue" points="1163,-38.8792 1158.59,-29.2439 1156.03,-39.5236 1163,-38.8792"/>
</g>
<!-- Node29&#45;&gt;Node26 -->
<g id="edge39" class="edge"><title>Node29&#45;&gt;Node26</title>
<path fill="none" stroke="midnightblue" d="M1290.48,-104.488C1285.57,-113.93 1279.12,-124.587 1273.26,-132.739"/>
<polygon fill="midnightblue" stroke="midnightblue" points="1293.74,-105.772 1294.93,-95.2439 1287.44,-102.732 1293.74,-105.772"/>
</g>
<!-- Node30&#45;&gt;Node21 -->
<g id="edge41" class="edge"><title>Node30&#45;&gt;Node21</title>
<path fill="none" stroke="midnightblue" d="M1067.68,-224.234C1056.09,-234.155 1039.67,-246.711 1027.49,-254.799"/>
<polygon fill="midnightblue" stroke="midnightblue" points="1070.33,-226.556 1075.45,-217.279 1065.66,-221.341 1070.33,-226.556"/>
</g>
<!-- Node32 -->
<g id="node32" class="node"><title>Node32</title>
<g id="a_node32"><a xlink:href="separator_8cpp.html" target="_top" xlink:title="Om source file.">
<polygon fill="none" stroke="black" points="1086.4,-255 1086.4,-273 1223.6,-273 1223.6,-255 1086.4,-255"/>
<text text-anchor="middle" x="1155" y="-261" font-family="Helvetica,sans-Serif" font-size="10.00">om/language/separator.cpp</text>
</a>
</g>
</g>
<!-- Node31&#45;&gt;Node32 -->
<g id="edge43" class="edge"><title>Node31&#45;&gt;Node32</title>
<path fill="none" stroke="midnightblue" d="M1125.66,-306.296C1130.82,-295.285 1138.92,-281.648 1145.62,-273.134"/>
<polygon fill="midnightblue" stroke="midnightblue" points="1122.32,-305.217 1121.74,-315.796 1128.79,-307.883 1122.32,-305.217"/>
</g>
<!-- Node32&#45;&gt;Node31 -->
<g id="edge44" class="edge"><title>Node32&#45;&gt;Node31</title>
<path fill="none" stroke="midnightblue" d="M1151.39,-282.614C1146.24,-293.611 1138.14,-307.254 1131.43,-315.796"/>
<polygon fill="midnightblue" stroke="midnightblue" points="1154.72,-283.714 1155.28,-273.134 1148.24,-281.054 1154.72,-283.714"/>
</g>
<!-- Node33&#45;&gt;Node2 -->
<g id="edge46" class="edge"><title>Node33&#45;&gt;Node2</title>
<path fill="none" stroke="midnightblue" d="M1156.58,-413.597C1163.1,-423.254 1169.57,-434.33 1173.51,-442.739"/>
<polygon fill="midnightblue" stroke="midnightblue" points="1159.3,-411.377 1150.66,-405.244 1153.59,-415.426 1159.3,-411.377"/>
</g>
<!-- Node35 -->
<g id="node35" class="node"><title>Node35</title>
<g id="a_node35"><a xlink:href="null_8cpp.html" target="_top" xlink:title="Om source file.">
<polygon fill="none" stroke="black" points="1208.47,-316 1208.47,-334 1319.53,-334 1319.53,-316 1208.47,-316"/>
<text text-anchor="middle" x="1264" y="-322" font-family="Helvetica,sans-Serif" font-size="10.00">om/language/null.cpp</text>
</a>
</g>
</g>
<!-- Node34&#45;&gt;Node35 -->
<g id="edge48" class="edge"><title>Node34&#45;&gt;Node35</title>
<path fill="none" stroke="midnightblue" d="M1257.84,-371.777C1256.71,-359.421 1257.2,-343.677 1259.3,-334.242"/>
<polygon fill="midnightblue" stroke="midnightblue" points="1254.41,-372.51 1259.33,-381.894 1261.34,-371.492 1254.41,-372.51"/>
</g>
<!-- Node35&#45;&gt;Node34 -->
<g id="edge49" class="edge"><title>Node35&#45;&gt;Node34</title>
<path fill="none" stroke="midnightblue" d="M1270.18,-344.402C1271.29,-356.791 1270.79,-372.52 1268.67,-381.894"/>
<polygon fill="midnightblue" stroke="midnightblue" points="1273.6,-343.637 1268.7,-334.242 1266.67,-344.641 1273.6,-343.637"/>
</g>
<!-- Node37 -->
<g id="node37" class="node"><title>Node37</title>
<g id="a_node37"><a xlink:href="operand_8cpp.html" target="_top" xlink:title="Om source file.">
<polygon fill="none" stroke="black" points="1337.9,-316 1337.9,-334 1470.1,-334 1470.1,-316 1337.9,-316"/>
<text text-anchor="middle" x="1404" y="-322" font-family="Helvetica,sans-Serif" font-size="10.00">om/language/operand.cpp</text>
</a>
</g>
</g>
<!-- Node36&#45;&gt;Node37 -->
<g id="edge51" class="edge"><title>Node36&#45;&gt;Node37</title>
<path fill="none" stroke="midnightblue" d="M1397.84,-371.777C1396.71,-359.421 1397.2,-343.677 1399.3,-334.242"/>
<polygon fill="midnightblue" stroke="midnightblue" points="1394.41,-372.51 1399.33,-381.894 1401.34,-371.492 1394.41,-372.51"/>
</g>
<!-- Node37&#45;&gt;Node36 -->
<g id="edge52" class="edge"><title>Node37&#45;&gt;Node36</title>
<path fill="none" stroke="midnightblue" d="M1410.18,-344.402C1411.29,-356.791 1410.79,-372.52 1408.67,-381.894"/>
<polygon fill="midnightblue" stroke="midnightblue" points="1413.6,-343.637 1408.7,-334.242 1406.67,-344.641 1413.6,-343.637"/>
</g>
<!-- Node38&#45;&gt;Node1 -->
<g id="edge54" class="edge"><title>Node38&#45;&gt;Node1</title>
<path fill="none" stroke="midnightblue" d="M1384.53,-481.386C1385.01,-490.6 1384.7,-500.844 1383.59,-508.739"/>
<polygon fill="midnightblue" stroke="midnightblue" points="1388,-480.879 1383.59,-471.244 1381.03,-481.524 1388,-480.879"/>
</g>
<!-- Node40 -->
<g id="node40" class="node"><title>Node40</title>
<g id="a_node40"><a xlink:href="literal_8cpp.html" target="_top" xlink:title="Om source file.">
<polygon fill="none" stroke="black" points="1488.3,-382 1488.3,-400 1607.7,-400 1607.7,-382 1488.3,-382"/>
<text text-anchor="middle" x="1548" y="-388" font-family="Helvetica,sans-Serif" font-size="10.00">om/language/literal.cpp</text>
</a>
</g>
</g>
<!-- Node39&#45;&gt;Node40 -->
<g id="edge56" class="edge"><title>Node39&#45;&gt;Node40</title>
<path fill="none" stroke="midnightblue" d="M1541.84,-437.777C1540.71,-425.421 1541.2,-409.677 1543.3,-400.242"/>
<polygon fill="midnightblue" stroke="midnightblue" points="1538.41,-438.51 1543.33,-447.894 1545.34,-437.492 1538.41,-438.51"/>
</g>
<!-- Node40&#45;&gt;Node39 -->
<g id="edge57" class="edge"><title>Node40&#45;&gt;Node39</title>
<path fill="none" stroke="midnightblue" d="M1554.18,-410.402C1555.29,-422.791 1554.79,-438.52 1552.67,-447.894"/>
<polygon fill="midnightblue" stroke="midnightblue" points="1557.6,-409.637 1552.7,-400.242 1550.67,-410.641 1557.6,-409.637"/>
</g>
</g>
</svg>
