<?xml version="1.0" encoding="UTF-8" standalone="no"?>
<!DOCTYPE svg PUBLIC "-//W3C//DTD SVG 1.1//EN"
 "http://www.w3.org/Graphics/SVG/1.1/DTD/svg11.dtd">
<!-- Generated by graphviz version 2.36.0 (20140111.2315)
 -->
<!-- Title: om/default_giveable.hpp Pages: 1 -->
<svg width="646pt" height="252pt"
 viewBox="0.00 0.00 646.00 252.00" xmlns="http://www.w3.org/2000/svg" xmlns:xlink="http://www.w3.org/1999/xlink">
<g id="graph0" class="graph" transform="scale(1 1) rotate(0) translate(4 248)">
<title>om/default_giveable.hpp</title>
<!-- Node1 -->
<g id="node1" class="node"><title>Node1</title>
<g id="a_node1"><a xlink:title="Om header file.">
<polygon fill="#bfbfbf" stroke="black" points="369.515,-225 369.515,-243 494.485,-243 494.485,-225 369.515,-225"/>
<text text-anchor="middle" x="432" y="-231" font-family="Helvetica,sans-Serif" font-size="10.00">om/default_giveable.hpp</text>
</a>
</g>
</g>
<!-- Node2 -->
<g id="node2" class="node"><title>Node2</title>
<g id="a_node2"><a xlink:href="default__copyable_8hpp.html" target="_top" xlink:title="Om header file.">
<polygon fill="none" stroke="black" points="368.126,-169 368.126,-187 495.874,-187 495.874,-169 368.126,-169"/>
<text text-anchor="middle" x="432" y="-175" font-family="Helvetica,sans-Serif" font-size="10.00">om/default_copyable.hpp</text>
</a>
</g>
</g>
<!-- Node1&#45;&gt;Node2 -->
<g id="edge1" class="edge"><title>Node1&#45;&gt;Node2</title>
<path fill="none" stroke="midnightblue" d="M432,-224.562C432,-217.308 432,-206.588 432,-197.369"/>
<polygon fill="midnightblue" stroke="midnightblue" points="435.5,-197.201 432,-187.201 428.5,-197.201 435.5,-197.201"/>
</g>
<!-- Node7 -->
<g id="node7" class="node"><title>Node7</title>
<g id="a_node7"><a xlink:href="default__moveable_8hpp.html" target="_top" xlink:title="Om header file.">
<polygon fill="none" stroke="black" points="219.461,-169 219.461,-187 350.539,-187 350.539,-169 219.461,-169"/>
<text text-anchor="middle" x="285" y="-175" font-family="Helvetica,sans-Serif" font-size="10.00">om/default_moveable.hpp</text>
</a>
</g>
</g>
<!-- Node1&#45;&gt;Node7 -->
<g id="edge8" class="edge"><title>Node1&#45;&gt;Node7</title>
<path fill="none" stroke="midnightblue" d="M409.993,-224.916C385.203,-215.809 344.708,-200.934 316.555,-190.592"/>
<polygon fill="midnightblue" stroke="midnightblue" points="317.751,-187.303 307.158,-187.14 315.338,-193.873 317.751,-187.303"/>
</g>
<!-- Node13 -->
<g id="node13" class="node"><title>Node13</title>
<g id="a_node13"><a xlink:href="giveable_8hpp.html" target="_top" xlink:title="Om header file.">
<polygon fill="none" stroke="black" points="109.308,-169 109.308,-187 198.692,-187 198.692,-169 109.308,-169"/>
<text text-anchor="middle" x="154" y="-175" font-family="Helvetica,sans-Serif" font-size="10.00">om/giveable.hpp</text>
</a>
</g>
</g>
<!-- Node1&#45;&gt;Node13 -->
<g id="edge17" class="edge"><title>Node1&#45;&gt;Node13</title>
<path fill="none" stroke="midnightblue" d="M390.681,-224.974C341.373,-215.396 258.907,-199.378 205.494,-189.003"/>
<polygon fill="midnightblue" stroke="midnightblue" points="206.03,-185.541 195.546,-187.07 204.695,-192.413 206.03,-185.541"/>
</g>
<!-- Node15 -->
<g id="node15" class="node"><title>Node15</title>
<g id="a_node15"><a xlink:href="default__giveable_8cpp.html" target="_top" xlink:title="Om source file.">
<polygon fill="none" stroke="black" points="513.796,-169 513.796,-187 638.204,-187 638.204,-169 513.796,-169"/>
<text text-anchor="middle" x="576" y="-175" font-family="Helvetica,sans-Serif" font-size="10.00">om/default_giveable.cpp</text>
</a>
</g>
</g>
<!-- Node1&#45;&gt;Node15 -->
<g id="edge22" class="edge"><title>Node1&#45;&gt;Node15</title>
<path fill="none" stroke="midnightblue" d="M448.576,-224.916C470.916,-215.743 510.772,-200.717 540.066,-190.367"/>
<polygon fill="midnightblue" stroke="midnightblue" points="541.269,-193.654 549.555,-187.051 538.96,-187.046 541.269,-193.654"/>
</g>
<!-- Node3 -->
<g id="node3" class="node"><title>Node3</title>
<g id="a_node3"><a xlink:href="copyable_8hpp.html" target="_top" xlink:title="Om header file.">
<polygon fill="none" stroke="black" points="367.919,-113 367.919,-131 460.081,-131 460.081,-113 367.919,-113"/>
<text text-anchor="middle" x="414" y="-119" font-family="Helvetica,sans-Serif" font-size="10.00">om/copyable.hpp</text>
</a>
</g>
</g>
<!-- Node2&#45;&gt;Node3 -->
<g id="edge2" class="edge"><title>Node2&#45;&gt;Node3</title>
<path fill="none" stroke="midnightblue" d="M429.188,-168.562C426.716,-161.149 423.038,-150.115 419.921,-140.763"/>
<polygon fill="midnightblue" stroke="midnightblue" points="423.217,-139.581 416.734,-131.201 416.576,-141.795 423.217,-139.581"/>
</g>
<!-- Node6 -->
<g id="node6" class="node"><title>Node6</title>
<g id="a_node6"><a xlink:href="default__copyable_8cpp.html" target="_top" xlink:title="Om source file.">
<polygon fill="none" stroke="black" points="478.407,-113 478.407,-131 605.593,-131 605.593,-113 478.407,-113"/>
<text text-anchor="middle" x="542" y="-119" font-family="Helvetica,sans-Serif" font-size="10.00">om/default_copyable.cpp</text>
</a>
</g>
</g>
<!-- Node2&#45;&gt;Node6 -->
<g id="edge6" class="edge"><title>Node2&#45;&gt;Node6</title>
<path fill="none" stroke="midnightblue" d="M443.697,-168.799C459.856,-159.866 488.904,-145.484 511.351,-135.22"/>
<polygon fill="midnightblue" stroke="midnightblue" points="512.825,-138.395 520.51,-131.102 509.954,-132.011 512.825,-138.395"/>
</g>
<!-- Node4 -->
<g id="node4" class="node"><title>Node4</title>
<g id="a_node4"><a xlink:title=" ">
<polygon fill="none" stroke="#bfbfbf" points="258.943,-57 258.943,-75 311.057,-75 311.057,-57 258.943,-57"/>
<text text-anchor="middle" x="285" y="-63" font-family="Helvetica,sans-Serif" font-size="10.00">memory</text>
</a>
</g>
</g>
<!-- Node3&#45;&gt;Node4 -->
<g id="edge3" class="edge"><title>Node3&#45;&gt;Node4</title>
<path fill="none" stroke="midnightblue" d="M394.687,-112.916C373.313,-103.968 338.634,-89.4516 313.996,-79.1378"/>
<polygon fill="midnightblue" stroke="midnightblue" points="315.021,-75.7725 304.445,-75.1396 312.318,-82.2296 315.021,-75.7725"/>
</g>
<!-- Node5 -->
<g id="node5" class="node"><title>Node5</title>
<g id="a_node5"><a xlink:href="copyable_8cpp.html" target="_top" xlink:title="Om source file.">
<polygon fill="none" stroke="black" points="368.2,-57 368.2,-75 459.8,-75 459.8,-57 368.2,-57"/>
<text text-anchor="middle" x="414" y="-63" font-family="Helvetica,sans-Serif" font-size="10.00">om/copyable.cpp</text>
</a>
</g>
</g>
<!-- Node3&#45;&gt;Node5 -->
<g id="edge4" class="edge"><title>Node3&#45;&gt;Node5</title>
<path fill="none" stroke="midnightblue" d="M408.938,-112.562C407.325,-105.308 406.868,-94.5884 407.566,-85.3691"/>
<polygon fill="midnightblue" stroke="midnightblue" points="411.069,-85.5903 408.991,-75.2014 404.137,-84.6192 411.069,-85.5903"/>
</g>
<!-- Node5&#45;&gt;Node3 -->
<g id="edge5" class="edge"><title>Node5&#45;&gt;Node3</title>
<path fill="none" stroke="midnightblue" d="M419.009,-75.2014C420.665,-82.4586 421.139,-93.3129 420.433,-102.633"/>
<polygon fill="midnightblue" stroke="midnightblue" points="416.963,-102.178 419.062,-112.562 423.897,-103.135 416.963,-102.178"/>
</g>
<!-- Node6&#45;&gt;Node2 -->
<g id="edge7" class="edge"><title>Node6&#45;&gt;Node2</title>
<path fill="none" stroke="midnightblue" d="M530.415,-131.14C514.274,-140.07 485.132,-154.5 462.63,-164.788"/>
<polygon fill="midnightblue" stroke="midnightblue" points="461.136,-161.623 453.451,-168.916 464.006,-168.007 461.136,-161.623"/>
</g>
<!-- Node8 -->
<g id="node8" class="node"><title>Node8</title>
<g id="a_node8"><a xlink:href="moveable_8hpp.html" target="_top" xlink:title="Om header file.">
<polygon fill="none" stroke="black" points="106.254,-113 106.254,-131 201.746,-131 201.746,-113 106.254,-113"/>
<text text-anchor="middle" x="154" y="-119" font-family="Helvetica,sans-Serif" font-size="10.00">om/moveable.hpp</text>
</a>
</g>
</g>
<!-- Node7&#45;&gt;Node8 -->
<g id="edge9" class="edge"><title>Node7&#45;&gt;Node8</title>
<path fill="none" stroke="midnightblue" d="M265.388,-168.916C243.586,-159.929 208.153,-145.322 183.112,-135"/>
<polygon fill="midnightblue" stroke="midnightblue" points="184.325,-131.715 173.746,-131.14 181.658,-138.187 184.325,-131.715"/>
</g>
<!-- Node12 -->
<g id="node12" class="node"><title>Node12</title>
<g id="a_node12"><a xlink:href="default__moveable_8cpp.html" target="_top" xlink:title="Om source file.">
<polygon fill="none" stroke="black" points="219.742,-113 219.742,-131 350.258,-131 350.258,-113 219.742,-113"/>
<text text-anchor="middle" x="285" y="-119" font-family="Helvetica,sans-Serif" font-size="10.00">om/default_moveable.cpp</text>
</a>
</g>
</g>
<!-- Node7&#45;&gt;Node12 -->
<g id="edge15" class="edge"><title>Node7&#45;&gt;Node12</title>
<path fill="none" stroke="midnightblue" d="M279.938,-168.562C278.325,-161.308 277.868,-150.588 278.566,-141.369"/>
<polygon fill="midnightblue" stroke="midnightblue" points="282.069,-141.59 279.991,-131.201 275.137,-140.619 282.069,-141.59"/>
</g>
<!-- Node8&#45;&gt;Node4 -->
<g id="edge10" class="edge"><title>Node8&#45;&gt;Node4</title>
<path fill="none" stroke="midnightblue" d="M173.612,-112.916C195.414,-103.929 230.847,-89.3225 255.888,-79.0005"/>
<polygon fill="midnightblue" stroke="midnightblue" points="257.342,-82.1866 265.254,-75.1396 254.675,-75.7149 257.342,-82.1866"/>
</g>
<!-- Node9 -->
<g id="node9" class="node"><title>Node9</title>
<g id="a_node9"><a xlink:href="moveable_8cpp.html" target="_top" xlink:title="Om source file.">
<polygon fill="none" stroke="black" points="106.535,-57 106.535,-75 201.465,-75 201.465,-57 106.535,-57"/>
<text text-anchor="middle" x="154" y="-63" font-family="Helvetica,sans-Serif" font-size="10.00">om/moveable.cpp</text>
</a>
</g>
</g>
<!-- Node8&#45;&gt;Node9 -->
<g id="edge11" class="edge"><title>Node8&#45;&gt;Node9</title>
<path fill="none" stroke="midnightblue" d="M148.938,-112.562C147.325,-105.308 146.868,-94.5884 147.566,-85.3691"/>
<polygon fill="midnightblue" stroke="midnightblue" points="151.069,-85.5903 148.991,-75.2014 144.137,-84.6192 151.069,-85.5903"/>
</g>
<!-- Node9&#45;&gt;Node8 -->
<g id="edge14" class="edge"><title>Node9&#45;&gt;Node8</title>
<path fill="none" stroke="midnightblue" d="M159.009,-75.2014C160.665,-82.4586 161.139,-93.3129 160.433,-102.633"/>
<polygon fill="midnightblue" stroke="midnightblue" points="156.963,-102.178 159.062,-112.562 163.897,-103.135 156.963,-102.178"/>
</g>
<!-- Node10 -->
<g id="node10" class="node"><title>Node10</title>
<g id="a_node10"><a xlink:title=" ">
<polygon fill="none" stroke="#bfbfbf" points="93.8843,-1 93.8843,-19 142.116,-19 142.116,-1 93.8843,-1"/>
<text text-anchor="middle" x="118" y="-7" font-family="Helvetica,sans-Serif" font-size="10.00">cassert</text>
</a>
</g>
</g>
<!-- Node9&#45;&gt;Node10 -->
<g id="edge12" class="edge"><title>Node9&#45;&gt;Node10</title>
<path fill="none" stroke="midnightblue" d="M148.375,-56.5625C143.22,-48.8297 135.44,-37.1597 129.044,-27.5665"/>
<polygon fill="midnightblue" stroke="midnightblue" points="131.927,-25.5805 123.468,-19.2014 126.102,-29.4634 131.927,-25.5805"/>
</g>
<!-- Node11 -->
<g id="node11" class="node"><title>Node11</title>
<g id="a_node11"><a xlink:title=" ">
<polygon fill="none" stroke="#bfbfbf" points="160.599,-1 160.599,-19 219.401,-19 219.401,-1 160.599,-1"/>
<text text-anchor="middle" x="190" y="-7" font-family="Helvetica,sans-Serif" font-size="10.00">stdexcept</text>
</a>
</g>
</g>
<!-- Node9&#45;&gt;Node11 -->
<g id="edge13" class="edge"><title>Node9&#45;&gt;Node11</title>
<path fill="none" stroke="midnightblue" d="M159.625,-56.5625C164.78,-48.8297 172.56,-37.1597 178.956,-27.5665"/>
<polygon fill="midnightblue" stroke="midnightblue" points="181.898,-29.4634 184.532,-19.2014 176.073,-25.5805 181.898,-29.4634"/>
</g>
<!-- Node12&#45;&gt;Node7 -->
<g id="edge16" class="edge"><title>Node12&#45;&gt;Node7</title>
<path fill="none" stroke="midnightblue" d="M290.009,-131.201C291.665,-138.459 292.139,-149.313 291.433,-158.633"/>
<polygon fill="midnightblue" stroke="midnightblue" points="287.963,-158.178 290.062,-168.562 294.897,-159.135 287.963,-158.178"/>
</g>
<!-- Node13&#45;&gt;Node3 -->
<g id="edge18" class="edge"><title>Node13&#45;&gt;Node3</title>
<path fill="none" stroke="midnightblue" d="M192.644,-168.974C238.567,-159.436 315.245,-143.511 365.215,-133.132"/>
<polygon fill="midnightblue" stroke="midnightblue" points="366.065,-136.531 375.144,-131.07 364.641,-129.677 366.065,-136.531"/>
</g>
<!-- Node13&#45;&gt;Node8 -->
<g id="edge19" class="edge"><title>Node13&#45;&gt;Node8</title>
<path fill="none" stroke="midnightblue" d="M154,-168.562C154,-161.308 154,-150.588 154,-141.369"/>
<polygon fill="midnightblue" stroke="midnightblue" points="157.5,-141.201 154,-131.201 150.5,-141.201 157.5,-141.201"/>
</g>
<!-- Node14 -->
<g id="node14" class="node"><title>Node14</title>
<g id="a_node14"><a xlink:href="giveable_8cpp.html" target="_top" xlink:title="Om source file.">
<polygon fill="none" stroke="black" points="-0.411133,-113 -0.411133,-131 88.4111,-131 88.4111,-113 -0.411133,-113"/>
<text text-anchor="middle" x="44" y="-119" font-family="Helvetica,sans-Serif" font-size="10.00">om/giveable.cpp</text>
</a>
</g>
</g>
<!-- Node13&#45;&gt;Node14 -->
<g id="edge20" class="edge"><title>Node13&#45;&gt;Node14</title>
<path fill="none" stroke="midnightblue" d="M132.549,-168.916C112.797,-160.207 84.0149,-146.222 64.5594,-135.972"/>
<polygon fill="midnightblue" stroke="midnightblue" points="66.0496,-132.799 55.5855,-131.14 62.7309,-138.962 66.0496,-132.799"/>
</g>
<!-- Node14&#45;&gt;Node13 -->
<g id="edge21" class="edge"><title>Node14&#45;&gt;Node13</title>
<path fill="none" stroke="midnightblue" d="M65.4899,-131.102C85.2033,-139.795 113.888,-153.731 133.328,-163.969"/>
<polygon fill="midnightblue" stroke="midnightblue" points="131.838,-167.142 142.303,-168.799 135.155,-160.978 131.838,-167.142"/>
</g>
<!-- Node15&#45;&gt;Node1 -->
<g id="edge23" class="edge"><title>Node15&#45;&gt;Node1</title>
<path fill="none" stroke="midnightblue" d="M559.29,-187.14C536.943,-196.309 497.239,-211.277 468.011,-221.606"/>
<polygon fill="midnightblue" stroke="midnightblue" points="466.826,-218.312 458.541,-224.916 469.136,-224.92 466.826,-218.312"/>
</g>
</g>
</svg>
