<?xml version="1.0" encoding="UTF-8" standalone="no"?>
<!DOCTYPE svg PUBLIC "-//W3C//DTD SVG 1.1//EN"
 "http://www.w3.org/Graphics/SVG/1.1/DTD/svg11.dtd">
<!-- Generated by graphviz version 2.36.0 (20140111.2315)
 -->
<!-- Title: om/default_consumer.cpp Pages: 1 -->
<svg width="1186pt" height="496pt"
 viewBox="0.00 0.00 1186.00 496.00" xmlns="http://www.w3.org/2000/svg" xmlns:xlink="http://www.w3.org/1999/xlink">
<g id="graph0" class="graph" transform="scale(1 1) rotate(0) translate(4 492)">
<title>om/default_consumer.cpp</title>
<!-- Node1 -->
<g id="node1" class="node"><title>Node1</title>
<polygon fill="#bfbfbf" stroke="black" points="872.742,-469 872.742,-487 1003.26,-487 1003.26,-469 872.742,-469"/>
<text text-anchor="middle" x="938" y="-475" font-family="Helvetica,sans-Serif" font-size="10.00">om/default_consumer.cpp</text>
</g>
<!-- Node2 -->
<g id="node2" class="node"><title>Node2</title>
<g id="a_node2"><a xlink:href="producer_8hpp.html" target="_top" xlink:title="Om header file. ">
<polygon fill="none" stroke="black" points="986.473,-128 986.473,-146 1077.53,-146 1077.53,-128 986.473,-128"/>
<text text-anchor="middle" x="1032" y="-134" font-family="Helvetica,sans-Serif" font-size="10.00">om/producer.hpp</text>
</a>
</g>
</g>
<!-- Node1&#45;&gt;Node2 -->
<g id="edge1" class="edge"><title>Node1&#45;&gt;Node2</title>
<path fill="none" stroke="midnightblue" d="M1003.26,-474.27C1074.33,-467.381 1178,-444.117 1178,-367 1178,-367 1178,-367 1178,-253 1178,-197.921 1113.08,-165.163 1069.82,-149.449"/>
<polygon fill="midnightblue" stroke="midnightblue" points="1070.75,-146.064 1060.15,-146.085 1068.45,-152.675 1070.75,-146.064"/>
</g>
<!-- Node7 -->
<g id="node7" class="node"><title>Node7</title>
<g id="a_node7"><a xlink:href="default__consumer_8hpp.html" target="_top" xlink:title="Om header file. ">
<polygon fill="none" stroke="black" points="872.461,-413 872.461,-431 1003.54,-431 1003.54,-413 872.461,-413"/>
<text text-anchor="middle" x="938" y="-419" font-family="Helvetica,sans-Serif" font-size="10.00">om/default_consumer.hpp</text>
</a>
</g>
</g>
<!-- Node1&#45;&gt;Node7 -->
<g id="edge7" class="edge"><title>Node1&#45;&gt;Node7</title>
<path fill="none" stroke="midnightblue" d="M932.938,-468.562C931.325,-461.308 930.868,-450.588 931.566,-441.369"/>
<polygon fill="midnightblue" stroke="midnightblue" points="935.069,-441.59 932.991,-431.201 928.137,-440.619 935.069,-441.59"/>
</g>
<!-- Node3 -->
<g id="node3" class="node"><title>Node3</title>
<polygon fill="none" stroke="#bfbfbf" points="1059.94,-67 1059.94,-85 1112.06,-85 1112.06,-67 1059.94,-67"/>
<text text-anchor="middle" x="1086" y="-73" font-family="Helvetica,sans-Serif" font-size="10.00">memory</text>
</g>
<!-- Node2&#45;&gt;Node3 -->
<g id="edge2" class="edge"><title>Node2&#45;&gt;Node3</title>
<path fill="none" stroke="midnightblue" d="M1039.51,-127.796C1047.81,-118.726 1061.38,-103.904 1071.72,-92.6054"/>
<polygon fill="midnightblue" stroke="midnightblue" points="1074.39,-94.8738 1078.56,-85.134 1069.22,-90.1477 1074.39,-94.8738"/>
</g>
<!-- Node4 -->
<g id="node4" class="node"><title>Node4</title>
<g id="a_node4"><a xlink:href="producer_8cpp.html" target="_top" xlink:title="Om source file. ">
<polygon fill="none" stroke="black" points="951.754,-67 951.754,-85 1042.25,-85 1042.25,-67 951.754,-67"/>
<text text-anchor="middle" x="997" y="-73" font-family="Helvetica,sans-Serif" font-size="10.00">om/producer.cpp</text>
</a>
</g>
</g>
<!-- Node2&#45;&gt;Node4 -->
<g id="edge3" class="edge"><title>Node2&#45;&gt;Node4</title>
<path fill="none" stroke="midnightblue" d="M1022.29,-127.796C1015.29,-119.254 1006.73,-105.611 1001.21,-94.6138"/>
<polygon fill="midnightblue" stroke="midnightblue" points="1004.26,-92.8492 996.996,-85.134 997.861,-95.6935 1004.26,-92.8492"/>
</g>
<!-- Node4&#45;&gt;Node2 -->
<g id="edge6" class="edge"><title>Node4&#45;&gt;Node2</title>
<path fill="none" stroke="midnightblue" d="M1006.65,-85.134C1013.71,-93.7361 1022.38,-107.567 1027.91,-118.636"/>
<polygon fill="midnightblue" stroke="midnightblue" points="1024.72,-120.075 1031.98,-127.796 1031.12,-117.236 1024.72,-120.075"/>
</g>
<!-- Node5 -->
<g id="node5" class="node"><title>Node5</title>
<polygon fill="none" stroke="#bfbfbf" points="852.884,-6 852.884,-24 901.116,-24 901.116,-6 852.884,-6"/>
<text text-anchor="middle" x="877" y="-12" font-family="Helvetica,sans-Serif" font-size="10.00">cassert</text>
</g>
<!-- Node4&#45;&gt;Node5 -->
<g id="edge4" class="edge"><title>Node4&#45;&gt;Node5</title>
<path fill="none" stroke="midnightblue" d="M980.315,-66.7963C960.164,-56.8892 926.058,-40.1204 902.579,-28.5764"/>
<polygon fill="midnightblue" stroke="midnightblue" points="904.062,-25.4054 893.544,-24.134 900.973,-31.6872 904.062,-25.4054"/>
</g>
<!-- Node6 -->
<g id="node6" class="node"><title>Node6</title>
<polygon fill="none" stroke="#bfbfbf" points="967.599,-6 967.599,-24 1026.4,-24 1026.4,-6 967.599,-6"/>
<text text-anchor="middle" x="997" y="-12" font-family="Helvetica,sans-Serif" font-size="10.00">stdexcept</text>
</g>
<!-- Node4&#45;&gt;Node6 -->
<g id="edge5" class="edge"><title>Node4&#45;&gt;Node6</title>
<path fill="none" stroke="midnightblue" d="M997,-66.7963C997,-58.4303 997,-45.1713 997,-34.2974"/>
<polygon fill="midnightblue" stroke="midnightblue" points="1000.5,-34.134 997,-24.134 993.5,-34.1341 1000.5,-34.134"/>
</g>
<!-- Node7&#45;&gt;Node1 -->
<g id="edge34" class="edge"><title>Node7&#45;&gt;Node1</title>
<path fill="none" stroke="midnightblue" d="M943.009,-431.201C944.665,-438.459 945.139,-449.313 944.433,-458.633"/>
<polygon fill="midnightblue" stroke="midnightblue" points="940.963,-458.178 943.062,-468.562 947.897,-459.135 940.963,-458.178"/>
</g>
<!-- Node8 -->
<g id="node8" class="node"><title>Node8</title>
<g id="a_node8"><a xlink:href="consumer_8hpp.html" target="_top" xlink:title="Om header file. ">
<polygon fill="none" stroke="black" points="817.254,-357 817.254,-375 912.746,-375 912.746,-357 817.254,-357"/>
<text text-anchor="middle" x="865" y="-363" font-family="Helvetica,sans-Serif" font-size="10.00">om/consumer.hpp</text>
</a>
</g>
</g>
<!-- Node7&#45;&gt;Node8 -->
<g id="edge8" class="edge"><title>Node7&#45;&gt;Node8</title>
<path fill="none" stroke="midnightblue" d="M926.913,-412.799C915.658,-404.473 898.002,-391.413 884.42,-381.366"/>
<polygon fill="midnightblue" stroke="midnightblue" points="886.312,-378.412 876.191,-375.279 882.149,-384.039 886.312,-378.412"/>
</g>
<!-- Node9 -->
<g id="node9" class="node"><title>Node9</title>
<g id="a_node9"><a xlink:href="consumer_8cpp.html" target="_top" xlink:title="Om source file. ">
<polygon fill="none" stroke="black" points="817.535,-301 817.535,-319 912.465,-319 912.465,-301 817.535,-301"/>
<text text-anchor="middle" x="865" y="-307" font-family="Helvetica,sans-Serif" font-size="10.00">om/consumer.cpp</text>
</a>
</g>
</g>
<!-- Node8&#45;&gt;Node9 -->
<g id="edge9" class="edge"><title>Node8&#45;&gt;Node9</title>
<path fill="none" stroke="midnightblue" d="M859.938,-356.562C858.325,-349.308 857.868,-338.588 858.566,-329.369"/>
<polygon fill="midnightblue" stroke="midnightblue" points="862.069,-329.59 859.991,-319.201 855.137,-328.619 862.069,-329.59"/>
</g>
<!-- Node9&#45;&gt;Node5 -->
<g id="edge31" class="edge"><title>Node9&#45;&gt;Node5</title>
<path fill="none" stroke="midnightblue" d="M854.541,-300.853C834.356,-284.123 792,-243.694 792,-199 792,-199 792,-199 792,-136 792,-103.763 792.964,-92.7193 811,-66 821.424,-50.5573 838.21,-37.9352 852.245,-29.2359"/>
<polygon fill="midnightblue" stroke="midnightblue" points="854.134,-32.1853 860.976,-24.0955 850.583,-26.1531 854.134,-32.1853"/>
</g>
<!-- Node9&#45;&gt;Node6 -->
<g id="edge32" class="edge"><title>Node9&#45;&gt;Node6</title>
<path fill="none" stroke="midnightblue" d="M908.575,-300.947C986.117,-285.363 1140,-248.235 1140,-199 1140,-199 1140,-199 1140,-136 1140,-103.763 1142.41,-90.1019 1121,-66 1099.34,-41.6091 1064.08,-28.9294 1036.69,-22.4534"/>
<polygon fill="midnightblue" stroke="midnightblue" points="1037.14,-18.969 1026.63,-20.2636 1035.65,-25.8091 1037.14,-18.969"/>
</g>
<!-- Node9&#45;&gt;Node8 -->
<g id="edge33" class="edge"><title>Node9&#45;&gt;Node8</title>
<path fill="none" stroke="midnightblue" d="M870.009,-319.201C871.665,-326.459 872.139,-337.313 871.433,-346.633"/>
<polygon fill="midnightblue" stroke="midnightblue" points="867.963,-346.178 870.062,-356.562 874.897,-347.135 867.963,-346.178"/>
</g>
<!-- Node10 -->
<g id="node10" class="node"><title>Node10</title>
<g id="a_node10"><a xlink:href="reader_8hpp.html" target="_top" xlink:title="Om header file. ">
<polygon fill="none" stroke="black" points="373.754,-245 373.754,-263 454.246,-263 454.246,-245 373.754,-245"/>
<text text-anchor="middle" x="414" y="-251" font-family="Helvetica,sans-Serif" font-size="10.00">om/reader.hpp</text>
</a>
</g>
</g>
<!-- Node9&#45;&gt;Node10 -->
<g id="edge10" class="edge"><title>Node9&#45;&gt;Node10</title>
<path fill="none" stroke="midnightblue" d="M817.162,-303.272C731.353,-292.998 552.074,-271.532 464.425,-261.038"/>
<polygon fill="midnightblue" stroke="midnightblue" points="464.801,-257.558 454.456,-259.844 463.969,-264.508 464.801,-257.558"/>
</g>
<!-- Node11 -->
<g id="node11" class="node"><title>Node11</title>
<g id="a_node11"><a xlink:href="code__point_8hpp.html" target="_top" xlink:title="Om header file. ">
<polygon fill="none" stroke="black" points="97.4683,-189 97.4683,-207 198.532,-207 198.532,-189 97.4683,-189"/>
<text text-anchor="middle" x="148" y="-195" font-family="Helvetica,sans-Serif" font-size="10.00">om/code_point.hpp</text>
</a>
</g>
</g>
<!-- Node10&#45;&gt;Node11 -->
<g id="edge11" class="edge"><title>Node10&#45;&gt;Node11</title>
<path fill="none" stroke="midnightblue" d="M374.464,-244.974C327.383,-235.416 248.706,-219.444 197.591,-209.067"/>
<polygon fill="midnightblue" stroke="midnightblue" points="198.249,-205.63 187.753,-207.07 196.856,-212.49 198.249,-205.63"/>
</g>
<!-- Node13 -->
<g id="node13" class="node"><title>Node13</title>
<g id="a_node13"><a xlink:href="default__source_8hpp.html" target="_top" xlink:title="Om header file. ">
<polygon fill="none" stroke="black" points="613.737,-189 613.737,-207 764.263,-207 764.263,-189 613.737,-189"/>
<text text-anchor="middle" x="689" y="-195" font-family="Helvetica,sans-Serif" font-size="10.00">om/source/default_source.hpp</text>
</a>
</g>
</g>
<!-- Node10&#45;&gt;Node13 -->
<g id="edge13" class="edge"><title>Node10&#45;&gt;Node13</title>
<path fill="none" stroke="midnightblue" d="M454.282,-245.09C503.056,-235.513 585.243,-219.374 638.286,-208.958"/>
<polygon fill="midnightblue" stroke="midnightblue" points="639.023,-212.381 648.161,-207.019 637.674,-205.512 639.023,-212.381"/>
</g>
<!-- Node18 -->
<g id="node18" class="node"><title>Node18</title>
<g id="a_node18"><a xlink:href="reader_8cpp.html" target="_top" xlink:title="Om source file. ">
<polygon fill="none" stroke="black" points="374.035,-189 374.035,-207 453.965,-207 453.965,-189 374.035,-189"/>
<text text-anchor="middle" x="414" y="-195" font-family="Helvetica,sans-Serif" font-size="10.00">om/reader.cpp</text>
</a>
</g>
</g>
<!-- Node10&#45;&gt;Node18 -->
<g id="edge22" class="edge"><title>Node10&#45;&gt;Node18</title>
<path fill="none" stroke="midnightblue" d="M408.938,-244.562C407.325,-237.308 406.868,-226.588 407.566,-217.369"/>
<polygon fill="midnightblue" stroke="midnightblue" points="411.069,-217.59 408.991,-207.201 404.137,-216.619 411.069,-217.59"/>
</g>
<!-- Node12 -->
<g id="node12" class="node"><title>Node12</title>
<polygon fill="none" stroke="#bfbfbf" points="-0.364258,-128 -0.364258,-146 102.364,-146 102.364,-128 -0.364258,-128"/>
<text text-anchor="middle" x="51" y="-134" font-family="Helvetica,sans-Serif" font-size="10.00">boost/locale/utf.hpp</text>
</g>
<!-- Node11&#45;&gt;Node12 -->
<g id="edge12" class="edge"><title>Node11&#45;&gt;Node12</title>
<path fill="none" stroke="midnightblue" d="M134.513,-188.796C118.587,-179.109 91.8753,-162.862 72.9542,-151.354"/>
<polygon fill="midnightblue" stroke="midnightblue" points="74.7354,-148.34 64.3729,-146.134 71.0977,-154.321 74.7354,-148.34"/>
</g>
<!-- Node14 -->
<g id="node14" class="node"><title>Node14</title>
<g id="a_node14"><a xlink:href="source_2source_8hpp.html" target="_top" xlink:title="Om header file. ">
<polygon fill="none" stroke="black" points="819.53,-128 819.53,-146 934.47,-146 934.47,-128 819.53,-128"/>
<text text-anchor="middle" x="877" y="-134" font-family="Helvetica,sans-Serif" font-size="10.00">om/source/source.hpp</text>
</a>
</g>
</g>
<!-- Node13&#45;&gt;Node14 -->
<g id="edge14" class="edge"><title>Node13&#45;&gt;Node14</title>
<path fill="none" stroke="midnightblue" d="M714.746,-188.92C747.562,-178.621 804.457,-160.766 841.407,-149.17"/>
<polygon fill="midnightblue" stroke="midnightblue" points="842.77,-152.411 851.264,-146.077 840.674,-145.732 842.77,-152.411"/>
</g>
<!-- Node16 -->
<g id="node16" class="node"><title>Node16</title>
<polygon fill="none" stroke="#bfbfbf" points="548.438,-128 548.438,-146 595.562,-146 595.562,-128 548.438,-128"/>
<text text-anchor="middle" x="572" y="-134" font-family="Helvetica,sans-Serif" font-size="10.00">iterator</text>
</g>
<!-- Node13&#45;&gt;Node16 -->
<g id="edge19" class="edge"><title>Node13&#45;&gt;Node16</title>
<path fill="none" stroke="midnightblue" d="M672.732,-188.796C653.173,-178.933 620.127,-162.269 597.245,-150.731"/>
<polygon fill="midnightblue" stroke="midnightblue" points="598.635,-147.512 588.13,-146.134 595.483,-153.762 598.635,-147.512"/>
</g>
<!-- Node17 -->
<g id="node17" class="node"><title>Node17</title>
<g id="a_node17"><a xlink:href="default__source_8cpp.html" target="_top" xlink:title="Om source file. ">
<polygon fill="none" stroke="black" points="614.018,-128 614.018,-146 763.982,-146 763.982,-128 614.018,-128"/>
<text text-anchor="middle" x="689" y="-134" font-family="Helvetica,sans-Serif" font-size="10.00">om/source/default_source.cpp</text>
</a>
</g>
</g>
<!-- Node13&#45;&gt;Node17 -->
<g id="edge20" class="edge"><title>Node13&#45;&gt;Node17</title>
<path fill="none" stroke="midnightblue" d="M684.155,-188.796C682.266,-180.43 681.782,-167.171 682.703,-156.297"/>
<polygon fill="midnightblue" stroke="midnightblue" points="686.205,-156.532 684.171,-146.134 679.277,-155.531 686.205,-156.532"/>
</g>
<!-- Node15 -->
<g id="node15" class="node"><title>Node15</title>
<g id="a_node15"><a xlink:href="source_2source_8cpp.html" target="_top" xlink:title="Om source file. ">
<polygon fill="none" stroke="black" points="819.811,-67 819.811,-85 934.189,-85 934.189,-67 819.811,-67"/>
<text text-anchor="middle" x="877" y="-73" font-family="Helvetica,sans-Serif" font-size="10.00">om/source/source.cpp</text>
</a>
</g>
</g>
<!-- Node14&#45;&gt;Node15 -->
<g id="edge15" class="edge"><title>Node14&#45;&gt;Node15</title>
<path fill="none" stroke="midnightblue" d="M872.155,-127.796C870.266,-119.43 869.782,-106.171 870.703,-95.2974"/>
<polygon fill="midnightblue" stroke="midnightblue" points="874.205,-95.5317 872.171,-85.134 867.277,-94.5308 874.205,-95.5317"/>
</g>
<!-- Node15&#45;&gt;Node5 -->
<g id="edge16" class="edge"><title>Node15&#45;&gt;Node5</title>
<path fill="none" stroke="midnightblue" d="M877,-66.7963C877,-58.4303 877,-45.1713 877,-34.2974"/>
<polygon fill="midnightblue" stroke="midnightblue" points="880.5,-34.134 877,-24.134 873.5,-34.1341 880.5,-34.134"/>
</g>
<!-- Node15&#45;&gt;Node6 -->
<g id="edge17" class="edge"><title>Node15&#45;&gt;Node6</title>
<path fill="none" stroke="midnightblue" d="M893.685,-66.7963C913.836,-56.8892 947.942,-40.1204 971.421,-28.5764"/>
<polygon fill="midnightblue" stroke="midnightblue" points="973.027,-31.6872 980.456,-24.134 969.938,-25.4054 973.027,-31.6872"/>
</g>
<!-- Node15&#45;&gt;Node14 -->
<g id="edge18" class="edge"><title>Node15&#45;&gt;Node14</title>
<path fill="none" stroke="midnightblue" d="M881.829,-85.134C883.726,-93.4728 884.218,-106.725 883.305,-117.612"/>
<polygon fill="midnightblue" stroke="midnightblue" points="879.8,-117.401 881.845,-127.796 886.729,-118.394 879.8,-117.401"/>
</g>
<!-- Node17&#45;&gt;Node13 -->
<g id="edge21" class="edge"><title>Node17&#45;&gt;Node13</title>
<path fill="none" stroke="midnightblue" d="M693.829,-146.134C695.726,-154.473 696.218,-167.725 695.305,-178.612"/>
<polygon fill="midnightblue" stroke="midnightblue" points="691.8,-178.401 693.845,-188.796 698.729,-179.394 691.8,-178.401"/>
</g>
<!-- Node18&#45;&gt;Node10 -->
<g id="edge30" class="edge"><title>Node18&#45;&gt;Node10</title>
<path fill="none" stroke="midnightblue" d="M419.009,-207.201C420.665,-214.459 421.139,-225.313 420.433,-234.633"/>
<polygon fill="midnightblue" stroke="midnightblue" points="416.963,-234.178 419.062,-244.562 423.897,-235.135 416.963,-234.178"/>
</g>
<!-- Node19 -->
<g id="node19" class="node"><title>Node19</title>
<g id="a_node19"><a xlink:href="operand__symbol_8hpp.html" target="_top" xlink:title="Om header file. ">
<polygon fill="none" stroke="black" points="120.739,-128 120.739,-146 281.261,-146 281.261,-128 120.739,-128"/>
<text text-anchor="middle" x="201" y="-134" font-family="Helvetica,sans-Serif" font-size="10.00">om/symbol/operand_symbol.hpp</text>
</a>
</g>
</g>
<!-- Node18&#45;&gt;Node19 -->
<g id="edge23" class="edge"><title>Node18&#45;&gt;Node19</title>
<path fill="none" stroke="midnightblue" d="M384.83,-188.92C347.253,-178.511 281.809,-160.384 239.992,-148.801"/>
<polygon fill="midnightblue" stroke="midnightblue" points="240.73,-145.373 230.159,-146.077 238.862,-152.119 240.73,-145.373"/>
</g>
<!-- Node22 -->
<g id="node22" class="node"><title>Node22</title>
<g id="a_node22"><a xlink:href="operator__symbol_8hpp.html" target="_top" xlink:title="Om header file. ">
<polygon fill="none" stroke="black" points="298.815,-123 298.815,-151 403.185,-151 403.185,-123 298.815,-123"/>
<text text-anchor="start" x="306.815" y="-139" font-family="Helvetica,sans-Serif" font-size="10.00">om/symbol/operator</text>
<text text-anchor="middle" x="351" y="-129" font-family="Helvetica,sans-Serif" font-size="10.00">_symbol.hpp</text>
</a>
</g>
</g>
<!-- Node18&#45;&gt;Node22 -->
<g id="edge26" class="edge"><title>Node18&#45;&gt;Node22</title>
<path fill="none" stroke="midnightblue" d="M405.24,-188.796C396.779,-180.873 383.631,-168.56 372.4,-158.041"/>
<polygon fill="midnightblue" stroke="midnightblue" points="374.703,-155.402 365.011,-151.121 369.918,-160.512 374.703,-155.402"/>
</g>
<!-- Node23 -->
<g id="node23" class="node"><title>Node23</title>
<g id="a_node23"><a xlink:href="separator__symbol_8hpp.html" target="_top" xlink:title="Om header file. ">
<polygon fill="none" stroke="black" points="421.315,-123 421.315,-151 530.685,-151 530.685,-123 421.315,-123"/>
<text text-anchor="start" x="429.315" y="-139" font-family="Helvetica,sans-Serif" font-size="10.00">om/symbol/separator</text>
<text text-anchor="middle" x="476" y="-129" font-family="Helvetica,sans-Serif" font-size="10.00">_symbol.hpp</text>
</a>
</g>
</g>
<!-- Node18&#45;&gt;Node23 -->
<g id="edge28" class="edge"><title>Node18&#45;&gt;Node23</title>
<path fill="none" stroke="midnightblue" d="M422.621,-188.796C430.947,-180.873 443.887,-168.56 454.94,-158.041"/>
<polygon fill="midnightblue" stroke="midnightblue" points="457.38,-160.551 462.211,-151.121 452.554,-155.48 457.38,-160.551"/>
</g>
<!-- Node20 -->
<g id="node20" class="node"><title>Node20</title>
<g id="a_node20"><a xlink:href="macro_8hpp.html" target="_top" xlink:title="Om header file. ">
<polygon fill="none" stroke="black" points="311.042,-67 311.042,-85 390.958,-85 390.958,-67 311.042,-67"/>
<text text-anchor="middle" x="351" y="-73" font-family="Helvetica,sans-Serif" font-size="10.00">om/macro.hpp</text>
</a>
</g>
</g>
<!-- Node19&#45;&gt;Node20 -->
<g id="edge24" class="edge"><title>Node19&#45;&gt;Node20</title>
<path fill="none" stroke="midnightblue" d="M221.542,-127.92C247.206,-117.826 291.325,-100.472 320.828,-88.8678"/>
<polygon fill="midnightblue" stroke="midnightblue" points="322.2,-92.0893 330.224,-85.1717 319.637,-85.5751 322.2,-92.0893"/>
</g>
<!-- Node21 -->
<g id="node21" class="node"><title>Node21</title>
<polygon fill="none" stroke="#bfbfbf" points="300.2,-1 300.2,-29 401.8,-29 401.8,-1 300.2,-1"/>
<text text-anchor="start" x="308.2" y="-17" font-family="Helvetica,sans-Serif" font-size="10.00">boost/preprocessor</text>
<text text-anchor="middle" x="351" y="-7" font-family="Helvetica,sans-Serif" font-size="10.00">/stringize.hpp</text>
</g>
<!-- Node20&#45;&gt;Node21 -->
<g id="edge25" class="edge"><title>Node20&#45;&gt;Node21</title>
<path fill="none" stroke="midnightblue" d="M351,-66.7963C351,-59.7107 351,-49.1152 351,-39.4315"/>
<polygon fill="midnightblue" stroke="midnightblue" points="354.5,-39.1215 351,-29.1215 347.5,-39.1215 354.5,-39.1215"/>
</g>
<!-- Node22&#45;&gt;Node20 -->
<g id="edge27" class="edge"><title>Node22&#45;&gt;Node20</title>
<path fill="none" stroke="midnightblue" d="M351,-122.906C351,-114.79 351,-104.245 351,-95.3086"/>
<polygon fill="midnightblue" stroke="midnightblue" points="354.5,-95.1533 351,-85.1534 347.5,-95.1534 354.5,-95.1533"/>
</g>
<!-- Node23&#45;&gt;Node20 -->
<g id="edge29" class="edge"><title>Node23&#45;&gt;Node20</title>
<path fill="none" stroke="midnightblue" d="M448.258,-122.906C427.147,-112.941 398.278,-99.3151 377.483,-89.5001"/>
<polygon fill="midnightblue" stroke="midnightblue" points="378.811,-86.2567 368.274,-85.1534 375.823,-92.587 378.811,-86.2567"/>
</g>
</g>
</svg>
