<?xml version="1.0" encoding="UTF-8" standalone="no"?>
<!DOCTYPE svg PUBLIC "-//W3C//DTD SVG 1.1//EN"
 "http://www.w3.org/Graphics/SVG/1.1/DTD/svg11.dtd">
<!-- Generated by graphviz version 2.34.0 (20130907.0228)
 -->
<!-- Title: om/default_element.cpp Pages: 1 -->
<svg width="1280pt" height="576pt"
 viewBox="0.00 0.00 1280.00 576.00" xmlns="http://www.w3.org/2000/svg" xmlns:xlink="http://www.w3.org/1999/xlink">
<g id="graph0" class="graph" transform="scale(1 1) rotate(0) translate(4 572)">
<title>om/default_element.cpp</title>
<!-- Node1 -->
<g id="node1" class="node"><title>Node1</title>
<polygon fill="#bfbfbf" stroke="black" points="875.633,-547 875.633,-567 998.367,-567 998.367,-547 875.633,-547"/>
<text text-anchor="middle" x="937" y="-553" font-family="Helvetica,sans-Serif" font-size="10.00">om/default_element.cpp</text>
</g>
<!-- Node2 -->
<g id="node2" class="node"><title>Node2</title>
<g id="a_node2"><a xlink:href="singleton__source_8hpp.html" target="_top" xlink:title="Om header file. ">
<polygon fill="none" stroke="black" points="1093.25,-477 1093.25,-509 1198.75,-509 1198.75,-477 1093.25,-477"/>
<text text-anchor="start" x="1101.25" y="-495" font-family="Helvetica,sans-Serif" font-size="10.00">om/source/singleton</text>
<text text-anchor="middle" x="1146" y="-483" font-family="Helvetica,sans-Serif" font-size="10.00">_source.hpp</text>
</a>
</g>
</g>
<!-- Node1&#45;&gt;Node2 -->
<g id="edge1" class="edge"><title>Node1&#45;&gt;Node2</title>
<path fill="none" stroke="midnightblue" d="M967.39,-546.985C998.284,-537.82 1046.98,-523.374 1085.73,-511.88"/>
<polygon fill="midnightblue" stroke="midnightblue" points="1086.76,-515.225 1095.35,-509.026 1084.77,-508.514 1086.76,-515.225"/>
</g>
<!-- Node11 -->
<g id="node11" class="node"><title>Node11</title>
<g id="a_node11"><a xlink:href="default__element_8hpp.html" target="_top" xlink:title="Om header file. ">
<polygon fill="none" stroke="black" points="875.353,-483 875.353,-503 998.647,-503 998.647,-483 875.353,-483"/>
<text text-anchor="middle" x="937" y="-489" font-family="Helvetica,sans-Serif" font-size="10.00">om/default_element.hpp</text>
</a>
</g>
</g>
<!-- Node1&#45;&gt;Node11 -->
<g id="edge13" class="edge"><title>Node1&#45;&gt;Node11</title>
<path fill="none" stroke="midnightblue" d="M932.045,-546.852C930.252,-538.06 929.802,-524.498 930.696,-513.313"/>
<polygon fill="midnightblue" stroke="midnightblue" points="934.194,-513.559 932.037,-503.186 927.254,-512.64 934.194,-513.559"/>
</g>
<!-- Node3 -->
<g id="node3" class="node"><title>Node3</title>
<g id="a_node3"><a xlink:href="default__source_8hpp.html" target="_top" xlink:title="Om header file. ">
<polygon fill="none" stroke="black" points="997.737,-413 997.737,-433 1148.26,-433 1148.26,-413 997.737,-413"/>
<text text-anchor="middle" x="1073" y="-419" font-family="Helvetica,sans-Serif" font-size="10.00">om/source/default_source.hpp</text>
</a>
</g>
</g>
<!-- Node2&#45;&gt;Node3 -->
<g id="edge2" class="edge"><title>Node2&#45;&gt;Node3</title>
<path fill="none" stroke="midnightblue" d="M1129.8,-476.909C1118.06,-465.972 1102.21,-451.209 1090.24,-440.057"/>
<polygon fill="midnightblue" stroke="midnightblue" points="1092.37,-437.259 1082.67,-433.004 1087.6,-442.381 1092.37,-437.259"/>
</g>
<!-- Node10 -->
<g id="node10" class="node"><title>Node10</title>
<g id="a_node10"><a xlink:href="singleton__source_8cpp.html" target="_top" xlink:title="Om source file. ">
<polygon fill="none" stroke="black" points="1166.25,-407 1166.25,-439 1271.75,-439 1271.75,-407 1166.25,-407"/>
<text text-anchor="start" x="1174.25" y="-425" font-family="Helvetica,sans-Serif" font-size="10.00">om/source/singleton</text>
<text text-anchor="middle" x="1219" y="-413" font-family="Helvetica,sans-Serif" font-size="10.00">_source.cpp</text>
</a>
</g>
</g>
<!-- Node2&#45;&gt;Node10 -->
<g id="edge11" class="edge"><title>Node2&#45;&gt;Node10</title>
<path fill="none" stroke="midnightblue" d="M1156.48,-476.909C1165.19,-467.753 1177.69,-455.914 1189.3,-445.758"/>
<polygon fill="midnightblue" stroke="midnightblue" points="1191.81,-448.213 1197.13,-439.049 1187.26,-442.896 1191.81,-448.213"/>
</g>
<!-- Node4 -->
<g id="node4" class="node"><title>Node4</title>
<g id="a_node4"><a xlink:href="source_2source_8hpp.html" target="_top" xlink:title="Om header file. ">
<polygon fill="none" stroke="black" points="1028.53,-291 1028.53,-311 1143.47,-311 1143.47,-291 1028.53,-291"/>
<text text-anchor="middle" x="1086" y="-297" font-family="Helvetica,sans-Serif" font-size="10.00">om/source/source.hpp</text>
</a>
</g>
</g>
<!-- Node3&#45;&gt;Node4 -->
<g id="edge3" class="edge"><title>Node3&#45;&gt;Node4</title>
<path fill="none" stroke="midnightblue" d="M1073.98,-412.98C1076.08,-393.609 1081.05,-347.655 1083.9,-321.358"/>
<polygon fill="midnightblue" stroke="midnightblue" points="1087.41,-321.443 1085.01,-311.124 1080.45,-320.689 1087.41,-321.443"/>
</g>
<!-- Node8 -->
<g id="node8" class="node"><title>Node8</title>
<polygon fill="none" stroke="#bfbfbf" points="997.438,-349 997.438,-369 1044.56,-369 1044.56,-349 997.438,-349"/>
<text text-anchor="middle" x="1021" y="-355" font-family="Helvetica,sans-Serif" font-size="10.00">iterator</text>
</g>
<!-- Node3&#45;&gt;Node8 -->
<g id="edge8" class="edge"><title>Node3&#45;&gt;Node8</title>
<path fill="none" stroke="midnightblue" d="M1065.33,-412.852C1057.42,-403.419 1044.9,-388.495 1035.18,-376.907"/>
<polygon fill="midnightblue" stroke="midnightblue" points="1037.81,-374.599 1028.7,-369.186 1032.45,-379.097 1037.81,-374.599"/>
</g>
<!-- Node9 -->
<g id="node9" class="node"><title>Node9</title>
<g id="a_node9"><a xlink:href="default__source_8cpp.html" target="_top" xlink:title="Om source file. ">
<polygon fill="none" stroke="black" points="1101.02,-349 1101.02,-369 1250.98,-369 1250.98,-349 1101.02,-349"/>
<text text-anchor="middle" x="1176" y="-355" font-family="Helvetica,sans-Serif" font-size="10.00">om/source/default_source.cpp</text>
</a>
</g>
</g>
<!-- Node3&#45;&gt;Node9 -->
<g id="edge9" class="edge"><title>Node3&#45;&gt;Node9</title>
<path fill="none" stroke="midnightblue" d="M1083.24,-412.852C1098.12,-402.641 1125.51,-385.994 1146.79,-374.112"/>
<polygon fill="midnightblue" stroke="midnightblue" points="1148.69,-377.062 1155.78,-369.186 1145.33,-370.923 1148.69,-377.062"/>
</g>
<!-- Node5 -->
<g id="node5" class="node"><title>Node5</title>
<g id="a_node5"><a xlink:href="source_2source_8cpp.html" target="_top" xlink:title="Om source file. ">
<polygon fill="none" stroke="black" points="1054.81,-233 1054.81,-253 1169.19,-253 1169.19,-233 1054.81,-233"/>
<text text-anchor="middle" x="1112" y="-239" font-family="Helvetica,sans-Serif" font-size="10.00">om/source/source.cpp</text>
</a>
</g>
</g>
<!-- Node4&#45;&gt;Node5 -->
<g id="edge4" class="edge"><title>Node4&#45;&gt;Node5</title>
<path fill="none" stroke="midnightblue" d="M1085.13,-290.753C1087.17,-282.924 1092.09,-271.476 1097.36,-261.868"/>
<polygon fill="midnightblue" stroke="midnightblue" points="1100.5,-263.448 1102.66,-253.075 1094.5,-259.838 1100.5,-263.448"/>
</g>
<!-- Node5&#45;&gt;Node4 -->
<g id="edge7" class="edge"><title>Node5&#45;&gt;Node4</title>
<path fill="none" stroke="midnightblue" d="M1112.92,-253.075C1110.92,-260.85 1106.02,-272.285 1100.75,-281.92"/>
<polygon fill="midnightblue" stroke="midnightblue" points="1097.6,-280.376 1095.46,-290.753 1103.6,-283.974 1097.6,-280.376"/>
</g>
<!-- Node6 -->
<g id="node6" class="node"><title>Node6</title>
<polygon fill="none" stroke="#bfbfbf" points="587.884,-1 587.884,-21 636.116,-21 636.116,-1 587.884,-1"/>
<text text-anchor="middle" x="612" y="-7" font-family="Helvetica,sans-Serif" font-size="10.00">cassert</text>
</g>
<!-- Node5&#45;&gt;Node6 -->
<g id="edge5" class="edge"><title>Node5&#45;&gt;Node6</title>
<path fill="none" stroke="midnightblue" d="M1120.22,-232.953C1127.55,-224.22 1137.76,-210.257 1142,-196 1156.64,-146.74 1135.95,-82.0026 1106,-58 1067.64,-27.2527 713.722,-28.5667 665,-22 658.936,-21.1827 652.515,-20.1312 646.314,-19.0182"/>
<polygon fill="midnightblue" stroke="midnightblue" points="646.661,-15.5223 636.187,-17.1175 645.37,-22.4022 646.661,-15.5223"/>
</g>
<!-- Node7 -->
<g id="node7" class="node"><title>Node7</title>
<polygon fill="none" stroke="#bfbfbf" points="673.599,-1 673.599,-21 732.401,-21 732.401,-1 673.599,-1"/>
<text text-anchor="middle" x="703" y="-7" font-family="Helvetica,sans-Serif" font-size="10.00">stdexcept</text>
</g>
<!-- Node5&#45;&gt;Node7 -->
<g id="edge6" class="edge"><title>Node5&#45;&gt;Node7</title>
<path fill="none" stroke="midnightblue" d="M1115.31,-232.828C1125.41,-203.077 1152.37,-108.284 1106,-58 1081.64,-31.5841 839.967,-18.0502 742.974,-13.6482"/>
<polygon fill="midnightblue" stroke="midnightblue" points="742.84,-10.139 732.695,-13.1915 742.529,-17.1321 742.84,-10.139"/>
</g>
<!-- Node9&#45;&gt;Node3 -->
<g id="edge10" class="edge"><title>Node9&#45;&gt;Node3</title>
<path fill="none" stroke="midnightblue" d="M1165.7,-369.186C1150.79,-379.413 1123.4,-396.061 1102.13,-407.932"/>
<polygon fill="midnightblue" stroke="midnightblue" points="1100.24,-404.977 1093.15,-412.852 1103.61,-411.116 1100.24,-404.977"/>
</g>
<!-- Node10&#45;&gt;Node2 -->
<g id="edge12" class="edge"><title>Node10&#45;&gt;Node2</title>
<path fill="none" stroke="midnightblue" d="M1208.56,-439.049C1199.86,-448.197 1187.36,-460.034 1175.76,-470.195"/>
<polygon fill="midnightblue" stroke="midnightblue" points="1173.24,-467.744 1167.92,-476.909 1177.79,-473.06 1173.24,-467.744"/>
</g>
<!-- Node11&#45;&gt;Node1 -->
<g id="edge79" class="edge"><title>Node11&#45;&gt;Node1</title>
<path fill="none" stroke="midnightblue" d="M941.963,-503.186C943.752,-511.991 944.198,-525.557 943.3,-536.735"/>
<polygon fill="midnightblue" stroke="midnightblue" points="939.804,-536.478 941.955,-546.852 946.743,-537.4 939.804,-536.478"/>
</g>
<!-- Node12 -->
<g id="node12" class="node"><title>Node12</title>
<g id="a_node12"><a xlink:href="default__program_8hpp.html" target="_top" xlink:title="Om header file. ">
<polygon fill="none" stroke="black" points="724.522,-413 724.522,-433 849.478,-433 849.478,-413 724.522,-413"/>
<text text-anchor="middle" x="787" y="-419" font-family="Helvetica,sans-Serif" font-size="10.00">om/default_program.hpp</text>
</a>
</g>
</g>
<!-- Node11&#45;&gt;Node12 -->
<g id="edge14" class="edge"><title>Node11&#45;&gt;Node12</title>
<path fill="none" stroke="midnightblue" d="M917.081,-482.97C891.305,-471.285 846.185,-450.831 816.447,-437.349"/>
<polygon fill="midnightblue" stroke="midnightblue" points="817.554,-434.008 807.001,-433.067 814.664,-440.384 817.554,-434.008"/>
</g>
<!-- Node13 -->
<g id="node13" class="node"><title>Node13</title>
<g id="a_node13"><a xlink:href="default__consumer_8hpp.html" target="_top" xlink:title="Om header file. ">
<polygon fill="none" stroke="black" points="563.461,-233 563.461,-253 694.539,-253 694.539,-233 563.461,-233"/>
<text text-anchor="middle" x="629" y="-239" font-family="Helvetica,sans-Serif" font-size="10.00">om/default_consumer.hpp</text>
</a>
</g>
</g>
<!-- Node12&#45;&gt;Node13 -->
<g id="edge15" class="edge"><title>Node12&#45;&gt;Node13</title>
<path fill="none" stroke="midnightblue" d="M776.03,-412.887C764.196,-402.856 745.03,-386.022 730,-370 695.663,-333.397 659.96,-286.373 641.592,-261.4"/>
<polygon fill="midnightblue" stroke="midnightblue" points="644.369,-259.268 635.644,-253.258 638.717,-263.397 644.369,-259.268"/>
</g>
<!-- Node20 -->
<g id="node20" class="node"><title>Node20</title>
<g id="a_node20"><a xlink:href="default__giveable_8hpp.html" target="_top" xlink:title="Om header file. ">
<polygon fill="none" stroke="black" points="220.515,-233 220.515,-253 345.485,-253 345.485,-233 220.515,-233"/>
<text text-anchor="middle" x="283" y="-239" font-family="Helvetica,sans-Serif" font-size="10.00">om/default_giveable.hpp</text>
</a>
</g>
</g>
<!-- Node12&#45;&gt;Node20 -->
<g id="edge29" class="edge"><title>Node12&#45;&gt;Node20</title>
<path fill="none" stroke="midnightblue" d="M761.314,-412.928C677.812,-383.437 413.918,-290.237 318.155,-256.416"/>
<polygon fill="midnightblue" stroke="midnightblue" points="319.229,-253.083 308.635,-253.053 316.898,-259.684 319.229,-253.083"/>
</g>
<!-- Node32 -->
<g id="node32" class="node"><title>Node32</title>
<g id="a_node32"><a xlink:href="program_8hpp.html" target="_top" xlink:title="Om header file. ">
<polygon fill="none" stroke="black" points="785.315,-233 785.315,-253 874.685,-253 874.685,-233 785.315,-233"/>
<text text-anchor="middle" x="830" y="-239" font-family="Helvetica,sans-Serif" font-size="10.00">om/program.hpp</text>
</a>
</g>
</g>
<!-- Node12&#45;&gt;Node32 -->
<g id="edge55" class="edge"><title>Node12&#45;&gt;Node32</title>
<path fill="none" stroke="midnightblue" d="M774.904,-412.803C763.688,-403.443 747.747,-387.809 741,-370 728.404,-336.75 722.51,-320.37 741,-290 750.527,-274.352 767.28,-263.793 783.701,-256.785"/>
<polygon fill="midnightblue" stroke="midnightblue" points="785.225,-259.948 793.274,-253.058 782.685,-253.425 785.225,-259.948"/>
</g>
<!-- Node39 -->
<g id="node39" class="node"><title>Node39</title>
<g id="a_node39"><a xlink:href="taker_8hpp.html" target="_top" xlink:title="Om header file. ">
<polygon fill="none" stroke="black" points="750.091,-349 750.091,-369 823.909,-369 823.909,-349 750.091,-349"/>
<text text-anchor="middle" x="787" y="-355" font-family="Helvetica,sans-Serif" font-size="10.00">om/taker.hpp</text>
</a>
</g>
</g>
<!-- Node12&#45;&gt;Node39 -->
<g id="edge68" class="edge"><title>Node12&#45;&gt;Node39</title>
<path fill="none" stroke="midnightblue" d="M787,-412.852C787,-404.06 787,-390.498 787,-379.313"/>
<polygon fill="midnightblue" stroke="midnightblue" points="790.5,-379.186 787,-369.186 783.5,-379.186 790.5,-379.186"/>
</g>
<!-- Node41 -->
<g id="node41" class="node"><title>Node41</title>
<g id="a_node41"><a xlink:href="default__program_8cpp.html" target="_top" xlink:title="Om source file. ">
<polygon fill="none" stroke="black" points="841.803,-349 841.803,-369 966.197,-369 966.197,-349 841.803,-349"/>
<text text-anchor="middle" x="904" y="-355" font-family="Helvetica,sans-Serif" font-size="10.00">om/default_program.cpp</text>
</a>
</g>
</g>
<!-- Node12&#45;&gt;Node41 -->
<g id="edge71" class="edge"><title>Node12&#45;&gt;Node41</title>
<path fill="none" stroke="midnightblue" d="M799.308,-412.852C816.727,-402.503 848.48,-385.545 872.567,-373.635"/>
<polygon fill="midnightblue" stroke="midnightblue" points="874.244,-376.711 881.702,-369.186 871.179,-370.417 874.244,-376.711"/>
</g>
<!-- Node14 -->
<g id="node14" class="node"><title>Node14</title>
<g id="a_node14"><a xlink:href="consumer_8hpp.html" target="_top" xlink:title="Om header file. ">
<polygon fill="none" stroke="black" points="731.254,-175 731.254,-195 826.746,-195 826.746,-175 731.254,-175"/>
<text text-anchor="middle" x="779" y="-181" font-family="Helvetica,sans-Serif" font-size="10.00">om/consumer.hpp</text>
</a>
</g>
</g>
<!-- Node13&#45;&gt;Node14 -->
<g id="edge16" class="edge"><title>Node13&#45;&gt;Node14</title>
<path fill="none" stroke="midnightblue" d="M653.434,-232.878C678.277,-223.603 716.974,-209.156 744.844,-198.752"/>
<polygon fill="midnightblue" stroke="midnightblue" points="746.432,-201.895 754.577,-195.118 743.984,-195.337 746.432,-201.895"/>
</g>
<!-- Node16 -->
<g id="node16" class="node"><title>Node16</title>
<g id="a_node16"><a xlink:href="default__consumer_8cpp.html" target="_top" xlink:title="Om source file. ">
<polygon fill="none" stroke="black" points="544.742,-175 544.742,-195 675.258,-195 675.258,-175 544.742,-175"/>
<text text-anchor="middle" x="610" y="-181" font-family="Helvetica,sans-Serif" font-size="10.00">om/default_consumer.cpp</text>
</a>
</g>
</g>
<!-- Node13&#45;&gt;Node16 -->
<g id="edge21" class="edge"><title>Node13&#45;&gt;Node16</title>
<path fill="none" stroke="midnightblue" d="M620.696,-232.753C616.625,-225.25 612.528,-214.424 610.037,-205.078"/>
<polygon fill="midnightblue" stroke="midnightblue" points="613.419,-204.148 607.948,-195.075 606.566,-205.58 613.419,-204.148"/>
</g>
<!-- Node15 -->
<g id="node15" class="node"><title>Node15</title>
<g id="a_node15"><a xlink:href="consumer_8cpp.html" target="_top" xlink:title="Om source file. ">
<polygon fill="none" stroke="black" points="675.535,-59 675.535,-79 770.465,-79 770.465,-59 675.535,-59"/>
<text text-anchor="middle" x="723" y="-65" font-family="Helvetica,sans-Serif" font-size="10.00">om/consumer.cpp</text>
</a>
</g>
</g>
<!-- Node14&#45;&gt;Node15 -->
<g id="edge17" class="edge"><title>Node14&#45;&gt;Node15</title>
<path fill="none" stroke="midnightblue" d="M769.453,-174.59C761.287,-161.306 751.284,-136.399 741,-116 736.318,-106.712 730.546,-96.7182 726.303,-88.4265"/>
<polygon fill="midnightblue" stroke="midnightblue" points="729.456,-86.906 722.061,-79.3184 723.11,-89.8612 729.456,-86.906"/>
</g>
<!-- Node15&#45;&gt;Node6 -->
<g id="edge18" class="edge"><title>Node15&#45;&gt;Node6</title>
<path fill="none" stroke="midnightblue" d="M704.671,-58.7527C686.81,-49.7418 659.443,-35.9353 639.074,-25.6589"/>
<polygon fill="midnightblue" stroke="midnightblue" points="640.493,-22.4547 629.988,-21.0752 637.34,-28.7044 640.493,-22.4547"/>
</g>
<!-- Node15&#45;&gt;Node7 -->
<g id="edge19" class="edge"><title>Node15&#45;&gt;Node7</title>
<path fill="none" stroke="midnightblue" d="M719.697,-58.7527C716.989,-51.1689 713.067,-40.1881 709.705,-30.7739"/>
<polygon fill="midnightblue" stroke="midnightblue" points="712.901,-29.3154 706.241,-21.0752 706.308,-31.6698 712.901,-29.3154"/>
</g>
<!-- Node15&#45;&gt;Node14 -->
<g id="edge20" class="edge"><title>Node15&#45;&gt;Node14</title>
<path fill="none" stroke="midnightblue" d="M735.829,-79.3184C743.672,-88.4749 752.414,-102.935 759,-116 767.115,-132.096 775.055,-150.999 779.082,-164.784"/>
<polygon fill="midnightblue" stroke="midnightblue" points="775.694,-165.665 781.403,-174.59 782.506,-164.053 775.694,-165.665"/>
</g>
<!-- Node16&#45;&gt;Node13 -->
<g id="edge28" class="edge"><title>Node16&#45;&gt;Node13</title>
<path fill="none" stroke="midnightblue" d="M618.21,-195.075C622.281,-202.526 626.39,-213.338 628.905,-222.707"/>
<polygon fill="midnightblue" stroke="midnightblue" points="625.536,-223.693 631.029,-232.753 632.385,-222.245 625.536,-223.693"/>
</g>
<!-- Node17 -->
<g id="node17" class="node"><title>Node17</title>
<g id="a_node17"><a xlink:href="producer_8hpp.html" target="_top" xlink:title="Om header file. ">
<polygon fill="none" stroke="black" points="650.473,-117 650.473,-137 741.527,-137 741.527,-117 650.473,-117"/>
<text text-anchor="middle" x="696" y="-123" font-family="Helvetica,sans-Serif" font-size="10.00">om/producer.hpp</text>
</a>
</g>
</g>
<!-- Node16&#45;&gt;Node17 -->
<g id="edge22" class="edge"><title>Node16&#45;&gt;Node17</title>
<path fill="none" stroke="midnightblue" d="M624.201,-174.753C637.601,-166.027 657.907,-152.805 673.508,-142.646"/>
<polygon fill="midnightblue" stroke="midnightblue" points="675.593,-145.465 682.063,-137.075 671.773,-139.599 675.593,-145.465"/>
</g>
<!-- Node18 -->
<g id="node18" class="node"><title>Node18</title>
<polygon fill="none" stroke="#bfbfbf" points="386.943,-59 386.943,-79 439.057,-79 439.057,-59 386.943,-59"/>
<text text-anchor="middle" x="413" y="-65" font-family="Helvetica,sans-Serif" font-size="10.00">memory</text>
</g>
<!-- Node17&#45;&gt;Node18 -->
<g id="edge23" class="edge"><title>Node17&#45;&gt;Node18</title>
<path fill="none" stroke="midnightblue" d="M650.229,-117.626C589.105,-106.429 485.072,-87.3144 449.397,-79.9924"/>
<polygon fill="midnightblue" stroke="midnightblue" points="449.818,-76.5024 439.303,-77.8047 448.335,-83.3435 449.818,-76.5024"/>
</g>
<!-- Node19 -->
<g id="node19" class="node"><title>Node19</title>
<g id="a_node19"><a xlink:href="producer_8cpp.html" target="_top" xlink:title="Om source file. ">
<polygon fill="none" stroke="black" points="566.754,-59 566.754,-79 657.246,-79 657.246,-59 566.754,-59"/>
<text text-anchor="middle" x="612" y="-65" font-family="Helvetica,sans-Serif" font-size="10.00">om/producer.cpp</text>
</a>
</g>
</g>
<!-- Node17&#45;&gt;Node19 -->
<g id="edge24" class="edge"><title>Node17&#45;&gt;Node19</title>
<path fill="none" stroke="midnightblue" d="M676.963,-116.753C662.377,-108.19 642.734,-95.2978 628.746,-85.2186"/>
<polygon fill="midnightblue" stroke="midnightblue" points="630.595,-82.232 620.482,-79.0752 626.419,-87.8499 630.595,-82.232"/>
</g>
<!-- Node19&#45;&gt;Node6 -->
<g id="edge25" class="edge"><title>Node19&#45;&gt;Node6</title>
<path fill="none" stroke="midnightblue" d="M612,-58.7527C612,-51.2504 612,-40.4238 612,-31.0781"/>
<polygon fill="midnightblue" stroke="midnightblue" points="615.5,-31.0752 612,-21.0752 608.5,-31.0752 615.5,-31.0752"/>
</g>
<!-- Node19&#45;&gt;Node7 -->
<g id="edge26" class="edge"><title>Node19&#45;&gt;Node7</title>
<path fill="none" stroke="midnightblue" d="M627.027,-58.7527C641.338,-49.9457 663.094,-36.5575 679.662,-26.3617"/>
<polygon fill="midnightblue" stroke="midnightblue" points="681.571,-29.297 688.253,-21.0752 677.902,-23.3354 681.571,-29.297"/>
</g>
<!-- Node19&#45;&gt;Node17 -->
<g id="edge27" class="edge"><title>Node19&#45;&gt;Node17</title>
<path fill="none" stroke="midnightblue" d="M630.744,-79.0752C645.261,-87.5791 664.908,-100.461 678.971,-110.578"/>
<polygon fill="midnightblue" stroke="midnightblue" points="677.179,-113.606 687.295,-116.753 681.349,-107.984 677.179,-113.606"/>
</g>
<!-- Node21 -->
<g id="node21" class="node"><title>Node21</title>
<g id="a_node21"><a xlink:href="default__copyable_8hpp.html" target="_top" xlink:title="Om header file. ">
<polygon fill="none" stroke="black" points="291.126,-175 291.126,-195 418.874,-195 418.874,-175 291.126,-175"/>
<text text-anchor="middle" x="355" y="-181" font-family="Helvetica,sans-Serif" font-size="10.00">om/default_copyable.hpp</text>
</a>
</g>
</g>
<!-- Node20&#45;&gt;Node21 -->
<g id="edge30" class="edge"><title>Node20&#45;&gt;Node21</title>
<path fill="none" stroke="midnightblue" d="M294.889,-232.753C305.898,-224.19 322.474,-211.298 335.433,-201.219"/>
<polygon fill="midnightblue" stroke="midnightblue" points="337.587,-203.977 343.332,-195.075 333.29,-198.452 337.587,-203.977"/>
</g>
<!-- Node25 -->
<g id="node25" class="node"><title>Node25</title>
<g id="a_node25"><a xlink:href="default__moveable_8hpp.html" target="_top" xlink:title="Om header file. ">
<polygon fill="none" stroke="black" points="-0.539062,-175 -0.539062,-195 130.539,-195 130.539,-175 -0.539062,-175"/>
<text text-anchor="middle" x="65" y="-181" font-family="Helvetica,sans-Serif" font-size="10.00">om/default_moveable.hpp</text>
</a>
</g>
</g>
<!-- Node20&#45;&gt;Node25 -->
<g id="edge39" class="edge"><title>Node20&#45;&gt;Node25</title>
<path fill="none" stroke="midnightblue" d="M247.489,-232.878C210.007,-223.249 150.822,-208.046 110.073,-197.578"/>
<polygon fill="midnightblue" stroke="midnightblue" points="110.691,-194.123 100.134,-195.025 108.949,-200.903 110.691,-194.123"/>
</g>
<!-- Node29 -->
<g id="node29" class="node"><title>Node29</title>
<g id="a_node29"><a xlink:href="giveable_8hpp.html" target="_top" xlink:title="Om header file. ">
<polygon fill="none" stroke="black" points="437.308,-175 437.308,-195 526.692,-195 526.692,-175 437.308,-175"/>
<text text-anchor="middle" x="482" y="-181" font-family="Helvetica,sans-Serif" font-size="10.00">om/giveable.hpp</text>
</a>
</g>
</g>
<!-- Node20&#45;&gt;Node29 -->
<g id="edge48" class="edge"><title>Node20&#45;&gt;Node29</title>
<path fill="none" stroke="midnightblue" d="M315.416,-232.878C349.341,-223.331 402.744,-208.303 439.906,-197.845"/>
<polygon fill="midnightblue" stroke="midnightblue" points="441.25,-201.103 449.928,-195.025 439.354,-194.365 441.25,-201.103"/>
</g>
<!-- Node31 -->
<g id="node31" class="node"><title>Node31</title>
<g id="a_node31"><a xlink:href="default__giveable_8cpp.html" target="_top" xlink:title="Om source file. ">
<polygon fill="none" stroke="black" points="148.796,-175 148.796,-195 273.204,-195 273.204,-175 148.796,-175"/>
<text text-anchor="middle" x="211" y="-181" font-family="Helvetica,sans-Serif" font-size="10.00">om/default_giveable.cpp</text>
</a>
</g>
</g>
<!-- Node20&#45;&gt;Node31 -->
<g id="edge53" class="edge"><title>Node20&#45;&gt;Node31</title>
<path fill="none" stroke="midnightblue" d="M265.944,-232.753C253.437,-224.353 236.954,-211.787 225.167,-201.798"/>
<polygon fill="midnightblue" stroke="midnightblue" points="227.354,-199.06 217.537,-195.075 222.726,-204.312 227.354,-199.06"/>
</g>
<!-- Node22 -->
<g id="node22" class="node"><title>Node22</title>
<g id="a_node22"><a xlink:href="copyable_8hpp.html" target="_top" xlink:title="Om header file. ">
<polygon fill="none" stroke="black" points="433.919,-117 433.919,-137 526.081,-137 526.081,-117 433.919,-117"/>
<text text-anchor="middle" x="480" y="-123" font-family="Helvetica,sans-Serif" font-size="10.00">om/copyable.hpp</text>
</a>
</g>
</g>
<!-- Node21&#45;&gt;Node22 -->
<g id="edge31" class="edge"><title>Node21&#45;&gt;Node22</title>
<path fill="none" stroke="midnightblue" d="M375.362,-174.878C395.701,-165.766 427.184,-151.662 450.306,-141.303"/>
<polygon fill="midnightblue" stroke="midnightblue" points="451.952,-144.401 459.647,-137.118 449.09,-138.013 451.952,-144.401"/>
</g>
<!-- Node24 -->
<g id="node24" class="node"><title>Node24</title>
<g id="a_node24"><a xlink:href="default__copyable_8cpp.html" target="_top" xlink:title="Om source file. ">
<polygon fill="none" stroke="black" points="288.407,-117 288.407,-137 415.593,-137 415.593,-117 288.407,-117"/>
<text text-anchor="middle" x="352" y="-123" font-family="Helvetica,sans-Serif" font-size="10.00">om/default_copyable.cpp</text>
</a>
</g>
</g>
<!-- Node21&#45;&gt;Node24 -->
<g id="edge37" class="edge"><title>Node21&#45;&gt;Node24</title>
<path fill="none" stroke="midnightblue" d="M349.338,-174.753C347.41,-167.25 346.407,-156.424 346.586,-147.078"/>
<polygon fill="midnightblue" stroke="midnightblue" points="350.078,-147.314 347.355,-137.075 343.099,-146.778 350.078,-147.314"/>
</g>
<!-- Node22&#45;&gt;Node18 -->
<g id="edge32" class="edge"><title>Node22&#45;&gt;Node18</title>
<path fill="none" stroke="midnightblue" d="M468.936,-116.753C458.79,-108.272 443.56,-95.543 431.553,-85.5073"/>
<polygon fill="midnightblue" stroke="midnightblue" points="433.775,-82.8028 423.858,-79.0752 429.286,-88.1738 433.775,-82.8028"/>
</g>
<!-- Node23 -->
<g id="node23" class="node"><title>Node23</title>
<g id="a_node23"><a xlink:href="copyable_8cpp.html" target="_top" xlink:title="Om source file. ">
<polygon fill="none" stroke="black" points="457.2,-59 457.2,-79 548.8,-79 548.8,-59 457.2,-59"/>
<text text-anchor="middle" x="503" y="-65" font-family="Helvetica,sans-Serif" font-size="10.00">om/copyable.cpp</text>
</a>
</g>
</g>
<!-- Node22&#45;&gt;Node23 -->
<g id="edge33" class="edge"><title>Node22&#45;&gt;Node23</title>
<path fill="none" stroke="midnightblue" d="M478.632,-116.753C480.254,-108.924 484.565,-97.4761 489.321,-87.8679"/>
<polygon fill="midnightblue" stroke="midnightblue" points="492.403,-89.5264 494.142,-79.0752 486.265,-86.1609 492.403,-89.5264"/>
</g>
<!-- Node23&#45;&gt;Node6 -->
<g id="edge34" class="edge"><title>Node23&#45;&gt;Node6</title>
<path fill="none" stroke="midnightblue" d="M520.999,-58.7527C538.538,-49.7418 565.412,-35.9353 585.414,-25.6589"/>
<polygon fill="midnightblue" stroke="midnightblue" points="587.04,-28.7582 594.336,-21.0752 583.842,-22.5319 587.04,-28.7582"/>
</g>
<!-- Node23&#45;&gt;Node7 -->
<g id="edge35" class="edge"><title>Node23&#45;&gt;Node7</title>
<path fill="none" stroke="midnightblue" d="M535.579,-58.878C570.484,-49.1044 625.904,-33.5868 663.327,-23.1085"/>
<polygon fill="midnightblue" stroke="midnightblue" points="664.687,-26.3625 673.372,-20.2957 662.799,-19.6217 664.687,-26.3625"/>
</g>
<!-- Node23&#45;&gt;Node22 -->
<g id="edge36" class="edge"><title>Node23&#45;&gt;Node22</title>
<path fill="none" stroke="midnightblue" d="M504.404,-79.0752C502.821,-86.8502 498.533,-98.2849 493.784,-107.92"/>
<polygon fill="midnightblue" stroke="midnightblue" points="490.682,-106.298 488.964,-116.753 496.827,-109.651 490.682,-106.298"/>
</g>
<!-- Node24&#45;&gt;Node21 -->
<g id="edge38" class="edge"><title>Node24&#45;&gt;Node21</title>
<path fill="none" stroke="midnightblue" d="M357.617,-137.075C359.559,-144.526 360.579,-155.338 360.418,-164.707"/>
<polygon fill="midnightblue" stroke="midnightblue" points="356.922,-164.521 359.671,-174.753 363.903,-165.04 356.922,-164.521"/>
</g>
<!-- Node26 -->
<g id="node26" class="node"><title>Node26</title>
<g id="a_node26"><a xlink:href="moveable_8hpp.html" target="_top" xlink:title="Om header file. ">
<polygon fill="none" stroke="black" points="175.254,-117 175.254,-137 270.746,-137 270.746,-117 175.254,-117"/>
<text text-anchor="middle" x="223" y="-123" font-family="Helvetica,sans-Serif" font-size="10.00">om/moveable.hpp</text>
</a>
</g>
</g>
<!-- Node25&#45;&gt;Node26 -->
<g id="edge40" class="edge"><title>Node25&#45;&gt;Node26</title>
<path fill="none" stroke="midnightblue" d="M90.7371,-174.878C117.213,-165.494 158.628,-150.815 188.055,-140.386"/>
<polygon fill="midnightblue" stroke="midnightblue" points="189.28,-143.665 197.536,-137.025 186.941,-137.067 189.28,-143.665"/>
</g>
<!-- Node28 -->
<g id="node28" class="node"><title>Node28</title>
<g id="a_node28"><a xlink:href="default__moveable_8cpp.html" target="_top" xlink:title="Om source file. ">
<polygon fill="none" stroke="black" points="-0.258301,-117 -0.258301,-137 130.258,-137 130.258,-117 -0.258301,-117"/>
<text text-anchor="middle" x="65" y="-123" font-family="Helvetica,sans-Serif" font-size="10.00">om/default_moveable.cpp</text>
</a>
</g>
</g>
<!-- Node25&#45;&gt;Node28 -->
<g id="edge46" class="edge"><title>Node25&#45;&gt;Node28</title>
<path fill="none" stroke="midnightblue" d="M59.8337,-174.753C58.3076,-167.25 57.8844,-156.424 58.5643,-147.078"/>
<polygon fill="midnightblue" stroke="midnightblue" points="62.0461,-147.444 59.869,-137.075 55.1049,-146.538 62.0461,-147.444"/>
</g>
<!-- Node26&#45;&gt;Node18 -->
<g id="edge41" class="edge"><title>Node26&#45;&gt;Node18</title>
<path fill="none" stroke="midnightblue" d="M253.95,-116.878C287.543,-106.977 341.136,-91.181 376.693,-80.7011"/>
<polygon fill="midnightblue" stroke="midnightblue" points="378.056,-83.9482 386.659,-77.7638 376.077,-77.2338 378.056,-83.9482"/>
</g>
<!-- Node27 -->
<g id="node27" class="node"><title>Node27</title>
<g id="a_node27"><a xlink:href="moveable_8cpp.html" target="_top" xlink:title="Om source file. ">
<polygon fill="none" stroke="black" points="236.535,-59 236.535,-79 331.465,-79 331.465,-59 236.535,-59"/>
<text text-anchor="middle" x="284" y="-65" font-family="Helvetica,sans-Serif" font-size="10.00">om/moveable.cpp</text>
</a>
</g>
</g>
<!-- Node26&#45;&gt;Node27 -->
<g id="edge42" class="edge"><title>Node26&#45;&gt;Node27</title>
<path fill="none" stroke="midnightblue" d="M227.907,-116.753C235.42,-108.272 248.969,-95.543 260.995,-85.5073"/>
<polygon fill="midnightblue" stroke="midnightblue" points="263.389,-88.0728 268.984,-79.0752 258.999,-82.6204 263.389,-88.0728"/>
</g>
<!-- Node27&#45;&gt;Node6 -->
<g id="edge43" class="edge"><title>Node27&#45;&gt;Node6</title>
<path fill="none" stroke="midnightblue" d="M331.694,-59.8571C398.739,-48.4104 519.213,-27.8417 577.945,-17.8143"/>
<polygon fill="midnightblue" stroke="midnightblue" points="578.563,-21.2595 587.831,-16.1263 577.385,-14.3593 578.563,-21.2595"/>
</g>
<!-- Node27&#45;&gt;Node7 -->
<g id="edge44" class="edge"><title>Node27&#45;&gt;Node7</title>
<path fill="none" stroke="midnightblue" d="M331.686,-62.6007C400.855,-54.6156 533,-38.7827 645,-22 650.956,-21.1076 657.243,-20.096 663.394,-19.0675"/>
<polygon fill="midnightblue" stroke="midnightblue" points="664.265,-22.4697 673.534,-17.3386 663.088,-15.5692 664.265,-22.4697"/>
</g>
<!-- Node27&#45;&gt;Node26 -->
<g id="edge45" class="edge"><title>Node27&#45;&gt;Node26</title>
<path fill="none" stroke="midnightblue" d="M279.246,-79.0752C271.815,-87.4981 258.296,-100.216 246.25,-110.288"/>
<polygon fill="midnightblue" stroke="midnightblue" points="243.823,-107.749 238.239,-116.753 248.219,-113.196 243.823,-107.749"/>
</g>
<!-- Node28&#45;&gt;Node25 -->
<g id="edge47" class="edge"><title>Node28&#45;&gt;Node25</title>
<path fill="none" stroke="midnightblue" d="M70.131,-137.075C71.674,-144.526 72.1141,-155.338 71.4512,-164.707"/>
<polygon fill="midnightblue" stroke="midnightblue" points="67.9633,-164.389 70.1663,-174.753 74.9067,-165.278 67.9633,-164.389"/>
</g>
<!-- Node29&#45;&gt;Node22 -->
<g id="edge49" class="edge"><title>Node29&#45;&gt;Node22</title>
<path fill="none" stroke="midnightblue" d="M481.67,-174.753C481.402,-167.25 481.015,-156.424 480.681,-147.078"/>
<polygon fill="midnightblue" stroke="midnightblue" points="484.179,-146.944 480.324,-137.075 477.183,-147.194 484.179,-146.944"/>
</g>
<!-- Node29&#45;&gt;Node26 -->
<g id="edge50" class="edge"><title>Node29&#45;&gt;Node26</title>
<path fill="none" stroke="midnightblue" d="M440.099,-174.94C395.055,-165.201 323.392,-149.706 274.834,-139.207"/>
<polygon fill="midnightblue" stroke="midnightblue" points="275.354,-135.739 264.84,-137.047 273.875,-142.581 275.354,-135.739"/>
</g>
<!-- Node30 -->
<g id="node30" class="node"><title>Node30</title>
<g id="a_node30"><a xlink:href="giveable_8cpp.html" target="_top" xlink:title="Om source file. ">
<polygon fill="none" stroke="black" points="543.589,-117 543.589,-137 632.411,-137 632.411,-117 543.589,-117"/>
<text text-anchor="middle" x="588" y="-123" font-family="Helvetica,sans-Serif" font-size="10.00">om/giveable.cpp</text>
</a>
</g>
</g>
<!-- Node29&#45;&gt;Node30 -->
<g id="edge51" class="edge"><title>Node29&#45;&gt;Node30</title>
<path fill="none" stroke="midnightblue" d="M494.337,-174.753C509.63,-165.701 535.687,-151.81 556.536,-141.52"/>
<polygon fill="midnightblue" stroke="midnightblue" points="558.224,-144.591 565.691,-137.075 555.166,-138.294 558.224,-144.591"/>
</g>
<!-- Node30&#45;&gt;Node29 -->
<g id="edge52" class="edge"><title>Node30&#45;&gt;Node29</title>
<path fill="none" stroke="midnightblue" d="M575.881,-137.118C560.651,-146.147 534.523,-160.081 513.598,-170.414"/>
<polygon fill="midnightblue" stroke="midnightblue" points="511.873,-167.361 504.407,-174.878 514.932,-173.657 511.873,-167.361"/>
</g>
<!-- Node31&#45;&gt;Node20 -->
<g id="edge54" class="edge"><title>Node31&#45;&gt;Node20</title>
<path fill="none" stroke="midnightblue" d="M227.799,-195.075C240.252,-203.417 256.739,-215.972 268.59,-225.997"/>
<polygon fill="midnightblue" stroke="midnightblue" points="266.455,-228.78 276.277,-232.753 271.077,-223.522 266.455,-228.78"/>
</g>
<!-- Node32&#45;&gt;Node14 -->
<g id="edge56" class="edge"><title>Node32&#45;&gt;Node14</title>
<path fill="none" stroke="midnightblue" d="M821.578,-232.753C814.152,-224.598 803.148,-212.516 794.188,-202.677"/>
<polygon fill="midnightblue" stroke="midnightblue" points="796.586,-200.112 787.265,-195.075 791.411,-204.825 796.586,-200.112"/>
</g>
<!-- Node32&#45;&gt;Node17 -->
<g id="edge58" class="edge"><title>Node32&#45;&gt;Node17</title>
<path fill="none" stroke="midnightblue" d="M789.045,-232.931C766.676,-226.108 739.956,-214.641 722,-196 709.144,-182.653 702.485,-162.288 699.142,-147.322"/>
<polygon fill="midnightblue" stroke="midnightblue" points="702.509,-146.296 697.184,-137.136 695.635,-147.617 702.509,-146.296"/>
</g>
<!-- Node32&#45;&gt;Node29 -->
<g id="edge57" class="edge"><title>Node32&#45;&gt;Node29</title>
<path fill="none" stroke="midnightblue" d="M785.109,-235.374C729.365,-227.058 631.108,-212.113 536.771,-196.095"/>
<polygon fill="midnightblue" stroke="midnightblue" points="537.218,-192.621 526.772,-194.391 536.042,-199.521 537.218,-192.621"/>
</g>
<!-- Node33 -->
<g id="node33" class="node"><title>Node33</title>
<g id="a_node33"><a xlink:href="shareable_8hpp.html" target="_top" xlink:title="Om header file. ">
<polygon fill="none" stroke="black" points="950.973,-175 950.973,-195 1047.03,-195 1047.03,-175 950.973,-175"/>
<text text-anchor="middle" x="999" y="-181" font-family="Helvetica,sans-Serif" font-size="10.00">om/shareable.hpp</text>
</a>
</g>
</g>
<!-- Node32&#45;&gt;Node33 -->
<g id="edge59" class="edge"><title>Node32&#45;&gt;Node33</title>
<path fill="none" stroke="midnightblue" d="M857.529,-232.878C885.971,-223.453 930.532,-208.688 962.032,-198.25"/>
<polygon fill="midnightblue" stroke="midnightblue" points="963.371,-201.493 971.763,-195.025 961.17,-194.848 963.371,-201.493"/>
</g>
<!-- Node38 -->
<g id="node38" class="node"><title>Node38</title>
<g id="a_node38"><a xlink:href="program_8cpp.html" target="_top" xlink:title="Om source file. ">
<polygon fill="none" stroke="black" points="844.596,-175 844.596,-195 933.404,-195 933.404,-175 844.596,-175"/>
<text text-anchor="middle" x="889" y="-181" font-family="Helvetica,sans-Serif" font-size="10.00">om/program.cpp</text>
</a>
</g>
</g>
<!-- Node32&#45;&gt;Node38 -->
<g id="edge66" class="edge"><title>Node32&#45;&gt;Node38</title>
<path fill="none" stroke="midnightblue" d="M834.576,-232.753C841.786,-224.272 854.881,-211.543 866.548,-201.507"/>
<polygon fill="midnightblue" stroke="midnightblue" points="868.843,-204.152 874.308,-195.075 864.375,-198.763 868.843,-204.152"/>
</g>
<!-- Node34 -->
<g id="node34" class="node"><title>Node34</title>
<polygon fill="none" stroke="#bfbfbf" points="1011.88,-117 1011.88,-137 1060.12,-137 1060.12,-117 1011.88,-117"/>
<text text-anchor="middle" x="1036" y="-123" font-family="Helvetica,sans-Serif" font-size="10.00">cstddef</text>
</g>
<!-- Node33&#45;&gt;Node34 -->
<g id="edge60" class="edge"><title>Node33&#45;&gt;Node34</title>
<path fill="none" stroke="midnightblue" d="M1005.11,-174.753C1010.34,-166.843 1018,-155.237 1024.39,-145.568"/>
<polygon fill="midnightblue" stroke="midnightblue" points="1027.41,-147.348 1030,-137.075 1021.57,-143.489 1027.41,-147.348"/>
</g>
<!-- Node35 -->
<g id="node35" class="node"><title>Node35</title>
<g id="a_node35"><a xlink:href="shareable_8cpp.html" target="_top" xlink:title="Om source file. ">
<polygon fill="none" stroke="black" points="898.254,-117 898.254,-137 993.746,-137 993.746,-117 898.254,-117"/>
<text text-anchor="middle" x="946" y="-123" font-family="Helvetica,sans-Serif" font-size="10.00">om/shareable.cpp</text>
</a>
</g>
</g>
<!-- Node33&#45;&gt;Node35 -->
<g id="edge61" class="edge"><title>Node33&#45;&gt;Node35</title>
<path fill="none" stroke="midnightblue" d="M985.082,-174.753C975.799,-166.68 964.15,-154.757 955.802,-144.973"/>
<polygon fill="midnightblue" stroke="midnightblue" points="958.449,-142.679 949.458,-137.075 952.992,-147.063 958.449,-142.679"/>
</g>
<!-- Node35&#45;&gt;Node7 -->
<g id="edge62" class="edge"><title>Node35&#45;&gt;Node7</title>
<path fill="none" stroke="midnightblue" d="M915.354,-116.936C888.784,-108.642 849.588,-95.3493 817,-80 812.351,-77.8103 758.825,-45.6527 726.798,-26.356"/>
<polygon fill="midnightblue" stroke="midnightblue" points="728.381,-23.2236 718.009,-21.0586 724.767,-29.2187 728.381,-23.2236"/>
</g>
<!-- Node35&#45;&gt;Node33 -->
<g id="edge65" class="edge"><title>Node35&#45;&gt;Node33</title>
<path fill="none" stroke="midnightblue" d="M959.72,-137.075C968.969,-145.093 980.624,-157.003 989.019,-166.818"/>
<polygon fill="midnightblue" stroke="midnightblue" points="986.414,-169.163 995.414,-174.753 991.864,-164.77 986.414,-169.163"/>
</g>
<!-- Node36 -->
<g id="node36" class="node"><title>Node36</title>
<polygon fill="none" stroke="#bfbfbf" points="964.621,-59 964.621,-79 1097.38,-79 1097.38,-59 964.621,-59"/>
<text text-anchor="middle" x="1031" y="-65" font-family="Helvetica,sans-Serif" font-size="10.00">boost/checked_delete.hpp</text>
</g>
<!-- Node35&#45;&gt;Node36 -->
<g id="edge63" class="edge"><title>Node35&#45;&gt;Node36</title>
<path fill="none" stroke="midnightblue" d="M960.036,-116.753C973.28,-108.027 993.349,-94.8051 1008.77,-84.6458"/>
<polygon fill="midnightblue" stroke="midnightblue" points="1010.8,-87.4995 1017.23,-79.0752 1006.95,-81.6541 1010.8,-87.4995"/>
</g>
<!-- Node37 -->
<g id="node37" class="node"><title>Node37</title>
<polygon fill="none" stroke="#bfbfbf" points="825.744,-59 825.744,-79 946.256,-79 946.256,-59 825.744,-59"/>
<text text-anchor="middle" x="886" y="-65" font-family="Helvetica,sans-Serif" font-size="10.00">boost/integer_traits.hpp</text>
</g>
<!-- Node35&#45;&gt;Node37 -->
<g id="edge64" class="edge"><title>Node35&#45;&gt;Node37</title>
<path fill="none" stroke="midnightblue" d="M936.092,-116.753C927.18,-108.435 913.89,-96.031 903.238,-86.0893"/>
<polygon fill="midnightblue" stroke="midnightblue" points="905.422,-83.3397 895.723,-79.0752 900.646,-88.4571 905.422,-83.3397"/>
</g>
<!-- Node38&#45;&gt;Node32 -->
<g id="edge67" class="edge"><title>Node38&#45;&gt;Node32</title>
<path fill="none" stroke="midnightblue" d="M884.57,-195.075C877.44,-203.498 864.375,-216.216 852.689,-226.288"/>
<polygon fill="midnightblue" stroke="midnightblue" points="850.364,-223.67 844.909,-232.753 854.837,-229.054 850.364,-223.67"/>
</g>
<!-- Node40 -->
<g id="node40" class="node"><title>Node40</title>
<g id="a_node40"><a xlink:href="taker_8cpp.html" target="_top" xlink:title="Om source file. ">
<polygon fill="none" stroke="black" points="750.372,-291 750.372,-311 823.628,-311 823.628,-291 750.372,-291"/>
<text text-anchor="middle" x="787" y="-297" font-family="Helvetica,sans-Serif" font-size="10.00">om/taker.cpp</text>
</a>
</g>
</g>
<!-- Node39&#45;&gt;Node40 -->
<g id="edge69" class="edge"><title>Node39&#45;&gt;Node40</title>
<path fill="none" stroke="midnightblue" d="M781.834,-348.753C780.308,-341.25 779.884,-330.424 780.564,-321.078"/>
<polygon fill="midnightblue" stroke="midnightblue" points="784.046,-321.444 781.869,-311.075 777.105,-320.538 784.046,-321.444"/>
</g>
<!-- Node40&#45;&gt;Node39 -->
<g id="edge70" class="edge"><title>Node40&#45;&gt;Node39</title>
<path fill="none" stroke="midnightblue" d="M792.131,-311.075C793.674,-318.526 794.114,-329.338 793.451,-338.707"/>
<polygon fill="midnightblue" stroke="midnightblue" points="789.963,-338.389 792.166,-348.753 796.907,-339.278 789.963,-338.389"/>
</g>
<!-- Node41&#45;&gt;Node4 -->
<g id="edge76" class="edge"><title>Node41&#45;&gt;Node4</title>
<path fill="none" stroke="midnightblue" d="M933.647,-348.878C964.542,-339.372 1013.1,-324.432 1047.07,-313.98"/>
<polygon fill="midnightblue" stroke="midnightblue" points="1048.14,-317.311 1056.67,-311.025 1046.08,-310.621 1048.14,-317.311"/>
</g>
<!-- Node41&#45;&gt;Node12 -->
<g id="edge78" class="edge"><title>Node41&#45;&gt;Node12</title>
<path fill="none" stroke="midnightblue" d="M891.897,-369.026C874.448,-379.408 842.335,-396.558 818.116,-408.522"/>
<polygon fill="midnightblue" stroke="midnightblue" points="816.403,-405.463 808.941,-412.985 819.465,-411.758 816.403,-405.463"/>
</g>
<!-- Node42 -->
<g id="node42" class="node"><title>Node42</title>
<g id="a_node42"><a xlink:href="element_8hpp.html" target="_top" xlink:title="Om header file. ">
<polygon fill="none" stroke="black" points="910.146,-291 910.146,-311 997.854,-311 997.854,-291 910.146,-291"/>
<text text-anchor="middle" x="954" y="-297" font-family="Helvetica,sans-Serif" font-size="10.00">om/element.hpp</text>
</a>
</g>
</g>
<!-- Node41&#45;&gt;Node42 -->
<g id="edge72" class="edge"><title>Node41&#45;&gt;Node42</title>
<path fill="none" stroke="midnightblue" d="M912.256,-348.753C919.537,-340.598 930.325,-328.516 939.11,-318.677"/>
<polygon fill="midnightblue" stroke="midnightblue" points="941.848,-320.866 945.897,-311.075 936.626,-316.204 941.848,-320.866"/>
</g>
<!-- Node44 -->
<g id="node44" class="node"><title>Node44</title>
<polygon fill="none" stroke="#bfbfbf" points="841.488,-291 841.488,-311 892.512,-311 892.512,-291 841.488,-291"/>
<text text-anchor="middle" x="867" y="-297" font-family="Helvetica,sans-Serif" font-size="10.00">typeinfo</text>
</g>
<!-- Node41&#45;&gt;Node44 -->
<g id="edge77" class="edge"><title>Node41&#45;&gt;Node44</title>
<path fill="none" stroke="midnightblue" d="M897.89,-348.753C892.664,-340.843 884.996,-329.237 878.608,-319.568"/>
<polygon fill="midnightblue" stroke="midnightblue" points="881.429,-317.489 872.996,-311.075 875.589,-321.348 881.429,-317.489"/>
</g>
<!-- Node42&#45;&gt;Node32 -->
<g id="edge73" class="edge"><title>Node42&#45;&gt;Node32</title>
<path fill="none" stroke="midnightblue" d="M933.801,-290.878C913.625,-281.766 882.394,-267.662 859.456,-257.303"/>
<polygon fill="midnightblue" stroke="midnightblue" points="860.744,-254.044 850.19,-253.118 857.863,-260.424 860.744,-254.044"/>
</g>
<!-- Node43 -->
<g id="node43" class="node"><title>Node43</title>
<g id="a_node43"><a xlink:href="element_8cpp.html" target="_top" xlink:title="Om source file. ">
<polygon fill="none" stroke="black" points="910.426,-233 910.426,-253 997.574,-253 997.574,-233 910.426,-233"/>
<text text-anchor="middle" x="954" y="-239" font-family="Helvetica,sans-Serif" font-size="10.00">om/element.cpp</text>
</a>
</g>
</g>
<!-- Node42&#45;&gt;Node43 -->
<g id="edge74" class="edge"><title>Node42&#45;&gt;Node43</title>
<path fill="none" stroke="midnightblue" d="M948.834,-290.753C947.308,-283.25 946.884,-272.424 947.564,-263.078"/>
<polygon fill="midnightblue" stroke="midnightblue" points="951.046,-263.444 948.869,-253.075 944.105,-262.538 951.046,-263.444"/>
</g>
<!-- Node43&#45;&gt;Node42 -->
<g id="edge75" class="edge"><title>Node43&#45;&gt;Node42</title>
<path fill="none" stroke="midnightblue" d="M959.131,-253.075C960.674,-260.526 961.114,-271.338 960.451,-280.707"/>
<polygon fill="midnightblue" stroke="midnightblue" points="956.963,-280.389 959.166,-290.753 963.907,-281.278 956.963,-280.389"/>
</g>
</g>
</svg>
