<?xml version="1.0" encoding="UTF-8" standalone="no"?>
<!DOCTYPE svg PUBLIC "-//W3C//DTD SVG 1.1//EN"
 "http://www.w3.org/Graphics/SVG/1.1/DTD/svg11.dtd">
<!-- Generated by graphviz version 2.30.1 (20130221.2233)
 -->
<!-- Title: om/default_moveable.hpp Pages: 1 -->
<svg width="322pt" height="204pt"
 viewBox="0.00 0.00 322.00 204.00" xmlns="http://www.w3.org/2000/svg" xmlns:xlink="http://www.w3.org/1999/xlink">
<g id="graph0" class="graph" transform="scale(1 1) rotate(0) translate(4 200)">
<title>om/default_moveable.hpp</title>
<!-- Node1 -->
<g id="node1" class="node"><title>Node1</title>
<polygon fill="#bfbfbf" stroke="black" points="183.461,-175 183.461,-195 314.539,-195 314.539,-175 183.461,-175"/>
<text text-anchor="middle" x="249" y="-181" font-family="Helvetica,sans-Serif" font-size="10.00">om/default_moveable.hpp</text>
</g>
<!-- Node2 -->
<g id="node2" class="node"><title>Node2</title>
<g id="a_node2"><a xlink:href="moveable_8hpp.html" target="_top" xlink:title="Om header file. ">
<polygon fill="none" stroke="black" points="70.2539,-117 70.2539,-137 165.746,-137 165.746,-117 70.2539,-117"/>
<text text-anchor="middle" x="118" y="-123" font-family="Helvetica,sans-Serif" font-size="10.00">om/moveable.hpp</text>
</a>
</g>
</g>
<!-- Node1&#45;&gt;Node2 -->
<g id="edge1" class="edge"><title>Node1&#45;&gt;Node2</title>
<path fill="none" stroke="midnightblue" d="M227.661,-174.878C206.251,-165.725 173.057,-151.536 148.795,-141.164"/>
<polygon fill="midnightblue" stroke="midnightblue" points="149.901,-137.831 139.33,-137.118 147.149,-144.267 149.901,-137.831"/>
</g>
<!-- Node7 -->
<g id="node7" class="node"><title>Node7</title>
<g id="a_node7"><a xlink:href="default__moveable_8cpp.html" target="_top" xlink:title="Om source file. ">
<polygon fill="none" stroke="black" points="183.742,-117 183.742,-137 314.258,-137 314.258,-117 183.742,-117"/>
<text text-anchor="middle" x="249" y="-123" font-family="Helvetica,sans-Serif" font-size="10.00">om/default_moveable.cpp</text>
</a>
</g>
</g>
<!-- Node1&#45;&gt;Node7 -->
<g id="edge7" class="edge"><title>Node1&#45;&gt;Node7</title>
<path fill="none" stroke="midnightblue" d="M243.834,-174.753C242.308,-167.25 241.884,-156.424 242.564,-147.078"/>
<polygon fill="midnightblue" stroke="midnightblue" points="246.046,-147.444 243.869,-137.075 239.105,-146.538 246.046,-147.444"/>
</g>
<!-- Node3 -->
<g id="node3" class="node"><title>Node3</title>
<polygon fill="none" stroke="#bfbfbf" points="-0.0566406,-59 -0.0566406,-79 52.0566,-79 52.0566,-59 -0.0566406,-59"/>
<text text-anchor="middle" x="26" y="-65" font-family="Helvetica,sans-Serif" font-size="10.00">memory</text>
</g>
<!-- Node2&#45;&gt;Node3 -->
<g id="edge2" class="edge"><title>Node2&#45;&gt;Node3</title>
<path fill="none" stroke="midnightblue" d="M102.808,-116.753C88.3393,-107.946 66.3445,-94.5575 49.5943,-84.3617"/>
<polygon fill="midnightblue" stroke="midnightblue" points="51.2711,-81.285 40.9092,-79.0752 47.6314,-87.2644 51.2711,-81.285"/>
</g>
<!-- Node4 -->
<g id="node4" class="node"><title>Node4</title>
<g id="a_node4"><a xlink:href="moveable_8cpp.html" target="_top" xlink:title="Om source file. ">
<polygon fill="none" stroke="black" points="70.5347,-59 70.5347,-79 165.465,-79 165.465,-59 70.5347,-59"/>
<text text-anchor="middle" x="118" y="-65" font-family="Helvetica,sans-Serif" font-size="10.00">om/moveable.cpp</text>
</a>
</g>
</g>
<!-- Node2&#45;&gt;Node4 -->
<g id="edge3" class="edge"><title>Node2&#45;&gt;Node4</title>
<path fill="none" stroke="midnightblue" d="M112.834,-116.753C111.308,-109.25 110.884,-98.4238 111.564,-89.0781"/>
<polygon fill="midnightblue" stroke="midnightblue" points="115.046,-89.4439 112.869,-79.0752 108.105,-88.5385 115.046,-89.4439"/>
</g>
<!-- Node5 -->
<g id="node5" class="node"><title>Node5</title>
<polygon fill="none" stroke="#bfbfbf" points="57.8843,-1 57.8843,-21 106.116,-21 106.116,-1 57.8843,-1"/>
<text text-anchor="middle" x="82" y="-7" font-family="Helvetica,sans-Serif" font-size="10.00">cassert</text>
</g>
<!-- Node4&#45;&gt;Node5 -->
<g id="edge4" class="edge"><title>Node4&#45;&gt;Node5</title>
<path fill="none" stroke="midnightblue" d="M112.055,-58.7527C106.97,-50.8427 99.5096,-39.2372 93.2939,-29.5683"/>
<polygon fill="midnightblue" stroke="midnightblue" points="96.1858,-27.5943 87.8341,-21.0752 90.2975,-31.3797 96.1858,-27.5943"/>
</g>
<!-- Node6 -->
<g id="node6" class="node"><title>Node6</title>
<polygon fill="none" stroke="#bfbfbf" points="124.599,-1 124.599,-21 183.401,-21 183.401,-1 124.599,-1"/>
<text text-anchor="middle" x="154" y="-7" font-family="Helvetica,sans-Serif" font-size="10.00">stdexcept</text>
</g>
<!-- Node4&#45;&gt;Node6 -->
<g id="edge5" class="edge"><title>Node4&#45;&gt;Node6</title>
<path fill="none" stroke="midnightblue" d="M123.945,-58.7527C129.03,-50.8427 136.49,-39.2372 142.706,-29.5683"/>
<polygon fill="midnightblue" stroke="midnightblue" points="145.702,-31.3797 148.166,-21.0752 139.814,-27.5943 145.702,-31.3797"/>
</g>
<!-- Node4&#45;&gt;Node2 -->
<g id="edge6" class="edge"><title>Node4&#45;&gt;Node2</title>
<path fill="none" stroke="midnightblue" d="M123.131,-79.0752C124.674,-86.5262 125.114,-97.3384 124.451,-106.707"/>
<polygon fill="midnightblue" stroke="midnightblue" points="120.963,-106.389 123.166,-116.753 127.907,-107.278 120.963,-106.389"/>
</g>
<!-- Node7&#45;&gt;Node1 -->
<g id="edge8" class="edge"><title>Node7&#45;&gt;Node1</title>
<path fill="none" stroke="midnightblue" d="M254.131,-137.075C255.674,-144.526 256.114,-155.338 255.451,-164.707"/>
<polygon fill="midnightblue" stroke="midnightblue" points="251.963,-164.389 254.166,-174.753 258.907,-165.278 251.963,-164.389"/>
</g>
</g>
</svg>
