<?xml version="1.0" encoding="UTF-8" standalone="no"?>
<!DOCTYPE svg PUBLIC "-//W3C//DTD SVG 1.1//EN"
 "http://www.w3.org/Graphics/SVG/1.1/DTD/svg11.dtd">
<!-- Generated by graphviz version 2.36.0 (20140111.2315)
 -->
<!-- Title: om/language/default_atom.cpp Pages: 1 -->
<svg width="1326pt" height="480pt"
 viewBox="0.00 0.00 1326.00 480.00" xmlns="http://www.w3.org/2000/svg" xmlns:xlink="http://www.w3.org/1999/xlink">
<g id="graph0" class="graph" transform="scale(1 1) rotate(0) translate(4 476)">
<title>om/language/default_atom.cpp</title>
<!-- Node1 -->
<g id="node1" class="node"><title>Node1</title>
<g id="a_node1"><a xlink:title="Om source file.">
<polygon fill="#bfbfbf" stroke="black" points="990.688,-443 990.688,-471 1097.31,-471 1097.31,-443 990.688,-443"/>
<text text-anchor="start" x="998.688" y="-459" font-family="Helvetica,sans-Serif" font-size="10.00">om/language/default</text>
<text text-anchor="middle" x="1044" y="-449" font-family="Helvetica,sans-Serif" font-size="10.00">_atom.cpp</text>
</a>
</g>
</g>
<!-- Node2 -->
<g id="node2" class="node"><title>Node2</title>
<g id="a_node2"><a xlink:href="default__atom_8hpp.html" target="_top" xlink:title="Om header file.">
<polygon fill="none" stroke="black" points="990.688,-377 990.688,-405 1097.31,-405 1097.31,-377 990.688,-377"/>
<text text-anchor="start" x="998.688" y="-393" font-family="Helvetica,sans-Serif" font-size="10.00">om/language/default</text>
<text text-anchor="middle" x="1044" y="-383" font-family="Helvetica,sans-Serif" font-size="10.00">_atom.hpp</text>
</a>
</g>
</g>
<!-- Node1&#45;&gt;Node2 -->
<g id="edge1" class="edge"><title>Node1&#45;&gt;Node2</title>
<path fill="none" stroke="midnightblue" d="M1038.41,-442.739C1037.3,-434.844 1036.99,-424.6 1037.47,-415.386"/>
<polygon fill="midnightblue" stroke="midnightblue" points="1040.97,-415.524 1038.41,-405.244 1034,-414.879 1040.97,-415.524"/>
</g>
<!-- Node2&#45;&gt;Node1 -->
<g id="edge60" class="edge"><title>Node2&#45;&gt;Node1</title>
<path fill="none" stroke="midnightblue" d="M1049.59,-405.244C1050.7,-413.135 1051.01,-423.379 1050.53,-432.595"/>
<polygon fill="midnightblue" stroke="midnightblue" points="1047.03,-432.46 1049.59,-442.739 1054,-433.103 1047.03,-432.46"/>
</g>
<!-- Node3 -->
<g id="node3" class="node"><title>Node3</title>
<g id="a_node3"><a xlink:href="atom_8hpp.html" target="_top" xlink:title="Om header file.">
<polygon fill="none" stroke="black" points="984.853,-316 984.853,-334 1103.15,-334 1103.15,-316 984.853,-316"/>
<text text-anchor="middle" x="1044" y="-322" font-family="Helvetica,sans-Serif" font-size="10.00">om/language/atom.hpp</text>
</a>
</g>
</g>
<!-- Node2&#45;&gt;Node3 -->
<g id="edge2" class="edge"><title>Node2&#45;&gt;Node3</title>
<path fill="none" stroke="midnightblue" d="M1044,-376.739C1044,-367.382 1044,-354.725 1044,-344.393"/>
<polygon fill="midnightblue" stroke="midnightblue" points="1047.5,-344.361 1044,-334.361 1040.5,-344.361 1047.5,-344.361"/>
</g>
<!-- Node23 -->
<g id="node23" class="node"><title>Node23</title>
<g id="a_node23"><a xlink:href="default__element_8hpp.html" target="_top" xlink:title="Om header file.">
<polygon fill="none" stroke="black" points="687.688,-311 687.688,-339 794.312,-339 794.312,-311 687.688,-311"/>
<text text-anchor="start" x="695.688" y="-327" font-family="Helvetica,sans-Serif" font-size="10.00">om/language/default</text>
<text text-anchor="middle" x="741" y="-317" font-family="Helvetica,sans-Serif" font-size="10.00">_element.hpp</text>
</a>
</g>
</g>
<!-- Node2&#45;&gt;Node23 -->
<g id="edge33" class="edge"><title>Node2&#45;&gt;Node23</title>
<path fill="none" stroke="midnightblue" d="M990.527,-378.705C938.547,-367.726 859.586,-351.048 804.453,-339.403"/>
<polygon fill="midnightblue" stroke="midnightblue" points="804.954,-335.931 794.447,-337.289 803.508,-342.78 804.954,-335.931"/>
</g>
<!-- Node37 -->
<g id="node37" class="node"><title>Node37</title>
<g id="a_node37"><a xlink:title=" ">
<polygon fill="none" stroke="#bfbfbf" points="1120.77,-316 1120.77,-334 1161.23,-334 1161.23,-316 1120.77,-316"/>
<text text-anchor="middle" x="1141" y="-322" font-family="Helvetica,sans-Serif" font-size="10.00">string</text>
</a>
</g>
</g>
<!-- Node2&#45;&gt;Node37 -->
<g id="edge59" class="edge"><title>Node2&#45;&gt;Node37</title>
<path fill="none" stroke="midnightblue" d="M1064.1,-376.739C1080.49,-365.927 1103.55,-350.707 1120.14,-339.762"/>
<polygon fill="midnightblue" stroke="midnightblue" points="1122.19,-342.604 1128.61,-334.176 1118.33,-336.762 1122.19,-342.604"/>
</g>
<!-- Node4 -->
<g id="node4" class="node"><title>Node4</title>
<g id="a_node4"><a xlink:href="element_8hpp.html" target="_top" xlink:title="Om header file.">
<polygon fill="none" stroke="black" points="907.18,-250 907.18,-268 1038.82,-268 1038.82,-250 907.18,-250"/>
<text text-anchor="middle" x="973" y="-256" font-family="Helvetica,sans-Serif" font-size="10.00">om/language/element.hpp</text>
</a>
</g>
</g>
<!-- Node3&#45;&gt;Node4 -->
<g id="edge3" class="edge"><title>Node3&#45;&gt;Node4</title>
<path fill="none" stroke="midnightblue" d="M1035.01,-315.894C1023.65,-305.66 1003.89,-287.848 989.731,-275.081"/>
<polygon fill="midnightblue" stroke="midnightblue" points="991.915,-272.338 982.143,-268.242 987.228,-277.537 991.915,-272.338"/>
</g>
<!-- Node22 -->
<g id="node22" class="node"><title>Node22</title>
<g id="a_node22"><a xlink:href="atom_8cpp.html" target="_top" xlink:title="Om source file.">
<polygon fill="none" stroke="black" points="1057.13,-250 1057.13,-268 1174.87,-268 1174.87,-250 1057.13,-250"/>
<text text-anchor="middle" x="1116" y="-256" font-family="Helvetica,sans-Serif" font-size="10.00">om/language/atom.cpp</text>
</a>
</g>
</g>
<!-- Node3&#45;&gt;Node22 -->
<g id="edge31" class="edge"><title>Node3&#45;&gt;Node22</title>
<path fill="none" stroke="midnightblue" d="M1048.45,-315.894C1057.88,-305.411 1078.27,-286.979 1094.36,-274.16"/>
<polygon fill="midnightblue" stroke="midnightblue" points="1096.51,-276.916 1102.3,-268.04 1092.24,-271.372 1096.51,-276.916"/>
</g>
<!-- Node5 -->
<g id="node5" class="node"><title>Node5</title>
<g id="a_node5"><a xlink:href="program_8hpp.html" target="_top" xlink:title="Om header file.">
<polygon fill="none" stroke="black" points="831.35,-184 831.35,-202 964.65,-202 964.65,-184 831.35,-184"/>
<text text-anchor="middle" x="898" y="-190" font-family="Helvetica,sans-Serif" font-size="10.00">om/language/program.hpp</text>
</a>
</g>
</g>
<!-- Node4&#45;&gt;Node5 -->
<g id="edge4" class="edge"><title>Node4&#45;&gt;Node5</title>
<path fill="none" stroke="midnightblue" d="M963.501,-249.894C951.507,-239.66 930.635,-221.848 915.673,-209.081"/>
<polygon fill="midnightblue" stroke="midnightblue" points="917.537,-206.071 907.659,-202.242 912.994,-211.396 917.537,-206.071"/>
</g>
<!-- Node21 -->
<g id="node21" class="node"><title>Node21</title>
<g id="a_node21"><a xlink:href="element_8cpp.html" target="_top" xlink:title="Om source file.">
<polygon fill="none" stroke="black" points="982.461,-184 982.461,-202 1113.54,-202 1113.54,-184 982.461,-184"/>
<text text-anchor="middle" x="1048" y="-190" font-family="Helvetica,sans-Serif" font-size="10.00">om/language/element.cpp</text>
</a>
</g>
</g>
<!-- Node4&#45;&gt;Node21 -->
<g id="edge29" class="edge"><title>Node4&#45;&gt;Node21</title>
<path fill="none" stroke="midnightblue" d="M977.826,-249.894C987.748,-239.411 1009,-220.979 1025.69,-208.16"/>
<polygon fill="midnightblue" stroke="midnightblue" points="1027.99,-210.816 1033.92,-202.04 1023.81,-205.2 1027.99,-210.816"/>
</g>
<!-- Node6 -->
<g id="node6" class="node"><title>Node6</title>
<g id="a_node6"><a xlink:href="giveable_8hpp.html" target="_top" xlink:title="Om header file.">
<polygon fill="none" stroke="black" points="528.308,-118 528.308,-136 617.692,-136 617.692,-118 528.308,-118"/>
<text text-anchor="middle" x="573" y="-124" font-family="Helvetica,sans-Serif" font-size="10.00">om/giveable.hpp</text>
</a>
</g>
</g>
<!-- Node5&#45;&gt;Node6 -->
<g id="edge5" class="edge"><title>Node5&#45;&gt;Node6</title>
<path fill="none" stroke="midnightblue" d="M848.335,-183.929C793.824,-174.816 703.837,-159.026 627,-142 622.228,-140.943 617.239,-139.758 612.303,-138.537"/>
<polygon fill="midnightblue" stroke="midnightblue" points="612.889,-135.075 602.335,-136.011 611.169,-141.861 612.889,-135.075"/>
</g>
<!-- Node13 -->
<g id="node13" class="node"><title>Node13</title>
<g id="a_node13"><a xlink:href="consumer_8hpp.html" target="_top" xlink:title="Om header file.">
<polygon fill="none" stroke="black" points="760.289,-118 760.289,-136 899.711,-136 899.711,-118 760.289,-118"/>
<text text-anchor="middle" x="830" y="-124" font-family="Helvetica,sans-Serif" font-size="10.00">om/language/consumer.hpp</text>
</a>
</g>
</g>
<!-- Node5&#45;&gt;Node13 -->
<g id="edge16" class="edge"><title>Node5&#45;&gt;Node13</title>
<path fill="none" stroke="midnightblue" d="M889.388,-183.894C878.615,-173.755 859.942,-156.181 846.405,-143.44"/>
<polygon fill="midnightblue" stroke="midnightblue" points="848.438,-140.547 838.757,-136.242 843.64,-145.644 848.438,-140.547"/>
</g>
<!-- Node15 -->
<g id="node15" class="node"><title>Node15</title>
<g id="a_node15"><a xlink:href="producer_8hpp.html" target="_top" xlink:title="Om header file.">
<polygon fill="none" stroke="black" points="1032.51,-118 1032.51,-136 1167.49,-136 1167.49,-118 1032.51,-118"/>
<text text-anchor="middle" x="1100" y="-124" font-family="Helvetica,sans-Serif" font-size="10.00">om/language/producer.hpp</text>
</a>
</g>
</g>
<!-- Node5&#45;&gt;Node15 -->
<g id="edge19" class="edge"><title>Node5&#45;&gt;Node15</title>
<path fill="none" stroke="midnightblue" d="M923.583,-183.894C959.403,-172.545 1024.63,-151.881 1064.94,-139.107"/>
<polygon fill="midnightblue" stroke="midnightblue" points="1066.15,-142.397 1074.62,-136.04 1064.03,-135.724 1066.15,-142.397"/>
</g>
<!-- Node17 -->
<g id="node17" class="node"><title>Node17</title>
<g id="a_node17"><a xlink:href="shareable_8hpp.html" target="_top" xlink:title="Om header file.">
<polygon fill="none" stroke="black" points="917.973,-118 917.973,-136 1014.03,-136 1014.03,-118 917.973,-118"/>
<text text-anchor="middle" x="966" y="-124" font-family="Helvetica,sans-Serif" font-size="10.00">om/shareable.hpp</text>
</a>
</g>
</g>
<!-- Node5&#45;&gt;Node17 -->
<g id="edge23" class="edge"><title>Node5&#45;&gt;Node17</title>
<path fill="none" stroke="midnightblue" d="M906.612,-183.894C917.385,-173.755 936.058,-156.181 949.595,-143.44"/>
<polygon fill="midnightblue" stroke="midnightblue" points="952.36,-145.644 957.243,-136.242 947.562,-140.547 952.36,-145.644"/>
</g>
<!-- Node20 -->
<g id="node20" class="node"><title>Node20</title>
<g id="a_node20"><a xlink:href="program_8cpp.html" target="_top" xlink:title="Om source file.">
<polygon fill="none" stroke="black" points="1185.63,-118 1185.63,-136 1318.37,-136 1318.37,-118 1185.63,-118"/>
<text text-anchor="middle" x="1252" y="-124" font-family="Helvetica,sans-Serif" font-size="10.00">om/language/program.cpp</text>
</a>
</g>
</g>
<!-- Node5&#45;&gt;Node20 -->
<g id="edge27" class="edge"><title>Node5&#45;&gt;Node20</title>
<path fill="none" stroke="midnightblue" d="M932.097,-183.938C942.341,-181.976 953.575,-179.897 964,-178 1054.15,-161.593 1076.83,-158.3 1167,-142 1174.34,-140.672 1182.08,-139.261 1189.8,-137.864"/>
<polygon fill="midnightblue" stroke="midnightblue" points="1190.66,-141.265 1199.88,-136.046 1189.42,-134.376 1190.66,-141.265"/>
</g>
<!-- Node7 -->
<g id="node7" class="node"><title>Node7</title>
<g id="a_node7"><a xlink:href="copyable_8hpp.html" target="_top" xlink:title="Om header file.">
<polygon fill="none" stroke="black" points="527.919,-57 527.919,-75 620.081,-75 620.081,-57 527.919,-57"/>
<text text-anchor="middle" x="574" y="-63" font-family="Helvetica,sans-Serif" font-size="10.00">om/copyable.hpp</text>
</a>
</g>
</g>
<!-- Node6&#45;&gt;Node7 -->
<g id="edge6" class="edge"><title>Node6&#45;&gt;Node7</title>
<path fill="none" stroke="midnightblue" d="M573.139,-117.796C573.281,-109.43 573.506,-96.1713 573.69,-85.2974"/>
<polygon fill="midnightblue" stroke="midnightblue" points="577.192,-85.1919 573.862,-75.134 570.193,-85.0732 577.192,-85.1919"/>
</g>
<!-- Node10 -->
<g id="node10" class="node"><title>Node10</title>
<g id="a_node10"><a xlink:href="moveable_8hpp.html" target="_top" xlink:title="Om header file.">
<polygon fill="none" stroke="black" points="269.254,-57 269.254,-75 364.746,-75 364.746,-57 269.254,-57"/>
<text text-anchor="middle" x="317" y="-63" font-family="Helvetica,sans-Serif" font-size="10.00">om/moveable.hpp</text>
</a>
</g>
</g>
<!-- Node6&#45;&gt;Node10 -->
<g id="edge10" class="edge"><title>Node6&#45;&gt;Node10</title>
<path fill="none" stroke="midnightblue" d="M542.204,-117.994C534.325,-115.991 525.858,-113.879 518,-112 465.579,-99.463 405.208,-86.0894 364.421,-77.2104"/>
<polygon fill="midnightblue" stroke="midnightblue" points="365.006,-73.7557 354.49,-75.0531 363.52,-80.5962 365.006,-73.7557"/>
</g>
<!-- Node12 -->
<g id="node12" class="node"><title>Node12</title>
<g id="a_node12"><a xlink:href="giveable_8cpp.html" target="_top" xlink:title="Om source file.">
<polygon fill="none" stroke="black" points="637.589,-57 637.589,-75 726.411,-75 726.411,-57 637.589,-57"/>
<text text-anchor="middle" x="682" y="-63" font-family="Helvetica,sans-Serif" font-size="10.00">om/giveable.cpp</text>
</a>
</g>
</g>
<!-- Node6&#45;&gt;Node12 -->
<g id="edge14" class="edge"><title>Node6&#45;&gt;Node12</title>
<path fill="none" stroke="midnightblue" d="M583.311,-117.796C599.377,-107.889 630.09,-91.1204 653.12,-79.5764"/>
<polygon fill="midnightblue" stroke="midnightblue" points="654.718,-82.6911 662.144,-75.134 651.626,-76.4109 654.718,-82.6911"/>
</g>
<!-- Node8 -->
<g id="node8" class="node"><title>Node8</title>
<g id="a_node8"><a xlink:title=" ">
<polygon fill="none" stroke="#bfbfbf" points="457.943,-1 457.943,-19 510.057,-19 510.057,-1 457.943,-1"/>
<text text-anchor="middle" x="484" y="-7" font-family="Helvetica,sans-Serif" font-size="10.00">memory</text>
</a>
</g>
</g>
<!-- Node7&#45;&gt;Node8 -->
<g id="edge7" class="edge"><title>Node7&#45;&gt;Node8</title>
<path fill="none" stroke="midnightblue" d="M560.331,-56.7986C545.975,-48.1851 523.174,-34.5043 506.226,-24.3354"/>
<polygon fill="midnightblue" stroke="midnightblue" points="507.879,-21.2455 497.503,-19.1017 504.277,-27.2479 507.879,-21.2455"/>
</g>
<!-- Node9 -->
<g id="node9" class="node"><title>Node9</title>
<g id="a_node9"><a xlink:href="copyable_8cpp.html" target="_top" xlink:title="Om source file.">
<polygon fill="none" stroke="black" points="528.2,-1 528.2,-19 619.8,-19 619.8,-1 528.2,-1"/>
<text text-anchor="middle" x="574" y="-7" font-family="Helvetica,sans-Serif" font-size="10.00">om/copyable.cpp</text>
</a>
</g>
</g>
<!-- Node7&#45;&gt;Node9 -->
<g id="edge8" class="edge"><title>Node7&#45;&gt;Node9</title>
<path fill="none" stroke="midnightblue" d="M568.938,-56.5625C567.325,-49.308 566.868,-38.5884 567.566,-29.3691"/>
<polygon fill="midnightblue" stroke="midnightblue" points="571.069,-29.5903 568.991,-19.2014 564.137,-28.6192 571.069,-29.5903"/>
</g>
<!-- Node9&#45;&gt;Node7 -->
<g id="edge9" class="edge"><title>Node9&#45;&gt;Node7</title>
<path fill="none" stroke="midnightblue" d="M579.009,-19.2014C580.665,-26.4586 581.139,-37.3129 580.433,-46.6333"/>
<polygon fill="midnightblue" stroke="midnightblue" points="576.963,-46.1777 579.062,-56.5625 583.897,-47.1352 576.963,-46.1777"/>
</g>
<!-- Node10&#45;&gt;Node8 -->
<g id="edge11" class="edge"><title>Node10&#45;&gt;Node8</title>
<path fill="none" stroke="midnightblue" d="M342.002,-56.9157C370.492,-47.7032 417.242,-32.5863 449.263,-22.2322"/>
<polygon fill="midnightblue" stroke="midnightblue" points="450.663,-25.4583 459.101,-19.0513 448.509,-18.7978 450.663,-25.4583"/>
</g>
<!-- Node11 -->
<g id="node11" class="node"><title>Node11</title>
<g id="a_node11"><a xlink:href="moveable_8cpp.html" target="_top" xlink:title="Om source file.">
<polygon fill="none" stroke="black" points="269.535,-1 269.535,-19 364.465,-19 364.465,-1 269.535,-1"/>
<text text-anchor="middle" x="317" y="-7" font-family="Helvetica,sans-Serif" font-size="10.00">om/moveable.cpp</text>
</a>
</g>
</g>
<!-- Node10&#45;&gt;Node11 -->
<g id="edge12" class="edge"><title>Node10&#45;&gt;Node11</title>
<path fill="none" stroke="midnightblue" d="M311.938,-56.5625C310.325,-49.308 309.868,-38.5884 310.566,-29.3691"/>
<polygon fill="midnightblue" stroke="midnightblue" points="314.069,-29.5903 311.991,-19.2014 307.137,-28.6192 314.069,-29.5903"/>
</g>
<!-- Node11&#45;&gt;Node10 -->
<g id="edge13" class="edge"><title>Node11&#45;&gt;Node10</title>
<path fill="none" stroke="midnightblue" d="M322.009,-19.2014C323.665,-26.4586 324.139,-37.3129 323.433,-46.6333"/>
<polygon fill="midnightblue" stroke="midnightblue" points="319.963,-46.1777 322.062,-56.5625 326.897,-47.1352 319.963,-46.1777"/>
</g>
<!-- Node12&#45;&gt;Node6 -->
<g id="edge15" class="edge"><title>Node12&#45;&gt;Node6</title>
<path fill="none" stroke="midnightblue" d="M671.741,-75.1717C655.666,-85.0893 624.844,-101.917 601.778,-113.475"/>
<polygon fill="midnightblue" stroke="midnightblue" points="600.171,-110.364 592.744,-117.92 603.262,-116.645 600.171,-110.364"/>
</g>
<!-- Node14 -->
<g id="node14" class="node"><title>Node14</title>
<g id="a_node14"><a xlink:href="consumer_8cpp.html" target="_top" xlink:title="Om source file.">
<polygon fill="none" stroke="black" points="744.569,-57 744.569,-75 883.431,-75 883.431,-57 744.569,-57"/>
<text text-anchor="middle" x="814" y="-63" font-family="Helvetica,sans-Serif" font-size="10.00">om/language/consumer.cpp</text>
</a>
</g>
</g>
<!-- Node13&#45;&gt;Node14 -->
<g id="edge17" class="edge"><title>Node13&#45;&gt;Node14</title>
<path fill="none" stroke="midnightblue" d="M822.93,-117.796C818.772,-109.43 814.693,-96.1713 812.665,-85.2974"/>
<polygon fill="midnightblue" stroke="midnightblue" points="816.106,-84.6146 811.377,-75.134 809.162,-85.4947 816.106,-84.6146"/>
</g>
<!-- Node14&#45;&gt;Node13 -->
<g id="edge18" class="edge"><title>Node14&#45;&gt;Node13</title>
<path fill="none" stroke="midnightblue" d="M821.035,-75.134C825.193,-83.4728 829.279,-96.7247 831.318,-107.612"/>
<polygon fill="midnightblue" stroke="midnightblue" points="827.88,-108.321 832.62,-117.796 834.824,-107.433 827.88,-108.321"/>
</g>
<!-- Node15&#45;&gt;Node8 -->
<g id="edge20" class="edge"><title>Node15&#45;&gt;Node8</title>
<path fill="none" stroke="midnightblue" d="M1099.44,-117.83C1097.92,-102.754 1092.34,-70.7579 1072,-56 1024.16,-21.2886 614.598,-28.9931 520.36,-19.5848"/>
<polygon fill="midnightblue" stroke="midnightblue" points="520.621,-16.0902 510.263,-18.3139 519.747,-23.0354 520.621,-16.0902"/>
</g>
<!-- Node16 -->
<g id="node16" class="node"><title>Node16</title>
<g id="a_node16"><a xlink:href="producer_8cpp.html" target="_top" xlink:title="Om source file.">
<polygon fill="none" stroke="black" points="1119.79,-57 1119.79,-75 1254.21,-75 1254.21,-57 1119.79,-57"/>
<text text-anchor="middle" x="1187" y="-63" font-family="Helvetica,sans-Serif" font-size="10.00">om/language/producer.cpp</text>
</a>
</g>
</g>
<!-- Node15&#45;&gt;Node16 -->
<g id="edge21" class="edge"><title>Node15&#45;&gt;Node16</title>
<path fill="none" stroke="midnightblue" d="M1107.25,-117.796C1119.35,-108.109 1143,-91.8623 1161.55,-80.3536"/>
<polygon fill="midnightblue" stroke="midnightblue" points="1163.43,-83.3064 1170.18,-75.134 1159.81,-77.3179 1163.43,-83.3064"/>
</g>
<!-- Node16&#45;&gt;Node15 -->
<g id="edge22" class="edge"><title>Node16&#45;&gt;Node15</title>
<path fill="none" stroke="midnightblue" d="M1179.83,-75.134C1167.79,-84.7894 1144.16,-101.032 1125.58,-112.563"/>
<polygon fill="midnightblue" stroke="midnightblue" points="1123.68,-109.622 1116.94,-117.796 1127.31,-115.609 1123.68,-109.622"/>
</g>
<!-- Node18 -->
<g id="node18" class="node"><title>Node18</title>
<g id="a_node18"><a xlink:title=" ">
<polygon fill="none" stroke="#bfbfbf" points="901.879,-57 901.879,-75 950.121,-75 950.121,-57 901.879,-57"/>
<text text-anchor="middle" x="926" y="-63" font-family="Helvetica,sans-Serif" font-size="10.00">cstddef</text>
</a>
</g>
</g>
<!-- Node17&#45;&gt;Node18 -->
<g id="edge24" class="edge"><title>Node17&#45;&gt;Node18</title>
<path fill="none" stroke="midnightblue" d="M960.438,-117.796C954.468,-108.99 944.822,-94.7621 937.255,-83.6013"/>
<polygon fill="midnightblue" stroke="midnightblue" points="940.023,-81.4471 931.515,-75.134 934.229,-85.3752 940.023,-81.4471"/>
</g>
<!-- Node19 -->
<g id="node19" class="node"><title>Node19</title>
<g id="a_node19"><a xlink:href="shareable_8cpp.html" target="_top" xlink:title="Om source file.">
<polygon fill="none" stroke="black" points="968.254,-57 968.254,-75 1063.75,-75 1063.75,-57 968.254,-57"/>
<text text-anchor="middle" x="1016" y="-63" font-family="Helvetica,sans-Serif" font-size="10.00">om/shareable.cpp</text>
</a>
</g>
</g>
<!-- Node17&#45;&gt;Node19 -->
<g id="edge25" class="edge"><title>Node17&#45;&gt;Node19</title>
<path fill="none" stroke="midnightblue" d="M968.107,-117.796C973.801,-108.638 986.147,-93.6152 997.055,-82.2773"/>
<polygon fill="midnightblue" stroke="midnightblue" points="999.629,-84.6546 1004.28,-75.134 994.706,-79.6777 999.629,-84.6546"/>
</g>
<!-- Node19&#45;&gt;Node17 -->
<g id="edge26" class="edge"><title>Node19&#45;&gt;Node17</title>
<path fill="none" stroke="midnightblue" d="M1013.94,-75.134C1008.28,-84.2628 995.943,-99.2797 985.028,-110.636"/>
<polygon fill="midnightblue" stroke="midnightblue" points="982.44,-108.273 977.797,-117.796 987.366,-113.247 982.44,-108.273"/>
</g>
<!-- Node20&#45;&gt;Node5 -->
<g id="edge28" class="edge"><title>Node20&#45;&gt;Node5</title>
<path fill="none" stroke="midnightblue" d="M1217.33,-136.046C1206.94,-138.007 1195.56,-140.091 1185,-142 1094.83,-158.3 1072.15,-161.593 982,-178 974.751,-179.319 967.111,-180.726 959.501,-182.12"/>
<polygon fill="midnightblue" stroke="midnightblue" points="958.756,-178.698 949.548,-183.938 960.014,-185.585 958.756,-178.698"/>
</g>
<!-- Node21&#45;&gt;Node4 -->
<g id="edge30" class="edge"><title>Node21&#45;&gt;Node4</title>
<path fill="none" stroke="midnightblue" d="M1043.05,-202.242C1033.08,-212.736 1011.97,-231.035 995.365,-243.796"/>
<polygon fill="midnightblue" stroke="midnightblue" points="993.104,-241.116 987.172,-249.894 997.284,-246.731 993.104,-241.116"/>
</g>
<!-- Node22&#45;&gt;Node3 -->
<g id="edge32" class="edge"><title>Node22&#45;&gt;Node3</title>
<path fill="none" stroke="midnightblue" d="M1111.43,-268.242C1102.04,-278.64 1082.08,-296.699 1066.14,-309.444"/>
<polygon fill="midnightblue" stroke="midnightblue" points="1063.57,-307.011 1057.79,-315.894 1067.85,-312.55 1063.57,-307.011"/>
</g>
<!-- Node24 -->
<g id="node24" class="node"><title>Node24</title>
<g id="a_node24"><a xlink:href="default__program_8hpp.html" target="_top" xlink:title="Om header file.">
<polygon fill="none" stroke="black" points="392.688,-245 392.688,-273 499.312,-273 499.312,-245 392.688,-245"/>
<text text-anchor="start" x="400.688" y="-261" font-family="Helvetica,sans-Serif" font-size="10.00">om/language/default</text>
<text text-anchor="middle" x="446" y="-251" font-family="Helvetica,sans-Serif" font-size="10.00">_program.hpp</text>
</a>
</g>
</g>
<!-- Node23&#45;&gt;Node24 -->
<g id="edge34" class="edge"><title>Node23&#45;&gt;Node24</title>
<path fill="none" stroke="midnightblue" d="M687.578,-312.41C637.507,-301.547 562.612,-285.299 509.506,-273.778"/>
<polygon fill="midnightblue" stroke="midnightblue" points="510.037,-270.311 499.522,-271.612 508.553,-277.152 510.037,-270.311"/>
</g>
<!-- Node36 -->
<g id="node36" class="node"><title>Node36</title>
<g id="a_node36"><a xlink:href="default__element_8cpp.html" target="_top" xlink:title="Om source file.">
<polygon fill="none" stroke="black" points="687.688,-245 687.688,-273 794.312,-273 794.312,-245 687.688,-245"/>
<text text-anchor="start" x="695.688" y="-261" font-family="Helvetica,sans-Serif" font-size="10.00">om/language/default</text>
<text text-anchor="middle" x="741" y="-251" font-family="Helvetica,sans-Serif" font-size="10.00">_element.cpp</text>
</a>
</g>
</g>
<!-- Node23&#45;&gt;Node36 -->
<g id="edge57" class="edge"><title>Node23&#45;&gt;Node36</title>
<path fill="none" stroke="midnightblue" d="M735.407,-310.739C734.298,-302.844 733.986,-292.6 734.472,-283.386"/>
<polygon fill="midnightblue" stroke="midnightblue" points="737.974,-283.524 735.41,-273.244 731.004,-282.879 737.974,-283.524"/>
</g>
<!-- Node24&#45;&gt;Node5 -->
<g id="edge51" class="edge"><title>Node24&#45;&gt;Node5</title>
<path fill="none" stroke="midnightblue" d="M499.625,-250.407C582.375,-238.69 741.034,-216.225 831.148,-203.466"/>
<polygon fill="midnightblue" stroke="midnightblue" points="831.842,-206.902 841.253,-202.035 830.861,-199.972 831.842,-206.902"/>
</g>
<!-- Node25 -->
<g id="node25" class="node"><title>Node25</title>
<g id="a_node25"><a xlink:href="default__giveable_8hpp.html" target="_top" xlink:title="Om header file.">
<polygon fill="none" stroke="black" points="383.515,-184 383.515,-202 508.485,-202 508.485,-184 383.515,-184"/>
<text text-anchor="middle" x="446" y="-190" font-family="Helvetica,sans-Serif" font-size="10.00">om/default_giveable.hpp</text>
</a>
</g>
</g>
<!-- Node24&#45;&gt;Node25 -->
<g id="edge35" class="edge"><title>Node24&#45;&gt;Node25</title>
<path fill="none" stroke="midnightblue" d="M446,-244.739C446,-235.382 446,-222.725 446,-212.393"/>
<polygon fill="midnightblue" stroke="midnightblue" points="449.5,-212.361 446,-202.361 442.5,-212.361 449.5,-212.361"/>
</g>
<!-- Node31 -->
<g id="node31" class="node"><title>Node31</title>
<g id="a_node31"><a xlink:href="default__consumer_8hpp.html" target="_top" xlink:title="Om header file.">
<polygon fill="none" stroke="black" points="635.688,-179 635.688,-207 742.312,-207 742.312,-179 635.688,-179"/>
<text text-anchor="start" x="643.688" y="-195" font-family="Helvetica,sans-Serif" font-size="10.00">om/language/default</text>
<text text-anchor="middle" x="689" y="-185" font-family="Helvetica,sans-Serif" font-size="10.00">_consumer.hpp</text>
</a>
</g>
</g>
<!-- Node24&#45;&gt;Node31 -->
<g id="edge47" class="edge"><title>Node24&#45;&gt;Node31</title>
<path fill="none" stroke="midnightblue" d="M495.468,-244.972C534.312,-234.741 588.529,-220.461 629.7,-209.618"/>
<polygon fill="midnightblue" stroke="midnightblue" points="630.823,-212.942 639.602,-207.01 629.04,-206.173 630.823,-212.942"/>
</g>
<!-- Node33 -->
<g id="node33" class="node"><title>Node33</title>
<g id="a_node33"><a xlink:href="taker_8hpp.html" target="_top" xlink:title="Om header file.">
<polygon fill="none" stroke="black" points="-0.908691,-184 -0.908691,-202 72.9087,-202 72.9087,-184 -0.908691,-184"/>
<text text-anchor="middle" x="36" y="-190" font-family="Helvetica,sans-Serif" font-size="10.00">om/taker.hpp</text>
</a>
</g>
</g>
<!-- Node24&#45;&gt;Node33 -->
<g id="edge52" class="edge"><title>Node24&#45;&gt;Node33</title>
<path fill="none" stroke="midnightblue" d="M392.4,-249.633C311.652,-237.029 160.098,-213.371 83.2555,-201.376"/>
<polygon fill="midnightblue" stroke="midnightblue" points="83.3439,-197.848 72.9237,-199.764 82.2642,-204.764 83.3439,-197.848"/>
</g>
<!-- Node35 -->
<g id="node35" class="node"><title>Node35</title>
<g id="a_node35"><a xlink:href="default__program_8cpp.html" target="_top" xlink:title="Om source file.">
<polygon fill="none" stroke="black" points="258.688,-179 258.688,-207 365.312,-207 365.312,-179 258.688,-179"/>
<text text-anchor="start" x="266.688" y="-195" font-family="Helvetica,sans-Serif" font-size="10.00">om/language/default</text>
<text text-anchor="middle" x="312" y="-185" font-family="Helvetica,sans-Serif" font-size="10.00">_program.cpp</text>
</a>
</g>
</g>
<!-- Node24&#45;&gt;Node35 -->
<g id="edge55" class="edge"><title>Node24&#45;&gt;Node35</title>
<path fill="none" stroke="midnightblue" d="M412.989,-244.894C391.572,-235.317 363.973,-222.221 342.973,-211.713"/>
<polygon fill="midnightblue" stroke="midnightblue" points="344.338,-208.481 333.835,-207.088 341.177,-214.727 344.338,-208.481"/>
</g>
<!-- Node25&#45;&gt;Node6 -->
<g id="edge44" class="edge"><title>Node25&#45;&gt;Node6</title>
<path fill="none" stroke="midnightblue" d="M462.085,-183.894C483.746,-172.978 522.511,-153.443 547.993,-140.602"/>
<polygon fill="midnightblue" stroke="midnightblue" points="549.691,-143.666 557.046,-136.04 546.541,-137.415 549.691,-143.666"/>
</g>
<!-- Node26 -->
<g id="node26" class="node"><title>Node26</title>
<g id="a_node26"><a xlink:href="default__copyable_8hpp.html" target="_top" xlink:title="Om header file.">
<polygon fill="none" stroke="black" points="382.126,-118 382.126,-136 509.874,-136 509.874,-118 382.126,-118"/>
<text text-anchor="middle" x="446" y="-124" font-family="Helvetica,sans-Serif" font-size="10.00">om/default_copyable.hpp</text>
</a>
</g>
</g>
<!-- Node25&#45;&gt;Node26 -->
<g id="edge36" class="edge"><title>Node25&#45;&gt;Node26</title>
<path fill="none" stroke="midnightblue" d="M446,-183.894C446,-174.52 446,-158.791 446,-146.402"/>
<polygon fill="midnightblue" stroke="midnightblue" points="449.5,-146.242 446,-136.242 442.5,-146.242 449.5,-146.242"/>
</g>
<!-- Node28 -->
<g id="node28" class="node"><title>Node28</title>
<g id="a_node28"><a xlink:href="default__moveable_8hpp.html" target="_top" xlink:title="Om header file.">
<polygon fill="none" stroke="black" points="233.461,-118 233.461,-136 364.539,-136 364.539,-118 233.461,-118"/>
<text text-anchor="middle" x="299" y="-124" font-family="Helvetica,sans-Serif" font-size="10.00">om/default_moveable.hpp</text>
</a>
</g>
</g>
<!-- Node25&#45;&gt;Node28 -->
<g id="edge40" class="edge"><title>Node25&#45;&gt;Node28</title>
<path fill="none" stroke="midnightblue" d="M427.382,-183.894C401.978,-172.834 356.251,-152.925 326.783,-140.096"/>
<polygon fill="midnightblue" stroke="midnightblue" points="328.032,-136.823 317.466,-136.04 325.238,-143.241 328.032,-136.823"/>
</g>
<!-- Node30 -->
<g id="node30" class="node"><title>Node30</title>
<g id="a_node30"><a xlink:href="default__giveable_8cpp.html" target="_top" xlink:title="Om source file.">
<polygon fill="none" stroke="black" points="90.7959,-118 90.7959,-136 215.204,-136 215.204,-118 90.7959,-118"/>
<text text-anchor="middle" x="153" y="-124" font-family="Helvetica,sans-Serif" font-size="10.00">om/default_giveable.cpp</text>
</a>
</g>
</g>
<!-- Node25&#45;&gt;Node30 -->
<g id="edge45" class="edge"><title>Node25&#45;&gt;Node30</title>
<path fill="none" stroke="midnightblue" d="M404.53,-183.959C348.948,-172.392 251.091,-151.051 195.165,-138.329"/>
<polygon fill="midnightblue" stroke="midnightblue" points="195.758,-134.875 185.229,-136.058 194.198,-141.699 195.758,-134.875"/>
</g>
<!-- Node26&#45;&gt;Node7 -->
<g id="edge37" class="edge"><title>Node26&#45;&gt;Node7</title>
<path fill="none" stroke="midnightblue" d="M463.529,-117.92C485.048,-108.001 521.773,-91.0734 546.928,-79.4784"/>
<polygon fill="midnightblue" stroke="midnightblue" points="548.655,-82.5365 556.271,-75.1717 545.725,-76.1793 548.655,-82.5365"/>
</g>
<!-- Node27 -->
<g id="node27" class="node"><title>Node27</title>
<g id="a_node27"><a xlink:href="default__copyable_8cpp.html" target="_top" xlink:title="Om source file.">
<polygon fill="none" stroke="black" points="382.407,-57 382.407,-75 509.593,-75 509.593,-57 382.407,-57"/>
<text text-anchor="middle" x="446" y="-63" font-family="Helvetica,sans-Serif" font-size="10.00">om/default_copyable.cpp</text>
</a>
</g>
</g>
<!-- Node26&#45;&gt;Node27 -->
<g id="edge38" class="edge"><title>Node26&#45;&gt;Node27</title>
<path fill="none" stroke="midnightblue" d="M441.155,-117.796C439.266,-109.43 438.782,-96.1713 439.703,-85.2974"/>
<polygon fill="midnightblue" stroke="midnightblue" points="443.205,-85.5317 441.171,-75.134 436.277,-84.5308 443.205,-85.5317"/>
</g>
<!-- Node27&#45;&gt;Node26 -->
<g id="edge39" class="edge"><title>Node27&#45;&gt;Node26</title>
<path fill="none" stroke="midnightblue" d="M450.829,-75.134C452.726,-83.4728 453.218,-96.7247 452.305,-107.612"/>
<polygon fill="midnightblue" stroke="midnightblue" points="448.8,-107.401 450.845,-117.796 455.729,-108.394 448.8,-107.401"/>
</g>
<!-- Node28&#45;&gt;Node10 -->
<g id="edge41" class="edge"><title>Node28&#45;&gt;Node10</title>
<path fill="none" stroke="midnightblue" d="M301.503,-117.796C304.082,-109.342 308.186,-95.8916 311.522,-84.9548"/>
<polygon fill="midnightblue" stroke="midnightblue" points="314.948,-85.7201 314.518,-75.134 308.253,-83.6775 314.948,-85.7201"/>
</g>
<!-- Node29 -->
<g id="node29" class="node"><title>Node29</title>
<g id="a_node29"><a xlink:href="default__moveable_8cpp.html" target="_top" xlink:title="Om source file.">
<polygon fill="none" stroke="black" points="120.742,-57 120.742,-75 251.258,-75 251.258,-57 120.742,-57"/>
<text text-anchor="middle" x="186" y="-63" font-family="Helvetica,sans-Serif" font-size="10.00">om/default_moveable.cpp</text>
</a>
</g>
</g>
<!-- Node28&#45;&gt;Node29 -->
<g id="edge42" class="edge"><title>Node28&#45;&gt;Node29</title>
<path fill="none" stroke="midnightblue" d="M278.708,-117.92C257.912,-108.221 226.19,-91.819 205.645,-80.2557"/>
<polygon fill="midnightblue" stroke="midnightblue" points="207.226,-77.1271 196.813,-75.1717 203.734,-83.1939 207.226,-77.1271"/>
</g>
<!-- Node29&#45;&gt;Node28 -->
<g id="edge43" class="edge"><title>Node29&#45;&gt;Node28</title>
<path fill="none" stroke="midnightblue" d="M206.408,-75.134C227.191,-84.8333 258.804,-101.18 279.312,-112.72"/>
<polygon fill="midnightblue" stroke="midnightblue" points="277.72,-115.842 288.133,-117.796 281.211,-109.775 277.72,-115.842"/>
</g>
<!-- Node30&#45;&gt;Node25 -->
<g id="edge46" class="edge"><title>Node30&#45;&gt;Node25</title>
<path fill="none" stroke="midnightblue" d="M194.554,-136.058C250.178,-147.636 348.035,-168.977 403.92,-181.69"/>
<polygon fill="midnightblue" stroke="midnightblue" points="403.318,-185.143 413.847,-183.959 404.878,-178.319 403.318,-185.143"/>
</g>
<!-- Node31&#45;&gt;Node13 -->
<g id="edge48" class="edge"><title>Node31&#45;&gt;Node13</title>
<path fill="none" stroke="midnightblue" d="M717.874,-178.894C742.8,-167.58 778.542,-151.357 802.928,-140.288"/>
<polygon fill="midnightblue" stroke="midnightblue" points="804.644,-143.353 812.303,-136.033 801.75,-136.979 804.644,-143.353"/>
</g>
<!-- Node32 -->
<g id="node32" class="node"><title>Node32</title>
<g id="a_node32"><a xlink:href="default__consumer_8cpp.html" target="_top" xlink:title="Om source file.">
<polygon fill="none" stroke="black" points="635.688,-113 635.688,-141 742.312,-141 742.312,-113 635.688,-113"/>
<text text-anchor="start" x="643.688" y="-129" font-family="Helvetica,sans-Serif" font-size="10.00">om/language/default</text>
<text text-anchor="middle" x="689" y="-119" font-family="Helvetica,sans-Serif" font-size="10.00">_consumer.cpp</text>
</a>
</g>
</g>
<!-- Node31&#45;&gt;Node32 -->
<g id="edge49" class="edge"><title>Node31&#45;&gt;Node32</title>
<path fill="none" stroke="midnightblue" d="M683.407,-178.739C682.298,-170.844 681.986,-160.6 682.472,-151.386"/>
<polygon fill="midnightblue" stroke="midnightblue" points="685.974,-151.524 683.41,-141.244 679.004,-150.879 685.974,-151.524"/>
</g>
<!-- Node32&#45;&gt;Node31 -->
<g id="edge50" class="edge"><title>Node32&#45;&gt;Node31</title>
<path fill="none" stroke="midnightblue" d="M694.59,-141.244C695.701,-149.135 696.014,-159.379 695.529,-168.595"/>
<polygon fill="midnightblue" stroke="midnightblue" points="692.026,-168.46 694.593,-178.739 698.997,-169.103 692.026,-168.46"/>
</g>
<!-- Node34 -->
<g id="node34" class="node"><title>Node34</title>
<g id="a_node34"><a xlink:href="taker_8cpp.html" target="_top" xlink:title="Om source file.">
<polygon fill="none" stroke="black" points="-0.62793,-118 -0.62793,-136 72.6279,-136 72.6279,-118 -0.62793,-118"/>
<text text-anchor="middle" x="36" y="-124" font-family="Helvetica,sans-Serif" font-size="10.00">om/taker.cpp</text>
</a>
</g>
</g>
<!-- Node33&#45;&gt;Node34 -->
<g id="edge53" class="edge"><title>Node33&#45;&gt;Node34</title>
<path fill="none" stroke="midnightblue" d="M31.3268,-183.894C29.2145,-174.52 28.7135,-158.791 29.8237,-146.402"/>
<polygon fill="midnightblue" stroke="midnightblue" points="33.3257,-146.641 31.2963,-136.242 26.3981,-145.637 33.3257,-146.641"/>
</g>
<!-- Node34&#45;&gt;Node33 -->
<g id="edge54" class="edge"><title>Node34&#45;&gt;Node33</title>
<path fill="none" stroke="midnightblue" d="M40.7037,-136.242C42.8004,-145.677 43.2858,-161.421 42.16,-173.777"/>
<polygon fill="midnightblue" stroke="midnightblue" points="38.6645,-173.492 40.6732,-183.894 45.5901,-174.51 38.6645,-173.492"/>
</g>
<!-- Node35&#45;&gt;Node24 -->
<g id="edge56" class="edge"><title>Node35&#45;&gt;Node24</title>
<path fill="none" stroke="midnightblue" d="M344.972,-207.088C366.381,-216.661 393.981,-229.756 414.988,-240.268"/>
<polygon fill="midnightblue" stroke="midnightblue" points="413.628,-243.502 424.131,-244.894 416.788,-237.256 413.628,-243.502"/>
</g>
<!-- Node36&#45;&gt;Node23 -->
<g id="edge58" class="edge"><title>Node36&#45;&gt;Node23</title>
<path fill="none" stroke="midnightblue" d="M746.59,-273.244C747.701,-281.135 748.014,-291.379 747.529,-300.595"/>
<polygon fill="midnightblue" stroke="midnightblue" points="744.026,-300.46 746.593,-310.739 750.997,-301.103 744.026,-300.46"/>
</g>
</g>
</svg>
