<?xml version="1.0" encoding="UTF-8" standalone="no"?>
<!DOCTYPE svg PUBLIC "-//W3C//DTD SVG 1.1//EN"
 "http://www.w3.org/Graphics/SVG/1.1/DTD/svg11.dtd">
<!-- Generated by graphviz version 2.30.1 (20130221.2233)
 -->
<!-- Title: om/default_atom.cpp Pages: 1 -->
<svg width="1377pt" height="634pt"
 viewBox="0.00 0.00 1377.00 634.00" xmlns="http://www.w3.org/2000/svg" xmlns:xlink="http://www.w3.org/1999/xlink">
<g id="graph0" class="graph" transform="scale(1 1) rotate(0) translate(4 630)">
<title>om/default_atom.cpp</title>
<!-- Node1 -->
<g id="node1" class="node"><title>Node1</title>
<polygon fill="#bfbfbf" stroke="black" points="512.306,-605 512.306,-625 621.694,-625 621.694,-605 512.306,-605"/>
<text text-anchor="middle" x="567" y="-611" font-family="Helvetica,sans-Serif" font-size="10.00">om/default_atom.cpp</text>
</g>
<!-- Node2 -->
<g id="node2" class="node"><title>Node2</title>
<g id="a_node2"><a xlink:href="default__atom_8hpp.html" target="_top" xlink:title="Om header file. ">
<polygon fill="none" stroke="black" points="512.025,-547 512.025,-567 621.975,-567 621.975,-547 512.025,-547"/>
<text text-anchor="middle" x="567" y="-553" font-family="Helvetica,sans-Serif" font-size="10.00">om/default_atom.hpp</text>
</a>
</g>
</g>
<!-- Node1&#45;&gt;Node2 -->
<g id="edge1" class="edge"><title>Node1&#45;&gt;Node2</title>
<path fill="none" stroke="midnightblue" d="M561.834,-604.753C560.308,-597.25 559.884,-586.424 560.564,-577.078"/>
<polygon fill="midnightblue" stroke="midnightblue" points="564.046,-577.444 561.869,-567.075 557.105,-576.538 564.046,-577.444"/>
</g>
<!-- Node3 -->
<g id="node3" class="node"><title>Node3</title>
<g id="a_node3"><a xlink:href="atom_8hpp.html" target="_top" xlink:title="Om header file. ">
<polygon fill="none" stroke="black" points="466.818,-489 466.818,-509 541.182,-509 541.182,-489 466.818,-489"/>
<text text-anchor="middle" x="504" y="-495" font-family="Helvetica,sans-Serif" font-size="10.00">om/atom.hpp</text>
</a>
</g>
</g>
<!-- Node2&#45;&gt;Node3 -->
<g id="edge2" class="edge"><title>Node2&#45;&gt;Node3</title>
<path fill="none" stroke="midnightblue" d="M556.597,-546.753C547.148,-538.353 533.011,-525.787 521.772,-515.798"/>
<polygon fill="midnightblue" stroke="midnightblue" points="524.009,-513.103 514.21,-509.075 519.358,-518.335 524.009,-513.103"/>
</g>
<!-- Node27 -->
<g id="node27" class="node"><title>Node27</title>
<g id="a_node27"><a xlink:href="default__element_8hpp.html" target="_top" xlink:title="Om header file. ">
<polygon fill="none" stroke="black" points="568.353,-489 568.353,-509 691.647,-509 691.647,-489 568.353,-489"/>
<text text-anchor="middle" x="630" y="-495" font-family="Helvetica,sans-Serif" font-size="10.00">om/default_element.hpp</text>
</a>
</g>
</g>
<!-- Node2&#45;&gt;Node27 -->
<g id="edge44" class="edge"><title>Node2&#45;&gt;Node27</title>
<path fill="none" stroke="midnightblue" d="M577.403,-546.753C586.852,-538.353 600.989,-525.787 612.228,-515.798"/>
<polygon fill="midnightblue" stroke="midnightblue" points="614.642,-518.335 619.79,-509.075 609.991,-513.103 614.642,-518.335"/>
</g>
<!-- Node2&#45;&gt;Node1 -->
<g id="edge85" class="edge"><title>Node2&#45;&gt;Node1</title>
<path fill="none" stroke="midnightblue" d="M572.131,-567.075C573.674,-574.526 574.114,-585.338 573.451,-594.707"/>
<polygon fill="midnightblue" stroke="midnightblue" points="569.963,-594.389 572.166,-604.753 576.907,-595.278 569.963,-594.389"/>
</g>
<!-- Node4 -->
<g id="node4" class="node"><title>Node4</title>
<g id="a_node4"><a xlink:href="element_8hpp.html" target="_top" xlink:title="Om header file. ">
<polygon fill="none" stroke="black" points="377.146,-297 377.146,-317 464.854,-317 464.854,-297 377.146,-297"/>
<text text-anchor="middle" x="421" y="-303" font-family="Helvetica,sans-Serif" font-size="10.00">om/element.hpp</text>
</a>
</g>
</g>
<!-- Node3&#45;&gt;Node4 -->
<g id="edge3" class="edge"><title>Node3&#45;&gt;Node4</title>
<path fill="none" stroke="midnightblue" d="M491.786,-488.669C481.426,-480.158 466.873,-466.696 458,-452 433.739,-411.814 425.275,-356.054 422.408,-327.126"/>
<polygon fill="midnightblue" stroke="midnightblue" points="425.891,-326.783 421.538,-317.124 418.918,-327.39 425.891,-326.783"/>
</g>
<!-- Node26 -->
<g id="node26" class="node"><title>Node26</title>
<g id="a_node26"><a xlink:href="atom_8cpp.html" target="_top" xlink:title="Om source file. ">
<polygon fill="none" stroke="black" points="467.099,-431 467.099,-451 540.901,-451 540.901,-431 467.099,-431"/>
<text text-anchor="middle" x="504" y="-437" font-family="Helvetica,sans-Serif" font-size="10.00">om/atom.cpp</text>
</a>
</g>
</g>
<!-- Node3&#45;&gt;Node26 -->
<g id="edge42" class="edge"><title>Node3&#45;&gt;Node26</title>
<path fill="none" stroke="midnightblue" d="M498.834,-488.753C497.308,-481.25 496.884,-470.424 497.564,-461.078"/>
<polygon fill="midnightblue" stroke="midnightblue" points="501.046,-461.444 498.869,-451.075 494.105,-460.538 501.046,-461.444"/>
</g>
<!-- Node5 -->
<g id="node5" class="node"><title>Node5</title>
<g id="a_node5"><a xlink:href="program_8hpp.html" target="_top" xlink:title="Om header file. ">
<polygon fill="none" stroke="black" points="389.315,-233 389.315,-253 478.685,-253 478.685,-233 389.315,-233"/>
<text text-anchor="middle" x="434" y="-239" font-family="Helvetica,sans-Serif" font-size="10.00">om/program.hpp</text>
</a>
</g>
</g>
<!-- Node4&#45;&gt;Node5 -->
<g id="edge4" class="edge"><title>Node4&#45;&gt;Node5</title>
<path fill="none" stroke="midnightblue" d="M422.918,-296.852C424.762,-288.06 427.605,-274.498 429.95,-263.313"/>
<polygon fill="midnightblue" stroke="midnightblue" points="433.447,-263.691 432.074,-253.186 426.596,-262.255 433.447,-263.691"/>
</g>
<!-- Node25 -->
<g id="node25" class="node"><title>Node25</title>
<g id="a_node25"><a xlink:href="element_8cpp.html" target="_top" xlink:title="Om source file. ">
<polygon fill="none" stroke="black" points="284.426,-233 284.426,-253 371.574,-253 371.574,-233 284.426,-233"/>
<text text-anchor="middle" x="328" y="-239" font-family="Helvetica,sans-Serif" font-size="10.00">om/element.cpp</text>
</a>
</g>
</g>
<!-- Node4&#45;&gt;Node25 -->
<g id="edge40" class="edge"><title>Node4&#45;&gt;Node25</title>
<path fill="none" stroke="midnightblue" d="M402.322,-296.852C385.47,-286.961 361.26,-271.033 344.96,-259.244"/>
<polygon fill="midnightblue" stroke="midnightblue" points="346.928,-256.346 336.816,-253.186 342.75,-261.963 346.928,-256.346"/>
</g>
<!-- Node6 -->
<g id="node6" class="node"><title>Node6</title>
<g id="a_node6"><a xlink:href="consumer_8hpp.html" target="_top" xlink:title="Om header file. ">
<polygon fill="none" stroke="black" points="398.254,-175 398.254,-195 493.746,-195 493.746,-175 398.254,-175"/>
<text text-anchor="middle" x="446" y="-181" font-family="Helvetica,sans-Serif" font-size="10.00">om/consumer.hpp</text>
</a>
</g>
</g>
<!-- Node5&#45;&gt;Node6 -->
<g id="edge5" class="edge"><title>Node5&#45;&gt;Node6</title>
<path fill="none" stroke="midnightblue" d="M435.982,-232.753C437.589,-225.25 439.909,-214.424 441.912,-205.078"/>
<polygon fill="midnightblue" stroke="midnightblue" points="445.382,-205.587 444.055,-195.075 438.538,-204.12 445.382,-205.587"/>
</g>
<!-- Node10 -->
<g id="node10" class="node"><title>Node10</title>
<g id="a_node10"><a xlink:href="giveable_8hpp.html" target="_top" xlink:title="Om header file. ">
<polygon fill="none" stroke="black" points="660.308,-175 660.308,-195 749.692,-195 749.692,-175 660.308,-175"/>
<text text-anchor="middle" x="705" y="-181" font-family="Helvetica,sans-Serif" font-size="10.00">om/giveable.hpp</text>
</a>
</g>
</g>
<!-- Node5&#45;&gt;Node10 -->
<g id="edge10" class="edge"><title>Node5&#45;&gt;Node10</title>
<path fill="none" stroke="midnightblue" d="M477.842,-232.94C525.17,-223.16 600.584,-207.577 651.401,-197.076"/>
<polygon fill="midnightblue" stroke="midnightblue" points="652.136,-200.498 661.221,-195.047 650.72,-193.643 652.136,-200.498"/>
</g>
<!-- Node17 -->
<g id="node17" class="node"><title>Node17</title>
<g id="a_node17"><a xlink:href="producer_8hpp.html" target="_top" xlink:title="Om header file. ">
<polygon fill="none" stroke="black" points="395.473,-117 395.473,-137 486.527,-137 486.527,-117 395.473,-117"/>
<text text-anchor="middle" x="441" y="-123" font-family="Helvetica,sans-Serif" font-size="10.00">om/producer.hpp</text>
</a>
</g>
</g>
<!-- Node5&#45;&gt;Node17 -->
<g id="edge25" class="edge"><title>Node5&#45;&gt;Node17</title>
<path fill="none" stroke="midnightblue" d="M396.299,-232.99C353.868,-222.472 289.912,-205.332 283,-196 277.18,-188.143 277.131,-181.821 283,-174 295.488,-157.358 344.914,-144.762 385.202,-136.996"/>
<polygon fill="midnightblue" stroke="midnightblue" points="386.032,-140.401 395.22,-135.126 384.748,-133.52 386.032,-140.401"/>
</g>
<!-- Node19 -->
<g id="node19" class="node"><title>Node19</title>
<g id="a_node19"><a xlink:href="shareable_8hpp.html" target="_top" xlink:title="Om header file. ">
<polygon fill="none" stroke="black" points="139.973,-175 139.973,-195 236.027,-195 236.027,-175 139.973,-175"/>
<text text-anchor="middle" x="188" y="-181" font-family="Helvetica,sans-Serif" font-size="10.00">om/shareable.hpp</text>
</a>
</g>
</g>
<!-- Node5&#45;&gt;Node19 -->
<g id="edge31" class="edge"><title>Node5&#45;&gt;Node19</title>
<path fill="none" stroke="midnightblue" d="M394.202,-232.94C351.509,-223.222 283.638,-207.771 237.522,-197.273"/>
<polygon fill="midnightblue" stroke="midnightblue" points="238.268,-193.854 227.74,-195.047 236.714,-200.679 238.268,-193.854"/>
</g>
<!-- Node24 -->
<g id="node24" class="node"><title>Node24</title>
<g id="a_node24"><a xlink:href="program_8cpp.html" target="_top" xlink:title="Om source file. ">
<polygon fill="none" stroke="black" points="291.596,-175 291.596,-195 380.404,-195 380.404,-175 291.596,-175"/>
<text text-anchor="middle" x="336" y="-181" font-family="Helvetica,sans-Serif" font-size="10.00">om/program.cpp</text>
</a>
</g>
</g>
<!-- Node5&#45;&gt;Node24 -->
<g id="edge38" class="edge"><title>Node5&#45;&gt;Node24</title>
<path fill="none" stroke="midnightblue" d="M412.651,-232.753C395.606,-224.027 372.185,-210.805 355.615,-200.646"/>
<polygon fill="midnightblue" stroke="midnightblue" points="357.08,-197.433 346.751,-195.075 353.355,-203.36 357.08,-197.433"/>
</g>
<!-- Node7 -->
<g id="node7" class="node"><title>Node7</title>
<g id="a_node7"><a xlink:href="consumer_8cpp.html" target="_top" xlink:title="Om source file. ">
<polygon fill="none" stroke="black" points="504.535,-59 504.535,-79 599.465,-79 599.465,-59 504.535,-59"/>
<text text-anchor="middle" x="552" y="-65" font-family="Helvetica,sans-Serif" font-size="10.00">om/consumer.cpp</text>
</a>
</g>
</g>
<!-- Node6&#45;&gt;Node7 -->
<g id="edge6" class="edge"><title>Node6&#45;&gt;Node7</title>
<path fill="none" stroke="midnightblue" d="M449.593,-174.828C457.639,-165.78 473.335,-151.397 486,-138 501.923,-121.156 518.82,-100.621 531.872,-86.5524"/>
<polygon fill="midnightblue" stroke="midnightblue" points="534.647,-88.7177 539.077,-79.0933 529.612,-83.8546 534.647,-88.7177"/>
</g>
<!-- Node8 -->
<g id="node8" class="node"><title>Node8</title>
<polygon fill="none" stroke="#bfbfbf" points="709.884,-1 709.884,-21 758.116,-21 758.116,-1 709.884,-1"/>
<text text-anchor="middle" x="734" y="-7" font-family="Helvetica,sans-Serif" font-size="10.00">cassert</text>
</g>
<!-- Node7&#45;&gt;Node8 -->
<g id="edge7" class="edge"><title>Node7&#45;&gt;Node8</title>
<path fill="none" stroke="midnightblue" d="M581.647,-58.878C613.961,-48.9352 665.595,-33.0476 699.652,-22.5688"/>
<polygon fill="midnightblue" stroke="midnightblue" points="701.087,-25.7891 709.616,-19.5029 699.028,-19.0986 701.087,-25.7891"/>
</g>
<!-- Node9 -->
<g id="node9" class="node"><title>Node9</title>
<polygon fill="none" stroke="#bfbfbf" points="577.599,-1 577.599,-21 636.401,-21 636.401,-1 577.599,-1"/>
<text text-anchor="middle" x="607" y="-7" font-family="Helvetica,sans-Serif" font-size="10.00">stdexcept</text>
</g>
<!-- Node7&#45;&gt;Node9 -->
<g id="edge8" class="edge"><title>Node7&#45;&gt;Node9</title>
<path fill="none" stroke="midnightblue" d="M561.082,-58.7527C569.171,-50.5165 581.195,-38.2738 590.91,-28.3824"/>
<polygon fill="midnightblue" stroke="midnightblue" points="593.577,-30.6622 598.087,-21.0752 588.583,-25.7572 593.577,-30.6622"/>
</g>
<!-- Node7&#45;&gt;Node6 -->
<g id="edge9" class="edge"><title>Node7&#45;&gt;Node6</title>
<path fill="none" stroke="midnightblue" d="M550.82,-79.0933C543.49,-92.4178 523.048,-117.85 504,-138 494.007,-148.571 482.126,-159.756 471.526,-168.449"/>
<polygon fill="midnightblue" stroke="midnightblue" points="469.087,-165.913 463.361,-174.828 473.396,-171.43 469.087,-165.913"/>
</g>
<!-- Node11 -->
<g id="node11" class="node"><title>Node11</title>
<g id="a_node11"><a xlink:href="copyable_8hpp.html" target="_top" xlink:title="Om header file. ">
<polygon fill="none" stroke="black" points="686.919,-117 686.919,-137 779.081,-137 779.081,-117 686.919,-117"/>
<text text-anchor="middle" x="733" y="-123" font-family="Helvetica,sans-Serif" font-size="10.00">om/copyable.hpp</text>
</a>
</g>
</g>
<!-- Node10&#45;&gt;Node11 -->
<g id="edge11" class="edge"><title>Node10&#45;&gt;Node11</title>
<path fill="none" stroke="midnightblue" d="M709.624,-174.753C713.497,-167.006 719.143,-155.714 723.916,-146.169"/>
<polygon fill="midnightblue" stroke="midnightblue" points="727.121,-147.585 728.462,-137.075 720.86,-144.454 727.121,-147.585"/>
</g>
<!-- Node14 -->
<g id="node14" class="node"><title>Node14</title>
<g id="a_node14"><a xlink:href="moveable_8hpp.html" target="_top" xlink:title="Om header file. ">
<polygon fill="none" stroke="black" points="797.254,-117 797.254,-137 892.746,-137 892.746,-117 797.254,-117"/>
<text text-anchor="middle" x="845" y="-123" font-family="Helvetica,sans-Serif" font-size="10.00">om/moveable.hpp</text>
</a>
</g>
</g>
<!-- Node10&#45;&gt;Node14 -->
<g id="edge17" class="edge"><title>Node10&#45;&gt;Node14</title>
<path fill="none" stroke="midnightblue" d="M727.805,-174.878C750.89,-165.644 786.792,-151.283 812.778,-140.889"/>
<polygon fill="midnightblue" stroke="midnightblue" points="814.22,-144.082 822.205,-137.118 811.62,-137.582 814.22,-144.082"/>
</g>
<!-- Node16 -->
<g id="node16" class="node"><title>Node16</title>
<g id="a_node16"><a xlink:href="giveable_8cpp.html" target="_top" xlink:title="Om source file. ">
<polygon fill="none" stroke="black" points="580.589,-117 580.589,-137 669.411,-137 669.411,-117 580.589,-117"/>
<text text-anchor="middle" x="625" y="-123" font-family="Helvetica,sans-Serif" font-size="10.00">om/giveable.cpp</text>
</a>
</g>
</g>
<!-- Node10&#45;&gt;Node16 -->
<g id="edge23" class="edge"><title>Node10&#45;&gt;Node16</title>
<path fill="none" stroke="midnightblue" d="M686.623,-174.753C672.783,-166.272 654.283,-153.543 641.04,-143.507"/>
<polygon fill="midnightblue" stroke="midnightblue" points="642.863,-140.489 632.834,-137.075 638.545,-145.999 642.863,-140.489"/>
</g>
<!-- Node12 -->
<g id="node12" class="node"><title>Node12</title>
<polygon fill="none" stroke="#bfbfbf" points="617.943,-59 617.943,-79 670.057,-79 670.057,-59 617.943,-59"/>
<text text-anchor="middle" x="644" y="-65" font-family="Helvetica,sans-Serif" font-size="10.00">memory</text>
</g>
<!-- Node11&#45;&gt;Node12 -->
<g id="edge12" class="edge"><title>Node11&#45;&gt;Node12</title>
<path fill="none" stroke="midnightblue" d="M718.303,-116.753C704.436,-108.027 683.422,-94.8051 667.276,-84.6458"/>
<polygon fill="midnightblue" stroke="midnightblue" points="668.751,-81.4385 658.423,-79.0752 665.023,-87.3632 668.751,-81.4385"/>
</g>
<!-- Node13 -->
<g id="node13" class="node"><title>Node13</title>
<g id="a_node13"><a xlink:href="copyable_8cpp.html" target="_top" xlink:title="Om source file. ">
<polygon fill="none" stroke="black" points="688.2,-59 688.2,-79 779.8,-79 779.8,-59 688.2,-59"/>
<text text-anchor="middle" x="734" y="-65" font-family="Helvetica,sans-Serif" font-size="10.00">om/copyable.cpp</text>
</a>
</g>
</g>
<!-- Node11&#45;&gt;Node13 -->
<g id="edge13" class="edge"><title>Node11&#45;&gt;Node13</title>
<path fill="none" stroke="midnightblue" d="M727.999,-116.753C726.607,-109.25 726.377,-98.4238 727.224,-89.0781"/>
<polygon fill="midnightblue" stroke="midnightblue" points="730.702,-89.4805 728.707,-79.0752 723.778,-88.4536 730.702,-89.4805"/>
</g>
<!-- Node13&#45;&gt;Node8 -->
<g id="edge14" class="edge"><title>Node13&#45;&gt;Node8</title>
<path fill="none" stroke="midnightblue" d="M734,-58.7527C734,-51.2504 734,-40.4238 734,-31.0781"/>
<polygon fill="midnightblue" stroke="midnightblue" points="737.5,-31.0752 734,-21.0752 730.5,-31.0752 737.5,-31.0752"/>
</g>
<!-- Node13&#45;&gt;Node9 -->
<g id="edge15" class="edge"><title>Node13&#45;&gt;Node9</title>
<path fill="none" stroke="midnightblue" d="M713.313,-58.878C692.556,-49.7255 660.376,-35.5357 636.855,-25.1643"/>
<polygon fill="midnightblue" stroke="midnightblue" points="638.241,-21.9503 627.679,-21.1181 635.416,-28.3553 638.241,-21.9503"/>
</g>
<!-- Node13&#45;&gt;Node11 -->
<g id="edge16" class="edge"><title>Node13&#45;&gt;Node11</title>
<path fill="none" stroke="midnightblue" d="M738.969,-79.0752C740.379,-86.5262 740.626,-97.3384 739.796,-106.707"/>
<polygon fill="midnightblue" stroke="midnightblue" points="736.31,-106.352 738.331,-116.753 743.237,-107.362 736.31,-106.352"/>
</g>
<!-- Node14&#45;&gt;Node12 -->
<g id="edge18" class="edge"><title>Node14&#45;&gt;Node12</title>
<path fill="none" stroke="midnightblue" d="M812.222,-117C780.75,-108.34 731.611,-94.7714 680.309,-80.3546"/>
<polygon fill="midnightblue" stroke="midnightblue" points="680.941,-76.8967 670.367,-77.5577 679.045,-83.6351 680.941,-76.8967"/>
</g>
<!-- Node15 -->
<g id="node15" class="node"><title>Node15</title>
<g id="a_node15"><a xlink:href="moveable_8cpp.html" target="_top" xlink:title="Om source file. ">
<polygon fill="none" stroke="black" points="797.535,-59 797.535,-79 892.465,-79 892.465,-59 797.535,-59"/>
<text text-anchor="middle" x="845" y="-65" font-family="Helvetica,sans-Serif" font-size="10.00">om/moveable.cpp</text>
</a>
</g>
</g>
<!-- Node14&#45;&gt;Node15 -->
<g id="edge19" class="edge"><title>Node14&#45;&gt;Node15</title>
<path fill="none" stroke="midnightblue" d="M839.834,-116.753C838.308,-109.25 837.884,-98.4238 838.564,-89.0781"/>
<polygon fill="midnightblue" stroke="midnightblue" points="842.046,-89.4439 839.869,-79.0752 835.105,-88.5385 842.046,-89.4439"/>
</g>
<!-- Node15&#45;&gt;Node8 -->
<g id="edge20" class="edge"><title>Node15&#45;&gt;Node8</title>
<path fill="none" stroke="midnightblue" d="M826.671,-58.7527C808.81,-49.7418 781.443,-35.9353 761.074,-25.6589"/>
<polygon fill="midnightblue" stroke="midnightblue" points="762.493,-22.4547 751.988,-21.0752 759.34,-28.7044 762.493,-22.4547"/>
</g>
<!-- Node15&#45;&gt;Node9 -->
<g id="edge21" class="edge"><title>Node15&#45;&gt;Node9</title>
<path fill="none" stroke="midnightblue" d="M806.497,-58.9404C762.435,-48.573 690.657,-31.6839 646.275,-21.2411"/>
<polygon fill="midnightblue" stroke="midnightblue" points="646.964,-17.8078 636.428,-18.9243 645.361,-24.6217 646.964,-17.8078"/>
</g>
<!-- Node15&#45;&gt;Node14 -->
<g id="edge22" class="edge"><title>Node15&#45;&gt;Node14</title>
<path fill="none" stroke="midnightblue" d="M850.131,-79.0752C851.674,-86.5262 852.114,-97.3384 851.451,-106.707"/>
<polygon fill="midnightblue" stroke="midnightblue" points="847.963,-106.389 850.166,-116.753 854.907,-107.278 847.963,-106.389"/>
</g>
<!-- Node16&#45;&gt;Node10 -->
<g id="edge24" class="edge"><title>Node16&#45;&gt;Node10</title>
<path fill="none" stroke="midnightblue" d="M643.096,-137.075C657.005,-145.579 675.732,-158.461 689.072,-168.578"/>
<polygon fill="midnightblue" stroke="midnightblue" points="686.925,-171.342 696.956,-174.753 691.242,-165.831 686.925,-171.342"/>
</g>
<!-- Node17&#45;&gt;Node12 -->
<g id="edge26" class="edge"><title>Node17&#45;&gt;Node12</title>
<path fill="none" stroke="midnightblue" d="M473.96,-116.944C507.649,-107.682 561.48,-92.868 608,-80 608.098,-79.973 608.196,-79.9459 608.293,-79.9188"/>
<polygon fill="midnightblue" stroke="midnightblue" points="608.953,-83.3679 617.656,-77.3249 607.084,-76.6221 608.953,-83.3679"/>
</g>
<!-- Node18 -->
<g id="node18" class="node"><title>Node18</title>
<g id="a_node18"><a xlink:href="producer_8cpp.html" target="_top" xlink:title="Om source file. ">
<polygon fill="none" stroke="black" points="395.754,-59 395.754,-79 486.246,-79 486.246,-59 395.754,-59"/>
<text text-anchor="middle" x="441" y="-65" font-family="Helvetica,sans-Serif" font-size="10.00">om/producer.cpp</text>
</a>
</g>
</g>
<!-- Node17&#45;&gt;Node18 -->
<g id="edge27" class="edge"><title>Node17&#45;&gt;Node18</title>
<path fill="none" stroke="midnightblue" d="M435.834,-116.753C434.308,-109.25 433.884,-98.4238 434.564,-89.0781"/>
<polygon fill="midnightblue" stroke="midnightblue" points="438.046,-89.4439 435.869,-79.0752 431.105,-88.5385 438.046,-89.4439"/>
</g>
<!-- Node18&#45;&gt;Node8 -->
<g id="edge28" class="edge"><title>Node18&#45;&gt;Node8</title>
<path fill="none" stroke="midnightblue" d="M486.46,-59.3114C545.381,-48.0501 646.816,-28.6631 699.689,-18.5577"/>
<polygon fill="midnightblue" stroke="midnightblue" points="700.424,-21.9807 709.589,-16.6656 699.11,-15.1052 700.424,-21.9807"/>
</g>
<!-- Node18&#45;&gt;Node9 -->
<g id="edge29" class="edge"><title>Node18&#45;&gt;Node9</title>
<path fill="none" stroke="midnightblue" d="M468.04,-58.878C495.977,-49.4534 539.747,-34.6878 570.688,-24.2499"/>
<polygon fill="midnightblue" stroke="midnightblue" points="571.89,-27.5383 580.246,-21.0253 569.652,-20.9055 571.89,-27.5383"/>
</g>
<!-- Node18&#45;&gt;Node17 -->
<g id="edge30" class="edge"><title>Node18&#45;&gt;Node17</title>
<path fill="none" stroke="midnightblue" d="M446.131,-79.0752C447.674,-86.5262 448.114,-97.3384 447.451,-106.707"/>
<polygon fill="midnightblue" stroke="midnightblue" points="443.963,-106.389 446.166,-116.753 450.907,-107.278 443.963,-106.389"/>
</g>
<!-- Node20 -->
<g id="node20" class="node"><title>Node20</title>
<polygon fill="none" stroke="#bfbfbf" points="253.879,-117 253.879,-137 302.121,-137 302.121,-117 253.879,-117"/>
<text text-anchor="middle" x="278" y="-123" font-family="Helvetica,sans-Serif" font-size="10.00">cstddef</text>
</g>
<!-- Node19&#45;&gt;Node20 -->
<g id="edge32" class="edge"><title>Node19&#45;&gt;Node20</title>
<path fill="none" stroke="midnightblue" d="M202.862,-174.753C217.016,-165.946 238.533,-152.558 254.919,-142.362"/>
<polygon fill="midnightblue" stroke="midnightblue" points="256.773,-145.33 263.415,-137.075 253.075,-139.387 256.773,-145.33"/>
</g>
<!-- Node21 -->
<g id="node21" class="node"><title>Node21</title>
<g id="a_node21"><a xlink:href="shareable_8cpp.html" target="_top" xlink:title="Om source file. ">
<polygon fill="none" stroke="black" points="140.254,-117 140.254,-137 235.746,-137 235.746,-117 140.254,-117"/>
<text text-anchor="middle" x="188" y="-123" font-family="Helvetica,sans-Serif" font-size="10.00">om/shareable.cpp</text>
</a>
</g>
</g>
<!-- Node19&#45;&gt;Node21 -->
<g id="edge33" class="edge"><title>Node19&#45;&gt;Node21</title>
<path fill="none" stroke="midnightblue" d="M182.834,-174.753C181.308,-167.25 180.884,-156.424 181.564,-147.078"/>
<polygon fill="midnightblue" stroke="midnightblue" points="185.046,-147.444 182.869,-137.075 178.105,-146.538 185.046,-147.444"/>
</g>
<!-- Node21&#45;&gt;Node9 -->
<g id="edge34" class="edge"><title>Node21&#45;&gt;Node9</title>
<path fill="none" stroke="midnightblue" d="M211.296,-116.991C248.159,-102.976 322.39,-75.721 387,-58 449.36,-40.8961 523.172,-26.6604 567.479,-18.7467"/>
<polygon fill="midnightblue" stroke="midnightblue" points="568.307,-22.1546 577.545,-16.967 567.088,-15.2615 568.307,-22.1546"/>
</g>
<!-- Node22 -->
<g id="node22" class="node"><title>Node22</title>
<polygon fill="none" stroke="#bfbfbf" points="-0.378906,-59 -0.378906,-79 132.379,-79 132.379,-59 -0.378906,-59"/>
<text text-anchor="middle" x="66" y="-65" font-family="Helvetica,sans-Serif" font-size="10.00">boost/checked_delete.hpp</text>
</g>
<!-- Node21&#45;&gt;Node22 -->
<g id="edge35" class="edge"><title>Node21&#45;&gt;Node22</title>
<path fill="none" stroke="midnightblue" d="M168.127,-116.878C148.276,-107.766 117.549,-93.6617 94.9812,-83.3028"/>
<polygon fill="midnightblue" stroke="midnightblue" points="96.4128,-80.1089 85.8644,-79.1181 93.4926,-86.4707 96.4128,-80.1089"/>
</g>
<!-- Node23 -->
<g id="node23" class="node"><title>Node23</title>
<polygon fill="none" stroke="#bfbfbf" points="150.744,-59 150.744,-79 271.256,-79 271.256,-59 150.744,-59"/>
<text text-anchor="middle" x="211" y="-65" font-family="Helvetica,sans-Serif" font-size="10.00">boost/integer_traits.hpp</text>
</g>
<!-- Node21&#45;&gt;Node23 -->
<g id="edge36" class="edge"><title>Node21&#45;&gt;Node23</title>
<path fill="none" stroke="midnightblue" d="M191.798,-116.753C194.946,-109.087 199.52,-97.9515 203.414,-88.4708"/>
<polygon fill="midnightblue" stroke="midnightblue" points="206.711,-89.6551 207.273,-79.0752 200.236,-86.9957 206.711,-89.6551"/>
</g>
<!-- Node21&#45;&gt;Node19 -->
<g id="edge37" class="edge"><title>Node21&#45;&gt;Node19</title>
<path fill="none" stroke="midnightblue" d="M193.131,-137.075C194.674,-144.526 195.114,-155.338 194.451,-164.707"/>
<polygon fill="midnightblue" stroke="midnightblue" points="190.963,-164.389 193.166,-174.753 197.907,-165.278 190.963,-164.389"/>
</g>
<!-- Node24&#45;&gt;Node5 -->
<g id="edge39" class="edge"><title>Node24&#45;&gt;Node5</title>
<path fill="none" stroke="midnightblue" d="M357.013,-195.075C373.973,-203.741 397.397,-216.953 414.056,-227.153"/>
<polygon fill="midnightblue" stroke="midnightblue" points="412.652,-230.404 422.984,-232.753 416.372,-224.474 412.652,-230.404"/>
</g>
<!-- Node25&#45;&gt;Node4 -->
<g id="edge41" class="edge"><title>Node25&#45;&gt;Node4</title>
<path fill="none" stroke="midnightblue" d="M346.742,-253.186C363.613,-263.092 387.822,-279.023 404.102,-290.8"/>
<polygon fill="midnightblue" stroke="midnightblue" points="402.121,-293.689 412.233,-296.852 406.3,-288.074 402.121,-293.689"/>
</g>
<!-- Node26&#45;&gt;Node3 -->
<g id="edge43" class="edge"><title>Node26&#45;&gt;Node3</title>
<path fill="none" stroke="midnightblue" d="M509.131,-451.075C510.674,-458.526 511.114,-469.338 510.451,-478.707"/>
<polygon fill="midnightblue" stroke="midnightblue" points="506.963,-478.389 509.166,-488.753 513.907,-479.278 506.963,-478.389"/>
</g>
<!-- Node28 -->
<g id="node28" class="node"><title>Node28</title>
<g id="a_node28"><a xlink:href="default__program_8hpp.html" target="_top" xlink:title="Om header file. ">
<polygon fill="none" stroke="black" points="563.522,-431 563.522,-451 688.478,-451 688.478,-431 563.522,-431"/>
<text text-anchor="middle" x="626" y="-437" font-family="Helvetica,sans-Serif" font-size="10.00">om/default_program.hpp</text>
</a>
</g>
</g>
<!-- Node27&#45;&gt;Node28 -->
<g id="edge45" class="edge"><title>Node27&#45;&gt;Node28</title>
<path fill="none" stroke="midnightblue" d="M629.339,-488.753C628.804,-481.25 628.03,-470.424 627.363,-461.078"/>
<polygon fill="midnightblue" stroke="midnightblue" points="630.852,-460.8 626.648,-451.075 623.87,-461.299 630.852,-460.8"/>
</g>
<!-- Node43 -->
<g id="node43" class="node"><title>Node43</title>
<g id="a_node43"><a xlink:href="default__element_8cpp.html" target="_top" xlink:title="Om source file. ">
<polygon fill="none" stroke="black" points="706.633,-431 706.633,-451 829.367,-451 829.367,-431 706.633,-431"/>
<text text-anchor="middle" x="768" y="-437" font-family="Helvetica,sans-Serif" font-size="10.00">om/default_element.cpp</text>
</a>
</g>
</g>
<!-- Node27&#45;&gt;Node43 -->
<g id="edge76" class="edge"><title>Node27&#45;&gt;Node43</title>
<path fill="none" stroke="midnightblue" d="M647.339,-488.878C668.282,-479.603 703.675,-465.156 730.809,-454.752"/>
<polygon fill="midnightblue" stroke="midnightblue" points="732.281,-457.937 740.391,-451.118 729.799,-451.391 732.281,-457.937"/>
</g>
<!-- Node29 -->
<g id="node29" class="node"><title>Node29</title>
<g id="a_node29"><a xlink:href="default__consumer_8hpp.html" target="_top" xlink:title="Om header file. ">
<polygon fill="none" stroke="black" points="511.461,-233 511.461,-253 642.539,-253 642.539,-233 511.461,-233"/>
<text text-anchor="middle" x="577" y="-239" font-family="Helvetica,sans-Serif" font-size="10.00">om/default_consumer.hpp</text>
</a>
</g>
</g>
<!-- Node28&#45;&gt;Node29 -->
<g id="edge46" class="edge"><title>Node28&#45;&gt;Node29</title>
<path fill="none" stroke="midnightblue" d="M623.702,-430.809C616.18,-400.721 592.183,-304.731 581.83,-263.32"/>
<polygon fill="midnightblue" stroke="midnightblue" points="585.171,-262.251 579.35,-253.399 578.38,-263.949 585.171,-262.251"/>
</g>
<!-- Node31 -->
<g id="node31" class="node"><title>Node31</title>
<g id="a_node31"><a xlink:href="default__giveable_8hpp.html" target="_top" xlink:title="Om header file. ">
<polygon fill="none" stroke="black" points="767.515,-233 767.515,-253 892.485,-253 892.485,-233 767.515,-233"/>
<text text-anchor="middle" x="830" y="-239" font-family="Helvetica,sans-Serif" font-size="10.00">om/default_giveable.hpp</text>
</a>
</g>
</g>
<!-- Node28&#45;&gt;Node31 -->
<g id="edge51" class="edge"><title>Node28&#45;&gt;Node31</title>
<path fill="none" stroke="midnightblue" d="M627.696,-430.75C632.945,-404.725 651.341,-330.162 696,-290 714.643,-273.234 739.686,-262.527 763.076,-255.711"/>
<polygon fill="midnightblue" stroke="midnightblue" points="764.242,-259.021 772.975,-253.022 762.407,-252.266 764.242,-259.021"/>
</g>
<!-- Node28&#45;&gt;Node5 -->
<g id="edge63" class="edge"><title>Node28&#45;&gt;Node5</title>
<path fill="none" stroke="midnightblue" d="M626.046,-430.775C625.66,-404.818 620.942,-330.417 581,-290 567.727,-276.57 524.364,-263.958 488.147,-255.35"/>
<polygon fill="midnightblue" stroke="midnightblue" points="488.685,-251.881 478.153,-253.03 487.103,-258.7 488.685,-251.881"/>
</g>
<!-- Node37 -->
<g id="node37" class="node"><title>Node37</title>
<g id="a_node37"><a xlink:href="taker_8hpp.html" target="_top" xlink:title="Om header file. ">
<polygon fill="none" stroke="black" points="705.091,-367 705.091,-387 778.909,-387 778.909,-367 705.091,-367"/>
<text text-anchor="middle" x="742" y="-373" font-family="Helvetica,sans-Serif" font-size="10.00">om/taker.hpp</text>
</a>
</g>
</g>
<!-- Node28&#45;&gt;Node37 -->
<g id="edge64" class="edge"><title>Node28&#45;&gt;Node37</title>
<path fill="none" stroke="midnightblue" d="M643.116,-430.852C662.306,-420.595 693.646,-403.844 715.896,-391.952"/>
<polygon fill="midnightblue" stroke="midnightblue" points="717.644,-394.986 724.814,-387.186 714.344,-388.813 717.644,-394.986"/>
</g>
<!-- Node39 -->
<g id="node39" class="node"><title>Node39</title>
<g id="a_node39"><a xlink:href="default__program_8cpp.html" target="_top" xlink:title="Om source file. ">
<polygon fill="none" stroke="black" points="448.803,-367 448.803,-387 573.197,-387 573.197,-367 448.803,-367"/>
<text text-anchor="middle" x="511" y="-373" font-family="Helvetica,sans-Serif" font-size="10.00">om/default_program.cpp</text>
</a>
</g>
</g>
<!-- Node28&#45;&gt;Node39 -->
<g id="edge67" class="edge"><title>Node28&#45;&gt;Node39</title>
<path fill="none" stroke="midnightblue" d="M604.35,-430.985C583.337,-420.791 552.029,-404.063 531.441,-392.131"/>
<polygon fill="midnightblue" stroke="midnightblue" points="533.201,-389.105 522.812,-387.026 529.637,-395.13 533.201,-389.105"/>
</g>
<!-- Node29&#45;&gt;Node6 -->
<g id="edge47" class="edge"><title>Node29&#45;&gt;Node6</title>
<path fill="none" stroke="midnightblue" d="M555.661,-232.878C534.251,-223.725 501.057,-209.536 476.795,-199.164"/>
<polygon fill="midnightblue" stroke="midnightblue" points="477.901,-195.831 467.33,-195.118 475.149,-202.267 477.901,-195.831"/>
</g>
<!-- Node30 -->
<g id="node30" class="node"><title>Node30</title>
<g id="a_node30"><a xlink:href="default__consumer_8cpp.html" target="_top" xlink:title="Om source file. ">
<polygon fill="none" stroke="black" points="511.742,-175 511.742,-195 642.258,-195 642.258,-175 511.742,-175"/>
<text text-anchor="middle" x="577" y="-181" font-family="Helvetica,sans-Serif" font-size="10.00">om/default_consumer.cpp</text>
</a>
</g>
</g>
<!-- Node29&#45;&gt;Node30 -->
<g id="edge48" class="edge"><title>Node29&#45;&gt;Node30</title>
<path fill="none" stroke="midnightblue" d="M571.834,-232.753C570.308,-225.25 569.884,-214.424 570.564,-205.078"/>
<polygon fill="midnightblue" stroke="midnightblue" points="574.046,-205.444 571.869,-195.075 567.105,-204.538 574.046,-205.444"/>
</g>
<!-- Node30&#45;&gt;Node17 -->
<g id="edge49" class="edge"><title>Node30&#45;&gt;Node17</title>
<path fill="none" stroke="midnightblue" d="M554.847,-174.878C532.52,-165.685 497.852,-151.409 472.635,-141.026"/>
<polygon fill="midnightblue" stroke="midnightblue" points="473.723,-137.689 463.144,-137.118 471.058,-144.162 473.723,-137.689"/>
</g>
<!-- Node30&#45;&gt;Node29 -->
<g id="edge50" class="edge"><title>Node30&#45;&gt;Node29</title>
<path fill="none" stroke="midnightblue" d="M582.131,-195.075C583.674,-202.526 584.114,-213.338 583.451,-222.707"/>
<polygon fill="midnightblue" stroke="midnightblue" points="579.963,-222.389 582.166,-232.753 586.907,-223.278 579.963,-222.389"/>
</g>
<!-- Node32 -->
<g id="node32" class="node"><title>Node32</title>
<g id="a_node32"><a xlink:href="default__copyable_8hpp.html" target="_top" xlink:title="Om header file. ">
<polygon fill="none" stroke="black" points="910.126,-175 910.126,-195 1037.87,-195 1037.87,-175 910.126,-175"/>
<text text-anchor="middle" x="974" y="-181" font-family="Helvetica,sans-Serif" font-size="10.00">om/default_copyable.hpp</text>
</a>
</g>
</g>
<!-- Node31&#45;&gt;Node32 -->
<g id="edge52" class="edge"><title>Node31&#45;&gt;Node32</title>
<path fill="none" stroke="midnightblue" d="M853.457,-232.878C877.305,-223.603 914.455,-209.156 941.21,-198.752"/>
<polygon fill="midnightblue" stroke="midnightblue" points="942.502,-202.005 950.553,-195.118 939.965,-195.481 942.502,-202.005"/>
</g>
<!-- Node34 -->
<g id="node34" class="node"><title>Node34</title>
<g id="a_node34"><a xlink:href="default__moveable_8hpp.html" target="_top" xlink:title="Om header file. ">
<polygon fill="none" stroke="black" points="1055.46,-175 1055.46,-195 1186.54,-195 1186.54,-175 1055.46,-175"/>
<text text-anchor="middle" x="1121" y="-181" font-family="Helvetica,sans-Serif" font-size="10.00">om/default_moveable.hpp</text>
</a>
</g>
</g>
<!-- Node31&#45;&gt;Node34 -->
<g id="edge56" class="edge"><title>Node31&#45;&gt;Node34</title>
<path fill="none" stroke="midnightblue" d="M877.078,-232.94C928.11,-223.12 1009.55,-207.447 1064.13,-196.945"/>
<polygon fill="midnightblue" stroke="midnightblue" points="1064.83,-200.373 1073.99,-195.047 1063.51,-193.499 1064.83,-200.373"/>
</g>
<!-- Node31&#45;&gt;Node10 -->
<g id="edge60" class="edge"><title>Node31&#45;&gt;Node10</title>
<path fill="none" stroke="midnightblue" d="M809.638,-232.878C789.299,-223.766 757.816,-209.662 734.694,-199.303"/>
<polygon fill="midnightblue" stroke="midnightblue" points="735.91,-196.013 725.353,-195.118 733.048,-202.401 735.91,-196.013"/>
</g>
<!-- Node36 -->
<g id="node36" class="node"><title>Node36</title>
<g id="a_node36"><a xlink:href="default__giveable_8cpp.html" target="_top" xlink:title="Om source file. ">
<polygon fill="none" stroke="black" points="767.796,-175 767.796,-195 892.204,-195 892.204,-175 767.796,-175"/>
<text text-anchor="middle" x="830" y="-181" font-family="Helvetica,sans-Serif" font-size="10.00">om/default_giveable.cpp</text>
</a>
</g>
</g>
<!-- Node31&#45;&gt;Node36 -->
<g id="edge61" class="edge"><title>Node31&#45;&gt;Node36</title>
<path fill="none" stroke="midnightblue" d="M824.834,-232.753C823.308,-225.25 822.884,-214.424 823.564,-205.078"/>
<polygon fill="midnightblue" stroke="midnightblue" points="827.046,-205.444 824.869,-195.075 820.105,-204.538 827.046,-205.444"/>
</g>
<!-- Node32&#45;&gt;Node11 -->
<g id="edge53" class="edge"><title>Node32&#45;&gt;Node11</title>
<path fill="none" stroke="midnightblue" d="M935.011,-174.94C893.273,-165.242 826.973,-149.836 781.8,-139.339"/>
<polygon fill="midnightblue" stroke="midnightblue" points="782.465,-135.901 771.933,-137.047 780.881,-142.719 782.465,-135.901"/>
</g>
<!-- Node33 -->
<g id="node33" class="node"><title>Node33</title>
<g id="a_node33"><a xlink:href="default__copyable_8cpp.html" target="_top" xlink:title="Om source file. ">
<polygon fill="none" stroke="black" points="910.407,-117 910.407,-137 1037.59,-137 1037.59,-117 910.407,-117"/>
<text text-anchor="middle" x="974" y="-123" font-family="Helvetica,sans-Serif" font-size="10.00">om/default_copyable.cpp</text>
</a>
</g>
</g>
<!-- Node32&#45;&gt;Node33 -->
<g id="edge54" class="edge"><title>Node32&#45;&gt;Node33</title>
<path fill="none" stroke="midnightblue" d="M968.834,-174.753C967.308,-167.25 966.884,-156.424 967.564,-147.078"/>
<polygon fill="midnightblue" stroke="midnightblue" points="971.046,-147.444 968.869,-137.075 964.105,-146.538 971.046,-147.444"/>
</g>
<!-- Node33&#45;&gt;Node32 -->
<g id="edge55" class="edge"><title>Node33&#45;&gt;Node32</title>
<path fill="none" stroke="midnightblue" d="M979.131,-137.075C980.674,-144.526 981.114,-155.338 980.451,-164.707"/>
<polygon fill="midnightblue" stroke="midnightblue" points="976.963,-164.389 979.166,-174.753 983.907,-165.278 976.963,-164.389"/>
</g>
<!-- Node34&#45;&gt;Node14 -->
<g id="edge57" class="edge"><title>Node34&#45;&gt;Node14</title>
<path fill="none" stroke="midnightblue" d="M1076.35,-174.94C1028.15,-165.16 951.342,-149.577 899.588,-139.076"/>
<polygon fill="midnightblue" stroke="midnightblue" points="900.083,-135.605 889.587,-137.047 898.691,-142.465 900.083,-135.605"/>
</g>
<!-- Node35 -->
<g id="node35" class="node"><title>Node35</title>
<g id="a_node35"><a xlink:href="default__moveable_8cpp.html" target="_top" xlink:title="Om source file. ">
<polygon fill="none" stroke="black" points="1055.74,-117 1055.74,-137 1186.26,-137 1186.26,-117 1055.74,-117"/>
<text text-anchor="middle" x="1121" y="-123" font-family="Helvetica,sans-Serif" font-size="10.00">om/default_moveable.cpp</text>
</a>
</g>
</g>
<!-- Node34&#45;&gt;Node35 -->
<g id="edge58" class="edge"><title>Node34&#45;&gt;Node35</title>
<path fill="none" stroke="midnightblue" d="M1115.83,-174.753C1114.31,-167.25 1113.88,-156.424 1114.56,-147.078"/>
<polygon fill="midnightblue" stroke="midnightblue" points="1118.05,-147.444 1115.87,-137.075 1111.1,-146.538 1118.05,-147.444"/>
</g>
<!-- Node35&#45;&gt;Node34 -->
<g id="edge59" class="edge"><title>Node35&#45;&gt;Node34</title>
<path fill="none" stroke="midnightblue" d="M1126.13,-137.075C1127.67,-144.526 1128.11,-155.338 1127.45,-164.707"/>
<polygon fill="midnightblue" stroke="midnightblue" points="1123.96,-164.389 1126.17,-174.753 1130.91,-165.278 1123.96,-164.389"/>
</g>
<!-- Node36&#45;&gt;Node31 -->
<g id="edge62" class="edge"><title>Node36&#45;&gt;Node31</title>
<path fill="none" stroke="midnightblue" d="M835.131,-195.075C836.674,-202.526 837.114,-213.338 836.451,-222.707"/>
<polygon fill="midnightblue" stroke="midnightblue" points="832.963,-222.389 835.166,-232.753 839.907,-223.278 832.963,-222.389"/>
</g>
<!-- Node38 -->
<g id="node38" class="node"><title>Node38</title>
<g id="a_node38"><a xlink:href="taker_8cpp.html" target="_top" xlink:title="Om source file. ">
<polygon fill="none" stroke="black" points="705.372,-297 705.372,-317 778.628,-317 778.628,-297 705.372,-297"/>
<text text-anchor="middle" x="742" y="-303" font-family="Helvetica,sans-Serif" font-size="10.00">om/taker.cpp</text>
</a>
</g>
</g>
<!-- Node37&#45;&gt;Node38 -->
<g id="edge65" class="edge"><title>Node37&#45;&gt;Node38</title>
<path fill="none" stroke="midnightblue" d="M737.211,-366.829C735.181,-356.735 734.727,-340.222 735.849,-327.256"/>
<polygon fill="midnightblue" stroke="midnightblue" points="739.361,-327.406 737.241,-317.025 732.425,-326.462 739.361,-327.406"/>
</g>
<!-- Node38&#45;&gt;Node37 -->
<g id="edge66" class="edge"><title>Node38&#45;&gt;Node37</title>
<path fill="none" stroke="midnightblue" d="M746.759,-317.025C748.805,-327.057 749.274,-343.557 748.167,-356.557"/>
<polygon fill="midnightblue" stroke="midnightblue" points="744.65,-356.453 746.789,-366.829 751.588,-357.384 744.65,-356.453"/>
</g>
<!-- Node39&#45;&gt;Node4 -->
<g id="edge68" class="edge"><title>Node39&#45;&gt;Node4</title>
<path fill="none" stroke="midnightblue" d="M498.862,-366.829C484.018,-355.614 458.684,-336.473 440.957,-323.079"/>
<polygon fill="midnightblue" stroke="midnightblue" points="443.034,-320.261 432.945,-317.025 438.814,-325.846 443.034,-320.261"/>
</g>
<!-- Node40 -->
<g id="node40" class="node"><title>Node40</title>
<g id="a_node40"><a xlink:href="source_2source_8hpp.html" target="_top" xlink:title="Om header file. ">
<polygon fill="none" stroke="black" points="1038.53,-233 1038.53,-253 1153.47,-253 1153.47,-233 1038.53,-233"/>
<text text-anchor="middle" x="1096" y="-239" font-family="Helvetica,sans-Serif" font-size="10.00">om/source/source.hpp</text>
</a>
</g>
</g>
<!-- Node39&#45;&gt;Node40 -->
<g id="edge69" class="edge"><title>Node39&#45;&gt;Node40</title>
<path fill="none" stroke="midnightblue" d="M507.576,-366.763C501.744,-349.24 492.316,-311.048 512,-290 520.732,-280.662 876.223,-257.603 1028.21,-248.147"/>
<polygon fill="midnightblue" stroke="midnightblue" points="1028.6,-251.63 1038.36,-247.517 1028.16,-244.644 1028.6,-251.63"/>
</g>
<!-- Node42 -->
<g id="node42" class="node"><title>Node42</title>
<polygon fill="none" stroke="#bfbfbf" points="521.488,-297 521.488,-317 572.512,-317 572.512,-297 521.488,-297"/>
<text text-anchor="middle" x="547" y="-303" font-family="Helvetica,sans-Serif" font-size="10.00">typeinfo</text>
</g>
<!-- Node39&#45;&gt;Node42 -->
<g id="edge74" class="edge"><title>Node39&#45;&gt;Node42</title>
<path fill="none" stroke="midnightblue" d="M515.855,-366.829C521.361,-356.429 530.474,-339.215 537.424,-326.087"/>
<polygon fill="midnightblue" stroke="midnightblue" points="540.636,-327.501 542.222,-317.025 534.45,-324.226 540.636,-327.501"/>
</g>
<!-- Node39&#45;&gt;Node28 -->
<g id="edge75" class="edge"><title>Node39&#45;&gt;Node28</title>
<path fill="none" stroke="midnightblue" d="M533.001,-387.186C553.859,-397.321 584.637,-413.763 605.113,-425.611"/>
<polygon fill="midnightblue" stroke="midnightblue" points="603.596,-428.78 613.987,-430.852 607.156,-422.753 603.596,-428.78"/>
</g>
<!-- Node41 -->
<g id="node41" class="node"><title>Node41</title>
<g id="a_node41"><a xlink:href="source_2source_8cpp.html" target="_top" xlink:title="Om source file. ">
<polygon fill="none" stroke="black" points="1038.81,-59 1038.81,-79 1153.19,-79 1153.19,-59 1038.81,-59"/>
<text text-anchor="middle" x="1096" y="-65" font-family="Helvetica,sans-Serif" font-size="10.00">om/source/source.cpp</text>
</a>
</g>
</g>
<!-- Node40&#45;&gt;Node41 -->
<g id="edge70" class="edge"><title>Node40&#45;&gt;Node41</title>
<path fill="none" stroke="midnightblue" d="M1132.19,-232.914C1151.62,-226.289 1173.87,-215.013 1186,-196 1205.12,-166.026 1205.12,-145.974 1186,-116 1175.86,-100.106 1158.65,-89.6189 1141.93,-82.736"/>
<polygon fill="midnightblue" stroke="midnightblue" points="1142.79,-79.32 1132.19,-79.0864 1140.33,-85.8744 1142.79,-79.32"/>
</g>
<!-- Node41&#45;&gt;Node8 -->
<g id="edge71" class="edge"><title>Node41&#45;&gt;Node8</title>
<path fill="none" stroke="midnightblue" d="M1038.64,-59.1266C962.502,-47.3483 830.452,-26.9207 768.262,-17.3003"/>
<polygon fill="midnightblue" stroke="midnightblue" points="768.612,-13.8129 758.195,-15.7429 767.542,-20.7306 768.612,-13.8129"/>
</g>
<!-- Node41&#45;&gt;Node9 -->
<g id="edge72" class="edge"><title>Node41&#45;&gt;Node9</title>
<path fill="none" stroke="midnightblue" d="M1038.47,-61.4114C938.01,-49.9071 733.101,-26.441 646.764,-16.5537"/>
<polygon fill="midnightblue" stroke="midnightblue" points="646.929,-13.0499 636.596,-15.3893 646.133,-20.0044 646.929,-13.0499"/>
</g>
<!-- Node41&#45;&gt;Node40 -->
<g id="edge73" class="edge"><title>Node41&#45;&gt;Node40</title>
<path fill="none" stroke="midnightblue" d="M1148.12,-79.0031C1169.44,-85.616 1191.82,-96.9072 1204,-116 1223.12,-145.974 1223.12,-166.026 1204,-196 1193.63,-212.259 1175.86,-222.86 1157.65,-229.733"/>
<polygon fill="midnightblue" stroke="midnightblue" points="1156.44,-226.444 1148.12,-232.997 1158.71,-233.067 1156.44,-226.444"/>
</g>
<!-- Node44 -->
<g id="node44" class="node"><title>Node44</title>
<g id="a_node44"><a xlink:href="singleton__source_8hpp.html" target="_top" xlink:title="Om header file. ">
<polygon fill="none" stroke="black" points="1191.25,-361 1191.25,-393 1296.75,-393 1296.75,-361 1191.25,-361"/>
<text text-anchor="start" x="1199.25" y="-379" font-family="Helvetica,sans-Serif" font-size="10.00">om/source/singleton</text>
<text text-anchor="middle" x="1244" y="-367" font-family="Helvetica,sans-Serif" font-size="10.00">_source.hpp</text>
</a>
</g>
</g>
<!-- Node43&#45;&gt;Node44 -->
<g id="edge77" class="edge"><title>Node43&#45;&gt;Node44</title>
<path fill="none" stroke="midnightblue" d="M829.741,-431.958C920.664,-420.115 1089.67,-398.102 1181.2,-386.18"/>
<polygon fill="midnightblue" stroke="midnightblue" points="1181.69,-389.646 1191.15,-384.883 1180.79,-382.704 1181.69,-389.646"/>
</g>
<!-- Node43&#45;&gt;Node27 -->
<g id="edge84" class="edge"><title>Node43&#45;&gt;Node27</title>
<path fill="none" stroke="midnightblue" d="M750.67,-451.118C729.73,-460.391 694.339,-474.838 667.202,-485.244"/>
<polygon fill="midnightblue" stroke="midnightblue" points="665.729,-482.059 657.62,-488.878 668.211,-488.605 665.729,-482.059"/>
</g>
<!-- Node45 -->
<g id="node45" class="node"><title>Node45</title>
<g id="a_node45"><a xlink:href="default__source_8hpp.html" target="_top" xlink:title="Om header file. ">
<polygon fill="none" stroke="black" points="1095.74,-297 1095.74,-317 1246.26,-317 1246.26,-297 1095.74,-297"/>
<text text-anchor="middle" x="1171" y="-303" font-family="Helvetica,sans-Serif" font-size="10.00">om/source/default_source.hpp</text>
</a>
</g>
</g>
<!-- Node44&#45;&gt;Node45 -->
<g id="edge78" class="edge"><title>Node44&#45;&gt;Node45</title>
<path fill="none" stroke="midnightblue" d="M1227.8,-360.909C1216.06,-349.972 1200.21,-335.209 1188.24,-324.057"/>
<polygon fill="midnightblue" stroke="midnightblue" points="1190.37,-321.259 1180.67,-317.004 1185.6,-326.381 1190.37,-321.259"/>
</g>
<!-- Node47 -->
<g id="node47" class="node"><title>Node47</title>
<g id="a_node47"><a xlink:href="singleton__source_8cpp.html" target="_top" xlink:title="Om source file. ">
<polygon fill="none" stroke="black" points="1264.25,-291 1264.25,-323 1369.75,-323 1369.75,-291 1264.25,-291"/>
<text text-anchor="start" x="1272.25" y="-309" font-family="Helvetica,sans-Serif" font-size="10.00">om/source/singleton</text>
<text text-anchor="middle" x="1317" y="-297" font-family="Helvetica,sans-Serif" font-size="10.00">_source.cpp</text>
</a>
</g>
</g>
<!-- Node44&#45;&gt;Node47 -->
<g id="edge82" class="edge"><title>Node44&#45;&gt;Node47</title>
<path fill="none" stroke="midnightblue" d="M1254.48,-360.909C1263.19,-351.753 1275.69,-339.914 1287.3,-329.758"/>
<polygon fill="midnightblue" stroke="midnightblue" points="1289.81,-332.213 1295.13,-323.049 1285.26,-326.896 1289.81,-332.213"/>
</g>
<!-- Node45&#45;&gt;Node40 -->
<g id="edge79" class="edge"><title>Node45&#45;&gt;Node40</title>
<path fill="none" stroke="midnightblue" d="M1159.93,-296.852C1148.08,-287.053 1129.06,-271.327 1114.84,-259.573"/>
<polygon fill="midnightblue" stroke="midnightblue" points="1117.05,-256.86 1107.11,-253.186 1112.59,-262.255 1117.05,-256.86"/>
</g>
<!-- Node46 -->
<g id="node46" class="node"><title>Node46</title>
<g id="a_node46"><a xlink:href="default__source_8cpp.html" target="_top" xlink:title="Om source file. ">
<polygon fill="none" stroke="black" points="1171.02,-233 1171.02,-253 1320.98,-253 1320.98,-233 1171.02,-233"/>
<text text-anchor="middle" x="1246" y="-239" font-family="Helvetica,sans-Serif" font-size="10.00">om/source/default_source.cpp</text>
</a>
</g>
</g>
<!-- Node45&#45;&gt;Node46 -->
<g id="edge80" class="edge"><title>Node45&#45;&gt;Node46</title>
<path fill="none" stroke="midnightblue" d="M1177.11,-296.852C1187.06,-286.961 1206.01,-271.033 1221.65,-259.244"/>
<polygon fill="midnightblue" stroke="midnightblue" points="1223.93,-261.918 1229.93,-253.186 1219.79,-256.271 1223.93,-261.918"/>
</g>
<!-- Node46&#45;&gt;Node45 -->
<g id="edge81" class="edge"><title>Node46&#45;&gt;Node45</title>
<path fill="none" stroke="midnightblue" d="M1239.85,-253.186C1229.88,-263.092 1210.92,-279.023 1195.29,-290.8"/>
<polygon fill="midnightblue" stroke="midnightblue" points="1193.02,-288.12 1187.02,-296.852 1197.16,-293.769 1193.02,-288.12"/>
</g>
<!-- Node47&#45;&gt;Node44 -->
<g id="edge83" class="edge"><title>Node47&#45;&gt;Node44</title>
<path fill="none" stroke="midnightblue" d="M1306.56,-323.049C1297.86,-332.197 1285.36,-344.034 1273.76,-354.195"/>
<polygon fill="midnightblue" stroke="midnightblue" points="1271.24,-351.744 1265.92,-360.909 1275.79,-357.06 1271.24,-351.744"/>
</g>
</g>
</svg>
