<?xml version="1.0" encoding="UTF-8" standalone="no"?>
<!DOCTYPE svg PUBLIC "-//W3C//DTD SVG 1.1//EN"
 "http://www.w3.org/Graphics/SVG/1.1/DTD/svg11.dtd">
<!-- Generated by graphviz version 2.36.0 (20140111.2315)
 -->
<!-- Title: om/language/default_consumer.cpp Pages: 1 -->
<svg width="146pt" height="216pt"
 viewBox="0.00 0.00 146.00 216.00" xmlns="http://www.w3.org/2000/svg" xmlns:xlink="http://www.w3.org/1999/xlink">
<g id="graph0" class="graph" transform="scale(1 1) rotate(0) translate(4 212)">
<title>om/language/default_consumer.cpp</title>
<!-- Node1 -->
<g id="node1" class="node"><title>Node1</title>
<g id="a_node1"><a xlink:title="Om source file.">
<polygon fill="#bfbfbf" stroke="black" points="15.6875,-179 15.6875,-207 122.312,-207 122.312,-179 15.6875,-179"/>
<text text-anchor="start" x="23.6875" y="-195" font-family="Helvetica,sans-Serif" font-size="10.00">om/language/default</text>
<text text-anchor="middle" x="69" y="-185" font-family="Helvetica,sans-Serif" font-size="10.00">_consumer.cpp</text>
</a>
</g>
</g>
<!-- Node2 -->
<g id="node2" class="node"><title>Node2</title>
<g id="a_node2"><a xlink:href="default__consumer_8hpp.html" target="_top" xlink:title="Om header file.">
<polygon fill="none" stroke="black" points="15.6875,-113 15.6875,-141 122.312,-141 122.312,-113 15.6875,-113"/>
<text text-anchor="start" x="23.6875" y="-129" font-family="Helvetica,sans-Serif" font-size="10.00">om/language/default</text>
<text text-anchor="middle" x="69" y="-119" font-family="Helvetica,sans-Serif" font-size="10.00">_consumer.hpp</text>
</a>
</g>
</g>
<!-- Node1&#45;&gt;Node2 -->
<g id="edge1" class="edge"><title>Node1&#45;&gt;Node2</title>
<path fill="none" stroke="midnightblue" d="M63.4073,-178.739C62.2976,-170.844 61.986,-160.6 62.4723,-151.386"/>
<polygon fill="midnightblue" stroke="midnightblue" points="65.9743,-151.524 63.4097,-141.244 59.004,-150.879 65.9743,-151.524"/>
</g>
<!-- Node2&#45;&gt;Node1 -->
<g id="edge5" class="edge"><title>Node2&#45;&gt;Node1</title>
<path fill="none" stroke="midnightblue" d="M74.5903,-141.244C75.7011,-149.135 76.0139,-159.379 75.5288,-168.595"/>
<polygon fill="midnightblue" stroke="midnightblue" points="72.0264,-168.46 74.5927,-178.739 78.9968,-169.103 72.0264,-168.46"/>
</g>
<!-- Node3 -->
<g id="node3" class="node"><title>Node3</title>
<g id="a_node3"><a xlink:href="consumer_8hpp.html" target="_top" xlink:title="Om header file.">
<polygon fill="none" stroke="black" points="-0.711426,-57 -0.711426,-75 138.711,-75 138.711,-57 -0.711426,-57"/>
<text text-anchor="middle" x="69" y="-63" font-family="Helvetica,sans-Serif" font-size="10.00">om/language/consumer.hpp</text>
</a>
</g>
</g>
<!-- Node2&#45;&gt;Node3 -->
<g id="edge2" class="edge"><title>Node2&#45;&gt;Node3</title>
<path fill="none" stroke="midnightblue" d="M69,-112.906C69,-104.79 69,-94.245 69,-85.3086"/>
<polygon fill="midnightblue" stroke="midnightblue" points="72.5001,-85.1533 69,-75.1534 65.5001,-85.1534 72.5001,-85.1533"/>
</g>
<!-- Node4 -->
<g id="node4" class="node"><title>Node4</title>
<g id="a_node4"><a xlink:href="consumer_8cpp.html" target="_top" xlink:title="Om source file.">
<polygon fill="none" stroke="black" points="-0.430664,-1 -0.430664,-19 138.431,-19 138.431,-1 -0.430664,-1"/>
<text text-anchor="middle" x="69" y="-7" font-family="Helvetica,sans-Serif" font-size="10.00">om/language/consumer.cpp</text>
</a>
</g>
</g>
<!-- Node3&#45;&gt;Node4 -->
<g id="edge3" class="edge"><title>Node3&#45;&gt;Node4</title>
<path fill="none" stroke="midnightblue" d="M63.9375,-56.5625C62.3254,-49.308 61.8683,-38.5884 62.5664,-29.3691"/>
<polygon fill="midnightblue" stroke="midnightblue" points="66.0695,-29.5903 63.9906,-19.2014 59.1371,-28.6192 66.0695,-29.5903"/>
</g>
<!-- Node4&#45;&gt;Node3 -->
<g id="edge4" class="edge"><title>Node4&#45;&gt;Node3</title>
<path fill="none" stroke="midnightblue" d="M74.0094,-19.2014C75.6646,-26.4586 76.1393,-37.3129 75.4335,-46.6333"/>
<polygon fill="midnightblue" stroke="midnightblue" points="71.9632,-46.1777 74.0625,-56.5625 78.8974,-47.1352 71.9632,-46.1777"/>
</g>
</g>
</svg>
