<?xml version="1.0" encoding="UTF-8" standalone="no"?>
<!DOCTYPE svg PUBLIC "-//W3C//DTD SVG 1.1//EN"
 "http://www.w3.org/Graphics/SVG/1.1/DTD/svg11.dtd">
<!-- Generated by graphviz version 2.28.0 (20120817.0054)
 -->
<!-- Title: code/om/default_program.cpp Pages: 1 -->
<svg width="1410pt" height="568pt"
 viewBox="0.00 0.00 1410.00 568.00" xmlns="http://www.w3.org/2000/svg" xmlns:xlink="http://www.w3.org/1999/xlink">
<g id="graph1" class="graph" transform="scale(1 1) rotate(0) translate(4 564)">
<title>code/om/default_program.cpp</title>
<!-- Node1 -->
<g id="node1" class="node"><title>Node1</title>
<polygon fill="#bfbfbf" stroke="black" points="1176,-540.5 1176,-559.5 1318,-559.5 1318,-540.5 1176,-540.5"/>
<text text-anchor="middle" x="1247" y="-547.5" font-family="Helvetica,sans-Serif" font-size="10.00">code/om/default_program.cpp</text>
</g>
<!-- Node2 -->
<g id="node3" class="node"><title>Node2</title>
<a xlink:href="default__program_8hpp.html" target="_top" xlink:title="Om hpp file.">
<polygon fill="none" stroke="black" points="1175.5,-484.5 1175.5,-503.5 1318.5,-503.5 1318.5,-484.5 1175.5,-484.5"/>
<text text-anchor="middle" x="1247" y="-491.5" font-family="Helvetica,sans-Serif" font-size="10.00">code/om/default_program.hpp</text>
</a>
</g>
<!-- Node1&#45;&gt;Node2 -->
<g id="edge2" class="edge"><title>Node1&#45;&gt;Node2</title>
<path fill="none" stroke="midnightblue" d="M1240.53,-530.101C1239.9,-521.136 1240.34,-510.858 1241.87,-503.751"/>
<polygon fill="midnightblue" stroke="midnightblue" points="1237.07,-530.622 1241.83,-540.083 1244.01,-529.713 1237.07,-530.622"/>
</g>
<!-- Node2&#45;&gt;Node1 -->
<g id="edge102" class="edge"><title>Node2&#45;&gt;Node1</title>
<path fill="none" stroke="midnightblue" d="M1253.46,-513.691C1254.11,-522.635 1253.68,-532.927 1252.17,-540.083"/>
<polygon fill="midnightblue" stroke="midnightblue" points="1256.92,-513.2 1252.13,-503.751 1249.98,-514.126 1256.92,-513.2"/>
</g>
<!-- Node3 -->
<g id="node5" class="node"><title>Node3</title>
<a xlink:href="default__element_8hpp.html" target="_top" xlink:title="Om hpp file.">
<polygon fill="none" stroke="black" points="913,-428.5 913,-447.5 1053,-447.5 1053,-428.5 913,-428.5"/>
<text text-anchor="middle" x="983" y="-435.5" font-family="Helvetica,sans-Serif" font-size="10.00">code/om/default_element.hpp</text>
</a>
</g>
<!-- Node2&#45;&gt;Node3 -->
<g id="edge4" class="edge"><title>Node2&#45;&gt;Node3</title>
<path fill="none" stroke="midnightblue" d="M1195.22,-482.41C1145.33,-472.204 1070.8,-456.96 1024.64,-447.516"/>
<polygon fill="midnightblue" stroke="midnightblue" points="1194.67,-485.869 1205.17,-484.444 1196.07,-479.01 1194.67,-485.869"/>
</g>
<!-- Node37 -->
<g id="node89" class="node"><title>Node37</title>
<a xlink:href="literal_8hpp.html" target="_top" xlink:title="Om hpp file.">
<polygon fill="none" stroke="black" points="1199.5,-428.5 1199.5,-447.5 1294.5,-447.5 1294.5,-428.5 1199.5,-428.5"/>
<text text-anchor="middle" x="1247" y="-435.5" font-family="Helvetica,sans-Serif" font-size="10.00">code/om/literal.hpp</text>
</a>
</g>
<!-- Node2&#45;&gt;Node37 -->
<g id="edge104" class="edge"><title>Node2&#45;&gt;Node37</title>
<path fill="none" stroke="midnightblue" d="M1247,-473.805C1247,-464.91 1247,-454.78 1247,-447.751"/>
<polygon fill="midnightblue" stroke="midnightblue" points="1243.5,-474.083 1247,-484.083 1250.5,-474.083 1243.5,-474.083"/>
</g>
<!-- Node39 -->
<g id="node94" class="node"><title>Node39</title>
<a xlink:href="null_8hpp.html" target="_top" xlink:title="Om hpp file.">
<polygon fill="none" stroke="black" points="1312.5,-428.5 1312.5,-447.5 1401.5,-447.5 1401.5,-428.5 1312.5,-428.5"/>
<text text-anchor="middle" x="1357" y="-435.5" font-family="Helvetica,sans-Serif" font-size="10.00">code/om/null.hpp</text>
</a>
</g>
<!-- Node2&#45;&gt;Node39 -->
<g id="edge110" class="edge"><title>Node2&#45;&gt;Node39</title>
<path fill="none" stroke="midnightblue" d="M1273.76,-479.862C1294.16,-469.849 1321.67,-456.346 1339.37,-447.655"/>
<polygon fill="midnightblue" stroke="midnightblue" points="1272.11,-476.775 1264.67,-484.324 1275.19,-483.059 1272.11,-476.775"/>
</g>
<!-- Node4 -->
<g id="node7" class="node"><title>Node4</title>
<a xlink:href="default__atom_8hpp.html" target="_top" xlink:title="Om hpp file.">
<polygon fill="none" stroke="black" points="728.5,-372.5 728.5,-391.5 857.5,-391.5 857.5,-372.5 728.5,-372.5"/>
<text text-anchor="middle" x="793" y="-379.5" font-family="Helvetica,sans-Serif" font-size="10.00">code/om/default_atom.hpp</text>
</a>
</g>
<!-- Node3&#45;&gt;Node4 -->
<g id="edge6" class="edge"><title>Node3&#45;&gt;Node4</title>
<path fill="none" stroke="midnightblue" d="M943.236,-425.699C907.377,-415.507 855.429,-400.743 822.965,-391.516"/>
<polygon fill="midnightblue" stroke="midnightblue" points="942.318,-429.076 952.894,-428.444 944.232,-422.343 942.318,-429.076"/>
</g>
<!-- Node34 -->
<g id="node80" class="node"><title>Node34</title>
<a xlink:href="default__element_8cpp.html" target="_top" xlink:title="Om cpp file.">
<polygon fill="none" stroke="black" points="913,-372.5 913,-391.5 1053,-391.5 1053,-372.5 913,-372.5"/>
<text text-anchor="middle" x="983" y="-379.5" font-family="Helvetica,sans-Serif" font-size="10.00">code/om/default_element.cpp</text>
</a>
</g>
<!-- Node3&#45;&gt;Node34 -->
<g id="edge92" class="edge"><title>Node3&#45;&gt;Node34</title>
<path fill="none" stroke="midnightblue" d="M976.528,-418.101C975.896,-409.136 976.343,-398.858 977.869,-391.751"/>
<polygon fill="midnightblue" stroke="midnightblue" points="973.066,-418.622 977.834,-428.083 980.007,-417.713 973.066,-418.622"/>
</g>
<!-- Node35 -->
<g id="node83" class="node"><title>Node35</title>
<a xlink:href="operand_8hpp.html" target="_top" xlink:title="Om hpp file.">
<polygon fill="none" stroke="black" points="1071,-372.5 1071,-391.5 1181,-391.5 1181,-372.5 1071,-372.5"/>
<text text-anchor="middle" x="1126" y="-379.5" font-family="Helvetica,sans-Serif" font-size="10.00">code/om/operand.hpp</text>
</a>
</g>
<!-- Node3&#45;&gt;Node35 -->
<g id="edge96" class="edge"><title>Node3&#45;&gt;Node35</title>
<path fill="none" stroke="midnightblue" d="M1015.03,-424.906C1041.91,-414.754 1079.64,-400.506 1103.45,-391.516"/>
<polygon fill="midnightblue" stroke="midnightblue" points="1013.78,-421.636 1005.66,-428.444 1016.25,-428.185 1013.78,-421.636"/>
</g>
<!-- Node5 -->
<g id="node9" class="node"><title>Node5</title>
<a xlink:href="default__atom_8cpp.html" target="_top" xlink:title="Om cpp file.">
<polygon fill="none" stroke="black" points="592,-316.5 592,-335.5 720,-335.5 720,-316.5 592,-316.5"/>
<text text-anchor="middle" x="656" y="-323.5" font-family="Helvetica,sans-Serif" font-size="10.00">code/om/default_atom.cpp</text>
</a>
</g>
<!-- Node4&#45;&gt;Node5 -->
<g id="edge8" class="edge"><title>Node4&#45;&gt;Node5</title>
<path fill="none" stroke="midnightblue" d="M756.58,-368.906C729.28,-358.754 693.354,-344.506 672.527,-335.516"/>
<polygon fill="midnightblue" stroke="midnightblue" points="755.61,-372.278 766.203,-372.444 758.025,-365.708 755.61,-372.278"/>
</g>
<!-- Node6 -->
<g id="node12" class="node"><title>Node6</title>
<a xlink:href="operator_8hpp.html" target="_top" xlink:title="Om hpp file.">
<polygon fill="none" stroke="black" points="738,-316.5 738,-335.5 848,-335.5 848,-316.5 738,-316.5"/>
<text text-anchor="middle" x="793" y="-323.5" font-family="Helvetica,sans-Serif" font-size="10.00">code/om/operator.hpp</text>
</a>
</g>
<!-- Node4&#45;&gt;Node6 -->
<g id="edge12" class="edge"><title>Node4&#45;&gt;Node6</title>
<path fill="none" stroke="midnightblue" d="M793,-361.805C793,-352.91 793,-342.78 793,-335.751"/>
<polygon fill="midnightblue" stroke="midnightblue" points="789.5,-362.083 793,-372.083 796.5,-362.083 789.5,-362.083"/>
</g>
<!-- Node32 -->
<g id="node75" class="node"><title>Node32</title>
<a xlink:href="separator_8hpp.html" target="_top" xlink:title="Om hpp file.">
<polygon fill="none" stroke="black" points="937,-316.5 937,-335.5 1053,-335.5 1053,-316.5 937,-316.5"/>
<text text-anchor="middle" x="995" y="-323.5" font-family="Helvetica,sans-Serif" font-size="10.00">code/om/separator.hpp</text>
</a>
</g>
<!-- Node4&#45;&gt;Node32 -->
<g id="edge86" class="edge"><title>Node4&#45;&gt;Node32</title>
<path fill="none" stroke="midnightblue" d="M834.788,-369.829C872.927,-359.633 928.481,-344.782 963.142,-335.516"/>
<polygon fill="midnightblue" stroke="midnightblue" points="833.764,-366.48 825.008,-372.444 835.572,-373.242 833.764,-366.48"/>
</g>
<!-- Node5&#45;&gt;Node4 -->
<g id="edge10" class="edge"><title>Node5&#45;&gt;Node4</title>
<path fill="none" stroke="midnightblue" d="M692.299,-339.049C719.572,-349.189 755.509,-363.438 776.381,-372.444"/>
<polygon fill="midnightblue" stroke="midnightblue" points="693.28,-335.681 682.686,-335.516 690.865,-342.251 693.28,-335.681"/>
</g>
<!-- Node7 -->
<g id="node14" class="node"><title>Node7</title>
<a xlink:href="form_8hpp.html" target="_top" xlink:title="Om hpp file.">
<polygon fill="none" stroke="black" points="519,-260.5 519,-279.5 611,-279.5 611,-260.5 519,-260.5"/>
<text text-anchor="middle" x="565" y="-267.5" font-family="Helvetica,sans-Serif" font-size="10.00">code/om/form.hpp</text>
</a>
</g>
<!-- Node6&#45;&gt;Node7 -->
<g id="edge14" class="edge"><title>Node6&#45;&gt;Node7</title>
<path fill="none" stroke="midnightblue" d="M746.929,-314.088C703.854,-303.887 640.414,-288.861 600.958,-279.516"/>
<polygon fill="midnightblue" stroke="midnightblue" points="746.335,-317.545 756.873,-316.444 747.949,-310.733 746.335,-317.545"/>
</g>
<!-- Node21 -->
<g id="node48" class="node"><title>Node21</title>
<a xlink:href="operator_8cpp.html" target="_top" xlink:title="Om cpp file.">
<polygon fill="none" stroke="black" points="719.5,-260.5 719.5,-279.5 828.5,-279.5 828.5,-260.5 719.5,-260.5"/>
<text text-anchor="middle" x="774" y="-267.5" font-family="Helvetica,sans-Serif" font-size="10.00">code/om/operator.cpp</text>
</a>
</g>
<!-- Node6&#45;&gt;Node21 -->
<g id="edge54" class="edge"><title>Node6&#45;&gt;Node21</title>
<path fill="none" stroke="midnightblue" d="M780.254,-306.983C776.303,-297.817 772.954,-287.092 771.948,-279.751"/>
<polygon fill="midnightblue" stroke="midnightblue" points="777.164,-308.632 784.696,-316.083 783.455,-305.561 777.164,-308.632"/>
</g>
<!-- Node22 -->
<g id="node51" class="node"><title>Node22</title>
<a xlink:href="pair_8hpp.html" target="_top" xlink:title="Om hpp file.">
<polygon fill="none" stroke="black" points="846.5,-260.5 846.5,-279.5 937.5,-279.5 937.5,-260.5 846.5,-260.5"/>
<text text-anchor="middle" x="892" y="-267.5" font-family="Helvetica,sans-Serif" font-size="10.00">code/om/pair.hpp</text>
</a>
</g>
<!-- Node6&#45;&gt;Node22 -->
<g id="edge58" class="edge"><title>Node6&#45;&gt;Node22</title>
<path fill="none" stroke="midnightblue" d="M817.837,-311.453C836.114,-301.483 860.416,-288.228 876.133,-279.655"/>
<polygon fill="midnightblue" stroke="midnightblue" points="816.009,-308.463 808.906,-316.324 819.361,-314.608 816.009,-308.463"/>
</g>
<!-- Node8 -->
<g id="node16" class="node"><title>Node8</title>
<a xlink:href="expression_8hpp.html" target="_top" xlink:title="Om hpp file.">
<polygon fill="none" stroke="black" points="313,-204.5 313,-223.5 435,-223.5 435,-204.5 313,-204.5"/>
<text text-anchor="middle" x="374" y="-211.5" font-family="Helvetica,sans-Serif" font-size="10.00">code/om/expression.hpp</text>
</a>
</g>
<!-- Node7&#45;&gt;Node8 -->
<g id="edge16" class="edge"><title>Node7&#45;&gt;Node8</title>
<path fill="none" stroke="midnightblue" d="M525.027,-257.699C488.979,-247.507 436.757,-232.743 404.123,-223.516"/>
<polygon fill="midnightblue" stroke="midnightblue" points="524.16,-261.091 534.735,-260.444 526.065,-254.355 524.16,-261.091"/>
</g>
<!-- Node20 -->
<g id="node45" class="node"><title>Node20</title>
<a xlink:href="form_8cpp.html" target="_top" xlink:title="Om cpp file.">
<polygon fill="none" stroke="black" points="519,-204.5 519,-223.5 611,-223.5 611,-204.5 519,-204.5"/>
<text text-anchor="middle" x="565" y="-211.5" font-family="Helvetica,sans-Serif" font-size="10.00">code/om/form.cpp</text>
</a>
</g>
<!-- Node7&#45;&gt;Node20 -->
<g id="edge50" class="edge"><title>Node7&#45;&gt;Node20</title>
<path fill="none" stroke="midnightblue" d="M558.528,-250.101C557.896,-241.136 558.343,-230.858 559.869,-223.751"/>
<polygon fill="midnightblue" stroke="midnightblue" points="555.066,-250.622 559.834,-260.083 562.007,-249.713 555.066,-250.622"/>
</g>
<!-- Node9 -->
<g id="node18" class="node"><title>Node9</title>
<a xlink:href="evaluation_8hpp.html" target="_top" xlink:title="Om hpp file.">
<polygon fill="none" stroke="black" points="-0.5,-142.5 -0.5,-161.5 118.5,-161.5 118.5,-142.5 -0.5,-142.5"/>
<text text-anchor="middle" x="59" y="-149.5" font-family="Helvetica,sans-Serif" font-size="10.00">code/om/evaluation.hpp</text>
</a>
</g>
<!-- Node8&#45;&gt;Node9 -->
<g id="edge18" class="edge"><title>Node8&#45;&gt;Node9</title>
<path fill="none" stroke="midnightblue" d="M314.21,-202.744C264.113,-193.998 190.762,-180.836 127,-168 117.045,-165.996 106.301,-163.692 96.3587,-161.501"/>
<polygon fill="midnightblue" stroke="midnightblue" points="313.77,-206.22 324.222,-204.487 314.97,-199.323 313.77,-206.22"/>
</g>
<!-- Node11 -->
<g id="node23" class="node"><title>Node11</title>
<a xlink:href="expression_8cpp.html" target="_top" xlink:title="Om cpp file.">
<polygon fill="none" stroke="black" points="136.5,-142.5 136.5,-161.5 257.5,-161.5 257.5,-142.5 136.5,-142.5"/>
<text text-anchor="middle" x="197" y="-149.5" font-family="Helvetica,sans-Serif" font-size="10.00">code/om/expression.cpp</text>
</a>
</g>
<!-- Node8&#45;&gt;Node11 -->
<g id="edge24" class="edge"><title>Node8&#45;&gt;Node11</title>
<path fill="none" stroke="midnightblue" d="M333.953,-201.283C297.681,-189.62 245.893,-171.999 217.416,-161.581"/>
<polygon fill="midnightblue" stroke="midnightblue" points="333.149,-204.7 343.74,-204.403 335.275,-198.031 333.149,-204.7"/>
</g>
<!-- Node12 -->
<g id="node26" class="node"><title>Node12</title>
<a xlink:href="expression__operation_8hpp.html" target="_top" xlink:title="Om hpp file.">
<polygon fill="none" stroke="black" points="276,-137 276,-167 406,-167 406,-137 276,-137"/>
<text text-anchor="start" x="284" y="-155" font-family="Helvetica,sans-Serif" font-size="10.00">code/om/operations</text>
<text text-anchor="middle" x="341" y="-144" font-family="Helvetica,sans-Serif" font-size="10.00">/expression_operation.hpp</text>
</a>
</g>
<!-- Node8&#45;&gt;Node12 -->
<g id="edge28" class="edge"><title>Node8&#45;&gt;Node12</title>
<path fill="none" stroke="midnightblue" d="M364.393,-195.533C359.428,-186.506 353.448,-175.633 348.777,-167.141"/>
<polygon fill="midnightblue" stroke="midnightblue" points="361.386,-197.328 369.272,-204.403 367.519,-193.955 361.386,-197.328"/>
</g>
<!-- Node14 -->
<g id="node30" class="node"><title>Node14</title>
<a xlink:href="fill__operation_8hpp.html" target="_top" xlink:title="Om hpp file.">
<polygon fill="none" stroke="black" points="424,-137 424,-167 524,-167 524,-137 424,-137"/>
<text text-anchor="start" x="432" y="-155" font-family="Helvetica,sans-Serif" font-size="10.00">code/om/operations</text>
<text text-anchor="middle" x="474" y="-144" font-family="Helvetica,sans-Serif" font-size="10.00">/fill_operation.hpp</text>
</a>
</g>
<!-- Node8&#45;&gt;Node14 -->
<g id="edge32" class="edge"><title>Node8&#45;&gt;Node14</title>
<path fill="none" stroke="midnightblue" d="M397.065,-199.161C413.069,-189.559 434.32,-176.808 450.432,-167.141"/>
<polygon fill="midnightblue" stroke="midnightblue" points="395.102,-196.257 388.328,-204.403 398.703,-202.26 395.102,-196.257"/>
</g>
<!-- Node16 -->
<g id="node35" class="node"><title>Node16</title>
<a xlink:href="inject__operation_8hpp.html" target="_top" xlink:title="Om hpp file.">
<polygon fill="none" stroke="black" points="542,-137 542,-167 646,-167 646,-137 542,-137"/>
<text text-anchor="start" x="550" y="-155" font-family="Helvetica,sans-Serif" font-size="10.00">code/om/operations</text>
<text text-anchor="middle" x="594" y="-144" font-family="Helvetica,sans-Serif" font-size="10.00">/inject_operation.hpp</text>
</a>
</g>
<!-- Node8&#45;&gt;Node16 -->
<g id="edge38" class="edge"><title>Node8&#45;&gt;Node16</title>
<path fill="none" stroke="midnightblue" d="M415.227,-201.756C451.278,-191.924 503.785,-177.604 542.574,-167.025"/>
<polygon fill="midnightblue" stroke="midnightblue" points="414.247,-198.396 405.521,-204.403 416.089,-205.149 414.247,-198.396"/>
</g>
<!-- Node18 -->
<g id="node40" class="node"><title>Node18</title>
<a xlink:href="skip__operation_8hpp.html" target="_top" xlink:title="Om hpp file.">
<polygon fill="none" stroke="black" points="664.5,-137 664.5,-167 765.5,-167 765.5,-137 664.5,-137"/>
<text text-anchor="start" x="672.5" y="-155" font-family="Helvetica,sans-Serif" font-size="10.00">code/om/operations</text>
<text text-anchor="middle" x="715" y="-144" font-family="Helvetica,sans-Serif" font-size="10.00">/skip_operation.hpp</text>
</a>
</g>
<!-- Node8&#45;&gt;Node18 -->
<g id="edge44" class="edge"><title>Node8&#45;&gt;Node18</title>
<path fill="none" stroke="midnightblue" d="M445.107,-203.342C502.1,-195.186 583.997,-182.533 655,-168 658.051,-167.376 661.18,-166.7 664.331,-165.993"/>
<polygon fill="midnightblue" stroke="midnightblue" points="444.527,-199.889 435.119,-204.762 445.512,-206.82 444.527,-199.889"/>
</g>
<!-- Node10 -->
<g id="node20" class="node"><title>Node10</title>
<a xlink:href="evaluation_8cpp.html" target="_top" xlink:title="Om cpp file.">
<polygon fill="none" stroke="black" points="0,-74.5 0,-93.5 118,-93.5 118,-74.5 0,-74.5"/>
<text text-anchor="middle" x="59" y="-81.5" font-family="Helvetica,sans-Serif" font-size="10.00">code/om/evaluation.cpp</text>
</a>
</g>
<!-- Node9&#45;&gt;Node10 -->
<g id="edge20" class="edge"><title>Node9&#45;&gt;Node10</title>
<path fill="none" stroke="midnightblue" d="M52.8593,-132.425C51.722,-119.798 52.1768,-103.662 54.2239,-93.8411"/>
<polygon fill="midnightblue" stroke="midnightblue" points="49.4003,-132.962 54.2687,-142.372 56.3311,-131.979 49.4003,-132.962"/>
</g>
<!-- Node10&#45;&gt;Node9 -->
<g id="edge22" class="edge"><title>Node10&#45;&gt;Node9</title>
<path fill="none" stroke="midnightblue" d="M65.1652,-103.85C66.2794,-116.528 65.8015,-132.643 63.7313,-142.372"/>
<polygon fill="midnightblue" stroke="midnightblue" points="68.6176,-103.265 63.7761,-93.8411 61.684,-104.227 68.6176,-103.265"/>
</g>
<!-- Node11&#45;&gt;Node8 -->
<g id="edge26" class="edge"><title>Node11&#45;&gt;Node8</title>
<path fill="none" stroke="midnightblue" d="M236.992,-164.699C273.248,-176.356 325.04,-193.978 353.541,-204.403"/>
<polygon fill="midnightblue" stroke="midnightblue" points="237.801,-161.284 227.21,-161.581 235.674,-167.953 237.801,-161.284"/>
</g>
<!-- Node13 -->
<g id="node28" class="node"><title>Node13</title>
<a xlink:href="expression__operation_8cpp.html" target="_top" xlink:title="Om cpp file.">
<polygon fill="none" stroke="black" points="276.5,-69 276.5,-99 405.5,-99 405.5,-69 276.5,-69"/>
<text text-anchor="start" x="284.5" y="-87" font-family="Helvetica,sans-Serif" font-size="10.00">code/om/operations</text>
<text text-anchor="middle" x="341" y="-76" font-family="Helvetica,sans-Serif" font-size="10.00">/expression_operation.cpp</text>
</a>
</g>
<!-- Node12&#45;&gt;Node13 -->
<g id="edge30" class="edge"><title>Node12&#45;&gt;Node13</title>
<path fill="none" stroke="midnightblue" d="M341,-126.532C341,-117.361 341,-107.245 341,-99.2931"/>
<polygon fill="midnightblue" stroke="midnightblue" points="337.5,-126.679 341,-136.679 344.5,-126.679 337.5,-126.679"/>
</g>
<!-- Node15 -->
<g id="node32" class="node"><title>Node15</title>
<a xlink:href="fill__operation_8cpp.html" target="_top" xlink:title="Om cpp file.">
<polygon fill="none" stroke="black" points="424,-69 424,-99 524,-99 524,-69 424,-69"/>
<text text-anchor="start" x="432" y="-87" font-family="Helvetica,sans-Serif" font-size="10.00">code/om/operations</text>
<text text-anchor="middle" x="474" y="-76" font-family="Helvetica,sans-Serif" font-size="10.00">/fill_operation.cpp</text>
</a>
</g>
<!-- Node14&#45;&gt;Node15 -->
<g id="edge34" class="edge"><title>Node14&#45;&gt;Node15</title>
<path fill="none" stroke="midnightblue" d="M467.455,-126.532C467.005,-117.361 467.296,-107.245 468.325,-99.2931"/>
<polygon fill="midnightblue" stroke="midnightblue" points="463.983,-127.013 468.322,-136.679 470.958,-126.417 463.983,-127.013"/>
</g>
<!-- Node15&#45;&gt;Node14 -->
<g id="edge36" class="edge"><title>Node15&#45;&gt;Node14</title>
<path fill="none" stroke="midnightblue" d="M480.544,-109.436C480.995,-118.605 480.706,-128.722 479.678,-136.679"/>
<polygon fill="midnightblue" stroke="midnightblue" points="484.016,-108.958 479.675,-99.2931 477.041,-109.555 484.016,-108.958"/>
</g>
<!-- Node17 -->
<g id="node37" class="node"><title>Node17</title>
<a xlink:href="inject__operation_8cpp.html" target="_top" xlink:title="Om cpp file.">
<polygon fill="none" stroke="black" points="542,-69 542,-99 646,-99 646,-69 542,-69"/>
<text text-anchor="start" x="550" y="-87" font-family="Helvetica,sans-Serif" font-size="10.00">code/om/operations</text>
<text text-anchor="middle" x="594" y="-76" font-family="Helvetica,sans-Serif" font-size="10.00">/inject_operation.cpp</text>
</a>
</g>
<!-- Node16&#45;&gt;Node17 -->
<g id="edge40" class="edge"><title>Node16&#45;&gt;Node17</title>
<path fill="none" stroke="midnightblue" d="M587.455,-126.532C587.005,-117.361 587.296,-107.245 588.325,-99.2931"/>
<polygon fill="midnightblue" stroke="midnightblue" points="583.983,-127.013 588.322,-136.679 590.958,-126.417 583.983,-127.013"/>
</g>
<!-- Node17&#45;&gt;Node16 -->
<g id="edge42" class="edge"><title>Node17&#45;&gt;Node16</title>
<path fill="none" stroke="midnightblue" d="M600.544,-109.436C600.995,-118.605 600.706,-128.722 599.678,-136.679"/>
<polygon fill="midnightblue" stroke="midnightblue" points="604.016,-108.958 599.675,-99.2931 597.041,-109.555 604.016,-108.958"/>
</g>
<!-- Node19 -->
<g id="node42" class="node"><title>Node19</title>
<a xlink:href="skip__operation_8cpp.html" target="_top" xlink:title="Om cpp file.">
<polygon fill="none" stroke="black" points="665,-69 665,-99 765,-99 765,-69 665,-69"/>
<text text-anchor="start" x="673" y="-87" font-family="Helvetica,sans-Serif" font-size="10.00">code/om/operations</text>
<text text-anchor="middle" x="715" y="-76" font-family="Helvetica,sans-Serif" font-size="10.00">/skip_operation.cpp</text>
</a>
</g>
<!-- Node18&#45;&gt;Node19 -->
<g id="edge46" class="edge"><title>Node18&#45;&gt;Node19</title>
<path fill="none" stroke="midnightblue" d="M708.455,-126.532C708.005,-117.361 708.296,-107.245 709.325,-99.2931"/>
<polygon fill="midnightblue" stroke="midnightblue" points="704.983,-127.013 709.322,-136.679 711.958,-126.417 704.983,-127.013"/>
</g>
<!-- Node19&#45;&gt;Node18 -->
<g id="edge48" class="edge"><title>Node19&#45;&gt;Node18</title>
<path fill="none" stroke="midnightblue" d="M721.544,-109.436C721.995,-118.605 721.706,-128.722 720.678,-136.679"/>
<polygon fill="midnightblue" stroke="midnightblue" points="725.016,-108.958 720.675,-99.2931 718.041,-109.555 725.016,-108.958"/>
</g>
<!-- Node20&#45;&gt;Node7 -->
<g id="edge52" class="edge"><title>Node20&#45;&gt;Node7</title>
<path fill="none" stroke="midnightblue" d="M571.458,-233.691C572.106,-242.635 571.676,-252.927 570.166,-260.083"/>
<polygon fill="midnightblue" stroke="midnightblue" points="574.923,-233.2 570.131,-223.751 567.985,-234.126 574.923,-233.2"/>
</g>
<!-- Node21&#45;&gt;Node6 -->
<g id="edge56" class="edge"><title>Node21&#45;&gt;Node6</title>
<path fill="none" stroke="midnightblue" d="M786.657,-288.811C790.617,-297.953 793.987,-308.691 795.029,-316.083"/>
<polygon fill="midnightblue" stroke="midnightblue" points="789.758,-287.186 782.21,-279.751 783.474,-290.27 789.758,-287.186"/>
</g>
<!-- Node23 -->
<g id="node53" class="node"><title>Node23</title>
<a xlink:href="lexicon_8hpp.html" target="_top" xlink:title="Om hpp file.">
<polygon fill="none" stroke="black" points="783,-204.5 783,-223.5 887,-223.5 887,-204.5 783,-204.5"/>
<text text-anchor="middle" x="835" y="-211.5" font-family="Helvetica,sans-Serif" font-size="10.00">code/om/lexicon.hpp</text>
</a>
</g>
<!-- Node22&#45;&gt;Node23 -->
<g id="edge60" class="edge"><title>Node22&#45;&gt;Node23</title>
<path fill="none" stroke="midnightblue" d="M875.379,-253.253C865.266,-243.673 852.723,-231.791 844.325,-223.834"/>
<polygon fill="midnightblue" stroke="midnightblue" points="873.175,-255.987 882.842,-260.324 877.99,-250.906 873.175,-255.987"/>
</g>
<!-- Node31 -->
<g id="node72" class="node"><title>Node31</title>
<a xlink:href="pair_8cpp.html" target="_top" xlink:title="Om cpp file.">
<polygon fill="none" stroke="black" points="905,-204.5 905,-223.5 995,-223.5 995,-204.5 905,-204.5"/>
<text text-anchor="middle" x="950" y="-211.5" font-family="Helvetica,sans-Serif" font-size="10.00">code/om/pair.cpp</text>
</a>
</g>
<!-- Node22&#45;&gt;Node31 -->
<g id="edge82" class="edge"><title>Node22&#45;&gt;Node31</title>
<path fill="none" stroke="midnightblue" d="M903.235,-252.718C912.529,-243.2 925.404,-231.561 935.47,-223.751"/>
<polygon fill="midnightblue" stroke="midnightblue" points="900.64,-250.369 896.411,-260.083 905.775,-255.126 900.64,-250.369"/>
</g>
<!-- Node24 -->
<g id="node55" class="node"><title>Node24</title>
<a xlink:href="lexicon_8cpp.html" target="_top" xlink:title="Om cpp file.">
<polygon fill="none" stroke="black" points="783.5,-142.5 783.5,-161.5 886.5,-161.5 886.5,-142.5 783.5,-142.5"/>
<text text-anchor="middle" x="835" y="-149.5" font-family="Helvetica,sans-Serif" font-size="10.00">code/om/lexicon.cpp</text>
</a>
</g>
<!-- Node23&#45;&gt;Node24 -->
<g id="edge62" class="edge"><title>Node23&#45;&gt;Node24</title>
<path fill="none" stroke="midnightblue" d="M828.683,-194.16C827.797,-183.248 828.27,-170.04 830.103,-161.581"/>
<polygon fill="midnightblue" stroke="midnightblue" points="825.263,-194.977 830.099,-204.403 832.197,-194.018 825.263,-194.977"/>
</g>
<!-- Node25 -->
<g id="node58" class="node"><title>Node25</title>
<a xlink:href="lexicon__operation_8hpp.html" target="_top" xlink:title="Om hpp file.">
<polygon fill="none" stroke="black" points="905,-137 905,-167 1017,-167 1017,-137 905,-137"/>
<text text-anchor="start" x="913" y="-155" font-family="Helvetica,sans-Serif" font-size="10.00">code/om/operations</text>
<text text-anchor="middle" x="961" y="-144" font-family="Helvetica,sans-Serif" font-size="10.00">/lexicon_operation.hpp</text>
</a>
</g>
<!-- Node23&#45;&gt;Node25 -->
<g id="edge66" class="edge"><title>Node23&#45;&gt;Node25</title>
<path fill="none" stroke="midnightblue" d="M862.105,-200.093C882.468,-190.396 910.339,-177.124 931.304,-167.141"/>
<polygon fill="midnightblue" stroke="midnightblue" points="860.577,-196.944 853.053,-204.403 863.586,-203.264 860.577,-196.944"/>
</g>
<!-- Node27 -->
<g id="node62" class="node"><title>Node27</title>
<a xlink:href="translate__operation_8hpp.html" target="_top" xlink:title="Om hpp file.">
<polygon fill="none" stroke="black" points="1076.5,-137 1076.5,-167 1195.5,-167 1195.5,-137 1076.5,-137"/>
<text text-anchor="start" x="1084.5" y="-155" font-family="Helvetica,sans-Serif" font-size="10.00">code/om/operations</text>
<text text-anchor="middle" x="1136" y="-144" font-family="Helvetica,sans-Serif" font-size="10.00">/translate_operation.hpp</text>
</a>
</g>
<!-- Node23&#45;&gt;Node27 -->
<g id="edge70" class="edge"><title>Node23&#45;&gt;Node27</title>
<path fill="none" stroke="midnightblue" d="M887.637,-202.508C940.382,-191.994 1021.44,-175.836 1076.49,-164.862"/>
<polygon fill="midnightblue" stroke="midnightblue" points="886.929,-199.08 877.806,-204.467 888.298,-205.945 886.929,-199.08"/>
</g>
<!-- Node24&#45;&gt;Node23 -->
<g id="edge64" class="edge"><title>Node24&#45;&gt;Node23</title>
<path fill="none" stroke="midnightblue" d="M841.315,-171.82C842.203,-182.728 841.732,-195.938 839.901,-204.403"/>
<polygon fill="midnightblue" stroke="midnightblue" points="844.736,-171.006 839.897,-161.581 837.802,-171.966 844.736,-171.006"/>
</g>
<!-- Node26 -->
<g id="node60" class="node"><title>Node26</title>
<a xlink:href="lexicon__operation_8cpp.html" target="_top" xlink:title="Om cpp file.">
<polygon fill="none" stroke="black" points="844.5,-69 844.5,-99 955.5,-99 955.5,-69 844.5,-69"/>
<text text-anchor="start" x="852.5" y="-87" font-family="Helvetica,sans-Serif" font-size="10.00">code/om/operations</text>
<text text-anchor="middle" x="900" y="-76" font-family="Helvetica,sans-Serif" font-size="10.00">/lexicon_operation.cpp</text>
</a>
</g>
<!-- Node25&#45;&gt;Node26 -->
<g id="edge68" class="edge"><title>Node25&#45;&gt;Node26</title>
<path fill="none" stroke="midnightblue" d="M940.846,-129.194C931.757,-119.36 921.279,-108.023 913.21,-99.2931"/>
<polygon fill="midnightblue" stroke="midnightblue" points="938.406,-131.711 947.764,-136.679 943.547,-126.96 938.406,-131.711"/>
</g>
<!-- Node28 -->
<g id="node64" class="node"><title>Node28</title>
<a xlink:href="substitute__operation_8hpp.html" target="_top" xlink:title="Om hpp file.">
<polygon fill="none" stroke="black" points="974,-69 974,-99 1098,-99 1098,-69 974,-69"/>
<text text-anchor="start" x="982" y="-87" font-family="Helvetica,sans-Serif" font-size="10.00">code/om/operations</text>
<text text-anchor="middle" x="1036" y="-76" font-family="Helvetica,sans-Serif" font-size="10.00">/substitute_operation.hpp</text>
</a>
</g>
<!-- Node27&#45;&gt;Node28 -->
<g id="edge72" class="edge"><title>Node27&#45;&gt;Node28</title>
<path fill="none" stroke="midnightblue" d="M1105.53,-130.888C1089.94,-120.6 1071.35,-108.329 1057.31,-99.0663"/>
<polygon fill="midnightblue" stroke="midnightblue" points="1104.03,-134.092 1114.3,-136.679 1107.88,-128.249 1104.03,-134.092"/>
</g>
<!-- Node30 -->
<g id="node69" class="node"><title>Node30</title>
<a xlink:href="translate__operation_8cpp.html" target="_top" xlink:title="Om cpp file.">
<polygon fill="none" stroke="black" points="1116.5,-69 1116.5,-99 1235.5,-99 1235.5,-69 1116.5,-69"/>
<text text-anchor="start" x="1124.5" y="-87" font-family="Helvetica,sans-Serif" font-size="10.00">code/om/operations</text>
<text text-anchor="middle" x="1176" y="-76" font-family="Helvetica,sans-Serif" font-size="10.00">/translate_operation.cpp</text>
</a>
</g>
<!-- Node27&#45;&gt;Node30 -->
<g id="edge78" class="edge"><title>Node27&#45;&gt;Node30</title>
<path fill="none" stroke="midnightblue" d="M1143.62,-127.723C1148.83,-118.244 1155.56,-107.591 1161.66,-99.2931"/>
<polygon fill="midnightblue" stroke="midnightblue" points="1140.48,-126.188 1139,-136.679 1146.7,-129.399 1140.48,-126.188"/>
</g>
<!-- Node29 -->
<g id="node66" class="node"><title>Node29</title>
<a xlink:href="substitute__operation_8cpp.html" target="_top" xlink:title="Om cpp file.">
<polygon fill="none" stroke="black" points="974.5,-1 974.5,-31 1097.5,-31 1097.5,-1 974.5,-1"/>
<text text-anchor="start" x="982.5" y="-19" font-family="Helvetica,sans-Serif" font-size="10.00">code/om/operations</text>
<text text-anchor="middle" x="1036" y="-8" font-family="Helvetica,sans-Serif" font-size="10.00">/substitute_operation.cpp</text>
</a>
</g>
<!-- Node28&#45;&gt;Node29 -->
<g id="edge74" class="edge"><title>Node28&#45;&gt;Node29</title>
<path fill="none" stroke="midnightblue" d="M1029.45,-58.5322C1029.01,-49.3606 1029.3,-39.2449 1030.33,-31.2931"/>
<polygon fill="midnightblue" stroke="midnightblue" points="1025.98,-59.0133 1030.32,-68.679 1032.96,-58.4173 1025.98,-59.0133"/>
</g>
<!-- Node29&#45;&gt;Node28 -->
<g id="edge76" class="edge"><title>Node29&#45;&gt;Node28</title>
<path fill="none" stroke="midnightblue" d="M1042.54,-41.4356C1042.99,-50.605 1042.71,-60.7221 1041.68,-68.679"/>
<polygon fill="midnightblue" stroke="midnightblue" points="1046.02,-40.9578 1041.67,-31.2931 1039.04,-41.5554 1046.02,-40.9578"/>
</g>
<!-- Node30&#45;&gt;Node27 -->
<g id="edge80" class="edge"><title>Node30&#45;&gt;Node27</title>
<path fill="none" stroke="midnightblue" d="M1168.39,-108.245C1163.19,-117.721 1156.46,-128.376 1150.36,-136.679"/>
<polygon fill="midnightblue" stroke="midnightblue" points="1171.54,-109.785 1173.01,-99.2931 1165.32,-106.575 1171.54,-109.785"/>
</g>
<!-- Node31&#45;&gt;Node22 -->
<g id="edge84" class="edge"><title>Node31&#45;&gt;Node22</title>
<path fill="none" stroke="midnightblue" d="M938.822,-231.224C929.494,-240.783 916.534,-252.498 906.434,-260.324"/>
<polygon fill="midnightblue" stroke="midnightblue" points="941.437,-233.551 945.66,-223.834 936.3,-228.796 941.437,-233.551"/>
</g>
<!-- Node33 -->
<g id="node77" class="node"><title>Node33</title>
<a xlink:href="separator_8cpp.html" target="_top" xlink:title="Om cpp file.">
<polygon fill="none" stroke="black" points="955.5,-260.5 955.5,-279.5 1070.5,-279.5 1070.5,-260.5 955.5,-260.5"/>
<text text-anchor="middle" x="1013" y="-267.5" font-family="Helvetica,sans-Serif" font-size="10.00">code/om/separator.cpp</text>
</a>
</g>
<!-- Node32&#45;&gt;Node33 -->
<g id="edge88" class="edge"><title>Node32&#45;&gt;Node33</title>
<path fill="none" stroke="midnightblue" d="M994.827,-306.101C997.184,-297.136 1001.06,-286.858 1004.95,-279.751"/>
<polygon fill="midnightblue" stroke="midnightblue" points="991.36,-305.587 992.806,-316.083 998.221,-306.977 991.36,-305.587"/>
</g>
<!-- Node33&#45;&gt;Node32 -->
<g id="edge90" class="edge"><title>Node33&#45;&gt;Node32</title>
<path fill="none" stroke="midnightblue" d="M1013.23,-289.691C1010.89,-298.635 1007.03,-308.927 1003.14,-316.083"/>
<polygon fill="midnightblue" stroke="midnightblue" points="1016.69,-290.243 1015.21,-279.751 1009.82,-288.871 1016.69,-290.243"/>
</g>
<!-- Node34&#45;&gt;Node3 -->
<g id="edge94" class="edge"><title>Node34&#45;&gt;Node3</title>
<path fill="none" stroke="midnightblue" d="M989.458,-401.691C990.106,-410.635 989.676,-420.927 988.166,-428.083"/>
<polygon fill="midnightblue" stroke="midnightblue" points="992.923,-401.2 988.131,-391.751 985.985,-402.126 992.923,-401.2"/>
</g>
<!-- Node36 -->
<g id="node85" class="node"><title>Node36</title>
<a xlink:href="operand_8cpp.html" target="_top" xlink:title="Om cpp file.">
<polygon fill="none" stroke="black" points="1071,-316.5 1071,-335.5 1181,-335.5 1181,-316.5 1071,-316.5"/>
<text text-anchor="middle" x="1126" y="-323.5" font-family="Helvetica,sans-Serif" font-size="10.00">code/om/operand.cpp</text>
</a>
</g>
<!-- Node35&#45;&gt;Node36 -->
<g id="edge98" class="edge"><title>Node35&#45;&gt;Node36</title>
<path fill="none" stroke="midnightblue" d="M1119.53,-362.101C1118.9,-353.136 1119.34,-342.858 1120.87,-335.751"/>
<polygon fill="midnightblue" stroke="midnightblue" points="1116.07,-362.622 1120.83,-372.083 1123.01,-361.713 1116.07,-362.622"/>
</g>
<!-- Node36&#45;&gt;Node35 -->
<g id="edge100" class="edge"><title>Node36&#45;&gt;Node35</title>
<path fill="none" stroke="midnightblue" d="M1132.46,-345.691C1133.11,-354.635 1132.68,-364.927 1131.17,-372.083"/>
<polygon fill="midnightblue" stroke="midnightblue" points="1135.92,-345.2 1131.13,-335.751 1128.98,-346.126 1135.92,-345.2"/>
</g>
<!-- Node38 -->
<g id="node91" class="node"><title>Node38</title>
<a xlink:href="literal_8cpp.html" target="_top" xlink:title="Om cpp file.">
<polygon fill="none" stroke="black" points="1199.5,-372.5 1199.5,-391.5 1294.5,-391.5 1294.5,-372.5 1199.5,-372.5"/>
<text text-anchor="middle" x="1247" y="-379.5" font-family="Helvetica,sans-Serif" font-size="10.00">code/om/literal.cpp</text>
</a>
</g>
<!-- Node37&#45;&gt;Node38 -->
<g id="edge106" class="edge"><title>Node37&#45;&gt;Node38</title>
<path fill="none" stroke="midnightblue" d="M1240.53,-418.101C1239.9,-409.136 1240.34,-398.858 1241.87,-391.751"/>
<polygon fill="midnightblue" stroke="midnightblue" points="1237.07,-418.622 1241.83,-428.083 1244.01,-417.713 1237.07,-418.622"/>
</g>
<!-- Node38&#45;&gt;Node37 -->
<g id="edge108" class="edge"><title>Node38&#45;&gt;Node37</title>
<path fill="none" stroke="midnightblue" d="M1253.46,-401.691C1254.11,-410.635 1253.68,-420.927 1252.17,-428.083"/>
<polygon fill="midnightblue" stroke="midnightblue" points="1256.92,-401.2 1252.13,-391.751 1249.98,-402.126 1256.92,-401.2"/>
</g>
<!-- Node40 -->
<g id="node96" class="node"><title>Node40</title>
<a xlink:href="null_8cpp.html" target="_top" xlink:title="Om cpp file.">
<polygon fill="none" stroke="black" points="1313,-372.5 1313,-391.5 1401,-391.5 1401,-372.5 1313,-372.5"/>
<text text-anchor="middle" x="1357" y="-379.5" font-family="Helvetica,sans-Serif" font-size="10.00">code/om/null.cpp</text>
</a>
</g>
<!-- Node39&#45;&gt;Node40 -->
<g id="edge112" class="edge"><title>Node39&#45;&gt;Node40</title>
<path fill="none" stroke="midnightblue" d="M1350.53,-418.101C1349.9,-409.136 1350.34,-398.858 1351.87,-391.751"/>
<polygon fill="midnightblue" stroke="midnightblue" points="1347.07,-418.622 1351.83,-428.083 1354.01,-417.713 1347.07,-418.622"/>
</g>
<!-- Node40&#45;&gt;Node39 -->
<g id="edge114" class="edge"><title>Node40&#45;&gt;Node39</title>
<path fill="none" stroke="midnightblue" d="M1363.46,-401.691C1364.11,-410.635 1363.68,-420.927 1362.17,-428.083"/>
<polygon fill="midnightblue" stroke="midnightblue" points="1366.92,-401.2 1362.13,-391.751 1359.98,-402.126 1366.92,-401.2"/>
</g>
</g>
</svg>
