<?xml version="1.0" encoding="UTF-8" standalone="no"?>
<!DOCTYPE svg PUBLIC "-//W3C//DTD SVG 1.1//EN"
 "http://www.w3.org/Graphics/SVG/1.1/DTD/svg11.dtd">
<!-- Generated by graphviz version 2.30.1 (20130221.2233)
 -->
<!-- Title: code/om/sinks/default_sink.cpp Pages: 1 -->
<svg width="811pt" height="438pt"
 viewBox="0.00 0.00 811.13 438.00" xmlns="http://www.w3.org/2000/svg" xmlns:xlink="http://www.w3.org/1999/xlink">
<g id="graph0" class="graph" transform="scale(1 1) rotate(0) translate(4 434)">
<title>code/om/sinks/default_sink.cpp</title>
<!-- Node1 -->
<g id="node1" class="node"><title>Node1</title>
<polygon fill="#bfbfbf" stroke="black" points="202.77,-397 202.77,-429 315.489,-429 315.489,-397 202.77,-397"/>
<text text-anchor="start" x="210.77" y="-415" font-family="Helvetica,sans-Serif" font-size="10.00">code/om/sinks/default</text>
<text text-anchor="middle" x="259.129" y="-403" font-family="Helvetica,sans-Serif" font-size="10.00">_sink.cpp</text>
</g>
<!-- Node2 -->
<g id="node2" class="node"><title>Node2</title>
<g id="a_node2"><a xlink:href="default__sink_8hpp.html" target="_top" xlink:title="Om header file.">
<polygon fill="none" stroke="black" points="202.77,-327 202.77,-359 315.489,-359 315.489,-327 202.77,-327"/>
<text text-anchor="start" x="210.77" y="-345" font-family="Helvetica,sans-Serif" font-size="10.00">code/om/sinks/default</text>
<text text-anchor="middle" x="259.129" y="-333" font-family="Helvetica,sans-Serif" font-size="10.00">_sink.hpp</text>
</a>
</g>
</g>
<!-- Node1&#45;&gt;Node2 -->
<g id="edge1" class="edge"><title>Node1&#45;&gt;Node2</title>
<path fill="none" stroke="midnightblue" d="M252.59,-386.92C252.138,-377.56 252.413,-367.229 253.414,-359.049"/>
<polygon fill="midnightblue" stroke="midnightblue" points="249.103,-387.228 253.409,-396.909 256.08,-386.656 249.103,-387.228"/>
</g>
<!-- Node3 -->
<g id="node3" class="node"><title>Node3</title>
<g id="a_node3"><a xlink:href="internal_8hpp.html" target="_top" xlink:title="code/om/internal.hpp">
<polygon fill="none" stroke="black" points="204.432,-123 204.432,-143 313.826,-143 313.826,-123 204.432,-123"/>
<text text-anchor="middle" x="259.129" y="-129" font-family="Helvetica,sans-Serif" font-size="10.00">code/om/internal.hpp</text>
</a>
</g>
</g>
<!-- Node2&#45;&gt;Node3 -->
<g id="edge2" class="edge"><title>Node2&#45;&gt;Node3</title>
<path fill="none" stroke="midnightblue" d="M192.41,-335.445C132.228,-328.083 49.91,-313.92 28.1292,-290 -3.10723,-255.696 -9.99723,-222.113 19.1292,-186 41.9463,-157.71 140.829,-144.037 204.334,-138.06"/>
<polygon fill="midnightblue" stroke="midnightblue" points="192.274,-338.953 202.617,-336.655 193.098,-332.002 192.274,-338.953"/>
</g>
<!-- Node7 -->
<g id="node7" class="node"><title>Node7</title>
<g id="a_node7"><a xlink:href="code__point__sink_8hpp.html" target="_top" xlink:title="Om header file.">
<polygon fill="none" stroke="black" points="36.9397,-257 36.9397,-289 141.319,-289 141.319,-257 36.9397,-257"/>
<text text-anchor="start" x="44.9397" y="-275" font-family="Helvetica,sans-Serif" font-size="10.00">code/om/sinks/code</text>
<text text-anchor="middle" x="89.1292" y="-263" font-family="Helvetica,sans-Serif" font-size="10.00">_point_sink.hpp</text>
</a>
</g>
</g>
<!-- Node2&#45;&gt;Node7 -->
<g id="edge8" class="edge"><title>Node2&#45;&gt;Node7</title>
<path fill="none" stroke="midnightblue" d="M211.819,-323.076C184.966,-312.335 151.82,-299.076 126.752,-289.049"/>
<polygon fill="midnightblue" stroke="midnightblue" points="210.816,-326.444 221.401,-326.909 213.416,-319.945 210.816,-326.444"/>
</g>
<!-- Node9 -->
<g id="node9" class="node"><title>Node9</title>
<g id="a_node9"><a xlink:href="container__back__sink_8hpp.html" target="_top" xlink:title="Om header file.">
<polygon fill="none" stroke="black" points="197.213,-257 197.213,-289 321.045,-289 321.045,-257 197.213,-257"/>
<text text-anchor="start" x="205.213" y="-275" font-family="Helvetica,sans-Serif" font-size="10.00">code/om/sinks/container</text>
<text text-anchor="middle" x="259.129" y="-263" font-family="Helvetica,sans-Serif" font-size="10.00">_back_sink.hpp</text>
</a>
</g>
</g>
<!-- Node2&#45;&gt;Node9 -->
<g id="edge12" class="edge"><title>Node2&#45;&gt;Node9</title>
<path fill="none" stroke="midnightblue" d="M259.129,-316.617C259.129,-307.338 259.129,-297.141 259.129,-289.049"/>
<polygon fill="midnightblue" stroke="midnightblue" points="255.629,-316.909 259.129,-326.909 262.629,-316.909 255.629,-316.909"/>
</g>
<!-- Node11 -->
<g id="node11" class="node"><title>Node11</title>
<g id="a_node11"><a xlink:href="container__front__sink_8hpp.html" target="_top" xlink:title="Om header file.">
<polygon fill="none" stroke="black" points="358.213,-257 358.213,-289 482.045,-289 482.045,-257 358.213,-257"/>
<text text-anchor="start" x="366.213" y="-275" font-family="Helvetica,sans-Serif" font-size="10.00">code/om/sinks/container</text>
<text text-anchor="middle" x="420.129" y="-263" font-family="Helvetica,sans-Serif" font-size="10.00">_front_sink.hpp</text>
</a>
</g>
</g>
<!-- Node2&#45;&gt;Node11 -->
<g id="edge16" class="edge"><title>Node2&#45;&gt;Node11</title>
<path fill="none" stroke="midnightblue" d="M304.27,-322.934C329.641,-312.218 360.861,-299.032 384.498,-289.049"/>
<polygon fill="midnightblue" stroke="midnightblue" points="302.711,-319.794 294.86,-326.909 305.434,-326.242 302.711,-319.794"/>
</g>
<!-- Node2&#45;&gt;Node1 -->
<g id="edge20" class="edge"><title>Node2&#45;&gt;Node1</title>
<path fill="none" stroke="midnightblue" d="M265.666,-369.032C266.121,-378.389 265.848,-388.721 264.849,-396.909"/>
<polygon fill="midnightblue" stroke="midnightblue" points="269.153,-368.728 264.844,-359.049 262.177,-369.303 269.153,-368.728"/>
</g>
<!-- Node13 -->
<g id="node13" class="node"><title>Node13</title>
<g id="a_node13"><a xlink:href="iterator__sink_8hpp.html" target="_top" xlink:title="Om header file.">
<polygon fill="none" stroke="black" points="557.22,-257 557.22,-289 671.038,-289 671.038,-257 557.22,-257"/>
<text text-anchor="start" x="565.22" y="-275" font-family="Helvetica,sans-Serif" font-size="10.00">code/om/sinks/iterator</text>
<text text-anchor="middle" x="614.129" y="-263" font-family="Helvetica,sans-Serif" font-size="10.00">_sink.hpp</text>
</a>
</g>
</g>
<!-- Node2&#45;&gt;Node13 -->
<g id="edge21" class="edge"><title>Node2&#45;&gt;Node13</title>
<path fill="none" stroke="midnightblue" d="M325.76,-329.237C392.464,-316.46 494.008,-297.009 557.1,-284.924"/>
<polygon fill="midnightblue" stroke="midnightblue" points="324.935,-325.831 315.773,-331.15 326.252,-332.706 324.935,-325.831"/>
</g>
<!-- Node4 -->
<g id="node4" class="node"><title>Node4</title>
<g id="a_node4"><a xlink:href="internal_8cpp.html" target="_top" xlink:title="code/om/internal.cpp">
<polygon fill="none" stroke="black" points="95.7132,-59 95.7132,-79 204.545,-79 204.545,-59 95.7132,-59"/>
<text text-anchor="middle" x="150.129" y="-65" font-family="Helvetica,sans-Serif" font-size="10.00">code/om/internal.cpp</text>
</a>
</g>
</g>
<!-- Node3&#45;&gt;Node4 -->
<g id="edge3" class="edge"><title>Node3&#45;&gt;Node4</title>
<path fill="none" stroke="midnightblue" d="M234.116,-117.772C213.265,-105.912 184.177,-89.3668 166.278,-79.1858"/>
<polygon fill="midnightblue" stroke="midnightblue" points="232.623,-120.95 243.046,-122.852 236.084,-114.865 232.623,-120.95"/>
</g>
<!-- Node3&#45;&gt;Node3 -->
<g id="edge4" class="edge"><title>Node3&#45;&gt;Node3</title>
<path fill="none" stroke="midnightblue" d="M294.959,-144.532C313.921,-146.424 331.129,-142.58 331.129,-133 331.129,-121.75 307.399,-118.41 284.966,-122.98"/>
<polygon fill="midnightblue" stroke="midnightblue" points="295.377,-141.055 284.966,-143.02 294.33,-147.977 295.377,-141.055"/>
</g>
<!-- Node5 -->
<g id="node5" class="node"><title>Node5</title>
<g id="a_node5"><a xlink:href="om_8hpp.html" target="_top" xlink:title="Om &quot;umbrella&quot; header file.">
<polygon fill="none" stroke="black" points="222.22,-59 222.22,-79 296.038,-79 296.038,-59 222.22,-59"/>
<text text-anchor="middle" x="259.129" y="-65" font-family="Helvetica,sans-Serif" font-size="10.00">code/om.hpp</text>
</a>
</g>
</g>
<!-- Node3&#45;&gt;Node5 -->
<g id="edge5" class="edge"><title>Node3&#45;&gt;Node5</title>
<path fill="none" stroke="midnightblue" d="M252.829,-112.735C251.931,-101.557 252.377,-87.991 254.166,-79.1858"/>
<polygon fill="midnightblue" stroke="midnightblue" points="249.386,-113.4 254.174,-122.852 256.325,-112.478 249.386,-113.4"/>
</g>
<!-- Node5&#45;&gt;Node3 -->
<g id="edge6" class="edge"><title>Node5&#45;&gt;Node3</title>
<path fill="none" stroke="midnightblue" d="M265.433,-89.3131C266.327,-100.498 265.877,-114.06 264.085,-122.852"/>
<polygon fill="midnightblue" stroke="midnightblue" points="268.875,-88.6398 264.092,-79.1858 261.935,-89.5588 268.875,-88.6398"/>
</g>
<!-- Node6 -->
<g id="node6" class="node"><title>Node6</title>
<g id="a_node6"><a xlink:href="om_8cpp.html" target="_top" xlink:title="Om source file.">
<polygon fill="none" stroke="black" points="222.501,-1 222.501,-21 295.757,-21 295.757,-1 222.501,-1"/>
<text text-anchor="middle" x="259.129" y="-7" font-family="Helvetica,sans-Serif" font-size="10.00">code/om.cpp</text>
</a>
</g>
</g>
<!-- Node5&#45;&gt;Node6 -->
<g id="edge7" class="edge"><title>Node5&#45;&gt;Node6</title>
<path fill="none" stroke="midnightblue" d="M259.129,-48.7065C259.129,-39.3384 259.129,-28.5262 259.129,-21.0752"/>
<polygon fill="midnightblue" stroke="midnightblue" points="255.629,-48.7527 259.129,-58.7527 262.629,-48.7528 255.629,-48.7527"/>
</g>
<!-- Node7&#45;&gt;Node3 -->
<g id="edge9" class="edge"><title>Node7&#45;&gt;Node3</title>
<path fill="none" stroke="midnightblue" d="M57.0178,-250.555C34.468,-232.846 11.1224,-207.261 28.1292,-186 49.763,-158.955 142.994,-144.984 204.199,-138.593"/>
<polygon fill="midnightblue" stroke="midnightblue" points="55.113,-253.501 65.2134,-256.7 59.3123,-247.901 55.113,-253.501"/>
</g>
<!-- Node8 -->
<g id="node8" class="node"><title>Node8</title>
<g id="a_node8"><a xlink:href="code__point__sink_8cpp.html" target="_top" xlink:title="Om source file.">
<polygon fill="none" stroke="black" points="36.9397,-187 36.9397,-219 141.319,-219 141.319,-187 36.9397,-187"/>
<text text-anchor="start" x="44.9397" y="-205" font-family="Helvetica,sans-Serif" font-size="10.00">code/om/sinks/code</text>
<text text-anchor="middle" x="89.1292" y="-193" font-family="Helvetica,sans-Serif" font-size="10.00">_point_sink.cpp</text>
</a>
</g>
</g>
<!-- Node7&#45;&gt;Node8 -->
<g id="edge10" class="edge"><title>Node7&#45;&gt;Node8</title>
<path fill="none" stroke="midnightblue" d="M82.59,-246.92C82.138,-237.56 82.4128,-227.229 83.4143,-219.049"/>
<polygon fill="midnightblue" stroke="midnightblue" points="79.1035,-247.228 83.4092,-256.909 86.0801,-246.656 79.1035,-247.228"/>
</g>
<!-- Node8&#45;&gt;Node7 -->
<g id="edge11" class="edge"><title>Node8&#45;&gt;Node7</title>
<path fill="none" stroke="midnightblue" d="M95.666,-229.032C96.1205,-238.389 95.8482,-248.721 94.8492,-256.909"/>
<polygon fill="midnightblue" stroke="midnightblue" points="99.1529,-228.728 94.8441,-219.049 92.1765,-229.303 99.1529,-228.728"/>
</g>
<!-- Node9&#45;&gt;Node3 -->
<g id="edge13" class="edge"><title>Node9&#45;&gt;Node3</title>
<path fill="none" stroke="midnightblue" d="M217.977,-251.517C206.153,-243.433 194.691,-232.939 188.129,-220 181.295,-206.523 181.295,-199.477 188.129,-186 198.426,-165.696 220.788,-151.412 237.683,-143.018"/>
<polygon fill="midnightblue" stroke="midnightblue" points="216.267,-254.577 226.586,-256.977 220.016,-248.665 216.267,-254.577"/>
</g>
<!-- Node10 -->
<g id="node10" class="node"><title>Node10</title>
<g id="a_node10"><a xlink:href="container__back__sink_8cpp.html" target="_top" xlink:title="Om source file.">
<polygon fill="none" stroke="black" points="197.213,-187 197.213,-219 321.045,-219 321.045,-187 197.213,-187"/>
<text text-anchor="start" x="205.213" y="-205" font-family="Helvetica,sans-Serif" font-size="10.00">code/om/sinks/container</text>
<text text-anchor="middle" x="259.129" y="-193" font-family="Helvetica,sans-Serif" font-size="10.00">_back_sink.cpp</text>
</a>
</g>
</g>
<!-- Node9&#45;&gt;Node10 -->
<g id="edge14" class="edge"><title>Node9&#45;&gt;Node10</title>
<path fill="none" stroke="midnightblue" d="M252.59,-246.92C252.138,-237.56 252.413,-227.229 253.414,-219.049"/>
<polygon fill="midnightblue" stroke="midnightblue" points="249.103,-247.228 253.409,-256.909 256.08,-246.656 249.103,-247.228"/>
</g>
<!-- Node10&#45;&gt;Node9 -->
<g id="edge15" class="edge"><title>Node10&#45;&gt;Node9</title>
<path fill="none" stroke="midnightblue" d="M265.666,-229.032C266.121,-238.389 265.848,-248.721 264.849,-256.909"/>
<polygon fill="midnightblue" stroke="midnightblue" points="269.153,-228.728 264.844,-219.049 262.177,-229.303 269.153,-228.728"/>
</g>
<!-- Node11&#45;&gt;Node3 -->
<g id="edge17" class="edge"><title>Node11&#45;&gt;Node3</title>
<path fill="none" stroke="midnightblue" d="M398,-249.674C379.981,-231.845 353.609,-206.537 329.129,-186 310.108,-170.043 286.73,-153.19 272.383,-143.138"/>
<polygon fill="midnightblue" stroke="midnightblue" points="395.624,-252.247 405.181,-256.82 400.562,-247.285 395.624,-252.247"/>
</g>
<!-- Node12 -->
<g id="node12" class="node"><title>Node12</title>
<g id="a_node12"><a xlink:href="container__front__sink_8cpp.html" target="_top" xlink:title="Om source file.">
<polygon fill="none" stroke="black" points="377.213,-187 377.213,-219 501.045,-219 501.045,-187 377.213,-187"/>
<text text-anchor="start" x="385.213" y="-205" font-family="Helvetica,sans-Serif" font-size="10.00">code/om/sinks/container</text>
<text text-anchor="middle" x="439.129" y="-193" font-family="Helvetica,sans-Serif" font-size="10.00">_front_sink.cpp</text>
</a>
</g>
</g>
<!-- Node11&#45;&gt;Node12 -->
<g id="edge18" class="edge"><title>Node11&#45;&gt;Node12</title>
<path fill="none" stroke="midnightblue" d="M420.598,-246.92C422.761,-237.56 425.922,-227.229 429.209,-219.049"/>
<polygon fill="midnightblue" stroke="midnightblue" points="417.129,-246.42 418.626,-256.909 423.996,-247.776 417.129,-246.42"/>
</g>
<!-- Node12&#45;&gt;Node11 -->
<g id="edge19" class="edge"><title>Node12&#45;&gt;Node11</title>
<path fill="none" stroke="midnightblue" d="M438.672,-229.032C436.512,-238.389 433.353,-248.721 430.066,-256.909"/>
<polygon fill="midnightblue" stroke="midnightblue" points="442.139,-229.537 440.639,-219.049 435.272,-228.184 442.139,-229.537"/>
</g>
<!-- Node13&#45;&gt;Node3 -->
<g id="edge22" class="edge"><title>Node13&#45;&gt;Node3</title>
<path fill="none" stroke="midnightblue" d="M586.086,-250.402C574.263,-241.169 560.42,-230.188 548.129,-220 530.426,-205.324 529.724,-196.23 509.129,-186 446.597,-154.937 366.38,-142.413 313.909,-137.375"/>
<polygon fill="midnightblue" stroke="midnightblue" points="584.244,-253.404 594.287,-256.78 588.542,-247.878 584.244,-253.404"/>
</g>
<!-- Node14 -->
<g id="node14" class="node"><title>Node14</title>
<g id="a_node14"><a xlink:href="iterator__sink_8cpp.html" target="_top" xlink:title="Om source file.">
<polygon fill="none" stroke="black" points="557.22,-187 557.22,-219 671.038,-219 671.038,-187 557.22,-187"/>
<text text-anchor="start" x="565.22" y="-205" font-family="Helvetica,sans-Serif" font-size="10.00">code/om/sinks/iterator</text>
<text text-anchor="middle" x="614.129" y="-193" font-family="Helvetica,sans-Serif" font-size="10.00">_sink.cpp</text>
</a>
</g>
</g>
<!-- Node13&#45;&gt;Node14 -->
<g id="edge23" class="edge"><title>Node13&#45;&gt;Node14</title>
<path fill="none" stroke="midnightblue" d="M607.59,-246.92C607.138,-237.56 607.413,-227.229 608.414,-219.049"/>
<polygon fill="midnightblue" stroke="midnightblue" points="604.103,-247.228 608.409,-256.909 611.08,-246.656 604.103,-247.228"/>
</g>
<!-- Node15 -->
<g id="node15" class="node"><title>Node15</title>
<g id="a_node15"><a xlink:href="stream__sink_8hpp.html" target="_top" xlink:title="Om header file.">
<polygon fill="none" stroke="black" points="689.501,-187 689.501,-219 802.757,-219 802.757,-187 689.501,-187"/>
<text text-anchor="start" x="697.501" y="-205" font-family="Helvetica,sans-Serif" font-size="10.00">code/om/sinks/stream</text>
<text text-anchor="middle" x="746.129" y="-193" font-family="Helvetica,sans-Serif" font-size="10.00">_sink.hpp</text>
</a>
</g>
</g>
<!-- Node13&#45;&gt;Node15 -->
<g id="edge25" class="edge"><title>Node13&#45;&gt;Node15</title>
<path fill="none" stroke="midnightblue" d="M652.52,-252.223C673.065,-241.639 697.964,-228.813 716.916,-219.049"/>
<polygon fill="midnightblue" stroke="midnightblue" points="650.711,-249.218 643.424,-256.909 653.917,-255.44 650.711,-249.218"/>
</g>
<!-- Node14&#45;&gt;Node13 -->
<g id="edge24" class="edge"><title>Node14&#45;&gt;Node13</title>
<path fill="none" stroke="midnightblue" d="M620.666,-229.032C621.121,-238.389 620.848,-248.721 619.849,-256.909"/>
<polygon fill="midnightblue" stroke="midnightblue" points="624.153,-228.728 619.844,-219.049 617.177,-229.303 624.153,-228.728"/>
</g>
<!-- Node15&#45;&gt;Node3 -->
<g id="edge26" class="edge"><title>Node15&#45;&gt;Node3</title>
<path fill="none" stroke="midnightblue" d="M679.438,-186.056C679.335,-186.037 679.232,-186.019 679.129,-186 549.166,-162.512 394.645,-146.371 314.125,-138.84"/>
<polygon fill="midnightblue" stroke="midnightblue" points="678.716,-189.481 689.2,-187.949 680.049,-182.609 678.716,-189.481"/>
</g>
<!-- Node16 -->
<g id="node16" class="node"><title>Node16</title>
<g id="a_node16"><a xlink:href="stream__sink_8cpp.html" target="_top" xlink:title="Om source file.">
<polygon fill="none" stroke="black" points="689.501,-117 689.501,-149 802.757,-149 802.757,-117 689.501,-117"/>
<text text-anchor="start" x="697.501" y="-135" font-family="Helvetica,sans-Serif" font-size="10.00">code/om/sinks/stream</text>
<text text-anchor="middle" x="746.129" y="-123" font-family="Helvetica,sans-Serif" font-size="10.00">_sink.cpp</text>
</a>
</g>
</g>
<!-- Node15&#45;&gt;Node16 -->
<g id="edge27" class="edge"><title>Node15&#45;&gt;Node16</title>
<path fill="none" stroke="midnightblue" d="M739.59,-176.92C739.138,-167.56 739.413,-157.229 740.414,-149.049"/>
<polygon fill="midnightblue" stroke="midnightblue" points="736.103,-177.228 740.409,-186.909 743.08,-176.656 736.103,-177.228"/>
</g>
<!-- Node16&#45;&gt;Node15 -->
<g id="edge28" class="edge"><title>Node16&#45;&gt;Node15</title>
<path fill="none" stroke="midnightblue" d="M752.666,-159.032C753.121,-168.389 752.848,-178.721 751.849,-186.909"/>
<polygon fill="midnightblue" stroke="midnightblue" points="756.153,-158.728 751.844,-149.049 749.177,-159.303 756.153,-158.728"/>
</g>
</g>
</svg>
