<?xml version="1.0" encoding="UTF-8" standalone="no"?>
<!DOCTYPE svg PUBLIC "-//W3C//DTD SVG 1.1//EN"
 "http://www.w3.org/Graphics/SVG/1.1/DTD/svg11.dtd">
<!-- Generated by graphviz version 2.30.1 (20130221.2233)
 -->
<!-- Title: om/default_program.hpp Pages: 1 -->
<svg width="1222pt" height="436pt"
 viewBox="0.00 0.00 1222.00 436.00" xmlns="http://www.w3.org/2000/svg" xmlns:xlink="http://www.w3.org/1999/xlink">
<g id="graph0" class="graph" transform="scale(1 1) rotate(0) translate(4 432)">
<title>om/default_program.hpp</title>
<!-- Node1 -->
<g id="node1" class="node"><title>Node1</title>
<polygon fill="#bfbfbf" stroke="black" points="355.522,-407 355.522,-427 480.478,-427 480.478,-407 355.522,-407"/>
<text text-anchor="middle" x="418" y="-413" font-family="Helvetica,sans-Serif" font-size="10.00">om/default_program.hpp</text>
</g>
<!-- Node2 -->
<g id="node2" class="node"><title>Node2</title>
<g id="a_node2"><a xlink:href="default__consumer_8hpp.html" target="_top" xlink:title="Om header file. ">
<polygon fill="none" stroke="black" points="769.461,-233 769.461,-253 900.539,-253 900.539,-233 769.461,-233"/>
<text text-anchor="middle" x="835" y="-239" font-family="Helvetica,sans-Serif" font-size="10.00">om/default_consumer.hpp</text>
</a>
</g>
</g>
<!-- Node1&#45;&gt;Node2 -->
<g id="edge1" class="edge"><title>Node1&#45;&gt;Node2</title>
<path fill="none" stroke="midnightblue" d="M444.668,-406.993C470.694,-398.067 511.325,-383.772 546,-370 642.535,-331.659 754.757,-280.923 806.362,-257.238"/>
<polygon fill="midnightblue" stroke="midnightblue" points="807.941,-260.364 815.564,-253.006 805.017,-254.004 807.941,-260.364"/>
</g>
<!-- Node11 -->
<g id="node11" class="node"><title>Node11</title>
<g id="a_node11"><a xlink:href="default__giveable_8hpp.html" target="_top" xlink:title="Om header file. ">
<polygon fill="none" stroke="black" points="186.515,-233 186.515,-253 311.485,-253 311.485,-233 186.515,-233"/>
<text text-anchor="middle" x="249" y="-239" font-family="Helvetica,sans-Serif" font-size="10.00">om/default_giveable.hpp</text>
</a>
</g>
</g>
<!-- Node1&#45;&gt;Node11 -->
<g id="edge15" class="edge"><title>Node1&#45;&gt;Node11</title>
<path fill="none" stroke="midnightblue" d="M400.513,-406.865C385.397,-398.479 363.451,-385.092 347,-370 327.66,-352.259 283.293,-291.797 261.518,-261.541"/>
<polygon fill="midnightblue" stroke="midnightblue" points="264.21,-259.289 255.539,-253.202 258.522,-263.368 264.21,-259.289"/>
</g>
<!-- Node23 -->
<g id="node23" class="node"><title>Node23</title>
<g id="a_node23"><a xlink:href="program_8hpp.html" target="_top" xlink:title="Om header file. ">
<polygon fill="none" stroke="black" points="626.315,-233 626.315,-253 715.685,-253 715.685,-233 626.315,-233"/>
<text text-anchor="middle" x="671" y="-239" font-family="Helvetica,sans-Serif" font-size="10.00">om/program.hpp</text>
</a>
</g>
</g>
<!-- Node1&#45;&gt;Node23 -->
<g id="edge41" class="edge"><title>Node1&#45;&gt;Node23</title>
<path fill="none" stroke="midnightblue" d="M438.84,-406.877C474.702,-390.658 549.569,-354.484 605,-312 624.866,-296.774 644.43,-275.628 657.034,-260.977"/>
<polygon fill="midnightblue" stroke="midnightblue" points="659.827,-263.095 663.601,-253.195 654.477,-258.581 659.827,-263.095"/>
</g>
<!-- Node30 -->
<g id="node30" class="node"><title>Node30</title>
<g id="a_node30"><a xlink:href="taker_8hpp.html" target="_top" xlink:title="Om header file. ">
<polygon fill="none" stroke="black" points="200.091,-349 200.091,-369 273.909,-369 273.909,-349 200.091,-349"/>
<text text-anchor="middle" x="237" y="-355" font-family="Helvetica,sans-Serif" font-size="10.00">om/taker.hpp</text>
</a>
</g>
</g>
<!-- Node1&#45;&gt;Node30 -->
<g id="edge54" class="edge"><title>Node1&#45;&gt;Node30</title>
<path fill="none" stroke="midnightblue" d="M388.516,-406.878C357.923,-397.413 309.917,-382.56 276.156,-372.115"/>
<polygon fill="midnightblue" stroke="midnightblue" points="276.759,-368.637 266.171,-369.025 274.69,-375.325 276.759,-368.637"/>
</g>
<!-- Node32 -->
<g id="node32" class="node"><title>Node32</title>
<g id="a_node32"><a xlink:href="default__program_8cpp.html" target="_top" xlink:title="Om source file. ">
<polygon fill="none" stroke="black" points="355.803,-349 355.803,-369 480.197,-369 480.197,-349 355.803,-349"/>
<text text-anchor="middle" x="418" y="-355" font-family="Helvetica,sans-Serif" font-size="10.00">om/default_program.cpp</text>
</a>
</g>
</g>
<!-- Node1&#45;&gt;Node32 -->
<g id="edge57" class="edge"><title>Node1&#45;&gt;Node32</title>
<path fill="none" stroke="midnightblue" d="M412.834,-406.753C411.308,-399.25 410.884,-388.424 411.564,-379.078"/>
<polygon fill="midnightblue" stroke="midnightblue" points="415.046,-379.444 412.869,-369.075 408.105,-378.538 415.046,-379.444"/>
</g>
<!-- Node3 -->
<g id="node3" class="node"><title>Node3</title>
<g id="a_node3"><a xlink:href="consumer_8hpp.html" target="_top" xlink:title="Om header file. ">
<polygon fill="none" stroke="black" points="1081.25,-175 1081.25,-195 1176.75,-195 1176.75,-175 1081.25,-175"/>
<text text-anchor="middle" x="1129" y="-181" font-family="Helvetica,sans-Serif" font-size="10.00">om/consumer.hpp</text>
</a>
</g>
</g>
<!-- Node2&#45;&gt;Node3 -->
<g id="edge2" class="edge"><title>Node2&#45;&gt;Node3</title>
<path fill="none" stroke="midnightblue" d="M882.563,-232.94C934.122,-223.12 1016.4,-207.447 1071.54,-196.945"/>
<polygon fill="midnightblue" stroke="midnightblue" points="1072.34,-200.356 1081.51,-195.047 1071.03,-193.48 1072.34,-200.356"/>
</g>
<!-- Node7 -->
<g id="node7" class="node"><title>Node7</title>
<g id="a_node7"><a xlink:href="default__consumer_8cpp.html" target="_top" xlink:title="Om source file. ">
<polygon fill="none" stroke="black" points="769.742,-175 769.742,-195 900.258,-195 900.258,-175 769.742,-175"/>
<text text-anchor="middle" x="835" y="-181" font-family="Helvetica,sans-Serif" font-size="10.00">om/default_consumer.cpp</text>
</a>
</g>
</g>
<!-- Node2&#45;&gt;Node7 -->
<g id="edge7" class="edge"><title>Node2&#45;&gt;Node7</title>
<path fill="none" stroke="midnightblue" d="M829.834,-232.753C828.308,-225.25 827.884,-214.424 828.564,-205.078"/>
<polygon fill="midnightblue" stroke="midnightblue" points="832.046,-205.444 829.869,-195.075 825.105,-204.538 832.046,-205.444"/>
</g>
<!-- Node4 -->
<g id="node4" class="node"><title>Node4</title>
<g id="a_node4"><a xlink:href="consumer_8cpp.html" target="_top" xlink:title="Om source file. ">
<polygon fill="none" stroke="black" points="1118.53,-59 1118.53,-79 1213.47,-79 1213.47,-59 1118.53,-59"/>
<text text-anchor="middle" x="1166" y="-65" font-family="Helvetica,sans-Serif" font-size="10.00">om/consumer.cpp</text>
</a>
</g>
</g>
<!-- Node3&#45;&gt;Node4 -->
<g id="edge3" class="edge"><title>Node3&#45;&gt;Node4</title>
<path fill="none" stroke="midnightblue" d="M1128.12,-174.671C1130.9,-155.873 1144.36,-113.136 1154.87,-88.478"/>
<polygon fill="midnightblue" stroke="midnightblue" points="1158.17,-89.688 1159.16,-79.1394 1151.8,-86.7691 1158.17,-89.688"/>
</g>
<!-- Node5 -->
<g id="node5" class="node"><title>Node5</title>
<polygon fill="none" stroke="#bfbfbf" points="522.884,-1 522.884,-21 571.116,-21 571.116,-1 522.884,-1"/>
<text text-anchor="middle" x="547" y="-7" font-family="Helvetica,sans-Serif" font-size="10.00">cassert</text>
</g>
<!-- Node4&#45;&gt;Node5 -->
<g id="edge4" class="edge"><title>Node4&#45;&gt;Node5</title>
<path fill="none" stroke="midnightblue" d="M1118.2,-62.6927C1103.4,-61.109 1087.03,-59.4185 1072,-58 877.982,-39.6909 828.951,-41.0042 635,-22 617.3,-20.2657 597.63,-18.0572 581.384,-16.157"/>
<polygon fill="midnightblue" stroke="midnightblue" points="581.599,-12.6582 571.257,-14.961 580.778,-19.6098 581.599,-12.6582"/>
</g>
<!-- Node6 -->
<g id="node6" class="node"><title>Node6</title>
<polygon fill="none" stroke="#bfbfbf" points="643.599,-1 643.599,-21 702.401,-21 702.401,-1 643.599,-1"/>
<text text-anchor="middle" x="673" y="-7" font-family="Helvetica,sans-Serif" font-size="10.00">stdexcept</text>
</g>
<!-- Node4&#45;&gt;Node6 -->
<g id="edge5" class="edge"><title>Node4&#45;&gt;Node6</title>
<path fill="none" stroke="midnightblue" d="M1118.42,-59.9338C1113.89,-59.246 1109.36,-58.5891 1105,-58 960.798,-38.5185 788.593,-22.275 712.49,-15.4534"/>
<polygon fill="midnightblue" stroke="midnightblue" points="712.673,-11.956 702.402,-14.554 712.051,-18.9283 712.673,-11.956"/>
</g>
<!-- Node4&#45;&gt;Node3 -->
<g id="edge6" class="edge"><title>Node4&#45;&gt;Node3</title>
<path fill="none" stroke="midnightblue" d="M1166.91,-79.1394C1164.2,-97.7752 1150.77,-140.491 1140.24,-165.271"/>
<polygon fill="midnightblue" stroke="midnightblue" points="1136.91,-164.121 1135.94,-174.671 1143.28,-167.03 1136.91,-164.121"/>
</g>
<!-- Node8 -->
<g id="node8" class="node"><title>Node8</title>
<g id="a_node8"><a xlink:href="producer_8hpp.html" target="_top" xlink:title="Om header file. ">
<polygon fill="none" stroke="black" points="723.473,-117 723.473,-137 814.527,-137 814.527,-117 723.473,-117"/>
<text text-anchor="middle" x="769" y="-123" font-family="Helvetica,sans-Serif" font-size="10.00">om/producer.hpp</text>
</a>
</g>
</g>
<!-- Node7&#45;&gt;Node8 -->
<g id="edge8" class="edge"><title>Node7&#45;&gt;Node8</title>
<path fill="none" stroke="midnightblue" d="M824.101,-174.753C814.202,-166.353 799.392,-153.787 787.619,-143.798"/>
<polygon fill="midnightblue" stroke="midnightblue" points="789.585,-140.876 779.696,-137.075 785.056,-146.214 789.585,-140.876"/>
</g>
<!-- Node7&#45;&gt;Node2 -->
<g id="edge14" class="edge"><title>Node7&#45;&gt;Node2</title>
<path fill="none" stroke="midnightblue" d="M840.131,-195.075C841.674,-202.526 842.114,-213.338 841.451,-222.707"/>
<polygon fill="midnightblue" stroke="midnightblue" points="837.963,-222.389 840.166,-232.753 844.907,-223.278 837.963,-222.389"/>
</g>
<!-- Node9 -->
<g id="node9" class="node"><title>Node9</title>
<polygon fill="none" stroke="#bfbfbf" points="612.943,-59 612.943,-79 665.057,-79 665.057,-59 612.943,-59"/>
<text text-anchor="middle" x="639" y="-65" font-family="Helvetica,sans-Serif" font-size="10.00">memory</text>
</g>
<!-- Node8&#45;&gt;Node9 -->
<g id="edge9" class="edge"><title>Node8&#45;&gt;Node9</title>
<path fill="none" stroke="midnightblue" d="M747.824,-116.878C726.577,-107.725 693.636,-93.5357 669.56,-83.1643"/>
<polygon fill="midnightblue" stroke="midnightblue" points="670.736,-79.8599 660.167,-79.1181 667.966,-86.2888 670.736,-79.8599"/>
</g>
<!-- Node10 -->
<g id="node10" class="node"><title>Node10</title>
<g id="a_node10"><a xlink:href="producer_8cpp.html" target="_top" xlink:title="Om source file. ">
<polygon fill="none" stroke="black" points="682.754,-59 682.754,-79 773.246,-79 773.246,-59 682.754,-59"/>
<text text-anchor="middle" x="728" y="-65" font-family="Helvetica,sans-Serif" font-size="10.00">om/producer.cpp</text>
</a>
</g>
</g>
<!-- Node8&#45;&gt;Node10 -->
<g id="edge10" class="edge"><title>Node8&#45;&gt;Node10</title>
<path fill="none" stroke="midnightblue" d="M757.063,-116.753C749.739,-108.924 740.966,-97.4761 734.741,-87.8679"/>
<polygon fill="midnightblue" stroke="midnightblue" points="737.632,-85.882 729.513,-79.0752 731.615,-89.4594 737.632,-85.882"/>
</g>
<!-- Node10&#45;&gt;Node5 -->
<g id="edge11" class="edge"><title>Node10&#45;&gt;Node5</title>
<path fill="none" stroke="midnightblue" d="M698.516,-58.878C666.38,-48.9352 615.029,-33.0476 581.16,-22.5688"/>
<polygon fill="midnightblue" stroke="midnightblue" points="581.838,-19.115 571.25,-19.5029 579.769,-25.8023 581.838,-19.115"/>
</g>
<!-- Node10&#45;&gt;Node6 -->
<g id="edge12" class="edge"><title>Node10&#45;&gt;Node6</title>
<path fill="none" stroke="midnightblue" d="M718.918,-58.7527C710.829,-50.5165 698.805,-38.2738 689.09,-28.3824"/>
<polygon fill="midnightblue" stroke="midnightblue" points="691.417,-25.7572 681.913,-21.0752 686.423,-30.6622 691.417,-25.7572"/>
</g>
<!-- Node10&#45;&gt;Node8 -->
<g id="edge13" class="edge"><title>Node10&#45;&gt;Node8</title>
<path fill="none" stroke="midnightblue" d="M739.775,-79.0752C747.078,-86.8502 755.859,-98.2849 762.121,-107.92"/>
<polygon fill="midnightblue" stroke="midnightblue" points="759.264,-109.962 767.396,-116.753 765.274,-106.373 759.264,-109.962"/>
</g>
<!-- Node12 -->
<g id="node12" class="node"><title>Node12</title>
<g id="a_node12"><a xlink:href="default__copyable_8hpp.html" target="_top" xlink:title="Om header file. ">
<polygon fill="none" stroke="black" points="184.126,-175 184.126,-195 311.874,-195 311.874,-175 184.126,-175"/>
<text text-anchor="middle" x="248" y="-181" font-family="Helvetica,sans-Serif" font-size="10.00">om/default_copyable.hpp</text>
</a>
</g>
</g>
<!-- Node11&#45;&gt;Node12 -->
<g id="edge16" class="edge"><title>Node11&#45;&gt;Node12</title>
<path fill="none" stroke="midnightblue" d="M248.835,-232.753C248.701,-225.25 248.508,-214.424 248.341,-205.078"/>
<polygon fill="midnightblue" stroke="midnightblue" points="251.84,-205.011 248.162,-195.075 244.841,-205.136 251.84,-205.011"/>
</g>
<!-- Node16 -->
<g id="node16" class="node"><title>Node16</title>
<g id="a_node16"><a xlink:href="default__moveable_8hpp.html" target="_top" xlink:title="Om header file. ">
<polygon fill="none" stroke="black" points="368.461,-175 368.461,-195 499.539,-195 499.539,-175 368.461,-175"/>
<text text-anchor="middle" x="434" y="-181" font-family="Helvetica,sans-Serif" font-size="10.00">om/default_moveable.hpp</text>
</a>
</g>
</g>
<!-- Node11&#45;&gt;Node16 -->
<g id="edge25" class="edge"><title>Node11&#45;&gt;Node16</title>
<path fill="none" stroke="midnightblue" d="M279.135,-232.878C310.539,-223.372 359.895,-208.432 394.424,-197.98"/>
<polygon fill="midnightblue" stroke="midnightblue" points="395.627,-201.272 404.184,-195.025 393.599,-194.573 395.627,-201.272"/>
</g>
<!-- Node20 -->
<g id="node20" class="node"><title>Node20</title>
<g id="a_node20"><a xlink:href="giveable_8hpp.html" target="_top" xlink:title="Om header file. ">
<polygon fill="none" stroke="black" points="517.308,-175 517.308,-195 606.692,-195 606.692,-175 517.308,-175"/>
<text text-anchor="middle" x="562" y="-181" font-family="Helvetica,sans-Serif" font-size="10.00">om/giveable.hpp</text>
</a>
</g>
</g>
<!-- Node11&#45;&gt;Node20 -->
<g id="edge34" class="edge"><title>Node11&#45;&gt;Node20</title>
<path fill="none" stroke="midnightblue" d="M300.618,-232.947C350.761,-224.127 429.33,-210.239 507.227,-196.131"/>
<polygon fill="midnightblue" stroke="midnightblue" points="508,-199.547 517.216,-194.32 506.752,-192.66 508,-199.547"/>
</g>
<!-- Node22 -->
<g id="node22" class="node"><title>Node22</title>
<g id="a_node22"><a xlink:href="default__giveable_8cpp.html" target="_top" xlink:title="Om source file. ">
<polygon fill="none" stroke="black" points="41.7959,-175 41.7959,-195 166.204,-195 166.204,-175 41.7959,-175"/>
<text text-anchor="middle" x="104" y="-181" font-family="Helvetica,sans-Serif" font-size="10.00">om/default_giveable.cpp</text>
</a>
</g>
</g>
<!-- Node11&#45;&gt;Node22 -->
<g id="edge39" class="edge"><title>Node11&#45;&gt;Node22</title>
<path fill="none" stroke="midnightblue" d="M220.24,-232.878C194.541,-223.685 157.357,-209.409 131.923,-199.026"/>
<polygon fill="midnightblue" stroke="midnightblue" points="133.048,-195.704 122.469,-195.118 130.374,-202.173 133.048,-195.704"/>
</g>
<!-- Node13 -->
<g id="node13" class="node"><title>Node13</title>
<g id="a_node13"><a xlink:href="copyable_8hpp.html" target="_top" xlink:title="Om header file. ">
<polygon fill="none" stroke="black" points="392.919,-117 392.919,-137 485.081,-137 485.081,-117 392.919,-117"/>
<text text-anchor="middle" x="439" y="-123" font-family="Helvetica,sans-Serif" font-size="10.00">om/copyable.hpp</text>
</a>
</g>
</g>
<!-- Node12&#45;&gt;Node13 -->
<g id="edge17" class="edge"><title>Node12&#45;&gt;Node13</title>
<path fill="none" stroke="midnightblue" d="M279.113,-174.878C311.675,-165.331 362.93,-150.303 398.599,-139.845"/>
<polygon fill="midnightblue" stroke="midnightblue" points="399.606,-143.198 408.217,-137.025 397.636,-136.48 399.606,-143.198"/>
</g>
<!-- Node15 -->
<g id="node15" class="node"><title>Node15</title>
<g id="a_node15"><a xlink:href="default__copyable_8cpp.html" target="_top" xlink:title="Om source file. ">
<polygon fill="none" stroke="black" points="-0.593262,-117 -0.593262,-137 126.593,-137 126.593,-117 -0.593262,-117"/>
<text text-anchor="middle" x="63" y="-123" font-family="Helvetica,sans-Serif" font-size="10.00">om/default_copyable.cpp</text>
</a>
</g>
</g>
<!-- Node12&#45;&gt;Node15 -->
<g id="edge23" class="edge"><title>Node12&#45;&gt;Node15</title>
<path fill="none" stroke="midnightblue" d="M212.724,-174.878C179.504,-165.413 130.259,-150.56 97.3485,-140.115"/>
<polygon fill="midnightblue" stroke="midnightblue" points="98.2861,-136.74 87.6951,-137.025 96.1525,-143.407 98.2861,-136.74"/>
</g>
<!-- Node13&#45;&gt;Node9 -->
<g id="edge18" class="edge"><title>Node13&#45;&gt;Node9</title>
<path fill="none" stroke="midnightblue" d="M471.579,-116.878C507.597,-106.793 565.459,-90.5914 602.85,-80.122"/>
<polygon fill="midnightblue" stroke="midnightblue" points="604.132,-83.3977 612.818,-77.3309 602.245,-76.6569 604.132,-83.3977"/>
</g>
<!-- Node14 -->
<g id="node14" class="node"><title>Node14</title>
<g id="a_node14"><a xlink:href="copyable_8cpp.html" target="_top" xlink:title="Om source file. ">
<polygon fill="none" stroke="black" points="390.2,-59 390.2,-79 481.8,-79 481.8,-59 390.2,-59"/>
<text text-anchor="middle" x="436" y="-65" font-family="Helvetica,sans-Serif" font-size="10.00">om/copyable.cpp</text>
</a>
</g>
</g>
<!-- Node13&#45;&gt;Node14 -->
<g id="edge19" class="edge"><title>Node13&#45;&gt;Node14</title>
<path fill="none" stroke="midnightblue" d="M433.338,-116.753C431.41,-109.25 430.407,-98.4238 430.586,-89.0781"/>
<polygon fill="midnightblue" stroke="midnightblue" points="434.078,-89.314 431.355,-79.0752 427.099,-88.7775 434.078,-89.314"/>
</g>
<!-- Node14&#45;&gt;Node5 -->
<g id="edge20" class="edge"><title>Node14&#45;&gt;Node5</title>
<path fill="none" stroke="midnightblue" d="M454.329,-58.7527C472.19,-49.7418 499.557,-35.9353 519.926,-25.6589"/>
<polygon fill="midnightblue" stroke="midnightblue" points="521.66,-28.7044 529.012,-21.0752 518.507,-22.4547 521.66,-28.7044"/>
</g>
<!-- Node14&#45;&gt;Node6 -->
<g id="edge21" class="edge"><title>Node14&#45;&gt;Node6</title>
<path fill="none" stroke="midnightblue" d="M474.342,-58.9404C518.096,-48.6017 589.299,-31.7774 633.522,-21.3281"/>
<polygon fill="midnightblue" stroke="midnightblue" points="634.413,-24.7142 643.34,-19.0083 632.803,-17.9018 634.413,-24.7142"/>
</g>
<!-- Node14&#45;&gt;Node13 -->
<g id="edge22" class="edge"><title>Node14&#45;&gt;Node13</title>
<path fill="none" stroke="midnightblue" d="M441.617,-79.0752C443.559,-86.5262 444.579,-97.3384 444.418,-106.707"/>
<polygon fill="midnightblue" stroke="midnightblue" points="440.922,-106.521 443.671,-116.753 447.903,-107.04 440.922,-106.521"/>
</g>
<!-- Node15&#45;&gt;Node12 -->
<g id="edge24" class="edge"><title>Node15&#45;&gt;Node12</title>
<path fill="none" stroke="midnightblue" d="M97.9364,-137.025C131.047,-146.454 180.292,-161.303 213.314,-171.778"/>
<polygon fill="midnightblue" stroke="midnightblue" points="212.415,-175.165 223.005,-174.878 214.547,-168.498 212.415,-175.165"/>
</g>
<!-- Node17 -->
<g id="node17" class="node"><title>Node17</title>
<g id="a_node17"><a xlink:href="moveable_8hpp.html" target="_top" xlink:title="Om header file. ">
<polygon fill="none" stroke="black" points="503.254,-117 503.254,-137 598.746,-137 598.746,-117 503.254,-117"/>
<text text-anchor="middle" x="551" y="-123" font-family="Helvetica,sans-Serif" font-size="10.00">om/moveable.hpp</text>
</a>
</g>
</g>
<!-- Node16&#45;&gt;Node17 -->
<g id="edge26" class="edge"><title>Node16&#45;&gt;Node17</title>
<path fill="none" stroke="midnightblue" d="M453.058,-174.878C472.011,-165.807 501.301,-151.788 522.916,-141.442"/>
<polygon fill="midnightblue" stroke="midnightblue" points="524.441,-144.592 531.95,-137.118 521.419,-138.278 524.441,-144.592"/>
</g>
<!-- Node19 -->
<g id="node19" class="node"><title>Node19</title>
<g id="a_node19"><a xlink:href="default__moveable_8cpp.html" target="_top" xlink:title="Om source file. ">
<polygon fill="none" stroke="black" points="244.742,-117 244.742,-137 375.258,-137 375.258,-117 244.742,-117"/>
<text text-anchor="middle" x="310" y="-123" font-family="Helvetica,sans-Serif" font-size="10.00">om/default_moveable.cpp</text>
</a>
</g>
</g>
<!-- Node16&#45;&gt;Node19 -->
<g id="edge32" class="edge"><title>Node16&#45;&gt;Node19</title>
<path fill="none" stroke="midnightblue" d="M408.661,-174.878C386.803,-165.847 355.702,-151.913 334.191,-141.581"/>
<polygon fill="midnightblue" stroke="midnightblue" points="335.572,-138.361 325.05,-137.118 332.501,-144.651 335.572,-138.361"/>
</g>
<!-- Node17&#45;&gt;Node9 -->
<g id="edge27" class="edge"><title>Node17&#45;&gt;Node9</title>
<path fill="none" stroke="midnightblue" d="M565.531,-116.753C579.243,-108.027 600.021,-94.8051 615.985,-84.6458"/>
<polygon fill="midnightblue" stroke="midnightblue" points="618.181,-87.3968 624.739,-79.0752 614.423,-81.4912 618.181,-87.3968"/>
</g>
<!-- Node18 -->
<g id="node18" class="node"><title>Node18</title>
<g id="a_node18"><a xlink:href="moveable_8cpp.html" target="_top" xlink:title="Om source file. ">
<polygon fill="none" stroke="black" points="499.535,-59 499.535,-79 594.465,-79 594.465,-59 499.535,-59"/>
<text text-anchor="middle" x="547" y="-65" font-family="Helvetica,sans-Serif" font-size="10.00">om/moveable.cpp</text>
</a>
</g>
</g>
<!-- Node17&#45;&gt;Node18 -->
<g id="edge28" class="edge"><title>Node17&#45;&gt;Node18</title>
<path fill="none" stroke="midnightblue" d="M545.173,-116.753C543.111,-109.25 541.915,-98.4238 541.927,-89.0781"/>
<polygon fill="midnightblue" stroke="midnightblue" points="545.422,-89.264 542.517,-79.0752 538.434,-88.8516 545.422,-89.264"/>
</g>
<!-- Node18&#45;&gt;Node5 -->
<g id="edge29" class="edge"><title>Node18&#45;&gt;Node5</title>
<path fill="none" stroke="midnightblue" d="M547,-58.7527C547,-51.2504 547,-40.4238 547,-31.0781"/>
<polygon fill="midnightblue" stroke="midnightblue" points="550.5,-31.0752 547,-21.0752 543.5,-31.0752 550.5,-31.0752"/>
</g>
<!-- Node18&#45;&gt;Node6 -->
<g id="edge30" class="edge"><title>Node18&#45;&gt;Node6</title>
<path fill="none" stroke="midnightblue" d="M567.525,-58.878C588.026,-49.7661 619.761,-35.6617 643.069,-25.3028"/>
<polygon fill="midnightblue" stroke="midnightblue" points="644.768,-28.3779 652.484,-21.1181 641.925,-21.9812 644.768,-28.3779"/>
</g>
<!-- Node18&#45;&gt;Node17 -->
<g id="edge31" class="edge"><title>Node18&#45;&gt;Node17</title>
<path fill="none" stroke="midnightblue" d="M552.779,-79.0752C554.854,-86.5262 556.067,-97.3384 556.073,-106.707"/>
<polygon fill="midnightblue" stroke="midnightblue" points="552.575,-106.571 555.506,-116.753 559.564,-106.966 552.575,-106.571"/>
</g>
<!-- Node19&#45;&gt;Node16 -->
<g id="edge33" class="edge"><title>Node19&#45;&gt;Node16</title>
<path fill="none" stroke="midnightblue" d="M335.33,-137.118C357.184,-146.147 388.286,-160.081 409.8,-170.414"/>
<polygon fill="midnightblue" stroke="midnightblue" points="408.42,-173.636 418.942,-174.878 411.491,-167.345 408.42,-173.636"/>
</g>
<!-- Node20&#45;&gt;Node13 -->
<g id="edge35" class="edge"><title>Node20&#45;&gt;Node13</title>
<path fill="none" stroke="midnightblue" d="M541.964,-174.878C521.951,-165.766 490.971,-151.662 468.219,-141.303"/>
<polygon fill="midnightblue" stroke="midnightblue" points="469.579,-138.076 459.027,-137.118 466.678,-144.447 469.579,-138.076"/>
</g>
<!-- Node20&#45;&gt;Node17 -->
<g id="edge36" class="edge"><title>Node20&#45;&gt;Node17</title>
<path fill="none" stroke="midnightblue" d="M560.184,-174.753C558.71,-167.25 556.583,-156.424 554.747,-147.078"/>
<polygon fill="midnightblue" stroke="midnightblue" points="558.145,-146.213 552.783,-137.075 551.276,-147.562 558.145,-146.213"/>
</g>
<!-- Node21 -->
<g id="node21" class="node"><title>Node21</title>
<g id="a_node21"><a xlink:href="giveable_8cpp.html" target="_top" xlink:title="Om source file. ">
<polygon fill="none" stroke="black" points="616.589,-117 616.589,-137 705.411,-137 705.411,-117 616.589,-117"/>
<text text-anchor="middle" x="661" y="-123" font-family="Helvetica,sans-Serif" font-size="10.00">om/giveable.cpp</text>
</a>
</g>
</g>
<!-- Node20&#45;&gt;Node21 -->
<g id="edge37" class="edge"><title>Node20&#45;&gt;Node21</title>
<path fill="none" stroke="midnightblue" d="M573.182,-174.753C587.215,-165.783 611.226,-152.06 630.696,-141.799"/>
<polygon fill="midnightblue" stroke="midnightblue" points="632.552,-144.779 639.825,-137.075 629.335,-138.562 632.552,-144.779"/>
</g>
<!-- Node21&#45;&gt;Node20 -->
<g id="edge38" class="edge"><title>Node21&#45;&gt;Node20</title>
<path fill="none" stroke="midnightblue" d="M650.087,-137.075C636.119,-146.025 611.989,-159.823 592.413,-170.144"/>
<polygon fill="midnightblue" stroke="midnightblue" points="590.784,-167.046 583.514,-174.753 594.004,-173.262 590.784,-167.046"/>
</g>
<!-- Node22&#45;&gt;Node11 -->
<g id="edge40" class="edge"><title>Node22&#45;&gt;Node11</title>
<path fill="none" stroke="midnightblue" d="M132.49,-195.025C158.183,-204.21 195.514,-218.539 221.036,-228.957"/>
<polygon fill="midnightblue" stroke="midnightblue" points="219.943,-232.292 230.521,-232.878 222.617,-225.823 219.943,-232.292"/>
</g>
<!-- Node23&#45;&gt;Node3 -->
<g id="edge42" class="edge"><title>Node23&#45;&gt;Node3</title>
<path fill="none" stroke="midnightblue" d="M715.749,-236.529C799.168,-226.329 978.344,-204.421 1070.94,-193.099"/>
<polygon fill="midnightblue" stroke="midnightblue" points="1071.48,-196.559 1080.98,-191.871 1070.63,-189.611 1071.48,-196.559"/>
</g>
<!-- Node23&#45;&gt;Node20 -->
<g id="edge43" class="edge"><title>Node23&#45;&gt;Node20</title>
<path fill="none" stroke="midnightblue" d="M653.001,-232.753C635.462,-223.742 608.588,-209.935 588.586,-199.659"/>
<polygon fill="midnightblue" stroke="midnightblue" points="590.158,-196.532 579.664,-195.075 586.96,-202.758 590.158,-196.532"/>
</g>
<!-- Node23&#45;&gt;Node8 -->
<g id="edge44" class="edge"><title>Node23&#45;&gt;Node8</title>
<path fill="none" stroke="midnightblue" d="M664.447,-232.836C655.414,-218.972 641.584,-192.34 654,-174 662.465,-161.496 696.253,-148.868 725.032,-140.014"/>
<polygon fill="midnightblue" stroke="midnightblue" points="726.375,-143.265 734.952,-137.046 724.369,-136.559 726.375,-143.265"/>
</g>
<!-- Node24 -->
<g id="node24" class="node"><title>Node24</title>
<g id="a_node24"><a xlink:href="shareable_8hpp.html" target="_top" xlink:title="Om header file. ">
<polygon fill="none" stroke="black" points="939.973,-175 939.973,-195 1036.03,-195 1036.03,-175 939.973,-175"/>
<text text-anchor="middle" x="988" y="-181" font-family="Helvetica,sans-Serif" font-size="10.00">om/shareable.hpp</text>
</a>
</g>
</g>
<!-- Node23&#45;&gt;Node24 -->
<g id="edge45" class="edge"><title>Node23&#45;&gt;Node24</title>
<path fill="none" stroke="midnightblue" d="M715.746,-234.095C771.844,-224.185 868.124,-207.177 929.872,-196.269"/>
<polygon fill="midnightblue" stroke="midnightblue" points="930.612,-199.692 939.85,-194.506 929.394,-192.799 930.612,-199.692"/>
</g>
<!-- Node29 -->
<g id="node29" class="node"><title>Node29</title>
<g id="a_node29"><a xlink:href="program_8cpp.html" target="_top" xlink:title="Om source file. ">
<polygon fill="none" stroke="black" points="662.596,-175 662.596,-195 751.404,-195 751.404,-175 662.596,-175"/>
<text text-anchor="middle" x="707" y="-181" font-family="Helvetica,sans-Serif" font-size="10.00">om/program.cpp</text>
</a>
</g>
</g>
<!-- Node23&#45;&gt;Node29 -->
<g id="edge52" class="edge"><title>Node23&#45;&gt;Node29</title>
<path fill="none" stroke="midnightblue" d="M671.778,-232.753C675.326,-224.68 682.625,-212.757 689.828,-202.973"/>
<polygon fill="midnightblue" stroke="midnightblue" points="692.607,-205.1 696.035,-195.075 687.104,-200.774 692.607,-205.1"/>
</g>
<!-- Node25 -->
<g id="node25" class="node"><title>Node25</title>
<polygon fill="none" stroke="#bfbfbf" points="879.879,-117 879.879,-137 928.121,-137 928.121,-117 879.879,-117"/>
<text text-anchor="middle" x="904" y="-123" font-family="Helvetica,sans-Serif" font-size="10.00">cstddef</text>
</g>
<!-- Node24&#45;&gt;Node25 -->
<g id="edge46" class="edge"><title>Node24&#45;&gt;Node25</title>
<path fill="none" stroke="midnightblue" d="M974.129,-174.753C961.041,-166.027 941.208,-152.805 925.969,-142.646"/>
<polygon fill="midnightblue" stroke="midnightblue" points="927.875,-139.71 917.613,-137.075 923.992,-145.534 927.875,-139.71"/>
</g>
<!-- Node26 -->
<g id="node26" class="node"><title>Node26</title>
<g id="a_node26"><a xlink:href="shareable_8cpp.html" target="_top" xlink:title="Om source file. ">
<polygon fill="none" stroke="black" points="946.254,-117 946.254,-137 1041.75,-137 1041.75,-117 946.254,-117"/>
<text text-anchor="middle" x="994" y="-123" font-family="Helvetica,sans-Serif" font-size="10.00">om/shareable.cpp</text>
</a>
</g>
</g>
<!-- Node24&#45;&gt;Node26 -->
<g id="edge47" class="edge"><title>Node24&#45;&gt;Node26</title>
<path fill="none" stroke="midnightblue" d="M983.824,-174.753C983.102,-167.25 983.839,-156.424 985.52,-147.078"/>
<polygon fill="midnightblue" stroke="midnightblue" points="988.99,-147.613 987.897,-137.075 982.18,-145.995 988.99,-147.613"/>
</g>
<!-- Node26&#45;&gt;Node6 -->
<g id="edge48" class="edge"><title>Node26&#45;&gt;Node6</title>
<path fill="none" stroke="midnightblue" d="M1018.77,-116.934C1048.79,-104.628 1092.92,-81.4693 1072,-58 1048.33,-31.4399 808.786,-17.9917 712.631,-13.6305"/>
<polygon fill="midnightblue" stroke="midnightblue" points="712.586,-10.1251 702.441,-13.1781 712.276,-17.1182 712.586,-10.1251"/>
</g>
<!-- Node27 -->
<g id="node27" class="node"><title>Node27</title>
<polygon fill="none" stroke="#bfbfbf" points="930.621,-59 930.621,-79 1063.38,-79 1063.38,-59 930.621,-59"/>
<text text-anchor="middle" x="997" y="-65" font-family="Helvetica,sans-Serif" font-size="10.00">boost/checked_delete.hpp</text>
</g>
<!-- Node26&#45;&gt;Node27 -->
<g id="edge49" class="edge"><title>Node26&#45;&gt;Node27</title>
<path fill="none" stroke="midnightblue" d="M994.495,-116.753C994.897,-109.25 995.477,-98.4238 995.978,-89.0781"/>
<polygon fill="midnightblue" stroke="midnightblue" points="999.474,-89.2481 996.514,-79.0752 992.484,-88.8736 999.474,-89.2481"/>
</g>
<!-- Node28 -->
<g id="node28" class="node"><title>Node28</title>
<polygon fill="none" stroke="#bfbfbf" points="791.744,-59 791.744,-79 912.256,-79 912.256,-59 791.744,-59"/>
<text text-anchor="middle" x="852" y="-65" font-family="Helvetica,sans-Serif" font-size="10.00">boost/integer_traits.hpp</text>
</g>
<!-- Node26&#45;&gt;Node28 -->
<g id="edge50" class="edge"><title>Node26&#45;&gt;Node28</title>
<path fill="none" stroke="midnightblue" d="M970.869,-116.878C947.455,-107.644 911.039,-93.283 884.682,-82.8887"/>
<polygon fill="midnightblue" stroke="midnightblue" points="885.708,-79.5309 875.121,-79.1181 883.14,-86.0428 885.708,-79.5309"/>
</g>
<!-- Node26&#45;&gt;Node24 -->
<g id="edge51" class="edge"><title>Node26&#45;&gt;Node24</title>
<path fill="none" stroke="midnightblue" d="M998.159,-137.075C998.911,-144.607 998.169,-155.574 996.464,-165.012"/>
<polygon fill="midnightblue" stroke="midnightblue" points="993.055,-164.215 994.157,-174.753 999.867,-165.828 993.055,-164.215"/>
</g>
<!-- Node29&#45;&gt;Node23 -->
<g id="edge53" class="edge"><title>Node29&#45;&gt;Node23</title>
<path fill="none" stroke="midnightblue" d="M706.297,-195.075C702.803,-203.093 695.53,-215.003 688.326,-224.818"/>
<polygon fill="midnightblue" stroke="midnightblue" points="685.522,-222.722 682.111,-232.753 691.033,-227.039 685.522,-222.722"/>
</g>
<!-- Node31 -->
<g id="node31" class="node"><title>Node31</title>
<g id="a_node31"><a xlink:href="taker_8cpp.html" target="_top" xlink:title="Om source file. ">
<polygon fill="none" stroke="black" points="200.372,-291 200.372,-311 273.628,-311 273.628,-291 200.372,-291"/>
<text text-anchor="middle" x="237" y="-297" font-family="Helvetica,sans-Serif" font-size="10.00">om/taker.cpp</text>
</a>
</g>
</g>
<!-- Node30&#45;&gt;Node31 -->
<g id="edge55" class="edge"><title>Node30&#45;&gt;Node31</title>
<path fill="none" stroke="midnightblue" d="M231.834,-348.753C230.308,-341.25 229.884,-330.424 230.564,-321.078"/>
<polygon fill="midnightblue" stroke="midnightblue" points="234.046,-321.444 231.869,-311.075 227.105,-320.538 234.046,-321.444"/>
</g>
<!-- Node31&#45;&gt;Node30 -->
<g id="edge56" class="edge"><title>Node31&#45;&gt;Node30</title>
<path fill="none" stroke="midnightblue" d="M242.131,-311.075C243.674,-318.526 244.114,-329.338 243.451,-338.707"/>
<polygon fill="midnightblue" stroke="midnightblue" points="239.963,-338.389 242.166,-348.753 246.907,-339.278 239.963,-338.389"/>
</g>
<!-- Node33 -->
<g id="node33" class="node"><title>Node33</title>
<g id="a_node33"><a xlink:href="element_8hpp.html" target="_top" xlink:title="Om header file. ">
<polygon fill="none" stroke="black" points="509.146,-291 509.146,-311 596.854,-311 596.854,-291 509.146,-291"/>
<text text-anchor="middle" x="553" y="-297" font-family="Helvetica,sans-Serif" font-size="10.00">om/element.hpp</text>
</a>
</g>
</g>
<!-- Node32&#45;&gt;Node33 -->
<g id="edge58" class="edge"><title>Node32&#45;&gt;Node33</title>
<path fill="none" stroke="midnightblue" d="M439.991,-348.878C462.153,-339.685 496.566,-325.409 521.597,-315.026"/>
<polygon fill="midnightblue" stroke="midnightblue" points="523.123,-318.183 531.019,-311.118 520.441,-311.717 523.123,-318.183"/>
</g>
<!-- Node35 -->
<g id="node35" class="node"><title>Node35</title>
<g id="a_node35"><a xlink:href="source_8hpp.html" target="_top" xlink:title="Om header file. ">
<polygon fill="none" stroke="black" points="144.926,-117 144.926,-137 227.074,-137 227.074,-117 144.926,-117"/>
<text text-anchor="middle" x="186" y="-123" font-family="Helvetica,sans-Serif" font-size="10.00">om/source.hpp</text>
</a>
</g>
</g>
<!-- Node32&#45;&gt;Node35 -->
<g id="edge62" class="edge"><title>Node32&#45;&gt;Node35</title>
<path fill="none" stroke="midnightblue" d="M410.12,-348.919C402.567,-339.938 391.143,-325.605 383,-312 348.374,-254.148 369.943,-219.293 320,-174 306.832,-162.058 265.813,-148.936 232.593,-139.774"/>
<polygon fill="midnightblue" stroke="midnightblue" points="233.14,-136.297 222.573,-137.064 231.312,-143.054 233.14,-136.297"/>
</g>
<!-- Node37 -->
<g id="node37" class="node"><title>Node37</title>
<polygon fill="none" stroke="#bfbfbf" points="392.488,-291 392.488,-311 443.512,-311 443.512,-291 392.488,-291"/>
<text text-anchor="middle" x="418" y="-297" font-family="Helvetica,sans-Serif" font-size="10.00">typeinfo</text>
</g>
<!-- Node32&#45;&gt;Node37 -->
<g id="edge67" class="edge"><title>Node32&#45;&gt;Node37</title>
<path fill="none" stroke="midnightblue" d="M418,-348.753C418,-341.25 418,-330.424 418,-321.078"/>
<polygon fill="midnightblue" stroke="midnightblue" points="421.5,-321.075 418,-311.075 414.5,-321.075 421.5,-321.075"/>
</g>
<!-- Node32&#45;&gt;Node1 -->
<g id="edge68" class="edge"><title>Node32&#45;&gt;Node1</title>
<path fill="none" stroke="midnightblue" d="M423.131,-369.075C424.674,-376.526 425.114,-387.338 424.451,-396.707"/>
<polygon fill="midnightblue" stroke="midnightblue" points="420.963,-396.389 423.166,-406.753 427.907,-397.278 420.963,-396.389"/>
</g>
<!-- Node33&#45;&gt;Node23 -->
<g id="edge59" class="edge"><title>Node33&#45;&gt;Node23</title>
<path fill="none" stroke="midnightblue" d="M572.221,-290.878C591.336,-281.807 620.876,-267.788 642.676,-257.442"/>
<polygon fill="midnightblue" stroke="midnightblue" points="644.253,-260.568 651.787,-253.118 641.252,-254.244 644.253,-260.568"/>
</g>
<!-- Node34 -->
<g id="node34" class="node"><title>Node34</title>
<g id="a_node34"><a xlink:href="element_8cpp.html" target="_top" xlink:title="Om source file. ">
<polygon fill="none" stroke="black" points="509.426,-233 509.426,-253 596.574,-253 596.574,-233 509.426,-233"/>
<text text-anchor="middle" x="553" y="-239" font-family="Helvetica,sans-Serif" font-size="10.00">om/element.cpp</text>
</a>
</g>
</g>
<!-- Node33&#45;&gt;Node34 -->
<g id="edge60" class="edge"><title>Node33&#45;&gt;Node34</title>
<path fill="none" stroke="midnightblue" d="M547.834,-290.753C546.308,-283.25 545.884,-272.424 546.564,-263.078"/>
<polygon fill="midnightblue" stroke="midnightblue" points="550.046,-263.444 547.869,-253.075 543.105,-262.538 550.046,-263.444"/>
</g>
<!-- Node34&#45;&gt;Node33 -->
<g id="edge61" class="edge"><title>Node34&#45;&gt;Node33</title>
<path fill="none" stroke="midnightblue" d="M558.131,-253.075C559.674,-260.526 560.114,-271.338 559.451,-280.707"/>
<polygon fill="midnightblue" stroke="midnightblue" points="555.963,-280.389 558.166,-290.753 562.907,-281.278 555.963,-280.389"/>
</g>
<!-- Node36 -->
<g id="node36" class="node"><title>Node36</title>
<g id="a_node36"><a xlink:href="source_8cpp.html" target="_top" xlink:title="Om source file. ">
<polygon fill="none" stroke="black" points="219.207,-59 219.207,-79 300.793,-79 300.793,-59 219.207,-59"/>
<text text-anchor="middle" x="260" y="-65" font-family="Helvetica,sans-Serif" font-size="10.00">om/source.cpp</text>
</a>
</g>
</g>
<!-- Node35&#45;&gt;Node36 -->
<g id="edge63" class="edge"><title>Node35&#45;&gt;Node36</title>
<path fill="none" stroke="midnightblue" d="M193.053,-116.753C202.717,-108.109 219.677,-95.0518 234.22,-84.9314"/>
<polygon fill="midnightblue" stroke="midnightblue" points="236.555,-87.5776 242.877,-79.0752 232.633,-81.7797 236.555,-87.5776"/>
</g>
<!-- Node36&#45;&gt;Node5 -->
<g id="edge64" class="edge"><title>Node36&#45;&gt;Node5</title>
<path fill="none" stroke="midnightblue" d="M300.815,-60.036C357.689,-48.9388 459.752,-29.0241 512.831,-18.667"/>
<polygon fill="midnightblue" stroke="midnightblue" points="513.622,-22.0789 522.766,-16.7285 512.281,-15.2085 513.622,-22.0789"/>
</g>
<!-- Node36&#45;&gt;Node6 -->
<g id="edge65" class="edge"><title>Node36&#45;&gt;Node6</title>
<path fill="none" stroke="midnightblue" d="M301.11,-62.4258C380.777,-51.6234 555.226,-27.9694 633.553,-17.3487"/>
<polygon fill="midnightblue" stroke="midnightblue" points="634.066,-20.8113 643.505,-15.9993 633.126,-13.8748 634.066,-20.8113"/>
</g>
<!-- Node36&#45;&gt;Node35 -->
<g id="edge66" class="edge"><title>Node36&#45;&gt;Node35</title>
<path fill="none" stroke="midnightblue" d="M253.139,-79.0752C243.572,-87.6601 226.646,-100.707 212.07,-110.866"/>
<polygon fill="midnightblue" stroke="midnightblue" points="209.7,-108.245 203.386,-116.753 213.627,-114.039 209.7,-108.245"/>
</g>
</g>
</svg>
