<?xml version="1.0" encoding="UTF-8" standalone="no"?>
<!DOCTYPE svg PUBLIC "-//W3C//DTD SVG 1.1//EN"
 "http://www.w3.org/Graphics/SVG/1.1/DTD/svg11.dtd">
<!-- Generated by graphviz version 2.30.1 (20130221.2233)
 -->
<!-- Title: om/operation/define_operation.hpp Pages: 1 -->
<svg width="250pt" height="182pt"
 viewBox="0.00 0.00 250.00 182.00" xmlns="http://www.w3.org/2000/svg" xmlns:xlink="http://www.w3.org/1999/xlink">
<g id="graph0" class="graph" transform="scale(1 1) rotate(0) translate(4 178)">
<title>om/operation/define_operation.hpp</title>
<!-- Node1 -->
<g id="node1" class="node"><title>Node1</title>
<polygon fill="#bfbfbf" stroke="black" points="137.803,-141 137.803,-173 242.197,-173 242.197,-141 137.803,-141"/>
<text text-anchor="start" x="145.803" y="-159" font-family="Helvetica,sans-Serif" font-size="10.00">om/operation/define</text>
<text text-anchor="middle" x="190" y="-147" font-family="Helvetica,sans-Serif" font-size="10.00">_operation.hpp</text>
</g>
<!-- Node2 -->
<g id="node2" class="node"><title>Node2</title>
<g id="a_node2"><a xlink:href="rearrange__operation_8cpp.html" target="_top" xlink:title="Om source file. ">
<polygon fill="none" stroke="black" points="-0.253418,-71 -0.253418,-103 120.253,-103 120.253,-71 -0.253418,-71"/>
<text text-anchor="start" x="7.74658" y="-89" font-family="Helvetica,sans-Serif" font-size="10.00">om/operation/rearrange</text>
<text text-anchor="middle" x="60" y="-77" font-family="Helvetica,sans-Serif" font-size="10.00">_operation.cpp</text>
</a>
</g>
</g>
<!-- Node1&#45;&gt;Node2 -->
<g id="edge1" class="edge"><title>Node1&#45;&gt;Node2</title>
<path fill="none" stroke="midnightblue" d="M152.191,-136.223C131.957,-125.639 107.436,-112.813 88.7706,-103.049"/>
<polygon fill="midnightblue" stroke="midnightblue" points="150.666,-139.375 161.149,-140.909 153.91,-133.172 150.666,-139.375"/>
</g>
<!-- Node4 -->
<g id="node4" class="node"><title>Node4</title>
<g id="a_node4"><a xlink:href="define__operation_8cpp.html" target="_top" xlink:title="Om source file. ">
<polygon fill="none" stroke="black" points="137.803,-71 137.803,-103 242.197,-103 242.197,-71 137.803,-71"/>
<text text-anchor="start" x="145.803" y="-89" font-family="Helvetica,sans-Serif" font-size="10.00">om/operation/define</text>
<text text-anchor="middle" x="190" y="-77" font-family="Helvetica,sans-Serif" font-size="10.00">_operation.cpp</text>
</a>
</g>
</g>
<!-- Node1&#45;&gt;Node4 -->
<g id="edge4" class="edge"><title>Node1&#45;&gt;Node4</title>
<path fill="none" stroke="midnightblue" d="M183.461,-130.92C183.009,-121.56 183.284,-111.229 184.285,-103.049"/>
<polygon fill="midnightblue" stroke="midnightblue" points="179.974,-131.228 184.28,-140.909 186.951,-130.656 179.974,-131.228"/>
</g>
<!-- Node3 -->
<g id="node3" class="node"><title>Node3</title>
<g id="a_node3"><a xlink:href="rearrange__operation_8hpp.html" target="_top" xlink:title="Om header file. ">
<polygon fill="none" stroke="black" points="-0.253418,-1 -0.253418,-33 120.253,-33 120.253,-1 -0.253418,-1"/>
<text text-anchor="start" x="7.74658" y="-19" font-family="Helvetica,sans-Serif" font-size="10.00">om/operation/rearrange</text>
<text text-anchor="middle" x="60" y="-7" font-family="Helvetica,sans-Serif" font-size="10.00">_operation.hpp</text>
</a>
</g>
</g>
<!-- Node2&#45;&gt;Node3 -->
<g id="edge2" class="edge"><title>Node2&#45;&gt;Node3</title>
<path fill="none" stroke="midnightblue" d="M53.4608,-60.9196C53.0088,-51.5597 53.2836,-41.2293 54.2851,-33.0492"/>
<polygon fill="midnightblue" stroke="midnightblue" points="49.9743,-61.2281 54.28,-70.9086 56.9509,-60.656 49.9743,-61.2281"/>
</g>
<!-- Node3&#45;&gt;Node2 -->
<g id="edge3" class="edge"><title>Node3&#45;&gt;Node2</title>
<path fill="none" stroke="midnightblue" d="M66.5368,-43.0321C66.9913,-52.3887 66.7191,-62.7211 65.72,-70.9086"/>
<polygon fill="midnightblue" stroke="midnightblue" points="70.0237,-42.7283 65.7149,-33.0492 63.0474,-43.3027 70.0237,-42.7283"/>
</g>
<!-- Node4&#45;&gt;Node1 -->
<g id="edge5" class="edge"><title>Node4&#45;&gt;Node1</title>
<path fill="none" stroke="midnightblue" d="M196.537,-113.032C196.991,-122.389 196.719,-132.721 195.72,-140.909"/>
<polygon fill="midnightblue" stroke="midnightblue" points="200.024,-112.728 195.715,-103.049 193.047,-113.303 200.024,-112.728"/>
</g>
</g>
</svg>
