<?xml version="1.0" encoding="UTF-8" standalone="no"?>
<!DOCTYPE svg PUBLIC "-//W3C//DTD SVG 1.1//EN"
 "http://www.w3.org/Graphics/SVG/1.1/DTD/svg11.dtd">
<!-- Generated by graphviz version 2.36.0 (20140111.2315)
 -->
<!-- Title: om/operation/dequote_operation.cpp Pages: 1 -->
<svg width="120pt" height="104pt"
 viewBox="0.00 0.00 120.00 104.00" xmlns="http://www.w3.org/2000/svg" xmlns:xlink="http://www.w3.org/1999/xlink">
<g id="graph0" class="graph" transform="scale(1 1) rotate(0) translate(4 100)">
<title>om/operation/dequote_operation.cpp</title>
<!-- Node1 -->
<g id="node1" class="node"><title>Node1</title>
<polygon fill="#bfbfbf" stroke="black" points="-0.647461,-67 -0.647461,-95 112.647,-95 112.647,-67 -0.647461,-67"/>
<text text-anchor="start" x="7.35254" y="-83" font-family="Helvetica,sans-Serif" font-size="10.00">om/operation/dequote</text>
<text text-anchor="middle" x="56" y="-73" font-family="Helvetica,sans-Serif" font-size="10.00">_operation.cpp</text>
</g>
<!-- Node2 -->
<g id="node2" class="node"><title>Node2</title>
<g id="a_node2"><a xlink:href="dequote__operation_8hpp.html" target="_top" xlink:title="Om header file. ">
<polygon fill="none" stroke="black" points="-0.647461,-1 -0.647461,-29 112.647,-29 112.647,-1 -0.647461,-1"/>
<text text-anchor="start" x="7.35254" y="-17" font-family="Helvetica,sans-Serif" font-size="10.00">om/operation/dequote</text>
<text text-anchor="middle" x="56" y="-7" font-family="Helvetica,sans-Serif" font-size="10.00">_operation.hpp</text>
</a>
</g>
</g>
<!-- Node1&#45;&gt;Node2 -->
<g id="edge1" class="edge"><title>Node1&#45;&gt;Node2</title>
<path fill="none" stroke="midnightblue" d="M49.4712,-56.5946C48.9861,-47.3785 49.2989,-37.1352 50.4097,-29.2439"/>
<polygon fill="midnightblue" stroke="midnightblue" points="46.0032,-57.1031 50.4073,-66.7392 52.9736,-56.4598 46.0032,-57.1031"/>
</g>
<!-- Node2&#45;&gt;Node1 -->
<g id="edge2" class="edge"><title>Node2&#45;&gt;Node1</title>
<path fill="none" stroke="midnightblue" d="M62.5277,-39.3855C63.014,-48.6002 62.7024,-58.8444 61.5927,-66.7392"/>
<polygon fill="midnightblue" stroke="midnightblue" points="65.996,-38.8792 61.5903,-29.2439 59.0257,-39.5236 65.996,-38.8792"/>
</g>
</g>
</svg>
