<?xml version="1.0" encoding="UTF-8" standalone="no"?>
<!DOCTYPE svg PUBLIC "-//W3C//DTD SVG 1.1//EN"
 "http://www.w3.org/Graphics/SVG/1.1/DTD/svg11.dtd">
<!-- Generated by graphviz version 2.30.1 (20130221.2233)
 -->
<!-- Title: om/operation/dequote_operation.hpp Pages: 1 -->
<svg width="432pt" height="182pt"
 viewBox="0.00 0.00 432.00 182.00" xmlns="http://www.w3.org/2000/svg" xmlns:xlink="http://www.w3.org/1999/xlink">
<g id="graph0" class="graph" transform="scale(1 1) rotate(0) translate(4 178)">
<title>om/operation/dequote_operation.hpp</title>
<!-- Node1 -->
<g id="node1" class="node"><title>Node1</title>
<polygon fill="#bfbfbf" stroke="black" points="243.353,-141 243.353,-173 356.647,-173 356.647,-141 243.353,-141"/>
<text text-anchor="start" x="251.353" y="-159" font-family="Helvetica,sans-Serif" font-size="10.00">om/operation/dequote</text>
<text text-anchor="middle" x="300" y="-147" font-family="Helvetica,sans-Serif" font-size="10.00">_operation.hpp</text>
</g>
<!-- Node2 -->
<g id="node2" class="node"><title>Node2</title>
<g id="a_node2"><a xlink:href="do__operation_8cpp.html" target="_top" xlink:title="Om source file. ">
<polygon fill="none" stroke="black" points="-0.216309,-77 -0.216309,-97 154.216,-97 154.216,-77 -0.216309,-77"/>
<text text-anchor="middle" x="77" y="-83" font-family="Helvetica,sans-Serif" font-size="10.00">om/operation/do_operation.cpp</text>
</a>
</g>
</g>
<!-- Node1&#45;&gt;Node2 -->
<g id="edge1" class="edge"><title>Node1&#45;&gt;Node2</title>
<path fill="none" stroke="midnightblue" d="M241.21,-138.073C197.895,-124.865 140.794,-107.453 106.602,-97.0266"/>
<polygon fill="midnightblue" stroke="midnightblue" points="240.2,-141.424 250.786,-140.993 242.241,-134.728 240.2,-141.424"/>
</g>
<!-- Node4 -->
<g id="node4" class="node"><title>Node4</title>
<g id="a_node4"><a xlink:href="rearrange__operation_8cpp.html" target="_top" xlink:title="Om source file. ">
<polygon fill="none" stroke="black" points="172.747,-71 172.747,-103 293.253,-103 293.253,-71 172.747,-71"/>
<text text-anchor="start" x="180.747" y="-89" font-family="Helvetica,sans-Serif" font-size="10.00">om/operation/rearrange</text>
<text text-anchor="middle" x="233" y="-77" font-family="Helvetica,sans-Serif" font-size="10.00">_operation.cpp</text>
</a>
</g>
</g>
<!-- Node1&#45;&gt;Node4 -->
<g id="edge4" class="edge"><title>Node1&#45;&gt;Node4</title>
<path fill="none" stroke="midnightblue" d="M277.936,-133.607C268.056,-123.579 256.668,-112.021 247.828,-103.049"/>
<polygon fill="midnightblue" stroke="midnightblue" points="275.619,-136.242 285.131,-140.909 280.605,-131.329 275.619,-136.242"/>
</g>
<!-- Node6 -->
<g id="node6" class="node"><title>Node6</title>
<g id="a_node6"><a xlink:href="dequote__operation_8cpp.html" target="_top" xlink:title="Om source file. ">
<polygon fill="none" stroke="black" points="311.353,-71 311.353,-103 424.647,-103 424.647,-71 311.353,-71"/>
<text text-anchor="start" x="319.353" y="-89" font-family="Helvetica,sans-Serif" font-size="10.00">om/operation/dequote</text>
<text text-anchor="middle" x="368" y="-77" font-family="Helvetica,sans-Serif" font-size="10.00">_operation.cpp</text>
</a>
</g>
</g>
<!-- Node1&#45;&gt;Node6 -->
<g id="edge7" class="edge"><title>Node1&#45;&gt;Node6</title>
<path fill="none" stroke="midnightblue" d="M316.282,-133.312C325.614,-123.353 337.264,-111.933 347.236,-103.049"/>
<polygon fill="midnightblue" stroke="midnightblue" points="313.511,-131.156 309.371,-140.909 318.689,-135.866 313.511,-131.156"/>
</g>
<!-- Node3 -->
<g id="node3" class="node"><title>Node3</title>
<g id="a_node3"><a xlink:href="do__operation_8hpp.html" target="_top" xlink:title="Om header file. ">
<polygon fill="none" stroke="black" points="-0.49707,-7 -0.49707,-27 154.497,-27 154.497,-7 -0.49707,-7"/>
<text text-anchor="middle" x="77" y="-13" font-family="Helvetica,sans-Serif" font-size="10.00">om/operation/do_operation.hpp</text>
</a>
</g>
</g>
<!-- Node2&#45;&gt;Node3 -->
<g id="edge2" class="edge"><title>Node2&#45;&gt;Node3</title>
<path fill="none" stroke="midnightblue" d="M70.833,-66.5567C69.7261,-53.557 70.1954,-37.0574 72.2409,-27.0255"/>
<polygon fill="midnightblue" stroke="midnightblue" points="67.4125,-67.3836 72.2115,-76.8292 74.3503,-66.4525 67.4125,-67.3836"/>
</g>
<!-- Node3&#45;&gt;Node2 -->
<g id="edge3" class="edge"><title>Node3&#45;&gt;Node2</title>
<path fill="none" stroke="midnightblue" d="M83.1509,-37.2558C84.273,-50.2216 83.8189,-66.7353 81.7885,-76.8292"/>
<polygon fill="midnightblue" stroke="midnightblue" points="86.5753,-36.4624 81.7591,-27.0255 79.6392,-37.4061 86.5753,-36.4624"/>
</g>
<!-- Node5 -->
<g id="node5" class="node"><title>Node5</title>
<g id="a_node5"><a xlink:href="rearrange__operation_8hpp.html" target="_top" xlink:title="Om header file. ">
<polygon fill="none" stroke="black" points="172.747,-1 172.747,-33 293.253,-33 293.253,-1 172.747,-1"/>
<text text-anchor="start" x="180.747" y="-19" font-family="Helvetica,sans-Serif" font-size="10.00">om/operation/rearrange</text>
<text text-anchor="middle" x="233" y="-7" font-family="Helvetica,sans-Serif" font-size="10.00">_operation.hpp</text>
</a>
</g>
</g>
<!-- Node4&#45;&gt;Node5 -->
<g id="edge5" class="edge"><title>Node4&#45;&gt;Node5</title>
<path fill="none" stroke="midnightblue" d="M226.461,-60.9196C226.009,-51.5597 226.284,-41.2293 227.285,-33.0492"/>
<polygon fill="midnightblue" stroke="midnightblue" points="222.974,-61.2281 227.28,-70.9086 229.951,-60.656 222.974,-61.2281"/>
</g>
<!-- Node5&#45;&gt;Node4 -->
<g id="edge6" class="edge"><title>Node5&#45;&gt;Node4</title>
<path fill="none" stroke="midnightblue" d="M239.537,-43.0321C239.991,-52.3887 239.719,-62.7211 238.72,-70.9086"/>
<polygon fill="midnightblue" stroke="midnightblue" points="243.024,-42.7283 238.715,-33.0492 236.047,-43.3027 243.024,-42.7283"/>
</g>
<!-- Node6&#45;&gt;Node1 -->
<g id="edge8" class="edge"><title>Node6&#45;&gt;Node1</title>
<path fill="none" stroke="midnightblue" d="M351.762,-110.641C342.438,-120.595 330.788,-132.017 320.811,-140.909"/>
<polygon fill="midnightblue" stroke="midnightblue" points="354.528,-112.803 358.666,-103.049 349.348,-108.093 354.528,-112.803"/>
</g>
</g>
</svg>
