<?xml version="1.0" encoding="UTF-8" standalone="no"?>
<!DOCTYPE svg PUBLIC "-//W3C//DTD SVG 1.1//EN"
 "http://www.w3.org/Graphics/SVG/1.1/DTD/svg11.dtd">
<!-- Generated by graphviz version 2.30.1 (20130221.2233)
 -->
<!-- Title: code/om Pages: 1 -->
<svg width="334pt" height="184pt"
 viewBox="0.00 0.00 334.00 184.00" xmlns="http://www.w3.org/2000/svg" xmlns:xlink="http://www.w3.org/1999/xlink">
<g id="graph0" class="graph" transform="scale(1 1) rotate(0) translate(4 180)">
<title>code/om</title>
<g id="clust1" class="cluster"><title>clusterdir_050edd66366d13764f98250ef6db77f6</title>
<g id="a_clust1"><a xlink:href="dir_050edd66366d13764f98250ef6db77f6.html" target="_top" xlink:title="code">
<polygon fill="#ddddee" stroke="black" points="8,-8 8,-168 318,-168 318,-8 8,-8"/>
<text text-anchor="middle" x="163" y="-154" font-family="Helvetica,sans-Serif" font-size="10.00">code</text>
</a>
</g>
</g>
<g id="clust2" class="cluster"><title>clusterdir_2888b303b266feb59cccd6b33866e185</title>
<g id="a_clust2"><a xlink:href="dir_2888b303b266feb59cccd6b33866e185.html" target="_top">
<polygon fill="#eeeeff" stroke="black" points="16,-16 16,-140 310,-140 310,-16 16,-16"/>
</a>
</g>
</g>
<!-- dir_2888b303b266feb59cccd6b33866e185 -->
<g id="node1" class="node"><title>dir_2888b303b266feb59cccd6b33866e185</title>
<text text-anchor="middle" x="165" y="-110" font-family="Helvetica,sans-Serif" font-size="10.00">om</text>
</g>
<!-- dir_b5b933c2d1b67dd78b5e74d41a748b07 -->
<g id="node3" class="node"><title>dir_b5b933c2d1b67dd78b5e74d41a748b07</title>
<g id="a_node3"><a xlink:href="dir_b5b933c2d1b67dd78b5e74d41a748b07.html" target="_top" xlink:title="sinks">
<polygon fill="white" stroke="black" points="78,-60 24,-60 24,-24 78,-24 78,-60"/>
<text text-anchor="middle" x="51" y="-38" font-family="Helvetica,sans-Serif" font-size="10.00">sinks</text>
</a>
</g>
</g>
<!-- dir_2888b303b266feb59cccd6b33866e185&#45;&gt;dir_b5b933c2d1b67dd78b5e74d41a748b07 -->
<g id="edge1" class="edge"><title>dir_2888b303b266feb59cccd6b33866e185&#45;&gt;dir_b5b933c2d1b67dd78b5e74d41a748b07</title>
<path fill="none" stroke="black" d="M137.984,-96.411C122.762,-87.0642 103.551,-75.2684 87.0583,-65.1411"/>
<polygon fill="black" stroke="black" points="88.5707,-61.9626 78.2176,-59.7125 84.9078,-67.9278 88.5707,-61.9626"/>
<g id="a_edge1&#45;headlabel"><a xlink:href="dir_000001_000003.html" target="_top" xlink:title="6">
<text text-anchor="middle" x="93.1196" y="-57.4239" font-family="Helvetica,sans-Serif" font-size="10.00">6</text>
</a>
</g>
</g>
<!-- dir_f701d43fd0805deab2391e327e0c4808 -->
<g id="node2" class="node"><title>dir_f701d43fd0805deab2391e327e0c4808</title>
<g id="a_node2"><a xlink:href="dir_f701d43fd0805deab2391e327e0c4808.html" target="_top" xlink:title="operations">
<polygon fill="white" stroke="black" points="158.026,-60 95.974,-60 95.974,-24 158.026,-24 158.026,-60"/>
<text text-anchor="middle" x="127" y="-38" font-family="Helvetica,sans-Serif" font-size="10.00">operations</text>
</a>
</g>
</g>
<!-- dir_2888b303b266feb59cccd6b33866e185&#45;&gt;dir_f701d43fd0805deab2391e327e0c4808 -->
<g id="edge2" class="edge"><title>dir_2888b303b266feb59cccd6b33866e185&#45;&gt;dir_f701d43fd0805deab2391e327e0c4808</title>
<path fill="none" stroke="black" d="M155.607,-95.6966C151.235,-87.6436 145.943,-77.8945 141.105,-68.9824"/>
<polygon fill="black" stroke="black" points="144.132,-67.223 136.285,-60.1043 137.98,-70.5627 144.132,-67.223"/>
<g id="a_edge2&#45;headlabel"><a xlink:href="dir_000001_000002.html" target="_top" xlink:title="56">
<text text-anchor="middle" x="148.342" y="-65.0276" font-family="Helvetica,sans-Serif" font-size="10.00">56</text>
</a>
</g>
</g>
<!-- dir_db545f92ca582f606df8da713c150b58 -->
<g id="node5" class="node"><title>dir_db545f92ca582f606df8da713c150b58</title>
<g id="a_node5"><a xlink:href="dir_db545f92ca582f606df8da713c150b58.html" target="_top" xlink:title="symbols">
<polygon fill="white" stroke="black" points="230,-60 176,-60 176,-24 230,-24 230,-60"/>
<text text-anchor="middle" x="203" y="-38" font-family="Helvetica,sans-Serif" font-size="10.00">symbols</text>
</a>
</g>
</g>
<!-- dir_2888b303b266feb59cccd6b33866e185&#45;&gt;dir_db545f92ca582f606df8da713c150b58 -->
<g id="edge3" class="edge"><title>dir_2888b303b266feb59cccd6b33866e185&#45;&gt;dir_db545f92ca582f606df8da713c150b58</title>
<path fill="none" stroke="black" d="M174.393,-95.6966C178.765,-87.6436 184.057,-77.8945 188.895,-68.9824"/>
<polygon fill="black" stroke="black" points="192.02,-70.5627 193.715,-60.1043 185.868,-67.223 192.02,-70.5627"/>
<g id="a_edge3&#45;headlabel"><a xlink:href="dir_000001_000005.html" target="_top" xlink:title="7">
<text text-anchor="middle" x="192.8" y="-71.0764" font-family="Helvetica,sans-Serif" font-size="10.00">7</text>
</a>
</g>
</g>
<!-- dir_3cdadf879de167522f898c236c7974e8 -->
<g id="node4" class="node"><title>dir_3cdadf879de167522f898c236c7974e8</title>
<g id="a_node4"><a xlink:href="dir_3cdadf879de167522f898c236c7974e8.html" target="_top" xlink:title="sources">
<polygon fill="white" stroke="black" points="302,-60 248,-60 248,-24 302,-24 302,-60"/>
<text text-anchor="middle" x="275" y="-38" font-family="Helvetica,sans-Serif" font-size="10.00">sources</text>
</a>
</g>
</g>
<!-- dir_2888b303b266feb59cccd6b33866e185&#45;&gt;dir_3cdadf879de167522f898c236c7974e8 -->
<g id="edge4" class="edge"><title>dir_2888b303b266feb59cccd6b33866e185&#45;&gt;dir_3cdadf879de167522f898c236c7974e8</title>
<path fill="none" stroke="black" d="M191.909,-95.8761C206.158,-86.8083 223.846,-75.5523 239.236,-65.7592"/>
<polygon fill="black" stroke="black" points="241.43,-68.5114 247.988,-60.1898 237.672,-62.6057 241.43,-68.5114"/>
<g id="a_edge4&#45;headlabel"><a xlink:href="dir_000001_000004.html" target="_top" xlink:title="17">
<text text-anchor="middle" x="239.922" y="-68.8366" font-family="Helvetica,sans-Serif" font-size="10.00">17</text>
</a>
</g>
</g>
</g>
</svg>
