<?xml version="1.0" encoding="UTF-8" standalone="no"?>
<!DOCTYPE svg PUBLIC "-//W3C//DTD SVG 1.1//EN"
 "http://www.w3.org/Graphics/SVG/1.1/DTD/svg11.dtd">
<!-- Generated by graphviz version 2.30.1 (20130221.2233)
 -->
<!-- Title: om Pages: 1 -->
<svg width="318pt" height="148pt"
 viewBox="0.00 0.00 318.00 148.00" xmlns="http://www.w3.org/2000/svg" xmlns:xlink="http://www.w3.org/1999/xlink">
<g id="graph0" class="graph" transform="scale(1 1) rotate(0) translate(4 144)">
<title>om</title>
<g id="clust1" class="cluster"><title>clusterdir_52de3a61b6586455d49c12d9f1bfddf4</title>
<g id="a_clust1"><a xlink:href="dir_52de3a61b6586455d49c12d9f1bfddf4.html" target="_top">
<polygon fill="#eeeeff" stroke="black" points="8,-8 8,-132 302,-132 302,-8 8,-8"/>
</a>
</g>
</g>
<!-- dir_52de3a61b6586455d49c12d9f1bfddf4 -->
<g id="node1" class="node"><title>dir_52de3a61b6586455d49c12d9f1bfddf4</title>
<text text-anchor="middle" x="157" y="-102" font-family="Helvetica,sans-Serif" font-size="10.00">om</text>
</g>
<!-- dir_12c6a16a9edb7528e3c06d667de293a3 -->
<g id="node5" class="node"><title>dir_12c6a16a9edb7528e3c06d667de293a3</title>
<g id="a_node5"><a xlink:href="dir_12c6a16a9edb7528e3c06d667de293a3.html" target="_top" xlink:title="symbols">
<polygon fill="white" stroke="black" points="70,-52 16,-52 16,-16 70,-16 70,-52"/>
<text text-anchor="middle" x="43" y="-30" font-family="Helvetica,sans-Serif" font-size="10.00">symbols</text>
</a>
</g>
</g>
<!-- dir_52de3a61b6586455d49c12d9f1bfddf4&#45;&gt;dir_12c6a16a9edb7528e3c06d667de293a3 -->
<g id="edge1" class="edge"><title>dir_52de3a61b6586455d49c12d9f1bfddf4&#45;&gt;dir_12c6a16a9edb7528e3c06d667de293a3</title>
<path fill="none" stroke="black" d="M129.984,-88.411C114.762,-79.0642 95.5515,-67.2684 79.0583,-57.1411"/>
<polygon fill="black" stroke="black" points="80.5707,-53.9626 70.2176,-51.7125 76.9078,-59.9278 80.5707,-53.9626"/>
<g id="a_edge1&#45;headlabel"><a xlink:href="dir_000000_000004.html" target="_top" xlink:title="9">
<text text-anchor="middle" x="85.1196" y="-49.4239" font-family="Helvetica,sans-Serif" font-size="10.00">9</text>
</a>
</g>
</g>
<!-- dir_05113c82256cb89f1dfc3ea665dbefa2 -->
<g id="node2" class="node"><title>dir_05113c82256cb89f1dfc3ea665dbefa2</title>
<g id="a_node2"><a xlink:href="dir_05113c82256cb89f1dfc3ea665dbefa2.html" target="_top" xlink:title="operations">
<polygon fill="white" stroke="black" points="150.026,-52 87.974,-52 87.974,-16 150.026,-16 150.026,-52"/>
<text text-anchor="middle" x="119" y="-30" font-family="Helvetica,sans-Serif" font-size="10.00">operations</text>
</a>
</g>
</g>
<!-- dir_52de3a61b6586455d49c12d9f1bfddf4&#45;&gt;dir_05113c82256cb89f1dfc3ea665dbefa2 -->
<g id="edge2" class="edge"><title>dir_52de3a61b6586455d49c12d9f1bfddf4&#45;&gt;dir_05113c82256cb89f1dfc3ea665dbefa2</title>
<path fill="none" stroke="black" d="M147.607,-87.6966C143.235,-79.6436 137.943,-69.8945 133.105,-60.9824"/>
<polygon fill="black" stroke="black" points="136.132,-59.223 128.285,-52.1043 129.98,-62.5627 136.132,-59.223"/>
<g id="a_edge2&#45;headlabel"><a xlink:href="dir_000000_000001.html" target="_top" xlink:title="1">
<text text-anchor="middle" x="140.342" y="-57.0276" font-family="Helvetica,sans-Serif" font-size="10.00">1</text>
</a>
</g>
</g>
<!-- dir_bf79172715e3765c9f5f99f7e3caff0d -->
<g id="node4" class="node"><title>dir_bf79172715e3765c9f5f99f7e3caff0d</title>
<g id="a_node4"><a xlink:href="dir_bf79172715e3765c9f5f99f7e3caff0d.html" target="_top" xlink:title="sources">
<polygon fill="white" stroke="black" points="222,-52 168,-52 168,-16 222,-16 222,-52"/>
<text text-anchor="middle" x="195" y="-30" font-family="Helvetica,sans-Serif" font-size="10.00">sources</text>
</a>
</g>
</g>
<!-- dir_52de3a61b6586455d49c12d9f1bfddf4&#45;&gt;dir_bf79172715e3765c9f5f99f7e3caff0d -->
<g id="edge3" class="edge"><title>dir_52de3a61b6586455d49c12d9f1bfddf4&#45;&gt;dir_bf79172715e3765c9f5f99f7e3caff0d</title>
<path fill="none" stroke="black" d="M166.393,-87.6966C170.765,-79.6436 176.057,-69.8945 180.895,-60.9824"/>
<polygon fill="black" stroke="black" points="184.02,-62.5627 185.715,-52.1043 177.868,-59.223 184.02,-62.5627"/>
<g id="a_edge3&#45;headlabel"><a xlink:href="dir_000000_000003.html" target="_top" xlink:title="10">
<text text-anchor="middle" x="184.8" y="-63.0764" font-family="Helvetica,sans-Serif" font-size="10.00">10</text>
</a>
</g>
</g>
<!-- dir_310c4e4206a95b11af3bb20553461fb2 -->
<g id="node3" class="node"><title>dir_310c4e4206a95b11af3bb20553461fb2</title>
<g id="a_node3"><a xlink:href="dir_310c4e4206a95b11af3bb20553461fb2.html" target="_top" xlink:title="sinks">
<polygon fill="white" stroke="black" points="294,-52 240,-52 240,-16 294,-16 294,-52"/>
<text text-anchor="middle" x="267" y="-30" font-family="Helvetica,sans-Serif" font-size="10.00">sinks</text>
</a>
</g>
</g>
<!-- dir_52de3a61b6586455d49c12d9f1bfddf4&#45;&gt;dir_310c4e4206a95b11af3bb20553461fb2 -->
<g id="edge4" class="edge"><title>dir_52de3a61b6586455d49c12d9f1bfddf4&#45;&gt;dir_310c4e4206a95b11af3bb20553461fb2</title>
<path fill="none" stroke="black" d="M183.909,-87.8761C198.158,-78.8083 215.846,-67.5523 231.236,-57.7592"/>
<polygon fill="black" stroke="black" points="233.43,-60.5114 239.988,-52.1898 229.672,-54.6057 233.43,-60.5114"/>
<g id="a_edge4&#45;headlabel"><a xlink:href="dir_000000_000002.html" target="_top" xlink:title="1">
<text text-anchor="middle" x="231.922" y="-60.8366" font-family="Helvetica,sans-Serif" font-size="10.00">1</text>
</a>
</g>
</g>
</g>
</svg>
