<?xml version="1.0" encoding="UTF-8" standalone="no"?>
<!DOCTYPE svg PUBLIC "-//W3C//DTD SVG 1.1//EN"
 "http://www.w3.org/Graphics/SVG/1.1/DTD/svg11.dtd">
<!-- Generated by graphviz version 2.30.1 (20130221.2233)
 -->
<!-- Title: om Pages: 1 -->
<svg width="238pt" height="148pt"
 viewBox="0.00 0.00 238.00 148.00" xmlns="http://www.w3.org/2000/svg" xmlns:xlink="http://www.w3.org/1999/xlink">
<g id="graph0" class="graph" transform="scale(1 1) rotate(0) translate(4 144)">
<title>om</title>
<g id="clust1" class="cluster"><title>clusterdir_52de3a61b6586455d49c12d9f1bfddf4</title>
<g id="a_clust1"><a xlink:href="dir_52de3a61b6586455d49c12d9f1bfddf4.html" target="_top">
<polygon fill="#eeeeff" stroke="black" points="8,-8 8,-132 222,-132 222,-8 8,-8"/>
</a>
</g>
</g>
<!-- dir_52de3a61b6586455d49c12d9f1bfddf4 -->
<g id="node1" class="node"><title>dir_52de3a61b6586455d49c12d9f1bfddf4</title>
<text text-anchor="middle" x="123" y="-102" font-family="Helvetica,sans-Serif" font-size="10.00">om</text>
</g>
<!-- dir_12c6a16a9edb7528e3c06d667de293a3 -->
<g id="node5" class="node"><title>dir_12c6a16a9edb7528e3c06d667de293a3</title>
<g id="a_node5"><a xlink:href="dir_12c6a16a9edb7528e3c06d667de293a3.html" target="_top" xlink:title="symbols">
<polygon fill="white" stroke="black" points="70,-52 16,-52 16,-16 70,-16 70,-52"/>
<text text-anchor="middle" x="43" y="-30" font-family="Helvetica,sans-Serif" font-size="10.00">symbols</text>
</a>
</g>
</g>
<!-- dir_52de3a61b6586455d49c12d9f1bfddf4&#45;&gt;dir_12c6a16a9edb7528e3c06d667de293a3 -->
<g id="edge1" class="edge"><title>dir_52de3a61b6586455d49c12d9f1bfddf4&#45;&gt;dir_12c6a16a9edb7528e3c06d667de293a3</title>
<path fill="none" stroke="black" d="M103.225,-87.6966C93.2463,-78.9655 80.9891,-68.2405 70.1432,-58.7503"/>
<polygon fill="black" stroke="black" points="72.3784,-56.0554 62.5478,-52.1043 67.7688,-61.3234 72.3784,-56.0554"/>
<g id="a_edge1&#45;headlabel"><a xlink:href="dir_000000_000004.html" target="_top" xlink:title="9">
<text text-anchor="middle" x="76.9532" y="-52.2857" font-family="Helvetica,sans-Serif" font-size="10.00">9</text>
</a>
</g>
</g>
<!-- dir_bf79172715e3765c9f5f99f7e3caff0d -->
<g id="node4" class="node"><title>dir_bf79172715e3765c9f5f99f7e3caff0d</title>
<g id="a_node4"><a xlink:href="dir_bf79172715e3765c9f5f99f7e3caff0d.html" target="_top" xlink:title="sources">
<polygon fill="white" stroke="black" points="142,-52 88,-52 88,-16 142,-16 142,-52"/>
<text text-anchor="middle" x="115" y="-30" font-family="Helvetica,sans-Serif" font-size="10.00">sources</text>
</a>
</g>
</g>
<!-- dir_52de3a61b6586455d49c12d9f1bfddf4&#45;&gt;dir_bf79172715e3765c9f5f99f7e3caff0d -->
<g id="edge2" class="edge"><title>dir_52de3a61b6586455d49c12d9f1bfddf4&#45;&gt;dir_bf79172715e3765c9f5f99f7e3caff0d</title>
<path fill="none" stroke="black" d="M121.022,-87.6966C120.141,-79.9827 119.081,-70.7125 118.099,-62.1124"/>
<polygon fill="black" stroke="black" points="121.568,-61.6422 116.955,-52.1043 114.613,-62.4371 121.568,-61.6422"/>
<g id="a_edge2&#45;headlabel"><a xlink:href="dir_000000_000003.html" target="_top" xlink:title="10">
<text text-anchor="middle" x="124.797" y="-60.8912" font-family="Helvetica,sans-Serif" font-size="10.00">10</text>
</a>
</g>
</g>
<!-- dir_310c4e4206a95b11af3bb20553461fb2 -->
<g id="node3" class="node"><title>dir_310c4e4206a95b11af3bb20553461fb2</title>
<g id="a_node3"><a xlink:href="dir_310c4e4206a95b11af3bb20553461fb2.html" target="_top" xlink:title="sinks">
<polygon fill="white" stroke="black" points="214,-52 160,-52 160,-16 214,-16 214,-52"/>
<text text-anchor="middle" x="187" y="-30" font-family="Helvetica,sans-Serif" font-size="10.00">sinks</text>
</a>
</g>
</g>
<!-- dir_52de3a61b6586455d49c12d9f1bfddf4&#45;&gt;dir_310c4e4206a95b11af3bb20553461fb2 -->
<g id="edge3" class="edge"><title>dir_52de3a61b6586455d49c12d9f1bfddf4&#45;&gt;dir_310c4e4206a95b11af3bb20553461fb2</title>
<path fill="none" stroke="black" d="M138.82,-87.6966C146.57,-79.2198 156.039,-68.8636 164.524,-59.5826"/>
<polygon fill="black" stroke="black" points="167.197,-61.8464 171.362,-52.1043 162.031,-57.1229 167.197,-61.8464"/>
<g id="a_edge3&#45;headlabel"><a xlink:href="dir_000000_000002.html" target="_top" xlink:title="1">
<text text-anchor="middle" x="166.867" y="-62.4151" font-family="Helvetica,sans-Serif" font-size="10.00">1</text>
</a>
</g>
</g>
<!-- dir_05113c82256cb89f1dfc3ea665dbefa2 -->
<g id="node2" class="node"><title>dir_05113c82256cb89f1dfc3ea665dbefa2</title>
<g id="a_node2"><a xlink:href="dir_05113c82256cb89f1dfc3ea665dbefa2.html" target="_top" xlink:title="operations">
<polygon fill="white" stroke="black" points="78.026,-124 15.974,-124 15.974,-88 78.026,-88 78.026,-124"/>
<text text-anchor="middle" x="47" y="-102" font-family="Helvetica,sans-Serif" font-size="10.00">operations</text>
</a>
</g>
</g>
</g>
</svg>
