<?xml version="1.0" encoding="UTF-8" standalone="no"?>
<!DOCTYPE svg PUBLIC "-//W3C//DTD SVG 1.1//EN"
 "http://www.w3.org/Graphics/SVG/1.1/DTD/svg11.dtd">
<!-- Generated by graphviz version 2.36.0 (20140111.2315)
 -->
<!-- Title: om Pages: 1 -->
<svg width="314pt" height="148pt"
 viewBox="0.00 0.00 314.00 148.00" xmlns="http://www.w3.org/2000/svg" xmlns:xlink="http://www.w3.org/1999/xlink">
<g id="graph0" class="graph" transform="scale(1 1) rotate(0) translate(4 144)">
<title>om</title>
<g id="clust1" class="cluster"><title>clusterdir_52de3a61b6586455d49c12d9f1bfddf4</title>
<g id="a_clust1"><a xlink:href="dir_52de3a61b6586455d49c12d9f1bfddf4.html" target="_top">
<polygon fill="#eeeeff" stroke="black" points="8,-8 8,-132 298,-132 298,-8 8,-8"/>
</a>
</g>
</g>
<!-- dir_52de3a61b6586455d49c12d9f1bfddf4 -->
<g id="node1" class="node"><title>dir_52de3a61b6586455d49c12d9f1bfddf4</title>
<text text-anchor="middle" x="155" y="-103" font-family="Helvetica,sans-Serif" font-size="10.00">om</text>
</g>
<!-- dir_c1bd2cf3c0421cfb7d8c78872dba1c9d -->
<g id="node2" class="node"><title>dir_c1bd2cf3c0421cfb7d8c78872dba1c9d</title>
<g id="a_node2"><a xlink:href="dir_c1bd2cf3c0421cfb7d8c78872dba1c9d.html" target="_top" xlink:title="operation">
<polygon fill="white" stroke="black" points="73.2774,-52 16.7226,-52 16.7226,-16 73.2774,-16 73.2774,-52"/>
<text text-anchor="middle" x="45" y="-31" font-family="Helvetica,sans-Serif" font-size="10.00">operation</text>
</a>
</g>
</g>
<!-- dir_52de3a61b6586455d49c12d9f1bfddf4&#45;&gt;dir_c1bd2cf3c0421cfb7d8c78872dba1c9d -->
<g id="edge2" class="edge"><title>dir_52de3a61b6586455d49c12d9f1bfddf4&#45;&gt;dir_c1bd2cf3c0421cfb7d8c78872dba1c9d</title>
<path fill="none" stroke="black" d="M128.091,-87.8761C113.842,-78.8083 96.1537,-67.5523 80.7644,-57.7592"/>
<polygon fill="black" stroke="black" points="82.3282,-54.6057 72.0125,-52.1898 78.57,-60.5114 82.3282,-54.6057"/>
<g id="a_edge2&#45;headlabel"><a xlink:href="dir_000000_000001.html" target="_top" xlink:title="1">
<text text-anchor="middle" x="86.8851" y="-51.1402" font-family="Helvetica,sans-Serif" font-size="10.00">1</text>
</a>
</g>
</g>
<!-- dir_439d743695d3885bc62142dd6279e2eb -->
<g id="node3" class="node"><title>dir_439d743695d3885bc62142dd6279e2eb</title>
<g id="a_node3"><a xlink:href="dir_439d743695d3885bc62142dd6279e2eb.html" target="_top" xlink:title="sink">
<polygon fill="white" stroke="black" points="146,-52 92,-52 92,-16 146,-16 146,-52"/>
<text text-anchor="middle" x="119" y="-31" font-family="Helvetica,sans-Serif" font-size="10.00">sink</text>
</a>
</g>
</g>
<!-- dir_52de3a61b6586455d49c12d9f1bfddf4&#45;&gt;dir_439d743695d3885bc62142dd6279e2eb -->
<g id="edge3" class="edge"><title>dir_52de3a61b6586455d49c12d9f1bfddf4&#45;&gt;dir_439d743695d3885bc62142dd6279e2eb</title>
<path fill="none" stroke="black" d="M146.101,-87.6966C142.003,-79.7284 137.051,-70.0995 132.507,-61.2641"/>
<polygon fill="black" stroke="black" points="135.483,-59.3965 127.797,-52.1043 129.258,-62.598 135.483,-59.3965"/>
<g id="a_edge3&#45;headlabel"><a xlink:href="dir_000000_000002.html" target="_top" xlink:title="2">
<text text-anchor="middle" x="139.651" y="-58.2946" font-family="Helvetica,sans-Serif" font-size="10.00">2</text>
</a>
</g>
</g>
<!-- dir_3da05fc2f9e811d796eaf7697d32c812 -->
<g id="node4" class="node"><title>dir_3da05fc2f9e811d796eaf7697d32c812</title>
<g id="a_node4"><a xlink:href="dir_3da05fc2f9e811d796eaf7697d32c812.html" target="_top" xlink:title="source">
<polygon fill="white" stroke="black" points="218,-52 164,-52 164,-16 218,-16 218,-52"/>
<text text-anchor="middle" x="191" y="-31" font-family="Helvetica,sans-Serif" font-size="10.00">source</text>
</a>
</g>
</g>
<!-- dir_52de3a61b6586455d49c12d9f1bfddf4&#45;&gt;dir_3da05fc2f9e811d796eaf7697d32c812 -->
<g id="edge4" class="edge"><title>dir_52de3a61b6586455d49c12d9f1bfddf4&#45;&gt;dir_3da05fc2f9e811d796eaf7697d32c812</title>
<path fill="none" stroke="black" d="M163.899,-87.6966C167.997,-79.7284 172.949,-70.0995 177.493,-61.2641"/>
<polygon fill="black" stroke="black" points="180.742,-62.598 182.203,-52.1043 174.517,-59.3965 180.742,-62.598"/>
<g id="a_edge4&#45;headlabel"><a xlink:href="dir_000000_000003.html" target="_top" xlink:title="11">
<text text-anchor="middle" x="181.623" y="-64.0931" font-family="Helvetica,sans-Serif" font-size="10.00">11</text>
</a>
</g>
</g>
<!-- dir_b4e662af6098093a4af9b0860fa95673 -->
<g id="node5" class="node"><title>dir_b4e662af6098093a4af9b0860fa95673</title>
<g id="a_node5"><a xlink:href="dir_b4e662af6098093a4af9b0860fa95673.html" target="_top" xlink:title="symbol">
<polygon fill="white" stroke="black" points="290,-52 236,-52 236,-16 290,-16 290,-52"/>
<text text-anchor="middle" x="263" y="-31" font-family="Helvetica,sans-Serif" font-size="10.00">symbol</text>
</a>
</g>
</g>
<!-- dir_52de3a61b6586455d49c12d9f1bfddf4&#45;&gt;dir_b4e662af6098093a4af9b0860fa95673 -->
<g id="edge1" class="edge"><title>dir_52de3a61b6586455d49c12d9f1bfddf4&#45;&gt;dir_b4e662af6098093a4af9b0860fa95673</title>
<path fill="none" stroke="black" d="M181.42,-87.8761C195.41,-78.8083 212.776,-67.5523 227.886,-57.7592"/>
<polygon fill="black" stroke="black" points="229.991,-60.5658 236.479,-52.1898 226.183,-54.6917 229.991,-60.5658"/>
<g id="a_edge1&#45;headlabel"><a xlink:href="dir_000000_000004.html" target="_top" xlink:title="9">
<text text-anchor="middle" x="228.519" y="-61.9034" font-family="Helvetica,sans-Serif" font-size="10.00">9</text>
</a>
</g>
</g>
</g>
</svg>
