<?xml version="1.0" encoding="UTF-8" standalone="no"?>
<!DOCTYPE svg PUBLIC "-//W3C//DTD SVG 1.1//EN"
 "http://www.w3.org/Graphics/SVG/1.1/DTD/svg11.dtd">
<!-- Generated by graphviz version 2.30.1 (20130221.2233)
 -->
<!-- Title: code/om Pages: 1 -->
<svg width="262pt" height="184pt"
 viewBox="0.00 0.00 262.00 184.00" xmlns="http://www.w3.org/2000/svg" xmlns:xlink="http://www.w3.org/1999/xlink">
<g id="graph0" class="graph" transform="scale(1 1) rotate(0) translate(4 180)">
<title>code/om</title>
<g id="clust1" class="cluster"><title>clusterdir_050edd66366d13764f98250ef6db77f6</title>
<g id="a_clust1"><a xlink:href="dir_050edd66366d13764f98250ef6db77f6.html" target="_top" xlink:title="code">
<polygon fill="#ddddee" stroke="black" points="8,-8 8,-168 246,-168 246,-8 8,-8"/>
<text text-anchor="middle" x="127" y="-154" font-family="Helvetica,sans-Serif" font-size="10.00">code</text>
</a>
</g>
</g>
<g id="clust2" class="cluster"><title>clusterdir_2888b303b266feb59cccd6b33866e185</title>
<g id="a_clust2"><a xlink:href="dir_2888b303b266feb59cccd6b33866e185.html" target="_top">
<polygon fill="#eeeeff" stroke="black" points="16,-16 16,-140 238,-140 238,-16 16,-16"/>
</a>
</g>
</g>
<!-- dir_2888b303b266feb59cccd6b33866e185 -->
<g id="node1" class="node"><title>dir_2888b303b266feb59cccd6b33866e185</title>
<text text-anchor="middle" x="203" y="-110" font-family="Helvetica,sans-Serif" font-size="10.00">om</text>
</g>
<!-- dir_db545f92ca582f606df8da713c150b58 -->
<g id="node5" class="node"><title>dir_db545f92ca582f606df8da713c150b58</title>
<g id="a_node5"><a xlink:href="dir_db545f92ca582f606df8da713c150b58.html" target="_top" xlink:title="symbols">
<polygon fill="white" stroke="black" points="158,-60 104,-60 104,-24 158,-24 158,-60"/>
<text text-anchor="middle" x="131" y="-38" font-family="Helvetica,sans-Serif" font-size="10.00">symbols</text>
</a>
</g>
</g>
<!-- dir_2888b303b266feb59cccd6b33866e185&#45;&gt;dir_db545f92ca582f606df8da713c150b58 -->
<g id="edge1" class="edge"><title>dir_2888b303b266feb59cccd6b33866e185&#45;&gt;dir_db545f92ca582f606df8da713c150b58</title>
<path fill="none" stroke="black" d="M185.202,-95.6966C176.396,-87.135 165.618,-76.6562 155.999,-67.3045"/>
<polygon fill="black" stroke="black" points="158.203,-64.5657 148.593,-60.1043 153.323,-69.5846 158.203,-64.5657"/>
<g id="a_edge1&#45;headlabel"><a xlink:href="dir_000001_000005.html" target="_top" xlink:title="4">
<text text-anchor="middle" x="162.759" y="-61.0356" font-family="Helvetica,sans-Serif" font-size="10.00">4</text>
</a>
</g>
</g>
<!-- dir_3cdadf879de167522f898c236c7974e8 -->
<g id="node4" class="node"><title>dir_3cdadf879de167522f898c236c7974e8</title>
<g id="a_node4"><a xlink:href="dir_3cdadf879de167522f898c236c7974e8.html" target="_top" xlink:title="sources">
<polygon fill="white" stroke="black" points="230,-60 176,-60 176,-24 230,-24 230,-60"/>
<text text-anchor="middle" x="203" y="-38" font-family="Helvetica,sans-Serif" font-size="10.00">sources</text>
</a>
</g>
</g>
<!-- dir_2888b303b266feb59cccd6b33866e185&#45;&gt;dir_3cdadf879de167522f898c236c7974e8 -->
<g id="edge2" class="edge"><title>dir_2888b303b266feb59cccd6b33866e185&#45;&gt;dir_3cdadf879de167522f898c236c7974e8</title>
<path fill="none" stroke="black" d="M203,-95.6966C203,-87.9827 203,-78.7125 203,-70.1124"/>
<polygon fill="black" stroke="black" points="206.5,-70.1043 203,-60.1043 199.5,-70.1044 206.5,-70.1043"/>
<g id="a_edge2&#45;headlabel"><a xlink:href="dir_000001_000004.html" target="_top" xlink:title="4">
<text text-anchor="middle" x="209.339" y="-69.699" font-family="Helvetica,sans-Serif" font-size="10.00">4</text>
</a>
</g>
</g>
<!-- dir_f701d43fd0805deab2391e327e0c4808 -->
<g id="node2" class="node"><title>dir_f701d43fd0805deab2391e327e0c4808</title>
<g id="a_node2"><a xlink:href="dir_f701d43fd0805deab2391e327e0c4808.html" target="_top" xlink:title="operations">
<polygon fill="white" stroke="black" points="158.026,-132 95.974,-132 95.974,-96 158.026,-96 158.026,-132"/>
<text text-anchor="middle" x="127" y="-110" font-family="Helvetica,sans-Serif" font-size="10.00">operations</text>
</a>
</g>
</g>
<!-- dir_b5b933c2d1b67dd78b5e74d41a748b07 -->
<g id="node3" class="node"><title>dir_b5b933c2d1b67dd78b5e74d41a748b07</title>
<g id="a_node3"><a xlink:href="dir_b5b933c2d1b67dd78b5e74d41a748b07.html" target="_top" xlink:title="sinks">
<polygon fill="white" stroke="black" points="78,-132 24,-132 24,-96 78,-96 78,-132"/>
<text text-anchor="middle" x="51" y="-110" font-family="Helvetica,sans-Serif" font-size="10.00">sinks</text>
</a>
</g>
</g>
</g>
</svg>
