<?xml version="1.0" encoding="UTF-8" standalone="no"?>
<!DOCTYPE svg PUBLIC "-//W3C//DTD SVG 1.1//EN"
 "http://www.w3.org/Graphics/SVG/1.1/DTD/svg11.dtd">
<!-- Generated by graphviz version 2.28.0 (20120817.0054)
 -->
<!-- Title: code/om/operations/do_operation.cpp Pages: 1 -->
<svg width="162pt" height="208pt"
 viewBox="0.00 0.00 162.00 208.00" xmlns="http://www.w3.org/2000/svg" xmlns:xlink="http://www.w3.org/1999/xlink">
<g id="graph1" class="graph" transform="scale(1 1) rotate(0) translate(4 204)">
<title>code/om/operations/do_operation.cpp</title>
<!-- Node1 -->
<g id="node1" class="node"><title>Node1</title>
<polygon fill="#bfbfbf" stroke="black" points="27,-169 27,-199 127,-199 127,-169 27,-169"/>
<text text-anchor="start" x="35" y="-187" font-family="Helvetica,sans-Serif" font-size="10.00">code/om/operations</text>
<text text-anchor="middle" x="77" y="-176" font-family="Helvetica,sans-Serif" font-size="10.00">/do_operation.cpp</text>
</g>
<!-- Node2 -->
<g id="node3" class="node"><title>Node2</title>
<a xlink:href="do__operation_8hpp.html" target="_top" xlink:title="Om hpp file.">
<polygon fill="none" stroke="black" points="0,-112.5 0,-131.5 154,-131.5 154,-112.5 0,-112.5"/>
<text text-anchor="middle" x="77" y="-119.5" font-family="Helvetica,sans-Serif" font-size="10.00">om/operations/do_operation.hpp</text>
</a>
</g>
<!-- Node1&#45;&gt;Node2 -->
<g id="edge2" class="edge"><title>Node1&#45;&gt;Node2</title>
<path fill="none" stroke="midnightblue" d="M71.1601,-168.781C70.1301,-160.691 69.9744,-150.462 70.6929,-141.725"/>
<polygon fill="midnightblue" stroke="midnightblue" points="74.1722,-142.115 72.0706,-131.731 67.2378,-141.159 74.1722,-142.115"/>
</g>
<!-- Node2&#45;&gt;Node1 -->
<g id="edge10" class="edge"><title>Node2&#45;&gt;Node1</title>
<path fill="none" stroke="midnightblue" d="M81.9294,-131.731C83.4347,-138.786 84.0066,-149.074 83.6449,-158.586"/>
<polygon fill="midnightblue" stroke="midnightblue" points="80.138,-158.536 82.8399,-168.781 87.1163,-159.087 80.138,-158.536"/>
</g>
<!-- Node3 -->
<g id="node5" class="node"><title>Node3</title>
<a xlink:href="definition_8hpp.html" target="_top" xlink:title="Om hpp file.">
<polygon fill="none" stroke="black" points="33.5,-56.5 33.5,-75.5 120.5,-75.5 120.5,-56.5 33.5,-56.5"/>
<text text-anchor="middle" x="77" y="-63.5" font-family="Helvetica,sans-Serif" font-size="10.00">om/definition.hpp</text>
</a>
</g>
<!-- Node2&#45;&gt;Node3 -->
<g id="edge4" class="edge"><title>Node2&#45;&gt;Node3</title>
<path fill="none" stroke="midnightblue" d="M77,-112.083C77,-105.006 77,-94.8611 77,-85.9865"/>
<polygon fill="midnightblue" stroke="midnightblue" points="80.5001,-85.751 77,-75.7511 73.5001,-85.7511 80.5001,-85.751"/>
</g>
<!-- Node4 -->
<g id="node7" class="node"><title>Node4</title>
<a xlink:href="definition_8cpp.html" target="_top" xlink:title="Om cpp file.">
<polygon fill="none" stroke="black" points="34,-0.5 34,-19.5 120,-19.5 120,-0.5 34,-0.5"/>
<text text-anchor="middle" x="77" y="-7.5" font-family="Helvetica,sans-Serif" font-size="10.00">om/definition.cpp</text>
</a>
</g>
<!-- Node3&#45;&gt;Node4 -->
<g id="edge6" class="edge"><title>Node3&#45;&gt;Node4</title>
<path fill="none" stroke="midnightblue" d="M71.8337,-56.083C70.3242,-48.9272 69.8938,-38.6353 70.5425,-29.6911"/>
<polygon fill="midnightblue" stroke="midnightblue" points="74.0154,-30.1262 71.869,-19.7511 67.0769,-29.2002 74.0154,-30.1262"/>
</g>
<!-- Node4&#45;&gt;Node3 -->
<g id="edge8" class="edge"><title>Node4&#45;&gt;Node3</title>
<path fill="none" stroke="midnightblue" d="M82.131,-19.7511C83.6573,-26.8579 84.1044,-37.1357 83.4724,-46.1005"/>
<polygon fill="midnightblue" stroke="midnightblue" points="79.9933,-45.7134 82.1663,-56.083 86.9342,-46.6216 79.9933,-45.7134"/>
</g>
</g>
</svg>
