<?xml version="1.0" encoding="UTF-8" standalone="no"?>
<!DOCTYPE svg PUBLIC "-//W3C//DTD SVG 1.1//EN"
 "http://www.w3.org/Graphics/SVG/1.1/DTD/svg11.dtd">
<!-- Generated by graphviz version 2.30.1 (20130221.2233)
 -->
<!-- Title: code/om/operations/do_operation.cpp Pages: 1 -->
<svg width="166pt" height="216pt"
 viewBox="0.00 0.00 166.00 216.00" xmlns="http://www.w3.org/2000/svg" xmlns:xlink="http://www.w3.org/1999/xlink">
<g id="graph0" class="graph" transform="scale(1 1) rotate(0) translate(4 212)">
<title>code/om/operations/do_operation.cpp</title>
<!-- Node1 -->
<g id="node1" class="node"><title>Node1</title>
<polygon fill="#bfbfbf" stroke="black" points="27.084,-175 27.084,-207 130.916,-207 130.916,-175 27.084,-175"/>
<text text-anchor="start" x="35.084" y="-193" font-family="Helvetica,sans-Serif" font-size="10.00">code/om/operations</text>
<text text-anchor="middle" x="79" y="-181" font-family="Helvetica,sans-Serif" font-size="10.00">/do_operation.cpp</text>
</g>
<!-- Node2 -->
<g id="node2" class="node"><title>Node2</title>
<g id="a_node2"><a xlink:href="do__operation_8hpp.html" target="_top" xlink:title="Om header file.">
<polygon fill="none" stroke="black" points="-0.99707,-117 -0.99707,-137 158.997,-137 158.997,-117 -0.99707,-117"/>
<text text-anchor="middle" x="79" y="-123" font-family="Helvetica,sans-Serif" font-size="10.00">om/operations/do_operation.hpp</text>
</a>
</g>
</g>
<!-- Node1&#45;&gt;Node2 -->
<g id="edge1" class="edge"><title>Node1&#45;&gt;Node2</title>
<path fill="none" stroke="midnightblue" d="M73.1218,-174.992C72.1315,-166.726 71.9849,-156.373 72.6819,-147.489"/>
<polygon fill="midnightblue" stroke="midnightblue" points="76.1892,-147.66 74.0158,-137.29 69.2484,-146.752 76.1892,-147.66"/>
</g>
<!-- Node3 -->
<g id="node3" class="node"><title>Node3</title>
<g id="a_node3"><a xlink:href="definition_8hpp.html" target="_top" xlink:title="Om header file.">
<polygon fill="none" stroke="black" points="32.9189,-59 32.9189,-79 125.081,-79 125.081,-59 32.9189,-59"/>
<text text-anchor="middle" x="79" y="-65" font-family="Helvetica,sans-Serif" font-size="10.00">om/definition.hpp</text>
</a>
</g>
</g>
<!-- Node2&#45;&gt;Node3 -->
<g id="edge2" class="edge"><title>Node2&#45;&gt;Node3</title>
<path fill="none" stroke="midnightblue" d="M79,-116.753C79,-109.25 79,-98.4238 79,-89.0781"/>
<polygon fill="midnightblue" stroke="midnightblue" points="82.5001,-89.0752 79,-79.0752 75.5001,-89.0752 82.5001,-89.0752"/>
</g>
<!-- Node2&#45;&gt;Node1 -->
<g id="edge5" class="edge"><title>Node2&#45;&gt;Node1</title>
<path fill="none" stroke="midnightblue" d="M83.9842,-137.29C85.4561,-144.61 86.0078,-155.172 85.6393,-164.922"/>
<polygon fill="midnightblue" stroke="midnightblue" points="82.142,-164.756 84.8782,-174.992 89.122,-165.284 82.142,-164.756"/>
</g>
<!-- Node4 -->
<g id="node4" class="node"><title>Node4</title>
<g id="a_node4"><a xlink:href="definition_8cpp.html" target="_top" xlink:title="Om source file.">
<polygon fill="none" stroke="black" points="33.1997,-1 33.1997,-21 124.8,-21 124.8,-1 33.1997,-1"/>
<text text-anchor="middle" x="79" y="-7" font-family="Helvetica,sans-Serif" font-size="10.00">om/definition.cpp</text>
</a>
</g>
</g>
<!-- Node3&#45;&gt;Node4 -->
<g id="edge3" class="edge"><title>Node3&#45;&gt;Node4</title>
<path fill="none" stroke="midnightblue" d="M73.8337,-58.7527C72.3076,-51.2504 71.8844,-40.4238 72.5643,-31.0781"/>
<polygon fill="midnightblue" stroke="midnightblue" points="76.0461,-31.4439 73.869,-21.0752 69.1049,-30.5385 76.0461,-31.4439"/>
</g>
<!-- Node4&#45;&gt;Node3 -->
<g id="edge4" class="edge"><title>Node4&#45;&gt;Node3</title>
<path fill="none" stroke="midnightblue" d="M84.131,-21.0752C85.674,-28.5262 86.1141,-39.3384 85.4512,-48.7065"/>
<polygon fill="midnightblue" stroke="midnightblue" points="81.9633,-48.3895 84.1663,-58.7527 88.9067,-49.2776 81.9633,-48.3895"/>
</g>
</g>
</svg>
