<?xml version="1.0" encoding="UTF-8" standalone="no"?>
<!DOCTYPE svg PUBLIC "-//W3C//DTD SVG 1.1//EN"
 "http://www.w3.org/Graphics/SVG/1.1/DTD/svg11.dtd">
<!-- Generated by graphviz version 2.30.1 (20130221.2233)
 -->
<!-- Title: om/operations/do_operation.cpp Pages: 1 -->
<svg width="166pt" height="88pt"
 viewBox="0.00 0.00 166.00 88.00" xmlns="http://www.w3.org/2000/svg" xmlns:xlink="http://www.w3.org/1999/xlink">
<g id="graph0" class="graph" transform="scale(1 1) rotate(0) translate(4 84)">
<title>om/operations/do_operation.cpp</title>
<!-- Node1 -->
<g id="node1" class="node"><title>Node1</title>
<polygon fill="#bfbfbf" stroke="black" points="-0.716309,-59 -0.716309,-79 158.716,-79 158.716,-59 -0.716309,-59"/>
<text text-anchor="middle" x="79" y="-65" font-family="Helvetica,sans-Serif" font-size="10.00">om/operations/do_operation.cpp</text>
</g>
<!-- Node2 -->
<g id="node2" class="node"><title>Node2</title>
<g id="a_node2"><a xlink:href="do__operation_8hpp.html" target="_top" xlink:title="Om header file. ">
<polygon fill="none" stroke="black" points="-0.99707,-1 -0.99707,-21 158.997,-21 158.997,-1 -0.99707,-1"/>
<text text-anchor="middle" x="79" y="-7" font-family="Helvetica,sans-Serif" font-size="10.00">om/operations/do_operation.hpp</text>
</a>
</g>
</g>
<!-- Node1&#45;&gt;Node2 -->
<g id="edge1" class="edge"><title>Node1&#45;&gt;Node2</title>
<path fill="none" stroke="midnightblue" d="M72.5488,-48.7065C71.8859,-39.3384 72.326,-28.5262 73.869,-21.0752"/>
<polygon fill="midnightblue" stroke="midnightblue" points="69.0933,-49.2776 73.8337,-58.7527 76.0367,-48.3895 69.0933,-49.2776"/>
</g>
<!-- Node2&#45;&gt;Node1 -->
<g id="edge2" class="edge"><title>Node2&#45;&gt;Node1</title>
<path fill="none" stroke="midnightblue" d="M85.4357,-31.0781C86.1156,-40.4238 85.6924,-51.2504 84.1663,-58.7527"/>
<polygon fill="midnightblue" stroke="midnightblue" points="88.8951,-30.5385 84.131,-21.0752 81.9539,-31.4439 88.8951,-30.5385"/>
</g>
</g>
</svg>
