<?xml version="1.0" encoding="UTF-8" standalone="no"?>
<!DOCTYPE svg PUBLIC "-//W3C//DTD SVG 1.1//EN"
 "http://www.w3.org/Graphics/SVG/1.1/DTD/svg11.dtd">
<!-- Generated by graphviz version 2.30.1 (20130221.2233)
 -->
<!-- Title: code/om/operations/drop_operation.hpp Pages: 1 -->
<svg width="112pt" height="112pt"
 viewBox="0.00 0.00 112.00 112.00" xmlns="http://www.w3.org/2000/svg" xmlns:xlink="http://www.w3.org/1999/xlink">
<g id="graph0" class="graph" transform="scale(1 1) rotate(0) translate(4 108)">
<title>code/om/operations/drop_operation.hpp</title>
<!-- Node1 -->
<g id="node1" class="node"><title>Node1</title>
<polygon fill="#bfbfbf" stroke="black" points="-0.758301,-71 -0.758301,-103 104.758,-103 104.758,-71 -0.758301,-71"/>
<text text-anchor="start" x="7.2417" y="-89" font-family="Helvetica,sans-Serif" font-size="10.00">code/om/operations</text>
<text text-anchor="middle" x="52" y="-77" font-family="Helvetica,sans-Serif" font-size="10.00">/drop_operation.hpp</text>
</g>
<!-- Node2 -->
<g id="node2" class="node"><title>Node2</title>
<g id="a_node2"><a xlink:href="drop__operation_8cpp.html" target="_top" xlink:title="Om source file.">
<polygon fill="none" stroke="black" points="-0.477539,-1 -0.477539,-33 104.478,-33 104.478,-1 -0.477539,-1"/>
<text text-anchor="start" x="7.52246" y="-19" font-family="Helvetica,sans-Serif" font-size="10.00">code/om/operations</text>
<text text-anchor="middle" x="52" y="-7" font-family="Helvetica,sans-Serif" font-size="10.00">/drop_operation.cpp</text>
</a>
</g>
</g>
<!-- Node1&#45;&gt;Node2 -->
<g id="edge1" class="edge"><title>Node1&#45;&gt;Node2</title>
<path fill="none" stroke="midnightblue" d="M45.4608,-60.9196C45.0088,-51.5597 45.2836,-41.2293 46.2851,-33.0492"/>
<polygon fill="midnightblue" stroke="midnightblue" points="41.9743,-61.2281 46.28,-70.9086 48.9509,-60.656 41.9743,-61.2281"/>
</g>
<!-- Node2&#45;&gt;Node1 -->
<g id="edge2" class="edge"><title>Node2&#45;&gt;Node1</title>
<path fill="none" stroke="midnightblue" d="M58.5368,-43.0321C58.9913,-52.3887 58.7191,-62.7211 57.72,-70.9086"/>
<polygon fill="midnightblue" stroke="midnightblue" points="62.0237,-42.7283 57.7149,-33.0492 55.0474,-43.3027 62.0237,-42.7283"/>
</g>
</g>
</svg>
