<?xml version="1.0" encoding="UTF-8" standalone="no"?>
<!DOCTYPE svg PUBLIC "-//W3C//DTD SVG 1.1//EN"
 "http://www.w3.org/Graphics/SVG/1.1/DTD/svg11.dtd">
<!-- Generated by graphviz version 2.30.1 (20130221.2233)
 -->
<!-- Title: om/sources/empty_source.cpp Pages: 1 -->
<svg width="253pt" height="344pt"
 viewBox="0.00 0.00 253.00 344.00" xmlns="http://www.w3.org/2000/svg" xmlns:xlink="http://www.w3.org/1999/xlink">
<g id="graph0" class="graph" transform="scale(1 1) rotate(0) translate(4 340)">
<title>om/sources/empty_source.cpp</title>
<!-- Node1 -->
<g id="node1" class="node"><title>Node1</title>
<polygon fill="#bfbfbf" stroke="black" points="92.9141,-315 92.9141,-335 245.086,-335 245.086,-315 92.9141,-315"/>
<text text-anchor="middle" x="169" y="-321" font-family="Helvetica,sans-Serif" font-size="10.00">om/sources/empty_source.cpp</text>
</g>
<!-- Node2 -->
<g id="node2" class="node"><title>Node2</title>
<g id="a_node2"><a xlink:href="empty__source_8hpp.html" target="_top" xlink:title="Om header file.">
<polygon fill="none" stroke="black" points="92.6333,-257 92.6333,-277 245.367,-277 245.367,-257 92.6333,-257"/>
<text text-anchor="middle" x="169" y="-263" font-family="Helvetica,sans-Serif" font-size="10.00">om/sources/empty_source.hpp</text>
</a>
</g>
</g>
<!-- Node1&#45;&gt;Node2 -->
<g id="edge1" class="edge"><title>Node1&#45;&gt;Node2</title>
<path fill="none" stroke="midnightblue" d="M163.834,-314.753C162.308,-307.25 161.884,-296.424 162.564,-287.078"/>
<polygon fill="midnightblue" stroke="midnightblue" points="166.046,-287.444 163.869,-277.075 159.105,-286.538 166.046,-287.444"/>
</g>
<!-- Node3 -->
<g id="node3" class="node"><title>Node3</title>
<g id="a_node3"><a xlink:href="default__source_8hpp.html" target="_top" xlink:title="Om header file.">
<polygon fill="none" stroke="black" points="118.756,-187 118.756,-219 219.244,-219 219.244,-187 118.756,-187"/>
<text text-anchor="start" x="126.756" y="-205" font-family="Helvetica,sans-Serif" font-size="10.00">om/sources/default</text>
<text text-anchor="middle" x="169" y="-193" font-family="Helvetica,sans-Serif" font-size="10.00">_source.hpp</text>
</a>
</g>
</g>
<!-- Node2&#45;&gt;Node3 -->
<g id="edge2" class="edge"><title>Node2&#45;&gt;Node3</title>
<path fill="none" stroke="midnightblue" d="M169,-256.852C169,-249.629 169,-239.185 169,-229.486"/>
<polygon fill="midnightblue" stroke="midnightblue" points="172.5,-229.44 169,-219.44 165.5,-229.44 172.5,-229.44"/>
</g>
<!-- Node2&#45;&gt;Node1 -->
<g id="edge10" class="edge"><title>Node2&#45;&gt;Node1</title>
<path fill="none" stroke="midnightblue" d="M174.131,-277.075C175.674,-284.526 176.114,-295.338 175.451,-304.707"/>
<polygon fill="midnightblue" stroke="midnightblue" points="171.963,-304.389 174.166,-314.753 178.907,-305.278 171.963,-304.389"/>
</g>
<!-- Node4 -->
<g id="node4" class="node"><title>Node4</title>
<g id="a_node4"><a xlink:href="source_8hpp.html" target="_top" xlink:title="Om header file.">
<polygon fill="none" stroke="black" points="18.9263,-123 18.9263,-143 101.074,-143 101.074,-123 18.9263,-123"/>
<text text-anchor="middle" x="60" y="-129" font-family="Helvetica,sans-Serif" font-size="10.00">om/source.hpp</text>
</a>
</g>
</g>
<!-- Node3&#45;&gt;Node4 -->
<g id="edge3" class="edge"><title>Node3&#45;&gt;Node4</title>
<path fill="none" stroke="midnightblue" d="M144.809,-186.909C126.437,-175.447 101.325,-159.781 83.2006,-148.474"/>
<polygon fill="midnightblue" stroke="midnightblue" points="84.7691,-145.327 74.4322,-143.004 81.064,-151.266 84.7691,-145.327"/>
</g>
<!-- Node8 -->
<g id="node8" class="node"><title>Node8</title>
<g id="a_node8"><a xlink:href="default__source_8cpp.html" target="_top" xlink:title="Om source file.">
<polygon fill="none" stroke="black" points="118.756,-117 118.756,-149 219.244,-149 219.244,-117 118.756,-117"/>
<text text-anchor="start" x="126.756" y="-135" font-family="Helvetica,sans-Serif" font-size="10.00">om/sources/default</text>
<text text-anchor="middle" x="169" y="-123" font-family="Helvetica,sans-Serif" font-size="10.00">_source.cpp</text>
</a>
</g>
</g>
<!-- Node3&#45;&gt;Node8 -->
<g id="edge8" class="edge"><title>Node3&#45;&gt;Node8</title>
<path fill="none" stroke="midnightblue" d="M163.28,-186.909C162.281,-178.721 162.009,-168.389 162.463,-159.032"/>
<polygon fill="midnightblue" stroke="midnightblue" points="165.953,-159.303 163.285,-149.049 158.976,-158.728 165.953,-159.303"/>
</g>
<!-- Node5 -->
<g id="node5" class="node"><title>Node5</title>
<g id="a_node5"><a xlink:href="source_8cpp.html" target="_top" xlink:title="Om source file.">
<polygon fill="none" stroke="black" points="19.207,-59 19.207,-79 100.793,-79 100.793,-59 19.207,-59"/>
<text text-anchor="middle" x="60" y="-65" font-family="Helvetica,sans-Serif" font-size="10.00">om/source.cpp</text>
</a>
</g>
</g>
<!-- Node4&#45;&gt;Node5 -->
<g id="edge4" class="edge"><title>Node4&#45;&gt;Node5</title>
<path fill="none" stroke="midnightblue" d="M55.0446,-122.852C53.2519,-114.06 52.8023,-100.498 53.6958,-89.3131"/>
<polygon fill="midnightblue" stroke="midnightblue" points="57.1937,-89.5588 55.037,-79.1858 50.2543,-88.6398 57.1937,-89.5588"/>
</g>
<!-- Node6 -->
<g id="node6" class="node"><title>Node6</title>
<polygon fill="none" stroke="#bfbfbf" points="-0.115723,-1 -0.115723,-21 48.1157,-21 48.1157,-1 -0.115723,-1"/>
<text text-anchor="middle" x="24" y="-7" font-family="Helvetica,sans-Serif" font-size="10.00">cassert</text>
</g>
<!-- Node5&#45;&gt;Node6 -->
<g id="edge5" class="edge"><title>Node5&#45;&gt;Node6</title>
<path fill="none" stroke="midnightblue" d="M54.0553,-58.7527C48.9703,-50.8427 41.5096,-39.2372 35.2939,-29.5683"/>
<polygon fill="midnightblue" stroke="midnightblue" points="38.1858,-27.5943 29.8341,-21.0752 32.2975,-31.3797 38.1858,-27.5943"/>
</g>
<!-- Node7 -->
<g id="node7" class="node"><title>Node7</title>
<polygon fill="none" stroke="#bfbfbf" points="66.5986,-1 66.5986,-21 125.401,-21 125.401,-1 66.5986,-1"/>
<text text-anchor="middle" x="96" y="-7" font-family="Helvetica,sans-Serif" font-size="10.00">stdexcept</text>
</g>
<!-- Node5&#45;&gt;Node7 -->
<g id="edge6" class="edge"><title>Node5&#45;&gt;Node7</title>
<path fill="none" stroke="midnightblue" d="M65.9447,-58.7527C71.0297,-50.8427 78.4904,-39.2372 84.7061,-29.5683"/>
<polygon fill="midnightblue" stroke="midnightblue" points="87.7025,-31.3797 90.1659,-21.0752 81.8142,-27.5943 87.7025,-31.3797"/>
</g>
<!-- Node5&#45;&gt;Node4 -->
<g id="edge7" class="edge"><title>Node5&#45;&gt;Node4</title>
<path fill="none" stroke="midnightblue" d="M64.963,-79.1858C66.7519,-87.991 67.1977,-101.557 66.3004,-112.735"/>
<polygon fill="midnightblue" stroke="midnightblue" points="62.8038,-112.478 64.9554,-122.852 69.7428,-113.4 62.8038,-112.478"/>
</g>
<!-- Node8&#45;&gt;Node3 -->
<g id="edge9" class="edge"><title>Node8&#45;&gt;Node3</title>
<path fill="none" stroke="midnightblue" d="M174.715,-149.049C175.716,-157.229 175.991,-167.56 175.539,-176.92"/>
<polygon fill="midnightblue" stroke="midnightblue" points="172.049,-176.656 174.72,-186.909 179.026,-177.228 172.049,-176.656"/>
</g>
</g>
</svg>
