<?xml version="1.0" encoding="UTF-8" standalone="no"?>
<!DOCTYPE svg PUBLIC "-//W3C//DTD SVG 1.1//EN"
 "http://www.w3.org/Graphics/SVG/1.1/DTD/svg11.dtd">
<!-- Generated by graphviz version 2.30.1 (20130221.2233)
 -->
<!-- Title: om/operation/environment_operation.cpp Pages: 1 -->
<svg width="140pt" height="112pt"
 viewBox="0.00 0.00 140.00 112.00" xmlns="http://www.w3.org/2000/svg" xmlns:xlink="http://www.w3.org/1999/xlink">
<g id="graph0" class="graph" transform="scale(1 1) rotate(0) translate(4 108)">
<title>om/operation/environment_operation.cpp</title>
<!-- Node1 -->
<g id="node1" class="node"><title>Node1</title>
<polygon fill="#bfbfbf" stroke="black" points="-0.0883789,-71 -0.0883789,-103 132.088,-103 132.088,-71 -0.0883789,-71"/>
<text text-anchor="start" x="7.91162" y="-89" font-family="Helvetica,sans-Serif" font-size="10.00">om/operation/environment</text>
<text text-anchor="middle" x="66" y="-77" font-family="Helvetica,sans-Serif" font-size="10.00">_operation.cpp</text>
</g>
<!-- Node2 -->
<g id="node2" class="node"><title>Node2</title>
<g id="a_node2"><a xlink:href="environment__operation_8hpp.html" target="_top" xlink:title="Om header file. ">
<polygon fill="none" stroke="black" points="-0.0883789,-1 -0.0883789,-33 132.088,-33 132.088,-1 -0.0883789,-1"/>
<text text-anchor="start" x="7.91162" y="-19" font-family="Helvetica,sans-Serif" font-size="10.00">om/operation/environment</text>
<text text-anchor="middle" x="66" y="-7" font-family="Helvetica,sans-Serif" font-size="10.00">_operation.hpp</text>
</a>
</g>
</g>
<!-- Node1&#45;&gt;Node2 -->
<g id="edge1" class="edge"><title>Node1&#45;&gt;Node2</title>
<path fill="none" stroke="midnightblue" d="M59.4608,-60.9196C59.0088,-51.5597 59.2836,-41.2293 60.2851,-33.0492"/>
<polygon fill="midnightblue" stroke="midnightblue" points="55.9743,-61.2281 60.28,-70.9086 62.9509,-60.656 55.9743,-61.2281"/>
</g>
<!-- Node2&#45;&gt;Node1 -->
<g id="edge2" class="edge"><title>Node2&#45;&gt;Node1</title>
<path fill="none" stroke="midnightblue" d="M72.5368,-43.0321C72.9913,-52.3887 72.7191,-62.7211 71.72,-70.9086"/>
<polygon fill="midnightblue" stroke="midnightblue" points="76.0237,-42.7283 71.7149,-33.0492 69.0474,-43.3027 76.0237,-42.7283"/>
</g>
</g>
</svg>
