<?xml version="1.0" encoding="UTF-8" standalone="no"?>
<!DOCTYPE svg PUBLIC "-//W3C//DTD SVG 1.1//EN"
 "http://www.w3.org/Graphics/SVG/1.1/DTD/svg11.dtd">
<!-- Generated by graphviz version 2.28.0 (20120817.0054)
 -->
<!-- Title: code/om/environment.hpp Pages: 1 -->
<svg width="499pt" height="252pt"
 viewBox="0.00 0.00 499.00 252.00" xmlns="http://www.w3.org/2000/svg" xmlns:xlink="http://www.w3.org/1999/xlink">
<g id="graph1" class="graph" transform="scale(1 1) rotate(0) translate(4 248)">
<title>code/om/environment.hpp</title>
<!-- Node1 -->
<g id="node1" class="node"><title>Node1</title>
<polygon fill="#bfbfbf" stroke="black" points="366.5,-224.5 366.5,-243.5 491.5,-243.5 491.5,-224.5 366.5,-224.5"/>
<text text-anchor="middle" x="429" y="-231.5" font-family="Helvetica,sans-Serif" font-size="10.00">code/om/environment.hpp</text>
</g>
<!-- Node2 -->
<g id="node3" class="node"><title>Node2</title>
<a xlink:href="translator_8hpp.html" target="_top" xlink:title="Om hpp file.">
<polygon fill="none" stroke="black" points="270,-168.5 270,-187.5 360,-187.5 360,-168.5 270,-168.5"/>
<text text-anchor="middle" x="315" y="-175.5" font-family="Helvetica,sans-Serif" font-size="10.00">om/translator.hpp</text>
</a>
</g>
<!-- Node1&#45;&gt;Node2 -->
<g id="edge2" class="edge"><title>Node1&#45;&gt;Node2</title>
<path fill="none" stroke="midnightblue" d="M410.936,-224.444C392.425,-215.675 363.419,-201.935 342.145,-191.858"/>
<polygon fill="midnightblue" stroke="midnightblue" points="343.515,-188.634 332.979,-187.516 340.518,-194.96 343.515,-188.634"/>
</g>
<!-- Node10 -->
<g id="node23" class="node"><title>Node10</title>
<a xlink:href="environment_8cpp.html" target="_top" xlink:title="Om cpp file.">
<polygon fill="none" stroke="black" points="378.5,-168.5 378.5,-187.5 479.5,-187.5 479.5,-168.5 378.5,-168.5"/>
<text text-anchor="middle" x="429" y="-175.5" font-family="Helvetica,sans-Serif" font-size="10.00">om/environment.cpp</text>
</a>
</g>
<!-- Node1&#45;&gt;Node10 -->
<g id="edge26" class="edge"><title>Node1&#45;&gt;Node10</title>
<path fill="none" stroke="midnightblue" d="M423.834,-224.083C422.324,-216.927 421.894,-206.635 422.542,-197.691"/>
<polygon fill="midnightblue" stroke="midnightblue" points="426.015,-198.126 423.869,-187.751 419.077,-197.2 426.015,-198.126"/>
</g>
<!-- Node3 -->
<g id="node5" class="node"><title>Node3</title>
<a xlink:href="default__sink_8hpp.html" target="_top" xlink:title="Om hpp file.">
<polygon fill="none" stroke="black" points="86,-112.5 86,-131.5 212,-131.5 212,-112.5 86,-112.5"/>
<text text-anchor="middle" x="149" y="-119.5" font-family="Helvetica,sans-Serif" font-size="10.00">om/sinks/default_sink.hpp</text>
</a>
</g>
<!-- Node2&#45;&gt;Node3 -->
<g id="edge4" class="edge"><title>Node2&#45;&gt;Node3</title>
<path fill="none" stroke="midnightblue" d="M288.697,-168.444C260.649,-159.32 216.056,-144.813 184.816,-134.651"/>
<polygon fill="midnightblue" stroke="midnightblue" points="185.772,-131.282 175.18,-131.516 183.607,-137.938 185.772,-131.282"/>
</g>
<!-- Node7 -->
<g id="node15" class="node"><title>Node7</title>
<a xlink:href="taker_8hpp.html" target="_top" xlink:title="Om hpp file.">
<polygon fill="none" stroke="black" points="230,-112.5 230,-131.5 302,-131.5 302,-112.5 230,-112.5"/>
<text text-anchor="middle" x="266" y="-119.5" font-family="Helvetica,sans-Serif" font-size="10.00">om/taker.hpp</text>
</a>
</g>
<!-- Node2&#45;&gt;Node7 -->
<g id="edge16" class="edge"><title>Node2&#45;&gt;Node7</title>
<path fill="none" stroke="midnightblue" d="M306.909,-168.083C299.845,-160.298 289.412,-148.801 280.851,-139.367"/>
<polygon fill="midnightblue" stroke="midnightblue" points="283.253,-136.805 273.941,-131.751 278.069,-141.509 283.253,-136.805"/>
</g>
<!-- Node9 -->
<g id="node20" class="node"><title>Node9</title>
<a xlink:href="translator_8cpp.html" target="_top" xlink:title="Om cpp file.">
<polygon fill="none" stroke="black" points="320.5,-112.5 320.5,-131.5 409.5,-131.5 409.5,-112.5 320.5,-112.5"/>
<text text-anchor="middle" x="365" y="-119.5" font-family="Helvetica,sans-Serif" font-size="10.00">om/translator.cpp</text>
</a>
</g>
<!-- Node2&#45;&gt;Node9 -->
<g id="edge22" class="edge"><title>Node2&#45;&gt;Node9</title>
<path fill="none" stroke="midnightblue" d="M318.09,-168.083C323.769,-160.141 334.353,-148.335 344.168,-138.797"/>
<polygon fill="midnightblue" stroke="midnightblue" points="346.814,-141.117 351.766,-131.751 342.054,-135.985 346.814,-141.117"/>
</g>
<!-- Node4 -->
<g id="node7" class="node"><title>Node4</title>
<a xlink:href="sink_8hpp.html" target="_top" xlink:title="Om hpp file.">
<polygon fill="none" stroke="black" points="0,-56.5 0,-75.5 68,-75.5 68,-56.5 0,-56.5"/>
<text text-anchor="middle" x="34" y="-63.5" font-family="Helvetica,sans-Serif" font-size="10.00">om/sink.hpp</text>
</a>
</g>
<!-- Node3&#45;&gt;Node4 -->
<g id="edge6" class="edge"><title>Node3&#45;&gt;Node4</title>
<path fill="none" stroke="midnightblue" d="M130.778,-112.444C112.104,-103.675 82.844,-89.9355 61.3826,-79.8579"/>
<polygon fill="midnightblue" stroke="midnightblue" points="62.6763,-76.5988 52.1368,-75.5164 59.7009,-82.935 62.6763,-76.5988"/>
</g>
<!-- Node6 -->
<g id="node12" class="node"><title>Node6</title>
<a xlink:href="default__sink_8cpp.html" target="_top" xlink:title="Om cpp file.">
<polygon fill="none" stroke="black" points="86.5,-56.5 86.5,-75.5 211.5,-75.5 211.5,-56.5 86.5,-56.5"/>
<text text-anchor="middle" x="149" y="-63.5" font-family="Helvetica,sans-Serif" font-size="10.00">om/sinks/default_sink.cpp</text>
</a>
</g>
<!-- Node3&#45;&gt;Node6 -->
<g id="edge12" class="edge"><title>Node3&#45;&gt;Node6</title>
<path fill="none" stroke="midnightblue" d="M143.834,-112.083C142.324,-104.927 141.894,-94.6353 142.542,-85.6911"/>
<polygon fill="midnightblue" stroke="midnightblue" points="146.015,-86.1262 143.869,-75.7511 139.077,-85.2002 146.015,-86.1262"/>
</g>
<!-- Node5 -->
<g id="node9" class="node"><title>Node5</title>
<a xlink:href="sink_8cpp.html" target="_top" xlink:title="Om cpp file.">
<polygon fill="none" stroke="black" points="0,-0.5 0,-19.5 68,-19.5 68,-0.5 0,-0.5"/>
<text text-anchor="middle" x="34" y="-7.5" font-family="Helvetica,sans-Serif" font-size="10.00">om/sink.cpp</text>
</a>
</g>
<!-- Node4&#45;&gt;Node5 -->
<g id="edge8" class="edge"><title>Node4&#45;&gt;Node5</title>
<path fill="none" stroke="midnightblue" d="M28.8337,-56.083C27.3242,-48.9272 26.8938,-38.6353 27.5425,-29.6911"/>
<polygon fill="midnightblue" stroke="midnightblue" points="31.0154,-30.1262 28.869,-19.7511 24.0769,-29.2002 31.0154,-30.1262"/>
</g>
<!-- Node5&#45;&gt;Node4 -->
<g id="edge10" class="edge"><title>Node5&#45;&gt;Node4</title>
<path fill="none" stroke="midnightblue" d="M39.131,-19.7511C40.6573,-26.8579 41.1044,-37.1357 40.4724,-46.1005"/>
<polygon fill="midnightblue" stroke="midnightblue" points="36.9933,-45.7134 39.1663,-56.083 43.9342,-46.6216 36.9933,-45.7134"/>
</g>
<!-- Node6&#45;&gt;Node3 -->
<g id="edge14" class="edge"><title>Node6&#45;&gt;Node3</title>
<path fill="none" stroke="midnightblue" d="M154.131,-75.7511C155.657,-82.8579 156.104,-93.1357 155.472,-102.101"/>
<polygon fill="midnightblue" stroke="midnightblue" points="151.993,-101.713 154.166,-112.083 158.934,-102.622 151.993,-101.713"/>
</g>
<!-- Node8 -->
<g id="node17" class="node"><title>Node8</title>
<a xlink:href="taker_8cpp.html" target="_top" xlink:title="Om cpp file.">
<polygon fill="none" stroke="black" points="230.5,-56.5 230.5,-75.5 301.5,-75.5 301.5,-56.5 230.5,-56.5"/>
<text text-anchor="middle" x="266" y="-63.5" font-family="Helvetica,sans-Serif" font-size="10.00">om/taker.cpp</text>
</a>
</g>
<!-- Node7&#45;&gt;Node8 -->
<g id="edge18" class="edge"><title>Node7&#45;&gt;Node8</title>
<path fill="none" stroke="midnightblue" d="M260.834,-112.083C259.324,-104.927 258.894,-94.6353 259.542,-85.6911"/>
<polygon fill="midnightblue" stroke="midnightblue" points="263.015,-86.1262 260.869,-75.7511 256.077,-85.2002 263.015,-86.1262"/>
</g>
<!-- Node8&#45;&gt;Node7 -->
<g id="edge20" class="edge"><title>Node8&#45;&gt;Node7</title>
<path fill="none" stroke="midnightblue" d="M271.131,-75.7511C272.657,-82.8579 273.104,-93.1357 272.472,-102.101"/>
<polygon fill="midnightblue" stroke="midnightblue" points="268.993,-101.713 271.166,-112.083 275.934,-102.622 268.993,-101.713"/>
</g>
<!-- Node9&#45;&gt;Node2 -->
<g id="edge24" class="edge"><title>Node9&#45;&gt;Node2</title>
<path fill="none" stroke="midnightblue" d="M361.969,-131.834C356.295,-139.791 345.643,-151.673 335.78,-161.253"/>
<polygon fill="midnightblue" stroke="midnightblue" points="333.105,-158.96 328.148,-168.324 337.862,-164.095 333.105,-158.96"/>
</g>
<!-- Node10&#45;&gt;Node1 -->
<g id="edge28" class="edge"><title>Node10&#45;&gt;Node1</title>
<path fill="none" stroke="midnightblue" d="M434.131,-187.751C435.657,-194.858 436.104,-205.136 435.472,-214.101"/>
<polygon fill="midnightblue" stroke="midnightblue" points="431.993,-213.713 434.166,-224.083 438.934,-214.622 431.993,-213.713"/>
</g>
</g>
</svg>
