<?xml version="1.0" encoding="UTF-8" standalone="no"?>
<!DOCTYPE svg PUBLIC "-//W3C//DTD SVG 1.1//EN"
 "http://www.w3.org/Graphics/SVG/1.1/DTD/svg11.dtd">
<!-- Generated by graphviz version 2.28.0 (20120817.0054)
 -->
<!-- Title: code/om/operations/environment_operation.cpp Pages: 1 -->
<svg width="140pt" height="220pt"
 viewBox="0.00 0.00 140.00 220.00" xmlns="http://www.w3.org/2000/svg" xmlns:xlink="http://www.w3.org/1999/xlink">
<g id="graph1" class="graph" transform="scale(1 1) rotate(0) translate(4 216)">
<title>code/om/operations/environment_operation.cpp</title>
<!-- Node1 -->
<g id="node1" class="node"><title>Node1</title>
<polygon fill="#bfbfbf" stroke="black" points="-0.5,-181 -0.5,-211 132.5,-211 132.5,-181 -0.5,-181"/>
<text text-anchor="start" x="7.5" y="-199" font-family="Helvetica,sans-Serif" font-size="10.00">code/om/operations</text>
<text text-anchor="middle" x="66" y="-188" font-family="Helvetica,sans-Serif" font-size="10.00">/environment_operation.cpp</text>
</g>
<!-- Node2 -->
<g id="node3" class="node"><title>Node2</title>
<a xlink:href="environment__operation_8hpp.html" target="_top" xlink:title="Om header file.">
<polygon fill="none" stroke="black" points="1,-113 1,-143 131,-143 131,-113 1,-113"/>
<text text-anchor="start" x="9" y="-131" font-family="Helvetica,sans-Serif" font-size="10.00">om/operations/environment</text>
<text text-anchor="middle" x="66" y="-120" font-family="Helvetica,sans-Serif" font-size="10.00">_operation.hpp</text>
</a>
</g>
<!-- Node1&#45;&gt;Node2 -->
<g id="edge2" class="edge"><title>Node1&#45;&gt;Node2</title>
<path fill="none" stroke="midnightblue" d="M60.3216,-180.679C59.2938,-172.722 59.0053,-162.605 59.4562,-153.436"/>
<polygon fill="midnightblue" stroke="midnightblue" points="62.9587,-153.555 60.3252,-143.293 55.9843,-152.958 62.9587,-153.555"/>
</g>
<!-- Node2&#45;&gt;Node1 -->
<g id="edge10" class="edge"><title>Node2&#45;&gt;Node1</title>
<path fill="none" stroke="midnightblue" d="M71.6748,-143.293C72.7043,-151.245 72.9945,-161.361 72.5453,-170.532"/>
<polygon fill="midnightblue" stroke="midnightblue" points="69.0425,-170.417 71.6784,-180.679 76.0171,-171.013 69.0425,-170.417"/>
</g>
<!-- Node3 -->
<g id="node5" class="node"><title>Node3</title>
<a xlink:href="definition_8hpp.html" target="_top" xlink:title="Om header file.">
<polygon fill="none" stroke="black" points="22.5,-56.5 22.5,-75.5 109.5,-75.5 109.5,-56.5 22.5,-56.5"/>
<text text-anchor="middle" x="66" y="-63.5" font-family="Helvetica,sans-Serif" font-size="10.00">om/definition.hpp</text>
</a>
</g>
<!-- Node2&#45;&gt;Node3 -->
<g id="edge4" class="edge"><title>Node2&#45;&gt;Node3</title>
<path fill="none" stroke="midnightblue" d="M66,-112.781C66,-104.781 66,-94.6887 66,-86.0168"/>
<polygon fill="midnightblue" stroke="midnightblue" points="69.5001,-85.7305 66,-75.7305 62.5001,-85.7306 69.5001,-85.7305"/>
</g>
<!-- Node4 -->
<g id="node7" class="node"><title>Node4</title>
<a xlink:href="definition_8cpp.html" target="_top" xlink:title="Om source file.">
<polygon fill="none" stroke="black" points="23,-0.5 23,-19.5 109,-19.5 109,-0.5 23,-0.5"/>
<text text-anchor="middle" x="66" y="-7.5" font-family="Helvetica,sans-Serif" font-size="10.00">om/definition.cpp</text>
</a>
</g>
<!-- Node3&#45;&gt;Node4 -->
<g id="edge6" class="edge"><title>Node3&#45;&gt;Node4</title>
<path fill="none" stroke="midnightblue" d="M60.8337,-56.083C59.3242,-48.9272 58.8938,-38.6353 59.5425,-29.6911"/>
<polygon fill="midnightblue" stroke="midnightblue" points="63.0154,-30.1262 60.869,-19.7511 56.0769,-29.2002 63.0154,-30.1262"/>
</g>
<!-- Node4&#45;&gt;Node3 -->
<g id="edge8" class="edge"><title>Node4&#45;&gt;Node3</title>
<path fill="none" stroke="midnightblue" d="M71.131,-19.7511C72.6573,-26.8579 73.1044,-37.1357 72.4724,-46.1005"/>
<polygon fill="midnightblue" stroke="midnightblue" points="68.9933,-45.7134 71.1663,-56.083 75.9342,-46.6216 68.9933,-45.7134"/>
</g>
</g>
</svg>
