<?xml version="1.0" encoding="UTF-8" standalone="no"?>
<!DOCTYPE svg PUBLIC "-//W3C//DTD SVG 1.1//EN"
 "http://www.w3.org/Graphics/SVG/1.1/DTD/svg11.dtd">
<!-- Generated by graphviz version 2.36.0 (20140111.2315)
 -->
<!-- Title: om/language/environment.hpp Pages: 1 -->
<svg width="438pt" height="196pt"
 viewBox="0.00 0.00 438.00 196.00" xmlns="http://www.w3.org/2000/svg" xmlns:xlink="http://www.w3.org/1999/xlink">
<g id="graph0" class="graph" transform="scale(1 1) rotate(0) translate(4 192)">
<title>om/language/environment.hpp</title>
<!-- Node1 -->
<g id="node1" class="node"><title>Node1</title>
<g id="a_node1"><a xlink:title="Om header file.">
<polygon fill="#bfbfbf" stroke="black" points="279.454,-169 279.454,-187 430.546,-187 430.546,-169 279.454,-169"/>
<text text-anchor="middle" x="355" y="-175" font-family="Helvetica,sans-Serif" font-size="10.00">om/language/environment.hpp</text>
</a>
</g>
</g>
<!-- Node2 -->
<g id="node2" class="node"><title>Node2</title>
<g id="a_node2"><a xlink:href="translator_8hpp.html" target="_top" xlink:title="Om header file.">
<polygon fill="none" stroke="black" points="124.399,-113 124.399,-131 261.601,-131 261.601,-113 124.399,-113"/>
<text text-anchor="middle" x="193" y="-119" font-family="Helvetica,sans-Serif" font-size="10.00">om/language/translator.hpp</text>
</a>
</g>
</g>
<!-- Node1&#45;&gt;Node2 -->
<g id="edge1" class="edge"><title>Node1&#45;&gt;Node2</title>
<path fill="none" stroke="midnightblue" d="M330.747,-168.916C303.109,-159.703 257.759,-144.586 226.697,-134.232"/>
<polygon fill="midnightblue" stroke="midnightblue" points="227.748,-130.893 217.154,-131.051 225.534,-137.534 227.748,-130.893"/>
</g>
<!-- Node7 -->
<g id="node7" class="node"><title>Node7</title>
<g id="a_node7"><a xlink:href="environment_8cpp.html" target="_top" xlink:title="Om source file.">
<polygon fill="none" stroke="black" points="279.734,-113 279.734,-131 430.266,-131 430.266,-113 279.734,-113"/>
<text text-anchor="middle" x="355" y="-119" font-family="Helvetica,sans-Serif" font-size="10.00">om/language/environment.cpp</text>
</a>
</g>
</g>
<!-- Node1&#45;&gt;Node7 -->
<g id="edge7" class="edge"><title>Node1&#45;&gt;Node7</title>
<path fill="none" stroke="midnightblue" d="M349.938,-168.562C348.325,-161.308 347.868,-150.588 348.566,-141.369"/>
<polygon fill="midnightblue" stroke="midnightblue" points="352.069,-141.59 349.991,-131.201 345.137,-140.619 352.069,-141.59"/>
</g>
<!-- Node3 -->
<g id="node3" class="node"><title>Node3</title>
<g id="a_node3"><a xlink:href="code__point_8hpp.html" target="_top" xlink:title="Om header file.">
<polygon fill="none" stroke="black" points="0.468262,-57 0.468262,-75 101.532,-75 101.532,-57 0.468262,-57"/>
<text text-anchor="middle" x="51" y="-63" font-family="Helvetica,sans-Serif" font-size="10.00">om/code_point.hpp</text>
</a>
</g>
</g>
<!-- Node2&#45;&gt;Node3 -->
<g id="edge2" class="edge"><title>Node2&#45;&gt;Node3</title>
<path fill="none" stroke="midnightblue" d="M171.741,-112.916C147.899,-103.849 109.019,-89.0635 81.8389,-78.7275"/>
<polygon fill="midnightblue" stroke="midnightblue" points="82.9952,-75.4227 72.4042,-75.1396 80.507,-81.9656 82.9952,-75.4227"/>
</g>
<!-- Node5 -->
<g id="node5" class="node"><title>Node5</title>
<g id="a_node5"><a xlink:title=" ">
<polygon fill="none" stroke="#bfbfbf" points="119.773,-57 119.773,-75 160.227,-75 160.227,-57 119.773,-57"/>
<text text-anchor="middle" x="140" y="-63" font-family="Helvetica,sans-Serif" font-size="10.00">string</text>
</a>
</g>
</g>
<!-- Node2&#45;&gt;Node5 -->
<g id="edge4" class="edge"><title>Node2&#45;&gt;Node5</title>
<path fill="none" stroke="midnightblue" d="M184.719,-112.562C176.816,-104.511 164.724,-92.1905 155.106,-82.3907"/>
<polygon fill="midnightblue" stroke="midnightblue" points="157.552,-79.8867 148.05,-75.2014 152.556,-84.79 157.552,-79.8867"/>
</g>
<!-- Node6 -->
<g id="node6" class="node"><title>Node6</title>
<g id="a_node6"><a xlink:href="translator_8cpp.html" target="_top" xlink:title="Om source file.">
<polygon fill="none" stroke="black" points="178.68,-57 178.68,-75 315.32,-75 315.32,-57 178.68,-57"/>
<text text-anchor="middle" x="247" y="-63" font-family="Helvetica,sans-Serif" font-size="10.00">om/language/translator.cpp</text>
</a>
</g>
</g>
<!-- Node2&#45;&gt;Node6 -->
<g id="edge5" class="edge"><title>Node2&#45;&gt;Node6</title>
<path fill="none" stroke="midnightblue" d="M196.375,-112.562C202.761,-104.351 215.067,-91.7009 226.091,-81.8115"/>
<polygon fill="midnightblue" stroke="midnightblue" points="228.483,-84.3715 233.789,-75.2014 223.922,-79.0607 228.483,-84.3715"/>
</g>
<!-- Node4 -->
<g id="node4" class="node"><title>Node4</title>
<g id="a_node4"><a xlink:title=" ">
<polygon fill="none" stroke="#bfbfbf" points="-0.364258,-1 -0.364258,-19 102.364,-19 102.364,-1 -0.364258,-1"/>
<text text-anchor="middle" x="51" y="-7" font-family="Helvetica,sans-Serif" font-size="10.00">boost/locale/utf.hpp</text>
</a>
</g>
</g>
<!-- Node3&#45;&gt;Node4 -->
<g id="edge3" class="edge"><title>Node3&#45;&gt;Node4</title>
<path fill="none" stroke="midnightblue" d="M51,-56.5625C51,-49.308 51,-38.5884 51,-29.3691"/>
<polygon fill="midnightblue" stroke="midnightblue" points="54.5001,-29.2014 51,-19.2014 47.5001,-29.2015 54.5001,-29.2014"/>
</g>
<!-- Node6&#45;&gt;Node2 -->
<g id="edge6" class="edge"><title>Node6&#45;&gt;Node2</title>
<path fill="none" stroke="midnightblue" d="M243.748,-75.2786C237.406,-83.4744 225.036,-96.203 213.951,-106.151"/>
<polygon fill="midnightblue" stroke="midnightblue" points="211.516,-103.628 206.211,-112.799 216.077,-108.938 211.516,-103.628"/>
</g>
<!-- Node7&#45;&gt;Node1 -->
<g id="edge8" class="edge"><title>Node7&#45;&gt;Node1</title>
<path fill="none" stroke="midnightblue" d="M360.009,-131.201C361.665,-138.459 362.139,-149.313 361.433,-158.633"/>
<polygon fill="midnightblue" stroke="midnightblue" points="357.963,-158.178 360.062,-168.562 364.897,-159.135 357.963,-158.178"/>
</g>
</g>
</svg>
