<?xml version="1.0" encoding="UTF-8" standalone="no"?>
<!DOCTYPE svg PUBLIC "-//W3C//DTD SVG 1.1//EN"
 "http://www.w3.org/Graphics/SVG/1.1/DTD/svg11.dtd">
<!-- Generated by graphviz version 2.30.1 (20130221.2233)
 -->
<!-- Title: om/environment.cpp Pages: 1 -->
<svg width="253pt" height="368pt"
 viewBox="0.00 0.00 253.00 368.00" xmlns="http://www.w3.org/2000/svg" xmlns:xlink="http://www.w3.org/1999/xlink">
<g id="graph0" class="graph" transform="scale(1 1) rotate(0) translate(4 364)">
<title>om/environment.cpp</title>
<!-- Node1 -->
<g id="node1" class="node"><title>Node1</title>
<polygon fill="#bfbfbf" stroke="black" points="70.6997,-339 70.6997,-359 177.3,-359 177.3,-339 70.6997,-339"/>
<text text-anchor="middle" x="124" y="-345" font-family="Helvetica,sans-Serif" font-size="10.00">om/environment.cpp</text>
</g>
<!-- Node2 -->
<g id="node2" class="node"><title>Node2</title>
<g id="a_node2"><a xlink:href="environment_8hpp.html" target="_top" xlink:title="Om header file. ">
<polygon fill="none" stroke="black" points="70.4189,-281 70.4189,-301 177.581,-301 177.581,-281 70.4189,-281"/>
<text text-anchor="middle" x="124" y="-287" font-family="Helvetica,sans-Serif" font-size="10.00">om/environment.hpp</text>
</a>
</g>
</g>
<!-- Node1&#45;&gt;Node2 -->
<g id="edge1" class="edge"><title>Node1&#45;&gt;Node2</title>
<path fill="none" stroke="midnightblue" d="M117.549,-328.707C116.886,-319.338 117.326,-308.526 118.869,-301.075"/>
<polygon fill="midnightblue" stroke="midnightblue" points="114.093,-329.278 118.834,-338.753 121.037,-328.389 114.093,-329.278"/>
</g>
<!-- Node2&#45;&gt;Node1 -->
<g id="edge2" class="edge"><title>Node2&#45;&gt;Node1</title>
<path fill="none" stroke="midnightblue" d="M130.436,-311.078C131.116,-320.424 130.692,-331.25 129.166,-338.753"/>
<polygon fill="midnightblue" stroke="midnightblue" points="133.895,-310.538 129.131,-301.075 126.954,-311.444 133.895,-310.538"/>
</g>
<!-- Node3 -->
<g id="node3" class="node"><title>Node3</title>
<g id="a_node3"><a xlink:href="define__operation_8cpp.html" target="_top" xlink:title="Om source file. ">
<polygon fill="none" stroke="black" points="7.80322,-211 7.80322,-243 112.197,-243 112.197,-211 7.80322,-211"/>
<text text-anchor="start" x="15.8032" y="-229" font-family="Helvetica,sans-Serif" font-size="10.00">om/operation/define</text>
<text text-anchor="middle" x="60" y="-217" font-family="Helvetica,sans-Serif" font-size="10.00">_operation.cpp</text>
</a>
</g>
</g>
<!-- Node2&#45;&gt;Node3 -->
<g id="edge3" class="edge"><title>Node2&#45;&gt;Node3</title>
<path fill="none" stroke="midnightblue" d="M107.117,-273.645C97.4643,-264.294 85.429,-252.634 75.9385,-243.44"/>
<polygon fill="midnightblue" stroke="midnightblue" points="104.939,-276.408 114.557,-280.852 109.809,-271.38 104.939,-276.408"/>
</g>
<!-- Node7 -->
<g id="node7" class="node"><title>Node7</title>
<g id="a_node7"><a xlink:href="evaluate__operation_8cpp.html" target="_top" xlink:title="Om source file. ">
<polygon fill="none" stroke="black" points="130.522,-211 130.522,-243 245.478,-243 245.478,-211 130.522,-211"/>
<text text-anchor="start" x="138.522" y="-229" font-family="Helvetica,sans-Serif" font-size="10.00">om/operation/evaluate</text>
<text text-anchor="middle" x="188" y="-217" font-family="Helvetica,sans-Serif" font-size="10.00">_operation.cpp</text>
</a>
</g>
</g>
<!-- Node2&#45;&gt;Node7 -->
<g id="edge9" class="edge"><title>Node2&#45;&gt;Node7</title>
<path fill="none" stroke="midnightblue" d="M140.883,-273.645C150.536,-264.294 162.571,-252.634 172.062,-243.44"/>
<polygon fill="midnightblue" stroke="midnightblue" points="138.191,-271.38 133.443,-280.852 143.061,-276.408 138.191,-271.38"/>
</g>
<!-- Node4 -->
<g id="node4" class="node"><title>Node4</title>
<g id="a_node4"><a xlink:href="define__operation_8hpp.html" target="_top" xlink:title="Om header file. ">
<polygon fill="none" stroke="black" points="7.80322,-141 7.80322,-173 112.197,-173 112.197,-141 7.80322,-141"/>
<text text-anchor="start" x="15.8032" y="-159" font-family="Helvetica,sans-Serif" font-size="10.00">om/operation/define</text>
<text text-anchor="middle" x="60" y="-147" font-family="Helvetica,sans-Serif" font-size="10.00">_operation.hpp</text>
</a>
</g>
</g>
<!-- Node3&#45;&gt;Node4 -->
<g id="edge4" class="edge"><title>Node3&#45;&gt;Node4</title>
<path fill="none" stroke="midnightblue" d="M53.4608,-200.92C53.0088,-191.56 53.2836,-181.229 54.2851,-173.049"/>
<polygon fill="midnightblue" stroke="midnightblue" points="49.9743,-201.228 54.28,-210.909 56.9509,-200.656 49.9743,-201.228"/>
</g>
<!-- Node5 -->
<g id="node5" class="node"><title>Node5</title>
<g id="a_node5"><a xlink:href="rearrange__operation_8cpp.html" target="_top" xlink:title="Om source file. ">
<polygon fill="none" stroke="black" points="-0.253418,-71 -0.253418,-103 120.253,-103 120.253,-71 -0.253418,-71"/>
<text text-anchor="start" x="7.74658" y="-89" font-family="Helvetica,sans-Serif" font-size="10.00">om/operation/rearrange</text>
<text text-anchor="middle" x="60" y="-77" font-family="Helvetica,sans-Serif" font-size="10.00">_operation.cpp</text>
</a>
</g>
</g>
<!-- Node4&#45;&gt;Node5 -->
<g id="edge5" class="edge"><title>Node4&#45;&gt;Node5</title>
<path fill="none" stroke="midnightblue" d="M60,-130.617C60,-121.338 60,-111.141 60,-103.049"/>
<polygon fill="midnightblue" stroke="midnightblue" points="56.5001,-130.909 60,-140.909 63.5001,-130.909 56.5001,-130.909"/>
</g>
<!-- Node4&#45;&gt;Node3 -->
<g id="edge8" class="edge"><title>Node4&#45;&gt;Node3</title>
<path fill="none" stroke="midnightblue" d="M66.5368,-183.032C66.9913,-192.389 66.7191,-202.721 65.72,-210.909"/>
<polygon fill="midnightblue" stroke="midnightblue" points="70.0237,-182.728 65.7149,-173.049 63.0474,-183.303 70.0237,-182.728"/>
</g>
<!-- Node6 -->
<g id="node6" class="node"><title>Node6</title>
<g id="a_node6"><a xlink:href="rearrange__operation_8hpp.html" target="_top" xlink:title="Om header file. ">
<polygon fill="none" stroke="black" points="-0.253418,-1 -0.253418,-33 120.253,-33 120.253,-1 -0.253418,-1"/>
<text text-anchor="start" x="7.74658" y="-19" font-family="Helvetica,sans-Serif" font-size="10.00">om/operation/rearrange</text>
<text text-anchor="middle" x="60" y="-7" font-family="Helvetica,sans-Serif" font-size="10.00">_operation.hpp</text>
</a>
</g>
</g>
<!-- Node5&#45;&gt;Node6 -->
<g id="edge6" class="edge"><title>Node5&#45;&gt;Node6</title>
<path fill="none" stroke="midnightblue" d="M53.4608,-60.9196C53.0088,-51.5597 53.2836,-41.2293 54.2851,-33.0492"/>
<polygon fill="midnightblue" stroke="midnightblue" points="49.9743,-61.2281 54.28,-70.9086 56.9509,-60.656 49.9743,-61.2281"/>
</g>
<!-- Node6&#45;&gt;Node5 -->
<g id="edge7" class="edge"><title>Node6&#45;&gt;Node5</title>
<path fill="none" stroke="midnightblue" d="M66.5368,-43.0321C66.9913,-52.3887 66.7191,-62.7211 65.72,-70.9086"/>
<polygon fill="midnightblue" stroke="midnightblue" points="70.0237,-42.7283 65.7149,-33.0492 63.0474,-43.3027 70.0237,-42.7283"/>
</g>
<!-- Node8 -->
<g id="node8" class="node"><title>Node8</title>
<g id="a_node8"><a xlink:href="evaluate__operation_8hpp.html" target="_top" xlink:title="Om header file. ">
<polygon fill="none" stroke="black" points="130.522,-141 130.522,-173 245.478,-173 245.478,-141 130.522,-141"/>
<text text-anchor="start" x="138.522" y="-159" font-family="Helvetica,sans-Serif" font-size="10.00">om/operation/evaluate</text>
<text text-anchor="middle" x="188" y="-147" font-family="Helvetica,sans-Serif" font-size="10.00">_operation.hpp</text>
</a>
</g>
</g>
<!-- Node7&#45;&gt;Node8 -->
<g id="edge10" class="edge"><title>Node7&#45;&gt;Node8</title>
<path fill="none" stroke="midnightblue" d="M181.461,-200.92C181.009,-191.56 181.284,-181.229 182.285,-173.049"/>
<polygon fill="midnightblue" stroke="midnightblue" points="177.974,-201.228 182.28,-210.909 184.951,-200.656 177.974,-201.228"/>
</g>
<!-- Node8&#45;&gt;Node7 -->
<g id="edge11" class="edge"><title>Node8&#45;&gt;Node7</title>
<path fill="none" stroke="midnightblue" d="M194.537,-183.032C194.991,-192.389 194.719,-202.721 193.72,-210.909"/>
<polygon fill="midnightblue" stroke="midnightblue" points="198.024,-182.728 193.715,-173.049 191.047,-183.303 198.024,-182.728"/>
</g>
</g>
</svg>
