<?xml version="1.0" encoding="UTF-8" standalone="no"?>
<!DOCTYPE svg PUBLIC "-//W3C//DTD SVG 1.1//EN"
 "http://www.w3.org/Graphics/SVG/1.1/DTD/svg11.dtd">
<!-- Generated by graphviz version 2.28.0 (20120817.0054)
 -->
<!-- Title: code/om/environment.cpp Pages: 1 -->
<svg width="270pt" height="252pt"
 viewBox="0.00 0.00 270.00 252.00" xmlns="http://www.w3.org/2000/svg" xmlns:xlink="http://www.w3.org/1999/xlink">
<g id="graph1" class="graph" transform="scale(1 1) rotate(0) translate(4 248)">
<title>code/om/environment.cpp</title>
<!-- Node1 -->
<g id="node1" class="node"><title>Node1</title>
<polygon fill="#bfbfbf" stroke="black" points="114.5,-224.5 114.5,-243.5 239.5,-243.5 239.5,-224.5 114.5,-224.5"/>
<text text-anchor="middle" x="177" y="-231.5" font-family="Helvetica,sans-Serif" font-size="10.00">code/om/environment.cpp</text>
</g>
<!-- Node2 -->
<g id="node3" class="node"><title>Node2</title>
<a xlink:href="environment_8hpp.html" target="_top" xlink:title="Om header file.">
<polygon fill="none" stroke="black" points="126,-168.5 126,-187.5 228,-187.5 228,-168.5 126,-168.5"/>
<text text-anchor="middle" x="177" y="-175.5" font-family="Helvetica,sans-Serif" font-size="10.00">om/environment.hpp</text>
</a>
</g>
<!-- Node1&#45;&gt;Node2 -->
<g id="edge2" class="edge"><title>Node1&#45;&gt;Node2</title>
<path fill="none" stroke="midnightblue" d="M171.834,-224.083C170.324,-216.927 169.894,-206.635 170.542,-197.691"/>
<polygon fill="midnightblue" stroke="midnightblue" points="174.015,-198.126 171.869,-187.751 167.077,-197.2 174.015,-198.126"/>
</g>
<!-- Node2&#45;&gt;Node1 -->
<g id="edge16" class="edge"><title>Node2&#45;&gt;Node1</title>
<path fill="none" stroke="midnightblue" d="M182.131,-187.751C183.657,-194.858 184.104,-205.136 183.472,-214.101"/>
<polygon fill="midnightblue" stroke="midnightblue" points="179.993,-213.713 182.166,-224.083 186.934,-214.622 179.993,-213.713"/>
</g>
<!-- Node3 -->
<g id="node5" class="node"><title>Node3</title>
<a xlink:href="translator_8hpp.html" target="_top" xlink:title="Om header file.">
<polygon fill="none" stroke="black" points="132,-112.5 132,-131.5 222,-131.5 222,-112.5 132,-112.5"/>
<text text-anchor="middle" x="177" y="-119.5" font-family="Helvetica,sans-Serif" font-size="10.00">om/translator.hpp</text>
</a>
</g>
<!-- Node2&#45;&gt;Node3 -->
<g id="edge4" class="edge"><title>Node2&#45;&gt;Node3</title>
<path fill="none" stroke="midnightblue" d="M177,-168.083C177,-161.006 177,-150.861 177,-141.986"/>
<polygon fill="midnightblue" stroke="midnightblue" points="180.5,-141.751 177,-131.751 173.5,-141.751 180.5,-141.751"/>
</g>
<!-- Node4 -->
<g id="node7" class="node"><title>Node4</title>
<a xlink:href="code__point_8hpp.html" target="_top" xlink:title="Om header file.">
<polygon fill="none" stroke="black" points="1,-56.5 1,-75.5 99,-75.5 99,-56.5 1,-56.5"/>
<text text-anchor="middle" x="50" y="-63.5" font-family="Helvetica,sans-Serif" font-size="10.00">om/code_point.hpp</text>
</a>
</g>
<!-- Node3&#45;&gt;Node4 -->
<g id="edge6" class="edge"><title>Node3&#45;&gt;Node4</title>
<path fill="none" stroke="midnightblue" d="M156.876,-112.444C135.976,-103.557 103.065,-89.5632 79.2839,-79.4514"/>
<polygon fill="midnightblue" stroke="midnightblue" points="80.6016,-76.2085 70.0294,-75.5164 77.8625,-82.6504 80.6016,-76.2085"/>
</g>
<!-- Node6 -->
<g id="node11" class="node"><title>Node6</title>
<polygon fill="none" stroke="#bfbfbf" points="117,-56.5 117,-75.5 155,-75.5 155,-56.5 117,-56.5"/>
<text text-anchor="middle" x="136" y="-63.5" font-family="Helvetica,sans-Serif" font-size="10.00">string</text>
</g>
<!-- Node3&#45;&gt;Node6 -->
<g id="edge10" class="edge"><title>Node3&#45;&gt;Node6</title>
<path fill="none" stroke="midnightblue" d="M170.23,-112.083C164.438,-104.455 155.942,-93.2645 148.862,-83.9408"/>
<polygon fill="midnightblue" stroke="midnightblue" points="151.479,-81.5991 142.644,-75.7511 145.904,-85.8321 151.479,-81.5991"/>
</g>
<!-- Node7 -->
<g id="node13" class="node"><title>Node7</title>
<a xlink:href="translator_8cpp.html" target="_top" xlink:title="Om source file.">
<polygon fill="none" stroke="black" points="173.5,-56.5 173.5,-75.5 262.5,-75.5 262.5,-56.5 173.5,-56.5"/>
<text text-anchor="middle" x="218" y="-63.5" font-family="Helvetica,sans-Serif" font-size="10.00">om/translator.cpp</text>
</a>
</g>
<!-- Node3&#45;&gt;Node7 -->
<g id="edge12" class="edge"><title>Node3&#45;&gt;Node7</title>
<path fill="none" stroke="midnightblue" d="M178.604,-112.083C182.872,-104.298 191.236,-92.8015 199.312,-83.3665"/>
<polygon fill="midnightblue" stroke="midnightblue" points="202.095,-85.508 206.225,-75.7511 196.912,-80.8033 202.095,-85.508"/>
</g>
<!-- Node5 -->
<g id="node9" class="node"><title>Node5</title>
<polygon fill="none" stroke="#bfbfbf" points="0,-0.5 0,-19.5 100,-19.5 100,-0.5 0,-0.5"/>
<text text-anchor="middle" x="50" y="-7.5" font-family="Helvetica,sans-Serif" font-size="10.00">boost/locale/utf.hpp</text>
</g>
<!-- Node4&#45;&gt;Node5 -->
<g id="edge8" class="edge"><title>Node4&#45;&gt;Node5</title>
<path fill="none" stroke="midnightblue" d="M50,-56.083C50,-49.0059 50,-38.8611 50,-29.9865"/>
<polygon fill="midnightblue" stroke="midnightblue" points="53.5001,-29.751 50,-19.7511 46.5001,-29.7511 53.5001,-29.751"/>
</g>
<!-- Node7&#45;&gt;Node3 -->
<g id="edge14" class="edge"><title>Node7&#45;&gt;Node3</title>
<path fill="none" stroke="midnightblue" d="M216.487,-75.7511C212.277,-83.4827 203.94,-94.9673 195.861,-104.431"/>
<polygon fill="midnightblue" stroke="midnightblue" points="193.051,-102.32 188.937,-112.083 198.242,-107.017 193.051,-102.32"/>
</g>
</g>
</svg>
