<?xml version="1.0" encoding="UTF-8" standalone="no"?>
<!DOCTYPE svg PUBLIC "-//W3C//DTD SVG 1.1//EN"
 "http://www.w3.org/Graphics/SVG/1.1/DTD/svg11.dtd">
<!-- Generated by graphviz version 2.30.1 (20130221.2233)
 -->
<!-- Title: om/operations/equals_operation.hpp Pages: 1 -->
<svg width="118pt" height="112pt"
 viewBox="0.00 0.00 118.00 112.00" xmlns="http://www.w3.org/2000/svg" xmlns:xlink="http://www.w3.org/1999/xlink">
<g id="graph0" class="graph" transform="scale(1 1) rotate(0) translate(4 108)">
<title>om/operations/equals_operation.hpp</title>
<!-- Node1 -->
<g id="node1" class="node"><title>Node1</title>
<polygon fill="#bfbfbf" stroke="black" points="-0.807617,-71 -0.807617,-103 110.808,-103 110.808,-71 -0.807617,-71"/>
<text text-anchor="start" x="7.19238" y="-89" font-family="Helvetica,sans-Serif" font-size="10.00">om/operations/equals</text>
<text text-anchor="middle" x="55" y="-77" font-family="Helvetica,sans-Serif" font-size="10.00">_operation.hpp</text>
</g>
<!-- Node2 -->
<g id="node2" class="node"><title>Node2</title>
<g id="a_node2"><a xlink:href="equals__operation_8cpp.html" target="_top" xlink:title="Om source file. ">
<polygon fill="none" stroke="black" points="-0.807617,-1 -0.807617,-33 110.808,-33 110.808,-1 -0.807617,-1"/>
<text text-anchor="start" x="7.19238" y="-19" font-family="Helvetica,sans-Serif" font-size="10.00">om/operations/equals</text>
<text text-anchor="middle" x="55" y="-7" font-family="Helvetica,sans-Serif" font-size="10.00">_operation.cpp</text>
</a>
</g>
</g>
<!-- Node1&#45;&gt;Node2 -->
<g id="edge1" class="edge"><title>Node1&#45;&gt;Node2</title>
<path fill="none" stroke="midnightblue" d="M48.4608,-60.9196C48.0088,-51.5597 48.2836,-41.2293 49.2851,-33.0492"/>
<polygon fill="midnightblue" stroke="midnightblue" points="44.9743,-61.2281 49.28,-70.9086 51.9509,-60.656 44.9743,-61.2281"/>
</g>
<!-- Node2&#45;&gt;Node1 -->
<g id="edge2" class="edge"><title>Node2&#45;&gt;Node1</title>
<path fill="none" stroke="midnightblue" d="M61.5368,-43.0321C61.9913,-52.3887 61.7191,-62.7211 60.72,-70.9086"/>
<polygon fill="midnightblue" stroke="midnightblue" points="65.0237,-42.7283 60.7149,-33.0492 58.0474,-43.3027 65.0237,-42.7283"/>
</g>
</g>
</svg>
