<?xml version="1.0" encoding="UTF-8" standalone="no"?>
<!DOCTYPE svg PUBLIC "-//W3C//DTD SVG 1.1//EN"
 "http://www.w3.org/Graphics/SVG/1.1/DTD/svg11.dtd">
<!-- Generated by graphviz version 2.28.0 (20120817.0054)
 -->
<!-- Title: code/om/evaluator.cpp Pages: 1 -->
<svg width="397pt" height="264pt"
 viewBox="0.00 0.00 397.00 264.00" xmlns="http://www.w3.org/2000/svg" xmlns:xlink="http://www.w3.org/1999/xlink">
<g id="graph1" class="graph" transform="scale(1 1) rotate(0) translate(4 260)">
<title>code/om/evaluator.cpp</title>
<!-- Node1 -->
<g id="node1" class="node"><title>Node1</title>
<polygon fill="#bfbfbf" stroke="black" points="223.5,-236.5 223.5,-255.5 336.5,-255.5 336.5,-236.5 223.5,-236.5"/>
<text text-anchor="middle" x="280" y="-243.5" font-family="Helvetica,sans-Serif" font-size="10.00">code/om/evaluator.cpp</text>
</g>
<!-- Node2 -->
<g id="node3" class="node"><title>Node2</title>
<a xlink:href="evaluator_8hpp.html" target="_top" xlink:title="Om header file.">
<polygon fill="none" stroke="black" points="234.5,-180.5 234.5,-199.5 325.5,-199.5 325.5,-180.5 234.5,-180.5"/>
<text text-anchor="middle" x="280" y="-187.5" font-family="Helvetica,sans-Serif" font-size="10.00">om/evaluator.hpp</text>
</a>
</g>
<!-- Node1&#45;&gt;Node2 -->
<g id="edge2" class="edge"><title>Node1&#45;&gt;Node2</title>
<path fill="none" stroke="midnightblue" d="M274.834,-236.083C273.324,-228.927 272.894,-218.635 273.542,-209.691"/>
<polygon fill="midnightblue" stroke="midnightblue" points="277.015,-210.126 274.869,-199.751 270.077,-209.2 277.015,-210.126"/>
</g>
<!-- Node2&#45;&gt;Node1 -->
<g id="edge20" class="edge"><title>Node2&#45;&gt;Node1</title>
<path fill="none" stroke="midnightblue" d="M285.131,-199.751C286.657,-206.858 287.104,-217.136 286.472,-226.101"/>
<polygon fill="midnightblue" stroke="midnightblue" points="282.993,-225.713 285.166,-236.083 289.934,-226.622 282.993,-225.713"/>
</g>
<!-- Node3 -->
<g id="node5" class="node"><title>Node3</title>
<a xlink:href="default__queue_8hpp.html" target="_top" xlink:title="Om header file.">
<polygon fill="none" stroke="black" points="163.5,-118.5 163.5,-137.5 274.5,-137.5 274.5,-118.5 163.5,-118.5"/>
<text text-anchor="middle" x="219" y="-125.5" font-family="Helvetica,sans-Serif" font-size="10.00">om/default_queue.hpp</text>
</a>
</g>
<!-- Node2&#45;&gt;Node3 -->
<g id="edge4" class="edge"><title>Node2&#45;&gt;Node3</title>
<path fill="none" stroke="midnightblue" d="M271.26,-180.403C261.838,-171.136 246.636,-156.183 235.051,-144.788"/>
<polygon fill="midnightblue" stroke="midnightblue" points="237.307,-142.098 227.724,-137.581 232.399,-147.088 237.307,-142.098"/>
</g>
<!-- Node8 -->
<g id="node17" class="node"><title>Node8</title>
<polygon fill="none" stroke="#bfbfbf" points="292.5,-113 292.5,-143 389.5,-143 389.5,-113 292.5,-113"/>
<text text-anchor="start" x="300.5" y="-131" font-family="Helvetica,sans-Serif" font-size="10.00">boost/ptr_container</text>
<text text-anchor="middle" x="341" y="-120" font-family="Helvetica,sans-Serif" font-size="10.00">/ptr_vector.hpp</text>
</g>
<!-- Node2&#45;&gt;Node8 -->
<g id="edge18" class="edge"><title>Node2&#45;&gt;Node8</title>
<path fill="none" stroke="midnightblue" d="M288.74,-180.403C296.693,-172.581 308.764,-160.708 319.302,-150.342"/>
<polygon fill="midnightblue" stroke="midnightblue" points="321.949,-152.648 326.624,-143.141 317.04,-147.658 321.949,-152.648"/>
</g>
<!-- Node4 -->
<g id="node7" class="node"><title>Node4</title>
<a xlink:href="queue_8hpp.html" target="_top" xlink:title="Om header file.">
<polygon fill="none" stroke="black" points="68,-56.5 68,-75.5 146,-75.5 146,-56.5 68,-56.5"/>
<text text-anchor="middle" x="107" y="-63.5" font-family="Helvetica,sans-Serif" font-size="10.00">om/queue.hpp</text>
</a>
</g>
<!-- Node3&#45;&gt;Node4 -->
<g id="edge6" class="edge"><title>Node3&#45;&gt;Node4</title>
<path fill="none" stroke="midnightblue" d="M202.953,-118.403C184.407,-108.468 153.66,-91.9966 131.978,-80.3812"/>
<polygon fill="midnightblue" stroke="midnightblue" points="133.485,-77.2177 123.017,-75.5806 130.179,-83.388 133.485,-77.2177"/>
</g>
<!-- Node7 -->
<g id="node14" class="node"><title>Node7</title>
<a xlink:href="default__queue_8cpp.html" target="_top" xlink:title="Om source file.">
<polygon fill="none" stroke="black" points="164,-56.5 164,-75.5 274,-75.5 274,-56.5 164,-56.5"/>
<text text-anchor="middle" x="219" y="-63.5" font-family="Helvetica,sans-Serif" font-size="10.00">om/default_queue.cpp</text>
</a>
</g>
<!-- Node3&#45;&gt;Node7 -->
<g id="edge14" class="edge"><title>Node3&#45;&gt;Node7</title>
<path fill="none" stroke="midnightblue" d="M214.099,-118.403C212.268,-109.938 211.797,-96.7283 212.685,-85.8199"/>
<polygon fill="midnightblue" stroke="midnightblue" points="216.198,-85.9661 214.103,-75.5806 209.264,-85.006 216.198,-85.9661"/>
</g>
<!-- Node5 -->
<g id="node9" class="node"><title>Node5</title>
<polygon fill="none" stroke="#bfbfbf" points="0,-0.5 0,-19.5 50,-19.5 50,-0.5 0,-0.5"/>
<text text-anchor="middle" x="25" y="-7.5" font-family="Helvetica,sans-Serif" font-size="10.00">memory</text>
</g>
<!-- Node4&#45;&gt;Node5 -->
<g id="edge8" class="edge"><title>Node4&#45;&gt;Node5</title>
<path fill="none" stroke="midnightblue" d="M93.8253,-56.324C81.1532,-47.979 61.7666,-35.2122 46.7944,-25.3524"/>
<polygon fill="midnightblue" stroke="midnightblue" points="48.4187,-22.2313 38.142,-19.6545 44.5688,-28.0776 48.4187,-22.2313"/>
</g>
<!-- Node6 -->
<g id="node11" class="node"><title>Node6</title>
<a xlink:href="queue_8cpp.html" target="_top" xlink:title="Om source file.">
<polygon fill="none" stroke="black" points="68.5,-0.5 68.5,-19.5 145.5,-19.5 145.5,-0.5 68.5,-0.5"/>
<text text-anchor="middle" x="107" y="-7.5" font-family="Helvetica,sans-Serif" font-size="10.00">om/queue.cpp</text>
</a>
</g>
<!-- Node4&#45;&gt;Node6 -->
<g id="edge10" class="edge"><title>Node4&#45;&gt;Node6</title>
<path fill="none" stroke="midnightblue" d="M101.834,-56.083C100.324,-48.9272 99.8938,-38.6353 100.542,-29.6911"/>
<polygon fill="midnightblue" stroke="midnightblue" points="104.015,-30.1262 101.869,-19.7511 97.0769,-29.2002 104.015,-30.1262"/>
</g>
<!-- Node6&#45;&gt;Node4 -->
<g id="edge12" class="edge"><title>Node6&#45;&gt;Node4</title>
<path fill="none" stroke="midnightblue" d="M112.131,-19.7511C113.657,-26.8579 114.104,-37.1357 113.472,-46.1005"/>
<polygon fill="midnightblue" stroke="midnightblue" points="109.993,-45.7134 112.166,-56.083 116.934,-46.6216 109.993,-45.7134"/>
</g>
<!-- Node7&#45;&gt;Node3 -->
<g id="edge16" class="edge"><title>Node7&#45;&gt;Node3</title>
<path fill="none" stroke="midnightblue" d="M223.897,-75.5806C225.73,-84.04 226.203,-97.2482 225.317,-108.16"/>
<polygon fill="midnightblue" stroke="midnightblue" points="221.803,-108.018 223.901,-118.403 228.737,-108.977 221.803,-108.018"/>
</g>
</g>
</svg>
