<?xml version="1.0" encoding="UTF-8" standalone="no"?>
<!DOCTYPE svg PUBLIC "-//W3C//DTD SVG 1.1//EN"
 "http://www.w3.org/Graphics/SVG/1.1/DTD/svg11.dtd">
<!-- Generated by graphviz version 2.36.0 (20140111.2315)
 -->
<!-- Title: om/language/operation/evaluate_operation.hpp Pages: 1 -->
<svg width="722pt" height="292pt"
 viewBox="0.00 0.00 722.00 292.00" xmlns="http://www.w3.org/2000/svg" xmlns:xlink="http://www.w3.org/1999/xlink">
<g id="graph0" class="graph" transform="scale(1 1) rotate(0) translate(4 288)">
<title>om/language/operation/evaluate_operation.hpp</title>
<!-- Node1 -->
<g id="node1" class="node"><title>Node1</title>
<g id="a_node1"><a xlink:title="Om header file.">
<polygon fill="#bfbfbf" stroke="black" points="519.345,-255 519.345,-283 642.655,-283 642.655,-255 519.345,-255"/>
<text text-anchor="start" x="527.345" y="-271" font-family="Helvetica,sans-Serif" font-size="10.00">om/language/operation</text>
<text text-anchor="middle" x="581" y="-261" font-family="Helvetica,sans-Serif" font-size="10.00">/evaluate_operation.hpp</text>
</a>
</g>
</g>
<!-- Node2 -->
<g id="node2" class="node"><title>Node2</title>
<g id="a_node2"><a xlink:href="default__incomplete__operation_8hpp.html" target="_top" xlink:title="Om header file.">
<polygon fill="none" stroke="black" points="150.276,-189 150.276,-217 319.724,-217 319.724,-189 150.276,-189"/>
<text text-anchor="start" x="158.276" y="-205" font-family="Helvetica,sans-Serif" font-size="10.00">om/language/operation</text>
<text text-anchor="middle" x="235" y="-195" font-family="Helvetica,sans-Serif" font-size="10.00">/default_incomplete_operation.hpp</text>
</a>
</g>
</g>
<!-- Node1&#45;&gt;Node2 -->
<g id="edge1" class="edge"><title>Node1&#45;&gt;Node2</title>
<path fill="none" stroke="midnightblue" d="M519.142,-256.558C462.339,-246.051 377.812,-230.416 315.715,-218.93"/>
<polygon fill="midnightblue" stroke="midnightblue" points="316.031,-215.429 305.561,-217.052 314.757,-222.312 316.031,-215.429"/>
</g>
<!-- Node8 -->
<g id="node8" class="node"><title>Node8</title>
<g id="a_node8"><a xlink:href="system_8hpp.html" target="_top" xlink:title="Om header file.">
<polygon fill="none" stroke="black" points="446.133,-194 446.133,-212 573.867,-212 573.867,-194 446.133,-194"/>
<text text-anchor="middle" x="510" y="-200" font-family="Helvetica,sans-Serif" font-size="10.00">om/language/system.hpp</text>
</a>
</g>
</g>
<!-- Node1&#45;&gt;Node8 -->
<g id="edge9" class="edge"><title>Node1&#45;&gt;Node8</title>
<path fill="none" stroke="midnightblue" d="M566.289,-254.739C554.804,-244.387 538.837,-229.994 526.842,-219.181"/>
<polygon fill="midnightblue" stroke="midnightblue" points="529.046,-216.456 519.275,-212.361 524.36,-221.656 529.046,-216.456"/>
</g>
<!-- Node14 -->
<g id="node14" class="node"><title>Node14</title>
<g id="a_node14"><a xlink:href="evaluate__operation_8cpp.html" target="_top" xlink:title="Om source file.">
<polygon fill="none" stroke="black" points="591.626,-189 591.626,-217 714.374,-217 714.374,-189 591.626,-189"/>
<text text-anchor="start" x="599.626" y="-205" font-family="Helvetica,sans-Serif" font-size="10.00">om/language/operation</text>
<text text-anchor="middle" x="653" y="-195" font-family="Helvetica,sans-Serif" font-size="10.00">/evaluate_operation.cpp</text>
</a>
</g>
</g>
<!-- Node1&#45;&gt;Node14 -->
<g id="edge18" class="edge"><title>Node1&#45;&gt;Node14</title>
<path fill="none" stroke="midnightblue" d="M590.326,-254.739C599.255,-245.669 612.727,-233.497 624.975,-223.349"/>
<polygon fill="midnightblue" stroke="midnightblue" points="627.217,-226.037 632.788,-217.025 622.813,-220.596 627.217,-226.037"/>
</g>
<!-- Node3 -->
<g id="node3" class="node"><title>Node3</title>
<g id="a_node3"><a xlink:href="incomplete__operation_8hpp.html" target="_top" xlink:title="Om header file.">
<polygon fill="none" stroke="black" points="-0.930664,-123 -0.930664,-151 132.931,-151 132.931,-123 -0.930664,-123"/>
<text text-anchor="start" x="7.06934" y="-139" font-family="Helvetica,sans-Serif" font-size="10.00">om/language/operation</text>
<text text-anchor="middle" x="66" y="-129" font-family="Helvetica,sans-Serif" font-size="10.00">/incomplete_operation.hpp</text>
</a>
</g>
</g>
<!-- Node2&#45;&gt;Node3 -->
<g id="edge2" class="edge"><title>Node2&#45;&gt;Node3</title>
<path fill="none" stroke="midnightblue" d="M200.393,-188.894C174.305,-179.015 138.332,-165.392 110.168,-154.726"/>
<polygon fill="midnightblue" stroke="midnightblue" points="111.153,-151.357 100.561,-151.088 108.674,-157.903 111.153,-151.357"/>
</g>
<!-- Node7 -->
<g id="node7" class="node"><title>Node7</title>
<g id="a_node7"><a xlink:href="default__incomplete__operation_8cpp.html" target="_top" xlink:title="Om source file.">
<polygon fill="none" stroke="black" points="150.557,-123 150.557,-151 319.443,-151 319.443,-123 150.557,-123"/>
<text text-anchor="start" x="158.557" y="-139" font-family="Helvetica,sans-Serif" font-size="10.00">om/language/operation</text>
<text text-anchor="middle" x="235" y="-129" font-family="Helvetica,sans-Serif" font-size="10.00">/default_incomplete_operation.cpp</text>
</a>
</g>
</g>
<!-- Node2&#45;&gt;Node7 -->
<g id="edge7" class="edge"><title>Node2&#45;&gt;Node7</title>
<path fill="none" stroke="midnightblue" d="M229.407,-188.739C228.298,-180.844 227.986,-170.6 228.472,-161.386"/>
<polygon fill="midnightblue" stroke="midnightblue" points="231.974,-161.524 229.41,-151.244 225.004,-160.879 231.974,-161.524"/>
</g>
<!-- Node4 -->
<g id="node4" class="node"><title>Node4</title>
<g id="a_node4"><a xlink:href="code__point_8hpp.html" target="_top" xlink:title="Om header file.">
<polygon fill="none" stroke="black" points="155.468,-62 155.468,-80 256.532,-80 256.532,-62 155.468,-62"/>
<text text-anchor="middle" x="206" y="-68" font-family="Helvetica,sans-Serif" font-size="10.00">om/code_point.hpp</text>
</a>
</g>
</g>
<!-- Node3&#45;&gt;Node4 -->
<g id="edge3" class="edge"><title>Node3&#45;&gt;Node4</title>
<path fill="none" stroke="midnightblue" d="M94.6689,-122.894C119.418,-111.58 154.907,-95.3569 179.12,-84.288"/>
<polygon fill="midnightblue" stroke="midnightblue" points="180.789,-87.3736 188.428,-80.0328 177.878,-81.0072 180.789,-87.3736"/>
</g>
<!-- Node6 -->
<g id="node6" class="node"><title>Node6</title>
<g id="a_node6"><a xlink:href="incomplete__operation_8cpp.html" target="_top" xlink:title="Om source file.">
<polygon fill="none" stroke="black" points="-0.649902,-57 -0.649902,-85 132.65,-85 132.65,-57 -0.649902,-57"/>
<text text-anchor="start" x="7.3501" y="-73" font-family="Helvetica,sans-Serif" font-size="10.00">om/language/operation</text>
<text text-anchor="middle" x="66" y="-63" font-family="Helvetica,sans-Serif" font-size="10.00">/incomplete_operation.cpp</text>
</a>
</g>
</g>
<!-- Node3&#45;&gt;Node6 -->
<g id="edge5" class="edge"><title>Node3&#45;&gt;Node6</title>
<path fill="none" stroke="midnightblue" d="M60.4073,-122.739C59.2976,-114.844 58.986,-104.6 59.4723,-95.3855"/>
<polygon fill="midnightblue" stroke="midnightblue" points="62.9743,-95.5236 60.4097,-85.2439 56.004,-94.8792 62.9743,-95.5236"/>
</g>
<!-- Node5 -->
<g id="node5" class="node"><title>Node5</title>
<g id="a_node5"><a xlink:title=" ">
<polygon fill="none" stroke="#bfbfbf" points="154.636,-1 154.636,-19 257.364,-19 257.364,-1 154.636,-1"/>
<text text-anchor="middle" x="206" y="-7" font-family="Helvetica,sans-Serif" font-size="10.00">boost/locale/utf.hpp</text>
</a>
</g>
</g>
<!-- Node4&#45;&gt;Node5 -->
<g id="edge4" class="edge"><title>Node4&#45;&gt;Node5</title>
<path fill="none" stroke="midnightblue" d="M206,-61.7963C206,-53.4303 206,-40.1713 206,-29.2974"/>
<polygon fill="midnightblue" stroke="midnightblue" points="209.5,-29.134 206,-19.134 202.5,-29.1341 209.5,-29.134"/>
</g>
<!-- Node6&#45;&gt;Node3 -->
<g id="edge6" class="edge"><title>Node6&#45;&gt;Node3</title>
<path fill="none" stroke="midnightblue" d="M71.5903,-85.2439C72.7011,-93.1352 73.0139,-103.379 72.5288,-112.595"/>
<polygon fill="midnightblue" stroke="midnightblue" points="69.0264,-112.46 71.5927,-122.739 75.9968,-113.103 69.0264,-112.46"/>
</g>
<!-- Node7&#45;&gt;Node2 -->
<g id="edge8" class="edge"><title>Node7&#45;&gt;Node2</title>
<path fill="none" stroke="midnightblue" d="M240.59,-151.244C241.701,-159.135 242.014,-169.379 241.529,-178.595"/>
<polygon fill="midnightblue" stroke="midnightblue" points="238.026,-178.46 240.593,-188.739 244.997,-179.103 238.026,-178.46"/>
</g>
<!-- Node9 -->
<g id="node9" class="node"><title>Node9</title>
<g id="a_node9"><a xlink:href="translator_8hpp.html" target="_top" xlink:title="Om header file.">
<polygon fill="none" stroke="black" points="337.399,-128 337.399,-146 474.601,-146 474.601,-128 337.399,-128"/>
<text text-anchor="middle" x="406" y="-134" font-family="Helvetica,sans-Serif" font-size="10.00">om/language/translator.hpp</text>
</a>
</g>
</g>
<!-- Node8&#45;&gt;Node9 -->
<g id="edge10" class="edge"><title>Node8&#45;&gt;Node9</title>
<path fill="none" stroke="midnightblue" d="M496.828,-193.894C479.402,-183.171 448.46,-164.129 427.591,-151.287"/>
<polygon fill="midnightblue" stroke="midnightblue" points="429.416,-148.3 419.065,-146.04 425.747,-154.262 429.416,-148.3"/>
</g>
<!-- Node12 -->
<g id="node12" class="node"><title>Node12</title>
<g id="a_node12"><a xlink:title=" ">
<polygon fill="none" stroke="#bfbfbf" points="492.273,-128 492.273,-146 527.727,-146 527.727,-128 492.273,-128"/>
<text text-anchor="middle" x="510" y="-134" font-family="Helvetica,sans-Serif" font-size="10.00">map</text>
</a>
</g>
</g>
<!-- Node8&#45;&gt;Node12 -->
<g id="edge15" class="edge"><title>Node8&#45;&gt;Node12</title>
<path fill="none" stroke="midnightblue" d="M510,-193.894C510,-184.52 510,-168.791 510,-156.402"/>
<polygon fill="midnightblue" stroke="midnightblue" points="513.5,-156.242 510,-146.242 506.5,-156.242 513.5,-156.242"/>
</g>
<!-- Node13 -->
<g id="node13" class="node"><title>Node13</title>
<g id="a_node13"><a xlink:href="system_8cpp.html" target="_top" xlink:title="Om source file.">
<polygon fill="none" stroke="black" points="545.414,-128 545.414,-146 672.586,-146 672.586,-128 545.414,-128"/>
<text text-anchor="middle" x="609" y="-134" font-family="Helvetica,sans-Serif" font-size="10.00">om/language/system.cpp</text>
</a>
</g>
</g>
<!-- Node8&#45;&gt;Node13 -->
<g id="edge16" class="edge"><title>Node8&#45;&gt;Node13</title>
<path fill="none" stroke="midnightblue" d="M517.865,-193.894C532.101,-183.123 561.446,-163.958 583.142,-151.114"/>
<polygon fill="midnightblue" stroke="midnightblue" points="585.005,-154.08 591.905,-146.04 581.497,-148.022 585.005,-154.08"/>
</g>
<!-- Node9&#45;&gt;Node4 -->
<g id="edge11" class="edge"><title>Node9&#45;&gt;Node4</title>
<path fill="none" stroke="midnightblue" d="M380.67,-127.894C345.205,-116.545 280.627,-95.8807 240.709,-83.1069"/>
<polygon fill="midnightblue" stroke="midnightblue" points="241.715,-79.7542 231.124,-80.0398 239.582,-86.4211 241.715,-79.7542"/>
</g>
<!-- Node10 -->
<g id="node10" class="node"><title>Node10</title>
<g id="a_node10"><a xlink:title=" ">
<polygon fill="none" stroke="#bfbfbf" points="278.773,-62 278.773,-80 319.227,-80 319.227,-62 278.773,-62"/>
<text text-anchor="middle" x="299" y="-68" font-family="Helvetica,sans-Serif" font-size="10.00">string</text>
</a>
</g>
</g>
<!-- Node9&#45;&gt;Node10 -->
<g id="edge12" class="edge"><title>Node9&#45;&gt;Node10</title>
<path fill="none" stroke="midnightblue" d="M392.448,-127.894C374.52,-117.171 342.685,-98.1291 321.214,-85.2868"/>
<polygon fill="midnightblue" stroke="midnightblue" points="322.82,-82.1693 312.442,-80.0398 319.227,-88.1767 322.82,-82.1693"/>
</g>
<!-- Node11 -->
<g id="node11" class="node"><title>Node11</title>
<g id="a_node11"><a xlink:href="translator_8cpp.html" target="_top" xlink:title="Om source file.">
<polygon fill="none" stroke="black" points="337.68,-62 337.68,-80 474.32,-80 474.32,-62 337.68,-62"/>
<text text-anchor="middle" x="406" y="-68" font-family="Helvetica,sans-Serif" font-size="10.00">om/language/translator.cpp</text>
</a>
</g>
</g>
<!-- Node9&#45;&gt;Node11 -->
<g id="edge13" class="edge"><title>Node9&#45;&gt;Node11</title>
<path fill="none" stroke="midnightblue" d="M401.327,-127.894C399.215,-118.52 398.714,-102.791 399.824,-90.4023"/>
<polygon fill="midnightblue" stroke="midnightblue" points="403.326,-90.6406 401.296,-80.242 396.398,-89.6365 403.326,-90.6406"/>
</g>
<!-- Node11&#45;&gt;Node9 -->
<g id="edge14" class="edge"><title>Node11&#45;&gt;Node9</title>
<path fill="none" stroke="midnightblue" d="M410.704,-80.242C412.8,-89.677 413.286,-105.421 412.16,-117.777"/>
<polygon fill="midnightblue" stroke="midnightblue" points="408.664,-117.492 410.673,-127.894 415.59,-118.51 408.664,-117.492"/>
</g>
<!-- Node13&#45;&gt;Node8 -->
<g id="edge17" class="edge"><title>Node13&#45;&gt;Node8</title>
<path fill="none" stroke="midnightblue" d="M601.222,-146.04C587.048,-156.777 557.718,-175.937 535.991,-188.807"/>
<polygon fill="midnightblue" stroke="midnightblue" points="534.109,-185.852 527.212,-193.894 537.619,-191.909 534.109,-185.852"/>
</g>
<!-- Node14&#45;&gt;Node1 -->
<g id="edge19" class="edge"><title>Node14&#45;&gt;Node1</title>
<path fill="none" stroke="midnightblue" d="M643.691,-217.244C634.826,-226.25 621.476,-238.32 609.291,-248.43"/>
<polygon fill="midnightblue" stroke="midnightblue" points="607.074,-245.722 601.511,-254.739 611.483,-251.159 607.074,-245.722"/>
</g>
</g>
</svg>
