<?xml version="1.0" encoding="UTF-8" standalone="no"?>
<!DOCTYPE svg PUBLIC "-//W3C//DTD SVG 1.1//EN"
 "http://www.w3.org/Graphics/SVG/1.1/DTD/svg11.dtd">
<!-- Generated by graphviz version 2.30.1 (20130221.2233)
 -->
<!-- Title: om/operations/expression_front_push_operation.hpp Pages: 1 -->
<svg width="297pt" height="182pt"
 viewBox="0.00 0.00 297.00 182.00" xmlns="http://www.w3.org/2000/svg" xmlns:xlink="http://www.w3.org/1999/xlink">
<g id="graph0" class="graph" transform="scale(1 1) rotate(0) translate(4 178)">
<title>om/operations/expression_front_push_operation.hpp</title>
<!-- Node1 -->
<g id="node1" class="node"><title>Node1</title>
<polygon fill="#bfbfbf" stroke="black" points="154.229,-141 154.229,-173 289.771,-173 289.771,-141 154.229,-141"/>
<text text-anchor="start" x="162.229" y="-159" font-family="Helvetica,sans-Serif" font-size="10.00">om/operations/expression</text>
<text text-anchor="middle" x="222" y="-147" font-family="Helvetica,sans-Serif" font-size="10.00">_front_push_operation.hpp</text>
</g>
<!-- Node2 -->
<g id="node2" class="node"><title>Node2</title>
<g id="a_node2"><a xlink:href="expression__back__push__operation_8cpp.html" target="_top" xlink:title="Om source file. ">
<polygon fill="none" stroke="black" points="-0.0463867,-71 -0.0463867,-103 136.046,-103 136.046,-71 -0.0463867,-71"/>
<text text-anchor="start" x="7.95361" y="-89" font-family="Helvetica,sans-Serif" font-size="10.00">om/operations/expression</text>
<text text-anchor="middle" x="68" y="-77" font-family="Helvetica,sans-Serif" font-size="10.00">_back_push_operation.cpp</text>
</a>
</g>
</g>
<!-- Node1&#45;&gt;Node2 -->
<g id="edge1" class="edge"><title>Node1&#45;&gt;Node2</title>
<path fill="none" stroke="midnightblue" d="M178.501,-136.793C154.291,-126.102 124.591,-112.988 102.082,-103.049"/>
<polygon fill="midnightblue" stroke="midnightblue" points="177.261,-140.071 187.822,-140.909 180.088,-133.667 177.261,-140.071"/>
</g>
<!-- Node4 -->
<g id="node4" class="node"><title>Node4</title>
<g id="a_node4"><a xlink:href="expression__front__push__operation_8cpp.html" target="_top" xlink:title="Om source file. ">
<polygon fill="none" stroke="black" points="154.51,-71 154.51,-103 289.49,-103 289.49,-71 154.51,-71"/>
<text text-anchor="start" x="162.51" y="-89" font-family="Helvetica,sans-Serif" font-size="10.00">om/operations/expression</text>
<text text-anchor="middle" x="222" y="-77" font-family="Helvetica,sans-Serif" font-size="10.00">_front_push_operation.cpp</text>
</a>
</g>
</g>
<!-- Node1&#45;&gt;Node4 -->
<g id="edge4" class="edge"><title>Node1&#45;&gt;Node4</title>
<path fill="none" stroke="midnightblue" d="M215.461,-130.92C215.009,-121.56 215.284,-111.229 216.285,-103.049"/>
<polygon fill="midnightblue" stroke="midnightblue" points="211.974,-131.228 216.28,-140.909 218.951,-130.656 211.974,-131.228"/>
</g>
<!-- Node3 -->
<g id="node3" class="node"><title>Node3</title>
<g id="a_node3"><a xlink:href="expression__back__push__operation_8hpp.html" target="_top" xlink:title="Om header file. ">
<polygon fill="none" stroke="black" points="-0.327148,-1 -0.327148,-33 136.327,-33 136.327,-1 -0.327148,-1"/>
<text text-anchor="start" x="7.67285" y="-19" font-family="Helvetica,sans-Serif" font-size="10.00">om/operations/expression</text>
<text text-anchor="middle" x="68" y="-7" font-family="Helvetica,sans-Serif" font-size="10.00">_back_push_operation.hpp</text>
</a>
</g>
</g>
<!-- Node2&#45;&gt;Node3 -->
<g id="edge2" class="edge"><title>Node2&#45;&gt;Node3</title>
<path fill="none" stroke="midnightblue" d="M61.4608,-60.9196C61.0088,-51.5597 61.2836,-41.2293 62.2851,-33.0492"/>
<polygon fill="midnightblue" stroke="midnightblue" points="57.9743,-61.2281 62.28,-70.9086 64.9509,-60.656 57.9743,-61.2281"/>
</g>
<!-- Node3&#45;&gt;Node2 -->
<g id="edge3" class="edge"><title>Node3&#45;&gt;Node2</title>
<path fill="none" stroke="midnightblue" d="M74.5368,-43.0321C74.9913,-52.3887 74.7191,-62.7211 73.72,-70.9086"/>
<polygon fill="midnightblue" stroke="midnightblue" points="78.0237,-42.7283 73.7149,-33.0492 71.0474,-43.3027 78.0237,-42.7283"/>
</g>
<!-- Node4&#45;&gt;Node1 -->
<g id="edge5" class="edge"><title>Node4&#45;&gt;Node1</title>
<path fill="none" stroke="midnightblue" d="M228.537,-113.032C228.991,-122.389 228.719,-132.721 227.72,-140.909"/>
<polygon fill="midnightblue" stroke="midnightblue" points="232.024,-112.728 227.715,-103.049 225.047,-113.303 232.024,-112.728"/>
</g>
</g>
</svg>
