<?xml version="1.0" encoding="UTF-8" standalone="no"?>
<!DOCTYPE svg PUBLIC "-//W3C//DTD SVG 1.1//EN"
 "http://www.w3.org/Graphics/SVG/1.1/DTD/svg11.dtd">
<!-- Generated by graphviz version 2.30.1 (20130221.2233)
 -->
<!-- Title: code/om/expression.cpp Pages: 1 -->
<svg width="651pt" height="228pt"
 viewBox="0.00 0.00 651.00 228.00" xmlns="http://www.w3.org/2000/svg" xmlns:xlink="http://www.w3.org/1999/xlink">
<g id="graph0" class="graph" transform="scale(1 1) rotate(0) translate(4 224)">
<title>code/om/expression.cpp</title>
<!-- Node1 -->
<g id="node1" class="node"><title>Node1</title>
<polygon fill="#bfbfbf" stroke="black" points="281.803,-199 281.803,-219 406.197,-219 406.197,-199 281.803,-199"/>
<text text-anchor="middle" x="344" y="-205" font-family="Helvetica,sans-Serif" font-size="10.00">code/om/expression.cpp</text>
</g>
<!-- Node2 -->
<g id="node2" class="node"><title>Node2</title>
<g id="a_node2"><a xlink:href="expression_8hpp.html" target="_top" xlink:title="Om header file.">
<polygon fill="none" stroke="black" points="281.522,-141 281.522,-161 406.478,-161 406.478,-141 281.522,-141"/>
<text text-anchor="middle" x="344" y="-147" font-family="Helvetica,sans-Serif" font-size="10.00">code/om/expression.hpp</text>
</a>
</g>
</g>
<!-- Node1&#45;&gt;Node2 -->
<g id="edge1" class="edge"><title>Node1&#45;&gt;Node2</title>
<path fill="none" stroke="midnightblue" d="M337.549,-188.707C336.886,-179.338 337.326,-168.526 338.869,-161.075"/>
<polygon fill="midnightblue" stroke="midnightblue" points="334.093,-189.278 338.834,-198.753 341.037,-188.389 334.093,-189.278"/>
</g>
<!-- Node3 -->
<g id="node3" class="node"><title>Node3</title>
<g id="a_node3"><a xlink:href="evaluation_8hpp.html" target="_top" xlink:title="Om header file.">
<polygon fill="none" stroke="black" points="-0.0932617,-77 -0.0932617,-97 122.093,-97 122.093,-77 -0.0932617,-77"/>
<text text-anchor="middle" x="61" y="-83" font-family="Helvetica,sans-Serif" font-size="10.00">code/om/evaluation.hpp</text>
</a>
</g>
</g>
<!-- Node2&#45;&gt;Node3 -->
<g id="edge2" class="edge"><title>Node2&#45;&gt;Node3</title>
<path fill="none" stroke="midnightblue" d="M291.55,-138.856C248.413,-129.647 185.703,-116.158 131,-104 121.021,-101.782 110.253,-99.3435 100.225,-97.053"/>
<polygon fill="midnightblue" stroke="midnightblue" points="291.023,-142.323 301.534,-140.986 292.484,-135.477 291.023,-142.323"/>
</g>
<!-- Node2&#45;&gt;Node1 -->
<g id="edge5" class="edge"><title>Node2&#45;&gt;Node1</title>
<path fill="none" stroke="midnightblue" d="M350.436,-171.078C351.116,-180.424 350.692,-191.25 349.166,-198.753"/>
<polygon fill="midnightblue" stroke="midnightblue" points="353.895,-170.538 349.131,-161.075 346.954,-171.444 353.895,-170.538"/>
</g>
<!-- Node5 -->
<g id="node5" class="node"><title>Node5</title>
<g id="a_node5"><a xlink:href="expression__operation_8hpp.html" target="_top" xlink:title="Om header file.">
<polygon fill="none" stroke="black" points="140.069,-71 140.069,-103 273.931,-103 273.931,-71 140.069,-71"/>
<text text-anchor="start" x="148.069" y="-89" font-family="Helvetica,sans-Serif" font-size="10.00">code/om/operations</text>
<text text-anchor="middle" x="207" y="-77" font-family="Helvetica,sans-Serif" font-size="10.00">/expression_operation.hpp</text>
</a>
</g>
</g>
<!-- Node2&#45;&gt;Node5 -->
<g id="edge6" class="edge"><title>Node2&#45;&gt;Node5</title>
<path fill="none" stroke="midnightblue" d="M314.949,-136.853C293.066,-126.95 263.035,-113.359 240.202,-103.026"/>
<polygon fill="midnightblue" stroke="midnightblue" points="313.525,-140.05 324.079,-140.985 316.412,-133.673 313.525,-140.05"/>
</g>
<!-- Node7 -->
<g id="node7" class="node"><title>Node7</title>
<g id="a_node7"><a xlink:href="fill__operation_8hpp.html" target="_top" xlink:title="Om header file.">
<polygon fill="none" stroke="black" points="292.084,-71 292.084,-103 395.916,-103 395.916,-71 292.084,-71"/>
<text text-anchor="start" x="300.084" y="-89" font-family="Helvetica,sans-Serif" font-size="10.00">code/om/operations</text>
<text text-anchor="middle" x="344" y="-77" font-family="Helvetica,sans-Serif" font-size="10.00">/fill_operation.hpp</text>
</a>
</g>
</g>
<!-- Node2&#45;&gt;Node7 -->
<g id="edge8" class="edge"><title>Node2&#45;&gt;Node7</title>
<path fill="none" stroke="midnightblue" d="M344,-130.775C344,-121.986 344,-111.715 344,-103.44"/>
<polygon fill="midnightblue" stroke="midnightblue" points="340.5,-130.852 344,-140.852 347.5,-130.852 340.5,-130.852"/>
</g>
<!-- Node9 -->
<g id="node9" class="node"><title>Node9</title>
<g id="a_node9"><a xlink:href="inject__operation_8hpp.html" target="_top" xlink:title="Om header file.">
<polygon fill="none" stroke="black" points="413.577,-71 413.577,-103 522.423,-103 522.423,-71 413.577,-71"/>
<text text-anchor="start" x="421.577" y="-89" font-family="Helvetica,sans-Serif" font-size="10.00">code/om/operations</text>
<text text-anchor="middle" x="468" y="-77" font-family="Helvetica,sans-Serif" font-size="10.00">/inject_operation.hpp</text>
</a>
</g>
</g>
<!-- Node2&#45;&gt;Node9 -->
<g id="edge11" class="edge"><title>Node2&#45;&gt;Node9</title>
<path fill="none" stroke="midnightblue" d="M371.097,-136.451C390.831,-126.585 417.561,-113.22 437.948,-103.026"/>
<polygon fill="midnightblue" stroke="midnightblue" points="369.41,-133.382 362.031,-140.985 372.54,-139.643 369.41,-133.382"/>
</g>
<!-- Node11 -->
<g id="node11" class="node"><title>Node11</title>
<g id="a_node11"><a xlink:href="skip__operation_8hpp.html" target="_top" xlink:title="Om header file.">
<polygon fill="none" stroke="black" points="540.084,-71 540.084,-103 643.916,-103 643.916,-71 540.084,-71"/>
<text text-anchor="start" x="548.084" y="-89" font-family="Helvetica,sans-Serif" font-size="10.00">code/om/operations</text>
<text text-anchor="middle" x="592" y="-77" font-family="Helvetica,sans-Serif" font-size="10.00">/skip_operation.hpp</text>
</a>
</g>
</g>
<!-- Node2&#45;&gt;Node11 -->
<g id="edge14" class="edge"><title>Node2&#45;&gt;Node11</title>
<path fill="none" stroke="midnightblue" d="M391.381,-138.557C429.212,-129.369 483.557,-116.057 531,-104 533.865,-103.272 536.804,-102.519 539.77,-101.756"/>
<polygon fill="midnightblue" stroke="midnightblue" points="390.544,-135.159 381.651,-140.918 392.194,-141.961 390.544,-135.159"/>
</g>
<!-- Node4 -->
<g id="node4" class="node"><title>Node4</title>
<g id="a_node4"><a xlink:href="evaluation_8cpp.html" target="_top" xlink:title="Om source file.">
<polygon fill="none" stroke="black" points="0.1875,-7 0.1875,-27 121.812,-27 121.812,-7 0.1875,-7"/>
<text text-anchor="middle" x="61" y="-13" font-family="Helvetica,sans-Serif" font-size="10.00">code/om/evaluation.cpp</text>
</a>
</g>
</g>
<!-- Node3&#45;&gt;Node4 -->
<g id="edge3" class="edge"><title>Node3&#45;&gt;Node4</title>
<path fill="none" stroke="midnightblue" d="M54.833,-66.5567C53.7261,-53.557 54.1954,-37.0574 56.2409,-27.0255"/>
<polygon fill="midnightblue" stroke="midnightblue" points="51.4125,-67.3836 56.2115,-76.8292 58.3503,-66.4525 51.4125,-67.3836"/>
</g>
<!-- Node4&#45;&gt;Node3 -->
<g id="edge4" class="edge"><title>Node4&#45;&gt;Node3</title>
<path fill="none" stroke="midnightblue" d="M67.1509,-37.2558C68.273,-50.2216 67.8189,-66.7353 65.7885,-76.8292"/>
<polygon fill="midnightblue" stroke="midnightblue" points="70.5753,-36.4624 65.7591,-27.0255 63.6392,-37.4061 70.5753,-36.4624"/>
</g>
<!-- Node6 -->
<g id="node6" class="node"><title>Node6</title>
<g id="a_node6"><a xlink:href="expression__operation_8cpp.html" target="_top" xlink:title="Om source file.">
<polygon fill="none" stroke="black" points="140.35,-1 140.35,-33 273.65,-33 273.65,-1 140.35,-1"/>
<text text-anchor="start" x="148.35" y="-19" font-family="Helvetica,sans-Serif" font-size="10.00">code/om/operations</text>
<text text-anchor="middle" x="207" y="-7" font-family="Helvetica,sans-Serif" font-size="10.00">/expression_operation.cpp</text>
</a>
</g>
</g>
<!-- Node5&#45;&gt;Node6 -->
<g id="edge7" class="edge"><title>Node5&#45;&gt;Node6</title>
<path fill="none" stroke="midnightblue" d="M207,-60.6174C207,-51.3378 207,-41.1413 207,-33.0492"/>
<polygon fill="midnightblue" stroke="midnightblue" points="203.5,-60.9086 207,-70.9086 210.5,-60.9086 203.5,-60.9086"/>
</g>
<!-- Node8 -->
<g id="node8" class="node"><title>Node8</title>
<g id="a_node8"><a xlink:href="fill__operation_8cpp.html" target="_top" xlink:title="Om source file.">
<polygon fill="none" stroke="black" points="292.084,-1 292.084,-33 395.916,-33 395.916,-1 292.084,-1"/>
<text text-anchor="start" x="300.084" y="-19" font-family="Helvetica,sans-Serif" font-size="10.00">code/om/operations</text>
<text text-anchor="middle" x="344" y="-7" font-family="Helvetica,sans-Serif" font-size="10.00">/fill_operation.cpp</text>
</a>
</g>
</g>
<!-- Node7&#45;&gt;Node8 -->
<g id="edge9" class="edge"><title>Node7&#45;&gt;Node8</title>
<path fill="none" stroke="midnightblue" d="M337.461,-60.9196C337.009,-51.5597 337.284,-41.2293 338.285,-33.0492"/>
<polygon fill="midnightblue" stroke="midnightblue" points="333.974,-61.2281 338.28,-70.9086 340.951,-60.656 333.974,-61.2281"/>
</g>
<!-- Node8&#45;&gt;Node7 -->
<g id="edge10" class="edge"><title>Node8&#45;&gt;Node7</title>
<path fill="none" stroke="midnightblue" d="M350.537,-43.0321C350.991,-52.3887 350.719,-62.7211 349.72,-70.9086"/>
<polygon fill="midnightblue" stroke="midnightblue" points="354.024,-42.7283 349.715,-33.0492 347.047,-43.3027 354.024,-42.7283"/>
</g>
<!-- Node10 -->
<g id="node10" class="node"><title>Node10</title>
<g id="a_node10"><a xlink:href="inject__operation_8cpp.html" target="_top" xlink:title="Om source file.">
<polygon fill="none" stroke="black" points="413.857,-1 413.857,-33 522.143,-33 522.143,-1 413.857,-1"/>
<text text-anchor="start" x="421.857" y="-19" font-family="Helvetica,sans-Serif" font-size="10.00">code/om/operations</text>
<text text-anchor="middle" x="468" y="-7" font-family="Helvetica,sans-Serif" font-size="10.00">/inject_operation.cpp</text>
</a>
</g>
</g>
<!-- Node9&#45;&gt;Node10 -->
<g id="edge12" class="edge"><title>Node9&#45;&gt;Node10</title>
<path fill="none" stroke="midnightblue" d="M461.461,-60.9196C461.009,-51.5597 461.284,-41.2293 462.285,-33.0492"/>
<polygon fill="midnightblue" stroke="midnightblue" points="457.974,-61.2281 462.28,-70.9086 464.951,-60.656 457.974,-61.2281"/>
</g>
<!-- Node10&#45;&gt;Node9 -->
<g id="edge13" class="edge"><title>Node10&#45;&gt;Node9</title>
<path fill="none" stroke="midnightblue" d="M474.537,-43.0321C474.991,-52.3887 474.719,-62.7211 473.72,-70.9086"/>
<polygon fill="midnightblue" stroke="midnightblue" points="478.024,-42.7283 473.715,-33.0492 471.047,-43.3027 478.024,-42.7283"/>
</g>
<!-- Node12 -->
<g id="node12" class="node"><title>Node12</title>
<g id="a_node12"><a xlink:href="skip__operation_8cpp.html" target="_top" xlink:title="Om source file.">
<polygon fill="none" stroke="black" points="540.084,-1 540.084,-33 643.916,-33 643.916,-1 540.084,-1"/>
<text text-anchor="start" x="548.084" y="-19" font-family="Helvetica,sans-Serif" font-size="10.00">code/om/operations</text>
<text text-anchor="middle" x="592" y="-7" font-family="Helvetica,sans-Serif" font-size="10.00">/skip_operation.cpp</text>
</a>
</g>
</g>
<!-- Node11&#45;&gt;Node12 -->
<g id="edge15" class="edge"><title>Node11&#45;&gt;Node12</title>
<path fill="none" stroke="midnightblue" d="M585.461,-60.9196C585.009,-51.5597 585.284,-41.2293 586.285,-33.0492"/>
<polygon fill="midnightblue" stroke="midnightblue" points="581.974,-61.2281 586.28,-70.9086 588.951,-60.656 581.974,-61.2281"/>
</g>
<!-- Node12&#45;&gt;Node11 -->
<g id="edge16" class="edge"><title>Node12&#45;&gt;Node11</title>
<path fill="none" stroke="midnightblue" d="M598.537,-43.0321C598.991,-52.3887 598.719,-62.7211 597.72,-70.9086"/>
<polygon fill="midnightblue" stroke="midnightblue" points="602.024,-42.7283 597.715,-33.0492 595.047,-43.3027 602.024,-42.7283"/>
</g>
</g>
</svg>
