<?xml version="1.0" encoding="UTF-8" standalone="no"?>
<!DOCTYPE svg PUBLIC "-//W3C//DTD SVG 1.1//EN"
 "http://www.w3.org/Graphics/SVG/1.1/DTD/svg11.dtd">
<!-- Generated by graphviz version 2.28.0 (20120817.0054)
 -->
<!-- Title: code/om/operations/expression_front_push_operation.hpp Pages: 1 -->
<svg width="124pt" height="128pt"
 viewBox="0.00 0.00 124.00 128.00" xmlns="http://www.w3.org/2000/svg" xmlns:xlink="http://www.w3.org/1999/xlink">
<g id="graph1" class="graph" transform="scale(1 1) rotate(0) translate(4 124)">
<title>code/om/operations/expression_front_push_operation.hpp</title>
<!-- Node1 -->
<g id="node1" class="node"><title>Node1</title>
<polygon fill="#bfbfbf" stroke="black" points="0,-78.5 0,-119.5 116,-119.5 116,-78.5 0,-78.5"/>
<text text-anchor="start" x="8" y="-107.5" font-family="Helvetica,sans-Serif" font-size="10.00">code/om/operations</text>
<text text-anchor="start" x="8" y="-96.5" font-family="Helvetica,sans-Serif" font-size="10.00">/expression_front_push</text>
<text text-anchor="middle" x="58" y="-85.5" font-family="Helvetica,sans-Serif" font-size="10.00">_operation.hpp</text>
</g>
<!-- Node2 -->
<g id="node3" class="node"><title>Node2</title>
<a xlink:href="expression__front__push__operation_8cpp.html" target="_top" xlink:title="Om cpp file.">
<polygon fill="none" stroke="black" points="0,-0.5 0,-41.5 116,-41.5 116,-0.5 0,-0.5"/>
<text text-anchor="start" x="8" y="-29.5" font-family="Helvetica,sans-Serif" font-size="10.00">code/om/operations</text>
<text text-anchor="start" x="8" y="-18.5" font-family="Helvetica,sans-Serif" font-size="10.00">/expression_front_push</text>
<text text-anchor="middle" x="58" y="-7.5" font-family="Helvetica,sans-Serif" font-size="10.00">_operation.cpp</text>
</a>
</g>
<!-- Node1&#45;&gt;Node2 -->
<g id="edge2" class="edge"><title>Node1&#45;&gt;Node2</title>
<path fill="none" stroke="midnightblue" d="M51.3951,-68.2965C51.0759,-59.3009 51.2834,-49.6532 52.0177,-41.5056"/>
<polygon fill="midnightblue" stroke="midnightblue" points="47.9106,-68.6593 52.0118,-78.4281 54.8977,-68.2339 47.9106,-68.6593"/>
</g>
<!-- Node2&#45;&gt;Node1 -->
<g id="edge4" class="edge"><title>Node2&#45;&gt;Node1</title>
<path fill="none" stroke="midnightblue" d="M64.6023,-51.6303C64.9244,-60.6224 64.7197,-70.2724 63.9882,-78.4281"/>
<polygon fill="midnightblue" stroke="midnightblue" points="68.0871,-51.2729 63.9823,-41.5056 61.1002,-51.7008 68.0871,-51.2729"/>
</g>
</g>
</svg>
