<?xml version="1.0" encoding="UTF-8" standalone="no"?>
<!DOCTYPE svg PUBLIC "-//W3C//DTD SVG 1.1//EN"
 "http://www.w3.org/Graphics/SVG/1.1/DTD/svg11.dtd">
<!-- Generated by graphviz version 2.28.0 (20120817.0054)
 -->
<!-- Title: code/om/operations/expression_front_push_operation.hpp Pages: 1 -->
<svg width="370pt" height="240pt"
 viewBox="0.00 0.00 370.00 240.00" xmlns="http://www.w3.org/2000/svg" xmlns:xlink="http://www.w3.org/1999/xlink">
<g id="graph1" class="graph" transform="scale(1 1) rotate(0) translate(4 236)">
<title>code/om/operations/expression_front_push_operation.hpp</title>
<!-- Node1 -->
<g id="node1" class="node"><title>Node1</title>
<polygon fill="#bfbfbf" stroke="black" points="246,-190.5 246,-231.5 362,-231.5 362,-190.5 246,-190.5"/>
<text text-anchor="start" x="254" y="-219.5" font-family="Helvetica,sans-Serif" font-size="10.00">code/om/operations</text>
<text text-anchor="start" x="254" y="-208.5" font-family="Helvetica,sans-Serif" font-size="10.00">/expression_front_push</text>
<text text-anchor="middle" x="304" y="-197.5" font-family="Helvetica,sans-Serif" font-size="10.00">_operation.hpp</text>
</g>
<!-- Node2 -->
<g id="node3" class="node"><title>Node2</title>
<a xlink:href="internal_8hpp.html" target="_top" xlink:title="code/om/internal.hpp">
<polygon fill="none" stroke="black" points="106,-123.5 106,-142.5 210,-142.5 210,-123.5 106,-123.5"/>
<text text-anchor="middle" x="158" y="-130.5" font-family="Helvetica,sans-Serif" font-size="10.00">code/om/internal.hpp</text>
</a>
</g>
<!-- Node1&#45;&gt;Node2 -->
<g id="edge2" class="edge"><title>Node1&#45;&gt;Node2</title>
<path fill="none" stroke="midnightblue" d="M257.419,-185.752C229.003,-170.961 194.414,-152.955 174.429,-142.552"/>
<polygon fill="midnightblue" stroke="midnightblue" points="255.915,-188.915 266.401,-190.428 259.147,-182.706 255.915,-188.915"/>
</g>
<!-- Node6 -->
<g id="node13" class="node"><title>Node6</title>
<a xlink:href="expression__front__push__operation_8cpp.html" target="_top" xlink:title="Om source file.">
<polygon fill="none" stroke="black" points="246,-112.5 246,-153.5 362,-153.5 362,-112.5 246,-112.5"/>
<text text-anchor="start" x="254" y="-141.5" font-family="Helvetica,sans-Serif" font-size="10.00">code/om/operations</text>
<text text-anchor="start" x="254" y="-130.5" font-family="Helvetica,sans-Serif" font-size="10.00">/expression_front_push</text>
<text text-anchor="middle" x="304" y="-119.5" font-family="Helvetica,sans-Serif" font-size="10.00">_operation.cpp</text>
</a>
</g>
<!-- Node1&#45;&gt;Node6 -->
<g id="edge14" class="edge"><title>Node1&#45;&gt;Node6</title>
<path fill="none" stroke="midnightblue" d="M297.395,-180.297C297.076,-171.301 297.283,-161.653 298.018,-153.506"/>
<polygon fill="midnightblue" stroke="midnightblue" points="293.911,-180.659 298.012,-190.428 300.898,-180.234 293.911,-180.659"/>
</g>
<!-- Node2&#45;&gt;Node2 -->
<g id="edge6" class="edge"><title>Node2&#45;&gt;Node2</title>
<path fill="none" stroke="midnightblue" d="M189.791,-144.518C209.385,-147.26 228,-143.421 228,-133 228,-120.818 202.564,-117.63 179.86,-123.436"/>
<polygon fill="midnightblue" stroke="midnightblue" points="190.348,-141.061 179.86,-142.564 188.997,-147.929 190.348,-141.061"/>
</g>
<!-- Node3 -->
<g id="node5" class="node"><title>Node3</title>
<a xlink:href="internal_8cpp.html" target="_top" xlink:title="code/om/internal.cpp">
<polygon fill="none" stroke="black" points="0,-56.5 0,-75.5 104,-75.5 104,-56.5 0,-56.5"/>
<text text-anchor="middle" x="52" y="-63.5" font-family="Helvetica,sans-Serif" font-size="10.00">code/om/internal.cpp</text>
</a>
</g>
<!-- Node2&#45;&gt;Node3 -->
<g id="edge4" class="edge"><title>Node2&#45;&gt;Node3</title>
<path fill="none" stroke="midnightblue" d="M135.075,-117.942C114.083,-105.07 83.6816,-86.4274 66.0691,-75.6273"/>
<polygon fill="midnightblue" stroke="midnightblue" points="133.35,-120.99 143.704,-123.234 137.009,-115.023 133.35,-120.99"/>
</g>
<!-- Node4 -->
<g id="node8" class="node"><title>Node4</title>
<a xlink:href="om_8hpp.html" target="_top" xlink:title="Om &quot;umbrella&quot; header file.">
<polygon fill="none" stroke="black" points="122,-56.5 122,-75.5 194,-75.5 194,-56.5 122,-56.5"/>
<text text-anchor="middle" x="158" y="-63.5" font-family="Helvetica,sans-Serif" font-size="10.00">code/om.hpp</text>
</a>
</g>
<!-- Node2&#45;&gt;Node4 -->
<g id="edge8" class="edge"><title>Node2&#45;&gt;Node4</title>
<path fill="none" stroke="midnightblue" d="M151.8,-113.037C150.736,-100.67 151.216,-85.1198 153.241,-75.6273"/>
<polygon fill="midnightblue" stroke="midnightblue" points="148.373,-113.808 153.211,-123.234 155.307,-112.848 148.373,-113.808"/>
</g>
<!-- Node4&#45;&gt;Node2 -->
<g id="edge10" class="edge"><title>Node4&#45;&gt;Node2</title>
<path fill="none" stroke="midnightblue" d="M164.184,-85.7829C165.264,-98.1183 164.798,-113.683 162.789,-123.234"/>
<polygon fill="midnightblue" stroke="midnightblue" points="167.615,-85.0438 162.759,-75.6273 160.683,-86.0167 167.615,-85.0438"/>
</g>
<!-- Node5 -->
<g id="node11" class="node"><title>Node5</title>
<a xlink:href="om_8cpp.html" target="_top" xlink:title="Om source file.">
<polygon fill="none" stroke="black" points="122.5,-0.5 122.5,-19.5 193.5,-19.5 193.5,-0.5 122.5,-0.5"/>
<text text-anchor="middle" x="158" y="-7.5" font-family="Helvetica,sans-Serif" font-size="10.00">code/om.cpp</text>
</a>
</g>
<!-- Node4&#45;&gt;Node5 -->
<g id="edge12" class="edge"><title>Node4&#45;&gt;Node5</title>
<path fill="none" stroke="midnightblue" d="M158,-45.8045C158,-36.9102 158,-26.7798 158,-19.7511"/>
<polygon fill="midnightblue" stroke="midnightblue" points="154.5,-46.083 158,-56.083 161.5,-46.083 154.5,-46.083"/>
</g>
<!-- Node6&#45;&gt;Node1 -->
<g id="edge16" class="edge"><title>Node6&#45;&gt;Node1</title>
<path fill="none" stroke="midnightblue" d="M310.602,-163.63C310.924,-172.622 310.72,-182.272 309.988,-190.428"/>
<polygon fill="midnightblue" stroke="midnightblue" points="314.087,-163.273 309.982,-153.506 307.1,-163.701 314.087,-163.273"/>
</g>
</g>
</svg>
