<?xml version="1.0" encoding="UTF-8" standalone="no"?>
<!DOCTYPE svg PUBLIC "-//W3C//DTD SVG 1.1//EN"
 "http://www.w3.org/Graphics/SVG/1.1/DTD/svg11.dtd">
<!-- Generated by graphviz version 2.28.0 (20120817.0054)
 -->
<!-- Title: code/external.hpp Pages: 1 -->
<svg width="2356pt" height="96pt"
 viewBox="0.00 0.00 2356.00 96.00" xmlns="http://www.w3.org/2000/svg" xmlns:xlink="http://www.w3.org/1999/xlink">
<g id="graph1" class="graph" transform="scale(1 1) rotate(0) translate(4 92)">
<title>code/external.hpp</title>
<!-- Node1 -->
<g id="node1" class="node"><title>Node1</title>
<polygon fill="#bfbfbf" stroke="black" points="960,-68.5 960,-87.5 1052,-87.5 1052,-68.5 960,-68.5"/>
<text text-anchor="middle" x="1006" y="-75.5" font-family="Helvetica,sans-Serif" font-size="10.00">code/external.hpp</text>
</g>
<!-- Node2 -->
<g id="node3" class="node"><title>Node2</title>
<polygon fill="none" stroke="#bfbfbf" points="-0.5,-6.5 -0.5,-25.5 46.5,-25.5 46.5,-6.5 -0.5,-6.5"/>
<text text-anchor="middle" x="23" y="-13.5" font-family="Helvetica,sans-Serif" font-size="10.00">cassert</text>
</g>
<!-- Node1&#45;&gt;Node2 -->
<g id="edge2" class="edge"><title>Node1&#45;&gt;Node2</title>
<path fill="none" stroke="midnightblue" d="M959.847,-77.1131C794.244,-77.1623 230.545,-74.1557 56,-32 53.3389,-31.3573 50.6294,-30.4999 47.9647,-29.5194"/>
<polygon fill="midnightblue" stroke="midnightblue" points="49.2501,-26.2629 38.6766,-25.5918 46.5238,-32.7102 49.2501,-26.2629"/>
</g>
<!-- Node3 -->
<g id="node5" class="node"><title>Node3</title>
<polygon fill="none" stroke="#bfbfbf" points="65,-6.5 65,-25.5 117,-25.5 117,-6.5 65,-6.5"/>
<text text-anchor="middle" x="91" y="-13.5" font-family="Helvetica,sans-Serif" font-size="10.00">iostream</text>
</g>
<!-- Node1&#45;&gt;Node3 -->
<g id="edge4" class="edge"><title>Node1&#45;&gt;Node3</title>
<path fill="none" stroke="midnightblue" d="M959.775,-76.7806C802.181,-75.6982 286.847,-69.3207 126,-32 123.102,-31.3276 120.141,-30.4281 117.23,-29.4021"/>
<polygon fill="midnightblue" stroke="midnightblue" points="118.265,-26.0465 107.681,-25.5729 115.66,-32.5435 118.265,-26.0465"/>
</g>
<!-- Node4 -->
<g id="node7" class="node"><title>Node4</title>
<polygon fill="none" stroke="#bfbfbf" points="135,-6.5 135,-25.5 179,-25.5 179,-6.5 135,-6.5"/>
<text text-anchor="middle" x="157" y="-13.5" font-family="Helvetica,sans-Serif" font-size="10.00">iterator</text>
</g>
<!-- Node1&#45;&gt;Node4 -->
<g id="edge6" class="edge"><title>Node1&#45;&gt;Node4</title>
<path fill="none" stroke="midnightblue" d="M959.861,-76.8421C809.617,-75.9562 335.605,-70.1318 188,-32 185.656,-31.3943 183.277,-30.6049 180.934,-29.705"/>
<polygon fill="midnightblue" stroke="midnightblue" points="182.237,-26.4538 171.679,-25.5715 179.382,-32.8453 182.237,-26.4538"/>
</g>
<!-- Node5 -->
<g id="node9" class="node"><title>Node5</title>
<polygon fill="none" stroke="#bfbfbf" points="197,-6.5 197,-25.5 247,-25.5 247,-6.5 197,-6.5"/>
<text text-anchor="middle" x="222" y="-13.5" font-family="Helvetica,sans-Serif" font-size="10.00">memory</text>
</g>
<!-- Node1&#45;&gt;Node5 -->
<g id="edge8" class="edge"><title>Node1&#45;&gt;Node5</title>
<path fill="none" stroke="midnightblue" d="M959.812,-76.3666C818.045,-74.0864 390.619,-64.6169 256,-32 253.178,-31.3163 250.298,-30.4096 247.467,-29.3792"/>
<polygon fill="midnightblue" stroke="midnightblue" points="248.767,-26.1293 238.188,-25.5448 246.093,-32.5987 248.767,-26.1293"/>
</g>
<!-- Node6 -->
<g id="node11" class="node"><title>Node6</title>
<polygon fill="none" stroke="#bfbfbf" points="265.5,-6.5 265.5,-25.5 304.5,-25.5 304.5,-6.5 265.5,-6.5"/>
<text text-anchor="middle" x="285" y="-13.5" font-family="Helvetica,sans-Serif" font-size="10.00">stack</text>
</g>
<!-- Node1&#45;&gt;Node6 -->
<g id="edge10" class="edge"><title>Node1&#45;&gt;Node6</title>
<path fill="none" stroke="midnightblue" d="M959.76,-76.457C825.273,-74.4893 436.084,-65.9378 314,-32 312.034,-31.4535 310.047,-30.764 308.085,-29.9826"/>
<polygon fill="midnightblue" stroke="midnightblue" points="309.218,-26.6472 298.68,-25.546 306.231,-32.9781 309.218,-26.6472"/>
</g>
<!-- Node7 -->
<g id="node13" class="node"><title>Node7</title>
<polygon fill="none" stroke="#bfbfbf" points="323,-6.5 323,-25.5 381,-25.5 381,-6.5 323,-6.5"/>
<text text-anchor="middle" x="352" y="-13.5" font-family="Helvetica,sans-Serif" font-size="10.00">stdexcept</text>
</g>
<!-- Node1&#45;&gt;Node7 -->
<g id="edge12" class="edge"><title>Node1&#45;&gt;Node7</title>
<path fill="none" stroke="midnightblue" d="M959.727,-75.4326C835.8,-70.9462 498.46,-56.7601 390,-32 386.75,-31.2581 383.413,-30.283 380.129,-29.1853"/>
<polygon fill="midnightblue" stroke="midnightblue" points="381.177,-25.8406 370.584,-25.6354 378.737,-32.4016 381.177,-25.8406"/>
</g>
<!-- Node8 -->
<g id="node15" class="node"><title>Node8</title>
<polygon fill="none" stroke="#bfbfbf" points="399,-6.5 399,-25.5 437,-25.5 437,-6.5 399,-6.5"/>
<text text-anchor="middle" x="418" y="-13.5" font-family="Helvetica,sans-Serif" font-size="10.00">string</text>
</g>
<!-- Node1&#45;&gt;Node8 -->
<g id="edge14" class="edge"><title>Node1&#45;&gt;Node8</title>
<path fill="none" stroke="midnightblue" d="M959.599,-75.7118C843.316,-72.0938 541.913,-60.2041 446,-32 444.095,-31.4399 442.173,-30.7407 440.275,-29.9526"/>
<polygon fill="midnightblue" stroke="midnightblue" points="441.709,-26.7579 431.189,-25.5037 438.631,-33.0447 441.709,-26.7579"/>
</g>
<!-- Node9 -->
<g id="node17" class="node"><title>Node9</title>
<polygon fill="none" stroke="#bfbfbf" points="455,-6.5 455,-25.5 583,-25.5 583,-6.5 455,-6.5"/>
<text text-anchor="middle" x="519" y="-13.5" font-family="Helvetica,sans-Serif" font-size="10.00">boost/checked_delete.hpp</text>
</g>
<!-- Node1&#45;&gt;Node9 -->
<g id="edge16" class="edge"><title>Node1&#45;&gt;Node9</title>
<path fill="none" stroke="midnightblue" d="M959.866,-73.4168C883.202,-67.1422 724.853,-52.822 592,-32 583.912,-30.7324 575.363,-29.1751 567.074,-27.5487"/>
<polygon fill="midnightblue" stroke="midnightblue" points="567.636,-24.0916 557.142,-25.5454 566.252,-30.9535 567.636,-24.0916"/>
</g>
<!-- Node10 -->
<g id="node19" class="node"><title>Node10</title>
<polygon fill="none" stroke="#bfbfbf" points="601.5,-6.5 601.5,-25.5 716.5,-25.5 716.5,-6.5 601.5,-6.5"/>
<text text-anchor="middle" x="659" y="-13.5" font-family="Helvetica,sans-Serif" font-size="10.00">boost/integer_traits.hpp</text>
</g>
<!-- Node1&#45;&gt;Node10 -->
<g id="edge18" class="edge"><title>Node1&#45;&gt;Node10</title>
<path fill="none" stroke="midnightblue" d="M959.596,-70.508C903.749,-62.4786 807.219,-47.9091 725,-32 718.334,-30.7102 711.315,-29.2384 704.442,-27.7326"/>
<polygon fill="midnightblue" stroke="midnightblue" points="705.056,-24.2837 694.534,-25.5192 703.53,-31.1153 705.056,-24.2837"/>
</g>
<!-- Node11 -->
<g id="node21" class="node"><title>Node11</title>
<polygon fill="none" stroke="#bfbfbf" points="734.5,-6.5 734.5,-25.5 847.5,-25.5 847.5,-6.5 734.5,-6.5"/>
<text text-anchor="middle" x="791" y="-13.5" font-family="Helvetica,sans-Serif" font-size="10.00">boost/intrusive_ptr.hpp</text>
</g>
<!-- Node1&#45;&gt;Node11 -->
<g id="edge20" class="edge"><title>Node1&#45;&gt;Node11</title>
<path fill="none" stroke="midnightblue" d="M975.196,-68.4035C937.438,-57.8663 873.339,-39.9783 831.591,-28.3276"/>
<polygon fill="midnightblue" stroke="midnightblue" points="832.32,-24.8975 821.747,-25.5806 830.438,-31.6398 832.32,-24.8975"/>
</g>
<!-- Node12 -->
<g id="node23" class="node"><title>Node12</title>
<polygon fill="none" stroke="#bfbfbf" points="865.5,-6.5 865.5,-25.5 996.5,-25.5 996.5,-6.5 865.5,-6.5"/>
<text text-anchor="middle" x="931" y="-13.5" font-family="Helvetica,sans-Serif" font-size="10.00">boost/locale/boundary.hpp</text>
</g>
<!-- Node1&#45;&gt;Node12 -->
<g id="edge22" class="edge"><title>Node1&#45;&gt;Node12</title>
<path fill="none" stroke="midnightblue" d="M995.254,-68.4035C983.447,-58.9579 964.257,-43.6056 949.918,-32.1342"/>
<polygon fill="midnightblue" stroke="midnightblue" points="951.721,-29.0945 941.726,-25.5806 947.348,-34.5606 951.721,-29.0945"/>
</g>
<!-- Node13 -->
<g id="node25" class="node"><title>Node13</title>
<polygon fill="none" stroke="#bfbfbf" points="1014.5,-6.5 1014.5,-25.5 1149.5,-25.5 1149.5,-6.5 1014.5,-6.5"/>
<text text-anchor="middle" x="1082" y="-13.5" font-family="Helvetica,sans-Serif" font-size="10.00">boost/locale/conversion.hpp</text>
</g>
<!-- Node1&#45;&gt;Node13 -->
<g id="edge24" class="edge"><title>Node1&#45;&gt;Node13</title>
<path fill="none" stroke="midnightblue" d="M1016.89,-68.4035C1028.97,-58.8688 1048.67,-43.3154 1063.24,-31.8106"/>
<polygon fill="midnightblue" stroke="midnightblue" points="1065.45,-34.5242 1071.13,-25.5806 1061.11,-29.03 1065.45,-34.5242"/>
</g>
<!-- Node14 -->
<g id="node27" class="node"><title>Node14</title>
<polygon fill="none" stroke="#bfbfbf" points="1168,-6.5 1168,-25.5 1296,-25.5 1296,-6.5 1168,-6.5"/>
<text text-anchor="middle" x="1232" y="-13.5" font-family="Helvetica,sans-Serif" font-size="10.00">boost/locale/encoding.hpp</text>
</g>
<!-- Node1&#45;&gt;Node14 -->
<g id="edge26" class="edge"><title>Node1&#45;&gt;Node14</title>
<path fill="none" stroke="midnightblue" d="M1038.38,-68.4035C1078.24,-57.8217 1146.02,-39.8269 1189.89,-28.1802"/>
<polygon fill="midnightblue" stroke="midnightblue" points="1190.91,-31.5295 1199.68,-25.5806 1189.12,-24.7638 1190.91,-31.5295"/>
</g>
<!-- Node15 -->
<g id="node29" class="node"><title>Node15</title>
<polygon fill="none" stroke="#bfbfbf" points="1314.5,-6.5 1314.5,-25.5 1443.5,-25.5 1443.5,-6.5 1314.5,-6.5"/>
<text text-anchor="middle" x="1379" y="-13.5" font-family="Helvetica,sans-Serif" font-size="10.00">boost/locale/generator.hpp</text>
</g>
<!-- Node1&#45;&gt;Node15 -->
<g id="edge28" class="edge"><title>Node1&#45;&gt;Node15</title>
<path fill="none" stroke="midnightblue" d="M1052.22,-70.7837C1111.07,-62.6986 1215.83,-47.738 1305,-32 1312.72,-30.6384 1320.86,-29.095 1328.82,-27.5289"/>
<polygon fill="midnightblue" stroke="midnightblue" points="1329.62,-30.9368 1338.74,-25.545 1328.25,-24.0725 1329.62,-30.9368"/>
</g>
<!-- Node16 -->
<g id="node31" class="node"><title>Node16</title>
<polygon fill="none" stroke="#bfbfbf" points="1462,-6.5 1462,-25.5 1562,-25.5 1562,-6.5 1462,-6.5"/>
<text text-anchor="middle" x="1512" y="-13.5" font-family="Helvetica,sans-Serif" font-size="10.00">boost/locale/utf.hpp</text>
</g>
<!-- Node1&#45;&gt;Node16 -->
<g id="edge30" class="edge"><title>Node1&#45;&gt;Node16</title>
<path fill="none" stroke="midnightblue" d="M1052.21,-74.5432C1133.52,-69.7301 1307.29,-57.2522 1452,-32 1458.32,-30.8977 1464.95,-29.4934 1471.41,-27.988"/>
<polygon fill="midnightblue" stroke="midnightblue" points="1472.46,-31.3346 1481.35,-25.568 1470.81,-24.5333 1472.46,-31.3346"/>
</g>
<!-- Node17 -->
<g id="node33" class="node"><title>Node17</title>
<polygon fill="none" stroke="#bfbfbf" points="1580,-6.5 1580,-25.5 1676,-25.5 1676,-6.5 1580,-6.5"/>
<text text-anchor="middle" x="1628" y="-13.5" font-family="Helvetica,sans-Serif" font-size="10.00">boost/optional.hpp</text>
</g>
<!-- Node1&#45;&gt;Node17 -->
<g id="edge32" class="edge"><title>Node1&#45;&gt;Node17</title>
<path fill="none" stroke="midnightblue" d="M1052.11,-76.0989C1148.92,-73.6009 1380.13,-64.4492 1571,-32 1577.01,-30.9782 1583.31,-29.6196 1589.44,-28.1362"/>
<polygon fill="midnightblue" stroke="midnightblue" points="1590.69,-31.4287 1599.51,-25.5596 1588.96,-24.6471 1590.69,-31.4287"/>
</g>
<!-- Node18 -->
<g id="node35" class="node"><title>Node18</title>
<polygon fill="none" stroke="#bfbfbf" points="1694.5,-1 1694.5,-31 1791.5,-31 1791.5,-1 1694.5,-1"/>
<text text-anchor="start" x="1702.5" y="-19" font-family="Helvetica,sans-Serif" font-size="10.00">boost/ptr_container</text>
<text text-anchor="middle" x="1743" y="-8" font-family="Helvetica,sans-Serif" font-size="10.00">/ptr_deque.hpp</text>
</g>
<!-- Node1&#45;&gt;Node18 -->
<g id="edge34" class="edge"><title>Node1&#45;&gt;Node18</title>
<path fill="none" stroke="midnightblue" d="M1052.03,-76.9045C1160.63,-76.0475 1441.28,-70.1439 1684.32,-31.8806"/>
<polygon fill="midnightblue" stroke="midnightblue" points="1685.08,-35.3035 1694.41,-30.2707 1683.98,-28.391 1685.08,-35.3035"/>
</g>
<!-- Node19 -->
<g id="node37" class="node"><title>Node19</title>
<polygon fill="none" stroke="#bfbfbf" points="1809.5,-1 1809.5,-31 1906.5,-31 1906.5,-1 1809.5,-1"/>
<text text-anchor="start" x="1817.5" y="-19" font-family="Helvetica,sans-Serif" font-size="10.00">boost/ptr_container</text>
<text text-anchor="middle" x="1858" y="-8" font-family="Helvetica,sans-Serif" font-size="10.00">/ptr_map.hpp</text>
</g>
<!-- Node1&#45;&gt;Node19 -->
<g id="edge36" class="edge"><title>Node1&#45;&gt;Node19</title>
<path fill="none" stroke="midnightblue" d="M1052.43,-77.538C1173.82,-78.2705 1510.62,-75.9735 1799.17,-31.891"/>
<polygon fill="midnightblue" stroke="midnightblue" points="1800.06,-35.2939 1809.41,-30.3052 1798.99,-28.3764 1800.06,-35.2939"/>
</g>
<!-- Node20 -->
<g id="node39" class="node"><title>Node20</title>
<polygon fill="none" stroke="#bfbfbf" points="1924.5,-1 1924.5,-31 2021.5,-31 2021.5,-1 1924.5,-1"/>
<text text-anchor="start" x="1932.5" y="-19" font-family="Helvetica,sans-Serif" font-size="10.00">boost/ptr_container</text>
<text text-anchor="middle" x="1973" y="-8" font-family="Helvetica,sans-Serif" font-size="10.00">/ptr_vector.hpp</text>
</g>
<!-- Node1&#45;&gt;Node20 -->
<g id="edge38" class="edge"><title>Node1&#45;&gt;Node20</title>
<path fill="none" stroke="midnightblue" d="M1052.17,-75.9575C1209.79,-72.2076 1726.77,-58.2904 1914.4,-31.8056"/>
<polygon fill="midnightblue" stroke="midnightblue" points="1915.03,-35.25 1924.41,-30.3309 1914.01,-28.3247 1915.03,-35.25"/>
</g>
<!-- Node21 -->
<g id="node41" class="node"><title>Node21</title>
<polygon fill="none" stroke="#bfbfbf" points="2039.5,-6.5 2039.5,-25.5 2112.5,-25.5 2112.5,-6.5 2039.5,-6.5"/>
<text text-anchor="middle" x="2076" y="-13.5" font-family="Helvetica,sans-Serif" font-size="10.00">boost/ref.hpp</text>
</g>
<!-- Node1&#45;&gt;Node21 -->
<g id="edge40" class="edge"><title>Node1&#45;&gt;Node21</title>
<path fill="none" stroke="midnightblue" d="M1052.27,-76.6298C1225.89,-74.9827 1838.39,-66.7816 2030,-32 2034.59,-31.1674 2039.35,-29.9907 2043.99,-28.6584"/>
<polygon fill="midnightblue" stroke="midnightblue" points="2045.36,-31.8976 2053.85,-25.5661 2043.26,-25.2182 2045.36,-31.8976"/>
</g>
<!-- Node22 -->
<g id="node43" class="node"><title>Node22</title>
<polygon fill="none" stroke="#bfbfbf" points="2131,-6.5 2131,-25.5 2241,-25.5 2241,-6.5 2131,-6.5"/>
<text text-anchor="middle" x="2186" y="-13.5" font-family="Helvetica,sans-Serif" font-size="10.00">boost/scoped_ptr.hpp</text>
</g>
<!-- Node1&#45;&gt;Node22 -->
<g id="edge42" class="edge"><title>Node1&#45;&gt;Node22</title>
<path fill="none" stroke="midnightblue" d="M1052.17,-76.2849C1235.09,-73.2737 1909.31,-60.4442 2121,-32 2128.66,-30.9705 2136.75,-29.4581 2144.51,-27.7846"/>
<polygon fill="midnightblue" stroke="midnightblue" points="2145.5,-31.1489 2154.48,-25.5188 2143.95,-24.3231 2145.5,-31.1489"/>
</g>
<!-- Node23 -->
<g id="node45" class="node"><title>Node23</title>
<polygon fill="none" stroke="#bfbfbf" points="2259.5,-6.5 2259.5,-25.5 2348.5,-25.5 2348.5,-6.5 2259.5,-6.5"/>
<text text-anchor="middle" x="2304" y="-13.5" font-family="Helvetica,sans-Serif" font-size="10.00">boost/swap.hpp</text>
</g>
<!-- Node1&#45;&gt;Node23 -->
<g id="edge44" class="edge"><title>Node1&#45;&gt;Node23</title>
<path fill="none" stroke="midnightblue" d="M1052.13,-76.779C1248.09,-75.6175 2012.4,-68.7731 2250,-32 2255.98,-31.0752 2262.23,-29.7156 2268.28,-28.1867"/>
<polygon fill="midnightblue" stroke="midnightblue" points="2269.44,-31.4977 2278.18,-25.5008 2267.61,-24.7421 2269.44,-31.4977"/>
</g>
</g>
</svg>
