<?xml version="1.0" encoding="UTF-8" standalone="no"?>
<!DOCTYPE svg PUBLIC "-//W3C//DTD SVG 1.1//EN"
 "http://www.w3.org/Graphics/SVG/1.1/DTD/svg11.dtd">
<!-- Generated by graphviz version 2.36.0 (20140111.2315)
 -->
<!-- Title: om/operation/fill_operation.cpp Pages: 1 -->
<svg width="160pt" height="84pt"
 viewBox="0.00 0.00 160.00 84.00" xmlns="http://www.w3.org/2000/svg" xmlns:xlink="http://www.w3.org/1999/xlink">
<g id="graph0" class="graph" transform="scale(1 1) rotate(0) translate(4 80)">
<title>om/operation/fill_operation.cpp</title>
<!-- Node1 -->
<g id="node1" class="node"><title>Node1</title>
<polygon fill="#bfbfbf" stroke="black" points="-0.376465,-57 -0.376465,-75 152.376,-75 152.376,-57 -0.376465,-57"/>
<text text-anchor="middle" x="76" y="-63" font-family="Helvetica,sans-Serif" font-size="10.00">om/operation/fill_operation.cpp</text>
</g>
<!-- Node2 -->
<g id="node2" class="node"><title>Node2</title>
<g id="a_node2"><a xlink:href="fill__operation_8hpp.html" target="_top" xlink:title="Om header file. ">
<polygon fill="none" stroke="black" points="-0.657227,-1 -0.657227,-19 152.657,-19 152.657,-1 -0.657227,-1"/>
<text text-anchor="middle" x="76" y="-7" font-family="Helvetica,sans-Serif" font-size="10.00">om/operation/fill_operation.hpp</text>
</a>
</g>
</g>
<!-- Node1&#45;&gt;Node2 -->
<g id="edge1" class="edge"><title>Node1&#45;&gt;Node2</title>
<path fill="none" stroke="midnightblue" d="M69.5665,-46.6333C68.8607,-37.3129 69.3354,-26.4586 70.9906,-19.2014"/>
<polygon fill="midnightblue" stroke="midnightblue" points="66.1026,-47.1352 70.9375,-56.5625 73.0368,-46.1777 66.1026,-47.1352"/>
</g>
<!-- Node2&#45;&gt;Node1 -->
<g id="edge2" class="edge"><title>Node2&#45;&gt;Node1</title>
<path fill="none" stroke="midnightblue" d="M82.4336,-29.3691C83.1317,-38.5884 82.6746,-49.308 81.0625,-56.5625"/>
<polygon fill="midnightblue" stroke="midnightblue" points="85.8629,-28.6192 81.0094,-19.2014 78.9305,-29.5903 85.8629,-28.6192"/>
</g>
</g>
</svg>
