<?xml version="1.0" encoding="UTF-8" standalone="no"?>
<!DOCTYPE svg PUBLIC "-//W3C//DTD SVG 1.1//EN"
 "http://www.w3.org/Graphics/SVG/1.1/DTD/svg11.dtd">
<!-- Generated by graphviz version 2.30.1 (20130221.2233)
 -->
<!-- Title: code/om/operations/front_pull_separator_operation.cpp Pages: 1 -->
<svg width="158pt" height="240pt"
 viewBox="0.00 0.00 158.00 240.00" xmlns="http://www.w3.org/2000/svg" xmlns:xlink="http://www.w3.org/1999/xlink">
<g id="graph0" class="graph" transform="scale(1 1) rotate(0) translate(4 236)">
<title>code/om/operations/front_pull_separator_operation.cpp</title>
<!-- Node1 -->
<g id="node1" class="node"><title>Node1</title>
<polygon fill="#bfbfbf" stroke="black" points="21.1382,-187 21.1382,-231 128.862,-231 128.862,-187 21.1382,-187"/>
<text text-anchor="start" x="29.1382" y="-217" font-family="Helvetica,sans-Serif" font-size="10.00">code/om/operations</text>
<text text-anchor="start" x="29.1382" y="-205" font-family="Helvetica,sans-Serif" font-size="10.00">/front_pull_separator</text>
<text text-anchor="middle" x="75" y="-193" font-family="Helvetica,sans-Serif" font-size="10.00">_operation.cpp</text>
</g>
<!-- Node2 -->
<g id="node2" class="node"><title>Node2</title>
<g id="a_node2"><a xlink:href="front__pull__separator__operation_8hpp.html" target="_top" xlink:title="Om header file.">
<polygon fill="none" stroke="black" points="-0.82959,-117 -0.82959,-149 150.83,-149 150.83,-117 -0.82959,-117"/>
<text text-anchor="start" x="7.17041" y="-135" font-family="Helvetica,sans-Serif" font-size="10.00">om/operations/front</text>
<text text-anchor="middle" x="75" y="-123" font-family="Helvetica,sans-Serif" font-size="10.00">_pull_separator_operation.hpp</text>
</a>
</g>
</g>
<!-- Node1&#45;&gt;Node2 -->
<g id="edge1" class="edge"><title>Node1&#45;&gt;Node2</title>
<path fill="none" stroke="midnightblue" d="M68.8449,-186.993C68.1713,-178.487 68.0697,-168.584 68.5402,-159.657"/>
<polygon fill="midnightblue" stroke="midnightblue" points="72.0514,-159.669 69.3977,-149.412 65.0758,-159.085 72.0514,-159.669"/>
</g>
<!-- Node3 -->
<g id="node3" class="node"><title>Node3</title>
<g id="a_node3"><a xlink:href="definition_8hpp.html" target="_top" xlink:title="Om header file.">
<polygon fill="none" stroke="black" points="28.9189,-59 28.9189,-79 121.081,-79 121.081,-59 28.9189,-59"/>
<text text-anchor="middle" x="75" y="-65" font-family="Helvetica,sans-Serif" font-size="10.00">om/definition.hpp</text>
</a>
</g>
</g>
<!-- Node2&#45;&gt;Node3 -->
<g id="edge2" class="edge"><title>Node2&#45;&gt;Node3</title>
<path fill="none" stroke="midnightblue" d="M75,-116.992C75,-108.726 75,-98.3728 75,-89.4891"/>
<polygon fill="midnightblue" stroke="midnightblue" points="78.5001,-89.2904 75,-79.2904 71.5001,-89.2904 78.5001,-89.2904"/>
</g>
<!-- Node2&#45;&gt;Node1 -->
<g id="edge5" class="edge"><title>Node2&#45;&gt;Node1</title>
<path fill="none" stroke="midnightblue" d="M80.6023,-149.412C81.5687,-157.409 81.9248,-167.475 81.6706,-176.997"/>
<polygon fill="midnightblue" stroke="midnightblue" points="78.1749,-176.825 81.1551,-186.993 85.1656,-177.186 78.1749,-176.825"/>
</g>
<!-- Node4 -->
<g id="node4" class="node"><title>Node4</title>
<g id="a_node4"><a xlink:href="definition_8cpp.html" target="_top" xlink:title="Om source file.">
<polygon fill="none" stroke="black" points="29.1997,-1 29.1997,-21 120.8,-21 120.8,-1 29.1997,-1"/>
<text text-anchor="middle" x="75" y="-7" font-family="Helvetica,sans-Serif" font-size="10.00">om/definition.cpp</text>
</a>
</g>
</g>
<!-- Node3&#45;&gt;Node4 -->
<g id="edge3" class="edge"><title>Node3&#45;&gt;Node4</title>
<path fill="none" stroke="midnightblue" d="M69.8337,-58.7527C68.3076,-51.2504 67.8844,-40.4238 68.5643,-31.0781"/>
<polygon fill="midnightblue" stroke="midnightblue" points="72.0461,-31.4439 69.869,-21.0752 65.1049,-30.5385 72.0461,-31.4439"/>
</g>
<!-- Node4&#45;&gt;Node3 -->
<g id="edge4" class="edge"><title>Node4&#45;&gt;Node3</title>
<path fill="none" stroke="midnightblue" d="M80.131,-21.0752C81.674,-28.5262 82.1141,-39.3384 81.4512,-48.7065"/>
<polygon fill="midnightblue" stroke="midnightblue" points="77.9633,-48.3895 80.1663,-58.7527 84.9067,-49.2776 77.9633,-48.3895"/>
</g>
</g>
</svg>
