<?xml version="1.0" encoding="UTF-8" standalone="no"?>
<!DOCTYPE svg PUBLIC "-//W3C//DTD SVG 1.1//EN"
 "http://www.w3.org/Graphics/SVG/1.1/DTD/svg11.dtd">
<!-- Generated by graphviz version 2.30.1 (20130221.2233)
 -->
<!-- Title: code/om/operations/front_push_operation.cpp Pages: 1 -->
<svg width="369pt" height="344pt"
 viewBox="0.00 0.00 369.00 344.00" xmlns="http://www.w3.org/2000/svg" xmlns:xlink="http://www.w3.org/1999/xlink">
<g id="graph0" class="graph" transform="scale(1 1) rotate(0) translate(4 340)">
<title>code/om/operations/front_push_operation.cpp</title>
<!-- Node1 -->
<g id="node1" class="node"><title>Node1</title>
<polygon fill="#bfbfbf" stroke="black" points="228.902,-303 228.902,-335 361.098,-335 361.098,-303 228.902,-303"/>
<text text-anchor="start" x="236.902" y="-321" font-family="Helvetica,sans-Serif" font-size="10.00">code/om/operations</text>
<text text-anchor="middle" x="295" y="-309" font-family="Helvetica,sans-Serif" font-size="10.00">/front_push_operation.cpp</text>
</g>
<!-- Node2 -->
<g id="node2" class="node"><title>Node2</title>
<g id="a_node2"><a xlink:href="front__push__operation_8hpp.html" target="_top" xlink:title="Om header file.">
<polygon fill="none" stroke="black" points="240.015,-233 240.015,-265 349.985,-265 349.985,-233 240.015,-233"/>
<text text-anchor="start" x="248.015" y="-251" font-family="Helvetica,sans-Serif" font-size="10.00">om/operations/front</text>
<text text-anchor="middle" x="295" y="-239" font-family="Helvetica,sans-Serif" font-size="10.00">_push_operation.hpp</text>
</a>
</g>
</g>
<!-- Node1&#45;&gt;Node2 -->
<g id="edge1" class="edge"><title>Node1&#45;&gt;Node2</title>
<path fill="none" stroke="midnightblue" d="M289.28,-302.909C288.281,-294.721 288.009,-284.389 288.463,-275.032"/>
<polygon fill="midnightblue" stroke="midnightblue" points="291.953,-275.303 289.285,-265.049 284.976,-274.728 291.953,-275.303"/>
</g>
<!-- Node3 -->
<g id="node3" class="node"><title>Node3</title>
<g id="a_node3"><a xlink:href="default__operation_8hpp.html" target="_top" xlink:title="Om header file.">
<polygon fill="none" stroke="black" points="230.291,-175 230.291,-195 359.709,-195 359.709,-175 230.291,-175"/>
<text text-anchor="middle" x="295" y="-181" font-family="Helvetica,sans-Serif" font-size="10.00">om/default_operation.hpp</text>
</a>
</g>
</g>
<!-- Node2&#45;&gt;Node3 -->
<g id="edge2" class="edge"><title>Node2&#45;&gt;Node3</title>
<path fill="none" stroke="midnightblue" d="M295,-232.992C295,-224.726 295,-214.373 295,-205.489"/>
<polygon fill="midnightblue" stroke="midnightblue" points="298.5,-205.29 295,-195.29 291.5,-205.29 298.5,-205.29"/>
</g>
<!-- Node2&#45;&gt;Node1 -->
<g id="edge10" class="edge"><title>Node2&#45;&gt;Node1</title>
<path fill="none" stroke="midnightblue" d="M300.715,-265.049C301.716,-273.229 301.991,-283.56 301.539,-292.92"/>
<polygon fill="midnightblue" stroke="midnightblue" points="298.049,-292.656 300.72,-302.909 305.026,-293.228 298.049,-292.656"/>
</g>
<!-- Node4 -->
<g id="node4" class="node"><title>Node4</title>
<g id="a_node4"><a xlink:href="operation_8hpp.html" target="_top" xlink:title="Om header file.">
<polygon fill="none" stroke="black" points="119.084,-117 119.084,-137 212.916,-137 212.916,-117 119.084,-117"/>
<text text-anchor="middle" x="166" y="-123" font-family="Helvetica,sans-Serif" font-size="10.00">om/operation.hpp</text>
</a>
</g>
</g>
<!-- Node3&#45;&gt;Node4 -->
<g id="edge3" class="edge"><title>Node3&#45;&gt;Node4</title>
<path fill="none" stroke="midnightblue" d="M273.987,-174.878C252.903,-165.725 220.216,-151.536 196.325,-141.164"/>
<polygon fill="midnightblue" stroke="midnightblue" points="197.571,-137.89 187.004,-137.118 194.783,-144.311 197.571,-137.89"/>
</g>
<!-- Node8 -->
<g id="node8" class="node"><title>Node8</title>
<g id="a_node8"><a xlink:href="default__operation_8cpp.html" target="_top" xlink:title="Om source file.">
<polygon fill="none" stroke="black" points="230.572,-117 230.572,-137 359.428,-137 359.428,-117 230.572,-117"/>
<text text-anchor="middle" x="295" y="-123" font-family="Helvetica,sans-Serif" font-size="10.00">om/default_operation.cpp</text>
</a>
</g>
</g>
<!-- Node3&#45;&gt;Node8 -->
<g id="edge8" class="edge"><title>Node3&#45;&gt;Node8</title>
<path fill="none" stroke="midnightblue" d="M289.834,-174.753C288.308,-167.25 287.884,-156.424 288.564,-147.078"/>
<polygon fill="midnightblue" stroke="midnightblue" points="292.046,-147.444 289.869,-137.075 285.105,-146.538 292.046,-147.444"/>
</g>
<!-- Node5 -->
<g id="node5" class="node"><title>Node5</title>
<g id="a_node5"><a xlink:href="code__point_8hpp.html" target="_top" xlink:title="Om header file.">
<polygon fill="none" stroke="black" points="0.468262,-59 0.468262,-79 101.532,-79 101.532,-59 0.468262,-59"/>
<text text-anchor="middle" x="51" y="-65" font-family="Helvetica,sans-Serif" font-size="10.00">om/code_point.hpp</text>
</a>
</g>
</g>
<!-- Node4&#45;&gt;Node5 -->
<g id="edge4" class="edge"><title>Node4&#45;&gt;Node5</title>
<path fill="none" stroke="midnightblue" d="M147.267,-116.878C128.723,-107.847 100.107,-93.9132 78.89,-83.5812"/>
<polygon fill="midnightblue" stroke="midnightblue" points="80.2477,-80.3495 69.7247,-79.1181 77.183,-86.643 80.2477,-80.3495"/>
</g>
<!-- Node7 -->
<g id="node7" class="node"><title>Node7</title>
<g id="a_node7"><a xlink:href="operation_8cpp.html" target="_top" xlink:title="Om source file.">
<polygon fill="none" stroke="black" points="119.365,-59 119.365,-79 212.635,-79 212.635,-59 119.365,-59"/>
<text text-anchor="middle" x="166" y="-65" font-family="Helvetica,sans-Serif" font-size="10.00">om/operation.cpp</text>
</a>
</g>
</g>
<!-- Node4&#45;&gt;Node7 -->
<g id="edge6" class="edge"><title>Node4&#45;&gt;Node7</title>
<path fill="none" stroke="midnightblue" d="M160.834,-116.753C159.308,-109.25 158.884,-98.4238 159.564,-89.0781"/>
<polygon fill="midnightblue" stroke="midnightblue" points="163.046,-89.4439 160.869,-79.0752 156.105,-88.5385 163.046,-89.4439"/>
</g>
<!-- Node6 -->
<g id="node6" class="node"><title>Node6</title>
<polygon fill="none" stroke="#bfbfbf" points="-0.364258,-1 -0.364258,-21 102.364,-21 102.364,-1 -0.364258,-1"/>
<text text-anchor="middle" x="51" y="-7" font-family="Helvetica,sans-Serif" font-size="10.00">boost/locale/utf.hpp</text>
</g>
<!-- Node5&#45;&gt;Node6 -->
<g id="edge5" class="edge"><title>Node5&#45;&gt;Node6</title>
<path fill="none" stroke="midnightblue" d="M51,-58.7527C51,-51.2504 51,-40.4238 51,-31.0781"/>
<polygon fill="midnightblue" stroke="midnightblue" points="54.5001,-31.0752 51,-21.0752 47.5001,-31.0752 54.5001,-31.0752"/>
</g>
<!-- Node7&#45;&gt;Node4 -->
<g id="edge7" class="edge"><title>Node7&#45;&gt;Node4</title>
<path fill="none" stroke="midnightblue" d="M171.131,-79.0752C172.674,-86.5262 173.114,-97.3384 172.451,-106.707"/>
<polygon fill="midnightblue" stroke="midnightblue" points="168.963,-106.389 171.166,-116.753 175.907,-107.278 168.963,-106.389"/>
</g>
<!-- Node8&#45;&gt;Node3 -->
<g id="edge9" class="edge"><title>Node8&#45;&gt;Node3</title>
<path fill="none" stroke="midnightblue" d="M300.131,-137.075C301.674,-144.526 302.114,-155.338 301.451,-164.707"/>
<polygon fill="midnightblue" stroke="midnightblue" points="297.963,-164.389 300.166,-174.753 304.907,-165.278 297.963,-164.389"/>
</g>
</g>
</svg>
