<?xml version="1.0" encoding="UTF-8" standalone="no"?>
<!DOCTYPE svg PUBLIC "-//W3C//DTD SVG 1.1//EN"
 "http://www.w3.org/Graphics/SVG/1.1/DTD/svg11.dtd">
<!-- Generated by graphviz version 2.36.0 (20140111.2315)
 -->
<!-- Title: om/operation/front_pull_pair_operation.hpp Pages: 1 -->
<svg width="134pt" height="104pt"
 viewBox="0.00 0.00 134.00 104.00" xmlns="http://www.w3.org/2000/svg" xmlns:xlink="http://www.w3.org/1999/xlink">
<g id="graph0" class="graph" transform="scale(1 1) rotate(0) translate(4 100)">
<title>om/operation/front_pull_pair_operation.hpp</title>
<!-- Node1 -->
<g id="node1" class="node"><title>Node1</title>
<polygon fill="#bfbfbf" stroke="black" points="-0.0439453,-67 -0.0439453,-95 126.044,-95 126.044,-67 -0.0439453,-67"/>
<text text-anchor="start" x="7.95605" y="-83" font-family="Helvetica,sans-Serif" font-size="10.00">om/operation/front</text>
<text text-anchor="middle" x="63" y="-73" font-family="Helvetica,sans-Serif" font-size="10.00">_pull_pair_operation.hpp</text>
</g>
<!-- Node2 -->
<g id="node2" class="node"><title>Node2</title>
<g id="a_node2"><a xlink:href="front__pull__pair__operation_8cpp.html" target="_top" xlink:title="Om source file. ">
<polygon fill="none" stroke="black" points="0.236816,-1 0.236816,-29 125.763,-29 125.763,-1 0.236816,-1"/>
<text text-anchor="start" x="8.23682" y="-17" font-family="Helvetica,sans-Serif" font-size="10.00">om/operation/front</text>
<text text-anchor="middle" x="63" y="-7" font-family="Helvetica,sans-Serif" font-size="10.00">_pull_pair_operation.cpp</text>
</a>
</g>
</g>
<!-- Node1&#45;&gt;Node2 -->
<g id="edge1" class="edge"><title>Node1&#45;&gt;Node2</title>
<path fill="none" stroke="midnightblue" d="M56.4712,-56.5946C55.9861,-47.3785 56.2989,-37.1352 57.4097,-29.2439"/>
<polygon fill="midnightblue" stroke="midnightblue" points="53.0032,-57.1031 57.4073,-66.7392 59.9736,-56.4598 53.0032,-57.1031"/>
</g>
<!-- Node2&#45;&gt;Node1 -->
<g id="edge2" class="edge"><title>Node2&#45;&gt;Node1</title>
<path fill="none" stroke="midnightblue" d="M69.5277,-39.3855C70.014,-48.6002 69.7024,-58.8444 68.5927,-66.7392"/>
<polygon fill="midnightblue" stroke="midnightblue" points="72.996,-38.8792 68.5903,-29.2439 66.0257,-39.5236 72.996,-38.8792"/>
</g>
</g>
</svg>
