<?xml version="1.0" encoding="UTF-8" standalone="no"?>
<!DOCTYPE svg PUBLIC "-//W3C//DTD SVG 1.1//EN"
 "http://www.w3.org/Graphics/SVG/1.1/DTD/svg11.dtd">
<!-- Generated by graphviz version 2.36.0 (20140111.2315)
 -->
<!-- Title: om/language/operation/front_pull_separator_operation.hpp Pages: 1 -->
<svg width="554pt" height="292pt"
 viewBox="0.00 0.00 554.00 292.00" xmlns="http://www.w3.org/2000/svg" xmlns:xlink="http://www.w3.org/1999/xlink">
<g id="graph0" class="graph" transform="scale(1 1) rotate(0) translate(4 288)">
<title>om/language/operation/front_pull_separator_operation.hpp</title>
<!-- Node1 -->
<g id="node1" class="node"><title>Node1</title>
<g id="a_node1"><a xlink:title="Om header file.">
<polygon fill="#bfbfbf" stroke="black" points="427.85,-245 427.85,-283 546.15,-283 546.15,-245 427.85,-245"/>
<text text-anchor="start" x="435.85" y="-271" font-family="Helvetica,sans-Serif" font-size="10.00">om/language/operation</text>
<text text-anchor="start" x="435.85" y="-261" font-family="Helvetica,sans-Serif" font-size="10.00">/front_pull_separator</text>
<text text-anchor="middle" x="487" y="-251" font-family="Helvetica,sans-Serif" font-size="10.00">_operation.hpp</text>
</a>
</g>
</g>
<!-- Node2 -->
<g id="node2" class="node"><title>Node2</title>
<g id="a_node2"><a xlink:href="system_8hpp.html" target="_top" xlink:title="Om header file.">
<polygon fill="none" stroke="black" points="282.133,-179 282.133,-197 409.867,-197 409.867,-179 282.133,-179"/>
<text text-anchor="middle" x="346" y="-185" font-family="Helvetica,sans-Serif" font-size="10.00">om/language/system.hpp</text>
</a>
</g>
</g>
<!-- Node1&#45;&gt;Node2 -->
<g id="edge1" class="edge"><title>Node1&#45;&gt;Node2</title>
<path fill="none" stroke="midnightblue" d="M452.508,-244.898C427.111,-231.569 393.193,-213.768 370.524,-201.87"/>
<polygon fill="midnightblue" stroke="midnightblue" points="372.035,-198.711 361.554,-197.163 368.782,-204.909 372.035,-198.711"/>
</g>
<!-- Node10 -->
<g id="node10" class="node"><title>Node10</title>
<g id="a_node10"><a xlink:href="front__pull__separator__operation_8cpp.html" target="_top" xlink:title="Om source file.">
<polygon fill="none" stroke="black" points="427.85,-169 427.85,-207 546.15,-207 546.15,-169 427.85,-169"/>
<text text-anchor="start" x="435.85" y="-195" font-family="Helvetica,sans-Serif" font-size="10.00">om/language/operation</text>
<text text-anchor="start" x="435.85" y="-185" font-family="Helvetica,sans-Serif" font-size="10.00">/front_pull_separator</text>
<text text-anchor="middle" x="487" y="-175" font-family="Helvetica,sans-Serif" font-size="10.00">_operation.cpp</text>
</a>
</g>
</g>
<!-- Node1&#45;&gt;Node10 -->
<g id="edge11" class="edge"><title>Node1&#45;&gt;Node10</title>
<path fill="none" stroke="midnightblue" d="M481.084,-244.708C480.271,-236.374 480.052,-226.322 480.428,-217.063"/>
<polygon fill="midnightblue" stroke="midnightblue" points="483.92,-217.296 481.105,-207.082 476.936,-216.822 483.92,-217.296"/>
</g>
<!-- Node3 -->
<g id="node3" class="node"><title>Node3</title>
<g id="a_node3"><a xlink:href="translator_8hpp.html" target="_top" xlink:title="Om header file.">
<polygon fill="none" stroke="black" points="124.399,-113 124.399,-131 261.601,-131 261.601,-113 124.399,-113"/>
<text text-anchor="middle" x="193" y="-119" font-family="Helvetica,sans-Serif" font-size="10.00">om/language/translator.hpp</text>
</a>
</g>
</g>
<!-- Node2&#45;&gt;Node3 -->
<g id="edge2" class="edge"><title>Node2&#45;&gt;Node3</title>
<path fill="none" stroke="midnightblue" d="M326.622,-178.894C300.066,-167.786 252.173,-147.752 221.518,-134.929"/>
<polygon fill="midnightblue" stroke="midnightblue" points="222.796,-131.67 212.22,-131.04 220.095,-138.128 222.796,-131.67"/>
</g>
<!-- Node8 -->
<g id="node8" class="node"><title>Node8</title>
<g id="a_node8"><a xlink:title=" ">
<polygon fill="none" stroke="#bfbfbf" points="279.273,-113 279.273,-131 314.727,-131 314.727,-113 279.273,-113"/>
<text text-anchor="middle" x="297" y="-119" font-family="Helvetica,sans-Serif" font-size="10.00">map</text>
</a>
</g>
</g>
<!-- Node2&#45;&gt;Node8 -->
<g id="edge8" class="edge"><title>Node2&#45;&gt;Node8</title>
<path fill="none" stroke="midnightblue" d="M339.794,-178.894C332.251,-169.042 319.333,-152.17 309.658,-139.533"/>
<polygon fill="midnightblue" stroke="midnightblue" points="312.168,-137.054 303.31,-131.242 306.61,-141.31 312.168,-137.054"/>
</g>
<!-- Node9 -->
<g id="node9" class="node"><title>Node9</title>
<g id="a_node9"><a xlink:href="system_8cpp.html" target="_top" xlink:title="Om source file.">
<polygon fill="none" stroke="black" points="332.414,-113 332.414,-131 459.586,-131 459.586,-113 332.414,-113"/>
<text text-anchor="middle" x="396" y="-119" font-family="Helvetica,sans-Serif" font-size="10.00">om/language/system.cpp</text>
</a>
</g>
</g>
<!-- Node2&#45;&gt;Node9 -->
<g id="edge9" class="edge"><title>Node2&#45;&gt;Node9</title>
<path fill="none" stroke="midnightblue" d="M347.659,-178.894C353.243,-168.851 366.375,-151.512 377.741,-138.802"/>
<polygon fill="midnightblue" stroke="midnightblue" points="380.552,-140.923 384.857,-131.242 375.455,-136.125 380.552,-140.923"/>
</g>
<!-- Node4 -->
<g id="node4" class="node"><title>Node4</title>
<g id="a_node4"><a xlink:href="code__point_8hpp.html" target="_top" xlink:title="Om header file.">
<polygon fill="none" stroke="black" points="0.468262,-57 0.468262,-75 101.532,-75 101.532,-57 0.468262,-57"/>
<text text-anchor="middle" x="51" y="-63" font-family="Helvetica,sans-Serif" font-size="10.00">om/code_point.hpp</text>
</a>
</g>
</g>
<!-- Node3&#45;&gt;Node4 -->
<g id="edge3" class="edge"><title>Node3&#45;&gt;Node4</title>
<path fill="none" stroke="midnightblue" d="M171.741,-112.916C147.899,-103.849 109.019,-89.0635 81.8389,-78.7275"/>
<polygon fill="midnightblue" stroke="midnightblue" points="82.9952,-75.4227 72.4042,-75.1396 80.507,-81.9656 82.9952,-75.4227"/>
</g>
<!-- Node6 -->
<g id="node6" class="node"><title>Node6</title>
<g id="a_node6"><a xlink:title=" ">
<polygon fill="none" stroke="#bfbfbf" points="119.773,-57 119.773,-75 160.227,-75 160.227,-57 119.773,-57"/>
<text text-anchor="middle" x="140" y="-63" font-family="Helvetica,sans-Serif" font-size="10.00">string</text>
</a>
</g>
</g>
<!-- Node3&#45;&gt;Node6 -->
<g id="edge5" class="edge"><title>Node3&#45;&gt;Node6</title>
<path fill="none" stroke="midnightblue" d="M184.719,-112.562C176.816,-104.511 164.724,-92.1905 155.106,-82.3907"/>
<polygon fill="midnightblue" stroke="midnightblue" points="157.552,-79.8867 148.05,-75.2014 152.556,-84.79 157.552,-79.8867"/>
</g>
<!-- Node7 -->
<g id="node7" class="node"><title>Node7</title>
<g id="a_node7"><a xlink:href="translator_8cpp.html" target="_top" xlink:title="Om source file.">
<polygon fill="none" stroke="black" points="178.68,-57 178.68,-75 315.32,-75 315.32,-57 178.68,-57"/>
<text text-anchor="middle" x="247" y="-63" font-family="Helvetica,sans-Serif" font-size="10.00">om/language/translator.cpp</text>
</a>
</g>
</g>
<!-- Node3&#45;&gt;Node7 -->
<g id="edge6" class="edge"><title>Node3&#45;&gt;Node7</title>
<path fill="none" stroke="midnightblue" d="M196.375,-112.562C202.761,-104.351 215.067,-91.7009 226.091,-81.8115"/>
<polygon fill="midnightblue" stroke="midnightblue" points="228.483,-84.3715 233.789,-75.2014 223.922,-79.0607 228.483,-84.3715"/>
</g>
<!-- Node5 -->
<g id="node5" class="node"><title>Node5</title>
<g id="a_node5"><a xlink:title=" ">
<polygon fill="none" stroke="#bfbfbf" points="-0.364258,-1 -0.364258,-19 102.364,-19 102.364,-1 -0.364258,-1"/>
<text text-anchor="middle" x="51" y="-7" font-family="Helvetica,sans-Serif" font-size="10.00">boost/locale/utf.hpp</text>
</a>
</g>
</g>
<!-- Node4&#45;&gt;Node5 -->
<g id="edge4" class="edge"><title>Node4&#45;&gt;Node5</title>
<path fill="none" stroke="midnightblue" d="M51,-56.5625C51,-49.308 51,-38.5884 51,-29.3691"/>
<polygon fill="midnightblue" stroke="midnightblue" points="54.5001,-29.2014 51,-19.2014 47.5001,-29.2015 54.5001,-29.2014"/>
</g>
<!-- Node7&#45;&gt;Node3 -->
<g id="edge7" class="edge"><title>Node7&#45;&gt;Node3</title>
<path fill="none" stroke="midnightblue" d="M243.748,-75.2786C237.406,-83.4744 225.036,-96.203 213.951,-106.151"/>
<polygon fill="midnightblue" stroke="midnightblue" points="211.516,-103.628 206.211,-112.799 216.077,-108.938 211.516,-103.628"/>
</g>
<!-- Node9&#45;&gt;Node2 -->
<g id="edge10" class="edge"><title>Node9&#45;&gt;Node2</title>
<path fill="none" stroke="midnightblue" d="M394.265,-131.242C388.613,-141.351 375.455,-158.702 364.105,-171.37"/>
<polygon fill="midnightblue" stroke="midnightblue" points="361.323,-169.219 357.006,-178.894 366.414,-174.023 361.323,-169.219"/>
</g>
<!-- Node10&#45;&gt;Node1 -->
<g id="edge12" class="edge"><title>Node10&#45;&gt;Node1</title>
<path fill="none" stroke="midnightblue" d="M492.895,-207.082C493.718,-215.387 493.947,-225.431 493.581,-234.702"/>
<polygon fill="midnightblue" stroke="midnightblue" points="490.087,-234.498 492.916,-244.708 497.072,-234.962 490.087,-234.498"/>
</g>
</g>
</svg>
