<?xml version="1.0" encoding="UTF-8" standalone="no"?>
<!DOCTYPE svg PUBLIC "-//W3C//DTD SVG 1.1//EN"
 "http://www.w3.org/Graphics/SVG/1.1/DTD/svg11.dtd">
<!-- Generated by graphviz version 2.28.0 (20120817.0054)
 -->
<!-- Title: code/om/operations/front_pull_element_operation.cpp Pages: 1 -->
<svg width="144pt" height="230pt"
 viewBox="0.00 0.00 144.00 230.00" xmlns="http://www.w3.org/2000/svg" xmlns:xlink="http://www.w3.org/1999/xlink">
<g id="graph1" class="graph" transform="scale(1 1) rotate(0) translate(4 226)">
<title>code/om/operations/front_pull_element_operation.cpp</title>
<!-- Node1 -->
<g id="node1" class="node"><title>Node1</title>
<polygon fill="#bfbfbf" stroke="black" points="18,-180.5 18,-221.5 118,-221.5 118,-180.5 18,-180.5"/>
<text text-anchor="start" x="26" y="-209.5" font-family="Helvetica,sans-Serif" font-size="10.00">code/om/operations</text>
<text text-anchor="start" x="26" y="-198.5" font-family="Helvetica,sans-Serif" font-size="10.00">/front_pull_element</text>
<text text-anchor="middle" x="68" y="-187.5" font-family="Helvetica,sans-Serif" font-size="10.00">_operation.cpp</text>
</g>
<!-- Node2 -->
<g id="node3" class="node"><title>Node2</title>
<a xlink:href="front__pull__element__operation_8hpp.html" target="_top" xlink:title="Om hpp file.">
<polygon fill="none" stroke="black" points="-0.5,-113 -0.5,-143 136.5,-143 136.5,-113 -0.5,-113"/>
<text text-anchor="start" x="7.5" y="-131" font-family="Helvetica,sans-Serif" font-size="10.00">om/operations/front</text>
<text text-anchor="middle" x="68" y="-120" font-family="Helvetica,sans-Serif" font-size="10.00">_pull_element_operation.hpp</text>
</a>
</g>
<!-- Node1&#45;&gt;Node2 -->
<g id="edge2" class="edge"><title>Node1&#45;&gt;Node2</title>
<path fill="none" stroke="midnightblue" d="M61.8766,-180.223C61.1613,-171.821 61.0584,-161.948 61.568,-153.123"/>
<polygon fill="midnightblue" stroke="midnightblue" points="65.064,-153.327 62.4934,-143.049 58.0933,-152.686 65.064,-153.327"/>
</g>
<!-- Node2&#45;&gt;Node1 -->
<g id="edge10" class="edge"><title>Node2&#45;&gt;Node1</title>
<path fill="none" stroke="midnightblue" d="M73.5066,-143.049C74.5364,-150.77 74.9266,-160.657 74.677,-170.019"/>
<polygon fill="midnightblue" stroke="midnightblue" points="71.1704,-170.048 74.1234,-180.223 78.1601,-170.427 71.1704,-170.048"/>
</g>
<!-- Node3 -->
<g id="node5" class="node"><title>Node3</title>
<a xlink:href="definition_8hpp.html" target="_top" xlink:title="Om hpp file.">
<polygon fill="none" stroke="black" points="24.5,-56.5 24.5,-75.5 111.5,-75.5 111.5,-56.5 24.5,-56.5"/>
<text text-anchor="middle" x="68" y="-63.5" font-family="Helvetica,sans-Serif" font-size="10.00">om/definition.hpp</text>
</a>
</g>
<!-- Node2&#45;&gt;Node3 -->
<g id="edge4" class="edge"><title>Node2&#45;&gt;Node3</title>
<path fill="none" stroke="midnightblue" d="M68,-112.781C68,-104.781 68,-94.6887 68,-86.0168"/>
<polygon fill="midnightblue" stroke="midnightblue" points="71.5001,-85.7305 68,-75.7305 64.5001,-85.7306 71.5001,-85.7305"/>
</g>
<!-- Node4 -->
<g id="node7" class="node"><title>Node4</title>
<a xlink:href="definition_8cpp.html" target="_top" xlink:title="Om cpp file.">
<polygon fill="none" stroke="black" points="25,-0.5 25,-19.5 111,-19.5 111,-0.5 25,-0.5"/>
<text text-anchor="middle" x="68" y="-7.5" font-family="Helvetica,sans-Serif" font-size="10.00">om/definition.cpp</text>
</a>
</g>
<!-- Node3&#45;&gt;Node4 -->
<g id="edge6" class="edge"><title>Node3&#45;&gt;Node4</title>
<path fill="none" stroke="midnightblue" d="M62.8337,-56.083C61.3242,-48.9272 60.8938,-38.6353 61.5425,-29.6911"/>
<polygon fill="midnightblue" stroke="midnightblue" points="65.0154,-30.1262 62.869,-19.7511 58.0769,-29.2002 65.0154,-30.1262"/>
</g>
<!-- Node4&#45;&gt;Node3 -->
<g id="edge8" class="edge"><title>Node4&#45;&gt;Node3</title>
<path fill="none" stroke="midnightblue" d="M73.131,-19.7511C74.6573,-26.8579 75.1044,-37.1357 74.4724,-46.1005"/>
<polygon fill="midnightblue" stroke="midnightblue" points="70.9933,-45.7134 73.1663,-56.083 77.9342,-46.6216 70.9933,-45.7134"/>
</g>
</g>
</svg>
