<?xml version="1.0" encoding="UTF-8" standalone="no"?>
<!DOCTYPE svg PUBLIC "-//W3C//DTD SVG 1.1//EN"
 "http://www.w3.org/Graphics/SVG/1.1/DTD/svg11.dtd">
<!-- Generated by graphviz version 2.28.0 (20120817.0054)
 -->
<!-- Title: code/om/operations/front_pull_term_operation.cpp Pages: 1 -->
<svg width="150pt" height="220pt"
 viewBox="0.00 0.00 150.00 220.00" xmlns="http://www.w3.org/2000/svg" xmlns:xlink="http://www.w3.org/1999/xlink">
<g id="graph1" class="graph" transform="scale(1 1) rotate(0) translate(4 216)">
<title>code/om/operations/front_pull_term_operation.cpp</title>
<!-- Node1 -->
<g id="node1" class="node"><title>Node1</title>
<polygon fill="#bfbfbf" stroke="black" points="0,-181 0,-211 142,-211 142,-181 0,-181"/>
<text text-anchor="start" x="8" y="-199" font-family="Helvetica,sans-Serif" font-size="10.00">code/om/operations</text>
<text text-anchor="middle" x="71" y="-188" font-family="Helvetica,sans-Serif" font-size="10.00">/front_pull_term_operation.cpp</text>
</g>
<!-- Node2 -->
<g id="node3" class="node"><title>Node2</title>
<a xlink:href="front__pull__term__operation_8hpp.html" target="_top" xlink:title="Om header file.">
<polygon fill="none" stroke="black" points="10,-113 10,-143 132,-143 132,-113 10,-113"/>
<text text-anchor="start" x="18" y="-131" font-family="Helvetica,sans-Serif" font-size="10.00">om/operations/front</text>
<text text-anchor="middle" x="71" y="-120" font-family="Helvetica,sans-Serif" font-size="10.00">_pull_term_operation.hpp</text>
</a>
</g>
<!-- Node1&#45;&gt;Node2 -->
<g id="edge2" class="edge"><title>Node1&#45;&gt;Node2</title>
<path fill="none" stroke="midnightblue" d="M65.3216,-180.679C64.2938,-172.722 64.0053,-162.605 64.4562,-153.436"/>
<polygon fill="midnightblue" stroke="midnightblue" points="67.9587,-153.555 65.3252,-143.293 60.9843,-152.958 67.9587,-153.555"/>
</g>
<!-- Node2&#45;&gt;Node1 -->
<g id="edge10" class="edge"><title>Node2&#45;&gt;Node1</title>
<path fill="none" stroke="midnightblue" d="M76.6748,-143.293C77.7043,-151.245 77.9945,-161.361 77.5453,-170.532"/>
<polygon fill="midnightblue" stroke="midnightblue" points="74.0425,-170.417 76.6784,-180.679 81.0171,-171.013 74.0425,-170.417"/>
</g>
<!-- Node3 -->
<g id="node5" class="node"><title>Node3</title>
<a xlink:href="definition_8hpp.html" target="_top" xlink:title="Om header file.">
<polygon fill="none" stroke="black" points="27.5,-56.5 27.5,-75.5 114.5,-75.5 114.5,-56.5 27.5,-56.5"/>
<text text-anchor="middle" x="71" y="-63.5" font-family="Helvetica,sans-Serif" font-size="10.00">om/definition.hpp</text>
</a>
</g>
<!-- Node2&#45;&gt;Node3 -->
<g id="edge4" class="edge"><title>Node2&#45;&gt;Node3</title>
<path fill="none" stroke="midnightblue" d="M71,-112.781C71,-104.781 71,-94.6887 71,-86.0168"/>
<polygon fill="midnightblue" stroke="midnightblue" points="74.5001,-85.7305 71,-75.7305 67.5001,-85.7306 74.5001,-85.7305"/>
</g>
<!-- Node4 -->
<g id="node7" class="node"><title>Node4</title>
<a xlink:href="definition_8cpp.html" target="_top" xlink:title="Om source file.">
<polygon fill="none" stroke="black" points="28,-0.5 28,-19.5 114,-19.5 114,-0.5 28,-0.5"/>
<text text-anchor="middle" x="71" y="-7.5" font-family="Helvetica,sans-Serif" font-size="10.00">om/definition.cpp</text>
</a>
</g>
<!-- Node3&#45;&gt;Node4 -->
<g id="edge6" class="edge"><title>Node3&#45;&gt;Node4</title>
<path fill="none" stroke="midnightblue" d="M65.8337,-56.083C64.3242,-48.9272 63.8938,-38.6353 64.5425,-29.6911"/>
<polygon fill="midnightblue" stroke="midnightblue" points="68.0154,-30.1262 65.869,-19.7511 61.0769,-29.2002 68.0154,-30.1262"/>
</g>
<!-- Node4&#45;&gt;Node3 -->
<g id="edge8" class="edge"><title>Node4&#45;&gt;Node3</title>
<path fill="none" stroke="midnightblue" d="M76.131,-19.7511C77.6573,-26.8579 78.1044,-37.1357 77.4724,-46.1005"/>
<polygon fill="midnightblue" stroke="midnightblue" points="73.9933,-45.7134 76.1663,-56.083 80.9342,-46.6216 73.9933,-45.7134"/>
</g>
</g>
</svg>
