<?xml version="1.0" encoding="UTF-8" standalone="no"?>
<!DOCTYPE svg PUBLIC "-//W3C//DTD SVG 1.1//EN"
 "http://www.w3.org/Graphics/SVG/1.1/DTD/svg11.dtd">
<!-- Generated by graphviz version 2.36.0 (20140111.2315)
 -->
<!-- Title: om/language/operation/front_pull_pair_operation.hpp Pages: 1 -->
<svg width="156pt" height="104pt"
 viewBox="0.00 0.00 156.00 104.00" xmlns="http://www.w3.org/2000/svg" xmlns:xlink="http://www.w3.org/1999/xlink">
<g id="graph0" class="graph" transform="scale(1 1) rotate(0) translate(4 100)">
<title>om/language/operation/front_pull_pair_operation.hpp</title>
<!-- Node128 -->
<g id="node1" class="node"><title>Node128</title>
<g id="a_node1"><a xlink:title="Om header file.">
<polygon fill="#bfbfbf" stroke="black" points="-0.437988,-67 -0.437988,-95 148.438,-95 148.438,-67 -0.437988,-67"/>
<text text-anchor="start" x="7.56201" y="-83" font-family="Helvetica,sans-Serif" font-size="10.00">om/language/operation</text>
<text text-anchor="middle" x="74" y="-73" font-family="Helvetica,sans-Serif" font-size="10.00">/front_pull_pair_operation.hpp</text>
</a>
</g>
</g>
<!-- Node129 -->
<g id="node2" class="node"><title>Node129</title>
<g id="a_node2"><a xlink:href="front__pull__pair__operation_8cpp.html" target="_top" xlink:title="Om source file.">
<polygon fill="none" stroke="black" points="-0.157227,-1 -0.157227,-29 148.157,-29 148.157,-1 -0.157227,-1"/>
<text text-anchor="start" x="7.84277" y="-17" font-family="Helvetica,sans-Serif" font-size="10.00">om/language/operation</text>
<text text-anchor="middle" x="74" y="-7" font-family="Helvetica,sans-Serif" font-size="10.00">/front_pull_pair_operation.cpp</text>
</a>
</g>
</g>
<!-- Node128&#45;&gt;Node129 -->
<g id="edge1" class="edge"><title>Node128&#45;&gt;Node129</title>
<path fill="none" stroke="midnightblue" d="M67.4712,-56.5946C66.9861,-47.3785 67.2989,-37.1352 68.4097,-29.2439"/>
<polygon fill="midnightblue" stroke="midnightblue" points="64.0032,-57.1031 68.4073,-66.7392 70.9736,-56.4598 64.0032,-57.1031"/>
</g>
<!-- Node129&#45;&gt;Node128 -->
<g id="edge2" class="edge"><title>Node129&#45;&gt;Node128</title>
<path fill="none" stroke="midnightblue" d="M80.5277,-39.3855C81.014,-48.6002 80.7024,-58.8444 79.5927,-66.7392"/>
<polygon fill="midnightblue" stroke="midnightblue" points="83.996,-38.8792 79.5903,-29.2439 77.0257,-39.5236 83.996,-38.8792"/>
</g>
</g>
</svg>
