<?xml version="1.0" encoding="UTF-8" standalone="no"?>
<!DOCTYPE svg PUBLIC "-//W3C//DTD SVG 1.1//EN"
 "http://www.w3.org/Graphics/SVG/1.1/DTD/svg11.dtd">
<!-- Generated by graphviz version 2.28.0 (20120817.0054)
 -->
<!-- Title: code/om/give.hpp Pages: 1 -->
<svg width="240pt" height="196pt"
 viewBox="0.00 0.00 240.00 196.00" xmlns="http://www.w3.org/2000/svg" xmlns:xlink="http://www.w3.org/1999/xlink">
<g id="graph1" class="graph" transform="scale(1 1) rotate(0) translate(4 192)">
<title>code/om/give.hpp</title>
<!-- Node1 -->
<g id="node1" class="node"><title>Node1</title>
<polygon fill="#bfbfbf" stroke="black" points="0,-168.5 0,-187.5 92,-187.5 92,-168.5 0,-168.5"/>
<text text-anchor="middle" x="46" y="-175.5" font-family="Helvetica,sans-Serif" font-size="10.00">code/om/give.hpp</text>
</g>
<!-- Node2 -->
<g id="node3" class="node"><title>Node2</title>
<a xlink:href="give_8cpp.html" target="_top" xlink:title="Om source file.">
<polygon fill="none" stroke="black" points="0,-112.5 0,-131.5 92,-131.5 92,-112.5 0,-112.5"/>
<text text-anchor="middle" x="46" y="-119.5" font-family="Helvetica,sans-Serif" font-size="10.00">code/om/give.cpp</text>
</a>
</g>
<!-- Node1&#45;&gt;Node2 -->
<g id="edge2" class="edge"><title>Node1&#45;&gt;Node2</title>
<path fill="none" stroke="midnightblue" d="M39.5276,-158.101C38.8956,-149.136 39.3427,-138.858 40.869,-131.751"/>
<polygon fill="midnightblue" stroke="midnightblue" points="36.0658,-158.622 40.8337,-168.083 43.0067,-157.713 36.0658,-158.622"/>
</g>
<!-- Node3 -->
<g id="node6" class="node"><title>Node3</title>
<a xlink:href="internal_8hpp.html" target="_top" xlink:title="code/om/internal.hpp">
<polygon fill="none" stroke="black" points="110,-112.5 110,-131.5 214,-131.5 214,-112.5 110,-112.5"/>
<text text-anchor="middle" x="162" y="-119.5" font-family="Helvetica,sans-Serif" font-size="10.00">code/om/internal.hpp</text>
</a>
</g>
<!-- Node1&#45;&gt;Node3 -->
<g id="edge6" class="edge"><title>Node1&#45;&gt;Node3</title>
<path fill="none" stroke="midnightblue" d="M73.7197,-164.096C95.3916,-154.007 124.902,-140.27 143.705,-131.516"/>
<polygon fill="midnightblue" stroke="midnightblue" points="71.9693,-161.05 64.3805,-168.444 74.9235,-167.396 71.9693,-161.05"/>
</g>
<!-- Node2&#45;&gt;Node1 -->
<g id="edge4" class="edge"><title>Node2&#45;&gt;Node1</title>
<path fill="none" stroke="midnightblue" d="M52.4575,-141.691C53.1062,-150.635 52.6758,-160.927 51.1663,-168.083"/>
<polygon fill="midnightblue" stroke="midnightblue" points="55.9231,-141.2 51.131,-131.751 48.9846,-142.126 55.9231,-141.2"/>
</g>
<!-- Node3&#45;&gt;Node3 -->
<g id="edge10" class="edge"><title>Node3&#45;&gt;Node3</title>
<path fill="none" stroke="midnightblue" d="M202.178,-132.432C218.381,-133.04 232,-129.563 232,-122 232,-112.867 212.141,-109.692 191.855,-112.475"/>
<polygon fill="midnightblue" stroke="midnightblue" points="202.123,-128.914 191.855,-131.525 201.51,-135.887 202.123,-128.914"/>
</g>
<!-- Node4 -->
<g id="node8" class="node"><title>Node4</title>
<a xlink:href="internal_8cpp.html" target="_top" xlink:title="code/om/internal.cpp">
<polygon fill="none" stroke="black" points="4,-56.5 4,-75.5 108,-75.5 108,-56.5 4,-56.5"/>
<text text-anchor="middle" x="56" y="-63.5" font-family="Helvetica,sans-Serif" font-size="10.00">code/om/internal.cpp</text>
</a>
</g>
<!-- Node3&#45;&gt;Node4 -->
<g id="edge8" class="edge"><title>Node3&#45;&gt;Node4</title>
<path fill="none" stroke="midnightblue" d="M135.944,-107.726C116.316,-97.7271 89.972,-84.3065 72.9885,-75.6545"/>
<polygon fill="midnightblue" stroke="midnightblue" points="134.47,-110.903 144.969,-112.324 137.648,-104.666 134.47,-110.903"/>
</g>
<!-- Node5 -->
<g id="node11" class="node"><title>Node5</title>
<a xlink:href="om_8hpp.html" target="_top" xlink:title="Om &quot;umbrella&quot; header file.">
<polygon fill="none" stroke="black" points="126,-56.5 126,-75.5 198,-75.5 198,-56.5 126,-56.5"/>
<text text-anchor="middle" x="162" y="-63.5" font-family="Helvetica,sans-Serif" font-size="10.00">code/om.hpp</text>
</a>
</g>
<!-- Node3&#45;&gt;Node5 -->
<g id="edge12" class="edge"><title>Node3&#45;&gt;Node5</title>
<path fill="none" stroke="midnightblue" d="M155.528,-102.101C154.896,-93.1357 155.343,-82.8579 156.869,-75.7511"/>
<polygon fill="midnightblue" stroke="midnightblue" points="152.066,-102.622 156.834,-112.083 159.007,-101.713 152.066,-102.622"/>
</g>
<!-- Node5&#45;&gt;Node3 -->
<g id="edge14" class="edge"><title>Node5&#45;&gt;Node3</title>
<path fill="none" stroke="midnightblue" d="M168.458,-85.6911C169.106,-94.6353 168.676,-104.927 167.166,-112.083"/>
<polygon fill="midnightblue" stroke="midnightblue" points="171.923,-85.2002 167.131,-75.7511 164.985,-86.1262 171.923,-85.2002"/>
</g>
<!-- Node6 -->
<g id="node14" class="node"><title>Node6</title>
<a xlink:href="om_8cpp.html" target="_top" xlink:title="Om source file.">
<polygon fill="none" stroke="black" points="126.5,-0.5 126.5,-19.5 197.5,-19.5 197.5,-0.5 126.5,-0.5"/>
<text text-anchor="middle" x="162" y="-7.5" font-family="Helvetica,sans-Serif" font-size="10.00">code/om.cpp</text>
</a>
</g>
<!-- Node5&#45;&gt;Node6 -->
<g id="edge16" class="edge"><title>Node5&#45;&gt;Node6</title>
<path fill="none" stroke="midnightblue" d="M162,-45.8045C162,-36.9102 162,-26.7798 162,-19.7511"/>
<polygon fill="midnightblue" stroke="midnightblue" points="158.5,-46.083 162,-56.083 165.5,-46.083 158.5,-46.083"/>
</g>
</g>
</svg>
