<?xml version="1.0" encoding="UTF-8" standalone="no"?>
<!DOCTYPE svg PUBLIC "-//W3C//DTD SVG 1.1//EN"
 "http://www.w3.org/Graphics/SVG/1.1/DTD/svg11.dtd">
<!-- Generated by graphviz version 2.28.0 (20120817.0054)
 -->
<!-- Title: code/om/giveable.hpp Pages: 1 -->
<svg width="2460pt" height="264pt"
 viewBox="0.00 0.00 2460.00 264.00" xmlns="http://www.w3.org/2000/svg" xmlns:xlink="http://www.w3.org/1999/xlink">
<g id="graph1" class="graph" transform="scale(1 1) rotate(0) translate(4 260)">
<title>code/om/giveable.hpp</title>
<!-- Node1 -->
<g id="node1" class="node"><title>Node1</title>
<polygon fill="#bfbfbf" stroke="black" points="1190.5,-236.5 1190.5,-255.5 1301.5,-255.5 1301.5,-236.5 1190.5,-236.5"/>
<text text-anchor="middle" x="1246" y="-243.5" font-family="Helvetica,sans-Serif" font-size="10.00">code/om/giveable.hpp</text>
</g>
<!-- Node2 -->
<g id="node3" class="node"><title>Node2</title>
<a xlink:href="copyable_8hpp.html" target="_top" xlink:title="Om header file.">
<polygon fill="none" stroke="black" points="989,-180.5 989,-199.5 1081,-199.5 1081,-180.5 989,-180.5"/>
<text text-anchor="middle" x="1035" y="-187.5" font-family="Helvetica,sans-Serif" font-size="10.00">om/copyable.hpp</text>
</a>
</g>
<!-- Node1&#45;&gt;Node2 -->
<g id="edge2" class="edge"><title>Node1&#45;&gt;Node2</title>
<path fill="none" stroke="midnightblue" d="M1212.57,-236.444C1176.14,-227.122 1117.77,-212.183 1077.97,-201.997"/>
<polygon fill="midnightblue" stroke="midnightblue" points="1078.83,-198.605 1068.28,-199.516 1077.1,-205.387 1078.83,-198.605"/>
</g>
<!-- Node30 -->
<g id="node61" class="node"><title>Node30</title>
<a xlink:href="moveable_8hpp.html" target="_top" xlink:title="Om header file.">
<polygon fill="none" stroke="black" points="1145,-180.5 1145,-199.5 1239,-199.5 1239,-180.5 1145,-180.5"/>
<text text-anchor="middle" x="1192" y="-187.5" font-family="Helvetica,sans-Serif" font-size="10.00">om/moveable.hpp</text>
</a>
</g>
<!-- Node1&#45;&gt;Node30 -->
<g id="edge62" class="edge"><title>Node1&#45;&gt;Node30</title>
<path fill="none" stroke="midnightblue" d="M1237.08,-236.083C1229.22,-228.22 1217.57,-216.569 1208.08,-207.081"/>
<polygon fill="midnightblue" stroke="midnightblue" points="1210.3,-204.347 1200.75,-199.751 1205.35,-209.297 1210.3,-204.347"/>
</g>
<!-- Node34 -->
<g id="node72" class="node"><title>Node34</title>
<a xlink:href="giveable_8cpp.html" target="_top" xlink:title="Om source file.">
<polygon fill="none" stroke="black" points="1257.5,-180.5 1257.5,-199.5 1344.5,-199.5 1344.5,-180.5 1257.5,-180.5"/>
<text text-anchor="middle" x="1301" y="-187.5" font-family="Helvetica,sans-Serif" font-size="10.00">om/giveable.cpp</text>
</a>
</g>
<!-- Node1&#45;&gt;Node34 -->
<g id="edge76" class="edge"><title>Node1&#45;&gt;Node34</title>
<path fill="none" stroke="midnightblue" d="M1249.92,-236.083C1256.46,-227.984 1268.47,-215.866 1279.34,-206.233"/>
<polygon fill="midnightblue" stroke="midnightblue" points="1281.61,-208.898 1286.96,-199.751 1277.07,-203.567 1281.61,-208.898"/>
</g>
<!-- Node3 -->
<g id="node5" class="node"><title>Node3</title>
<a xlink:href="copy_8hpp.html" target="_top" xlink:title="Om header file.">
<polygon fill="none" stroke="black" points="898.5,-124.5 898.5,-143.5 971.5,-143.5 971.5,-124.5 898.5,-124.5"/>
<text text-anchor="middle" x="935" y="-131.5" font-family="Helvetica,sans-Serif" font-size="10.00">om/copy.hpp</text>
</a>
</g>
<!-- Node2&#45;&gt;Node3 -->
<g id="edge4" class="edge"><title>Node2&#45;&gt;Node3</title>
<path fill="none" stroke="midnightblue" d="M1018.93,-180.324C1003.04,-171.743 978.493,-158.486 960.042,-148.522"/>
<polygon fill="midnightblue" stroke="midnightblue" points="961.489,-145.326 951.027,-143.655 958.163,-151.486 961.489,-145.326"/>
</g>
<!-- Node29 -->
<g id="node58" class="node"><title>Node29</title>
<a xlink:href="copyable_8cpp.html" target="_top" xlink:title="Om source file.">
<polygon fill="none" stroke="black" points="989.5,-124.5 989.5,-143.5 1080.5,-143.5 1080.5,-124.5 989.5,-124.5"/>
<text text-anchor="middle" x="1035" y="-131.5" font-family="Helvetica,sans-Serif" font-size="10.00">om/copyable.cpp</text>
</a>
</g>
<!-- Node2&#45;&gt;Node29 -->
<g id="edge58" class="edge"><title>Node2&#45;&gt;Node29</title>
<path fill="none" stroke="midnightblue" d="M1029.83,-180.083C1028.32,-172.927 1027.89,-162.635 1028.54,-153.691"/>
<polygon fill="midnightblue" stroke="midnightblue" points="1032.02,-154.126 1029.87,-143.751 1025.08,-153.2 1032.02,-154.126"/>
</g>
<!-- Node4 -->
<g id="node7" class="node"><title>Node4</title>
<a xlink:href="external_8hpp.html" target="_top" xlink:title="om/external.hpp">
<polygon fill="none" stroke="black" points="992.5,-68.5 992.5,-87.5 1077.5,-87.5 1077.5,-68.5 992.5,-68.5"/>
<text text-anchor="middle" x="1035" y="-75.5" font-family="Helvetica,sans-Serif" font-size="10.00">om/external.hpp</text>
</a>
</g>
<!-- Node3&#45;&gt;Node4 -->
<g id="edge6" class="edge"><title>Node3&#45;&gt;Node4</title>
<path fill="none" stroke="midnightblue" d="M951.067,-124.324C966.958,-115.743 991.507,-102.486 1009.96,-92.5224"/>
<polygon fill="midnightblue" stroke="midnightblue" points="1011.84,-95.4857 1018.97,-87.6545 1008.51,-89.3264 1011.84,-95.4857"/>
</g>
<!-- Node28 -->
<g id="node55" class="node"><title>Node28</title>
<a xlink:href="copy_8cpp.html" target="_top" xlink:title="Om source file.">
<polygon fill="none" stroke="black" points="899,-68.5 899,-87.5 971,-87.5 971,-68.5 899,-68.5"/>
<text text-anchor="middle" x="935" y="-75.5" font-family="Helvetica,sans-Serif" font-size="10.00">om/copy.cpp</text>
</a>
</g>
<!-- Node3&#45;&gt;Node28 -->
<g id="edge54" class="edge"><title>Node3&#45;&gt;Node28</title>
<path fill="none" stroke="midnightblue" d="M929.834,-124.083C928.324,-116.927 927.894,-106.635 928.542,-97.6911"/>
<polygon fill="midnightblue" stroke="midnightblue" points="932.015,-98.1262 929.869,-87.7511 925.077,-97.2002 932.015,-98.1262"/>
</g>
<!-- Node5 -->
<g id="node9" class="node"><title>Node5</title>
<polygon fill="none" stroke="#bfbfbf" points="-0.5,-6.5 -0.5,-25.5 46.5,-25.5 46.5,-6.5 -0.5,-6.5"/>
<text text-anchor="middle" x="23" y="-13.5" font-family="Helvetica,sans-Serif" font-size="10.00">cassert</text>
</g>
<!-- Node4&#45;&gt;Node5 -->
<g id="edge8" class="edge"><title>Node4&#45;&gt;Node5</title>
<path fill="none" stroke="midnightblue" d="M992.432,-69.5026C988.24,-68.9244 984.043,-68.408 980,-68 775.549,-47.3688 255.947,-79.4038 56,-32 53.3363,-31.3685 50.625,-30.5185 47.9592,-29.5425"/>
<polygon fill="midnightblue" stroke="midnightblue" points="49.2436,-26.2856 38.6696,-25.6207 46.521,-32.7345 49.2436,-26.2856"/>
</g>
<!-- Node6 -->
<g id="node11" class="node"><title>Node6</title>
<polygon fill="none" stroke="#bfbfbf" points="65,-6.5 65,-25.5 117,-25.5 117,-6.5 65,-6.5"/>
<text text-anchor="middle" x="91" y="-13.5" font-family="Helvetica,sans-Serif" font-size="10.00">iostream</text>
</g>
<!-- Node4&#45;&gt;Node6 -->
<g id="edge10" class="edge"><title>Node4&#45;&gt;Node6</title>
<path fill="none" stroke="midnightblue" d="M992.43,-69.5161C988.239,-68.9352 984.043,-68.4144 980,-68 791.044,-48.628 311.221,-74.1024 126,-32 123.099,-31.3406 120.137,-30.4495 117.224,-29.4286"/>
<polygon fill="midnightblue" stroke="midnightblue" points="118.258,-26.0727 107.674,-25.6054 115.656,-32.5713 118.258,-26.0727"/>
</g>
<!-- Node7 -->
<g id="node13" class="node"><title>Node7</title>
<polygon fill="none" stroke="#bfbfbf" points="135,-6.5 135,-25.5 179,-25.5 179,-6.5 135,-6.5"/>
<text text-anchor="middle" x="157" y="-13.5" font-family="Helvetica,sans-Serif" font-size="10.00">iterator</text>
</g>
<!-- Node4&#45;&gt;Node7 -->
<g id="edge12" class="edge"><title>Node4&#45;&gt;Node7</title>
<path fill="none" stroke="midnightblue" d="M992.429,-69.5301C988.238,-68.9463 984.042,-68.4211 980,-68 804.767,-49.7432 358.79,-75.2538 188,-32 185.653,-31.4055 183.272,-30.6237 180.928,-29.7287"/>
<polygon fill="midnightblue" stroke="midnightblue" points="182.23,-26.4772 171.671,-25.6026 179.38,-32.8707 182.23,-26.4772"/>
</g>
<!-- Node8 -->
<g id="node15" class="node"><title>Node8</title>
<polygon fill="none" stroke="#bfbfbf" points="197,-6.5 197,-25.5 247,-25.5 247,-6.5 197,-6.5"/>
<text text-anchor="middle" x="222" y="-13.5" font-family="Helvetica,sans-Serif" font-size="10.00">memory</text>
</g>
<!-- Node4&#45;&gt;Node8 -->
<g id="edge14" class="edge"><title>Node4&#45;&gt;Node8</title>
<path fill="none" stroke="midnightblue" d="M992.427,-69.5481C988.236,-68.9607 984.041,-68.4297 980,-68 659.631,-33.9323 569.5,-106.26 256,-32 253.175,-31.3308 250.292,-30.4334 247.46,-29.4087"/>
<polygon fill="midnightblue" stroke="midnightblue" points="248.759,-26.1583 238.179,-25.5809 246.09,-32.6295 248.759,-26.1583"/>
</g>
<!-- Node9 -->
<g id="node17" class="node"><title>Node9</title>
<polygon fill="none" stroke="#bfbfbf" points="265.5,-6.5 265.5,-25.5 304.5,-25.5 304.5,-6.5 265.5,-6.5"/>
<text text-anchor="middle" x="285" y="-13.5" font-family="Helvetica,sans-Serif" font-size="10.00">stack</text>
</g>
<!-- Node4&#45;&gt;Node9 -->
<g id="edge16" class="edge"><title>Node4&#45;&gt;Node9</title>
<path fill="none" stroke="midnightblue" d="M992.425,-69.5664C988.235,-68.9753 984.04,-68.4384 980,-68 832.649,-52.009 457.016,-70.9155 314,-32 312.031,-31.4642 310.042,-30.7825 308.078,-30.0065"/>
<polygon fill="midnightblue" stroke="midnightblue" points="309.21,-26.6707 298.671,-25.5796 306.229,-33.0044 309.21,-26.6707"/>
</g>
<!-- Node10 -->
<g id="node19" class="node"><title>Node10</title>
<polygon fill="none" stroke="#bfbfbf" points="323,-6.5 323,-25.5 381,-25.5 381,-6.5 323,-6.5"/>
<text text-anchor="middle" x="352" y="-13.5" font-family="Helvetica,sans-Serif" font-size="10.00">stdexcept</text>
</g>
<!-- Node4&#45;&gt;Node10 -->
<g id="edge18" class="edge"><title>Node4&#45;&gt;Node10</title>
<path fill="none" stroke="midnightblue" d="M992.422,-69.5958C988.232,-68.9987 984.038,-68.4525 980,-68 718.923,-38.7502 646.466,-88.9339 390,-32 386.573,-31.2391 383.05,-30.2117 379.597,-29.0492"/>
<polygon fill="midnightblue" stroke="midnightblue" points="380.779,-25.7547 370.187,-25.5247 378.324,-32.31 380.779,-25.7547"/>
</g>
<!-- Node11 -->
<g id="node21" class="node"><title>Node11</title>
<polygon fill="none" stroke="#bfbfbf" points="399,-6.5 399,-25.5 437,-25.5 437,-6.5 399,-6.5"/>
<text text-anchor="middle" x="418" y="-13.5" font-family="Helvetica,sans-Serif" font-size="10.00">string</text>
</g>
<!-- Node4&#45;&gt;Node11 -->
<g id="edge20" class="edge"><title>Node4&#45;&gt;Node11</title>
<path fill="none" stroke="midnightblue" d="M992.419,-69.6227C988.23,-69.0202 984.037,-68.4653 980,-68 743.693,-40.7625 674.637,-97.637 446,-32 444.092,-31.4522 442.167,-30.7618 440.267,-29.9798"/>
<polygon fill="midnightblue" stroke="midnightblue" points="441.699,-26.7843 431.177,-25.542 438.628,-33.0746 441.699,-26.7843"/>
</g>
<!-- Node12 -->
<g id="node23" class="node"><title>Node12</title>
<polygon fill="none" stroke="#bfbfbf" points="455.5,-6.5 455.5,-25.5 540.5,-25.5 540.5,-6.5 455.5,-6.5"/>
<text text-anchor="middle" x="498" y="-13.5" font-family="Helvetica,sans-Serif" font-size="10.00">boost/array.hpp</text>
</g>
<!-- Node4&#45;&gt;Node12 -->
<g id="edge22" class="edge"><title>Node4&#45;&gt;Node12</title>
<path fill="none" stroke="midnightblue" d="M992.41,-69.6913C988.223,-69.0749 984.033,-68.498 980,-68 789.666,-44.4967 738.606,-66.7458 550,-32 544.763,-31.0353 539.297,-29.7626 533.959,-28.3655"/>
<polygon fill="midnightblue" stroke="midnightblue" points="534.519,-24.8883 523.947,-25.574 532.639,-31.6312 534.519,-24.8883"/>
</g>
<!-- Node13 -->
<g id="node25" class="node"><title>Node13</title>
<polygon fill="none" stroke="#bfbfbf" points="559,-6.5 559,-25.5 687,-25.5 687,-6.5 559,-6.5"/>
<text text-anchor="middle" x="623" y="-13.5" font-family="Helvetica,sans-Serif" font-size="10.00">boost/checked_delete.hpp</text>
</g>
<!-- Node4&#45;&gt;Node13 -->
<g id="edge24" class="edge"><title>Node4&#45;&gt;Node13</title>
<path fill="none" stroke="midnightblue" d="M992.386,-69.871C988.204,-69.2182 984.022,-68.5837 980,-68 854.087,-49.7237 821.517,-52.8195 696,-32 688.192,-30.7049 679.947,-29.1722 671.92,-27.5895"/>
<polygon fill="midnightblue" stroke="midnightblue" points="672.414,-24.1186 661.919,-25.5721 671.029,-30.9804 672.414,-24.1186"/>
</g>
<!-- Node14 -->
<g id="node27" class="node"><title>Node14</title>
<polygon fill="none" stroke="#bfbfbf" points="705.5,-6.5 705.5,-25.5 820.5,-25.5 820.5,-6.5 705.5,-6.5"/>
<text text-anchor="middle" x="763" y="-13.5" font-family="Helvetica,sans-Serif" font-size="10.00">boost/integer_traits.hpp</text>
</g>
<!-- Node4&#45;&gt;Node14 -->
<g id="edge26" class="edge"><title>Node4&#45;&gt;Node14</title>
<path fill="none" stroke="midnightblue" d="M995.487,-68.4717C954.001,-59.4936 886.884,-44.8997 829,-32 822.903,-30.6413 816.493,-29.2002 810.162,-27.7694"/>
<polygon fill="midnightblue" stroke="midnightblue" points="810.861,-24.3392 800.335,-25.5428 809.315,-31.1661 810.861,-24.3392"/>
</g>
<!-- Node15 -->
<g id="node29" class="node"><title>Node15</title>
<polygon fill="none" stroke="#bfbfbf" points="838.5,-6.5 838.5,-25.5 951.5,-25.5 951.5,-6.5 838.5,-6.5"/>
<text text-anchor="middle" x="895" y="-13.5" font-family="Helvetica,sans-Serif" font-size="10.00">boost/intrusive_ptr.hpp</text>
</g>
<!-- Node4&#45;&gt;Node15 -->
<g id="edge28" class="edge"><title>Node4&#45;&gt;Node15</title>
<path fill="none" stroke="midnightblue" d="M1014.94,-68.4035C991.238,-58.245 951.594,-41.2547 924.417,-29.6074"/>
<polygon fill="midnightblue" stroke="midnightblue" points="925.592,-26.3028 915.021,-25.5806 922.834,-32.7369 925.592,-26.3028"/>
</g>
<!-- Node16 -->
<g id="node31" class="node"><title>Node16</title>
<polygon fill="none" stroke="#bfbfbf" points="969.5,-6.5 969.5,-25.5 1100.5,-25.5 1100.5,-6.5 969.5,-6.5"/>
<text text-anchor="middle" x="1035" y="-13.5" font-family="Helvetica,sans-Serif" font-size="10.00">boost/locale/boundary.hpp</text>
</g>
<!-- Node4&#45;&gt;Node16 -->
<g id="edge30" class="edge"><title>Node4&#45;&gt;Node16</title>
<path fill="none" stroke="midnightblue" d="M1035,-68.4035C1035,-59.9381 1035,-46.7283 1035,-35.8199"/>
<polygon fill="midnightblue" stroke="midnightblue" points="1038.5,-35.5806 1035,-25.5806 1031.5,-35.5806 1038.5,-35.5806"/>
</g>
<!-- Node17 -->
<g id="node33" class="node"><title>Node17</title>
<polygon fill="none" stroke="#bfbfbf" points="1118.5,-6.5 1118.5,-25.5 1253.5,-25.5 1253.5,-6.5 1118.5,-6.5"/>
<text text-anchor="middle" x="1186" y="-13.5" font-family="Helvetica,sans-Serif" font-size="10.00">boost/locale/conversion.hpp</text>
</g>
<!-- Node4&#45;&gt;Node17 -->
<g id="edge32" class="edge"><title>Node4&#45;&gt;Node17</title>
<path fill="none" stroke="midnightblue" d="M1056.63,-68.4035C1082.42,-58.1559 1125.71,-40.9561 1155.04,-29.3021"/>
<polygon fill="midnightblue" stroke="midnightblue" points="1156.4,-32.526 1164.41,-25.5806 1153.82,-26.0207 1156.4,-32.526"/>
</g>
<!-- Node18 -->
<g id="node35" class="node"><title>Node18</title>
<polygon fill="none" stroke="#bfbfbf" points="1272,-6.5 1272,-25.5 1400,-25.5 1400,-6.5 1272,-6.5"/>
<text text-anchor="middle" x="1336" y="-13.5" font-family="Helvetica,sans-Serif" font-size="10.00">boost/locale/encoding.hpp</text>
</g>
<!-- Node4&#45;&gt;Node18 -->
<g id="edge34" class="edge"><title>Node4&#45;&gt;Node18</title>
<path fill="none" stroke="midnightblue" d="M1077.69,-68.5949C1123.32,-59.5959 1197.79,-44.8722 1262,-32 1269.16,-30.5652 1276.7,-29.0448 1284.13,-27.544"/>
<polygon fill="midnightblue" stroke="midnightblue" points="1285.02,-30.9335 1294.13,-25.5194 1283.64,-24.0726 1285.02,-30.9335"/>
</g>
<!-- Node19 -->
<g id="node37" class="node"><title>Node19</title>
<polygon fill="none" stroke="#bfbfbf" points="1418.5,-6.5 1418.5,-25.5 1547.5,-25.5 1547.5,-6.5 1418.5,-6.5"/>
<text text-anchor="middle" x="1483" y="-13.5" font-family="Helvetica,sans-Serif" font-size="10.00">boost/locale/generator.hpp</text>
</g>
<!-- Node4&#45;&gt;Node19 -->
<g id="edge36" class="edge"><title>Node4&#45;&gt;Node19</title>
<path fill="none" stroke="midnightblue" d="M1077.61,-69.8132C1081.79,-69.1721 1085.97,-68.5562 1090,-68 1231.34,-48.4735 1268.06,-54.1936 1409,-32 1417.19,-30.7098 1425.86,-29.1411 1434.26,-27.5103"/>
<polygon fill="midnightblue" stroke="midnightblue" points="1435.2,-30.891 1444.33,-25.5049 1433.83,-24.0259 1435.2,-30.891"/>
</g>
<!-- Node20 -->
<g id="node39" class="node"><title>Node20</title>
<polygon fill="none" stroke="#bfbfbf" points="1566,-6.5 1566,-25.5 1666,-25.5 1666,-6.5 1566,-6.5"/>
<text text-anchor="middle" x="1616" y="-13.5" font-family="Helvetica,sans-Serif" font-size="10.00">boost/locale/utf.hpp</text>
</g>
<!-- Node4&#45;&gt;Node20 -->
<g id="edge38" class="edge"><title>Node4&#45;&gt;Node20</title>
<path fill="none" stroke="midnightblue" d="M1077.59,-69.6641C1081.77,-69.0532 1085.97,-68.4851 1090,-68 1296.24,-43.2047 1350.96,-65.308 1556,-32 1562.47,-30.9493 1569.26,-29.547 1575.86,-28.0205"/>
<polygon fill="midnightblue" stroke="midnightblue" points="1577.1,-31.3202 1585.99,-25.5521 1575.45,-24.5191 1577.1,-31.3202"/>
</g>
<!-- Node21 -->
<g id="node41" class="node"><title>Node21</title>
<polygon fill="none" stroke="#bfbfbf" points="1684,-6.5 1684,-25.5 1780,-25.5 1780,-6.5 1684,-6.5"/>
<text text-anchor="middle" x="1732" y="-13.5" font-family="Helvetica,sans-Serif" font-size="10.00">boost/optional.hpp</text>
</g>
<!-- Node4&#45;&gt;Node21 -->
<g id="edge40" class="edge"><title>Node4&#45;&gt;Node21</title>
<path fill="none" stroke="midnightblue" d="M1077.58,-69.598C1081.77,-69.0004 1085.96,-68.4535 1090,-68 1348.86,-38.9299 1417.81,-73.3448 1675,-32 1681.3,-30.9875 1687.91,-29.5785 1694.31,-28.0262"/>
<polygon fill="midnightblue" stroke="midnightblue" points="1695.3,-31.3856 1704.11,-25.5054 1693.55,-24.6061 1695.3,-31.3856"/>
</g>
<!-- Node22 -->
<g id="node43" class="node"><title>Node22</title>
<polygon fill="none" stroke="#bfbfbf" points="1798.5,-1 1798.5,-31 1895.5,-31 1895.5,-1 1798.5,-1"/>
<text text-anchor="start" x="1806.5" y="-19" font-family="Helvetica,sans-Serif" font-size="10.00">boost/ptr_container</text>
<text text-anchor="middle" x="1847" y="-8" font-family="Helvetica,sans-Serif" font-size="10.00">/ptr_deque.hpp</text>
</g>
<!-- Node4&#45;&gt;Node22 -->
<g id="edge42" class="edge"><title>Node4&#45;&gt;Node22</title>
<path fill="none" stroke="midnightblue" d="M1077.57,-69.5556C1081.76,-68.9667 1085.96,-68.4333 1090,-68 1395.98,-35.1877 1479.73,-78.24 1788.28,-31.8663"/>
<polygon fill="midnightblue" stroke="midnightblue" points="1789.05,-35.2891 1798.41,-30.3238 1788,-28.3689 1789.05,-35.2891"/>
</g>
<!-- Node23 -->
<g id="node45" class="node"><title>Node23</title>
<polygon fill="none" stroke="#bfbfbf" points="1913.5,-1 1913.5,-31 2010.5,-31 2010.5,-1 1913.5,-1"/>
<text text-anchor="start" x="1921.5" y="-19" font-family="Helvetica,sans-Serif" font-size="10.00">boost/ptr_container</text>
<text text-anchor="middle" x="1962" y="-8" font-family="Helvetica,sans-Serif" font-size="10.00">/ptr_map.hpp</text>
</g>
<!-- Node4&#45;&gt;Node23 -->
<g id="edge44" class="edge"><title>Node4&#45;&gt;Node23</title>
<path fill="none" stroke="midnightblue" d="M1077.57,-69.5249C1081.76,-68.9421 1085.96,-68.4186 1090,-68 1446.95,-31.032 1544.11,-84.643 1903.52,-31.8211"/>
<polygon fill="midnightblue" stroke="midnightblue" points="1904.04,-35.2827 1913.42,-30.3499 1903.01,-28.3588 1904.04,-35.2827"/>
</g>
<!-- Node24 -->
<g id="node47" class="node"><title>Node24</title>
<polygon fill="none" stroke="#bfbfbf" points="2028.5,-1 2028.5,-31 2125.5,-31 2125.5,-1 2028.5,-1"/>
<text text-anchor="start" x="2036.5" y="-19" font-family="Helvetica,sans-Serif" font-size="10.00">boost/ptr_container</text>
<text text-anchor="middle" x="2077" y="-8" font-family="Helvetica,sans-Serif" font-size="10.00">/ptr_vector.hpp</text>
</g>
<!-- Node4&#45;&gt;Node24 -->
<g id="edge46" class="edge"><title>Node4&#45;&gt;Node24</title>
<path fill="none" stroke="midnightblue" d="M1077.57,-69.5017C1081.76,-68.9237 1085.96,-68.4076 1090,-68 1497.8,-26.8915 1608.41,-91.0249 2018.37,-31.8364"/>
<polygon fill="midnightblue" stroke="midnightblue" points="2019.03,-35.2774 2028.42,-30.3697 2018.02,-28.3508 2019.03,-35.2774"/>
</g>
<!-- Node25 -->
<g id="node49" class="node"><title>Node25</title>
<polygon fill="none" stroke="#bfbfbf" points="2143.5,-6.5 2143.5,-25.5 2216.5,-25.5 2216.5,-6.5 2143.5,-6.5"/>
<text text-anchor="middle" x="2180" y="-13.5" font-family="Helvetica,sans-Serif" font-size="10.00">boost/ref.hpp</text>
</g>
<!-- Node4&#45;&gt;Node25 -->
<g id="edge48" class="edge"><title>Node4&#45;&gt;Node25</title>
<path fill="none" stroke="midnightblue" d="M1077.57,-69.4836C1081.76,-68.9093 1085.96,-68.399 1090,-68 1552.03,-22.4195 1676.8,-112.762 2134,-32 2138.59,-31.189 2143.35,-30.0247 2148,-28.6983"/>
<polygon fill="midnightblue" stroke="midnightblue" points="2149.36,-31.9382 2157.86,-25.6101 2147.27,-25.2579 2149.36,-31.9382"/>
</g>
<!-- Node26 -->
<g id="node51" class="node"><title>Node26</title>
<polygon fill="none" stroke="#bfbfbf" points="2235,-6.5 2235,-25.5 2345,-25.5 2345,-6.5 2235,-6.5"/>
<text text-anchor="middle" x="2290" y="-13.5" font-family="Helvetica,sans-Serif" font-size="10.00">boost/scoped_ptr.hpp</text>
</g>
<!-- Node4&#45;&gt;Node26 -->
<g id="edge50" class="edge"><title>Node4&#45;&gt;Node26</title>
<path fill="none" stroke="midnightblue" d="M1077.57,-69.4719C1081.76,-68.8999 1085.96,-68.3934 1090,-68 1592.33,-19.1446 1724.51,-97.0523 2225,-32 2232.67,-31.0036 2240.75,-29.507 2248.52,-27.8388"/>
<polygon fill="midnightblue" stroke="midnightblue" points="2249.51,-31.2033 2258.49,-25.5746 2247.96,-24.3773 2249.51,-31.2033"/>
</g>
<!-- Node27 -->
<g id="node53" class="node"><title>Node27</title>
<polygon fill="none" stroke="#bfbfbf" points="2363.5,-6.5 2363.5,-25.5 2452.5,-25.5 2452.5,-6.5 2363.5,-6.5"/>
<text text-anchor="middle" x="2408" y="-13.5" font-family="Helvetica,sans-Serif" font-size="10.00">boost/swap.hpp</text>
</g>
<!-- Node4&#45;&gt;Node27 -->
<g id="edge52" class="edge"><title>Node4&#45;&gt;Node27</title>
<path fill="none" stroke="midnightblue" d="M1077.56,-69.4582C1081.76,-68.889 1085.95,-68.3868 1090,-68 1649.45,-14.5017 1798.28,-115.824 2354,-32 2359.98,-31.0982 2366.24,-29.7504 2372.29,-28.2262"/>
<polygon fill="midnightblue" stroke="midnightblue" points="2373.45,-31.5375 2382.18,-25.5422 2371.62,-24.7815 2373.45,-31.5375"/>
</g>
<!-- Node28&#45;&gt;Node3 -->
<g id="edge56" class="edge"><title>Node28&#45;&gt;Node3</title>
<path fill="none" stroke="midnightblue" d="M940.131,-87.7511C941.657,-94.8579 942.104,-105.136 941.472,-114.101"/>
<polygon fill="midnightblue" stroke="midnightblue" points="937.993,-113.713 940.166,-124.083 944.934,-114.622 937.993,-113.713"/>
</g>
<!-- Node29&#45;&gt;Node2 -->
<g id="edge60" class="edge"><title>Node29&#45;&gt;Node2</title>
<path fill="none" stroke="midnightblue" d="M1040.13,-143.751C1041.66,-150.858 1042.1,-161.136 1041.47,-170.101"/>
<polygon fill="midnightblue" stroke="midnightblue" points="1037.99,-169.713 1040.17,-180.083 1044.93,-170.622 1037.99,-169.713"/>
</g>
<!-- Node31 -->
<g id="node63" class="node"><title>Node31</title>
<a xlink:href="move_8hpp.html" target="_top" xlink:title="Om header file.">
<polygon fill="none" stroke="black" points="1098.5,-124.5 1098.5,-143.5 1173.5,-143.5 1173.5,-124.5 1098.5,-124.5"/>
<text text-anchor="middle" x="1136" y="-131.5" font-family="Helvetica,sans-Serif" font-size="10.00">om/move.hpp</text>
</a>
</g>
<!-- Node30&#45;&gt;Node31 -->
<g id="edge64" class="edge"><title>Node30&#45;&gt;Node31</title>
<path fill="none" stroke="midnightblue" d="M1183,-180.324C1174.81,-172.42 1162.49,-160.548 1152.53,-150.938"/>
<polygon fill="midnightblue" stroke="midnightblue" points="1154.79,-148.256 1145.16,-143.834 1149.93,-153.295 1154.79,-148.256"/>
</g>
<!-- Node33 -->
<g id="node69" class="node"><title>Node33</title>
<a xlink:href="moveable_8cpp.html" target="_top" xlink:title="Om source file.">
<polygon fill="none" stroke="black" points="1191.5,-124.5 1191.5,-143.5 1284.5,-143.5 1284.5,-124.5 1191.5,-124.5"/>
<text text-anchor="middle" x="1238" y="-131.5" font-family="Helvetica,sans-Serif" font-size="10.00">om/moveable.cpp</text>
</a>
</g>
<!-- Node30&#45;&gt;Node33 -->
<g id="edge72" class="edge"><title>Node30&#45;&gt;Node33</title>
<path fill="none" stroke="midnightblue" d="M1194.43,-180.083C1199.47,-172.22 1209.04,-160.569 1218.07,-151.081"/>
<polygon fill="midnightblue" stroke="midnightblue" points="1220.81,-153.292 1225.41,-143.751 1215.86,-148.337 1220.81,-153.292"/>
</g>
<!-- Node31&#45;&gt;Node4 -->
<g id="edge66" class="edge"><title>Node31&#45;&gt;Node4</title>
<path fill="none" stroke="midnightblue" d="M1119.77,-124.324C1103.65,-115.703 1078.7,-102.364 1060.04,-92.3855"/>
<polygon fill="midnightblue" stroke="midnightblue" points="1061.66,-89.283 1051.19,-87.6545 1058.36,-95.456 1061.66,-89.283"/>
</g>
<!-- Node32 -->
<g id="node66" class="node"><title>Node32</title>
<a xlink:href="move_8cpp.html" target="_top" xlink:title="Om source file.">
<polygon fill="none" stroke="black" points="1099,-68.5 1099,-87.5 1173,-87.5 1173,-68.5 1099,-68.5"/>
<text text-anchor="middle" x="1136" y="-75.5" font-family="Helvetica,sans-Serif" font-size="10.00">om/move.cpp</text>
</a>
</g>
<!-- Node31&#45;&gt;Node32 -->
<g id="edge68" class="edge"><title>Node31&#45;&gt;Node32</title>
<path fill="none" stroke="midnightblue" d="M1130.83,-124.083C1129.32,-116.927 1128.89,-106.635 1129.54,-97.6911"/>
<polygon fill="midnightblue" stroke="midnightblue" points="1133.02,-98.1262 1130.87,-87.7511 1126.08,-97.2002 1133.02,-98.1262"/>
</g>
<!-- Node32&#45;&gt;Node31 -->
<g id="edge70" class="edge"><title>Node32&#45;&gt;Node31</title>
<path fill="none" stroke="midnightblue" d="M1141.13,-87.7511C1142.66,-94.8579 1143.1,-105.136 1142.47,-114.101"/>
<polygon fill="midnightblue" stroke="midnightblue" points="1138.99,-113.713 1141.17,-124.083 1145.93,-114.622 1138.99,-113.713"/>
</g>
<!-- Node33&#45;&gt;Node30 -->
<g id="edge74" class="edge"><title>Node33&#45;&gt;Node30</title>
<path fill="none" stroke="midnightblue" d="M1235.62,-143.834C1230.54,-151.791 1220.77,-163.673 1211.61,-173.253"/>
<polygon fill="midnightblue" stroke="midnightblue" points="1209.13,-170.79 1204.51,-180.324 1214.06,-175.753 1209.13,-170.79"/>
</g>
<!-- Node34&#45;&gt;Node1 -->
<g id="edge78" class="edge"><title>Node34&#45;&gt;Node1</title>
<path fill="none" stroke="midnightblue" d="M1297.15,-199.834C1290.61,-207.948 1278.52,-220.145 1267.6,-229.82"/>
<polygon fill="midnightblue" stroke="midnightblue" points="1265.3,-227.179 1259.95,-236.324 1269.84,-232.512 1265.3,-227.179"/>
</g>
</g>
</svg>
