<?xml version="1.0" encoding="UTF-8" standalone="no"?>
<!DOCTYPE svg PUBLIC "-//W3C//DTD SVG 1.1//EN"
 "http://www.w3.org/Graphics/SVG/1.1/DTD/svg11.dtd">
<!-- Generated by graphviz version 2.28.0 (20120817.0054)
 -->
<!-- Title: code/om/giveable.cpp Pages: 1 -->
<svg width="1304pt" height="680pt"
 viewBox="0.00 0.00 1304.00 680.00" xmlns="http://www.w3.org/2000/svg" xmlns:xlink="http://www.w3.org/1999/xlink">
<g id="graph1" class="graph" transform="scale(1 1) rotate(0) translate(4 676)">
<title>code/om/giveable.cpp</title>
<!-- Node1 -->
<g id="node1" class="node"><title>Node1</title>
<polygon fill="#bfbfbf" stroke="black" points="936,-652.5 936,-671.5 1046,-671.5 1046,-652.5 936,-652.5"/>
<text text-anchor="middle" x="991" y="-659.5" font-family="Helvetica,sans-Serif" font-size="10.00">code/om/giveable.cpp</text>
</g>
<!-- Node2 -->
<g id="node3" class="node"><title>Node2</title>
<a xlink:href="giveable_8hpp.html" target="_top" xlink:title="Om header file.">
<polygon fill="none" stroke="black" points="935.5,-596.5 935.5,-615.5 1046.5,-615.5 1046.5,-596.5 935.5,-596.5"/>
<text text-anchor="middle" x="991" y="-603.5" font-family="Helvetica,sans-Serif" font-size="10.00">code/om/giveable.hpp</text>
</a>
</g>
<!-- Node1&#45;&gt;Node2 -->
<g id="edge2" class="edge"><title>Node1&#45;&gt;Node2</title>
<path fill="none" stroke="midnightblue" d="M984.528,-642.101C983.896,-633.136 984.343,-622.858 985.869,-615.751"/>
<polygon fill="midnightblue" stroke="midnightblue" points="981.066,-642.622 985.834,-652.083 988.007,-641.713 981.066,-642.622"/>
</g>
<!-- Node2&#45;&gt;Node1 -->
<g id="edge126" class="edge"><title>Node2&#45;&gt;Node1</title>
<path fill="none" stroke="midnightblue" d="M997.458,-625.691C998.106,-634.635 997.676,-644.927 996.166,-652.083"/>
<polygon fill="midnightblue" stroke="midnightblue" points="1000.92,-625.2 996.131,-615.751 993.985,-626.126 1000.92,-625.2"/>
</g>
<!-- Node3 -->
<g id="node5" class="node"><title>Node3</title>
<a xlink:href="default__giveable_8hpp.html" target="_top" xlink:title="Om header file.">
<polygon fill="none" stroke="black" points="807,-540.5 807,-559.5 951,-559.5 951,-540.5 807,-540.5"/>
<text text-anchor="middle" x="879" y="-547.5" font-family="Helvetica,sans-Serif" font-size="10.00">code/om/default_giveable.hpp</text>
</a>
</g>
<!-- Node2&#45;&gt;Node3 -->
<g id="edge4" class="edge"><title>Node2&#45;&gt;Node3</title>
<path fill="none" stroke="midnightblue" d="M963.751,-591.862C942.984,-581.849 914.977,-568.346 896.95,-559.655"/>
<polygon fill="midnightblue" stroke="midnightblue" points="962.477,-595.134 973.005,-596.324 965.518,-588.828 962.477,-595.134"/>
</g>
<!-- Node45 -->
<g id="node109" class="node"><title>Node45</title>
<a xlink:href="program_8hpp.html" target="_top" xlink:title="Om header file.">
<polygon fill="none" stroke="black" points="1048,-540.5 1048,-559.5 1158,-559.5 1158,-540.5 1048,-540.5"/>
<text text-anchor="middle" x="1103" y="-547.5" font-family="Helvetica,sans-Serif" font-size="10.00">code/om/program.hpp</text>
</a>
</g>
<!-- Node2&#45;&gt;Node45 -->
<g id="edge128" class="edge"><title>Node2&#45;&gt;Node45</title>
<path fill="none" stroke="midnightblue" d="M1018.25,-591.862C1039.02,-581.849 1067.02,-568.346 1085.05,-559.655"/>
<polygon fill="midnightblue" stroke="midnightblue" points="1016.48,-588.828 1008.99,-596.324 1019.52,-595.134 1016.48,-588.828"/>
</g>
<!-- Node4 -->
<g id="node7" class="node"><title>Node4</title>
<a xlink:href="default__giveable_8cpp.html" target="_top" xlink:title="Om source file.">
<polygon fill="none" stroke="black" points="727.5,-484.5 727.5,-503.5 870.5,-503.5 870.5,-484.5 727.5,-484.5"/>
<text text-anchor="middle" x="799" y="-491.5" font-family="Helvetica,sans-Serif" font-size="10.00">code/om/default_giveable.cpp</text>
</a>
</g>
<!-- Node3&#45;&gt;Node4 -->
<g id="edge6" class="edge"><title>Node3&#45;&gt;Node4</title>
<path fill="none" stroke="midnightblue" d="M852.155,-534.935C836.361,-525.099 817.632,-512.263 806.939,-503.834"/>
<polygon fill="midnightblue" stroke="midnightblue" points="850.667,-538.126 861.032,-540.324 854.3,-532.143 850.667,-538.126"/>
</g>
<!-- Node5 -->
<g id="node10" class="node"><title>Node5</title>
<a xlink:href="default__program_8hpp.html" target="_top" xlink:title="Om header file.">
<polygon fill="none" stroke="black" points="888.5,-484.5 888.5,-503.5 1031.5,-503.5 1031.5,-484.5 888.5,-484.5"/>
<text text-anchor="middle" x="960" y="-491.5" font-family="Helvetica,sans-Serif" font-size="10.00">code/om/default_program.hpp</text>
</a>
</g>
<!-- Node3&#45;&gt;Node5 -->
<g id="edge10" class="edge"><title>Node3&#45;&gt;Node5</title>
<path fill="none" stroke="midnightblue" d="M900.567,-534.622C915.364,-524.757 934.512,-511.992 947.018,-503.655"/>
<polygon fill="midnightblue" stroke="midnightblue" points="898.393,-531.865 892.014,-540.324 902.276,-537.689 898.393,-531.865"/>
</g>
<!-- Node4&#45;&gt;Node3 -->
<g id="edge8" class="edge"><title>Node4&#45;&gt;Node3</title>
<path fill="none" stroke="midnightblue" d="M825.86,-509.074C841.749,-518.971 860.606,-531.9 871.261,-540.324"/>
<polygon fill="midnightblue" stroke="midnightblue" points="827.296,-505.852 816.932,-503.655 823.664,-511.836 827.296,-505.852"/>
</g>
<!-- Node6 -->
<g id="node12" class="node"><title>Node6</title>
<a xlink:href="default__element_8hpp.html" target="_top" xlink:title="Om header file.">
<polygon fill="none" stroke="black" points="734,-428.5 734,-447.5 874,-447.5 874,-428.5 734,-428.5"/>
<text text-anchor="middle" x="804" y="-435.5" font-family="Helvetica,sans-Serif" font-size="10.00">code/om/default_element.hpp</text>
</a>
</g>
<!-- Node5&#45;&gt;Node6 -->
<g id="edge12" class="edge"><title>Node5&#45;&gt;Node6</title>
<path fill="none" stroke="midnightblue" d="M925.83,-481.172C896.456,-471.004 854.802,-456.585 828.603,-447.516"/>
<polygon fill="midnightblue" stroke="midnightblue" points="924.687,-484.48 935.281,-484.444 926.976,-477.865 924.687,-484.48"/>
</g>
<!-- Node40 -->
<g id="node95" class="node"><title>Node40</title>
<a xlink:href="default__program_8cpp.html" target="_top" xlink:title="Om source file.">
<polygon fill="none" stroke="black" points="892,-428.5 892,-447.5 1034,-447.5 1034,-428.5 892,-428.5"/>
<text text-anchor="middle" x="963" y="-435.5" font-family="Helvetica,sans-Serif" font-size="10.00">code/om/default_program.cpp</text>
</a>
</g>
<!-- Node5&#45;&gt;Node40 -->
<g id="edge110" class="edge"><title>Node5&#45;&gt;Node40</title>
<path fill="none" stroke="midnightblue" d="M954.578,-474.101C954.444,-465.136 955.462,-454.858 957.383,-447.751"/>
<polygon fill="midnightblue" stroke="midnightblue" points="951.088,-474.374 955.329,-484.083 958.068,-473.848 951.088,-474.374"/>
</g>
<!-- Node41 -->
<g id="node98" class="node"><title>Node41</title>
<a xlink:href="literal_8hpp.html" target="_top" xlink:title="Om header file.">
<polygon fill="none" stroke="black" points="393.5,-428.5 393.5,-447.5 488.5,-447.5 488.5,-428.5 393.5,-428.5"/>
<text text-anchor="middle" x="441" y="-435.5" font-family="Helvetica,sans-Serif" font-size="10.00">code/om/literal.hpp</text>
</a>
</g>
<!-- Node5&#45;&gt;Node41 -->
<g id="edge114" class="edge"><title>Node5&#45;&gt;Node41</title>
<path fill="none" stroke="midnightblue" d="M878.368,-483.957C707.671,-466.687 662.943,-469.131 497,-448 494.265,-447.652 491.458,-447.272 488.628,-446.872"/>
<polygon fill="midnightblue" stroke="midnightblue" points="878.15,-487.452 888.453,-484.985 878.86,-480.488 878.15,-487.452"/>
</g>
<!-- Node43 -->
<g id="node103" class="node"><title>Node43</title>
<a xlink:href="null_8hpp.html" target="_top" xlink:title="Om header file.">
<polygon fill="none" stroke="black" points="506.5,-428.5 506.5,-447.5 595.5,-447.5 595.5,-428.5 506.5,-428.5"/>
<text text-anchor="middle" x="551" y="-435.5" font-family="Helvetica,sans-Serif" font-size="10.00">code/om/null.hpp</text>
</a>
</g>
<!-- Node5&#45;&gt;Node43 -->
<g id="edge120" class="edge"><title>Node5&#45;&gt;Node43</title>
<path fill="none" stroke="midnightblue" d="M885.121,-483.114C800.414,-471.93 665.229,-454.082 595.627,-444.892"/>
<polygon fill="midnightblue" stroke="midnightblue" points="884.821,-486.604 895.193,-484.444 885.737,-479.665 884.821,-486.604"/>
</g>
<!-- Node7 -->
<g id="node14" class="node"><title>Node7</title>
<a xlink:href="default__atom_8hpp.html" target="_top" xlink:title="Om header file.">
<polygon fill="none" stroke="black" points="905.5,-372.5 905.5,-391.5 1034.5,-391.5 1034.5,-372.5 905.5,-372.5"/>
<text text-anchor="middle" x="970" y="-379.5" font-family="Helvetica,sans-Serif" font-size="10.00">code/om/default_atom.hpp</text>
</a>
</g>
<!-- Node6&#45;&gt;Node7 -->
<g id="edge14" class="edge"><title>Node6&#45;&gt;Node7</title>
<path fill="none" stroke="midnightblue" d="M839.953,-425.304C871.232,-415.129 915.821,-400.625 943.82,-391.516"/>
<polygon fill="midnightblue" stroke="midnightblue" points="838.73,-422.022 830.303,-428.444 840.895,-428.678 838.73,-422.022"/>
</g>
<!-- Node37 -->
<g id="node87" class="node"><title>Node37</title>
<a xlink:href="default__element_8cpp.html" target="_top" xlink:title="Om source file.">
<polygon fill="none" stroke="black" points="741,-372.5 741,-391.5 881,-391.5 881,-372.5 741,-372.5"/>
<text text-anchor="middle" x="811" y="-379.5" font-family="Helvetica,sans-Serif" font-size="10.00">code/om/default_element.cpp</text>
</a>
</g>
<!-- Node6&#45;&gt;Node37 -->
<g id="edge100" class="edge"><title>Node6&#45;&gt;Node37</title>
<path fill="none" stroke="midnightblue" d="M799.995,-417.805C800.547,-408.91 802.314,-398.78 804.735,-391.751"/>
<polygon fill="midnightblue" stroke="midnightblue" points="796.495,-418.081 799.99,-428.083 803.495,-418.085 796.495,-418.081"/>
</g>
<!-- Node38 -->
<g id="node90" class="node"><title>Node38</title>
<a xlink:href="operand_8hpp.html" target="_top" xlink:title="Om header file.">
<polygon fill="none" stroke="black" points="613,-372.5 613,-391.5 723,-391.5 723,-372.5 613,-372.5"/>
<text text-anchor="middle" x="668" y="-379.5" font-family="Helvetica,sans-Serif" font-size="10.00">code/om/operand.hpp</text>
</a>
</g>
<!-- Node6&#45;&gt;Node38 -->
<g id="edge104" class="edge"><title>Node6&#45;&gt;Node38</title>
<path fill="none" stroke="midnightblue" d="M772.865,-424.638C747.343,-414.504 711.891,-400.427 689.449,-391.516"/>
<polygon fill="midnightblue" stroke="midnightblue" points="771.865,-428.006 782.45,-428.444 774.448,-421.5 771.865,-428.006"/>
</g>
<!-- Node8 -->
<g id="node16" class="node"><title>Node8</title>
<a xlink:href="default__atom_8cpp.html" target="_top" xlink:title="Om source file.">
<polygon fill="none" stroke="black" points="1046,-316.5 1046,-335.5 1174,-335.5 1174,-316.5 1046,-316.5"/>
<text text-anchor="middle" x="1110" y="-323.5" font-family="Helvetica,sans-Serif" font-size="10.00">code/om/default_atom.cpp</text>
</a>
</g>
<!-- Node7&#45;&gt;Node8 -->
<g id="edge16" class="edge"><title>Node7&#45;&gt;Node8</title>
<path fill="none" stroke="midnightblue" d="M996.603,-368.503C1021.37,-358.38 1057.89,-344.388 1082.84,-335.516"/>
<polygon fill="midnightblue" stroke="midnightblue" points="994.993,-365.382 987.095,-372.444 997.673,-371.848 994.993,-365.382"/>
</g>
<!-- Node9 -->
<g id="node19" class="node"><title>Node9</title>
<a xlink:href="operator_8hpp.html" target="_top" xlink:title="Om header file.">
<polygon fill="none" stroke="black" points="741,-316.5 741,-335.5 851,-335.5 851,-316.5 741,-316.5"/>
<text text-anchor="middle" x="796" y="-323.5" font-family="Helvetica,sans-Serif" font-size="10.00">code/om/operator.hpp</text>
</a>
</g>
<!-- Node7&#45;&gt;Node9 -->
<g id="edge20" class="edge"><title>Node7&#45;&gt;Node9</title>
<path fill="none" stroke="midnightblue" d="M932.739,-369.436C899.933,-359.255 852.917,-344.664 823.442,-335.516"/>
<polygon fill="midnightblue" stroke="midnightblue" points="931.841,-372.822 942.429,-372.444 933.916,-366.137 931.841,-372.822"/>
</g>
<!-- Node35 -->
<g id="node82" class="node"><title>Node35</title>
<a xlink:href="separator_8hpp.html" target="_top" xlink:title="Om header file.">
<polygon fill="none" stroke="black" points="912,-316.5 912,-335.5 1028,-335.5 1028,-316.5 912,-316.5"/>
<text text-anchor="middle" x="970" y="-323.5" font-family="Helvetica,sans-Serif" font-size="10.00">code/om/separator.hpp</text>
</a>
</g>
<!-- Node7&#45;&gt;Node35 -->
<g id="edge94" class="edge"><title>Node7&#45;&gt;Node35</title>
<path fill="none" stroke="midnightblue" d="M970,-361.805C970,-352.91 970,-342.78 970,-335.751"/>
<polygon fill="midnightblue" stroke="midnightblue" points="966.5,-362.083 970,-372.083 973.5,-362.083 966.5,-362.083"/>
</g>
<!-- Node8&#45;&gt;Node7 -->
<g id="edge18" class="edge"><title>Node8&#45;&gt;Node7</title>
<path fill="none" stroke="midnightblue" d="M1083.51,-339.451C1058.77,-349.563 1022.26,-363.557 997.272,-372.444"/>
<polygon fill="midnightblue" stroke="midnightblue" points="1085.1,-342.579 1093,-335.516 1082.42,-336.113 1085.1,-342.579"/>
</g>
<!-- Node10 -->
<g id="node21" class="node"><title>Node10</title>
<a xlink:href="form_8hpp.html" target="_top" xlink:title="Om header file.">
<polygon fill="none" stroke="black" points="835,-260.5 835,-279.5 927,-279.5 927,-260.5 835,-260.5"/>
<text text-anchor="middle" x="881" y="-267.5" font-family="Helvetica,sans-Serif" font-size="10.00">code/om/form.hpp</text>
</a>
</g>
<!-- Node9&#45;&gt;Node10 -->
<g id="edge22" class="edge"><title>Node9&#45;&gt;Node10</title>
<path fill="none" stroke="midnightblue" d="M818.194,-310.901C833.78,-300.999 854.13,-288.071 867.377,-279.655"/>
<polygon fill="midnightblue" stroke="midnightblue" points="816.221,-308.007 809.657,-316.324 819.974,-313.916 816.221,-308.007"/>
</g>
<!-- Node24 -->
<g id="node55" class="node"><title>Node24</title>
<a xlink:href="operator_8cpp.html" target="_top" xlink:title="Om source file.">
<polygon fill="none" stroke="black" points="591.5,-260.5 591.5,-279.5 700.5,-279.5 700.5,-260.5 591.5,-260.5"/>
<text text-anchor="middle" x="646" y="-267.5" font-family="Helvetica,sans-Serif" font-size="10.00">code/om/operator.cpp</text>
</a>
</g>
<!-- Node9&#45;&gt;Node24 -->
<g id="edge62" class="edge"><title>Node9&#45;&gt;Node24</title>
<path fill="none" stroke="midnightblue" d="M757.449,-313.172C727.617,-303.004 687.77,-288.585 664.577,-279.516"/>
<polygon fill="midnightblue" stroke="midnightblue" points="756.549,-316.562 767.143,-316.444 758.787,-309.93 756.549,-316.562"/>
</g>
<!-- Node25 -->
<g id="node58" class="node"><title>Node25</title>
<a xlink:href="pair_8hpp.html" target="_top" xlink:title="Om header file.">
<polygon fill="none" stroke="black" points="718.5,-260.5 718.5,-279.5 809.5,-279.5 809.5,-260.5 718.5,-260.5"/>
<text text-anchor="middle" x="764" y="-267.5" font-family="Helvetica,sans-Serif" font-size="10.00">code/om/pair.hpp</text>
</a>
</g>
<!-- Node9&#45;&gt;Node25 -->
<g id="edge66" class="edge"><title>Node9&#45;&gt;Node25</title>
<path fill="none" stroke="midnightblue" d="M785.496,-307.275C780.027,-298.045 773.582,-287.17 769.186,-279.751"/>
<polygon fill="midnightblue" stroke="midnightblue" points="782.607,-309.264 790.716,-316.083 788.629,-305.696 782.607,-309.264"/>
</g>
<!-- Node11 -->
<g id="node23" class="node"><title>Node11</title>
<a xlink:href="expression_8hpp.html" target="_top" xlink:title="Om header file.">
<polygon fill="none" stroke="black" points="824,-204.5 824,-223.5 946,-223.5 946,-204.5 824,-204.5"/>
<text text-anchor="middle" x="885" y="-211.5" font-family="Helvetica,sans-Serif" font-size="10.00">code/om/expression.hpp</text>
</a>
</g>
<!-- Node10&#45;&gt;Node11 -->
<g id="edge24" class="edge"><title>Node10&#45;&gt;Node11</title>
<path fill="none" stroke="midnightblue" d="M882.4,-250.101C883.064,-241.136 883.825,-230.858 884.352,-223.751"/>
<polygon fill="midnightblue" stroke="midnightblue" points="878.909,-249.852 881.661,-260.083 885.89,-250.369 878.909,-249.852"/>
</g>
<!-- Node23 -->
<g id="node52" class="node"><title>Node23</title>
<a xlink:href="form_8cpp.html" target="_top" xlink:title="Om source file.">
<polygon fill="none" stroke="black" points="964,-204.5 964,-223.5 1056,-223.5 1056,-204.5 964,-204.5"/>
<text text-anchor="middle" x="1010" y="-211.5" font-family="Helvetica,sans-Serif" font-size="10.00">code/om/form.cpp</text>
</a>
</g>
<!-- Node10&#45;&gt;Node23 -->
<g id="edge58" class="edge"><title>Node10&#45;&gt;Node23</title>
<path fill="none" stroke="midnightblue" d="M905.665,-256.232C928.362,-246.131 961.633,-232.309 984.575,-223.516"/>
<polygon fill="midnightblue" stroke="midnightblue" points="904.021,-253.134 896.352,-260.444 906.906,-259.512 904.021,-253.134"/>
</g>
<!-- Node12 -->
<g id="node25" class="node"><title>Node12</title>
<a xlink:href="evaluation_8hpp.html" target="_top" xlink:title="Om header file.">
<polygon fill="none" stroke="black" points="889.5,-142.5 889.5,-161.5 1008.5,-161.5 1008.5,-142.5 889.5,-142.5"/>
<text text-anchor="middle" x="949" y="-149.5" font-family="Helvetica,sans-Serif" font-size="10.00">code/om/evaluation.hpp</text>
</a>
</g>
<!-- Node11&#45;&gt;Node12 -->
<g id="edge26" class="edge"><title>Node11&#45;&gt;Node12</title>
<path fill="none" stroke="midnightblue" d="M901.511,-197.521C913.713,-186.082 929.874,-170.93 939.847,-161.581"/>
<polygon fill="midnightblue" stroke="midnightblue" points="899.071,-195.011 894.17,-204.403 903.859,-200.117 899.071,-195.011"/>
</g>
<!-- Node14 -->
<g id="node30" class="node"><title>Node14</title>
<a xlink:href="expression_8cpp.html" target="_top" xlink:title="Om source file.">
<polygon fill="none" stroke="black" points="1026.5,-142.5 1026.5,-161.5 1147.5,-161.5 1147.5,-142.5 1026.5,-142.5"/>
<text text-anchor="middle" x="1087" y="-149.5" font-family="Helvetica,sans-Serif" font-size="10.00">code/om/expression.cpp</text>
</a>
</g>
<!-- Node11&#45;&gt;Node14 -->
<g id="edge32" class="edge"><title>Node11&#45;&gt;Node14</title>
<path fill="none" stroke="midnightblue" d="M918.965,-201.283C956.362,-189.62 1015.88,-171.999 1053.21,-161.581"/>
<polygon fill="midnightblue" stroke="midnightblue" points="917.531,-198.065 909.041,-204.403 919.63,-204.743 917.531,-198.065"/>
</g>
<!-- Node15 -->
<g id="node33" class="node"><title>Node15</title>
<a xlink:href="expression__operation_8hpp.html" target="_top" xlink:title="Om header file.">
<polygon fill="none" stroke="black" points="1166,-137 1166,-167 1296,-167 1296,-137 1166,-137"/>
<text text-anchor="start" x="1174" y="-155" font-family="Helvetica,sans-Serif" font-size="10.00">code/om/operations</text>
<text text-anchor="middle" x="1231" y="-144" font-family="Helvetica,sans-Serif" font-size="10.00">/expression_operation.hpp</text>
</a>
</g>
<!-- Node11&#45;&gt;Node15 -->
<g id="edge36" class="edge"><title>Node11&#45;&gt;Node15</title>
<path fill="none" stroke="midnightblue" d="M949.546,-202.893C1004.52,-194.14 1085.56,-180.889 1156,-168 1159.27,-167.403 1162.61,-166.779 1165.98,-166.139"/>
<polygon fill="midnightblue" stroke="midnightblue" points="948.921,-199.449 939.594,-204.474 950.019,-206.362 948.921,-199.449"/>
</g>
<!-- Node17 -->
<g id="node37" class="node"><title>Node17</title>
<a xlink:href="fill__operation_8hpp.html" target="_top" xlink:title="Om header file.">
<polygon fill="none" stroke="black" points="530,-137 530,-167 630,-167 630,-137 530,-137"/>
<text text-anchor="start" x="538" y="-155" font-family="Helvetica,sans-Serif" font-size="10.00">code/om/operations</text>
<text text-anchor="middle" x="580" y="-144" font-family="Helvetica,sans-Serif" font-size="10.00">/fill_operation.hpp</text>
</a>
</g>
<!-- Node11&#45;&gt;Node17 -->
<g id="edge40" class="edge"><title>Node11&#45;&gt;Node17</title>
<path fill="none" stroke="midnightblue" d="M822.5,-202.775C772.638,-194.328 701.105,-181.559 639,-168 636.109,-167.369 633.144,-166.696 630.157,-165.999"/>
<polygon fill="midnightblue" stroke="midnightblue" points="822.044,-206.248 832.486,-204.459 823.207,-199.345 822.044,-206.248"/>
</g>
<!-- Node19 -->
<g id="node42" class="node"><title>Node19</title>
<a xlink:href="inject__operation_8hpp.html" target="_top" xlink:title="Om header file.">
<polygon fill="none" stroke="black" points="648,-137 648,-167 752,-167 752,-137 648,-137"/>
<text text-anchor="start" x="656" y="-155" font-family="Helvetica,sans-Serif" font-size="10.00">code/om/operations</text>
<text text-anchor="middle" x="700" y="-144" font-family="Helvetica,sans-Serif" font-size="10.00">/inject_operation.hpp</text>
</a>
</g>
<!-- Node11&#45;&gt;Node19 -->
<g id="edge46" class="edge"><title>Node11&#45;&gt;Node19</title>
<path fill="none" stroke="midnightblue" d="M848.765,-201.248C818.51,-191.436 775.305,-177.423 743.245,-167.025"/>
<polygon fill="midnightblue" stroke="midnightblue" points="847.902,-204.648 858.494,-204.403 850.062,-197.989 847.902,-204.648"/>
</g>
<!-- Node21 -->
<g id="node47" class="node"><title>Node21</title>
<a xlink:href="skip__operation_8hpp.html" target="_top" xlink:title="Om header file.">
<polygon fill="none" stroke="black" points="770.5,-137 770.5,-167 871.5,-167 871.5,-137 770.5,-137"/>
<text text-anchor="start" x="778.5" y="-155" font-family="Helvetica,sans-Serif" font-size="10.00">code/om/operations</text>
<text text-anchor="middle" x="821" y="-144" font-family="Helvetica,sans-Serif" font-size="10.00">/skip_operation.hpp</text>
</a>
</g>
<!-- Node11&#45;&gt;Node21 -->
<g id="edge52" class="edge"><title>Node11&#45;&gt;Node21</title>
<path fill="none" stroke="midnightblue" d="M868.485,-197.517C858.481,-188.138 845.817,-176.266 836.084,-167.141"/>
<polygon fill="midnightblue" stroke="midnightblue" points="866.141,-200.117 875.83,-204.403 870.929,-195.011 866.141,-200.117"/>
</g>
<!-- Node13 -->
<g id="node27" class="node"><title>Node13</title>
<a xlink:href="evaluation_8cpp.html" target="_top" xlink:title="Om source file.">
<polygon fill="none" stroke="black" points="890,-74.5 890,-93.5 1008,-93.5 1008,-74.5 890,-74.5"/>
<text text-anchor="middle" x="949" y="-81.5" font-family="Helvetica,sans-Serif" font-size="10.00">code/om/evaluation.cpp</text>
</a>
</g>
<!-- Node12&#45;&gt;Node13 -->
<g id="edge28" class="edge"><title>Node12&#45;&gt;Node13</title>
<path fill="none" stroke="midnightblue" d="M942.859,-132.425C941.722,-119.798 942.177,-103.662 944.224,-93.8411"/>
<polygon fill="midnightblue" stroke="midnightblue" points="939.4,-132.962 944.269,-142.372 946.331,-131.979 939.4,-132.962"/>
</g>
<!-- Node13&#45;&gt;Node12 -->
<g id="edge30" class="edge"><title>Node13&#45;&gt;Node12</title>
<path fill="none" stroke="midnightblue" d="M955.165,-103.85C956.279,-116.528 955.801,-132.643 953.731,-142.372"/>
<polygon fill="midnightblue" stroke="midnightblue" points="958.618,-103.265 953.776,-93.8411 951.684,-104.227 958.618,-103.265"/>
</g>
<!-- Node14&#45;&gt;Node11 -->
<g id="edge34" class="edge"><title>Node14&#45;&gt;Node11</title>
<path fill="none" stroke="midnightblue" d="M1053.09,-164.699C1015.72,-176.356 956.197,-193.978 918.842,-204.403"/>
<polygon fill="midnightblue" stroke="midnightblue" points="1054.52,-167.919 1063.01,-161.581 1052.42,-161.242 1054.52,-167.919"/>
</g>
<!-- Node16 -->
<g id="node35" class="node"><title>Node16</title>
<a xlink:href="expression__operation_8cpp.html" target="_top" xlink:title="Om source file.">
<polygon fill="none" stroke="black" points="1166.5,-69 1166.5,-99 1295.5,-99 1295.5,-69 1166.5,-69"/>
<text text-anchor="start" x="1174.5" y="-87" font-family="Helvetica,sans-Serif" font-size="10.00">code/om/operations</text>
<text text-anchor="middle" x="1231" y="-76" font-family="Helvetica,sans-Serif" font-size="10.00">/expression_operation.cpp</text>
</a>
</g>
<!-- Node15&#45;&gt;Node16 -->
<g id="edge38" class="edge"><title>Node15&#45;&gt;Node16</title>
<path fill="none" stroke="midnightblue" d="M1231,-126.532C1231,-117.361 1231,-107.245 1231,-99.2931"/>
<polygon fill="midnightblue" stroke="midnightblue" points="1227.5,-126.679 1231,-136.679 1234.5,-126.679 1227.5,-126.679"/>
</g>
<!-- Node18 -->
<g id="node39" class="node"><title>Node18</title>
<a xlink:href="fill__operation_8cpp.html" target="_top" xlink:title="Om source file.">
<polygon fill="none" stroke="black" points="530,-69 530,-99 630,-99 630,-69 530,-69"/>
<text text-anchor="start" x="538" y="-87" font-family="Helvetica,sans-Serif" font-size="10.00">code/om/operations</text>
<text text-anchor="middle" x="580" y="-76" font-family="Helvetica,sans-Serif" font-size="10.00">/fill_operation.cpp</text>
</a>
</g>
<!-- Node17&#45;&gt;Node18 -->
<g id="edge42" class="edge"><title>Node17&#45;&gt;Node18</title>
<path fill="none" stroke="midnightblue" d="M573.455,-126.532C573.005,-117.361 573.296,-107.245 574.325,-99.2931"/>
<polygon fill="midnightblue" stroke="midnightblue" points="569.983,-127.013 574.322,-136.679 576.958,-126.417 569.983,-127.013"/>
</g>
<!-- Node18&#45;&gt;Node17 -->
<g id="edge44" class="edge"><title>Node18&#45;&gt;Node17</title>
<path fill="none" stroke="midnightblue" d="M586.544,-109.436C586.995,-118.605 586.706,-128.722 585.678,-136.679"/>
<polygon fill="midnightblue" stroke="midnightblue" points="590.016,-108.958 585.675,-99.2931 583.041,-109.555 590.016,-108.958"/>
</g>
<!-- Node20 -->
<g id="node44" class="node"><title>Node20</title>
<a xlink:href="inject__operation_8cpp.html" target="_top" xlink:title="Om source file.">
<polygon fill="none" stroke="black" points="648,-69 648,-99 752,-99 752,-69 648,-69"/>
<text text-anchor="start" x="656" y="-87" font-family="Helvetica,sans-Serif" font-size="10.00">code/om/operations</text>
<text text-anchor="middle" x="700" y="-76" font-family="Helvetica,sans-Serif" font-size="10.00">/inject_operation.cpp</text>
</a>
</g>
<!-- Node19&#45;&gt;Node20 -->
<g id="edge48" class="edge"><title>Node19&#45;&gt;Node20</title>
<path fill="none" stroke="midnightblue" d="M693.455,-126.532C693.005,-117.361 693.296,-107.245 694.325,-99.2931"/>
<polygon fill="midnightblue" stroke="midnightblue" points="689.983,-127.013 694.322,-136.679 696.958,-126.417 689.983,-127.013"/>
</g>
<!-- Node20&#45;&gt;Node19 -->
<g id="edge50" class="edge"><title>Node20&#45;&gt;Node19</title>
<path fill="none" stroke="midnightblue" d="M706.544,-109.436C706.995,-118.605 706.706,-128.722 705.678,-136.679"/>
<polygon fill="midnightblue" stroke="midnightblue" points="710.016,-108.958 705.675,-99.2931 703.041,-109.555 710.016,-108.958"/>
</g>
<!-- Node22 -->
<g id="node49" class="node"><title>Node22</title>
<a xlink:href="skip__operation_8cpp.html" target="_top" xlink:title="Om source file.">
<polygon fill="none" stroke="black" points="771,-69 771,-99 871,-99 871,-69 771,-69"/>
<text text-anchor="start" x="779" y="-87" font-family="Helvetica,sans-Serif" font-size="10.00">code/om/operations</text>
<text text-anchor="middle" x="821" y="-76" font-family="Helvetica,sans-Serif" font-size="10.00">/skip_operation.cpp</text>
</a>
</g>
<!-- Node21&#45;&gt;Node22 -->
<g id="edge54" class="edge"><title>Node21&#45;&gt;Node22</title>
<path fill="none" stroke="midnightblue" d="M814.455,-126.532C814.005,-117.361 814.296,-107.245 815.325,-99.2931"/>
<polygon fill="midnightblue" stroke="midnightblue" points="810.983,-127.013 815.322,-136.679 817.958,-126.417 810.983,-127.013"/>
</g>
<!-- Node22&#45;&gt;Node21 -->
<g id="edge56" class="edge"><title>Node22&#45;&gt;Node21</title>
<path fill="none" stroke="midnightblue" d="M827.544,-109.436C827.995,-118.605 827.706,-128.722 826.678,-136.679"/>
<polygon fill="midnightblue" stroke="midnightblue" points="831.016,-108.958 826.675,-99.2931 824.041,-109.555 831.016,-108.958"/>
</g>
<!-- Node23&#45;&gt;Node10 -->
<g id="edge60" class="edge"><title>Node23&#45;&gt;Node10</title>
<path fill="none" stroke="midnightblue" d="M985.438,-227.722C962.773,-237.812 929.502,-251.636 906.529,-260.444"/>
<polygon fill="midnightblue" stroke="midnightblue" points="987.066,-230.827 994.735,-223.516 984.181,-224.449 987.066,-230.827"/>
</g>
<!-- Node24&#45;&gt;Node9 -->
<g id="edge64" class="edge"><title>Node24&#45;&gt;Node9</title>
<path fill="none" stroke="midnightblue" d="M684.42,-282.783C714.222,-292.939 754.079,-307.359 777.321,-316.444"/>
<polygon fill="midnightblue" stroke="midnightblue" points="685.331,-279.397 674.737,-279.516 683.093,-286.029 685.331,-279.397"/>
</g>
<!-- Node26 -->
<g id="node60" class="node"><title>Node26</title>
<a xlink:href="lexicon_8hpp.html" target="_top" xlink:title="Om header file.">
<polygon fill="none" stroke="black" points="125,-204.5 125,-223.5 229,-223.5 229,-204.5 125,-204.5"/>
<text text-anchor="middle" x="177" y="-211.5" font-family="Helvetica,sans-Serif" font-size="10.00">code/om/lexicon.hpp</text>
</a>
</g>
<!-- Node25&#45;&gt;Node26 -->
<g id="edge68" class="edge"><title>Node25&#45;&gt;Node26</title>
<path fill="none" stroke="midnightblue" d="M708.39,-260.024C526.248,-237.77 323.011,-223.863 229.244,-218.065"/>
<polygon fill="midnightblue" stroke="midnightblue" points="708.068,-263.511 718.421,-261.261 708.924,-256.564 708.068,-263.511"/>
</g>
<!-- Node34 -->
<g id="node79" class="node"><title>Node34</title>
<a xlink:href="pair_8cpp.html" target="_top" xlink:title="Om source file.">
<polygon fill="none" stroke="black" points="716,-204.5 716,-223.5 806,-223.5 806,-204.5 716,-204.5"/>
<text text-anchor="middle" x="761" y="-211.5" font-family="Helvetica,sans-Serif" font-size="10.00">code/om/pair.cpp</text>
</a>
</g>
<!-- Node25&#45;&gt;Node34 -->
<g id="edge90" class="edge"><title>Node25&#45;&gt;Node34</title>
<path fill="none" stroke="midnightblue" d="M756.478,-250.101C755.348,-241.136 755.224,-230.858 756.355,-223.751"/>
<polygon fill="midnightblue" stroke="midnightblue" points="753.065,-250.894 758.338,-260.083 759.947,-249.611 753.065,-250.894"/>
</g>
<!-- Node27 -->
<g id="node62" class="node"><title>Node27</title>
<a xlink:href="lexicon_8cpp.html" target="_top" xlink:title="Om source file.">
<polygon fill="none" stroke="black" points="-0.5,-142.5 -0.5,-161.5 102.5,-161.5 102.5,-142.5 -0.5,-142.5"/>
<text text-anchor="middle" x="51" y="-149.5" font-family="Helvetica,sans-Serif" font-size="10.00">code/om/lexicon.cpp</text>
</a>
</g>
<!-- Node26&#45;&gt;Node27 -->
<g id="edge70" class="edge"><title>Node26&#45;&gt;Node27</title>
<path fill="none" stroke="midnightblue" d="M144.865,-200.374C118.677,-188.721 83.2406,-171.732 64.1221,-161.581"/>
<polygon fill="midnightblue" stroke="midnightblue" points="143.483,-203.59 154.047,-204.403 146.296,-197.18 143.483,-203.59"/>
</g>
<!-- Node28 -->
<g id="node65" class="node"><title>Node28</title>
<a xlink:href="lexicon__operation_8hpp.html" target="_top" xlink:title="Om header file.">
<polygon fill="none" stroke="black" points="121,-137 121,-167 233,-167 233,-137 121,-137"/>
<text text-anchor="start" x="129" y="-155" font-family="Helvetica,sans-Serif" font-size="10.00">code/om/operations</text>
<text text-anchor="middle" x="177" y="-144" font-family="Helvetica,sans-Serif" font-size="10.00">/lexicon_operation.hpp</text>
</a>
</g>
<!-- Node26&#45;&gt;Node28 -->
<g id="edge74" class="edge"><title>Node26&#45;&gt;Node28</title>
<path fill="none" stroke="midnightblue" d="M177,-194.371C177,-185.585 177,-175.272 177,-167.141"/>
<polygon fill="midnightblue" stroke="midnightblue" points="173.5,-194.403 177,-204.403 180.5,-194.403 173.5,-194.403"/>
</g>
<!-- Node30 -->
<g id="node69" class="node"><title>Node30</title>
<a xlink:href="translate__operation_8hpp.html" target="_top" xlink:title="Om header file.">
<polygon fill="none" stroke="black" points="251.5,-137 251.5,-167 370.5,-167 370.5,-137 251.5,-137"/>
<text text-anchor="start" x="259.5" y="-155" font-family="Helvetica,sans-Serif" font-size="10.00">code/om/operations</text>
<text text-anchor="middle" x="311" y="-144" font-family="Helvetica,sans-Serif" font-size="10.00">/translate_operation.hpp</text>
</a>
</g>
<!-- Node26&#45;&gt;Node30 -->
<g id="edge78" class="edge"><title>Node26&#45;&gt;Node30</title>
<path fill="none" stroke="midnightblue" d="M205.566,-200.209C227.327,-190.465 257.262,-177.062 279.677,-167.025"/>
<polygon fill="midnightblue" stroke="midnightblue" points="203.895,-197.122 196.199,-204.403 206.756,-203.511 203.895,-197.122"/>
</g>
<!-- Node27&#45;&gt;Node26 -->
<g id="edge72" class="edge"><title>Node27&#45;&gt;Node26</title>
<path fill="none" stroke="midnightblue" d="M83.0943,-165.607C109.272,-177.255 144.712,-194.245 163.848,-204.403"/>
<polygon fill="midnightblue" stroke="midnightblue" points="84.48,-162.393 73.9164,-161.581 81.6675,-168.804 84.48,-162.393"/>
</g>
<!-- Node29 -->
<g id="node67" class="node"><title>Node29</title>
<a xlink:href="lexicon__operation_8cpp.html" target="_top" xlink:title="Om source file.">
<polygon fill="none" stroke="black" points="121.5,-69 121.5,-99 232.5,-99 232.5,-69 121.5,-69"/>
<text text-anchor="start" x="129.5" y="-87" font-family="Helvetica,sans-Serif" font-size="10.00">code/om/operations</text>
<text text-anchor="middle" x="177" y="-76" font-family="Helvetica,sans-Serif" font-size="10.00">/lexicon_operation.cpp</text>
</a>
</g>
<!-- Node28&#45;&gt;Node29 -->
<g id="edge76" class="edge"><title>Node28&#45;&gt;Node29</title>
<path fill="none" stroke="midnightblue" d="M177,-126.532C177,-117.361 177,-107.245 177,-99.2931"/>
<polygon fill="midnightblue" stroke="midnightblue" points="173.5,-126.679 177,-136.679 180.5,-126.679 173.5,-126.679"/>
</g>
<!-- Node31 -->
<g id="node71" class="node"><title>Node31</title>
<a xlink:href="substitute__operation_8hpp.html" target="_top" xlink:title="Om header file.">
<polygon fill="none" stroke="black" points="388,-69 388,-99 512,-99 512,-69 388,-69"/>
<text text-anchor="start" x="396" y="-87" font-family="Helvetica,sans-Serif" font-size="10.00">code/om/operations</text>
<text text-anchor="middle" x="450" y="-76" font-family="Helvetica,sans-Serif" font-size="10.00">/substitute_operation.hpp</text>
</a>
</g>
<!-- Node30&#45;&gt;Node31 -->
<g id="edge80" class="edge"><title>Node30&#45;&gt;Node31</title>
<path fill="none" stroke="midnightblue" d="M350.003,-132.48C372.259,-121.913 399.72,-108.874 420.23,-99.1352"/>
<polygon fill="midnightblue" stroke="midnightblue" points="348.351,-129.39 340.819,-136.841 351.354,-135.714 348.351,-129.39"/>
</g>
<!-- Node33 -->
<g id="node76" class="node"><title>Node33</title>
<a xlink:href="translate__operation_8cpp.html" target="_top" xlink:title="Om source file.">
<polygon fill="none" stroke="black" points="250.5,-69 250.5,-99 369.5,-99 369.5,-69 250.5,-69"/>
<text text-anchor="start" x="258.5" y="-87" font-family="Helvetica,sans-Serif" font-size="10.00">code/om/operations</text>
<text text-anchor="middle" x="310" y="-76" font-family="Helvetica,sans-Serif" font-size="10.00">/translate_operation.cpp</text>
</a>
</g>
<!-- Node30&#45;&gt;Node33 -->
<g id="edge86" class="edge"><title>Node30&#45;&gt;Node33</title>
<path fill="none" stroke="midnightblue" d="M304.084,-126.532C303.496,-117.361 303.633,-107.245 304.542,-99.2931"/>
<polygon fill="midnightblue" stroke="midnightblue" points="300.621,-127.08 305.105,-136.679 307.586,-126.379 300.621,-127.08"/>
</g>
<!-- Node32 -->
<g id="node73" class="node"><title>Node32</title>
<a xlink:href="substitute__operation_8cpp.html" target="_top" xlink:title="Om source file.">
<polygon fill="none" stroke="black" points="388.5,-1 388.5,-31 511.5,-31 511.5,-1 388.5,-1"/>
<text text-anchor="start" x="396.5" y="-19" font-family="Helvetica,sans-Serif" font-size="10.00">code/om/operations</text>
<text text-anchor="middle" x="450" y="-8" font-family="Helvetica,sans-Serif" font-size="10.00">/substitute_operation.cpp</text>
</a>
</g>
<!-- Node31&#45;&gt;Node32 -->
<g id="edge82" class="edge"><title>Node31&#45;&gt;Node32</title>
<path fill="none" stroke="midnightblue" d="M443.455,-58.5322C443.005,-49.3606 443.296,-39.2449 444.325,-31.2931"/>
<polygon fill="midnightblue" stroke="midnightblue" points="439.983,-59.0133 444.322,-68.679 446.958,-58.4173 439.983,-59.0133"/>
</g>
<!-- Node32&#45;&gt;Node31 -->
<g id="edge84" class="edge"><title>Node32&#45;&gt;Node31</title>
<path fill="none" stroke="midnightblue" d="M456.544,-41.4356C456.995,-50.605 456.706,-60.7221 455.678,-68.679"/>
<polygon fill="midnightblue" stroke="midnightblue" points="460.016,-40.9578 455.675,-31.2931 453.041,-41.5554 460.016,-40.9578"/>
</g>
<!-- Node33&#45;&gt;Node30 -->
<g id="edge88" class="edge"><title>Node33&#45;&gt;Node30</title>
<path fill="none" stroke="midnightblue" d="M316.914,-109.436C317.504,-118.605 317.369,-128.722 316.461,-136.679"/>
<polygon fill="midnightblue" stroke="midnightblue" points="320.377,-108.891 315.891,-99.2931 313.412,-109.594 320.377,-108.891"/>
</g>
<!-- Node34&#45;&gt;Node25 -->
<g id="edge92" class="edge"><title>Node34&#45;&gt;Node25</title>
<path fill="none" stroke="midnightblue" d="M768.496,-233.691C769.642,-242.635 769.783,-252.927 768.671,-260.083"/>
<polygon fill="midnightblue" stroke="midnightblue" points="771.914,-232.927 766.617,-223.751 765.035,-234.227 771.914,-232.927"/>
</g>
<!-- Node36 -->
<g id="node84" class="node"><title>Node36</title>
<a xlink:href="separator_8cpp.html" target="_top" xlink:title="Om source file.">
<polygon fill="none" stroke="black" points="945.5,-260.5 945.5,-279.5 1060.5,-279.5 1060.5,-260.5 945.5,-260.5"/>
<text text-anchor="middle" x="1003" y="-267.5" font-family="Helvetica,sans-Serif" font-size="10.00">code/om/separator.cpp</text>
</a>
</g>
<!-- Node35&#45;&gt;Node36 -->
<g id="edge96" class="edge"><title>Node35&#45;&gt;Node36</title>
<path fill="none" stroke="midnightblue" d="M974.604,-306.983C979.479,-297.817 986.458,-287.092 992.521,-279.751"/>
<polygon fill="midnightblue" stroke="midnightblue" points="971.411,-305.548 970.283,-316.083 977.734,-308.551 971.411,-305.548"/>
</g>
<!-- Node36&#45;&gt;Node35 -->
<g id="edge98" class="edge"><title>Node36&#45;&gt;Node35</title>
<path fill="none" stroke="midnightblue" d="M998.505,-288.811C993.662,-297.953 986.692,-308.691 980.616,-316.083"/>
<polygon fill="midnightblue" stroke="midnightblue" points="1001.68,-290.288 1002.78,-279.751 995.348,-287.299 1001.68,-290.288"/>
</g>
<!-- Node37&#45;&gt;Node6 -->
<g id="edge102" class="edge"><title>Node37&#45;&gt;Node6</title>
<path fill="none" stroke="midnightblue" d="M815.017,-401.986C814.485,-410.861 812.733,-421.006 810.322,-428.083"/>
<polygon fill="midnightblue" stroke="midnightblue" points="818.517,-401.744 814.997,-391.751 811.517,-401.758 818.517,-401.744"/>
</g>
<!-- Node39 -->
<g id="node92" class="node"><title>Node39</title>
<a xlink:href="operand_8cpp.html" target="_top" xlink:title="Om source file.">
<polygon fill="none" stroke="black" points="613,-316.5 613,-335.5 723,-335.5 723,-316.5 613,-316.5"/>
<text text-anchor="middle" x="668" y="-323.5" font-family="Helvetica,sans-Serif" font-size="10.00">code/om/operand.cpp</text>
</a>
</g>
<!-- Node38&#45;&gt;Node39 -->
<g id="edge106" class="edge"><title>Node38&#45;&gt;Node39</title>
<path fill="none" stroke="midnightblue" d="M661.528,-362.101C660.896,-353.136 661.343,-342.858 662.869,-335.751"/>
<polygon fill="midnightblue" stroke="midnightblue" points="658.066,-362.622 662.834,-372.083 665.007,-361.713 658.066,-362.622"/>
</g>
<!-- Node39&#45;&gt;Node38 -->
<g id="edge108" class="edge"><title>Node39&#45;&gt;Node38</title>
<path fill="none" stroke="midnightblue" d="M674.458,-345.691C675.106,-354.635 674.676,-364.927 673.166,-372.083"/>
<polygon fill="midnightblue" stroke="midnightblue" points="677.923,-345.2 673.131,-335.751 670.985,-346.126 677.923,-345.2"/>
</g>
<!-- Node40&#45;&gt;Node5 -->
<g id="edge112" class="edge"><title>Node40&#45;&gt;Node5</title>
<path fill="none" stroke="midnightblue" d="M968.424,-457.986C968.549,-466.861 967.548,-477.006 965.662,-484.083"/>
<polygon fill="midnightblue" stroke="midnightblue" points="971.894,-457.457 967.645,-447.751 964.914,-457.988 971.894,-457.457"/>
</g>
<!-- Node42 -->
<g id="node100" class="node"><title>Node42</title>
<a xlink:href="literal_8cpp.html" target="_top" xlink:title="Om source file.">
<polygon fill="none" stroke="black" points="393.5,-372.5 393.5,-391.5 488.5,-391.5 488.5,-372.5 393.5,-372.5"/>
<text text-anchor="middle" x="441" y="-379.5" font-family="Helvetica,sans-Serif" font-size="10.00">code/om/literal.cpp</text>
</a>
</g>
<!-- Node41&#45;&gt;Node42 -->
<g id="edge116" class="edge"><title>Node41&#45;&gt;Node42</title>
<path fill="none" stroke="midnightblue" d="M434.528,-418.101C433.896,-409.136 434.343,-398.858 435.869,-391.751"/>
<polygon fill="midnightblue" stroke="midnightblue" points="431.066,-418.622 435.834,-428.083 438.007,-417.713 431.066,-418.622"/>
</g>
<!-- Node42&#45;&gt;Node41 -->
<g id="edge118" class="edge"><title>Node42&#45;&gt;Node41</title>
<path fill="none" stroke="midnightblue" d="M447.458,-401.691C448.106,-410.635 447.676,-420.927 446.166,-428.083"/>
<polygon fill="midnightblue" stroke="midnightblue" points="450.923,-401.2 446.131,-391.751 443.985,-402.126 450.923,-401.2"/>
</g>
<!-- Node44 -->
<g id="node105" class="node"><title>Node44</title>
<a xlink:href="null_8cpp.html" target="_top" xlink:title="Om source file.">
<polygon fill="none" stroke="black" points="507,-372.5 507,-391.5 595,-391.5 595,-372.5 507,-372.5"/>
<text text-anchor="middle" x="551" y="-379.5" font-family="Helvetica,sans-Serif" font-size="10.00">code/om/null.cpp</text>
</a>
</g>
<!-- Node43&#45;&gt;Node44 -->
<g id="edge122" class="edge"><title>Node43&#45;&gt;Node44</title>
<path fill="none" stroke="midnightblue" d="M544.528,-418.101C543.896,-409.136 544.343,-398.858 545.869,-391.751"/>
<polygon fill="midnightblue" stroke="midnightblue" points="541.066,-418.622 545.834,-428.083 548.007,-417.713 541.066,-418.622"/>
</g>
<!-- Node44&#45;&gt;Node43 -->
<g id="edge124" class="edge"><title>Node44&#45;&gt;Node43</title>
<path fill="none" stroke="midnightblue" d="M557.458,-401.691C558.106,-410.635 557.676,-420.927 556.166,-428.083"/>
<polygon fill="midnightblue" stroke="midnightblue" points="560.923,-401.2 556.131,-391.751 553.985,-402.126 560.923,-401.2"/>
</g>
<!-- Node45&#45;&gt;Node5 -->
<g id="edge130" class="edge"><title>Node45&#45;&gt;Node5</title>
<path fill="none" stroke="midnightblue" d="M1070.97,-536.906C1044.09,-526.754 1006.36,-512.506 982.553,-503.516"/>
<polygon fill="midnightblue" stroke="midnightblue" points="1069.75,-540.185 1080.34,-540.444 1072.22,-533.636 1069.75,-540.185"/>
</g>
<!-- Node46 -->
<g id="node112" class="node"><title>Node46</title>
<a xlink:href="element_8hpp.html" target="_top" xlink:title="Om header file.">
<polygon fill="none" stroke="black" points="1049.5,-484.5 1049.5,-503.5 1156.5,-503.5 1156.5,-484.5 1049.5,-484.5"/>
<text text-anchor="middle" x="1103" y="-491.5" font-family="Helvetica,sans-Serif" font-size="10.00">code/om/element.hpp</text>
</a>
</g>
<!-- Node45&#45;&gt;Node46 -->
<g id="edge132" class="edge"><title>Node45&#45;&gt;Node46</title>
<path fill="none" stroke="midnightblue" d="M1103,-529.805C1103,-520.91 1103,-510.78 1103,-503.751"/>
<polygon fill="midnightblue" stroke="midnightblue" points="1099.5,-530.083 1103,-540.083 1106.5,-530.083 1099.5,-530.083"/>
</g>
<!-- Node50 -->
<g id="node123" class="node"><title>Node50</title>
<a xlink:href="program_8cpp.html" target="_top" xlink:title="Om source file.">
<polygon fill="none" stroke="black" points="1174.5,-484.5 1174.5,-503.5 1283.5,-503.5 1283.5,-484.5 1174.5,-484.5"/>
<text text-anchor="middle" x="1229" y="-491.5" font-family="Helvetica,sans-Serif" font-size="10.00">code/om/program.cpp</text>
</a>
</g>
<!-- Node45&#45;&gt;Node50 -->
<g id="edge146" class="edge"><title>Node45&#45;&gt;Node50</title>
<path fill="none" stroke="midnightblue" d="M1126.96,-536.232C1149.09,-526.131 1181.59,-512.309 1204.05,-503.516"/>
<polygon fill="midnightblue" stroke="midnightblue" points="1125.48,-533.061 1117.88,-540.444 1128.42,-539.411 1125.48,-533.061"/>
</g>
<!-- Node47 -->
<g id="node114" class="node"><title>Node47</title>
<a xlink:href="atom_8hpp.html" target="_top" xlink:title="Om header file.">
<polygon fill="none" stroke="black" points="1052,-428.5 1052,-447.5 1148,-447.5 1148,-428.5 1052,-428.5"/>
<text text-anchor="middle" x="1100" y="-435.5" font-family="Helvetica,sans-Serif" font-size="10.00">code/om/atom.hpp</text>
</a>
</g>
<!-- Node46&#45;&gt;Node47 -->
<g id="edge134" class="edge"><title>Node46&#45;&gt;Node47</title>
<path fill="none" stroke="midnightblue" d="M1101.93,-473.805C1101.44,-464.91 1100.88,-454.78 1100.49,-447.751"/>
<polygon fill="midnightblue" stroke="midnightblue" points="1098.46,-474.293 1102.5,-484.083 1105.44,-473.904 1098.46,-474.293"/>
</g>
<!-- Node49 -->
<g id="node120" class="node"><title>Node49</title>
<a xlink:href="element_8cpp.html" target="_top" xlink:title="Om source file.">
<polygon fill="none" stroke="black" points="1166.5,-428.5 1166.5,-447.5 1273.5,-447.5 1273.5,-428.5 1166.5,-428.5"/>
<text text-anchor="middle" x="1220" y="-435.5" font-family="Helvetica,sans-Serif" font-size="10.00">code/om/element.cpp</text>
</a>
</g>
<!-- Node46&#45;&gt;Node49 -->
<g id="edge142" class="edge"><title>Node46&#45;&gt;Node49</title>
<path fill="none" stroke="midnightblue" d="M1125.85,-479.726C1146.17,-469.727 1175.51,-456.307 1196.14,-447.655"/>
<polygon fill="midnightblue" stroke="midnightblue" points="1124.05,-476.713 1116.68,-484.324 1127.19,-482.971 1124.05,-476.713"/>
</g>
<!-- Node47&#45;&gt;Node7 -->
<g id="edge140" class="edge"><title>Node47&#45;&gt;Node7</title>
<path fill="none" stroke="midnightblue" d="M1069.91,-424.503C1045.54,-414.38 1011.86,-400.388 990.503,-391.516"/>
<polygon fill="midnightblue" stroke="midnightblue" points="1068.82,-427.84 1079.4,-428.444 1071.51,-421.375 1068.82,-427.84"/>
</g>
<!-- Node48 -->
<g id="node116" class="node"><title>Node48</title>
<a xlink:href="atom_8cpp.html" target="_top" xlink:title="Om source file.">
<polygon fill="none" stroke="black" points="1052.5,-372.5 1052.5,-391.5 1147.5,-391.5 1147.5,-372.5 1052.5,-372.5"/>
<text text-anchor="middle" x="1100" y="-379.5" font-family="Helvetica,sans-Serif" font-size="10.00">code/om/atom.cpp</text>
</a>
</g>
<!-- Node47&#45;&gt;Node48 -->
<g id="edge136" class="edge"><title>Node47&#45;&gt;Node48</title>
<path fill="none" stroke="midnightblue" d="M1093.53,-418.101C1092.9,-409.136 1093.34,-398.858 1094.87,-391.751"/>
<polygon fill="midnightblue" stroke="midnightblue" points="1090.07,-418.622 1094.83,-428.083 1097.01,-417.713 1090.07,-418.622"/>
</g>
<!-- Node48&#45;&gt;Node47 -->
<g id="edge138" class="edge"><title>Node48&#45;&gt;Node47</title>
<path fill="none" stroke="midnightblue" d="M1106.46,-401.691C1107.11,-410.635 1106.68,-420.927 1105.17,-428.083"/>
<polygon fill="midnightblue" stroke="midnightblue" points="1109.92,-401.2 1105.13,-391.751 1102.98,-402.126 1109.92,-401.2"/>
</g>
<!-- Node49&#45;&gt;Node46 -->
<g id="edge144" class="edge"><title>Node49&#45;&gt;Node46</title>
<path fill="none" stroke="midnightblue" d="M1197.44,-452.131C1177.03,-462.183 1147.36,-475.754 1126.63,-484.444"/>
<polygon fill="midnightblue" stroke="midnightblue" points="1199.26,-455.131 1206.63,-447.516 1196.12,-448.875 1199.26,-455.131"/>
</g>
<!-- Node50&#45;&gt;Node45 -->
<g id="edge148" class="edge"><title>Node50&#45;&gt;Node45</title>
<path fill="none" stroke="midnightblue" d="M1204.85,-507.858C1182.75,-517.935 1150.44,-531.675 1128.05,-540.444"/>
<polygon fill="midnightblue" stroke="midnightblue" points="1206.61,-510.899 1214.21,-503.516 1203.66,-504.548 1206.61,-510.899"/>
</g>
</g>
</svg>
