<?xml version="1.0" encoding="UTF-8" standalone="no"?>
<!DOCTYPE svg PUBLIC "-//W3C//DTD SVG 1.1//EN"
 "http://www.w3.org/Graphics/SVG/1.1/DTD/svg11.dtd">
<!-- Generated by graphviz version 2.36.0 (20140111.2315)
 -->
<!-- Title: Graphical Class Hierarchy Pages: 1 -->
<svg width="1294pt" height="177pt"
 viewBox="0.00 0.00 1294.00 177.00" xmlns="http://www.w3.org/2000/svg" xmlns:xlink="http://www.w3.org/1999/xlink">
<g id="graph0" class="graph" transform="scale(1 1) rotate(0) translate(4 173)">
<title>Graphical Class Hierarchy</title>
<!-- Node1 -->
<g id="node1" class="node"><title>Node1</title>
<polygon fill="none" stroke="#bfbfbf" points="0.657715,-101 0.657715,-119 53.3423,-119 53.3423,-101 0.657715,-101"/>
<text text-anchor="middle" x="27" y="-107" font-family="Helvetica,sans-Serif" font-size="10.00">Element</text>
</g>
<!-- Node2 -->
<g id="node2" class="node"><title>Node2</title>
<g id="a_node2"><a xlink:href="class_om_1_1_default_copyable.html" target="_top" xlink:title="Om::DefaultCopyable\l\&lt; Null, Element \&gt;">
<polygon fill="none" stroke="black" points="91.1997,-121 91.1997,-149 202.8,-149 202.8,-121 91.1997,-121"/>
<text text-anchor="start" x="99.1997" y="-137" font-family="Helvetica,sans-Serif" font-size="10.00">Om::DefaultCopyable</text>
<text text-anchor="middle" x="147" y="-127" font-family="Helvetica,sans-Serif" font-size="10.00">&lt; Null, Element &gt;</text>
</a>
</g>
</g>
<!-- Node1&#45;&gt;Node2 -->
<g id="edge1" class="edge"><title>Node1&#45;&gt;Node2</title>
<path fill="none" stroke="midnightblue" d="M63.6418,-117.551C72.2425,-119.373 81.6329,-121.363 90.8947,-123.325"/>
<polygon fill="midnightblue" stroke="midnightblue" points="64.1125,-114.073 53.6042,-115.425 62.6616,-120.921 64.1125,-114.073"/>
</g>
<!-- Node9 -->
<g id="node9" class="node"><title>Node9</title>
<g id="a_node9"><a xlink:href="class_om_1_1_default_copyable.html" target="_top" xlink:title="Om::DefaultCopyable\l\&lt; Operand, Element \&gt;">
<polygon fill="none" stroke="black" points="89.8032,-71 89.8032,-99 204.197,-99 204.197,-71 89.8032,-71"/>
<text text-anchor="start" x="97.8032" y="-87" font-family="Helvetica,sans-Serif" font-size="10.00">Om::DefaultCopyable</text>
<text text-anchor="middle" x="147" y="-77" font-family="Helvetica,sans-Serif" font-size="10.00">&lt; Operand, Element &gt;</text>
</a>
</g>
</g>
<!-- Node1&#45;&gt;Node9 -->
<g id="edge8" class="edge"><title>Node1&#45;&gt;Node9</title>
<path fill="none" stroke="midnightblue" d="M63.5263,-102.473C71.7107,-100.739 80.6151,-98.8527 89.4463,-96.9817"/>
<polygon fill="midnightblue" stroke="midnightblue" points="62.6616,-99.0787 53.6042,-104.575 64.1125,-105.927 62.6616,-99.0787"/>
</g>
<!-- Node3 -->
<g id="node3" class="node"><title>Node3</title>
<g id="a_node3"><a xlink:href="class_om_1_1_default_moveable.html" target="_top" xlink:title="Om::DefaultMoveable\l\&lt; Null, DefaultCopyable\l\&lt; Null, Element \&gt; \&gt;">
<polygon fill="none" stroke="black" points="251.332,-119 251.332,-157 372.668,-157 372.668,-119 251.332,-119"/>
<text text-anchor="start" x="259.332" y="-145" font-family="Helvetica,sans-Serif" font-size="10.00">Om::DefaultMoveable</text>
<text text-anchor="start" x="259.332" y="-135" font-family="Helvetica,sans-Serif" font-size="10.00">&lt; Null, DefaultCopyable</text>
<text text-anchor="middle" x="312" y="-125" font-family="Helvetica,sans-Serif" font-size="10.00">&lt; Null, Element &gt; &gt;</text>
</a>
</g>
</g>
<!-- Node2&#45;&gt;Node3 -->
<g id="edge2" class="edge"><title>Node2&#45;&gt;Node3</title>
<path fill="none" stroke="midnightblue" d="M213.482,-136.205C225.917,-136.434 238.871,-136.672 251.122,-136.898"/>
<polygon fill="midnightblue" stroke="midnightblue" points="213.247,-132.7 203.184,-136.016 213.118,-139.699 213.247,-132.7"/>
</g>
<!-- Node4 -->
<g id="node4" class="node"><title>Node4</title>
<g id="a_node4"><a xlink:href="class_om_1_1_default_giveable.html" target="_top" xlink:title="Om::DefaultGiveable\l\&lt; Null, Element \&gt;">
<polygon fill="none" stroke="black" points="422.591,-133 422.591,-161 531.409,-161 531.409,-133 422.591,-133"/>
<text text-anchor="start" x="430.591" y="-149" font-family="Helvetica,sans-Serif" font-size="10.00">Om::DefaultGiveable</text>
<text text-anchor="middle" x="477" y="-139" font-family="Helvetica,sans-Serif" font-size="10.00">&lt; Null, Element &gt;</text>
</a>
</g>
</g>
<!-- Node3&#45;&gt;Node4 -->
<g id="edge3" class="edge"><title>Node3&#45;&gt;Node4</title>
<path fill="none" stroke="midnightblue" d="M382.811,-141.855C396.08,-142.587 409.772,-143.343 422.439,-144.043"/>
<polygon fill="midnightblue" stroke="midnightblue" points="382.947,-138.357 372.77,-141.3 382.561,-145.346 382.947,-138.357"/>
</g>
<!-- Node5 -->
<g id="node5" class="node"><title>Node5</title>
<g id="a_node5"><a xlink:href="class_om_1_1_language_1_1_default_consumer.html" target="_top" xlink:title="Om::Language::DefaultConsumer\l\&lt; Null, DefaultGiveable\&lt;\l Null, Element \&gt; \&gt;">
<polygon fill="none" stroke="black" points="570.237,-131 570.237,-169 735.763,-169 735.763,-131 570.237,-131"/>
<text text-anchor="start" x="578.237" y="-157" font-family="Helvetica,sans-Serif" font-size="10.00">Om::Language::DefaultConsumer</text>
<text text-anchor="start" x="578.237" y="-147" font-family="Helvetica,sans-Serif" font-size="10.00">&lt; Null, DefaultGiveable&lt;</text>
<text text-anchor="middle" x="653" y="-137" font-family="Helvetica,sans-Serif" font-size="10.00"> Null, Element &gt; &gt;</text>
</a>
</g>
</g>
<!-- Node4&#45;&gt;Node5 -->
<g id="edge4" class="edge"><title>Node4&#45;&gt;Node5</title>
<path fill="none" stroke="midnightblue" d="M541.825,-148.1C551.021,-148.259 560.59,-148.424 570.077,-148.588"/>
<polygon fill="midnightblue" stroke="midnightblue" points="541.684,-144.598 531.626,-147.925 541.564,-151.597 541.684,-144.598"/>
</g>
<!-- Node6 -->
<g id="node6" class="node"><title>Node6</title>
<g id="a_node6"><a xlink:href="class_om_1_1_language_1_1_default_program.html" target="_top" xlink:title="Om::Language::DefaultProgram\l\&lt; Null, Element \&gt;">
<polygon fill="none" stroke="black" points="772.128,-112 772.128,-140 929.872,-140 929.872,-112 772.128,-112"/>
<text text-anchor="start" x="780.128" y="-128" font-family="Helvetica,sans-Serif" font-size="10.00">Om::Language::DefaultProgram</text>
<text text-anchor="middle" x="851" y="-118" font-family="Helvetica,sans-Serif" font-size="10.00">&lt; Null, Element &gt;</text>
</a>
</g>
</g>
<!-- Node5&#45;&gt;Node6 -->
<g id="edge5" class="edge"><title>Node5&#45;&gt;Node6</title>
<path fill="none" stroke="midnightblue" d="M746.137,-138.718C754.823,-137.654 763.57,-136.583 772.104,-135.538"/>
<polygon fill="midnightblue" stroke="midnightblue" points="745.486,-135.271 735.986,-139.961 746.337,-142.219 745.486,-135.271"/>
</g>
<!-- Node7 -->
<g id="node7" class="node"><title>Node7</title>
<g id="a_node7"><a xlink:href="class_om_1_1_language_1_1_default_element.html" target="_top" xlink:title="Om::Language::DefaultElement\l\&lt; Null, Element \&gt;">
<polygon fill="none" stroke="black" points="965.958,-112 965.958,-140 1122.04,-140 1122.04,-112 965.958,-112"/>
<text text-anchor="start" x="973.958" y="-128" font-family="Helvetica,sans-Serif" font-size="10.00">Om::Language::DefaultElement</text>
<text text-anchor="middle" x="1044" y="-118" font-family="Helvetica,sans-Serif" font-size="10.00">&lt; Null, Element &gt;</text>
</a>
</g>
</g>
<!-- Node6&#45;&gt;Node7 -->
<g id="edge6" class="edge"><title>Node6&#45;&gt;Node7</title>
<path fill="none" stroke="midnightblue" d="M940.043,-126C948.677,-126 957.392,-126 965.905,-126"/>
<polygon fill="midnightblue" stroke="midnightblue" points="939.963,-122.5 929.962,-126 939.962,-129.5 939.963,-122.5"/>
</g>
<!-- Node8 -->
<g id="node8" class="node"><title>Node8</title>
<g id="a_node8"><a xlink:href="class_om_1_1_language_1_1_null.html" target="_top" xlink:title="The Null Element implementation. ">
<polygon fill="none" stroke="black" points="1169.53,-117 1169.53,-135 1274.47,-135 1274.47,-117 1169.53,-117"/>
<text text-anchor="middle" x="1222" y="-123" font-family="Helvetica,sans-Serif" font-size="10.00">Om::Language::Null</text>
</a>
</g>
</g>
<!-- Node7&#45;&gt;Node8 -->
<g id="edge7" class="edge"><title>Node7&#45;&gt;Node8</title>
<path fill="none" stroke="midnightblue" d="M1132.35,-126C1145.04,-126 1157.76,-126 1169.43,-126"/>
<polygon fill="midnightblue" stroke="midnightblue" points="1132.2,-122.5 1122.2,-126 1132.2,-129.5 1132.2,-122.5"/>
</g>
<!-- Node10 -->
<g id="node10" class="node"><title>Node10</title>
<g id="a_node10"><a xlink:href="class_om_1_1_default_moveable.html" target="_top" xlink:title="Om::DefaultMoveable\l\&lt; Operand, DefaultCopyable\l\&lt; Operand, Element \&gt; \&gt;">
<polygon fill="none" stroke="black" points="240.487,-60 240.487,-98 383.513,-98 383.513,-60 240.487,-60"/>
<text text-anchor="start" x="248.487" y="-86" font-family="Helvetica,sans-Serif" font-size="10.00">Om::DefaultMoveable</text>
<text text-anchor="start" x="248.487" y="-76" font-family="Helvetica,sans-Serif" font-size="10.00">&lt; Operand, DefaultCopyable</text>
<text text-anchor="middle" x="312" y="-66" font-family="Helvetica,sans-Serif" font-size="10.00">&lt; Operand, Element &gt; &gt;</text>
</a>
</g>
</g>
<!-- Node9&#45;&gt;Node10 -->
<g id="edge9" class="edge"><title>Node9&#45;&gt;Node10</title>
<path fill="none" stroke="midnightblue" d="M214.76,-82.5426C223.239,-82.2305 231.938,-81.9102 240.474,-81.596"/>
<polygon fill="midnightblue" stroke="midnightblue" points="214.416,-79.0528 204.552,-82.9183 214.674,-86.048 214.416,-79.0528"/>
</g>
<!-- Node11 -->
<g id="node11" class="node"><title>Node11</title>
<g id="a_node11"><a xlink:href="class_om_1_1_default_giveable.html" target="_top" xlink:title="Om::DefaultGiveable\l\&lt; Operand, Element \&gt;">
<polygon fill="none" stroke="black" points="419.803,-60 419.803,-88 534.197,-88 534.197,-60 419.803,-60"/>
<text text-anchor="start" x="427.803" y="-76" font-family="Helvetica,sans-Serif" font-size="10.00">Om::DefaultGiveable</text>
<text text-anchor="middle" x="477" y="-66" font-family="Helvetica,sans-Serif" font-size="10.00">&lt; Operand, Element &gt;</text>
</a>
</g>
</g>
<!-- Node10&#45;&gt;Node11 -->
<g id="edge10" class="edge"><title>Node10&#45;&gt;Node11</title>
<path fill="none" stroke="midnightblue" d="M393.763,-76.5226C402.491,-76.2549 411.23,-75.9868 419.58,-75.7307"/>
<polygon fill="midnightblue" stroke="midnightblue" points="393.434,-73.031 383.546,-76.836 393.649,-80.0277 393.434,-73.031"/>
</g>
<!-- Node12 -->
<g id="node12" class="node"><title>Node12</title>
<g id="a_node12"><a xlink:href="class_om_1_1_language_1_1_default_consumer.html" target="_top" xlink:title="Om::Language::DefaultConsumer\l\&lt; Operand, DefaultGiveable\l\&lt; Operand, Element \&gt; \&gt;">
<polygon fill="none" stroke="black" points="570.237,-37 570.237,-75 735.763,-75 735.763,-37 570.237,-37"/>
<text text-anchor="start" x="578.237" y="-63" font-family="Helvetica,sans-Serif" font-size="10.00">Om::Language::DefaultConsumer</text>
<text text-anchor="start" x="578.237" y="-53" font-family="Helvetica,sans-Serif" font-size="10.00">&lt; Operand, DefaultGiveable</text>
<text text-anchor="middle" x="653" y="-43" font-family="Helvetica,sans-Serif" font-size="10.00">&lt; Operand, Element &gt; &gt;</text>
</a>
</g>
</g>
<!-- Node11&#45;&gt;Node12 -->
<g id="edge11" class="edge"><title>Node11&#45;&gt;Node12</title>
<path fill="none" stroke="midnightblue" d="M544.567,-67.1137C552.954,-66.2461 561.61,-65.3507 570.197,-64.4623"/>
<polygon fill="midnightblue" stroke="midnightblue" points="544.08,-63.6454 534.493,-68.1559 544.8,-70.6083 544.08,-63.6454"/>
</g>
<!-- Node13 -->
<g id="node13" class="node"><title>Node13</title>
<g id="a_node13"><a xlink:href="class_om_1_1_language_1_1_default_program.html" target="_top" xlink:title="Om::Language::DefaultProgram\l\&lt; Operand, Element \&gt;">
<polygon fill="none" stroke="black" points="772.128,-19 772.128,-47 929.872,-47 929.872,-19 772.128,-19"/>
<text text-anchor="start" x="780.128" y="-35" font-family="Helvetica,sans-Serif" font-size="10.00">Om::Language::DefaultProgram</text>
<text text-anchor="middle" x="851" y="-25" font-family="Helvetica,sans-Serif" font-size="10.00">&lt; Operand, Element &gt;</text>
</a>
</g>
</g>
<!-- Node12&#45;&gt;Node13 -->
<g id="edge12" class="edge"><title>Node12&#45;&gt;Node13</title>
<path fill="none" stroke="midnightblue" d="M746.137,-45.188C754.823,-44.1688 763.57,-43.1423 772.104,-42.1408"/>
<polygon fill="midnightblue" stroke="midnightblue" points="745.51,-41.7375 735.986,-46.3792 746.326,-48.6898 745.51,-41.7375"/>
</g>
<!-- Node14 -->
<g id="node14" class="node"><title>Node14</title>
<g id="a_node14"><a xlink:href="class_om_1_1_language_1_1_default_element.html" target="_top" xlink:title="Om::Language::DefaultElement\l\&lt; Operand, Element \&gt;">
<polygon fill="none" stroke="black" points="965.958,-19 965.958,-47 1122.04,-47 1122.04,-19 965.958,-19"/>
<text text-anchor="start" x="973.958" y="-35" font-family="Helvetica,sans-Serif" font-size="10.00">Om::Language::DefaultElement</text>
<text text-anchor="middle" x="1044" y="-25" font-family="Helvetica,sans-Serif" font-size="10.00">&lt; Operand, Element &gt;</text>
</a>
</g>
</g>
<!-- Node13&#45;&gt;Node14 -->
<g id="edge13" class="edge"><title>Node13&#45;&gt;Node14</title>
<path fill="none" stroke="midnightblue" d="M940.043,-33C948.677,-33 957.392,-33 965.905,-33"/>
<polygon fill="midnightblue" stroke="midnightblue" points="939.963,-29.5001 929.962,-33 939.962,-36.5001 939.963,-29.5001"/>
</g>
<!-- Node15 -->
<g id="node15" class="node"><title>Node15</title>
<g id="a_node15"><a xlink:href="class_om_1_1_language_1_1_operand.html" target="_top" xlink:title="The Operand implementation. ">
<polygon fill="none" stroke="black" points="1158.69,-24 1158.69,-42 1285.31,-42 1285.31,-24 1158.69,-24"/>
<text text-anchor="middle" x="1222" y="-30" font-family="Helvetica,sans-Serif" font-size="10.00">Om::Language::Operand</text>
</a>
</g>
</g>
<!-- Node14&#45;&gt;Node15 -->
<g id="edge14" class="edge"><title>Node14&#45;&gt;Node15</title>
<path fill="none" stroke="midnightblue" d="M1132.24,-33C1141.16,-33 1150.09,-33 1158.66,-33"/>
<polygon fill="midnightblue" stroke="midnightblue" points="1132.2,-29.5001 1122.2,-33 1132.2,-36.5001 1132.2,-29.5001"/>
</g>
<!-- Node16 -->
<g id="node16" class="node"><title>Node16</title>
<g id="a_node16"><a xlink:href="class_om_1_1_taker.html" target="_top" xlink:title="Om::Taker\&lt; Null \&gt;">
<polygon fill="none" stroke="black" points="604.709,-94 604.709,-112 701.291,-112 701.291,-94 604.709,-94"/>
<text text-anchor="middle" x="653" y="-100" font-family="Helvetica,sans-Serif" font-size="10.00">Om::Taker&lt; Null &gt;</text>
</a>
</g>
</g>
<!-- Node16&#45;&gt;Node6 -->
<g id="edge15" class="edge"><title>Node16&#45;&gt;Node6</title>
<path fill="none" stroke="midnightblue" d="M711.41,-109.737C730.371,-111.962 751.796,-114.476 772.03,-116.85"/>
<polygon fill="midnightblue" stroke="midnightblue" points="711.786,-106.257 701.446,-108.568 710.97,-113.209 711.786,-106.257"/>
</g>
<!-- Node17 -->
<g id="node17" class="node"><title>Node17</title>
<g id="a_node17"><a xlink:href="class_om_1_1_taker.html" target="_top" xlink:title="Om::Taker\&lt; Operand \&gt;">
<polygon fill="none" stroke="black" points="593.865,-0 593.865,-18 712.135,-18 712.135,-0 593.865,-0"/>
<text text-anchor="middle" x="653" y="-6" font-family="Helvetica,sans-Serif" font-size="10.00">Om::Taker&lt; Operand &gt;</text>
</a>
</g>
</g>
<!-- Node17&#45;&gt;Node13 -->
<g id="edge16" class="edge"><title>Node17&#45;&gt;Node13</title>
<path fill="none" stroke="midnightblue" d="M722.579,-17.3974C738.54,-19.3518 755.649,-21.4468 771.983,-23.447"/>
<polygon fill="midnightblue" stroke="midnightblue" points="722.627,-13.8773 712.276,-16.1358 721.776,-20.8254 722.627,-13.8773"/>
</g>
</g>
</svg>
