<?xml version="1.0" encoding="UTF-8" standalone="no"?>
<!DOCTYPE svg PUBLIC "-//W3C//DTD SVG 1.1//EN"
 "http://www.w3.org/Graphics/SVG/1.1/DTD/svg11.dtd">
<!-- Generated by graphviz version 2.36.0 (20140111.2315)
 -->
<!-- Title: Graphical Class Hierarchy Pages: 1 -->
<svg width="760pt" height="1053pt"
 viewBox="0.00 0.00 760.00 1053.00" xmlns="http://www.w3.org/2000/svg" xmlns:xlink="http://www.w3.org/1999/xlink">
<g id="graph0" class="graph" transform="scale(1 1) rotate(0) translate(4 1049)">
<title>Graphical Class Hierarchy</title>
<!-- Node1 -->
<g id="node1" class="node"><title>Node1</title>
<g id="a_node1"><a xlink:href="class_om_1_1_operation_1_1_incomplete_operation.html" target="_top" xlink:title="An Operation that has yet to consume one or more Operands and must live in memory until complete...">
<polygon fill="none" stroke="black" points="-0.0268555,-521 -0.0268555,-549 136.027,-549 136.027,-521 -0.0268555,-521"/>
<text text-anchor="start" x="7.97314" y="-537" font-family="Helvetica,sans-Serif" font-size="10.00">Om::Operation::Incomplete</text>
<text text-anchor="middle" x="68" y="-527" font-family="Helvetica,sans-Serif" font-size="10.00">Operation</text>
</a>
</g>
</g>
<!-- Node2 -->
<g id="node2" class="node"><title>Node2</title>
<g id="a_node2"><a xlink:href="class_om_1_1_operation_1_1_default_incomplete_operation.html" target="_top" xlink:title="Om::Operation::DefaultIncomplete\lOperation\&lt; ChooseOperation \&gt;">
<polygon fill="none" stroke="black" points="184.131,-1017 184.131,-1045 351.869,-1045 351.869,-1017 184.131,-1017"/>
<text text-anchor="start" x="192.131" y="-1033" font-family="Helvetica,sans-Serif" font-size="10.00">Om::Operation::DefaultIncomplete</text>
<text text-anchor="middle" x="268" y="-1023" font-family="Helvetica,sans-Serif" font-size="10.00">Operation&lt; ChooseOperation &gt;</text>
</a>
</g>
</g>
<!-- Node1&#45;&gt;Node2 -->
<g id="edge1" class="edge"><title>Node1&#45;&gt;Node2</title>
<path fill="none" stroke="midnightblue" d="M70.964,-559.141C78.5181,-646.067 108.508,-941.404 172,-1007 175.668,-1010.79 179.84,-1014.01 184.341,-1016.75"/>
<polygon fill="midnightblue" stroke="midnightblue" points="74.4506,-558.833 70.117,-549.165 67.4757,-559.426 74.4506,-558.833"/>
</g>
<!-- Node4 -->
<g id="node4" class="node"><title>Node4</title>
<g id="a_node4"><a xlink:href="class_om_1_1_operation_1_1_default_incomplete_operation.html" target="_top" xlink:title="Om::Operation::DefaultIncomplete\lOperation\&lt; CopyOperation \&gt;">
<polygon fill="none" stroke="black" points="184.131,-970 184.131,-998 351.869,-998 351.869,-970 184.131,-970"/>
<text text-anchor="start" x="192.131" y="-986" font-family="Helvetica,sans-Serif" font-size="10.00">Om::Operation::DefaultIncomplete</text>
<text text-anchor="middle" x="268" y="-976" font-family="Helvetica,sans-Serif" font-size="10.00">Operation&lt; CopyOperation &gt;</text>
</a>
</g>
</g>
<!-- Node1&#45;&gt;Node4 -->
<g id="edge3" class="edge"><title>Node1&#45;&gt;Node4</title>
<path fill="none" stroke="midnightblue" d="M71.6126,-559.328C80.839,-640.76 114.471,-901.911 172,-960 175.831,-963.868 180.188,-967.144 184.88,-969.915"/>
<polygon fill="midnightblue" stroke="midnightblue" points="75.0558,-558.623 70.4727,-549.071 68.0986,-559.396 75.0558,-558.623"/>
</g>
<!-- Node6 -->
<g id="node6" class="node"><title>Node6</title>
<g id="a_node6"><a xlink:href="class_om_1_1_operation_1_1_default_incomplete_operation.html" target="_top" xlink:title="Om::Operation::DefaultIncomplete\lOperation\&lt; DecodeOperation \&gt;">
<polygon fill="none" stroke="black" points="184.131,-923 184.131,-951 351.869,-951 351.869,-923 184.131,-923"/>
<text text-anchor="start" x="192.131" y="-939" font-family="Helvetica,sans-Serif" font-size="10.00">Om::Operation::DefaultIncomplete</text>
<text text-anchor="middle" x="268" y="-929" font-family="Helvetica,sans-Serif" font-size="10.00">Operation&lt; DecodeOperation &gt;</text>
</a>
</g>
</g>
<!-- Node1&#45;&gt;Node6 -->
<g id="edge5" class="edge"><title>Node1&#45;&gt;Node6</title>
<path fill="none" stroke="midnightblue" d="M72.3626,-559.092C83.321,-634.223 120.299,-862.25 172,-913 175.885,-916.813 180.283,-920.048 185.005,-922.79"/>
<polygon fill="midnightblue" stroke="midnightblue" points="75.8217,-558.556 70.9359,-549.155 68.8928,-559.551 75.8217,-558.556"/>
</g>
<!-- Node8 -->
<g id="node8" class="node"><title>Node8</title>
<g id="a_node8"><a xlink:href="class_om_1_1_operation_1_1_default_incomplete_operation.html" target="_top" xlink:title="Om::Operation::DefaultIncomplete\lOperation\&lt; DefineOperation \&gt;">
<polygon fill="none" stroke="black" points="184.131,-876 184.131,-904 351.869,-904 351.869,-876 184.131,-876"/>
<text text-anchor="start" x="192.131" y="-892" font-family="Helvetica,sans-Serif" font-size="10.00">Om::Operation::DefaultIncomplete</text>
<text text-anchor="middle" x="268" y="-882" font-family="Helvetica,sans-Serif" font-size="10.00">Operation&lt; DefineOperation &gt;</text>
</a>
</g>
</g>
<!-- Node1&#45;&gt;Node8 -->
<g id="edge7" class="edge"><title>Node1&#45;&gt;Node8</title>
<path fill="none" stroke="midnightblue" d="M68.9746,-559.292C70.2911,-620.325 82.5339,-781.258 172,-866 176.076,-869.86 180.679,-873.124 185.607,-875.882"/>
<polygon fill="midnightblue" stroke="midnightblue" points="72.4718,-559.052 68.8398,-549.1 65.4724,-559.145 72.4718,-559.052"/>
</g>
<!-- Node10 -->
<g id="node10" class="node"><title>Node10</title>
<g id="a_node10"><a xlink:href="class_om_1_1_operation_1_1_default_incomplete_operation.html" target="_top" xlink:title="Om::Operation::DefaultIncomplete\lOperation\&lt; DequoteOperation \&gt;">
<polygon fill="none" stroke="black" points="184.131,-829 184.131,-857 351.869,-857 351.869,-829 184.131,-829"/>
<text text-anchor="start" x="192.131" y="-845" font-family="Helvetica,sans-Serif" font-size="10.00">Om::Operation::DefaultIncomplete</text>
<text text-anchor="middle" x="268" y="-835" font-family="Helvetica,sans-Serif" font-size="10.00">Operation&lt; DequoteOperation &gt;</text>
</a>
</g>
</g>
<!-- Node1&#45;&gt;Node10 -->
<g id="edge9" class="edge"><title>Node1&#45;&gt;Node10</title>
<path fill="none" stroke="midnightblue" d="M70.4143,-559.169C74.9664,-613.977 93.9338,-748.408 172,-819 176.29,-822.879 181.116,-826.151 186.26,-828.909"/>
<polygon fill="midnightblue" stroke="midnightblue" points="73.892,-558.736 69.6641,-549.022 66.9111,-559.252 73.892,-558.736"/>
</g>
<!-- Node12 -->
<g id="node12" class="node"><title>Node12</title>
<g id="a_node12"><a xlink:href="class_om_1_1_operation_1_1_default_incomplete_operation.html" target="_top" xlink:title="Om::Operation::DefaultIncomplete\lOperation\&lt; DropOperation \&gt;">
<polygon fill="none" stroke="black" points="184.131,-782 184.131,-810 351.869,-810 351.869,-782 184.131,-782"/>
<text text-anchor="start" x="192.131" y="-798" font-family="Helvetica,sans-Serif" font-size="10.00">Om::Operation::DefaultIncomplete</text>
<text text-anchor="middle" x="268" y="-788" font-family="Helvetica,sans-Serif" font-size="10.00">Operation&lt; DropOperation &gt;</text>
</a>
</g>
</g>
<!-- Node1&#45;&gt;Node12 -->
<g id="edge11" class="edge"><title>Node1&#45;&gt;Node12</title>
<path fill="none" stroke="midnightblue" d="M72.3643,-559.096C80.3884,-607.18 105.224,-715.281 172,-772 176.538,-775.854 181.611,-779.104 186.987,-781.841"/>
<polygon fill="midnightblue" stroke="midnightblue" points="75.789,-558.343 70.7833,-549.005 68.8734,-559.426 75.789,-558.343"/>
</g>
<!-- Node14 -->
<g id="node14" class="node"><title>Node14</title>
<g id="a_node14"><a xlink:href="class_om_1_1_operation_1_1_default_incomplete_operation.html" target="_top" xlink:title="Om::Operation::DefaultIncomplete\lOperation\&lt; EncodeOperation \&gt;">
<polygon fill="none" stroke="black" points="184.131,-735 184.131,-763 351.869,-763 351.869,-735 184.131,-735"/>
<text text-anchor="start" x="192.131" y="-751" font-family="Helvetica,sans-Serif" font-size="10.00">Om::Operation::DefaultIncomplete</text>
<text text-anchor="middle" x="268" y="-741" font-family="Helvetica,sans-Serif" font-size="10.00">Operation&lt; EncodeOperation &gt;</text>
</a>
</g>
</g>
<!-- Node1&#45;&gt;Node14 -->
<g id="edge13" class="edge"><title>Node1&#45;&gt;Node14</title>
<path fill="none" stroke="midnightblue" d="M75.2041,-559.111C86.9504,-599.774 116.388,-681.773 172,-725 176.969,-728.863 182.487,-732.11 188.29,-734.84"/>
<polygon fill="midnightblue" stroke="midnightblue" points="78.5168,-557.959 72.4729,-549.257 71.7711,-559.829 78.5168,-557.959"/>
</g>
<!-- Node16 -->
<g id="node16" class="node"><title>Node16</title>
<g id="a_node16"><a xlink:href="class_om_1_1_operation_1_1_default_incomplete_operation.html" target="_top" xlink:title="Om::Operation::DefaultIncomplete\lOperation\&lt; EqualsOperation \&gt;">
<polygon fill="none" stroke="black" points="184.131,-688 184.131,-716 351.869,-716 351.869,-688 184.131,-688"/>
<text text-anchor="start" x="192.131" y="-704" font-family="Helvetica,sans-Serif" font-size="10.00">Om::Operation::DefaultIncomplete</text>
<text text-anchor="middle" x="268" y="-694" font-family="Helvetica,sans-Serif" font-size="10.00">Operation&lt; EqualsOperation &gt;</text>
</a>
</g>
</g>
<!-- Node1&#45;&gt;Node16 -->
<g id="edge15" class="edge"><title>Node1&#45;&gt;Node16</title>
<path fill="none" stroke="midnightblue" d="M79.4131,-558.412C94.8933,-590.449 127.055,-647.448 172,-678 177.768,-681.921 184.125,-685.202 190.735,-687.946"/>
<polygon fill="midnightblue" stroke="midnightblue" points="82.5665,-556.893 75.1488,-549.328 76.2299,-559.867 82.5665,-556.893"/>
</g>
<!-- Node18 -->
<g id="node18" class="node"><title>Node18</title>
<g id="a_node18"><a xlink:href="class_om_1_1_operation_1_1_default_incomplete_operation.html" target="_top" xlink:title="Om::Operation::DefaultIncomplete\lOperation\&lt; EvaluateOperation \&gt;">
<polygon fill="none" stroke="black" points="184.131,-641 184.131,-669 351.869,-669 351.869,-641 184.131,-641"/>
<text text-anchor="start" x="192.131" y="-657" font-family="Helvetica,sans-Serif" font-size="10.00">Om::Operation::DefaultIncomplete</text>
<text text-anchor="middle" x="268" y="-647" font-family="Helvetica,sans-Serif" font-size="10.00">Operation&lt; EvaluateOperation &gt;</text>
</a>
</g>
</g>
<!-- Node1&#45;&gt;Node18 -->
<g id="edge17" class="edge"><title>Node1&#45;&gt;Node18</title>
<path fill="none" stroke="midnightblue" d="M86.6131,-556.914C105.46,-578.898 137.358,-612.127 172,-631 179.17,-634.906 186.992,-638.192 194.968,-640.951"/>
<polygon fill="midnightblue" stroke="midnightblue" points="89.1593,-554.503 80.0505,-549.092 83.7967,-559.002 89.1593,-554.503"/>
</g>
<!-- Node20 -->
<g id="node20" class="node"><title>Node20</title>
<g id="a_node20"><a xlink:href="class_om_1_1_operation_1_1_default_incomplete_operation.html" target="_top" xlink:title="Om::Operation::DefaultIncomplete\lOperation\&lt; FillOperation \&gt;">
<polygon fill="none" stroke="black" points="184.131,-594 184.131,-622 351.869,-622 351.869,-594 184.131,-594"/>
<text text-anchor="start" x="192.131" y="-610" font-family="Helvetica,sans-Serif" font-size="10.00">Om::Operation::DefaultIncomplete</text>
<text text-anchor="middle" x="268" y="-600" font-family="Helvetica,sans-Serif" font-size="10.00">Operation&lt; FillOperation &gt;</text>
</a>
</g>
</g>
<!-- Node1&#45;&gt;Node20 -->
<g id="edge19" class="edge"><title>Node1&#45;&gt;Node20</title>
<path fill="none" stroke="midnightblue" d="M104.2,-553.865C123.766,-563.806 148.785,-575.637 172,-584 182.243,-587.69 193.302,-591.035 204.129,-593.976"/>
<polygon fill="midnightblue" stroke="midnightblue" points="105.557,-550.627 95.0643,-549.159 102.352,-556.85 105.557,-550.627"/>
</g>
<!-- Node22 -->
<g id="node22" class="node"><title>Node22</title>
<g id="a_node22"><a xlink:href="class_om_1_1_operation_1_1_default_incomplete_operation.html" target="_top" xlink:title="Om::Operation::DefaultIncomplete\lOperation\&lt; FindOperation \&gt;">
<polygon fill="none" stroke="black" points="184.131,-547 184.131,-575 351.869,-575 351.869,-547 184.131,-547"/>
<text text-anchor="start" x="192.131" y="-563" font-family="Helvetica,sans-Serif" font-size="10.00">Om::Operation::DefaultIncomplete</text>
<text text-anchor="middle" x="268" y="-553" font-family="Helvetica,sans-Serif" font-size="10.00">Operation&lt; FindOperation &gt;</text>
</a>
</g>
</g>
<!-- Node1&#45;&gt;Node22 -->
<g id="edge21" class="edge"><title>Node1&#45;&gt;Node22</title>
<path fill="none" stroke="midnightblue" d="M146.268,-545.146C158.605,-546.766 171.416,-548.449 183.882,-550.085"/>
<polygon fill="midnightblue" stroke="midnightblue" points="146.404,-541.634 136.034,-543.802 145.493,-548.575 146.404,-541.634"/>
</g>
<!-- Node24 -->
<g id="node24" class="node"><title>Node24</title>
<g id="a_node24"><a xlink:href="class_om_1_1_operation_1_1_default_incomplete_operation.html" target="_top" xlink:title="Om::Operation::DefaultIncomplete\lOperation\&lt; FrontPushOperation\l\&lt; ThisProgram, ThisImplementation \&gt; \&gt;">
<polygon fill="none" stroke="black" points="172.222,-490 172.222,-528 363.778,-528 363.778,-490 172.222,-490"/>
<text text-anchor="start" x="180.222" y="-516" font-family="Helvetica,sans-Serif" font-size="10.00">Om::Operation::DefaultIncomplete</text>
<text text-anchor="start" x="180.222" y="-506" font-family="Helvetica,sans-Serif" font-size="10.00">Operation&lt; FrontPushOperation</text>
<text text-anchor="middle" x="268" y="-496" font-family="Helvetica,sans-Serif" font-size="10.00">&lt; ThisProgram, ThisImplementation &gt; &gt;</text>
</a>
</g>
</g>
<!-- Node1&#45;&gt;Node24 -->
<g id="edge23" class="edge"><title>Node1&#45;&gt;Node24</title>
<path fill="none" stroke="midnightblue" d="M146.2,-524.863C154.64,-523.754 163.302,-522.617 171.924,-521.485"/>
<polygon fill="midnightblue" stroke="midnightblue" points="145.493,-521.425 136.034,-526.198 146.404,-528.366 145.493,-521.425"/>
</g>
<!-- Node26 -->
<g id="node26" class="node"><title>Node26</title>
<g id="a_node26"><a xlink:href="class_om_1_1_operation_1_1_default_incomplete_operation.html" target="_top" xlink:title="Om::Operation::DefaultIncomplete\lOperation\&lt; InjectOperation \&gt;">
<polygon fill="none" stroke="black" points="184.131,-443 184.131,-471 351.869,-471 351.869,-443 184.131,-443"/>
<text text-anchor="start" x="192.131" y="-459" font-family="Helvetica,sans-Serif" font-size="10.00">Om::Operation::DefaultIncomplete</text>
<text text-anchor="middle" x="268" y="-449" font-family="Helvetica,sans-Serif" font-size="10.00">Operation&lt; InjectOperation &gt;</text>
</a>
</g>
</g>
<!-- Node1&#45;&gt;Node26 -->
<g id="edge25" class="edge"><title>Node1&#45;&gt;Node26</title>
<path fill="none" stroke="midnightblue" d="M100.65,-515.915C120.575,-504.537 147.141,-490.504 172,-481 181.772,-477.264 192.332,-473.938 202.736,-471.04"/>
<polygon fill="midnightblue" stroke="midnightblue" points="98.8907,-512.89 91.9923,-520.931 102.4,-518.947 98.8907,-512.89"/>
</g>
<!-- Node28 -->
<g id="node28" class="node"><title>Node28</title>
<g id="a_node28"><a xlink:href="class_om_1_1_operation_1_1_default_incomplete_operation.html" target="_top" xlink:title="Om::Operation::DefaultIncomplete\lOperation\&lt; NormalizeOperation \&gt;">
<polygon fill="none" stroke="black" points="184.131,-396 184.131,-424 351.869,-424 351.869,-396 184.131,-396"/>
<text text-anchor="start" x="192.131" y="-412" font-family="Helvetica,sans-Serif" font-size="10.00">Om::Operation::DefaultIncomplete</text>
<text text-anchor="middle" x="268" y="-402" font-family="Helvetica,sans-Serif" font-size="10.00">Operation&lt; NormalizeOperation &gt;</text>
</a>
</g>
</g>
<!-- Node1&#45;&gt;Node28 -->
<g id="edge27" class="edge"><title>Node1&#45;&gt;Node28</title>
<path fill="none" stroke="midnightblue" d="M85.5118,-512.98C104.035,-489.847 136.212,-454.09 172,-434 178.972,-430.086 186.586,-426.801 194.371,-424.044"/>
<polygon fill="midnightblue" stroke="midnightblue" points="82.7354,-510.849 79.3237,-520.879 88.2458,-515.165 82.7354,-510.849"/>
</g>
<!-- Node30 -->
<g id="node30" class="node"><title>Node30</title>
<g id="a_node30"><a xlink:href="class_om_1_1_operation_1_1_default_incomplete_operation.html" target="_top" xlink:title="Om::Operation::DefaultIncomplete\lOperation\&lt; PairOperation \&gt;">
<polygon fill="none" stroke="black" points="184.131,-349 184.131,-377 351.869,-377 351.869,-349 184.131,-349"/>
<text text-anchor="start" x="192.131" y="-365" font-family="Helvetica,sans-Serif" font-size="10.00">Om::Operation::DefaultIncomplete</text>
<text text-anchor="middle" x="268" y="-355" font-family="Helvetica,sans-Serif" font-size="10.00">Operation&lt; PairOperation &gt;</text>
</a>
</g>
</g>
<!-- Node1&#45;&gt;Node30 -->
<g id="edge29" class="edge"><title>Node1&#45;&gt;Node30</title>
<path fill="none" stroke="midnightblue" d="M78.9605,-511.278C94.0873,-478.222 126.036,-418.793 172,-387 177.596,-383.129 183.763,-379.882 190.185,-377.158"/>
<polygon fill="midnightblue" stroke="midnightblue" points="75.6672,-510.07 74.8091,-520.63 82.0653,-512.91 75.6672,-510.07"/>
</g>
<!-- Node32 -->
<g id="node32" class="node"><title>Node32</title>
<g id="a_node32"><a xlink:href="class_om_1_1_operation_1_1_default_incomplete_operation.html" target="_top" xlink:title="Om::Operation::DefaultIncomplete\lOperation\&lt; ProgramOperation\l\&lt; ThisProgram \&gt; \&gt;">
<polygon fill="none" stroke="black" points="184.131,-292 184.131,-330 351.869,-330 351.869,-292 184.131,-292"/>
<text text-anchor="start" x="192.131" y="-318" font-family="Helvetica,sans-Serif" font-size="10.00">Om::Operation::DefaultIncomplete</text>
<text text-anchor="start" x="192.131" y="-308" font-family="Helvetica,sans-Serif" font-size="10.00">Operation&lt; ProgramOperation</text>
<text text-anchor="middle" x="268" y="-298" font-family="Helvetica,sans-Serif" font-size="10.00">&lt; ThisProgram &gt; &gt;</text>
</a>
</g>
</g>
<!-- Node1&#45;&gt;Node32 -->
<g id="edge31" class="edge"><title>Node1&#45;&gt;Node32</title>
<path fill="none" stroke="midnightblue" d="M75.0869,-511.121C86.7902,-470.042 116.34,-385.991 172,-340 176.52,-336.265 181.515,-333.011 186.779,-330.176"/>
<polygon fill="midnightblue" stroke="midnightblue" points="71.6969,-510.249 72.4308,-520.819 78.4482,-512.098 71.6969,-510.249"/>
</g>
<!-- Node34 -->
<g id="node34" class="node"><title>Node34</title>
<g id="a_node34"><a xlink:href="class_om_1_1_operation_1_1_default_incomplete_operation.html" target="_top" xlink:title="Om::Operation::DefaultIncomplete\lOperation\&lt; PullOperation\&lt;\l ThisProgram, ThisImplementation \&gt; \&gt;">
<polygon fill="none" stroke="black" points="175.142,-235 175.142,-273 360.858,-273 360.858,-235 175.142,-235"/>
<text text-anchor="start" x="183.142" y="-261" font-family="Helvetica,sans-Serif" font-size="10.00">Om::Operation::DefaultIncomplete</text>
<text text-anchor="start" x="183.142" y="-251" font-family="Helvetica,sans-Serif" font-size="10.00">Operation&lt; PullOperation&lt;</text>
<text text-anchor="middle" x="268" y="-241" font-family="Helvetica,sans-Serif" font-size="10.00"> ThisProgram, ThisImplementation &gt; &gt;</text>
</a>
</g>
</g>
<!-- Node1&#45;&gt;Node34 -->
<g id="edge33" class="edge"><title>Node1&#45;&gt;Node34</title>
<path fill="none" stroke="midnightblue" d="M71.9718,-510.731C79.3892,-460.718 103.342,-345.632 172,-283 176.077,-279.281 180.619,-276.039 185.446,-273.212"/>
<polygon fill="midnightblue" stroke="midnightblue" points="68.4669,-510.525 70.5604,-520.911 75.4006,-511.486 68.4669,-510.525"/>
</g>
<!-- Node36 -->
<g id="node36" class="node"><title>Node36</title>
<g id="a_node36"><a xlink:href="class_om_1_1_operation_1_1_default_incomplete_operation.html" target="_top" xlink:title="Om::Operation::DefaultIncomplete\lOperation\&lt; QuoteOperation \&gt;">
<polygon fill="none" stroke="black" points="184.131,-188 184.131,-216 351.869,-216 351.869,-188 184.131,-188"/>
<text text-anchor="start" x="192.131" y="-204" font-family="Helvetica,sans-Serif" font-size="10.00">Om::Operation::DefaultIncomplete</text>
<text text-anchor="middle" x="268" y="-194" font-family="Helvetica,sans-Serif" font-size="10.00">Operation&lt; QuoteOperation &gt;</text>
</a>
</g>
</g>
<!-- Node1&#45;&gt;Node36 -->
<g id="edge35" class="edge"><title>Node1&#45;&gt;Node36</title>
<path fill="none" stroke="midnightblue" d="M69.6018,-510.726C72.411,-452.523 87.9037,-304.069 172,-226 176.114,-222.181 180.746,-218.947 185.694,-216.212"/>
<polygon fill="midnightblue" stroke="midnightblue" points="66.101,-510.681 69.2018,-520.812 73.0955,-510.959 66.101,-510.681"/>
</g>
<!-- Node38 -->
<g id="node38" class="node"><title>Node38</title>
<g id="a_node38"><a xlink:href="class_om_1_1_operation_1_1_default_incomplete_operation.html" target="_top" xlink:title="Om::Operation::DefaultIncomplete\lOperation\&lt; SkipOperation \&gt;">
<polygon fill="none" stroke="black" points="184.131,-141 184.131,-169 351.869,-169 351.869,-141 184.131,-141"/>
<text text-anchor="start" x="192.131" y="-157" font-family="Helvetica,sans-Serif" font-size="10.00">Om::Operation::DefaultIncomplete</text>
<text text-anchor="middle" x="268" y="-147" font-family="Helvetica,sans-Serif" font-size="10.00">Operation&lt; SkipOperation &gt;</text>
</a>
</g>
</g>
<!-- Node1&#45;&gt;Node38 -->
<g id="edge37" class="edge"><title>Node1&#45;&gt;Node38</title>
<path fill="none" stroke="midnightblue" d="M68.3479,-510.662C68.0261,-446.506 76.4156,-271.372 172,-179 176.037,-175.099 180.611,-171.805 185.518,-169.026"/>
<polygon fill="midnightblue" stroke="midnightblue" points="64.8523,-511.023 68.4831,-520.976 71.8517,-510.931 64.8523,-511.023"/>
</g>
<!-- Node40 -->
<g id="node40" class="node"><title>Node40</title>
<g id="a_node40"><a xlink:href="class_om_1_1_operation_1_1_default_incomplete_operation.html" target="_top" xlink:title="Om::Operation::DefaultIncomplete\lOperation\&lt; SubstituteOperation \&gt;">
<polygon fill="none" stroke="black" points="184.131,-94 184.131,-122 351.869,-122 351.869,-94 184.131,-94"/>
<text text-anchor="start" x="192.131" y="-110" font-family="Helvetica,sans-Serif" font-size="10.00">Om::Operation::DefaultIncomplete</text>
<text text-anchor="middle" x="268" y="-100" font-family="Helvetica,sans-Serif" font-size="10.00">Operation&lt; SubstituteOperation &gt;</text>
</a>
</g>
</g>
<!-- Node1&#45;&gt;Node40 -->
<g id="edge39" class="edge"><title>Node1&#45;&gt;Node40</title>
<path fill="none" stroke="midnightblue" d="M71.9927,-510.397C82.0794,-431.462 117.293,-186.556 172,-132 175.855,-128.156 180.23,-124.898 184.935,-122.14"/>
<polygon fill="midnightblue" stroke="midnightblue" points="68.4602,-510.439 70.6875,-520.797 75.4057,-511.31 68.4602,-510.439"/>
</g>
<!-- Node43 -->
<g id="node43" class="node"><title>Node43</title>
<g id="a_node43"><a xlink:href="class_om_1_1_operation_1_1_default_incomplete_operation.html" target="_top" xlink:title="Om::Operation::DefaultIncomplete\lOperation\&lt; SwapOperation \&gt;">
<polygon fill="none" stroke="black" points="184.131,-47 184.131,-75 351.869,-75 351.869,-47 184.131,-47"/>
<text text-anchor="start" x="192.131" y="-63" font-family="Helvetica,sans-Serif" font-size="10.00">Om::Operation::DefaultIncomplete</text>
<text text-anchor="middle" x="268" y="-53" font-family="Helvetica,sans-Serif" font-size="10.00">Operation&lt; SwapOperation &gt;</text>
</a>
</g>
</g>
<!-- Node1&#45;&gt;Node43 -->
<g id="edge42" class="edge"><title>Node1&#45;&gt;Node43</title>
<path fill="none" stroke="midnightblue" d="M71.2072,-510.835C79.4079,-426.347 110.849,-145.951 172,-84 175.576,-80.3769 179.619,-77.2871 183.97,-74.6554"/>
<polygon fill="midnightblue" stroke="midnightblue" points="67.7037,-510.706 70.2426,-520.993 74.6724,-511.368 67.7037,-510.706"/>
</g>
<!-- Node45 -->
<g id="node45" class="node"><title>Node45</title>
<g id="a_node45"><a xlink:href="class_om_1_1_operation_1_1_default_incomplete_operation.html" target="_top" xlink:title="A partial implementation of IncompleteOperation. ">
<polygon fill="none" stroke="black" points="184.131,-0 184.131,-28 351.869,-28 351.869,-0 184.131,-0"/>
<text text-anchor="start" x="192.131" y="-16" font-family="Helvetica,sans-Serif" font-size="10.00">Om::Operation::DefaultIncomplete</text>
<text text-anchor="middle" x="268" y="-6" font-family="Helvetica,sans-Serif" font-size="10.00">Operation&lt; ThisImplementation &gt;</text>
</a>
</g>
</g>
<!-- Node1&#45;&gt;Node45 -->
<g id="edge44" class="edge"><title>Node1&#45;&gt;Node45</title>
<path fill="none" stroke="midnightblue" d="M70.6767,-510.401C77.3499,-419.789 104.984,-106.305 172,-37 175.539,-33.3403 179.553,-30.2225 183.882,-27.5698"/>
<polygon fill="midnightblue" stroke="midnightblue" points="67.1738,-510.317 69.9498,-520.542 74.1559,-510.818 67.1738,-510.317"/>
</g>
<!-- Node3 -->
<g id="node3" class="node"><title>Node3</title>
<g id="a_node3"><a xlink:href="class_om_1_1_operation_1_1_choose_operation.html" target="_top" xlink:title="The choose operation implementation. ">
<polygon fill="none" stroke="black" points="409.239,-1022 409.239,-1040 574.761,-1040 574.761,-1022 409.239,-1022"/>
<text text-anchor="middle" x="492" y="-1028" font-family="Helvetica,sans-Serif" font-size="10.00">Om::Operation::ChooseOperation</text>
</a>
</g>
</g>
<!-- Node2&#45;&gt;Node3 -->
<g id="edge2" class="edge"><title>Node2&#45;&gt;Node3</title>
<path fill="none" stroke="midnightblue" d="M362.168,-1031C377.798,-1031 393.912,-1031 409.227,-1031"/>
<polygon fill="midnightblue" stroke="midnightblue" points="361.98,-1027.5 351.98,-1031 361.98,-1034.5 361.98,-1027.5"/>
</g>
<!-- Node5 -->
<g id="node5" class="node"><title>Node5</title>
<g id="a_node5"><a xlink:href="class_om_1_1_operation_1_1_copy_operation.html" target="_top" xlink:title="The copy operation implementation. ">
<polygon fill="none" stroke="black" points="414.801,-975 414.801,-993 569.199,-993 569.199,-975 414.801,-975"/>
<text text-anchor="middle" x="492" y="-981" font-family="Helvetica,sans-Serif" font-size="10.00">Om::Operation::CopyOperation</text>
</a>
</g>
</g>
<!-- Node4&#45;&gt;Node5 -->
<g id="edge4" class="edge"><title>Node4&#45;&gt;Node5</title>
<path fill="none" stroke="midnightblue" d="M362.2,-984C379.7,-984 397.807,-984 414.717,-984"/>
<polygon fill="midnightblue" stroke="midnightblue" points="361.98,-980.5 351.98,-984 361.98,-987.5 361.98,-980.5"/>
</g>
<!-- Node7 -->
<g id="node7" class="node"><title>Node7</title>
<g id="a_node7"><a xlink:href="class_om_1_1_operation_1_1_decode_operation.html" target="_top" xlink:title="The decode operation implementation. ">
<polygon fill="none" stroke="black" points="409.239,-928 409.239,-946 574.761,-946 574.761,-928 409.239,-928"/>
<text text-anchor="middle" x="492" y="-934" font-family="Helvetica,sans-Serif" font-size="10.00">Om::Operation::DecodeOperation</text>
</a>
</g>
</g>
<!-- Node6&#45;&gt;Node7 -->
<g id="edge6" class="edge"><title>Node6&#45;&gt;Node7</title>
<path fill="none" stroke="midnightblue" d="M362.168,-937C377.798,-937 393.912,-937 409.227,-937"/>
<polygon fill="midnightblue" stroke="midnightblue" points="361.98,-933.5 351.98,-937 361.98,-940.5 361.98,-933.5"/>
</g>
<!-- Node9 -->
<g id="node9" class="node"><title>Node9</title>
<g id="a_node9"><a xlink:href="class_om_1_1_operation_1_1_define_operation.html" target="_top" xlink:title="The define operation implementation. ">
<polygon fill="none" stroke="black" points="412.02,-881 412.02,-899 571.98,-899 571.98,-881 412.02,-881"/>
<text text-anchor="middle" x="492" y="-887" font-family="Helvetica,sans-Serif" font-size="10.00">Om::Operation::DefineOperation</text>
</a>
</g>
</g>
<!-- Node8&#45;&gt;Node9 -->
<g id="edge8" class="edge"><title>Node8&#45;&gt;Node9</title>
<path fill="none" stroke="midnightblue" d="M362.174,-890C378.679,-890 395.725,-890 411.799,-890"/>
<polygon fill="midnightblue" stroke="midnightblue" points="361.98,-886.5 351.98,-890 361.98,-893.5 361.98,-886.5"/>
</g>
<!-- Node11 -->
<g id="node11" class="node"><title>Node11</title>
<g id="a_node11"><a xlink:href="class_om_1_1_operation_1_1_dequote_operation.html" target="_top" xlink:title="The dequote operation implementation. ">
<polygon fill="none" stroke="black" points="407.569,-834 407.569,-852 576.431,-852 576.431,-834 407.569,-834"/>
<text text-anchor="middle" x="492" y="-840" font-family="Helvetica,sans-Serif" font-size="10.00">Om::Operation::DequoteOperation</text>
</a>
</g>
</g>
<!-- Node10&#45;&gt;Node11 -->
<g id="edge10" class="edge"><title>Node10&#45;&gt;Node11</title>
<path fill="none" stroke="midnightblue" d="M362.262,-843C377.236,-843 392.651,-843 407.381,-843"/>
<polygon fill="midnightblue" stroke="midnightblue" points="361.98,-839.5 351.98,-843 361.98,-846.5 361.98,-839.5"/>
</g>
<!-- Node13 -->
<g id="node13" class="node"><title>Node13</title>
<g id="a_node13"><a xlink:href="class_om_1_1_operation_1_1_drop_operation.html" target="_top" xlink:title="The drop operation implementation. ">
<polygon fill="none" stroke="black" points="415.636,-787 415.636,-805 568.364,-805 568.364,-787 415.636,-787"/>
<text text-anchor="middle" x="492" y="-793" font-family="Helvetica,sans-Serif" font-size="10.00">Om::Operation::DropOperation</text>
</a>
</g>
</g>
<!-- Node12&#45;&gt;Node13 -->
<g id="edge12" class="edge"><title>Node12&#45;&gt;Node13</title>
<path fill="none" stroke="midnightblue" d="M362.324,-796C380.036,-796 398.365,-796 415.443,-796"/>
<polygon fill="midnightblue" stroke="midnightblue" points="361.98,-792.5 351.98,-796 361.98,-799.5 361.98,-792.5"/>
</g>
<!-- Node15 -->
<g id="node15" class="node"><title>Node15</title>
<g id="a_node15"><a xlink:href="class_om_1_1_operation_1_1_encode_operation.html" target="_top" xlink:title="The encode operation implementation. ">
<polygon fill="none" stroke="black" points="409.515,-740 409.515,-758 574.485,-758 574.485,-740 409.515,-740"/>
<text text-anchor="middle" x="492" y="-746" font-family="Helvetica,sans-Serif" font-size="10.00">Om::Operation::EncodeOperation</text>
</a>
</g>
</g>
<!-- Node14&#45;&gt;Node15 -->
<g id="edge14" class="edge"><title>Node14&#45;&gt;Node15</title>
<path fill="none" stroke="midnightblue" d="M362.168,-749C377.798,-749 393.912,-749 409.227,-749"/>
<polygon fill="midnightblue" stroke="midnightblue" points="361.98,-745.5 351.98,-749 361.98,-752.5 361.98,-745.5"/>
</g>
<!-- Node17 -->
<g id="node17" class="node"><title>Node17</title>
<g id="a_node17"><a xlink:href="class_om_1_1_operation_1_1_equals_operation.html" target="_top" xlink:title="The = operation implementation. ">
<polygon fill="none" stroke="black" points="411.185,-693 411.185,-711 572.815,-711 572.815,-693 411.185,-693"/>
<text text-anchor="middle" x="492" y="-699" font-family="Helvetica,sans-Serif" font-size="10.00">Om::Operation::EqualsOperation</text>
</a>
</g>
</g>
<!-- Node16&#45;&gt;Node17 -->
<g id="edge16" class="edge"><title>Node16&#45;&gt;Node17</title>
<path fill="none" stroke="midnightblue" d="M362.045,-702C378.34,-702 395.165,-702 411.065,-702"/>
<polygon fill="midnightblue" stroke="midnightblue" points="361.98,-698.5 351.98,-702 361.98,-705.5 361.98,-698.5"/>
</g>
<!-- Node19 -->
<g id="node19" class="node"><title>Node19</title>
<g id="a_node19"><a xlink:href="class_om_1_1_operation_1_1_evaluate_operation.html" target="_top" xlink:title="The define operation implementation. ">
<polygon fill="none" stroke="black" points="407.015,-646 407.015,-664 576.985,-664 576.985,-646 407.015,-646"/>
<text text-anchor="middle" x="492" y="-652" font-family="Helvetica,sans-Serif" font-size="10.00">Om::Operation::EvaluateOperation</text>
</a>
</g>
</g>
<!-- Node18&#45;&gt;Node19 -->
<g id="edge18" class="edge"><title>Node18&#45;&gt;Node19</title>
<path fill="none" stroke="midnightblue" d="M362.192,-655C377.062,-655 392.37,-655 407.011,-655"/>
<polygon fill="midnightblue" stroke="midnightblue" points="361.98,-651.5 351.98,-655 361.98,-658.5 361.98,-651.5"/>
</g>
<!-- Node21 -->
<g id="node21" class="node"><title>Node21</title>
<g id="a_node21"><a xlink:href="class_om_1_1_operation_1_1_fill_operation.html" target="_top" xlink:title="The fill operation implementation. ">
<polygon fill="none" stroke="black" points="420.086,-599 420.086,-617 563.914,-617 563.914,-599 420.086,-599"/>
<text text-anchor="middle" x="492" y="-605" font-family="Helvetica,sans-Serif" font-size="10.00">Om::Operation::FillOperation</text>
</a>
</g>
</g>
<!-- Node20&#45;&gt;Node21 -->
<g id="edge20" class="edge"><title>Node20&#45;&gt;Node21</title>
<path fill="none" stroke="midnightblue" d="M362.001,-608C381.317,-608 401.381,-608 419.767,-608"/>
<polygon fill="midnightblue" stroke="midnightblue" points="361.98,-604.5 351.98,-608 361.98,-611.5 361.98,-604.5"/>
</g>
<!-- Node23 -->
<g id="node23" class="node"><title>Node23</title>
<g id="a_node23"><a xlink:href="class_om_1_1_operation_1_1_find_operation.html" target="_top" xlink:title="The find operation implementation. ">
<polygon fill="none" stroke="black" points="416.747,-552 416.747,-570 567.253,-570 567.253,-552 416.747,-552"/>
<text text-anchor="middle" x="492" y="-558" font-family="Helvetica,sans-Serif" font-size="10.00">Om::Operation::FindOperation</text>
</a>
</g>
</g>
<!-- Node22&#45;&gt;Node23 -->
<g id="edge22" class="edge"><title>Node22&#45;&gt;Node23</title>
<path fill="none" stroke="midnightblue" d="M362.004,-561C380.191,-561 399.041,-561 416.53,-561"/>
<polygon fill="midnightblue" stroke="midnightblue" points="361.98,-557.5 351.98,-561 361.98,-564.5 361.98,-557.5"/>
</g>
<!-- Node25 -->
<g id="node25" class="node"><title>Node25</title>
<g id="a_node25"><a xlink:href="class_om_1_1_operation_1_1_front_push_operation.html" target="_top" xlink:title="An Operation that joins an Operand to the front of a Program. ">
<polygon fill="none" stroke="black" points="425.365,-490 425.365,-528 558.635,-528 558.635,-490 425.365,-490"/>
<text text-anchor="start" x="433.365" y="-516" font-family="Helvetica,sans-Serif" font-size="10.00">Om::Operation::FrontPush</text>
<text text-anchor="start" x="433.365" y="-506" font-family="Helvetica,sans-Serif" font-size="10.00">Operation&lt; ThisProgram,</text>
<text text-anchor="middle" x="492" y="-496" font-family="Helvetica,sans-Serif" font-size="10.00"> ThisImplementation &gt;</text>
</a>
</g>
</g>
<!-- Node24&#45;&gt;Node25 -->
<g id="edge24" class="edge"><title>Node24&#45;&gt;Node25</title>
<path fill="none" stroke="midnightblue" d="M374.05,-509C391.533,-509 409.214,-509 425.35,-509"/>
<polygon fill="midnightblue" stroke="midnightblue" points="373.792,-505.5 363.792,-509 373.792,-512.5 373.792,-505.5"/>
</g>
<!-- Node27 -->
<g id="node27" class="node"><title>Node27</title>
<g id="a_node27"><a xlink:href="class_om_1_1_operation_1_1_inject_operation.html" target="_top" xlink:title="The inject operation implementation. ">
<polygon fill="none" stroke="black" points="414.522,-448 414.522,-466 569.478,-466 569.478,-448 414.522,-448"/>
<text text-anchor="middle" x="492" y="-454" font-family="Helvetica,sans-Serif" font-size="10.00">Om::Operation::InjectOperation</text>
</a>
</g>
</g>
<!-- Node26&#45;&gt;Node27 -->
<g id="edge26" class="edge"><title>Node26&#45;&gt;Node27</title>
<path fill="none" stroke="midnightblue" d="M362.139,-457C379.533,-457 397.527,-457 414.354,-457"/>
<polygon fill="midnightblue" stroke="midnightblue" points="361.98,-453.5 351.98,-457 361.98,-460.5 361.98,-453.5"/>
</g>
<!-- Node29 -->
<g id="node29" class="node"><title>Node29</title>
<g id="a_node29"><a xlink:href="class_om_1_1_operation_1_1_normalize_operation.html" target="_top" xlink:title="The normalize operation implementation. ">
<polygon fill="none" stroke="black" points="425.926,-396 425.926,-424 558.074,-424 558.074,-396 425.926,-396"/>
<text text-anchor="start" x="433.926" y="-412" font-family="Helvetica,sans-Serif" font-size="10.00">Om::Operation::Normalize</text>
<text text-anchor="middle" x="492" y="-402" font-family="Helvetica,sans-Serif" font-size="10.00">Operation</text>
</a>
</g>
</g>
<!-- Node28&#45;&gt;Node29 -->
<g id="edge28" class="edge"><title>Node28&#45;&gt;Node29</title>
<path fill="none" stroke="midnightblue" d="M362.077,-410C383.501,-410 405.839,-410 425.786,-410"/>
<polygon fill="midnightblue" stroke="midnightblue" points="361.98,-406.5 351.98,-410 361.98,-413.5 361.98,-406.5"/>
</g>
<!-- Node31 -->
<g id="node31" class="node"><title>Node31</title>
<g id="a_node31"><a xlink:href="class_om_1_1_operation_1_1_pair_operation.html" target="_top" xlink:title="The pair operation implementation. ">
<polygon fill="none" stroke="black" points="417.582,-354 417.582,-372 566.418,-372 566.418,-354 417.582,-354"/>
<text text-anchor="middle" x="492" y="-360" font-family="Helvetica,sans-Serif" font-size="10.00">Om::Operation::PairOperation</text>
</a>
</g>
</g>
<!-- Node30&#45;&gt;Node31 -->
<g id="edge30" class="edge"><title>Node30&#45;&gt;Node31</title>
<path fill="none" stroke="midnightblue" d="M362.121,-363C380.523,-363 399.599,-363 417.252,-363"/>
<polygon fill="midnightblue" stroke="midnightblue" points="361.98,-359.5 351.98,-363 361.98,-366.5 361.98,-359.5"/>
</g>
<!-- Node33 -->
<g id="node33" class="node"><title>Node33</title>
<g id="a_node33"><a xlink:href="class_om_1_1_operation_1_1_program_operation.html" target="_top" xlink:title="An Operation that normalizes a Program to a specific type. ">
<polygon fill="none" stroke="black" points="407.301,-297 407.301,-325 576.699,-325 576.699,-297 407.301,-297"/>
<text text-anchor="start" x="415.301" y="-313" font-family="Helvetica,sans-Serif" font-size="10.00">Om::Operation::ProgramOperation</text>
<text text-anchor="middle" x="492" y="-303" font-family="Helvetica,sans-Serif" font-size="10.00">&lt; ThisProgram &gt;</text>
</a>
</g>
</g>
<!-- Node32&#45;&gt;Node33 -->
<g id="edge32" class="edge"><title>Node32&#45;&gt;Node33</title>
<path fill="none" stroke="midnightblue" d="M362.192,-311C377.062,-311 392.37,-311 407.011,-311"/>
<polygon fill="midnightblue" stroke="midnightblue" points="361.98,-307.5 351.98,-311 361.98,-314.5 361.98,-307.5"/>
</g>
<!-- Node35 -->
<g id="node35" class="node"><title>Node35</title>
<g id="a_node35"><a xlink:href="class_om_1_1_operation_1_1_pull_operation.html" target="_top" xlink:title="An Operation that pulls part of a Program. ">
<polygon fill="none" stroke="black" points="400.531,-240 400.531,-268 583.469,-268 583.469,-240 400.531,-240"/>
<text text-anchor="start" x="408.531" y="-256" font-family="Helvetica,sans-Serif" font-size="10.00">Om::Operation::PullOperation</text>
<text text-anchor="middle" x="492" y="-246" font-family="Helvetica,sans-Serif" font-size="10.00">&lt; ThisProgram, ThisImplementation &gt;</text>
</a>
</g>
</g>
<!-- Node34&#45;&gt;Node35 -->
<g id="edge34" class="edge"><title>Node34&#45;&gt;Node35</title>
<path fill="none" stroke="midnightblue" d="M371.014,-254C380.765,-254 390.609,-254 400.243,-254"/>
<polygon fill="midnightblue" stroke="midnightblue" points="370.898,-250.5 360.898,-254 370.898,-257.5 370.898,-250.5"/>
</g>
<!-- Node37 -->
<g id="node37" class="node"><title>Node37</title>
<g id="a_node37"><a xlink:href="class_om_1_1_operation_1_1_quote_operation.html" target="_top" xlink:title="The quote operation implementation. ">
<polygon fill="none" stroke="black" points="412.853,-193 412.853,-211 571.147,-211 571.147,-193 412.853,-193"/>
<text text-anchor="middle" x="492" y="-199" font-family="Helvetica,sans-Serif" font-size="10.00">Om::Operation::QuoteOperation</text>
</a>
</g>
</g>
<!-- Node36&#45;&gt;Node37 -->
<g id="edge36" class="edge"><title>Node36&#45;&gt;Node37</title>
<path fill="none" stroke="midnightblue" d="M362.303,-202C379.019,-202 396.285,-202 412.53,-202"/>
<polygon fill="midnightblue" stroke="midnightblue" points="361.98,-198.5 351.98,-202 361.98,-205.5 361.98,-198.5"/>
</g>
<!-- Node39 -->
<g id="node39" class="node"><title>Node39</title>
<g id="a_node39"><a xlink:href="class_om_1_1_operation_1_1_skip_operation.html" target="_top" xlink:title="The skip operation implementation. ">
<polygon fill="none" stroke="black" points="416.747,-146 416.747,-164 567.253,-164 567.253,-146 416.747,-146"/>
<text text-anchor="middle" x="492" y="-152" font-family="Helvetica,sans-Serif" font-size="10.00">Om::Operation::SkipOperation</text>
</a>
</g>
</g>
<!-- Node38&#45;&gt;Node39 -->
<g id="edge38" class="edge"><title>Node38&#45;&gt;Node39</title>
<path fill="none" stroke="midnightblue" d="M362.004,-155C380.191,-155 399.041,-155 416.53,-155"/>
<polygon fill="midnightblue" stroke="midnightblue" points="361.98,-151.5 351.98,-155 361.98,-158.5 361.98,-151.5"/>
</g>
<!-- Node41 -->
<g id="node41" class="node"><title>Node41</title>
<g id="a_node41"><a xlink:href="class_om_1_1_operation_1_1_translate_operation.html" target="_top" xlink:title="Om::Operation::Translate\lOperation\&lt; SubstituteOperation \&gt;">
<polygon fill="none" stroke="black" points="409.229,-94 409.229,-122 574.771,-122 574.771,-94 409.229,-94"/>
<text text-anchor="start" x="417.229" y="-110" font-family="Helvetica,sans-Serif" font-size="10.00">Om::Operation::Translate</text>
<text text-anchor="middle" x="492" y="-100" font-family="Helvetica,sans-Serif" font-size="10.00">Operation&lt; SubstituteOperation &gt;</text>
</a>
</g>
</g>
<!-- Node40&#45;&gt;Node41 -->
<g id="edge40" class="edge"><title>Node40&#45;&gt;Node41</title>
<path fill="none" stroke="midnightblue" d="M362.168,-108C377.798,-108 393.912,-108 409.227,-108"/>
<polygon fill="midnightblue" stroke="midnightblue" points="361.98,-104.5 351.98,-108 361.98,-111.5 361.98,-104.5"/>
</g>
<!-- Node42 -->
<g id="node42" class="node"><title>Node42</title>
<g id="a_node42"><a xlink:href="class_om_1_1_operation_1_1_substitute_operation.html" target="_top" xlink:title="The substitute operation implementation. ">
<polygon fill="none" stroke="black" points="620.195,-94 620.195,-122 751.805,-122 751.805,-94 620.195,-94"/>
<text text-anchor="start" x="628.195" y="-110" font-family="Helvetica,sans-Serif" font-size="10.00">Om::Operation::Substitute</text>
<text text-anchor="middle" x="686" y="-100" font-family="Helvetica,sans-Serif" font-size="10.00">Operation</text>
</a>
</g>
</g>
<!-- Node41&#45;&gt;Node42 -->
<g id="edge41" class="edge"><title>Node41&#45;&gt;Node42</title>
<path fill="none" stroke="midnightblue" d="M585.29,-108C597.062,-108 608.908,-108 620.119,-108"/>
<polygon fill="midnightblue" stroke="midnightblue" points="584.982,-104.5 574.982,-108 584.982,-111.5 584.982,-104.5"/>
</g>
<!-- Node44 -->
<g id="node44" class="node"><title>Node44</title>
<g id="a_node44"><a xlink:href="class_om_1_1_operation_1_1_swap_operation.html" target="_top" xlink:title="The swap operation implementation. ">
<polygon fill="none" stroke="black" points="413.966,-52 413.966,-70 570.034,-70 570.034,-52 413.966,-52"/>
<text text-anchor="middle" x="492" y="-58" font-family="Helvetica,sans-Serif" font-size="10.00">Om::Operation::SwapOperation</text>
</a>
</g>
</g>
<!-- Node43&#45;&gt;Node44 -->
<g id="edge43" class="edge"><title>Node43&#45;&gt;Node44</title>
<path fill="none" stroke="midnightblue" d="M362.015,-61C379.197,-61 396.969,-61 413.625,-61"/>
<polygon fill="midnightblue" stroke="midnightblue" points="361.98,-57.5001 351.98,-61 361.98,-64.5001 361.98,-57.5001"/>
</g>
<!-- Node46 -->
<g id="node46" class="node"><title>Node46</title>
<g id="a_node46"><a xlink:href="class_om_1_1_operation_1_1_translate_operation.html" target="_top" xlink:title="An Operation that applies each Translator to a Program. ">
<polygon fill="none" stroke="black" points="409.881,-0 409.881,-28 574.119,-28 574.119,-0 409.881,-0"/>
<text text-anchor="start" x="417.881" y="-16" font-family="Helvetica,sans-Serif" font-size="10.00">Om::Operation::Translate</text>
<text text-anchor="middle" x="492" y="-6" font-family="Helvetica,sans-Serif" font-size="10.00">Operation&lt; ThisImplementation &gt;</text>
</a>
</g>
</g>
<!-- Node45&#45;&gt;Node46 -->
<g id="edge45" class="edge"><title>Node45&#45;&gt;Node46</title>
<path fill="none" stroke="midnightblue" d="M362.236,-14C377.97,-14 394.193,-14 409.595,-14"/>
<polygon fill="midnightblue" stroke="midnightblue" points="361.98,-10.5001 351.98,-14 361.98,-17.5001 361.98,-10.5001"/>
</g>
</g>
</svg>
