<?xml version="1.0" encoding="UTF-8" standalone="no"?>
<!DOCTYPE svg PUBLIC "-//W3C//DTD SVG 1.1//EN"
 "http://www.w3.org/Graphics/SVG/1.1/DTD/svg11.dtd">
<!-- Generated by graphviz version 2.28.0 (20120817.0054)
 -->
<!-- Title: Graphical Class Hierarchy Pages: 1 -->
<svg width="680pt" height="1042pt"
 viewBox="0.00 0.00 680.00 1042.00" xmlns="http://www.w3.org/2000/svg" xmlns:xlink="http://www.w3.org/1999/xlink">
<g id="graph1" class="graph" transform="scale(1 1) rotate(0) translate(4 1038)">
<title>Graphical Class Hierarchy</title>
<!-- Node1 -->
<g id="node1" class="node"><title>Node1</title>
<a xlink:href="struct_om_1_1_operation.html" target="_top" xlink:title="An Operation that has yet to consume one or more Operands, and therefore must live in memory while &quot;i...">
<polygon fill="none" stroke="black" points="0.5,-519.5 0.5,-538.5 79.5,-538.5 79.5,-519.5 0.5,-519.5"/>
<text text-anchor="middle" x="40" y="-526.5" font-family="Helvetica,sans-Serif" font-size="10.00">Om::Operation</text>
</a>
</g>
<!-- Node2 -->
<g id="node3" class="node"><title>Node2</title>
<a xlink:href="struct_om_1_1_default_operation.html" target="_top" xlink:title="Om::DefaultOperation\l\&lt; ChooseOperation \&gt;">
<polygon fill="none" stroke="black" points="151.5,-1004 151.5,-1034 260.5,-1034 260.5,-1004 151.5,-1004"/>
<text text-anchor="start" x="159.5" y="-1022" font-family="Helvetica,sans-Serif" font-size="10.00">Om::DefaultOperation</text>
<text text-anchor="middle" x="206" y="-1011" font-family="Helvetica,sans-Serif" font-size="10.00">&lt; ChooseOperation &gt;</text>
</a>
</g>
<!-- Node1&#45;&gt;Node2 -->
<g id="edge2" class="edge"><title>Node1&#45;&gt;Node2</title>
<path fill="none" stroke="midnightblue" d="M41.4456,-548.782C43.6444,-628.683 55.8141,-926.535 116,-994 125.081,-1004.18 137.944,-1010.36 151.076,-1014.06"/>
<polygon fill="midnightblue" stroke="midnightblue" points="44.9406,-548.536 41.189,-538.628 37.9428,-548.713 44.9406,-548.536"/>
</g>
<!-- Node4 -->
<g id="node7" class="node"><title>Node4</title>
<a xlink:href="struct_om_1_1_default_operation.html" target="_top" xlink:title="Om::DefaultOperation\l\&lt; CopyOperation \&gt;">
<polygon fill="none" stroke="black" points="151.5,-955 151.5,-985 260.5,-985 260.5,-955 151.5,-955"/>
<text text-anchor="start" x="159.5" y="-973" font-family="Helvetica,sans-Serif" font-size="10.00">Om::DefaultOperation</text>
<text text-anchor="middle" x="206" y="-962" font-family="Helvetica,sans-Serif" font-size="10.00">&lt; CopyOperation &gt;</text>
</a>
</g>
<!-- Node1&#45;&gt;Node4 -->
<g id="edge6" class="edge"><title>Node1&#45;&gt;Node4</title>
<path fill="none" stroke="midnightblue" d="M41.8705,-549.041C45.5212,-623.861 62.0048,-885.587 116,-945 125.175,-955.096 138.069,-961.243 151.201,-964.952"/>
<polygon fill="midnightblue" stroke="midnightblue" points="45.3504,-548.524 41.391,-538.697 38.3579,-548.849 45.3504,-548.524"/>
</g>
<!-- Node6 -->
<g id="node11" class="node"><title>Node6</title>
<a xlink:href="struct_om_1_1_default_operation.html" target="_top" xlink:title="Om::DefaultOperation\l\&lt; DecodeOperation \&gt;">
<polygon fill="none" stroke="black" points="151.5,-906 151.5,-936 260.5,-936 260.5,-906 151.5,-906"/>
<text text-anchor="start" x="159.5" y="-924" font-family="Helvetica,sans-Serif" font-size="10.00">Om::DefaultOperation</text>
<text text-anchor="middle" x="206" y="-913" font-family="Helvetica,sans-Serif" font-size="10.00">&lt; DecodeOperation &gt;</text>
</a>
</g>
<!-- Node1&#45;&gt;Node6 -->
<g id="edge10" class="edge"><title>Node1&#45;&gt;Node6</title>
<path fill="none" stroke="midnightblue" d="M42.3828,-548.857C47.567,-617.66 68.0573,-844.462 116,-896 125.292,-905.988 138.225,-912.1 151.357,-915.808"/>
<polygon fill="midnightblue" stroke="midnightblue" points="45.8507,-548.286 41.6344,-538.567 38.8691,-548.794 45.8507,-548.286"/>
</g>
<!-- Node8 -->
<g id="node15" class="node"><title>Node8</title>
<a xlink:href="struct_om_1_1_default_operation.html" target="_top" xlink:title="Om::DefaultOperation\l\&lt; DefineOperation \&gt;">
<polygon fill="none" stroke="black" points="151.5,-857 151.5,-887 260.5,-887 260.5,-857 151.5,-857"/>
<text text-anchor="start" x="159.5" y="-875" font-family="Helvetica,sans-Serif" font-size="10.00">Om::DefaultOperation</text>
<text text-anchor="middle" x="206" y="-864" font-family="Helvetica,sans-Serif" font-size="10.00">&lt; DefineOperation &gt;</text>
</a>
</g>
<!-- Node1&#45;&gt;Node8 -->
<g id="edge14" class="edge"><title>Node1&#45;&gt;Node8</title>
<path fill="none" stroke="midnightblue" d="M43.031,-548.594C49.877,-610.95 74.0577,-803.248 116,-847 125.329,-856.732 138.119,-862.769 151.093,-866.488"/>
<polygon fill="midnightblue" stroke="midnightblue" points="46.4982,-548.099 41.9541,-538.529 39.5379,-548.844 46.4982,-548.099"/>
</g>
<!-- Node10 -->
<g id="node19" class="node"><title>Node10</title>
<a xlink:href="struct_om_1_1_default_operation.html" target="_top" xlink:title="Om::DefaultOperation\l\&lt; DequoteOperation \&gt;">
<polygon fill="none" stroke="black" points="150.5,-808 150.5,-838 261.5,-838 261.5,-808 150.5,-808"/>
<text text-anchor="start" x="158.5" y="-826" font-family="Helvetica,sans-Serif" font-size="10.00">Om::DefaultOperation</text>
<text text-anchor="middle" x="206" y="-815" font-family="Helvetica,sans-Serif" font-size="10.00">&lt; DequoteOperation &gt;</text>
</a>
</g>
<!-- Node1&#45;&gt;Node10 -->
<g id="edge18" class="edge"><title>Node1&#45;&gt;Node10</title>
<path fill="none" stroke="midnightblue" d="M40.3788,-549.024C39.9822,-598.573 46.0856,-727.95 116,-798 125.297,-807.315 137.769,-813.227 150.429,-816.962"/>
<polygon fill="midnightblue" stroke="midnightblue" points="43.8839,-548.782 40.57,-538.719 36.8851,-548.652 43.8839,-548.782"/>
</g>
<!-- Node12 -->
<g id="node23" class="node"><title>Node12</title>
<a xlink:href="struct_om_1_1_default_operation.html" target="_top" xlink:title="Om::DefaultOperation\l\&lt; DropOperation \&gt;">
<polygon fill="none" stroke="black" points="151.5,-759 151.5,-789 260.5,-789 260.5,-759 151.5,-759"/>
<text text-anchor="start" x="159.5" y="-777" font-family="Helvetica,sans-Serif" font-size="10.00">Om::DefaultOperation</text>
<text text-anchor="middle" x="206" y="-766" font-family="Helvetica,sans-Serif" font-size="10.00">&lt; DropOperation &gt;</text>
</a>
</g>
<!-- Node1&#45;&gt;Node12 -->
<g id="edge22" class="edge"><title>Node1&#45;&gt;Node12</title>
<path fill="none" stroke="midnightblue" d="M41.8357,-548.797C44.7416,-591.708 57.7516,-693.854 116,-749 125.673,-758.158 138.43,-764.006 151.253,-767.727"/>
<polygon fill="midnightblue" stroke="midnightblue" points="45.3168,-548.359 41.2642,-538.57 38.3277,-548.75 45.3168,-548.359"/>
</g>
<!-- Node14 -->
<g id="node27" class="node"><title>Node14</title>
<a xlink:href="struct_om_1_1_default_operation.html" target="_top" xlink:title="Om::DefaultOperation\l\&lt; EncodeOperation \&gt;">
<polygon fill="none" stroke="black" points="151.5,-710 151.5,-740 260.5,-740 260.5,-710 151.5,-710"/>
<text text-anchor="start" x="159.5" y="-728" font-family="Helvetica,sans-Serif" font-size="10.00">Om::DefaultOperation</text>
<text text-anchor="middle" x="206" y="-717" font-family="Helvetica,sans-Serif" font-size="10.00">&lt; EncodeOperation &gt;</text>
</a>
</g>
<!-- Node1&#45;&gt;Node14 -->
<g id="edge26" class="edge"><title>Node1&#45;&gt;Node14</title>
<path fill="none" stroke="midnightblue" d="M44.0751,-548.957C50.6415,-584.659 69.4214,-659.504 116,-700 125.932,-708.635 138.632,-714.303 151.309,-718.019"/>
<polygon fill="midnightblue" stroke="midnightblue" points="47.4806,-548.105 42.3526,-538.834 40.5798,-549.279 47.4806,-548.105"/>
</g>
<!-- Node16 -->
<g id="node31" class="node"><title>Node16</title>
<a xlink:href="struct_om_1_1_default_operation.html" target="_top" xlink:title="Om::DefaultOperation\l\&lt; EqualsOperation \&gt;">
<polygon fill="none" stroke="black" points="151.5,-661 151.5,-691 260.5,-691 260.5,-661 151.5,-661"/>
<text text-anchor="start" x="159.5" y="-679" font-family="Helvetica,sans-Serif" font-size="10.00">Om::DefaultOperation</text>
<text text-anchor="middle" x="206" y="-668" font-family="Helvetica,sans-Serif" font-size="10.00">&lt; EqualsOperation &gt;</text>
</a>
</g>
<!-- Node1&#45;&gt;Node16 -->
<g id="edge30" class="edge"><title>Node1&#45;&gt;Node16</title>
<path fill="none" stroke="midnightblue" d="M47.5977,-548.098C57.913,-575.106 80.4408,-624.151 116,-651 126.247,-658.737 138.781,-664.079 151.172,-667.769"/>
<polygon fill="midnightblue" stroke="midnightblue" points="50.8513,-546.804 44.1335,-538.612 44.276,-549.206 50.8513,-546.804"/>
</g>
<!-- Node18 -->
<g id="node35" class="node"><title>Node18</title>
<a xlink:href="struct_om_1_1_default_operation.html" target="_top" xlink:title="Om::DefaultOperation\l\&lt; EvaluateOperation \&gt;">
<polygon fill="none" stroke="black" points="149.5,-612 149.5,-642 262.5,-642 262.5,-612 149.5,-612"/>
<text text-anchor="start" x="157.5" y="-630" font-family="Helvetica,sans-Serif" font-size="10.00">Om::DefaultOperation</text>
<text text-anchor="middle" x="206" y="-619" font-family="Helvetica,sans-Serif" font-size="10.00">&lt; EvaluateOperation &gt;</text>
</a>
</g>
<!-- Node1&#45;&gt;Node18 -->
<g id="edge34" class="edge"><title>Node1&#45;&gt;Node18</title>
<path fill="none" stroke="midnightblue" d="M54.5206,-546.477C68.2748,-563.096 91.0651,-587.628 116,-602 126.151,-607.851 137.749,-612.397 149.145,-615.908"/>
<polygon fill="midnightblue" stroke="midnightblue" points="57.1829,-544.203 48.1882,-538.604 51.7282,-548.59 57.1829,-544.203"/>
</g>
<!-- Node20 -->
<g id="node39" class="node"><title>Node20</title>
<a xlink:href="struct_om_1_1_default_operation.html" target="_top" xlink:title="Om::DefaultOperation\l\&lt; FillOperation \&gt;">
<polygon fill="none" stroke="black" points="151.5,-563 151.5,-593 260.5,-593 260.5,-563 151.5,-563"/>
<text text-anchor="start" x="159.5" y="-581" font-family="Helvetica,sans-Serif" font-size="10.00">Om::DefaultOperation</text>
<text text-anchor="middle" x="206" y="-570" font-family="Helvetica,sans-Serif" font-size="10.00">&lt; FillOperation &gt;</text>
</a>
</g>
<!-- Node1&#45;&gt;Node20 -->
<g id="edge38" class="edge"><title>Node1&#45;&gt;Node20</title>
<path fill="none" stroke="midnightblue" d="M79.9528,-541.757C91.5276,-545.469 104.253,-549.472 116,-553 127.375,-556.416 139.61,-559.946 151.258,-563.239"/>
<polygon fill="midnightblue" stroke="midnightblue" points="80.7223,-538.328 70.1307,-538.59 78.5738,-544.99 80.7223,-538.328"/>
</g>
<!-- Node22 -->
<g id="node43" class="node"><title>Node22</title>
<a xlink:href="struct_om_1_1_default_operation.html" target="_top" xlink:title="Om::DefaultOperation\l\&lt; FindOperation \&gt;">
<polygon fill="none" stroke="black" points="151.5,-514 151.5,-544 260.5,-544 260.5,-514 151.5,-514"/>
<text text-anchor="start" x="159.5" y="-532" font-family="Helvetica,sans-Serif" font-size="10.00">Om::DefaultOperation</text>
<text text-anchor="middle" x="206" y="-521" font-family="Helvetica,sans-Serif" font-size="10.00">&lt; FindOperation &gt;</text>
</a>
</g>
<!-- Node1&#45;&gt;Node22 -->
<g id="edge42" class="edge"><title>Node1&#45;&gt;Node22</title>
<path fill="none" stroke="midnightblue" d="M89.953,-529C109.247,-529 131.472,-529 151.213,-529"/>
<polygon fill="midnightblue" stroke="midnightblue" points="89.8657,-525.5 79.8657,-529 89.8657,-532.5 89.8657,-525.5"/>
</g>
<!-- Node24 -->
<g id="node47" class="node"><title>Node24</title>
<a xlink:href="struct_om_1_1_default_operation.html" target="_top" xlink:title="Om::DefaultOperation\l\&lt; FrontPushOperation\l\&lt; ThisProgram, ThisImplementation \&gt; \&gt;">
<polygon fill="none" stroke="black" points="116.5,-453.5 116.5,-494.5 295.5,-494.5 295.5,-453.5 116.5,-453.5"/>
<text text-anchor="start" x="124.5" y="-482.5" font-family="Helvetica,sans-Serif" font-size="10.00">Om::DefaultOperation</text>
<text text-anchor="start" x="124.5" y="-471.5" font-family="Helvetica,sans-Serif" font-size="10.00">&lt; FrontPushOperation</text>
<text text-anchor="middle" x="206" y="-460.5" font-family="Helvetica,sans-Serif" font-size="10.00">&lt; ThisProgram, ThisImplementation &gt; &gt;</text>
</a>
</g>
<!-- Node1&#45;&gt;Node24 -->
<g id="edge46" class="edge"><title>Node1&#45;&gt;Node24</title>
<path fill="none" stroke="midnightblue" d="M79.1647,-516.201C98.3789,-509.757 122.141,-501.788 143.823,-494.517"/>
<polygon fill="midnightblue" stroke="midnightblue" points="77.9348,-512.922 69.5666,-519.42 80.1606,-519.558 77.9348,-512.922"/>
</g>
<!-- Node26 -->
<g id="node51" class="node"><title>Node26</title>
<a xlink:href="struct_om_1_1_default_operation.html" target="_top" xlink:title="Om::DefaultOperation\l\&lt; InjectOperation \&gt;">
<polygon fill="none" stroke="black" points="151.5,-404 151.5,-434 260.5,-434 260.5,-404 151.5,-404"/>
<text text-anchor="start" x="159.5" y="-422" font-family="Helvetica,sans-Serif" font-size="10.00">Om::DefaultOperation</text>
<text text-anchor="middle" x="206" y="-411" font-family="Helvetica,sans-Serif" font-size="10.00">&lt; InjectOperation &gt;</text>
</a>
</g>
<!-- Node1&#45;&gt;Node26 -->
<g id="edge50" class="edge"><title>Node1&#45;&gt;Node26</title>
<path fill="none" stroke="midnightblue" d="M52.2693,-510.962C65.2941,-491.59 88.502,-461.272 116,-444 126.601,-437.342 139.004,-432.42 151.127,-428.794"/>
<polygon fill="midnightblue" stroke="midnightblue" points="49.2419,-509.197 46.7192,-519.487 55.1083,-513.016 49.2419,-509.197"/>
</g>
<!-- Node28 -->
<g id="node55" class="node"><title>Node28</title>
<a xlink:href="struct_om_1_1_default_operation.html" target="_top" xlink:title="Om::DefaultOperation\l\&lt; NormalizeOperation \&gt;">
<polygon fill="none" stroke="black" points="148,-355 148,-385 264,-385 264,-355 148,-355"/>
<text text-anchor="start" x="156" y="-373" font-family="Helvetica,sans-Serif" font-size="10.00">Om::DefaultOperation</text>
<text text-anchor="middle" x="206" y="-362" font-family="Helvetica,sans-Serif" font-size="10.00">&lt; NormalizeOperation &gt;</text>
</a>
</g>
<!-- Node1&#45;&gt;Node28 -->
<g id="edge54" class="edge"><title>Node1&#45;&gt;Node28</title>
<path fill="none" stroke="midnightblue" d="M46.4392,-509.538C55.7098,-480.015 77.4169,-424.164 116,-394 125.204,-386.805 136.395,-381.761 147.693,-378.228"/>
<polygon fill="midnightblue" stroke="midnightblue" points="42.9856,-508.872 43.4859,-519.455 49.6944,-510.87 42.9856,-508.872"/>
</g>
<!-- Node30 -->
<g id="node59" class="node"><title>Node30</title>
<a xlink:href="struct_om_1_1_default_operation.html" target="_top" xlink:title="Om::DefaultOperation\l\&lt; ProgramOperation\&lt; ThisProgram \&gt; \&gt;">
<polygon fill="none" stroke="black" points="116.5,-306 116.5,-336 295.5,-336 295.5,-306 116.5,-306"/>
<text text-anchor="start" x="124.5" y="-324" font-family="Helvetica,sans-Serif" font-size="10.00">Om::DefaultOperation</text>
<text text-anchor="middle" x="206" y="-313" font-family="Helvetica,sans-Serif" font-size="10.00">&lt; ProgramOperation&lt; ThisProgram &gt; &gt;</text>
</a>
</g>
<!-- Node1&#45;&gt;Node30 -->
<g id="edge58" class="edge"><title>Node1&#45;&gt;Node30</title>
<path fill="none" stroke="midnightblue" d="M43.3227,-509.081C48.8079,-471.303 66.0956,-389.086 116,-345 119.838,-341.61 124.107,-338.692 128.64,-336.181"/>
<polygon fill="midnightblue" stroke="midnightblue" points="39.8143,-508.916 41.9763,-519.288 46.7542,-509.831 39.8143,-508.916"/>
</g>
<!-- Node32 -->
<g id="node63" class="node"><title>Node32</title>
<a xlink:href="struct_om_1_1_default_operation.html" target="_top" xlink:title="Om::DefaultOperation\l\&lt; PullOperation\&lt; ThisProgram,\l ThisImplementation \&gt; \&gt;">
<polygon fill="none" stroke="black" points="133.5,-245.5 133.5,-286.5 278.5,-286.5 278.5,-245.5 133.5,-245.5"/>
<text text-anchor="start" x="141.5" y="-274.5" font-family="Helvetica,sans-Serif" font-size="10.00">Om::DefaultOperation</text>
<text text-anchor="start" x="141.5" y="-263.5" font-family="Helvetica,sans-Serif" font-size="10.00">&lt; PullOperation&lt; ThisProgram,</text>
<text text-anchor="middle" x="206" y="-252.5" font-family="Helvetica,sans-Serif" font-size="10.00"> ThisImplementation &gt; &gt;</text>
</a>
</g>
<!-- Node1&#45;&gt;Node32 -->
<g id="edge62" class="edge"><title>Node1&#45;&gt;Node32</title>
<path fill="none" stroke="midnightblue" d="M41.6085,-509.476C44.0458,-465.272 56.1536,-356.672 116,-296 121.038,-290.892 126.974,-286.654 133.349,-283.137"/>
<polygon fill="midnightblue" stroke="midnightblue" points="38.1113,-509.337 41.1667,-519.482 45.1045,-509.646 38.1113,-509.337"/>
</g>
<!-- Node34 -->
<g id="node67" class="node"><title>Node34</title>
<a xlink:href="struct_om_1_1_default_operation.html" target="_top" xlink:title="Om::DefaultOperation\l\&lt; QuoteOperation \&gt;">
<polygon fill="none" stroke="black" points="151.5,-196 151.5,-226 260.5,-226 260.5,-196 151.5,-196"/>
<text text-anchor="start" x="159.5" y="-214" font-family="Helvetica,sans-Serif" font-size="10.00">Om::DefaultOperation</text>
<text text-anchor="middle" x="206" y="-203" font-family="Helvetica,sans-Serif" font-size="10.00">&lt; QuoteOperation &gt;</text>
</a>
</g>
<!-- Node1&#45;&gt;Node34 -->
<g id="edge66" class="edge"><title>Node1&#45;&gt;Node34</title>
<path fill="none" stroke="midnightblue" d="M43.5036,-509.039C51.3403,-449.644 77.2125,-275.7 116,-236 125.421,-226.357 138.242,-220.351 151.217,-216.632"/>
<polygon fill="midnightblue" stroke="midnightblue" points="39.986,-508.952 42.1783,-519.317 46.9285,-509.847 39.986,-508.952"/>
</g>
<!-- Node36 -->
<g id="node71" class="node"><title>Node36</title>
<a xlink:href="struct_om_1_1_default_operation.html" target="_top" xlink:title="Om::DefaultOperation\l\&lt; SkipOperation \&gt;">
<polygon fill="none" stroke="black" points="151.5,-147 151.5,-177 260.5,-177 260.5,-147 151.5,-147"/>
<text text-anchor="start" x="159.5" y="-165" font-family="Helvetica,sans-Serif" font-size="10.00">Om::DefaultOperation</text>
<text text-anchor="middle" x="206" y="-154" font-family="Helvetica,sans-Serif" font-size="10.00">&lt; SkipOperation &gt;</text>
</a>
</g>
<!-- Node1&#45;&gt;Node36 -->
<g id="edge70" class="edge"><title>Node1&#45;&gt;Node36</title>
<path fill="none" stroke="midnightblue" d="M42.6693,-509.153C48.6018,-443.293 70.7755,-233.455 116,-186 125.384,-176.153 138.349,-170.199 151.481,-166.638"/>
<polygon fill="midnightblue" stroke="midnightblue" points="39.1584,-509.126 41.7749,-519.393 46.1319,-509.736 39.1584,-509.126"/>
</g>
<!-- Node38 -->
<g id="node75" class="node"><title>Node38</title>
<a xlink:href="struct_om_1_1_default_operation.html" target="_top" xlink:title="Om::DefaultOperation\l\&lt; SubstituteOperation \&gt;">
<polygon fill="none" stroke="black" points="147.5,-98 147.5,-128 264.5,-128 264.5,-98 147.5,-98"/>
<text text-anchor="start" x="155.5" y="-116" font-family="Helvetica,sans-Serif" font-size="10.00">Om::DefaultOperation</text>
<text text-anchor="middle" x="206" y="-105" font-family="Helvetica,sans-Serif" font-size="10.00">&lt; SubstituteOperation &gt;</text>
</a>
</g>
<!-- Node1&#45;&gt;Node38 -->
<g id="edge74" class="edge"><title>Node1&#45;&gt;Node38</title>
<path fill="none" stroke="midnightblue" d="M42.0781,-509.184C46.3804,-437.405 64.6473,-192.32 116,-137 124.275,-128.086 135.48,-122.35 147.147,-118.689"/>
<polygon fill="midnightblue" stroke="midnightblue" points="38.565,-509.314 41.4862,-519.498 45.5535,-509.715 38.565,-509.314"/>
</g>
<!-- Node41 -->
<g id="node81" class="node"><title>Node41</title>
<a xlink:href="struct_om_1_1_default_operation.html" target="_top" xlink:title="Om::DefaultOperation\l\&lt; SwapOperation \&gt;">
<polygon fill="none" stroke="black" points="151.5,-49 151.5,-79 260.5,-79 260.5,-49 151.5,-49"/>
<text text-anchor="start" x="159.5" y="-67" font-family="Helvetica,sans-Serif" font-size="10.00">Om::DefaultOperation</text>
<text text-anchor="middle" x="206" y="-56" font-family="Helvetica,sans-Serif" font-size="10.00">&lt; SwapOperation &gt;</text>
</a>
</g>
<!-- Node1&#45;&gt;Node41 -->
<g id="edge80" class="edge"><title>Node1&#45;&gt;Node41</title>
<path fill="none" stroke="midnightblue" d="M41.6152,-509.247C44.4214,-431.966 58.4765,-151.262 116,-88 125.151,-77.9358 138.037,-71.9089 151.169,-68.3479"/>
<polygon fill="midnightblue" stroke="midnightblue" points="38.1091,-509.37 41.2676,-519.483 45.105,-509.608 38.1091,-509.37"/>
</g>
<!-- Node43 -->
<g id="node85" class="node"><title>Node43</title>
<a xlink:href="struct_om_1_1_default_operation.html" target="_top" xlink:title="A partial implementation of Operation.">
<polygon fill="none" stroke="black" points="149.5,-0 149.5,-30 262.5,-30 262.5,-0 149.5,-0"/>
<text text-anchor="start" x="157.5" y="-18" font-family="Helvetica,sans-Serif" font-size="10.00">Om::DefaultOperation</text>
<text text-anchor="middle" x="206" y="-7" font-family="Helvetica,sans-Serif" font-size="10.00">&lt; ThisImplementation &gt;</text>
</a>
</g>
<!-- Node1&#45;&gt;Node43 -->
<g id="edge84" class="edge"><title>Node1&#45;&gt;Node43</title>
<path fill="none" stroke="midnightblue" d="M41.2466,-509.197C42.6796,-426.56 52.3057,-110.225 116,-39 124.641,-29.3374 136.724,-23.3867 149.206,-19.7664"/>
<polygon fill="midnightblue" stroke="midnightblue" points="37.7462,-509.204 41.094,-519.256 44.7454,-509.31 37.7462,-509.204"/>
</g>
<!-- Node3 -->
<g id="node5" class="node"><title>Node3</title>
<a xlink:href="struct_om_1_1_operations_1_1_choose_operation.html" target="_top" xlink:title="The choose Operation implementation.">
<polygon fill="none" stroke="black" points="336,-1009.5 336,-1028.5 500,-1028.5 500,-1009.5 336,-1009.5"/>
<text text-anchor="middle" x="418" y="-1016.5" font-family="Helvetica,sans-Serif" font-size="10.00">Om::Operations::ChooseOperation</text>
</a>
</g>
<!-- Node2&#45;&gt;Node3 -->
<g id="edge4" class="edge"><title>Node2&#45;&gt;Node3</title>
<path fill="none" stroke="midnightblue" d="M270.693,-1019C291.193,-1019 314.191,-1019 335.776,-1019"/>
<polygon fill="midnightblue" stroke="midnightblue" points="270.535,-1015.5 260.535,-1019 270.535,-1022.5 270.535,-1015.5"/>
</g>
<!-- Node5 -->
<g id="node9" class="node"><title>Node5</title>
<a xlink:href="struct_om_1_1_operations_1_1_copy_operation.html" target="_top" xlink:title="The copy Operation implementation.">
<polygon fill="none" stroke="black" points="340.5,-960.5 340.5,-979.5 495.5,-979.5 495.5,-960.5 340.5,-960.5"/>
<text text-anchor="middle" x="418" y="-967.5" font-family="Helvetica,sans-Serif" font-size="10.00">Om::Operations::CopyOperation</text>
</a>
</g>
<!-- Node4&#45;&gt;Node5 -->
<g id="edge8" class="edge"><title>Node4&#45;&gt;Node5</title>
<path fill="none" stroke="midnightblue" d="M270.706,-970C292.605,-970 317.354,-970 340.183,-970"/>
<polygon fill="midnightblue" stroke="midnightblue" points="270.535,-966.5 260.535,-970 270.535,-973.5 270.535,-966.5"/>
</g>
<!-- Node7 -->
<g id="node13" class="node"><title>Node7</title>
<a xlink:href="struct_om_1_1_operations_1_1_decode_operation.html" target="_top" xlink:title="The decode Operation implementation.">
<polygon fill="none" stroke="black" points="336,-911.5 336,-930.5 500,-930.5 500,-911.5 336,-911.5"/>
<text text-anchor="middle" x="418" y="-918.5" font-family="Helvetica,sans-Serif" font-size="10.00">Om::Operations::DecodeOperation</text>
</a>
</g>
<!-- Node6&#45;&gt;Node7 -->
<g id="edge12" class="edge"><title>Node6&#45;&gt;Node7</title>
<path fill="none" stroke="midnightblue" d="M270.693,-921C291.193,-921 314.191,-921 335.776,-921"/>
<polygon fill="midnightblue" stroke="midnightblue" points="270.535,-917.5 260.535,-921 270.535,-924.5 270.535,-917.5"/>
</g>
<!-- Node9 -->
<g id="node17" class="node"><title>Node9</title>
<a xlink:href="struct_om_1_1_operations_1_1_define_operation.html" target="_top" xlink:title="The define Operation implementation.">
<polygon fill="none" stroke="black" points="339,-862.5 339,-881.5 497,-881.5 497,-862.5 339,-862.5"/>
<text text-anchor="middle" x="418" y="-869.5" font-family="Helvetica,sans-Serif" font-size="10.00">Om::Operations::DefineOperation</text>
</a>
</g>
<!-- Node8&#45;&gt;Node9 -->
<g id="edge16" class="edge"><title>Node8&#45;&gt;Node9</title>
<path fill="none" stroke="midnightblue" d="M270.549,-872C292.104,-872 316.436,-872 338.986,-872"/>
<polygon fill="midnightblue" stroke="midnightblue" points="270.535,-868.5 260.535,-872 270.535,-875.5 270.535,-868.5"/>
</g>
<!-- Node11 -->
<g id="node21" class="node"><title>Node11</title>
<a xlink:href="struct_om_1_1_operations_1_1_dequote_operation.html" target="_top" xlink:title="The dequote Operation implementation.">
<polygon fill="none" stroke="black" points="334.5,-813.5 334.5,-832.5 501.5,-832.5 501.5,-813.5 334.5,-813.5"/>
<text text-anchor="middle" x="418" y="-820.5" font-family="Helvetica,sans-Serif" font-size="10.00">Om::Operations::DequoteOperation</text>
</a>
</g>
<!-- Node10&#45;&gt;Node11 -->
<g id="edge20" class="edge"><title>Node10&#45;&gt;Node11</title>
<path fill="none" stroke="midnightblue" d="M271.716,-823C291.435,-823 313.387,-823 334.132,-823"/>
<polygon fill="midnightblue" stroke="midnightblue" points="271.627,-819.5 261.627,-823 271.627,-826.5 271.627,-819.5"/>
</g>
<!-- Node13 -->
<g id="node25" class="node"><title>Node13</title>
<a xlink:href="struct_om_1_1_operations_1_1_drop_operation.html" target="_top" xlink:title="The drop Operation implementation.">
<polygon fill="none" stroke="black" points="342,-764.5 342,-783.5 494,-783.5 494,-764.5 342,-764.5"/>
<text text-anchor="middle" x="418" y="-771.5" font-family="Helvetica,sans-Serif" font-size="10.00">Om::Operations::DropOperation</text>
</a>
</g>
<!-- Node12&#45;&gt;Node13 -->
<g id="edge24" class="edge"><title>Node12&#45;&gt;Node13</title>
<path fill="none" stroke="midnightblue" d="M270.612,-774C293.044,-774 318.475,-774 341.775,-774"/>
<polygon fill="midnightblue" stroke="midnightblue" points="270.535,-770.5 260.535,-774 270.535,-777.5 270.535,-770.5"/>
</g>
<!-- Node15 -->
<g id="node29" class="node"><title>Node15</title>
<a xlink:href="struct_om_1_1_operations_1_1_encode_operation.html" target="_top" xlink:title="The encode Operation implementation.">
<polygon fill="none" stroke="black" points="336.5,-715.5 336.5,-734.5 499.5,-734.5 499.5,-715.5 336.5,-715.5"/>
<text text-anchor="middle" x="418" y="-722.5" font-family="Helvetica,sans-Serif" font-size="10.00">Om::Operations::EncodeOperation</text>
</a>
</g>
<!-- Node14&#45;&gt;Node15 -->
<g id="edge28" class="edge"><title>Node14&#45;&gt;Node15</title>
<path fill="none" stroke="midnightblue" d="M270.748,-725C291.361,-725 314.497,-725 336.178,-725"/>
<polygon fill="midnightblue" stroke="midnightblue" points="270.535,-721.5 260.535,-725 270.535,-728.5 270.535,-721.5"/>
</g>
<!-- Node17 -->
<g id="node33" class="node"><title>Node17</title>
<a xlink:href="struct_om_1_1_operations_1_1_equals_operation.html" target="_top" xlink:title="The = Operation implementation.">
<polygon fill="none" stroke="black" points="337.5,-666.5 337.5,-685.5 498.5,-685.5 498.5,-666.5 337.5,-666.5"/>
<text text-anchor="middle" x="418" y="-673.5" font-family="Helvetica,sans-Serif" font-size="10.00">Om::Operations::EqualsOperation</text>
</a>
</g>
<!-- Node16&#45;&gt;Node17 -->
<g id="edge32" class="edge"><title>Node16&#45;&gt;Node17</title>
<path fill="none" stroke="midnightblue" d="M270.627,-676C291.653,-676 315.314,-676 337.383,-676"/>
<polygon fill="midnightblue" stroke="midnightblue" points="270.535,-672.5 260.535,-676 270.535,-679.5 270.535,-672.5"/>
</g>
<!-- Node19 -->
<g id="node37" class="node"><title>Node19</title>
<a xlink:href="struct_om_1_1_operations_1_1_evaluate_operation.html" target="_top" xlink:title="The define Operation implementation.">
<polygon fill="none" stroke="black" points="354.5,-612 354.5,-642 481.5,-642 481.5,-612 354.5,-612"/>
<text text-anchor="start" x="362.5" y="-630" font-family="Helvetica,sans-Serif" font-size="10.00">Om::Operations::Evaluate</text>
<text text-anchor="middle" x="418" y="-619" font-family="Helvetica,sans-Serif" font-size="10.00">Operation</text>
</a>
</g>
<!-- Node18&#45;&gt;Node19 -->
<g id="edge36" class="edge"><title>Node18&#45;&gt;Node19</title>
<path fill="none" stroke="midnightblue" d="M272.87,-627C298.887,-627 328.645,-627 354.34,-627"/>
<polygon fill="midnightblue" stroke="midnightblue" points="272.725,-623.5 262.725,-627 272.725,-630.5 272.725,-623.5"/>
</g>
<!-- Node21 -->
<g id="node41" class="node"><title>Node21</title>
<a xlink:href="struct_om_1_1_operations_1_1_fill_operation.html" target="_top" xlink:title="The fill Operation implementation.">
<polygon fill="none" stroke="black" points="348,-568.5 348,-587.5 488,-587.5 488,-568.5 348,-568.5"/>
<text text-anchor="middle" x="418" y="-575.5" font-family="Helvetica,sans-Serif" font-size="10.00">Om::Operations::FillOperation</text>
</a>
</g>
<!-- Node20&#45;&gt;Node21 -->
<g id="edge40" class="edge"><title>Node20&#45;&gt;Node21</title>
<path fill="none" stroke="midnightblue" d="M270.723,-578C295.039,-578 322.869,-578 347.681,-578"/>
<polygon fill="midnightblue" stroke="midnightblue" points="270.535,-574.5 260.535,-578 270.535,-581.5 270.535,-574.5"/>
</g>
<!-- Node23 -->
<g id="node45" class="node"><title>Node23</title>
<a xlink:href="struct_om_1_1_operations_1_1_find_operation.html" target="_top" xlink:title="The find Operation implementation.">
<polygon fill="none" stroke="black" points="344,-519.5 344,-538.5 492,-538.5 492,-519.5 344,-519.5"/>
<text text-anchor="middle" x="418" y="-526.5" font-family="Helvetica,sans-Serif" font-size="10.00">Om::Operations::FindOperation</text>
</a>
</g>
<!-- Node22&#45;&gt;Node23 -->
<g id="edge44" class="edge"><title>Node22&#45;&gt;Node23</title>
<path fill="none" stroke="midnightblue" d="M270.555,-529C293.638,-529 319.903,-529 343.755,-529"/>
<polygon fill="midnightblue" stroke="midnightblue" points="270.535,-525.5 260.535,-529 270.535,-532.5 270.535,-525.5"/>
</g>
<!-- Node25 -->
<g id="node49" class="node"><title>Node25</title>
<a xlink:href="struct_om_1_1_operations_1_1_front_push_operation.html" target="_top" xlink:title="An Operation that joins an Operand to the front of a Program.">
<polygon fill="none" stroke="black" points="352.5,-453.5 352.5,-494.5 483.5,-494.5 483.5,-453.5 352.5,-453.5"/>
<text text-anchor="start" x="360.5" y="-482.5" font-family="Helvetica,sans-Serif" font-size="10.00">Om::Operations::FrontPush</text>
<text text-anchor="start" x="360.5" y="-471.5" font-family="Helvetica,sans-Serif" font-size="10.00">Operation&lt; ThisProgram,</text>
<text text-anchor="middle" x="418" y="-460.5" font-family="Helvetica,sans-Serif" font-size="10.00"> ThisImplementation &gt;</text>
</a>
</g>
<!-- Node24&#45;&gt;Node25 -->
<g id="edge48" class="edge"><title>Node24&#45;&gt;Node25</title>
<path fill="none" stroke="midnightblue" d="M306.069,-474C321.826,-474 337.762,-474 352.451,-474"/>
<polygon fill="midnightblue" stroke="midnightblue" points="305.755,-470.5 295.755,-474 305.754,-477.5 305.755,-470.5"/>
</g>
<!-- Node27 -->
<g id="node53" class="node"><title>Node27</title>
<a xlink:href="struct_om_1_1_operations_1_1_inject_operation.html" target="_top" xlink:title="The inject Operation implementation.">
<polygon fill="none" stroke="black" points="342,-409.5 342,-428.5 494,-428.5 494,-409.5 342,-409.5"/>
<text text-anchor="middle" x="418" y="-416.5" font-family="Helvetica,sans-Serif" font-size="10.00">Om::Operations::InjectOperation</text>
</a>
</g>
<!-- Node26&#45;&gt;Node27 -->
<g id="edge52" class="edge"><title>Node26&#45;&gt;Node27</title>
<path fill="none" stroke="midnightblue" d="M270.612,-419C293.044,-419 318.475,-419 341.775,-419"/>
<polygon fill="midnightblue" stroke="midnightblue" points="270.535,-415.5 260.535,-419 270.535,-422.5 270.535,-415.5"/>
</g>
<!-- Node29 -->
<g id="node57" class="node"><title>Node29</title>
<a xlink:href="struct_om_1_1_operations_1_1_normalize_operation.html" target="_top" xlink:title="The normalize Operation implementation.">
<polygon fill="none" stroke="black" points="353,-355 353,-385 483,-385 483,-355 353,-355"/>
<text text-anchor="start" x="361" y="-373" font-family="Helvetica,sans-Serif" font-size="10.00">Om::Operations::Normalize</text>
<text text-anchor="middle" x="418" y="-362" font-family="Helvetica,sans-Serif" font-size="10.00">Operation</text>
</a>
</g>
<!-- Node28&#45;&gt;Node29 -->
<g id="edge56" class="edge"><title>Node28&#45;&gt;Node29</title>
<path fill="none" stroke="midnightblue" d="M274.304,-370C299.48,-370 327.99,-370 352.871,-370"/>
<polygon fill="midnightblue" stroke="midnightblue" points="274.106,-366.5 264.106,-370 274.106,-373.5 274.106,-366.5"/>
</g>
<!-- Node31 -->
<g id="node61" class="node"><title>Node31</title>
<a xlink:href="struct_om_1_1_operations_1_1_program_operation.html" target="_top" xlink:title="An Operation that normalizes a Program to a specific type.">
<polygon fill="none" stroke="black" points="335,-306 335,-336 501,-336 501,-306 335,-306"/>
<text text-anchor="start" x="343" y="-324" font-family="Helvetica,sans-Serif" font-size="10.00">Om::Operations::ProgramOperation</text>
<text text-anchor="middle" x="418" y="-313" font-family="Helvetica,sans-Serif" font-size="10.00">&lt; ThisProgram &gt;</text>
</a>
</g>
<!-- Node30&#45;&gt;Node31 -->
<g id="edge60" class="edge"><title>Node30&#45;&gt;Node31</title>
<path fill="none" stroke="midnightblue" d="M305.851,-321C315.578,-321 325.376,-321 334.909,-321"/>
<polygon fill="midnightblue" stroke="midnightblue" points="305.755,-317.5 295.755,-321 305.754,-324.5 305.755,-317.5"/>
</g>
<!-- Node33 -->
<g id="node65" class="node"><title>Node33</title>
<a xlink:href="struct_om_1_1_operations_1_1_pull_operation.html" target="_top" xlink:title="An Operation that pulls part of a Program.">
<polygon fill="none" stroke="black" points="332.5,-251 332.5,-281 503.5,-281 503.5,-251 332.5,-251"/>
<text text-anchor="start" x="340.5" y="-269" font-family="Helvetica,sans-Serif" font-size="10.00">Om::Operations::PullOperation</text>
<text text-anchor="middle" x="418" y="-258" font-family="Helvetica,sans-Serif" font-size="10.00">&lt; ThisProgram, ThisImplementation &gt;</text>
</a>
</g>
<!-- Node32&#45;&gt;Node33 -->
<g id="edge64" class="edge"><title>Node32&#45;&gt;Node33</title>
<path fill="none" stroke="midnightblue" d="M288.915,-266C303.132,-266 317.944,-266 332.236,-266"/>
<polygon fill="midnightblue" stroke="midnightblue" points="288.683,-262.5 278.683,-266 288.683,-269.5 288.683,-262.5"/>
</g>
<!-- Node35 -->
<g id="node69" class="node"><title>Node35</title>
<a xlink:href="struct_om_1_1_operations_1_1_quote_operation.html" target="_top" xlink:title="The quote Operation implementation.">
<polygon fill="none" stroke="black" points="339.5,-201.5 339.5,-220.5 496.5,-220.5 496.5,-201.5 339.5,-201.5"/>
<text text-anchor="middle" x="418" y="-208.5" font-family="Helvetica,sans-Serif" font-size="10.00">Om::Operations::QuoteOperation</text>
</a>
</g>
<!-- Node34&#45;&gt;Node35 -->
<g id="edge68" class="edge"><title>Node34&#45;&gt;Node35</title>
<path fill="none" stroke="midnightblue" d="M270.602,-211C292.271,-211 316.742,-211 339.385,-211"/>
<polygon fill="midnightblue" stroke="midnightblue" points="270.535,-207.5 260.535,-211 270.535,-214.5 270.535,-207.5"/>
</g>
<!-- Node37 -->
<g id="node73" class="node"><title>Node37</title>
<a xlink:href="struct_om_1_1_operations_1_1_skip_operation.html" target="_top" xlink:title="The skip Operation implementation.">
<polygon fill="none" stroke="black" points="343.5,-152.5 343.5,-171.5 492.5,-171.5 492.5,-152.5 343.5,-152.5"/>
<text text-anchor="middle" x="418" y="-159.5" font-family="Helvetica,sans-Serif" font-size="10.00">Om::Operations::SkipOperation</text>
</a>
</g>
<!-- Node36&#45;&gt;Node37 -->
<g id="edge72" class="edge"><title>Node36&#45;&gt;Node37</title>
<path fill="none" stroke="midnightblue" d="M270.815,-162C293.707,-162 319.703,-162 343.36,-162"/>
<polygon fill="midnightblue" stroke="midnightblue" points="270.535,-158.5 260.535,-162 270.535,-165.5 270.535,-158.5"/>
</g>
<!-- Node39 -->
<g id="node77" class="node"><title>Node39</title>
<a xlink:href="struct_om_1_1_operations_1_1_translate_operation.html" target="_top" xlink:title="Om::Operations::Translate\lOperation\&lt; SubstituteOperation \&gt;">
<polygon fill="none" stroke="black" points="338.5,-98 338.5,-128 497.5,-128 497.5,-98 338.5,-98"/>
<text text-anchor="start" x="346.5" y="-116" font-family="Helvetica,sans-Serif" font-size="10.00">Om::Operations::Translate</text>
<text text-anchor="middle" x="418" y="-105" font-family="Helvetica,sans-Serif" font-size="10.00">Operation&lt; SubstituteOperation &gt;</text>
</a>
</g>
<!-- Node38&#45;&gt;Node39 -->
<g id="edge76" class="edge"><title>Node38&#45;&gt;Node39</title>
<path fill="none" stroke="midnightblue" d="M274.723,-113C294.968,-113 317.338,-113 338.228,-113"/>
<polygon fill="midnightblue" stroke="midnightblue" points="274.661,-109.5 264.661,-113 274.661,-116.5 274.661,-109.5"/>
</g>
<!-- Node40 -->
<g id="node79" class="node"><title>Node40</title>
<a xlink:href="struct_om_1_1_operations_1_1_substitute_operation.html" target="_top" xlink:title="The substitute Operation implementation.">
<polygon fill="none" stroke="black" points="540.5,-98 540.5,-128 671.5,-128 671.5,-98 540.5,-98"/>
<text text-anchor="start" x="548.5" y="-116" font-family="Helvetica,sans-Serif" font-size="10.00">Om::Operations::Substitute</text>
<text text-anchor="middle" x="606" y="-105" font-family="Helvetica,sans-Serif" font-size="10.00">Operation</text>
</a>
</g>
<!-- Node39&#45;&gt;Node40 -->
<g id="edge78" class="edge"><title>Node39&#45;&gt;Node40</title>
<path fill="none" stroke="midnightblue" d="M507.708,-113C518.747,-113 529.867,-113 540.444,-113"/>
<polygon fill="midnightblue" stroke="midnightblue" points="507.611,-109.5 497.611,-113 507.611,-116.5 507.611,-109.5"/>
</g>
<!-- Node42 -->
<g id="node83" class="node"><title>Node42</title>
<a xlink:href="struct_om_1_1_operations_1_1_swap_operation.html" target="_top" xlink:title="The swap Operation implementation.">
<polygon fill="none" stroke="black" points="339,-54.5 339,-73.5 497,-73.5 497,-54.5 339,-54.5"/>
<text text-anchor="middle" x="418" y="-61.5" font-family="Helvetica,sans-Serif" font-size="10.00">Om::Operations::SwapOperation</text>
</a>
</g>
<!-- Node41&#45;&gt;Node42 -->
<g id="edge82" class="edge"><title>Node41&#45;&gt;Node42</title>
<path fill="none" stroke="midnightblue" d="M270.549,-64C292.104,-64 316.436,-64 338.986,-64"/>
<polygon fill="midnightblue" stroke="midnightblue" points="270.535,-60.5001 260.535,-64 270.535,-67.5001 270.535,-60.5001"/>
</g>
<!-- Node44 -->
<g id="node87" class="node"><title>Node44</title>
<a xlink:href="struct_om_1_1_operations_1_1_translate_operation.html" target="_top" xlink:title="An Operation that applies each Translator to a Program.">
<polygon fill="none" stroke="black" points="340.5,-0 340.5,-30 495.5,-30 495.5,-0 340.5,-0"/>
<text text-anchor="start" x="348.5" y="-18" font-family="Helvetica,sans-Serif" font-size="10.00">Om::Operations::Translate</text>
<text text-anchor="middle" x="418" y="-7" font-family="Helvetica,sans-Serif" font-size="10.00">Operation&lt; ThisImplementation &gt;</text>
</a>
</g>
<!-- Node43&#45;&gt;Node44 -->
<g id="edge86" class="edge"><title>Node43&#45;&gt;Node44</title>
<path fill="none" stroke="midnightblue" d="M273.013,-15C294.421,-15 318.349,-15 340.456,-15"/>
<polygon fill="midnightblue" stroke="midnightblue" points="272.725,-11.5001 262.725,-15 272.725,-18.5001 272.725,-11.5001"/>
</g>
</g>
</svg>
