<?xml version="1.0" encoding="UTF-8" standalone="no"?>
<!DOCTYPE svg PUBLIC "-//W3C//DTD SVG 1.1//EN"
 "http://www.w3.org/Graphics/SVG/1.1/DTD/svg11.dtd">
<!-- Generated by graphviz version 2.36.0 (20140111.2315)
 -->
<!-- Title: Graphical Class Hierarchy Pages: 1 -->
<svg width="1504pt" height="612pt"
 viewBox="0.00 0.00 1504.00 612.00" xmlns="http://www.w3.org/2000/svg" xmlns:xlink="http://www.w3.org/1999/xlink">
<g id="graph0" class="graph" transform="scale(1 1) rotate(0) translate(4 608)">
<title>Graphical Class Hierarchy</title>
<!-- Node0 -->
<g id="node1" class="node"><title>Node0</title>
<g id="a_node1"><a xlink:href="class_om_1_1_copyable.html" target="_top" xlink:title="An object that can be passed to Copy to be copied.">
<polygon fill="none" stroke="black" points="1.04199,-136 1.04199,-154 80.958,-154 80.958,-136 1.04199,-136"/>
<text text-anchor="middle" x="41" y="-142" font-family="Helvetica,sans-Serif" font-size="10.00">Om::Copyable</text>
</a>
</g>
</g>
<!-- Node1 -->
<g id="node2" class="node"><title>Node1</title>
<g id="a_node2"><a xlink:href="class_om_1_1_default_copyable.html" target="_top" xlink:title="A partial implementation of Copyable.">
<polygon fill="none" stroke="black" points="130.759,-347 130.759,-385 245.241,-385 245.241,-347 130.759,-347"/>
<text text-anchor="start" x="138.759" y="-373" font-family="Helvetica,sans-Serif" font-size="10.00">Om::DefaultCopyable</text>
<text text-anchor="start" x="138.759" y="-363" font-family="Helvetica,sans-Serif" font-size="10.00">&lt; ThisImplementation,</text>
<text text-anchor="middle" x="188" y="-353" font-family="Helvetica,sans-Serif" font-size="10.00"> ThisInterface &gt;</text>
</a>
</g>
</g>
<!-- Node0&#45;&gt;Node1 -->
<g id="edge1" class="edge"><title>Node0&#45;&gt;Node1</title>
<path fill="none" stroke="midnightblue" d="M53.555,-162.611C80.359,-203.464 146.596,-304.419 174.397,-346.791"/>
<polygon fill="midnightblue" stroke="midnightblue" points="56.458,-160.656 48.0459,-154.215 50.6053,-164.496 56.458,-160.656"/>
</g>
<!-- Node12 -->
<g id="node13" class="node"><title>Node12</title>
<g id="a_node13"><a xlink:href="class_om_1_1_giveable.html" target="_top" xlink:title="An object that can be copied or moved via Give.">
<polygon fill="none" stroke="black" points="149.434,-104 149.434,-122 226.566,-122 226.566,-104 149.434,-104"/>
<text text-anchor="middle" x="188" y="-110" font-family="Helvetica,sans-Serif" font-size="10.00">Om::Giveable</text>
</a>
</g>
</g>
<!-- Node0&#45;&gt;Node12 -->
<g id="edge12" class="edge"><title>Node0&#45;&gt;Node12</title>
<path fill="none" stroke="midnightblue" d="M91.1991,-134.142C110.165,-129.957 131.51,-125.246 149.231,-121.335"/>
<polygon fill="midnightblue" stroke="midnightblue" points="90.2498,-130.767 81.2391,-136.34 91.7584,-137.603 90.2498,-130.767"/>
</g>
<!-- Node2 -->
<g id="node3" class="node"><title>Node2</title>
<g id="a_node3"><a xlink:href="class_om_1_1_default_moveable.html" target="_top" xlink:title=" ">
<polygon fill="none" stroke="black" points="294.402,-490 294.402,-538 485.598,-538 485.598,-490 294.402,-490"/>
<text text-anchor="start" x="302.402" y="-526" font-family="Helvetica,sans-Serif" font-size="10.00">Om::DefaultMoveable</text>
<text text-anchor="start" x="302.402" y="-516" font-family="Helvetica,sans-Serif" font-size="10.00">&lt; ThisImplementation,</text>
<text text-anchor="start" x="302.402" y="-506" font-family="Helvetica,sans-Serif" font-size="10.00"> DefaultCopyable&lt; ThisImplementation,</text>
<text text-anchor="middle" x="390" y="-496" font-family="Helvetica,sans-Serif" font-size="10.00"> Giveable &gt; &gt;</text>
</a>
</g>
</g>
<!-- Node1&#45;&gt;Node2 -->
<g id="edge2" class="edge"><title>Node1&#45;&gt;Node2</title>
<path fill="none" stroke="midnightblue" d="M222.792,-391.006C260.063,-418.586 319.617,-462.656 356.403,-489.878"/>
<polygon fill="midnightblue" stroke="midnightblue" points="224.857,-388.18 214.737,-385.045 220.694,-393.807 224.857,-388.18"/>
</g>
<!-- Node3 -->
<g id="node4" class="node"><title>Node3</title>
<g id="a_node4"><a xlink:href="class_om_1_1_default_giveable.html" target="_top" xlink:title="A partial implementation of Giveable.">
<polygon fill="none" stroke="black" points="543.759,-539 543.759,-577 658.241,-577 658.241,-539 543.759,-539"/>
<text text-anchor="start" x="551.759" y="-565" font-family="Helvetica,sans-Serif" font-size="10.00">Om::DefaultGiveable</text>
<text text-anchor="start" x="551.759" y="-555" font-family="Helvetica,sans-Serif" font-size="10.00">&lt; ThisImplementation,</text>
<text text-anchor="middle" x="601" y="-545" font-family="Helvetica,sans-Serif" font-size="10.00"> ThisInterface &gt;</text>
</a>
</g>
</g>
<!-- Node2&#45;&gt;Node3 -->
<g id="edge3" class="edge"><title>Node2&#45;&gt;Node3</title>
<path fill="none" stroke="midnightblue" d="M495.934,-536.091C512.366,-539.551 528.784,-543.007 543.562,-546.118"/>
<polygon fill="midnightblue" stroke="midnightblue" points="496.222,-532.575 485.716,-533.94 494.78,-539.425 496.222,-532.575"/>
</g>
<!-- Node4 -->
<g id="node5" class="node"><title>Node4</title>
<g id="a_node5"><a xlink:href="class_om_1_1_language_1_1_default_consumer.html" target="_top" xlink:title=" ">
<polygon fill="none" stroke="black" points="715.794,-536 715.794,-584 904.206,-584 904.206,-536 715.794,-536"/>
<text text-anchor="start" x="723.794" y="-572" font-family="Helvetica,sans-Serif" font-size="10.00">Om::Language::DefaultConsumer</text>
<text text-anchor="start" x="723.794" y="-562" font-family="Helvetica,sans-Serif" font-size="10.00">&lt; ThisImplementation, DefaultGiveable</text>
<text text-anchor="start" x="723.794" y="-552" font-family="Helvetica,sans-Serif" font-size="10.00">&lt; ThisImplementation, Om::Language</text>
<text text-anchor="middle" x="810" y="-542" font-family="Helvetica,sans-Serif" font-size="10.00">::Program &gt; &gt;</text>
</a>
</g>
</g>
<!-- Node3&#45;&gt;Node4 -->
<g id="edge4" class="edge"><title>Node3&#45;&gt;Node4</title>
<path fill="none" stroke="midnightblue" d="M668.486,-558.642C683.517,-558.788 699.748,-558.944 715.655,-559.098"/>
<polygon fill="midnightblue" stroke="midnightblue" points="668.324,-555.141 658.29,-558.544 668.256,-562.14 668.324,-555.141"/>
</g>
<!-- Node5 -->
<g id="node6" class="node"><title>Node5</title>
<g id="a_node6"><a xlink:href="class_om_1_1_language_1_1_default_program.html" target="_top" xlink:title="A partial implementation of Program.">
<polygon fill="none" stroke="black" points="940.248,-519 940.248,-547 1123.75,-547 1123.75,-519 940.248,-519"/>
<text text-anchor="start" x="948.248" y="-535" font-family="Helvetica,sans-Serif" font-size="10.00">Om::Language::DefaultProgram</text>
<text text-anchor="middle" x="1032" y="-525" font-family="Helvetica,sans-Serif" font-size="10.00">&lt; ThisImplementation, ThisInterface &gt;</text>
</a>
</g>
</g>
<!-- Node4&#45;&gt;Node5 -->
<g id="edge5" class="edge"><title>Node4&#45;&gt;Node5</title>
<path fill="none" stroke="midnightblue" d="M914.33,-547.319C922.906,-546.266 931.536,-545.207 940.011,-544.167"/>
<polygon fill="midnightblue" stroke="midnightblue" points="913.799,-543.857 904.3,-548.55 914.652,-550.805 913.799,-543.857"/>
</g>
<!-- Node6 -->
<g id="node7" class="node"><title>Node6</title>
<g id="a_node7"><a xlink:href="class_om_1_1_language_1_1_default_element.html" target="_top" xlink:title=" ">
<polygon fill="none" stroke="black" points="1159.96,-566 1159.96,-604 1316.04,-604 1316.04,-566 1159.96,-566"/>
<text text-anchor="start" x="1167.96" y="-592" font-family="Helvetica,sans-Serif" font-size="10.00">Om::Language::DefaultElement</text>
<text text-anchor="start" x="1167.96" y="-582" font-family="Helvetica,sans-Serif" font-size="10.00">&lt; ThisImplementation, Om</text>
<text text-anchor="middle" x="1238" y="-572" font-family="Helvetica,sans-Serif" font-size="10.00">::Language::Atom &gt;</text>
</a>
</g>
</g>
<!-- Node5&#45;&gt;Node6 -->
<g id="edge6" class="edge"><title>Node5&#45;&gt;Node6</title>
<path fill="none" stroke="midnightblue" d="M1097.82,-549.522C1118.36,-554.759 1141.24,-560.591 1162.42,-565.989"/>
<polygon fill="midnightblue" stroke="midnightblue" points="1098.49,-546.082 1087.94,-547.003 1096.76,-552.865 1098.49,-546.082"/>
</g>
<!-- Node8 -->
<g id="node9" class="node"><title>Node8</title>
<g id="a_node9"><a xlink:href="class_om_1_1_language_1_1_default_element.html" target="_top" xlink:title=" ">
<polygon fill="none" stroke="black" points="1159.96,-519 1159.96,-547 1316.04,-547 1316.04,-519 1159.96,-519"/>
<text text-anchor="start" x="1167.96" y="-535" font-family="Helvetica,sans-Serif" font-size="10.00">Om::Language::DefaultElement</text>
<text text-anchor="middle" x="1238" y="-525" font-family="Helvetica,sans-Serif" font-size="10.00">&lt; Operand &gt;</text>
</a>
</g>
</g>
<!-- Node5&#45;&gt;Node8 -->
<g id="edge8" class="edge"><title>Node5&#45;&gt;Node8</title>
<path fill="none" stroke="midnightblue" d="M1134.13,-533C1142.8,-533 1151.48,-533 1159.92,-533"/>
<polygon fill="midnightblue" stroke="midnightblue" points="1133.96,-529.5 1123.96,-533 1133.96,-536.5 1133.96,-529.5"/>
</g>
<!-- Node10 -->
<g id="node11" class="node"><title>Node10</title>
<g id="a_node11"><a xlink:href="class_om_1_1_language_1_1_default_element.html" target="_top" xlink:title=" ">
<polygon fill="none" stroke="black" points="1159.96,-472 1159.96,-500 1316.04,-500 1316.04,-472 1159.96,-472"/>
<text text-anchor="start" x="1167.96" y="-488" font-family="Helvetica,sans-Serif" font-size="10.00">Om::Language::DefaultElement</text>
<text text-anchor="middle" x="1238" y="-478" font-family="Helvetica,sans-Serif" font-size="10.00">&lt; Null &gt;</text>
</a>
</g>
</g>
<!-- Node5&#45;&gt;Node10 -->
<g id="edge10" class="edge"><title>Node5&#45;&gt;Node10</title>
<path fill="none" stroke="midnightblue" d="M1103.84,-516.678C1127.36,-511.26 1153.32,-505.278 1176.03,-500.047"/>
<polygon fill="midnightblue" stroke="midnightblue" points="1102.89,-513.306 1093.93,-518.962 1104.46,-520.128 1102.89,-513.306"/>
</g>
<!-- Node7 -->
<g id="node8" class="node"><title>Node7</title>
<g id="a_node8"><a xlink:href="class_om_1_1_language_1_1_default_atom.html" target="_top" xlink:title="A partial implementation of Atom.">
<polygon fill="none" stroke="black" points="1352.63,-571 1352.63,-599 1495.37,-599 1495.37,-571 1352.63,-571"/>
<text text-anchor="start" x="1360.63" y="-587" font-family="Helvetica,sans-Serif" font-size="10.00">Om::Language::DefaultAtom</text>
<text text-anchor="middle" x="1424" y="-577" font-family="Helvetica,sans-Serif" font-size="10.00">&lt; ThisImplementation &gt;</text>
</a>
</g>
</g>
<!-- Node6&#45;&gt;Node7 -->
<g id="edge7" class="edge"><title>Node6&#45;&gt;Node7</title>
<path fill="none" stroke="midnightblue" d="M1326.42,-585C1335.13,-585 1343.9,-585 1352.41,-585"/>
<polygon fill="midnightblue" stroke="midnightblue" points="1326.23,-581.5 1316.23,-585 1326.23,-588.5 1326.23,-581.5"/>
</g>
<!-- Node9 -->
<g id="node10" class="node"><title>Node9</title>
<g id="a_node10"><a xlink:href="class_om_1_1_language_1_1_operand.html" target="_top" xlink:title="The Operand implementation.">
<polygon fill="none" stroke="black" points="1360.69,-524 1360.69,-542 1487.31,-542 1487.31,-524 1360.69,-524"/>
<text text-anchor="middle" x="1424" y="-530" font-family="Helvetica,sans-Serif" font-size="10.00">Om::Language::Operand</text>
</a>
</g>
</g>
<!-- Node8&#45;&gt;Node9 -->
<g id="edge9" class="edge"><title>Node8&#45;&gt;Node9</title>
<path fill="none" stroke="midnightblue" d="M1326.32,-533C1337.85,-533 1349.48,-533 1360.48,-533"/>
<polygon fill="midnightblue" stroke="midnightblue" points="1326.23,-529.5 1316.23,-533 1326.23,-536.5 1326.23,-529.5"/>
</g>
<!-- Node11 -->
<g id="node12" class="node"><title>Node11</title>
<g id="a_node12"><a xlink:href="class_om_1_1_language_1_1_null.html" target="_top" xlink:title="The Null Element implementation.">
<polygon fill="none" stroke="black" points="1371.53,-477 1371.53,-495 1476.47,-495 1476.47,-477 1371.53,-477"/>
<text text-anchor="middle" x="1424" y="-483" font-family="Helvetica,sans-Serif" font-size="10.00">Om::Language::Null</text>
</a>
</g>
</g>
<!-- Node10&#45;&gt;Node11 -->
<g id="edge11" class="edge"><title>Node10&#45;&gt;Node11</title>
<path fill="none" stroke="midnightblue" d="M1326.31,-486C1341.72,-486 1357.31,-486 1371.33,-486"/>
<polygon fill="midnightblue" stroke="midnightblue" points="1326.23,-482.5 1316.23,-486 1326.23,-489.5 1326.23,-482.5"/>
</g>
<!-- Node13 -->
<g id="node14" class="node"><title>Node13</title>
<g id="a_node14"><a xlink:href="class_om_1_1_language_1_1_program.html" target="_top" xlink:title="The Program implementation.">
<polygon fill="none" stroke="black" points="326.971,-103 326.971,-121 453.029,-121 453.029,-103 326.971,-103"/>
<text text-anchor="middle" x="390" y="-109" font-family="Helvetica,sans-Serif" font-size="10.00">Om::Language::Program</text>
</a>
</g>
</g>
<!-- Node12&#45;&gt;Node13 -->
<g id="edge13" class="edge"><title>Node12&#45;&gt;Node13</title>
<path fill="none" stroke="midnightblue" d="M236.949,-112.76C263.888,-112.626 297.815,-112.456 326.783,-112.311"/>
<polygon fill="midnightblue" stroke="midnightblue" points="236.601,-109.262 226.618,-112.812 236.636,-116.262 236.601,-109.262"/>
</g>
<!-- Node14 -->
<g id="node15" class="node"><title>Node14</title>
<g id="a_node15"><a xlink:href="class_om_1_1_language_1_1_element.html" target="_top" xlink:title="A Program that contains a single elemental item (or none, when IsEmpty() returns true).">
<polygon fill="none" stroke="black" points="538.801,-103 538.801,-121 663.199,-121 663.199,-103 538.801,-103"/>
<text text-anchor="middle" x="601" y="-109" font-family="Helvetica,sans-Serif" font-size="10.00">Om::Language::Element</text>
</a>
</g>
</g>
<!-- Node13&#45;&gt;Node14 -->
<g id="edge14" class="edge"><title>Node13&#45;&gt;Node14</title>
<path fill="none" stroke="midnightblue" d="M463.443,-112C487.892,-112 514.934,-112 538.459,-112"/>
<polygon fill="midnightblue" stroke="midnightblue" points="463.141,-108.5 453.141,-112 463.141,-115.5 463.141,-108.5"/>
</g>
<!-- Node15 -->
<g id="node16" class="node"><title>Node15</title>
<g id="a_node16"><a xlink:href="class_om_1_1_language_1_1_atom.html" target="_top" xlink:title="An atomic Element defined by a string.">
<polygon fill="none" stroke="black" points="754.473,-103 754.473,-121 865.527,-121 865.527,-103 754.473,-103"/>
<text text-anchor="middle" x="810" y="-109" font-family="Helvetica,sans-Serif" font-size="10.00">Om::Language::Atom</text>
</a>
</g>
</g>
<!-- Node14&#45;&gt;Node15 -->
<g id="edge15" class="edge"><title>Node14&#45;&gt;Node15</title>
<path fill="none" stroke="midnightblue" d="M673.609,-112C700.033,-112 729.531,-112 754.231,-112"/>
<polygon fill="midnightblue" stroke="midnightblue" points="673.267,-108.5 663.267,-112 673.267,-115.5 673.267,-108.5"/>
</g>
<!-- Node18 -->
<g id="node17" class="node"><title>Node18</title>
<g id="a_node17"><a xlink:href="class_om_1_1_language_1_1_consumer.html" target="_top" xlink:title="An Element taker; takes at the back.">
<polygon fill="none" stroke="black" points="121.079,-208 121.079,-226 254.921,-226 254.921,-208 121.079,-208"/>
<text text-anchor="middle" x="188" y="-214" font-family="Helvetica,sans-Serif" font-size="10.00">Om::Language::Consumer</text>
</a>
</g>
</g>
<!-- Node18&#45;&gt;Node13 -->
<g id="edge33" class="edge"><title>Node18&#45;&gt;Node13</title>
<path fill="none" stroke="midnightblue" d="M215.392,-203.144C257.013,-181.293 336.759,-139.426 371.784,-121.038"/>
<polygon fill="midnightblue" stroke="midnightblue" points="213.626,-200.118 206.399,-207.866 216.88,-206.316 213.626,-200.118"/>
</g>
<!-- Node19 -->
<g id="node18" class="node"><title>Node19</title>
<g id="a_node18"><a xlink:href="class_om_1_1_language_1_1_default_consumer.html" target="_top" xlink:title=" ">
<polygon fill="none" stroke="black" points="307.237,-226 307.237,-254 472.763,-254 472.763,-226 307.237,-226"/>
<text text-anchor="start" x="315.237" y="-242" font-family="Helvetica,sans-Serif" font-size="10.00">Om::Language::DefaultConsumer</text>
<text text-anchor="middle" x="390" y="-232" font-family="Helvetica,sans-Serif" font-size="10.00">&lt; Writer &gt;</text>
</a>
</g>
</g>
<!-- Node18&#45;&gt;Node19 -->
<g id="edge16" class="edge"><title>Node18&#45;&gt;Node19</title>
<path fill="none" stroke="midnightblue" d="M265.322,-225.777C278.948,-227.344 293.196,-228.983 306.974,-230.567"/>
<polygon fill="midnightblue" stroke="midnightblue" points="265.376,-222.26 255.042,-224.595 264.576,-229.214 265.376,-222.26"/>
</g>
<!-- Node21 -->
<g id="node20" class="node"><title>Node21</title>
<g id="a_node20"><a xlink:href="class_om_1_1_language_1_1_default_consumer.html" target="_top" xlink:title=" ">
<polygon fill="none" stroke="black" points="307.237,-179 307.237,-207 472.763,-207 472.763,-179 307.237,-179"/>
<text text-anchor="start" x="315.237" y="-195" font-family="Helvetica,sans-Serif" font-size="10.00">Om::Language::DefaultConsumer</text>
<text text-anchor="middle" x="390" y="-185" font-family="Helvetica,sans-Serif" font-size="10.00">&lt; Evaluator &gt;</text>
</a>
</g>
</g>
<!-- Node18&#45;&gt;Node21 -->
<g id="edge18" class="edge"><title>Node18&#45;&gt;Node21</title>
<path fill="none" stroke="midnightblue" d="M265.322,-207.841C278.948,-206.206 293.196,-204.496 306.974,-202.843"/>
<polygon fill="midnightblue" stroke="midnightblue" points="264.553,-204.408 255.042,-209.075 265.388,-211.359 264.553,-204.408"/>
</g>
<!-- Node23 -->
<g id="node22" class="node"><title>Node23</title>
<g id="a_node22"><a xlink:href="class_om_1_1_language_1_1_default_consumer.html" target="_top" xlink:title="A partial implementation of Consumer.">
<polygon fill="none" stroke="black" points="298.248,-304 298.248,-332 481.752,-332 481.752,-304 298.248,-304"/>
<text text-anchor="start" x="306.248" y="-320" font-family="Helvetica,sans-Serif" font-size="10.00">Om::Language::DefaultConsumer</text>
<text text-anchor="middle" x="390" y="-310" font-family="Helvetica,sans-Serif" font-size="10.00">&lt; ThisImplementation, ThisInterface &gt;</text>
</a>
</g>
</g>
<!-- Node18&#45;&gt;Node23 -->
<g id="edge20" class="edge"><title>Node18&#45;&gt;Node23</title>
<path fill="none" stroke="midnightblue" d="M216.04,-230.655C253.944,-249.797 322.531,-284.433 360.964,-303.842"/>
<polygon fill="midnightblue" stroke="midnightblue" points="217.606,-227.525 207.101,-226.141 214.45,-233.773 217.606,-227.525"/>
</g>
<!-- Node20 -->
<g id="node19" class="node"><title>Node20</title>
<g id="a_node19"><a xlink:href="class_om_1_1_language_1_1_writer.html" target="_top" xlink:title="A Consumer that pushes each Element to a CodePoint Sink upon receipt.">
<polygon fill="none" stroke="black" points="543.901,-215 543.901,-233 658.099,-233 658.099,-215 543.901,-215"/>
<text text-anchor="middle" x="601" y="-221" font-family="Helvetica,sans-Serif" font-size="10.00">Om::Language::Writer</text>
</a>
</g>
</g>
<!-- Node19&#45;&gt;Node20 -->
<g id="edge17" class="edge"><title>Node19&#45;&gt;Node20</title>
<path fill="none" stroke="midnightblue" d="M483.071,-232.952C503.717,-231.371 525.02,-229.74 543.694,-228.31"/>
<polygon fill="midnightblue" stroke="midnightblue" points="482.706,-229.469 473.002,-233.722 483.24,-236.449 482.706,-229.469"/>
</g>
<!-- Node22 -->
<g id="node21" class="node"><title>Node22</title>
<g id="a_node21"><a xlink:href="class_om_1_1_language_1_1_evaluator.html" target="_top" xlink:title="A Consumer that evaluates Program instances.">
<polygon fill="none" stroke="black" points="536.02,-141 536.02,-159 665.98,-159 665.98,-141 536.02,-141"/>
<text text-anchor="middle" x="601" y="-147" font-family="Helvetica,sans-Serif" font-size="10.00">Om::Language::Evaluator</text>
</a>
</g>
</g>
<!-- Node21&#45;&gt;Node22 -->
<g id="edge19" class="edge"><title>Node21&#45;&gt;Node22</title>
<path fill="none" stroke="midnightblue" d="M468.98,-176.956C498.362,-170.911 530.74,-164.25 555.957,-159.061"/>
<polygon fill="midnightblue" stroke="midnightblue" points="468.235,-173.536 459.145,-178.98 469.645,-180.393 468.235,-173.536"/>
</g>
<!-- Node24 -->
<g id="node23" class="node"><title>Node24</title>
<g id="a_node23"><a xlink:href="class_om_1_1_language_1_1_default_program.html" target="_top" xlink:title=" ">
<polygon fill="none" stroke="black" points="522.128,-299 522.128,-337 679.872,-337 679.872,-299 522.128,-299"/>
<text text-anchor="start" x="530.128" y="-325" font-family="Helvetica,sans-Serif" font-size="10.00">Om::Language::DefaultProgram</text>
<text text-anchor="start" x="530.128" y="-315" font-family="Helvetica,sans-Serif" font-size="10.00">&lt; ThisImplementation, Om</text>
<text text-anchor="middle" x="601" y="-305" font-family="Helvetica,sans-Serif" font-size="10.00">::Language::Element &gt;</text>
</a>
</g>
</g>
<!-- Node23&#45;&gt;Node24 -->
<g id="edge21" class="edge"><title>Node23&#45;&gt;Node24</title>
<path fill="none" stroke="midnightblue" d="M491.882,-318C502.035,-318 512.234,-318 522.094,-318"/>
<polygon fill="midnightblue" stroke="midnightblue" points="491.759,-314.5 481.759,-318 491.759,-321.5 491.759,-314.5"/>
</g>
<!-- Node30 -->
<g id="node29" class="node"><title>Node30</title>
<g id="a_node29"><a xlink:href="class_om_1_1_language_1_1_default_program.html" target="_top" xlink:title=" ">
<polygon fill="none" stroke="black" points="522.128,-403 522.128,-431 679.872,-431 679.872,-403 522.128,-403"/>
<text text-anchor="start" x="530.128" y="-419" font-family="Helvetica,sans-Serif" font-size="10.00">Om::Language::DefaultProgram</text>
<text text-anchor="middle" x="601" y="-409" font-family="Helvetica,sans-Serif" font-size="10.00">&lt; Literal &gt;</text>
</a>
</g>
</g>
<!-- Node23&#45;&gt;Node30 -->
<g id="edge27" class="edge"><title>Node23&#45;&gt;Node30</title>
<path fill="none" stroke="midnightblue" d="M422.722,-337.243C454.828,-356.522 502.441,-384.517 522,-393 530.449,-396.664 539.636,-400.015 548.641,-402.976"/>
<polygon fill="midnightblue" stroke="midnightblue" points="424.486,-334.22 414.114,-332.06 420.875,-340.217 424.486,-334.22"/>
</g>
<!-- Node32 -->
<g id="node31" class="node"><title>Node32</title>
<g id="a_node31"><a xlink:href="class_om_1_1_language_1_1_default_program.html" target="_top" xlink:title=" ">
<polygon fill="none" stroke="black" points="522.128,-252 522.128,-280 679.872,-280 679.872,-252 522.128,-252"/>
<text text-anchor="start" x="530.128" y="-268" font-family="Helvetica,sans-Serif" font-size="10.00">Om::Language::DefaultProgram</text>
<text text-anchor="middle" x="601" y="-258" font-family="Helvetica,sans-Serif" font-size="10.00">&lt; Lexicon &gt;</text>
</a>
</g>
</g>
<!-- Node23&#45;&gt;Node32 -->
<g id="edge29" class="edge"><title>Node23&#45;&gt;Node32</title>
<path fill="none" stroke="midnightblue" d="M457.306,-301.503C485.07,-294.595 517.006,-286.649 543.616,-280.028"/>
<polygon fill="midnightblue" stroke="midnightblue" points="456.142,-298.186 447.283,-303.997 457.832,-304.979 456.142,-298.186"/>
</g>
<!-- Node34 -->
<g id="node33" class="node"><title>Node34</title>
<g id="a_node33"><a xlink:href="class_om_1_1_language_1_1_default_program.html" target="_top" xlink:title=" ">
<polygon fill="none" stroke="black" points="522.128,-356 522.128,-384 679.872,-384 679.872,-356 522.128,-356"/>
<text text-anchor="start" x="530.128" y="-372" font-family="Helvetica,sans-Serif" font-size="10.00">Om::Language::DefaultProgram</text>
<text text-anchor="middle" x="601" y="-362" font-family="Helvetica,sans-Serif" font-size="10.00">&lt; Expression &gt;</text>
</a>
</g>
</g>
<!-- Node23&#45;&gt;Node34 -->
<g id="edge31" class="edge"><title>Node23&#45;&gt;Node34</title>
<path fill="none" stroke="midnightblue" d="M457.306,-334.497C485.07,-341.405 517.006,-349.351 543.616,-355.972"/>
<polygon fill="midnightblue" stroke="midnightblue" points="457.832,-331.021 447.283,-332.003 456.142,-337.814 457.832,-331.021"/>
</g>
<!-- Node25 -->
<g id="node24" class="node"><title>Node25</title>
<g id="a_node24"><a xlink:href="class_om_1_1_language_1_1_default_element.html" target="_top" xlink:title="A partial implementation of Element.">
<polygon fill="none" stroke="black" points="718.248,-304 718.248,-332 901.752,-332 901.752,-304 718.248,-304"/>
<text text-anchor="start" x="726.248" y="-320" font-family="Helvetica,sans-Serif" font-size="10.00">Om::Language::DefaultElement</text>
<text text-anchor="middle" x="810" y="-310" font-family="Helvetica,sans-Serif" font-size="10.00">&lt; ThisImplementation, ThisInterface &gt;</text>
</a>
</g>
</g>
<!-- Node24&#45;&gt;Node25 -->
<g id="edge22" class="edge"><title>Node24&#45;&gt;Node25</title>
<path fill="none" stroke="midnightblue" d="M690.015,-318C699.354,-318 708.866,-318 718.236,-318"/>
<polygon fill="midnightblue" stroke="midnightblue" points="689.963,-314.5 679.963,-318 689.963,-321.5 689.963,-314.5"/>
</g>
<!-- Node26 -->
<g id="node25" class="node"><title>Node26</title>
<g id="a_node25"><a xlink:href="class_om_1_1_language_1_1_default_atom.html" target="_top" xlink:title=" ">
<polygon fill="none" stroke="black" points="960.631,-281 960.631,-309 1103.37,-309 1103.37,-281 960.631,-281"/>
<text text-anchor="start" x="968.631" y="-297" font-family="Helvetica,sans-Serif" font-size="10.00">Om::Language::DefaultAtom</text>
<text text-anchor="middle" x="1032" y="-287" font-family="Helvetica,sans-Serif" font-size="10.00">&lt; Operator &gt;</text>
</a>
</g>
</g>
<!-- Node25&#45;&gt;Node26 -->
<g id="edge23" class="edge"><title>Node25&#45;&gt;Node26</title>
<path fill="none" stroke="midnightblue" d="M911.945,-307.447C928.393,-305.727 945.113,-303.979 960.62,-302.358"/>
<polygon fill="midnightblue" stroke="midnightblue" points="911.334,-303.991 901.753,-308.512 912.062,-310.953 911.334,-303.991"/>
</g>
<!-- Node28 -->
<g id="node27" class="node"><title>Node28</title>
<g id="a_node27"><a xlink:href="class_om_1_1_language_1_1_default_atom.html" target="_top" xlink:title=" ">
<polygon fill="none" stroke="black" points="960.631,-328 960.631,-356 1103.37,-356 1103.37,-328 960.631,-328"/>
<text text-anchor="start" x="968.631" y="-344" font-family="Helvetica,sans-Serif" font-size="10.00">Om::Language::DefaultAtom</text>
<text text-anchor="middle" x="1032" y="-334" font-family="Helvetica,sans-Serif" font-size="10.00">&lt; Separator &gt;</text>
</a>
</g>
</g>
<!-- Node25&#45;&gt;Node28 -->
<g id="edge25" class="edge"><title>Node25&#45;&gt;Node28</title>
<path fill="none" stroke="midnightblue" d="M911.945,-329.012C928.393,-330.807 945.113,-332.631 960.62,-334.322"/>
<polygon fill="midnightblue" stroke="midnightblue" points="912.073,-325.505 901.753,-327.9 911.314,-332.464 912.073,-325.505"/>
</g>
<!-- Node27 -->
<g id="node26" class="node"><title>Node27</title>
<g id="a_node26"><a xlink:href="class_om_1_1_language_1_1_operator.html" target="_top" xlink:title="The Operator implementation.">
<polygon fill="none" stroke="black" points="1174.41,-286 1174.41,-304 1301.59,-304 1301.59,-286 1174.41,-286"/>
<text text-anchor="middle" x="1238" y="-292" font-family="Helvetica,sans-Serif" font-size="10.00">Om::Language::Operator</text>
</a>
</g>
</g>
<!-- Node26&#45;&gt;Node27 -->
<g id="edge24" class="edge"><title>Node26&#45;&gt;Node27</title>
<path fill="none" stroke="midnightblue" d="M1113.61,-295C1133.81,-295 1155.17,-295 1174.35,-295"/>
<polygon fill="midnightblue" stroke="midnightblue" points="1113.49,-291.5 1103.49,-295 1113.49,-298.5 1113.49,-291.5"/>
</g>
<!-- Node29 -->
<g id="node28" class="node"><title>Node29</title>
<g id="a_node28"><a xlink:href="class_om_1_1_language_1_1_separator.html" target="_top" xlink:title="The Separator implementation.">
<polygon fill="none" stroke="black" points="1172.19,-333 1172.19,-351 1303.81,-351 1303.81,-333 1172.19,-333"/>
<text text-anchor="middle" x="1238" y="-339" font-family="Helvetica,sans-Serif" font-size="10.00">Om::Language::Separator</text>
</a>
</g>
</g>
<!-- Node28&#45;&gt;Node29 -->
<g id="edge26" class="edge"><title>Node28&#45;&gt;Node29</title>
<path fill="none" stroke="midnightblue" d="M1113.52,-342C1132.92,-342 1153.4,-342 1171.99,-342"/>
<polygon fill="midnightblue" stroke="midnightblue" points="1113.49,-338.5 1103.49,-342 1113.49,-345.5 1113.49,-338.5"/>
</g>
<!-- Node31 -->
<g id="node30" class="node"><title>Node31</title>
<g id="a_node30"><a xlink:href="class_om_1_1_language_1_1_literal.html" target="_top" xlink:title="The Literal Program implementation.">
<polygon fill="none" stroke="black" points="752.525,-408 752.525,-426 867.475,-426 867.475,-408 752.525,-408"/>
<text text-anchor="middle" x="810" y="-414" font-family="Helvetica,sans-Serif" font-size="10.00">Om::Language::Literal</text>
</a>
</g>
</g>
<!-- Node30&#45;&gt;Node31 -->
<g id="edge28" class="edge"><title>Node30&#45;&gt;Node31</title>
<path fill="none" stroke="midnightblue" d="M690.217,-417C711.279,-417 733.203,-417 752.399,-417"/>
<polygon fill="midnightblue" stroke="midnightblue" points="689.963,-413.5 679.963,-417 689.963,-420.5 689.963,-413.5"/>
</g>
<!-- Node33 -->
<g id="node32" class="node"><title>Node33</title>
<g id="a_node32"><a xlink:href="class_om_1_1_language_1_1_lexicon.html" target="_top" xlink:title="The Lexicon Program implementation.">
<polygon fill="none" stroke="black" points="748.909,-236 748.909,-254 871.091,-254 871.091,-236 748.909,-236"/>
<text text-anchor="middle" x="810" y="-242" font-family="Helvetica,sans-Serif" font-size="10.00">Om::Language::Lexicon</text>
</a>
</g>
</g>
<!-- Node32&#45;&gt;Node33 -->
<g id="edge30" class="edge"><title>Node32&#45;&gt;Node33</title>
<path fill="none" stroke="midnightblue" d="M689.948,-257.078C709.808,-255.063 730.451,-252.969 748.859,-251.101"/>
<polygon fill="midnightblue" stroke="midnightblue" points="689.559,-253.599 679.963,-258.091 690.265,-260.563 689.559,-253.599"/>
</g>
<!-- Node35 -->
<g id="node34" class="node"><title>Node35</title>
<g id="a_node34"><a xlink:href="class_om_1_1_language_1_1_expression.html" target="_top" xlink:title="The Expression Program implementation.">
<polygon fill="none" stroke="black" points="741.409,-361 741.409,-379 878.591,-379 878.591,-361 741.409,-361"/>
<text text-anchor="middle" x="810" y="-367" font-family="Helvetica,sans-Serif" font-size="10.00">Om::Language::Expression</text>
</a>
</g>
</g>
<!-- Node34&#45;&gt;Node35 -->
<g id="edge32" class="edge"><title>Node34&#45;&gt;Node35</title>
<path fill="none" stroke="midnightblue" d="M689.987,-370C707.152,-370 724.9,-370 741.283,-370"/>
<polygon fill="midnightblue" stroke="midnightblue" points="689.963,-366.5 679.963,-370 689.963,-373.5 689.963,-366.5"/>
</g>
<!-- Node117 -->
<g id="node35" class="node"><title>Node117</title>
<g id="a_node35"><a xlink:href="class_om_1_1_language_1_1_producer.html" target="_top" xlink:title="An Element giver; gives from the front.">
<polygon fill="none" stroke="black" points="123.855,-141 123.855,-159 252.145,-159 252.145,-141 123.855,-141"/>
<text text-anchor="middle" x="188" y="-147" font-family="Helvetica,sans-Serif" font-size="10.00">Om::Language::Producer</text>
</a>
</g>
</g>
<!-- Node117&#45;&gt;Node13 -->
<g id="edge35" class="edge"><title>Node117&#45;&gt;Node13</title>
<path fill="none" stroke="midnightblue" d="M246.362,-139.101C276.525,-133.37 313.056,-126.429 341.597,-121.007"/>
<polygon fill="midnightblue" stroke="midnightblue" points="245.568,-135.689 236.397,-140.995 246.875,-142.566 245.568,-135.689"/>
</g>
<!-- Node117&#45;&gt;Node22 -->
<g id="edge34" class="edge"><title>Node117&#45;&gt;Node22</title>
<path fill="none" stroke="midnightblue" d="M262.526,-150C340.34,-150 461.91,-150 535.933,-150"/>
<polygon fill="midnightblue" stroke="midnightblue" points="262.318,-146.5 252.318,-150 262.318,-153.5 262.318,-146.5"/>
</g>
<!-- Node119 -->
<g id="node36" class="node"><title>Node119</title>
<g id="a_node36"><a xlink:href="class_om_1_1_language_1_1_translator.html" target="_top" xlink:title="An Operator lookup for use by an Evaluator.">
<polygon fill="none" stroke="black" points="534.819,-178 534.819,-196 667.181,-196 667.181,-178 534.819,-178"/>
<text text-anchor="middle" x="601" y="-184" font-family="Helvetica,sans-Serif" font-size="10.00">Om::Language::Translator</text>
</a>
</g>
</g>
<!-- Node119&#45;&gt;Node33 -->
<g id="edge37" class="edge"><title>Node119&#45;&gt;Node33</title>
<path fill="none" stroke="midnightblue" d="M650.885,-198.474C660.558,-200.866 670.619,-203.441 680,-206 714.874,-215.512 754.64,-227.747 780.691,-235.955"/>
<polygon fill="midnightblue" stroke="midnightblue" points="651.534,-195.029 640.989,-196.055 649.872,-201.829 651.534,-195.029"/>
</g>
<!-- Node120 -->
<g id="node37" class="node"><title>Node120</title>
<g id="a_node37"><a xlink:href="class_om_1_1_language_1_1_environment.html" target="_top" xlink:title="An unowned Translator collection for which lookups are done for each Translator, in reverse order,...">
<polygon fill="none" stroke="black" points="738.074,-151 738.074,-169 881.926,-169 881.926,-151 738.074,-151"/>
<text text-anchor="middle" x="810" y="-157" font-family="Helvetica,sans-Serif" font-size="10.00">Om::Language::Environment</text>
</a>
</g>
</g>
<!-- Node119&#45;&gt;Node120 -->
<g id="edge36" class="edge"><title>Node119&#45;&gt;Node120</title>
<path fill="none" stroke="midnightblue" d="M677.401,-177.165C697.802,-174.504 719.78,-171.637 739.822,-169.023"/>
<polygon fill="midnightblue" stroke="midnightblue" points="676.675,-173.73 667.212,-178.494 677.581,-180.671 676.675,-173.73"/>
</g>
<!-- Node121 -->
<g id="node38" class="node"><title>Node121</title>
<g id="a_node38"><a xlink:href="class_om_1_1_language_1_1_system.html" target="_top" xlink:title="Translates an Operator to an Operation.">
<polygon fill="none" stroke="black" points="749.473,-188 749.473,-206 870.527,-206 870.527,-188 749.473,-188"/>
<text text-anchor="middle" x="810" y="-194" font-family="Helvetica,sans-Serif" font-size="10.00">Om::Language::System</text>
</a>
</g>
</g>
<!-- Node119&#45;&gt;Node121 -->
<g id="edge38" class="edge"><title>Node119&#45;&gt;Node121</title>
<path fill="none" stroke="midnightblue" d="M677.242,-190.635C700.989,-191.782 726.886,-193.033 749.386,-194.12"/>
<polygon fill="midnightblue" stroke="midnightblue" points="677.369,-187.137 667.212,-190.15 677.031,-194.129 677.369,-187.137"/>
</g>
<!-- Node124 -->
<g id="node39" class="node"><title>Node124</title>
<g id="a_node39"><a xlink:href="class_om_1_1_moveable.html" target="_top" xlink:title="An object that can be passed to Move to be moved.">
<polygon fill="none" stroke="black" points="0.487793,-71 0.487793,-89 81.5122,-89 81.5122,-71 0.487793,-71"/>
<text text-anchor="middle" x="41" y="-77" font-family="Helvetica,sans-Serif" font-size="10.00">Om::Moveable</text>
</a>
</g>
</g>
<!-- Node124&#45;&gt;Node12 -->
<g id="edge40" class="edge"><title>Node124&#45;&gt;Node12</title>
<path fill="none" stroke="midnightblue" d="M91.5738,-91.2823C110.514,-95.5928 131.781,-100.433 149.423,-104.448"/>
<polygon fill="midnightblue" stroke="midnightblue" points="92.1493,-87.8239 81.6219,-89.0174 90.5958,-94.6493 92.1493,-87.8239"/>
</g>
<!-- Node125 -->
<g id="node40" class="node"><title>Node125</title>
<g id="a_node40"><a xlink:href="class_om_1_1_default_moveable.html" target="_top" xlink:title="A partial implementation of Moveable.">
<polygon fill="none" stroke="black" points="130.759,-0 130.759,-38 245.241,-38 245.241,-0 130.759,-0"/>
<text text-anchor="start" x="138.759" y="-26" font-family="Helvetica,sans-Serif" font-size="10.00">Om::DefaultMoveable</text>
<text text-anchor="start" x="138.759" y="-16" font-family="Helvetica,sans-Serif" font-size="10.00">&lt; ThisImplementation,</text>
<text text-anchor="middle" x="188" y="-6" font-family="Helvetica,sans-Serif" font-size="10.00"> ThisInterface &gt;</text>
</a>
</g>
</g>
<!-- Node124&#45;&gt;Node125 -->
<g id="edge39" class="edge"><title>Node124&#45;&gt;Node125</title>
<path fill="none" stroke="midnightblue" d="M71.752,-66.8836C85.7521,-60.7623 102.698,-53.4257 118,-47 124.913,-44.0969 132.236,-41.0719 139.427,-38.1295"/>
<polygon fill="midnightblue" stroke="midnightblue" points="70.3402,-63.6809 62.5866,-70.9011 73.1505,-70.092 70.3402,-63.6809"/>
</g>
<!-- Node126 -->
<g id="node41" class="node"><title>Node126</title>
<g id="a_node41"><a xlink:href="class_om_1_1_shareable.html" target="_top" xlink:title="A pointee for boost::intrusive_ptr.">
<polygon fill="none" stroke="black" points="117.979,-57 117.979,-85 258.021,-85 258.021,-57 117.979,-57"/>
<text text-anchor="start" x="125.979" y="-73" font-family="Helvetica,sans-Serif" font-size="10.00">Om::Shareable&lt; ThisOwner</text>
<text text-anchor="middle" x="188" y="-63" font-family="Helvetica,sans-Serif" font-size="10.00">Count &gt;</text>
</a>
</g>
</g>
<!-- Node126&#45;&gt;Node13 -->
<g id="edge41" class="edge"><title>Node126&#45;&gt;Node13</title>
<path fill="none" stroke="midnightblue" d="M267.521,-87.0968C293.849,-92.4941 322.263,-98.3188 344.985,-102.977"/>
<polygon fill="midnightblue" stroke="midnightblue" points="268.048,-83.6321 257.549,-85.0525 266.642,-90.4895 268.048,-83.6321"/>
</g>
<!-- Node177 -->
<g id="node42" class="node"><title>Node177</title>
<g id="a_node42"><a xlink:href="class_om_1_1_taker.html" target="_top" xlink:title="An object that can take (copy or swap) another of the same type.">
<polygon fill="none" stroke="black" points="306.78,-384 306.78,-402 473.22,-402 473.22,-384 306.78,-384"/>
<text text-anchor="middle" x="390" y="-390" font-family="Helvetica,sans-Serif" font-size="10.00">Om::Taker&lt; ThisImplementation &gt;</text>
</a>
</g>
</g>
<!-- Node177&#45;&gt;Node5 -->
<g id="edge47" class="edge"><title>Node177&#45;&gt;Node5</title>
<path fill="none" stroke="midnightblue" d="M407.063,-409.017C430.205,-430.96 475.299,-469.62 522,-487 560.07,-501.168 804.13,-518.604 939.997,-527.384"/>
<polygon fill="midnightblue" stroke="midnightblue" points="409.447,-406.454 399.827,-402.016 404.58,-411.484 409.447,-406.454"/>
</g>
<!-- Node177&#45;&gt;Node24 -->
<g id="edge42" class="edge"><title>Node177&#45;&gt;Node24</title>
<path fill="none" stroke="midnightblue" d="M425.891,-380.479C458.953,-368.615 509.064,-350.632 547.05,-337.001"/>
<polygon fill="midnightblue" stroke="midnightblue" points="424.44,-377.281 416.21,-383.953 426.805,-383.87 424.44,-377.281"/>
</g>
<!-- Node177&#45;&gt;Node30 -->
<g id="edge43" class="edge"><title>Node177&#45;&gt;Node30</title>
<path fill="none" stroke="midnightblue" d="M479.563,-403.17C493.61,-404.783 508.051,-406.441 521.837,-408.024"/>
<polygon fill="midnightblue" stroke="midnightblue" points="479.753,-399.669 469.419,-402.005 478.954,-406.623 479.753,-399.669"/>
</g>
<!-- Node177&#45;&gt;Node32 -->
<g id="edge44" class="edge"><title>Node177&#45;&gt;Node32</title>
<path fill="none" stroke="midnightblue" d="M423.086,-379.918C442.673,-370.901 467.432,-357.566 486,-341 506.703,-322.529 499.538,-306.286 522,-290 527.391,-286.091 533.432,-282.809 539.702,-280.055"/>
<polygon fill="midnightblue" stroke="midnightblue" points="421.647,-376.728 413.936,-383.994 424.495,-383.122 421.647,-376.728"/>
</g>
<!-- Node177&#45;&gt;Node34 -->
<g id="edge45" class="edge"><title>Node177&#45;&gt;Node34</title>
<path fill="none" stroke="midnightblue" d="M483.291,-382.844C496.207,-381.422 509.375,-379.973 521.992,-378.585"/>
<polygon fill="midnightblue" stroke="midnightblue" points="482.56,-379.403 473.002,-383.976 483.325,-386.361 482.56,-379.403"/>
</g>
<!-- Node178 -->
<g id="node43" class="node"><title>Node178</title>
<g id="a_node43"><a xlink:href="class_om_1_1_owner.html" target="_top" xlink:title=" ">
<polygon fill="none" stroke="black" points="530.053,-450 530.053,-478 671.947,-478 671.947,-450 530.053,-450"/>
<text text-anchor="start" x="538.053" y="-466" font-family="Helvetica,sans-Serif" font-size="10.00">Om::Owner&lt; Om::Language</text>
<text text-anchor="middle" x="601" y="-456" font-family="Helvetica,sans-Serif" font-size="10.00">::Program &gt;</text>
</a>
</g>
</g>
<!-- Node177&#45;&gt;Node178 -->
<g id="edge46" class="edge"><title>Node177&#45;&gt;Node178</title>
<path fill="none" stroke="midnightblue" d="M425.034,-405.696C451.388,-415.409 488.866,-428.965 522,-440 531.947,-443.313 542.661,-446.716 552.868,-449.88"/>
<polygon fill="midnightblue" stroke="midnightblue" points="426.103,-402.36 415.51,-402.174 423.676,-408.925 426.103,-402.36"/>
</g>
</g>
</svg>
