<?xml version="1.0" encoding="UTF-8" standalone="no"?>
<!DOCTYPE svg PUBLIC "-//W3C//DTD SVG 1.1//EN"
 "http://www.w3.org/Graphics/SVG/1.1/DTD/svg11.dtd">
<!-- Generated by graphviz version 2.30.1 (20130221.2233)
 -->
<!-- Title: Graphical Class Hierarchy Pages: 1 -->
<svg width="712pt" height="1135pt"
 viewBox="0.00 0.00 712.00 1135.00" xmlns="http://www.w3.org/2000/svg" xmlns:xlink="http://www.w3.org/1999/xlink">
<g id="graph0" class="graph" transform="scale(1 1) rotate(0) translate(4 1131)">
<title>Graphical Class Hierarchy</title>
<!-- Node1 -->
<g id="node1" class="node"><title>Node1</title>
<g id="a_node1"><a xlink:href="class_om_1_1_operation.html" target="_top" xlink:title="An Operation that has yet to consume one or more Operands, and therefore must live in memory while &quot;i...">
<polygon fill="none" stroke="black" points="0.209473,-562 0.209473,-582 81.7905,-582 81.7905,-562 0.209473,-562"/>
<text text-anchor="middle" x="41" y="-568" font-family="Helvetica,sans-Serif" font-size="10.00">Om::Operation</text>
</a>
</g>
</g>
<!-- Node2 -->
<g id="node2" class="node"><title>Node2</title>
<g id="a_node2"><a xlink:href="class_om_1_1_default_operation.html" target="_top" xlink:title="Om::DefaultOperation\l\&lt; ChooseOperation \&gt;">
<polygon fill="none" stroke="black" points="157.367,-1095 157.367,-1127 270.633,-1127 270.633,-1095 157.367,-1095"/>
<text text-anchor="start" x="165.367" y="-1113" font-family="Helvetica,sans-Serif" font-size="10.00">Om::DefaultOperation</text>
<text text-anchor="middle" x="214" y="-1101" font-family="Helvetica,sans-Serif" font-size="10.00">&lt; ChooseOperation &gt;</text>
</a>
</g>
</g>
<!-- Node1&#45;&gt;Node2 -->
<g id="edge1" class="edge"><title>Node1&#45;&gt;Node2</title>
<path fill="none" stroke="midnightblue" d="M42.1531,-592.456C43.2145,-678.51 51.6155,-1010.13 118,-1085 128.096,-1096.39 142.655,-1103 157.352,-1106.78"/>
<polygon fill="midnightblue" stroke="midnightblue" points="45.6504,-592.159 42.0484,-582.195 38.6507,-592.23 45.6504,-592.159"/>
</g>
<!-- Node4 -->
<g id="node4" class="node"><title>Node4</title>
<g id="a_node4"><a xlink:href="class_om_1_1_default_operation.html" target="_top" xlink:title="Om::DefaultOperation\l\&lt; CopyOperation \&gt;">
<polygon fill="none" stroke="black" points="157.367,-1044 157.367,-1076 270.633,-1076 270.633,-1044 157.367,-1044"/>
<text text-anchor="start" x="165.367" y="-1062" font-family="Helvetica,sans-Serif" font-size="10.00">Om::DefaultOperation</text>
<text text-anchor="middle" x="214" y="-1050" font-family="Helvetica,sans-Serif" font-size="10.00">&lt; CopyOperation &gt;</text>
</a>
</g>
</g>
<!-- Node1&#45;&gt;Node4 -->
<g id="edge3" class="edge"><title>Node1&#45;&gt;Node4</title>
<path fill="none" stroke="midnightblue" d="M42.5295,-592.708C45.0186,-673.659 58.1024,-967.518 118,-1034 128.072,-1045.18 142.445,-1051.75 156.972,-1055.55"/>
<polygon fill="midnightblue" stroke="midnightblue" points="46.0182,-592.258 42.2349,-582.362 39.0211,-592.457 46.0182,-592.258"/>
</g>
<!-- Node6 -->
<g id="node6" class="node"><title>Node6</title>
<g id="a_node6"><a xlink:href="class_om_1_1_default_operation.html" target="_top" xlink:title="Om::DefaultOperation\l\&lt; DecodeOperation \&gt;">
<polygon fill="none" stroke="black" points="157.367,-993 157.367,-1025 270.633,-1025 270.633,-993 157.367,-993"/>
<text text-anchor="start" x="165.367" y="-1011" font-family="Helvetica,sans-Serif" font-size="10.00">Om::DefaultOperation</text>
<text text-anchor="middle" x="214" y="-999" font-family="Helvetica,sans-Serif" font-size="10.00">&lt; DecodeOperation &gt;</text>
</a>
</g>
</g>
<!-- Node1&#45;&gt;Node6 -->
<g id="edge5" class="edge"><title>Node1&#45;&gt;Node6</title>
<path fill="none" stroke="midnightblue" d="M42.9725,-592.327C46.9515,-666.978 64.4057,-924.686 118,-983 128.183,-994.079 142.59,-1000.61 157.115,-1004.42"/>
<polygon fill="midnightblue" stroke="midnightblue" points="46.4676,-592.139 42.4632,-582.33 39.4766,-592.495 46.4676,-592.139"/>
</g>
<!-- Node8 -->
<g id="node8" class="node"><title>Node8</title>
<g id="a_node8"><a xlink:href="class_om_1_1_default_operation.html" target="_top" xlink:title="Om::DefaultOperation\l\&lt; DefineOperation \&gt;">
<polygon fill="none" stroke="black" points="157.367,-942 157.367,-974 270.633,-974 270.633,-942 157.367,-942"/>
<text text-anchor="start" x="165.367" y="-960" font-family="Helvetica,sans-Serif" font-size="10.00">Om::DefaultOperation</text>
<text text-anchor="middle" x="214" y="-948" font-family="Helvetica,sans-Serif" font-size="10.00">&lt; DefineOperation &gt;</text>
</a>
</g>
</g>
<!-- Node1&#45;&gt;Node8 -->
<g id="edge7" class="edge"><title>Node1&#45;&gt;Node8</title>
<path fill="none" stroke="midnightblue" d="M43.5574,-592.389C49.201,-660.985 70.7832,-881.908 118,-932 128.321,-942.95 142.772,-949.444 157.294,-953.252"/>
<polygon fill="midnightblue" stroke="midnightblue" points="47.019,-591.767 42.7361,-582.076 40.0411,-592.322 47.019,-591.767"/>
</g>
<!-- Node10 -->
<g id="node10" class="node"><title>Node10</title>
<g id="a_node10"><a xlink:href="class_om_1_1_default_operation.html" target="_top" xlink:title="Om::DefaultOperation\l\&lt; DequoteOperation \&gt;">
<polygon fill="none" stroke="black" points="156.52,-891 156.52,-923 271.48,-923 271.48,-891 156.52,-891"/>
<text text-anchor="start" x="164.52" y="-909" font-family="Helvetica,sans-Serif" font-size="10.00">Om::DefaultOperation</text>
<text text-anchor="middle" x="214" y="-897" font-family="Helvetica,sans-Serif" font-size="10.00">&lt; DequoteOperation &gt;</text>
</a>
</g>
</g>
<!-- Node1&#45;&gt;Node10 -->
<g id="edge9" class="edge"><title>Node1&#45;&gt;Node10</title>
<path fill="none" stroke="midnightblue" d="M44.3116,-592.278C51.7635,-654.173 77.0782,-839.001 118,-881 128.143,-891.41 142.024,-897.774 156.042,-901.63"/>
<polygon fill="midnightblue" stroke="midnightblue" points="47.7721,-591.736 43.1282,-582.213 40.82,-592.554 47.7721,-591.736"/>
</g>
<!-- Node12 -->
<g id="node12" class="node"><title>Node12</title>
<g id="a_node12"><a xlink:href="class_om_1_1_default_operation.html" target="_top" xlink:title="Om::DefaultOperation\l\&lt; DropOperation \&gt;">
<polygon fill="none" stroke="black" points="157.367,-840 157.367,-872 270.633,-872 270.633,-840 157.367,-840"/>
<text text-anchor="start" x="165.367" y="-858" font-family="Helvetica,sans-Serif" font-size="10.00">Om::DefaultOperation</text>
<text text-anchor="middle" x="214" y="-846" font-family="Helvetica,sans-Serif" font-size="10.00">&lt; DropOperation &gt;</text>
</a>
</g>
</g>
<!-- Node1&#45;&gt;Node12 -->
<g id="edge11" class="edge"><title>Node1&#45;&gt;Node12</title>
<path fill="none" stroke="midnightblue" d="M41.7239,-592.243C42.2115,-640.594 50.4133,-763.707 118,-830 128.621,-840.417 142.994,-846.757 157.344,-850.587"/>
<polygon fill="midnightblue" stroke="midnightblue" points="45.2239,-592.125 41.7288,-582.123 38.2239,-592.121 45.2239,-592.125"/>
</g>
<!-- Node14 -->
<g id="node14" class="node"><title>Node14</title>
<g id="a_node14"><a xlink:href="class_om_1_1_default_operation.html" target="_top" xlink:title="Om::DefaultOperation\l\&lt; EncodeOperation \&gt;">
<polygon fill="none" stroke="black" points="157.367,-789 157.367,-821 270.633,-821 270.633,-789 157.367,-789"/>
<text text-anchor="start" x="165.367" y="-807" font-family="Helvetica,sans-Serif" font-size="10.00">Om::DefaultOperation</text>
<text text-anchor="middle" x="214" y="-795" font-family="Helvetica,sans-Serif" font-size="10.00">&lt; EncodeOperation &gt;</text>
</a>
</g>
</g>
<!-- Node1&#45;&gt;Node14 -->
<g id="edge13" class="edge"><title>Node1&#45;&gt;Node14</title>
<path fill="none" stroke="midnightblue" d="M43.4597,-592.4C47.5442,-633.839 62.7351,-728.23 118,-779 128.83,-788.949 143.104,-795.147 157.287,-798.993"/>
<polygon fill="midnightblue" stroke="midnightblue" points="46.9445,-592.072 42.594,-582.411 39.9706,-592.676 46.9445,-592.072"/>
</g>
<!-- Node16 -->
<g id="node16" class="node"><title>Node16</title>
<g id="a_node16"><a xlink:href="class_om_1_1_default_operation.html" target="_top" xlink:title="Om::DefaultOperation\l\&lt; EqualsOperation \&gt;">
<polygon fill="none" stroke="black" points="157.367,-738 157.367,-770 270.633,-770 270.633,-738 157.367,-738"/>
<text text-anchor="start" x="165.367" y="-756" font-family="Helvetica,sans-Serif" font-size="10.00">Om::DefaultOperation</text>
<text text-anchor="middle" x="214" y="-744" font-family="Helvetica,sans-Serif" font-size="10.00">&lt; EqualsOperation &gt;</text>
</a>
</g>
</g>
<!-- Node1&#45;&gt;Node16 -->
<g id="edge15" class="edge"><title>Node1&#45;&gt;Node16</title>
<path fill="none" stroke="midnightblue" d="M46.1518,-592.119C54.0978,-625.465 74.6624,-692.064 118,-728 129.057,-737.168 143.086,-743.119 156.946,-746.977"/>
<polygon fill="midnightblue" stroke="midnightblue" points="49.5264,-591.172 43.9262,-582.178 42.6955,-592.701 49.5264,-591.172"/>
</g>
<!-- Node18 -->
<g id="node18" class="node"><title>Node18</title>
<g id="a_node18"><a xlink:href="class_om_1_1_default_operation.html" target="_top" xlink:title="Om::DefaultOperation\l\&lt; EvaluateOperation \&gt;">
<polygon fill="none" stroke="black" points="155.966,-687 155.966,-719 272.034,-719 272.034,-687 155.966,-687"/>
<text text-anchor="start" x="163.966" y="-705" font-family="Helvetica,sans-Serif" font-size="10.00">Om::DefaultOperation</text>
<text text-anchor="middle" x="214" y="-693" font-family="Helvetica,sans-Serif" font-size="10.00">&lt; EvaluateOperation &gt;</text>
</a>
</g>
</g>
<!-- Node1&#45;&gt;Node18 -->
<g id="edge17" class="edge"><title>Node1&#45;&gt;Node18</title>
<path fill="none" stroke="midnightblue" d="M50.8225,-591.223C62.7087,-614.966 86.1108,-654.915 118,-677 129.105,-684.691 142.404,-690.111 155.484,-693.93"/>
<polygon fill="midnightblue" stroke="midnightblue" points="53.9383,-589.626 46.4423,-582.139 47.633,-592.667 53.9383,-589.626"/>
</g>
<!-- Node20 -->
<g id="node20" class="node"><title>Node20</title>
<g id="a_node20"><a xlink:href="class_om_1_1_default_operation.html" target="_top" xlink:title="Om::DefaultOperation\l\&lt; FillOperation \&gt;">
<polygon fill="none" stroke="black" points="157.367,-636 157.367,-668 270.633,-668 270.633,-636 157.367,-636"/>
<text text-anchor="start" x="165.367" y="-654" font-family="Helvetica,sans-Serif" font-size="10.00">Om::DefaultOperation</text>
<text text-anchor="middle" x="214" y="-642" font-family="Helvetica,sans-Serif" font-size="10.00">&lt; FillOperation &gt;</text>
</a>
</g>
</g>
<!-- Node1&#45;&gt;Node20 -->
<g id="edge19" class="edge"><title>Node1&#45;&gt;Node20</title>
<path fill="none" stroke="midnightblue" d="M61.3998,-588.706C76.085,-600.597 97.2132,-616.152 118,-626 130.208,-631.784 143.928,-636.474 157.065,-640.195"/>
<polygon fill="midnightblue" stroke="midnightblue" points="63.482,-585.886 53.5493,-582.199 59.0149,-591.275 63.482,-585.886"/>
</g>
<!-- Node22 -->
<g id="node22" class="node"><title>Node22</title>
<g id="a_node22"><a xlink:href="class_om_1_1_default_operation.html" target="_top" xlink:title="Om::DefaultOperation\l\&lt; FindOperation \&gt;">
<polygon fill="none" stroke="black" points="157.367,-585 157.367,-617 270.633,-617 270.633,-585 157.367,-585"/>
<text text-anchor="start" x="165.367" y="-603" font-family="Helvetica,sans-Serif" font-size="10.00">Om::DefaultOperation</text>
<text text-anchor="middle" x="214" y="-591" font-family="Helvetica,sans-Serif" font-size="10.00">&lt; FindOperation &gt;</text>
</a>
</g>
</g>
<!-- Node1&#45;&gt;Node22 -->
<g id="edge21" class="edge"><title>Node1&#45;&gt;Node22</title>
<path fill="none" stroke="midnightblue" d="M92.1465,-580.504C112.594,-583.972 136.316,-587.995 157.301,-591.554"/>
<polygon fill="midnightblue" stroke="midnightblue" points="92.5364,-577.021 82.0919,-578.799 91.3659,-583.922 92.5364,-577.021"/>
</g>
<!-- Node24 -->
<g id="node24" class="node"><title>Node24</title>
<g id="a_node24"><a xlink:href="class_om_1_1_default_operation.html" target="_top" xlink:title="Om::DefaultOperation\l\&lt; FrontPushOperation\l\&lt; ThisProgram, ThisImplementation \&gt; \&gt;">
<polygon fill="none" stroke="black" points="118.222,-522 118.222,-566 309.778,-566 309.778,-522 118.222,-522"/>
<text text-anchor="start" x="126.222" y="-552" font-family="Helvetica,sans-Serif" font-size="10.00">Om::DefaultOperation</text>
<text text-anchor="start" x="126.222" y="-540" font-family="Helvetica,sans-Serif" font-size="10.00">&lt; FrontPushOperation</text>
<text text-anchor="middle" x="214" y="-528" font-family="Helvetica,sans-Serif" font-size="10.00">&lt; ThisProgram, ThisImplementation &gt; &gt;</text>
</a>
</g>
</g>
<!-- Node1&#45;&gt;Node24 -->
<g id="edge23" class="edge"><title>Node1&#45;&gt;Node24</title>
<path fill="none" stroke="midnightblue" d="M92.1921,-563.781C100.412,-562.435 109.16,-561.003 118.047,-559.548"/>
<polygon fill="midnightblue" stroke="midnightblue" points="91.3949,-560.365 82.0919,-565.435 92.5261,-567.273 91.3949,-560.365"/>
</g>
<!-- Node26 -->
<g id="node26" class="node"><title>Node26</title>
<g id="a_node26"><a xlink:href="class_om_1_1_default_operation.html" target="_top" xlink:title="Om::DefaultOperation\l\&lt; InjectOperation \&gt;">
<polygon fill="none" stroke="black" points="157.367,-471 157.367,-503 270.633,-503 270.633,-471 157.367,-471"/>
<text text-anchor="start" x="165.367" y="-489" font-family="Helvetica,sans-Serif" font-size="10.00">Om::DefaultOperation</text>
<text text-anchor="middle" x="214" y="-477" font-family="Helvetica,sans-Serif" font-size="10.00">&lt; InjectOperation &gt;</text>
</a>
</g>
</g>
<!-- Node1&#45;&gt;Node26 -->
<g id="edge25" class="edge"><title>Node1&#45;&gt;Node26</title>
<path fill="none" stroke="midnightblue" d="M60.1193,-554.574C74.6973,-541.43 96.2688,-523.865 118,-513 130.083,-506.959 143.755,-502.17 156.885,-498.436"/>
<polygon fill="midnightblue" stroke="midnightblue" points="57.3603,-552.359 52.3959,-561.718 62.1136,-557.497 57.3603,-552.359"/>
</g>
<!-- Node28 -->
<g id="node28" class="node"><title>Node28</title>
<g id="a_node28"><a xlink:href="class_om_1_1_default_operation.html" target="_top" xlink:title="Om::DefaultOperation\l\&lt; NormalizeOperation \&gt;">
<polygon fill="none" stroke="black" points="152.919,-420 152.919,-452 275.081,-452 275.081,-420 152.919,-420"/>
<text text-anchor="start" x="160.919" y="-438" font-family="Helvetica,sans-Serif" font-size="10.00">Om::DefaultOperation</text>
<text text-anchor="middle" x="214" y="-426" font-family="Helvetica,sans-Serif" font-size="10.00">&lt; NormalizeOperation &gt;</text>
</a>
</g>
</g>
<!-- Node1&#45;&gt;Node28 -->
<g id="edge27" class="edge"><title>Node1&#45;&gt;Node28</title>
<path fill="none" stroke="midnightblue" d="M50.2509,-552.572C61.7753,-527.792 85.046,-485.361 118,-462 128.323,-454.682 140.616,-449.422 152.877,-445.642"/>
<polygon fill="midnightblue" stroke="midnightblue" points="47.0505,-551.155 46.1618,-561.712 53.4403,-554.013 47.0505,-551.155"/>
</g>
<!-- Node30 -->
<g id="node30" class="node"><title>Node30</title>
<g id="a_node30"><a xlink:href="class_om_1_1_default_operation.html" target="_top" xlink:title="Om::DefaultOperation\l\&lt; PairOperation \&gt;">
<polygon fill="none" stroke="black" points="157.367,-369 157.367,-401 270.633,-401 270.633,-369 157.367,-369"/>
<text text-anchor="start" x="165.367" y="-387" font-family="Helvetica,sans-Serif" font-size="10.00">Om::DefaultOperation</text>
<text text-anchor="middle" x="214" y="-375" font-family="Helvetica,sans-Serif" font-size="10.00">&lt; PairOperation &gt;</text>
</a>
</g>
</g>
<!-- Node1&#45;&gt;Node30 -->
<g id="edge29" class="edge"><title>Node1&#45;&gt;Node30</title>
<path fill="none" stroke="midnightblue" d="M45.8458,-551.741C53.4194,-517.512 73.5513,-448.321 118,-411 129.131,-401.654 143.344,-395.648 157.365,-391.794"/>
<polygon fill="midnightblue" stroke="midnightblue" points="42.3401,-551.411 43.7418,-561.913 49.1949,-552.829 42.3401,-551.411"/>
</g>
<!-- Node32 -->
<g id="node32" class="node"><title>Node32</title>
<g id="a_node32"><a xlink:href="class_om_1_1_default_operation.html" target="_top" xlink:title="Om::DefaultOperation\l\&lt; ProgramOperation\&lt; ThisProgram \&gt; \&gt;">
<polygon fill="none" stroke="black" points="119.103,-318 119.103,-350 308.897,-350 308.897,-318 119.103,-318"/>
<text text-anchor="start" x="127.103" y="-336" font-family="Helvetica,sans-Serif" font-size="10.00">Om::DefaultOperation</text>
<text text-anchor="middle" x="214" y="-324" font-family="Helvetica,sans-Serif" font-size="10.00">&lt; ProgramOperation&lt; ThisProgram &gt; &gt;</text>
</a>
</g>
</g>
<!-- Node1&#45;&gt;Node32 -->
<g id="edge31" class="edge"><title>Node1&#45;&gt;Node32</title>
<path fill="none" stroke="midnightblue" d="M43.2461,-551.71C46.9492,-509.605 61.4931,-412.311 118,-360 122.141,-356.167 126.793,-352.889 131.755,-350.089"/>
<polygon fill="midnightblue" stroke="midnightblue" points="39.7455,-551.586 42.4769,-561.823 46.7253,-552.117 39.7455,-551.586"/>
</g>
<!-- Node34 -->
<g id="node34" class="node"><title>Node34</title>
<g id="a_node34"><a xlink:href="class_om_1_1_default_operation.html" target="_top" xlink:title="Om::DefaultOperation\l\&lt; PullOperation\&lt; ThisProgram,\l ThisImplementation \&gt; \&gt;">
<polygon fill="none" stroke="black" points="137.167,-255 137.167,-299 290.833,-299 290.833,-255 137.167,-255"/>
<text text-anchor="start" x="145.167" y="-285" font-family="Helvetica,sans-Serif" font-size="10.00">Om::DefaultOperation</text>
<text text-anchor="start" x="145.167" y="-273" font-family="Helvetica,sans-Serif" font-size="10.00">&lt; PullOperation&lt; ThisProgram,</text>
<text text-anchor="middle" x="214" y="-261" font-family="Helvetica,sans-Serif" font-size="10.00"> ThisImplementation &gt; &gt;</text>
</a>
</g>
</g>
<!-- Node1&#45;&gt;Node34 -->
<g id="edge33" class="edge"><title>Node1&#45;&gt;Node34</title>
<path fill="none" stroke="midnightblue" d="M41.8473,-551.628C42.607,-502.92 51.3638,-378.606 118,-309 123.416,-303.343 129.863,-298.686 136.812,-294.852"/>
<polygon fill="midnightblue" stroke="midnightblue" points="38.3465,-551.8 41.7931,-561.818 45.3464,-551.837 38.3465,-551.8"/>
</g>
<!-- Node36 -->
<g id="node36" class="node"><title>Node36</title>
<g id="a_node36"><a xlink:href="class_om_1_1_default_operation.html" target="_top" xlink:title="Om::DefaultOperation\l\&lt; QuoteOperation \&gt;">
<polygon fill="none" stroke="black" points="157.367,-204 157.367,-236 270.633,-236 270.633,-204 157.367,-204"/>
<text text-anchor="start" x="165.367" y="-222" font-family="Helvetica,sans-Serif" font-size="10.00">Om::DefaultOperation</text>
<text text-anchor="middle" x="214" y="-210" font-family="Helvetica,sans-Serif" font-size="10.00">&lt; QuoteOperation &gt;</text>
</a>
</g>
</g>
<!-- Node1&#45;&gt;Node36 -->
<g id="edge35" class="edge"><title>Node1&#45;&gt;Node36</title>
<path fill="none" stroke="midnightblue" d="M44.0148,-551.878C50.816,-487.898 74.942,-290.731 118,-246 128.317,-235.282 142.594,-228.846 156.947,-225.02"/>
<polygon fill="midnightblue" stroke="midnightblue" points="40.5257,-551.592 42.9767,-561.9 47.4884,-552.314 40.5257,-551.592"/>
</g>
<!-- Node38 -->
<g id="node38" class="node"><title>Node38</title>
<g id="a_node38"><a xlink:href="class_om_1_1_default_operation.html" target="_top" xlink:title="Om::DefaultOperation\l\&lt; SkipOperation \&gt;">
<polygon fill="none" stroke="black" points="157.367,-153 157.367,-185 270.633,-185 270.633,-153 157.367,-153"/>
<text text-anchor="start" x="165.367" y="-171" font-family="Helvetica,sans-Serif" font-size="10.00">Om::DefaultOperation</text>
<text text-anchor="middle" x="214" y="-159" font-family="Helvetica,sans-Serif" font-size="10.00">&lt; SkipOperation &gt;</text>
</a>
</g>
</g>
<!-- Node1&#45;&gt;Node38 -->
<g id="edge37" class="edge"><title>Node1&#45;&gt;Node38</title>
<path fill="none" stroke="midnightblue" d="M43.3497,-551.567C48.4287,-480.828 68.6768,-247.808 118,-195 128.271,-184.003 142.707,-177.494 157.23,-173.687"/>
<polygon fill="midnightblue" stroke="midnightblue" points="39.8394,-551.595 42.64,-561.813 46.8227,-552.079 39.8394,-551.595"/>
</g>
<!-- Node40 -->
<g id="node40" class="node"><title>Node40</title>
<g id="a_node40"><a xlink:href="class_om_1_1_default_operation.html" target="_top" xlink:title="Om::DefaultOperation\l\&lt; SubstituteOperation \&gt;">
<polygon fill="none" stroke="black" points="153.188,-102 153.188,-134 274.812,-134 274.812,-102 153.188,-102"/>
<text text-anchor="start" x="161.188" y="-120" font-family="Helvetica,sans-Serif" font-size="10.00">Om::DefaultOperation</text>
<text text-anchor="middle" x="214" y="-108" font-family="Helvetica,sans-Serif" font-size="10.00">&lt; SubstituteOperation &gt;</text>
</a>
</g>
</g>
<!-- Node1&#45;&gt;Node40 -->
<g id="edge39" class="edge"><title>Node1&#45;&gt;Node40</title>
<path fill="none" stroke="midnightblue" d="M42.8241,-551.345C46.3133,-474.299 62.3558,-204.978 118,-144 127.221,-133.895 139.956,-127.567 153.109,-123.641"/>
<polygon fill="midnightblue" stroke="midnightblue" points="39.3145,-551.495 42.3823,-561.636 46.308,-551.796 39.3145,-551.495"/>
</g>
<!-- Node43 -->
<g id="node43" class="node"><title>Node43</title>
<g id="a_node43"><a xlink:href="class_om_1_1_default_operation.html" target="_top" xlink:title="Om::DefaultOperation\l\&lt; SwapOperation \&gt;">
<polygon fill="none" stroke="black" points="157.367,-51 157.367,-83 270.633,-83 270.633,-51 157.367,-51"/>
<text text-anchor="start" x="165.367" y="-69" font-family="Helvetica,sans-Serif" font-size="10.00">Om::DefaultOperation</text>
<text text-anchor="middle" x="214" y="-57" font-family="Helvetica,sans-Serif" font-size="10.00">&lt; SwapOperation &gt;</text>
</a>
</g>
</g>
<!-- Node1&#45;&gt;Node43 -->
<g id="edge42" class="edge"><title>Node1&#45;&gt;Node43</title>
<path fill="none" stroke="midnightblue" d="M42.364,-551.527C44.2506,-468.909 55.435,-161.177 118,-92 128.067,-80.8691 142.439,-74.4366 156.966,-70.7876"/>
<polygon fill="midnightblue" stroke="midnightblue" points="38.8624,-551.572 42.1551,-561.643 45.8609,-551.717 38.8624,-551.572"/>
</g>
<!-- Node45 -->
<g id="node45" class="node"><title>Node45</title>
<g id="a_node45"><a xlink:href="class_om_1_1_default_operation.html" target="_top" xlink:title="A partial implementation of Operation. ">
<polygon fill="none" stroke="black" points="153.839,-0 153.839,-32 274.161,-32 274.161,-0 153.839,-0"/>
<text text-anchor="start" x="161.839" y="-18" font-family="Helvetica,sans-Serif" font-size="10.00">Om::DefaultOperation</text>
<text text-anchor="middle" x="214" y="-6" font-family="Helvetica,sans-Serif" font-size="10.00">&lt; ThisImplementation &gt;</text>
</a>
</g>
</g>
<!-- Node1&#45;&gt;Node45 -->
<g id="edge44" class="edge"><title>Node1&#45;&gt;Node45</title>
<path fill="none" stroke="midnightblue" d="M42.0196,-551.655C42.5228,-463.876 48.9273,-118.523 118,-41 127.19,-30.6859 140.075,-24.3959 153.397,-20.616"/>
<polygon fill="midnightblue" stroke="midnightblue" points="38.519,-551.86 41.9824,-561.873 45.5189,-551.886 38.519,-551.86"/>
</g>
<!-- Node3 -->
<g id="node3" class="node"><title>Node3</title>
<g id="a_node3"><a xlink:href="class_om_1_1_operations_1_1_choose_operation.html" target="_top" xlink:title="The choose operation implementation. ">
<polygon fill="none" stroke="black" points="352.739,-1101 352.739,-1121 523.261,-1121 523.261,-1101 352.739,-1101"/>
<text text-anchor="middle" x="438" y="-1107" font-family="Helvetica,sans-Serif" font-size="10.00">Om::Operations::ChooseOperation</text>
</a>
</g>
</g>
<!-- Node2&#45;&gt;Node3 -->
<g id="edge2" class="edge"><title>Node2&#45;&gt;Node3</title>
<path fill="none" stroke="midnightblue" d="M280.854,-1111C303.377,-1111 328.889,-1111 352.666,-1111"/>
<polygon fill="midnightblue" stroke="midnightblue" points="280.733,-1107.5 270.733,-1111 280.733,-1114.5 280.733,-1107.5"/>
</g>
<!-- Node5 -->
<g id="node5" class="node"><title>Node5</title>
<g id="a_node5"><a xlink:href="class_om_1_1_operations_1_1_copy_operation.html" target="_top" xlink:title="The copy operation implementation. ">
<polygon fill="none" stroke="black" points="358.301,-1050 358.301,-1070 517.699,-1070 517.699,-1050 358.301,-1050"/>
<text text-anchor="middle" x="438" y="-1056" font-family="Helvetica,sans-Serif" font-size="10.00">Om::Operations::CopyOperation</text>
</a>
</g>
</g>
<!-- Node4&#45;&gt;Node5 -->
<g id="edge4" class="edge"><title>Node4&#45;&gt;Node5</title>
<path fill="none" stroke="midnightblue" d="M280.902,-1060C305.163,-1060 332.887,-1060 358.173,-1060"/>
<polygon fill="midnightblue" stroke="midnightblue" points="280.733,-1056.5 270.733,-1060 280.733,-1063.5 280.733,-1056.5"/>
</g>
<!-- Node7 -->
<g id="node7" class="node"><title>Node7</title>
<g id="a_node7"><a xlink:href="class_om_1_1_operations_1_1_decode_operation.html" target="_top" xlink:title="The decode operation implementation. ">
<polygon fill="none" stroke="black" points="352.739,-999 352.739,-1019 523.261,-1019 523.261,-999 352.739,-999"/>
<text text-anchor="middle" x="438" y="-1005" font-family="Helvetica,sans-Serif" font-size="10.00">Om::Operations::DecodeOperation</text>
</a>
</g>
</g>
<!-- Node6&#45;&gt;Node7 -->
<g id="edge6" class="edge"><title>Node6&#45;&gt;Node7</title>
<path fill="none" stroke="midnightblue" d="M280.854,-1009C303.377,-1009 328.889,-1009 352.666,-1009"/>
<polygon fill="midnightblue" stroke="midnightblue" points="280.733,-1005.5 270.733,-1009 280.733,-1012.5 280.733,-1005.5"/>
</g>
<!-- Node9 -->
<g id="node9" class="node"><title>Node9</title>
<g id="a_node9"><a xlink:href="class_om_1_1_operations_1_1_define_operation.html" target="_top" xlink:title="The define operation implementation. ">
<polygon fill="none" stroke="black" points="355.52,-948 355.52,-968 520.48,-968 520.48,-948 355.52,-948"/>
<text text-anchor="middle" x="438" y="-954" font-family="Helvetica,sans-Serif" font-size="10.00">Om::Operations::DefineOperation</text>
</a>
</g>
</g>
<!-- Node8&#45;&gt;Node9 -->
<g id="edge8" class="edge"><title>Node8&#45;&gt;Node9</title>
<path fill="none" stroke="midnightblue" d="M280.862,-958C304.191,-958 330.725,-958 355.217,-958"/>
<polygon fill="midnightblue" stroke="midnightblue" points="280.733,-954.5 270.733,-958 280.733,-961.5 280.733,-954.5"/>
</g>
<!-- Node11 -->
<g id="node11" class="node"><title>Node11</title>
<g id="a_node11"><a xlink:href="class_om_1_1_operations_1_1_dequote_operation.html" target="_top" xlink:title="The dequote operation implementation. ">
<polygon fill="none" stroke="black" points="351.069,-897 351.069,-917 524.931,-917 524.931,-897 351.069,-897"/>
<text text-anchor="middle" x="438" y="-903" font-family="Helvetica,sans-Serif" font-size="10.00">Om::Operations::DequoteOperation</text>
</a>
</g>
</g>
<!-- Node10&#45;&gt;Node11 -->
<g id="edge10" class="edge"><title>Node10&#45;&gt;Node11</title>
<path fill="none" stroke="midnightblue" d="M281.684,-907C303.384,-907 327.786,-907 350.708,-907"/>
<polygon fill="midnightblue" stroke="midnightblue" points="281.594,-903.5 271.594,-907 281.594,-910.5 281.594,-903.5"/>
</g>
<!-- Node13 -->
<g id="node13" class="node"><title>Node13</title>
<g id="a_node13"><a xlink:href="class_om_1_1_operations_1_1_drop_operation.html" target="_top" xlink:title="The drop operation implementation. ">
<polygon fill="none" stroke="black" points="359.136,-846 359.136,-866 516.864,-866 516.864,-846 359.136,-846"/>
<text text-anchor="middle" x="438" y="-852" font-family="Helvetica,sans-Serif" font-size="10.00">Om::Operations::DropOperation</text>
</a>
</g>
</g>
<!-- Node12&#45;&gt;Node13 -->
<g id="edge12" class="edge"><title>Node12&#45;&gt;Node13</title>
<path fill="none" stroke="midnightblue" d="M281.003,-856C305.509,-856 333.538,-856 359.014,-856"/>
<polygon fill="midnightblue" stroke="midnightblue" points="280.733,-852.5 270.733,-856 280.733,-859.5 280.733,-852.5"/>
</g>
<!-- Node15 -->
<g id="node15" class="node"><title>Node15</title>
<g id="a_node15"><a xlink:href="class_om_1_1_operations_1_1_encode_operation.html" target="_top" xlink:title="The encode operation implementation. ">
<polygon fill="none" stroke="black" points="353.015,-795 353.015,-815 522.985,-815 522.985,-795 353.015,-795"/>
<text text-anchor="middle" x="438" y="-801" font-family="Helvetica,sans-Serif" font-size="10.00">Om::Operations::EncodeOperation</text>
</a>
</g>
</g>
<!-- Node14&#45;&gt;Node15 -->
<g id="edge14" class="edge"><title>Node14&#45;&gt;Node15</title>
<path fill="none" stroke="midnightblue" d="M280.854,-805C303.377,-805 328.889,-805 352.666,-805"/>
<polygon fill="midnightblue" stroke="midnightblue" points="280.733,-801.5 270.733,-805 280.733,-808.5 280.733,-801.5"/>
</g>
<!-- Node17 -->
<g id="node17" class="node"><title>Node17</title>
<g id="a_node17"><a xlink:href="class_om_1_1_operations_1_1_equals_operation.html" target="_top" xlink:title="The = operation implementation. ">
<polygon fill="none" stroke="black" points="354.685,-744 354.685,-764 521.315,-764 521.315,-744 354.685,-744"/>
<text text-anchor="middle" x="438" y="-750" font-family="Helvetica,sans-Serif" font-size="10.00">Om::Operations::EqualsOperation</text>
</a>
</g>
</g>
<!-- Node16&#45;&gt;Node17 -->
<g id="edge16" class="edge"><title>Node16&#45;&gt;Node17</title>
<path fill="none" stroke="midnightblue" d="M280.758,-754C303.843,-754 330.077,-754 354.368,-754"/>
<polygon fill="midnightblue" stroke="midnightblue" points="280.733,-750.5 270.733,-754 280.733,-757.5 280.733,-750.5"/>
</g>
<!-- Node19 -->
<g id="node19" class="node"><title>Node19</title>
<g id="a_node19"><a xlink:href="class_om_1_1_operations_1_1_evaluate_operation.html" target="_top" xlink:title="The define operation implementation. ">
<polygon fill="none" stroke="black" points="372.473,-687 372.473,-719 503.527,-719 503.527,-687 372.473,-687"/>
<text text-anchor="start" x="380.473" y="-705" font-family="Helvetica,sans-Serif" font-size="10.00">Om::Operations::Evaluate</text>
<text text-anchor="middle" x="438" y="-693" font-family="Helvetica,sans-Serif" font-size="10.00">Operation</text>
</a>
</g>
</g>
<!-- Node18&#45;&gt;Node19 -->
<g id="edge18" class="edge"><title>Node18&#45;&gt;Node19</title>
<path fill="none" stroke="midnightblue" d="M282.444,-703C310.935,-703 343.976,-703 372.178,-703"/>
<polygon fill="midnightblue" stroke="midnightblue" points="282.171,-699.5 272.171,-703 282.17,-706.5 282.171,-699.5"/>
</g>
<!-- Node21 -->
<g id="node21" class="node"><title>Node21</title>
<g id="a_node21"><a xlink:href="class_om_1_1_operations_1_1_fill_operation.html" target="_top" xlink:title="The fill operation implementation. ">
<polygon fill="none" stroke="black" points="363.586,-642 363.586,-662 512.414,-662 512.414,-642 363.586,-642"/>
<text text-anchor="middle" x="438" y="-648" font-family="Helvetica,sans-Serif" font-size="10.00">Om::Operations::FillOperation</text>
</a>
</g>
</g>
<!-- Node20&#45;&gt;Node21 -->
<g id="edge20" class="edge"><title>Node20&#45;&gt;Node21</title>
<path fill="none" stroke="midnightblue" d="M280.82,-652C306.715,-652 336.566,-652 363.189,-652"/>
<polygon fill="midnightblue" stroke="midnightblue" points="280.733,-648.5 270.733,-652 280.733,-655.5 280.733,-648.5"/>
</g>
<!-- Node23 -->
<g id="node23" class="node"><title>Node23</title>
<g id="a_node23"><a xlink:href="class_om_1_1_operations_1_1_find_operation.html" target="_top" xlink:title="The find operation implementation. ">
<polygon fill="none" stroke="black" points="360.247,-591 360.247,-611 515.753,-611 515.753,-591 360.247,-591"/>
<text text-anchor="middle" x="438" y="-597" font-family="Helvetica,sans-Serif" font-size="10.00">Om::Operations::FindOperation</text>
</a>
</g>
</g>
<!-- Node22&#45;&gt;Node23 -->
<g id="edge22" class="edge"><title>Node22&#45;&gt;Node23</title>
<path fill="none" stroke="midnightblue" d="M280.772,-601C305.602,-601 334.075,-601 359.853,-601"/>
<polygon fill="midnightblue" stroke="midnightblue" points="280.733,-597.5 270.733,-601 280.733,-604.5 280.733,-597.5"/>
</g>
<!-- Node25 -->
<g id="node25" class="node"><title>Node25</title>
<g id="a_node25"><a xlink:href="class_om_1_1_operations_1_1_front_push_operation.html" target="_top" xlink:title="An Operation that joins an Operand to the front of a Program. ">
<polygon fill="none" stroke="black" points="368.865,-522 368.865,-566 507.135,-566 507.135,-522 368.865,-522"/>
<text text-anchor="start" x="376.865" y="-552" font-family="Helvetica,sans-Serif" font-size="10.00">Om::Operations::FrontPush</text>
<text text-anchor="start" x="376.865" y="-540" font-family="Helvetica,sans-Serif" font-size="10.00">Operation&lt; ThisProgram,</text>
<text text-anchor="middle" x="438" y="-528" font-family="Helvetica,sans-Serif" font-size="10.00"> ThisImplementation &gt;</text>
</a>
</g>
</g>
<!-- Node24&#45;&gt;Node25 -->
<g id="edge24" class="edge"><title>Node24&#45;&gt;Node25</title>
<path fill="none" stroke="midnightblue" d="M320.05,-544C336.582,-544 353.291,-544 368.704,-544"/>
<polygon fill="midnightblue" stroke="midnightblue" points="319.792,-540.5 309.792,-544 319.792,-547.5 319.792,-540.5"/>
</g>
<!-- Node27 -->
<g id="node27" class="node"><title>Node27</title>
<g id="a_node27"><a xlink:href="class_om_1_1_operations_1_1_inject_operation.html" target="_top" xlink:title="The inject operation implementation. ">
<polygon fill="none" stroke="black" points="358.022,-477 358.022,-497 517.978,-497 517.978,-477 358.022,-477"/>
<text text-anchor="middle" x="438" y="-483" font-family="Helvetica,sans-Serif" font-size="10.00">Om::Operations::InjectOperation</text>
</a>
</g>
</g>
<!-- Node26&#45;&gt;Node27 -->
<g id="edge26" class="edge"><title>Node26&#45;&gt;Node27</title>
<path fill="none" stroke="midnightblue" d="M280.851,-487C304.99,-487 332.562,-487 357.752,-487"/>
<polygon fill="midnightblue" stroke="midnightblue" points="280.733,-483.5 270.733,-487 280.733,-490.5 280.733,-483.5"/>
</g>
<!-- Node29 -->
<g id="node29" class="node"><title>Node29</title>
<g id="a_node29"><a xlink:href="class_om_1_1_operations_1_1_normalize_operation.html" target="_top" xlink:title="The normalize operation implementation. ">
<polygon fill="none" stroke="black" points="369.426,-420 369.426,-452 506.574,-452 506.574,-420 369.426,-420"/>
<text text-anchor="start" x="377.426" y="-438" font-family="Helvetica,sans-Serif" font-size="10.00">Om::Operations::Normalize</text>
<text text-anchor="middle" x="438" y="-426" font-family="Helvetica,sans-Serif" font-size="10.00">Operation</text>
</a>
</g>
</g>
<!-- Node28&#45;&gt;Node29 -->
<g id="edge28" class="edge"><title>Node28&#45;&gt;Node29</title>
<path fill="none" stroke="midnightblue" d="M285.441,-436C312.228,-436 342.669,-436 369.206,-436"/>
<polygon fill="midnightblue" stroke="midnightblue" points="285.369,-432.5 275.369,-436 285.369,-439.5 285.369,-432.5"/>
</g>
<!-- Node31 -->
<g id="node31" class="node"><title>Node31</title>
<g id="a_node31"><a xlink:href="class_om_1_1_operations_1_1_pair_operation.html" target="_top" xlink:title="The pair operation implementation. ">
<polygon fill="none" stroke="black" points="361.082,-375 361.082,-395 514.918,-395 514.918,-375 361.082,-375"/>
<text text-anchor="middle" x="438" y="-381" font-family="Helvetica,sans-Serif" font-size="10.00">Om::Operations::PairOperation</text>
</a>
</g>
</g>
<!-- Node30&#45;&gt;Node31 -->
<g id="edge30" class="edge"><title>Node30&#45;&gt;Node31</title>
<path fill="none" stroke="midnightblue" d="M280.87,-385C305.946,-385 334.726,-385 360.69,-385"/>
<polygon fill="midnightblue" stroke="midnightblue" points="280.733,-381.5 270.733,-385 280.733,-388.5 280.733,-381.5"/>
</g>
<!-- Node33 -->
<g id="node33" class="node"><title>Node33</title>
<g id="a_node33"><a xlink:href="class_om_1_1_operations_1_1_program_operation.html" target="_top" xlink:title="An Operation that normalizes a Program to a specific type. ">
<polygon fill="none" stroke="black" points="350.801,-318 350.801,-350 525.199,-350 525.199,-318 350.801,-318"/>
<text text-anchor="start" x="358.801" y="-336" font-family="Helvetica,sans-Serif" font-size="10.00">Om::Operations::ProgramOperation</text>
<text text-anchor="middle" x="438" y="-324" font-family="Helvetica,sans-Serif" font-size="10.00">&lt; ThisProgram &gt;</text>
</a>
</g>
</g>
<!-- Node32&#45;&gt;Node33 -->
<g id="edge32" class="edge"><title>Node32&#45;&gt;Node33</title>
<path fill="none" stroke="midnightblue" d="M319.158,-334C329.636,-334 340.197,-334 350.464,-334"/>
<polygon fill="midnightblue" stroke="midnightblue" points="319.148,-330.5 309.148,-334 319.148,-337.5 319.148,-330.5"/>
</g>
<!-- Node35 -->
<g id="node35" class="node"><title>Node35</title>
<g id="a_node35"><a xlink:href="class_om_1_1_operations_1_1_pull_operation.html" target="_top" xlink:title="An Operation that pulls part of a Program. ">
<polygon fill="none" stroke="black" points="346.531,-261 346.531,-293 529.469,-293 529.469,-261 346.531,-261"/>
<text text-anchor="start" x="354.531" y="-279" font-family="Helvetica,sans-Serif" font-size="10.00">Om::Operations::PullOperation</text>
<text text-anchor="middle" x="438" y="-267" font-family="Helvetica,sans-Serif" font-size="10.00">&lt; ThisProgram, ThisImplementation &gt;</text>
</a>
</g>
</g>
<!-- Node34&#45;&gt;Node35 -->
<g id="edge34" class="edge"><title>Node34&#45;&gt;Node35</title>
<path fill="none" stroke="midnightblue" d="M301.242,-277C316.07,-277 331.52,-277 346.458,-277"/>
<polygon fill="midnightblue" stroke="midnightblue" points="301.089,-273.5 291.089,-277 301.089,-280.5 301.089,-273.5"/>
</g>
<!-- Node37 -->
<g id="node37" class="node"><title>Node37</title>
<g id="a_node37"><a xlink:href="class_om_1_1_operations_1_1_quote_operation.html" target="_top" xlink:title="The quote operation implementation. ">
<polygon fill="none" stroke="black" points="356.353,-210 356.353,-230 519.647,-230 519.647,-210 356.353,-210"/>
<text text-anchor="middle" x="438" y="-216" font-family="Helvetica,sans-Serif" font-size="10.00">Om::Operations::QuoteOperation</text>
</a>
</g>
</g>
<!-- Node36&#45;&gt;Node37 -->
<g id="edge36" class="edge"><title>Node36&#45;&gt;Node37</title>
<path fill="none" stroke="midnightblue" d="M280.966,-220C304.539,-220 331.374,-220 356.063,-220"/>
<polygon fill="midnightblue" stroke="midnightblue" points="280.733,-216.5 270.733,-220 280.733,-223.5 280.733,-216.5"/>
</g>
<!-- Node39 -->
<g id="node39" class="node"><title>Node39</title>
<g id="a_node39"><a xlink:href="class_om_1_1_operations_1_1_skip_operation.html" target="_top" xlink:title="The skip operation implementation. ">
<polygon fill="none" stroke="black" points="360.247,-159 360.247,-179 515.753,-179 515.753,-159 360.247,-159"/>
<text text-anchor="middle" x="438" y="-165" font-family="Helvetica,sans-Serif" font-size="10.00">Om::Operations::SkipOperation</text>
</a>
</g>
</g>
<!-- Node38&#45;&gt;Node39 -->
<g id="edge38" class="edge"><title>Node38&#45;&gt;Node39</title>
<path fill="none" stroke="midnightblue" d="M280.772,-169C305.602,-169 334.075,-169 359.853,-169"/>
<polygon fill="midnightblue" stroke="midnightblue" points="280.733,-165.5 270.733,-169 280.733,-172.5 280.733,-165.5"/>
</g>
<!-- Node41 -->
<g id="node41" class="node"><title>Node41</title>
<g id="a_node41"><a xlink:href="class_om_1_1_operations_1_1_translate_operation.html" target="_top" xlink:title="Om::Operations::Translate\lOperation\&lt; SubstituteOperation \&gt;">
<polygon fill="none" stroke="black" points="355.229,-102 355.229,-134 520.771,-134 520.771,-102 355.229,-102"/>
<text text-anchor="start" x="363.229" y="-120" font-family="Helvetica,sans-Serif" font-size="10.00">Om::Operations::Translate</text>
<text text-anchor="middle" x="438" y="-108" font-family="Helvetica,sans-Serif" font-size="10.00">Operation&lt; SubstituteOperation &gt;</text>
</a>
</g>
</g>
<!-- Node40&#45;&gt;Node41 -->
<g id="edge40" class="edge"><title>Node40&#45;&gt;Node41</title>
<path fill="none" stroke="midnightblue" d="M285.111,-118C307.375,-118 332.19,-118 355.202,-118"/>
<polygon fill="midnightblue" stroke="midnightblue" points="285.076,-114.5 275.076,-118 285.076,-121.5 285.076,-114.5"/>
</g>
<!-- Node42 -->
<g id="node42" class="node"><title>Node42</title>
<g id="a_node42"><a xlink:href="class_om_1_1_operations_1_1_substitute_operation.html" target="_top" xlink:title="The substitute operation implementation. ">
<polygon fill="none" stroke="black" points="566.695,-102 566.695,-134 703.305,-134 703.305,-102 566.695,-102"/>
<text text-anchor="start" x="574.695" y="-120" font-family="Helvetica,sans-Serif" font-size="10.00">Om::Operations::Substitute</text>
<text text-anchor="middle" x="635" y="-108" font-family="Helvetica,sans-Serif" font-size="10.00">Operation</text>
</a>
</g>
</g>
<!-- Node41&#45;&gt;Node42 -->
<g id="edge41" class="edge"><title>Node41&#45;&gt;Node42</title>
<path fill="none" stroke="midnightblue" d="M530.895,-118C542.904,-118 555.028,-118 566.533,-118"/>
<polygon fill="midnightblue" stroke="midnightblue" points="530.85,-114.5 520.85,-118 530.85,-121.5 530.85,-114.5"/>
</g>
<!-- Node44 -->
<g id="node44" class="node"><title>Node44</title>
<g id="a_node44"><a xlink:href="class_om_1_1_operations_1_1_swap_operation.html" target="_top" xlink:title="The swap operation implementation. ">
<polygon fill="none" stroke="black" points="357.466,-57 357.466,-77 518.534,-77 518.534,-57 357.466,-57"/>
<text text-anchor="middle" x="438" y="-63" font-family="Helvetica,sans-Serif" font-size="10.00">Om::Operations::SwapOperation</text>
</a>
</g>
</g>
<!-- Node43&#45;&gt;Node44 -->
<g id="edge43" class="edge"><title>Node43&#45;&gt;Node44</title>
<path fill="none" stroke="midnightblue" d="M280.801,-67C304.817,-67 332.237,-67 357.331,-67"/>
<polygon fill="midnightblue" stroke="midnightblue" points="280.733,-63.5001 270.733,-67 280.733,-70.5001 280.733,-63.5001"/>
</g>
<!-- Node46 -->
<g id="node46" class="node"><title>Node46</title>
<g id="a_node46"><a xlink:href="class_om_1_1_operations_1_1_translate_operation.html" target="_top" xlink:title="An Operation that applies each Translator to a Program. ">
<polygon fill="none" stroke="black" points="355.881,-0 355.881,-32 520.119,-32 520.119,-0 355.881,-0"/>
<text text-anchor="start" x="363.881" y="-18" font-family="Helvetica,sans-Serif" font-size="10.00">Om::Operations::Translate</text>
<text text-anchor="middle" x="438" y="-6" font-family="Helvetica,sans-Serif" font-size="10.00">Operation&lt; ThisImplementation &gt;</text>
</a>
</g>
</g>
<!-- Node45&#45;&gt;Node46 -->
<g id="edge45" class="edge"><title>Node45&#45;&gt;Node46</title>
<path fill="none" stroke="midnightblue" d="M284.403,-16C307.06,-16 332.42,-16 355.861,-16"/>
<polygon fill="midnightblue" stroke="midnightblue" points="284.2,-12.5001 274.2,-16 284.2,-19.5001 284.2,-12.5001"/>
</g>
</g>
</svg>
