<?xml version="1.0" encoding="UTF-8" standalone="no"?>
<!DOCTYPE svg PUBLIC "-//W3C//DTD SVG 1.1//EN"
 "http://www.w3.org/Graphics/SVG/1.1/DTD/svg11.dtd">
<!-- Generated by graphviz version 2.30.1 (20130221.2233)
 -->
<!-- Title: om/operations/inject_operation.cpp Pages: 1 -->
<svg width="132pt" height="252pt"
 viewBox="0.00 0.00 132.00 252.00" xmlns="http://www.w3.org/2000/svg" xmlns:xlink="http://www.w3.org/1999/xlink">
<g id="graph0" class="graph" transform="scale(1 1) rotate(0) translate(4 248)">
<title>om/operations/inject_operation.cpp</title>
<!-- Node1 -->
<g id="node1" class="node"><title>Node1</title>
<polygon fill="#bfbfbf" stroke="black" points="9.25391,-211 9.25391,-243 114.746,-243 114.746,-211 9.25391,-211"/>
<text text-anchor="start" x="17.2539" y="-229" font-family="Helvetica,sans-Serif" font-size="10.00">om/operations/inject</text>
<text text-anchor="middle" x="62" y="-217" font-family="Helvetica,sans-Serif" font-size="10.00">_operation.cpp</text>
</g>
<!-- Node2 -->
<g id="node2" class="node"><title>Node2</title>
<g id="a_node2"><a xlink:href="inject__operation_8hpp.html" target="_top" xlink:title="Om header file. ">
<polygon fill="none" stroke="black" points="9.25391,-141 9.25391,-173 114.746,-173 114.746,-141 9.25391,-141"/>
<text text-anchor="start" x="17.2539" y="-159" font-family="Helvetica,sans-Serif" font-size="10.00">om/operations/inject</text>
<text text-anchor="middle" x="62" y="-147" font-family="Helvetica,sans-Serif" font-size="10.00">_operation.hpp</text>
</a>
</g>
</g>
<!-- Node1&#45;&gt;Node2 -->
<g id="edge1" class="edge"><title>Node1&#45;&gt;Node2</title>
<path fill="none" stroke="midnightblue" d="M55.4608,-200.92C55.0088,-191.56 55.2836,-181.229 56.2851,-173.049"/>
<polygon fill="midnightblue" stroke="midnightblue" points="51.9743,-201.228 56.28,-210.909 58.9509,-200.656 51.9743,-201.228"/>
</g>
<!-- Node3 -->
<g id="node3" class="node"><title>Node3</title>
<g id="a_node3"><a xlink:href="rearrange__operation_8cpp.html" target="_top" xlink:title="Om source file. ">
<polygon fill="none" stroke="black" points="-0.753418,-71 -0.753418,-103 124.753,-103 124.753,-71 -0.753418,-71"/>
<text text-anchor="start" x="7.24658" y="-89" font-family="Helvetica,sans-Serif" font-size="10.00">om/operations/rearrange</text>
<text text-anchor="middle" x="62" y="-77" font-family="Helvetica,sans-Serif" font-size="10.00">_operation.cpp</text>
</a>
</g>
</g>
<!-- Node2&#45;&gt;Node3 -->
<g id="edge2" class="edge"><title>Node2&#45;&gt;Node3</title>
<path fill="none" stroke="midnightblue" d="M62,-130.617C62,-121.338 62,-111.141 62,-103.049"/>
<polygon fill="midnightblue" stroke="midnightblue" points="58.5001,-130.909 62,-140.909 65.5001,-130.909 58.5001,-130.909"/>
</g>
<!-- Node2&#45;&gt;Node1 -->
<g id="edge5" class="edge"><title>Node2&#45;&gt;Node1</title>
<path fill="none" stroke="midnightblue" d="M68.5368,-183.032C68.9913,-192.389 68.7191,-202.721 67.72,-210.909"/>
<polygon fill="midnightblue" stroke="midnightblue" points="72.0237,-182.728 67.7149,-173.049 65.0474,-183.303 72.0237,-182.728"/>
</g>
<!-- Node4 -->
<g id="node4" class="node"><title>Node4</title>
<g id="a_node4"><a xlink:href="rearrange__operation_8hpp.html" target="_top" xlink:title="Om header file. ">
<polygon fill="none" stroke="black" points="-0.753418,-1 -0.753418,-33 124.753,-33 124.753,-1 -0.753418,-1"/>
<text text-anchor="start" x="7.24658" y="-19" font-family="Helvetica,sans-Serif" font-size="10.00">om/operations/rearrange</text>
<text text-anchor="middle" x="62" y="-7" font-family="Helvetica,sans-Serif" font-size="10.00">_operation.hpp</text>
</a>
</g>
</g>
<!-- Node3&#45;&gt;Node4 -->
<g id="edge3" class="edge"><title>Node3&#45;&gt;Node4</title>
<path fill="none" stroke="midnightblue" d="M55.4608,-60.9196C55.0088,-51.5597 55.2836,-41.2293 56.2851,-33.0492"/>
<polygon fill="midnightblue" stroke="midnightblue" points="51.9743,-61.2281 56.28,-70.9086 58.9509,-60.656 51.9743,-61.2281"/>
</g>
<!-- Node4&#45;&gt;Node3 -->
<g id="edge4" class="edge"><title>Node4&#45;&gt;Node3</title>
<path fill="none" stroke="midnightblue" d="M68.5368,-43.0321C68.9913,-52.3887 68.7191,-62.7211 67.72,-70.9086"/>
<polygon fill="midnightblue" stroke="midnightblue" points="72.0237,-42.7283 67.7149,-33.0492 65.0474,-43.3027 72.0237,-42.7283"/>
</g>
</g>
</svg>
