<?xml version="1.0" encoding="UTF-8" standalone="no"?>
<!DOCTYPE svg PUBLIC "-//W3C//DTD SVG 1.1//EN"
 "http://www.w3.org/Graphics/SVG/1.1/DTD/svg11.dtd">
<!-- Generated by graphviz version 2.30.1 (20130221.2233)
 -->
<!-- Title: code/om/internal.hpp Pages: 1 -->
<svg width="243pt" height="146pt"
 viewBox="0.00 0.00 243.00 146.07" xmlns="http://www.w3.org/2000/svg" xmlns:xlink="http://www.w3.org/1999/xlink">
<g id="graph0" class="graph" transform="scale(1 1) rotate(0) translate(4 142.069)">
<title>code/om/internal.hpp</title>
<!-- Node1 -->
<g id="node1" class="node"><title>Node1</title>
<polygon fill="#bfbfbf" stroke="black" points="108.303,-117 108.303,-137 217.697,-137 217.697,-117 108.303,-117"/>
<text text-anchor="middle" x="163" y="-123" font-family="Helvetica,sans-Serif" font-size="10.00">code/om/internal.hpp</text>
</g>
<!-- Node2 -->
<g id="node2" class="node"><title>Node2</title>
<g id="a_node2"><a xlink:href="internal_8cpp.html" target="_top" xlink:title="code/om/internal.cpp">
<polygon fill="none" stroke="black" points="-0.416016,-59 -0.416016,-79 108.416,-79 108.416,-59 -0.416016,-59"/>
<text text-anchor="middle" x="54" y="-65" font-family="Helvetica,sans-Serif" font-size="10.00">code/om/internal.cpp</text>
</a>
</g>
</g>
<!-- Node1&#45;&gt;Node2 -->
<g id="edge1" class="edge"><title>Node1&#45;&gt;Node2</title>
<path fill="none" stroke="midnightblue" d="M136.03,-112.144C115.941,-101.823 89.0835,-88.0245 71.6642,-79.0752"/>
<polygon fill="midnightblue" stroke="midnightblue" points="134.507,-115.296 145.001,-116.753 137.706,-109.07 134.507,-115.296"/>
</g>
<!-- Node1&#45;&gt;Node1 -->
<g id="edge2" class="edge"><title>Node1&#45;&gt;Node1</title>
<path fill="none" stroke="midnightblue" d="M205.222,-137.834C221.49,-138.304 235,-134.693 235,-127 235,-117.711 215.301,-114.373 194.832,-116.985"/>
<polygon fill="midnightblue" stroke="midnightblue" points="205.076,-134.312 194.832,-137.015 204.526,-141.291 205.076,-134.312"/>
</g>
<!-- Node3 -->
<g id="node3" class="node"><title>Node3</title>
<g id="a_node3"><a xlink:href="om_8hpp.html" target="_top" xlink:title="Om &quot;umbrella&quot; header file.">
<polygon fill="none" stroke="black" points="126.091,-59 126.091,-79 199.909,-79 199.909,-59 126.091,-59"/>
<text text-anchor="middle" x="163" y="-65" font-family="Helvetica,sans-Serif" font-size="10.00">code/om.hpp</text>
</a>
</g>
</g>
<!-- Node1&#45;&gt;Node3 -->
<g id="edge3" class="edge"><title>Node1&#45;&gt;Node3</title>
<path fill="none" stroke="midnightblue" d="M156.549,-106.707C155.886,-97.3384 156.326,-86.5262 157.869,-79.0752"/>
<polygon fill="midnightblue" stroke="midnightblue" points="153.093,-107.278 157.834,-116.753 160.037,-106.389 153.093,-107.278"/>
</g>
<!-- Node3&#45;&gt;Node1 -->
<g id="edge4" class="edge"><title>Node3&#45;&gt;Node1</title>
<path fill="none" stroke="midnightblue" d="M169.436,-89.0781C170.116,-98.4238 169.692,-109.25 168.166,-116.753"/>
<polygon fill="midnightblue" stroke="midnightblue" points="172.895,-88.5385 168.131,-79.0752 165.954,-89.4439 172.895,-88.5385"/>
</g>
<!-- Node4 -->
<g id="node4" class="node"><title>Node4</title>
<g id="a_node4"><a xlink:href="om_8cpp.html" target="_top" xlink:title="Om source file.">
<polygon fill="none" stroke="black" points="126.372,-1 126.372,-21 199.628,-21 199.628,-1 126.372,-1"/>
<text text-anchor="middle" x="163" y="-7" font-family="Helvetica,sans-Serif" font-size="10.00">code/om.cpp</text>
</a>
</g>
</g>
<!-- Node3&#45;&gt;Node4 -->
<g id="edge5" class="edge"><title>Node3&#45;&gt;Node4</title>
<path fill="none" stroke="midnightblue" d="M163,-48.7065C163,-39.3384 163,-28.5262 163,-21.0752"/>
<polygon fill="midnightblue" stroke="midnightblue" points="159.5,-48.7527 163,-58.7527 166.5,-48.7528 159.5,-48.7527"/>
</g>
</g>
</svg>
