<?xml version="1.0" encoding="UTF-8" standalone="no"?>
<!DOCTYPE svg PUBLIC "-//W3C//DTD SVG 1.1//EN"
 "http://www.w3.org/Graphics/SVG/1.1/DTD/svg11.dtd">
<!-- Generated by graphviz version 2.30.1 (20130221.2233)
 -->
<!-- Title: code/om/sources/iterator_source.cpp Pages: 1 -->
<svg width="378pt" height="368pt"
 viewBox="0.00 0.00 378.00 368.00" xmlns="http://www.w3.org/2000/svg" xmlns:xlink="http://www.w3.org/1999/xlink">
<g id="graph0" class="graph" transform="scale(1 1) rotate(0) translate(4 364)">
<title>code/om/sources/iterator_source.cpp</title>
<!-- Node1 -->
<g id="node1" class="node"><title>Node1</title>
<polygon fill="#bfbfbf" stroke="black" points="173.976,-327 173.976,-359 300.024,-359 300.024,-327 173.976,-327"/>
<text text-anchor="start" x="181.976" y="-345" font-family="Helvetica,sans-Serif" font-size="10.00">code/om/sources/iterator</text>
<text text-anchor="middle" x="237" y="-333" font-family="Helvetica,sans-Serif" font-size="10.00">_source.cpp</text>
</g>
<!-- Node2 -->
<g id="node2" class="node"><title>Node2</title>
<g id="a_node2"><a xlink:href="iterator__source_8hpp.html" target="_top" xlink:title="Om header file.">
<polygon fill="none" stroke="black" points="173.976,-257 173.976,-289 300.024,-289 300.024,-257 173.976,-257"/>
<text text-anchor="start" x="181.976" y="-275" font-family="Helvetica,sans-Serif" font-size="10.00">code/om/sources/iterator</text>
<text text-anchor="middle" x="237" y="-263" font-family="Helvetica,sans-Serif" font-size="10.00">_source.hpp</text>
</a>
</g>
</g>
<!-- Node1&#45;&gt;Node2 -->
<g id="edge1" class="edge"><title>Node1&#45;&gt;Node2</title>
<path fill="none" stroke="midnightblue" d="M230.461,-316.92C230.009,-307.56 230.284,-297.229 231.285,-289.049"/>
<polygon fill="midnightblue" stroke="midnightblue" points="226.974,-317.228 231.28,-326.909 233.951,-316.656 226.974,-317.228"/>
</g>
<!-- Node3 -->
<g id="node3" class="node"><title>Node3</title>
<g id="a_node3"><a xlink:href="internal_8hpp.html" target="_top" xlink:title="code/om/internal.hpp">
<polygon fill="none" stroke="black" points="108.303,-123 108.303,-143 217.697,-143 217.697,-123 108.303,-123"/>
<text text-anchor="middle" x="163" y="-129" font-family="Helvetica,sans-Serif" font-size="10.00">code/om/internal.hpp</text>
</a>
</g>
</g>
<!-- Node2&#45;&gt;Node3 -->
<g id="edge2" class="edge"><title>Node2&#45;&gt;Node3</title>
<path fill="none" stroke="midnightblue" d="M224.185,-248.103C207.566,-217.109 179.359,-164.508 167.98,-143.287"/>
<polygon fill="midnightblue" stroke="midnightblue" points="221.13,-249.81 228.94,-256.969 227.299,-246.502 221.13,-249.81"/>
</g>
<!-- Node7 -->
<g id="node7" class="node"><title>Node7</title>
<g id="a_node7"><a xlink:href="code__point__source_8hpp.html" target="_top" xlink:title="Om header file.">
<polygon fill="none" stroke="black" points="237.695,-187 237.695,-219 354.305,-219 354.305,-187 237.695,-187"/>
<text text-anchor="start" x="245.695" y="-205" font-family="Helvetica,sans-Serif" font-size="10.00">code/om/sources/code</text>
<text text-anchor="middle" x="296" y="-193" font-family="Helvetica,sans-Serif" font-size="10.00">_point_source.hpp</text>
</a>
</g>
</g>
<!-- Node2&#45;&gt;Node7 -->
<g id="edge8" class="edge"><title>Node2&#45;&gt;Node7</title>
<path fill="none" stroke="midnightblue" d="M256.686,-249.312C265.326,-239.353 275.235,-227.933 282.943,-219.049"/>
<polygon fill="midnightblue" stroke="midnightblue" points="254.004,-247.062 250.094,-256.909 259.291,-251.649 254.004,-247.062"/>
</g>
<!-- Node2&#45;&gt;Node1 -->
<g id="edge12" class="edge"><title>Node2&#45;&gt;Node1</title>
<path fill="none" stroke="midnightblue" d="M243.537,-299.032C243.991,-308.389 243.719,-318.721 242.72,-326.909"/>
<polygon fill="midnightblue" stroke="midnightblue" points="247.024,-298.728 242.715,-289.049 240.047,-299.303 247.024,-298.728"/>
</g>
<!-- Node4 -->
<g id="node4" class="node"><title>Node4</title>
<g id="a_node4"><a xlink:href="internal_8cpp.html" target="_top" xlink:title="code/om/internal.cpp">
<polygon fill="none" stroke="black" points="-0.416016,-59 -0.416016,-79 108.416,-79 108.416,-59 -0.416016,-59"/>
<text text-anchor="middle" x="54" y="-65" font-family="Helvetica,sans-Serif" font-size="10.00">code/om/internal.cpp</text>
</a>
</g>
</g>
<!-- Node3&#45;&gt;Node4 -->
<g id="edge3" class="edge"><title>Node3&#45;&gt;Node4</title>
<path fill="none" stroke="midnightblue" d="M137.986,-117.772C117.136,-105.912 88.0481,-89.3668 70.1493,-79.1858"/>
<polygon fill="midnightblue" stroke="midnightblue" points="136.494,-120.95 146.917,-122.852 139.955,-114.865 136.494,-120.95"/>
</g>
<!-- Node3&#45;&gt;Node3 -->
<g id="edge4" class="edge"><title>Node3&#45;&gt;Node3</title>
<path fill="none" stroke="midnightblue" d="M198.83,-144.532C217.792,-146.424 235,-142.58 235,-133 235,-121.75 211.27,-118.41 188.837,-122.98"/>
<polygon fill="midnightblue" stroke="midnightblue" points="199.248,-141.055 188.837,-143.02 198.201,-147.977 199.248,-141.055"/>
</g>
<!-- Node5 -->
<g id="node5" class="node"><title>Node5</title>
<g id="a_node5"><a xlink:href="om_8hpp.html" target="_top" xlink:title="Om &quot;umbrella&quot; header file.">
<polygon fill="none" stroke="black" points="126.091,-59 126.091,-79 199.909,-79 199.909,-59 126.091,-59"/>
<text text-anchor="middle" x="163" y="-65" font-family="Helvetica,sans-Serif" font-size="10.00">code/om.hpp</text>
</a>
</g>
</g>
<!-- Node3&#45;&gt;Node5 -->
<g id="edge5" class="edge"><title>Node3&#45;&gt;Node5</title>
<path fill="none" stroke="midnightblue" d="M156.7,-112.735C155.802,-101.557 156.248,-87.991 158.037,-79.1858"/>
<polygon fill="midnightblue" stroke="midnightblue" points="153.257,-113.4 158.045,-122.852 160.196,-112.478 153.257,-113.4"/>
</g>
<!-- Node5&#45;&gt;Node3 -->
<g id="edge6" class="edge"><title>Node5&#45;&gt;Node3</title>
<path fill="none" stroke="midnightblue" d="M169.304,-89.3131C170.198,-100.498 169.748,-114.06 167.955,-122.852"/>
<polygon fill="midnightblue" stroke="midnightblue" points="172.746,-88.6398 167.963,-79.1858 165.806,-89.5588 172.746,-88.6398"/>
</g>
<!-- Node6 -->
<g id="node6" class="node"><title>Node6</title>
<g id="a_node6"><a xlink:href="om_8cpp.html" target="_top" xlink:title="Om source file.">
<polygon fill="none" stroke="black" points="126.372,-1 126.372,-21 199.628,-21 199.628,-1 126.372,-1"/>
<text text-anchor="middle" x="163" y="-7" font-family="Helvetica,sans-Serif" font-size="10.00">code/om.cpp</text>
</a>
</g>
</g>
<!-- Node5&#45;&gt;Node6 -->
<g id="edge7" class="edge"><title>Node5&#45;&gt;Node6</title>
<path fill="none" stroke="midnightblue" d="M163,-48.7065C163,-39.3384 163,-28.5262 163,-21.0752"/>
<polygon fill="midnightblue" stroke="midnightblue" points="159.5,-48.7527 163,-58.7527 166.5,-48.7528 159.5,-48.7527"/>
</g>
<!-- Node7&#45;&gt;Node3 -->
<g id="edge9" class="edge"><title>Node7&#45;&gt;Node3</title>
<path fill="none" stroke="midnightblue" d="M257.473,-182.302C232.107,-169.333 200.099,-152.968 180.61,-143.004"/>
<polygon fill="midnightblue" stroke="midnightblue" points="255.986,-185.473 266.483,-186.909 259.173,-179.24 255.986,-185.473"/>
</g>
<!-- Node8 -->
<g id="node8" class="node"><title>Node8</title>
<g id="a_node8"><a xlink:href="code__point__source_8cpp.html" target="_top" xlink:title="Om source file.">
<polygon fill="none" stroke="black" points="253.695,-117 253.695,-149 370.305,-149 370.305,-117 253.695,-117"/>
<text text-anchor="start" x="261.695" y="-135" font-family="Helvetica,sans-Serif" font-size="10.00">code/om/sources/code</text>
<text text-anchor="middle" x="312" y="-123" font-family="Helvetica,sans-Serif" font-size="10.00">_point_source.cpp</text>
</a>
</g>
</g>
<!-- Node7&#45;&gt;Node8 -->
<g id="edge10" class="edge"><title>Node7&#45;&gt;Node8</title>
<path fill="none" stroke="midnightblue" d="M295.362,-176.92C297.112,-167.56 299.818,-157.229 302.744,-149.049"/>
<polygon fill="midnightblue" stroke="midnightblue" points="291.887,-176.494 293.831,-186.909 298.806,-177.554 291.887,-176.494"/>
</g>
<!-- Node8&#45;&gt;Node7 -->
<g id="edge11" class="edge"><title>Node8&#45;&gt;Node7</title>
<path fill="none" stroke="midnightblue" d="M312.647,-159.032C310.9,-168.389 308.196,-178.721 305.271,-186.909"/>
<polygon fill="midnightblue" stroke="midnightblue" points="316.122,-159.463 314.174,-149.049 309.202,-158.405 316.122,-159.463"/>
</g>
</g>
</svg>
