<?xml version="1.0" encoding="UTF-8" standalone="no"?>
<!DOCTYPE svg PUBLIC "-//W3C//DTD SVG 1.1//EN"
 "http://www.w3.org/Graphics/SVG/1.1/DTD/svg11.dtd">
<!-- Generated by graphviz version 2.28.0 (20120817.0054)
 -->
<!-- Title: code/om/sources/iterator_source.hpp Pages: 1 -->
<svg width="257pt" height="176pt"
 viewBox="0.00 0.00 257.00 176.00" xmlns="http://www.w3.org/2000/svg" xmlns:xlink="http://www.w3.org/1999/xlink">
<g id="graph1" class="graph" transform="scale(1 1) rotate(0) translate(4 172)">
<title>code/om/sources/iterator_source.hpp</title>
<!-- Node1 -->
<g id="node1" class="node"><title>Node1</title>
<polygon fill="#bfbfbf" stroke="black" points="130.5,-137 130.5,-167 249.5,-167 249.5,-137 130.5,-137"/>
<text text-anchor="start" x="138.5" y="-155" font-family="Helvetica,sans-Serif" font-size="10.00">code/om/sources/iterator</text>
<text text-anchor="middle" x="190" y="-144" font-family="Helvetica,sans-Serif" font-size="10.00">_source.hpp</text>
</g>
<!-- Node2 -->
<g id="node3" class="node"><title>Node2</title>
<a xlink:href="code__point__source_8hpp.html" target="_top" xlink:title="Om hpp file.">
<polygon fill="none" stroke="black" points="0,-69 0,-99 112,-99 112,-69 0,-69"/>
<text text-anchor="start" x="8" y="-87" font-family="Helvetica,sans-Serif" font-size="10.00">code/om/sources/code</text>
<text text-anchor="middle" x="56" y="-76" font-family="Helvetica,sans-Serif" font-size="10.00">_point_source.hpp</text>
</a>
</g>
<!-- Node1&#45;&gt;Node2 -->
<g id="edge2" class="edge"><title>Node1&#45;&gt;Node2</title>
<path fill="none" stroke="midnightblue" d="M152.112,-132.339C130.708,-121.796 104.383,-108.83 84.6988,-99.1352"/>
<polygon fill="midnightblue" stroke="midnightblue" points="150.736,-135.563 161.254,-136.841 153.829,-129.283 150.736,-135.563"/>
</g>
<!-- Node4 -->
<g id="node8" class="node"><title>Node4</title>
<a xlink:href="iterator__source_8cpp.html" target="_top" xlink:title="Om cpp file.">
<polygon fill="none" stroke="black" points="130.5,-69 130.5,-99 249.5,-99 249.5,-69 130.5,-69"/>
<text text-anchor="start" x="138.5" y="-87" font-family="Helvetica,sans-Serif" font-size="10.00">code/om/sources/iterator</text>
<text text-anchor="middle" x="190" y="-76" font-family="Helvetica,sans-Serif" font-size="10.00">_source.cpp</text>
</a>
</g>
<!-- Node1&#45;&gt;Node4 -->
<g id="edge8" class="edge"><title>Node1&#45;&gt;Node4</title>
<path fill="none" stroke="midnightblue" d="M183.455,-126.532C183.005,-117.361 183.296,-107.245 184.325,-99.2931"/>
<polygon fill="midnightblue" stroke="midnightblue" points="179.983,-127.013 184.322,-136.679 186.958,-126.417 179.983,-127.013"/>
</g>
<!-- Node3 -->
<g id="node5" class="node"><title>Node3</title>
<a xlink:href="code__point__source_8cpp.html" target="_top" xlink:title="Om cpp file.">
<polygon fill="none" stroke="black" points="0,-1 0,-31 112,-31 112,-1 0,-1"/>
<text text-anchor="start" x="8" y="-19" font-family="Helvetica,sans-Serif" font-size="10.00">code/om/sources/code</text>
<text text-anchor="middle" x="56" y="-8" font-family="Helvetica,sans-Serif" font-size="10.00">_point_source.cpp</text>
</a>
</g>
<!-- Node2&#45;&gt;Node3 -->
<g id="edge4" class="edge"><title>Node2&#45;&gt;Node3</title>
<path fill="none" stroke="midnightblue" d="M49.4547,-58.5322C49.0055,-49.3606 49.2957,-39.2449 50.3252,-31.2931"/>
<polygon fill="midnightblue" stroke="midnightblue" points="45.9829,-59.0133 50.3216,-68.679 52.9575,-58.4173 45.9829,-59.0133"/>
</g>
<!-- Node3&#45;&gt;Node2 -->
<g id="edge6" class="edge"><title>Node3&#45;&gt;Node2</title>
<path fill="none" stroke="midnightblue" d="M62.5438,-41.4356C62.9947,-50.605 62.7062,-60.7221 61.6784,-68.679"/>
<polygon fill="midnightblue" stroke="midnightblue" points="66.0157,-40.9578 61.6748,-31.2931 59.0413,-41.5554 66.0157,-40.9578"/>
</g>
<!-- Node4&#45;&gt;Node1 -->
<g id="edge10" class="edge"><title>Node4&#45;&gt;Node1</title>
<path fill="none" stroke="midnightblue" d="M196.544,-109.436C196.995,-118.605 196.706,-128.722 195.678,-136.679"/>
<polygon fill="midnightblue" stroke="midnightblue" points="200.016,-108.958 195.675,-99.2931 193.041,-109.555 200.016,-108.958"/>
</g>
</g>
</svg>
