<?xml version="1.0" encoding="UTF-8" standalone="no"?>
<!DOCTYPE svg PUBLIC "-//W3C//DTD SVG 1.1//EN"
 "http://www.w3.org/Graphics/SVG/1.1/DTD/svg11.dtd">
<!-- Generated by graphviz version 2.30.1 (20130221.2233)
 -->
<!-- Title: om/sink/iterator_sink.cpp Pages: 1 -->
<svg width="134pt" height="204pt"
 viewBox="0.00 0.00 134.00 204.00" xmlns="http://www.w3.org/2000/svg" xmlns:xlink="http://www.w3.org/1999/xlink">
<g id="graph0" class="graph" transform="scale(1 1) rotate(0) translate(4 200)">
<title>om/sink/iterator_sink.cpp</title>
<!-- Node1 -->
<g id="node1" class="node"><title>Node1</title>
<polygon fill="#bfbfbf" stroke="black" points="-0.300293,-175 -0.300293,-195 126.3,-195 126.3,-175 -0.300293,-175"/>
<text text-anchor="middle" x="63" y="-181" font-family="Helvetica,sans-Serif" font-size="10.00">om/sink/iterator_sink.cpp</text>
</g>
<!-- Node2 -->
<g id="node2" class="node"><title>Node2</title>
<g id="a_node2"><a xlink:href="iterator__sink_8hpp.html" target="_top" xlink:title="Om header file. ">
<polygon fill="none" stroke="black" points="-0.581055,-117 -0.581055,-137 126.581,-137 126.581,-117 -0.581055,-117"/>
<text text-anchor="middle" x="63" y="-123" font-family="Helvetica,sans-Serif" font-size="10.00">om/sink/iterator_sink.hpp</text>
</a>
</g>
</g>
<!-- Node1&#45;&gt;Node2 -->
<g id="edge1" class="edge"><title>Node1&#45;&gt;Node2</title>
<path fill="none" stroke="midnightblue" d="M56.5488,-164.707C55.8859,-155.338 56.326,-144.526 57.869,-137.075"/>
<polygon fill="midnightblue" stroke="midnightblue" points="53.0933,-165.278 57.8337,-174.753 60.0367,-164.389 53.0933,-165.278"/>
</g>
<!-- Node2&#45;&gt;Node1 -->
<g id="edge2" class="edge"><title>Node2&#45;&gt;Node1</title>
<path fill="none" stroke="midnightblue" d="M69.4357,-147.078C70.1156,-156.424 69.6924,-167.25 68.1663,-174.753"/>
<polygon fill="midnightblue" stroke="midnightblue" points="72.8951,-146.538 68.131,-137.075 65.9539,-147.444 72.8951,-146.538"/>
</g>
<!-- Node3 -->
<g id="node3" class="node"><title>Node3</title>
<g id="a_node3"><a xlink:href="stream__sink_8hpp.html" target="_top" xlink:title="Om header file. ">
<polygon fill="none" stroke="black" points="-0.300293,-59 -0.300293,-79 126.3,-79 126.3,-59 -0.300293,-59"/>
<text text-anchor="middle" x="63" y="-65" font-family="Helvetica,sans-Serif" font-size="10.00">om/sink/stream_sink.hpp</text>
</a>
</g>
</g>
<!-- Node2&#45;&gt;Node3 -->
<g id="edge3" class="edge"><title>Node2&#45;&gt;Node3</title>
<path fill="none" stroke="midnightblue" d="M63,-106.707C63,-97.3384 63,-86.5262 63,-79.0752"/>
<polygon fill="midnightblue" stroke="midnightblue" points="59.5001,-106.753 63,-116.753 66.5001,-106.753 59.5001,-106.753"/>
</g>
<!-- Node4 -->
<g id="node4" class="node"><title>Node4</title>
<g id="a_node4"><a xlink:href="stream__sink_8cpp.html" target="_top" xlink:title="Om source file. ">
<polygon fill="none" stroke="black" points="-0.0195312,-1 -0.0195312,-21 126.02,-21 126.02,-1 -0.0195312,-1"/>
<text text-anchor="middle" x="63" y="-7" font-family="Helvetica,sans-Serif" font-size="10.00">om/sink/stream_sink.cpp</text>
</a>
</g>
</g>
<!-- Node3&#45;&gt;Node4 -->
<g id="edge4" class="edge"><title>Node3&#45;&gt;Node4</title>
<path fill="none" stroke="midnightblue" d="M56.5488,-48.7065C55.8859,-39.3384 56.326,-28.5262 57.869,-21.0752"/>
<polygon fill="midnightblue" stroke="midnightblue" points="53.0933,-49.2776 57.8337,-58.7527 60.0367,-48.3895 53.0933,-49.2776"/>
</g>
<!-- Node4&#45;&gt;Node3 -->
<g id="edge5" class="edge"><title>Node4&#45;&gt;Node3</title>
<path fill="none" stroke="midnightblue" d="M69.4357,-31.0781C70.1156,-40.4238 69.6924,-51.2504 68.1663,-58.7527"/>
<polygon fill="midnightblue" stroke="midnightblue" points="72.8951,-30.5385 68.131,-21.0752 65.9539,-31.4439 72.8951,-30.5385"/>
</g>
</g>
</svg>
