<?xml version="1.0" encoding="UTF-8" standalone="no"?>
<!DOCTYPE svg PUBLIC "-//W3C//DTD SVG 1.1//EN"
 "http://www.w3.org/Graphics/SVG/1.1/DTD/svg11.dtd">
<!-- Generated by graphviz version 2.30.1 (20130221.2233)
 -->
<!-- Title: code/om/sinks/iterator_sink.cpp Pages: 1 -->
<svg width="226pt" height="274pt"
 viewBox="0.00 0.00 226.00 274.00" xmlns="http://www.w3.org/2000/svg" xmlns:xlink="http://www.w3.org/1999/xlink">
<g id="graph0" class="graph" transform="scale(1 1) rotate(0) translate(4 270)">
<title>code/om/sinks/iterator_sink.cpp</title>
<!-- Node1 -->
<g id="node1" class="node"><title>Node1</title>
<polygon fill="#bfbfbf" stroke="black" points="95.0913,-233 95.0913,-265 208.909,-265 208.909,-233 95.0913,-233"/>
<text text-anchor="start" x="103.091" y="-251" font-family="Helvetica,sans-Serif" font-size="10.00">code/om/sinks/iterator</text>
<text text-anchor="middle" x="152" y="-239" font-family="Helvetica,sans-Serif" font-size="10.00">_sink.cpp</text>
</g>
<!-- Node2 -->
<g id="node2" class="node"><title>Node2</title>
<g id="a_node2"><a xlink:href="iterator__sink_8hpp.html" target="_top" xlink:title="Om header file.">
<polygon fill="none" stroke="black" points="85.9189,-175 85.9189,-195 218.081,-195 218.081,-175 85.9189,-175"/>
<text text-anchor="middle" x="152" y="-181" font-family="Helvetica,sans-Serif" font-size="10.00">om/sinks/iterator_sink.hpp</text>
</a>
</g>
</g>
<!-- Node1&#45;&gt;Node2 -->
<g id="edge1" class="edge"><title>Node1&#45;&gt;Node2</title>
<path fill="none" stroke="midnightblue" d="M146.122,-232.992C145.132,-224.726 144.985,-214.373 145.682,-205.489"/>
<polygon fill="midnightblue" stroke="midnightblue" points="149.189,-205.66 147.016,-195.29 142.248,-204.752 149.189,-205.66"/>
</g>
<!-- Node3 -->
<g id="node3" class="node"><title>Node3</title>
<g id="a_node3"><a xlink:href="default__sink_8hpp.html" target="_top" xlink:title="Om header file.">
<polygon fill="none" stroke="black" points="86.4683,-117 86.4683,-137 217.532,-137 217.532,-117 86.4683,-117"/>
<text text-anchor="middle" x="152" y="-123" font-family="Helvetica,sans-Serif" font-size="10.00">om/sinks/default_sink.hpp</text>
</a>
</g>
</g>
<!-- Node2&#45;&gt;Node3 -->
<g id="edge2" class="edge"><title>Node2&#45;&gt;Node3</title>
<path fill="none" stroke="midnightblue" d="M152,-174.753C152,-167.25 152,-156.424 152,-147.078"/>
<polygon fill="midnightblue" stroke="midnightblue" points="155.5,-147.075 152,-137.075 148.5,-147.075 155.5,-147.075"/>
</g>
<!-- Node2&#45;&gt;Node1 -->
<g id="edge8" class="edge"><title>Node2&#45;&gt;Node1</title>
<path fill="none" stroke="midnightblue" d="M156.984,-195.29C158.456,-202.61 159.008,-213.172 158.639,-222.922"/>
<polygon fill="midnightblue" stroke="midnightblue" points="155.142,-222.756 157.878,-232.992 162.122,-223.284 155.142,-222.756"/>
</g>
<!-- Node4 -->
<g id="node4" class="node"><title>Node4</title>
<g id="a_node4"><a xlink:href="sink_8hpp.html" target="_top" xlink:title="Om header file.">
<polygon fill="none" stroke="black" points="-0.958008,-59 -0.958008,-79 68.958,-79 68.958,-59 -0.958008,-59"/>
<text text-anchor="middle" x="34" y="-65" font-family="Helvetica,sans-Serif" font-size="10.00">om/sink.hpp</text>
</a>
</g>
</g>
<!-- Node3&#45;&gt;Node4 -->
<g id="edge3" class="edge"><title>Node3&#45;&gt;Node4</title>
<path fill="none" stroke="midnightblue" d="M132.779,-116.878C113.664,-107.807 84.1238,-93.7876 62.3238,-83.4418"/>
<polygon fill="midnightblue" stroke="midnightblue" points="63.748,-80.2436 53.2131,-79.1181 60.7468,-86.5676 63.748,-80.2436"/>
</g>
<!-- Node6 -->
<g id="node6" class="node"><title>Node6</title>
<g id="a_node6"><a xlink:href="default__sink_8cpp.html" target="_top" xlink:title="Om source file.">
<polygon fill="none" stroke="black" points="86.749,-59 86.749,-79 217.251,-79 217.251,-59 86.749,-59"/>
<text text-anchor="middle" x="152" y="-65" font-family="Helvetica,sans-Serif" font-size="10.00">om/sinks/default_sink.cpp</text>
</a>
</g>
</g>
<!-- Node3&#45;&gt;Node6 -->
<g id="edge6" class="edge"><title>Node3&#45;&gt;Node6</title>
<path fill="none" stroke="midnightblue" d="M146.834,-116.753C145.308,-109.25 144.884,-98.4238 145.564,-89.0781"/>
<polygon fill="midnightblue" stroke="midnightblue" points="149.046,-89.4439 146.869,-79.0752 142.105,-88.5385 149.046,-89.4439"/>
</g>
<!-- Node5 -->
<g id="node5" class="node"><title>Node5</title>
<g id="a_node5"><a xlink:href="sink_8cpp.html" target="_top" xlink:title="Om source file.">
<polygon fill="none" stroke="black" points="-0.677246,-1 -0.677246,-21 68.6772,-21 68.6772,-1 -0.677246,-1"/>
<text text-anchor="middle" x="34" y="-7" font-family="Helvetica,sans-Serif" font-size="10.00">om/sink.cpp</text>
</a>
</g>
</g>
<!-- Node4&#45;&gt;Node5 -->
<g id="edge4" class="edge"><title>Node4&#45;&gt;Node5</title>
<path fill="none" stroke="midnightblue" d="M28.8337,-58.7527C27.3076,-51.2504 26.8844,-40.4238 27.5643,-31.0781"/>
<polygon fill="midnightblue" stroke="midnightblue" points="31.0461,-31.4439 28.869,-21.0752 24.1049,-30.5385 31.0461,-31.4439"/>
</g>
<!-- Node5&#45;&gt;Node4 -->
<g id="edge5" class="edge"><title>Node5&#45;&gt;Node4</title>
<path fill="none" stroke="midnightblue" d="M39.131,-21.0752C40.674,-28.5262 41.1141,-39.3384 40.4512,-48.7065"/>
<polygon fill="midnightblue" stroke="midnightblue" points="36.9633,-48.3895 39.1663,-58.7527 43.9067,-49.2776 36.9633,-48.3895"/>
</g>
<!-- Node6&#45;&gt;Node3 -->
<g id="edge7" class="edge"><title>Node6&#45;&gt;Node3</title>
<path fill="none" stroke="midnightblue" d="M157.131,-79.0752C158.674,-86.5262 159.114,-97.3384 158.451,-106.707"/>
<polygon fill="midnightblue" stroke="midnightblue" points="154.963,-106.389 157.166,-116.753 161.907,-107.278 154.963,-106.389"/>
</g>
</g>
</svg>
