<?xml version="1.0" encoding="UTF-8" standalone="no"?>
<!DOCTYPE svg PUBLIC "-//W3C//DTD SVG 1.1//EN"
 "http://www.w3.org/Graphics/SVG/1.1/DTD/svg11.dtd">
<!-- Generated by graphviz version 2.30.1 (20130221.2233)
 -->
<!-- Title: code/om/sinks/iterator_sink.hpp Pages: 1 -->
<svg width="252pt" height="182pt"
 viewBox="0.00 0.00 252.00 182.00" xmlns="http://www.w3.org/2000/svg" xmlns:xlink="http://www.w3.org/1999/xlink">
<g id="graph0" class="graph" transform="scale(1 1) rotate(0) translate(4 178)">
<title>code/om/sinks/iterator_sink.hpp</title>
<!-- Node1 -->
<g id="node1" class="node"><title>Node1</title>
<polygon fill="#bfbfbf" stroke="black" points="-0.908691,-141 -0.908691,-173 112.909,-173 112.909,-141 -0.908691,-141"/>
<text text-anchor="start" x="7.09131" y="-159" font-family="Helvetica,sans-Serif" font-size="10.00">code/om/sinks/iterator</text>
<text text-anchor="middle" x="56" y="-147" font-family="Helvetica,sans-Serif" font-size="10.00">_sink.hpp</text>
</g>
<!-- Node2 -->
<g id="node2" class="node"><title>Node2</title>
<g id="a_node2"><a xlink:href="iterator__sink_8cpp.html" target="_top" xlink:title="Om source file.">
<polygon fill="none" stroke="black" points="-0.908691,-71 -0.908691,-103 112.909,-103 112.909,-71 -0.908691,-71"/>
<text text-anchor="start" x="7.09131" y="-89" font-family="Helvetica,sans-Serif" font-size="10.00">code/om/sinks/iterator</text>
<text text-anchor="middle" x="56" y="-77" font-family="Helvetica,sans-Serif" font-size="10.00">_sink.cpp</text>
</a>
</g>
</g>
<!-- Node1&#45;&gt;Node2 -->
<g id="edge1" class="edge"><title>Node1&#45;&gt;Node2</title>
<path fill="none" stroke="midnightblue" d="M49.4608,-130.92C49.0088,-121.56 49.2836,-111.229 50.2851,-103.049"/>
<polygon fill="midnightblue" stroke="midnightblue" points="45.9743,-131.228 50.28,-140.909 52.9509,-130.656 45.9743,-131.228"/>
</g>
<!-- Node3 -->
<g id="node3" class="node"><title>Node3</title>
<g id="a_node3"><a xlink:href="stream__sink_8hpp.html" target="_top" xlink:title="Om header file.">
<polygon fill="none" stroke="black" points="131.372,-71 131.372,-103 244.628,-103 244.628,-71 131.372,-71"/>
<text text-anchor="start" x="139.372" y="-89" font-family="Helvetica,sans-Serif" font-size="10.00">code/om/sinks/stream</text>
<text text-anchor="middle" x="188" y="-77" font-family="Helvetica,sans-Serif" font-size="10.00">_sink.hpp</text>
</a>
</g>
</g>
<!-- Node1&#45;&gt;Node3 -->
<g id="edge3" class="edge"><title>Node1&#45;&gt;Node3</title>
<path fill="none" stroke="midnightblue" d="M94.3911,-136.223C114.936,-125.639 139.834,-112.813 158.787,-103.049"/>
<polygon fill="midnightblue" stroke="midnightblue" points="92.582,-133.218 85.2951,-140.909 95.7877,-139.44 92.582,-133.218"/>
</g>
<!-- Node2&#45;&gt;Node1 -->
<g id="edge2" class="edge"><title>Node2&#45;&gt;Node1</title>
<path fill="none" stroke="midnightblue" d="M62.5368,-113.032C62.9913,-122.389 62.7191,-132.721 61.72,-140.909"/>
<polygon fill="midnightblue" stroke="midnightblue" points="66.0237,-112.728 61.7149,-103.049 59.0474,-113.303 66.0237,-112.728"/>
</g>
<!-- Node4 -->
<g id="node4" class="node"><title>Node4</title>
<g id="a_node4"><a xlink:href="stream__sink_8cpp.html" target="_top" xlink:title="Om source file.">
<polygon fill="none" stroke="black" points="131.372,-1 131.372,-33 244.628,-33 244.628,-1 131.372,-1"/>
<text text-anchor="start" x="139.372" y="-19" font-family="Helvetica,sans-Serif" font-size="10.00">code/om/sinks/stream</text>
<text text-anchor="middle" x="188" y="-7" font-family="Helvetica,sans-Serif" font-size="10.00">_sink.cpp</text>
</a>
</g>
</g>
<!-- Node3&#45;&gt;Node4 -->
<g id="edge4" class="edge"><title>Node3&#45;&gt;Node4</title>
<path fill="none" stroke="midnightblue" d="M181.461,-60.9196C181.009,-51.5597 181.284,-41.2293 182.285,-33.0492"/>
<polygon fill="midnightblue" stroke="midnightblue" points="177.974,-61.2281 182.28,-70.9086 184.951,-60.656 177.974,-61.2281"/>
</g>
<!-- Node4&#45;&gt;Node3 -->
<g id="edge5" class="edge"><title>Node4&#45;&gt;Node3</title>
<path fill="none" stroke="midnightblue" d="M194.537,-43.0321C194.991,-52.3887 194.719,-62.7211 193.72,-70.9086"/>
<polygon fill="midnightblue" stroke="midnightblue" points="198.024,-42.7283 193.715,-33.0492 191.047,-43.3027 198.024,-42.7283"/>
</g>
</g>
</svg>
