<?xml version="1.0" encoding="UTF-8" standalone="no"?>
<!DOCTYPE svg PUBLIC "-//W3C//DTD SVG 1.1//EN"
 "http://www.w3.org/Graphics/SVG/1.1/DTD/svg11.dtd">
<!-- Generated by graphviz version 2.36.0 (20140111.2315)
 -->
<!-- Title: om/sink/iterator_sink.cpp Pages: 1 -->
<svg width="306pt" height="252pt"
 viewBox="0.00 0.00 306.00 252.00" xmlns="http://www.w3.org/2000/svg" xmlns:xlink="http://www.w3.org/1999/xlink">
<g id="graph0" class="graph" transform="scale(1 1) rotate(0) translate(4 248)">
<title>om/sink/iterator_sink.cpp</title>
<!-- Node1 -->
<g id="node1" class="node"><title>Node1</title>
<g id="a_node1"><a xlink:title="Om source file.">
<polygon fill="#bfbfbf" stroke="black" points="120.7,-225 120.7,-243 247.3,-243 247.3,-225 120.7,-225"/>
<text text-anchor="middle" x="184" y="-231" font-family="Helvetica,sans-Serif" font-size="10.00">om/sink/iterator_sink.cpp</text>
</a>
</g>
</g>
<!-- Node2 -->
<g id="node2" class="node"><title>Node2</title>
<g id="a_node2"><a xlink:href="iterator__sink_8hpp.html" target="_top" xlink:title="Om header file.">
<polygon fill="none" stroke="black" points="120.419,-169 120.419,-187 247.581,-187 247.581,-169 120.419,-169"/>
<text text-anchor="middle" x="184" y="-175" font-family="Helvetica,sans-Serif" font-size="10.00">om/sink/iterator_sink.hpp</text>
</a>
</g>
</g>
<!-- Node1&#45;&gt;Node2 -->
<g id="edge1" class="edge"><title>Node1&#45;&gt;Node2</title>
<path fill="none" stroke="midnightblue" d="M178.938,-224.562C177.325,-217.308 176.868,-206.588 177.566,-197.369"/>
<polygon fill="midnightblue" stroke="midnightblue" points="181.069,-197.59 178.991,-187.201 174.137,-196.619 181.069,-197.59"/>
</g>
<!-- Node2&#45;&gt;Node1 -->
<g id="edge9" class="edge"><title>Node2&#45;&gt;Node1</title>
<path fill="none" stroke="midnightblue" d="M189.009,-187.201C190.665,-194.459 191.139,-205.313 190.433,-214.633"/>
<polygon fill="midnightblue" stroke="midnightblue" points="186.963,-214.178 189.062,-224.562 193.897,-215.135 186.963,-214.178"/>
</g>
<!-- Node3 -->
<g id="node3" class="node"><title>Node3</title>
<g id="a_node3"><a xlink:href="default__sink_8hpp.html" target="_top" xlink:title="Om header file.">
<polygon fill="none" stroke="black" points="120.968,-113 120.968,-131 247.032,-131 247.032,-113 120.968,-113"/>
<text text-anchor="middle" x="184" y="-119" font-family="Helvetica,sans-Serif" font-size="10.00">om/sink/default_sink.hpp</text>
</a>
</g>
</g>
<!-- Node2&#45;&gt;Node3 -->
<g id="edge2" class="edge"><title>Node2&#45;&gt;Node3</title>
<path fill="none" stroke="midnightblue" d="M184,-168.562C184,-161.308 184,-150.588 184,-141.369"/>
<polygon fill="midnightblue" stroke="midnightblue" points="187.5,-141.201 184,-131.201 180.5,-141.201 187.5,-141.201"/>
</g>
<!-- Node4 -->
<g id="node4" class="node"><title>Node4</title>
<g id="a_node4"><a xlink:href="sink_2sink_8hpp.html" target="_top" xlink:title="Om header file.">
<polygon fill="none" stroke="black" points="-0.23877,-57 -0.23877,-75 90.2388,-75 90.2388,-57 -0.23877,-57"/>
<text text-anchor="middle" x="45" y="-63" font-family="Helvetica,sans-Serif" font-size="10.00">om/sink/sink.hpp</text>
</a>
</g>
</g>
<!-- Node3&#45;&gt;Node4 -->
<g id="edge3" class="edge"><title>Node3&#45;&gt;Node4</title>
<path fill="none" stroke="midnightblue" d="M163.19,-112.916C139.954,-103.889 102.127,-89.1931 75.5381,-78.8637"/>
<polygon fill="midnightblue" stroke="midnightblue" points="76.5407,-75.4984 65.952,-75.1396 74.0058,-82.0234 76.5407,-75.4984"/>
</g>
<!-- Node6 -->
<g id="node6" class="node"><title>Node6</title>
<g id="a_node6"><a xlink:title=" ">
<polygon fill="none" stroke="#bfbfbf" points="108.438,-57 108.438,-75 155.562,-75 155.562,-57 108.438,-57"/>
<text text-anchor="middle" x="132" y="-63" font-family="Helvetica,sans-Serif" font-size="10.00">iterator</text>
</a>
</g>
</g>
<!-- Node3&#45;&gt;Node6 -->
<g id="edge6" class="edge"><title>Node3&#45;&gt;Node6</title>
<path fill="none" stroke="midnightblue" d="M175.875,-112.562C168.198,-104.591 156.492,-92.4341 147.102,-82.6825"/>
<polygon fill="midnightblue" stroke="midnightblue" points="149.355,-79.9769 139.898,-75.2014 144.313,-84.8324 149.355,-79.9769"/>
</g>
<!-- Node7 -->
<g id="node7" class="node"><title>Node7</title>
<g id="a_node7"><a xlink:href="default__sink_8cpp.html" target="_top" xlink:title="Om source file.">
<polygon fill="none" stroke="black" points="173.249,-57 173.249,-75 298.751,-75 298.751,-57 173.249,-57"/>
<text text-anchor="middle" x="236" y="-63" font-family="Helvetica,sans-Serif" font-size="10.00">om/sink/default_sink.cpp</text>
</a>
</g>
</g>
<!-- Node3&#45;&gt;Node7 -->
<g id="edge7" class="edge"><title>Node3&#45;&gt;Node7</title>
<path fill="none" stroke="midnightblue" d="M187.062,-112.562C193.086,-104.431 204.753,-91.9462 215.329,-82.1003"/>
<polygon fill="midnightblue" stroke="midnightblue" points="217.943,-84.4602 223.093,-75.2014 213.293,-79.2275 217.943,-84.4602"/>
</g>
<!-- Node5 -->
<g id="node5" class="node"><title>Node5</title>
<g id="a_node5"><a xlink:href="sink_2sink_8cpp.html" target="_top" xlink:title="Om source file.">
<polygon fill="none" stroke="black" points="0.0419922,-1 0.0419922,-19 89.958,-19 89.958,-1 0.0419922,-1"/>
<text text-anchor="middle" x="45" y="-7" font-family="Helvetica,sans-Serif" font-size="10.00">om/sink/sink.cpp</text>
</a>
</g>
</g>
<!-- Node4&#45;&gt;Node5 -->
<g id="edge4" class="edge"><title>Node4&#45;&gt;Node5</title>
<path fill="none" stroke="midnightblue" d="M39.9375,-56.5625C38.3254,-49.308 37.8683,-38.5884 38.5664,-29.3691"/>
<polygon fill="midnightblue" stroke="midnightblue" points="42.0695,-29.5903 39.9906,-19.2014 35.1371,-28.6192 42.0695,-29.5903"/>
</g>
<!-- Node5&#45;&gt;Node4 -->
<g id="edge5" class="edge"><title>Node5&#45;&gt;Node4</title>
<path fill="none" stroke="midnightblue" d="M50.0094,-19.2014C51.6646,-26.4586 52.1393,-37.3129 51.4335,-46.6333"/>
<polygon fill="midnightblue" stroke="midnightblue" points="47.9632,-46.1777 50.0625,-56.5625 54.8974,-47.1352 47.9632,-46.1777"/>
</g>
<!-- Node7&#45;&gt;Node3 -->
<g id="edge8" class="edge"><title>Node7&#45;&gt;Node3</title>
<path fill="none" stroke="midnightblue" d="M233.055,-75.2786C227.016,-83.4744 215.117,-96.203 204.401,-106.151"/>
<polygon fill="midnightblue" stroke="midnightblue" points="202.065,-103.544 196.907,-112.799 206.71,-108.781 202.065,-103.544"/>
</g>
</g>
</svg>
