<?xml version="1.0" encoding="UTF-8" standalone="no"?>
<!DOCTYPE svg PUBLIC "-//W3C//DTD SVG 1.1//EN"
 "http://www.w3.org/Graphics/SVG/1.1/DTD/svg11.dtd">
<!-- Generated by graphviz version 2.28.0 (20120817.0054)
 -->
<!-- Title: code/om/sources/iterator_pair_source.hpp Pages: 1 -->
<svg width="787pt" height="368pt"
 viewBox="0.00 0.00 787.00 368.00" xmlns="http://www.w3.org/2000/svg" xmlns:xlink="http://www.w3.org/1999/xlink">
<g id="graph1" class="graph" transform="scale(1 1) rotate(0) translate(4 364)">
<title>code/om/sources/iterator_pair_source.hpp</title>
<!-- Node1 -->
<g id="node1" class="node"><title>Node1</title>
<polygon fill="#bfbfbf" stroke="black" points="589.5,-329 589.5,-359 708.5,-359 708.5,-329 589.5,-329"/>
<text text-anchor="start" x="597.5" y="-347" font-family="Helvetica,sans-Serif" font-size="10.00">code/om/sources/iterator</text>
<text text-anchor="middle" x="649" y="-336" font-family="Helvetica,sans-Serif" font-size="10.00">_pair_source.hpp</text>
</g>
<!-- Node2 -->
<g id="node3" class="node"><title>Node2</title>
<a xlink:href="collection__back__source_8hpp.html" target="_top" xlink:title="Om hpp file.">
<polygon fill="none" stroke="black" points="274,-261 274,-291 402,-291 402,-261 274,-261"/>
<text text-anchor="start" x="282" y="-279" font-family="Helvetica,sans-Serif" font-size="10.00">code/om/sources/collection</text>
<text text-anchor="middle" x="338" y="-268" font-family="Helvetica,sans-Serif" font-size="10.00">_back_source.hpp</text>
</a>
</g>
<!-- Node1&#45;&gt;Node2 -->
<g id="edge2" class="edge"><title>Node1&#45;&gt;Node2</title>
<path fill="none" stroke="midnightblue" d="M579.401,-328.23C526.357,-316.973 453.88,-301.592 402.215,-290.628"/>
<polygon fill="midnightblue" stroke="midnightblue" points="578.895,-331.7 589.404,-330.353 580.349,-324.853 578.895,-331.7"/>
</g>
<!-- Node4 -->
<g id="node8" class="node"><title>Node4</title>
<a xlink:href="collection__front__source_8hpp.html" target="_top" xlink:title="Om hpp file.">
<polygon fill="none" stroke="black" points="514,-261 514,-291 642,-291 642,-261 514,-261"/>
<text text-anchor="start" x="522" y="-279" font-family="Helvetica,sans-Serif" font-size="10.00">code/om/sources/collection</text>
<text text-anchor="middle" x="578" y="-268" font-family="Helvetica,sans-Serif" font-size="10.00">_front_source.hpp</text>
</a>
</g>
<!-- Node1&#45;&gt;Node4 -->
<g id="edge8" class="edge"><title>Node1&#45;&gt;Node4</title>
<path fill="none" stroke="midnightblue" d="M626.168,-321.776C615.448,-311.81 602.953,-300.196 593.376,-291.293"/>
<polygon fill="midnightblue" stroke="midnightblue" points="623.887,-324.434 633.594,-328.679 628.653,-319.307 623.887,-324.434"/>
</g>
<!-- Node22 -->
<g id="node52" class="node"><title>Node22</title>
<a xlink:href="iterator__pair__source_8cpp.html" target="_top" xlink:title="Om cpp file.">
<polygon fill="none" stroke="black" points="660.5,-261 660.5,-291 779.5,-291 779.5,-261 660.5,-261"/>
<text text-anchor="start" x="668.5" y="-279" font-family="Helvetica,sans-Serif" font-size="10.00">code/om/sources/iterator</text>
<text text-anchor="middle" x="720" y="-268" font-family="Helvetica,sans-Serif" font-size="10.00">_pair_source.cpp</text>
</a>
</g>
<!-- Node1&#45;&gt;Node22 -->
<g id="edge60" class="edge"><title>Node1&#45;&gt;Node22</title>
<path fill="none" stroke="midnightblue" d="M665.824,-321.434C675.876,-311.46 688.559,-299.896 699.223,-291.066"/>
<polygon fill="midnightblue" stroke="midnightblue" points="663.224,-319.086 658.728,-328.679 668.225,-323.984 663.224,-319.086"/>
</g>
<!-- Node3 -->
<g id="node5" class="node"><title>Node3</title>
<a xlink:href="collection__back__source_8cpp.html" target="_top" xlink:title="Om cpp file.">
<polygon fill="none" stroke="black" points="274,-193 274,-223 402,-223 402,-193 274,-193"/>
<text text-anchor="start" x="282" y="-211" font-family="Helvetica,sans-Serif" font-size="10.00">code/om/sources/collection</text>
<text text-anchor="middle" x="338" y="-200" font-family="Helvetica,sans-Serif" font-size="10.00">_back_source.cpp</text>
</a>
</g>
<!-- Node2&#45;&gt;Node3 -->
<g id="edge4" class="edge"><title>Node2&#45;&gt;Node3</title>
<path fill="none" stroke="midnightblue" d="M331.455,-250.532C331.005,-241.361 331.296,-231.245 332.325,-223.293"/>
<polygon fill="midnightblue" stroke="midnightblue" points="327.983,-251.013 332.322,-260.679 334.958,-250.417 327.983,-251.013"/>
</g>
<!-- Node3&#45;&gt;Node2 -->
<g id="edge6" class="edge"><title>Node3&#45;&gt;Node2</title>
<path fill="none" stroke="midnightblue" d="M344.544,-233.436C344.995,-242.605 344.706,-252.722 343.678,-260.679"/>
<polygon fill="midnightblue" stroke="midnightblue" points="348.016,-232.958 343.675,-223.293 341.041,-233.555 348.016,-232.958"/>
</g>
<!-- Node5 -->
<g id="node10" class="node"><title>Node5</title>
<a xlink:href="form_8hpp.html" target="_top" xlink:title="Om hpp file.">
<polygon fill="none" stroke="black" points="420,-198.5 420,-217.5 512,-217.5 512,-198.5 420,-198.5"/>
<text text-anchor="middle" x="466" y="-205.5" font-family="Helvetica,sans-Serif" font-size="10.00">code/om/form.hpp</text>
</a>
</g>
<!-- Node4&#45;&gt;Node5 -->
<g id="edge10" class="edge"><title>Node4&#45;&gt;Node5</title>
<path fill="none" stroke="midnightblue" d="M545.206,-255.675C523.859,-243.095 497.046,-227.295 480.733,-217.682"/>
<polygon fill="midnightblue" stroke="midnightblue" points="543.581,-258.78 553.973,-260.841 547.135,-252.749 543.581,-258.78"/>
</g>
<!-- Node19 -->
<g id="node44" class="node"><title>Node19</title>
<a xlink:href="literal_8hpp.html" target="_top" xlink:title="Om hpp file.">
<polygon fill="none" stroke="black" points="530.5,-198.5 530.5,-217.5 625.5,-217.5 625.5,-198.5 530.5,-198.5"/>
<text text-anchor="middle" x="578" y="-205.5" font-family="Helvetica,sans-Serif" font-size="10.00">code/om/literal.hpp</text>
</a>
</g>
<!-- Node4&#45;&gt;Node19 -->
<g id="edge50" class="edge"><title>Node4&#45;&gt;Node19</title>
<path fill="none" stroke="midnightblue" d="M578,-250.376C578,-238.971 578,-226.136 578,-217.828"/>
<polygon fill="midnightblue" stroke="midnightblue" points="574.5,-250.679 578,-260.679 581.5,-250.679 574.5,-250.679"/>
</g>
<!-- Node21 -->
<g id="node49" class="node"><title>Node21</title>
<a xlink:href="collection__front__source_8cpp.html" target="_top" xlink:title="Om cpp file.">
<polygon fill="none" stroke="black" points="644,-193 644,-223 772,-223 772,-193 644,-193"/>
<text text-anchor="start" x="652" y="-211" font-family="Helvetica,sans-Serif" font-size="10.00">code/om/sources/collection</text>
<text text-anchor="middle" x="708" y="-200" font-family="Helvetica,sans-Serif" font-size="10.00">_front_source.cpp</text>
</a>
</g>
<!-- Node4&#45;&gt;Node21 -->
<g id="edge56" class="edge"><title>Node4&#45;&gt;Node21</title>
<path fill="none" stroke="midnightblue" d="M609.143,-256.055C628.892,-245.564 654.318,-232.743 674.504,-223.135"/>
<polygon fill="midnightblue" stroke="midnightblue" points="607.385,-253.026 600.231,-260.841 610.697,-259.193 607.385,-253.026"/>
</g>
<!-- Node6 -->
<g id="node12" class="node"><title>Node6</title>
<a xlink:href="expression_8hpp.html" target="_top" xlink:title="Om hpp file.">
<polygon fill="none" stroke="black" points="280,-136.5 280,-155.5 402,-155.5 402,-136.5 280,-136.5"/>
<text text-anchor="middle" x="341" y="-143.5" font-family="Helvetica,sans-Serif" font-size="10.00">code/om/expression.hpp</text>
</a>
</g>
<!-- Node5&#45;&gt;Node6 -->
<g id="edge12" class="edge"><title>Node5&#45;&gt;Node6</title>
<path fill="none" stroke="midnightblue" d="M439.055,-194.066C414.8,-182.424 379.839,-165.643 358.876,-155.581"/>
<polygon fill="midnightblue" stroke="midnightblue" points="437.561,-197.231 448.091,-198.403 440.59,-190.921 437.561,-197.231"/>
</g>
<!-- Node18 -->
<g id="node41" class="node"><title>Node18</title>
<a xlink:href="form_8cpp.html" target="_top" xlink:title="Om cpp file.">
<polygon fill="none" stroke="black" points="420,-136.5 420,-155.5 512,-155.5 512,-136.5 420,-136.5"/>
<text text-anchor="middle" x="466" y="-143.5" font-family="Helvetica,sans-Serif" font-size="10.00">code/om/form.cpp</text>
</a>
</g>
<!-- Node5&#45;&gt;Node18 -->
<g id="edge46" class="edge"><title>Node5&#45;&gt;Node18</title>
<path fill="none" stroke="midnightblue" d="M459.683,-188.16C458.797,-177.248 459.27,-164.04 461.103,-155.581"/>
<polygon fill="midnightblue" stroke="midnightblue" points="456.263,-188.977 461.099,-198.403 463.197,-188.018 456.263,-188.977"/>
</g>
<!-- Node7 -->
<g id="node14" class="node"><title>Node7</title>
<a xlink:href="evaluation_8hpp.html" target="_top" xlink:title="Om hpp file.">
<polygon fill="none" stroke="black" points="-0.5,-74.5 -0.5,-93.5 118.5,-93.5 118.5,-74.5 -0.5,-74.5"/>
<text text-anchor="middle" x="59" y="-81.5" font-family="Helvetica,sans-Serif" font-size="10.00">code/om/evaluation.hpp</text>
</a>
</g>
<!-- Node6&#45;&gt;Node7 -->
<g id="edge14" class="edge"><title>Node6&#45;&gt;Node7</title>
<path fill="none" stroke="midnightblue" d="M289.928,-134.408C246.553,-125.377 182.662,-111.991 127,-100 117.427,-97.9377 107.105,-95.6788 97.4649,-93.5541"/>
<polygon fill="midnightblue" stroke="midnightblue" points="289.446,-137.883 299.949,-136.493 290.872,-131.029 289.446,-137.883"/>
</g>
<!-- Node9 -->
<g id="node19" class="node"><title>Node9</title>
<a xlink:href="expression_8cpp.html" target="_top" xlink:title="Om cpp file.">
<polygon fill="none" stroke="black" points="136.5,-74.5 136.5,-93.5 257.5,-93.5 257.5,-74.5 136.5,-74.5"/>
<text text-anchor="middle" x="197" y="-81.5" font-family="Helvetica,sans-Serif" font-size="10.00">code/om/expression.cpp</text>
</a>
</g>
<!-- Node6&#45;&gt;Node9 -->
<g id="edge20" class="edge"><title>Node6&#45;&gt;Node9</title>
<path fill="none" stroke="midnightblue" d="M305.855,-132.68C276.106,-121.02 235.055,-103.821 212.696,-93.5806"/>
<polygon fill="midnightblue" stroke="midnightblue" points="304.879,-136.055 315.468,-136.403 307.407,-129.527 304.879,-136.055"/>
</g>
<!-- Node10 -->
<g id="node22" class="node"><title>Node10</title>
<a xlink:href="expression__operation_8hpp.html" target="_top" xlink:title="Om hpp file.">
<polygon fill="none" stroke="black" points="276,-69 276,-99 406,-99 406,-69 276,-69"/>
<text text-anchor="start" x="284" y="-87" font-family="Helvetica,sans-Serif" font-size="10.00">code/om/operations</text>
<text text-anchor="middle" x="341" y="-76" font-family="Helvetica,sans-Serif" font-size="10.00">/expression_operation.hpp</text>
</a>
</g>
<!-- Node6&#45;&gt;Node10 -->
<g id="edge24" class="edge"><title>Node6&#45;&gt;Node10</title>
<path fill="none" stroke="midnightblue" d="M341,-126.371C341,-117.585 341,-107.272 341,-99.1408"/>
<polygon fill="midnightblue" stroke="midnightblue" points="337.5,-126.403 341,-136.403 344.5,-126.403 337.5,-126.403"/>
</g>
<!-- Node12 -->
<g id="node26" class="node"><title>Node12</title>
<a xlink:href="fill__operation_8hpp.html" target="_top" xlink:title="Om hpp file.">
<polygon fill="none" stroke="black" points="424,-69 424,-99 524,-99 524,-69 424,-69"/>
<text text-anchor="start" x="432" y="-87" font-family="Helvetica,sans-Serif" font-size="10.00">code/om/operations</text>
<text text-anchor="middle" x="474" y="-76" font-family="Helvetica,sans-Serif" font-size="10.00">/fill_operation.hpp</text>
</a>
</g>
<!-- Node6&#45;&gt;Node12 -->
<g id="edge28" class="edge"><title>Node6&#45;&gt;Node12</title>
<path fill="none" stroke="midnightblue" d="M369.353,-132.209C390.952,-122.465 420.663,-109.062 442.911,-99.0253"/>
<polygon fill="midnightblue" stroke="midnightblue" points="367.732,-129.101 360.056,-136.403 370.61,-135.482 367.732,-129.101"/>
</g>
<!-- Node14 -->
<g id="node31" class="node"><title>Node14</title>
<a xlink:href="inject__operation_8hpp.html" target="_top" xlink:title="Om hpp file.">
<polygon fill="none" stroke="black" points="542,-69 542,-99 646,-99 646,-69 542,-69"/>
<text text-anchor="start" x="550" y="-87" font-family="Helvetica,sans-Serif" font-size="10.00">code/om/operations</text>
<text text-anchor="middle" x="594" y="-76" font-family="Helvetica,sans-Serif" font-size="10.00">/inject_operation.hpp</text>
</a>
</g>
<!-- Node6&#45;&gt;Node14 -->
<g id="edge34" class="edge"><title>Node6&#45;&gt;Node14</title>
<path fill="none" stroke="midnightblue" d="M387.817,-134.177C426.714,-125.15 483.494,-111.888 533,-100 535.863,-99.3125 538.801,-98.6031 541.766,-97.8842"/>
<polygon fill="midnightblue" stroke="midnightblue" points="386.787,-130.823 377.836,-136.492 388.368,-137.642 386.787,-130.823"/>
</g>
<!-- Node16 -->
<g id="node36" class="node"><title>Node16</title>
<a xlink:href="skip__operation_8hpp.html" target="_top" xlink:title="Om hpp file.">
<polygon fill="none" stroke="black" points="664.5,-69 664.5,-99 765.5,-99 765.5,-69 664.5,-69"/>
<text text-anchor="start" x="672.5" y="-87" font-family="Helvetica,sans-Serif" font-size="10.00">code/om/operations</text>
<text text-anchor="middle" x="715" y="-76" font-family="Helvetica,sans-Serif" font-size="10.00">/skip_operation.hpp</text>
</a>
</g>
<!-- Node6&#45;&gt;Node16 -->
<g id="edge40" class="edge"><title>Node6&#45;&gt;Node16</title>
<path fill="none" stroke="midnightblue" d="M412.437,-135.63C490.341,-125.256 609.94,-108.837 655,-100 658.056,-99.4007 661.189,-98.7448 664.343,-98.0526"/>
<polygon fill="midnightblue" stroke="midnightblue" points="411.658,-132.202 402.206,-136.989 412.58,-139.141 411.658,-132.202"/>
</g>
<!-- Node8 -->
<g id="node16" class="node"><title>Node8</title>
<a xlink:href="evaluation_8cpp.html" target="_top" xlink:title="Om cpp file.">
<polygon fill="none" stroke="black" points="0,-6.5 0,-25.5 118,-25.5 118,-6.5 0,-6.5"/>
<text text-anchor="middle" x="59" y="-13.5" font-family="Helvetica,sans-Serif" font-size="10.00">code/om/evaluation.cpp</text>
</a>
</g>
<!-- Node7&#45;&gt;Node8 -->
<g id="edge16" class="edge"><title>Node7&#45;&gt;Node8</title>
<path fill="none" stroke="midnightblue" d="M52.8593,-64.425C51.722,-51.7978 52.1768,-35.6623 54.2239,-25.8411"/>
<polygon fill="midnightblue" stroke="midnightblue" points="49.4003,-64.9616 54.2687,-74.3717 56.3311,-63.9795 49.4003,-64.9616"/>
</g>
<!-- Node8&#45;&gt;Node7 -->
<g id="edge18" class="edge"><title>Node8&#45;&gt;Node7</title>
<path fill="none" stroke="midnightblue" d="M65.1652,-35.8504C66.2794,-48.528 65.8015,-64.6426 63.7313,-74.3717"/>
<polygon fill="midnightblue" stroke="midnightblue" points="68.6176,-35.265 63.7761,-25.8411 61.684,-36.2273 68.6176,-35.265"/>
</g>
<!-- Node9&#45;&gt;Node6 -->
<g id="edge22" class="edge"><title>Node9&#45;&gt;Node6</title>
<path fill="none" stroke="midnightblue" d="M232.098,-97.3021C261.836,-108.956 302.891,-126.156 325.269,-136.403"/>
<polygon fill="midnightblue" stroke="midnightblue" points="233.08,-93.9289 222.491,-93.5806 230.551,-100.456 233.08,-93.9289"/>
</g>
<!-- Node11 -->
<g id="node24" class="node"><title>Node11</title>
<a xlink:href="expression__operation_8cpp.html" target="_top" xlink:title="Om cpp file.">
<polygon fill="none" stroke="black" points="276.5,-1 276.5,-31 405.5,-31 405.5,-1 276.5,-1"/>
<text text-anchor="start" x="284.5" y="-19" font-family="Helvetica,sans-Serif" font-size="10.00">code/om/operations</text>
<text text-anchor="middle" x="341" y="-8" font-family="Helvetica,sans-Serif" font-size="10.00">/expression_operation.cpp</text>
</a>
</g>
<!-- Node10&#45;&gt;Node11 -->
<g id="edge26" class="edge"><title>Node10&#45;&gt;Node11</title>
<path fill="none" stroke="midnightblue" d="M341,-58.5322C341,-49.3606 341,-39.2449 341,-31.2931"/>
<polygon fill="midnightblue" stroke="midnightblue" points="337.5,-58.6789 341,-68.679 344.5,-58.679 337.5,-58.6789"/>
</g>
<!-- Node13 -->
<g id="node28" class="node"><title>Node13</title>
<a xlink:href="fill__operation_8cpp.html" target="_top" xlink:title="Om cpp file.">
<polygon fill="none" stroke="black" points="424,-1 424,-31 524,-31 524,-1 424,-1"/>
<text text-anchor="start" x="432" y="-19" font-family="Helvetica,sans-Serif" font-size="10.00">code/om/operations</text>
<text text-anchor="middle" x="474" y="-8" font-family="Helvetica,sans-Serif" font-size="10.00">/fill_operation.cpp</text>
</a>
</g>
<!-- Node12&#45;&gt;Node13 -->
<g id="edge30" class="edge"><title>Node12&#45;&gt;Node13</title>
<path fill="none" stroke="midnightblue" d="M467.455,-58.5322C467.005,-49.3606 467.296,-39.2449 468.325,-31.2931"/>
<polygon fill="midnightblue" stroke="midnightblue" points="463.983,-59.0133 468.322,-68.679 470.958,-58.4173 463.983,-59.0133"/>
</g>
<!-- Node13&#45;&gt;Node12 -->
<g id="edge32" class="edge"><title>Node13&#45;&gt;Node12</title>
<path fill="none" stroke="midnightblue" d="M480.544,-41.4356C480.995,-50.605 480.706,-60.7221 479.678,-68.679"/>
<polygon fill="midnightblue" stroke="midnightblue" points="484.016,-40.9578 479.675,-31.2931 477.041,-41.5554 484.016,-40.9578"/>
</g>
<!-- Node15 -->
<g id="node33" class="node"><title>Node15</title>
<a xlink:href="inject__operation_8cpp.html" target="_top" xlink:title="Om cpp file.">
<polygon fill="none" stroke="black" points="542,-1 542,-31 646,-31 646,-1 542,-1"/>
<text text-anchor="start" x="550" y="-19" font-family="Helvetica,sans-Serif" font-size="10.00">code/om/operations</text>
<text text-anchor="middle" x="594" y="-8" font-family="Helvetica,sans-Serif" font-size="10.00">/inject_operation.cpp</text>
</a>
</g>
<!-- Node14&#45;&gt;Node15 -->
<g id="edge36" class="edge"><title>Node14&#45;&gt;Node15</title>
<path fill="none" stroke="midnightblue" d="M587.455,-58.5322C587.005,-49.3606 587.296,-39.2449 588.325,-31.2931"/>
<polygon fill="midnightblue" stroke="midnightblue" points="583.983,-59.0133 588.322,-68.679 590.958,-58.4173 583.983,-59.0133"/>
</g>
<!-- Node15&#45;&gt;Node14 -->
<g id="edge38" class="edge"><title>Node15&#45;&gt;Node14</title>
<path fill="none" stroke="midnightblue" d="M600.544,-41.4356C600.995,-50.605 600.706,-60.7221 599.678,-68.679"/>
<polygon fill="midnightblue" stroke="midnightblue" points="604.016,-40.9578 599.675,-31.2931 597.041,-41.5554 604.016,-40.9578"/>
</g>
<!-- Node17 -->
<g id="node38" class="node"><title>Node17</title>
<a xlink:href="skip__operation_8cpp.html" target="_top" xlink:title="Om cpp file.">
<polygon fill="none" stroke="black" points="665,-1 665,-31 765,-31 765,-1 665,-1"/>
<text text-anchor="start" x="673" y="-19" font-family="Helvetica,sans-Serif" font-size="10.00">code/om/operations</text>
<text text-anchor="middle" x="715" y="-8" font-family="Helvetica,sans-Serif" font-size="10.00">/skip_operation.cpp</text>
</a>
</g>
<!-- Node16&#45;&gt;Node17 -->
<g id="edge42" class="edge"><title>Node16&#45;&gt;Node17</title>
<path fill="none" stroke="midnightblue" d="M708.455,-58.5322C708.005,-49.3606 708.296,-39.2449 709.325,-31.2931"/>
<polygon fill="midnightblue" stroke="midnightblue" points="704.983,-59.0133 709.322,-68.679 711.958,-58.4173 704.983,-59.0133"/>
</g>
<!-- Node17&#45;&gt;Node16 -->
<g id="edge44" class="edge"><title>Node17&#45;&gt;Node16</title>
<path fill="none" stroke="midnightblue" d="M721.544,-41.4356C721.995,-50.605 721.706,-60.7221 720.678,-68.679"/>
<polygon fill="midnightblue" stroke="midnightblue" points="725.016,-40.9578 720.675,-31.2931 718.041,-41.5554 725.016,-40.9578"/>
</g>
<!-- Node18&#45;&gt;Node5 -->
<g id="edge48" class="edge"><title>Node18&#45;&gt;Node5</title>
<path fill="none" stroke="midnightblue" d="M472.315,-165.82C473.203,-176.728 472.732,-189.938 470.901,-198.403"/>
<polygon fill="midnightblue" stroke="midnightblue" points="475.736,-165.006 470.897,-155.581 468.802,-165.966 475.736,-165.006"/>
</g>
<!-- Node20 -->
<g id="node46" class="node"><title>Node20</title>
<a xlink:href="literal_8cpp.html" target="_top" xlink:title="Om cpp file.">
<polygon fill="none" stroke="black" points="530.5,-136.5 530.5,-155.5 625.5,-155.5 625.5,-136.5 530.5,-136.5"/>
<text text-anchor="middle" x="578" y="-143.5" font-family="Helvetica,sans-Serif" font-size="10.00">code/om/literal.cpp</text>
</a>
</g>
<!-- Node19&#45;&gt;Node20 -->
<g id="edge52" class="edge"><title>Node19&#45;&gt;Node20</title>
<path fill="none" stroke="midnightblue" d="M571.683,-188.16C570.797,-177.248 571.27,-164.04 573.103,-155.581"/>
<polygon fill="midnightblue" stroke="midnightblue" points="568.263,-188.977 573.099,-198.403 575.197,-188.018 568.263,-188.977"/>
</g>
<!-- Node20&#45;&gt;Node19 -->
<g id="edge54" class="edge"><title>Node20&#45;&gt;Node19</title>
<path fill="none" stroke="midnightblue" d="M584.315,-165.82C585.203,-176.728 584.732,-189.938 582.901,-198.403"/>
<polygon fill="midnightblue" stroke="midnightblue" points="587.736,-165.006 582.897,-155.581 580.802,-165.966 587.736,-165.006"/>
</g>
<!-- Node21&#45;&gt;Node4 -->
<g id="edge58" class="edge"><title>Node21&#45;&gt;Node4</title>
<path fill="none" stroke="midnightblue" d="M676.905,-227.92C657.165,-238.407 631.74,-251.228 611.546,-260.841"/>
<polygon fill="midnightblue" stroke="midnightblue" points="678.659,-230.951 685.812,-223.135 675.346,-224.784 678.659,-230.951"/>
</g>
<!-- Node22&#45;&gt;Node1 -->
<g id="edge62" class="edge"><title>Node22&#45;&gt;Node1</title>
<path fill="none" stroke="midnightblue" d="M703.26,-298.483C693.291,-308.38 680.714,-319.857 670.084,-328.679"/>
<polygon fill="midnightblue" stroke="midnightblue" points="705.804,-300.887 710.299,-291.293 700.802,-295.99 705.804,-300.887"/>
</g>
</g>
</svg>
