<?xml version="1.0" encoding="UTF-8" standalone="no"?>
<!DOCTYPE svg PUBLIC "-//W3C//DTD SVG 1.1//EN"
 "http://www.w3.org/Graphics/SVG/1.1/DTD/svg11.dtd">
<!-- Generated by graphviz version 2.30.1 (20130221.2233)
 -->
<!-- Title: code/om/lexicon.cpp Pages: 1 -->
<svg width="411pt" height="298pt"
 viewBox="0.00 0.00 411.00 298.00" xmlns="http://www.w3.org/2000/svg" xmlns:xlink="http://www.w3.org/1999/xlink">
<g id="graph0" class="graph" transform="scale(1 1) rotate(0) translate(4 294)">
<title>code/om/lexicon.cpp</title>
<!-- Node1 -->
<g id="node1" class="node"><title>Node1</title>
<polygon fill="#bfbfbf" stroke="black" points="146.419,-269 146.419,-289 253.581,-289 253.581,-269 146.419,-269"/>
<text text-anchor="middle" x="200" y="-275" font-family="Helvetica,sans-Serif" font-size="10.00">code/om/lexicon.cpp</text>
</g>
<!-- Node2 -->
<g id="node2" class="node"><title>Node2</title>
<g id="a_node2"><a xlink:href="lexicon_8hpp.html" target="_top" xlink:title="Om header file.">
<polygon fill="none" stroke="black" points="146.138,-211 146.138,-231 253.862,-231 253.862,-211 146.138,-211"/>
<text text-anchor="middle" x="200" y="-217" font-family="Helvetica,sans-Serif" font-size="10.00">code/om/lexicon.hpp</text>
</a>
</g>
</g>
<!-- Node1&#45;&gt;Node2 -->
<g id="edge1" class="edge"><title>Node1&#45;&gt;Node2</title>
<path fill="none" stroke="midnightblue" d="M193.549,-258.707C192.886,-249.338 193.326,-238.526 194.869,-231.075"/>
<polygon fill="midnightblue" stroke="midnightblue" points="190.093,-259.278 194.834,-268.753 197.037,-258.389 190.093,-259.278"/>
</g>
<!-- Node2&#45;&gt;Node1 -->
<g id="edge2" class="edge"><title>Node2&#45;&gt;Node1</title>
<path fill="none" stroke="midnightblue" d="M206.436,-241.078C207.116,-250.424 206.692,-261.25 205.166,-268.753"/>
<polygon fill="midnightblue" stroke="midnightblue" points="209.895,-240.538 205.131,-231.075 202.954,-241.444 209.895,-240.538"/>
</g>
<!-- Node3 -->
<g id="node3" class="node"><title>Node3</title>
<g id="a_node3"><a xlink:href="lexicon__operation_8hpp.html" target="_top" xlink:title="Om header file.">
<polygon fill="none" stroke="black" points="72.6851,-141 72.6851,-173 189.315,-173 189.315,-141 72.6851,-141"/>
<text text-anchor="start" x="80.6851" y="-159" font-family="Helvetica,sans-Serif" font-size="10.00">code/om/operations</text>
<text text-anchor="middle" x="131" y="-147" font-family="Helvetica,sans-Serif" font-size="10.00">/lexicon_operation.hpp</text>
</a>
</g>
</g>
<!-- Node2&#45;&gt;Node3 -->
<g id="edge3" class="edge"><title>Node2&#45;&gt;Node3</title>
<path fill="none" stroke="midnightblue" d="M182.364,-204.153C171.774,-194.638 158.374,-182.596 147.915,-173.199"/>
<polygon fill="midnightblue" stroke="midnightblue" points="180.041,-206.771 189.819,-210.852 184.72,-201.565 180.041,-206.771"/>
</g>
<!-- Node5 -->
<g id="node5" class="node"><title>Node5</title>
<g id="a_node5"><a xlink:href="translate__operation_8hpp.html" target="_top" xlink:title="Om header file.">
<polygon fill="none" stroke="black" points="208.072,-141 208.072,-173 331.928,-173 331.928,-141 208.072,-141"/>
<text text-anchor="start" x="216.072" y="-159" font-family="Helvetica,sans-Serif" font-size="10.00">code/om/operations</text>
<text text-anchor="middle" x="270" y="-147" font-family="Helvetica,sans-Serif" font-size="10.00">/translate_operation.hpp</text>
</a>
</g>
</g>
<!-- Node2&#45;&gt;Node5 -->
<g id="edge5" class="edge"><title>Node2&#45;&gt;Node5</title>
<path fill="none" stroke="midnightblue" d="M217.891,-204.153C228.635,-194.638 242.23,-182.596 252.84,-173.199"/>
<polygon fill="midnightblue" stroke="midnightblue" points="215.494,-201.601 210.329,-210.852 220.135,-206.841 215.494,-201.601"/>
</g>
<!-- Node4 -->
<g id="node4" class="node"><title>Node4</title>
<g id="a_node4"><a xlink:href="lexicon__operation_8cpp.html" target="_top" xlink:title="Om source file.">
<polygon fill="none" stroke="black" points="-0.0341797,-71 -0.0341797,-103 116.034,-103 116.034,-71 -0.0341797,-71"/>
<text text-anchor="start" x="7.96582" y="-89" font-family="Helvetica,sans-Serif" font-size="10.00">code/om/operations</text>
<text text-anchor="middle" x="58" y="-77" font-family="Helvetica,sans-Serif" font-size="10.00">/lexicon_operation.cpp</text>
</a>
</g>
</g>
<!-- Node3&#45;&gt;Node4 -->
<g id="edge4" class="edge"><title>Node3&#45;&gt;Node4</title>
<path fill="none" stroke="midnightblue" d="M107.277,-133.901C96.439,-123.806 83.8816,-112.109 74.1558,-103.049"/>
<polygon fill="midnightblue" stroke="midnightblue" points="105.096,-136.654 114.799,-140.909 109.867,-131.531 105.096,-136.654"/>
</g>
<!-- Node6 -->
<g id="node6" class="node"><title>Node6</title>
<g id="a_node6"><a xlink:href="substitute__operation_8hpp.html" target="_top" xlink:title="Om header file.">
<polygon fill="none" stroke="black" points="133.848,-71 133.848,-103 262.152,-103 262.152,-71 133.848,-71"/>
<text text-anchor="start" x="141.848" y="-89" font-family="Helvetica,sans-Serif" font-size="10.00">code/om/operations</text>
<text text-anchor="middle" x="198" y="-77" font-family="Helvetica,sans-Serif" font-size="10.00">/substitute_operation.hpp</text>
</a>
</g>
</g>
<!-- Node5&#45;&gt;Node6 -->
<g id="edge6" class="edge"><title>Node5&#45;&gt;Node6</title>
<path fill="none" stroke="midnightblue" d="M246.602,-133.901C235.912,-123.806 223.527,-112.109 213.934,-103.049"/>
<polygon fill="midnightblue" stroke="midnightblue" points="244.348,-136.587 254.021,-140.909 249.154,-131.498 244.348,-136.587"/>
</g>
<!-- Node8 -->
<g id="node8" class="node"><title>Node8</title>
<g id="a_node8"><a xlink:href="translate__operation_8cpp.html" target="_top" xlink:title="Om source file.">
<polygon fill="none" stroke="black" points="280.353,-71 280.353,-103 403.647,-103 403.647,-71 280.353,-71"/>
<text text-anchor="start" x="288.353" y="-89" font-family="Helvetica,sans-Serif" font-size="10.00">code/om/operations</text>
<text text-anchor="middle" x="342" y="-77" font-family="Helvetica,sans-Serif" font-size="10.00">/translate_operation.cpp</text>
</a>
</g>
</g>
<!-- Node5&#45;&gt;Node8 -->
<g id="edge9" class="edge"><title>Node5&#45;&gt;Node8</title>
<path fill="none" stroke="midnightblue" d="M287.323,-133.607C297.29,-123.579 309.753,-112.021 320.351,-103.049"/>
<polygon fill="midnightblue" stroke="midnightblue" points="284.697,-131.288 280.259,-140.909 289.728,-136.155 284.697,-131.288"/>
</g>
<!-- Node7 -->
<g id="node7" class="node"><title>Node7</title>
<g id="a_node7"><a xlink:href="substitute__operation_8cpp.html" target="_top" xlink:title="Om source file.">
<polygon fill="none" stroke="black" points="134.128,-1 134.128,-33 261.872,-33 261.872,-1 134.128,-1"/>
<text text-anchor="start" x="142.128" y="-19" font-family="Helvetica,sans-Serif" font-size="10.00">code/om/operations</text>
<text text-anchor="middle" x="198" y="-7" font-family="Helvetica,sans-Serif" font-size="10.00">/substitute_operation.cpp</text>
</a>
</g>
</g>
<!-- Node6&#45;&gt;Node7 -->
<g id="edge7" class="edge"><title>Node6&#45;&gt;Node7</title>
<path fill="none" stroke="midnightblue" d="M191.461,-60.9196C191.009,-51.5597 191.284,-41.2293 192.285,-33.0492"/>
<polygon fill="midnightblue" stroke="midnightblue" points="187.974,-61.2281 192.28,-70.9086 194.951,-60.656 187.974,-61.2281"/>
</g>
<!-- Node7&#45;&gt;Node6 -->
<g id="edge8" class="edge"><title>Node7&#45;&gt;Node6</title>
<path fill="none" stroke="midnightblue" d="M204.537,-43.0321C204.991,-52.3887 204.719,-62.7211 203.72,-70.9086"/>
<polygon fill="midnightblue" stroke="midnightblue" points="208.024,-42.7283 203.715,-33.0492 201.047,-43.3027 208.024,-42.7283"/>
</g>
<!-- Node8&#45;&gt;Node5 -->
<g id="edge10" class="edge"><title>Node8&#45;&gt;Node5</title>
<path fill="none" stroke="midnightblue" d="M324.724,-110.346C314.764,-120.369 302.303,-131.929 291.699,-140.909"/>
<polygon fill="midnightblue" stroke="midnightblue" points="327.345,-112.671 331.78,-103.049 322.313,-107.805 327.345,-112.671"/>
</g>
</g>
</svg>
