<?xml version="1.0" encoding="UTF-8" standalone="no"?>
<!DOCTYPE svg PUBLIC "-//W3C//DTD SVG 1.1//EN"
 "http://www.w3.org/Graphics/SVG/1.1/DTD/svg11.dtd">
<!-- Generated by graphviz version 2.28.0 (20120817.0054)
 -->
<!-- Title: code/om/lexicon.cpp Pages: 1 -->
<svg width="664pt" height="288pt"
 viewBox="0.00 0.00 664.00 288.00" xmlns="http://www.w3.org/2000/svg" xmlns:xlink="http://www.w3.org/1999/xlink">
<g id="graph1" class="graph" transform="scale(1 1) rotate(0) translate(4 284)">
<title>code/om/lexicon.cpp</title>
<!-- Node1 -->
<g id="node1" class="node"><title>Node1</title>
<polygon fill="#bfbfbf" stroke="black" points="237.5,-260.5 237.5,-279.5 340.5,-279.5 340.5,-260.5 237.5,-260.5"/>
<text text-anchor="middle" x="289" y="-267.5" font-family="Helvetica,sans-Serif" font-size="10.00">code/om/lexicon.cpp</text>
</g>
<!-- Node2 -->
<g id="node3" class="node"><title>Node2</title>
<a xlink:href="lexicon_8hpp.html" target="_top" xlink:title="Om hpp file.">
<polygon fill="none" stroke="black" points="237,-204.5 237,-223.5 341,-223.5 341,-204.5 237,-204.5"/>
<text text-anchor="middle" x="289" y="-211.5" font-family="Helvetica,sans-Serif" font-size="10.00">code/om/lexicon.hpp</text>
</a>
</g>
<!-- Node1&#45;&gt;Node2 -->
<g id="edge2" class="edge"><title>Node1&#45;&gt;Node2</title>
<path fill="none" stroke="midnightblue" d="M282.528,-250.101C281.896,-241.136 282.343,-230.858 283.869,-223.751"/>
<polygon fill="midnightblue" stroke="midnightblue" points="279.066,-250.622 283.834,-260.083 286.007,-249.713 279.066,-250.622"/>
</g>
<!-- Node2&#45;&gt;Node1 -->
<g id="edge4" class="edge"><title>Node2&#45;&gt;Node1</title>
<path fill="none" stroke="midnightblue" d="M295.458,-233.691C296.106,-242.635 295.676,-252.927 294.166,-260.083"/>
<polygon fill="midnightblue" stroke="midnightblue" points="298.923,-233.2 294.131,-223.751 291.985,-234.126 298.923,-233.2"/>
</g>
<!-- Node3 -->
<g id="node6" class="node"><title>Node3</title>
<a xlink:href="lexicon__operation_8hpp.html" target="_top" xlink:title="Om hpp file.">
<polygon fill="none" stroke="black" points="133,-137 133,-167 245,-167 245,-137 133,-137"/>
<text text-anchor="start" x="141" y="-155" font-family="Helvetica,sans-Serif" font-size="10.00">code/om/operations</text>
<text text-anchor="middle" x="189" y="-144" font-family="Helvetica,sans-Serif" font-size="10.00">/lexicon_operation.hpp</text>
</a>
</g>
<!-- Node2&#45;&gt;Node3 -->
<g id="edge6" class="edge"><title>Node2&#45;&gt;Node3</title>
<path fill="none" stroke="midnightblue" d="M265.935,-199.161C249.931,-189.559 228.68,-176.808 212.568,-167.141"/>
<polygon fill="midnightblue" stroke="midnightblue" points="264.297,-202.26 274.672,-204.403 267.898,-196.257 264.297,-202.26"/>
</g>
<!-- Node5 -->
<g id="node10" class="node"><title>Node5</title>
<a xlink:href="translate__operation_8hpp.html" target="_top" xlink:title="Om hpp file.">
<polygon fill="none" stroke="black" points="329.5,-137 329.5,-167 448.5,-167 448.5,-137 329.5,-137"/>
<text text-anchor="start" x="337.5" y="-155" font-family="Helvetica,sans-Serif" font-size="10.00">code/om/operations</text>
<text text-anchor="middle" x="389" y="-144" font-family="Helvetica,sans-Serif" font-size="10.00">/translate_operation.hpp</text>
</a>
</g>
<!-- Node2&#45;&gt;Node5 -->
<g id="edge10" class="edge"><title>Node2&#45;&gt;Node5</title>
<path fill="none" stroke="midnightblue" d="M312.065,-199.161C328.069,-189.559 349.32,-176.808 365.432,-167.141"/>
<polygon fill="midnightblue" stroke="midnightblue" points="310.102,-196.257 303.328,-204.403 313.703,-202.26 310.102,-196.257"/>
</g>
<!-- Node4 -->
<g id="node8" class="node"><title>Node4</title>
<a xlink:href="lexicon__operation_8cpp.html" target="_top" xlink:title="Om cpp file.">
<polygon fill="none" stroke="black" points="-0.5,-69 -0.5,-99 110.5,-99 110.5,-69 -0.5,-69"/>
<text text-anchor="start" x="7.5" y="-87" font-family="Helvetica,sans-Serif" font-size="10.00">code/om/operations</text>
<text text-anchor="middle" x="55" y="-76" font-family="Helvetica,sans-Serif" font-size="10.00">/lexicon_operation.cpp</text>
</a>
</g>
<!-- Node3&#45;&gt;Node4 -->
<g id="edge8" class="edge"><title>Node3&#45;&gt;Node4</title>
<path fill="none" stroke="midnightblue" d="M151.112,-132.339C129.708,-121.796 103.383,-108.83 83.6988,-99.1352"/>
<polygon fill="midnightblue" stroke="midnightblue" points="149.736,-135.563 160.254,-136.841 152.829,-129.283 149.736,-135.563"/>
</g>
<!-- Node6 -->
<g id="node12" class="node"><title>Node6</title>
<a xlink:href="evaluate__operation_8hpp.html" target="_top" xlink:title="Om hpp file.">
<polygon fill="none" stroke="black" points="129,-69 129,-99 249,-99 249,-69 129,-69"/>
<text text-anchor="start" x="137" y="-87" font-family="Helvetica,sans-Serif" font-size="10.00">code/om/operations</text>
<text text-anchor="middle" x="189" y="-76" font-family="Helvetica,sans-Serif" font-size="10.00">/evaluate_operation.hpp</text>
</a>
</g>
<!-- Node5&#45;&gt;Node6 -->
<g id="edge12" class="edge"><title>Node5&#45;&gt;Node6</title>
<path fill="none" stroke="midnightblue" d="M336.247,-133.592C303.54,-122.798 262.078,-109.116 231.49,-99.0218"/>
<polygon fill="midnightblue" stroke="midnightblue" points="335.502,-137.031 346.095,-136.841 337.696,-130.384 335.502,-137.031"/>
</g>
<!-- Node8 -->
<g id="node17" class="node"><title>Node8</title>
<a xlink:href="scope__operation_8hpp.html" target="_top" xlink:title="Om hpp file.">
<polygon fill="none" stroke="black" points="267,-69 267,-99 377,-99 377,-69 267,-69"/>
<text text-anchor="start" x="275" y="-87" font-family="Helvetica,sans-Serif" font-size="10.00">code/om/operations</text>
<text text-anchor="middle" x="322" y="-76" font-family="Helvetica,sans-Serif" font-size="10.00">/scope_operation.hpp</text>
</a>
</g>
<!-- Node5&#45;&gt;Node8 -->
<g id="edge18" class="edge"><title>Node5&#45;&gt;Node8</title>
<path fill="none" stroke="midnightblue" d="M367.16,-129.485C357.109,-119.585 345.459,-108.109 336.51,-99.2931"/>
<polygon fill="midnightblue" stroke="midnightblue" points="364.882,-132.155 374.462,-136.679 369.794,-127.168 364.882,-132.155"/>
</g>
<!-- Node10 -->
<g id="node22" class="node"><title>Node10</title>
<a xlink:href="substitute__operation_8hpp.html" target="_top" xlink:title="Om hpp file.">
<polygon fill="none" stroke="black" points="395,-69 395,-99 519,-99 519,-69 395,-69"/>
<text text-anchor="start" x="403" y="-87" font-family="Helvetica,sans-Serif" font-size="10.00">code/om/operations</text>
<text text-anchor="middle" x="457" y="-76" font-family="Helvetica,sans-Serif" font-size="10.00">/substitute_operation.hpp</text>
</a>
</g>
<!-- Node5&#45;&gt;Node10 -->
<g id="edge24" class="edge"><title>Node5&#45;&gt;Node10</title>
<path fill="none" stroke="midnightblue" d="M411.166,-129.485C421.367,-119.585 433.191,-108.109 442.274,-99.2931"/>
<polygon fill="midnightblue" stroke="midnightblue" points="408.493,-127.203 403.755,-136.679 413.368,-132.226 408.493,-127.203"/>
</g>
<!-- Node12 -->
<g id="node27" class="node"><title>Node12</title>
<a xlink:href="translate__operation_8cpp.html" target="_top" xlink:title="Om cpp file.">
<polygon fill="none" stroke="black" points="537.5,-69 537.5,-99 656.5,-99 656.5,-69 537.5,-69"/>
<text text-anchor="start" x="545.5" y="-87" font-family="Helvetica,sans-Serif" font-size="10.00">code/om/operations</text>
<text text-anchor="middle" x="597" y="-76" font-family="Helvetica,sans-Serif" font-size="10.00">/translate_operation.cpp</text>
</a>
</g>
<!-- Node5&#45;&gt;Node12 -->
<g id="edge30" class="edge"><title>Node5&#45;&gt;Node12</title>
<path fill="none" stroke="midnightblue" d="M437.833,-133.592C470.772,-122.798 514.023,-109.116 547.171,-99.0218"/>
<polygon fill="midnightblue" stroke="midnightblue" points="436.367,-130.389 427.964,-136.841 438.557,-137.038 436.367,-130.389"/>
</g>
<!-- Node7 -->
<g id="node14" class="node"><title>Node7</title>
<a xlink:href="evaluate__operation_8cpp.html" target="_top" xlink:title="Om cpp file.">
<polygon fill="none" stroke="black" points="129.5,-1 129.5,-31 248.5,-31 248.5,-1 129.5,-1"/>
<text text-anchor="start" x="137.5" y="-19" font-family="Helvetica,sans-Serif" font-size="10.00">code/om/operations</text>
<text text-anchor="middle" x="189" y="-8" font-family="Helvetica,sans-Serif" font-size="10.00">/evaluate_operation.cpp</text>
</a>
</g>
<!-- Node6&#45;&gt;Node7 -->
<g id="edge14" class="edge"><title>Node6&#45;&gt;Node7</title>
<path fill="none" stroke="midnightblue" d="M182.455,-58.5322C182.005,-49.3606 182.296,-39.2449 183.325,-31.2931"/>
<polygon fill="midnightblue" stroke="midnightblue" points="178.983,-59.0133 183.322,-68.679 185.958,-58.4173 178.983,-59.0133"/>
</g>
<!-- Node7&#45;&gt;Node6 -->
<g id="edge16" class="edge"><title>Node7&#45;&gt;Node6</title>
<path fill="none" stroke="midnightblue" d="M195.544,-41.4356C195.995,-50.605 195.706,-60.7221 194.678,-68.679"/>
<polygon fill="midnightblue" stroke="midnightblue" points="199.016,-40.9578 194.675,-31.2931 192.041,-41.5554 199.016,-40.9578"/>
</g>
<!-- Node9 -->
<g id="node19" class="node"><title>Node9</title>
<a xlink:href="scope__operation_8cpp.html" target="_top" xlink:title="Om cpp file.">
<polygon fill="none" stroke="black" points="267.5,-1 267.5,-31 376.5,-31 376.5,-1 267.5,-1"/>
<text text-anchor="start" x="275.5" y="-19" font-family="Helvetica,sans-Serif" font-size="10.00">code/om/operations</text>
<text text-anchor="middle" x="322" y="-8" font-family="Helvetica,sans-Serif" font-size="10.00">/scope_operation.cpp</text>
</a>
</g>
<!-- Node8&#45;&gt;Node9 -->
<g id="edge20" class="edge"><title>Node8&#45;&gt;Node9</title>
<path fill="none" stroke="midnightblue" d="M315.455,-58.5322C315.005,-49.3606 315.296,-39.2449 316.325,-31.2931"/>
<polygon fill="midnightblue" stroke="midnightblue" points="311.983,-59.0133 316.322,-68.679 318.958,-58.4173 311.983,-59.0133"/>
</g>
<!-- Node9&#45;&gt;Node8 -->
<g id="edge22" class="edge"><title>Node9&#45;&gt;Node8</title>
<path fill="none" stroke="midnightblue" d="M328.544,-41.4356C328.995,-50.605 328.706,-60.7221 327.678,-68.679"/>
<polygon fill="midnightblue" stroke="midnightblue" points="332.016,-40.9578 327.675,-31.2931 325.041,-41.5554 332.016,-40.9578"/>
</g>
<!-- Node11 -->
<g id="node24" class="node"><title>Node11</title>
<a xlink:href="substitute__operation_8cpp.html" target="_top" xlink:title="Om cpp file.">
<polygon fill="none" stroke="black" points="395.5,-1 395.5,-31 518.5,-31 518.5,-1 395.5,-1"/>
<text text-anchor="start" x="403.5" y="-19" font-family="Helvetica,sans-Serif" font-size="10.00">code/om/operations</text>
<text text-anchor="middle" x="457" y="-8" font-family="Helvetica,sans-Serif" font-size="10.00">/substitute_operation.cpp</text>
</a>
</g>
<!-- Node10&#45;&gt;Node11 -->
<g id="edge26" class="edge"><title>Node10&#45;&gt;Node11</title>
<path fill="none" stroke="midnightblue" d="M450.455,-58.5322C450.005,-49.3606 450.296,-39.2449 451.325,-31.2931"/>
<polygon fill="midnightblue" stroke="midnightblue" points="446.983,-59.0133 451.322,-68.679 453.958,-58.4173 446.983,-59.0133"/>
</g>
<!-- Node11&#45;&gt;Node10 -->
<g id="edge28" class="edge"><title>Node11&#45;&gt;Node10</title>
<path fill="none" stroke="midnightblue" d="M463.544,-41.4356C463.995,-50.605 463.706,-60.7221 462.678,-68.679"/>
<polygon fill="midnightblue" stroke="midnightblue" points="467.016,-40.9578 462.675,-31.2931 460.041,-41.5554 467.016,-40.9578"/>
</g>
<!-- Node12&#45;&gt;Node5 -->
<g id="edge32" class="edge"><title>Node12&#45;&gt;Node5</title>
<path fill="none" stroke="midnightblue" d="M548.487,-102.304C515.569,-113.093 472.244,-126.801 439.013,-136.922"/>
<polygon fill="midnightblue" stroke="midnightblue" points="549.943,-105.509 558.346,-99.0561 547.753,-98.8605 549.943,-105.509"/>
</g>
</g>
</svg>
