<?xml version="1.0" encoding="UTF-8" standalone="no"?>
<!DOCTYPE svg PUBLIC "-//W3C//DTD SVG 1.1//EN"
 "http://www.w3.org/Graphics/SVG/1.1/DTD/svg11.dtd">
<!-- Generated by graphviz version 2.30.1 (20130221.2233)
 -->
<!-- Title: om/operations/lexicon_back_push_operation.hpp Pages: 1 -->
<svg width="144pt" height="112pt"
 viewBox="0.00 0.00 144.00 112.00" xmlns="http://www.w3.org/2000/svg" xmlns:xlink="http://www.w3.org/1999/xlink">
<g id="graph0" class="graph" transform="scale(1 1) rotate(0) translate(4 108)">
<title>om/operations/lexicon_back_push_operation.hpp</title>
<!-- Node1 -->
<g id="node1" class="node"><title>Node1</title>
<polygon fill="#bfbfbf" stroke="black" points="-0.327148,-71 -0.327148,-103 136.327,-103 136.327,-71 -0.327148,-71"/>
<text text-anchor="start" x="7.67285" y="-89" font-family="Helvetica,sans-Serif" font-size="10.00">om/operations/lexicon</text>
<text text-anchor="middle" x="68" y="-77" font-family="Helvetica,sans-Serif" font-size="10.00">_back_push_operation.hpp</text>
</g>
<!-- Node2 -->
<g id="node2" class="node"><title>Node2</title>
<g id="a_node2"><a xlink:href="lexicon__back__push__operation_8cpp.html" target="_top" xlink:title="Om source file. ">
<polygon fill="none" stroke="black" points="-0.0463867,-1 -0.0463867,-33 136.046,-33 136.046,-1 -0.0463867,-1"/>
<text text-anchor="start" x="7.95361" y="-19" font-family="Helvetica,sans-Serif" font-size="10.00">om/operations/lexicon</text>
<text text-anchor="middle" x="68" y="-7" font-family="Helvetica,sans-Serif" font-size="10.00">_back_push_operation.cpp</text>
</a>
</g>
</g>
<!-- Node1&#45;&gt;Node2 -->
<g id="edge1" class="edge"><title>Node1&#45;&gt;Node2</title>
<path fill="none" stroke="midnightblue" d="M61.4608,-60.9196C61.0088,-51.5597 61.2836,-41.2293 62.2851,-33.0492"/>
<polygon fill="midnightblue" stroke="midnightblue" points="57.9743,-61.2281 62.28,-70.9086 64.9509,-60.656 57.9743,-61.2281"/>
</g>
<!-- Node2&#45;&gt;Node1 -->
<g id="edge2" class="edge"><title>Node2&#45;&gt;Node1</title>
<path fill="none" stroke="midnightblue" d="M74.5368,-43.0321C74.9913,-52.3887 74.7191,-62.7211 73.72,-70.9086"/>
<polygon fill="midnightblue" stroke="midnightblue" points="78.0237,-42.7283 73.7149,-33.0492 71.0474,-43.3027 78.0237,-42.7283"/>
</g>
</g>
</svg>
