<?xml version="1.0" encoding="UTF-8" standalone="no"?>
<!DOCTYPE svg PUBLIC "-//W3C//DTD SVG 1.1//EN"
 "http://www.w3.org/Graphics/SVG/1.1/DTD/svg11.dtd">
<!-- Generated by graphviz version 2.28.0 (20120817.0054)
 -->
<!-- Title: code/om/operations/lexicon_back_push_operation.cpp Pages: 1 -->
<svg width="172pt" height="108pt"
 viewBox="0.00 0.00 172.00 108.00" xmlns="http://www.w3.org/2000/svg" xmlns:xlink="http://www.w3.org/1999/xlink">
<g id="graph1" class="graph" transform="scale(1 1) rotate(0) translate(4 104)">
<title>code/om/operations/lexicon_back_push_operation.cpp</title>
<!-- Node1 -->
<g id="node1" class="node"><title>Node1</title>
<polygon fill="#bfbfbf" stroke="black" points="0,-69 0,-99 164,-99 164,-69 0,-69"/>
<text text-anchor="start" x="8" y="-87" font-family="Helvetica,sans-Serif" font-size="10.00">code/om/operations</text>
<text text-anchor="middle" x="82" y="-76" font-family="Helvetica,sans-Serif" font-size="10.00">/lexicon_back_push_operation.cpp</text>
</g>
<!-- Node2 -->
<g id="node3" class="node"><title>Node2</title>
<a xlink:href="lexicon__back__push__operation_8hpp.html" target="_top" xlink:title="Om header file.">
<polygon fill="none" stroke="black" points="-0.5,-1 -0.5,-31 164.5,-31 164.5,-1 -0.5,-1"/>
<text text-anchor="start" x="7.5" y="-19" font-family="Helvetica,sans-Serif" font-size="10.00">code/om/operations</text>
<text text-anchor="middle" x="82" y="-8" font-family="Helvetica,sans-Serif" font-size="10.00">/lexicon_back_push_operation.hpp</text>
</a>
</g>
<!-- Node1&#45;&gt;Node2 -->
<g id="edge2" class="edge"><title>Node1&#45;&gt;Node2</title>
<path fill="none" stroke="midnightblue" d="M75.4547,-58.5322C75.0055,-49.3606 75.2957,-39.2449 76.3252,-31.2931"/>
<polygon fill="midnightblue" stroke="midnightblue" points="71.9829,-59.0133 76.3216,-68.679 78.9575,-58.4173 71.9829,-59.0133"/>
</g>
<!-- Node2&#45;&gt;Node1 -->
<g id="edge4" class="edge"><title>Node2&#45;&gt;Node1</title>
<path fill="none" stroke="midnightblue" d="M88.5438,-41.4356C88.9947,-50.605 88.7062,-60.7221 87.6784,-68.679"/>
<polygon fill="midnightblue" stroke="midnightblue" points="92.0157,-40.9578 87.6748,-31.2931 85.0413,-41.5554 92.0157,-40.9578"/>
</g>
</g>
</svg>
