<?xml version="1.0" encoding="UTF-8" standalone="no"?>
<!DOCTYPE svg PUBLIC "-//W3C//DTD SVG 1.1//EN"
 "http://www.w3.org/Graphics/SVG/1.1/DTD/svg11.dtd">
<!-- Generated by graphviz version 2.28.0 (20120817.0054)
 -->
<!-- Title: code/om/lexicon.hpp Pages: 1 -->
<svg width="449pt" height="232pt"
 viewBox="0.00 0.00 449.00 232.00" xmlns="http://www.w3.org/2000/svg" xmlns:xlink="http://www.w3.org/1999/xlink">
<g id="graph1" class="graph" transform="scale(1 1) rotate(0) translate(4 228)">
<title>code/om/lexicon.hpp</title>
<!-- Node1 -->
<g id="node1" class="node"><title>Node1</title>
<polygon fill="#bfbfbf" stroke="black" points="62,-204.5 62,-223.5 166,-223.5 166,-204.5 62,-204.5"/>
<text text-anchor="middle" x="114" y="-211.5" font-family="Helvetica,sans-Serif" font-size="10.00">code/om/lexicon.hpp</text>
</g>
<!-- Node2 -->
<g id="node3" class="node"><title>Node2</title>
<a xlink:href="lexicon_8cpp.html" target="_top" xlink:title="Om cpp file.">
<polygon fill="none" stroke="black" points="-0.5,-142.5 -0.5,-161.5 102.5,-161.5 102.5,-142.5 -0.5,-142.5"/>
<text text-anchor="middle" x="51" y="-149.5" font-family="Helvetica,sans-Serif" font-size="10.00">code/om/lexicon.cpp</text>
</a>
</g>
<!-- Node1&#45;&gt;Node2 -->
<g id="edge2" class="edge"><title>Node1&#45;&gt;Node2</title>
<path fill="none" stroke="midnightblue" d="M92.1349,-197.846C78.7449,-186.371 62.9784,-171.02 55.1125,-161.581"/>
<polygon fill="midnightblue" stroke="midnightblue" points="90.1341,-200.733 100.073,-204.403 94.5921,-195.336 90.1341,-200.733"/>
</g>
<!-- Node3 -->
<g id="node6" class="node"><title>Node3</title>
<a xlink:href="lexicon__operation_8hpp.html" target="_top" xlink:title="Om hpp file.">
<polygon fill="none" stroke="black" points="121,-137 121,-167 233,-167 233,-137 121,-137"/>
<text text-anchor="start" x="129" y="-155" font-family="Helvetica,sans-Serif" font-size="10.00">code/om/operations</text>
<text text-anchor="middle" x="177" y="-144" font-family="Helvetica,sans-Serif" font-size="10.00">/lexicon_operation.hpp</text>
</a>
</g>
<!-- Node1&#45;&gt;Node3 -->
<g id="edge6" class="edge"><title>Node1&#45;&gt;Node3</title>
<path fill="none" stroke="midnightblue" d="M130.55,-197.238C140.351,-187.904 152.666,-176.176 162.152,-167.141"/>
<polygon fill="midnightblue" stroke="midnightblue" points="127.854,-194.972 123.026,-204.403 132.682,-200.041 127.854,-194.972"/>
</g>
<!-- Node5 -->
<g id="node10" class="node"><title>Node5</title>
<a xlink:href="translate__operation_8hpp.html" target="_top" xlink:title="Om hpp file.">
<polygon fill="none" stroke="black" points="252.5,-137 252.5,-167 371.5,-167 371.5,-137 252.5,-137"/>
<text text-anchor="start" x="260.5" y="-155" font-family="Helvetica,sans-Serif" font-size="10.00">code/om/operations</text>
<text text-anchor="middle" x="312" y="-144" font-family="Helvetica,sans-Serif" font-size="10.00">/translate_operation.hpp</text>
</a>
</g>
<!-- Node1&#45;&gt;Node5 -->
<g id="edge10" class="edge"><title>Node1&#45;&gt;Node5</title>
<path fill="none" stroke="midnightblue" d="M151.94,-201.503C184.357,-191.68 231.105,-177.514 265.716,-167.025"/>
<polygon fill="midnightblue" stroke="midnightblue" points="150.924,-198.154 142.369,-204.403 152.954,-204.853 150.924,-198.154"/>
</g>
<!-- Node2&#45;&gt;Node1 -->
<g id="edge4" class="edge"><title>Node2&#45;&gt;Node1</title>
<path fill="none" stroke="midnightblue" d="M72.8425,-168.134C86.2299,-179.606 101.999,-194.958 109.874,-204.403"/>
<polygon fill="midnightblue" stroke="midnightblue" points="74.8461,-165.25 64.9068,-161.581 70.3887,-170.647 74.8461,-165.25"/>
</g>
<!-- Node4 -->
<g id="node8" class="node"><title>Node4</title>
<a xlink:href="lexicon__operation_8cpp.html" target="_top" xlink:title="Om cpp file.">
<polygon fill="none" stroke="black" points="50.5,-69 50.5,-99 161.5,-99 161.5,-69 50.5,-69"/>
<text text-anchor="start" x="58.5" y="-87" font-family="Helvetica,sans-Serif" font-size="10.00">code/om/operations</text>
<text text-anchor="middle" x="106" y="-76" font-family="Helvetica,sans-Serif" font-size="10.00">/lexicon_operation.cpp</text>
</a>
</g>
<!-- Node3&#45;&gt;Node4 -->
<g id="edge8" class="edge"><title>Node3&#45;&gt;Node4</title>
<path fill="none" stroke="midnightblue" d="M154.168,-129.776C143.448,-119.81 130.953,-108.196 121.376,-99.2931"/>
<polygon fill="midnightblue" stroke="midnightblue" points="151.887,-132.434 161.594,-136.679 156.653,-127.307 151.887,-132.434"/>
</g>
<!-- Node6 -->
<g id="node12" class="node"><title>Node6</title>
<a xlink:href="substitute__operation_8hpp.html" target="_top" xlink:title="Om hpp file.">
<polygon fill="none" stroke="black" points="180,-69 180,-99 304,-99 304,-69 180,-69"/>
<text text-anchor="start" x="188" y="-87" font-family="Helvetica,sans-Serif" font-size="10.00">code/om/operations</text>
<text text-anchor="middle" x="242" y="-76" font-family="Helvetica,sans-Serif" font-size="10.00">/substitute_operation.hpp</text>
</a>
</g>
<!-- Node5&#45;&gt;Node6 -->
<g id="edge12" class="edge"><title>Node5&#45;&gt;Node6</title>
<path fill="none" stroke="midnightblue" d="M289.49,-129.776C278.92,-119.81 266.601,-108.196 257.159,-99.2931"/>
<polygon fill="midnightblue" stroke="midnightblue" points="287.134,-132.365 296.811,-136.679 291.936,-127.272 287.134,-132.365"/>
</g>
<!-- Node8 -->
<g id="node17" class="node"><title>Node8</title>
<a xlink:href="translate__operation_8cpp.html" target="_top" xlink:title="Om cpp file.">
<polygon fill="none" stroke="black" points="322.5,-69 322.5,-99 441.5,-99 441.5,-69 322.5,-69"/>
<text text-anchor="start" x="330.5" y="-87" font-family="Helvetica,sans-Serif" font-size="10.00">code/om/operations</text>
<text text-anchor="middle" x="382" y="-76" font-family="Helvetica,sans-Serif" font-size="10.00">/translate_operation.cpp</text>
</a>
</g>
<!-- Node5&#45;&gt;Node8 -->
<g id="edge18" class="edge"><title>Node5&#45;&gt;Node8</title>
<path fill="none" stroke="midnightblue" d="M328.497,-129.434C338.398,-119.46 350.906,-107.896 361.436,-99.0663"/>
<polygon fill="midnightblue" stroke="midnightblue" points="325.933,-127.051 321.511,-136.679 330.971,-131.91 325.933,-127.051"/>
</g>
<!-- Node7 -->
<g id="node14" class="node"><title>Node7</title>
<a xlink:href="substitute__operation_8cpp.html" target="_top" xlink:title="Om cpp file.">
<polygon fill="none" stroke="black" points="180.5,-1 180.5,-31 303.5,-31 303.5,-1 180.5,-1"/>
<text text-anchor="start" x="188.5" y="-19" font-family="Helvetica,sans-Serif" font-size="10.00">code/om/operations</text>
<text text-anchor="middle" x="242" y="-8" font-family="Helvetica,sans-Serif" font-size="10.00">/substitute_operation.cpp</text>
</a>
</g>
<!-- Node6&#45;&gt;Node7 -->
<g id="edge14" class="edge"><title>Node6&#45;&gt;Node7</title>
<path fill="none" stroke="midnightblue" d="M235.455,-58.5322C235.005,-49.3606 235.296,-39.2449 236.325,-31.2931"/>
<polygon fill="midnightblue" stroke="midnightblue" points="231.983,-59.0133 236.322,-68.679 238.958,-58.4173 231.983,-59.0133"/>
</g>
<!-- Node7&#45;&gt;Node6 -->
<g id="edge16" class="edge"><title>Node7&#45;&gt;Node6</title>
<path fill="none" stroke="midnightblue" d="M248.544,-41.4356C248.995,-50.605 248.706,-60.7221 247.678,-68.679"/>
<polygon fill="midnightblue" stroke="midnightblue" points="252.016,-40.9578 247.675,-31.2931 245.041,-41.5554 252.016,-40.9578"/>
</g>
<!-- Node8&#45;&gt;Node5 -->
<g id="edge20" class="edge"><title>Node8&#45;&gt;Node5</title>
<path fill="none" stroke="midnightblue" d="M365.296,-106.775C355.524,-116.605 343.26,-127.944 332.867,-136.679"/>
<polygon fill="midnightblue" stroke="midnightblue" points="368.09,-108.919 372.515,-99.2931 363.053,-104.059 368.09,-108.919"/>
</g>
</g>
</svg>
