<?xml version="1.0" encoding="UTF-8" standalone="no"?>
<!DOCTYPE svg PUBLIC "-//W3C//DTD SVG 1.1//EN"
 "http://www.w3.org/Graphics/SVG/1.1/DTD/svg11.dtd">
<!-- Generated by graphviz version 2.28.0 (20120817.0054)
 -->
<!-- Title: code/om/list.cpp Pages: 1 -->
<svg width="92pt" height="140pt"
 viewBox="0.00 0.00 92.00 140.00" xmlns="http://www.w3.org/2000/svg" xmlns:xlink="http://www.w3.org/1999/xlink">
<g id="graph1" class="graph" transform="scale(1 1) rotate(0) translate(4 136)">
<title>code/om/list.cpp</title>
<!-- Node1 -->
<g id="node1" class="node"><title>Node1</title>
<polygon fill="#bfbfbf" stroke="black" points="-0.5,-112.5 -0.5,-131.5 84.5,-131.5 84.5,-112.5 -0.5,-112.5"/>
<text text-anchor="middle" x="42" y="-119.5" font-family="Helvetica,sans-Serif" font-size="10.00">code/om/list.cpp</text>
</g>
<!-- Node2 -->
<g id="node3" class="node"><title>Node2</title>
<a xlink:href="list_8hpp.html" target="_top" xlink:title="Om header file.">
<polygon fill="none" stroke="black" points="11,-56.5 11,-75.5 73,-75.5 73,-56.5 11,-56.5"/>
<text text-anchor="middle" x="42" y="-63.5" font-family="Helvetica,sans-Serif" font-size="10.00">om/list.hpp</text>
</a>
</g>
<!-- Node1&#45;&gt;Node2 -->
<g id="edge2" class="edge"><title>Node1&#45;&gt;Node2</title>
<path fill="none" stroke="midnightblue" d="M36.8337,-112.083C35.3242,-104.927 34.8938,-94.6353 35.5425,-85.6911"/>
<polygon fill="midnightblue" stroke="midnightblue" points="39.0154,-86.1262 36.869,-75.7511 32.0769,-85.2002 39.0154,-86.1262"/>
</g>
<!-- Node2&#45;&gt;Node1 -->
<g id="edge6" class="edge"><title>Node2&#45;&gt;Node1</title>
<path fill="none" stroke="midnightblue" d="M47.131,-75.7511C48.6573,-82.8579 49.1044,-93.1357 48.4724,-102.101"/>
<polygon fill="midnightblue" stroke="midnightblue" points="44.9933,-101.713 47.1663,-112.083 51.9342,-102.622 44.9933,-101.713"/>
</g>
<!-- Node3 -->
<g id="node5" class="node"><title>Node3</title>
<polygon fill="none" stroke="#bfbfbf" points="-0.5,-0.5 -0.5,-19.5 84.5,-19.5 84.5,-0.5 -0.5,-0.5"/>
<text text-anchor="middle" x="42" y="-7.5" font-family="Helvetica,sans-Serif" font-size="10.00">boost/array.hpp</text>
</g>
<!-- Node2&#45;&gt;Node3 -->
<g id="edge4" class="edge"><title>Node2&#45;&gt;Node3</title>
<path fill="none" stroke="midnightblue" d="M42,-56.083C42,-49.0059 42,-38.8611 42,-29.9865"/>
<polygon fill="midnightblue" stroke="midnightblue" points="45.5001,-29.751 42,-19.7511 38.5001,-29.7511 45.5001,-29.751"/>
</g>
</g>
</svg>
