<?xml version="1.0" encoding="UTF-8" standalone="no"?>
<!DOCTYPE svg PUBLIC "-//W3C//DTD SVG 1.1//EN"
 "http://www.w3.org/Graphics/SVG/1.1/DTD/svg11.dtd">
<!-- Generated by graphviz version 2.30.1 (20130221.2233)
 -->
<!-- Title: code/om/list.cpp Pages: 1 -->
<svg width="96pt" height="146pt"
 viewBox="0.00 0.00 96.00 146.00" xmlns="http://www.w3.org/2000/svg" xmlns:xlink="http://www.w3.org/1999/xlink">
<g id="graph0" class="graph" transform="scale(1 1) rotate(0) translate(4 142)">
<title>code/om/list.cpp</title>
<!-- Node1 -->
<g id="node1" class="node"><title>Node1</title>
<polygon fill="#bfbfbf" stroke="black" points="-0.12793,-117 -0.12793,-137 88.1279,-137 88.1279,-117 -0.12793,-117"/>
<text text-anchor="middle" x="44" y="-123" font-family="Helvetica,sans-Serif" font-size="10.00">code/om/list.cpp</text>
</g>
<!-- Node2 -->
<g id="node2" class="node"><title>Node2</title>
<g id="a_node2"><a xlink:href="list_8hpp.html" target="_top" xlink:title="Om header file.">
<polygon fill="none" stroke="black" points="11.8228,-59 11.8228,-79 76.1772,-79 76.1772,-59 11.8228,-59"/>
<text text-anchor="middle" x="44" y="-65" font-family="Helvetica,sans-Serif" font-size="10.00">om/list.hpp</text>
</a>
</g>
</g>
<!-- Node1&#45;&gt;Node2 -->
<g id="edge1" class="edge"><title>Node1&#45;&gt;Node2</title>
<path fill="none" stroke="midnightblue" d="M38.8337,-116.753C37.3076,-109.25 36.8844,-98.4238 37.5643,-89.0781"/>
<polygon fill="midnightblue" stroke="midnightblue" points="41.0461,-89.4439 38.869,-79.0752 34.1049,-88.5385 41.0461,-89.4439"/>
</g>
<!-- Node3 -->
<g id="node3" class="node"><title>Node3</title>
<polygon fill="none" stroke="#bfbfbf" points="1.625,-1 1.625,-21 86.375,-21 86.375,-1 1.625,-1"/>
<text text-anchor="middle" x="44" y="-7" font-family="Helvetica,sans-Serif" font-size="10.00">boost/array.hpp</text>
</g>
<!-- Node2&#45;&gt;Node3 -->
<g id="edge2" class="edge"><title>Node2&#45;&gt;Node3</title>
<path fill="none" stroke="midnightblue" d="M44,-58.7527C44,-51.2504 44,-40.4238 44,-31.0781"/>
<polygon fill="midnightblue" stroke="midnightblue" points="47.5001,-31.0752 44,-21.0752 40.5001,-31.0752 47.5001,-31.0752"/>
</g>
<!-- Node2&#45;&gt;Node1 -->
<g id="edge3" class="edge"><title>Node2&#45;&gt;Node1</title>
<path fill="none" stroke="midnightblue" d="M49.131,-79.0752C50.674,-86.5262 51.1141,-97.3384 50.4512,-106.707"/>
<polygon fill="midnightblue" stroke="midnightblue" points="46.9633,-106.389 49.1663,-116.753 53.9067,-107.278 46.9633,-106.389"/>
</g>
</g>
</svg>
