<?xml version="1.0" encoding="UTF-8" standalone="no"?>
<!DOCTYPE svg PUBLIC "-//W3C//DTD SVG 1.1//EN"
 "http://www.w3.org/Graphics/SVG/1.1/DTD/svg11.dtd">
<!-- Generated by graphviz version 2.30.1 (20130221.2233)
 -->
<!-- Title: code/om/literal.hpp Pages: 1 -->
<svg width="1608pt" height="368pt"
 viewBox="0.00 0.00 1608.00 368.00" xmlns="http://www.w3.org/2000/svg" xmlns:xlink="http://www.w3.org/1999/xlink">
<g id="graph0" class="graph" transform="scale(1 1) rotate(0) translate(4 364)">
<title>code/om/literal.hpp</title>
<!-- Node1 -->
<g id="node1" class="node"><title>Node1</title>
<polygon fill="#bfbfbf" stroke="black" points="1356.75,-339 1356.75,-359 1457.25,-359 1457.25,-339 1356.75,-339"/>
<text text-anchor="middle" x="1407" y="-345" font-family="Helvetica,sans-Serif" font-size="10.00">code/om/literal.hpp</text>
</g>
<!-- Node2 -->
<g id="node2" class="node"><title>Node2</title>
<g id="a_node2"><a xlink:href="default__program_8hpp.html" target="_top" xlink:title="Om header file.">
<polygon fill="none" stroke="black" points="377.522,-275 377.522,-295 502.478,-295 502.478,-275 377.522,-275"/>
<text text-anchor="middle" x="440" y="-281" font-family="Helvetica,sans-Serif" font-size="10.00">om/default_program.hpp</text>
</a>
</g>
</g>
<!-- Node1&#45;&gt;Node2 -->
<g id="edge1" class="edge"><title>Node1&#45;&gt;Node2</title>
<path fill="none" stroke="midnightblue" d="M1356.71,-344.776C1196.92,-334.531 700.326,-302.691 512.742,-290.664"/>
<polygon fill="midnightblue" stroke="midnightblue" points="512.91,-287.168 502.706,-290.02 512.462,-294.153 512.91,-287.168"/>
</g>
<!-- Node30 -->
<g id="node30" class="node"><title>Node30</title>
<g id="a_node30"><a xlink:href="collection__front__source_8hpp.html" target="_top" xlink:title="Om header file.">
<polygon fill="none" stroke="black" points="1169.92,-269 1169.92,-301 1282.08,-301 1282.08,-269 1169.92,-269"/>
<text text-anchor="start" x="1177.92" y="-287" font-family="Helvetica,sans-Serif" font-size="10.00">om/sources/collection</text>
<text text-anchor="middle" x="1226" y="-275" font-family="Helvetica,sans-Serif" font-size="10.00">_front_source.hpp</text>
</a>
</g>
</g>
<!-- Node1&#45;&gt;Node30 -->
<g id="edge48" class="edge"><title>Node1&#45;&gt;Node30</title>
<path fill="none" stroke="midnightblue" d="M1380.68,-338.985C1354.27,-329.937 1312.82,-315.741 1279.48,-304.319"/>
<polygon fill="midnightblue" stroke="midnightblue" points="1280.46,-300.955 1269.87,-301.026 1278.19,-307.578 1280.46,-300.955"/>
</g>
<!-- Node38 -->
<g id="node38" class="node"><title>Node38</title>
<polygon fill="none" stroke="#bfbfbf" points="1300.19,-269 1300.19,-301 1401.81,-301 1401.81,-269 1300.19,-269"/>
<text text-anchor="start" x="1308.19" y="-287" font-family="Helvetica,sans-Serif" font-size="10.00">boost/ptr_container</text>
<text text-anchor="middle" x="1351" y="-275" font-family="Helvetica,sans-Serif" font-size="10.00">/ptr_deque.hpp</text>
</g>
<!-- Node1&#45;&gt;Node38 -->
<g id="edge60" class="edge"><title>Node1&#45;&gt;Node38</title>
<path fill="none" stroke="midnightblue" d="M1398.74,-338.852C1391.66,-331.014 1381.15,-319.384 1371.8,-309.028"/>
<polygon fill="midnightblue" stroke="midnightblue" points="1374.25,-306.515 1364.95,-301.44 1369.05,-311.207 1374.25,-306.515"/>
</g>
<!-- Node39 -->
<g id="node39" class="node"><title>Node39</title>
<polygon fill="none" stroke="#bfbfbf" points="1419.98,-275 1419.98,-295 1506.02,-295 1506.02,-275 1419.98,-275"/>
<text text-anchor="middle" x="1463" y="-281" font-family="Helvetica,sans-Serif" font-size="10.00">boost/swap.hpp</text>
</g>
<!-- Node1&#45;&gt;Node39 -->
<g id="edge61" class="edge"><title>Node1&#45;&gt;Node39</title>
<path fill="none" stroke="midnightblue" d="M1415.26,-338.852C1423.78,-329.419 1437.26,-314.495 1447.73,-302.907"/>
<polygon fill="midnightblue" stroke="midnightblue" points="1450.6,-304.953 1454.7,-295.186 1445.4,-300.261 1450.6,-304.953"/>
</g>
<!-- Node40 -->
<g id="node40" class="node"><title>Node40</title>
<g id="a_node40"><a xlink:href="literal_8cpp.html" target="_top" xlink:title="Om source file.">
<polygon fill="none" stroke="black" points="1524.27,-275 1524.27,-295 1599.73,-295 1599.73,-275 1524.27,-275"/>
<text text-anchor="middle" x="1562" y="-281" font-family="Helvetica,sans-Serif" font-size="10.00">om/literal.cpp</text>
</a>
</g>
</g>
<!-- Node1&#45;&gt;Node40 -->
<g id="edge62" class="edge"><title>Node1&#45;&gt;Node40</title>
<path fill="none" stroke="midnightblue" d="M1424.61,-338.985C1449.04,-328.332 1493.31,-310.543 1525.08,-298.548"/>
<polygon fill="midnightblue" stroke="midnightblue" points="1526.36,-301.806 1534.5,-295.026 1523.91,-295.249 1526.36,-301.806"/>
</g>
<!-- Node3 -->
<g id="node3" class="node"><title>Node3</title>
<g id="a_node3"><a xlink:href="default__consumer_8hpp.html" target="_top" xlink:title="Om header file.">
<polygon fill="none" stroke="black" points="-0.539062,-205 -0.539062,-225 130.539,-225 130.539,-205 -0.539062,-205"/>
<text text-anchor="middle" x="65" y="-211" font-family="Helvetica,sans-Serif" font-size="10.00">om/default_consumer.hpp</text>
</a>
</g>
</g>
<!-- Node2&#45;&gt;Node3 -->
<g id="edge2" class="edge"><title>Node2&#45;&gt;Node3</title>
<path fill="none" stroke="midnightblue" d="M383.563,-274.974C322.982,-265.117 223.982,-248.52 139,-232 131.289,-230.501 123.145,-228.83 115.19,-227.149"/>
<polygon fill="midnightblue" stroke="midnightblue" points="115.774,-223.694 105.263,-225.026 114.31,-230.54 115.774,-223.694"/>
</g>
<!-- Node7 -->
<g id="node7" class="node"><title>Node7</title>
<g id="a_node7"><a xlink:href="default__giveable_8hpp.html" target="_top" xlink:title="Om header file.">
<polygon fill="none" stroke="black" points="924.515,-205 924.515,-225 1049.48,-225 1049.48,-205 924.515,-205"/>
<text text-anchor="middle" x="987" y="-211" font-family="Helvetica,sans-Serif" font-size="10.00">om/default_giveable.hpp</text>
</a>
</g>
</g>
<!-- Node2&#45;&gt;Node7 -->
<g id="edge8" class="edge"><title>Node2&#45;&gt;Node7</title>
<path fill="none" stroke="midnightblue" d="M502.481,-276.233C604.452,-263.556 806.103,-238.488 914.319,-225.035"/>
<polygon fill="midnightblue" stroke="midnightblue" points="915.002,-228.477 924.493,-223.77 914.138,-221.531 915.002,-228.477"/>
</g>
<!-- Node20 -->
<g id="node20" class="node"><title>Node20</title>
<g id="a_node20"><a xlink:href="program_8hpp.html" target="_top" xlink:title="Om header file.">
<polygon fill="none" stroke="black" points="520.315,-205 520.315,-225 609.685,-225 609.685,-205 520.315,-205"/>
<text text-anchor="middle" x="565" y="-211" font-family="Helvetica,sans-Serif" font-size="10.00">om/program.hpp</text>
</a>
</g>
</g>
<!-- Node2&#45;&gt;Node20 -->
<g id="edge30" class="edge"><title>Node2&#45;&gt;Node20</title>
<path fill="none" stroke="midnightblue" d="M456.599,-274.97C477.799,-263.438 514.701,-243.363 539.485,-229.88"/>
<polygon fill="midnightblue" stroke="midnightblue" points="541.221,-232.92 548.332,-225.067 537.875,-226.771 541.221,-232.92"/>
</g>
<!-- Node27 -->
<g id="node27" class="node"><title>Node27</title>
<g id="a_node27"><a xlink:href="taker_8hpp.html" target="_top" xlink:title="Om header file.">
<polygon fill="none" stroke="black" points="148.091,-205 148.091,-225 221.909,-225 221.909,-205 148.091,-205"/>
<text text-anchor="middle" x="185" y="-211" font-family="Helvetica,sans-Serif" font-size="10.00">om/taker.hpp</text>
</a>
</g>
</g>
<!-- Node2&#45;&gt;Node27 -->
<g id="edge43" class="edge"><title>Node2&#45;&gt;Node27</title>
<path fill="none" stroke="midnightblue" d="M406.138,-274.97C360.509,-262.802 279.222,-241.126 228.933,-227.715"/>
<polygon fill="midnightblue" stroke="midnightblue" points="229.566,-224.262 219.002,-225.067 227.763,-231.026 229.566,-224.262"/>
</g>
<!-- Node29 -->
<g id="node29" class="node"><title>Node29</title>
<g id="a_node29"><a xlink:href="default__program_8cpp.html" target="_top" xlink:title="Om source file.">
<polygon fill="none" stroke="black" points="377.803,-205 377.803,-225 502.197,-225 502.197,-205 377.803,-205"/>
<text text-anchor="middle" x="440" y="-211" font-family="Helvetica,sans-Serif" font-size="10.00">om/default_program.cpp</text>
</a>
</g>
</g>
<!-- Node2&#45;&gt;Node29 -->
<g id="edge46" class="edge"><title>Node2&#45;&gt;Node29</title>
<path fill="none" stroke="midnightblue" d="M435.211,-274.829C433.181,-264.735 432.727,-248.222 433.849,-235.256"/>
<polygon fill="midnightblue" stroke="midnightblue" points="437.361,-235.406 435.241,-225.025 430.425,-234.462 437.361,-235.406"/>
</g>
<!-- Node4 -->
<g id="node4" class="node"><title>Node4</title>
<g id="a_node4"><a xlink:href="consumer_8hpp.html" target="_top" xlink:title="Om header file.">
<polygon fill="none" stroke="black" points="239.254,-135 239.254,-155 334.746,-155 334.746,-135 239.254,-135"/>
<text text-anchor="middle" x="287" y="-141" font-family="Helvetica,sans-Serif" font-size="10.00">om/consumer.hpp</text>
</a>
</g>
</g>
<!-- Node3&#45;&gt;Node4 -->
<g id="edge3" class="edge"><title>Node3&#45;&gt;Node4</title>
<path fill="none" stroke="midnightblue" d="M94.4799,-204.97C133.872,-192.904 203.792,-171.487 247.65,-158.053"/>
<polygon fill="midnightblue" stroke="midnightblue" points="248.862,-161.343 257.398,-155.067 246.812,-154.65 248.862,-161.343"/>
</g>
<!-- Node6 -->
<g id="node6" class="node"><title>Node6</title>
<g id="a_node6"><a xlink:href="default__consumer_8cpp.html" target="_top" xlink:title="Om source file.">
<polygon fill="none" stroke="black" points="-0.258301,-135 -0.258301,-155 130.258,-155 130.258,-135 -0.258301,-135"/>
<text text-anchor="middle" x="65" y="-141" font-family="Helvetica,sans-Serif" font-size="10.00">om/default_consumer.cpp</text>
</a>
</g>
</g>
<!-- Node3&#45;&gt;Node6 -->
<g id="edge6" class="edge"><title>Node3&#45;&gt;Node6</title>
<path fill="none" stroke="midnightblue" d="M60.2115,-204.829C58.1811,-194.735 57.727,-178.222 58.8491,-165.256"/>
<polygon fill="midnightblue" stroke="midnightblue" points="62.3608,-165.406 60.2409,-155.025 55.4247,-164.462 62.3608,-165.406"/>
</g>
<!-- Node5 -->
<g id="node5" class="node"><title>Node5</title>
<g id="a_node5"><a xlink:href="consumer_8cpp.html" target="_top" xlink:title="Om source file.">
<polygon fill="none" stroke="black" points="202.535,-65 202.535,-85 297.465,-85 297.465,-65 202.535,-65"/>
<text text-anchor="middle" x="250" y="-71" font-family="Helvetica,sans-Serif" font-size="10.00">om/consumer.cpp</text>
</a>
</g>
</g>
<!-- Node4&#45;&gt;Node5 -->
<g id="edge4" class="edge"><title>Node4&#45;&gt;Node5</title>
<path fill="none" stroke="midnightblue" d="M277.221,-134.829C269.547,-124.531 259.877,-107.552 253.971,-94.4744"/>
<polygon fill="midnightblue" stroke="midnightblue" points="257.144,-92.985 250.152,-85.0255 250.655,-95.6084 257.144,-92.985"/>
</g>
<!-- Node5&#45;&gt;Node4 -->
<g id="edge5" class="edge"><title>Node5&#45;&gt;Node4</title>
<path fill="none" stroke="midnightblue" d="M259.67,-85.0255C267.326,-95.2601 277.004,-112.226 282.945,-125.34"/>
<polygon fill="midnightblue" stroke="midnightblue" points="279.793,-126.881 286.799,-134.829 286.279,-124.247 279.793,-126.881"/>
</g>
<!-- Node6&#45;&gt;Node3 -->
<g id="edge7" class="edge"><title>Node6&#45;&gt;Node3</title>
<path fill="none" stroke="midnightblue" d="M69.7591,-155.025C71.8046,-165.057 72.2739,-181.557 71.167,-194.557"/>
<polygon fill="midnightblue" stroke="midnightblue" points="67.6497,-194.453 69.7885,-204.829 74.5875,-195.384 67.6497,-194.453"/>
</g>
<!-- Node8 -->
<g id="node8" class="node"><title>Node8</title>
<g id="a_node8"><a xlink:href="default__copyable_8hpp.html" target="_top" xlink:title="Om header file.">
<polygon fill="none" stroke="black" points="850.126,-135 850.126,-155 977.874,-155 977.874,-135 850.126,-135"/>
<text text-anchor="middle" x="914" y="-141" font-family="Helvetica,sans-Serif" font-size="10.00">om/default_copyable.hpp</text>
</a>
</g>
</g>
<!-- Node7&#45;&gt;Node8 -->
<g id="edge9" class="edge"><title>Node7&#45;&gt;Node8</title>
<path fill="none" stroke="midnightblue" d="M977.155,-204.829C965.443,-193.92 945.681,-175.511 931.378,-162.187"/>
<polygon fill="midnightblue" stroke="midnightblue" points="933.392,-159.281 923.689,-155.025 928.621,-164.403 933.392,-159.281"/>
</g>
<!-- Node13 -->
<g id="node13" class="node"><title>Node13</title>
<g id="a_node13"><a xlink:href="default__moveable_8hpp.html" target="_top" xlink:title="Om header file.">
<polygon fill="none" stroke="black" points="995.461,-135 995.461,-155 1126.54,-155 1126.54,-135 995.461,-135"/>
<text text-anchor="middle" x="1061" y="-141" font-family="Helvetica,sans-Serif" font-size="10.00">om/default_moveable.hpp</text>
</a>
</g>
</g>
<!-- Node7&#45;&gt;Node13 -->
<g id="edge16" class="edge"><title>Node7&#45;&gt;Node13</title>
<path fill="none" stroke="midnightblue" d="M996.98,-204.829C1008.96,-193.818 1029.26,-175.166 1043.79,-161.815"/>
<polygon fill="midnightblue" stroke="midnightblue" points="1046.18,-164.369 1051.18,-155.025 1041.45,-159.215 1046.18,-164.369"/>
</g>
<!-- Node17 -->
<g id="node17" class="node"><title>Node17</title>
<g id="a_node17"><a xlink:href="giveable_8hpp.html" target="_top" xlink:title="Om header file.">
<polygon fill="none" stroke="black" points="707.308,-135 707.308,-155 796.692,-155 796.692,-135 707.308,-135"/>
<text text-anchor="middle" x="752" y="-141" font-family="Helvetica,sans-Serif" font-size="10.00">om/giveable.hpp</text>
</a>
</g>
</g>
<!-- Node7&#45;&gt;Node17 -->
<g id="edge23" class="edge"><title>Node7&#45;&gt;Node17</title>
<path fill="none" stroke="midnightblue" d="M955.794,-204.97C913.919,-192.853 839.457,-171.307 793.069,-157.884"/>
<polygon fill="midnightblue" stroke="midnightblue" points="793.914,-154.485 783.335,-155.067 791.968,-161.209 793.914,-154.485"/>
</g>
<!-- Node19 -->
<g id="node19" class="node"><title>Node19</title>
<g id="a_node19"><a xlink:href="default__giveable_8cpp.html" target="_top" xlink:title="Om source file.">
<polygon fill="none" stroke="black" points="1144.8,-135 1144.8,-155 1269.2,-155 1269.2,-135 1144.8,-135"/>
<text text-anchor="middle" x="1207" y="-141" font-family="Helvetica,sans-Serif" font-size="10.00">om/default_giveable.cpp</text>
</a>
</g>
</g>
<!-- Node7&#45;&gt;Node19 -->
<g id="edge28" class="edge"><title>Node7&#45;&gt;Node19</title>
<path fill="none" stroke="midnightblue" d="M1011.45,-204.97C1048.19,-192.853 1117.72,-171.307 1163.28,-157.884"/>
<polygon fill="midnightblue" stroke="midnightblue" points="1164.28,-161.237 1172.9,-155.067 1162.32,-154.519 1164.28,-161.237"/>
</g>
<!-- Node9 -->
<g id="node9" class="node"><title>Node9</title>
<g id="a_node9"><a xlink:href="copyable_8hpp.html" target="_top" xlink:title="Om header file.">
<polygon fill="none" stroke="black" points="748.919,-65 748.919,-85 841.081,-85 841.081,-65 748.919,-65"/>
<text text-anchor="middle" x="795" y="-71" font-family="Helvetica,sans-Serif" font-size="10.00">om/copyable.hpp</text>
</a>
</g>
</g>
<!-- Node8&#45;&gt;Node9 -->
<g id="edge10" class="edge"><title>Node8&#45;&gt;Node9</title>
<path fill="none" stroke="midnightblue" d="M897.951,-134.829C877.789,-123.308 842.99,-103.423 819.493,-89.9962"/>
<polygon fill="midnightblue" stroke="midnightblue" points="821.214,-86.9481 810.795,-85.0255 817.741,-93.0258 821.214,-86.9481"/>
</g>
<!-- Node12 -->
<g id="node12" class="node"><title>Node12</title>
<g id="a_node12"><a xlink:href="default__copyable_8cpp.html" target="_top" xlink:title="Om source file.">
<polygon fill="none" stroke="black" points="859.407,-65 859.407,-85 986.593,-85 986.593,-65 859.407,-65"/>
<text text-anchor="middle" x="923" y="-71" font-family="Helvetica,sans-Serif" font-size="10.00">om/default_copyable.cpp</text>
</a>
</g>
</g>
<!-- Node8&#45;&gt;Node12 -->
<g id="edge14" class="edge"><title>Node8&#45;&gt;Node12</title>
<path fill="none" stroke="midnightblue" d="M910.425,-134.829C909.724,-124.633 911.498,-107.887 914.387,-94.864"/>
<polygon fill="midnightblue" stroke="midnightblue" points="917.816,-95.5924 917.046,-85.0255 911.058,-93.7657 917.816,-95.5924"/>
</g>
<!-- Node10 -->
<g id="node10" class="node"><title>Node10</title>
<polygon fill="none" stroke="#bfbfbf" points="858.943,-1 858.943,-21 911.057,-21 911.057,-1 858.943,-1"/>
<text text-anchor="middle" x="885" y="-7" font-family="Helvetica,sans-Serif" font-size="10.00">memory</text>
</g>
<!-- Node9&#45;&gt;Node10 -->
<g id="edge11" class="edge"><title>Node9&#45;&gt;Node10</title>
<path fill="none" stroke="midnightblue" d="M808.28,-64.8517C822.77,-54.8696 846.188,-38.7371 863.345,-26.9179"/>
<polygon fill="midnightblue" stroke="midnightblue" points="865.416,-29.7412 871.666,-21.1858 861.445,-23.9767 865.416,-29.7412"/>
</g>
<!-- Node11 -->
<g id="node11" class="node"><title>Node11</title>
<g id="a_node11"><a xlink:href="copyable_8cpp.html" target="_top" xlink:title="Om source file.">
<polygon fill="none" stroke="black" points="749.2,-1 749.2,-21 840.8,-21 840.8,-1 749.2,-1"/>
<text text-anchor="middle" x="795" y="-7" font-family="Helvetica,sans-Serif" font-size="10.00">om/copyable.cpp</text>
</a>
</g>
</g>
<!-- Node9&#45;&gt;Node11 -->
<g id="edge12" class="edge"><title>Node9&#45;&gt;Node11</title>
<path fill="none" stroke="midnightblue" d="M790.045,-64.8517C788.252,-56.0601 787.802,-42.4977 788.696,-31.3131"/>
<polygon fill="midnightblue" stroke="midnightblue" points="792.194,-31.5588 790.037,-21.1858 785.254,-30.6398 792.194,-31.5588"/>
</g>
<!-- Node11&#45;&gt;Node9 -->
<g id="edge13" class="edge"><title>Node11&#45;&gt;Node9</title>
<path fill="none" stroke="midnightblue" d="M799.963,-21.1858C801.752,-29.991 802.198,-43.5568 801.3,-54.7346"/>
<polygon fill="midnightblue" stroke="midnightblue" points="797.804,-54.4776 799.955,-64.8517 804.743,-55.4002 797.804,-54.4776"/>
</g>
<!-- Node12&#45;&gt;Node8 -->
<g id="edge15" class="edge"><title>Node12&#45;&gt;Node8</title>
<path fill="none" stroke="midnightblue" d="M926.565,-85.0255C927.29,-95.1587 925.533,-111.891 922.654,-124.95"/>
<polygon fill="midnightblue" stroke="midnightblue" points="919.215,-124.264 920.002,-134.829 925.975,-126.079 919.215,-124.264"/>
</g>
<!-- Node14 -->
<g id="node14" class="node"><title>Node14</title>
<g id="a_node14"><a xlink:href="moveable_8hpp.html" target="_top" xlink:title="Om header file.">
<polygon fill="none" stroke="black" points="1004.25,-65 1004.25,-85 1099.75,-85 1099.75,-65 1004.25,-65"/>
<text text-anchor="middle" x="1052" y="-71" font-family="Helvetica,sans-Serif" font-size="10.00">om/moveable.hpp</text>
</a>
</g>
</g>
<!-- Node13&#45;&gt;Node14 -->
<g id="edge17" class="edge"><title>Node13&#45;&gt;Node14</title>
<path fill="none" stroke="midnightblue" d="M1059.79,-134.829C1058.45,-124.735 1056.26,-108.222 1054.55,-95.2558"/>
<polygon fill="midnightblue" stroke="midnightblue" points="1057.98,-94.4798 1053.19,-85.0255 1051.04,-95.3983 1057.98,-94.4798"/>
</g>
<!-- Node16 -->
<g id="node16" class="node"><title>Node16</title>
<g id="a_node16"><a xlink:href="default__moveable_8cpp.html" target="_top" xlink:title="Om source file.">
<polygon fill="none" stroke="black" points="1117.74,-65 1117.74,-85 1248.26,-85 1248.26,-65 1117.74,-65"/>
<text text-anchor="middle" x="1183" y="-71" font-family="Helvetica,sans-Serif" font-size="10.00">om/default_moveable.cpp</text>
</a>
</g>
</g>
<!-- Node13&#45;&gt;Node16 -->
<g id="edge21" class="edge"><title>Node13&#45;&gt;Node16</title>
<path fill="none" stroke="midnightblue" d="M1072.66,-134.829C1091.18,-123.206 1127.06,-103.07 1152.99,-89.6413"/>
<polygon fill="midnightblue" stroke="midnightblue" points="1154.73,-92.6854 1162.05,-85.0255 1151.55,-86.449 1154.73,-92.6854"/>
</g>
<!-- Node14&#45;&gt;Node10 -->
<g id="edge18" class="edge"><title>Node14&#45;&gt;Node10</title>
<path fill="none" stroke="midnightblue" d="M1027.72,-64.9847C999.023,-54.3319 951.108,-36.5431 918.8,-24.5484"/>
<polygon fill="midnightblue" stroke="midnightblue" points="919.906,-21.2256 909.313,-21.0262 917.469,-27.7879 919.906,-21.2256"/>
</g>
<!-- Node15 -->
<g id="node15" class="node"><title>Node15</title>
<g id="a_node15"><a xlink:href="moveable_8cpp.html" target="_top" xlink:title="Om source file.">
<polygon fill="none" stroke="black" points="1004.53,-1 1004.53,-21 1099.47,-21 1099.47,-1 1004.53,-1"/>
<text text-anchor="middle" x="1052" y="-7" font-family="Helvetica,sans-Serif" font-size="10.00">om/moveable.cpp</text>
</a>
</g>
</g>
<!-- Node14&#45;&gt;Node15 -->
<g id="edge19" class="edge"><title>Node14&#45;&gt;Node15</title>
<path fill="none" stroke="midnightblue" d="M1047.04,-64.8517C1045.25,-56.0601 1044.8,-42.4977 1045.7,-31.3131"/>
<polygon fill="midnightblue" stroke="midnightblue" points="1049.19,-31.5588 1047.04,-21.1858 1042.25,-30.6398 1049.19,-31.5588"/>
</g>
<!-- Node15&#45;&gt;Node14 -->
<g id="edge20" class="edge"><title>Node15&#45;&gt;Node14</title>
<path fill="none" stroke="midnightblue" d="M1056.96,-21.1858C1058.75,-29.991 1059.2,-43.5568 1058.3,-54.7346"/>
<polygon fill="midnightblue" stroke="midnightblue" points="1054.8,-54.4776 1056.96,-64.8517 1061.74,-55.4002 1054.8,-54.4776"/>
</g>
<!-- Node16&#45;&gt;Node13 -->
<g id="edge22" class="edge"><title>Node16&#45;&gt;Node13</title>
<path fill="none" stroke="midnightblue" d="M1171.5,-85.0672C1153.04,-96.6691 1117.05,-116.872 1091.04,-130.341"/>
<polygon fill="midnightblue" stroke="midnightblue" points="1089.28,-127.31 1081.96,-134.97 1092.46,-133.546 1089.28,-127.31"/>
</g>
<!-- Node17&#45;&gt;Node9 -->
<g id="edge24" class="edge"><title>Node17&#45;&gt;Node9</title>
<path fill="none" stroke="midnightblue" d="M757.799,-134.829C764.44,-124.327 775.475,-106.877 783.806,-93.7022"/>
<polygon fill="midnightblue" stroke="midnightblue" points="786.906,-95.3481 789.293,-85.0255 780.99,-91.6068 786.906,-95.3481"/>
</g>
<!-- Node17&#45;&gt;Node14 -->
<g id="edge25" class="edge"><title>Node17&#45;&gt;Node14</title>
<path fill="none" stroke="midnightblue" d="M796.98,-135.255C845.903,-125.539 926.312,-108.972 995,-92 1000.3,-90.6902 1005.86,-89.235 1011.33,-87.7511"/>
<polygon fill="midnightblue" stroke="midnightblue" points="1012.32,-91.1087 1021.03,-85.0744 1010.46,-84.3609 1012.32,-91.1087"/>
</g>
<!-- Node18 -->
<g id="node18" class="node"><title>Node18</title>
<g id="a_node18"><a xlink:href="giveable_8cpp.html" target="_top" xlink:title="Om source file.">
<polygon fill="none" stroke="black" points="642.589,-65 642.589,-85 731.411,-85 731.411,-65 642.589,-65"/>
<text text-anchor="middle" x="687" y="-71" font-family="Helvetica,sans-Serif" font-size="10.00">om/giveable.cpp</text>
</a>
</g>
</g>
<!-- Node17&#45;&gt;Node18 -->
<g id="edge26" class="edge"><title>Node17&#45;&gt;Node18</title>
<path fill="none" stroke="midnightblue" d="M738.445,-134.829C726.059,-124.124 708.542,-106.196 697.263,-92.9397"/>
<polygon fill="midnightblue" stroke="midnightblue" points="699.875,-90.6041 690.868,-85.0255 694.431,-95.0035 699.875,-90.6041"/>
</g>
<!-- Node18&#45;&gt;Node17 -->
<g id="edge27" class="edge"><title>Node18&#45;&gt;Node17</title>
<path fill="none" stroke="midnightblue" d="M700.386,-85.0255C712.726,-95.6654 730.248,-113.581 741.583,-126.88"/>
<polygon fill="midnightblue" stroke="midnightblue" points="739.008,-129.261 748.022,-134.829 744.448,-124.856 739.008,-129.261"/>
</g>
<!-- Node19&#45;&gt;Node7 -->
<g id="edge29" class="edge"><title>Node19&#45;&gt;Node7</title>
<path fill="none" stroke="midnightblue" d="M1182.43,-155.067C1145.63,-167.203 1076.09,-188.751 1030.58,-202.158"/>
<polygon fill="midnightblue" stroke="midnightblue" points="1029.59,-198.801 1020.97,-204.97 1031.55,-205.519 1029.59,-198.801"/>
</g>
<!-- Node20&#45;&gt;Node4 -->
<g id="edge31" class="edge"><title>Node20&#45;&gt;Node4</title>
<path fill="none" stroke="midnightblue" d="M535.968,-204.951C527.916,-202.564 519.148,-200.077 511,-198 437.004,-179.139 417.087,-180.5 343,-162 337.727,-160.683 332.2,-159.214 326.757,-157.715"/>
<polygon fill="midnightblue" stroke="midnightblue" points="327.699,-154.344 317.126,-155.009 325.806,-161.083 327.699,-154.344"/>
</g>
<!-- Node20&#45;&gt;Node17 -->
<g id="edge32" class="edge"><title>Node20&#45;&gt;Node17</title>
<path fill="none" stroke="midnightblue" d="M589.832,-204.97C622.525,-193.082 680.18,-172.116 717.207,-158.652"/>
<polygon fill="midnightblue" stroke="midnightblue" points="718.863,-161.774 727.065,-155.067 716.471,-155.195 718.863,-161.774"/>
</g>
<!-- Node21 -->
<g id="node21" class="node"><title>Node21</title>
<g id="a_node21"><a xlink:href="producer_8hpp.html" target="_top" xlink:title="Om header file.">
<polygon fill="none" stroke="black" points="352.473,-135 352.473,-155 443.527,-155 443.527,-135 352.473,-135"/>
<text text-anchor="middle" x="398" y="-141" font-family="Helvetica,sans-Serif" font-size="10.00">om/producer.hpp</text>
</a>
</g>
</g>
<!-- Node20&#45;&gt;Node21 -->
<g id="edge33" class="edge"><title>Node20&#45;&gt;Node21</title>
<path fill="none" stroke="midnightblue" d="M542.824,-204.97C513.877,-193.183 463.017,-172.474 429.924,-158.999"/>
<polygon fill="midnightblue" stroke="midnightblue" points="430.85,-155.597 420.268,-155.067 428.21,-162.08 430.85,-155.597"/>
</g>
<!-- Node23 -->
<g id="node23" class="node"><title>Node23</title>
<g id="a_node23"><a xlink:href="shareable_8hpp.html" target="_top" xlink:title="Om header file.">
<polygon fill="none" stroke="black" points="461.973,-135 461.973,-155 558.027,-155 558.027,-135 461.973,-135"/>
<text text-anchor="middle" x="510" y="-141" font-family="Helvetica,sans-Serif" font-size="10.00">om/shareable.hpp</text>
</a>
</g>
</g>
<!-- Node20&#45;&gt;Node23 -->
<g id="edge37" class="edge"><title>Node20&#45;&gt;Node23</title>
<path fill="none" stroke="midnightblue" d="M557.582,-204.829C548.923,-194.124 534.424,-176.196 523.701,-162.94"/>
<polygon fill="midnightblue" stroke="midnightblue" points="526.31,-160.6 517.3,-155.025 520.867,-165.002 526.31,-160.6"/>
</g>
<!-- Node26 -->
<g id="node26" class="node"><title>Node26</title>
<g id="a_node26"><a xlink:href="program_8cpp.html" target="_top" xlink:title="Om source file.">
<polygon fill="none" stroke="black" points="575.596,-135 575.596,-155 664.404,-155 664.404,-135 575.596,-135"/>
<text text-anchor="middle" x="620" y="-141" font-family="Helvetica,sans-Serif" font-size="10.00">om/program.cpp</text>
</a>
</g>
</g>
<!-- Node20&#45;&gt;Node26 -->
<g id="edge41" class="edge"><title>Node20&#45;&gt;Node26</title>
<path fill="none" stroke="midnightblue" d="M567.629,-204.829C574.197,-194.022 588.524,-175.854 600.715,-162.562"/>
<polygon fill="midnightblue" stroke="midnightblue" points="603.547,-164.666 607.941,-155.025 598.494,-159.822 603.547,-164.666"/>
</g>
<!-- Node21&#45;&gt;Node10 -->
<g id="edge34" class="edge"><title>Node21&#45;&gt;Node10</title>
<path fill="none" stroke="midnightblue" d="M400.85,-134.736C407.015,-116.454 423.469,-75.9528 453,-58 528.505,-12.0977 762.077,-37.8894 849,-22 849.1,-21.9818 849.2,-21.9634 849.299,-21.9449"/>
<polygon fill="midnightblue" stroke="midnightblue" points="849.76,-25.4271 858.781,-19.8717 848.264,-18.5886 849.76,-25.4271"/>
</g>
<!-- Node22 -->
<g id="node22" class="node"><title>Node22</title>
<g id="a_node22"><a xlink:href="producer_8cpp.html" target="_top" xlink:title="Om source file.">
<polygon fill="none" stroke="black" points="315.754,-65 315.754,-85 406.246,-85 406.246,-65 315.754,-65"/>
<text text-anchor="middle" x="361" y="-71" font-family="Helvetica,sans-Serif" font-size="10.00">om/producer.cpp</text>
</a>
</g>
</g>
<!-- Node21&#45;&gt;Node22 -->
<g id="edge35" class="edge"><title>Node21&#45;&gt;Node22</title>
<path fill="none" stroke="midnightblue" d="M388.221,-134.829C380.547,-124.531 370.877,-107.552 364.971,-94.4744"/>
<polygon fill="midnightblue" stroke="midnightblue" points="368.144,-92.985 361.152,-85.0255 361.655,-95.6084 368.144,-92.985"/>
</g>
<!-- Node22&#45;&gt;Node21 -->
<g id="edge36" class="edge"><title>Node22&#45;&gt;Node21</title>
<path fill="none" stroke="midnightblue" d="M370.67,-85.0255C378.326,-95.2601 388.004,-112.226 393.945,-125.34"/>
<polygon fill="midnightblue" stroke="midnightblue" points="390.793,-126.881 397.799,-134.829 397.279,-124.247 390.793,-126.881"/>
</g>
<!-- Node24 -->
<g id="node24" class="node"><title>Node24</title>
<polygon fill="none" stroke="#bfbfbf" points="575.879,-65 575.879,-85 624.121,-85 624.121,-65 575.879,-65"/>
<text text-anchor="middle" x="600" y="-71" font-family="Helvetica,sans-Serif" font-size="10.00">cstddef</text>
</g>
<!-- Node23&#45;&gt;Node24 -->
<g id="edge38" class="edge"><title>Node23&#45;&gt;Node24</title>
<path fill="none" stroke="midnightblue" d="M522.138,-134.829C536.982,-123.614 562.316,-104.473 580.043,-91.079"/>
<polygon fill="midnightblue" stroke="midnightblue" points="582.186,-93.8464 588.055,-85.0255 577.966,-88.2613 582.186,-93.8464"/>
</g>
<!-- Node25 -->
<g id="node25" class="node"><title>Node25</title>
<g id="a_node25"><a xlink:href="shareable_8cpp.html" target="_top" xlink:title="Om source file.">
<polygon fill="none" stroke="black" points="462.254,-65 462.254,-85 557.746,-85 557.746,-65 462.254,-65"/>
<text text-anchor="middle" x="510" y="-71" font-family="Helvetica,sans-Serif" font-size="10.00">om/shareable.cpp</text>
</a>
</g>
</g>
<!-- Node23&#45;&gt;Node25 -->
<g id="edge39" class="edge"><title>Node23&#45;&gt;Node25</title>
<path fill="none" stroke="midnightblue" d="M505.211,-134.829C503.181,-124.735 502.727,-108.222 503.849,-95.2558"/>
<polygon fill="midnightblue" stroke="midnightblue" points="507.361,-95.4061 505.241,-85.0255 500.425,-94.4624 507.361,-95.4061"/>
</g>
<!-- Node25&#45;&gt;Node23 -->
<g id="edge40" class="edge"><title>Node25&#45;&gt;Node23</title>
<path fill="none" stroke="midnightblue" d="M514.759,-85.0255C516.805,-95.0574 517.274,-111.557 516.167,-124.557"/>
<polygon fill="midnightblue" stroke="midnightblue" points="512.65,-124.453 514.789,-134.829 519.588,-125.384 512.65,-124.453"/>
</g>
<!-- Node26&#45;&gt;Node20 -->
<g id="edge42" class="edge"><title>Node26&#45;&gt;Node20</title>
<path fill="none" stroke="midnightblue" d="M617.459,-155.025C610.961,-165.767 596.66,-183.923 584.45,-197.258"/>
<polygon fill="midnightblue" stroke="midnightblue" points="581.59,-195.184 577.206,-204.829 586.648,-200.023 581.59,-195.184"/>
</g>
<!-- Node28 -->
<g id="node28" class="node"><title>Node28</title>
<g id="a_node28"><a xlink:href="taker_8cpp.html" target="_top" xlink:title="Om source file.">
<polygon fill="none" stroke="black" points="148.372,-135 148.372,-155 221.628,-155 221.628,-135 148.372,-135"/>
<text text-anchor="middle" x="185" y="-141" font-family="Helvetica,sans-Serif" font-size="10.00">om/taker.cpp</text>
</a>
</g>
</g>
<!-- Node27&#45;&gt;Node28 -->
<g id="edge44" class="edge"><title>Node27&#45;&gt;Node28</title>
<path fill="none" stroke="midnightblue" d="M180.211,-204.829C178.181,-194.735 177.727,-178.222 178.849,-165.256"/>
<polygon fill="midnightblue" stroke="midnightblue" points="182.361,-165.406 180.241,-155.025 175.425,-164.462 182.361,-165.406"/>
</g>
<!-- Node28&#45;&gt;Node27 -->
<g id="edge45" class="edge"><title>Node28&#45;&gt;Node27</title>
<path fill="none" stroke="midnightblue" d="M189.759,-155.025C191.805,-165.057 192.274,-181.557 191.167,-194.557"/>
<polygon fill="midnightblue" stroke="midnightblue" points="187.65,-194.453 189.789,-204.829 194.588,-195.384 187.65,-194.453"/>
</g>
<!-- Node29&#45;&gt;Node2 -->
<g id="edge47" class="edge"><title>Node29&#45;&gt;Node2</title>
<path fill="none" stroke="midnightblue" d="M444.759,-225.025C446.805,-235.057 447.274,-251.557 446.167,-264.557"/>
<polygon fill="midnightblue" stroke="midnightblue" points="442.65,-264.453 444.789,-274.829 449.588,-265.384 442.65,-264.453"/>
</g>
<!-- Node31 -->
<g id="node31" class="node"><title>Node31</title>
<g id="a_node31"><a xlink:href="iterator__pair__source_8hpp.html" target="_top" xlink:title="Om header file.">
<polygon fill="none" stroke="black" points="1389.21,-199 1389.21,-231 1490.79,-231 1490.79,-199 1389.21,-199"/>
<text text-anchor="start" x="1397.21" y="-217" font-family="Helvetica,sans-Serif" font-size="10.00">om/sources/iterator</text>
<text text-anchor="middle" x="1440" y="-205" font-family="Helvetica,sans-Serif" font-size="10.00">_pair_source.hpp</text>
</a>
</g>
</g>
<!-- Node30&#45;&gt;Node31 -->
<g id="edge49" class="edge"><title>Node30&#45;&gt;Node31</title>
<path fill="none" stroke="midnightblue" d="M1273.23,-268.993C1305.49,-258.741 1348.43,-245.096 1382.66,-234.22"/>
<polygon fill="midnightblue" stroke="midnightblue" points="1384.05,-237.45 1392.52,-231.086 1381.93,-230.779 1384.05,-237.45"/>
</g>
<!-- Node37 -->
<g id="node37" class="node"><title>Node37</title>
<g id="a_node37"><a xlink:href="collection__front__source_8cpp.html" target="_top" xlink:title="Om source file.">
<polygon fill="none" stroke="black" points="1169.92,-199 1169.92,-231 1282.08,-231 1282.08,-199 1169.92,-199"/>
<text text-anchor="start" x="1177.92" y="-217" font-family="Helvetica,sans-Serif" font-size="10.00">om/sources/collection</text>
<text text-anchor="middle" x="1226" y="-205" font-family="Helvetica,sans-Serif" font-size="10.00">_front_source.cpp</text>
</a>
</g>
</g>
<!-- Node30&#45;&gt;Node37 -->
<g id="edge58" class="edge"><title>Node30&#45;&gt;Node37</title>
<path fill="none" stroke="midnightblue" d="M1220.28,-268.909C1219.28,-260.721 1219.01,-250.389 1219.46,-241.032"/>
<polygon fill="midnightblue" stroke="midnightblue" points="1222.95,-241.303 1220.29,-231.049 1215.98,-240.728 1222.95,-241.303"/>
</g>
<!-- Node32 -->
<g id="node32" class="node"><title>Node32</title>
<g id="a_node32"><a xlink:href="default__source_8hpp.html" target="_top" xlink:title="Om header file.">
<polygon fill="none" stroke="black" points="1330.76,-129 1330.76,-161 1431.24,-161 1431.24,-129 1330.76,-129"/>
<text text-anchor="start" x="1338.76" y="-147" font-family="Helvetica,sans-Serif" font-size="10.00">om/sources/default</text>
<text text-anchor="middle" x="1381" y="-135" font-family="Helvetica,sans-Serif" font-size="10.00">_source.hpp</text>
</a>
</g>
</g>
<!-- Node31&#45;&gt;Node32 -->
<g id="edge50" class="edge"><title>Node31&#45;&gt;Node32</title>
<path fill="none" stroke="midnightblue" d="M1426.91,-198.909C1419.19,-190.017 1409.28,-178.595 1400.64,-168.641"/>
<polygon fill="midnightblue" stroke="midnightblue" points="1403.25,-166.309 1394.06,-161.049 1397.97,-170.896 1403.25,-166.309"/>
</g>
<!-- Node36 -->
<g id="node36" class="node"><title>Node36</title>
<g id="a_node36"><a xlink:href="iterator__pair__source_8cpp.html" target="_top" xlink:title="Om source file.">
<polygon fill="none" stroke="black" points="1449.21,-129 1449.21,-161 1550.79,-161 1550.79,-129 1449.21,-129"/>
<text text-anchor="start" x="1457.21" y="-147" font-family="Helvetica,sans-Serif" font-size="10.00">om/sources/iterator</text>
<text text-anchor="middle" x="1500" y="-135" font-family="Helvetica,sans-Serif" font-size="10.00">_pair_source.cpp</text>
</a>
</g>
</g>
<!-- Node31&#45;&gt;Node36 -->
<g id="edge56" class="edge"><title>Node31&#45;&gt;Node36</title>
<path fill="none" stroke="midnightblue" d="M1447.6,-198.909C1454.42,-189.929 1464.4,-178.369 1473.9,-168.346"/>
<polygon fill="midnightblue" stroke="midnightblue" points="1476.54,-170.655 1481.01,-161.049 1471.52,-165.77 1476.54,-170.655"/>
</g>
<!-- Node33 -->
<g id="node33" class="node"><title>Node33</title>
<g id="a_node33"><a xlink:href="source_8hpp.html" target="_top" xlink:title="Om header file.">
<polygon fill="none" stroke="black" points="1265.93,-65 1265.93,-85 1348.07,-85 1348.07,-65 1265.93,-65"/>
<text text-anchor="middle" x="1307" y="-71" font-family="Helvetica,sans-Serif" font-size="10.00">om/source.hpp</text>
</a>
</g>
</g>
<!-- Node32&#45;&gt;Node33 -->
<g id="edge51" class="edge"><title>Node32&#45;&gt;Node33</title>
<path fill="none" stroke="midnightblue" d="M1364.58,-128.909C1352.68,-117.972 1336.61,-103.209 1324.47,-92.0565"/>
<polygon fill="midnightblue" stroke="midnightblue" points="1326.53,-89.1927 1316.8,-85.0035 1321.79,-94.347 1326.53,-89.1927"/>
</g>
<!-- Node35 -->
<g id="node35" class="node"><title>Node35</title>
<g id="a_node35"><a xlink:href="default__source_8cpp.html" target="_top" xlink:title="Om source file.">
<polygon fill="none" stroke="black" points="1365.76,-59 1365.76,-91 1466.24,-91 1466.24,-59 1365.76,-59"/>
<text text-anchor="start" x="1373.76" y="-77" font-family="Helvetica,sans-Serif" font-size="10.00">om/sources/default</text>
<text text-anchor="middle" x="1416" y="-65" font-family="Helvetica,sans-Serif" font-size="10.00">_source.cpp</text>
</a>
</g>
</g>
<!-- Node32&#45;&gt;Node35 -->
<g id="edge54" class="edge"><title>Node32&#45;&gt;Node35</title>
<path fill="none" stroke="midnightblue" d="M1383.05,-128.909C1386.4,-120.369 1391.75,-109.496 1397.26,-99.8305"/>
<polygon fill="midnightblue" stroke="midnightblue" points="1400.39,-101.423 1402.54,-91.0492 1394.39,-97.8164 1400.39,-101.423"/>
</g>
<!-- Node34 -->
<g id="node34" class="node"><title>Node34</title>
<g id="a_node34"><a xlink:href="source_8cpp.html" target="_top" xlink:title="Om source file.">
<polygon fill="none" stroke="black" points="1266.21,-1 1266.21,-21 1347.79,-21 1347.79,-1 1266.21,-1"/>
<text text-anchor="middle" x="1307" y="-7" font-family="Helvetica,sans-Serif" font-size="10.00">om/source.cpp</text>
</a>
</g>
</g>
<!-- Node33&#45;&gt;Node34 -->
<g id="edge52" class="edge"><title>Node33&#45;&gt;Node34</title>
<path fill="none" stroke="midnightblue" d="M1302.04,-64.8517C1300.25,-56.0601 1299.8,-42.4977 1300.7,-31.3131"/>
<polygon fill="midnightblue" stroke="midnightblue" points="1304.19,-31.5588 1302.04,-21.1858 1297.25,-30.6398 1304.19,-31.5588"/>
</g>
<!-- Node34&#45;&gt;Node33 -->
<g id="edge53" class="edge"><title>Node34&#45;&gt;Node33</title>
<path fill="none" stroke="midnightblue" d="M1311.96,-21.1858C1313.75,-29.991 1314.2,-43.5568 1313.3,-54.7346"/>
<polygon fill="midnightblue" stroke="midnightblue" points="1309.8,-54.4776 1311.96,-64.8517 1316.74,-55.4002 1309.8,-54.4776"/>
</g>
<!-- Node35&#45;&gt;Node32 -->
<g id="edge55" class="edge"><title>Node35&#45;&gt;Node32</title>
<path fill="none" stroke="midnightblue" d="M1413.97,-91.0492C1410.62,-99.5811 1405.28,-110.452 1399.77,-120.122"/>
<polygon fill="midnightblue" stroke="midnightblue" points="1396.64,-118.534 1394.49,-128.909 1402.64,-122.139 1396.64,-118.534"/>
</g>
<!-- Node36&#45;&gt;Node31 -->
<g id="edge57" class="edge"><title>Node36&#45;&gt;Node31</title>
<path fill="none" stroke="midnightblue" d="M1492.44,-161.049C1485.62,-170.021 1475.64,-181.579 1466.15,-191.607"/>
<polygon fill="midnightblue" stroke="midnightblue" points="1463.5,-189.302 1459.04,-198.909 1468.52,-194.186 1463.5,-189.302"/>
</g>
<!-- Node37&#45;&gt;Node30 -->
<g id="edge59" class="edge"><title>Node37&#45;&gt;Node30</title>
<path fill="none" stroke="midnightblue" d="M1231.71,-231.049C1232.72,-239.229 1232.99,-249.56 1232.54,-258.92"/>
<polygon fill="midnightblue" stroke="midnightblue" points="1229.05,-258.656 1231.72,-268.909 1236.03,-259.228 1229.05,-258.656"/>
</g>
<!-- Node40&#45;&gt;Node1 -->
<g id="edge63" class="edge"><title>Node40&#45;&gt;Node1</title>
<path fill="none" stroke="midnightblue" d="M1544.36,-295.026C1519.92,-305.684 1475.65,-323.473 1443.89,-335.464"/>
<polygon fill="midnightblue" stroke="midnightblue" points="1442.61,-332.205 1434.47,-338.985 1445.06,-338.762 1442.61,-332.205"/>
</g>
</g>
</svg>
