<?xml version="1.0" encoding="UTF-8" standalone="no"?>
<!DOCTYPE svg PUBLIC "-//W3C//DTD SVG 1.1//EN"
 "http://www.w3.org/Graphics/SVG/1.1/DTD/svg11.dtd">
<!-- Generated by graphviz version 2.30.1 (20130221.2233)
 -->
<!-- Title: code/om/literal.hpp Pages: 1 -->
<svg width="1590pt" height="426pt"
 viewBox="0.00 0.00 1590.00 426.00" xmlns="http://www.w3.org/2000/svg" xmlns:xlink="http://www.w3.org/1999/xlink">
<g id="graph0" class="graph" transform="scale(1 1) rotate(0) translate(4 422)">
<title>code/om/literal.hpp</title>
<!-- Node1 -->
<g id="node1" class="node"><title>Node1</title>
<polygon fill="#bfbfbf" stroke="black" points="1339.75,-397 1339.75,-417 1440.25,-417 1440.25,-397 1339.75,-397"/>
<text text-anchor="middle" x="1390" y="-403" font-family="Helvetica,sans-Serif" font-size="10.00">code/om/literal.hpp</text>
</g>
<!-- Node2 -->
<g id="node2" class="node"><title>Node2</title>
<g id="a_node2"><a xlink:href="default__program_8hpp.html" target="_top" xlink:title="Om header file.">
<polygon fill="none" stroke="black" points="392.522,-333 392.522,-353 517.478,-353 517.478,-333 392.522,-333"/>
<text text-anchor="middle" x="455" y="-339" font-family="Helvetica,sans-Serif" font-size="10.00">om/default_program.hpp</text>
</a>
</g>
</g>
<!-- Node1&#45;&gt;Node2 -->
<g id="edge1" class="edge"><title>Node1&#45;&gt;Node2</title>
<path fill="none" stroke="midnightblue" d="M1339.73,-402.667C1184.12,-392.348 709.868,-360.9 527.507,-348.808"/>
<polygon fill="midnightblue" stroke="midnightblue" points="527.691,-345.313 517.481,-348.143 527.227,-352.297 527.691,-345.313"/>
</g>
<!-- Node34 -->
<g id="node34" class="node"><title>Node34</title>
<g id="a_node34"><a xlink:href="collection__front__source_8hpp.html" target="_top" xlink:title="Om header file.">
<polygon fill="none" stroke="black" points="1152.92,-327 1152.92,-359 1265.08,-359 1265.08,-327 1152.92,-327"/>
<text text-anchor="start" x="1160.92" y="-345" font-family="Helvetica,sans-Serif" font-size="10.00">om/sources/collection</text>
<text text-anchor="middle" x="1209" y="-333" font-family="Helvetica,sans-Serif" font-size="10.00">_front_source.hpp</text>
</a>
</g>
</g>
<!-- Node1&#45;&gt;Node34 -->
<g id="edge54" class="edge"><title>Node1&#45;&gt;Node34</title>
<path fill="none" stroke="midnightblue" d="M1363.68,-396.985C1337.27,-387.937 1295.82,-373.741 1262.48,-362.319"/>
<polygon fill="midnightblue" stroke="midnightblue" points="1263.46,-358.955 1252.87,-359.026 1261.19,-365.578 1263.46,-358.955"/>
</g>
<!-- Node42 -->
<g id="node42" class="node"><title>Node42</title>
<polygon fill="none" stroke="#bfbfbf" points="1283.19,-327 1283.19,-359 1384.81,-359 1384.81,-327 1283.19,-327"/>
<text text-anchor="start" x="1291.19" y="-345" font-family="Helvetica,sans-Serif" font-size="10.00">boost/ptr_container</text>
<text text-anchor="middle" x="1334" y="-333" font-family="Helvetica,sans-Serif" font-size="10.00">/ptr_deque.hpp</text>
</g>
<!-- Node1&#45;&gt;Node42 -->
<g id="edge66" class="edge"><title>Node1&#45;&gt;Node42</title>
<path fill="none" stroke="midnightblue" d="M1381.74,-396.852C1374.66,-389.014 1364.15,-377.384 1354.8,-367.028"/>
<polygon fill="midnightblue" stroke="midnightblue" points="1357.25,-364.515 1347.95,-359.44 1352.05,-369.207 1357.25,-364.515"/>
</g>
<!-- Node43 -->
<g id="node43" class="node"><title>Node43</title>
<polygon fill="none" stroke="#bfbfbf" points="1402.98,-333 1402.98,-353 1489.02,-353 1489.02,-333 1402.98,-333"/>
<text text-anchor="middle" x="1446" y="-339" font-family="Helvetica,sans-Serif" font-size="10.00">boost/swap.hpp</text>
</g>
<!-- Node1&#45;&gt;Node43 -->
<g id="edge67" class="edge"><title>Node1&#45;&gt;Node43</title>
<path fill="none" stroke="midnightblue" d="M1398.26,-396.852C1406.78,-387.419 1420.26,-372.495 1430.73,-360.907"/>
<polygon fill="midnightblue" stroke="midnightblue" points="1433.6,-362.953 1437.7,-353.186 1428.4,-358.261 1433.6,-362.953"/>
</g>
<!-- Node44 -->
<g id="node44" class="node"><title>Node44</title>
<g id="a_node44"><a xlink:href="literal_8cpp.html" target="_top" xlink:title="Om source file.">
<polygon fill="none" stroke="black" points="1507.27,-333 1507.27,-353 1582.73,-353 1582.73,-333 1507.27,-333"/>
<text text-anchor="middle" x="1545" y="-339" font-family="Helvetica,sans-Serif" font-size="10.00">om/literal.cpp</text>
</a>
</g>
</g>
<!-- Node1&#45;&gt;Node44 -->
<g id="edge68" class="edge"><title>Node1&#45;&gt;Node44</title>
<path fill="none" stroke="midnightblue" d="M1407.61,-396.985C1432.04,-386.332 1476.31,-368.543 1508.08,-356.548"/>
<polygon fill="midnightblue" stroke="midnightblue" points="1509.36,-359.806 1517.5,-353.026 1506.91,-353.249 1509.36,-359.806"/>
</g>
<!-- Node3 -->
<g id="node3" class="node"><title>Node3</title>
<g id="a_node3"><a xlink:href="default__consumer_8hpp.html" target="_top" xlink:title="Om header file.">
<polygon fill="none" stroke="black" points="56.4609,-263 56.4609,-283 187.539,-283 187.539,-263 56.4609,-263"/>
<text text-anchor="middle" x="122" y="-269" font-family="Helvetica,sans-Serif" font-size="10.00">om/default_consumer.hpp</text>
</a>
</g>
</g>
<!-- Node2&#45;&gt;Node3 -->
<g id="edge2" class="edge"><title>Node2&#45;&gt;Node3</title>
<path fill="none" stroke="midnightblue" d="M410.78,-332.97C350.24,-320.608 241.629,-298.429 176.246,-285.077"/>
<polygon fill="midnightblue" stroke="midnightblue" points="176.635,-281.585 166.137,-283.013 175.235,-288.443 176.635,-281.585"/>
</g>
<!-- Node7 -->
<g id="node7" class="node"><title>Node7</title>
<g id="a_node7"><a xlink:href="default__giveable_8hpp.html" target="_top" xlink:title="Om header file.">
<polygon fill="none" stroke="black" points="903.515,-263 903.515,-283 1028.48,-283 1028.48,-263 903.515,-263"/>
<text text-anchor="middle" x="966" y="-269" font-family="Helvetica,sans-Serif" font-size="10.00">om/default_giveable.hpp</text>
</a>
</g>
</g>
<!-- Node2&#45;&gt;Node7 -->
<g id="edge8" class="edge"><title>Node2&#45;&gt;Node7</title>
<path fill="none" stroke="midnightblue" d="M517.659,-333.662C612.606,-321.027 792.496,-297.089 893.146,-283.695"/>
<polygon fill="midnightblue" stroke="midnightblue" points="893.778,-287.142 903.229,-282.353 892.855,-280.203 893.778,-287.142"/>
</g>
<!-- Node24 -->
<g id="node24" class="node"><title>Node24</title>
<g id="a_node24"><a xlink:href="program_8hpp.html" target="_top" xlink:title="Om header file.">
<polygon fill="none" stroke="black" points="535.315,-263 535.315,-283 624.685,-283 624.685,-263 535.315,-263"/>
<text text-anchor="middle" x="580" y="-269" font-family="Helvetica,sans-Serif" font-size="10.00">om/program.hpp</text>
</a>
</g>
</g>
<!-- Node2&#45;&gt;Node24 -->
<g id="edge36" class="edge"><title>Node2&#45;&gt;Node24</title>
<path fill="none" stroke="midnightblue" d="M471.599,-332.97C492.799,-321.438 529.701,-301.363 554.485,-287.88"/>
<polygon fill="midnightblue" stroke="midnightblue" points="556.221,-290.92 563.332,-283.067 552.875,-284.771 556.221,-290.92"/>
</g>
<!-- Node31 -->
<g id="node31" class="node"><title>Node31</title>
<g id="a_node31"><a xlink:href="taker_8hpp.html" target="_top" xlink:title="Om header file.">
<polygon fill="none" stroke="black" points="261.091,-263 261.091,-283 334.909,-283 334.909,-263 261.091,-263"/>
<text text-anchor="middle" x="298" y="-269" font-family="Helvetica,sans-Serif" font-size="10.00">om/taker.hpp</text>
</a>
</g>
</g>
<!-- Node2&#45;&gt;Node31 -->
<g id="edge49" class="edge"><title>Node2&#45;&gt;Node31</title>
<path fill="none" stroke="midnightblue" d="M434.152,-332.97C407.056,-321.234 359.536,-300.652 328.416,-287.174"/>
<polygon fill="midnightblue" stroke="midnightblue" points="329.502,-283.83 318.935,-283.067 326.72,-290.253 329.502,-283.83"/>
</g>
<!-- Node33 -->
<g id="node33" class="node"><title>Node33</title>
<g id="a_node33"><a xlink:href="default__program_8cpp.html" target="_top" xlink:title="Om source file.">
<polygon fill="none" stroke="black" points="392.803,-263 392.803,-283 517.197,-283 517.197,-263 392.803,-263"/>
<text text-anchor="middle" x="455" y="-269" font-family="Helvetica,sans-Serif" font-size="10.00">om/default_program.cpp</text>
</a>
</g>
</g>
<!-- Node2&#45;&gt;Node33 -->
<g id="edge52" class="edge"><title>Node2&#45;&gt;Node33</title>
<path fill="none" stroke="midnightblue" d="M450.211,-332.829C448.181,-322.735 447.727,-306.222 448.849,-293.256"/>
<polygon fill="midnightblue" stroke="midnightblue" points="452.361,-293.406 450.241,-283.025 445.425,-292.462 452.361,-293.406"/>
</g>
<!-- Node4 -->
<g id="node4" class="node"><title>Node4</title>
<g id="a_node4"><a xlink:href="consumer_8hpp.html" target="_top" xlink:title="Om header file.">
<polygon fill="none" stroke="black" points="148.254,-193 148.254,-213 243.746,-213 243.746,-193 148.254,-193"/>
<text text-anchor="middle" x="196" y="-199" font-family="Helvetica,sans-Serif" font-size="10.00">om/consumer.hpp</text>
</a>
</g>
</g>
<!-- Node3&#45;&gt;Node4 -->
<g id="edge3" class="edge"><title>Node3&#45;&gt;Node4</title>
<path fill="none" stroke="midnightblue" d="M131.98,-262.829C143.963,-251.818 164.26,-233.166 178.789,-219.815"/>
<polygon fill="midnightblue" stroke="midnightblue" points="181.183,-222.369 186.178,-213.025 176.447,-217.215 181.183,-222.369"/>
</g>
<!-- Node6 -->
<g id="node6" class="node"><title>Node6</title>
<g id="a_node6"><a xlink:href="default__consumer_8cpp.html" target="_top" xlink:title="Om source file.">
<polygon fill="none" stroke="black" points="-0.258301,-193 -0.258301,-213 130.258,-213 130.258,-193 -0.258301,-193"/>
<text text-anchor="middle" x="65" y="-199" font-family="Helvetica,sans-Serif" font-size="10.00">om/default_consumer.cpp</text>
</a>
</g>
</g>
<!-- Node3&#45;&gt;Node6 -->
<g id="edge6" class="edge"><title>Node3&#45;&gt;Node6</title>
<path fill="none" stroke="midnightblue" d="M109.524,-262.829C98.5029,-252.225 83.2825,-234.537 73.5492,-221.32"/>
<polygon fill="midnightblue" stroke="midnightblue" points="76.3765,-219.255 67.8064,-213.025 70.6214,-223.24 76.3765,-219.255"/>
</g>
<!-- Node5 -->
<g id="node5" class="node"><title>Node5</title>
<g id="a_node5"><a xlink:href="consumer_8cpp.html" target="_top" xlink:title="Om source file.">
<polygon fill="none" stroke="black" points="148.535,-123 148.535,-143 243.465,-143 243.465,-123 148.535,-123"/>
<text text-anchor="middle" x="196" y="-129" font-family="Helvetica,sans-Serif" font-size="10.00">om/consumer.cpp</text>
</a>
</g>
</g>
<!-- Node4&#45;&gt;Node5 -->
<g id="edge4" class="edge"><title>Node4&#45;&gt;Node5</title>
<path fill="none" stroke="midnightblue" d="M191.211,-192.829C189.181,-182.735 188.727,-166.222 189.849,-153.256"/>
<polygon fill="midnightblue" stroke="midnightblue" points="193.361,-153.406 191.241,-143.025 186.425,-152.462 193.361,-153.406"/>
</g>
<!-- Node5&#45;&gt;Node4 -->
<g id="edge5" class="edge"><title>Node5&#45;&gt;Node4</title>
<path fill="none" stroke="midnightblue" d="M200.759,-143.025C202.805,-153.057 203.274,-169.557 202.167,-182.557"/>
<polygon fill="midnightblue" stroke="midnightblue" points="198.65,-182.453 200.789,-192.829 205.588,-183.384 198.65,-182.453"/>
</g>
<!-- Node6&#45;&gt;Node3 -->
<g id="edge7" class="edge"><title>Node6&#45;&gt;Node3</title>
<path fill="none" stroke="midnightblue" d="M77.3246,-213.025C88.3072,-223.564 103.533,-241.24 113.317,-254.498"/>
<polygon fill="midnightblue" stroke="midnightblue" points="110.523,-256.611 119.101,-262.829 116.273,-252.619 110.523,-256.611"/>
</g>
<!-- Node8 -->
<g id="node8" class="node"><title>Node8</title>
<g id="a_node8"><a xlink:href="default__copyable_8hpp.html" target="_top" xlink:title="Om header file.">
<polygon fill="none" stroke="black" points="829.126,-193 829.126,-213 956.874,-213 956.874,-193 829.126,-193"/>
<text text-anchor="middle" x="893" y="-199" font-family="Helvetica,sans-Serif" font-size="10.00">om/default_copyable.hpp</text>
</a>
</g>
</g>
<!-- Node7&#45;&gt;Node8 -->
<g id="edge9" class="edge"><title>Node7&#45;&gt;Node8</title>
<path fill="none" stroke="midnightblue" d="M956.155,-262.829C944.443,-251.92 924.681,-233.511 910.378,-220.187"/>
<polygon fill="midnightblue" stroke="midnightblue" points="912.392,-217.281 902.689,-213.025 907.621,-222.403 912.392,-217.281"/>
</g>
<!-- Node15 -->
<g id="node15" class="node"><title>Node15</title>
<g id="a_node15"><a xlink:href="default__moveable_8hpp.html" target="_top" xlink:title="Om header file.">
<polygon fill="none" stroke="black" points="974.461,-193 974.461,-213 1105.54,-213 1105.54,-193 974.461,-193"/>
<text text-anchor="middle" x="1040" y="-199" font-family="Helvetica,sans-Serif" font-size="10.00">om/default_moveable.hpp</text>
</a>
</g>
</g>
<!-- Node7&#45;&gt;Node15 -->
<g id="edge19" class="edge"><title>Node7&#45;&gt;Node15</title>
<path fill="none" stroke="midnightblue" d="M975.98,-262.829C987.963,-251.818 1008.26,-233.166 1022.79,-219.815"/>
<polygon fill="midnightblue" stroke="midnightblue" points="1025.18,-222.369 1030.18,-213.025 1020.45,-217.215 1025.18,-222.369"/>
</g>
<!-- Node21 -->
<g id="node21" class="node"><title>Node21</title>
<g id="a_node21"><a xlink:href="giveable_8hpp.html" target="_top" xlink:title="Om header file.">
<polygon fill="none" stroke="black" points="695.308,-193 695.308,-213 784.692,-213 784.692,-193 695.308,-193"/>
<text text-anchor="middle" x="740" y="-199" font-family="Helvetica,sans-Serif" font-size="10.00">om/giveable.hpp</text>
</a>
</g>
</g>
<!-- Node7&#45;&gt;Node21 -->
<g id="edge29" class="edge"><title>Node7&#45;&gt;Node21</title>
<path fill="none" stroke="midnightblue" d="M935.989,-262.97C895.803,-250.879 824.408,-229.397 779.777,-215.968"/>
<polygon fill="midnightblue" stroke="midnightblue" points="780.72,-212.597 770.135,-213.067 778.703,-219.3 780.72,-212.597"/>
</g>
<!-- Node23 -->
<g id="node23" class="node"><title>Node23</title>
<g id="a_node23"><a xlink:href="default__giveable_8cpp.html" target="_top" xlink:title="Om source file.">
<polygon fill="none" stroke="black" points="1123.8,-193 1123.8,-213 1248.2,-213 1248.2,-193 1123.8,-193"/>
<text text-anchor="middle" x="1186" y="-199" font-family="Helvetica,sans-Serif" font-size="10.00">om/default_giveable.cpp</text>
</a>
</g>
</g>
<!-- Node7&#45;&gt;Node23 -->
<g id="edge34" class="edge"><title>Node7&#45;&gt;Node23</title>
<path fill="none" stroke="midnightblue" d="M990.454,-262.97C1027.19,-250.853 1096.72,-229.307 1142.28,-215.884"/>
<polygon fill="midnightblue" stroke="midnightblue" points="1143.28,-219.237 1151.9,-213.067 1141.32,-212.519 1143.28,-219.237"/>
</g>
<!-- Node9 -->
<g id="node9" class="node"><title>Node9</title>
<g id="a_node9"><a xlink:href="copyable_8hpp.html" target="_top" xlink:title="Om header file.">
<polygon fill="none" stroke="black" points="712.919,-123 712.919,-143 805.081,-143 805.081,-123 712.919,-123"/>
<text text-anchor="middle" x="759" y="-129" font-family="Helvetica,sans-Serif" font-size="10.00">om/copyable.hpp</text>
</a>
</g>
</g>
<!-- Node8&#45;&gt;Node9 -->
<g id="edge10" class="edge"><title>Node8&#45;&gt;Node9</title>
<path fill="none" stroke="midnightblue" d="M875.206,-192.97C852.38,-181.387 812.572,-161.186 786.002,-147.702"/>
<polygon fill="midnightblue" stroke="midnightblue" points="787.369,-144.471 776.868,-143.067 784.201,-150.714 787.369,-144.471"/>
</g>
<!-- Node14 -->
<g id="node14" class="node"><title>Node14</title>
<g id="a_node14"><a xlink:href="default__copyable_8cpp.html" target="_top" xlink:title="Om source file.">
<polygon fill="none" stroke="black" points="936.407,-123 936.407,-143 1063.59,-143 1063.59,-123 936.407,-123"/>
<text text-anchor="middle" x="1000" y="-129" font-family="Helvetica,sans-Serif" font-size="10.00">om/default_copyable.cpp</text>
</a>
</g>
</g>
<!-- Node8&#45;&gt;Node14 -->
<g id="edge17" class="edge"><title>Node8&#45;&gt;Node14</title>
<path fill="none" stroke="midnightblue" d="M902.642,-192.829C918.384,-181.359 949.205,-161.598 972.092,-148.175"/>
<polygon fill="midnightblue" stroke="midnightblue" points="974.118,-151.047 981.039,-143.025 970.626,-144.98 974.118,-151.047"/>
</g>
<!-- Node10 -->
<g id="node10" class="node"><title>Node10</title>
<g id="a_node10"><a xlink:href="copy_8hpp.html" target="_top" xlink:title="Om header file.">
<polygon fill="none" stroke="black" points="722.741,-59 722.741,-79 795.259,-79 795.259,-59 722.741,-59"/>
<text text-anchor="middle" x="759" y="-65" font-family="Helvetica,sans-Serif" font-size="10.00">om/copy.hpp</text>
</a>
</g>
</g>
<!-- Node9&#45;&gt;Node10 -->
<g id="edge11" class="edge"><title>Node9&#45;&gt;Node10</title>
<path fill="none" stroke="midnightblue" d="M759,-122.852C759,-114.06 759,-100.498 759,-89.3131"/>
<polygon fill="midnightblue" stroke="midnightblue" points="762.5,-89.1858 759,-79.1858 755.5,-89.1859 762.5,-89.1858"/>
</g>
<!-- Node13 -->
<g id="node13" class="node"><title>Node13</title>
<g id="a_node13"><a xlink:href="copyable_8cpp.html" target="_top" xlink:title="Om source file.">
<polygon fill="none" stroke="black" points="613.2,-59 613.2,-79 704.8,-79 704.8,-59 613.2,-59"/>
<text text-anchor="middle" x="659" y="-65" font-family="Helvetica,sans-Serif" font-size="10.00">om/copyable.cpp</text>
</a>
</g>
</g>
<!-- Node9&#45;&gt;Node13 -->
<g id="edge15" class="edge"><title>Node9&#45;&gt;Node13</title>
<path fill="none" stroke="midnightblue" d="M739.289,-122.852C721.154,-112.87 694.829,-96.7371 677.194,-84.9179"/>
<polygon fill="midnightblue" stroke="midnightblue" points="679.077,-81.9651 668.853,-79.1858 675.112,-87.7341 679.077,-81.9651"/>
</g>
<!-- Node11 -->
<g id="node11" class="node"><title>Node11</title>
<polygon fill="none" stroke="#bfbfbf" points="743.943,-1 743.943,-21 796.057,-21 796.057,-1 743.943,-1"/>
<text text-anchor="middle" x="770" y="-7" font-family="Helvetica,sans-Serif" font-size="10.00">memory</text>
</g>
<!-- Node10&#45;&gt;Node11 -->
<g id="edge12" class="edge"><title>Node10&#45;&gt;Node11</title>
<path fill="none" stroke="midnightblue" d="M760.816,-58.7527C762.29,-51.2504 764.417,-40.4238 766.253,-31.0781"/>
<polygon fill="midnightblue" stroke="midnightblue" points="769.724,-31.5623 768.217,-21.0752 762.855,-30.213 769.724,-31.5623"/>
</g>
<!-- Node12 -->
<g id="node12" class="node"><title>Node12</title>
<g id="a_node12"><a xlink:href="copy_8cpp.html" target="_top" xlink:title="Om source file.">
<polygon fill="none" stroke="black" points="654.021,-1 654.021,-21 725.979,-21 725.979,-1 654.021,-1"/>
<text text-anchor="middle" x="690" y="-7" font-family="Helvetica,sans-Serif" font-size="10.00">om/copy.cpp</text>
</a>
</g>
</g>
<!-- Node10&#45;&gt;Node12 -->
<g id="edge13" class="edge"><title>Node10&#45;&gt;Node12</title>
<path fill="none" stroke="midnightblue" d="M742.44,-58.7527C730.499,-50.4349 714.879,-38.031 703.649,-28.0893"/>
<polygon fill="midnightblue" stroke="midnightblue" points="705.773,-25.2863 696.051,-21.0752 701.025,-30.4299 705.773,-25.2863"/>
</g>
<!-- Node12&#45;&gt;Node10 -->
<g id="edge14" class="edge"><title>Node12&#45;&gt;Node10</title>
<path fill="none" stroke="midnightblue" d="M706.313,-21.0752C718.202,-29.3361 733.827,-41.7286 745.117,-51.704"/>
<polygon fill="midnightblue" stroke="midnightblue" points="743.045,-54.554 752.772,-58.7527 747.787,-49.4044 743.045,-54.554"/>
</g>
<!-- Node13&#45;&gt;Node9 -->
<g id="edge16" class="edge"><title>Node13&#45;&gt;Node9</title>
<path fill="none" stroke="midnightblue" d="M678.779,-79.1858C696.935,-89.1834 723.259,-105.318 740.872,-117.126"/>
<polygon fill="midnightblue" stroke="midnightblue" points="738.977,-120.071 749.2,-122.852 742.942,-114.302 738.977,-120.071"/>
</g>
<!-- Node14&#45;&gt;Node8 -->
<g id="edge18" class="edge"><title>Node14&#45;&gt;Node8</title>
<path fill="none" stroke="midnightblue" d="M990.557,-143.025C974.874,-154.476 943.879,-174.353 920.894,-187.834"/>
<polygon fill="midnightblue" stroke="midnightblue" points="919.138,-184.806 912.219,-192.829 922.632,-190.872 919.138,-184.806"/>
</g>
<!-- Node16 -->
<g id="node16" class="node"><title>Node16</title>
<g id="a_node16"><a xlink:href="moveable_8hpp.html" target="_top" xlink:title="Om header file.">
<polygon fill="none" stroke="black" points="823.254,-123 823.254,-143 918.746,-143 918.746,-123 823.254,-123"/>
<text text-anchor="middle" x="871" y="-129" font-family="Helvetica,sans-Serif" font-size="10.00">om/moveable.hpp</text>
</a>
</g>
</g>
<!-- Node15&#45;&gt;Node16 -->
<g id="edge20" class="edge"><title>Node15&#45;&gt;Node16</title>
<path fill="none" stroke="midnightblue" d="M1017.56,-192.97C988.139,-181.133 936.352,-160.295 902.874,-146.825"/>
<polygon fill="midnightblue" stroke="midnightblue" points="904.118,-143.553 893.535,-143.067 901.505,-150.047 904.118,-143.553"/>
</g>
<!-- Node20 -->
<g id="node20" class="node"><title>Node20</title>
<g id="a_node20"><a xlink:href="default__moveable_8cpp.html" target="_top" xlink:title="Om source file.">
<polygon fill="none" stroke="black" points="1081.74,-123 1081.74,-143 1212.26,-143 1212.26,-123 1081.74,-123"/>
<text text-anchor="middle" x="1147" y="-129" font-family="Helvetica,sans-Serif" font-size="10.00">om/default_moveable.cpp</text>
</a>
</g>
</g>
<!-- Node15&#45;&gt;Node20 -->
<g id="edge27" class="edge"><title>Node15&#45;&gt;Node20</title>
<path fill="none" stroke="midnightblue" d="M1049.64,-192.829C1065.38,-181.359 1096.21,-161.598 1119.09,-148.175"/>
<polygon fill="midnightblue" stroke="midnightblue" points="1121.12,-151.047 1128.04,-143.025 1117.63,-144.98 1121.12,-151.047"/>
</g>
<!-- Node17 -->
<g id="node17" class="node"><title>Node17</title>
<g id="a_node17"><a xlink:href="move_8hpp.html" target="_top" xlink:title="Om header file.">
<polygon fill="none" stroke="black" points="813.707,-59 813.707,-79 890.293,-79 890.293,-59 813.707,-59"/>
<text text-anchor="middle" x="852" y="-65" font-family="Helvetica,sans-Serif" font-size="10.00">om/move.hpp</text>
</a>
</g>
</g>
<!-- Node16&#45;&gt;Node17 -->
<g id="edge21" class="edge"><title>Node16&#45;&gt;Node17</title>
<path fill="none" stroke="midnightblue" d="M868.196,-122.852C865.474,-113.969 861.259,-100.215 857.812,-88.9644"/>
<polygon fill="midnightblue" stroke="midnightblue" points="861.091,-87.7214 854.815,-79.1858 854.399,-89.7725 861.091,-87.7214"/>
</g>
<!-- Node19 -->
<g id="node19" class="node"><title>Node19</title>
<g id="a_node19"><a xlink:href="moveable_8cpp.html" target="_top" xlink:title="Om source file.">
<polygon fill="none" stroke="black" points="908.535,-59 908.535,-79 1003.47,-79 1003.47,-59 908.535,-59"/>
<text text-anchor="middle" x="956" y="-65" font-family="Helvetica,sans-Serif" font-size="10.00">om/moveable.cpp</text>
</a>
</g>
</g>
<!-- Node16&#45;&gt;Node19 -->
<g id="edge25" class="edge"><title>Node16&#45;&gt;Node19</title>
<path fill="none" stroke="midnightblue" d="M878.587,-122.852C890.236,-112.87 912.049,-96.7371 929.681,-84.9179"/>
<polygon fill="midnightblue" stroke="midnightblue" points="931.991,-87.5891 938.443,-79.1858 928.159,-81.7311 931.991,-87.5891"/>
</g>
<!-- Node17&#45;&gt;Node11 -->
<g id="edge22" class="edge"><title>Node17&#45;&gt;Node11</title>
<path fill="none" stroke="midnightblue" d="M838.459,-58.7527C825.802,-50.1087 806.683,-37.0518 791.864,-26.9314"/>
<polygon fill="midnightblue" stroke="midnightblue" points="793.521,-23.8245 783.289,-21.0752 789.573,-29.6052 793.521,-23.8245"/>
</g>
<!-- Node18 -->
<g id="node18" class="node"><title>Node18</title>
<g id="a_node18"><a xlink:href="move_8cpp.html" target="_top" xlink:title="Om source file.">
<polygon fill="none" stroke="black" points="813.988,-1 813.988,-21 890.012,-21 890.012,-1 813.988,-1"/>
<text text-anchor="middle" x="852" y="-7" font-family="Helvetica,sans-Serif" font-size="10.00">om/move.cpp</text>
</a>
</g>
</g>
<!-- Node17&#45;&gt;Node18 -->
<g id="edge23" class="edge"><title>Node17&#45;&gt;Node18</title>
<path fill="none" stroke="midnightblue" d="M846.834,-58.7527C845.308,-51.2504 844.884,-40.4238 845.564,-31.0781"/>
<polygon fill="midnightblue" stroke="midnightblue" points="849.046,-31.4439 846.869,-21.0752 842.105,-30.5385 849.046,-31.4439"/>
</g>
<!-- Node18&#45;&gt;Node17 -->
<g id="edge24" class="edge"><title>Node18&#45;&gt;Node17</title>
<path fill="none" stroke="midnightblue" d="M857.131,-21.0752C858.674,-28.5262 859.114,-39.3384 858.451,-48.7065"/>
<polygon fill="midnightblue" stroke="midnightblue" points="854.963,-48.3895 857.166,-58.7527 861.907,-49.2776 854.963,-48.3895"/>
</g>
<!-- Node19&#45;&gt;Node16 -->
<g id="edge26" class="edge"><title>Node19&#45;&gt;Node16</title>
<path fill="none" stroke="midnightblue" d="M948.37,-79.1858C936.694,-89.1834 914.874,-105.318 897.253,-117.126"/>
<polygon fill="midnightblue" stroke="midnightblue" points="894.952,-114.45 888.497,-122.852 898.782,-120.308 894.952,-114.45"/>
</g>
<!-- Node20&#45;&gt;Node15 -->
<g id="edge28" class="edge"><title>Node20&#45;&gt;Node15</title>
<path fill="none" stroke="midnightblue" d="M1137.56,-143.025C1121.87,-154.476 1090.88,-174.353 1067.89,-187.834"/>
<polygon fill="midnightblue" stroke="midnightblue" points="1066.14,-184.806 1059.22,-192.829 1069.63,-190.872 1066.14,-184.806"/>
</g>
<!-- Node21&#45;&gt;Node9 -->
<g id="edge30" class="edge"><title>Node21&#45;&gt;Node9</title>
<path fill="none" stroke="midnightblue" d="M742.562,-192.829C745.411,-182.633 750.09,-165.887 753.729,-152.864"/>
<polygon fill="midnightblue" stroke="midnightblue" points="757.158,-153.598 756.478,-143.025 750.416,-151.715 757.158,-153.598"/>
</g>
<!-- Node21&#45;&gt;Node16 -->
<g id="edge31" class="edge"><title>Node21&#45;&gt;Node16</title>
<path fill="none" stroke="midnightblue" d="M757.396,-192.97C779.711,-181.387 818.628,-161.186 844.603,-147.702"/>
<polygon fill="midnightblue" stroke="midnightblue" points="846.269,-150.781 853.532,-143.067 843.044,-144.568 846.269,-150.781"/>
</g>
<!-- Node22 -->
<g id="node22" class="node"><title>Node22</title>
<g id="a_node22"><a xlink:href="giveable_8cpp.html" target="_top" xlink:title="Om source file.">
<polygon fill="none" stroke="black" points="606.589,-123 606.589,-143 695.411,-143 695.411,-123 606.589,-123"/>
<text text-anchor="middle" x="651" y="-129" font-family="Helvetica,sans-Serif" font-size="10.00">om/giveable.cpp</text>
</a>
</g>
</g>
<!-- Node21&#45;&gt;Node22 -->
<g id="edge32" class="edge"><title>Node21&#45;&gt;Node22</title>
<path fill="none" stroke="midnightblue" d="M723.209,-192.829C706.581,-181.818 681.831,-163.166 665.893,-149.815"/>
<polygon fill="midnightblue" stroke="midnightblue" points="667.904,-146.926 658.054,-143.025 663.322,-152.218 667.904,-146.926"/>
</g>
<!-- Node22&#45;&gt;Node21 -->
<g id="edge33" class="edge"><title>Node22&#45;&gt;Node21</title>
<path fill="none" stroke="midnightblue" d="M667.572,-143.025C684.127,-153.969 708.88,-172.61 724.895,-186.008"/>
<polygon fill="midnightblue" stroke="midnightblue" points="722.932,-188.937 732.786,-192.829 727.51,-183.641 722.932,-188.937"/>
</g>
<!-- Node23&#45;&gt;Node7 -->
<g id="edge35" class="edge"><title>Node23&#45;&gt;Node7</title>
<path fill="none" stroke="midnightblue" d="M1161.43,-213.067C1124.63,-225.203 1055.09,-246.751 1009.58,-260.158"/>
<polygon fill="midnightblue" stroke="midnightblue" points="1008.59,-256.801 999.974,-262.97 1010.55,-263.519 1008.59,-256.801"/>
</g>
<!-- Node24&#45;&gt;Node4 -->
<g id="edge37" class="edge"><title>Node24&#45;&gt;Node4</title>
<path fill="none" stroke="midnightblue" d="M552.466,-262.932C544.043,-260.405 534.704,-257.849 526,-256 405.857,-230.474 372.266,-244.939 252,-220 246.228,-218.803 240.181,-217.322 234.284,-215.747"/>
<polygon fill="midnightblue" stroke="midnightblue" points="235.147,-212.354 224.574,-213.044 233.269,-219.098 235.147,-212.354"/>
</g>
<!-- Node24&#45;&gt;Node21 -->
<g id="edge38" class="edge"><title>Node24&#45;&gt;Node21</title>
<path fill="none" stroke="midnightblue" d="M601.247,-262.97C628.98,-251.183 677.708,-230.474 709.414,-216.999"/>
<polygon fill="midnightblue" stroke="midnightblue" points="710.831,-220.2 718.665,-213.067 708.093,-213.758 710.831,-220.2"/>
</g>
<!-- Node25 -->
<g id="node25" class="node"><title>Node25</title>
<g id="a_node25"><a xlink:href="producer_8hpp.html" target="_top" xlink:title="Om header file.">
<polygon fill="none" stroke="black" points="352.473,-193 352.473,-213 443.527,-213 443.527,-193 352.473,-193"/>
<text text-anchor="middle" x="398" y="-199" font-family="Helvetica,sans-Serif" font-size="10.00">om/producer.hpp</text>
</a>
</g>
</g>
<!-- Node24&#45;&gt;Node25 -->
<g id="edge39" class="edge"><title>Node24&#45;&gt;Node25</title>
<path fill="none" stroke="midnightblue" d="M555.832,-262.97C524.013,-251.082 467.9,-230.116 431.863,-216.652"/>
<polygon fill="midnightblue" stroke="midnightblue" points="432.861,-213.289 422.268,-213.067 430.411,-219.846 432.861,-213.289"/>
</g>
<!-- Node27 -->
<g id="node27" class="node"><title>Node27</title>
<g id="a_node27"><a xlink:href="shareable_8hpp.html" target="_top" xlink:title="Om header file.">
<polygon fill="none" stroke="black" points="461.973,-193 461.973,-213 558.027,-213 558.027,-193 461.973,-193"/>
<text text-anchor="middle" x="510" y="-199" font-family="Helvetica,sans-Serif" font-size="10.00">om/shareable.hpp</text>
</a>
</g>
</g>
<!-- Node24&#45;&gt;Node27 -->
<g id="edge43" class="edge"><title>Node24&#45;&gt;Node27</title>
<path fill="none" stroke="midnightblue" d="M570.559,-262.829C559.329,-251.92 540.379,-233.511 526.663,-220.187"/>
<polygon fill="midnightblue" stroke="midnightblue" points="528.903,-217.483 519.291,-213.025 524.025,-222.504 528.903,-217.483"/>
</g>
<!-- Node30 -->
<g id="node30" class="node"><title>Node30</title>
<g id="a_node30"><a xlink:href="program_8cpp.html" target="_top" xlink:title="Om source file.">
<polygon fill="none" stroke="black" points="575.596,-193 575.596,-213 664.404,-213 664.404,-193 575.596,-193"/>
<text text-anchor="middle" x="620" y="-199" font-family="Helvetica,sans-Serif" font-size="10.00">om/program.cpp</text>
</a>
</g>
</g>
<!-- Node24&#45;&gt;Node30 -->
<g id="edge47" class="edge"><title>Node24&#45;&gt;Node30</title>
<path fill="none" stroke="midnightblue" d="M580.606,-262.829C584.711,-252.225 594.722,-234.537 603.843,-221.32"/>
<polygon fill="midnightblue" stroke="midnightblue" points="606.836,-223.158 609.932,-213.025 601.193,-219.015 606.836,-223.158"/>
</g>
<!-- Node25&#45;&gt;Node11 -->
<g id="edge40" class="edge"><title>Node25&#45;&gt;Node11</title>
<path fill="none" stroke="midnightblue" d="M397.256,-192.884C396.367,-175.57 397.02,-137.718 417,-116 516.494,-7.85157 592.393,-61.2748 734,-22 734.098,-21.9729 734.195,-21.9458 734.293,-21.9186"/>
<polygon fill="midnightblue" stroke="midnightblue" points="734.955,-25.3675 743.655,-19.3208 733.083,-18.6224 734.955,-25.3675"/>
</g>
<!-- Node26 -->
<g id="node26" class="node"><title>Node26</title>
<g id="a_node26"><a xlink:href="producer_8cpp.html" target="_top" xlink:title="Om source file.">
<polygon fill="none" stroke="black" points="279.754,-123 279.754,-143 370.246,-143 370.246,-123 279.754,-123"/>
<text text-anchor="middle" x="325" y="-129" font-family="Helvetica,sans-Serif" font-size="10.00">om/producer.cpp</text>
</a>
</g>
</g>
<!-- Node25&#45;&gt;Node26 -->
<g id="edge41" class="edge"><title>Node25&#45;&gt;Node26</title>
<path fill="none" stroke="midnightblue" d="M383.366,-192.829C369.59,-182.022 349.72,-163.854 336.891,-150.562"/>
<polygon fill="midnightblue" stroke="midnightblue" points="339.286,-147.997 329.93,-143.025 334.144,-152.746 339.286,-147.997"/>
</g>
<!-- Node26&#45;&gt;Node25 -->
<g id="edge42" class="edge"><title>Node26&#45;&gt;Node25</title>
<path fill="none" stroke="midnightblue" d="M339.448,-143.025C353.169,-153.767 373.043,-171.923 385.936,-185.258"/>
<polygon fill="midnightblue" stroke="midnightblue" points="383.582,-187.868 392.943,-192.829 388.719,-183.113 383.582,-187.868"/>
</g>
<!-- Node28 -->
<g id="node28" class="node"><title>Node28</title>
<polygon fill="none" stroke="#bfbfbf" points="539.879,-123 539.879,-143 588.121,-143 588.121,-123 539.879,-123"/>
<text text-anchor="middle" x="564" y="-129" font-family="Helvetica,sans-Serif" font-size="10.00">cstddef</text>
</g>
<!-- Node27&#45;&gt;Node28 -->
<g id="edge44" class="edge"><title>Node27&#45;&gt;Node28</title>
<path fill="none" stroke="midnightblue" d="M517.283,-192.829C525.784,-182.124 540.021,-164.196 550.548,-150.94"/>
<polygon fill="midnightblue" stroke="midnightblue" points="553.355,-153.033 556.833,-143.025 547.873,-148.68 553.355,-153.033"/>
</g>
<!-- Node29 -->
<g id="node29" class="node"><title>Node29</title>
<g id="a_node29"><a xlink:href="shareable_8cpp.html" target="_top" xlink:title="Om source file.">
<polygon fill="none" stroke="black" points="426.254,-123 426.254,-143 521.746,-143 521.746,-123 426.254,-123"/>
<text text-anchor="middle" x="474" y="-129" font-family="Helvetica,sans-Serif" font-size="10.00">om/shareable.cpp</text>
</a>
</g>
</g>
<!-- Node27&#45;&gt;Node29 -->
<g id="edge45" class="edge"><title>Node27&#45;&gt;Node29</title>
<path fill="none" stroke="midnightblue" d="M500.356,-192.829C492.833,-182.531 483.413,-165.552 477.7,-152.474"/>
<polygon fill="midnightblue" stroke="midnightblue" points="480.91,-151.073 474.019,-143.025 474.387,-153.614 480.91,-151.073"/>
</g>
<!-- Node29&#45;&gt;Node27 -->
<g id="edge46" class="edge"><title>Node29&#45;&gt;Node27</title>
<path fill="none" stroke="midnightblue" d="M483.537,-143.025C491.042,-153.26 500.471,-170.226 506.219,-183.34"/>
<polygon fill="midnightblue" stroke="midnightblue" points="503.029,-184.793 509.933,-192.829 509.548,-182.241 503.029,-184.793"/>
</g>
<!-- Node30&#45;&gt;Node24 -->
<g id="edge48" class="edge"><title>Node30&#45;&gt;Node24</title>
<path fill="none" stroke="midnightblue" d="M619.45,-213.025C615.4,-223.564 605.411,-241.24 596.282,-254.498"/>
<polygon fill="midnightblue" stroke="midnightblue" points="593.266,-252.693 590.183,-262.829 598.914,-256.828 593.266,-252.693"/>
</g>
<!-- Node32 -->
<g id="node32" class="node"><title>Node32</title>
<g id="a_node32"><a xlink:href="taker_8cpp.html" target="_top" xlink:title="Om source file.">
<polygon fill="none" stroke="black" points="261.372,-193 261.372,-213 334.628,-213 334.628,-193 261.372,-193"/>
<text text-anchor="middle" x="298" y="-199" font-family="Helvetica,sans-Serif" font-size="10.00">om/taker.cpp</text>
</a>
</g>
</g>
<!-- Node31&#45;&gt;Node32 -->
<g id="edge50" class="edge"><title>Node31&#45;&gt;Node32</title>
<path fill="none" stroke="midnightblue" d="M293.211,-262.829C291.181,-252.735 290.727,-236.222 291.849,-223.256"/>
<polygon fill="midnightblue" stroke="midnightblue" points="295.361,-223.406 293.241,-213.025 288.425,-222.462 295.361,-223.406"/>
</g>
<!-- Node32&#45;&gt;Node31 -->
<g id="edge51" class="edge"><title>Node32&#45;&gt;Node31</title>
<path fill="none" stroke="midnightblue" d="M302.759,-213.025C304.805,-223.057 305.274,-239.557 304.167,-252.557"/>
<polygon fill="midnightblue" stroke="midnightblue" points="300.65,-252.453 302.789,-262.829 307.588,-253.384 300.65,-252.453"/>
</g>
<!-- Node33&#45;&gt;Node2 -->
<g id="edge53" class="edge"><title>Node33&#45;&gt;Node2</title>
<path fill="none" stroke="midnightblue" d="M459.759,-283.025C461.805,-293.057 462.274,-309.557 461.167,-322.557"/>
<polygon fill="midnightblue" stroke="midnightblue" points="457.65,-322.453 459.789,-332.829 464.588,-323.384 457.65,-322.453"/>
</g>
<!-- Node35 -->
<g id="node35" class="node"><title>Node35</title>
<g id="a_node35"><a xlink:href="iterator__pair__source_8hpp.html" target="_top" xlink:title="Om header file.">
<polygon fill="none" stroke="black" points="1375.21,-257 1375.21,-289 1476.79,-289 1476.79,-257 1375.21,-257"/>
<text text-anchor="start" x="1383.21" y="-275" font-family="Helvetica,sans-Serif" font-size="10.00">om/sources/iterator</text>
<text text-anchor="middle" x="1426" y="-263" font-family="Helvetica,sans-Serif" font-size="10.00">_pair_source.hpp</text>
</a>
</g>
</g>
<!-- Node34&#45;&gt;Node35 -->
<g id="edge55" class="edge"><title>Node34&#45;&gt;Node35</title>
<path fill="none" stroke="midnightblue" d="M1256.89,-326.993C1289.75,-316.697 1333.52,-302.979 1368.3,-292.08"/>
<polygon fill="midnightblue" stroke="midnightblue" points="1369.36,-295.416 1377.86,-289.086 1367.27,-288.737 1369.36,-295.416"/>
</g>
<!-- Node41 -->
<g id="node41" class="node"><title>Node41</title>
<g id="a_node41"><a xlink:href="collection__front__source_8cpp.html" target="_top" xlink:title="Om source file.">
<polygon fill="none" stroke="black" points="1152.92,-257 1152.92,-289 1265.08,-289 1265.08,-257 1152.92,-257"/>
<text text-anchor="start" x="1160.92" y="-275" font-family="Helvetica,sans-Serif" font-size="10.00">om/sources/collection</text>
<text text-anchor="middle" x="1209" y="-263" font-family="Helvetica,sans-Serif" font-size="10.00">_front_source.cpp</text>
</a>
</g>
</g>
<!-- Node34&#45;&gt;Node41 -->
<g id="edge64" class="edge"><title>Node34&#45;&gt;Node41</title>
<path fill="none" stroke="midnightblue" d="M1203.28,-326.909C1202.28,-318.721 1202.01,-308.389 1202.46,-299.032"/>
<polygon fill="midnightblue" stroke="midnightblue" points="1205.95,-299.303 1203.29,-289.049 1198.98,-298.728 1205.95,-299.303"/>
</g>
<!-- Node36 -->
<g id="node36" class="node"><title>Node36</title>
<g id="a_node36"><a xlink:href="default__source_8hpp.html" target="_top" xlink:title="Om header file.">
<polygon fill="none" stroke="black" points="1316.76,-187 1316.76,-219 1417.24,-219 1417.24,-187 1316.76,-187"/>
<text text-anchor="start" x="1324.76" y="-205" font-family="Helvetica,sans-Serif" font-size="10.00">om/sources/default</text>
<text text-anchor="middle" x="1367" y="-193" font-family="Helvetica,sans-Serif" font-size="10.00">_source.hpp</text>
</a>
</g>
</g>
<!-- Node35&#45;&gt;Node36 -->
<g id="edge56" class="edge"><title>Node35&#45;&gt;Node36</title>
<path fill="none" stroke="midnightblue" d="M1412.91,-256.909C1405.19,-248.017 1395.28,-236.595 1386.64,-226.641"/>
<polygon fill="midnightblue" stroke="midnightblue" points="1389.25,-224.309 1380.06,-219.049 1383.97,-228.896 1389.25,-224.309"/>
</g>
<!-- Node40 -->
<g id="node40" class="node"><title>Node40</title>
<g id="a_node40"><a xlink:href="iterator__pair__source_8cpp.html" target="_top" xlink:title="Om source file.">
<polygon fill="none" stroke="black" points="1435.21,-187 1435.21,-219 1536.79,-219 1536.79,-187 1435.21,-187"/>
<text text-anchor="start" x="1443.21" y="-205" font-family="Helvetica,sans-Serif" font-size="10.00">om/sources/iterator</text>
<text text-anchor="middle" x="1486" y="-193" font-family="Helvetica,sans-Serif" font-size="10.00">_pair_source.cpp</text>
</a>
</g>
</g>
<!-- Node35&#45;&gt;Node40 -->
<g id="edge62" class="edge"><title>Node35&#45;&gt;Node40</title>
<path fill="none" stroke="midnightblue" d="M1433.6,-256.909C1440.42,-247.929 1450.4,-236.369 1459.9,-226.346"/>
<polygon fill="midnightblue" stroke="midnightblue" points="1462.54,-228.655 1467.01,-219.049 1457.52,-223.77 1462.54,-228.655"/>
</g>
<!-- Node37 -->
<g id="node37" class="node"><title>Node37</title>
<g id="a_node37"><a xlink:href="source_8hpp.html" target="_top" xlink:title="Om header file.">
<polygon fill="none" stroke="black" points="1229.93,-123 1229.93,-143 1312.07,-143 1312.07,-123 1229.93,-123"/>
<text text-anchor="middle" x="1271" y="-129" font-family="Helvetica,sans-Serif" font-size="10.00">om/source.hpp</text>
</a>
</g>
</g>
<!-- Node36&#45;&gt;Node37 -->
<g id="edge57" class="edge"><title>Node36&#45;&gt;Node37</title>
<path fill="none" stroke="midnightblue" d="M1345.69,-186.909C1329.66,-175.552 1307.8,-160.068 1291.87,-148.786"/>
<polygon fill="midnightblue" stroke="midnightblue" points="1293.89,-145.928 1283.71,-143.004 1289.85,-151.64 1293.89,-145.928"/>
</g>
<!-- Node39 -->
<g id="node39" class="node"><title>Node39</title>
<g id="a_node39"><a xlink:href="default__source_8cpp.html" target="_top" xlink:title="Om source file.">
<polygon fill="none" stroke="black" points="1329.76,-117 1329.76,-149 1430.24,-149 1430.24,-117 1329.76,-117"/>
<text text-anchor="start" x="1337.76" y="-135" font-family="Helvetica,sans-Serif" font-size="10.00">om/sources/default</text>
<text text-anchor="middle" x="1380" y="-123" font-family="Helvetica,sans-Serif" font-size="10.00">_source.cpp</text>
</a>
</g>
</g>
<!-- Node36&#45;&gt;Node39 -->
<g id="edge60" class="edge"><title>Node36&#45;&gt;Node39</title>
<path fill="none" stroke="midnightblue" d="M1364.17,-186.909C1364.74,-178.633 1366.47,-168.166 1368.75,-158.731"/>
<polygon fill="midnightblue" stroke="midnightblue" points="1372.14,-159.619 1371.41,-149.049 1365.39,-157.766 1372.14,-159.619"/>
</g>
<!-- Node38 -->
<g id="node38" class="node"><title>Node38</title>
<g id="a_node38"><a xlink:href="source_8cpp.html" target="_top" xlink:title="Om source file.">
<polygon fill="none" stroke="black" points="1230.21,-59 1230.21,-79 1311.79,-79 1311.79,-59 1230.21,-59"/>
<text text-anchor="middle" x="1271" y="-65" font-family="Helvetica,sans-Serif" font-size="10.00">om/source.cpp</text>
</a>
</g>
</g>
<!-- Node37&#45;&gt;Node38 -->
<g id="edge58" class="edge"><title>Node37&#45;&gt;Node38</title>
<path fill="none" stroke="midnightblue" d="M1266.04,-122.852C1264.25,-114.06 1263.8,-100.498 1264.7,-89.3131"/>
<polygon fill="midnightblue" stroke="midnightblue" points="1268.19,-89.5588 1266.04,-79.1858 1261.25,-88.6398 1268.19,-89.5588"/>
</g>
<!-- Node38&#45;&gt;Node37 -->
<g id="edge59" class="edge"><title>Node38&#45;&gt;Node37</title>
<path fill="none" stroke="midnightblue" d="M1275.96,-79.1858C1277.75,-87.991 1278.2,-101.557 1277.3,-112.735"/>
<polygon fill="midnightblue" stroke="midnightblue" points="1273.8,-112.478 1275.96,-122.852 1280.74,-113.4 1273.8,-112.478"/>
</g>
<!-- Node39&#45;&gt;Node36 -->
<g id="edge61" class="edge"><title>Node39&#45;&gt;Node36</title>
<path fill="none" stroke="midnightblue" d="M1382.84,-149.049C1382.27,-157.317 1380.54,-167.782 1378.26,-177.221"/>
<polygon fill="midnightblue" stroke="midnightblue" points="1374.87,-176.339 1375.61,-186.909 1381.63,-178.19 1374.87,-176.339"/>
</g>
<!-- Node40&#45;&gt;Node35 -->
<g id="edge63" class="edge"><title>Node40&#45;&gt;Node35</title>
<path fill="none" stroke="midnightblue" d="M1478.44,-219.049C1471.62,-228.021 1461.64,-239.579 1452.15,-249.607"/>
<polygon fill="midnightblue" stroke="midnightblue" points="1449.5,-247.302 1445.04,-256.909 1454.52,-252.186 1449.5,-247.302"/>
</g>
<!-- Node41&#45;&gt;Node34 -->
<g id="edge65" class="edge"><title>Node41&#45;&gt;Node34</title>
<path fill="none" stroke="midnightblue" d="M1214.71,-289.049C1215.72,-297.229 1215.99,-307.56 1215.54,-316.92"/>
<polygon fill="midnightblue" stroke="midnightblue" points="1212.05,-316.656 1214.72,-326.909 1219.03,-317.228 1212.05,-316.656"/>
</g>
<!-- Node44&#45;&gt;Node1 -->
<g id="edge69" class="edge"><title>Node44&#45;&gt;Node1</title>
<path fill="none" stroke="midnightblue" d="M1527.36,-353.026C1502.92,-363.684 1458.65,-381.473 1426.89,-393.464"/>
<polygon fill="midnightblue" stroke="midnightblue" points="1425.61,-390.205 1417.47,-396.985 1428.06,-396.762 1425.61,-390.205"/>
</g>
</g>
</svg>
