<?xml version="1.0" encoding="UTF-8" standalone="no"?>
<!DOCTYPE svg PUBLIC "-//W3C//DTD SVG 1.1//EN"
 "http://www.w3.org/Graphics/SVG/1.1/DTD/svg11.dtd">
<!-- Generated by graphviz version 2.28.0 (20120817.0054)
 -->
<!-- Title: code/om/macros.hpp Pages: 1 -->
<svg width="1589pt" height="480pt"
 viewBox="0.00 0.00 1589.00 480.00" xmlns="http://www.w3.org/2000/svg" xmlns:xlink="http://www.w3.org/1999/xlink">
<g id="graph1" class="graph" transform="scale(1 1) rotate(0) translate(4 476)">
<title>code/om/macros.hpp</title>
<!-- Node1 -->
<g id="node1" class="node"><title>Node1</title>
<polygon fill="#bfbfbf" stroke="black" points="1035,-452.5 1035,-471.5 1141,-471.5 1141,-452.5 1035,-452.5"/>
<text text-anchor="middle" x="1088" y="-459.5" font-family="Helvetica,sans-Serif" font-size="10.00">code/om/macros.hpp</text>
</g>
<!-- Node2 -->
<g id="node3" class="node"><title>Node2</title>
<a xlink:href="macros_8cpp.html" target="_top" xlink:title="Om cpp file.">
<polygon fill="none" stroke="black" points="825.5,-390.5 825.5,-409.5 930.5,-409.5 930.5,-390.5 825.5,-390.5"/>
<text text-anchor="middle" x="878" y="-397.5" font-family="Helvetica,sans-Serif" font-size="10.00">code/om/macros.cpp</text>
</a>
</g>
<!-- Node1&#45;&gt;Node2 -->
<g id="edge2" class="edge"><title>Node1&#45;&gt;Node2</title>
<path fill="none" stroke="midnightblue" d="M1048.29,-449.655C1007.49,-437.998 944.886,-420.11 908.032,-409.581"/>
<polygon fill="midnightblue" stroke="midnightblue" points="1047.34,-453.022 1057.91,-452.403 1049.26,-446.291 1047.34,-453.022"/>
</g>
<!-- Node3 -->
<g id="node5" class="node"><title>Node3</title>
<a xlink:href="operand__symbol_8hpp.html" target="_top" xlink:title="Om hpp file.">
<polygon fill="none" stroke="black" points="949,-385 949,-415 1079,-415 1079,-385 949,-385"/>
<text text-anchor="start" x="957" y="-403" font-family="Helvetica,sans-Serif" font-size="10.00">code/om/symbols/operand</text>
<text text-anchor="middle" x="1014" y="-392" font-family="Helvetica,sans-Serif" font-size="10.00">_symbol.hpp</text>
</a>
</g>
<!-- Node1&#45;&gt;Node3 -->
<g id="edge4" class="edge"><title>Node1&#45;&gt;Node3</title>
<path fill="none" stroke="midnightblue" d="M1069.59,-446.071C1057.92,-436.61 1042.92,-424.447 1031.44,-415.141"/>
<polygon fill="midnightblue" stroke="midnightblue" points="1067.43,-448.824 1077.4,-452.403 1071.83,-443.387 1067.43,-448.824"/>
</g>
<!-- Node37 -->
<g id="node87" class="node"><title>Node37</title>
<a xlink:href="operator__symbol_8hpp.html" target="_top" xlink:title="Om hpp file.">
<polygon fill="none" stroke="black" points="1097.5,-385 1097.5,-415 1226.5,-415 1226.5,-385 1097.5,-385"/>
<text text-anchor="start" x="1105.5" y="-403" font-family="Helvetica,sans-Serif" font-size="10.00">code/om/symbols/operator</text>
<text text-anchor="middle" x="1162" y="-392" font-family="Helvetica,sans-Serif" font-size="10.00">_symbol.hpp</text>
</a>
</g>
<!-- Node1&#45;&gt;Node37 -->
<g id="edge100" class="edge"><title>Node1&#45;&gt;Node37</title>
<path fill="none" stroke="midnightblue" d="M1106.41,-446.071C1118.08,-436.61 1133.08,-424.447 1144.56,-415.141"/>
<polygon fill="midnightblue" stroke="midnightblue" points="1104.17,-443.387 1098.6,-452.403 1108.57,-448.824 1104.17,-443.387"/>
</g>
<!-- Node39 -->
<g id="node92" class="node"><title>Node39</title>
<a xlink:href="separator__symbol_8hpp.html" target="_top" xlink:title="Om hpp file.">
<polygon fill="none" stroke="black" points="1244.5,-385 1244.5,-415 1379.5,-415 1379.5,-385 1244.5,-385"/>
<text text-anchor="start" x="1252.5" y="-403" font-family="Helvetica,sans-Serif" font-size="10.00">code/om/symbols/separator</text>
<text text-anchor="middle" x="1312" y="-392" font-family="Helvetica,sans-Serif" font-size="10.00">_symbol.hpp</text>
</a>
</g>
<!-- Node1&#45;&gt;Node39 -->
<g id="edge106" class="edge"><title>Node1&#45;&gt;Node39</title>
<path fill="none" stroke="midnightblue" d="M1129.98,-449.756C1166.68,-439.924 1220.14,-425.604 1259.64,-415.025"/>
<polygon fill="midnightblue" stroke="midnightblue" points="1128.85,-446.435 1120.09,-452.403 1130.66,-453.197 1128.85,-446.435"/>
</g>
<!-- Node4 -->
<g id="node7" class="node"><title>Node4</title>
<a xlink:href="operator_8hpp.html" target="_top" xlink:title="Om hpp file.">
<polygon fill="none" stroke="black" points="1116,-322.5 1116,-341.5 1226,-341.5 1226,-322.5 1116,-322.5"/>
<text text-anchor="middle" x="1171" y="-329.5" font-family="Helvetica,sans-Serif" font-size="10.00">code/om/operator.hpp</text>
</a>
</g>
<!-- Node3&#45;&gt;Node4 -->
<g id="edge6" class="edge"><title>Node3&#45;&gt;Node4</title>
<path fill="none" stroke="midnightblue" d="M1057.19,-380.844C1087.53,-368.089 1126.77,-351.595 1150.35,-341.682"/>
<polygon fill="midnightblue" stroke="midnightblue" points="1055.54,-377.739 1047.68,-384.841 1058.26,-384.192 1055.54,-377.739"/>
</g>
<!-- Node36 -->
<g id="node85" class="node"><title>Node36</title>
<a xlink:href="operand__symbol_8cpp.html" target="_top" xlink:title="Om cpp file.">
<polygon fill="none" stroke="black" points="820,-317 820,-347 950,-347 950,-317 820,-317"/>
<text text-anchor="start" x="828" y="-335" font-family="Helvetica,sans-Serif" font-size="10.00">code/om/symbols/operand</text>
<text text-anchor="middle" x="885" y="-324" font-family="Helvetica,sans-Serif" font-size="10.00">_symbol.cpp</text>
</a>
</g>
<!-- Node3&#45;&gt;Node36 -->
<g id="edge98" class="edge"><title>Node3&#45;&gt;Node36</title>
<path fill="none" stroke="midnightblue" d="M977.248,-380.197C956.693,-369.68 931.492,-356.787 912.628,-347.135"/>
<polygon fill="midnightblue" stroke="midnightblue" points="975.83,-383.402 986.326,-384.841 979.018,-377.171 975.83,-383.402"/>
</g>
<!-- Node5 -->
<g id="node9" class="node"><title>Node5</title>
<a xlink:href="form_8hpp.html" target="_top" xlink:title="Om hpp file.">
<polygon fill="none" stroke="black" points="744,-260.5 744,-279.5 836,-279.5 836,-260.5 744,-260.5"/>
<text text-anchor="middle" x="790" y="-267.5" font-family="Helvetica,sans-Serif" font-size="10.00">code/om/form.hpp</text>
</a>
</g>
<!-- Node4&#45;&gt;Node5 -->
<g id="edge8" class="edge"><title>Node4&#45;&gt;Node5</title>
<path fill="none" stroke="midnightblue" d="M1126.51,-320.203C1119.66,-318.695 1112.66,-317.239 1106,-316 1010.66,-298.245 898.003,-283.736 836.254,-276.332"/>
<polygon fill="midnightblue" stroke="midnightblue" points="1125.84,-323.641 1136.37,-322.432 1127.39,-316.813 1125.84,-323.641"/>
</g>
<!-- Node21 -->
<g id="node48" class="node"><title>Node21</title>
<a xlink:href="operator_8cpp.html" target="_top" xlink:title="Om cpp file.">
<polygon fill="none" stroke="black" points="1116.5,-260.5 1116.5,-279.5 1225.5,-279.5 1225.5,-260.5 1116.5,-260.5"/>
<text text-anchor="middle" x="1171" y="-267.5" font-family="Helvetica,sans-Serif" font-size="10.00">code/om/operator.cpp</text>
</a>
</g>
<!-- Node4&#45;&gt;Node21 -->
<g id="edge54" class="edge"><title>Node4&#45;&gt;Node21</title>
<path fill="none" stroke="midnightblue" d="M1164.68,-312.16C1163.8,-301.248 1164.27,-288.04 1166.1,-279.581"/>
<polygon fill="midnightblue" stroke="midnightblue" points="1161.26,-312.977 1166.1,-322.403 1168.2,-312.018 1161.26,-312.977"/>
</g>
<!-- Node22 -->
<g id="node51" class="node"><title>Node22</title>
<a xlink:href="pair_8hpp.html" target="_top" xlink:title="Om hpp file.">
<polygon fill="none" stroke="black" points="1266.5,-260.5 1266.5,-279.5 1357.5,-279.5 1357.5,-260.5 1266.5,-260.5"/>
<text text-anchor="middle" x="1312" y="-267.5" font-family="Helvetica,sans-Serif" font-size="10.00">code/om/pair.hpp</text>
</a>
</g>
<!-- Node4&#45;&gt;Node22 -->
<g id="edge58" class="edge"><title>Node4&#45;&gt;Node22</title>
<path fill="none" stroke="midnightblue" d="M1200.67,-318.374C1228.05,-306.721 1267.98,-289.732 1291.84,-279.581"/>
<polygon fill="midnightblue" stroke="midnightblue" points="1199.03,-315.267 1191.2,-322.403 1201.77,-321.708 1199.03,-315.267"/>
</g>
<!-- Node6 -->
<g id="node11" class="node"><title>Node6</title>
<a xlink:href="expression_8hpp.html" target="_top" xlink:title="Om hpp file.">
<polygon fill="none" stroke="black" points="399,-204.5 399,-223.5 521,-223.5 521,-204.5 399,-204.5"/>
<text text-anchor="middle" x="460" y="-211.5" font-family="Helvetica,sans-Serif" font-size="10.00">code/om/expression.hpp</text>
</a>
</g>
<!-- Node5&#45;&gt;Node6 -->
<g id="edge10" class="edge"><title>Node5&#45;&gt;Node6</title>
<path fill="none" stroke="midnightblue" d="M733.757,-259.797C671.681,-249.639 572.575,-233.421 512.175,-223.538"/>
<polygon fill="midnightblue" stroke="midnightblue" points="733.333,-263.274 743.767,-261.435 734.464,-256.366 733.333,-263.274"/>
</g>
<!-- Node20 -->
<g id="node45" class="node"><title>Node20</title>
<a xlink:href="form_8cpp.html" target="_top" xlink:title="Om cpp file.">
<polygon fill="none" stroke="black" points="744,-204.5 744,-223.5 836,-223.5 836,-204.5 744,-204.5"/>
<text text-anchor="middle" x="790" y="-211.5" font-family="Helvetica,sans-Serif" font-size="10.00">code/om/form.cpp</text>
</a>
</g>
<!-- Node5&#45;&gt;Node20 -->
<g id="edge50" class="edge"><title>Node5&#45;&gt;Node20</title>
<path fill="none" stroke="midnightblue" d="M783.528,-250.101C782.896,-241.136 783.343,-230.858 784.869,-223.751"/>
<polygon fill="midnightblue" stroke="midnightblue" points="780.066,-250.622 784.834,-260.083 787.007,-249.713 780.066,-250.622"/>
</g>
<!-- Node7 -->
<g id="node13" class="node"><title>Node7</title>
<a xlink:href="evaluation_8hpp.html" target="_top" xlink:title="Om hpp file.">
<polygon fill="none" stroke="black" points="118.5,-142.5 118.5,-161.5 237.5,-161.5 237.5,-142.5 118.5,-142.5"/>
<text text-anchor="middle" x="178" y="-149.5" font-family="Helvetica,sans-Serif" font-size="10.00">code/om/evaluation.hpp</text>
</a>
</g>
<!-- Node6&#45;&gt;Node7 -->
<g id="edge12" class="edge"><title>Node6&#45;&gt;Node7</title>
<path fill="none" stroke="midnightblue" d="M408.928,-202.408C365.553,-193.377 301.662,-179.991 246,-168 236.427,-165.938 226.105,-163.679 216.465,-161.554"/>
<polygon fill="midnightblue" stroke="midnightblue" points="408.446,-205.883 418.949,-204.493 409.872,-199.029 408.446,-205.883"/>
</g>
<!-- Node9 -->
<g id="node18" class="node"><title>Node9</title>
<a xlink:href="expression_8cpp.html" target="_top" xlink:title="Om cpp file.">
<polygon fill="none" stroke="black" points="255.5,-142.5 255.5,-161.5 376.5,-161.5 376.5,-142.5 255.5,-142.5"/>
<text text-anchor="middle" x="316" y="-149.5" font-family="Helvetica,sans-Serif" font-size="10.00">code/om/expression.cpp</text>
</a>
</g>
<!-- Node6&#45;&gt;Node9 -->
<g id="edge18" class="edge"><title>Node6&#45;&gt;Node9</title>
<path fill="none" stroke="midnightblue" d="M424.855,-200.68C395.106,-189.02 354.055,-171.821 331.696,-161.581"/>
<polygon fill="midnightblue" stroke="midnightblue" points="423.879,-204.055 434.468,-204.403 426.407,-197.527 423.879,-204.055"/>
</g>
<!-- Node10 -->
<g id="node21" class="node"><title>Node10</title>
<a xlink:href="expression__operation_8hpp.html" target="_top" xlink:title="Om hpp file.">
<polygon fill="none" stroke="black" points="395,-137 395,-167 525,-167 525,-137 395,-137"/>
<text text-anchor="start" x="403" y="-155" font-family="Helvetica,sans-Serif" font-size="10.00">code/om/operations</text>
<text text-anchor="middle" x="460" y="-144" font-family="Helvetica,sans-Serif" font-size="10.00">/expression_operation.hpp</text>
</a>
</g>
<!-- Node6&#45;&gt;Node10 -->
<g id="edge22" class="edge"><title>Node6&#45;&gt;Node10</title>
<path fill="none" stroke="midnightblue" d="M460,-194.371C460,-185.585 460,-175.272 460,-167.141"/>
<polygon fill="midnightblue" stroke="midnightblue" points="456.5,-194.403 460,-204.403 463.5,-194.403 456.5,-194.403"/>
</g>
<!-- Node12 -->
<g id="node25" class="node"><title>Node12</title>
<a xlink:href="fill__operation_8hpp.html" target="_top" xlink:title="Om hpp file.">
<polygon fill="none" stroke="black" points="543,-137 543,-167 643,-167 643,-137 543,-137"/>
<text text-anchor="start" x="551" y="-155" font-family="Helvetica,sans-Serif" font-size="10.00">code/om/operations</text>
<text text-anchor="middle" x="593" y="-144" font-family="Helvetica,sans-Serif" font-size="10.00">/fill_operation.hpp</text>
</a>
</g>
<!-- Node6&#45;&gt;Node12 -->
<g id="edge26" class="edge"><title>Node6&#45;&gt;Node12</title>
<path fill="none" stroke="midnightblue" d="M488.353,-200.209C509.952,-190.465 539.663,-177.062 561.911,-167.025"/>
<polygon fill="midnightblue" stroke="midnightblue" points="486.732,-197.101 479.056,-204.403 489.61,-203.482 486.732,-197.101"/>
</g>
<!-- Node14 -->
<g id="node30" class="node"><title>Node14</title>
<a xlink:href="inject__operation_8hpp.html" target="_top" xlink:title="Om hpp file.">
<polygon fill="none" stroke="black" points="661,-137 661,-167 765,-167 765,-137 661,-137"/>
<text text-anchor="start" x="669" y="-155" font-family="Helvetica,sans-Serif" font-size="10.00">code/om/operations</text>
<text text-anchor="middle" x="713" y="-144" font-family="Helvetica,sans-Serif" font-size="10.00">/inject_operation.hpp</text>
</a>
</g>
<!-- Node6&#45;&gt;Node14 -->
<g id="edge32" class="edge"><title>Node6&#45;&gt;Node14</title>
<path fill="none" stroke="midnightblue" d="M506.817,-202.177C545.714,-193.15 602.494,-179.888 652,-168 654.863,-167.312 657.801,-166.603 660.766,-165.884"/>
<polygon fill="midnightblue" stroke="midnightblue" points="505.787,-198.823 496.836,-204.492 507.368,-205.642 505.787,-198.823"/>
</g>
<!-- Node16 -->
<g id="node35" class="node"><title>Node16</title>
<a xlink:href="rearrange__operation_8hpp.html" target="_top" xlink:title="Om hpp file.">
<polygon fill="none" stroke="black" points="783.5,-137 783.5,-167 906.5,-167 906.5,-137 783.5,-137"/>
<text text-anchor="start" x="791.5" y="-155" font-family="Helvetica,sans-Serif" font-size="10.00">code/om/operations</text>
<text text-anchor="middle" x="845" y="-144" font-family="Helvetica,sans-Serif" font-size="10.00">/rearrange_operation.hpp</text>
</a>
</g>
<!-- Node6&#45;&gt;Node16 -->
<g id="edge38" class="edge"><title>Node6&#45;&gt;Node16</title>
<path fill="none" stroke="midnightblue" d="M531.219,-204.153C595.001,-195.907 690.999,-182.699 774,-168 777.101,-167.451 780.274,-166.866 783.475,-166.257"/>
<polygon fill="midnightblue" stroke="midnightblue" points="530.738,-200.686 521.266,-205.434 531.631,-207.629 530.738,-200.686"/>
</g>
<!-- Node18 -->
<g id="node40" class="node"><title>Node18</title>
<a xlink:href="skip__operation_8hpp.html" target="_top" xlink:title="Om hpp file.">
<polygon fill="none" stroke="black" points="-0.5,-137 -0.5,-167 100.5,-167 100.5,-137 -0.5,-137"/>
<text text-anchor="start" x="7.5" y="-155" font-family="Helvetica,sans-Serif" font-size="10.00">code/om/operations</text>
<text text-anchor="middle" x="50" y="-144" font-family="Helvetica,sans-Serif" font-size="10.00">/skip_operation.hpp</text>
</a>
</g>
<!-- Node6&#45;&gt;Node18 -->
<g id="edge44" class="edge"><title>Node6&#45;&gt;Node18</title>
<path fill="none" stroke="midnightblue" d="M388.57,-206.41C317.362,-199.239 205.062,-186.299 109,-168 106.301,-167.486 103.541,-166.921 100.761,-166.322"/>
<polygon fill="midnightblue" stroke="midnightblue" points="388.474,-209.918 398.771,-207.426 389.168,-202.952 388.474,-209.918"/>
</g>
<!-- Node8 -->
<g id="node15" class="node"><title>Node8</title>
<a xlink:href="evaluation_8cpp.html" target="_top" xlink:title="Om cpp file.">
<polygon fill="none" stroke="black" points="119,-74.5 119,-93.5 237,-93.5 237,-74.5 119,-74.5"/>
<text text-anchor="middle" x="178" y="-81.5" font-family="Helvetica,sans-Serif" font-size="10.00">code/om/evaluation.cpp</text>
</a>
</g>
<!-- Node7&#45;&gt;Node8 -->
<g id="edge14" class="edge"><title>Node7&#45;&gt;Node8</title>
<path fill="none" stroke="midnightblue" d="M171.859,-132.425C170.722,-119.798 171.177,-103.662 173.224,-93.8411"/>
<polygon fill="midnightblue" stroke="midnightblue" points="168.4,-132.962 173.269,-142.372 175.331,-131.979 168.4,-132.962"/>
</g>
<!-- Node8&#45;&gt;Node7 -->
<g id="edge16" class="edge"><title>Node8&#45;&gt;Node7</title>
<path fill="none" stroke="midnightblue" d="M184.165,-103.85C185.279,-116.528 184.801,-132.643 182.731,-142.372"/>
<polygon fill="midnightblue" stroke="midnightblue" points="187.618,-103.265 182.776,-93.8411 180.684,-104.227 187.618,-103.265"/>
</g>
<!-- Node9&#45;&gt;Node6 -->
<g id="edge20" class="edge"><title>Node9&#45;&gt;Node6</title>
<path fill="none" stroke="midnightblue" d="M351.098,-165.302C380.836,-176.956 421.891,-194.156 444.269,-204.403"/>
<polygon fill="midnightblue" stroke="midnightblue" points="352.08,-161.929 341.491,-161.581 349.551,-168.456 352.08,-161.929"/>
</g>
<!-- Node11 -->
<g id="node23" class="node"><title>Node11</title>
<a xlink:href="expression__operation_8cpp.html" target="_top" xlink:title="Om cpp file.">
<polygon fill="none" stroke="black" points="395.5,-69 395.5,-99 524.5,-99 524.5,-69 395.5,-69"/>
<text text-anchor="start" x="403.5" y="-87" font-family="Helvetica,sans-Serif" font-size="10.00">code/om/operations</text>
<text text-anchor="middle" x="460" y="-76" font-family="Helvetica,sans-Serif" font-size="10.00">/expression_operation.cpp</text>
</a>
</g>
<!-- Node10&#45;&gt;Node11 -->
<g id="edge24" class="edge"><title>Node10&#45;&gt;Node11</title>
<path fill="none" stroke="midnightblue" d="M460,-126.532C460,-117.361 460,-107.245 460,-99.2931"/>
<polygon fill="midnightblue" stroke="midnightblue" points="456.5,-126.679 460,-136.679 463.5,-126.679 456.5,-126.679"/>
</g>
<!-- Node13 -->
<g id="node27" class="node"><title>Node13</title>
<a xlink:href="fill__operation_8cpp.html" target="_top" xlink:title="Om cpp file.">
<polygon fill="none" stroke="black" points="543,-69 543,-99 643,-99 643,-69 543,-69"/>
<text text-anchor="start" x="551" y="-87" font-family="Helvetica,sans-Serif" font-size="10.00">code/om/operations</text>
<text text-anchor="middle" x="593" y="-76" font-family="Helvetica,sans-Serif" font-size="10.00">/fill_operation.cpp</text>
</a>
</g>
<!-- Node12&#45;&gt;Node13 -->
<g id="edge28" class="edge"><title>Node12&#45;&gt;Node13</title>
<path fill="none" stroke="midnightblue" d="M586.455,-126.532C586.005,-117.361 586.296,-107.245 587.325,-99.2931"/>
<polygon fill="midnightblue" stroke="midnightblue" points="582.983,-127.013 587.322,-136.679 589.958,-126.417 582.983,-127.013"/>
</g>
<!-- Node13&#45;&gt;Node12 -->
<g id="edge30" class="edge"><title>Node13&#45;&gt;Node12</title>
<path fill="none" stroke="midnightblue" d="M599.544,-109.436C599.995,-118.605 599.706,-128.722 598.678,-136.679"/>
<polygon fill="midnightblue" stroke="midnightblue" points="603.016,-108.958 598.675,-99.2931 596.041,-109.555 603.016,-108.958"/>
</g>
<!-- Node15 -->
<g id="node32" class="node"><title>Node15</title>
<a xlink:href="inject__operation_8cpp.html" target="_top" xlink:title="Om cpp file.">
<polygon fill="none" stroke="black" points="661,-69 661,-99 765,-99 765,-69 661,-69"/>
<text text-anchor="start" x="669" y="-87" font-family="Helvetica,sans-Serif" font-size="10.00">code/om/operations</text>
<text text-anchor="middle" x="713" y="-76" font-family="Helvetica,sans-Serif" font-size="10.00">/inject_operation.cpp</text>
</a>
</g>
<!-- Node14&#45;&gt;Node15 -->
<g id="edge34" class="edge"><title>Node14&#45;&gt;Node15</title>
<path fill="none" stroke="midnightblue" d="M706.455,-126.532C706.005,-117.361 706.296,-107.245 707.325,-99.2931"/>
<polygon fill="midnightblue" stroke="midnightblue" points="702.983,-127.013 707.322,-136.679 709.958,-126.417 702.983,-127.013"/>
</g>
<!-- Node15&#45;&gt;Node14 -->
<g id="edge36" class="edge"><title>Node15&#45;&gt;Node14</title>
<path fill="none" stroke="midnightblue" d="M719.544,-109.436C719.995,-118.605 719.706,-128.722 718.678,-136.679"/>
<polygon fill="midnightblue" stroke="midnightblue" points="723.016,-108.958 718.675,-99.2931 716.041,-109.555 723.016,-108.958"/>
</g>
<!-- Node17 -->
<g id="node37" class="node"><title>Node17</title>
<a xlink:href="rearrange__operation_8cpp.html" target="_top" xlink:title="Om cpp file.">
<polygon fill="none" stroke="black" points="784,-69 784,-99 906,-99 906,-69 784,-69"/>
<text text-anchor="start" x="792" y="-87" font-family="Helvetica,sans-Serif" font-size="10.00">code/om/operations</text>
<text text-anchor="middle" x="845" y="-76" font-family="Helvetica,sans-Serif" font-size="10.00">/rearrange_operation.cpp</text>
</a>
</g>
<!-- Node16&#45;&gt;Node17 -->
<g id="edge40" class="edge"><title>Node16&#45;&gt;Node17</title>
<path fill="none" stroke="midnightblue" d="M838.455,-126.532C838.005,-117.361 838.296,-107.245 839.325,-99.2931"/>
<polygon fill="midnightblue" stroke="midnightblue" points="834.983,-127.013 839.322,-136.679 841.958,-126.417 834.983,-127.013"/>
</g>
<!-- Node17&#45;&gt;Node16 -->
<g id="edge42" class="edge"><title>Node17&#45;&gt;Node16</title>
<path fill="none" stroke="midnightblue" d="M851.544,-109.436C851.995,-118.605 851.706,-128.722 850.678,-136.679"/>
<polygon fill="midnightblue" stroke="midnightblue" points="855.016,-108.958 850.675,-99.2931 848.041,-109.555 855.016,-108.958"/>
</g>
<!-- Node19 -->
<g id="node42" class="node"><title>Node19</title>
<a xlink:href="skip__operation_8cpp.html" target="_top" xlink:title="Om cpp file.">
<polygon fill="none" stroke="black" points="0,-69 0,-99 100,-99 100,-69 0,-69"/>
<text text-anchor="start" x="8" y="-87" font-family="Helvetica,sans-Serif" font-size="10.00">code/om/operations</text>
<text text-anchor="middle" x="50" y="-76" font-family="Helvetica,sans-Serif" font-size="10.00">/skip_operation.cpp</text>
</a>
</g>
<!-- Node18&#45;&gt;Node19 -->
<g id="edge46" class="edge"><title>Node18&#45;&gt;Node19</title>
<path fill="none" stroke="midnightblue" d="M43.4547,-126.532C43.0055,-117.361 43.2957,-107.245 44.3252,-99.2931"/>
<polygon fill="midnightblue" stroke="midnightblue" points="39.9829,-127.013 44.3216,-136.679 46.9575,-126.417 39.9829,-127.013"/>
</g>
<!-- Node19&#45;&gt;Node18 -->
<g id="edge48" class="edge"><title>Node19&#45;&gt;Node18</title>
<path fill="none" stroke="midnightblue" d="M56.5438,-109.436C56.9947,-118.605 56.7062,-128.722 55.6784,-136.679"/>
<polygon fill="midnightblue" stroke="midnightblue" points="60.0157,-108.958 55.6748,-99.2931 53.0413,-109.555 60.0157,-108.958"/>
</g>
<!-- Node20&#45;&gt;Node5 -->
<g id="edge52" class="edge"><title>Node20&#45;&gt;Node5</title>
<path fill="none" stroke="midnightblue" d="M796.458,-233.691C797.106,-242.635 796.676,-252.927 795.166,-260.083"/>
<polygon fill="midnightblue" stroke="midnightblue" points="799.923,-233.2 795.131,-223.751 792.985,-234.126 799.923,-233.2"/>
</g>
<!-- Node21&#45;&gt;Node4 -->
<g id="edge56" class="edge"><title>Node21&#45;&gt;Node4</title>
<path fill="none" stroke="midnightblue" d="M1177.31,-289.82C1178.2,-300.728 1177.73,-313.938 1175.9,-322.403"/>
<polygon fill="midnightblue" stroke="midnightblue" points="1180.74,-289.006 1175.9,-279.581 1173.8,-289.966 1180.74,-289.006"/>
</g>
<!-- Node23 -->
<g id="node53" class="node"><title>Node23</title>
<a xlink:href="lexicon_8hpp.html" target="_top" xlink:title="Om hpp file.">
<polygon fill="none" stroke="black" points="1203,-204.5 1203,-223.5 1307,-223.5 1307,-204.5 1203,-204.5"/>
<text text-anchor="middle" x="1255" y="-211.5" font-family="Helvetica,sans-Serif" font-size="10.00">code/om/lexicon.hpp</text>
</a>
</g>
<!-- Node22&#45;&gt;Node23 -->
<g id="edge60" class="edge"><title>Node22&#45;&gt;Node23</title>
<path fill="none" stroke="midnightblue" d="M1295.38,-253.253C1285.27,-243.673 1272.72,-231.791 1264.32,-223.834"/>
<polygon fill="midnightblue" stroke="midnightblue" points="1293.18,-255.987 1302.84,-260.324 1297.99,-250.906 1293.18,-255.987"/>
</g>
<!-- Node35 -->
<g id="node82" class="node"><title>Node35</title>
<a xlink:href="pair_8cpp.html" target="_top" xlink:title="Om cpp file.">
<polygon fill="none" stroke="black" points="1325,-204.5 1325,-223.5 1415,-223.5 1415,-204.5 1325,-204.5"/>
<text text-anchor="middle" x="1370" y="-211.5" font-family="Helvetica,sans-Serif" font-size="10.00">code/om/pair.cpp</text>
</a>
</g>
<!-- Node22&#45;&gt;Node35 -->
<g id="edge94" class="edge"><title>Node22&#45;&gt;Node35</title>
<path fill="none" stroke="midnightblue" d="M1323.24,-252.718C1332.53,-243.2 1345.4,-231.561 1355.47,-223.751"/>
<polygon fill="midnightblue" stroke="midnightblue" points="1320.64,-250.369 1316.41,-260.083 1325.78,-255.126 1320.64,-250.369"/>
</g>
<!-- Node24 -->
<g id="node55" class="node"><title>Node24</title>
<a xlink:href="lexicon_8cpp.html" target="_top" xlink:title="Om cpp file.">
<polygon fill="none" stroke="black" points="1203.5,-142.5 1203.5,-161.5 1306.5,-161.5 1306.5,-142.5 1203.5,-142.5"/>
<text text-anchor="middle" x="1255" y="-149.5" font-family="Helvetica,sans-Serif" font-size="10.00">code/om/lexicon.cpp</text>
</a>
</g>
<!-- Node23&#45;&gt;Node24 -->
<g id="edge62" class="edge"><title>Node23&#45;&gt;Node24</title>
<path fill="none" stroke="midnightblue" d="M1248.68,-194.16C1247.8,-183.248 1248.27,-170.04 1250.1,-161.581"/>
<polygon fill="midnightblue" stroke="midnightblue" points="1245.26,-194.977 1250.1,-204.403 1252.2,-194.018 1245.26,-194.977"/>
</g>
<!-- Node25 -->
<g id="node58" class="node"><title>Node25</title>
<a xlink:href="lexicon__operation_8hpp.html" target="_top" xlink:title="Om hpp file.">
<polygon fill="none" stroke="black" points="1397,-137 1397,-167 1509,-167 1509,-137 1397,-137"/>
<text text-anchor="start" x="1405" y="-155" font-family="Helvetica,sans-Serif" font-size="10.00">code/om/operations</text>
<text text-anchor="middle" x="1453" y="-144" font-family="Helvetica,sans-Serif" font-size="10.00">/lexicon_operation.hpp</text>
</a>
</g>
<!-- Node23&#45;&gt;Node25 -->
<g id="edge66" class="edge"><title>Node23&#45;&gt;Node25</title>
<path fill="none" stroke="midnightblue" d="M1292.94,-201.503C1325.36,-191.68 1372.1,-177.514 1406.72,-167.025"/>
<polygon fill="midnightblue" stroke="midnightblue" points="1291.92,-198.154 1283.37,-204.403 1293.95,-204.853 1291.92,-198.154"/>
</g>
<!-- Node27 -->
<g id="node62" class="node"><title>Node27</title>
<a xlink:href="translate__operation_8hpp.html" target="_top" xlink:title="Om hpp file.">
<polygon fill="none" stroke="black" points="1066.5,-137 1066.5,-167 1185.5,-167 1185.5,-137 1066.5,-137"/>
<text text-anchor="start" x="1074.5" y="-155" font-family="Helvetica,sans-Serif" font-size="10.00">code/om/operations</text>
<text text-anchor="middle" x="1126" y="-144" font-family="Helvetica,sans-Serif" font-size="10.00">/translate_operation.hpp</text>
</a>
</g>
<!-- Node23&#45;&gt;Node27 -->
<g id="edge70" class="edge"><title>Node23&#45;&gt;Node27</title>
<path fill="none" stroke="midnightblue" d="M1227.25,-200.093C1206.4,-190.396 1177.87,-177.124 1156.4,-167.141"/>
<polygon fill="midnightblue" stroke="midnightblue" points="1225.97,-203.36 1236.52,-204.403 1228.93,-197.013 1225.97,-203.36"/>
</g>
<!-- Node24&#45;&gt;Node23 -->
<g id="edge64" class="edge"><title>Node24&#45;&gt;Node23</title>
<path fill="none" stroke="midnightblue" d="M1261.31,-171.82C1262.2,-182.728 1261.73,-195.938 1259.9,-204.403"/>
<polygon fill="midnightblue" stroke="midnightblue" points="1264.74,-171.006 1259.9,-161.581 1257.8,-171.966 1264.74,-171.006"/>
</g>
<!-- Node26 -->
<g id="node60" class="node"><title>Node26</title>
<a xlink:href="lexicon__operation_8cpp.html" target="_top" xlink:title="Om cpp file.">
<polygon fill="none" stroke="black" points="1470.5,-69 1470.5,-99 1581.5,-99 1581.5,-69 1470.5,-69"/>
<text text-anchor="start" x="1478.5" y="-87" font-family="Helvetica,sans-Serif" font-size="10.00">code/om/operations</text>
<text text-anchor="middle" x="1526" y="-76" font-family="Helvetica,sans-Serif" font-size="10.00">/lexicon_operation.cpp</text>
</a>
</g>
<!-- Node25&#45;&gt;Node26 -->
<g id="edge68" class="edge"><title>Node25&#45;&gt;Node26</title>
<path fill="none" stroke="midnightblue" d="M1476.53,-129.727C1487.63,-119.687 1500.58,-107.983 1510.44,-99.0663"/>
<polygon fill="midnightblue" stroke="midnightblue" points="1473.91,-127.376 1468.84,-136.679 1478.6,-132.569 1473.91,-127.376"/>
</g>
<!-- Node28 -->
<g id="node64" class="node"><title>Node28</title>
<a xlink:href="evaluate__operation_8hpp.html" target="_top" xlink:title="Om hpp file.">
<polygon fill="none" stroke="black" points="1204,-69 1204,-99 1324,-99 1324,-69 1204,-69"/>
<text text-anchor="start" x="1212" y="-87" font-family="Helvetica,sans-Serif" font-size="10.00">code/om/operations</text>
<text text-anchor="middle" x="1264" y="-76" font-family="Helvetica,sans-Serif" font-size="10.00">/evaluate_operation.hpp</text>
</a>
</g>
<!-- Node27&#45;&gt;Node28 -->
<g id="edge72" class="edge"><title>Node27&#45;&gt;Node28</title>
<path fill="none" stroke="midnightblue" d="M1164.72,-132.48C1186.82,-121.913 1214.08,-108.874 1234.44,-99.1352"/>
<polygon fill="midnightblue" stroke="midnightblue" points="1163.12,-129.369 1155.6,-136.841 1166.14,-135.684 1163.12,-129.369"/>
</g>
<!-- Node30 -->
<g id="node69" class="node"><title>Node30</title>
<a xlink:href="scope__operation_8hpp.html" target="_top" xlink:title="Om hpp file.">
<polygon fill="none" stroke="black" points="1342,-69 1342,-99 1452,-99 1452,-69 1342,-69"/>
<text text-anchor="start" x="1350" y="-87" font-family="Helvetica,sans-Serif" font-size="10.00">code/om/operations</text>
<text text-anchor="middle" x="1397" y="-76" font-family="Helvetica,sans-Serif" font-size="10.00">/scope_operation.hpp</text>
</a>
</g>
<!-- Node27&#45;&gt;Node30 -->
<g id="edge78" class="edge"><title>Node27&#45;&gt;Node30</title>
<path fill="none" stroke="midnightblue" d="M1193.62,-134.533C1239.26,-123.416 1298.76,-108.925 1341.6,-98.4923"/>
<polygon fill="midnightblue" stroke="midnightblue" points="1192.69,-131.155 1183.8,-136.922 1194.35,-137.957 1192.69,-131.155"/>
</g>
<!-- Node32 -->
<g id="node74" class="node"><title>Node32</title>
<a xlink:href="substitute__operation_8hpp.html" target="_top" xlink:title="Om hpp file.">
<polygon fill="none" stroke="black" points="924,-69 924,-99 1048,-99 1048,-69 924,-69"/>
<text text-anchor="start" x="932" y="-87" font-family="Helvetica,sans-Serif" font-size="10.00">code/om/operations</text>
<text text-anchor="middle" x="986" y="-76" font-family="Helvetica,sans-Serif" font-size="10.00">/substitute_operation.hpp</text>
</a>
</g>
<!-- Node27&#45;&gt;Node32 -->
<g id="edge84" class="edge"><title>Node27&#45;&gt;Node32</title>
<path fill="none" stroke="midnightblue" d="M1086.72,-132.48C1064.3,-121.913 1036.64,-108.874 1015.98,-99.1352"/>
<polygon fill="midnightblue" stroke="midnightblue" points="1085.43,-135.743 1095.97,-136.841 1088.41,-129.411 1085.43,-135.743"/>
</g>
<!-- Node34 -->
<g id="node79" class="node"><title>Node34</title>
<a xlink:href="translate__operation_8cpp.html" target="_top" xlink:title="Om cpp file.">
<polygon fill="none" stroke="black" points="1066.5,-69 1066.5,-99 1185.5,-99 1185.5,-69 1066.5,-69"/>
<text text-anchor="start" x="1074.5" y="-87" font-family="Helvetica,sans-Serif" font-size="10.00">code/om/operations</text>
<text text-anchor="middle" x="1126" y="-76" font-family="Helvetica,sans-Serif" font-size="10.00">/translate_operation.cpp</text>
</a>
</g>
<!-- Node27&#45;&gt;Node34 -->
<g id="edge90" class="edge"><title>Node27&#45;&gt;Node34</title>
<path fill="none" stroke="midnightblue" d="M1119.45,-126.532C1119.01,-117.361 1119.3,-107.245 1120.33,-99.2931"/>
<polygon fill="midnightblue" stroke="midnightblue" points="1115.98,-127.013 1120.32,-136.679 1122.96,-126.417 1115.98,-127.013"/>
</g>
<!-- Node29 -->
<g id="node66" class="node"><title>Node29</title>
<a xlink:href="evaluate__operation_8cpp.html" target="_top" xlink:title="Om cpp file.">
<polygon fill="none" stroke="black" points="1204.5,-1 1204.5,-31 1323.5,-31 1323.5,-1 1204.5,-1"/>
<text text-anchor="start" x="1212.5" y="-19" font-family="Helvetica,sans-Serif" font-size="10.00">code/om/operations</text>
<text text-anchor="middle" x="1264" y="-8" font-family="Helvetica,sans-Serif" font-size="10.00">/evaluate_operation.cpp</text>
</a>
</g>
<!-- Node28&#45;&gt;Node29 -->
<g id="edge74" class="edge"><title>Node28&#45;&gt;Node29</title>
<path fill="none" stroke="midnightblue" d="M1257.45,-58.5322C1257.01,-49.3606 1257.3,-39.2449 1258.33,-31.2931"/>
<polygon fill="midnightblue" stroke="midnightblue" points="1253.98,-59.0133 1258.32,-68.679 1260.96,-58.4173 1253.98,-59.0133"/>
</g>
<!-- Node29&#45;&gt;Node28 -->
<g id="edge76" class="edge"><title>Node29&#45;&gt;Node28</title>
<path fill="none" stroke="midnightblue" d="M1270.54,-41.4356C1270.99,-50.605 1270.71,-60.7221 1269.68,-68.679"/>
<polygon fill="midnightblue" stroke="midnightblue" points="1274.02,-40.9578 1269.67,-31.2931 1267.04,-41.5554 1274.02,-40.9578"/>
</g>
<!-- Node31 -->
<g id="node71" class="node"><title>Node31</title>
<a xlink:href="scope__operation_8cpp.html" target="_top" xlink:title="Om cpp file.">
<polygon fill="none" stroke="black" points="1342.5,-1 1342.5,-31 1451.5,-31 1451.5,-1 1342.5,-1"/>
<text text-anchor="start" x="1350.5" y="-19" font-family="Helvetica,sans-Serif" font-size="10.00">code/om/operations</text>
<text text-anchor="middle" x="1397" y="-8" font-family="Helvetica,sans-Serif" font-size="10.00">/scope_operation.cpp</text>
</a>
</g>
<!-- Node30&#45;&gt;Node31 -->
<g id="edge80" class="edge"><title>Node30&#45;&gt;Node31</title>
<path fill="none" stroke="midnightblue" d="M1390.45,-58.5322C1390.01,-49.3606 1390.3,-39.2449 1391.33,-31.2931"/>
<polygon fill="midnightblue" stroke="midnightblue" points="1386.98,-59.0133 1391.32,-68.679 1393.96,-58.4173 1386.98,-59.0133"/>
</g>
<!-- Node31&#45;&gt;Node30 -->
<g id="edge82" class="edge"><title>Node31&#45;&gt;Node30</title>
<path fill="none" stroke="midnightblue" d="M1403.54,-41.4356C1403.99,-50.605 1403.71,-60.7221 1402.68,-68.679"/>
<polygon fill="midnightblue" stroke="midnightblue" points="1407.02,-40.9578 1402.67,-31.2931 1400.04,-41.5554 1407.02,-40.9578"/>
</g>
<!-- Node33 -->
<g id="node76" class="node"><title>Node33</title>
<a xlink:href="substitute__operation_8cpp.html" target="_top" xlink:title="Om cpp file.">
<polygon fill="none" stroke="black" points="924.5,-1 924.5,-31 1047.5,-31 1047.5,-1 924.5,-1"/>
<text text-anchor="start" x="932.5" y="-19" font-family="Helvetica,sans-Serif" font-size="10.00">code/om/operations</text>
<text text-anchor="middle" x="986" y="-8" font-family="Helvetica,sans-Serif" font-size="10.00">/substitute_operation.cpp</text>
</a>
</g>
<!-- Node32&#45;&gt;Node33 -->
<g id="edge86" class="edge"><title>Node32&#45;&gt;Node33</title>
<path fill="none" stroke="midnightblue" d="M979.455,-58.5322C979.005,-49.3606 979.296,-39.2449 980.325,-31.2931"/>
<polygon fill="midnightblue" stroke="midnightblue" points="975.983,-59.0133 980.322,-68.679 982.958,-58.4173 975.983,-59.0133"/>
</g>
<!-- Node33&#45;&gt;Node32 -->
<g id="edge88" class="edge"><title>Node33&#45;&gt;Node32</title>
<path fill="none" stroke="midnightblue" d="M992.544,-41.4356C992.995,-50.605 992.706,-60.7221 991.678,-68.679"/>
<polygon fill="midnightblue" stroke="midnightblue" points="996.016,-40.9578 991.675,-31.2931 989.041,-41.5554 996.016,-40.9578"/>
</g>
<!-- Node34&#45;&gt;Node27 -->
<g id="edge92" class="edge"><title>Node34&#45;&gt;Node27</title>
<path fill="none" stroke="midnightblue" d="M1132.54,-109.436C1132.99,-118.605 1132.71,-128.722 1131.68,-136.679"/>
<polygon fill="midnightblue" stroke="midnightblue" points="1136.02,-108.958 1131.67,-99.2931 1129.04,-109.555 1136.02,-108.958"/>
</g>
<!-- Node35&#45;&gt;Node22 -->
<g id="edge96" class="edge"><title>Node35&#45;&gt;Node22</title>
<path fill="none" stroke="midnightblue" d="M1358.82,-231.224C1349.49,-240.783 1336.53,-252.498 1326.43,-260.324"/>
<polygon fill="midnightblue" stroke="midnightblue" points="1361.44,-233.551 1365.66,-223.834 1356.3,-228.796 1361.44,-233.551"/>
</g>
<!-- Node37&#45;&gt;Node4 -->
<g id="edge102" class="edge"><title>Node37&#45;&gt;Node4</title>
<path fill="none" stroke="midnightblue" d="M1165.31,-374.729C1166.88,-363.236 1168.65,-350.222 1169.8,-341.828"/>
<polygon fill="midnightblue" stroke="midnightblue" points="1161.84,-374.298 1163.95,-384.679 1168.77,-375.244 1161.84,-374.298"/>
</g>
<!-- Node38 -->
<g id="node90" class="node"><title>Node38</title>
<a xlink:href="operator__symbol_8cpp.html" target="_top" xlink:title="Om cpp file.">
<polygon fill="none" stroke="black" points="968.5,-317 968.5,-347 1097.5,-347 1097.5,-317 968.5,-317"/>
<text text-anchor="start" x="976.5" y="-335" font-family="Helvetica,sans-Serif" font-size="10.00">code/om/symbols/operator</text>
<text text-anchor="middle" x="1033" y="-324" font-family="Helvetica,sans-Serif" font-size="10.00">_symbol.cpp</text>
</a>
</g>
<!-- Node37&#45;&gt;Node38 -->
<g id="edge104" class="edge"><title>Node37&#45;&gt;Node38</title>
<path fill="none" stroke="midnightblue" d="M1125.25,-380.197C1104.69,-369.68 1079.49,-356.787 1060.63,-347.135"/>
<polygon fill="midnightblue" stroke="midnightblue" points="1123.83,-383.402 1134.33,-384.841 1127.02,-377.171 1123.83,-383.402"/>
</g>
<!-- Node39&#45;&gt;Node4 -->
<g id="edge108" class="edge"><title>Node39&#45;&gt;Node4</title>
<path fill="none" stroke="midnightblue" d="M1272.5,-380.512C1245.35,-367.804 1210.54,-351.51 1189.55,-341.682"/>
<polygon fill="midnightblue" stroke="midnightblue" points="1271.21,-383.772 1281.75,-384.841 1274.18,-377.432 1271.21,-383.772"/>
</g>
<!-- Node40 -->
<g id="node95" class="node"><title>Node40</title>
<a xlink:href="separator_8hpp.html" target="_top" xlink:title="Om hpp file.">
<polygon fill="none" stroke="black" points="1398,-322.5 1398,-341.5 1514,-341.5 1514,-322.5 1398,-322.5"/>
<text text-anchor="middle" x="1456" y="-329.5" font-family="Helvetica,sans-Serif" font-size="10.00">code/om/separator.hpp</text>
</a>
</g>
<!-- Node39&#45;&gt;Node40 -->
<g id="edge110" class="edge"><title>Node39&#45;&gt;Node40</title>
<path fill="none" stroke="midnightblue" d="M1352.34,-380.512C1380.06,-367.804 1415.62,-351.51 1437.06,-341.682"/>
<polygon fill="midnightblue" stroke="midnightblue" points="1350.52,-377.493 1342.89,-384.841 1353.44,-383.856 1350.52,-377.493"/>
</g>
<!-- Node42 -->
<g id="node100" class="node"><title>Node42</title>
<a xlink:href="separator__symbol_8cpp.html" target="_top" xlink:title="Om cpp file.">
<polygon fill="none" stroke="black" points="1244.5,-317 1244.5,-347 1379.5,-347 1379.5,-317 1244.5,-317"/>
<text text-anchor="start" x="1252.5" y="-335" font-family="Helvetica,sans-Serif" font-size="10.00">code/om/symbols/separator</text>
<text text-anchor="middle" x="1312" y="-324" font-family="Helvetica,sans-Serif" font-size="10.00">_symbol.cpp</text>
</a>
</g>
<!-- Node39&#45;&gt;Node42 -->
<g id="edge116" class="edge"><title>Node39&#45;&gt;Node42</title>
<path fill="none" stroke="midnightblue" d="M1312,-374.532C1312,-365.361 1312,-355.245 1312,-347.293"/>
<polygon fill="midnightblue" stroke="midnightblue" points="1308.5,-374.679 1312,-384.679 1315.5,-374.679 1308.5,-374.679"/>
</g>
<!-- Node41 -->
<g id="node97" class="node"><title>Node41</title>
<a xlink:href="separator_8cpp.html" target="_top" xlink:title="Om cpp file.">
<polygon fill="none" stroke="black" points="1398.5,-260.5 1398.5,-279.5 1513.5,-279.5 1513.5,-260.5 1398.5,-260.5"/>
<text text-anchor="middle" x="1456" y="-267.5" font-family="Helvetica,sans-Serif" font-size="10.00">code/om/separator.cpp</text>
</a>
</g>
<!-- Node40&#45;&gt;Node41 -->
<g id="edge112" class="edge"><title>Node40&#45;&gt;Node41</title>
<path fill="none" stroke="midnightblue" d="M1449.68,-312.16C1448.8,-301.248 1449.27,-288.04 1451.1,-279.581"/>
<polygon fill="midnightblue" stroke="midnightblue" points="1446.26,-312.977 1451.1,-322.403 1453.2,-312.018 1446.26,-312.977"/>
</g>
<!-- Node41&#45;&gt;Node40 -->
<g id="edge114" class="edge"><title>Node41&#45;&gt;Node40</title>
<path fill="none" stroke="midnightblue" d="M1462.31,-289.82C1463.2,-300.728 1462.73,-313.938 1460.9,-322.403"/>
<polygon fill="midnightblue" stroke="midnightblue" points="1465.74,-289.006 1460.9,-279.581 1458.8,-289.966 1465.74,-289.006"/>
</g>
</g>
</svg>
