<?xml version="1.0" encoding="UTF-8" standalone="no"?>
<!DOCTYPE svg PUBLIC "-//W3C//DTD SVG 1.1//EN"
 "http://www.w3.org/Graphics/SVG/1.1/DTD/svg11.dtd">
<!-- Generated by graphviz version 2.28.0 (20120817.0054)
 -->
<!-- Title: code/om/move.hpp Pages: 1 -->
<svg width="162pt" height="84pt"
 viewBox="0.00 0.00 162.00 84.00" xmlns="http://www.w3.org/2000/svg" xmlns:xlink="http://www.w3.org/1999/xlink">
<g id="graph1" class="graph" transform="scale(1 1) rotate(0) translate(4 80)">
<title>code/om/move.hpp</title>
<!-- Node1 -->
<g id="node1" class="node"><title>Node1</title>
<polygon fill="#bfbfbf" stroke="black" points="56,-56.5 56,-75.5 154,-75.5 154,-56.5 56,-56.5"/>
<text text-anchor="middle" x="105" y="-63.5" font-family="Helvetica,sans-Serif" font-size="10.00">code/om/move.hpp</text>
</g>
<!-- Node2 -->
<g id="node3" class="node"><title>Node2</title>
<polygon fill="none" stroke="#bfbfbf" points="0,-0.5 0,-19.5 50,-19.5 50,-0.5 0,-0.5"/>
<text text-anchor="middle" x="25" y="-7.5" font-family="Helvetica,sans-Serif" font-size="10.00">memory</text>
</g>
<!-- Node1&#45;&gt;Node2 -->
<g id="edge2" class="edge"><title>Node1&#45;&gt;Node2</title>
<path fill="none" stroke="midnightblue" d="M92.1466,-56.324C79.7836,-47.979 60.8699,-35.2122 46.2628,-25.3524"/>
<polygon fill="midnightblue" stroke="midnightblue" points="48.0682,-22.3483 37.8215,-19.6545 44.1518,-28.1503 48.0682,-22.3483"/>
</g>
<!-- Node3 -->
<g id="node5" class="node"><title>Node3</title>
<a xlink:href="move_8cpp.html" target="_top" xlink:title="Om source file.">
<polygon fill="none" stroke="black" points="68,-0.5 68,-19.5 142,-19.5 142,-0.5 68,-0.5"/>
<text text-anchor="middle" x="105" y="-7.5" font-family="Helvetica,sans-Serif" font-size="10.00">om/move.cpp</text>
</a>
</g>
<!-- Node1&#45;&gt;Node3 -->
<g id="edge4" class="edge"><title>Node1&#45;&gt;Node3</title>
<path fill="none" stroke="midnightblue" d="M99.8337,-56.083C98.3242,-48.9272 97.8938,-38.6353 98.5425,-29.6911"/>
<polygon fill="midnightblue" stroke="midnightblue" points="102.015,-30.1262 99.869,-19.7511 95.0769,-29.2002 102.015,-30.1262"/>
</g>
<!-- Node3&#45;&gt;Node1 -->
<g id="edge6" class="edge"><title>Node3&#45;&gt;Node1</title>
<path fill="none" stroke="midnightblue" d="M110.131,-19.7511C111.657,-26.8579 112.104,-37.1357 111.472,-46.1005"/>
<polygon fill="midnightblue" stroke="midnightblue" points="107.993,-45.7134 110.166,-56.083 114.934,-46.6216 107.993,-45.7134"/>
</g>
</g>
</svg>
