<?xml version="1.0" encoding="UTF-8" standalone="no"?>
<!DOCTYPE svg PUBLIC "-//W3C//DTD SVG 1.1//EN"
 "http://www.w3.org/Graphics/SVG/1.1/DTD/svg11.dtd">
<!-- Generated by graphviz version 2.30.1 (20130221.2233)
 -->
<!-- Title: code/om/moveable.cpp Pages: 1 -->
<svg width="175pt" height="204pt"
 viewBox="0.00 0.00 175.00 204.00" xmlns="http://www.w3.org/2000/svg" xmlns:xlink="http://www.w3.org/1999/xlink">
<g id="graph0" class="graph" transform="scale(1 1) rotate(0) translate(4 200)">
<title>code/om/moveable.cpp</title>
<!-- Node1 -->
<g id="node1" class="node"><title>Node1</title>
<polygon fill="#bfbfbf" stroke="black" points="48.3032,-175 48.3032,-195 167.697,-195 167.697,-175 48.3032,-175"/>
<text text-anchor="middle" x="108" y="-181" font-family="Helvetica,sans-Serif" font-size="10.00">code/om/moveable.cpp</text>
</g>
<!-- Node2 -->
<g id="node2" class="node"><title>Node2</title>
<g id="a_node2"><a xlink:href="moveable_8hpp.html" target="_top" xlink:title="Om header file.">
<polygon fill="none" stroke="black" points="60.2539,-117 60.2539,-137 155.746,-137 155.746,-117 60.2539,-117"/>
<text text-anchor="middle" x="108" y="-123" font-family="Helvetica,sans-Serif" font-size="10.00">om/moveable.hpp</text>
</a>
</g>
</g>
<!-- Node1&#45;&gt;Node2 -->
<g id="edge1" class="edge"><title>Node1&#45;&gt;Node2</title>
<path fill="none" stroke="midnightblue" d="M102.834,-174.753C101.308,-167.25 100.884,-156.424 101.564,-147.078"/>
<polygon fill="midnightblue" stroke="midnightblue" points="105.046,-147.444 102.869,-137.075 98.1049,-146.538 105.046,-147.444"/>
</g>
<!-- Node3 -->
<g id="node3" class="node"><title>Node3</title>
<g id="a_node3"><a xlink:href="move_8hpp.html" target="_top" xlink:title="Om header file.">
<polygon fill="none" stroke="black" points="69.707,-59 69.707,-79 146.293,-79 146.293,-59 69.707,-59"/>
<text text-anchor="middle" x="108" y="-65" font-family="Helvetica,sans-Serif" font-size="10.00">om/move.hpp</text>
</a>
</g>
</g>
<!-- Node2&#45;&gt;Node3 -->
<g id="edge2" class="edge"><title>Node2&#45;&gt;Node3</title>
<path fill="none" stroke="midnightblue" d="M108,-116.753C108,-109.25 108,-98.4238 108,-89.0781"/>
<polygon fill="midnightblue" stroke="midnightblue" points="111.5,-89.0752 108,-79.0752 104.5,-89.0752 111.5,-89.0752"/>
</g>
<!-- Node2&#45;&gt;Node1 -->
<g id="edge6" class="edge"><title>Node2&#45;&gt;Node1</title>
<path fill="none" stroke="midnightblue" d="M113.131,-137.075C114.674,-144.526 115.114,-155.338 114.451,-164.707"/>
<polygon fill="midnightblue" stroke="midnightblue" points="110.963,-164.389 113.166,-174.753 117.907,-165.278 110.963,-164.389"/>
</g>
<!-- Node4 -->
<g id="node4" class="node"><title>Node4</title>
<polygon fill="none" stroke="#bfbfbf" points="-0.0566406,-1 -0.0566406,-21 52.0566,-21 52.0566,-1 -0.0566406,-1"/>
<text text-anchor="middle" x="26" y="-7" font-family="Helvetica,sans-Serif" font-size="10.00">memory</text>
</g>
<!-- Node3&#45;&gt;Node4 -->
<g id="edge3" class="edge"><title>Node3&#45;&gt;Node4</title>
<path fill="none" stroke="midnightblue" d="M94.4594,-58.7527C81.8021,-50.1087 62.683,-37.0518 47.8638,-26.9314"/>
<polygon fill="midnightblue" stroke="midnightblue" points="49.5206,-23.8245 39.2887,-21.0752 45.5728,-29.6052 49.5206,-23.8245"/>
</g>
<!-- Node5 -->
<g id="node5" class="node"><title>Node5</title>
<g id="a_node5"><a xlink:href="move_8cpp.html" target="_top" xlink:title="Om source file.">
<polygon fill="none" stroke="black" points="69.9878,-1 69.9878,-21 146.012,-21 146.012,-1 69.9878,-1"/>
<text text-anchor="middle" x="108" y="-7" font-family="Helvetica,sans-Serif" font-size="10.00">om/move.cpp</text>
</a>
</g>
</g>
<!-- Node3&#45;&gt;Node5 -->
<g id="edge4" class="edge"><title>Node3&#45;&gt;Node5</title>
<path fill="none" stroke="midnightblue" d="M102.834,-58.7527C101.308,-51.2504 100.884,-40.4238 101.564,-31.0781"/>
<polygon fill="midnightblue" stroke="midnightblue" points="105.046,-31.4439 102.869,-21.0752 98.1049,-30.5385 105.046,-31.4439"/>
</g>
<!-- Node5&#45;&gt;Node3 -->
<g id="edge5" class="edge"><title>Node5&#45;&gt;Node3</title>
<path fill="none" stroke="midnightblue" d="M113.131,-21.0752C114.674,-28.5262 115.114,-39.3384 114.451,-48.7065"/>
<polygon fill="midnightblue" stroke="midnightblue" points="110.963,-48.3895 113.166,-58.7527 117.907,-49.2776 110.963,-48.3895"/>
</g>
</g>
</svg>
