<?xml version="1.0" encoding="UTF-8" standalone="no"?>
<!DOCTYPE svg PUBLIC "-//W3C//DTD SVG 1.1//EN"
 "http://www.w3.org/Graphics/SVG/1.1/DTD/svg11.dtd">
<!-- Generated by graphviz version 2.36.0 (20140111.2315)
 -->
<!-- Title: om/moveable.cpp Pages: 1 -->
<svg width="102pt" height="140pt"
 viewBox="0.00 0.00 102.00 140.00" xmlns="http://www.w3.org/2000/svg" xmlns:xlink="http://www.w3.org/1999/xlink">
<g id="graph0" class="graph" transform="scale(1 1) rotate(0) translate(4 136)">
<title>om/moveable.cpp</title>
<!-- Node1 -->
<g id="node1" class="node"><title>Node1</title>
<g id="a_node1"><a xlink:title="Om source file.">
<polygon fill="#bfbfbf" stroke="black" points="-0.465332,-113 -0.465332,-131 94.4653,-131 94.4653,-113 -0.465332,-113"/>
<text text-anchor="middle" x="47" y="-119" font-family="Helvetica,sans-Serif" font-size="10.00">om/moveable.cpp</text>
</a>
</g>
</g>
<!-- Node2 -->
<g id="node2" class="node"><title>Node2</title>
<g id="a_node2"><a xlink:href="moveable_8hpp.html" target="_top" xlink:title="Om header file.">
<polygon fill="none" stroke="black" points="-0.746094,-57 -0.746094,-75 94.7461,-75 94.7461,-57 -0.746094,-57"/>
<text text-anchor="middle" x="47" y="-63" font-family="Helvetica,sans-Serif" font-size="10.00">om/moveable.hpp</text>
</a>
</g>
</g>
<!-- Node1&#45;&gt;Node2 -->
<g id="edge1" class="edge"><title>Node1&#45;&gt;Node2</title>
<path fill="none" stroke="midnightblue" d="M41.9375,-112.562C40.3254,-105.308 39.8683,-94.5884 40.5664,-85.3691"/>
<polygon fill="midnightblue" stroke="midnightblue" points="44.0695,-85.5903 41.9906,-75.2014 37.1371,-84.6192 44.0695,-85.5903"/>
</g>
<!-- Node2&#45;&gt;Node1 -->
<g id="edge3" class="edge"><title>Node2&#45;&gt;Node1</title>
<path fill="none" stroke="midnightblue" d="M52.0094,-75.2014C53.6646,-82.4586 54.1393,-93.3129 53.4335,-102.633"/>
<polygon fill="midnightblue" stroke="midnightblue" points="49.9632,-102.178 52.0625,-112.562 56.8974,-103.135 49.9632,-102.178"/>
</g>
<!-- Node3 -->
<g id="node3" class="node"><title>Node3</title>
<g id="a_node3"><a xlink:title=" ">
<polygon fill="none" stroke="#bfbfbf" points="20.9434,-1 20.9434,-19 73.0566,-19 73.0566,-1 20.9434,-1"/>
<text text-anchor="middle" x="47" y="-7" font-family="Helvetica,sans-Serif" font-size="10.00">memory</text>
</a>
</g>
</g>
<!-- Node2&#45;&gt;Node3 -->
<g id="edge2" class="edge"><title>Node2&#45;&gt;Node3</title>
<path fill="none" stroke="midnightblue" d="M47,-56.5625C47,-49.308 47,-38.5884 47,-29.3691"/>
<polygon fill="midnightblue" stroke="midnightblue" points="50.5001,-29.2014 47,-19.2014 43.5001,-29.2015 50.5001,-29.2014"/>
</g>
</g>
</svg>
