<?xml version="1.0" encoding="UTF-8" standalone="no"?>
<!DOCTYPE svg PUBLIC "-//W3C//DTD SVG 1.1//EN"
 "http://www.w3.org/Graphics/SVG/1.1/DTD/svg11.dtd">
<!-- Generated by graphviz version 2.30.1 (20130221.2233)
 -->
<!-- Title: code/om/null.hpp Pages: 1 -->
<svg width="1500pt" height="320pt"
 viewBox="0.00 0.00 1500.00 320.00" xmlns="http://www.w3.org/2000/svg" xmlns:xlink="http://www.w3.org/1999/xlink">
<g id="graph0" class="graph" transform="scale(1 1) rotate(0) translate(4 316)">
<title>code/om/null.hpp</title>
<!-- Node1 -->
<g id="node1" class="node"><title>Node1</title>
<polygon fill="#bfbfbf" stroke="black" points="1364.92,-291 1364.92,-311 1457.08,-311 1457.08,-291 1364.92,-291"/>
<text text-anchor="middle" x="1411" y="-297" font-family="Helvetica,sans-Serif" font-size="10.00">code/om/null.hpp</text>
</g>
<!-- Node2 -->
<g id="node2" class="node"><title>Node2</title>
<g id="a_node2"><a xlink:href="default__program_8hpp.html" target="_top" xlink:title="Om header file.">
<polygon fill="none" stroke="black" points="1177.52,-233 1177.52,-253 1302.48,-253 1302.48,-233 1177.52,-233"/>
<text text-anchor="middle" x="1240" y="-239" font-family="Helvetica,sans-Serif" font-size="10.00">om/default_program.hpp</text>
</a>
</g>
</g>
<!-- Node1&#45;&gt;Node2 -->
<g id="edge1" class="edge"><title>Node1&#45;&gt;Node2</title>
<path fill="none" stroke="midnightblue" d="M1383.15,-290.878C1354.37,-281.453 1309.28,-266.688 1277.41,-256.25"/>
<polygon fill="midnightblue" stroke="midnightblue" points="1278.15,-252.811 1267.56,-253.025 1275.97,-259.464 1278.15,-252.811"/>
</g>
<!-- Node30 -->
<g id="node30" class="node"><title>Node30</title>
<polygon fill="none" stroke="#bfbfbf" points="1320.98,-233 1320.98,-253 1407.02,-253 1407.02,-233 1320.98,-233"/>
<text text-anchor="middle" x="1364" y="-239" font-family="Helvetica,sans-Serif" font-size="10.00">boost/swap.hpp</text>
</g>
<!-- Node1&#45;&gt;Node30 -->
<g id="edge48" class="edge"><title>Node1&#45;&gt;Node30</title>
<path fill="none" stroke="midnightblue" d="M1403.24,-290.753C1396.46,-282.68 1386.46,-270.757 1378.24,-260.973"/>
<polygon fill="midnightblue" stroke="midnightblue" points="1380.73,-258.485 1371.62,-253.075 1375.36,-262.985 1380.73,-258.485"/>
</g>
<!-- Node31 -->
<g id="node31" class="node"><title>Node31</title>
<g id="a_node31"><a xlink:href="null_8cpp.html" target="_top" xlink:title="Om source file.">
<polygon fill="none" stroke="black" points="1425.43,-233 1425.43,-253 1492.57,-253 1492.57,-233 1425.43,-233"/>
<text text-anchor="middle" x="1459" y="-239" font-family="Helvetica,sans-Serif" font-size="10.00">om/null.cpp</text>
</a>
</g>
</g>
<!-- Node1&#45;&gt;Node31 -->
<g id="edge49" class="edge"><title>Node1&#45;&gt;Node31</title>
<path fill="none" stroke="midnightblue" d="M1413.76,-290.753C1419.14,-282.516 1429.29,-270.274 1438.75,-260.382"/>
<polygon fill="midnightblue" stroke="midnightblue" points="1441.47,-262.612 1446.09,-253.075 1436.53,-257.652 1441.47,-262.612"/>
</g>
<!-- Node3 -->
<g id="node3" class="node"><title>Node3</title>
<g id="a_node3"><a xlink:href="default__consumer_8hpp.html" target="_top" xlink:title="Om header file.">
<polygon fill="none" stroke="black" points="1114.46,-175 1114.46,-195 1245.54,-195 1245.54,-175 1114.46,-175"/>
<text text-anchor="middle" x="1180" y="-181" font-family="Helvetica,sans-Serif" font-size="10.00">om/default_consumer.hpp</text>
</a>
</g>
</g>
<!-- Node2&#45;&gt;Node3 -->
<g id="edge2" class="edge"><title>Node2&#45;&gt;Node3</title>
<path fill="none" stroke="midnightblue" d="M1230.09,-232.753C1221.18,-224.435 1207.89,-212.031 1197.24,-202.089"/>
<polygon fill="midnightblue" stroke="midnightblue" points="1199.42,-199.34 1189.72,-195.075 1194.65,-204.457 1199.42,-199.34"/>
</g>
<!-- Node7 -->
<g id="node7" class="node"><title>Node7</title>
<g id="a_node7"><a xlink:href="default__giveable_8hpp.html" target="_top" xlink:title="Om header file.">
<polygon fill="none" stroke="black" points="842.515,-175 842.515,-195 967.485,-195 967.485,-175 842.515,-175"/>
<text text-anchor="middle" x="905" y="-181" font-family="Helvetica,sans-Serif" font-size="10.00">om/default_giveable.hpp</text>
</a>
</g>
</g>
<!-- Node2&#45;&gt;Node7 -->
<g id="edge8" class="edge"><title>Node2&#45;&gt;Node7</title>
<path fill="none" stroke="midnightblue" d="M1185.8,-232.94C1126.6,-223.044 1031.85,-207.205 969.024,-196.703"/>
<polygon fill="midnightblue" stroke="midnightblue" points="969.281,-193.197 958.841,-195 968.127,-200.101 969.281,-193.197"/>
</g>
<!-- Node20 -->
<g id="node20" class="node"><title>Node20</title>
<g id="a_node20"><a xlink:href="program_8hpp.html" target="_top" xlink:title="Om header file.">
<polygon fill="none" stroke="black" points="234.315,-175 234.315,-195 323.685,-195 323.685,-175 234.315,-175"/>
<text text-anchor="middle" x="279" y="-181" font-family="Helvetica,sans-Serif" font-size="10.00">om/program.hpp</text>
</a>
</g>
</g>
<!-- Node2&#45;&gt;Node20 -->
<g id="edge30" class="edge"><title>Node2&#45;&gt;Node20</title>
<path fill="none" stroke="midnightblue" d="M1177.32,-238.347C1000.67,-228.053 500.812,-198.926 333.977,-189.204"/>
<polygon fill="midnightblue" stroke="midnightblue" points="334.128,-185.707 323.942,-188.619 333.721,-192.695 334.128,-185.707"/>
</g>
<!-- Node27 -->
<g id="node27" class="node"><title>Node27</title>
<g id="a_node27"><a xlink:href="taker_8hpp.html" target="_top" xlink:title="Om header file.">
<polygon fill="none" stroke="black" points="1263.09,-175 1263.09,-195 1336.91,-195 1336.91,-175 1263.09,-175"/>
<text text-anchor="middle" x="1300" y="-181" font-family="Helvetica,sans-Serif" font-size="10.00">om/taker.hpp</text>
</a>
</g>
</g>
<!-- Node2&#45;&gt;Node27 -->
<g id="edge43" class="edge"><title>Node2&#45;&gt;Node27</title>
<path fill="none" stroke="midnightblue" d="M1249.91,-232.753C1258.82,-224.435 1272.11,-212.031 1282.76,-202.089"/>
<polygon fill="midnightblue" stroke="midnightblue" points="1285.35,-204.457 1290.28,-195.075 1280.58,-199.34 1285.35,-204.457"/>
</g>
<!-- Node29 -->
<g id="node29" class="node"><title>Node29</title>
<g id="a_node29"><a xlink:href="default__program_8cpp.html" target="_top" xlink:title="Om source file.">
<polygon fill="none" stroke="black" points="1354.8,-175 1354.8,-195 1479.2,-195 1479.2,-175 1354.8,-175"/>
<text text-anchor="middle" x="1417" y="-181" font-family="Helvetica,sans-Serif" font-size="10.00">om/default_program.cpp</text>
</a>
</g>
</g>
<!-- Node2&#45;&gt;Node29 -->
<g id="edge46" class="edge"><title>Node2&#45;&gt;Node29</title>
<path fill="none" stroke="midnightblue" d="M1263.69,-232.878C1291.78,-223.372 1338.83,-208.432 1373.48,-197.98"/>
<polygon fill="midnightblue" stroke="midnightblue" points="1374.78,-201.246 1383.35,-195.025 1372.77,-194.54 1374.78,-201.246"/>
</g>
<!-- Node4 -->
<g id="node4" class="node"><title>Node4</title>
<g id="a_node4"><a xlink:href="consumer_8hpp.html" target="_top" xlink:title="Om header file.">
<polygon fill="none" stroke="black" points="859.254,-117 859.254,-137 954.746,-137 954.746,-117 859.254,-117"/>
<text text-anchor="middle" x="907" y="-123" font-family="Helvetica,sans-Serif" font-size="10.00">om/consumer.hpp</text>
</a>
</g>
</g>
<!-- Node3&#45;&gt;Node4 -->
<g id="edge3" class="edge"><title>Node3&#45;&gt;Node4</title>
<path fill="none" stroke="midnightblue" d="M1135.83,-174.94C1088.16,-165.16 1012.19,-149.577 960.994,-139.076"/>
<polygon fill="midnightblue" stroke="midnightblue" points="961.601,-135.627 951.102,-137.047 960.195,-142.485 961.601,-135.627"/>
</g>
<!-- Node6 -->
<g id="node6" class="node"><title>Node6</title>
<g id="a_node6"><a xlink:href="default__consumer_8cpp.html" target="_top" xlink:title="Om source file.">
<polygon fill="none" stroke="black" points="1114.74,-117 1114.74,-137 1245.26,-137 1245.26,-117 1114.74,-117"/>
<text text-anchor="middle" x="1180" y="-123" font-family="Helvetica,sans-Serif" font-size="10.00">om/default_consumer.cpp</text>
</a>
</g>
</g>
<!-- Node3&#45;&gt;Node6 -->
<g id="edge6" class="edge"><title>Node3&#45;&gt;Node6</title>
<path fill="none" stroke="midnightblue" d="M1174.83,-174.753C1173.31,-167.25 1172.88,-156.424 1173.56,-147.078"/>
<polygon fill="midnightblue" stroke="midnightblue" points="1177.05,-147.444 1174.87,-137.075 1170.1,-146.538 1177.05,-147.444"/>
</g>
<!-- Node5 -->
<g id="node5" class="node"><title>Node5</title>
<g id="a_node5"><a xlink:href="consumer_8cpp.html" target="_top" xlink:title="Om source file.">
<polygon fill="none" stroke="black" points="968.535,-59 968.535,-79 1063.47,-79 1063.47,-59 968.535,-59"/>
<text text-anchor="middle" x="1016" y="-65" font-family="Helvetica,sans-Serif" font-size="10.00">om/consumer.cpp</text>
</a>
</g>
</g>
<!-- Node4&#45;&gt;Node5 -->
<g id="edge4" class="edge"><title>Node4&#45;&gt;Node5</title>
<path fill="none" stroke="midnightblue" d="M919.833,-116.753C935.681,-107.66 962.654,-93.685 984.1,-83.3808"/>
<polygon fill="midnightblue" stroke="midnightblue" points="985.661,-86.5145 993.205,-79.0752 982.668,-80.1864 985.661,-86.5145"/>
</g>
<!-- Node5&#45;&gt;Node4 -->
<g id="edge5" class="edge"><title>Node5&#45;&gt;Node4</title>
<path fill="none" stroke="midnightblue" d="M1003.39,-79.1181C987.608,-88.1879 960.562,-102.207 939.036,-112.554"/>
<polygon fill="midnightblue" stroke="midnightblue" points="937.438,-109.437 929.896,-116.878 940.432,-115.765 937.438,-109.437"/>
</g>
<!-- Node6&#45;&gt;Node3 -->
<g id="edge7" class="edge"><title>Node6&#45;&gt;Node3</title>
<path fill="none" stroke="midnightblue" d="M1185.13,-137.075C1186.67,-144.526 1187.11,-155.338 1186.45,-164.707"/>
<polygon fill="midnightblue" stroke="midnightblue" points="1182.96,-164.389 1185.17,-174.753 1189.91,-165.278 1182.96,-164.389"/>
</g>
<!-- Node8 -->
<g id="node8" class="node"><title>Node8</title>
<g id="a_node8"><a xlink:href="default__copyable_8hpp.html" target="_top" xlink:title="Om header file.">
<polygon fill="none" stroke="black" points="713.126,-117 713.126,-137 840.874,-137 840.874,-117 713.126,-117"/>
<text text-anchor="middle" x="777" y="-123" font-family="Helvetica,sans-Serif" font-size="10.00">om/default_copyable.hpp</text>
</a>
</g>
</g>
<!-- Node7&#45;&gt;Node8 -->
<g id="edge9" class="edge"><title>Node7&#45;&gt;Node8</title>
<path fill="none" stroke="midnightblue" d="M884.15,-174.878C863.23,-165.725 830.796,-151.536 807.09,-141.164"/>
<polygon fill="midnightblue" stroke="midnightblue" points="808.406,-137.92 797.841,-137.118 805.6,-144.333 808.406,-137.92"/>
</g>
<!-- Node13 -->
<g id="node13" class="node"><title>Node13</title>
<g id="a_node13"><a xlink:href="default__moveable_8hpp.html" target="_top" xlink:title="Om header file.">
<polygon fill="none" stroke="black" points="564.461,-117 564.461,-137 695.539,-137 695.539,-117 564.461,-117"/>
<text text-anchor="middle" x="630" y="-123" font-family="Helvetica,sans-Serif" font-size="10.00">om/default_moveable.hpp</text>
</a>
</g>
</g>
<!-- Node7&#45;&gt;Node13 -->
<g id="edge16" class="edge"><title>Node7&#45;&gt;Node13</title>
<path fill="none" stroke="midnightblue" d="M860.511,-174.94C812.484,-165.16 735.957,-149.577 684.39,-139.076"/>
<polygon fill="midnightblue" stroke="midnightblue" points="684.923,-135.612 674.425,-137.047 683.526,-142.472 684.923,-135.612"/>
</g>
<!-- Node17 -->
<g id="node17" class="node"><title>Node17</title>
<g id="a_node17"><a xlink:href="giveable_8hpp.html" target="_top" xlink:title="Om header file.">
<polygon fill="none" stroke="black" points="399.308,-117 399.308,-137 488.692,-137 488.692,-117 399.308,-117"/>
<text text-anchor="middle" x="444" y="-123" font-family="Helvetica,sans-Serif" font-size="10.00">om/giveable.hpp</text>
</a>
</g>
</g>
<!-- Node7&#45;&gt;Node17 -->
<g id="edge23" class="edge"><title>Node7&#45;&gt;Node17</title>
<path fill="none" stroke="midnightblue" d="M842.348,-176.389C751.624,-165.369 585.131,-145.144 498.942,-134.674"/>
<polygon fill="midnightblue" stroke="midnightblue" points="499.188,-131.178 488.839,-133.447 498.344,-138.127 499.188,-131.178"/>
</g>
<!-- Node19 -->
<g id="node19" class="node"><title>Node19</title>
<g id="a_node19"><a xlink:href="default__giveable_8cpp.html" target="_top" xlink:title="Om source file.">
<polygon fill="none" stroke="black" points="972.796,-117 972.796,-137 1097.2,-137 1097.2,-117 972.796,-117"/>
<text text-anchor="middle" x="1035" y="-123" font-family="Helvetica,sans-Serif" font-size="10.00">om/default_giveable.cpp</text>
</a>
</g>
</g>
<!-- Node7&#45;&gt;Node19 -->
<g id="edge28" class="edge"><title>Node7&#45;&gt;Node19</title>
<path fill="none" stroke="midnightblue" d="M921.035,-174.878C940.568,-165.644 973.691,-151.283 999.293,-140.889"/>
<polygon fill="midnightblue" stroke="midnightblue" points="1000.71,-144.089 1008.69,-137.118 998.109,-137.593 1000.71,-144.089"/>
</g>
<!-- Node9 -->
<g id="node9" class="node"><title>Node9</title>
<g id="a_node9"><a xlink:href="copyable_8hpp.html" target="_top" xlink:title="Om header file.">
<polygon fill="none" stroke="black" points="712.919,-59 712.919,-79 805.081,-79 805.081,-59 712.919,-59"/>
<text text-anchor="middle" x="759" y="-65" font-family="Helvetica,sans-Serif" font-size="10.00">om/copyable.hpp</text>
</a>
</g>
</g>
<!-- Node8&#45;&gt;Node9 -->
<g id="edge10" class="edge"><title>Node8&#45;&gt;Node9</title>
<path fill="none" stroke="midnightblue" d="M774.028,-116.753C771.59,-109.169 768.06,-98.1881 765.034,-88.7739"/>
<polygon fill="midnightblue" stroke="midnightblue" points="768.309,-87.5244 761.917,-79.0752 761.645,-89.6665 768.309,-87.5244"/>
</g>
<!-- Node12 -->
<g id="node12" class="node"><title>Node12</title>
<g id="a_node12"><a xlink:href="default__copyable_8cpp.html" target="_top" xlink:title="Om source file.">
<polygon fill="none" stroke="black" points="823.407,-59 823.407,-79 950.593,-79 950.593,-59 823.407,-59"/>
<text text-anchor="middle" x="887" y="-65" font-family="Helvetica,sans-Serif" font-size="10.00">om/default_copyable.cpp</text>
</a>
</g>
</g>
<!-- Node8&#45;&gt;Node12 -->
<g id="edge14" class="edge"><title>Node8&#45;&gt;Node12</title>
<path fill="none" stroke="midnightblue" d="M789.998,-116.753C806.009,-107.66 833.231,-93.685 854.862,-83.3808"/>
<polygon fill="midnightblue" stroke="midnightblue" points="856.475,-86.49 864.043,-79.0752 853.503,-80.1523 856.475,-86.49"/>
</g>
<!-- Node10 -->
<g id="node10" class="node"><title>Node10</title>
<polygon fill="none" stroke="#bfbfbf" points="564.943,-1 564.943,-21 617.057,-21 617.057,-1 564.943,-1"/>
<text text-anchor="middle" x="591" y="-7" font-family="Helvetica,sans-Serif" font-size="10.00">memory</text>
</g>
<!-- Node9&#45;&gt;Node10 -->
<g id="edge11" class="edge"><title>Node9&#45;&gt;Node10</title>
<path fill="none" stroke="midnightblue" d="M731.634,-58.878C703.109,-49.3695 658.273,-34.4244 626.917,-23.9722"/>
<polygon fill="midnightblue" stroke="midnightblue" points="627.841,-20.591 617.247,-20.749 625.627,-27.2318 627.841,-20.591"/>
</g>
<!-- Node11 -->
<g id="node11" class="node"><title>Node11</title>
<g id="a_node11"><a xlink:href="copyable_8cpp.html" target="_top" xlink:title="Om source file.">
<polygon fill="none" stroke="black" points="713.2,-1 713.2,-21 804.8,-21 804.8,-1 713.2,-1"/>
<text text-anchor="middle" x="759" y="-7" font-family="Helvetica,sans-Serif" font-size="10.00">om/copyable.cpp</text>
</a>
</g>
</g>
<!-- Node9&#45;&gt;Node11 -->
<g id="edge12" class="edge"><title>Node9&#45;&gt;Node11</title>
<path fill="none" stroke="midnightblue" d="M753.834,-58.7527C752.308,-51.2504 751.884,-40.4238 752.564,-31.0781"/>
<polygon fill="midnightblue" stroke="midnightblue" points="756.046,-31.4439 753.869,-21.0752 749.105,-30.5385 756.046,-31.4439"/>
</g>
<!-- Node11&#45;&gt;Node9 -->
<g id="edge13" class="edge"><title>Node11&#45;&gt;Node9</title>
<path fill="none" stroke="midnightblue" d="M764.131,-21.0752C765.674,-28.5262 766.114,-39.3384 765.451,-48.7065"/>
<polygon fill="midnightblue" stroke="midnightblue" points="761.963,-48.3895 764.166,-58.7527 768.907,-49.2776 761.963,-48.3895"/>
</g>
<!-- Node12&#45;&gt;Node8 -->
<g id="edge15" class="edge"><title>Node12&#45;&gt;Node8</title>
<path fill="none" stroke="midnightblue" d="M874.229,-79.1181C858.284,-88.1879 830.987,-102.207 809.276,-112.554"/>
<polygon fill="midnightblue" stroke="midnightblue" points="807.625,-109.462 800.059,-116.878 810.599,-115.799 807.625,-109.462"/>
</g>
<!-- Node14 -->
<g id="node14" class="node"><title>Node14</title>
<g id="a_node14"><a xlink:href="moveable_8hpp.html" target="_top" xlink:title="Om header file.">
<polygon fill="none" stroke="black" points="451.254,-59 451.254,-79 546.746,-79 546.746,-59 451.254,-59"/>
<text text-anchor="middle" x="499" y="-65" font-family="Helvetica,sans-Serif" font-size="10.00">om/moveable.hpp</text>
</a>
</g>
</g>
<!-- Node13&#45;&gt;Node14 -->
<g id="edge17" class="edge"><title>Node13&#45;&gt;Node14</title>
<path fill="none" stroke="midnightblue" d="M608.661,-116.878C587.251,-107.725 554.057,-93.5357 529.795,-83.1643"/>
<polygon fill="midnightblue" stroke="midnightblue" points="530.901,-79.8306 520.33,-79.1181 528.149,-86.2672 530.901,-79.8306"/>
</g>
<!-- Node16 -->
<g id="node16" class="node"><title>Node16</title>
<g id="a_node16"><a xlink:href="default__moveable_8cpp.html" target="_top" xlink:title="Om source file.">
<polygon fill="none" stroke="black" points="564.742,-59 564.742,-79 695.258,-79 695.258,-59 564.742,-59"/>
<text text-anchor="middle" x="630" y="-65" font-family="Helvetica,sans-Serif" font-size="10.00">om/default_moveable.cpp</text>
</a>
</g>
</g>
<!-- Node13&#45;&gt;Node16 -->
<g id="edge21" class="edge"><title>Node13&#45;&gt;Node16</title>
<path fill="none" stroke="midnightblue" d="M624.834,-116.753C623.308,-109.25 622.884,-98.4238 623.564,-89.0781"/>
<polygon fill="midnightblue" stroke="midnightblue" points="627.046,-89.4439 624.869,-79.0752 620.105,-88.5385 627.046,-89.4439"/>
</g>
<!-- Node14&#45;&gt;Node10 -->
<g id="edge18" class="edge"><title>Node14&#45;&gt;Node10</title>
<path fill="none" stroke="midnightblue" d="M514.192,-58.7527C528.661,-49.9457 550.655,-36.5575 567.406,-26.3617"/>
<polygon fill="midnightblue" stroke="midnightblue" points="569.369,-29.2644 576.091,-21.0752 565.729,-23.285 569.369,-29.2644"/>
</g>
<!-- Node15 -->
<g id="node15" class="node"><title>Node15</title>
<g id="a_node15"><a xlink:href="moveable_8cpp.html" target="_top" xlink:title="Om source file.">
<polygon fill="none" stroke="black" points="451.535,-1 451.535,-21 546.465,-21 546.465,-1 451.535,-1"/>
<text text-anchor="middle" x="499" y="-7" font-family="Helvetica,sans-Serif" font-size="10.00">om/moveable.cpp</text>
</a>
</g>
</g>
<!-- Node14&#45;&gt;Node15 -->
<g id="edge19" class="edge"><title>Node14&#45;&gt;Node15</title>
<path fill="none" stroke="midnightblue" d="M493.834,-58.7527C492.308,-51.2504 491.884,-40.4238 492.564,-31.0781"/>
<polygon fill="midnightblue" stroke="midnightblue" points="496.046,-31.4439 493.869,-21.0752 489.105,-30.5385 496.046,-31.4439"/>
</g>
<!-- Node15&#45;&gt;Node14 -->
<g id="edge20" class="edge"><title>Node15&#45;&gt;Node14</title>
<path fill="none" stroke="midnightblue" d="M504.131,-21.0752C505.674,-28.5262 506.114,-39.3384 505.451,-48.7065"/>
<polygon fill="midnightblue" stroke="midnightblue" points="501.963,-48.3895 504.166,-58.7527 508.907,-49.2776 501.963,-48.3895"/>
</g>
<!-- Node16&#45;&gt;Node13 -->
<g id="edge22" class="edge"><title>Node16&#45;&gt;Node13</title>
<path fill="none" stroke="midnightblue" d="M635.131,-79.0752C636.674,-86.5262 637.114,-97.3384 636.451,-106.707"/>
<polygon fill="midnightblue" stroke="midnightblue" points="632.963,-106.389 635.166,-116.753 639.907,-107.278 632.963,-106.389"/>
</g>
<!-- Node17&#45;&gt;Node9 -->
<g id="edge24" class="edge"><title>Node17&#45;&gt;Node9</title>
<path fill="none" stroke="midnightblue" d="M489.103,-118.087C538.939,-109.329 621.854,-94.7134 702.915,-80.1888"/>
<polygon fill="midnightblue" stroke="midnightblue" points="703.564,-83.6284 712.789,-78.4183 702.329,-76.7383 703.564,-83.6284"/>
</g>
<!-- Node17&#45;&gt;Node14 -->
<g id="edge25" class="edge"><title>Node17&#45;&gt;Node14</title>
<path fill="none" stroke="midnightblue" d="M453.082,-116.753C461.171,-108.516 473.195,-96.2738 482.91,-86.3824"/>
<polygon fill="midnightblue" stroke="midnightblue" points="485.577,-88.6622 490.087,-79.0752 480.583,-83.7572 485.577,-88.6622"/>
</g>
<!-- Node18 -->
<g id="node18" class="node"><title>Node18</title>
<g id="a_node18"><a xlink:href="giveable_8cpp.html" target="_top" xlink:title="Om source file.">
<polygon fill="none" stroke="black" points="344.589,-59 344.589,-79 433.411,-79 433.411,-59 344.589,-59"/>
<text text-anchor="middle" x="389" y="-65" font-family="Helvetica,sans-Serif" font-size="10.00">om/giveable.cpp</text>
</a>
</g>
</g>
<!-- Node17&#45;&gt;Node18 -->
<g id="edge26" class="edge"><title>Node17&#45;&gt;Node18</title>
<path fill="none" stroke="midnightblue" d="M429.752,-116.753C420.18,-108.68 408.106,-96.7571 399.408,-86.9727"/>
<polygon fill="midnightblue" stroke="midnightblue" points="401.891,-84.4864 392.782,-79.0752 396.528,-88.9856 401.891,-84.4864"/>
</g>
<!-- Node18&#45;&gt;Node17 -->
<g id="edge27" class="edge"><title>Node18&#45;&gt;Node17</title>
<path fill="none" stroke="midnightblue" d="M403.044,-79.0752C412.579,-87.0932 424.66,-99.0032 433.405,-108.818"/>
<polygon fill="midnightblue" stroke="midnightblue" points="430.967,-111.356 440.084,-116.753 436.322,-106.848 430.967,-111.356"/>
</g>
<!-- Node19&#45;&gt;Node7 -->
<g id="edge29" class="edge"><title>Node19&#45;&gt;Node7</title>
<path fill="none" stroke="midnightblue" d="M1018.97,-137.118C999.444,-146.351 966.322,-160.711 940.718,-171.107"/>
<polygon fill="midnightblue" stroke="midnightblue" points="939.295,-167.907 931.317,-174.878 941.901,-174.403 939.295,-167.907"/>
</g>
<!-- Node20&#45;&gt;Node4 -->
<g id="edge31" class="edge"><title>Node20&#45;&gt;Node4</title>
<path fill="none" stroke="midnightblue" d="M323.85,-181.76C420.244,-176.643 654.221,-162.6 849,-138 849.101,-137.987 849.203,-137.974 849.304,-137.961"/>
<polygon fill="midnightblue" stroke="midnightblue" points="849.517,-141.465 858.943,-136.629 848.558,-134.531 849.517,-141.465"/>
</g>
<!-- Node20&#45;&gt;Node17 -->
<g id="edge32" class="edge"><title>Node20&#45;&gt;Node17</title>
<path fill="none" stroke="midnightblue" d="M305.877,-174.878C333.646,-165.453 377.152,-150.688 407.907,-140.25"/>
<polygon fill="midnightblue" stroke="midnightblue" points="409.063,-143.554 417.408,-137.025 406.813,-136.925 409.063,-143.554"/>
</g>
<!-- Node21 -->
<g id="node21" class="node"><title>Node21</title>
<g id="a_node21"><a xlink:href="producer_8hpp.html" target="_top" xlink:title="Om header file.">
<polygon fill="none" stroke="black" points="106.473,-117 106.473,-137 197.527,-137 197.527,-117 106.473,-117"/>
<text text-anchor="middle" x="152" y="-123" font-family="Helvetica,sans-Serif" font-size="10.00">om/producer.hpp</text>
</a>
</g>
</g>
<!-- Node20&#45;&gt;Node21 -->
<g id="edge33" class="edge"><title>Node20&#45;&gt;Node21</title>
<path fill="none" stroke="midnightblue" d="M258.313,-174.878C237.556,-165.725 205.376,-151.536 181.855,-141.164"/>
<polygon fill="midnightblue" stroke="midnightblue" points="183.241,-137.95 172.679,-137.118 180.416,-144.355 183.241,-137.95"/>
</g>
<!-- Node23 -->
<g id="node23" class="node"><title>Node23</title>
<g id="a_node23"><a xlink:href="shareable_8hpp.html" target="_top" xlink:title="Om header file.">
<polygon fill="none" stroke="black" points="230.973,-117 230.973,-137 327.027,-137 327.027,-117 230.973,-117"/>
<text text-anchor="middle" x="279" y="-123" font-family="Helvetica,sans-Serif" font-size="10.00">om/shareable.hpp</text>
</a>
</g>
</g>
<!-- Node20&#45;&gt;Node23 -->
<g id="edge37" class="edge"><title>Node20&#45;&gt;Node23</title>
<path fill="none" stroke="midnightblue" d="M279,-174.753C279,-167.25 279,-156.424 279,-147.078"/>
<polygon fill="midnightblue" stroke="midnightblue" points="282.5,-147.075 279,-137.075 275.5,-147.075 282.5,-147.075"/>
</g>
<!-- Node26 -->
<g id="node26" class="node"><title>Node26</title>
<g id="a_node26"><a xlink:href="program_8cpp.html" target="_top" xlink:title="Om source file.">
<polygon fill="none" stroke="black" points="-0.403809,-117 -0.403809,-137 88.4038,-137 88.4038,-117 -0.403809,-117"/>
<text text-anchor="middle" x="44" y="-123" font-family="Helvetica,sans-Serif" font-size="10.00">om/program.cpp</text>
</a>
</g>
</g>
<!-- Node20&#45;&gt;Node26 -->
<g id="edge41" class="edge"><title>Node20&#45;&gt;Node26</title>
<path fill="none" stroke="midnightblue" d="M235.854,-174.94C193.323,-165.283 128.897,-149.965 86.5696,-139.472"/>
<polygon fill="midnightblue" stroke="midnightblue" points="87.3879,-136.069 76.8383,-137.047 85.695,-142.861 87.3879,-136.069"/>
</g>
<!-- Node21&#45;&gt;Node10 -->
<g id="edge34" class="edge"><title>Node21&#45;&gt;Node10</title>
<path fill="none" stroke="midnightblue" d="M149.177,-116.597C145.415,-101.918 140.856,-73.6248 156,-58 186.98,-26.0367 511.209,-29.9896 555,-22 555.1,-21.9818 555.2,-21.9635 555.299,-21.945"/>
<polygon fill="midnightblue" stroke="midnightblue" points="555.759,-25.4273 564.781,-19.8738 554.265,-18.5885 555.759,-25.4273"/>
</g>
<!-- Node22 -->
<g id="node22" class="node"><title>Node22</title>
<g id="a_node22"><a xlink:href="producer_8cpp.html" target="_top" xlink:title="Om source file.">
<polygon fill="none" stroke="black" points="18.7539,-59 18.7539,-79 109.246,-79 109.246,-59 18.7539,-59"/>
<text text-anchor="middle" x="64" y="-65" font-family="Helvetica,sans-Serif" font-size="10.00">om/producer.cpp</text>
</a>
</g>
</g>
<!-- Node21&#45;&gt;Node22 -->
<g id="edge35" class="edge"><title>Node21&#45;&gt;Node22</title>
<path fill="none" stroke="midnightblue" d="M132.302,-116.753C116.961,-108.109 96.1483,-95.0518 81.4149,-84.9314"/>
<polygon fill="midnightblue" stroke="midnightblue" points="83.3162,-81.9893 73.13,-79.0752 79.2757,-87.7055 83.3162,-81.9893"/>
</g>
<!-- Node22&#45;&gt;Node21 -->
<g id="edge36" class="edge"><title>Node22&#45;&gt;Node21</title>
<path fill="none" stroke="midnightblue" d="M83.392,-79.0752C98.6604,-87.6601 119.476,-100.707 134.29,-110.866"/>
<polygon fill="midnightblue" stroke="midnightblue" points="132.446,-113.848 142.635,-116.753 136.481,-108.128 132.446,-113.848"/>
</g>
<!-- Node24 -->
<g id="node24" class="node"><title>Node24</title>
<polygon fill="none" stroke="#bfbfbf" points="164.879,-59 164.879,-79 213.121,-79 213.121,-59 164.879,-59"/>
<text text-anchor="middle" x="189" y="-65" font-family="Helvetica,sans-Serif" font-size="10.00">cstddef</text>
</g>
<!-- Node23&#45;&gt;Node24 -->
<g id="edge38" class="edge"><title>Node23&#45;&gt;Node24</title>
<path fill="none" stroke="midnightblue" d="M264.138,-116.753C249.984,-107.946 228.467,-94.5575 212.081,-84.3617"/>
<polygon fill="midnightblue" stroke="midnightblue" points="213.925,-81.3866 203.585,-79.0752 210.227,-87.33 213.925,-81.3866"/>
</g>
<!-- Node25 -->
<g id="node25" class="node"><title>Node25</title>
<g id="a_node25"><a xlink:href="shareable_8cpp.html" target="_top" xlink:title="Om source file.">
<polygon fill="none" stroke="black" points="231.254,-59 231.254,-79 326.746,-79 326.746,-59 231.254,-59"/>
<text text-anchor="middle" x="279" y="-65" font-family="Helvetica,sans-Serif" font-size="10.00">om/shareable.cpp</text>
</a>
</g>
</g>
<!-- Node23&#45;&gt;Node25 -->
<g id="edge39" class="edge"><title>Node23&#45;&gt;Node25</title>
<path fill="none" stroke="midnightblue" d="M273.834,-116.753C272.308,-109.25 271.884,-98.4238 272.564,-89.0781"/>
<polygon fill="midnightblue" stroke="midnightblue" points="276.046,-89.4439 273.869,-79.0752 269.105,-88.5385 276.046,-89.4439"/>
</g>
<!-- Node25&#45;&gt;Node23 -->
<g id="edge40" class="edge"><title>Node25&#45;&gt;Node23</title>
<path fill="none" stroke="midnightblue" d="M284.131,-79.0752C285.674,-86.5262 286.114,-97.3384 285.451,-106.707"/>
<polygon fill="midnightblue" stroke="midnightblue" points="281.963,-106.389 284.166,-116.753 288.907,-107.278 281.963,-106.389"/>
</g>
<!-- Node26&#45;&gt;Node20 -->
<g id="edge42" class="edge"><title>Node26&#45;&gt;Node20</title>
<path fill="none" stroke="midnightblue" d="M86.9947,-137.025C129.418,-146.657 193.731,-161.946 236.113,-172.449"/>
<polygon fill="midnightblue" stroke="midnightblue" points="235.311,-175.857 245.861,-174.878 237.004,-169.064 235.311,-175.857"/>
</g>
<!-- Node28 -->
<g id="node28" class="node"><title>Node28</title>
<g id="a_node28"><a xlink:href="taker_8cpp.html" target="_top" xlink:title="Om source file.">
<polygon fill="none" stroke="black" points="1263.37,-117 1263.37,-137 1336.63,-137 1336.63,-117 1263.37,-117"/>
<text text-anchor="middle" x="1300" y="-123" font-family="Helvetica,sans-Serif" font-size="10.00">om/taker.cpp</text>
</a>
</g>
</g>
<!-- Node27&#45;&gt;Node28 -->
<g id="edge44" class="edge"><title>Node27&#45;&gt;Node28</title>
<path fill="none" stroke="midnightblue" d="M1294.83,-174.753C1293.31,-167.25 1292.88,-156.424 1293.56,-147.078"/>
<polygon fill="midnightblue" stroke="midnightblue" points="1297.05,-147.444 1294.87,-137.075 1290.1,-146.538 1297.05,-147.444"/>
</g>
<!-- Node28&#45;&gt;Node27 -->
<g id="edge45" class="edge"><title>Node28&#45;&gt;Node27</title>
<path fill="none" stroke="midnightblue" d="M1305.13,-137.075C1306.67,-144.526 1307.11,-155.338 1306.45,-164.707"/>
<polygon fill="midnightblue" stroke="midnightblue" points="1302.96,-164.389 1305.17,-174.753 1309.91,-165.278 1302.96,-164.389"/>
</g>
<!-- Node29&#45;&gt;Node2 -->
<g id="edge47" class="edge"><title>Node29&#45;&gt;Node2</title>
<path fill="none" stroke="midnightblue" d="M1393.59,-195.025C1365.64,-204.494 1318.61,-219.431 1283.87,-229.914"/>
<polygon fill="midnightblue" stroke="midnightblue" points="1282.55,-226.656 1273.97,-232.878 1284.56,-233.362 1282.55,-226.656"/>
</g>
<!-- Node31&#45;&gt;Node1 -->
<g id="edge50" class="edge"><title>Node31&#45;&gt;Node1</title>
<path fill="none" stroke="midnightblue" d="M1456.35,-253.075C1451.03,-261.255 1440.92,-273.486 1431.45,-283.41"/>
<polygon fill="midnightblue" stroke="midnightblue" points="1428.7,-281.21 1424.09,-290.753 1433.64,-286.163 1428.7,-281.21"/>
</g>
</g>
</svg>
