<?xml version="1.0" encoding="UTF-8" standalone="no"?>
<!DOCTYPE svg PUBLIC "-//W3C//DTD SVG 1.1//EN"
 "http://www.w3.org/Graphics/SVG/1.1/DTD/svg11.dtd">
<!-- Generated by graphviz version 2.36.0 (20140111.2315)
 -->
<!-- Title: om/language/null.hpp Pages: 1 -->
<svg width="118pt" height="84pt"
 viewBox="0.00 0.00 118.00 84.00" xmlns="http://www.w3.org/2000/svg" xmlns:xlink="http://www.w3.org/1999/xlink">
<g id="graph0" class="graph" transform="scale(1 1) rotate(0) translate(4 80)">
<title>om/language/null.hpp</title>
<!-- Node1 -->
<g id="node1" class="node"><title>Node1</title>
<g id="a_node1"><a xlink:title="Om header file.">
<polygon fill="#bfbfbf" stroke="black" points="-0.814941,-57 -0.814941,-75 110.815,-75 110.815,-57 -0.814941,-57"/>
<text text-anchor="middle" x="55" y="-63" font-family="Helvetica,sans-Serif" font-size="10.00">om/language/null.hpp</text>
</a>
</g>
</g>
<!-- Node2 -->
<g id="node2" class="node"><title>Node2</title>
<g id="a_node2"><a xlink:href="null_8cpp.html" target="_top" xlink:title="Om source file.">
<polygon fill="none" stroke="black" points="-0.53418,-1 -0.53418,-19 110.534,-19 110.534,-1 -0.53418,-1"/>
<text text-anchor="middle" x="55" y="-7" font-family="Helvetica,sans-Serif" font-size="10.00">om/language/null.cpp</text>
</a>
</g>
</g>
<!-- Node1&#45;&gt;Node2 -->
<g id="edge1" class="edge"><title>Node1&#45;&gt;Node2</title>
<path fill="none" stroke="midnightblue" d="M48.5665,-46.6333C47.8607,-37.3129 48.3354,-26.4586 49.9906,-19.2014"/>
<polygon fill="midnightblue" stroke="midnightblue" points="45.1026,-47.1352 49.9375,-56.5625 52.0368,-46.1777 45.1026,-47.1352"/>
</g>
<!-- Node2&#45;&gt;Node1 -->
<g id="edge2" class="edge"><title>Node2&#45;&gt;Node1</title>
<path fill="none" stroke="midnightblue" d="M61.4336,-29.3691C62.1317,-38.5884 61.6746,-49.308 60.0625,-56.5625"/>
<polygon fill="midnightblue" stroke="midnightblue" points="64.8629,-28.6192 60.0094,-19.2014 57.9305,-29.5903 64.8629,-28.6192"/>
</g>
</g>
</svg>
