<?xml version="1.0" encoding="UTF-8" standalone="no"?>
<!DOCTYPE svg PUBLIC "-//W3C//DTD SVG 1.1//EN"
 "http://www.w3.org/Graphics/SVG/1.1/DTD/svg11.dtd">
<!-- Generated by graphviz version 2.30.1 (20130221.2233)
 -->
<!-- Title: code/om.external.hpp Pages: 1 -->
<svg width="136pt" height="204pt"
 viewBox="0.00 0.00 136.00 204.00" xmlns="http://www.w3.org/2000/svg" xmlns:xlink="http://www.w3.org/1999/xlink">
<g id="graph0" class="graph" transform="scale(1 1) rotate(0) translate(4 200)">
<title>code/om.external.hpp</title>
<!-- Node1 -->
<g id="node1" class="node"><title>Node1</title>
<polygon fill="#bfbfbf" stroke="black" points="-0.0859375,-175 -0.0859375,-195 112.086,-195 112.086,-175 -0.0859375,-175"/>
<text text-anchor="middle" x="56" y="-181" font-family="Helvetica,sans-Serif" font-size="10.00">code/om.external.hpp</text>
</g>
<!-- Node2 -->
<g id="node2" class="node"><title>Node2</title>
<g id="a_node2"><a xlink:href="om_8internal_8hpp.html" target="_top" xlink:title="code/om.internal.hpp">
<polygon fill="none" stroke="black" points="1.30322,-117 1.30322,-137 110.697,-137 110.697,-117 1.30322,-117"/>
<text text-anchor="middle" x="56" y="-123" font-family="Helvetica,sans-Serif" font-size="10.00">code/om.internal.hpp</text>
</a>
</g>
</g>
<!-- Node1&#45;&gt;Node2 -->
<g id="edge1" class="edge"><title>Node1&#45;&gt;Node2</title>
<path fill="none" stroke="midnightblue" d="M56,-164.707C56,-155.338 56,-144.526 56,-137.075"/>
<polygon fill="midnightblue" stroke="midnightblue" points="52.5001,-164.753 56,-174.753 59.5001,-164.753 52.5001,-164.753"/>
</g>
<!-- Node3 -->
<g id="node3" class="node"><title>Node3</title>
<g id="a_node3"><a xlink:href="om_8hpp.html" target="_top" xlink:title="Om &quot;umbrella&quot; header file.">
<polygon fill="none" stroke="black" points="19.0913,-59 19.0913,-79 92.9087,-79 92.9087,-59 19.0913,-59"/>
<text text-anchor="middle" x="56" y="-65" font-family="Helvetica,sans-Serif" font-size="10.00">code/om.hpp</text>
</a>
</g>
</g>
<!-- Node2&#45;&gt;Node3 -->
<g id="edge2" class="edge"><title>Node2&#45;&gt;Node3</title>
<path fill="none" stroke="midnightblue" d="M49.5488,-106.707C48.8859,-97.3384 49.326,-86.5262 50.869,-79.0752"/>
<polygon fill="midnightblue" stroke="midnightblue" points="46.0933,-107.278 50.8337,-116.753 53.0367,-106.389 46.0933,-107.278"/>
</g>
<!-- Node2&#45;&gt;Node2 -->
<g id="edge5" class="edge"><title>Node2&#45;&gt;Node2</title>
<path fill="none" stroke="midnightblue" d="M98.2219,-137.834C114.49,-138.304 128,-134.693 128,-127 128,-117.711 108.301,-114.373 87.8321,-116.985"/>
<polygon fill="midnightblue" stroke="midnightblue" points="98.0764,-134.312 87.8321,-137.015 97.5258,-141.291 98.0764,-134.312"/>
</g>
<!-- Node4 -->
<g id="node4" class="node"><title>Node4</title>
<g id="a_node4"><a xlink:href="om_8cpp.html" target="_top" xlink:title="Om source file.">
<polygon fill="none" stroke="black" points="19.3721,-1 19.3721,-21 92.6279,-21 92.6279,-1 19.3721,-1"/>
<text text-anchor="middle" x="56" y="-7" font-family="Helvetica,sans-Serif" font-size="10.00">code/om.cpp</text>
</a>
</g>
</g>
<!-- Node3&#45;&gt;Node4 -->
<g id="edge3" class="edge"><title>Node3&#45;&gt;Node4</title>
<path fill="none" stroke="midnightblue" d="M56,-48.7065C56,-39.3384 56,-28.5262 56,-21.0752"/>
<polygon fill="midnightblue" stroke="midnightblue" points="52.5001,-48.7527 56,-58.7527 59.5001,-48.7528 52.5001,-48.7527"/>
</g>
<!-- Node3&#45;&gt;Node2 -->
<g id="edge4" class="edge"><title>Node3&#45;&gt;Node2</title>
<path fill="none" stroke="midnightblue" d="M62.4357,-89.0781C63.1156,-98.4238 62.6924,-109.25 61.1663,-116.753"/>
<polygon fill="midnightblue" stroke="midnightblue" points="65.8951,-88.5385 61.131,-79.0752 58.9539,-89.4439 65.8951,-88.5385"/>
</g>
</g>
</svg>
