<?xml version="1.0" encoding="UTF-8" standalone="no"?>
<!DOCTYPE svg PUBLIC "-//W3C//DTD SVG 1.1//EN"
 "http://www.w3.org/Graphics/SVG/1.1/DTD/svg11.dtd">
<!-- Generated by graphviz version 2.28.0 (20120817.0054)
 -->
<!-- Title: code/om/symbols/operand_symbol.cpp Pages: 1 -->
<svg width="138pt" height="232pt"
 viewBox="0.00 0.00 138.00 232.00" xmlns="http://www.w3.org/2000/svg" xmlns:xlink="http://www.w3.org/1999/xlink">
<g id="graph1" class="graph" transform="scale(1 1) rotate(0) translate(4 228)">
<title>code/om/symbols/operand_symbol.cpp</title>
<!-- Node1 -->
<g id="node1" class="node"><title>Node1</title>
<polygon fill="#bfbfbf" stroke="black" points="0,-193 0,-223 130,-223 130,-193 0,-193"/>
<text text-anchor="start" x="8" y="-211" font-family="Helvetica,sans-Serif" font-size="10.00">code/om/symbols/operand</text>
<text text-anchor="middle" x="65" y="-200" font-family="Helvetica,sans-Serif" font-size="10.00">_symbol.cpp</text>
</g>
<!-- Node2 -->
<g id="node3" class="node"><title>Node2</title>
<a xlink:href="operand__symbol_8hpp.html" target="_top" xlink:title="Om header file.">
<polygon fill="none" stroke="black" points="11.5,-125 11.5,-155 118.5,-155 118.5,-125 11.5,-125"/>
<text text-anchor="start" x="19.5" y="-143" font-family="Helvetica,sans-Serif" font-size="10.00">om/symbols/operand</text>
<text text-anchor="middle" x="65" y="-132" font-family="Helvetica,sans-Serif" font-size="10.00">_symbol.hpp</text>
</a>
</g>
<!-- Node1&#45;&gt;Node2 -->
<g id="edge2" class="edge"><title>Node1&#45;&gt;Node2</title>
<path fill="none" stroke="midnightblue" d="M65,-192.679C65,-184.722 65,-174.605 65,-165.436"/>
<polygon fill="midnightblue" stroke="midnightblue" points="68.5001,-165.293 65,-155.293 61.5001,-165.293 68.5001,-165.293"/>
</g>
<!-- Node3 -->
<g id="node5" class="node"><title>Node3</title>
<a xlink:href="macros_8hpp.html" target="_top" xlink:title="Om header file.">
<polygon fill="none" stroke="black" points="23.5,-68.5 23.5,-87.5 106.5,-87.5 106.5,-68.5 23.5,-68.5"/>
<text text-anchor="middle" x="65" y="-75.5" font-family="Helvetica,sans-Serif" font-size="10.00">om/macros.hpp</text>
</a>
</g>
<!-- Node2&#45;&gt;Node3 -->
<g id="edge4" class="edge"><title>Node2&#45;&gt;Node3</title>
<path fill="none" stroke="midnightblue" d="M65,-124.781C65,-116.781 65,-106.689 65,-98.0168"/>
<polygon fill="midnightblue" stroke="midnightblue" points="68.5001,-97.7305 65,-87.7305 61.5001,-97.7306 68.5001,-97.7305"/>
</g>
<!-- Node4 -->
<g id="node7" class="node"><title>Node4</title>
<polygon fill="none" stroke="#bfbfbf" points="16,-1 16,-31 114,-31 114,-1 16,-1"/>
<text text-anchor="start" x="24" y="-19" font-family="Helvetica,sans-Serif" font-size="10.00">boost/preprocessor</text>
<text text-anchor="middle" x="65" y="-8" font-family="Helvetica,sans-Serif" font-size="10.00">/stringize.hpp</text>
</g>
<!-- Node3&#45;&gt;Node4 -->
<g id="edge6" class="edge"><title>Node3&#45;&gt;Node4</title>
<path fill="none" stroke="midnightblue" d="M65,-68.4035C65,-61.3405 65,-50.975 65,-41.399"/>
<polygon fill="midnightblue" stroke="midnightblue" points="68.5001,-41.1408 65,-31.1408 61.5001,-41.1408 68.5001,-41.1408"/>
</g>
</g>
</svg>
