<?xml version="1.0" encoding="UTF-8" standalone="no"?>
<!DOCTYPE svg PUBLIC "-//W3C//DTD SVG 1.1//EN"
 "http://www.w3.org/Graphics/SVG/1.1/DTD/svg11.dtd">
<!-- Generated by graphviz version 2.28.0 (20120817.0054)
 -->
<!-- Title: code/om/symbols/operator_symbol.hpp Pages: 1 -->
<svg width="1648pt" height="536pt"
 viewBox="0.00 0.00 1648.00 536.00" xmlns="http://www.w3.org/2000/svg" xmlns:xlink="http://www.w3.org/1999/xlink">
<g id="graph1" class="graph" transform="scale(1 1) rotate(0) translate(4 532)">
<title>code/om/symbols/operator_symbol.hpp</title>
<!-- Node1 -->
<g id="node1" class="node"><title>Node1</title>
<polygon fill="#bfbfbf" stroke="black" points="1418.5,-497 1418.5,-527 1547.5,-527 1547.5,-497 1418.5,-497"/>
<text text-anchor="start" x="1426.5" y="-515" font-family="Helvetica,sans-Serif" font-size="10.00">code/om/symbols/operator</text>
<text text-anchor="middle" x="1483" y="-504" font-family="Helvetica,sans-Serif" font-size="10.00">_symbol.hpp</text>
</g>
<!-- Node2 -->
<g id="node3" class="node"><title>Node2</title>
<a xlink:href="internal_8hpp.html" target="_top" xlink:title="code/om/internal.hpp">
<polygon fill="none" stroke="black" points="799,-118.5 799,-137.5 903,-137.5 903,-118.5 799,-118.5"/>
<text text-anchor="middle" x="851" y="-125.5" font-family="Helvetica,sans-Serif" font-size="10.00">code/om/internal.hpp</text>
</a>
</g>
<!-- Node1&#45;&gt;Node2 -->
<g id="edge2" class="edge"><title>Node1&#45;&gt;Node2</title>
<path fill="none" stroke="midnightblue" d="M1483,-486.473C1483,-460.707 1483,-419.005 1483,-383 1483,-383 1483,-383 1483,-263 1483,-204.209 1434.44,-202.199 1380,-180 1294.46,-145.117 1019.06,-133.601 903.166,-130.24"/>
<polygon fill="midnightblue" stroke="midnightblue" points="1479.5,-486.794 1483,-496.794 1486.5,-486.794 1479.5,-486.794"/>
</g>
<!-- Node6 -->
<g id="node13" class="node"><title>Node6</title>
<a xlink:href="operator_8hpp.html" target="_top" xlink:title="Om header file.">
<polygon fill="none" stroke="black" points="953,-434.5 953,-453.5 1063,-453.5 1063,-434.5 953,-434.5"/>
<text text-anchor="middle" x="1008" y="-441.5" font-family="Helvetica,sans-Serif" font-size="10.00">code/om/operator.hpp</text>
</a>
</g>
<!-- Node1&#45;&gt;Node6 -->
<g id="edge14" class="edge"><title>Node1&#45;&gt;Node6</title>
<path fill="none" stroke="midnightblue" d="M1408.54,-500.654C1312.74,-487.343 1148.55,-464.529 1063.19,-452.668"/>
<polygon fill="midnightblue" stroke="midnightblue" points="1408.06,-504.121 1418.45,-502.03 1409.02,-497.187 1408.06,-504.121"/>
</g>
<!-- Node32 -->
<g id="node89" class="node"><title>Node32</title>
<a xlink:href="operator__symbol_8cpp.html" target="_top" xlink:title="Om source file.">
<polygon fill="none" stroke="black" points="1511.5,-429 1511.5,-459 1640.5,-459 1640.5,-429 1511.5,-429"/>
<text text-anchor="start" x="1519.5" y="-447" font-family="Helvetica,sans-Serif" font-size="10.00">code/om/symbols/operator</text>
<text text-anchor="middle" x="1576" y="-436" font-family="Helvetica,sans-Serif" font-size="10.00">_symbol.cpp</text>
</a>
</g>
<!-- Node1&#45;&gt;Node32 -->
<g id="edge114" class="edge"><title>Node1&#45;&gt;Node32</title>
<path fill="none" stroke="midnightblue" d="M1511.34,-490.888C1525.84,-480.6 1543.13,-468.329 1556.18,-459.066"/>
<polygon fill="midnightblue" stroke="midnightblue" points="1509.31,-488.037 1503.18,-496.679 1513.36,-493.746 1509.31,-488.037"/>
</g>
<!-- Node2&#45;&gt;Node2 -->
<g id="edge6" class="edge"><title>Node2&#45;&gt;Node2</title>
<path fill="none" stroke="midnightblue" d="M885.477,-139.135C904.052,-141.053 921,-137.341 921,-128 921,-116.98 897.413,-113.795 875.393,-118.444"/>
<polygon fill="midnightblue" stroke="midnightblue" points="885.814,-135.645 875.393,-137.556 884.731,-142.561 885.814,-135.645"/>
</g>
<!-- Node3 -->
<g id="node5" class="node"><title>Node3</title>
<a xlink:href="internal_8cpp.html" target="_top" xlink:title="code/om/internal.cpp">
<polygon fill="none" stroke="black" points="693,-56.5 693,-75.5 797,-75.5 797,-56.5 693,-56.5"/>
<text text-anchor="middle" x="745" y="-63.5" font-family="Helvetica,sans-Serif" font-size="10.00">code/om/internal.cpp</text>
</a>
</g>
<!-- Node2&#45;&gt;Node3 -->
<g id="edge4" class="edge"><title>Node2&#45;&gt;Node3</title>
<path fill="none" stroke="midnightblue" d="M827.05,-113.443C806.537,-101.832 777.621,-85.4648 760.159,-75.5806"/>
<polygon fill="midnightblue" stroke="midnightblue" points="825.386,-116.523 835.813,-118.403 828.834,-110.432 825.386,-116.523"/>
</g>
<!-- Node4 -->
<g id="node8" class="node"><title>Node4</title>
<a xlink:href="om_8hpp.html" target="_top" xlink:title="Om &quot;umbrella&quot; header file.">
<polygon fill="none" stroke="black" points="815,-56.5 815,-75.5 887,-75.5 887,-56.5 815,-56.5"/>
<text text-anchor="middle" x="851" y="-63.5" font-family="Helvetica,sans-Serif" font-size="10.00">code/om.hpp</text>
</a>
</g>
<!-- Node2&#45;&gt;Node4 -->
<g id="edge8" class="edge"><title>Node2&#45;&gt;Node4</title>
<path fill="none" stroke="midnightblue" d="M844.683,-108.16C843.797,-97.2482 844.27,-84.04 846.103,-75.5806"/>
<polygon fill="midnightblue" stroke="midnightblue" points="841.263,-108.977 846.099,-118.403 848.197,-108.018 841.263,-108.977"/>
</g>
<!-- Node4&#45;&gt;Node2 -->
<g id="edge10" class="edge"><title>Node4&#45;&gt;Node2</title>
<path fill="none" stroke="midnightblue" d="M857.315,-85.8199C858.203,-96.7283 857.732,-109.938 855.901,-118.403"/>
<polygon fill="midnightblue" stroke="midnightblue" points="860.736,-85.006 855.897,-75.5806 853.802,-85.9661 860.736,-85.006"/>
</g>
<!-- Node5 -->
<g id="node11" class="node"><title>Node5</title>
<a xlink:href="om_8cpp.html" target="_top" xlink:title="Om source file.">
<polygon fill="none" stroke="black" points="815.5,-0.5 815.5,-19.5 886.5,-19.5 886.5,-0.5 815.5,-0.5"/>
<text text-anchor="middle" x="851" y="-7.5" font-family="Helvetica,sans-Serif" font-size="10.00">code/om.cpp</text>
</a>
</g>
<!-- Node4&#45;&gt;Node5 -->
<g id="edge12" class="edge"><title>Node4&#45;&gt;Node5</title>
<path fill="none" stroke="midnightblue" d="M851,-45.8045C851,-36.9102 851,-26.7798 851,-19.7511"/>
<polygon fill="midnightblue" stroke="midnightblue" points="847.5,-46.083 851,-56.083 854.5,-46.083 847.5,-46.083"/>
</g>
<!-- Node6&#45;&gt;Node2 -->
<g id="edge70" class="edge"><title>Node6&#45;&gt;Node2</title>
<path fill="none" stroke="midnightblue" d="M955.19,-431.812C903.348,-417.366 832,-386.649 832,-327 832,-327 832,-327 832,-263 832,-215.302 843.947,-158.991 848.894,-137.719"/>
<polygon fill="midnightblue" stroke="midnightblue" points="954.382,-435.218 964.946,-434.405 956.181,-428.453 954.382,-435.218"/>
</g>
<!-- Node7 -->
<g id="node15" class="node"><title>Node7</title>
<a xlink:href="form_8hpp.html" target="_top" xlink:title="Om header file.">
<polygon fill="none" stroke="black" points="879,-316.5 879,-335.5 971,-335.5 971,-316.5 879,-316.5"/>
<text text-anchor="middle" x="925" y="-323.5" font-family="Helvetica,sans-Serif" font-size="10.00">code/om/form.hpp</text>
</a>
</g>
<!-- Node6&#45;&gt;Node7 -->
<g id="edge16" class="edge"><title>Node6&#45;&gt;Node7</title>
<path fill="none" stroke="midnightblue" d="M983.72,-428.903C970.229,-419.924 954.165,-407.143 944,-392 932.074,-374.234 927.502,-348.876 925.856,-335.7"/>
<polygon fill="midnightblue" stroke="midnightblue" points="982.224,-432.099 992.544,-434.495 985.971,-426.186 982.224,-432.099"/>
</g>
<!-- Node21 -->
<g id="node57" class="node"><title>Node21</title>
<a xlink:href="operator_8cpp.html" target="_top" xlink:title="Om source file.">
<polygon fill="none" stroke="black" points="953.5,-372.5 953.5,-391.5 1062.5,-391.5 1062.5,-372.5 953.5,-372.5"/>
<text text-anchor="middle" x="1008" y="-379.5" font-family="Helvetica,sans-Serif" font-size="10.00">code/om/operator.cpp</text>
</a>
</g>
<!-- Node6&#45;&gt;Node21 -->
<g id="edge72" class="edge"><title>Node6&#45;&gt;Node21</title>
<path fill="none" stroke="midnightblue" d="M1001.68,-424.16C1000.8,-413.248 1001.27,-400.04 1003.1,-391.581"/>
<polygon fill="midnightblue" stroke="midnightblue" points="998.263,-424.977 1003.1,-434.403 1005.2,-424.018 998.263,-424.977"/>
</g>
<!-- Node22 -->
<g id="node60" class="node"><title>Node22</title>
<a xlink:href="pair_8hpp.html" target="_top" xlink:title="Om header file.">
<polygon fill="none" stroke="black" points="1080.5,-372.5 1080.5,-391.5 1171.5,-391.5 1171.5,-372.5 1080.5,-372.5"/>
<text text-anchor="middle" x="1126" y="-379.5" font-family="Helvetica,sans-Serif" font-size="10.00">code/om/pair.hpp</text>
</a>
</g>
<!-- Node6&#45;&gt;Node22 -->
<g id="edge76" class="edge"><title>Node6&#45;&gt;Node22</title>
<path fill="none" stroke="midnightblue" d="M1034.05,-429.756C1056.92,-418.127 1089.51,-401.554 1109.12,-391.581"/>
<polygon fill="midnightblue" stroke="midnightblue" points="1032.23,-426.751 1024.91,-434.403 1035.41,-432.991 1032.23,-426.751"/>
</g>
<!-- Node7&#45;&gt;Node2 -->
<g id="edge68" class="edge"><title>Node7&#45;&gt;Node2</title>
<path fill="none" stroke="midnightblue" d="M909.336,-308.936C902.206,-300.833 894.215,-290.509 889,-280 864.006,-229.633 854.541,-161.429 851.871,-137.623"/>
<polygon fill="midnightblue" stroke="midnightblue" points="906.95,-311.511 916.302,-316.491 912.096,-306.766 906.95,-311.511"/>
</g>
<!-- Node8 -->
<g id="node17" class="node"><title>Node8</title>
<a xlink:href="expression_8hpp.html" target="_top" xlink:title="Om header file.">
<polygon fill="none" stroke="black" points="515,-254.5 515,-273.5 637,-273.5 637,-254.5 515,-254.5"/>
<text text-anchor="middle" x="576" y="-261.5" font-family="Helvetica,sans-Serif" font-size="10.00">code/om/expression.hpp</text>
</a>
</g>
<!-- Node7&#45;&gt;Node8 -->
<g id="edge18" class="edge"><title>Node7&#45;&gt;Node8</title>
<path fill="none" stroke="midnightblue" d="M868.653,-315.313C801.35,-303.742 689.829,-284.569 625.639,-273.534"/>
<polygon fill="midnightblue" stroke="midnightblue" points="868.207,-318.787 878.655,-317.032 869.393,-311.889 868.207,-318.787"/>
</g>
<!-- Node20 -->
<g id="node52" class="node"><title>Node20</title>
<a xlink:href="form_8cpp.html" target="_top" xlink:title="Om source file.">
<polygon fill="none" stroke="black" points="898,-254.5 898,-273.5 990,-273.5 990,-254.5 898,-254.5"/>
<text text-anchor="middle" x="944" y="-261.5" font-family="Helvetica,sans-Serif" font-size="10.00">code/om/form.cpp</text>
</a>
</g>
<!-- Node7&#45;&gt;Node20 -->
<g id="edge64" class="edge"><title>Node7&#45;&gt;Node20</title>
<path fill="none" stroke="midnightblue" d="M924.569,-306.503C927.12,-295.527 931.827,-282.129 936.386,-273.581"/>
<polygon fill="midnightblue" stroke="midnightblue" points="921.113,-305.947 922.822,-316.403 928.007,-307.164 921.113,-305.947"/>
</g>
<!-- Node8&#45;&gt;Node2 -->
<g id="edge32" class="edge"><title>Node8&#45;&gt;Node2</title>
<path fill="none" stroke="midnightblue" d="M647.139,-254.699C686.637,-247.71 735.431,-234.988 774,-212 806.924,-192.377 834.367,-154.49 845.576,-137.549"/>
<polygon fill="midnightblue" stroke="midnightblue" points="646.329,-251.286 637.048,-256.397 647.491,-258.189 646.329,-251.286"/>
</g>
<!-- Node9 -->
<g id="node19" class="node"><title>Node9</title>
<a xlink:href="evaluation_8hpp.html" target="_top" xlink:title="Om header file.">
<polygon fill="none" stroke="black" points="118.5,-186.5 118.5,-205.5 237.5,-205.5 237.5,-186.5 118.5,-186.5"/>
<text text-anchor="middle" x="178" y="-193.5" font-family="Helvetica,sans-Serif" font-size="10.00">code/om/evaluation.hpp</text>
</a>
</g>
<!-- Node8&#45;&gt;Node9 -->
<g id="edge20" class="edge"><title>Node8&#45;&gt;Node9</title>
<path fill="none" stroke="midnightblue" d="M504.88,-253.238C438.102,-243.774 335.508,-228.465 247,-212 236.635,-210.072 225.447,-207.746 215.159,-205.508"/>
<polygon fill="midnightblue" stroke="midnightblue" points="504.483,-256.717 514.874,-254.649 505.461,-249.785 504.483,-256.717"/>
</g>
<!-- Node11 -->
<g id="node25" class="node"><title>Node11</title>
<a xlink:href="expression_8cpp.html" target="_top" xlink:title="Om source file.">
<polygon fill="none" stroke="black" points="644.5,-186.5 644.5,-205.5 765.5,-205.5 765.5,-186.5 644.5,-186.5"/>
<text text-anchor="middle" x="705" y="-193.5" font-family="Helvetica,sans-Serif" font-size="10.00">code/om/expression.cpp</text>
</a>
</g>
<!-- Node8&#45;&gt;Node11 -->
<g id="edge28" class="edge"><title>Node8&#45;&gt;Node11</title>
<path fill="none" stroke="midnightblue" d="M597.108,-249.34C620.991,-236.204 659.303,-216.749 683.4,-205.63"/>
<polygon fill="midnightblue" stroke="midnightblue" points="595.144,-246.429 588.133,-254.372 598.568,-252.534 595.144,-246.429"/>
</g>
<!-- Node12 -->
<g id="node29" class="node"><title>Node12</title>
<a xlink:href="expression__operation_8hpp.html" target="_top" xlink:title="Om header file.">
<polygon fill="none" stroke="black" points="378,-181 378,-211 508,-211 508,-181 378,-181"/>
<text text-anchor="start" x="386" y="-199" font-family="Helvetica,sans-Serif" font-size="10.00">code/om/operations</text>
<text text-anchor="middle" x="443" y="-188" font-family="Helvetica,sans-Serif" font-size="10.00">/expression_operation.hpp</text>
</a>
</g>
<!-- Node8&#45;&gt;Node12 -->
<g id="edge34" class="edge"><title>Node8&#45;&gt;Node12</title>
<path fill="none" stroke="midnightblue" d="M549.579,-249.889C526.961,-238.665 494.476,-222.545 471.325,-211.056"/>
<polygon fill="midnightblue" stroke="midnightblue" points="548.099,-253.062 558.613,-254.372 551.211,-246.791 548.099,-253.062"/>
</g>
<!-- Node14 -->
<g id="node34" class="node"><title>Node14</title>
<a xlink:href="fill__operation_8hpp.html" target="_top" xlink:title="Om header file.">
<polygon fill="none" stroke="black" points="526,-181 526,-211 626,-211 626,-181 526,-181"/>
<text text-anchor="start" x="534" y="-199" font-family="Helvetica,sans-Serif" font-size="10.00">code/om/operations</text>
<text text-anchor="middle" x="576" y="-188" font-family="Helvetica,sans-Serif" font-size="10.00">/fill_operation.hpp</text>
</a>
</g>
<!-- Node8&#45;&gt;Node14 -->
<g id="edge40" class="edge"><title>Node8&#45;&gt;Node14</title>
<path fill="none" stroke="midnightblue" d="M576,-244.174C576,-233.678 576,-220.821 576,-211.181"/>
<polygon fill="midnightblue" stroke="midnightblue" points="572.5,-244.372 576,-254.372 579.5,-244.372 572.5,-244.372"/>
</g>
<!-- Node16 -->
<g id="node40" class="node"><title>Node16</title>
<a xlink:href="inject__operation_8hpp.html" target="_top" xlink:title="Om header file.">
<polygon fill="none" stroke="black" points="256,-181 256,-211 360,-211 360,-181 256,-181"/>
<text text-anchor="start" x="264" y="-199" font-family="Helvetica,sans-Serif" font-size="10.00">code/om/operations</text>
<text text-anchor="middle" x="308" y="-188" font-family="Helvetica,sans-Serif" font-size="10.00">/inject_operation.hpp</text>
</a>
</g>
<!-- Node8&#45;&gt;Node16 -->
<g id="edge48" class="edge"><title>Node8&#45;&gt;Node16</title>
<path fill="none" stroke="midnightblue" d="M531.321,-251.997C484.188,-240.39 409.984,-222.115 360.192,-209.853"/>
<polygon fill="midnightblue" stroke="midnightblue" points="530.692,-255.446 541.238,-254.439 532.365,-248.65 530.692,-255.446"/>
</g>
<!-- Node18 -->
<g id="node46" class="node"><title>Node18</title>
<a xlink:href="skip__operation_8hpp.html" target="_top" xlink:title="Om header file.">
<polygon fill="none" stroke="black" points="-0.5,-181 -0.5,-211 100.5,-211 100.5,-181 -0.5,-181"/>
<text text-anchor="start" x="7.5" y="-199" font-family="Helvetica,sans-Serif" font-size="10.00">code/om/operations</text>
<text text-anchor="middle" x="50" y="-188" font-family="Helvetica,sans-Serif" font-size="10.00">/skip_operation.hpp</text>
</a>
</g>
<!-- Node8&#45;&gt;Node18 -->
<g id="edge56" class="edge"><title>Node8&#45;&gt;Node18</title>
<path fill="none" stroke="midnightblue" d="M504.754,-258.339C412.787,-251.611 248.05,-237.14 109,-212 106.296,-211.511 103.533,-210.967 100.75,-210.383"/>
<polygon fill="midnightblue" stroke="midnightblue" points="504.558,-261.834 514.785,-259.064 505.063,-254.853 504.558,-261.834"/>
</g>
<!-- Node9&#45;&gt;Node2 -->
<g id="edge26" class="edge"><title>Node9&#45;&gt;Node2</title>
<path fill="none" stroke="midnightblue" d="M222.871,-184.364C230.874,-182.719 239.158,-181.178 247,-180 352.887,-164.089 672.098,-141.247 798.572,-132.547"/>
<polygon fill="midnightblue" stroke="midnightblue" points="221.989,-180.973 212.939,-186.483 223.45,-187.819 221.989,-180.973"/>
</g>
<!-- Node10 -->
<g id="node21" class="node"><title>Node10</title>
<a xlink:href="evaluation_8cpp.html" target="_top" xlink:title="Om source file.">
<polygon fill="none" stroke="black" points="119,-118.5 119,-137.5 237,-137.5 237,-118.5 119,-118.5"/>
<text text-anchor="middle" x="178" y="-125.5" font-family="Helvetica,sans-Serif" font-size="10.00">code/om/evaluation.cpp</text>
</a>
</g>
<!-- Node9&#45;&gt;Node10 -->
<g id="edge22" class="edge"><title>Node9&#45;&gt;Node10</title>
<path fill="none" stroke="midnightblue" d="M171.859,-176.425C170.722,-163.798 171.177,-147.662 173.224,-137.841"/>
<polygon fill="midnightblue" stroke="midnightblue" points="168.4,-176.962 173.269,-186.372 175.331,-175.979 168.4,-176.962"/>
</g>
<!-- Node10&#45;&gt;Node9 -->
<g id="edge24" class="edge"><title>Node10&#45;&gt;Node9</title>
<path fill="none" stroke="midnightblue" d="M184.165,-147.85C185.279,-160.528 184.801,-176.643 182.731,-186.372"/>
<polygon fill="midnightblue" stroke="midnightblue" points="187.618,-147.265 182.776,-137.841 180.684,-148.227 187.618,-147.265"/>
</g>
<!-- Node11&#45;&gt;Node8 -->
<g id="edge30" class="edge"><title>Node11&#45;&gt;Node8</title>
<path fill="none" stroke="midnightblue" d="M683.887,-210.662C660.002,-223.8 621.69,-243.254 597.596,-254.372"/>
<polygon fill="midnightblue" stroke="midnightblue" points="685.852,-213.574 692.863,-205.63 682.429,-207.468 685.852,-213.574"/>
</g>
<!-- Node12&#45;&gt;Node2 -->
<g id="edge36" class="edge"><title>Node12&#45;&gt;Node2</title>
<path fill="none" stroke="midnightblue" d="M518.486,-179.782C623.577,-161.306 735.021,-145.112 798.804,-136.171"/>
<polygon fill="midnightblue" stroke="midnightblue" points="517.575,-176.389 508.337,-181.577 518.794,-183.282 517.575,-176.389"/>
</g>
<!-- Node13 -->
<g id="node32" class="node"><title>Node13</title>
<a xlink:href="expression__operation_8cpp.html" target="_top" xlink:title="Om source file.">
<polygon fill="none" stroke="black" points="378.5,-113 378.5,-143 507.5,-143 507.5,-113 378.5,-113"/>
<text text-anchor="start" x="386.5" y="-131" font-family="Helvetica,sans-Serif" font-size="10.00">code/om/operations</text>
<text text-anchor="middle" x="443" y="-120" font-family="Helvetica,sans-Serif" font-size="10.00">/expression_operation.cpp</text>
</a>
</g>
<!-- Node12&#45;&gt;Node13 -->
<g id="edge38" class="edge"><title>Node12&#45;&gt;Node13</title>
<path fill="none" stroke="midnightblue" d="M443,-170.532C443,-161.361 443,-151.245 443,-143.293"/>
<polygon fill="midnightblue" stroke="midnightblue" points="439.5,-170.679 443,-180.679 446.5,-170.679 439.5,-170.679"/>
</g>
<!-- Node14&#45;&gt;Node2 -->
<g id="edge42" class="edge"><title>Node14&#45;&gt;Node2</title>
<path fill="none" stroke="midnightblue" d="M636.258,-179.713C704.473,-163.046 772.829,-147.074 813.879,-137.561"/>
<polygon fill="midnightblue" stroke="midnightblue" points="635.078,-176.398 626.197,-182.176 636.743,-183.197 635.078,-176.398"/>
</g>
<!-- Node15 -->
<g id="node37" class="node"><title>Node15</title>
<a xlink:href="fill__operation_8cpp.html" target="_top" xlink:title="Om source file.">
<polygon fill="none" stroke="black" points="526,-113 526,-143 626,-143 626,-113 526,-113"/>
<text text-anchor="start" x="534" y="-131" font-family="Helvetica,sans-Serif" font-size="10.00">code/om/operations</text>
<text text-anchor="middle" x="576" y="-120" font-family="Helvetica,sans-Serif" font-size="10.00">/fill_operation.cpp</text>
</a>
</g>
<!-- Node14&#45;&gt;Node15 -->
<g id="edge44" class="edge"><title>Node14&#45;&gt;Node15</title>
<path fill="none" stroke="midnightblue" d="M569.455,-170.532C569.005,-161.361 569.296,-151.245 570.325,-143.293"/>
<polygon fill="midnightblue" stroke="midnightblue" points="565.983,-171.013 570.322,-180.679 572.958,-170.417 565.983,-171.013"/>
</g>
<!-- Node15&#45;&gt;Node14 -->
<g id="edge46" class="edge"><title>Node15&#45;&gt;Node14</title>
<path fill="none" stroke="midnightblue" d="M582.544,-153.436C582.995,-162.605 582.706,-172.722 581.678,-180.679"/>
<polygon fill="midnightblue" stroke="midnightblue" points="586.016,-152.958 581.675,-143.293 579.041,-153.555 586.016,-152.958"/>
</g>
<!-- Node16&#45;&gt;Node2 -->
<g id="edge50" class="edge"><title>Node16&#45;&gt;Node2</title>
<path fill="none" stroke="midnightblue" d="M370.265,-179.927C531.797,-152.236 712.059,-138.002 798.965,-132.182"/>
<polygon fill="midnightblue" stroke="midnightblue" points="369.399,-176.525 360.145,-181.684 370.596,-183.422 369.399,-176.525"/>
</g>
<!-- Node17 -->
<g id="node43" class="node"><title>Node17</title>
<a xlink:href="inject__operation_8cpp.html" target="_top" xlink:title="Om source file.">
<polygon fill="none" stroke="black" points="256,-113 256,-143 360,-143 360,-113 256,-113"/>
<text text-anchor="start" x="264" y="-131" font-family="Helvetica,sans-Serif" font-size="10.00">code/om/operations</text>
<text text-anchor="middle" x="308" y="-120" font-family="Helvetica,sans-Serif" font-size="10.00">/inject_operation.cpp</text>
</a>
</g>
<!-- Node16&#45;&gt;Node17 -->
<g id="edge52" class="edge"><title>Node16&#45;&gt;Node17</title>
<path fill="none" stroke="midnightblue" d="M301.455,-170.532C301.005,-161.361 301.296,-151.245 302.325,-143.293"/>
<polygon fill="midnightblue" stroke="midnightblue" points="297.983,-171.013 302.322,-180.679 304.958,-170.417 297.983,-171.013"/>
</g>
<!-- Node17&#45;&gt;Node16 -->
<g id="edge54" class="edge"><title>Node17&#45;&gt;Node16</title>
<path fill="none" stroke="midnightblue" d="M314.544,-153.436C314.995,-162.605 314.706,-172.722 313.678,-180.679"/>
<polygon fill="midnightblue" stroke="midnightblue" points="318.016,-152.958 313.675,-143.293 311.041,-153.555 318.016,-152.958"/>
</g>
<!-- Node18&#45;&gt;Node2 -->
<g id="edge58" class="edge"><title>Node18&#45;&gt;Node2</title>
<path fill="none" stroke="midnightblue" d="M110.801,-179.882C342.14,-143.459 404.54,-159.889 635,-144 690.877,-140.148 754.882,-135.698 798.624,-132.652"/>
<polygon fill="midnightblue" stroke="midnightblue" points="110.053,-176.456 100.727,-181.484 111.153,-183.37 110.053,-176.456"/>
</g>
<!-- Node19 -->
<g id="node49" class="node"><title>Node19</title>
<a xlink:href="skip__operation_8cpp.html" target="_top" xlink:title="Om source file.">
<polygon fill="none" stroke="black" points="0,-113 0,-143 100,-143 100,-113 0,-113"/>
<text text-anchor="start" x="8" y="-131" font-family="Helvetica,sans-Serif" font-size="10.00">code/om/operations</text>
<text text-anchor="middle" x="50" y="-120" font-family="Helvetica,sans-Serif" font-size="10.00">/skip_operation.cpp</text>
</a>
</g>
<!-- Node18&#45;&gt;Node19 -->
<g id="edge60" class="edge"><title>Node18&#45;&gt;Node19</title>
<path fill="none" stroke="midnightblue" d="M43.4547,-170.532C43.0055,-161.361 43.2957,-151.245 44.3252,-143.293"/>
<polygon fill="midnightblue" stroke="midnightblue" points="39.9829,-171.013 44.3216,-180.679 46.9575,-170.417 39.9829,-171.013"/>
</g>
<!-- Node19&#45;&gt;Node18 -->
<g id="edge62" class="edge"><title>Node19&#45;&gt;Node18</title>
<path fill="none" stroke="midnightblue" d="M56.5438,-153.436C56.9947,-162.605 56.7062,-172.722 55.6784,-180.679"/>
<polygon fill="midnightblue" stroke="midnightblue" points="60.0157,-152.958 55.6748,-143.293 53.0413,-153.555 60.0157,-152.958"/>
</g>
<!-- Node20&#45;&gt;Node7 -->
<g id="edge66" class="edge"><title>Node20&#45;&gt;Node7</title>
<path fill="none" stroke="midnightblue" d="M944.436,-283.476C941.887,-294.45 937.182,-307.849 932.623,-316.403"/>
<polygon fill="midnightblue" stroke="midnightblue" points="947.891,-284.036 946.18,-273.581 940.997,-282.821 947.891,-284.036"/>
</g>
<!-- Node21&#45;&gt;Node6 -->
<g id="edge74" class="edge"><title>Node21&#45;&gt;Node6</title>
<path fill="none" stroke="midnightblue" d="M1014.31,-401.82C1015.2,-412.728 1014.73,-425.938 1012.9,-434.403"/>
<polygon fill="midnightblue" stroke="midnightblue" points="1017.74,-401.006 1012.9,-391.581 1010.8,-401.966 1017.74,-401.006"/>
</g>
<!-- Node22&#45;&gt;Node2 -->
<g id="edge78" class="edge"><title>Node22&#45;&gt;Node2</title>
<path fill="none" stroke="midnightblue" d="M1106.12,-365.875C1095.57,-357.506 1082.64,-346.664 1072,-336 1036.11,-300.027 1035.21,-283.657 999,-248 952.488,-202.194 889.39,-156.058 863.186,-137.503"/>
<polygon fill="midnightblue" stroke="midnightblue" points="1104.27,-368.874 1114.31,-372.266 1108.57,-363.355 1104.27,-368.874"/>
</g>
<!-- Node23 -->
<g id="node63" class="node"><title>Node23</title>
<a xlink:href="lexicon_8hpp.html" target="_top" xlink:title="Om header file.">
<polygon fill="none" stroke="black" points="1206,-316.5 1206,-335.5 1310,-335.5 1310,-316.5 1206,-316.5"/>
<text text-anchor="middle" x="1258" y="-323.5" font-family="Helvetica,sans-Serif" font-size="10.00">code/om/lexicon.hpp</text>
</a>
</g>
<!-- Node22&#45;&gt;Node23 -->
<g id="edge80" class="edge"><title>Node22&#45;&gt;Node23</title>
<path fill="none" stroke="midnightblue" d="M1156.22,-368.638C1180.99,-358.504 1215.4,-344.427 1237.18,-335.516"/>
<polygon fill="midnightblue" stroke="midnightblue" points="1154.85,-365.418 1146.92,-372.444 1157.5,-371.897 1154.85,-365.418"/>
</g>
<!-- Node31 -->
<g id="node86" class="node"><title>Node31</title>
<a xlink:href="pair_8cpp.html" target="_top" xlink:title="Om source file.">
<polygon fill="none" stroke="black" points="1081,-316.5 1081,-335.5 1171,-335.5 1171,-316.5 1081,-316.5"/>
<text text-anchor="middle" x="1126" y="-323.5" font-family="Helvetica,sans-Serif" font-size="10.00">code/om/pair.cpp</text>
</a>
</g>
<!-- Node22&#45;&gt;Node31 -->
<g id="edge110" class="edge"><title>Node22&#45;&gt;Node31</title>
<path fill="none" stroke="midnightblue" d="M1119.53,-362.101C1118.9,-353.136 1119.34,-342.858 1120.87,-335.751"/>
<polygon fill="midnightblue" stroke="midnightblue" points="1116.07,-362.622 1120.83,-372.083 1123.01,-361.713 1116.07,-362.622"/>
</g>
<!-- Node23&#45;&gt;Node2 -->
<g id="edge82" class="edge"><title>Node23&#45;&gt;Node2</title>
<path fill="none" stroke="midnightblue" d="M1236.22,-310.441C1225.64,-302.474 1213.43,-291.825 1205,-280 1177.31,-241.156 1203.1,-209.986 1166,-180 1126.52,-148.093 982.157,-135.733 903.293,-131.285"/>
<polygon fill="midnightblue" stroke="midnightblue" points="1234.44,-313.472 1244.6,-316.47 1238.53,-307.789 1234.44,-313.472"/>
</g>
<!-- Node24 -->
<g id="node66" class="node"><title>Node24</title>
<a xlink:href="lexicon_8cpp.html" target="_top" xlink:title="Om source file.">
<polygon fill="none" stroke="black" points="1351.5,-254.5 1351.5,-273.5 1454.5,-273.5 1454.5,-254.5 1351.5,-254.5"/>
<text text-anchor="middle" x="1403" y="-261.5" font-family="Helvetica,sans-Serif" font-size="10.00">code/om/lexicon.cpp</text>
</a>
</g>
<!-- Node23&#45;&gt;Node24 -->
<g id="edge84" class="edge"><title>Node23&#45;&gt;Node24</title>
<path fill="none" stroke="midnightblue" d="M1283.24,-312.221C1309.7,-300.573 1350.75,-283.687 1377.37,-273.581"/>
<polygon fill="midnightblue" stroke="midnightblue" points="1281.58,-309.13 1273.87,-316.403 1284.43,-315.521 1281.58,-309.13"/>
</g>
<!-- Node25 -->
<g id="node69" class="node"><title>Node25</title>
<a xlink:href="lexicon__operation_8hpp.html" target="_top" xlink:title="Om header file.">
<polygon fill="none" stroke="black" points="1046,-249 1046,-279 1158,-279 1158,-249 1046,-249"/>
<text text-anchor="start" x="1054" y="-267" font-family="Helvetica,sans-Serif" font-size="10.00">code/om/operations</text>
<text text-anchor="middle" x="1102" y="-256" font-family="Helvetica,sans-Serif" font-size="10.00">/lexicon_operation.hpp</text>
</a>
</g>
<!-- Node23&#45;&gt;Node25 -->
<g id="edge88" class="edge"><title>Node23&#45;&gt;Node25</title>
<path fill="none" stroke="midnightblue" d="M1226.1,-312.732C1200.67,-302.95 1165.03,-289.242 1138.47,-279.025"/>
<polygon fill="midnightblue" stroke="midnightblue" points="1225.06,-316.08 1235.65,-316.403 1227.57,-309.547 1225.06,-316.08"/>
</g>
<!-- Node27 -->
<g id="node74" class="node"><title>Node27</title>
<a xlink:href="translate__operation_8hpp.html" target="_top" xlink:title="Om header file.">
<polygon fill="none" stroke="black" points="1214.5,-249 1214.5,-279 1333.5,-279 1333.5,-249 1214.5,-249"/>
<text text-anchor="start" x="1222.5" y="-267" font-family="Helvetica,sans-Serif" font-size="10.00">code/om/operations</text>
<text text-anchor="middle" x="1274" y="-256" font-family="Helvetica,sans-Serif" font-size="10.00">/translate_operation.hpp</text>
</a>
</g>
<!-- Node23&#45;&gt;Node27 -->
<g id="edge94" class="edge"><title>Node23&#45;&gt;Node27</title>
<path fill="none" stroke="midnightblue" d="M1262.89,-306.663C1265.25,-297.814 1268.04,-287.362 1270.23,-279.141"/>
<polygon fill="midnightblue" stroke="midnightblue" points="1259.49,-305.839 1260.29,-316.403 1266.25,-307.643 1259.49,-305.839"/>
</g>
<!-- Node24&#45;&gt;Node23 -->
<g id="edge86" class="edge"><title>Node24&#45;&gt;Node23</title>
<path fill="none" stroke="midnightblue" d="M1377.8,-277.761C1351.36,-289.404 1310.31,-306.29 1283.68,-316.403"/>
<polygon fill="midnightblue" stroke="midnightblue" points="1379.46,-280.855 1387.16,-273.581 1376.6,-274.464 1379.46,-280.855"/>
</g>
<!-- Node25&#45;&gt;Node2 -->
<g id="edge90" class="edge"><title>Node25&#45;&gt;Node2</title>
<path fill="none" stroke="midnightblue" d="M1075.62,-242.396C1045.1,-218.609 998.437,-182.418 994,-180 958.241,-160.515 913.559,-145.973 883.749,-137.505"/>
<polygon fill="midnightblue" stroke="midnightblue" points="1073.71,-245.348 1083.75,-248.738 1078.02,-239.828 1073.71,-245.348"/>
</g>
<!-- Node26 -->
<g id="node72" class="node"><title>Node26</title>
<a xlink:href="lexicon__operation_8cpp.html" target="_top" xlink:title="Om source file.">
<polygon fill="none" stroke="black" points="1046.5,-181 1046.5,-211 1157.5,-211 1157.5,-181 1046.5,-181"/>
<text text-anchor="start" x="1054.5" y="-199" font-family="Helvetica,sans-Serif" font-size="10.00">code/om/operations</text>
<text text-anchor="middle" x="1102" y="-188" font-family="Helvetica,sans-Serif" font-size="10.00">/lexicon_operation.cpp</text>
</a>
</g>
<!-- Node25&#45;&gt;Node26 -->
<g id="edge92" class="edge"><title>Node25&#45;&gt;Node26</title>
<path fill="none" stroke="midnightblue" d="M1102,-238.532C1102,-229.361 1102,-219.245 1102,-211.293"/>
<polygon fill="midnightblue" stroke="midnightblue" points="1098.5,-238.679 1102,-248.679 1105.5,-238.679 1098.5,-238.679"/>
</g>
<!-- Node27&#45;&gt;Node2 -->
<g id="edge96" class="edge"><title>Node27&#45;&gt;Node2</title>
<path fill="none" stroke="midnightblue" d="M1260.28,-240.228C1247.3,-220.844 1225.97,-193.984 1200,-180 1149.72,-152.932 987.475,-138.235 903.084,-132.251"/>
<polygon fill="midnightblue" stroke="midnightblue" points="1257.44,-242.285 1265.8,-248.794 1263.33,-238.492 1257.44,-242.285"/>
</g>
<!-- Node28 -->
<g id="node77" class="node"><title>Node28</title>
<a xlink:href="substitute__operation_8hpp.html" target="_top" xlink:title="Om header file.">
<polygon fill="none" stroke="black" points="1511,-181 1511,-211 1635,-211 1635,-181 1511,-181"/>
<text text-anchor="start" x="1519" y="-199" font-family="Helvetica,sans-Serif" font-size="10.00">code/om/operations</text>
<text text-anchor="middle" x="1573" y="-188" font-family="Helvetica,sans-Serif" font-size="10.00">/substitute_operation.hpp</text>
</a>
</g>
<!-- Node27&#45;&gt;Node28 -->
<g id="edge98" class="edge"><title>Node27&#45;&gt;Node28</title>
<path fill="none" stroke="midnightblue" d="M1343.66,-247.624C1394.21,-236.466 1461.99,-221.503 1510.74,-210.743"/>
<polygon fill="midnightblue" stroke="midnightblue" points="1342.8,-244.229 1333.79,-249.803 1344.31,-251.065 1342.8,-244.229"/>
</g>
<!-- Node30 -->
<g id="node83" class="node"><title>Node30</title>
<a xlink:href="translate__operation_8cpp.html" target="_top" xlink:title="Om source file.">
<polygon fill="none" stroke="black" points="1252.5,-181 1252.5,-211 1371.5,-211 1371.5,-181 1252.5,-181"/>
<text text-anchor="start" x="1260.5" y="-199" font-family="Helvetica,sans-Serif" font-size="10.00">code/om/operations</text>
<text text-anchor="middle" x="1312" y="-188" font-family="Helvetica,sans-Serif" font-size="10.00">/translate_operation.cpp</text>
</a>
</g>
<!-- Node27&#45;&gt;Node30 -->
<g id="edge106" class="edge"><title>Node27&#45;&gt;Node30</title>
<path fill="none" stroke="midnightblue" d="M1281.07,-239.426C1285.97,-230.023 1292.31,-219.504 1298.1,-211.293"/>
<polygon fill="midnightblue" stroke="midnightblue" points="1277.8,-238.156 1276.57,-248.679 1284.09,-241.221 1277.8,-238.156"/>
</g>
<!-- Node28&#45;&gt;Node2 -->
<g id="edge100" class="edge"><title>Node28&#45;&gt;Node2</title>
<path fill="none" stroke="midnightblue" d="M1500.85,-180.549C1499.56,-180.359 1498.27,-180.175 1497,-180 1277.44,-149.77 1013.25,-135.865 903.137,-131.061"/>
<polygon fill="midnightblue" stroke="midnightblue" points="1500.46,-184.031 1510.89,-182.131 1501.55,-177.116 1500.46,-184.031"/>
</g>
<!-- Node29 -->
<g id="node80" class="node"><title>Node29</title>
<a xlink:href="substitute__operation_8cpp.html" target="_top" xlink:title="Om source file.">
<polygon fill="none" stroke="black" points="1511.5,-113 1511.5,-143 1634.5,-143 1634.5,-113 1511.5,-113"/>
<text text-anchor="start" x="1519.5" y="-131" font-family="Helvetica,sans-Serif" font-size="10.00">code/om/operations</text>
<text text-anchor="middle" x="1573" y="-120" font-family="Helvetica,sans-Serif" font-size="10.00">/substitute_operation.cpp</text>
</a>
</g>
<!-- Node28&#45;&gt;Node29 -->
<g id="edge102" class="edge"><title>Node28&#45;&gt;Node29</title>
<path fill="none" stroke="midnightblue" d="M1566.45,-170.532C1566.01,-161.361 1566.3,-151.245 1567.33,-143.293"/>
<polygon fill="midnightblue" stroke="midnightblue" points="1562.98,-171.013 1567.32,-180.679 1569.96,-170.417 1562.98,-171.013"/>
</g>
<!-- Node29&#45;&gt;Node28 -->
<g id="edge104" class="edge"><title>Node29&#45;&gt;Node28</title>
<path fill="none" stroke="midnightblue" d="M1579.54,-153.436C1579.99,-162.605 1579.71,-172.722 1578.68,-180.679"/>
<polygon fill="midnightblue" stroke="midnightblue" points="1583.02,-152.958 1578.67,-143.293 1576.04,-153.555 1583.02,-152.958"/>
</g>
<!-- Node30&#45;&gt;Node27 -->
<g id="edge108" class="edge"><title>Node30&#45;&gt;Node27</title>
<path fill="none" stroke="midnightblue" d="M1304.94,-220.542C1300.05,-229.943 1293.72,-240.463 1287.92,-248.679"/>
<polygon fill="midnightblue" stroke="midnightblue" points="1308.22,-221.816 1309.45,-211.293 1301.92,-218.752 1308.22,-221.816"/>
</g>
<!-- Node31&#45;&gt;Node22 -->
<g id="edge112" class="edge"><title>Node31&#45;&gt;Node22</title>
<path fill="none" stroke="midnightblue" d="M1132.46,-345.691C1133.11,-354.635 1132.68,-364.927 1131.17,-372.083"/>
<polygon fill="midnightblue" stroke="midnightblue" points="1135.92,-345.2 1131.13,-335.751 1128.98,-346.126 1135.92,-345.2"/>
</g>
</g>
</svg>
