<?xml version="1.0" encoding="UTF-8" standalone="no"?>
<!DOCTYPE svg PUBLIC "-//W3C//DTD SVG 1.1//EN"
 "http://www.w3.org/Graphics/SVG/1.1/DTD/svg11.dtd">
<!-- Generated by graphviz version 2.30.1 (20130221.2233)
 -->
<!-- Title: code/om/operations/operator_back_push_operation.cpp Pages: 1 -->
<svg width="144pt" height="240pt"
 viewBox="0.00 0.00 144.00 240.00" xmlns="http://www.w3.org/2000/svg" xmlns:xlink="http://www.w3.org/1999/xlink">
<g id="graph0" class="graph" transform="scale(1 1) rotate(0) translate(4 236)">
<title>code/om/operations/operator_back_push_operation.cpp</title>
<!-- Node1 -->
<g id="node1" class="node"><title>Node1</title>
<polygon fill="#bfbfbf" stroke="black" points="13.0225,-187 13.0225,-231 122.978,-231 122.978,-187 13.0225,-187"/>
<text text-anchor="start" x="21.0225" y="-217" font-family="Helvetica,sans-Serif" font-size="10.00">code/om/operations</text>
<text text-anchor="start" x="21.0225" y="-205" font-family="Helvetica,sans-Serif" font-size="10.00">/operator_back_push</text>
<text text-anchor="middle" x="68" y="-193" font-family="Helvetica,sans-Serif" font-size="10.00">_operation.cpp</text>
</g>
<!-- Node2 -->
<g id="node2" class="node"><title>Node2</title>
<g id="a_node2"><a xlink:href="operator__back__push__operation_8hpp.html" target="_top" xlink:title="Om header file.">
<polygon fill="none" stroke="black" points="-0.327148,-117 -0.327148,-149 136.327,-149 136.327,-117 -0.327148,-117"/>
<text text-anchor="start" x="7.67285" y="-135" font-family="Helvetica,sans-Serif" font-size="10.00">om/operations/operator</text>
<text text-anchor="middle" x="68" y="-123" font-family="Helvetica,sans-Serif" font-size="10.00">_back_push_operation.hpp</text>
</a>
</g>
</g>
<!-- Node1&#45;&gt;Node2 -->
<g id="edge1" class="edge"><title>Node1&#45;&gt;Node2</title>
<path fill="none" stroke="midnightblue" d="M61.8449,-186.993C61.1713,-178.487 61.0697,-168.584 61.5402,-159.657"/>
<polygon fill="midnightblue" stroke="midnightblue" points="65.0514,-159.669 62.3977,-149.412 58.0758,-159.085 65.0514,-159.669"/>
</g>
<!-- Node3 -->
<g id="node3" class="node"><title>Node3</title>
<g id="a_node3"><a xlink:href="definition_8hpp.html" target="_top" xlink:title="Om header file.">
<polygon fill="none" stroke="black" points="21.9189,-59 21.9189,-79 114.081,-79 114.081,-59 21.9189,-59"/>
<text text-anchor="middle" x="68" y="-65" font-family="Helvetica,sans-Serif" font-size="10.00">om/definition.hpp</text>
</a>
</g>
</g>
<!-- Node2&#45;&gt;Node3 -->
<g id="edge2" class="edge"><title>Node2&#45;&gt;Node3</title>
<path fill="none" stroke="midnightblue" d="M68,-116.992C68,-108.726 68,-98.3728 68,-89.4891"/>
<polygon fill="midnightblue" stroke="midnightblue" points="71.5001,-89.2904 68,-79.2904 64.5001,-89.2904 71.5001,-89.2904"/>
</g>
<!-- Node2&#45;&gt;Node1 -->
<g id="edge5" class="edge"><title>Node2&#45;&gt;Node1</title>
<path fill="none" stroke="midnightblue" d="M73.6023,-149.412C74.5687,-157.409 74.9248,-167.475 74.6706,-176.997"/>
<polygon fill="midnightblue" stroke="midnightblue" points="71.1749,-176.825 74.1551,-186.993 78.1656,-177.186 71.1749,-176.825"/>
</g>
<!-- Node4 -->
<g id="node4" class="node"><title>Node4</title>
<g id="a_node4"><a xlink:href="definition_8cpp.html" target="_top" xlink:title="Om source file.">
<polygon fill="none" stroke="black" points="22.1997,-1 22.1997,-21 113.8,-21 113.8,-1 22.1997,-1"/>
<text text-anchor="middle" x="68" y="-7" font-family="Helvetica,sans-Serif" font-size="10.00">om/definition.cpp</text>
</a>
</g>
</g>
<!-- Node3&#45;&gt;Node4 -->
<g id="edge3" class="edge"><title>Node3&#45;&gt;Node4</title>
<path fill="none" stroke="midnightblue" d="M62.8337,-58.7527C61.3076,-51.2504 60.8844,-40.4238 61.5643,-31.0781"/>
<polygon fill="midnightblue" stroke="midnightblue" points="65.0461,-31.4439 62.869,-21.0752 58.1049,-30.5385 65.0461,-31.4439"/>
</g>
<!-- Node4&#45;&gt;Node3 -->
<g id="edge4" class="edge"><title>Node4&#45;&gt;Node3</title>
<path fill="none" stroke="midnightblue" d="M73.131,-21.0752C74.674,-28.5262 75.1141,-39.3384 74.4512,-48.7065"/>
<polygon fill="midnightblue" stroke="midnightblue" points="70.9633,-48.3895 73.1663,-58.7527 77.9067,-49.2776 70.9633,-48.3895"/>
</g>
</g>
</svg>
