<?xml version="1.0" encoding="UTF-8" standalone="no"?>
<!DOCTYPE svg PUBLIC "-//W3C//DTD SVG 1.1//EN"
 "http://www.w3.org/Graphics/SVG/1.1/DTD/svg11.dtd">
<!-- Generated by graphviz version 2.28.0 (20120817.0054)
 -->
<!-- Title: code/om/operation.cpp Pages: 1 -->
<svg width="120pt" height="196pt"
 viewBox="0.00 0.00 120.00 196.00" xmlns="http://www.w3.org/2000/svg" xmlns:xlink="http://www.w3.org/1999/xlink">
<g id="graph1" class="graph" transform="scale(1 1) rotate(0) translate(4 192)">
<title>code/om/operation.cpp</title>
<!-- Node1 -->
<g id="node1" class="node"><title>Node1</title>
<polygon fill="#bfbfbf" stroke="black" points="-0.5,-168.5 -0.5,-187.5 112.5,-187.5 112.5,-168.5 -0.5,-168.5"/>
<text text-anchor="middle" x="56" y="-175.5" font-family="Helvetica,sans-Serif" font-size="10.00">code/om/operation.cpp</text>
</g>
<!-- Node2 -->
<g id="node3" class="node"><title>Node2</title>
<a xlink:href="operation_8hpp.html" target="_top" xlink:title="Om header file.">
<polygon fill="none" stroke="black" points="10.5,-112.5 10.5,-131.5 101.5,-131.5 101.5,-112.5 10.5,-112.5"/>
<text text-anchor="middle" x="56" y="-119.5" font-family="Helvetica,sans-Serif" font-size="10.00">om/operation.hpp</text>
</a>
</g>
<!-- Node1&#45;&gt;Node2 -->
<g id="edge2" class="edge"><title>Node1&#45;&gt;Node2</title>
<path fill="none" stroke="midnightblue" d="M50.8337,-168.083C49.3242,-160.927 48.8938,-150.635 49.5425,-141.691"/>
<polygon fill="midnightblue" stroke="midnightblue" points="53.0154,-142.126 50.869,-131.751 46.0769,-141.2 53.0154,-142.126"/>
</g>
<!-- Node2&#45;&gt;Node1 -->
<g id="edge8" class="edge"><title>Node2&#45;&gt;Node1</title>
<path fill="none" stroke="midnightblue" d="M61.131,-131.751C62.6573,-138.858 63.1044,-149.136 62.4724,-158.101"/>
<polygon fill="midnightblue" stroke="midnightblue" points="58.9933,-157.713 61.1663,-168.083 65.9342,-158.622 58.9933,-157.713"/>
</g>
<!-- Node3 -->
<g id="node5" class="node"><title>Node3</title>
<a xlink:href="code__point_8hpp.html" target="_top" xlink:title="Om header file.">
<polygon fill="none" stroke="black" points="7,-56.5 7,-75.5 105,-75.5 105,-56.5 7,-56.5"/>
<text text-anchor="middle" x="56" y="-63.5" font-family="Helvetica,sans-Serif" font-size="10.00">om/code_point.hpp</text>
</a>
</g>
<!-- Node2&#45;&gt;Node3 -->
<g id="edge4" class="edge"><title>Node2&#45;&gt;Node3</title>
<path fill="none" stroke="midnightblue" d="M56,-112.083C56,-105.006 56,-94.8611 56,-85.9865"/>
<polygon fill="midnightblue" stroke="midnightblue" points="59.5001,-85.751 56,-75.7511 52.5001,-85.7511 59.5001,-85.751"/>
</g>
<!-- Node4 -->
<g id="node7" class="node"><title>Node4</title>
<polygon fill="none" stroke="#bfbfbf" points="6,-0.5 6,-19.5 106,-19.5 106,-0.5 6,-0.5"/>
<text text-anchor="middle" x="56" y="-7.5" font-family="Helvetica,sans-Serif" font-size="10.00">boost/locale/utf.hpp</text>
</g>
<!-- Node3&#45;&gt;Node4 -->
<g id="edge6" class="edge"><title>Node3&#45;&gt;Node4</title>
<path fill="none" stroke="midnightblue" d="M56,-56.083C56,-49.0059 56,-38.8611 56,-29.9865"/>
<polygon fill="midnightblue" stroke="midnightblue" points="59.5001,-29.751 56,-19.7511 52.5001,-29.7511 59.5001,-29.751"/>
</g>
</g>
</svg>
