<?xml version="1.0" encoding="UTF-8" standalone="no"?>
<!DOCTYPE svg PUBLIC "-//W3C//DTD SVG 1.1//EN"
 "http://www.w3.org/Graphics/SVG/1.1/DTD/svg11.dtd">
<!-- Generated by graphviz version 2.36.0 (20140111.2315)
 -->
<!-- Title: om/language/operator.hpp Pages: 1 -->
<svg width="1365pt" height="338pt"
 viewBox="0.00 0.00 1365.00 338.00" xmlns="http://www.w3.org/2000/svg" xmlns:xlink="http://www.w3.org/1999/xlink">
<g id="graph0" class="graph" transform="scale(1 1) rotate(0) translate(4 334)">
<title>om/language/operator.hpp</title>
<!-- Node1 -->
<g id="node1" class="node"><title>Node1</title>
<g id="a_node1"><a xlink:title="Om header file.">
<polygon fill="#bfbfbf" stroke="black" points="774.619,-311 774.619,-329 907.381,-329 907.381,-311 774.619,-311"/>
<text text-anchor="middle" x="841" y="-317" font-family="Helvetica,sans-Serif" font-size="10.00">om/language/operator.hpp</text>
</a>
</g>
</g>
<!-- Node2 -->
<g id="node2" class="node"><title>Node2</title>
<g id="a_node2"><a xlink:href="form_8hpp.html" target="_top" xlink:title="Om header file.">
<polygon fill="none" stroke="black" points="577.968,-255 577.968,-273 694.032,-273 694.032,-255 577.968,-255"/>
<text text-anchor="middle" x="636" y="-261" font-family="Helvetica,sans-Serif" font-size="10.00">om/language/form.hpp</text>
</a>
</g>
</g>
<!-- Node1&#45;&gt;Node2 -->
<g id="edge1" class="edge"><title>Node1&#45;&gt;Node2</title>
<path fill="none" stroke="midnightblue" d="M800.497,-308.331C761.112,-297.956 702.165,-282.429 666.565,-273.051"/>
<polygon fill="midnightblue" stroke="midnightblue" points="799.748,-311.753 810.309,-310.916 801.531,-304.984 799.748,-311.753"/>
</g>
<!-- Node16 -->
<g id="node16" class="node"><title>Node16</title>
<g id="a_node16"><a xlink:href="operator_8cpp.html" target="_top" xlink:title="Om source file.">
<polygon fill="none" stroke="black" points="774.899,-255 774.899,-273 907.101,-273 907.101,-255 774.899,-255"/>
<text text-anchor="middle" x="841" y="-261" font-family="Helvetica,sans-Serif" font-size="10.00">om/language/operator.cpp</text>
</a>
</g>
</g>
<!-- Node1&#45;&gt;Node16 -->
<g id="edge21" class="edge"><title>Node1&#45;&gt;Node16</title>
<path fill="none" stroke="midnightblue" d="M834.567,-300.633C833.861,-291.313 834.335,-280.459 835.991,-273.201"/>
<polygon fill="midnightblue" stroke="midnightblue" points="831.103,-301.135 835.938,-310.562 838.037,-300.178 831.103,-301.135"/>
</g>
<!-- Node17 -->
<g id="node17" class="node"><title>Node17</title>
<g id="a_node17"><a xlink:href="pair_8hpp.html" target="_top" xlink:title="Om header file.">
<polygon fill="none" stroke="black" points="955.904,-255 955.904,-273 1068.1,-273 1068.1,-255 955.904,-255"/>
<text text-anchor="middle" x="1012" y="-261" font-family="Helvetica,sans-Serif" font-size="10.00">om/language/pair.hpp</text>
</a>
</g>
</g>
<!-- Node1&#45;&gt;Node17 -->
<g id="edge23" class="edge"><title>Node1&#45;&gt;Node17</title>
<path fill="none" stroke="midnightblue" d="M876.261,-307.865C909.096,-297.496 957.25,-282.289 986.504,-273.051"/>
<polygon fill="midnightblue" stroke="midnightblue" points="875.082,-304.567 866.6,-310.916 877.19,-311.242 875.082,-304.567"/>
</g>
<!-- Node3 -->
<g id="node3" class="node"><title>Node3</title>
<g id="a_node3"><a xlink:href="expression_8hpp.html" target="_top" xlink:title="Om header file.">
<polygon fill="none" stroke="black" points="365.789,-199 365.789,-217 510.211,-217 510.211,-199 365.789,-199"/>
<text text-anchor="middle" x="438" y="-205" font-family="Helvetica,sans-Serif" font-size="10.00">om/language/expression.hpp</text>
</a>
</g>
</g>
<!-- Node2&#45;&gt;Node3 -->
<g id="edge2" class="edge"><title>Node2&#45;&gt;Node3</title>
<path fill="none" stroke="midnightblue" d="M596.638,-252.265C558.598,-241.89 501.833,-226.409 467.521,-217.051"/>
<polygon fill="midnightblue" stroke="midnightblue" points="595.789,-255.661 606.357,-254.916 597.631,-248.908 595.789,-255.661"/>
</g>
<!-- Node15 -->
<g id="node15" class="node"><title>Node15</title>
<g id="a_node15"><a xlink:href="form_8cpp.html" target="_top" xlink:title="Om source file.">
<polygon fill="none" stroke="black" points="578.249,-199 578.249,-217 693.751,-217 693.751,-199 578.249,-199"/>
<text text-anchor="middle" x="636" y="-205" font-family="Helvetica,sans-Serif" font-size="10.00">om/language/form.cpp</text>
</a>
</g>
</g>
<!-- Node2&#45;&gt;Node15 -->
<g id="edge19" class="edge"><title>Node2&#45;&gt;Node15</title>
<path fill="none" stroke="midnightblue" d="M629.567,-244.633C628.861,-235.313 629.335,-224.459 630.991,-217.201"/>
<polygon fill="midnightblue" stroke="midnightblue" points="626.103,-245.135 630.938,-254.562 633.037,-244.178 626.103,-245.135"/>
</g>
<!-- Node4 -->
<g id="node4" class="node"><title>Node4</title>
<g id="a_node4"><a xlink:href="evaluation_8hpp.html" target="_top" xlink:title="Om header file.">
<polygon fill="none" stroke="black" points="-0.827148,-138 -0.827148,-156 140.827,-156 140.827,-138 -0.827148,-138"/>
<text text-anchor="middle" x="70" y="-144" font-family="Helvetica,sans-Serif" font-size="10.00">om/language/evaluation.hpp</text>
</a>
</g>
</g>
<!-- Node3&#45;&gt;Node4 -->
<g id="edge3" class="edge"><title>Node3&#45;&gt;Node4</title>
<path fill="none" stroke="midnightblue" d="M374.696,-197.448C316.308,-188.558 227.242,-174.792 150,-162 138.733,-160.134 126.586,-158.047 115.245,-156.066"/>
<polygon fill="midnightblue" stroke="midnightblue" points="374.46,-200.953 384.873,-198.996 375.512,-194.032 374.46,-200.953"/>
</g>
<!-- Node6 -->
<g id="node6" class="node"><title>Node6</title>
<g id="a_node6"><a xlink:href="expression_8cpp.html" target="_top" xlink:title="Om source file.">
<polygon fill="none" stroke="black" points="159.069,-138 159.069,-156 302.931,-156 302.931,-138 159.069,-138"/>
<text text-anchor="middle" x="231" y="-144" font-family="Helvetica,sans-Serif" font-size="10.00">om/language/expression.cpp</text>
</a>
</g>
</g>
<!-- Node3&#45;&gt;Node6 -->
<g id="edge6" class="edge"><title>Node3&#45;&gt;Node6</title>
<path fill="none" stroke="midnightblue" d="M395.003,-196.269C352.339,-184.688 288.725,-166.506 254.521,-156.077"/>
<polygon fill="midnightblue" stroke="midnightblue" points="394.268,-199.696 404.835,-198.92 396.091,-192.937 394.268,-199.696"/>
</g>
<!-- Node7 -->
<g id="node7" class="node"><title>Node7</title>
<g id="a_node7"><a xlink:href="expression__operation_8hpp.html" target="_top" xlink:title="Om header file.">
<polygon fill="none" stroke="black" points="321.069,-133 321.069,-161 454.931,-161 454.931,-133 321.069,-133"/>
<text text-anchor="start" x="329.069" y="-149" font-family="Helvetica,sans-Serif" font-size="10.00">om/language/operation</text>
<text text-anchor="middle" x="388" y="-139" font-family="Helvetica,sans-Serif" font-size="10.00">/expression_operation.hpp</text>
</a>
</g>
</g>
<!-- Node3&#45;&gt;Node7 -->
<g id="edge8" class="edge"><title>Node3&#45;&gt;Node7</title>
<path fill="none" stroke="midnightblue" d="M424.434,-190.992C416.495,-181.624 406.595,-169.943 399.12,-161.121"/>
<polygon fill="midnightblue" stroke="midnightblue" points="421.912,-193.43 431.048,-198.796 427.253,-188.904 421.912,-193.43"/>
</g>
<!-- Node9 -->
<g id="node9" class="node"><title>Node9</title>
<g id="a_node9"><a xlink:href="fill__operation_8hpp.html" target="_top" xlink:title="Om header file.">
<polygon fill="none" stroke="black" points="472.85,-133 472.85,-161 591.15,-161 591.15,-133 472.85,-133"/>
<text text-anchor="start" x="480.85" y="-149" font-family="Helvetica,sans-Serif" font-size="10.00">om/language/operation</text>
<text text-anchor="middle" x="532" y="-139" font-family="Helvetica,sans-Serif" font-size="10.00">/fill_operation.hpp</text>
</a>
</g>
</g>
<!-- Node3&#45;&gt;Node9 -->
<g id="edge10" class="edge"><title>Node3&#45;&gt;Node9</title>
<path fill="none" stroke="midnightblue" d="M459.927,-193.237C475.361,-183.55 495.893,-170.663 511.095,-161.121"/>
<polygon fill="midnightblue" stroke="midnightblue" points="457.679,-190.516 451.07,-198.796 461.401,-196.445 457.679,-190.516"/>
</g>
<!-- Node11 -->
<g id="node11" class="node"><title>Node11</title>
<g id="a_node11"><a xlink:href="inject__operation_8hpp.html" target="_top" xlink:title="Om header file.">
<polygon fill="none" stroke="black" points="608.85,-133 608.85,-161 727.15,-161 727.15,-133 608.85,-133"/>
<text text-anchor="start" x="616.85" y="-149" font-family="Helvetica,sans-Serif" font-size="10.00">om/language/operation</text>
<text text-anchor="middle" x="668" y="-139" font-family="Helvetica,sans-Serif" font-size="10.00">/inject_operation.hpp</text>
</a>
</g>
</g>
<!-- Node3&#45;&gt;Node11 -->
<g id="edge13" class="edge"><title>Node3&#45;&gt;Node11</title>
<path fill="none" stroke="midnightblue" d="M479.362,-196.39C517.955,-186.49 575.645,-171.691 617.059,-161.067"/>
<polygon fill="midnightblue" stroke="midnightblue" points="478.315,-193.045 469.498,-198.92 480.054,-199.825 478.315,-193.045"/>
</g>
<!-- Node13 -->
<g id="node13" class="node"><title>Node13</title>
<g id="a_node13"><a xlink:href="skip__operation_8hpp.html" target="_top" xlink:title="Om header file.">
<polygon fill="none" stroke="black" points="744.85,-133 744.85,-161 863.15,-161 863.15,-133 744.85,-133"/>
<text text-anchor="start" x="752.85" y="-149" font-family="Helvetica,sans-Serif" font-size="10.00">om/language/operation</text>
<text text-anchor="middle" x="804" y="-139" font-family="Helvetica,sans-Serif" font-size="10.00">/skip_operation.hpp</text>
</a>
</g>
</g>
<!-- Node3&#45;&gt;Node13 -->
<g id="edge16" class="edge"><title>Node3&#45;&gt;Node13</title>
<path fill="none" stroke="midnightblue" d="M507.717,-197.541C568.22,-189.077 658.091,-175.892 736,-162 738.848,-161.492 741.759,-160.957 744.698,-160.403"/>
<polygon fill="midnightblue" stroke="midnightblue" points="506.941,-194.115 497.52,-198.962 507.907,-201.048 506.941,-194.115"/>
</g>
<!-- Node5 -->
<g id="node5" class="node"><title>Node5</title>
<g id="a_node5"><a xlink:href="evaluation_8cpp.html" target="_top" xlink:title="Om source file.">
<polygon fill="none" stroke="black" points="-0.546387,-72 -0.546387,-90 140.546,-90 140.546,-72 -0.546387,-72"/>
<text text-anchor="middle" x="70" y="-78" font-family="Helvetica,sans-Serif" font-size="10.00">om/language/evaluation.cpp</text>
</a>
</g>
</g>
<!-- Node4&#45;&gt;Node5 -->
<g id="edge4" class="edge"><title>Node4&#45;&gt;Node5</title>
<path fill="none" stroke="midnightblue" d="M63.84,-127.777C62.7142,-115.421 63.1996,-99.677 65.2963,-90.242"/>
<polygon fill="midnightblue" stroke="midnightblue" points="60.4099,-128.51 65.3268,-137.894 67.3355,-127.492 60.4099,-128.51"/>
</g>
<!-- Node5&#45;&gt;Node4 -->
<g id="edge5" class="edge"><title>Node5&#45;&gt;Node4</title>
<path fill="none" stroke="midnightblue" d="M76.1763,-100.402C77.2865,-112.791 76.7855,-128.52 74.6732,-137.894"/>
<polygon fill="midnightblue" stroke="midnightblue" points="79.6019,-99.6365 74.7037,-90.242 72.6743,-100.641 79.6019,-99.6365"/>
</g>
<!-- Node6&#45;&gt;Node3 -->
<g id="edge7" class="edge"><title>Node6&#45;&gt;Node3</title>
<path fill="none" stroke="midnightblue" d="M273.984,-158.727C316.644,-170.307 380.259,-188.489 414.468,-198.92"/>
<polygon fill="midnightblue" stroke="midnightblue" points="274.72,-155.301 264.154,-156.077 272.898,-162.059 274.72,-155.301"/>
</g>
<!-- Node8 -->
<g id="node8" class="node"><title>Node8</title>
<g id="a_node8"><a xlink:href="expression__operation_8cpp.html" target="_top" xlink:title="Om source file.">
<polygon fill="none" stroke="black" points="321.35,-67 321.35,-95 454.65,-95 454.65,-67 321.35,-67"/>
<text text-anchor="start" x="329.35" y="-83" font-family="Helvetica,sans-Serif" font-size="10.00">om/language/operation</text>
<text text-anchor="middle" x="388" y="-73" font-family="Helvetica,sans-Serif" font-size="10.00">/expression_operation.cpp</text>
</a>
</g>
</g>
<!-- Node7&#45;&gt;Node8 -->
<g id="edge9" class="edge"><title>Node7&#45;&gt;Node8</title>
<path fill="none" stroke="midnightblue" d="M388,-122.595C388,-113.379 388,-103.135 388,-95.2439"/>
<polygon fill="midnightblue" stroke="midnightblue" points="384.5,-122.739 388,-132.739 391.5,-122.739 384.5,-122.739"/>
</g>
<!-- Node10 -->
<g id="node10" class="node"><title>Node10</title>
<g id="a_node10"><a xlink:href="fill__operation_8cpp.html" target="_top" xlink:title="Om source file.">
<polygon fill="none" stroke="black" points="472.85,-67 472.85,-95 591.15,-95 591.15,-67 472.85,-67"/>
<text text-anchor="start" x="480.85" y="-83" font-family="Helvetica,sans-Serif" font-size="10.00">om/language/operation</text>
<text text-anchor="middle" x="532" y="-73" font-family="Helvetica,sans-Serif" font-size="10.00">/fill_operation.cpp</text>
</a>
</g>
</g>
<!-- Node9&#45;&gt;Node10 -->
<g id="edge11" class="edge"><title>Node9&#45;&gt;Node10</title>
<path fill="none" stroke="midnightblue" d="M525.471,-122.595C524.986,-113.379 525.299,-103.135 526.41,-95.2439"/>
<polygon fill="midnightblue" stroke="midnightblue" points="522.003,-123.103 526.407,-132.739 528.974,-122.46 522.003,-123.103"/>
</g>
<!-- Node10&#45;&gt;Node9 -->
<g id="edge12" class="edge"><title>Node10&#45;&gt;Node9</title>
<path fill="none" stroke="midnightblue" d="M538.528,-105.386C539.014,-114.6 538.702,-124.844 537.593,-132.739"/>
<polygon fill="midnightblue" stroke="midnightblue" points="541.996,-104.879 537.59,-95.2439 535.026,-105.524 541.996,-104.879"/>
</g>
<!-- Node12 -->
<g id="node12" class="node"><title>Node12</title>
<g id="a_node12"><a xlink:href="inject__operation_8cpp.html" target="_top" xlink:title="Om source file.">
<polygon fill="none" stroke="black" points="608.85,-67 608.85,-95 727.15,-95 727.15,-67 608.85,-67"/>
<text text-anchor="start" x="616.85" y="-83" font-family="Helvetica,sans-Serif" font-size="10.00">om/language/operation</text>
<text text-anchor="middle" x="668" y="-73" font-family="Helvetica,sans-Serif" font-size="10.00">/inject_operation.cpp</text>
</a>
</g>
</g>
<!-- Node11&#45;&gt;Node12 -->
<g id="edge14" class="edge"><title>Node11&#45;&gt;Node12</title>
<path fill="none" stroke="midnightblue" d="M661.471,-122.595C660.986,-113.379 661.299,-103.135 662.41,-95.2439"/>
<polygon fill="midnightblue" stroke="midnightblue" points="658.003,-123.103 662.407,-132.739 664.974,-122.46 658.003,-123.103"/>
</g>
<!-- Node12&#45;&gt;Node11 -->
<g id="edge15" class="edge"><title>Node12&#45;&gt;Node11</title>
<path fill="none" stroke="midnightblue" d="M674.528,-105.386C675.014,-114.6 674.702,-124.844 673.593,-132.739"/>
<polygon fill="midnightblue" stroke="midnightblue" points="677.996,-104.879 673.59,-95.2439 671.026,-105.524 677.996,-104.879"/>
</g>
<!-- Node14 -->
<g id="node14" class="node"><title>Node14</title>
<g id="a_node14"><a xlink:href="skip__operation_8cpp.html" target="_top" xlink:title="Om source file.">
<polygon fill="none" stroke="black" points="744.85,-67 744.85,-95 863.15,-95 863.15,-67 744.85,-67"/>
<text text-anchor="start" x="752.85" y="-83" font-family="Helvetica,sans-Serif" font-size="10.00">om/language/operation</text>
<text text-anchor="middle" x="804" y="-73" font-family="Helvetica,sans-Serif" font-size="10.00">/skip_operation.cpp</text>
</a>
</g>
</g>
<!-- Node13&#45;&gt;Node14 -->
<g id="edge17" class="edge"><title>Node13&#45;&gt;Node14</title>
<path fill="none" stroke="midnightblue" d="M797.471,-122.595C796.986,-113.379 797.299,-103.135 798.41,-95.2439"/>
<polygon fill="midnightblue" stroke="midnightblue" points="794.003,-123.103 798.407,-132.739 800.974,-122.46 794.003,-123.103"/>
</g>
<!-- Node14&#45;&gt;Node13 -->
<g id="edge18" class="edge"><title>Node14&#45;&gt;Node13</title>
<path fill="none" stroke="midnightblue" d="M810.528,-105.386C811.014,-114.6 810.702,-124.844 809.593,-132.739"/>
<polygon fill="midnightblue" stroke="midnightblue" points="813.996,-104.879 809.59,-95.2439 807.026,-105.524 813.996,-104.879"/>
</g>
<!-- Node15&#45;&gt;Node2 -->
<g id="edge20" class="edge"><title>Node15&#45;&gt;Node2</title>
<path fill="none" stroke="midnightblue" d="M642.434,-227.369C643.132,-236.588 642.675,-247.308 641.062,-254.562"/>
<polygon fill="midnightblue" stroke="midnightblue" points="645.863,-226.619 641.009,-217.201 638.931,-227.59 645.863,-226.619"/>
</g>
<!-- Node16&#45;&gt;Node1 -->
<g id="edge22" class="edge"><title>Node16&#45;&gt;Node1</title>
<path fill="none" stroke="midnightblue" d="M847.434,-283.369C848.132,-292.588 847.675,-303.308 846.062,-310.562"/>
<polygon fill="midnightblue" stroke="midnightblue" points="850.863,-282.619 846.009,-273.201 843.931,-283.59 850.863,-282.619"/>
</g>
<!-- Node18 -->
<g id="node18" class="node"><title>Node18</title>
<g id="a_node18"><a xlink:href="lexicon_8hpp.html" target="_top" xlink:title="Om header file.">
<polygon fill="none" stroke="black" points="880.404,-199 880.404,-217 1007.6,-217 1007.6,-199 880.404,-199"/>
<text text-anchor="middle" x="944" y="-205" font-family="Helvetica,sans-Serif" font-size="10.00">om/language/lexicon.hpp</text>
</a>
</g>
</g>
<!-- Node17&#45;&gt;Node18 -->
<g id="edge24" class="edge"><title>Node17&#45;&gt;Node18</title>
<path fill="none" stroke="midnightblue" d="M993.665,-248.44C981.086,-238.451 964.846,-225.554 954.425,-217.279"/>
<polygon fill="midnightblue" stroke="midnightblue" points="991.665,-251.321 1001.67,-254.799 996.018,-245.839 991.665,-251.321"/>
</g>
<!-- Node26 -->
<g id="node26" class="node"><title>Node26</title>
<g id="a_node26"><a xlink:href="pair_8cpp.html" target="_top" xlink:title="Om source file.">
<polygon fill="none" stroke="black" points="1025.19,-199 1025.19,-217 1136.81,-217 1136.81,-199 1025.19,-199"/>
<text text-anchor="middle" x="1081" y="-205" font-family="Helvetica,sans-Serif" font-size="10.00">om/language/pair.cpp</text>
</a>
</g>
</g>
<!-- Node17&#45;&gt;Node26 -->
<g id="edge35" class="edge"><title>Node17&#45;&gt;Node26</title>
<path fill="none" stroke="midnightblue" d="M1025.21,-247.86C1036.89,-237.852 1053.53,-225.132 1065.78,-217.026"/>
<polygon fill="midnightblue" stroke="midnightblue" points="1022.84,-245.287 1017.72,-254.562 1027.51,-250.504 1022.84,-245.287"/>
</g>
<!-- Node19 -->
<g id="node19" class="node"><title>Node19</title>
<g id="a_node19"><a xlink:href="lexicon_8cpp.html" target="_top" xlink:title="Om source file.">
<polygon fill="none" stroke="black" points="880.685,-138 880.685,-156 1007.31,-156 1007.31,-138 880.685,-138"/>
<text text-anchor="middle" x="944" y="-144" font-family="Helvetica,sans-Serif" font-size="10.00">om/language/lexicon.cpp</text>
</a>
</g>
</g>
<!-- Node18&#45;&gt;Node19 -->
<g id="edge25" class="edge"><title>Node18&#45;&gt;Node19</title>
<path fill="none" stroke="midnightblue" d="M937.695,-188.612C936.782,-177.725 937.274,-164.473 939.171,-156.134"/>
<polygon fill="midnightblue" stroke="midnightblue" points="934.271,-189.394 939.155,-198.796 941.2,-188.401 934.271,-189.394"/>
</g>
<!-- Node20 -->
<g id="node20" class="node"><title>Node20</title>
<g id="a_node20"><a xlink:href="lexicon__operation_8hpp.html" target="_top" xlink:title="Om header file.">
<polygon fill="none" stroke="black" points="1024.85,-133 1024.85,-161 1143.15,-161 1143.15,-133 1024.85,-133"/>
<text text-anchor="start" x="1032.85" y="-149" font-family="Helvetica,sans-Serif" font-size="10.00">om/language/operation</text>
<text text-anchor="middle" x="1084" y="-139" font-family="Helvetica,sans-Serif" font-size="10.00">/lexicon_operation.hpp</text>
</a>
</g>
</g>
<!-- Node18&#45;&gt;Node20 -->
<g id="edge27" class="edge"><title>Node18&#45;&gt;Node20</title>
<path fill="none" stroke="midnightblue" d="M972.55,-194.968C995.934,-185.114 1028.96,-171.194 1052.99,-161.067"/>
<polygon fill="midnightblue" stroke="midnightblue" points="971.029,-191.811 963.173,-198.92 973.747,-198.262 971.029,-191.811"/>
</g>
<!-- Node22 -->
<g id="node22" class="node"><title>Node22</title>
<g id="a_node22"><a xlink:href="translate__operation_8hpp.html" target="_top" xlink:title="Om header file.">
<polygon fill="none" stroke="black" points="1197.07,-133 1197.07,-161 1320.93,-161 1320.93,-133 1197.07,-133"/>
<text text-anchor="start" x="1205.07" y="-149" font-family="Helvetica,sans-Serif" font-size="10.00">om/language/operation</text>
<text text-anchor="middle" x="1259" y="-139" font-family="Helvetica,sans-Serif" font-size="10.00">/translate_operation.hpp</text>
</a>
</g>
</g>
<!-- Node18&#45;&gt;Node22 -->
<g id="edge29" class="edge"><title>Node18&#45;&gt;Node22</title>
<path fill="none" stroke="midnightblue" d="M996.74,-197.122C1051.95,-186.78 1138.6,-170.552 1197.04,-159.606"/>
<polygon fill="midnightblue" stroke="midnightblue" points="995.995,-193.7 986.81,-198.982 997.284,-200.581 995.995,-193.7"/>
</g>
<!-- Node19&#45;&gt;Node18 -->
<g id="edge26" class="edge"><title>Node19&#45;&gt;Node18</title>
<path fill="none" stroke="midnightblue" d="M950.297,-166.297C951.218,-177.171 950.734,-190.43 948.845,-198.796"/>
<polygon fill="midnightblue" stroke="midnightblue" points="953.723,-165.531 948.829,-156.134 946.795,-166.532 953.723,-165.531"/>
</g>
<!-- Node21 -->
<g id="node21" class="node"><title>Node21</title>
<g id="a_node21"><a xlink:href="lexicon__operation_8cpp.html" target="_top" xlink:title="Om source file.">
<polygon fill="none" stroke="black" points="951.85,-67 951.85,-95 1070.15,-95 1070.15,-67 951.85,-67"/>
<text text-anchor="start" x="959.85" y="-83" font-family="Helvetica,sans-Serif" font-size="10.00">om/language/operation</text>
<text text-anchor="middle" x="1011" y="-73" font-family="Helvetica,sans-Serif" font-size="10.00">/lexicon_operation.cpp</text>
</a>
</g>
</g>
<!-- Node20&#45;&gt;Node21 -->
<g id="edge28" class="edge"><title>Node20&#45;&gt;Node21</title>
<path fill="none" stroke="midnightblue" d="M1061.3,-126.095C1049.75,-115.972 1036.04,-103.955 1025.86,-95.0249"/>
<polygon fill="midnightblue" stroke="midnightblue" points="1059.05,-128.779 1068.87,-132.739 1063.66,-123.515 1059.05,-128.779"/>
</g>
<!-- Node23 -->
<g id="node23" class="node"><title>Node23</title>
<g id="a_node23"><a xlink:href="substitute__operation_8hpp.html" target="_top" xlink:title="Om header file.">
<polygon fill="none" stroke="black" points="1087.85,-67 1087.85,-95 1216.15,-95 1216.15,-67 1087.85,-67"/>
<text text-anchor="start" x="1095.85" y="-83" font-family="Helvetica,sans-Serif" font-size="10.00">om/language/operation</text>
<text text-anchor="middle" x="1152" y="-73" font-family="Helvetica,sans-Serif" font-size="10.00">/substitute_operation.hpp</text>
</a>
</g>
</g>
<!-- Node22&#45;&gt;Node23 -->
<g id="edge30" class="edge"><title>Node22&#45;&gt;Node23</title>
<path fill="none" stroke="midnightblue" d="M1228.4,-127.697C1210.99,-117.286 1189.6,-104.489 1173.88,-95.0883"/>
<polygon fill="midnightblue" stroke="midnightblue" points="1226.71,-130.765 1237.09,-132.894 1230.3,-124.757 1226.71,-130.765"/>
</g>
<!-- Node25 -->
<g id="node25" class="node"><title>Node25</title>
<g id="a_node25"><a xlink:href="translate__operation_8cpp.html" target="_top" xlink:title="Om source file.">
<polygon fill="none" stroke="black" points="1234.35,-67 1234.35,-95 1357.65,-95 1357.65,-67 1234.35,-67"/>
<text text-anchor="start" x="1242.35" y="-83" font-family="Helvetica,sans-Serif" font-size="10.00">om/language/operation</text>
<text text-anchor="middle" x="1296" y="-73" font-family="Helvetica,sans-Serif" font-size="10.00">/translate_operation.cpp</text>
</a>
</g>
</g>
<!-- Node22&#45;&gt;Node25 -->
<g id="edge33" class="edge"><title>Node22&#45;&gt;Node25</title>
<path fill="none" stroke="midnightblue" d="M1265.53,-123.493C1270.44,-114.049 1276.9,-103.393 1282.75,-95.2439"/>
<polygon fill="midnightblue" stroke="midnightblue" points="1262.27,-122.212 1261.07,-132.739 1268.57,-125.252 1262.27,-122.212"/>
</g>
<!-- Node24 -->
<g id="node24" class="node"><title>Node24</title>
<g id="a_node24"><a xlink:href="substitute__operation_8cpp.html" target="_top" xlink:title="Om source file.">
<polygon fill="none" stroke="black" points="1088.13,-1 1088.13,-29 1215.87,-29 1215.87,-1 1088.13,-1"/>
<text text-anchor="start" x="1096.13" y="-17" font-family="Helvetica,sans-Serif" font-size="10.00">om/language/operation</text>
<text text-anchor="middle" x="1152" y="-7" font-family="Helvetica,sans-Serif" font-size="10.00">/substitute_operation.cpp</text>
</a>
</g>
</g>
<!-- Node23&#45;&gt;Node24 -->
<g id="edge31" class="edge"><title>Node23&#45;&gt;Node24</title>
<path fill="none" stroke="midnightblue" d="M1145.47,-56.5946C1144.99,-47.3785 1145.3,-37.1352 1146.41,-29.2439"/>
<polygon fill="midnightblue" stroke="midnightblue" points="1142,-57.1031 1146.41,-66.7392 1148.97,-56.4598 1142,-57.1031"/>
</g>
<!-- Node24&#45;&gt;Node23 -->
<g id="edge32" class="edge"><title>Node24&#45;&gt;Node23</title>
<path fill="none" stroke="midnightblue" d="M1158.53,-39.3855C1159.01,-48.6002 1158.7,-58.8444 1157.59,-66.7392"/>
<polygon fill="midnightblue" stroke="midnightblue" points="1162,-38.8792 1157.59,-29.2439 1155.03,-39.5236 1162,-38.8792"/>
</g>
<!-- Node25&#45;&gt;Node22 -->
<g id="edge34" class="edge"><title>Node25&#45;&gt;Node22</title>
<path fill="none" stroke="midnightblue" d="M1289.48,-104.488C1284.57,-113.93 1278.12,-124.587 1272.26,-132.739"/>
<polygon fill="midnightblue" stroke="midnightblue" points="1292.74,-105.772 1293.93,-95.2439 1286.44,-102.732 1292.74,-105.772"/>
</g>
<!-- Node26&#45;&gt;Node17 -->
<g id="edge36" class="edge"><title>Node26&#45;&gt;Node17</title>
<path fill="none" stroke="midnightblue" d="M1067.68,-224.234C1056.09,-234.155 1039.67,-246.711 1027.49,-254.799"/>
<polygon fill="midnightblue" stroke="midnightblue" points="1070.33,-226.556 1075.45,-217.279 1065.66,-221.341 1070.33,-226.556"/>
</g>
</g>
</svg>
