<?xml version="1.0" encoding="UTF-8" standalone="no"?>
<!DOCTYPE svg PUBLIC "-//W3C//DTD SVG 1.1//EN"
 "http://www.w3.org/Graphics/SVG/1.1/DTD/svg11.dtd">
<!-- Generated by graphviz version 2.30.1 (20130221.2233)
 -->
<!-- Title: code/om/operator.cpp Pages: 1 -->
<svg width="1276pt" height="414pt"
 viewBox="0.00 0.00 1276.00 414.00" xmlns="http://www.w3.org/2000/svg" xmlns:xlink="http://www.w3.org/1999/xlink">
<g id="graph0" class="graph" transform="scale(1 1) rotate(0) translate(4 410)">
<title>code/om/operator.cpp</title>
<!-- Node1 -->
<g id="node1" class="node"><title>Node1</title>
<polygon fill="#bfbfbf" stroke="black" points="704.633,-385 704.633,-405 817.367,-405 817.367,-385 704.633,-385"/>
<text text-anchor="middle" x="761" y="-391" font-family="Helvetica,sans-Serif" font-size="10.00">code/om/operator.cpp</text>
</g>
<!-- Node2 -->
<g id="node2" class="node"><title>Node2</title>
<g id="a_node2"><a xlink:href="operator_8hpp.html" target="_top" xlink:title="Om header file.">
<polygon fill="none" stroke="black" points="704.353,-327 704.353,-347 817.647,-347 817.647,-327 704.353,-327"/>
<text text-anchor="middle" x="761" y="-333" font-family="Helvetica,sans-Serif" font-size="10.00">code/om/operator.hpp</text>
</a>
</g>
</g>
<!-- Node1&#45;&gt;Node2 -->
<g id="edge1" class="edge"><title>Node1&#45;&gt;Node2</title>
<path fill="none" stroke="midnightblue" d="M754.549,-374.707C753.886,-365.338 754.326,-354.526 755.869,-347.075"/>
<polygon fill="midnightblue" stroke="midnightblue" points="751.093,-375.278 755.834,-384.753 758.037,-374.389 751.093,-375.278"/>
</g>
<!-- Node3 -->
<g id="node3" class="node"><title>Node3</title>
<g id="a_node3"><a xlink:href="form_8hpp.html" target="_top" xlink:title="Om header file.">
<polygon fill="none" stroke="black" points="558.702,-269 558.702,-289 655.298,-289 655.298,-269 558.702,-269"/>
<text text-anchor="middle" x="607" y="-275" font-family="Helvetica,sans-Serif" font-size="10.00">code/om/form.hpp</text>
</a>
</g>
</g>
<!-- Node2&#45;&gt;Node3 -->
<g id="edge2" class="edge"><title>Node2&#45;&gt;Node3</title>
<path fill="none" stroke="midnightblue" d="M726.267,-323.37C697.53,-312.92 657.413,-298.332 631.82,-289.025"/>
<polygon fill="midnightblue" stroke="midnightblue" points="725.32,-326.75 735.914,-326.878 727.713,-320.171 725.32,-326.75"/>
</g>
<!-- Node2&#45;&gt;Node1 -->
<g id="edge22" class="edge"><title>Node2&#45;&gt;Node1</title>
<path fill="none" stroke="midnightblue" d="M767.436,-357.078C768.116,-366.424 767.692,-377.25 766.166,-384.753"/>
<polygon fill="midnightblue" stroke="midnightblue" points="770.895,-356.538 766.131,-347.075 763.954,-357.444 770.895,-356.538"/>
</g>
<!-- Node17 -->
<g id="node17" class="node"><title>Node17</title>
<g id="a_node17"><a xlink:href="pair_8hpp.html" target="_top" xlink:title="Om header file.">
<polygon fill="none" stroke="black" points="869.638,-269 869.638,-289 962.362,-289 962.362,-269 869.638,-269"/>
<text text-anchor="middle" x="916" y="-275" font-family="Helvetica,sans-Serif" font-size="10.00">code/om/pair.hpp</text>
</a>
</g>
</g>
<!-- Node2&#45;&gt;Node17 -->
<g id="edge23" class="edge"><title>Node2&#45;&gt;Node17</title>
<path fill="none" stroke="midnightblue" d="M795.959,-323.37C824.882,-312.92 865.26,-298.332 891.019,-289.025"/>
<polygon fill="midnightblue" stroke="midnightblue" points="794.464,-320.188 786.248,-326.878 796.843,-326.772 794.464,-320.188"/>
</g>
<!-- Node4 -->
<g id="node4" class="node"><title>Node4</title>
<g id="a_node4"><a xlink:href="expression_8hpp.html" target="_top" xlink:title="Om header file.">
<polygon fill="none" stroke="black" points="351.522,-211 351.522,-231 476.478,-231 476.478,-211 351.522,-211"/>
<text text-anchor="middle" x="414" y="-217" font-family="Helvetica,sans-Serif" font-size="10.00">code/om/expression.hpp</text>
</a>
</g>
</g>
<!-- Node3&#45;&gt;Node4 -->
<g id="edge3" class="edge"><title>Node3&#45;&gt;Node4</title>
<path fill="none" stroke="midnightblue" d="M565.809,-266.048C529.661,-255.56 477.88,-240.535 445.105,-231.025"/>
<polygon fill="midnightblue" stroke="midnightblue" points="564.982,-269.453 575.562,-268.878 566.933,-262.73 564.982,-269.453"/>
</g>
<!-- Node16 -->
<g id="node16" class="node"><title>Node16</title>
<g id="a_node16"><a xlink:href="form_8cpp.html" target="_top" xlink:title="Om source file.">
<polygon fill="none" stroke="black" points="558.983,-211 558.983,-231 655.017,-231 655.017,-211 558.983,-211"/>
<text text-anchor="middle" x="607" y="-217" font-family="Helvetica,sans-Serif" font-size="10.00">code/om/form.cpp</text>
</a>
</g>
</g>
<!-- Node3&#45;&gt;Node16 -->
<g id="edge20" class="edge"><title>Node3&#45;&gt;Node16</title>
<path fill="none" stroke="midnightblue" d="M600.549,-258.707C599.886,-249.338 600.326,-238.526 601.869,-231.075"/>
<polygon fill="midnightblue" stroke="midnightblue" points="597.093,-259.278 601.834,-268.753 604.037,-258.389 597.093,-259.278"/>
</g>
<!-- Node5 -->
<g id="node5" class="node"><title>Node5</title>
<g id="a_node5"><a xlink:href="evaluation_8hpp.html" target="_top" xlink:title="Om header file.">
<polygon fill="none" stroke="black" points="-0.0932617,-147 -0.0932617,-167 122.093,-167 122.093,-147 -0.0932617,-147"/>
<text text-anchor="middle" x="61" y="-153" font-family="Helvetica,sans-Serif" font-size="10.00">code/om/evaluation.hpp</text>
</a>
</g>
</g>
<!-- Node4&#45;&gt;Node5 -->
<g id="edge4" class="edge"><title>Node4&#45;&gt;Node5</title>
<path fill="none" stroke="midnightblue" d="M341.362,-209.493C284.061,-200.891 202.203,-187.91 131,-174 120.478,-171.944 109.126,-169.464 98.6883,-167.077"/>
<polygon fill="midnightblue" stroke="midnightblue" points="341.003,-212.978 351.41,-210.994 342.037,-206.055 341.003,-212.978"/>
</g>
<!-- Node7 -->
<g id="node7" class="node"><title>Node7</title>
<g id="a_node7"><a xlink:href="expression_8cpp.html" target="_top" xlink:title="Om source file.">
<polygon fill="none" stroke="black" points="139.803,-147 139.803,-167 264.197,-167 264.197,-147 139.803,-147"/>
<text text-anchor="middle" x="202" y="-153" font-family="Helvetica,sans-Serif" font-size="10.00">code/om/expression.cpp</text>
</a>
</g>
</g>
<!-- Node4&#45;&gt;Node7 -->
<g id="edge7" class="edge"><title>Node4&#45;&gt;Node7</title>
<path fill="none" stroke="midnightblue" d="M368.6,-208.307C325.687,-196.321 262.988,-177.936 227.933,-167.026"/>
<polygon fill="midnightblue" stroke="midnightblue" points="367.673,-211.682 378.245,-210.985 369.546,-204.937 367.673,-211.682"/>
</g>
<!-- Node8 -->
<g id="node8" class="node"><title>Node8</title>
<g id="a_node8"><a xlink:href="expression__operation_8hpp.html" target="_top" xlink:title="Om header file.">
<polygon fill="none" stroke="black" points="282.069,-141 282.069,-173 415.931,-173 415.931,-141 282.069,-141"/>
<text text-anchor="start" x="290.069" y="-159" font-family="Helvetica,sans-Serif" font-size="10.00">code/om/operations</text>
<text text-anchor="middle" x="349" y="-147" font-family="Helvetica,sans-Serif" font-size="10.00">/expression_operation.hpp</text>
</a>
</g>
</g>
<!-- Node4&#45;&gt;Node8 -->
<g id="edge9" class="edge"><title>Node4&#45;&gt;Node8</title>
<path fill="none" stroke="midnightblue" d="M397.092,-203.873C387.163,-194.402 374.69,-182.504 364.935,-173.199"/>
<polygon fill="midnightblue" stroke="midnightblue" points="394.757,-206.482 404.409,-210.852 399.589,-201.417 394.757,-206.482"/>
</g>
<!-- Node10 -->
<g id="node10" class="node"><title>Node10</title>
<g id="a_node10"><a xlink:href="fill__operation_8hpp.html" target="_top" xlink:title="Om header file.">
<polygon fill="none" stroke="black" points="434.084,-141 434.084,-173 537.916,-173 537.916,-141 434.084,-141"/>
<text text-anchor="start" x="442.084" y="-159" font-family="Helvetica,sans-Serif" font-size="10.00">code/om/operations</text>
<text text-anchor="middle" x="486" y="-147" font-family="Helvetica,sans-Serif" font-size="10.00">/fill_operation.hpp</text>
</a>
</g>
</g>
<!-- Node4&#45;&gt;Node10 -->
<g id="edge11" class="edge"><title>Node4&#45;&gt;Node10</title>
<path fill="none" stroke="midnightblue" d="M432.403,-204.153C443.453,-194.638 457.436,-182.596 468.349,-173.199"/>
<polygon fill="midnightblue" stroke="midnightblue" points="429.918,-201.674 424.624,-210.852 434.485,-206.979 429.918,-201.674"/>
</g>
<!-- Node12 -->
<g id="node12" class="node"><title>Node12</title>
<g id="a_node12"><a xlink:href="inject__operation_8hpp.html" target="_top" xlink:title="Om header file.">
<polygon fill="none" stroke="black" points="555.577,-141 555.577,-173 664.423,-173 664.423,-141 555.577,-141"/>
<text text-anchor="start" x="563.577" y="-159" font-family="Helvetica,sans-Serif" font-size="10.00">code/om/operations</text>
<text text-anchor="middle" x="610" y="-147" font-family="Helvetica,sans-Serif" font-size="10.00">/inject_operation.hpp</text>
</a>
</g>
</g>
<!-- Node4&#45;&gt;Node12 -->
<g id="edge14" class="edge"><title>Node4&#45;&gt;Node12</title>
<path fill="none" stroke="midnightblue" d="M452.238,-207.904C483.773,-197.929 528.662,-183.729 562.499,-173.026"/>
<polygon fill="midnightblue" stroke="midnightblue" points="450.979,-204.632 442.5,-210.985 453.09,-211.306 450.979,-204.632"/>
</g>
<!-- Node14 -->
<g id="node14" class="node"><title>Node14</title>
<g id="a_node14"><a xlink:href="skip__operation_8hpp.html" target="_top" xlink:title="Om header file.">
<polygon fill="none" stroke="black" points="682.084,-141 682.084,-173 785.916,-173 785.916,-141 682.084,-141"/>
<text text-anchor="start" x="690.084" y="-159" font-family="Helvetica,sans-Serif" font-size="10.00">code/om/operations</text>
<text text-anchor="middle" x="734" y="-147" font-family="Helvetica,sans-Serif" font-size="10.00">/skip_operation.hpp</text>
</a>
</g>
</g>
<!-- Node4&#45;&gt;Node14 -->
<g id="edge17" class="edge"><title>Node4&#45;&gt;Node14</title>
<path fill="none" stroke="midnightblue" d="M482.82,-209.331C535.184,-200.837 608.913,-188.072 673,-174 675.887,-173.366 678.844,-172.688 681.824,-171.982"/>
<polygon fill="midnightblue" stroke="midnightblue" points="481.957,-205.925 472.641,-210.972 483.071,-212.835 481.957,-205.925"/>
</g>
<!-- Node6 -->
<g id="node6" class="node"><title>Node6</title>
<g id="a_node6"><a xlink:href="evaluation_8cpp.html" target="_top" xlink:title="Om source file.">
<polygon fill="none" stroke="black" points="0.1875,-77 0.1875,-97 121.812,-97 121.812,-77 0.1875,-77"/>
<text text-anchor="middle" x="61" y="-83" font-family="Helvetica,sans-Serif" font-size="10.00">code/om/evaluation.cpp</text>
</a>
</g>
</g>
<!-- Node5&#45;&gt;Node6 -->
<g id="edge5" class="edge"><title>Node5&#45;&gt;Node6</title>
<path fill="none" stroke="midnightblue" d="M54.833,-136.557C53.7261,-123.557 54.1954,-107.057 56.2409,-97.0255"/>
<polygon fill="midnightblue" stroke="midnightblue" points="51.4125,-137.384 56.2115,-146.829 58.3503,-136.453 51.4125,-137.384"/>
</g>
<!-- Node6&#45;&gt;Node5 -->
<g id="edge6" class="edge"><title>Node6&#45;&gt;Node5</title>
<path fill="none" stroke="midnightblue" d="M67.1509,-107.256C68.273,-120.222 67.8189,-136.735 65.7885,-146.829"/>
<polygon fill="midnightblue" stroke="midnightblue" points="70.5753,-106.462 65.7591,-97.0255 63.6392,-107.406 70.5753,-106.462"/>
</g>
<!-- Node7&#45;&gt;Node4 -->
<g id="edge8" class="edge"><title>Node7&#45;&gt;Node4</title>
<path fill="none" stroke="midnightblue" d="M247.443,-169.705C290.369,-181.696 353.065,-200.079 388.101,-210.985"/>
<polygon fill="midnightblue" stroke="midnightblue" points="248.366,-166.329 237.794,-167.026 246.493,-173.074 248.366,-166.329"/>
</g>
<!-- Node9 -->
<g id="node9" class="node"><title>Node9</title>
<g id="a_node9"><a xlink:href="expression__operation_8cpp.html" target="_top" xlink:title="Om source file.">
<polygon fill="none" stroke="black" points="282.35,-71 282.35,-103 415.65,-103 415.65,-71 282.35,-71"/>
<text text-anchor="start" x="290.35" y="-89" font-family="Helvetica,sans-Serif" font-size="10.00">code/om/operations</text>
<text text-anchor="middle" x="349" y="-77" font-family="Helvetica,sans-Serif" font-size="10.00">/expression_operation.cpp</text>
</a>
</g>
</g>
<!-- Node8&#45;&gt;Node9 -->
<g id="edge10" class="edge"><title>Node8&#45;&gt;Node9</title>
<path fill="none" stroke="midnightblue" d="M349,-130.617C349,-121.338 349,-111.141 349,-103.049"/>
<polygon fill="midnightblue" stroke="midnightblue" points="345.5,-130.909 349,-140.909 352.5,-130.909 345.5,-130.909"/>
</g>
<!-- Node11 -->
<g id="node11" class="node"><title>Node11</title>
<g id="a_node11"><a xlink:href="fill__operation_8cpp.html" target="_top" xlink:title="Om source file.">
<polygon fill="none" stroke="black" points="434.084,-71 434.084,-103 537.916,-103 537.916,-71 434.084,-71"/>
<text text-anchor="start" x="442.084" y="-89" font-family="Helvetica,sans-Serif" font-size="10.00">code/om/operations</text>
<text text-anchor="middle" x="486" y="-77" font-family="Helvetica,sans-Serif" font-size="10.00">/fill_operation.cpp</text>
</a>
</g>
</g>
<!-- Node10&#45;&gt;Node11 -->
<g id="edge12" class="edge"><title>Node10&#45;&gt;Node11</title>
<path fill="none" stroke="midnightblue" d="M479.461,-130.92C479.009,-121.56 479.284,-111.229 480.285,-103.049"/>
<polygon fill="midnightblue" stroke="midnightblue" points="475.974,-131.228 480.28,-140.909 482.951,-130.656 475.974,-131.228"/>
</g>
<!-- Node11&#45;&gt;Node10 -->
<g id="edge13" class="edge"><title>Node11&#45;&gt;Node10</title>
<path fill="none" stroke="midnightblue" d="M492.537,-113.032C492.991,-122.389 492.719,-132.721 491.72,-140.909"/>
<polygon fill="midnightblue" stroke="midnightblue" points="496.024,-112.728 491.715,-103.049 489.047,-113.303 496.024,-112.728"/>
</g>
<!-- Node13 -->
<g id="node13" class="node"><title>Node13</title>
<g id="a_node13"><a xlink:href="inject__operation_8cpp.html" target="_top" xlink:title="Om source file.">
<polygon fill="none" stroke="black" points="555.857,-71 555.857,-103 664.143,-103 664.143,-71 555.857,-71"/>
<text text-anchor="start" x="563.857" y="-89" font-family="Helvetica,sans-Serif" font-size="10.00">code/om/operations</text>
<text text-anchor="middle" x="610" y="-77" font-family="Helvetica,sans-Serif" font-size="10.00">/inject_operation.cpp</text>
</a>
</g>
</g>
<!-- Node12&#45;&gt;Node13 -->
<g id="edge15" class="edge"><title>Node12&#45;&gt;Node13</title>
<path fill="none" stroke="midnightblue" d="M603.461,-130.92C603.009,-121.56 603.284,-111.229 604.285,-103.049"/>
<polygon fill="midnightblue" stroke="midnightblue" points="599.974,-131.228 604.28,-140.909 606.951,-130.656 599.974,-131.228"/>
</g>
<!-- Node13&#45;&gt;Node12 -->
<g id="edge16" class="edge"><title>Node13&#45;&gt;Node12</title>
<path fill="none" stroke="midnightblue" d="M616.537,-113.032C616.991,-122.389 616.719,-132.721 615.72,-140.909"/>
<polygon fill="midnightblue" stroke="midnightblue" points="620.024,-112.728 615.715,-103.049 613.047,-113.303 620.024,-112.728"/>
</g>
<!-- Node15 -->
<g id="node15" class="node"><title>Node15</title>
<g id="a_node15"><a xlink:href="skip__operation_8cpp.html" target="_top" xlink:title="Om source file.">
<polygon fill="none" stroke="black" points="682.084,-71 682.084,-103 785.916,-103 785.916,-71 682.084,-71"/>
<text text-anchor="start" x="690.084" y="-89" font-family="Helvetica,sans-Serif" font-size="10.00">code/om/operations</text>
<text text-anchor="middle" x="734" y="-77" font-family="Helvetica,sans-Serif" font-size="10.00">/skip_operation.cpp</text>
</a>
</g>
</g>
<!-- Node14&#45;&gt;Node15 -->
<g id="edge18" class="edge"><title>Node14&#45;&gt;Node15</title>
<path fill="none" stroke="midnightblue" d="M727.461,-130.92C727.009,-121.56 727.284,-111.229 728.285,-103.049"/>
<polygon fill="midnightblue" stroke="midnightblue" points="723.974,-131.228 728.28,-140.909 730.951,-130.656 723.974,-131.228"/>
</g>
<!-- Node15&#45;&gt;Node14 -->
<g id="edge19" class="edge"><title>Node15&#45;&gt;Node14</title>
<path fill="none" stroke="midnightblue" d="M740.537,-113.032C740.991,-122.389 740.719,-132.721 739.72,-140.909"/>
<polygon fill="midnightblue" stroke="midnightblue" points="744.024,-112.728 739.715,-103.049 737.047,-113.303 744.024,-112.728"/>
</g>
<!-- Node16&#45;&gt;Node3 -->
<g id="edge21" class="edge"><title>Node16&#45;&gt;Node3</title>
<path fill="none" stroke="midnightblue" d="M613.436,-241.078C614.116,-250.424 613.692,-261.25 612.166,-268.753"/>
<polygon fill="midnightblue" stroke="midnightblue" points="616.895,-240.538 612.131,-231.075 609.954,-241.444 616.895,-240.538"/>
</g>
<!-- Node18 -->
<g id="node18" class="node"><title>Node18</title>
<g id="a_node18"><a xlink:href="lexicon_8hpp.html" target="_top" xlink:title="Om header file.">
<polygon fill="none" stroke="black" points="803.138,-211 803.138,-231 910.862,-231 910.862,-211 803.138,-211"/>
<text text-anchor="middle" x="857" y="-217" font-family="Helvetica,sans-Serif" font-size="10.00">code/om/lexicon.hpp</text>
</a>
</g>
</g>
<!-- Node17&#45;&gt;Node18 -->
<g id="edge24" class="edge"><title>Node17&#45;&gt;Node18</title>
<path fill="none" stroke="midnightblue" d="M898.831,-261.704C888.321,-251.729 875.265,-239.336 866.561,-231.075"/>
<polygon fill="midnightblue" stroke="midnightblue" points="896.595,-264.407 906.257,-268.753 901.414,-259.33 896.595,-264.407"/>
</g>
<!-- Node26 -->
<g id="node26" class="node"><title>Node26</title>
<g id="a_node26"><a xlink:href="pair_8cpp.html" target="_top" xlink:title="Om source file.">
<polygon fill="none" stroke="black" points="928.919,-211 928.919,-231 1021.08,-231 1021.08,-211 928.919,-211"/>
<text text-anchor="middle" x="975" y="-217" font-family="Helvetica,sans-Serif" font-size="10.00">code/om/pair.cpp</text>
</a>
</g>
</g>
<!-- Node17&#45;&gt;Node26 -->
<g id="edge35" class="edge"><title>Node17&#45;&gt;Node26</title>
<path fill="none" stroke="midnightblue" d="M927.537,-261.114C937.007,-251.244 950.098,-239.174 960.308,-231.075"/>
<polygon fill="midnightblue" stroke="midnightblue" points="924.725,-259.004 920.576,-268.753 929.899,-263.719 924.725,-259.004"/>
</g>
<!-- Node19 -->
<g id="node19" class="node"><title>Node19</title>
<g id="a_node19"><a xlink:href="lexicon_8cpp.html" target="_top" xlink:title="Om source file.">
<polygon fill="none" stroke="black" points="803.419,-147 803.419,-167 910.581,-167 910.581,-147 803.419,-147"/>
<text text-anchor="middle" x="857" y="-153" font-family="Helvetica,sans-Serif" font-size="10.00">code/om/lexicon.cpp</text>
</a>
</g>
</g>
<!-- Node18&#45;&gt;Node19 -->
<g id="edge25" class="edge"><title>Node18&#45;&gt;Node19</title>
<path fill="none" stroke="midnightblue" d="M850.7,-200.735C849.802,-189.557 850.248,-175.991 852.037,-167.186"/>
<polygon fill="midnightblue" stroke="midnightblue" points="847.257,-201.4 852.045,-210.852 854.196,-200.478 847.257,-201.4"/>
</g>
<!-- Node20 -->
<g id="node20" class="node"><title>Node20</title>
<g id="a_node20"><a xlink:href="lexicon__operation_8hpp.html" target="_top" xlink:title="Om header file.">
<polygon fill="none" stroke="black" points="928.685,-141 928.685,-173 1045.31,-173 1045.31,-141 928.685,-141"/>
<text text-anchor="start" x="936.685" y="-159" font-family="Helvetica,sans-Serif" font-size="10.00">code/om/operations</text>
<text text-anchor="middle" x="987" y="-147" font-family="Helvetica,sans-Serif" font-size="10.00">/lexicon_operation.hpp</text>
</a>
</g>
</g>
<!-- Node18&#45;&gt;Node20 -->
<g id="edge27" class="edge"><title>Node18&#45;&gt;Node20</title>
<path fill="none" stroke="midnightblue" d="M885.127,-206.586C905.842,-196.706 934.023,-183.266 955.494,-173.026"/>
<polygon fill="midnightblue" stroke="midnightblue" points="883.422,-203.521 875.903,-210.985 886.436,-209.839 883.422,-203.521"/>
</g>
<!-- Node22 -->
<g id="node22" class="node"><title>Node22</title>
<g id="a_node22"><a xlink:href="translate__operation_8hpp.html" target="_top" xlink:title="Om header file.">
<polygon fill="none" stroke="black" points="1104.07,-141 1104.07,-173 1227.93,-173 1227.93,-141 1104.07,-141"/>
<text text-anchor="start" x="1112.07" y="-159" font-family="Helvetica,sans-Serif" font-size="10.00">code/om/operations</text>
<text text-anchor="middle" x="1166" y="-147" font-family="Helvetica,sans-Serif" font-size="10.00">/translate_operation.hpp</text>
</a>
</g>
</g>
<!-- Node18&#45;&gt;Node22 -->
<g id="edge29" class="edge"><title>Node18&#45;&gt;Node22</title>
<path fill="none" stroke="midnightblue" d="M911.978,-208.969C965.827,-198.164 1047.75,-181.726 1103.92,-170.456"/>
<polygon fill="midnightblue" stroke="midnightblue" points="911.047,-205.586 901.931,-210.985 912.424,-212.449 911.047,-205.586"/>
</g>
<!-- Node19&#45;&gt;Node18 -->
<g id="edge26" class="edge"><title>Node19&#45;&gt;Node18</title>
<path fill="none" stroke="midnightblue" d="M863.304,-177.313C864.198,-188.498 863.748,-202.06 861.955,-210.852"/>
<polygon fill="midnightblue" stroke="midnightblue" points="866.746,-176.64 861.963,-167.186 859.806,-177.559 866.746,-176.64"/>
</g>
<!-- Node21 -->
<g id="node21" class="node"><title>Node21</title>
<g id="a_node21"><a xlink:href="lexicon__operation_8cpp.html" target="_top" xlink:title="Om source file.">
<polygon fill="none" stroke="black" points="864.966,-71 864.966,-103 981.034,-103 981.034,-71 864.966,-71"/>
<text text-anchor="start" x="872.966" y="-89" font-family="Helvetica,sans-Serif" font-size="10.00">code/om/operations</text>
<text text-anchor="middle" x="923" y="-77" font-family="Helvetica,sans-Serif" font-size="10.00">/lexicon_operation.cpp</text>
</a>
</g>
</g>
<!-- Node20&#45;&gt;Node21 -->
<g id="edge28" class="edge"><title>Node20&#45;&gt;Node21</title>
<path fill="none" stroke="midnightblue" d="M965.924,-133.607C956.486,-123.579 945.608,-112.021 937.164,-103.049"/>
<polygon fill="midnightblue" stroke="midnightblue" points="963.394,-136.025 972.796,-140.909 968.491,-131.228 963.394,-136.025"/>
</g>
<!-- Node23 -->
<g id="node23" class="node"><title>Node23</title>
<g id="a_node23"><a xlink:href="substitute__operation_8hpp.html" target="_top" xlink:title="Om header file.">
<polygon fill="none" stroke="black" points="998.848,-71 998.848,-103 1127.15,-103 1127.15,-71 998.848,-71"/>
<text text-anchor="start" x="1006.85" y="-89" font-family="Helvetica,sans-Serif" font-size="10.00">code/om/operations</text>
<text text-anchor="middle" x="1063" y="-77" font-family="Helvetica,sans-Serif" font-size="10.00">/substitute_operation.hpp</text>
</a>
</g>
</g>
<!-- Node22&#45;&gt;Node23 -->
<g id="edge30" class="edge"><title>Node22&#45;&gt;Node23</title>
<path fill="none" stroke="midnightblue" d="M1134.74,-135.36C1118.97,-124.948 1100.18,-112.549 1085.8,-103.049"/>
<polygon fill="midnightblue" stroke="midnightblue" points="1132.87,-138.32 1143.14,-140.909 1136.72,-132.478 1132.87,-138.32"/>
</g>
<!-- Node25 -->
<g id="node25" class="node"><title>Node25</title>
<g id="a_node25"><a xlink:href="translate__operation_8cpp.html" target="_top" xlink:title="Om source file.">
<polygon fill="none" stroke="black" points="1145.35,-71 1145.35,-103 1268.65,-103 1268.65,-71 1145.35,-71"/>
<text text-anchor="start" x="1153.35" y="-89" font-family="Helvetica,sans-Serif" font-size="10.00">code/om/operations</text>
<text text-anchor="middle" x="1207" y="-77" font-family="Helvetica,sans-Serif" font-size="10.00">/translate_operation.cpp</text>
</a>
</g>
</g>
<!-- Node22&#45;&gt;Node25 -->
<g id="edge33" class="edge"><title>Node22&#45;&gt;Node25</title>
<path fill="none" stroke="midnightblue" d="M1174.08,-131.822C1179.35,-122.228 1186.09,-111.493 1192.21,-103.049"/>
<polygon fill="midnightblue" stroke="midnightblue" points="1170.87,-130.419 1169.38,-140.909 1177.09,-133.638 1170.87,-130.419"/>
</g>
<!-- Node24 -->
<g id="node24" class="node"><title>Node24</title>
<g id="a_node24"><a xlink:href="substitute__operation_8cpp.html" target="_top" xlink:title="Om source file.">
<polygon fill="none" stroke="black" points="999.128,-1 999.128,-33 1126.87,-33 1126.87,-1 999.128,-1"/>
<text text-anchor="start" x="1007.13" y="-19" font-family="Helvetica,sans-Serif" font-size="10.00">code/om/operations</text>
<text text-anchor="middle" x="1063" y="-7" font-family="Helvetica,sans-Serif" font-size="10.00">/substitute_operation.cpp</text>
</a>
</g>
</g>
<!-- Node23&#45;&gt;Node24 -->
<g id="edge31" class="edge"><title>Node23&#45;&gt;Node24</title>
<path fill="none" stroke="midnightblue" d="M1056.46,-60.9196C1056.01,-51.5597 1056.28,-41.2293 1057.29,-33.0492"/>
<polygon fill="midnightblue" stroke="midnightblue" points="1052.97,-61.2281 1057.28,-70.9086 1059.95,-60.656 1052.97,-61.2281"/>
</g>
<!-- Node24&#45;&gt;Node23 -->
<g id="edge32" class="edge"><title>Node24&#45;&gt;Node23</title>
<path fill="none" stroke="midnightblue" d="M1069.54,-43.0321C1069.99,-52.3887 1069.72,-62.7211 1068.72,-70.9086"/>
<polygon fill="midnightblue" stroke="midnightblue" points="1073.02,-42.7283 1068.71,-33.0492 1066.05,-43.3027 1073.02,-42.7283"/>
</g>
<!-- Node25&#45;&gt;Node22 -->
<g id="edge34" class="edge"><title>Node25&#45;&gt;Node22</title>
<path fill="none" stroke="midnightblue" d="M1198.94,-112.13C1193.68,-121.72 1186.95,-132.457 1180.82,-140.909"/>
<polygon fill="midnightblue" stroke="midnightblue" points="1202.15,-113.539 1203.64,-103.049 1195.94,-110.322 1202.15,-113.539"/>
</g>
<!-- Node26&#45;&gt;Node17 -->
<g id="edge36" class="edge"><title>Node26&#45;&gt;Node17</title>
<path fill="none" stroke="midnightblue" d="M963.663,-238.677C954.245,-248.516 941.159,-260.598 930.909,-268.753"/>
<polygon fill="midnightblue" stroke="midnightblue" points="966.436,-240.83 970.57,-231.075 961.255,-236.123 966.436,-240.83"/>
</g>
</g>
</svg>
