<?xml version="1.0" encoding="UTF-8" standalone="no"?>
<!DOCTYPE svg PUBLIC "-//W3C//DTD SVG 1.1//EN"
 "http://www.w3.org/Graphics/SVG/1.1/DTD/svg11.dtd">
<!-- Generated by graphviz version 2.30.1 (20130221.2233)
 -->
<!-- Title: code/om/symbols/operand_symbol.cpp Pages: 1 -->
<svg width="140pt" height="240pt"
 viewBox="0.00 0.00 140.00 240.00" xmlns="http://www.w3.org/2000/svg" xmlns:xlink="http://www.w3.org/1999/xlink">
<g id="graph0" class="graph" transform="scale(1 1) rotate(0) translate(4 236)">
<title>code/om/symbols/operand_symbol.cpp</title>
<!-- Node1 -->
<g id="node1" class="node"><title>Node1</title>
<polygon fill="#bfbfbf" stroke="black" points="-0.642578,-199 -0.642578,-231 132.643,-231 132.643,-199 -0.642578,-199"/>
<text text-anchor="start" x="7.35742" y="-217" font-family="Helvetica,sans-Serif" font-size="10.00">code/om/symbols/operand</text>
<text text-anchor="middle" x="66" y="-205" font-family="Helvetica,sans-Serif" font-size="10.00">_symbol.cpp</text>
</g>
<!-- Node2 -->
<g id="node2" class="node"><title>Node2</title>
<g id="a_node2"><a xlink:href="operand__symbol_8hpp.html" target="_top" xlink:title="Om header file.">
<polygon fill="none" stroke="black" points="11.5889,-129 11.5889,-161 120.411,-161 120.411,-129 11.5889,-129"/>
<text text-anchor="start" x="19.5889" y="-147" font-family="Helvetica,sans-Serif" font-size="10.00">om/symbols/operand</text>
<text text-anchor="middle" x="66" y="-135" font-family="Helvetica,sans-Serif" font-size="10.00">_symbol.hpp</text>
</a>
</g>
</g>
<!-- Node1&#45;&gt;Node2 -->
<g id="edge1" class="edge"><title>Node1&#45;&gt;Node2</title>
<path fill="none" stroke="midnightblue" d="M66,-198.909C66,-190.809 66,-180.611 66,-171.334"/>
<polygon fill="midnightblue" stroke="midnightblue" points="69.5001,-171.049 66,-161.049 62.5001,-171.049 69.5001,-171.049"/>
</g>
<!-- Node3 -->
<g id="node3" class="node"><title>Node3</title>
<g id="a_node3"><a xlink:href="macros_8hpp.html" target="_top" xlink:title="Om header file.">
<polygon fill="none" stroke="black" points="23.542,-71 23.542,-91 108.458,-91 108.458,-71 23.542,-71"/>
<text text-anchor="middle" x="66" y="-77" font-family="Helvetica,sans-Serif" font-size="10.00">om/macros.hpp</text>
</a>
</g>
</g>
<!-- Node2&#45;&gt;Node3 -->
<g id="edge2" class="edge"><title>Node2&#45;&gt;Node3</title>
<path fill="none" stroke="midnightblue" d="M66,-128.992C66,-120.726 66,-110.373 66,-101.489"/>
<polygon fill="midnightblue" stroke="midnightblue" points="69.5001,-101.29 66,-91.2904 62.5001,-101.29 69.5001,-101.29"/>
</g>
<!-- Node4 -->
<g id="node4" class="node"><title>Node4</title>
<polygon fill="none" stroke="#bfbfbf" points="15.1997,-1 15.1997,-33 116.8,-33 116.8,-1 15.1997,-1"/>
<text text-anchor="start" x="23.1997" y="-19" font-family="Helvetica,sans-Serif" font-size="10.00">boost/preprocessor</text>
<text text-anchor="middle" x="66" y="-7" font-family="Helvetica,sans-Serif" font-size="10.00">/stringize.hpp</text>
</g>
<!-- Node3&#45;&gt;Node4 -->
<g id="edge3" class="edge"><title>Node3&#45;&gt;Node4</title>
<path fill="none" stroke="midnightblue" d="M66,-70.8517C66,-63.6285 66,-53.1849 66,-43.4856"/>
<polygon fill="midnightblue" stroke="midnightblue" points="69.5001,-43.4404 66,-33.4404 62.5001,-43.4404 69.5001,-43.4404"/>
</g>
</g>
</svg>
