<?xml version="1.0" encoding="UTF-8" standalone="no"?>
<!DOCTYPE svg PUBLIC "-//W3C//DTD SVG 1.1//EN"
 "http://www.w3.org/Graphics/SVG/1.1/DTD/svg11.dtd">
<!-- Generated by graphviz version 2.30.1 (20130221.2233)
 -->
<!-- Title: code/om/operand.hpp Pages: 1 -->
<svg width="1345pt" height="436pt"
 viewBox="0.00 0.00 1345.00 436.00" xmlns="http://www.w3.org/2000/svg" xmlns:xlink="http://www.w3.org/1999/xlink">
<g id="graph0" class="graph" transform="scale(1 1) rotate(0) translate(4 432)">
<title>code/om/operand.hpp</title>
<!-- Node1 -->
<g id="node1" class="node"><title>Node1</title>
<polygon fill="#bfbfbf" stroke="black" points="655.353,-407 655.353,-427 768.647,-427 768.647,-407 655.353,-407"/>
<text text-anchor="middle" x="712" y="-413" font-family="Helvetica,sans-Serif" font-size="10.00">code/om/operand.hpp</text>
</g>
<!-- Node2 -->
<g id="node2" class="node"><title>Node2</title>
<g id="a_node2"><a xlink:href="default__element_8hpp.html" target="_top" xlink:title="Om header file.">
<polygon fill="none" stroke="black" points="527.353,-349 527.353,-369 650.647,-369 650.647,-349 527.353,-349"/>
<text text-anchor="middle" x="589" y="-355" font-family="Helvetica,sans-Serif" font-size="10.00">om/default_element.hpp</text>
</a>
</g>
</g>
<!-- Node1&#45;&gt;Node2 -->
<g id="edge1" class="edge"><title>Node1&#45;&gt;Node2</title>
<path fill="none" stroke="midnightblue" d="M691.964,-406.878C671.951,-397.766 640.971,-383.662 618.219,-373.303"/>
<polygon fill="midnightblue" stroke="midnightblue" points="619.579,-370.076 609.027,-369.118 616.678,-376.447 619.579,-370.076"/>
</g>
<!-- Node34 -->
<g id="node34" class="node"><title>Node34</title>
<g id="a_node34"><a xlink:href="owner_8hpp.html" target="_top" xlink:title="Om header file.">
<polygon fill="none" stroke="black" points="157.589,-291 157.589,-311 236.411,-311 236.411,-291 157.589,-291"/>
<text text-anchor="middle" x="197" y="-297" font-family="Helvetica,sans-Serif" font-size="10.00">om/owner.hpp</text>
</a>
</g>
</g>
<!-- Node1&#45;&gt;Node34 -->
<g id="edge54" class="edge"><title>Node1&#45;&gt;Node34</title>
<path fill="none" stroke="midnightblue" d="M671.158,-406.959C577.545,-386.237 347.766,-335.373 246.407,-312.937"/>
<polygon fill="midnightblue" stroke="midnightblue" points="246.949,-309.472 236.429,-310.728 245.436,-316.307 246.949,-309.472"/>
</g>
<!-- Node37 -->
<g id="node37" class="node"><title>Node37</title>
<polygon fill="none" stroke="#bfbfbf" points="668.976,-349 668.976,-369 755.024,-369 755.024,-349 668.976,-349"/>
<text text-anchor="middle" x="712" y="-355" font-family="Helvetica,sans-Serif" font-size="10.00">boost/swap.hpp</text>
</g>
<!-- Node1&#45;&gt;Node37 -->
<g id="edge60" class="edge"><title>Node1&#45;&gt;Node37</title>
<path fill="none" stroke="midnightblue" d="M712,-406.753C712,-399.25 712,-388.424 712,-379.078"/>
<polygon fill="midnightblue" stroke="midnightblue" points="715.5,-379.075 712,-369.075 708.5,-379.075 715.5,-379.075"/>
</g>
<!-- Node38 -->
<g id="node38" class="node"><title>Node38</title>
<g id="a_node38"><a xlink:href="operand_8cpp.html" target="_top" xlink:title="Om source file.">
<polygon fill="none" stroke="black" points="772.865,-349 772.865,-369 861.135,-369 861.135,-349 772.865,-349"/>
<text text-anchor="middle" x="817" y="-355" font-family="Helvetica,sans-Serif" font-size="10.00">om/operand.cpp</text>
</a>
</g>
</g>
<!-- Node1&#45;&gt;Node38 -->
<g id="edge61" class="edge"><title>Node1&#45;&gt;Node38</title>
<path fill="none" stroke="midnightblue" d="M724.172,-406.753C739.303,-397.701 765.113,-383.81 785.777,-373.52"/>
<polygon fill="midnightblue" stroke="midnightblue" points="787.411,-376.617 794.853,-369.075 784.333,-370.33 787.411,-376.617"/>
</g>
<!-- Node3 -->
<g id="node3" class="node"><title>Node3</title>
<g id="a_node3"><a xlink:href="default__program_8hpp.html" target="_top" xlink:title="Om header file.">
<polygon fill="none" stroke="black" points="899.522,-291 899.522,-311 1024.48,-311 1024.48,-291 899.522,-291"/>
<text text-anchor="middle" x="962" y="-297" font-family="Helvetica,sans-Serif" font-size="10.00">om/default_program.hpp</text>
</a>
</g>
</g>
<!-- Node2&#45;&gt;Node3 -->
<g id="edge2" class="edge"><title>Node2&#45;&gt;Node3</title>
<path fill="none" stroke="midnightblue" d="M649.343,-348.94C715.669,-338.983 822.07,-323.008 892.007,-312.508"/>
<polygon fill="midnightblue" stroke="midnightblue" points="892.683,-315.946 902.052,-311 891.643,-309.024 892.683,-315.946"/>
</g>
<!-- Node33 -->
<g id="node33" class="node"><title>Node33</title>
<g id="a_node33"><a xlink:href="default__element_8cpp.html" target="_top" xlink:title="Om source file.">
<polygon fill="none" stroke="black" points="527.633,-291 527.633,-311 650.367,-311 650.367,-291 527.633,-291"/>
<text text-anchor="middle" x="589" y="-297" font-family="Helvetica,sans-Serif" font-size="10.00">om/default_element.cpp</text>
</a>
</g>
</g>
<!-- Node2&#45;&gt;Node33 -->
<g id="edge52" class="edge"><title>Node2&#45;&gt;Node33</title>
<path fill="none" stroke="midnightblue" d="M583.834,-348.753C582.308,-341.25 581.884,-330.424 582.564,-321.078"/>
<polygon fill="midnightblue" stroke="midnightblue" points="586.046,-321.444 583.869,-311.075 579.105,-320.538 586.046,-321.444"/>
</g>
<!-- Node4 -->
<g id="node4" class="node"><title>Node4</title>
<g id="a_node4"><a xlink:href="default__giveable_8hpp.html" target="_top" xlink:title="Om header file.">
<polygon fill="none" stroke="black" points="578.515,-233 578.515,-253 703.485,-253 703.485,-233 578.515,-233"/>
<text text-anchor="middle" x="641" y="-239" font-family="Helvetica,sans-Serif" font-size="10.00">om/default_giveable.hpp</text>
</a>
</g>
</g>
<!-- Node3&#45;&gt;Node4 -->
<g id="edge3" class="edge"><title>Node3&#45;&gt;Node4</title>
<path fill="none" stroke="midnightblue" d="M910.069,-290.94C853.458,-281.064 762.921,-265.27 702.721,-254.768"/>
<polygon fill="midnightblue" stroke="midnightblue" points="703.043,-251.271 692.591,-253 701.84,-258.167 703.043,-251.271"/>
</g>
<!-- Node21 -->
<g id="node21" class="node"><title>Node21</title>
<g id="a_node21"><a xlink:href="default__queue_8hpp.html" target="_top" xlink:title="Om header file.">
<polygon fill="none" stroke="black" points="904.237,-233 904.237,-253 1019.76,-253 1019.76,-233 904.237,-233"/>
<text text-anchor="middle" x="962" y="-239" font-family="Helvetica,sans-Serif" font-size="10.00">om/default_queue.hpp</text>
</a>
</g>
</g>
<!-- Node3&#45;&gt;Node21 -->
<g id="edge31" class="edge"><title>Node3&#45;&gt;Node21</title>
<path fill="none" stroke="midnightblue" d="M962,-290.753C962,-283.25 962,-272.424 962,-263.078"/>
<polygon fill="midnightblue" stroke="midnightblue" points="965.5,-263.075 962,-253.075 958.5,-263.075 965.5,-263.075"/>
</g>
<!-- Node25 -->
<g id="node25" class="node"><title>Node25</title>
<g id="a_node25"><a xlink:href="program_8hpp.html" target="_top" xlink:title="Om header file.">
<polygon fill="none" stroke="black" points="1037.32,-233 1037.32,-253 1126.68,-253 1126.68,-233 1037.32,-233"/>
<text text-anchor="middle" x="1082" y="-239" font-family="Helvetica,sans-Serif" font-size="10.00">om/program.hpp</text>
</a>
</g>
</g>
<!-- Node3&#45;&gt;Node25 -->
<g id="edge38" class="edge"><title>Node3&#45;&gt;Node25</title>
<path fill="none" stroke="midnightblue" d="M981.547,-290.878C1000.99,-281.807 1031.03,-267.788 1053.2,-257.442"/>
<polygon fill="midnightblue" stroke="midnightblue" points="1054.88,-260.519 1062.46,-253.118 1051.92,-254.175 1054.88,-260.519"/>
</g>
<!-- Node30 -->
<g id="node30" class="node"><title>Node30</title>
<g id="a_node30"><a xlink:href="taker_8hpp.html" target="_top" xlink:title="Om header file.">
<polygon fill="none" stroke="black" points="268.091,-233 268.091,-253 341.909,-253 341.909,-233 268.091,-233"/>
<text text-anchor="middle" x="305" y="-239" font-family="Helvetica,sans-Serif" font-size="10.00">om/taker.hpp</text>
</a>
</g>
</g>
<!-- Node3&#45;&gt;Node30 -->
<g id="edge47" class="edge"><title>Node3&#45;&gt;Node30</title>
<path fill="none" stroke="midnightblue" d="M899.302,-294.656C768.381,-283.497 468.486,-257.935 352.248,-248.027"/>
<polygon fill="midnightblue" stroke="midnightblue" points="352.496,-244.536 342.235,-247.174 351.902,-251.51 352.496,-244.536"/>
</g>
<!-- Node32 -->
<g id="node32" class="node"><title>Node32</title>
<g id="a_node32"><a xlink:href="default__program_8cpp.html" target="_top" xlink:title="Om source file.">
<polygon fill="none" stroke="black" points="1144.8,-233 1144.8,-253 1269.2,-253 1269.2,-233 1144.8,-233"/>
<text text-anchor="middle" x="1207" y="-239" font-family="Helvetica,sans-Serif" font-size="10.00">om/default_program.cpp</text>
</a>
</g>
</g>
<!-- Node3&#45;&gt;Node32 -->
<g id="edge50" class="edge"><title>Node3&#45;&gt;Node32</title>
<path fill="none" stroke="midnightblue" d="M996.508,-290.94C1037.1,-281.201 1104.75,-265.706 1152.44,-255.207"/>
<polygon fill="midnightblue" stroke="midnightblue" points="1153.28,-258.607 1162.3,-253.047 1151.78,-251.769 1153.28,-258.607"/>
</g>
<!-- Node5 -->
<g id="node5" class="node"><title>Node5</title>
<g id="a_node5"><a xlink:href="default__copyable_8hpp.html" target="_top" xlink:title="Om header file.">
<polygon fill="none" stroke="black" points="360.126,-175 360.126,-195 487.874,-195 487.874,-175 360.126,-175"/>
<text text-anchor="middle" x="424" y="-181" font-family="Helvetica,sans-Serif" font-size="10.00">om/default_copyable.hpp</text>
</a>
</g>
</g>
<!-- Node4&#45;&gt;Node5 -->
<g id="edge4" class="edge"><title>Node4&#45;&gt;Node5</title>
<path fill="none" stroke="midnightblue" d="M605.652,-232.878C568.342,-223.249 509.428,-208.046 468.866,-197.578"/>
<polygon fill="midnightblue" stroke="midnightblue" points="469.53,-194.135 458.973,-195.025 467.781,-200.913 469.53,-194.135"/>
</g>
<!-- Node12 -->
<g id="node12" class="node"><title>Node12</title>
<g id="a_node12"><a xlink:href="default__moveable_8hpp.html" target="_top" xlink:title="Om header file.">
<polygon fill="none" stroke="black" points="648.461,-175 648.461,-195 779.539,-195 779.539,-175 648.461,-175"/>
<text text-anchor="middle" x="714" y="-181" font-family="Helvetica,sans-Serif" font-size="10.00">om/default_moveable.hpp</text>
</a>
</g>
</g>
<!-- Node4&#45;&gt;Node12 -->
<g id="edge14" class="edge"><title>Node4&#45;&gt;Node12</title>
<path fill="none" stroke="midnightblue" d="M653.054,-232.753C664.216,-224.19 681.023,-211.298 694.161,-201.219"/>
<polygon fill="midnightblue" stroke="midnightblue" points="696.366,-203.939 702.17,-195.075 692.105,-198.385 696.366,-203.939"/>
</g>
<!-- Node18 -->
<g id="node18" class="node"><title>Node18</title>
<g id="a_node18"><a xlink:href="giveable_8hpp.html" target="_top" xlink:title="Om header file.">
<polygon fill="none" stroke="black" points="797.308,-175 797.308,-195 886.692,-195 886.692,-175 797.308,-175"/>
<text text-anchor="middle" x="842" y="-181" font-family="Helvetica,sans-Serif" font-size="10.00">om/giveable.hpp</text>
</a>
</g>
</g>
<!-- Node4&#45;&gt;Node18 -->
<g id="edge24" class="edge"><title>Node4&#45;&gt;Node18</title>
<path fill="none" stroke="midnightblue" d="M673.741,-232.878C708.155,-223.29 762.408,-208.175 799.964,-197.712"/>
<polygon fill="midnightblue" stroke="midnightblue" points="800.912,-201.081 809.606,-195.025 799.033,-194.338 800.912,-201.081"/>
</g>
<!-- Node20 -->
<g id="node20" class="node"><title>Node20</title>
<g id="a_node20"><a xlink:href="default__giveable_8cpp.html" target="_top" xlink:title="Om source file.">
<polygon fill="none" stroke="black" points="505.796,-175 505.796,-195 630.204,-195 630.204,-175 505.796,-175"/>
<text text-anchor="middle" x="568" y="-181" font-family="Helvetica,sans-Serif" font-size="10.00">om/default_giveable.cpp</text>
</a>
</g>
</g>
<!-- Node4&#45;&gt;Node20 -->
<g id="edge29" class="edge"><title>Node4&#45;&gt;Node20</title>
<path fill="none" stroke="midnightblue" d="M623.779,-232.753C611.121,-224.353 594.415,-211.787 582.449,-201.798"/>
<polygon fill="midnightblue" stroke="midnightblue" points="584.547,-198.984 574.699,-195.075 579.96,-204.272 584.547,-198.984"/>
</g>
<!-- Node6 -->
<g id="node6" class="node"><title>Node6</title>
<g id="a_node6"><a xlink:href="copyable_8hpp.html" target="_top" xlink:title="Om header file.">
<polygon fill="none" stroke="black" points="613.919,-117 613.919,-137 706.081,-137 706.081,-117 613.919,-117"/>
<text text-anchor="middle" x="660" y="-123" font-family="Helvetica,sans-Serif" font-size="10.00">om/copyable.hpp</text>
</a>
</g>
</g>
<!-- Node5&#45;&gt;Node6 -->
<g id="edge5" class="edge"><title>Node5&#45;&gt;Node6</title>
<path fill="none" stroke="midnightblue" d="M462.18,-174.94C502.966,-165.262 567.704,-149.901 611.934,-139.406"/>
<polygon fill="midnightblue" stroke="midnightblue" points="612.953,-142.761 621.875,-137.047 611.337,-135.95 612.953,-142.761"/>
</g>
<!-- Node11 -->
<g id="node11" class="node"><title>Node11</title>
<g id="a_node11"><a xlink:href="default__copyable_8cpp.html" target="_top" xlink:title="Om source file.">
<polygon fill="none" stroke="black" points="320.407,-117 320.407,-137 447.593,-137 447.593,-117 320.407,-117"/>
<text text-anchor="middle" x="384" y="-123" font-family="Helvetica,sans-Serif" font-size="10.00">om/default_copyable.cpp</text>
</a>
</g>
</g>
<!-- Node5&#45;&gt;Node11 -->
<g id="edge12" class="edge"><title>Node5&#45;&gt;Node11</title>
<path fill="none" stroke="midnightblue" d="M412.228,-174.753C405.044,-166.924 396.476,-155.476 390.422,-145.868"/>
<polygon fill="midnightblue" stroke="midnightblue" points="393.379,-143.989 385.351,-137.075 387.315,-147.486 393.379,-143.989"/>
</g>
<!-- Node7 -->
<g id="node7" class="node"><title>Node7</title>
<g id="a_node7"><a xlink:href="copy_8hpp.html" target="_top" xlink:title="Om header file.">
<polygon fill="none" stroke="black" points="139.741,-59 139.741,-79 212.259,-79 212.259,-59 139.741,-59"/>
<text text-anchor="middle" x="176" y="-65" font-family="Helvetica,sans-Serif" font-size="10.00">om/copy.hpp</text>
</a>
</g>
</g>
<!-- Node6&#45;&gt;Node7 -->
<g id="edge6" class="edge"><title>Node6&#45;&gt;Node7</title>
<path fill="none" stroke="midnightblue" d="M613.827,-117.352C610.843,-116.872 607.882,-116.416 605,-116 466.288,-95.9804 301.182,-80.6527 222.356,-73.8522"/>
<polygon fill="midnightblue" stroke="midnightblue" points="222.533,-70.3546 212.27,-72.9882 221.935,-77.3291 222.533,-70.3546"/>
</g>
<!-- Node10 -->
<g id="node10" class="node"><title>Node10</title>
<g id="a_node10"><a xlink:href="copyable_8cpp.html" target="_top" xlink:title="Om source file.">
<polygon fill="none" stroke="black" points="614.2,-59 614.2,-79 705.8,-79 705.8,-59 614.2,-59"/>
<text text-anchor="middle" x="660" y="-65" font-family="Helvetica,sans-Serif" font-size="10.00">om/copyable.cpp</text>
</a>
</g>
</g>
<!-- Node6&#45;&gt;Node10 -->
<g id="edge10" class="edge"><title>Node6&#45;&gt;Node10</title>
<path fill="none" stroke="midnightblue" d="M654.834,-116.753C653.308,-109.25 652.884,-98.4238 653.564,-89.0781"/>
<polygon fill="midnightblue" stroke="midnightblue" points="657.046,-89.4439 654.869,-79.0752 650.105,-88.5385 657.046,-89.4439"/>
</g>
<!-- Node8 -->
<g id="node8" class="node"><title>Node8</title>
<polygon fill="none" stroke="#bfbfbf" points="570.943,-1 570.943,-21 623.057,-21 623.057,-1 570.943,-1"/>
<text text-anchor="middle" x="597" y="-7" font-family="Helvetica,sans-Serif" font-size="10.00">memory</text>
</g>
<!-- Node7&#45;&gt;Node8 -->
<g id="edge7" class="edge"><title>Node7&#45;&gt;Node8</title>
<path fill="none" stroke="midnightblue" d="M212.264,-60.4195C216.878,-59.5516 221.543,-58.721 226,-58 348.241,-38.2254 494.345,-22.3756 560.844,-15.5841"/>
<polygon fill="midnightblue" stroke="midnightblue" points="561.221,-19.0639 570.817,-14.5727 560.515,-12.0996 561.221,-19.0639"/>
</g>
<!-- Node9 -->
<g id="node9" class="node"><title>Node9</title>
<g id="a_node9"><a xlink:href="copy_8cpp.html" target="_top" xlink:title="Om source file.">
<polygon fill="none" stroke="black" points="140.021,-1 140.021,-21 211.979,-21 211.979,-1 140.021,-1"/>
<text text-anchor="middle" x="176" y="-7" font-family="Helvetica,sans-Serif" font-size="10.00">om/copy.cpp</text>
</a>
</g>
</g>
<!-- Node7&#45;&gt;Node9 -->
<g id="edge8" class="edge"><title>Node7&#45;&gt;Node9</title>
<path fill="none" stroke="midnightblue" d="M170.834,-58.7527C169.308,-51.2504 168.884,-40.4238 169.564,-31.0781"/>
<polygon fill="midnightblue" stroke="midnightblue" points="173.046,-31.4439 170.869,-21.0752 166.105,-30.5385 173.046,-31.4439"/>
</g>
<!-- Node9&#45;&gt;Node7 -->
<g id="edge9" class="edge"><title>Node9&#45;&gt;Node7</title>
<path fill="none" stroke="midnightblue" d="M181.131,-21.0752C182.674,-28.5262 183.114,-39.3384 182.451,-48.7065"/>
<polygon fill="midnightblue" stroke="midnightblue" points="178.963,-48.3895 181.166,-58.7527 185.907,-49.2776 178.963,-48.3895"/>
</g>
<!-- Node10&#45;&gt;Node6 -->
<g id="edge11" class="edge"><title>Node10&#45;&gt;Node6</title>
<path fill="none" stroke="midnightblue" d="M665.131,-79.0752C666.674,-86.5262 667.114,-97.3384 666.451,-106.707"/>
<polygon fill="midnightblue" stroke="midnightblue" points="662.963,-106.389 665.166,-116.753 669.907,-107.278 662.963,-106.389"/>
</g>
<!-- Node11&#45;&gt;Node5 -->
<g id="edge13" class="edge"><title>Node11&#45;&gt;Node5</title>
<path fill="none" stroke="midnightblue" d="M395.613,-137.075C402.777,-144.85 411.354,-156.285 417.444,-165.92"/>
<polygon fill="midnightblue" stroke="midnightblue" points="414.52,-167.854 422.561,-174.753 420.577,-164.345 414.52,-167.854"/>
</g>
<!-- Node13 -->
<g id="node13" class="node"><title>Node13</title>
<g id="a_node13"><a xlink:href="moveable_8hpp.html" target="_top" xlink:title="Om header file.">
<polygon fill="none" stroke="black" points="724.254,-117 724.254,-137 819.746,-137 819.746,-117 724.254,-117"/>
<text text-anchor="middle" x="772" y="-123" font-family="Helvetica,sans-Serif" font-size="10.00">om/moveable.hpp</text>
</a>
</g>
</g>
<!-- Node12&#45;&gt;Node13 -->
<g id="edge15" class="edge"><title>Node12&#45;&gt;Node13</title>
<path fill="none" stroke="midnightblue" d="M723.578,-174.753C732.192,-166.435 745.039,-154.031 755.336,-144.089"/>
<polygon fill="midnightblue" stroke="midnightblue" points="757.838,-146.539 762.601,-137.075 752.976,-141.503 757.838,-146.539"/>
</g>
<!-- Node17 -->
<g id="node17" class="node"><title>Node17</title>
<g id="a_node17"><a xlink:href="default__moveable_8cpp.html" target="_top" xlink:title="Om source file.">
<polygon fill="none" stroke="black" points="465.742,-117 465.742,-137 596.258,-137 596.258,-117 465.742,-117"/>
<text text-anchor="middle" x="531" y="-123" font-family="Helvetica,sans-Serif" font-size="10.00">om/default_moveable.cpp</text>
</a>
</g>
</g>
<!-- Node12&#45;&gt;Node17 -->
<g id="edge22" class="edge"><title>Node12&#45;&gt;Node17</title>
<path fill="none" stroke="midnightblue" d="M679.05,-174.878C646.168,-165.413 597.454,-150.56 564.916,-140.115"/>
<polygon fill="midnightblue" stroke="midnightblue" points="565.965,-136.775 555.373,-137.025 563.809,-143.435 565.965,-136.775"/>
</g>
<!-- Node14 -->
<g id="node14" class="node"><title>Node14</title>
<g id="a_node14"><a xlink:href="move_8hpp.html" target="_top" xlink:title="Om header file.">
<polygon fill="none" stroke="black" points="981.707,-59 981.707,-79 1058.29,-79 1058.29,-59 981.707,-59"/>
<text text-anchor="middle" x="1020" y="-65" font-family="Helvetica,sans-Serif" font-size="10.00">om/move.hpp</text>
</a>
</g>
</g>
<!-- Node13&#45;&gt;Node14 -->
<g id="edge16" class="edge"><title>Node13&#45;&gt;Node14</title>
<path fill="none" stroke="midnightblue" d="M812.121,-116.94C855.673,-107.106 925.212,-91.4037 971.722,-80.9016"/>
<polygon fill="midnightblue" stroke="midnightblue" points="972.585,-84.2949 981.568,-78.6781 971.043,-77.4668 972.585,-84.2949"/>
</g>
<!-- Node16 -->
<g id="node16" class="node"><title>Node16</title>
<g id="a_node16"><a xlink:href="moveable_8cpp.html" target="_top" xlink:title="Om source file.">
<polygon fill="none" stroke="black" points="724.535,-59 724.535,-79 819.465,-79 819.465,-59 724.535,-59"/>
<text text-anchor="middle" x="772" y="-65" font-family="Helvetica,sans-Serif" font-size="10.00">om/moveable.cpp</text>
</a>
</g>
</g>
<!-- Node13&#45;&gt;Node16 -->
<g id="edge20" class="edge"><title>Node13&#45;&gt;Node16</title>
<path fill="none" stroke="midnightblue" d="M766.834,-116.753C765.308,-109.25 764.884,-98.4238 765.564,-89.0781"/>
<polygon fill="midnightblue" stroke="midnightblue" points="769.046,-89.4439 766.869,-79.0752 762.105,-88.5385 769.046,-89.4439"/>
</g>
<!-- Node14&#45;&gt;Node8 -->
<g id="edge17" class="edge"><title>Node14&#45;&gt;Node8</title>
<path fill="none" stroke="midnightblue" d="M981.431,-60.2865C976.911,-59.4704 972.359,-58.6885 968,-58 845.686,-38.6783 699.618,-22.6063 633.142,-15.6723"/>
<polygon fill="midnightblue" stroke="midnightblue" points="633.48,-12.1886 623.172,-14.6388 632.758,-19.1513 633.48,-12.1886"/>
</g>
<!-- Node15 -->
<g id="node15" class="node"><title>Node15</title>
<g id="a_node15"><a xlink:href="move_8cpp.html" target="_top" xlink:title="Om source file.">
<polygon fill="none" stroke="black" points="981.988,-1 981.988,-21 1058.01,-21 1058.01,-1 981.988,-1"/>
<text text-anchor="middle" x="1020" y="-7" font-family="Helvetica,sans-Serif" font-size="10.00">om/move.cpp</text>
</a>
</g>
</g>
<!-- Node14&#45;&gt;Node15 -->
<g id="edge18" class="edge"><title>Node14&#45;&gt;Node15</title>
<path fill="none" stroke="midnightblue" d="M1014.83,-58.7527C1013.31,-51.2504 1012.88,-40.4238 1013.56,-31.0781"/>
<polygon fill="midnightblue" stroke="midnightblue" points="1017.05,-31.4439 1014.87,-21.0752 1010.1,-30.5385 1017.05,-31.4439"/>
</g>
<!-- Node15&#45;&gt;Node14 -->
<g id="edge19" class="edge"><title>Node15&#45;&gt;Node14</title>
<path fill="none" stroke="midnightblue" d="M1025.13,-21.0752C1026.67,-28.5262 1027.11,-39.3384 1026.45,-48.7065"/>
<polygon fill="midnightblue" stroke="midnightblue" points="1022.96,-48.3895 1025.17,-58.7527 1029.91,-49.2776 1022.96,-48.3895"/>
</g>
<!-- Node16&#45;&gt;Node13 -->
<g id="edge21" class="edge"><title>Node16&#45;&gt;Node13</title>
<path fill="none" stroke="midnightblue" d="M777.131,-79.0752C778.674,-86.5262 779.114,-97.3384 778.451,-106.707"/>
<polygon fill="midnightblue" stroke="midnightblue" points="774.963,-106.389 777.166,-116.753 781.907,-107.278 774.963,-106.389"/>
</g>
<!-- Node17&#45;&gt;Node12 -->
<g id="edge23" class="edge"><title>Node17&#45;&gt;Node12</title>
<path fill="none" stroke="midnightblue" d="M565.614,-137.025C598.388,-146.454 647.103,-161.303 679.751,-171.778"/>
<polygon fill="midnightblue" stroke="midnightblue" points="678.739,-175.13 689.331,-174.878 680.894,-168.47 678.739,-175.13"/>
</g>
<!-- Node18&#45;&gt;Node6 -->
<g id="edge25" class="edge"><title>Node18&#45;&gt;Node6</title>
<path fill="none" stroke="midnightblue" d="M812.353,-174.878C781.458,-165.372 732.903,-150.432 698.934,-139.98"/>
<polygon fill="midnightblue" stroke="midnightblue" points="699.919,-136.621 689.332,-137.025 697.861,-143.311 699.919,-136.621"/>
</g>
<!-- Node18&#45;&gt;Node13 -->
<g id="edge26" class="edge"><title>Node18&#45;&gt;Node13</title>
<path fill="none" stroke="midnightblue" d="M830.441,-174.753C819.84,-166.272 803.929,-153.543 791.384,-143.507"/>
<polygon fill="midnightblue" stroke="midnightblue" points="793.339,-140.589 783.344,-137.075 788.966,-146.055 793.339,-140.589"/>
</g>
<!-- Node19 -->
<g id="node19" class="node"><title>Node19</title>
<g id="a_node19"><a xlink:href="giveable_8cpp.html" target="_top" xlink:title="Om source file.">
<polygon fill="none" stroke="black" points="837.589,-117 837.589,-137 926.411,-137 926.411,-117 837.589,-117"/>
<text text-anchor="middle" x="882" y="-123" font-family="Helvetica,sans-Serif" font-size="10.00">om/giveable.cpp</text>
</a>
</g>
</g>
<!-- Node18&#45;&gt;Node19 -->
<g id="edge27" class="edge"><title>Node18&#45;&gt;Node19</title>
<path fill="none" stroke="midnightblue" d="M843.439,-174.753C847.605,-166.598 855.879,-154.516 863.855,-144.677"/>
<polygon fill="midnightblue" stroke="midnightblue" points="866.524,-146.941 870.387,-137.075 861.215,-142.379 866.524,-146.941"/>
</g>
<!-- Node19&#45;&gt;Node18 -->
<g id="edge28" class="edge"><title>Node19&#45;&gt;Node18</title>
<path fill="none" stroke="midnightblue" d="M880.649,-137.075C876.541,-145.174 868.294,-157.244 860.314,-167.114"/>
<polygon fill="midnightblue" stroke="midnightblue" points="857.619,-164.881 853.772,-174.753 862.935,-169.435 857.619,-164.881"/>
</g>
<!-- Node20&#45;&gt;Node4 -->
<g id="edge30" class="edge"><title>Node20&#45;&gt;Node4</title>
<path fill="none" stroke="midnightblue" d="M584.961,-195.075C597.563,-203.417 614.274,-215.972 626.305,-225.997"/>
<polygon fill="midnightblue" stroke="midnightblue" points="624.26,-228.856 634.112,-232.753 628.84,-223.562 624.26,-228.856"/>
</g>
<!-- Node22 -->
<g id="node22" class="node"><title>Node22</title>
<g id="a_node22"><a xlink:href="queue_8hpp.html" target="_top" xlink:title="Om header file.">
<polygon fill="none" stroke="black" points="1037.03,-175 1037.03,-195 1116.97,-195 1116.97,-175 1037.03,-175"/>
<text text-anchor="middle" x="1077" y="-181" font-family="Helvetica,sans-Serif" font-size="10.00">om/queue.hpp</text>
</a>
</g>
</g>
<!-- Node21&#45;&gt;Node22 -->
<g id="edge32" class="edge"><title>Node21&#45;&gt;Node22</title>
<path fill="none" stroke="midnightblue" d="M980.733,-232.878C999.277,-223.847 1027.89,-209.913 1049.11,-199.581"/>
<polygon fill="midnightblue" stroke="midnightblue" points="1050.82,-202.643 1058.28,-195.118 1047.75,-196.349 1050.82,-202.643"/>
</g>
<!-- Node24 -->
<g id="node24" class="node"><title>Node24</title>
<g id="a_node24"><a xlink:href="default__queue_8cpp.html" target="_top" xlink:title="Om source file.">
<polygon fill="none" stroke="black" points="904.518,-175 904.518,-195 1019.48,-195 1019.48,-175 904.518,-175"/>
<text text-anchor="middle" x="962" y="-181" font-family="Helvetica,sans-Serif" font-size="10.00">om/default_queue.cpp</text>
</a>
</g>
</g>
<!-- Node21&#45;&gt;Node24 -->
<g id="edge36" class="edge"><title>Node21&#45;&gt;Node24</title>
<path fill="none" stroke="midnightblue" d="M956.834,-232.753C955.308,-225.25 954.884,-214.424 955.564,-205.078"/>
<polygon fill="midnightblue" stroke="midnightblue" points="959.046,-205.444 956.869,-195.075 952.105,-204.538 959.046,-205.444"/>
</g>
<!-- Node22&#45;&gt;Node8 -->
<g id="edge33" class="edge"><title>Node22&#45;&gt;Node8</title>
<path fill="none" stroke="midnightblue" d="M1062.47,-174.85C1025.08,-151.715 921.88,-90.4196 828,-58 761.303,-34.9675 679.566,-22.0852 633.368,-16.1344"/>
<polygon fill="midnightblue" stroke="midnightblue" points="633.6,-12.6362 623.243,-14.8684 632.732,-19.5821 633.6,-12.6362"/>
</g>
<!-- Node23 -->
<g id="node23" class="node"><title>Node23</title>
<g id="a_node23"><a xlink:href="queue_8cpp.html" target="_top" xlink:title="Om source file.">
<polygon fill="none" stroke="black" points="1037.31,-117 1037.31,-137 1116.69,-137 1116.69,-117 1037.31,-117"/>
<text text-anchor="middle" x="1077" y="-123" font-family="Helvetica,sans-Serif" font-size="10.00">om/queue.cpp</text>
</a>
</g>
</g>
<!-- Node22&#45;&gt;Node23 -->
<g id="edge34" class="edge"><title>Node22&#45;&gt;Node23</title>
<path fill="none" stroke="midnightblue" d="M1071.83,-174.753C1070.31,-167.25 1069.88,-156.424 1070.56,-147.078"/>
<polygon fill="midnightblue" stroke="midnightblue" points="1074.05,-147.444 1071.87,-137.075 1067.1,-146.538 1074.05,-147.444"/>
</g>
<!-- Node23&#45;&gt;Node22 -->
<g id="edge35" class="edge"><title>Node23&#45;&gt;Node22</title>
<path fill="none" stroke="midnightblue" d="M1082.13,-137.075C1083.67,-144.526 1084.11,-155.338 1083.45,-164.707"/>
<polygon fill="midnightblue" stroke="midnightblue" points="1079.96,-164.389 1082.17,-174.753 1086.91,-165.278 1079.96,-164.389"/>
</g>
<!-- Node24&#45;&gt;Node21 -->
<g id="edge37" class="edge"><title>Node24&#45;&gt;Node21</title>
<path fill="none" stroke="midnightblue" d="M967.131,-195.075C968.674,-202.526 969.114,-213.338 968.451,-222.707"/>
<polygon fill="midnightblue" stroke="midnightblue" points="964.963,-222.389 967.166,-232.753 971.907,-223.278 964.963,-222.389"/>
</g>
<!-- Node25&#45;&gt;Node18 -->
<g id="edge39" class="edge"><title>Node25&#45;&gt;Node18</title>
<path fill="none" stroke="midnightblue" d="M1043.17,-232.94C1001.61,-223.242 935.583,-207.836 890.597,-197.339"/>
<polygon fill="midnightblue" stroke="midnightblue" points="891.305,-193.911 880.771,-195.047 889.714,-200.727 891.305,-193.911"/>
</g>
<!-- Node25&#45;&gt;Node22 -->
<g id="edge40" class="edge"><title>Node25&#45;&gt;Node22</title>
<path fill="none" stroke="midnightblue" d="M1081.17,-232.753C1080.5,-225.25 1079.54,-214.424 1078.7,-205.078"/>
<polygon fill="midnightblue" stroke="midnightblue" points="1082.19,-204.724 1077.81,-195.075 1075.21,-205.347 1082.19,-204.724"/>
</g>
<!-- Node26 -->
<g id="node26" class="node"><title>Node26</title>
<g id="a_node26"><a xlink:href="shareable_8hpp.html" target="_top" xlink:title="Om header file.">
<polygon fill="none" stroke="black" points="1134.97,-175 1134.97,-195 1231.03,-195 1231.03,-175 1134.97,-175"/>
<text text-anchor="middle" x="1183" y="-181" font-family="Helvetica,sans-Serif" font-size="10.00">om/shareable.hpp</text>
</a>
</g>
</g>
<!-- Node25&#45;&gt;Node26 -->
<g id="edge41" class="edge"><title>Node25&#45;&gt;Node26</title>
<path fill="none" stroke="midnightblue" d="M1098.68,-232.753C1114.78,-223.823 1139.38,-210.185 1157.86,-199.939"/>
<polygon fill="midnightblue" stroke="midnightblue" points="1159.58,-202.985 1166.63,-195.075 1156.19,-196.863 1159.58,-202.985"/>
</g>
<!-- Node29 -->
<g id="node29" class="node"><title>Node29</title>
<g id="a_node29"><a xlink:href="program_8cpp.html" target="_top" xlink:title="Om source file.">
<polygon fill="none" stroke="black" points="1248.6,-175 1248.6,-195 1337.4,-195 1337.4,-175 1248.6,-175"/>
<text text-anchor="middle" x="1293" y="-181" font-family="Helvetica,sans-Serif" font-size="10.00">om/program.cpp</text>
</a>
</g>
</g>
<!-- Node25&#45;&gt;Node29 -->
<g id="edge45" class="edge"><title>Node25&#45;&gt;Node29</title>
<path fill="none" stroke="midnightblue" d="M1111.23,-232.878C1145.6,-223.229 1202.9,-207.982 1244.05,-197.512"/>
<polygon fill="midnightblue" stroke="midnightblue" points="1245.04,-200.872 1253.87,-195.025 1243.32,-194.086 1245.04,-200.872"/>
</g>
<!-- Node27 -->
<g id="node27" class="node"><title>Node27</title>
<polygon fill="none" stroke="#bfbfbf" points="1134.88,-117 1134.88,-137 1183.12,-137 1183.12,-117 1134.88,-117"/>
<text text-anchor="middle" x="1159" y="-123" font-family="Helvetica,sans-Serif" font-size="10.00">cstddef</text>
</g>
<!-- Node26&#45;&gt;Node27 -->
<g id="edge42" class="edge"><title>Node26&#45;&gt;Node27</title>
<path fill="none" stroke="midnightblue" d="M1179.04,-174.753C1175.75,-167.087 1170.98,-155.952 1166.92,-146.471"/>
<polygon fill="midnightblue" stroke="midnightblue" points="1170.05,-144.888 1162.89,-137.075 1163.61,-147.645 1170.05,-144.888"/>
</g>
<!-- Node28 -->
<g id="node28" class="node"><title>Node28</title>
<g id="a_node28"><a xlink:href="shareable_8cpp.html" target="_top" xlink:title="Om source file.">
<polygon fill="none" stroke="black" points="1201.25,-117 1201.25,-137 1296.75,-137 1296.75,-117 1201.25,-117"/>
<text text-anchor="middle" x="1249" y="-123" font-family="Helvetica,sans-Serif" font-size="10.00">om/shareable.cpp</text>
</a>
</g>
</g>
<!-- Node26&#45;&gt;Node28 -->
<g id="edge43" class="edge"><title>Node26&#45;&gt;Node28</title>
<path fill="none" stroke="midnightblue" d="M1188.73,-174.753C1197.08,-166.19 1211.97,-153.298 1224.98,-143.219"/>
<polygon fill="midnightblue" stroke="midnightblue" points="1227.27,-145.875 1233.17,-137.075 1223.07,-140.275 1227.27,-145.875"/>
</g>
<!-- Node28&#45;&gt;Node26 -->
<g id="edge44" class="edge"><title>Node28&#45;&gt;Node26</title>
<path fill="none" stroke="midnightblue" d="M1243.44,-137.075C1235.17,-145.579 1220.32,-158.461 1207.28,-168.578"/>
<polygon fill="midnightblue" stroke="midnightblue" points="1204.96,-165.947 1199.06,-174.753 1209.16,-171.542 1204.96,-165.947"/>
</g>
<!-- Node29&#45;&gt;Node25 -->
<g id="edge46" class="edge"><title>Node29&#45;&gt;Node25</title>
<path fill="none" stroke="midnightblue" d="M1264.11,-195.025C1229.9,-204.637 1172.62,-219.881 1131.37,-230.383"/>
<polygon fill="midnightblue" stroke="midnightblue" points="1130.35,-227.031 1121.51,-232.878 1132.06,-233.817 1130.35,-227.031"/>
</g>
<!-- Node31 -->
<g id="node31" class="node"><title>Node31</title>
<g id="a_node31"><a xlink:href="taker_8cpp.html" target="_top" xlink:title="Om source file.">
<polygon fill="none" stroke="black" points="268.372,-175 268.372,-195 341.628,-195 341.628,-175 268.372,-175"/>
<text text-anchor="middle" x="305" y="-181" font-family="Helvetica,sans-Serif" font-size="10.00">om/taker.cpp</text>
</a>
</g>
</g>
<!-- Node30&#45;&gt;Node31 -->
<g id="edge48" class="edge"><title>Node30&#45;&gt;Node31</title>
<path fill="none" stroke="midnightblue" d="M299.834,-232.753C298.308,-225.25 297.884,-214.424 298.564,-205.078"/>
<polygon fill="midnightblue" stroke="midnightblue" points="302.046,-205.444 299.869,-195.075 295.105,-204.538 302.046,-205.444"/>
</g>
<!-- Node31&#45;&gt;Node30 -->
<g id="edge49" class="edge"><title>Node31&#45;&gt;Node30</title>
<path fill="none" stroke="midnightblue" d="M310.131,-195.075C311.674,-202.526 312.114,-213.338 311.451,-222.707"/>
<polygon fill="midnightblue" stroke="midnightblue" points="307.963,-222.389 310.166,-232.753 314.907,-223.278 307.963,-222.389"/>
</g>
<!-- Node32&#45;&gt;Node3 -->
<g id="edge51" class="edge"><title>Node32&#45;&gt;Node3</title>
<path fill="none" stroke="midnightblue" d="M1172.55,-253.047C1131.98,-262.781 1064.33,-278.275 1016.62,-288.779"/>
<polygon fill="midnightblue" stroke="midnightblue" points="1015.78,-285.38 1006.76,-290.94 1017.28,-292.218 1015.78,-285.38"/>
</g>
<!-- Node33&#45;&gt;Node2 -->
<g id="edge53" class="edge"><title>Node33&#45;&gt;Node2</title>
<path fill="none" stroke="midnightblue" d="M594.131,-311.075C595.674,-318.526 596.114,-329.338 595.451,-338.707"/>
<polygon fill="midnightblue" stroke="midnightblue" points="591.963,-338.389 594.166,-348.753 598.907,-339.278 591.963,-338.389"/>
</g>
<!-- Node34&#45;&gt;Node30 -->
<g id="edge55" class="edge"><title>Node34&#45;&gt;Node30</title>
<path fill="none" stroke="midnightblue" d="M214.834,-290.753C232.134,-281.783 258.598,-268.06 278.388,-257.799"/>
<polygon fill="midnightblue" stroke="midnightblue" points="280.231,-260.786 287.498,-253.075 277.009,-254.571 280.231,-260.786"/>
</g>
<!-- Node34&#45;&gt;Node8 -->
<g id="edge56" class="edge"><title>Node34&#45;&gt;Node8</title>
<path fill="none" stroke="midnightblue" d="M202.979,-290.981C214.794,-272.259 240,-227.459 240,-186 240,-186 240,-186 240,-126 240,-59.191 469.751,-26.2075 560.63,-15.7739"/>
<polygon fill="midnightblue" stroke="midnightblue" points="561.201,-19.232 570.749,-14.64 560.421,-12.2755 561.201,-19.232"/>
</g>
<!-- Node35 -->
<g id="node35" class="node"><title>Node35</title>
<polygon fill="none" stroke="#bfbfbf" points="95.6875,-233 95.6875,-253 212.312,-253 212.312,-233 95.6875,-233"/>
<text text-anchor="middle" x="154" y="-239" font-family="Helvetica,sans-Serif" font-size="10.00">boost/intrusive_ptr.hpp</text>
</g>
<!-- Node34&#45;&gt;Node35 -->
<g id="edge57" class="edge"><title>Node34&#45;&gt;Node35</title>
<path fill="none" stroke="midnightblue" d="M189.899,-290.753C183.763,-282.761 174.73,-270.998 167.261,-261.27"/>
<polygon fill="midnightblue" stroke="midnightblue" points="169.835,-258.875 160.968,-253.075 164.283,-263.138 169.835,-258.875"/>
</g>
<!-- Node36 -->
<g id="node36" class="node"><title>Node36</title>
<g id="a_node36"><a xlink:href="owner_8cpp.html" target="_top" xlink:title="Om source file.">
<polygon fill="none" stroke="black" points="-0.130371,-233 -0.130371,-253 78.1304,-253 78.1304,-233 -0.130371,-233"/>
<text text-anchor="middle" x="39" y="-239" font-family="Helvetica,sans-Serif" font-size="10.00">om/owner.cpp</text>
</a>
</g>
</g>
<!-- Node34&#45;&gt;Node36 -->
<g id="edge58" class="edge"><title>Node34&#45;&gt;Node36</title>
<path fill="none" stroke="midnightblue" d="M166.122,-290.878C138.043,-281.603 97.0733,-267.156 69.2103,-256.752"/>
<polygon fill="midnightblue" stroke="midnightblue" points="70.1779,-253.376 59.5862,-253.118 67.7055,-259.925 70.1779,-253.376"/>
</g>
<!-- Node36&#45;&gt;Node34 -->
<g id="edge59" class="edge"><title>Node36&#45;&gt;Node34</title>
<path fill="none" stroke="midnightblue" d="M69.5849,-253.025C97.657,-262.291 138.788,-276.793 166.747,-287.233"/>
<polygon fill="midnightblue" stroke="midnightblue" points="165.812,-290.621 176.404,-290.878 168.284,-284.072 165.812,-290.621"/>
</g>
<!-- Node38&#45;&gt;Node1 -->
<g id="edge62" class="edge"><title>Node38&#45;&gt;Node1</title>
<path fill="none" stroke="midnightblue" d="M805.043,-369.118C789.975,-378.147 764.096,-392.081 743.355,-402.414"/>
<polygon fill="midnightblue" stroke="midnightblue" points="741.685,-399.335 734.244,-406.878 744.764,-405.621 741.685,-399.335"/>
</g>
</g>
</svg>
