<?xml version="1.0" encoding="UTF-8" standalone="no"?>
<!DOCTYPE svg PUBLIC "-//W3C//DTD SVG 1.1//EN"
 "http://www.w3.org/Graphics/SVG/1.1/DTD/svg11.dtd">
<!-- Generated by graphviz version 2.36.0 (20140111.2315)
 -->
<!-- Title: om/language/operation/operator_front_push_operation.cpp Pages: 1 -->
<svg width="126pt" height="124pt"
 viewBox="0.00 0.00 126.00 124.00" xmlns="http://www.w3.org/2000/svg" xmlns:xlink="http://www.w3.org/1999/xlink">
<g id="graph0" class="graph" transform="scale(1 1) rotate(0) translate(4 120)">
<title>om/language/operation/operator_front_push_operation.cpp</title>
<!-- Node1 -->
<g id="node1" class="node"><title>Node1</title>
<polygon fill="#bfbfbf" stroke="black" points="-0.149902,-77 -0.149902,-115 118.15,-115 118.15,-77 -0.149902,-77"/>
<text text-anchor="start" x="7.8501" y="-103" font-family="Helvetica,sans-Serif" font-size="10.00">om/language/operation</text>
<text text-anchor="start" x="7.8501" y="-93" font-family="Helvetica,sans-Serif" font-size="10.00">/operator_front_push</text>
<text text-anchor="middle" x="59" y="-83" font-family="Helvetica,sans-Serif" font-size="10.00">_operation.cpp</text>
</g>
<!-- Node2 -->
<g id="node2" class="node"><title>Node2</title>
<g id="a_node2"><a xlink:href="operator__front__push__operation_8hpp.html" target="_top" xlink:title="Om header file. ">
<polygon fill="none" stroke="black" points="-0.149902,-1 -0.149902,-39 118.15,-39 118.15,-1 -0.149902,-1"/>
<text text-anchor="start" x="7.8501" y="-27" font-family="Helvetica,sans-Serif" font-size="10.00">om/language/operation</text>
<text text-anchor="start" x="7.8501" y="-17" font-family="Helvetica,sans-Serif" font-size="10.00">/operator_front_push</text>
<text text-anchor="middle" x="59" y="-7" font-family="Helvetica,sans-Serif" font-size="10.00">_operation.hpp</text>
</a>
</g>
</g>
<!-- Node1&#45;&gt;Node2 -->
<g id="edge1" class="edge"><title>Node1&#45;&gt;Node2</title>
<path fill="none" stroke="midnightblue" d="M52.4188,-66.7024C52.053,-57.4309 52.2818,-47.3865 53.105,-39.0817"/>
<polygon fill="midnightblue" stroke="midnightblue" points="48.9282,-66.9622 53.0843,-76.7079 55.9128,-66.4976 48.9282,-66.9622"/>
</g>
<!-- Node2&#45;&gt;Node1 -->
<g id="edge2" class="edge"><title>Node2&#45;&gt;Node1</title>
<path fill="none" stroke="midnightblue" d="M65.5719,-49.0633C65.9476,-58.3216 65.7289,-68.3739 64.9157,-76.7079"/>
<polygon fill="midnightblue" stroke="midnightblue" points="69.0636,-48.822 64.895,-39.0817 62.0797,-49.2956 69.0636,-48.822"/>
</g>
</g>
</svg>
