<?xml version="1.0" encoding="UTF-8" standalone="no"?>
<!DOCTYPE svg PUBLIC "-//W3C//DTD SVG 1.1//EN"
 "http://www.w3.org/Graphics/SVG/1.1/DTD/svg11.dtd">
<!-- Generated by graphviz version 2.36.0 (20140111.2315)
 -->
<!-- Title: om/language/operand.hpp Pages: 1 -->
<svg width="1594pt" height="404pt"
 viewBox="0.00 0.00 1594.00 404.00" xmlns="http://www.w3.org/2000/svg" xmlns:xlink="http://www.w3.org/1999/xlink">
<g id="graph0" class="graph" transform="scale(1 1) rotate(0) translate(4 400)">
<title>om/language/operand.hpp</title>
<!-- Node1 -->
<g id="node1" class="node"><title>Node1</title>
<g id="a_node1"><a xlink:title="Om header file.">
<polygon fill="#bfbfbf" stroke="black" points="1150.62,-377 1150.62,-395 1283.38,-395 1283.38,-377 1150.62,-377"/>
<text text-anchor="middle" x="1217" y="-383" font-family="Helvetica,sans-Serif" font-size="10.00">om/language/operand.hpp</text>
</a>
</g>
</g>
<!-- Node2 -->
<g id="node2" class="node"><title>Node2</title>
<g id="a_node2"><a xlink:href="default__element_8hpp.html" target="_top" xlink:title="Om header file.">
<polygon fill="none" stroke="black" points="685.688,-311 685.688,-339 792.312,-339 792.312,-311 685.688,-311"/>
<text text-anchor="start" x="693.688" y="-327" font-family="Helvetica,sans-Serif" font-size="10.00">om/language/default</text>
<text text-anchor="middle" x="739" y="-317" font-family="Helvetica,sans-Serif" font-size="10.00">_element.hpp</text>
</a>
</g>
</g>
<!-- Node1&#45;&gt;Node2 -->
<g id="edge1" class="edge"><title>Node1&#45;&gt;Node2</title>
<path fill="none" stroke="midnightblue" d="M1152.04,-376.982C1060.24,-365.65 893.61,-345.084 802.571,-333.847"/>
<polygon fill="midnightblue" stroke="midnightblue" points="802.744,-330.341 792.39,-332.59 801.886,-337.289 802.744,-330.341"/>
</g>
<!-- Node32 -->
<g id="node32" class="node"><title>Node32</title>
<g id="a_node32"><a xlink:href="owner_8hpp.html" target="_top" xlink:title="Om header file.">
<polygon fill="none" stroke="black" points="1338.59,-250 1338.59,-268 1417.41,-268 1417.41,-250 1338.59,-250"/>
<text text-anchor="middle" x="1378" y="-256" font-family="Helvetica,sans-Serif" font-size="10.00">om/owner.hpp</text>
</a>
</g>
</g>
<!-- Node1&#45;&gt;Node32 -->
<g id="edge51" class="edge"><title>Node1&#45;&gt;Node32</title>
<path fill="none" stroke="midnightblue" d="M1204.03,-376.878C1183.22,-362.85 1146.5,-333.346 1165,-310 1184.99,-284.777 1271.84,-271.038 1328.28,-264.631"/>
<polygon fill="midnightblue" stroke="midnightblue" points="1328.88,-268.087 1338.44,-263.519 1328.12,-261.128 1328.88,-268.087"/>
</g>
<!-- Node35 -->
<g id="node35" class="node"><title>Node35</title>
<g id="a_node35"><a xlink:title=" ">
<polygon fill="none" stroke="#bfbfbf" points="1173.98,-316 1173.98,-334 1260.02,-334 1260.02,-316 1173.98,-316"/>
<text text-anchor="middle" x="1217" y="-322" font-family="Helvetica,sans-Serif" font-size="10.00">boost/swap.hpp</text>
</a>
</g>
</g>
<!-- Node1&#45;&gt;Node35 -->
<g id="edge57" class="edge"><title>Node1&#45;&gt;Node35</title>
<path fill="none" stroke="midnightblue" d="M1217,-376.796C1217,-368.43 1217,-355.171 1217,-344.297"/>
<polygon fill="midnightblue" stroke="midnightblue" points="1220.5,-344.134 1217,-334.134 1213.5,-344.134 1220.5,-344.134"/>
</g>
<!-- Node36 -->
<g id="node36" class="node"><title>Node36</title>
<g id="a_node36"><a xlink:href="operand_8cpp.html" target="_top" xlink:title="Om source file.">
<polygon fill="none" stroke="black" points="1277.9,-316 1277.9,-334 1410.1,-334 1410.1,-316 1277.9,-316"/>
<text text-anchor="middle" x="1344" y="-322" font-family="Helvetica,sans-Serif" font-size="10.00">om/language/operand.cpp</text>
</a>
</g>
</g>
<!-- Node1&#45;&gt;Node36 -->
<g id="edge58" class="edge"><title>Node1&#45;&gt;Node36</title>
<path fill="none" stroke="midnightblue" d="M1229.81,-376.796C1249.16,-366.757 1285.69,-349.672 1312.34,-338.117"/>
<polygon fill="midnightblue" stroke="midnightblue" points="1313.84,-341.282 1321.66,-334.134 1311.09,-334.845 1313.84,-341.282"/>
</g>
<!-- Node3 -->
<g id="node3" class="node"><title>Node3</title>
<g id="a_node3"><a xlink:href="default__program_8hpp.html" target="_top" xlink:title="Om header file.">
<polygon fill="none" stroke="black" points="748.688,-245 748.688,-273 855.312,-273 855.312,-245 748.688,-245"/>
<text text-anchor="start" x="756.688" y="-261" font-family="Helvetica,sans-Serif" font-size="10.00">om/language/default</text>
<text text-anchor="middle" x="802" y="-251" font-family="Helvetica,sans-Serif" font-size="10.00">_program.hpp</text>
</a>
</g>
</g>
<!-- Node2&#45;&gt;Node3 -->
<g id="edge2" class="edge"><title>Node2&#45;&gt;Node3</title>
<path fill="none" stroke="midnightblue" d="M752.054,-310.739C760.67,-301.986 772.129,-290.345 781.897,-280.422"/>
<polygon fill="midnightblue" stroke="midnightblue" points="784.442,-282.826 788.963,-273.244 779.454,-277.915 784.442,-282.826"/>
</g>
<!-- Node31 -->
<g id="node31" class="node"><title>Node31</title>
<g id="a_node31"><a xlink:href="default__element_8cpp.html" target="_top" xlink:title="Om source file.">
<polygon fill="none" stroke="black" points="623.688,-245 623.688,-273 730.312,-273 730.312,-245 623.688,-245"/>
<text text-anchor="start" x="631.688" y="-261" font-family="Helvetica,sans-Serif" font-size="10.00">om/language/default</text>
<text text-anchor="middle" x="677" y="-251" font-family="Helvetica,sans-Serif" font-size="10.00">_element.cpp</text>
</a>
</g>
</g>
<!-- Node2&#45;&gt;Node31 -->
<g id="edge49" class="edge"><title>Node2&#45;&gt;Node31</title>
<path fill="none" stroke="midnightblue" d="M720.561,-310.739C711.042,-302.158 699.776,-290.801 690.968,-281.007"/>
<polygon fill="midnightblue" stroke="midnightblue" points="693.434,-278.508 684.24,-273.244 688.144,-283.093 693.434,-278.508"/>
</g>
<!-- Node4 -->
<g id="node4" class="node"><title>Node4</title>
<g id="a_node4"><a xlink:href="default__giveable_8hpp.html" target="_top" xlink:title="Om header file.">
<polygon fill="none" stroke="black" points="293.515,-184 293.515,-202 418.485,-202 418.485,-184 293.515,-184"/>
<text text-anchor="middle" x="356" y="-190" font-family="Helvetica,sans-Serif" font-size="10.00">om/default_giveable.hpp</text>
</a>
</g>
</g>
<!-- Node3&#45;&gt;Node4 -->
<g id="edge3" class="edge"><title>Node3&#45;&gt;Node4</title>
<path fill="none" stroke="midnightblue" d="M748.449,-245.76C745.257,-245.136 742.09,-244.544 739,-244 631.553,-225.086 505.985,-210.018 428.726,-201.547"/>
<polygon fill="midnightblue" stroke="midnightblue" points="428.938,-198.049 418.618,-200.446 428.18,-205.008 428.938,-198.049"/>
</g>
<!-- Node17 -->
<g id="node17" class="node"><title>Node17</title>
<g id="a_node17"><a xlink:href="default__consumer_8hpp.html" target="_top" xlink:title="Om header file.">
<polygon fill="none" stroke="black" points="529.688,-179 529.688,-207 636.312,-207 636.312,-179 529.688,-179"/>
<text text-anchor="start" x="537.688" y="-195" font-family="Helvetica,sans-Serif" font-size="10.00">om/language/default</text>
<text text-anchor="middle" x="583" y="-185" font-family="Helvetica,sans-Serif" font-size="10.00">_consumer.hpp</text>
</a>
</g>
</g>
<!-- Node3&#45;&gt;Node17 -->
<g id="edge25" class="edge"><title>Node3&#45;&gt;Node17</title>
<path fill="none" stroke="midnightblue" d="M757.418,-244.972C722.632,-234.806 674.167,-220.642 637.151,-209.825"/>
<polygon fill="midnightblue" stroke="midnightblue" points="638.1,-206.456 627.519,-207.01 636.136,-213.175 638.1,-206.456"/>
</g>
<!-- Node21 -->
<g id="node21" class="node"><title>Node21</title>
<g id="a_node21"><a xlink:href="program_8hpp.html" target="_top" xlink:title="Om header file.">
<polygon fill="none" stroke="black" points="873.35,-184 873.35,-202 1006.65,-202 1006.65,-184 873.35,-184"/>
<text text-anchor="middle" x="940" y="-190" font-family="Helvetica,sans-Serif" font-size="10.00">om/language/program.hpp</text>
</a>
</g>
</g>
<!-- Node3&#45;&gt;Node21 -->
<g id="edge31" class="edge"><title>Node3&#45;&gt;Node21</title>
<path fill="none" stroke="midnightblue" d="M830.259,-244.894C854.655,-233.58 889.637,-217.357 913.504,-206.288"/>
<polygon fill="midnightblue" stroke="midnightblue" points="915.08,-209.415 922.679,-202.033 912.135,-203.065 915.08,-209.415"/>
</g>
<!-- Node28 -->
<g id="node28" class="node"><title>Node28</title>
<g id="a_node28"><a xlink:href="taker_8hpp.html" target="_top" xlink:title="Om header file.">
<polygon fill="none" stroke="black" points="1243.09,-184 1243.09,-202 1316.91,-202 1316.91,-184 1243.09,-184"/>
<text text-anchor="middle" x="1280" y="-190" font-family="Helvetica,sans-Serif" font-size="10.00">om/taker.hpp</text>
</a>
</g>
</g>
<!-- Node3&#45;&gt;Node28 -->
<g id="edge44" class="edge"><title>Node3&#45;&gt;Node28</title>
<path fill="none" stroke="midnightblue" d="M855.441,-250.845C949.529,-238.247 1143.24,-212.311 1232.75,-200.327"/>
<polygon fill="midnightblue" stroke="midnightblue" points="1233.43,-203.767 1242.88,-198.97 1232.5,-196.828 1233.43,-203.767"/>
</g>
<!-- Node30 -->
<g id="node30" class="node"><title>Node30</title>
<g id="a_node30"><a xlink:href="default__program_8cpp.html" target="_top" xlink:title="Om source file.">
<polygon fill="none" stroke="black" points="748.688,-179 748.688,-207 855.312,-207 855.312,-179 748.688,-179"/>
<text text-anchor="start" x="756.688" y="-195" font-family="Helvetica,sans-Serif" font-size="10.00">om/language/default</text>
<text text-anchor="middle" x="802" y="-185" font-family="Helvetica,sans-Serif" font-size="10.00">_program.cpp</text>
</a>
</g>
</g>
<!-- Node3&#45;&gt;Node30 -->
<g id="edge47" class="edge"><title>Node3&#45;&gt;Node30</title>
<path fill="none" stroke="midnightblue" d="M796.407,-244.739C795.298,-236.844 794.986,-226.6 795.472,-217.386"/>
<polygon fill="midnightblue" stroke="midnightblue" points="798.974,-217.524 796.41,-207.244 792.004,-216.879 798.974,-217.524"/>
</g>
<!-- Node5 -->
<g id="node5" class="node"><title>Node5</title>
<g id="a_node5"><a xlink:href="default__copyable_8hpp.html" target="_top" xlink:title="Om header file.">
<polygon fill="none" stroke="black" points="-0.874023,-118 -0.874023,-136 126.874,-136 126.874,-118 -0.874023,-118"/>
<text text-anchor="middle" x="63" y="-124" font-family="Helvetica,sans-Serif" font-size="10.00">om/default_copyable.hpp</text>
</a>
</g>
</g>
<!-- Node4&#45;&gt;Node5 -->
<g id="edge4" class="edge"><title>Node4&#45;&gt;Node5</title>
<path fill="none" stroke="midnightblue" d="M319.188,-183.959C266.121,-172.368 168.123,-150.962 109.926,-138.25"/>
<polygon fill="midnightblue" stroke="midnightblue" points="110.408,-134.773 99.8918,-136.058 108.915,-141.612 110.408,-134.773"/>
</g>
<!-- Node10 -->
<g id="node10" class="node"><title>Node10</title>
<g id="a_node10"><a xlink:href="default__moveable_8hpp.html" target="_top" xlink:title="Om header file.">
<polygon fill="none" stroke="black" points="144.461,-118 144.461,-136 275.539,-136 275.539,-118 144.461,-118"/>
<text text-anchor="middle" x="210" y="-124" font-family="Helvetica,sans-Serif" font-size="10.00">om/default_moveable.hpp</text>
</a>
</g>
</g>
<!-- Node4&#45;&gt;Node10 -->
<g id="edge11" class="edge"><title>Node4&#45;&gt;Node10</title>
<path fill="none" stroke="midnightblue" d="M337.509,-183.894C312.278,-172.834 266.861,-152.925 237.594,-140.096"/>
<polygon fill="midnightblue" stroke="midnightblue" points="238.905,-136.849 228.341,-136.04 236.094,-143.26 238.905,-136.849"/>
</g>
<!-- Node14 -->
<g id="node14" class="node"><title>Node14</title>
<g id="a_node14"><a xlink:href="giveable_8hpp.html" target="_top" xlink:title="Om header file.">
<polygon fill="none" stroke="black" points="561.308,-118 561.308,-136 650.692,-136 650.692,-118 561.308,-118"/>
<text text-anchor="middle" x="606" y="-124" font-family="Helvetica,sans-Serif" font-size="10.00">om/giveable.hpp</text>
</a>
</g>
</g>
<!-- Node4&#45;&gt;Node14 -->
<g id="edge18" class="edge"><title>Node4&#45;&gt;Node14</title>
<path fill="none" stroke="midnightblue" d="M387.58,-183.984C426.325,-174.141 494.012,-156.913 552,-142 556.338,-140.884 560.871,-139.715 565.387,-138.547"/>
<polygon fill="midnightblue" stroke="midnightblue" points="566.361,-141.911 575.165,-136.017 564.607,-135.134 566.361,-141.911"/>
</g>
<!-- Node16 -->
<g id="node16" class="node"><title>Node16</title>
<g id="a_node16"><a xlink:href="default__giveable_8cpp.html" target="_top" xlink:title="Om source file.">
<polygon fill="none" stroke="black" points="293.796,-118 293.796,-136 418.204,-136 418.204,-118 293.796,-118"/>
<text text-anchor="middle" x="356" y="-124" font-family="Helvetica,sans-Serif" font-size="10.00">om/default_giveable.cpp</text>
</a>
</g>
</g>
<!-- Node4&#45;&gt;Node16 -->
<g id="edge23" class="edge"><title>Node4&#45;&gt;Node16</title>
<path fill="none" stroke="midnightblue" d="M351.327,-183.894C349.215,-174.52 348.714,-158.791 349.824,-146.402"/>
<polygon fill="midnightblue" stroke="midnightblue" points="353.326,-146.641 351.296,-136.242 346.398,-145.637 353.326,-146.641"/>
</g>
<!-- Node6 -->
<g id="node6" class="node"><title>Node6</title>
<g id="a_node6"><a xlink:href="copyable_8hpp.html" target="_top" xlink:title="Om header file.">
<polygon fill="none" stroke="black" points="337.919,-57 337.919,-75 430.081,-75 430.081,-57 337.919,-57"/>
<text text-anchor="middle" x="384" y="-63" font-family="Helvetica,sans-Serif" font-size="10.00">om/copyable.hpp</text>
</a>
</g>
</g>
<!-- Node5&#45;&gt;Node6 -->
<g id="edge5" class="edge"><title>Node5&#45;&gt;Node6</title>
<path fill="none" stroke="midnightblue" d="M103.725,-117.984C113.932,-116.001 124.862,-113.902 135,-112 201.447,-99.5361 277.991,-85.795 328.478,-76.8168"/>
<polygon fill="midnightblue" stroke="midnightblue" points="329.296,-80.2263 338.53,-75.0309 328.072,-73.3342 329.296,-80.2263"/>
</g>
<!-- Node9 -->
<g id="node9" class="node"><title>Node9</title>
<g id="a_node9"><a xlink:href="default__copyable_8cpp.html" target="_top" xlink:title="Om source file.">
<polygon fill="none" stroke="black" points="-0.593262,-57 -0.593262,-75 126.593,-75 126.593,-57 -0.593262,-57"/>
<text text-anchor="middle" x="63" y="-63" font-family="Helvetica,sans-Serif" font-size="10.00">om/default_copyable.cpp</text>
</a>
</g>
</g>
<!-- Node5&#45;&gt;Node9 -->
<g id="edge9" class="edge"><title>Node5&#45;&gt;Node9</title>
<path fill="none" stroke="midnightblue" d="M58.155,-117.796C56.2659,-109.43 55.7818,-96.1713 56.7026,-85.2974"/>
<polygon fill="midnightblue" stroke="midnightblue" points="60.205,-85.5317 58.1708,-75.134 53.277,-84.5308 60.205,-85.5317"/>
</g>
<!-- Node7 -->
<g id="node7" class="node"><title>Node7</title>
<g id="a_node7"><a xlink:title=" ">
<polygon fill="none" stroke="#bfbfbf" points="872.943,-1 872.943,-19 925.057,-19 925.057,-1 872.943,-1"/>
<text text-anchor="middle" x="899" y="-7" font-family="Helvetica,sans-Serif" font-size="10.00">memory</text>
</a>
</g>
</g>
<!-- Node6&#45;&gt;Node7 -->
<g id="edge6" class="edge"><title>Node6&#45;&gt;Node7</title>
<path fill="none" stroke="midnightblue" d="M430.182,-57.2206C433.163,-56.7873 436.122,-56.3759 439,-56 596.114,-35.4821 784.535,-19.8434 862.489,-13.7642"/>
<polygon fill="midnightblue" stroke="midnightblue" points="863.041,-17.232 872.741,-12.9703 862.5,-10.2529 863.041,-17.232"/>
</g>
<!-- Node8 -->
<g id="node8" class="node"><title>Node8</title>
<g id="a_node8"><a xlink:href="copyable_8cpp.html" target="_top" xlink:title="Om source file.">
<polygon fill="none" stroke="black" points="338.2,-1 338.2,-19 429.8,-19 429.8,-1 338.2,-1"/>
<text text-anchor="middle" x="384" y="-7" font-family="Helvetica,sans-Serif" font-size="10.00">om/copyable.cpp</text>
</a>
</g>
</g>
<!-- Node6&#45;&gt;Node8 -->
<g id="edge7" class="edge"><title>Node6&#45;&gt;Node8</title>
<path fill="none" stroke="midnightblue" d="M378.938,-56.5625C377.325,-49.308 376.868,-38.5884 377.566,-29.3691"/>
<polygon fill="midnightblue" stroke="midnightblue" points="381.069,-29.5903 378.991,-19.2014 374.137,-28.6192 381.069,-29.5903"/>
</g>
<!-- Node8&#45;&gt;Node6 -->
<g id="edge8" class="edge"><title>Node8&#45;&gt;Node6</title>
<path fill="none" stroke="midnightblue" d="M389.009,-19.2014C390.665,-26.4586 391.139,-37.3129 390.433,-46.6333"/>
<polygon fill="midnightblue" stroke="midnightblue" points="386.963,-46.1777 389.062,-56.5625 393.897,-47.1352 386.963,-46.1777"/>
</g>
<!-- Node9&#45;&gt;Node5 -->
<g id="edge10" class="edge"><title>Node9&#45;&gt;Node5</title>
<path fill="none" stroke="midnightblue" d="M67.8292,-75.134C69.7261,-83.4728 70.218,-96.7247 69.305,-107.612"/>
<polygon fill="midnightblue" stroke="midnightblue" points="65.7996,-107.401 67.845,-117.796 72.7287,-108.394 65.7996,-107.401"/>
</g>
<!-- Node11 -->
<g id="node11" class="node"><title>Node11</title>
<g id="a_node11"><a xlink:href="moveable_8hpp.html" target="_top" xlink:title="Om header file.">
<polygon fill="none" stroke="black" points="448.254,-57 448.254,-75 543.746,-75 543.746,-57 448.254,-57"/>
<text text-anchor="middle" x="496" y="-63" font-family="Helvetica,sans-Serif" font-size="10.00">om/moveable.hpp</text>
</a>
</g>
</g>
<!-- Node10&#45;&gt;Node11 -->
<g id="edge12" class="edge"><title>Node10&#45;&gt;Node11</title>
<path fill="none" stroke="midnightblue" d="M248.869,-117.982C300.342,-107.363 391.131,-88.6338 447.173,-77.0726"/>
<polygon fill="midnightblue" stroke="midnightblue" points="448.129,-80.4492 457.216,-75.0009 446.715,-73.5935 448.129,-80.4492"/>
</g>
<!-- Node13 -->
<g id="node13" class="node"><title>Node13</title>
<g id="a_node13"><a xlink:href="default__moveable_8cpp.html" target="_top" xlink:title="Om source file.">
<polygon fill="none" stroke="black" points="144.742,-57 144.742,-75 275.258,-75 275.258,-57 144.742,-57"/>
<text text-anchor="middle" x="210" y="-63" font-family="Helvetica,sans-Serif" font-size="10.00">om/default_moveable.cpp</text>
</a>
</g>
</g>
<!-- Node10&#45;&gt;Node13 -->
<g id="edge16" class="edge"><title>Node10&#45;&gt;Node13</title>
<path fill="none" stroke="midnightblue" d="M205.155,-117.796C203.266,-109.43 202.782,-96.1713 203.703,-85.2974"/>
<polygon fill="midnightblue" stroke="midnightblue" points="207.205,-85.5317 205.171,-75.134 200.277,-84.5308 207.205,-85.5317"/>
</g>
<!-- Node11&#45;&gt;Node7 -->
<g id="edge13" class="edge"><title>Node11&#45;&gt;Node7</title>
<path fill="none" stroke="midnightblue" d="M543.88,-57.3431C546.965,-56.8797 550.025,-56.4282 553,-56 665.79,-39.764 799.649,-23.0904 862.709,-15.3895"/>
<polygon fill="midnightblue" stroke="midnightblue" points="863.421,-18.8287 872.924,-14.1448 862.574,-11.88 863.421,-18.8287"/>
</g>
<!-- Node12 -->
<g id="node12" class="node"><title>Node12</title>
<g id="a_node12"><a xlink:href="moveable_8cpp.html" target="_top" xlink:title="Om source file.">
<polygon fill="none" stroke="black" points="448.535,-1 448.535,-19 543.465,-19 543.465,-1 448.535,-1"/>
<text text-anchor="middle" x="496" y="-7" font-family="Helvetica,sans-Serif" font-size="10.00">om/moveable.cpp</text>
</a>
</g>
</g>
<!-- Node11&#45;&gt;Node12 -->
<g id="edge14" class="edge"><title>Node11&#45;&gt;Node12</title>
<path fill="none" stroke="midnightblue" d="M490.938,-56.5625C489.325,-49.308 488.868,-38.5884 489.566,-29.3691"/>
<polygon fill="midnightblue" stroke="midnightblue" points="493.069,-29.5903 490.991,-19.2014 486.137,-28.6192 493.069,-29.5903"/>
</g>
<!-- Node12&#45;&gt;Node11 -->
<g id="edge15" class="edge"><title>Node12&#45;&gt;Node11</title>
<path fill="none" stroke="midnightblue" d="M501.009,-19.2014C502.665,-26.4586 503.139,-37.3129 502.433,-46.6333"/>
<polygon fill="midnightblue" stroke="midnightblue" points="498.963,-46.1777 501.062,-56.5625 505.897,-47.1352 498.963,-46.1777"/>
</g>
<!-- Node13&#45;&gt;Node10 -->
<g id="edge17" class="edge"><title>Node13&#45;&gt;Node10</title>
<path fill="none" stroke="midnightblue" d="M214.829,-75.134C216.726,-83.4728 217.218,-96.7247 216.305,-107.612"/>
<polygon fill="midnightblue" stroke="midnightblue" points="212.8,-107.401 214.845,-117.796 219.729,-108.394 212.8,-107.401"/>
</g>
<!-- Node14&#45;&gt;Node6 -->
<g id="edge19" class="edge"><title>Node14&#45;&gt;Node6</title>
<path fill="none" stroke="midnightblue" d="M575.597,-117.92C536.267,-107.467 467.647,-89.2304 424.088,-77.654"/>
<polygon fill="midnightblue" stroke="midnightblue" points="424.954,-74.2628 414.391,-75.0769 423.156,-81.028 424.954,-74.2628"/>
</g>
<!-- Node14&#45;&gt;Node11 -->
<g id="edge20" class="edge"><title>Node14&#45;&gt;Node11</title>
<path fill="none" stroke="midnightblue" d="M590.705,-117.796C572.398,-107.977 541.525,-91.418 520.024,-79.8855"/>
<polygon fill="midnightblue" stroke="midnightblue" points="521.632,-76.7764 511.165,-75.134 518.323,-82.9451 521.632,-76.7764"/>
</g>
<!-- Node15 -->
<g id="node15" class="node"><title>Node15</title>
<g id="a_node15"><a xlink:href="giveable_8cpp.html" target="_top" xlink:title="Om source file.">
<polygon fill="none" stroke="black" points="561.589,-57 561.589,-75 650.411,-75 650.411,-57 561.589,-57"/>
<text text-anchor="middle" x="606" y="-63" font-family="Helvetica,sans-Serif" font-size="10.00">om/giveable.cpp</text>
</a>
</g>
</g>
<!-- Node14&#45;&gt;Node15 -->
<g id="edge21" class="edge"><title>Node14&#45;&gt;Node15</title>
<path fill="none" stroke="midnightblue" d="M601.155,-117.796C599.266,-109.43 598.782,-96.1713 599.703,-85.2974"/>
<polygon fill="midnightblue" stroke="midnightblue" points="603.205,-85.5317 601.171,-75.134 596.277,-84.5308 603.205,-85.5317"/>
</g>
<!-- Node15&#45;&gt;Node14 -->
<g id="edge22" class="edge"><title>Node15&#45;&gt;Node14</title>
<path fill="none" stroke="midnightblue" d="M610.829,-75.134C612.726,-83.4728 613.218,-96.7247 612.305,-107.612"/>
<polygon fill="midnightblue" stroke="midnightblue" points="608.8,-107.401 610.845,-117.796 615.729,-108.394 608.8,-107.401"/>
</g>
<!-- Node16&#45;&gt;Node4 -->
<g id="edge24" class="edge"><title>Node16&#45;&gt;Node4</title>
<path fill="none" stroke="midnightblue" d="M360.704,-136.242C362.8,-145.677 363.286,-161.421 362.16,-173.777"/>
<polygon fill="midnightblue" stroke="midnightblue" points="358.664,-173.492 360.673,-183.894 365.59,-174.51 358.664,-173.492"/>
</g>
<!-- Node18 -->
<g id="node18" class="node"><title>Node18</title>
<g id="a_node18"><a xlink:href="consumer_8hpp.html" target="_top" xlink:title="Om header file.">
<polygon fill="none" stroke="black" points="668.289,-118 668.289,-136 807.711,-136 807.711,-118 668.289,-118"/>
<text text-anchor="middle" x="738" y="-124" font-family="Helvetica,sans-Serif" font-size="10.00">om/language/consumer.hpp</text>
</a>
</g>
</g>
<!-- Node17&#45;&gt;Node18 -->
<g id="edge26" class="edge"><title>Node17&#45;&gt;Node18</title>
<path fill="none" stroke="midnightblue" d="M614.741,-178.894C642.385,-167.48 682.132,-151.068 708.952,-139.994"/>
<polygon fill="midnightblue" stroke="midnightblue" points="710.638,-143.084 718.546,-136.033 707.967,-136.614 710.638,-143.084"/>
</g>
<!-- Node20 -->
<g id="node20" class="node"><title>Node20</title>
<g id="a_node20"><a xlink:href="default__consumer_8cpp.html" target="_top" xlink:title="Om source file.">
<polygon fill="none" stroke="black" points="436.688,-113 436.688,-141 543.312,-141 543.312,-113 436.688,-113"/>
<text text-anchor="start" x="444.688" y="-129" font-family="Helvetica,sans-Serif" font-size="10.00">om/language/default</text>
<text text-anchor="middle" x="490" y="-119" font-family="Helvetica,sans-Serif" font-size="10.00">_consumer.cpp</text>
</a>
</g>
</g>
<!-- Node17&#45;&gt;Node20 -->
<g id="edge29" class="edge"><title>Node17&#45;&gt;Node20</title>
<path fill="none" stroke="midnightblue" d="M558.138,-178.739C543.545,-169.582 525.432,-157.265 511.462,-147.059"/>
<polygon fill="midnightblue" stroke="midnightblue" points="513.477,-144.196 503.368,-141.025 509.293,-149.808 513.477,-144.196"/>
</g>
<!-- Node19 -->
<g id="node19" class="node"><title>Node19</title>
<g id="a_node19"><a xlink:href="consumer_8cpp.html" target="_top" xlink:title="Om source file.">
<polygon fill="none" stroke="black" points="668.569,-57 668.569,-75 807.431,-75 807.431,-57 668.569,-57"/>
<text text-anchor="middle" x="738" y="-63" font-family="Helvetica,sans-Serif" font-size="10.00">om/language/consumer.cpp</text>
</a>
</g>
</g>
<!-- Node18&#45;&gt;Node19 -->
<g id="edge27" class="edge"><title>Node18&#45;&gt;Node19</title>
<path fill="none" stroke="midnightblue" d="M733.155,-117.796C731.266,-109.43 730.782,-96.1713 731.703,-85.2974"/>
<polygon fill="midnightblue" stroke="midnightblue" points="735.205,-85.5317 733.171,-75.134 728.277,-84.5308 735.205,-85.5317"/>
</g>
<!-- Node19&#45;&gt;Node18 -->
<g id="edge28" class="edge"><title>Node19&#45;&gt;Node18</title>
<path fill="none" stroke="midnightblue" d="M742.829,-75.134C744.726,-83.4728 745.218,-96.7247 744.305,-107.612"/>
<polygon fill="midnightblue" stroke="midnightblue" points="740.8,-107.401 742.845,-117.796 747.729,-108.394 740.8,-107.401"/>
</g>
<!-- Node20&#45;&gt;Node17 -->
<g id="edge30" class="edge"><title>Node20&#45;&gt;Node17</title>
<path fill="none" stroke="midnightblue" d="M514.486,-141.025C529.018,-150.127 547.135,-162.435 561.176,-172.676"/>
<polygon fill="midnightblue" stroke="midnightblue" points="559.211,-175.577 569.323,-178.739 563.39,-169.961 559.211,-175.577"/>
</g>
<!-- Node21&#45;&gt;Node14 -->
<g id="edge32" class="edge"><title>Node21&#45;&gt;Node14</title>
<path fill="none" stroke="midnightblue" d="M896.606,-183.942C885.947,-181.98 874.564,-179.9 864,-178 772.956,-161.621 749.355,-161.83 659,-142 654.253,-140.958 649.292,-139.775 644.39,-138.548"/>
<polygon fill="midnightblue" stroke="midnightblue" points="645.056,-135.106 634.499,-136.001 643.31,-141.885 645.056,-135.106"/>
</g>
<!-- Node21&#45;&gt;Node18 -->
<g id="edge33" class="edge"><title>Node21&#45;&gt;Node18</title>
<path fill="none" stroke="midnightblue" d="M914.417,-183.894C878.597,-172.545 813.374,-151.881 773.056,-139.107"/>
<polygon fill="midnightblue" stroke="midnightblue" points="773.966,-135.724 763.376,-136.04 771.852,-142.397 773.966,-135.724"/>
</g>
<!-- Node22 -->
<g id="node22" class="node"><title>Node22</title>
<g id="a_node22"><a xlink:href="producer_8hpp.html" target="_top" xlink:title="Om header file.">
<polygon fill="none" stroke="black" points="1090.51,-118 1090.51,-136 1225.49,-136 1225.49,-118 1090.51,-118"/>
<text text-anchor="middle" x="1158" y="-124" font-family="Helvetica,sans-Serif" font-size="10.00">om/language/producer.hpp</text>
</a>
</g>
</g>
<!-- Node21&#45;&gt;Node22 -->
<g id="edge34" class="edge"><title>Node21&#45;&gt;Node22</title>
<path fill="none" stroke="midnightblue" d="M967.61,-183.894C1006.51,-172.473 1077.55,-151.618 1120.99,-138.864"/>
<polygon fill="midnightblue" stroke="midnightblue" points="1122.01,-142.215 1130.61,-136.04 1120.03,-135.499 1122.01,-142.215"/>
</g>
<!-- Node24 -->
<g id="node24" class="node"><title>Node24</title>
<g id="a_node24"><a xlink:href="shareable_8hpp.html" target="_top" xlink:title="Om header file.">
<polygon fill="none" stroke="black" points="825.973,-118 825.973,-136 922.027,-136 922.027,-118 825.973,-118"/>
<text text-anchor="middle" x="874" y="-124" font-family="Helvetica,sans-Serif" font-size="10.00">om/shareable.hpp</text>
</a>
</g>
</g>
<!-- Node21&#45;&gt;Node24 -->
<g id="edge38" class="edge"><title>Node21&#45;&gt;Node24</title>
<path fill="none" stroke="midnightblue" d="M931.641,-183.894C921.185,-173.755 903.061,-156.181 889.923,-143.44"/>
<polygon fill="midnightblue" stroke="midnightblue" points="892.115,-140.691 882.5,-136.242 887.242,-145.716 892.115,-140.691"/>
</g>
<!-- Node27 -->
<g id="node27" class="node"><title>Node27</title>
<g id="a_node27"><a xlink:href="program_8cpp.html" target="_top" xlink:title="Om source file.">
<polygon fill="none" stroke="black" points="939.631,-118 939.631,-136 1072.37,-136 1072.37,-118 939.631,-118"/>
<text text-anchor="middle" x="1006" y="-124" font-family="Helvetica,sans-Serif" font-size="10.00">om/language/program.cpp</text>
</a>
</g>
</g>
<!-- Node21&#45;&gt;Node27 -->
<g id="edge42" class="edge"><title>Node21&#45;&gt;Node27</title>
<path fill="none" stroke="midnightblue" d="M943.686,-183.894C952.057,-173.507 970.454,-155.316 985.273,-142.514"/>
<polygon fill="midnightblue" stroke="midnightblue" points="987.604,-145.127 993.051,-136.04 983.126,-139.747 987.604,-145.127"/>
</g>
<!-- Node22&#45;&gt;Node7 -->
<g id="edge35" class="edge"><title>Node22&#45;&gt;Node7</title>
<path fill="none" stroke="midnightblue" d="M1167.42,-117.887C1182.45,-103.992 1208.54,-75.2754 1192,-56 1159.32,-17.9228 1006.44,-11.7439 935.424,-10.9614"/>
<polygon fill="midnightblue" stroke="midnightblue" points="935.19,-7.45949 925.162,-10.8799 935.134,-14.4593 935.19,-7.45949"/>
</g>
<!-- Node23 -->
<g id="node23" class="node"><title>Node23</title>
<g id="a_node23"><a xlink:href="producer_8cpp.html" target="_top" xlink:title="Om source file.">
<polygon fill="none" stroke="black" points="1048.79,-57 1048.79,-75 1183.21,-75 1183.21,-57 1048.79,-57"/>
<text text-anchor="middle" x="1116" y="-63" font-family="Helvetica,sans-Serif" font-size="10.00">om/language/producer.cpp</text>
</a>
</g>
</g>
<!-- Node22&#45;&gt;Node23 -->
<g id="edge36" class="edge"><title>Node22&#45;&gt;Node23</title>
<path fill="none" stroke="midnightblue" d="M1147.32,-117.796C1139.14,-109.078 1128.71,-95.0461 1121.88,-83.9371"/>
<polygon fill="midnightblue" stroke="midnightblue" points="1124.9,-82.1541 1116.96,-75.134 1118.79,-85.5704 1124.9,-82.1541"/>
</g>
<!-- Node23&#45;&gt;Node22 -->
<g id="edge37" class="edge"><title>Node23&#45;&gt;Node22</title>
<path fill="none" stroke="midnightblue" d="M1126.62,-75.134C1134.78,-83.8239 1145.22,-97.8494 1152.06,-108.974"/>
<polygon fill="midnightblue" stroke="midnightblue" points="1149.06,-110.783 1157.01,-117.796 1155.17,-107.362 1149.06,-110.783"/>
</g>
<!-- Node25 -->
<g id="node25" class="node"><title>Node25</title>
<g id="a_node25"><a xlink:title=" ">
<polygon fill="none" stroke="#bfbfbf" points="939.879,-57 939.879,-75 988.121,-75 988.121,-57 939.879,-57"/>
<text text-anchor="middle" x="964" y="-63" font-family="Helvetica,sans-Serif" font-size="10.00">cstddef</text>
</a>
</g>
</g>
<!-- Node24&#45;&gt;Node25 -->
<g id="edge39" class="edge"><title>Node24&#45;&gt;Node25</title>
<path fill="none" stroke="midnightblue" d="M886.514,-117.796C901.157,-108.197 925.625,-92.1571 943.15,-80.6686"/>
<polygon fill="midnightblue" stroke="midnightblue" points="945.148,-83.5437 951.592,-75.134 941.31,-77.6895 945.148,-83.5437"/>
</g>
<!-- Node26 -->
<g id="node26" class="node"><title>Node26</title>
<g id="a_node26"><a xlink:href="shareable_8cpp.html" target="_top" xlink:title="Om source file.">
<polygon fill="none" stroke="black" points="826.254,-57 826.254,-75 921.746,-75 921.746,-57 826.254,-57"/>
<text text-anchor="middle" x="874" y="-63" font-family="Helvetica,sans-Serif" font-size="10.00">om/shareable.cpp</text>
</a>
</g>
</g>
<!-- Node24&#45;&gt;Node26 -->
<g id="edge40" class="edge"><title>Node24&#45;&gt;Node26</title>
<path fill="none" stroke="midnightblue" d="M869.155,-117.796C867.266,-109.43 866.782,-96.1713 867.703,-85.2974"/>
<polygon fill="midnightblue" stroke="midnightblue" points="871.205,-85.5317 869.171,-75.134 864.277,-84.5308 871.205,-85.5317"/>
</g>
<!-- Node26&#45;&gt;Node24 -->
<g id="edge41" class="edge"><title>Node26&#45;&gt;Node24</title>
<path fill="none" stroke="midnightblue" d="M878.829,-75.134C880.726,-83.4728 881.218,-96.7247 880.305,-107.612"/>
<polygon fill="midnightblue" stroke="midnightblue" points="876.8,-107.401 878.845,-117.796 883.729,-108.394 876.8,-107.401"/>
</g>
<!-- Node27&#45;&gt;Node21 -->
<g id="edge43" class="edge"><title>Node27&#45;&gt;Node21</title>
<path fill="none" stroke="midnightblue" d="M1002.2,-136.242C993.792,-146.64 975.522,-164.699 960.776,-177.444"/>
<polygon fill="midnightblue" stroke="midnightblue" points="958.476,-174.805 953.032,-183.894 962.956,-180.183 958.476,-174.805"/>
</g>
<!-- Node29 -->
<g id="node29" class="node"><title>Node29</title>
<g id="a_node29"><a xlink:href="taker_8cpp.html" target="_top" xlink:title="Om source file.">
<polygon fill="none" stroke="black" points="1243.37,-118 1243.37,-136 1316.63,-136 1316.63,-118 1243.37,-118"/>
<text text-anchor="middle" x="1280" y="-124" font-family="Helvetica,sans-Serif" font-size="10.00">om/taker.cpp</text>
</a>
</g>
</g>
<!-- Node28&#45;&gt;Node29 -->
<g id="edge45" class="edge"><title>Node28&#45;&gt;Node29</title>
<path fill="none" stroke="midnightblue" d="M1275.33,-183.894C1273.21,-174.52 1272.71,-158.791 1273.82,-146.402"/>
<polygon fill="midnightblue" stroke="midnightblue" points="1277.33,-146.641 1275.3,-136.242 1270.4,-145.637 1277.33,-146.641"/>
</g>
<!-- Node29&#45;&gt;Node28 -->
<g id="edge46" class="edge"><title>Node29&#45;&gt;Node28</title>
<path fill="none" stroke="midnightblue" d="M1284.7,-136.242C1286.8,-145.677 1287.29,-161.421 1286.16,-173.777"/>
<polygon fill="midnightblue" stroke="midnightblue" points="1282.66,-173.492 1284.67,-183.894 1289.59,-174.51 1282.66,-173.492"/>
</g>
<!-- Node30&#45;&gt;Node3 -->
<g id="edge48" class="edge"><title>Node30&#45;&gt;Node3</title>
<path fill="none" stroke="midnightblue" d="M807.59,-207.244C808.701,-215.135 809.014,-225.379 808.529,-234.595"/>
<polygon fill="midnightblue" stroke="midnightblue" points="805.026,-234.46 807.593,-244.739 811.997,-235.103 805.026,-234.46"/>
</g>
<!-- Node31&#45;&gt;Node2 -->
<g id="edge50" class="edge"><title>Node31&#45;&gt;Node2</title>
<path fill="none" stroke="midnightblue" d="M695.42,-273.244C704.937,-281.821 716.203,-293.178 725.014,-302.973"/>
<polygon fill="midnightblue" stroke="midnightblue" points="722.551,-305.475 731.746,-310.739 727.841,-300.89 722.551,-305.475"/>
</g>
<!-- Node32&#45;&gt;Node7 -->
<g id="edge53" class="edge"><title>Node32&#45;&gt;Node7</title>
<path fill="none" stroke="midnightblue" d="M1375.37,-249.623C1366.07,-220.212 1334.81,-122.856 1325,-112 1286.63,-69.5168 1263.74,-72.7517 1209,-56 1113.05,-26.6376 994.367,-16.2244 935.57,-12.6984"/>
<polygon fill="midnightblue" stroke="midnightblue" points="935.489,-9.18825 925.307,-12.1171 935.093,-16.1771 935.489,-9.18825"/>
</g>
<!-- Node32&#45;&gt;Node28 -->
<g id="edge52" class="edge"><title>Node32&#45;&gt;Node28</title>
<path fill="none" stroke="midnightblue" d="M1365.59,-249.894C1349.31,-239.267 1320.53,-220.47 1300.88,-207.634"/>
<polygon fill="midnightblue" stroke="midnightblue" points="1302.6,-204.577 1292.31,-202.04 1298.77,-210.438 1302.6,-204.577"/>
</g>
<!-- Node33 -->
<g id="node33" class="node"><title>Node33</title>
<g id="a_node33"><a xlink:title=" ">
<polygon fill="none" stroke="#bfbfbf" points="1468.69,-184 1468.69,-202 1585.31,-202 1585.31,-184 1468.69,-184"/>
<text text-anchor="middle" x="1527" y="-190" font-family="Helvetica,sans-Serif" font-size="10.00">boost/intrusive_ptr.hpp</text>
</a>
</g>
</g>
<!-- Node32&#45;&gt;Node33 -->
<g id="edge54" class="edge"><title>Node32&#45;&gt;Node33</title>
<path fill="none" stroke="midnightblue" d="M1396.87,-249.894C1422.62,-238.834 1468.97,-218.925 1498.84,-206.096"/>
<polygon fill="midnightblue" stroke="midnightblue" points="1500.48,-209.202 1508.28,-202.04 1497.71,-202.771 1500.48,-209.202"/>
</g>
<!-- Node34 -->
<g id="node34" class="node"><title>Node34</title>
<g id="a_node34"><a xlink:href="owner_8cpp.html" target="_top" xlink:title="Om source file.">
<polygon fill="none" stroke="black" points="1372.87,-184 1372.87,-202 1451.13,-202 1451.13,-184 1372.87,-184"/>
<text text-anchor="middle" x="1412" y="-190" font-family="Helvetica,sans-Serif" font-size="10.00">om/owner.cpp</text>
</a>
</g>
</g>
<!-- Node32&#45;&gt;Node34 -->
<g id="edge55" class="edge"><title>Node32&#45;&gt;Node34</title>
<path fill="none" stroke="midnightblue" d="M1377.63,-249.894C1380.65,-240.042 1389.17,-223.17 1397.22,-210.533"/>
<polygon fill="midnightblue" stroke="midnightblue" points="1400.14,-212.467 1402.92,-202.242 1394.37,-208.503 1400.14,-212.467"/>
</g>
<!-- Node34&#45;&gt;Node32 -->
<g id="edge56" class="edge"><title>Node34&#45;&gt;Node32</title>
<path fill="none" stroke="midnightblue" d="M1412.33,-202.242C1409.26,-212.158 1400.71,-229.044 1392.67,-241.641"/>
<polygon fill="midnightblue" stroke="midnightblue" points="1389.77,-239.674 1386.98,-249.894 1395.54,-243.645 1389.77,-239.674"/>
</g>
<!-- Node36&#45;&gt;Node1 -->
<g id="edge59" class="edge"><title>Node36&#45;&gt;Node1</title>
<path fill="none" stroke="midnightblue" d="M1331.25,-334.172C1311.89,-344.222 1275.23,-361.367 1248.54,-372.934"/>
<polygon fill="midnightblue" stroke="midnightblue" points="1247.03,-369.773 1239.21,-376.92 1249.78,-376.21 1247.03,-369.773"/>
</g>
</g>
</svg>
