<?xml version="1.0" encoding="UTF-8" standalone="no"?>
<!DOCTYPE svg PUBLIC "-//W3C//DTD SVG 1.1//EN"
 "http://www.w3.org/Graphics/SVG/1.1/DTD/svg11.dtd">
<!-- Generated by graphviz version 2.36.0 (20140111.2315)
 -->
<!-- Title: om/language/operand.cpp Pages: 1 -->
<svg width="140pt" height="84pt"
 viewBox="0.00 0.00 140.00 84.00" xmlns="http://www.w3.org/2000/svg" xmlns:xlink="http://www.w3.org/1999/xlink">
<g id="graph0" class="graph" transform="scale(1 1) rotate(0) translate(4 80)">
<title>om/language/operand.cpp</title>
<!-- Node1 -->
<g id="node1" class="node"><title>Node1</title>
<g id="a_node1"><a xlink:title="Om source file.">
<polygon fill="#bfbfbf" stroke="black" points="-0.100586,-57 -0.100586,-75 132.101,-75 132.101,-57 -0.100586,-57"/>
<text text-anchor="middle" x="66" y="-63" font-family="Helvetica,sans-Serif" font-size="10.00">om/language/operand.cpp</text>
</a>
</g>
</g>
<!-- Node2 -->
<g id="node2" class="node"><title>Node2</title>
<g id="a_node2"><a xlink:href="operand_8hpp.html" target="_top" xlink:title="Om header file.">
<polygon fill="none" stroke="black" points="-0.381348,-1 -0.381348,-19 132.381,-19 132.381,-1 -0.381348,-1"/>
<text text-anchor="middle" x="66" y="-7" font-family="Helvetica,sans-Serif" font-size="10.00">om/language/operand.hpp</text>
</a>
</g>
</g>
<!-- Node1&#45;&gt;Node2 -->
<g id="edge1" class="edge"><title>Node1&#45;&gt;Node2</title>
<path fill="none" stroke="midnightblue" d="M59.5665,-46.6333C58.8607,-37.3129 59.3354,-26.4586 60.9906,-19.2014"/>
<polygon fill="midnightblue" stroke="midnightblue" points="56.1026,-47.1352 60.9375,-56.5625 63.0368,-46.1777 56.1026,-47.1352"/>
</g>
<!-- Node2&#45;&gt;Node1 -->
<g id="edge2" class="edge"><title>Node2&#45;&gt;Node1</title>
<path fill="none" stroke="midnightblue" d="M72.4336,-29.3691C73.1317,-38.5884 72.6746,-49.308 71.0625,-56.5625"/>
<polygon fill="midnightblue" stroke="midnightblue" points="75.8629,-28.6192 71.0094,-19.2014 68.9305,-29.5903 75.8629,-28.6192"/>
</g>
</g>
</svg>
