<?xml version="1.0" encoding="UTF-8" standalone="no"?>
<!DOCTYPE svg PUBLIC "-//W3C//DTD SVG 1.1//EN"
 "http://www.w3.org/Graphics/SVG/1.1/DTD/svg11.dtd">
<!-- Generated by graphviz version 2.30.1 (20130221.2233)
 -->
<!-- Title: om/operation.cpp Pages: 1 -->
<svg width="249pt" height="204pt"
 viewBox="0.00 0.00 249.00 204.00" xmlns="http://www.w3.org/2000/svg" xmlns:xlink="http://www.w3.org/1999/xlink">
<g id="graph0" class="graph" transform="scale(1 1) rotate(0) translate(4 200)">
<title>om/operation.cpp</title>
<!-- Node1 -->
<g id="node1" class="node"><title>Node1</title>
<polygon fill="#bfbfbf" stroke="black" points="96.3647,-175 96.3647,-195 189.635,-195 189.635,-175 96.3647,-175"/>
<text text-anchor="middle" x="143" y="-181" font-family="Helvetica,sans-Serif" font-size="10.00">om/operation.cpp</text>
</g>
<!-- Node2 -->
<g id="node2" class="node"><title>Node2</title>
<polygon fill="none" stroke="#bfbfbf" points="-0.115723,-117 -0.115723,-137 48.1157,-137 48.1157,-117 -0.115723,-117"/>
<text text-anchor="middle" x="24" y="-123" font-family="Helvetica,sans-Serif" font-size="10.00">cassert</text>
</g>
<!-- Node1&#45;&gt;Node2 -->
<g id="edge1" class="edge"><title>Node1&#45;&gt;Node2</title>
<path fill="none" stroke="midnightblue" d="M123.616,-174.878C104.339,-165.807 74.5486,-151.788 52.5638,-141.442"/>
<polygon fill="midnightblue" stroke="midnightblue" points="53.9145,-138.209 43.376,-137.118 50.9338,-144.543 53.9145,-138.209"/>
</g>
<!-- Node3 -->
<g id="node3" class="node"><title>Node3</title>
<polygon fill="none" stroke="#bfbfbf" points="66.5986,-117 66.5986,-137 125.401,-137 125.401,-117 66.5986,-117"/>
<text text-anchor="middle" x="96" y="-123" font-family="Helvetica,sans-Serif" font-size="10.00">stdexcept</text>
</g>
<!-- Node1&#45;&gt;Node3 -->
<g id="edge2" class="edge"><title>Node1&#45;&gt;Node3</title>
<path fill="none" stroke="midnightblue" d="M135.239,-174.753C128.463,-166.68 118.457,-154.757 110.245,-144.973"/>
<polygon fill="midnightblue" stroke="midnightblue" points="112.726,-142.485 103.617,-137.075 107.365,-146.985 112.726,-142.485"/>
</g>
<!-- Node4 -->
<g id="node4" class="node"><title>Node4</title>
<g id="a_node4"><a xlink:href="operation_8hpp.html" target="_top" xlink:title="Om header file.">
<polygon fill="none" stroke="black" points="143.084,-117 143.084,-137 236.916,-137 236.916,-117 143.084,-117"/>
<text text-anchor="middle" x="190" y="-123" font-family="Helvetica,sans-Serif" font-size="10.00">om/operation.hpp</text>
</a>
</g>
</g>
<!-- Node1&#45;&gt;Node4 -->
<g id="edge3" class="edge"><title>Node1&#45;&gt;Node4</title>
<path fill="none" stroke="midnightblue" d="M145.595,-174.753C150.832,-166.516 160.761,-154.274 170.046,-144.382"/>
<polygon fill="midnightblue" stroke="midnightblue" points="172.723,-146.653 177.252,-137.075 167.738,-141.738 172.723,-146.653"/>
</g>
<!-- Node5 -->
<g id="node5" class="node"><title>Node5</title>
<g id="a_node5"><a xlink:href="code__point_8hpp.html" target="_top" xlink:title="Om header file.">
<polygon fill="none" stroke="black" points="139.468,-59 139.468,-79 240.532,-79 240.532,-59 139.468,-59"/>
<text text-anchor="middle" x="190" y="-65" font-family="Helvetica,sans-Serif" font-size="10.00">om/code_point.hpp</text>
</a>
</g>
</g>
<!-- Node4&#45;&gt;Node5 -->
<g id="edge4" class="edge"><title>Node4&#45;&gt;Node5</title>
<path fill="none" stroke="midnightblue" d="M190,-116.753C190,-109.25 190,-98.4238 190,-89.0781"/>
<polygon fill="midnightblue" stroke="midnightblue" points="193.5,-89.0752 190,-79.0752 186.5,-89.0752 193.5,-89.0752"/>
</g>
<!-- Node4&#45;&gt;Node1 -->
<g id="edge6" class="edge"><title>Node4&#45;&gt;Node1</title>
<path fill="none" stroke="midnightblue" d="M187.514,-137.075C182.343,-145.255 172.442,-157.486 163.149,-167.41"/>
<polygon fill="midnightblue" stroke="midnightblue" points="160.444,-165.169 155.927,-174.753 165.435,-170.077 160.444,-165.169"/>
</g>
<!-- Node6 -->
<g id="node6" class="node"><title>Node6</title>
<polygon fill="none" stroke="#bfbfbf" points="138.636,-1 138.636,-21 241.364,-21 241.364,-1 138.636,-1"/>
<text text-anchor="middle" x="190" y="-7" font-family="Helvetica,sans-Serif" font-size="10.00">boost/locale/utf.hpp</text>
</g>
<!-- Node5&#45;&gt;Node6 -->
<g id="edge5" class="edge"><title>Node5&#45;&gt;Node6</title>
<path fill="none" stroke="midnightblue" d="M190,-58.7527C190,-51.2504 190,-40.4238 190,-31.0781"/>
<polygon fill="midnightblue" stroke="midnightblue" points="193.5,-31.0752 190,-21.0752 186.5,-31.0752 193.5,-31.0752"/>
</g>
</g>
</svg>
