<?xml version="1.0" encoding="UTF-8" standalone="no"?>
<!DOCTYPE svg PUBLIC "-//W3C//DTD SVG 1.1//EN"
 "http://www.w3.org/Graphics/SVG/1.1/DTD/svg11.dtd">
<!-- Generated by graphviz version 2.28.0 (20120817.0054)
 -->
<!-- Title: code/om/owner.hpp Pages: 1 -->
<svg width="374pt" height="140pt"
 viewBox="0.00 0.00 374.00 140.00" xmlns="http://www.w3.org/2000/svg" xmlns:xlink="http://www.w3.org/1999/xlink">
<g id="graph1" class="graph" transform="scale(1 1) rotate(0) translate(4 136)">
<title>code/om/owner.hpp</title>
<!-- Node1 -->
<g id="node1" class="node"><title>Node1</title>
<polygon fill="#bfbfbf" stroke="black" points="164.5,-112.5 164.5,-131.5 265.5,-131.5 265.5,-112.5 164.5,-112.5"/>
<text text-anchor="middle" x="215" y="-119.5" font-family="Helvetica,sans-Serif" font-size="10.00">code/om/owner.hpp</text>
</g>
<!-- Node2 -->
<g id="node3" class="node"><title>Node2</title>
<a xlink:href="taker_8hpp.html" target="_top" xlink:title="Om header file.">
<polygon fill="none" stroke="black" points="0,-56.5 0,-75.5 72,-75.5 72,-56.5 0,-56.5"/>
<text text-anchor="middle" x="36" y="-63.5" font-family="Helvetica,sans-Serif" font-size="10.00">om/taker.hpp</text>
</a>
</g>
<!-- Node1&#45;&gt;Node2 -->
<g id="edge2" class="edge"><title>Node1&#45;&gt;Node2</title>
<path fill="none" stroke="midnightblue" d="M186.637,-112.444C156.262,-103.28 107.89,-88.6876 74.184,-78.5192"/>
<polygon fill="midnightblue" stroke="midnightblue" points="74.8151,-75.0538 64.2304,-75.5164 72.7933,-81.7555 74.8151,-75.0538"/>
</g>
<!-- Node4 -->
<g id="node8" class="node"><title>Node4</title>
<polygon fill="none" stroke="#bfbfbf" points="90,-56.5 90,-75.5 140,-75.5 140,-56.5 90,-56.5"/>
<text text-anchor="middle" x="115" y="-63.5" font-family="Helvetica,sans-Serif" font-size="10.00">memory</text>
</g>
<!-- Node1&#45;&gt;Node4 -->
<g id="edge8" class="edge"><title>Node1&#45;&gt;Node4</title>
<path fill="none" stroke="midnightblue" d="M198.933,-112.324C183.042,-103.743 158.493,-90.486 140.042,-80.5224"/>
<polygon fill="midnightblue" stroke="midnightblue" points="141.489,-77.3264 131.027,-75.6545 138.163,-83.4857 141.489,-77.3264"/>
</g>
<!-- Node5 -->
<g id="node10" class="node"><title>Node5</title>
<polygon fill="none" stroke="#bfbfbf" points="158.5,-56.5 158.5,-75.5 271.5,-75.5 271.5,-56.5 158.5,-56.5"/>
<text text-anchor="middle" x="215" y="-63.5" font-family="Helvetica,sans-Serif" font-size="10.00">boost/intrusive_ptr.hpp</text>
</g>
<!-- Node1&#45;&gt;Node5 -->
<g id="edge10" class="edge"><title>Node1&#45;&gt;Node5</title>
<path fill="none" stroke="midnightblue" d="M215,-112.083C215,-105.006 215,-94.8611 215,-85.9865"/>
<polygon fill="midnightblue" stroke="midnightblue" points="218.5,-85.751 215,-75.7511 211.5,-85.7511 218.5,-85.751"/>
</g>
<!-- Node6 -->
<g id="node12" class="node"><title>Node6</title>
<a xlink:href="owner_8cpp.html" target="_top" xlink:title="Om source file.">
<polygon fill="none" stroke="black" points="289.5,-56.5 289.5,-75.5 366.5,-75.5 366.5,-56.5 289.5,-56.5"/>
<text text-anchor="middle" x="328" y="-63.5" font-family="Helvetica,sans-Serif" font-size="10.00">om/owner.cpp</text>
</a>
</g>
<!-- Node1&#45;&gt;Node6 -->
<g id="edge12" class="edge"><title>Node1&#45;&gt;Node6</title>
<path fill="none" stroke="midnightblue" d="M228.041,-112.324C244.583,-103.507 273.126,-89.7527 295.581,-79.7074"/>
<polygon fill="midnightblue" stroke="midnightblue" points="297.04,-82.8896 304.779,-75.6545 294.217,-76.4839 297.04,-82.8896"/>
</g>
<!-- Node3 -->
<g id="node5" class="node"><title>Node3</title>
<a xlink:href="taker_8cpp.html" target="_top" xlink:title="Om source file.">
<polygon fill="none" stroke="black" points="0.5,-0.5 0.5,-19.5 71.5,-19.5 71.5,-0.5 0.5,-0.5"/>
<text text-anchor="middle" x="36" y="-7.5" font-family="Helvetica,sans-Serif" font-size="10.00">om/taker.cpp</text>
</a>
</g>
<!-- Node2&#45;&gt;Node3 -->
<g id="edge4" class="edge"><title>Node2&#45;&gt;Node3</title>
<path fill="none" stroke="midnightblue" d="M30.8337,-56.083C29.3242,-48.9272 28.8938,-38.6353 29.5425,-29.6911"/>
<polygon fill="midnightblue" stroke="midnightblue" points="33.0154,-30.1262 30.869,-19.7511 26.0769,-29.2002 33.0154,-30.1262"/>
</g>
<!-- Node3&#45;&gt;Node2 -->
<g id="edge6" class="edge"><title>Node3&#45;&gt;Node2</title>
<path fill="none" stroke="midnightblue" d="M41.131,-19.7511C42.6573,-26.8579 43.1044,-37.1357 42.4724,-46.1005"/>
<polygon fill="midnightblue" stroke="midnightblue" points="38.9933,-45.7134 41.1663,-56.083 45.9342,-46.6216 38.9933,-45.7134"/>
</g>
<!-- Node6&#45;&gt;Node1 -->
<g id="edge14" class="edge"><title>Node6&#45;&gt;Node1</title>
<path fill="none" stroke="midnightblue" d="M315.259,-75.5164C298.722,-84.3486 269.867,-98.2553 247.25,-108.368"/>
<polygon fill="midnightblue" stroke="midnightblue" points="245.736,-105.21 237.994,-112.444 248.556,-111.617 245.736,-105.21"/>
</g>
</g>
</svg>
