<?xml version="1.0" encoding="UTF-8" standalone="no"?>
<!DOCTYPE svg PUBLIC "-//W3C//DTD SVG 1.1//EN"
 "http://www.w3.org/Graphics/SVG/1.1/DTD/svg11.dtd">
<!-- Generated by graphviz version 2.30.1 (20130221.2233)
 -->
<!-- Title: code/om/owner.cpp Pages: 1 -->
<svg width="285pt" height="204pt"
 viewBox="0.00 0.00 285.00 204.00" xmlns="http://www.w3.org/2000/svg" xmlns:xlink="http://www.w3.org/1999/xlink">
<g id="graph0" class="graph" transform="scale(1 1) rotate(0) translate(4 200)">
<title>code/om/owner.cpp</title>
<!-- Node1 -->
<g id="node1" class="node"><title>Node1</title>
<polygon fill="#bfbfbf" stroke="black" points="65.6382,-175 65.6382,-195 168.362,-195 168.362,-175 65.6382,-175"/>
<text text-anchor="middle" x="117" y="-181" font-family="Helvetica,sans-Serif" font-size="10.00">code/om/owner.cpp</text>
</g>
<!-- Node2 -->
<g id="node2" class="node"><title>Node2</title>
<g id="a_node2"><a xlink:href="owner_8hpp.html" target="_top" xlink:title="Om header file.">
<polygon fill="none" stroke="black" points="77.5889,-117 77.5889,-137 156.411,-137 156.411,-117 77.5889,-117"/>
<text text-anchor="middle" x="117" y="-123" font-family="Helvetica,sans-Serif" font-size="10.00">om/owner.hpp</text>
</a>
</g>
</g>
<!-- Node1&#45;&gt;Node2 -->
<g id="edge1" class="edge"><title>Node1&#45;&gt;Node2</title>
<path fill="none" stroke="midnightblue" d="M111.834,-174.753C110.308,-167.25 109.884,-156.424 110.564,-147.078"/>
<polygon fill="midnightblue" stroke="midnightblue" points="114.046,-147.444 111.869,-137.075 107.105,-146.538 114.046,-147.444"/>
</g>
<!-- Node3 -->
<g id="node3" class="node"><title>Node3</title>
<g id="a_node3"><a xlink:href="taker_8hpp.html" target="_top" xlink:title="Om header file.">
<polygon fill="none" stroke="black" points="-0.908691,-59 -0.908691,-79 72.9087,-79 72.9087,-59 -0.908691,-59"/>
<text text-anchor="middle" x="36" y="-65" font-family="Helvetica,sans-Serif" font-size="10.00">om/taker.hpp</text>
</a>
</g>
</g>
<!-- Node2&#45;&gt;Node3 -->
<g id="edge2" class="edge"><title>Node2&#45;&gt;Node3</title>
<path fill="none" stroke="midnightblue" d="M103.624,-116.753C91.1216,-108.109 72.2357,-95.0518 57.5972,-84.9314"/>
<polygon fill="midnightblue" stroke="midnightblue" points="59.3426,-81.8831 49.1266,-79.0752 55.3618,-87.641 59.3426,-81.8831"/>
</g>
<!-- Node5 -->
<g id="node5" class="node"><title>Node5</title>
<polygon fill="none" stroke="#bfbfbf" points="90.9434,-59 90.9434,-79 143.057,-79 143.057,-59 90.9434,-59"/>
<text text-anchor="middle" x="117" y="-65" font-family="Helvetica,sans-Serif" font-size="10.00">memory</text>
</g>
<!-- Node2&#45;&gt;Node5 -->
<g id="edge5" class="edge"><title>Node2&#45;&gt;Node5</title>
<path fill="none" stroke="midnightblue" d="M117,-116.753C117,-109.25 117,-98.4238 117,-89.0781"/>
<polygon fill="midnightblue" stroke="midnightblue" points="120.5,-89.0752 117,-79.0752 113.5,-89.0752 120.5,-89.0752"/>
</g>
<!-- Node6 -->
<g id="node6" class="node"><title>Node6</title>
<polygon fill="none" stroke="#bfbfbf" points="160.688,-59 160.688,-79 277.312,-79 277.312,-59 160.688,-59"/>
<text text-anchor="middle" x="219" y="-65" font-family="Helvetica,sans-Serif" font-size="10.00">boost/intrusive_ptr.hpp</text>
</g>
<!-- Node2&#45;&gt;Node6 -->
<g id="edge6" class="edge"><title>Node2&#45;&gt;Node6</title>
<path fill="none" stroke="midnightblue" d="M133.843,-116.753C150.108,-107.823 174.949,-94.1848 193.612,-83.9388"/>
<polygon fill="midnightblue" stroke="midnightblue" points="195.389,-86.9559 202.47,-79.0752 192.02,-80.8198 195.389,-86.9559"/>
</g>
<!-- Node2&#45;&gt;Node1 -->
<g id="edge7" class="edge"><title>Node2&#45;&gt;Node1</title>
<path fill="none" stroke="midnightblue" d="M122.131,-137.075C123.674,-144.526 124.114,-155.338 123.451,-164.707"/>
<polygon fill="midnightblue" stroke="midnightblue" points="119.963,-164.389 122.166,-174.753 126.907,-165.278 119.963,-164.389"/>
</g>
<!-- Node4 -->
<g id="node4" class="node"><title>Node4</title>
<g id="a_node4"><a xlink:href="taker_8cpp.html" target="_top" xlink:title="Om source file.">
<polygon fill="none" stroke="black" points="-0.62793,-1 -0.62793,-21 72.6279,-21 72.6279,-1 -0.62793,-1"/>
<text text-anchor="middle" x="36" y="-7" font-family="Helvetica,sans-Serif" font-size="10.00">om/taker.cpp</text>
</a>
</g>
</g>
<!-- Node3&#45;&gt;Node4 -->
<g id="edge3" class="edge"><title>Node3&#45;&gt;Node4</title>
<path fill="none" stroke="midnightblue" d="M30.8337,-58.7527C29.3076,-51.2504 28.8844,-40.4238 29.5643,-31.0781"/>
<polygon fill="midnightblue" stroke="midnightblue" points="33.0461,-31.4439 30.869,-21.0752 26.1049,-30.5385 33.0461,-31.4439"/>
</g>
<!-- Node4&#45;&gt;Node3 -->
<g id="edge4" class="edge"><title>Node4&#45;&gt;Node3</title>
<path fill="none" stroke="midnightblue" d="M41.131,-21.0752C42.674,-28.5262 43.1141,-39.3384 42.4512,-48.7065"/>
<polygon fill="midnightblue" stroke="midnightblue" points="38.9633,-48.3895 41.1663,-58.7527 45.9067,-49.2776 38.9633,-48.3895"/>
</g>
</g>
</svg>
