<?xml version="1.0" encoding="UTF-8" standalone="no"?>
<!DOCTYPE svg PUBLIC "-//W3C//DTD SVG 1.1//EN"
 "http://www.w3.org/Graphics/SVG/1.1/DTD/svg11.dtd">
<!-- Generated by graphviz version 2.36.0 (20140111.2315)
 -->
<!-- Title: om/language/pair.hpp Pages: 1 -->
<svg width="484pt" height="282pt"
 viewBox="0.00 0.00 484.00 282.00" xmlns="http://www.w3.org/2000/svg" xmlns:xlink="http://www.w3.org/1999/xlink">
<g id="graph0" class="graph" transform="scale(1 1) rotate(0) translate(4 278)">
<title>om/language/pair.hpp</title>
<!-- Node1 -->
<g id="node1" class="node"><title>Node1</title>
<g id="a_node1"><a xlink:title="Om header file.">
<polygon fill="#bfbfbf" stroke="black" points="213.904,-255 213.904,-273 326.096,-273 326.096,-255 213.904,-255"/>
<text text-anchor="middle" x="270" y="-261" font-family="Helvetica,sans-Serif" font-size="10.00">om/language/pair.hpp</text>
</a>
</g>
</g>
<!-- Node2 -->
<g id="node2" class="node"><title>Node2</title>
<g id="a_node2"><a xlink:href="lexicon_8hpp.html" target="_top" xlink:title="Om header file.">
<polygon fill="none" stroke="black" points="69.4043,-199 69.4043,-217 196.596,-217 196.596,-199 69.4043,-199"/>
<text text-anchor="middle" x="133" y="-205" font-family="Helvetica,sans-Serif" font-size="10.00">om/language/lexicon.hpp</text>
</a>
</g>
</g>
<!-- Node1&#45;&gt;Node2 -->
<g id="edge1" class="edge"><title>Node1&#45;&gt;Node2</title>
<path fill="none" stroke="midnightblue" d="M240.061,-251.199C213.901,-240.888 176.611,-226.19 153.65,-217.14"/>
<polygon fill="midnightblue" stroke="midnightblue" points="238.903,-254.505 249.49,-254.916 241.47,-247.992 238.903,-254.505"/>
</g>
<!-- Node10 -->
<g id="node10" class="node"><title>Node10</title>
<g id="a_node10"><a xlink:href="pair_8cpp.html" target="_top" xlink:title="Om source file.">
<polygon fill="none" stroke="black" points="214.185,-199 214.185,-217 325.815,-217 325.815,-199 214.185,-199"/>
<text text-anchor="middle" x="270" y="-205" font-family="Helvetica,sans-Serif" font-size="10.00">om/language/pair.cpp</text>
</a>
</g>
</g>
<!-- Node1&#45;&gt;Node10 -->
<g id="edge12" class="edge"><title>Node1&#45;&gt;Node10</title>
<path fill="none" stroke="midnightblue" d="M263.567,-244.633C262.861,-235.313 263.335,-224.459 264.991,-217.201"/>
<polygon fill="midnightblue" stroke="midnightblue" points="260.103,-245.135 264.938,-254.562 267.037,-244.178 260.103,-245.135"/>
</g>
<!-- Node3 -->
<g id="node3" class="node"><title>Node3</title>
<g id="a_node3"><a xlink:href="lexicon_8cpp.html" target="_top" xlink:title="Om source file.">
<polygon fill="none" stroke="black" points="-0.314941,-138 -0.314941,-156 126.315,-156 126.315,-138 -0.314941,-138"/>
<text text-anchor="middle" x="63" y="-144" font-family="Helvetica,sans-Serif" font-size="10.00">om/language/lexicon.cpp</text>
</a>
</g>
</g>
<!-- Node2&#45;&gt;Node3 -->
<g id="edge2" class="edge"><title>Node2&#45;&gt;Node3</title>
<path fill="none" stroke="midnightblue" d="M110.035,-192.61C95.0118,-181.151 76.828,-165.526 67.8214,-156.134"/>
<polygon fill="midnightblue" stroke="midnightblue" points="108.297,-195.677 118.422,-198.796 112.452,-190.043 108.297,-195.677"/>
</g>
<!-- Node4 -->
<g id="node4" class="node"><title>Node4</title>
<g id="a_node4"><a xlink:href="lexicon__operation_8hpp.html" target="_top" xlink:title="Om header file.">
<polygon fill="none" stroke="black" points="143.85,-133 143.85,-161 262.15,-161 262.15,-133 143.85,-133"/>
<text text-anchor="start" x="151.85" y="-149" font-family="Helvetica,sans-Serif" font-size="10.00">om/language/operation</text>
<text text-anchor="middle" x="203" y="-139" font-family="Helvetica,sans-Serif" font-size="10.00">/lexicon_operation.hpp</text>
</a>
</g>
</g>
<!-- Node2&#45;&gt;Node4 -->
<g id="edge4" class="edge"><title>Node2&#45;&gt;Node4</title>
<path fill="none" stroke="midnightblue" d="M150.646,-192.127C161.97,-182.582 176.539,-170.303 187.432,-161.121"/>
<polygon fill="midnightblue" stroke="midnightblue" points="148.124,-189.675 142.733,-198.796 152.635,-195.028 148.124,-189.675"/>
</g>
<!-- Node6 -->
<g id="node6" class="node"><title>Node6</title>
<g id="a_node6"><a xlink:href="translate__operation_8hpp.html" target="_top" xlink:title="Om header file.">
<polygon fill="none" stroke="black" points="281.072,-133 281.072,-161 404.928,-161 404.928,-133 281.072,-133"/>
<text text-anchor="start" x="289.072" y="-149" font-family="Helvetica,sans-Serif" font-size="10.00">om/language/operation</text>
<text text-anchor="middle" x="343" y="-139" font-family="Helvetica,sans-Serif" font-size="10.00">/translate_operation.hpp</text>
</a>
</g>
</g>
<!-- Node2&#45;&gt;Node6 -->
<g id="edge6" class="edge"><title>Node2&#45;&gt;Node6</title>
<path fill="none" stroke="midnightblue" d="M171.669,-196.136C206.898,-186.238 258.998,-171.601 296.489,-161.067"/>
<polygon fill="midnightblue" stroke="midnightblue" points="170.44,-192.846 161.759,-198.92 172.333,-199.585 170.44,-192.846"/>
</g>
<!-- Node3&#45;&gt;Node2 -->
<g id="edge3" class="edge"><title>Node3&#45;&gt;Node2</title>
<path fill="none" stroke="midnightblue" d="M85.8539,-162.306C100.861,-173.744 119.06,-189.374 128.112,-198.796"/>
<polygon fill="midnightblue" stroke="midnightblue" points="87.6062,-159.249 77.4797,-156.134 83.4533,-164.884 87.6062,-159.249"/>
</g>
<!-- Node5 -->
<g id="node5" class="node"><title>Node5</title>
<g id="a_node5"><a xlink:href="lexicon__operation_8cpp.html" target="_top" xlink:title="Om source file.">
<polygon fill="none" stroke="black" points="70.8501,-67 70.8501,-95 189.15,-95 189.15,-67 70.8501,-67"/>
<text text-anchor="start" x="78.8501" y="-83" font-family="Helvetica,sans-Serif" font-size="10.00">om/language/operation</text>
<text text-anchor="middle" x="130" y="-73" font-family="Helvetica,sans-Serif" font-size="10.00">/lexicon_operation.cpp</text>
</a>
</g>
</g>
<!-- Node4&#45;&gt;Node5 -->
<g id="edge5" class="edge"><title>Node4&#45;&gt;Node5</title>
<path fill="none" stroke="midnightblue" d="M180.295,-126.095C168.749,-115.972 155.042,-103.955 144.857,-95.0249"/>
<polygon fill="midnightblue" stroke="midnightblue" points="178.048,-128.779 187.874,-132.739 182.662,-123.515 178.048,-128.779"/>
</g>
<!-- Node7 -->
<g id="node7" class="node"><title>Node7</title>
<g id="a_node7"><a xlink:href="substitute__operation_8hpp.html" target="_top" xlink:title="Om header file.">
<polygon fill="none" stroke="black" points="206.848,-67 206.848,-95 335.152,-95 335.152,-67 206.848,-67"/>
<text text-anchor="start" x="214.848" y="-83" font-family="Helvetica,sans-Serif" font-size="10.00">om/language/operation</text>
<text text-anchor="middle" x="271" y="-73" font-family="Helvetica,sans-Serif" font-size="10.00">/substitute_operation.hpp</text>
</a>
</g>
</g>
<!-- Node6&#45;&gt;Node7 -->
<g id="edge7" class="edge"><title>Node6&#45;&gt;Node7</title>
<path fill="none" stroke="midnightblue" d="M320.332,-125.851C309.094,-115.862 295.839,-104.079 285.899,-95.2439"/>
<polygon fill="midnightblue" stroke="midnightblue" points="318.282,-128.711 328.082,-132.739 322.933,-123.48 318.282,-128.711"/>
</g>
<!-- Node9 -->
<g id="node9" class="node"><title>Node9</title>
<g id="a_node9"><a xlink:href="translate__operation_8cpp.html" target="_top" xlink:title="Om source file.">
<polygon fill="none" stroke="black" points="353.353,-67 353.353,-95 476.647,-95 476.647,-67 353.353,-67"/>
<text text-anchor="start" x="361.353" y="-83" font-family="Helvetica,sans-Serif" font-size="10.00">om/language/operation</text>
<text text-anchor="middle" x="415" y="-73" font-family="Helvetica,sans-Serif" font-size="10.00">/translate_operation.cpp</text>
</a>
</g>
</g>
<!-- Node6&#45;&gt;Node9 -->
<g id="edge10" class="edge"><title>Node6&#45;&gt;Node9</title>
<path fill="none" stroke="midnightblue" d="M359.707,-125.508C370.223,-115.51 383.678,-103.783 394.788,-95.0249"/>
<polygon fill="midnightblue" stroke="midnightblue" points="357.02,-123.241 352.326,-132.739 361.919,-128.242 357.02,-123.241"/>
</g>
<!-- Node8 -->
<g id="node8" class="node"><title>Node8</title>
<g id="a_node8"><a xlink:href="substitute__operation_8cpp.html" target="_top" xlink:title="Om source file.">
<polygon fill="none" stroke="black" points="207.128,-1 207.128,-29 334.872,-29 334.872,-1 207.128,-1"/>
<text text-anchor="start" x="215.128" y="-17" font-family="Helvetica,sans-Serif" font-size="10.00">om/language/operation</text>
<text text-anchor="middle" x="271" y="-7" font-family="Helvetica,sans-Serif" font-size="10.00">/substitute_operation.cpp</text>
</a>
</g>
</g>
<!-- Node7&#45;&gt;Node8 -->
<g id="edge8" class="edge"><title>Node7&#45;&gt;Node8</title>
<path fill="none" stroke="midnightblue" d="M264.471,-56.5946C263.986,-47.3785 264.299,-37.1352 265.41,-29.2439"/>
<polygon fill="midnightblue" stroke="midnightblue" points="261.003,-57.1031 265.407,-66.7392 267.974,-56.4598 261.003,-57.1031"/>
</g>
<!-- Node8&#45;&gt;Node7 -->
<g id="edge9" class="edge"><title>Node8&#45;&gt;Node7</title>
<path fill="none" stroke="midnightblue" d="M277.528,-39.3855C278.014,-48.6002 277.702,-58.8444 276.593,-66.7392"/>
<polygon fill="midnightblue" stroke="midnightblue" points="280.996,-38.8792 276.59,-29.2439 274.026,-39.5236 280.996,-38.8792"/>
</g>
<!-- Node9&#45;&gt;Node6 -->
<g id="edge11" class="edge"><title>Node9&#45;&gt;Node6</title>
<path fill="none" stroke="midnightblue" d="M398.367,-102.422C387.934,-112.345 374.588,-123.986 363.511,-132.739"/>
<polygon fill="midnightblue" stroke="midnightblue" points="400.998,-104.743 405.691,-95.2439 396.099,-99.7433 400.998,-104.743"/>
</g>
<!-- Node10&#45;&gt;Node1 -->
<g id="edge13" class="edge"><title>Node10&#45;&gt;Node1</title>
<path fill="none" stroke="midnightblue" d="M276.434,-227.369C277.132,-236.588 276.675,-247.308 275.062,-254.562"/>
<polygon fill="midnightblue" stroke="midnightblue" points="279.863,-226.619 275.009,-217.201 272.931,-227.59 279.863,-226.619"/>
</g>
</g>
</svg>
