<?xml version="1.0" encoding="UTF-8" standalone="no"?>
<!DOCTYPE svg PUBLIC "-//W3C//DTD SVG 1.1//EN"
 "http://www.w3.org/Graphics/SVG/1.1/DTD/svg11.dtd">
<!-- Generated by graphviz version 2.30.1 (20130221.2233)
 -->
<!-- Title: code/om/pair.hpp Pages: 1 -->
<svg width="463pt" height="298pt"
 viewBox="0.00 0.00 463.00 298.00" xmlns="http://www.w3.org/2000/svg" xmlns:xlink="http://www.w3.org/1999/xlink">
<g id="graph0" class="graph" transform="scale(1 1) rotate(0) translate(4 294)">
<title>code/om/pair.hpp</title>
<!-- Node1 -->
<g id="node1" class="node"><title>Node1</title>
<polygon fill="#bfbfbf" stroke="black" points="189.638,-269 189.638,-289 282.362,-289 282.362,-269 189.638,-269"/>
<text text-anchor="middle" x="236" y="-275" font-family="Helvetica,sans-Serif" font-size="10.00">code/om/pair.hpp</text>
</g>
<!-- Node2 -->
<g id="node2" class="node"><title>Node2</title>
<g id="a_node2"><a xlink:href="lexicon_8hpp.html" target="_top" xlink:title="Om header file.">
<polygon fill="none" stroke="black" points="64.1382,-211 64.1382,-231 171.862,-231 171.862,-211 64.1382,-211"/>
<text text-anchor="middle" x="118" y="-217" font-family="Helvetica,sans-Serif" font-size="10.00">code/om/lexicon.hpp</text>
</a>
</g>
</g>
<!-- Node1&#45;&gt;Node2 -->
<g id="edge1" class="edge"><title>Node1&#45;&gt;Node2</title>
<path fill="none" stroke="midnightblue" d="M207.667,-264.554C185.865,-254.207 156.324,-240.188 137.213,-231.118"/>
<polygon fill="midnightblue" stroke="midnightblue" points="206.244,-267.752 216.779,-268.878 209.245,-261.429 206.244,-267.752"/>
</g>
<!-- Node10 -->
<g id="node10" class="node"><title>Node10</title>
<g id="a_node10"><a xlink:href="pair_8cpp.html" target="_top" xlink:title="Om source file.">
<polygon fill="none" stroke="black" points="189.919,-211 189.919,-231 282.081,-231 282.081,-211 189.919,-211"/>
<text text-anchor="middle" x="236" y="-217" font-family="Helvetica,sans-Serif" font-size="10.00">code/om/pair.cpp</text>
</a>
</g>
</g>
<!-- Node1&#45;&gt;Node10 -->
<g id="edge12" class="edge"><title>Node1&#45;&gt;Node10</title>
<path fill="none" stroke="midnightblue" d="M229.549,-258.707C228.886,-249.338 229.326,-238.526 230.869,-231.075"/>
<polygon fill="midnightblue" stroke="midnightblue" points="226.093,-259.278 230.834,-268.753 233.037,-258.389 226.093,-259.278"/>
</g>
<!-- Node3 -->
<g id="node3" class="node"><title>Node3</title>
<g id="a_node3"><a xlink:href="lexicon_8cpp.html" target="_top" xlink:title="Om source file.">
<polygon fill="none" stroke="black" points="-0.581055,-147 -0.581055,-167 106.581,-167 106.581,-147 -0.581055,-147"/>
<text text-anchor="middle" x="53" y="-153" font-family="Helvetica,sans-Serif" font-size="10.00">code/om/lexicon.cpp</text>
</a>
</g>
</g>
<!-- Node2&#45;&gt;Node3 -->
<g id="edge2" class="edge"><title>Node2&#45;&gt;Node3</title>
<path fill="none" stroke="midnightblue" d="M95.3983,-204.142C81.8248,-192.435 65.8849,-176.908 57.6673,-167.186"/>
<polygon fill="midnightblue" stroke="midnightblue" points="93.5299,-207.141 103.454,-210.852 98.0101,-201.762 93.5299,-207.141"/>
</g>
<!-- Node4 -->
<g id="node4" class="node"><title>Node4</title>
<g id="a_node4"><a xlink:href="lexicon__operation_8hpp.html" target="_top" xlink:title="Om header file.">
<polygon fill="none" stroke="black" points="124.685,-141 124.685,-173 241.315,-173 241.315,-141 124.685,-141"/>
<text text-anchor="start" x="132.685" y="-159" font-family="Helvetica,sans-Serif" font-size="10.00">code/om/operations</text>
<text text-anchor="middle" x="183" y="-147" font-family="Helvetica,sans-Serif" font-size="10.00">/lexicon_operation.hpp</text>
</a>
</g>
</g>
<!-- Node2&#45;&gt;Node4 -->
<g id="edge4" class="edge"><title>Node2&#45;&gt;Node4</title>
<path fill="none" stroke="midnightblue" d="M134.908,-203.873C144.837,-194.402 157.31,-182.504 167.065,-173.199"/>
<polygon fill="midnightblue" stroke="midnightblue" points="132.411,-201.417 127.591,-210.852 137.243,-206.482 132.411,-201.417"/>
</g>
<!-- Node6 -->
<g id="node6" class="node"><title>Node6</title>
<g id="a_node6"><a xlink:href="translate__operation_8hpp.html" target="_top" xlink:title="Om header file.">
<polygon fill="none" stroke="black" points="260.072,-141 260.072,-173 383.928,-173 383.928,-141 260.072,-141"/>
<text text-anchor="start" x="268.072" y="-159" font-family="Helvetica,sans-Serif" font-size="10.00">code/om/operations</text>
<text text-anchor="middle" x="322" y="-147" font-family="Helvetica,sans-Serif" font-size="10.00">/translate_operation.hpp</text>
</a>
</g>
</g>
<!-- Node2&#45;&gt;Node6 -->
<g id="edge6" class="edge"><title>Node2&#45;&gt;Node6</title>
<path fill="none" stroke="midnightblue" d="M157.374,-208.034C190.216,-198.052 237.189,-183.776 272.56,-173.026"/>
<polygon fill="midnightblue" stroke="midnightblue" points="156.213,-204.728 147.663,-210.985 158.249,-211.425 156.213,-204.728"/>
</g>
<!-- Node3&#45;&gt;Node2 -->
<g id="edge3" class="edge"><title>Node3&#45;&gt;Node2</title>
<path fill="none" stroke="midnightblue" d="M75.6542,-173.903C89.2337,-185.62 105.167,-201.144 113.364,-210.852"/>
<polygon fill="midnightblue" stroke="midnightblue" points="77.5162,-170.899 67.5933,-167.186 73.0348,-176.277 77.5162,-170.899"/>
</g>
<!-- Node5 -->
<g id="node5" class="node"><title>Node5</title>
<g id="a_node5"><a xlink:href="lexicon__operation_8cpp.html" target="_top" xlink:title="Om source file.">
<polygon fill="none" stroke="black" points="51.9658,-71 51.9658,-103 168.034,-103 168.034,-71 51.9658,-71"/>
<text text-anchor="start" x="59.9658" y="-89" font-family="Helvetica,sans-Serif" font-size="10.00">code/om/operations</text>
<text text-anchor="middle" x="110" y="-77" font-family="Helvetica,sans-Serif" font-size="10.00">/lexicon_operation.cpp</text>
</a>
</g>
</g>
<!-- Node4&#45;&gt;Node5 -->
<g id="edge5" class="edge"><title>Node4&#45;&gt;Node5</title>
<path fill="none" stroke="midnightblue" d="M159.277,-133.901C148.439,-123.806 135.882,-112.109 126.156,-103.049"/>
<polygon fill="midnightblue" stroke="midnightblue" points="157.096,-136.654 166.799,-140.909 161.867,-131.531 157.096,-136.654"/>
</g>
<!-- Node7 -->
<g id="node7" class="node"><title>Node7</title>
<g id="a_node7"><a xlink:href="substitute__operation_8hpp.html" target="_top" xlink:title="Om header file.">
<polygon fill="none" stroke="black" points="185.848,-71 185.848,-103 314.152,-103 314.152,-71 185.848,-71"/>
<text text-anchor="start" x="193.848" y="-89" font-family="Helvetica,sans-Serif" font-size="10.00">code/om/operations</text>
<text text-anchor="middle" x="250" y="-77" font-family="Helvetica,sans-Serif" font-size="10.00">/substitute_operation.hpp</text>
</a>
</g>
</g>
<!-- Node6&#45;&gt;Node7 -->
<g id="edge7" class="edge"><title>Node6&#45;&gt;Node7</title>
<path fill="none" stroke="midnightblue" d="M298.602,-133.901C287.912,-123.806 275.527,-112.109 265.934,-103.049"/>
<polygon fill="midnightblue" stroke="midnightblue" points="296.348,-136.587 306.021,-140.909 301.154,-131.498 296.348,-136.587"/>
</g>
<!-- Node9 -->
<g id="node9" class="node"><title>Node9</title>
<g id="a_node9"><a xlink:href="translate__operation_8cpp.html" target="_top" xlink:title="Om source file.">
<polygon fill="none" stroke="black" points="332.353,-71 332.353,-103 455.647,-103 455.647,-71 332.353,-71"/>
<text text-anchor="start" x="340.353" y="-89" font-family="Helvetica,sans-Serif" font-size="10.00">code/om/operations</text>
<text text-anchor="middle" x="394" y="-77" font-family="Helvetica,sans-Serif" font-size="10.00">/translate_operation.cpp</text>
</a>
</g>
</g>
<!-- Node6&#45;&gt;Node9 -->
<g id="edge10" class="edge"><title>Node6&#45;&gt;Node9</title>
<path fill="none" stroke="midnightblue" d="M339.323,-133.607C349.29,-123.579 361.753,-112.021 372.351,-103.049"/>
<polygon fill="midnightblue" stroke="midnightblue" points="336.697,-131.288 332.259,-140.909 341.728,-136.155 336.697,-131.288"/>
</g>
<!-- Node8 -->
<g id="node8" class="node"><title>Node8</title>
<g id="a_node8"><a xlink:href="substitute__operation_8cpp.html" target="_top" xlink:title="Om source file.">
<polygon fill="none" stroke="black" points="186.128,-1 186.128,-33 313.872,-33 313.872,-1 186.128,-1"/>
<text text-anchor="start" x="194.128" y="-19" font-family="Helvetica,sans-Serif" font-size="10.00">code/om/operations</text>
<text text-anchor="middle" x="250" y="-7" font-family="Helvetica,sans-Serif" font-size="10.00">/substitute_operation.cpp</text>
</a>
</g>
</g>
<!-- Node7&#45;&gt;Node8 -->
<g id="edge8" class="edge"><title>Node7&#45;&gt;Node8</title>
<path fill="none" stroke="midnightblue" d="M243.461,-60.9196C243.009,-51.5597 243.284,-41.2293 244.285,-33.0492"/>
<polygon fill="midnightblue" stroke="midnightblue" points="239.974,-61.2281 244.28,-70.9086 246.951,-60.656 239.974,-61.2281"/>
</g>
<!-- Node8&#45;&gt;Node7 -->
<g id="edge9" class="edge"><title>Node8&#45;&gt;Node7</title>
<path fill="none" stroke="midnightblue" d="M256.537,-43.0321C256.991,-52.3887 256.719,-62.7211 255.72,-70.9086"/>
<polygon fill="midnightblue" stroke="midnightblue" points="260.024,-42.7283 255.715,-33.0492 253.047,-43.3027 260.024,-42.7283"/>
</g>
<!-- Node9&#45;&gt;Node6 -->
<g id="edge11" class="edge"><title>Node9&#45;&gt;Node6</title>
<path fill="none" stroke="midnightblue" d="M376.724,-110.346C366.764,-120.369 354.303,-131.929 343.699,-140.909"/>
<polygon fill="midnightblue" stroke="midnightblue" points="379.345,-112.671 383.78,-103.049 374.313,-107.805 379.345,-112.671"/>
</g>
<!-- Node10&#45;&gt;Node1 -->
<g id="edge13" class="edge"><title>Node10&#45;&gt;Node1</title>
<path fill="none" stroke="midnightblue" d="M242.436,-241.078C243.116,-250.424 242.692,-261.25 241.166,-268.753"/>
<polygon fill="midnightblue" stroke="midnightblue" points="245.895,-240.538 241.131,-231.075 238.954,-241.444 245.895,-240.538"/>
</g>
</g>
</svg>
