<?xml version="1.0" encoding="UTF-8" standalone="no"?>
<!DOCTYPE svg PUBLIC "-//W3C//DTD SVG 1.1//EN"
 "http://www.w3.org/Graphics/SVG/1.1/DTD/svg11.dtd">
<!-- Generated by graphviz version 2.30.1 (20130221.2233)
 -->
<!-- Title: code/om/pair.cpp Pages: 1 -->
<svg width="641pt" height="472pt"
 viewBox="0.00 0.00 641.00 472.00" xmlns="http://www.w3.org/2000/svg" xmlns:xlink="http://www.w3.org/1999/xlink">
<g id="graph0" class="graph" transform="scale(1 1) rotate(0) translate(4 468)">
<title>code/om/pair.cpp</title>
<!-- Node1 -->
<g id="node1" class="node"><title>Node1</title>
<polygon fill="#bfbfbf" stroke="black" points="76.9189,-443 76.9189,-463 169.081,-463 169.081,-443 76.9189,-443"/>
<text text-anchor="middle" x="123" y="-449" font-family="Helvetica,sans-Serif" font-size="10.00">code/om/pair.cpp</text>
</g>
<!-- Node2 -->
<g id="node2" class="node"><title>Node2</title>
<g id="a_node2"><a xlink:href="pair_8hpp.html" target="_top" xlink:title="Om header file.">
<polygon fill="none" stroke="black" points="76.6382,-385 76.6382,-405 169.362,-405 169.362,-385 76.6382,-385"/>
<text text-anchor="middle" x="123" y="-391" font-family="Helvetica,sans-Serif" font-size="10.00">code/om/pair.hpp</text>
</a>
</g>
</g>
<!-- Node1&#45;&gt;Node2 -->
<g id="edge1" class="edge"><title>Node1&#45;&gt;Node2</title>
<path fill="none" stroke="midnightblue" d="M116.549,-432.707C115.886,-423.338 116.326,-412.526 117.869,-405.075"/>
<polygon fill="midnightblue" stroke="midnightblue" points="113.093,-433.278 117.834,-442.753 120.037,-432.389 113.093,-433.278"/>
</g>
<!-- Node3 -->
<g id="node3" class="node"><title>Node3</title>
<g id="a_node3"><a xlink:href="internal_8hpp.html" target="_top" xlink:title="code/om/internal.hpp">
<polygon fill="none" stroke="black" points="108.303,-123 108.303,-143 217.697,-143 217.697,-123 108.303,-123"/>
<text text-anchor="middle" x="163" y="-129" font-family="Helvetica,sans-Serif" font-size="10.00">code/om/internal.hpp</text>
</a>
</g>
</g>
<!-- Node2&#45;&gt;Node3 -->
<g id="edge2" class="edge"><title>Node2&#45;&gt;Node3</title>
<path fill="none" stroke="midnightblue" d="M116.769,-375.026C105.46,-337.144 85.2545,-250.265 114,-186 122.002,-168.109 138.792,-152.495 150.474,-143.161"/>
<polygon fill="midnightblue" stroke="midnightblue" points="113.481,-376.24 119.802,-384.743 120.163,-374.154 113.481,-376.24"/>
</g>
<!-- Node7 -->
<g id="node7" class="node"><title>Node7</title>
<g id="a_node7"><a xlink:href="lexicon_8hpp.html" target="_top" xlink:title="Om header file.">
<polygon fill="none" stroke="black" points="129.138,-327 129.138,-347 236.862,-347 236.862,-327 129.138,-327"/>
<text text-anchor="middle" x="183" y="-333" font-family="Helvetica,sans-Serif" font-size="10.00">code/om/lexicon.hpp</text>
</a>
</g>
</g>
<!-- Node2&#45;&gt;Node7 -->
<g id="edge8" class="edge"><title>Node2&#45;&gt;Node7</title>
<path fill="none" stroke="midnightblue" d="M140.46,-377.704C151.148,-367.729 164.426,-355.336 173.277,-347.075"/>
<polygon fill="midnightblue" stroke="midnightblue" points="137.83,-375.371 132.908,-384.753 142.606,-380.488 137.83,-375.371"/>
</g>
<!-- Node2&#45;&gt;Node1 -->
<g id="edge23" class="edge"><title>Node2&#45;&gt;Node1</title>
<path fill="none" stroke="midnightblue" d="M129.436,-415.078C130.116,-424.424 129.692,-435.25 128.166,-442.753"/>
<polygon fill="midnightblue" stroke="midnightblue" points="132.895,-414.538 128.131,-405.075 125.954,-415.444 132.895,-414.538"/>
</g>
<!-- Node4 -->
<g id="node4" class="node"><title>Node4</title>
<g id="a_node4"><a xlink:href="internal_8cpp.html" target="_top" xlink:title="code/om/internal.cpp">
<polygon fill="none" stroke="black" points="-0.416016,-59 -0.416016,-79 108.416,-79 108.416,-59 -0.416016,-59"/>
<text text-anchor="middle" x="54" y="-65" font-family="Helvetica,sans-Serif" font-size="10.00">code/om/internal.cpp</text>
</a>
</g>
</g>
<!-- Node3&#45;&gt;Node4 -->
<g id="edge3" class="edge"><title>Node3&#45;&gt;Node4</title>
<path fill="none" stroke="midnightblue" d="M137.986,-117.772C117.136,-105.912 88.0481,-89.3668 70.1493,-79.1858"/>
<polygon fill="midnightblue" stroke="midnightblue" points="136.494,-120.95 146.917,-122.852 139.955,-114.865 136.494,-120.95"/>
</g>
<!-- Node3&#45;&gt;Node3 -->
<g id="edge4" class="edge"><title>Node3&#45;&gt;Node3</title>
<path fill="none" stroke="midnightblue" d="M198.83,-144.532C217.792,-146.424 235,-142.58 235,-133 235,-121.75 211.27,-118.41 188.837,-122.98"/>
<polygon fill="midnightblue" stroke="midnightblue" points="199.248,-141.055 188.837,-143.02 198.201,-147.977 199.248,-141.055"/>
</g>
<!-- Node5 -->
<g id="node5" class="node"><title>Node5</title>
<g id="a_node5"><a xlink:href="om_8hpp.html" target="_top" xlink:title="Om &quot;umbrella&quot; header file.">
<polygon fill="none" stroke="black" points="126.091,-59 126.091,-79 199.909,-79 199.909,-59 126.091,-59"/>
<text text-anchor="middle" x="163" y="-65" font-family="Helvetica,sans-Serif" font-size="10.00">code/om.hpp</text>
</a>
</g>
</g>
<!-- Node3&#45;&gt;Node5 -->
<g id="edge5" class="edge"><title>Node3&#45;&gt;Node5</title>
<path fill="none" stroke="midnightblue" d="M156.7,-112.735C155.802,-101.557 156.248,-87.991 158.037,-79.1858"/>
<polygon fill="midnightblue" stroke="midnightblue" points="153.257,-113.4 158.045,-122.852 160.196,-112.478 153.257,-113.4"/>
</g>
<!-- Node5&#45;&gt;Node3 -->
<g id="edge6" class="edge"><title>Node5&#45;&gt;Node3</title>
<path fill="none" stroke="midnightblue" d="M169.304,-89.3131C170.198,-100.498 169.748,-114.06 167.955,-122.852"/>
<polygon fill="midnightblue" stroke="midnightblue" points="172.746,-88.6398 167.963,-79.1858 165.806,-89.5588 172.746,-88.6398"/>
</g>
<!-- Node6 -->
<g id="node6" class="node"><title>Node6</title>
<g id="a_node6"><a xlink:href="om_8cpp.html" target="_top" xlink:title="Om source file.">
<polygon fill="none" stroke="black" points="126.372,-1 126.372,-21 199.628,-21 199.628,-1 126.372,-1"/>
<text text-anchor="middle" x="163" y="-7" font-family="Helvetica,sans-Serif" font-size="10.00">code/om.cpp</text>
</a>
</g>
</g>
<!-- Node5&#45;&gt;Node6 -->
<g id="edge7" class="edge"><title>Node5&#45;&gt;Node6</title>
<path fill="none" stroke="midnightblue" d="M163,-48.7065C163,-39.3384 163,-28.5262 163,-21.0752"/>
<polygon fill="midnightblue" stroke="midnightblue" points="159.5,-48.7527 163,-58.7527 166.5,-48.7528 159.5,-48.7527"/>
</g>
<!-- Node7&#45;&gt;Node3 -->
<g id="edge9" class="edge"><title>Node7&#45;&gt;Node3</title>
<path fill="none" stroke="midnightblue" d="M152.895,-321.999C140.313,-314.441 127.009,-303.796 120,-290 93.6602,-238.154 138.031,-168.156 155.982,-143.26"/>
<polygon fill="midnightblue" stroke="midnightblue" points="151.387,-325.165 161.829,-326.958 154.784,-319.045 151.387,-325.165"/>
</g>
<!-- Node8 -->
<g id="node8" class="node"><title>Node8</title>
<g id="a_node8"><a xlink:href="lexicon_8cpp.html" target="_top" xlink:title="Om source file.">
<polygon fill="none" stroke="black" points="129.419,-263 129.419,-283 236.581,-283 236.581,-263 129.419,-263"/>
<text text-anchor="middle" x="183" y="-269" font-family="Helvetica,sans-Serif" font-size="10.00">code/om/lexicon.cpp</text>
</a>
</g>
</g>
<!-- Node7&#45;&gt;Node8 -->
<g id="edge10" class="edge"><title>Node7&#45;&gt;Node8</title>
<path fill="none" stroke="midnightblue" d="M176.7,-316.735C175.802,-305.557 176.248,-291.991 178.037,-283.186"/>
<polygon fill="midnightblue" stroke="midnightblue" points="173.257,-317.4 178.045,-326.852 180.196,-316.478 173.257,-317.4"/>
</g>
<!-- Node9 -->
<g id="node9" class="node"><title>Node9</title>
<g id="a_node9"><a xlink:href="lexicon__operation_8hpp.html" target="_top" xlink:title="Om header file.">
<polygon fill="none" stroke="black" points="254.685,-257 254.685,-289 371.315,-289 371.315,-257 254.685,-257"/>
<text text-anchor="start" x="262.685" y="-275" font-family="Helvetica,sans-Serif" font-size="10.00">code/om/operations</text>
<text text-anchor="middle" x="313" y="-263" font-family="Helvetica,sans-Serif" font-size="10.00">/lexicon_operation.hpp</text>
</a>
</g>
</g>
<!-- Node7&#45;&gt;Node9 -->
<g id="edge12" class="edge"><title>Node7&#45;&gt;Node9</title>
<path fill="none" stroke="midnightblue" d="M211.127,-322.586C231.842,-312.706 260.023,-299.266 281.494,-289.026"/>
<polygon fill="midnightblue" stroke="midnightblue" points="209.422,-319.521 201.903,-326.985 212.436,-325.839 209.422,-319.521"/>
</g>
<!-- Node11 -->
<g id="node11" class="node"><title>Node11</title>
<g id="a_node11"><a xlink:href="translate__operation_8hpp.html" target="_top" xlink:title="Om header file.">
<polygon fill="none" stroke="black" points="389.072,-257 389.072,-289 512.928,-289 512.928,-257 389.072,-257"/>
<text text-anchor="start" x="397.072" y="-275" font-family="Helvetica,sans-Serif" font-size="10.00">code/om/operations</text>
<text text-anchor="middle" x="451" y="-263" font-family="Helvetica,sans-Serif" font-size="10.00">/translate_operation.hpp</text>
</a>
</g>
</g>
<!-- Node7&#45;&gt;Node11 -->
<g id="edge15" class="edge"><title>Node7&#45;&gt;Node11</title>
<path fill="none" stroke="midnightblue" d="M231.877,-324.693C275.989,-314.488 341.102,-299.424 388.889,-288.369"/>
<polygon fill="midnightblue" stroke="midnightblue" points="230.923,-321.321 221.97,-326.985 232.501,-328.141 230.923,-321.321"/>
</g>
<!-- Node8&#45;&gt;Node7 -->
<g id="edge11" class="edge"><title>Node8&#45;&gt;Node7</title>
<path fill="none" stroke="midnightblue" d="M189.304,-293.313C190.198,-304.498 189.748,-318.06 187.955,-326.852"/>
<polygon fill="midnightblue" stroke="midnightblue" points="192.746,-292.64 187.963,-283.186 185.806,-293.559 192.746,-292.64"/>
</g>
<!-- Node9&#45;&gt;Node3 -->
<g id="edge13" class="edge"><title>Node9&#45;&gt;Node3</title>
<path fill="none" stroke="midnightblue" d="M251.304,-253.669C222.196,-243.838 191.725,-231.426 182,-220 162.971,-197.644 161.798,-160.447 162.401,-143.246"/>
<polygon fill="midnightblue" stroke="midnightblue" points="250.498,-257.089 261.091,-256.899 252.692,-250.441 250.498,-257.089"/>
</g>
<!-- Node10 -->
<g id="node10" class="node"><title>Node10</title>
<g id="a_node10"><a xlink:href="lexicon__operation_8cpp.html" target="_top" xlink:title="Om source file.">
<polygon fill="none" stroke="black" points="190.966,-187 190.966,-219 307.034,-219 307.034,-187 190.966,-187"/>
<text text-anchor="start" x="198.966" y="-205" font-family="Helvetica,sans-Serif" font-size="10.00">code/om/operations</text>
<text text-anchor="middle" x="249" y="-193" font-family="Helvetica,sans-Serif" font-size="10.00">/lexicon_operation.cpp</text>
</a>
</g>
</g>
<!-- Node9&#45;&gt;Node10 -->
<g id="edge14" class="edge"><title>Node9&#45;&gt;Node10</title>
<path fill="none" stroke="midnightblue" d="M291.924,-249.607C282.486,-239.579 271.608,-228.021 263.164,-219.049"/>
<polygon fill="midnightblue" stroke="midnightblue" points="289.394,-252.025 298.796,-256.909 294.491,-247.228 289.394,-252.025"/>
</g>
<!-- Node11&#45;&gt;Node3 -->
<g id="edge16" class="edge"><title>Node11&#45;&gt;Node3</title>
<path fill="none" stroke="midnightblue" d="M409.472,-252.489C391.806,-243.499 371.326,-232.135 354,-220 335.438,-206.999 335.567,-197.432 316,-186 280.513,-165.266 235.536,-151.234 203.553,-143.023"/>
<polygon fill="midnightblue" stroke="midnightblue" points="407.913,-255.623 418.423,-256.966 411.045,-249.362 407.913,-255.623"/>
</g>
<!-- Node12 -->
<g id="node12" class="node"><title>Node12</title>
<g id="a_node12"><a xlink:href="substitute__operation_8hpp.html" target="_top" xlink:title="Om header file.">
<polygon fill="none" stroke="black" points="362.848,-187 362.848,-219 491.152,-219 491.152,-187 362.848,-187"/>
<text text-anchor="start" x="370.848" y="-205" font-family="Helvetica,sans-Serif" font-size="10.00">code/om/operations</text>
<text text-anchor="middle" x="427" y="-193" font-family="Helvetica,sans-Serif" font-size="10.00">/substitute_operation.hpp</text>
</a>
</g>
</g>
<!-- Node11&#45;&gt;Node12 -->
<g id="edge17" class="edge"><title>Node11&#45;&gt;Node12</title>
<path fill="none" stroke="midnightblue" d="M442.255,-247.221C438.923,-237.782 435.23,-227.317 432.311,-219.049"/>
<polygon fill="midnightblue" stroke="midnightblue" points="439.045,-248.644 445.674,-256.909 445.646,-246.314 439.045,-248.644"/>
</g>
<!-- Node14 -->
<g id="node14" class="node"><title>Node14</title>
<g id="a_node14"><a xlink:href="translate__operation_8cpp.html" target="_top" xlink:title="Om source file.">
<polygon fill="none" stroke="black" points="509.353,-187 509.353,-219 632.647,-219 632.647,-187 509.353,-187"/>
<text text-anchor="start" x="517.353" y="-205" font-family="Helvetica,sans-Serif" font-size="10.00">code/om/operations</text>
<text text-anchor="middle" x="571" y="-193" font-family="Helvetica,sans-Serif" font-size="10.00">/translate_operation.cpp</text>
</a>
</g>
</g>
<!-- Node11&#45;&gt;Node14 -->
<g id="edge21" class="edge"><title>Node11&#45;&gt;Node14</title>
<path fill="none" stroke="midnightblue" d="M480.673,-251.649C498.328,-241.178 520.635,-228.637 538.728,-219.049"/>
<polygon fill="midnightblue" stroke="midnightblue" points="478.684,-248.76 471.912,-256.909 482.287,-254.762 478.684,-248.76"/>
</g>
<!-- Node12&#45;&gt;Node3 -->
<g id="edge18" class="edge"><title>Node12&#45;&gt;Node3</title>
<path fill="none" stroke="midnightblue" d="M359.012,-184.488C307.545,-171.231 238.949,-153.563 198.044,-143.027"/>
<polygon fill="midnightblue" stroke="midnightblue" points="358.18,-187.888 368.737,-186.993 359.926,-181.109 358.18,-187.888"/>
</g>
<!-- Node13 -->
<g id="node13" class="node"><title>Node13</title>
<g id="a_node13"><a xlink:href="substitute__operation_8cpp.html" target="_top" xlink:title="Om source file.">
<polygon fill="none" stroke="black" points="363.128,-117 363.128,-149 490.872,-149 490.872,-117 363.128,-117"/>
<text text-anchor="start" x="371.128" y="-135" font-family="Helvetica,sans-Serif" font-size="10.00">code/om/operations</text>
<text text-anchor="middle" x="427" y="-123" font-family="Helvetica,sans-Serif" font-size="10.00">/substitute_operation.cpp</text>
</a>
</g>
</g>
<!-- Node12&#45;&gt;Node13 -->
<g id="edge19" class="edge"><title>Node12&#45;&gt;Node13</title>
<path fill="none" stroke="midnightblue" d="M420.461,-176.92C420.009,-167.56 420.284,-157.229 421.285,-149.049"/>
<polygon fill="midnightblue" stroke="midnightblue" points="416.974,-177.228 421.28,-186.909 423.951,-176.656 416.974,-177.228"/>
</g>
<!-- Node13&#45;&gt;Node12 -->
<g id="edge20" class="edge"><title>Node13&#45;&gt;Node12</title>
<path fill="none" stroke="midnightblue" d="M433.537,-159.032C433.991,-168.389 433.719,-178.721 432.72,-186.909"/>
<polygon fill="midnightblue" stroke="midnightblue" points="437.024,-158.728 432.715,-149.049 430.047,-159.303 437.024,-158.728"/>
</g>
<!-- Node14&#45;&gt;Node11 -->
<g id="edge22" class="edge"><title>Node14&#45;&gt;Node11</title>
<path fill="none" stroke="midnightblue" d="M541.405,-224.305C523.764,-234.77 501.457,-247.313 483.352,-256.909"/>
<polygon fill="midnightblue" stroke="midnightblue" points="543.386,-227.198 550.157,-219.049 539.783,-221.197 543.386,-227.198"/>
</g>
</g>
</svg>
