<?xml version="1.0" encoding="UTF-8" standalone="no"?>
<!DOCTYPE svg PUBLIC "-//W3C//DTD SVG 1.1//EN"
 "http://www.w3.org/Graphics/SVG/1.1/DTD/svg11.dtd">
<!-- Generated by graphviz version 2.30.1 (20130221.2233)
 -->
<!-- Title: om/parser.hpp Pages: 1 -->
<svg width="829pt" height="298pt"
 viewBox="0.00 0.00 829.00 298.00" xmlns="http://www.w3.org/2000/svg" xmlns:xlink="http://www.w3.org/1999/xlink">
<g id="graph0" class="graph" transform="scale(1 1) rotate(0) translate(4 294)">
<title>om/parser.hpp</title>
<!-- Node1 -->
<g id="node1" class="node"><title>Node1</title>
<polygon fill="#bfbfbf" stroke="black" points="331.035,-269 331.035,-289 410.965,-289 410.965,-269 331.035,-269"/>
<text text-anchor="middle" x="371" y="-275" font-family="Helvetica,sans-Serif" font-size="10.00">om/parser.hpp</text>
</g>
<!-- Node2 -->
<g id="node2" class="node"><title>Node2</title>
<g id="a_node2"><a xlink:href="code__point_8hpp.html" target="_top" xlink:title="Om header file.">
<polygon fill="none" stroke="black" points="138.468,-205 138.468,-225 239.532,-225 239.532,-205 138.468,-205"/>
<text text-anchor="middle" x="189" y="-211" font-family="Helvetica,sans-Serif" font-size="10.00">om/code_point.hpp</text>
</a>
</g>
</g>
<!-- Node1&#45;&gt;Node2 -->
<g id="edge1" class="edge"><title>Node1&#45;&gt;Node2</title>
<path fill="none" stroke="midnightblue" d="M344.536,-268.985C313.13,-258.286 260.595,-240.39 225.381,-228.394"/>
<polygon fill="midnightblue" stroke="midnightblue" points="226.091,-224.938 215.496,-225.026 223.833,-231.564 226.091,-224.938"/>
</g>
<!-- Node4 -->
<g id="node4" class="node"><title>Node4</title>
<g id="a_node4"><a xlink:href="default__source_8hpp.html" target="_top" xlink:title="Om header file.">
<polygon fill="none" stroke="black" points="665.756,-199 665.756,-231 766.244,-231 766.244,-199 665.756,-199"/>
<text text-anchor="start" x="673.756" y="-217" font-family="Helvetica,sans-Serif" font-size="10.00">om/sources/default</text>
<text text-anchor="middle" x="716" y="-205" font-family="Helvetica,sans-Serif" font-size="10.00">_source.hpp</text>
</a>
</g>
</g>
<!-- Node1&#45;&gt;Node4 -->
<g id="edge3" class="edge"><title>Node1&#45;&gt;Node4</title>
<path fill="none" stroke="midnightblue" d="M411.251,-270.766C471.479,-259.943 585.46,-239.459 655.67,-226.842"/>
<polygon fill="midnightblue" stroke="midnightblue" points="656.476,-230.253 665.699,-225.04 655.238,-223.364 656.476,-230.253"/>
</g>
<!-- Node10 -->
<g id="node10" class="node"><title>Node10</title>
<g id="a_node10"><a xlink:href="parser_8cpp.html" target="_top" xlink:title="Om source file.">
<polygon fill="none" stroke="black" points="331.315,-205 331.315,-225 410.685,-225 410.685,-205 331.315,-205"/>
<text text-anchor="middle" x="371" y="-211" font-family="Helvetica,sans-Serif" font-size="10.00">om/parser.cpp</text>
</a>
</g>
</g>
<!-- Node1&#45;&gt;Node10 -->
<g id="edge11" class="edge"><title>Node1&#45;&gt;Node10</title>
<path fill="none" stroke="midnightblue" d="M366.045,-268.852C364.252,-260.06 363.802,-246.498 364.696,-235.313"/>
<polygon fill="midnightblue" stroke="midnightblue" points="368.194,-235.559 366.037,-225.186 361.254,-234.64 368.194,-235.559"/>
</g>
<!-- Node3 -->
<g id="node3" class="node"><title>Node3</title>
<polygon fill="none" stroke="#bfbfbf" points="-0.364258,-135 -0.364258,-155 102.364,-155 102.364,-135 -0.364258,-135"/>
<text text-anchor="middle" x="51" y="-141" font-family="Helvetica,sans-Serif" font-size="10.00">boost/locale/utf.hpp</text>
</g>
<!-- Node2&#45;&gt;Node3 -->
<g id="edge2" class="edge"><title>Node2&#45;&gt;Node3</title>
<path fill="none" stroke="midnightblue" d="M170.675,-204.97C147.064,-193.336 105.811,-173.008 78.4485,-159.525"/>
<polygon fill="midnightblue" stroke="midnightblue" points="79.9183,-156.348 69.4011,-155.067 76.8242,-162.627 79.9183,-156.348"/>
</g>
<!-- Node5 -->
<g id="node5" class="node"><title>Node5</title>
<g id="a_node5"><a xlink:href="source_8hpp.html" target="_top" xlink:title="Om header file.">
<polygon fill="none" stroke="black" points="620.926,-135 620.926,-155 703.074,-155 703.074,-135 620.926,-135"/>
<text text-anchor="middle" x="662" y="-141" font-family="Helvetica,sans-Serif" font-size="10.00">om/source.hpp</text>
</a>
</g>
</g>
<!-- Node4&#45;&gt;Node5 -->
<g id="edge4" class="edge"><title>Node4&#45;&gt;Node5</title>
<path fill="none" stroke="midnightblue" d="M704.016,-198.909C695.582,-188.288 684.281,-174.058 675.524,-163.03"/>
<polygon fill="midnightblue" stroke="midnightblue" points="678.11,-160.658 669.15,-155.004 672.628,-165.011 678.11,-160.658"/>
</g>
<!-- Node9 -->
<g id="node9" class="node"><title>Node9</title>
<g id="a_node9"><a xlink:href="default__source_8cpp.html" target="_top" xlink:title="Om source file.">
<polygon fill="none" stroke="black" points="720.756,-129 720.756,-161 821.244,-161 821.244,-129 720.756,-129"/>
<text text-anchor="start" x="728.756" y="-147" font-family="Helvetica,sans-Serif" font-size="10.00">om/sources/default</text>
<text text-anchor="middle" x="771" y="-135" font-family="Helvetica,sans-Serif" font-size="10.00">_source.cpp</text>
</a>
</g>
</g>
<!-- Node4&#45;&gt;Node9 -->
<g id="edge9" class="edge"><title>Node4&#45;&gt;Node9</title>
<path fill="none" stroke="midnightblue" d="M722.486,-198.909C728.593,-190.017 737.603,-178.595 746.284,-168.641"/>
<polygon fill="midnightblue" stroke="midnightblue" points="749.027,-170.825 753.113,-161.049 743.823,-166.143 749.027,-170.825"/>
</g>
<!-- Node6 -->
<g id="node6" class="node"><title>Node6</title>
<g id="a_node6"><a xlink:href="source_8cpp.html" target="_top" xlink:title="Om source file.">
<polygon fill="none" stroke="black" points="620.207,-71 620.207,-91 701.793,-91 701.793,-71 620.207,-71"/>
<text text-anchor="middle" x="661" y="-77" font-family="Helvetica,sans-Serif" font-size="10.00">om/source.cpp</text>
</a>
</g>
</g>
<!-- Node5&#45;&gt;Node6 -->
<g id="edge5" class="edge"><title>Node5&#45;&gt;Node6</title>
<path fill="none" stroke="midnightblue" d="M656.897,-134.852C654.963,-126.06 654.294,-112.498 655.007,-101.313"/>
<polygon fill="midnightblue" stroke="midnightblue" points="658.506,-101.523 656.185,-91.1858 651.553,-100.715 658.506,-101.523"/>
</g>
<!-- Node7 -->
<g id="node7" class="node"><title>Node7</title>
<polygon fill="none" stroke="#bfbfbf" points="627.884,-7 627.884,-27 676.116,-27 676.116,-7 627.884,-7"/>
<text text-anchor="middle" x="652" y="-13" font-family="Helvetica,sans-Serif" font-size="10.00">cassert</text>
</g>
<!-- Node6&#45;&gt;Node7 -->
<g id="edge6" class="edge"><title>Node6&#45;&gt;Node7</title>
<path fill="none" stroke="midnightblue" d="M659.672,-70.8517C658.396,-62.0601 656.427,-48.4977 654.804,-37.3131"/>
<polygon fill="midnightblue" stroke="midnightblue" points="658.234,-36.5793 653.333,-27.1858 651.306,-37.5849 658.234,-36.5793"/>
</g>
<!-- Node8 -->
<g id="node8" class="node"><title>Node8</title>
<polygon fill="none" stroke="#bfbfbf" points="533.599,-7 533.599,-27 592.401,-27 592.401,-7 533.599,-7"/>
<text text-anchor="middle" x="563" y="-13" font-family="Helvetica,sans-Serif" font-size="10.00">stdexcept</text>
</g>
<!-- Node6&#45;&gt;Node8 -->
<g id="edge7" class="edge"><title>Node6&#45;&gt;Node8</title>
<path fill="none" stroke="midnightblue" d="M646.54,-70.8517C630.617,-60.778 604.793,-44.4406 586.067,-32.5937"/>
<polygon fill="midnightblue" stroke="midnightblue" points="587.842,-29.5745 577.52,-27.1858 584.099,-35.4901 587.842,-29.5745"/>
</g>
<!-- Node6&#45;&gt;Node5 -->
<g id="edge8" class="edge"><title>Node6&#45;&gt;Node5</title>
<path fill="none" stroke="midnightblue" d="M666.111,-91.1858C668.042,-99.991 668.707,-113.557 667.99,-124.735"/>
<polygon fill="midnightblue" stroke="midnightblue" points="664.492,-124.513 666.808,-134.852 671.445,-125.325 664.492,-124.513"/>
</g>
<!-- Node9&#45;&gt;Node4 -->
<g id="edge10" class="edge"><title>Node9&#45;&gt;Node4</title>
<path fill="none" stroke="midnightblue" d="M764.543,-161.049C758.445,-169.933 749.439,-181.353 740.757,-191.312"/>
<polygon fill="midnightblue" stroke="midnightblue" points="738.01,-189.132 733.926,-198.909 743.215,-193.813 738.01,-189.132"/>
</g>
<!-- Node11 -->
<g id="node11" class="node"><title>Node11</title>
<g id="a_node11"><a xlink:href="consumer_8hpp.html" target="_top" xlink:title="Om header file.">
<polygon fill="none" stroke="black" points="507.254,-135 507.254,-155 602.746,-155 602.746,-135 507.254,-135"/>
<text text-anchor="middle" x="555" y="-141" font-family="Helvetica,sans-Serif" font-size="10.00">om/consumer.hpp</text>
</a>
</g>
</g>
<!-- Node10&#45;&gt;Node11 -->
<g id="edge12" class="edge"><title>Node10&#45;&gt;Node11</title>
<path fill="none" stroke="midnightblue" d="M395.434,-204.97C427.602,-193.082 484.332,-172.116 520.765,-158.652"/>
<polygon fill="midnightblue" stroke="midnightblue" points="522.299,-161.817 530.465,-155.067 519.872,-155.251 522.299,-161.817"/>
</g>
<!-- Node13 -->
<g id="node13" class="node"><title>Node13</title>
<g id="a_node13"><a xlink:href="operand__symbol_8hpp.html" target="_top" xlink:title="Om header file.">
<polygon fill="none" stroke="black" points="253.589,-129 253.589,-161 362.411,-161 362.411,-129 253.589,-129"/>
<text text-anchor="start" x="261.589" y="-147" font-family="Helvetica,sans-Serif" font-size="10.00">om/symbols/operand</text>
<text text-anchor="middle" x="308" y="-135" font-family="Helvetica,sans-Serif" font-size="10.00">_symbol.hpp</text>
</a>
</g>
</g>
<!-- Node10&#45;&gt;Node13 -->
<g id="edge17" class="edge"><title>Node10&#45;&gt;Node13</title>
<path fill="none" stroke="midnightblue" d="M362.504,-204.829C354.018,-195.67 340.635,-181.225 329.254,-168.941"/>
<polygon fill="midnightblue" stroke="midnightblue" points="331.5,-166.215 322.136,-161.258 326.365,-170.972 331.5,-166.215"/>
</g>
<!-- Node16 -->
<g id="node16" class="node"><title>Node16</title>
<g id="a_node16"><a xlink:href="operator__symbol_8hpp.html" target="_top" xlink:title="Om header file.">
<polygon fill="none" stroke="black" points="380.315,-129 380.315,-161 489.685,-161 489.685,-129 380.315,-129"/>
<text text-anchor="start" x="388.315" y="-147" font-family="Helvetica,sans-Serif" font-size="10.00">om/symbols/operator</text>
<text text-anchor="middle" x="435" y="-135" font-family="Helvetica,sans-Serif" font-size="10.00">_symbol.hpp</text>
</a>
</g>
</g>
<!-- Node10&#45;&gt;Node16 -->
<g id="edge20" class="edge"><title>Node10&#45;&gt;Node16</title>
<path fill="none" stroke="midnightblue" d="M379.631,-204.829C388.334,-195.583 402.107,-180.949 413.738,-168.59"/>
<polygon fill="midnightblue" stroke="midnightblue" points="416.335,-170.939 420.64,-161.258 411.237,-166.141 416.335,-170.939"/>
</g>
<!-- Node17 -->
<g id="node17" class="node"><title>Node17</title>
<g id="a_node17"><a xlink:href="separator__symbol_8hpp.html" target="_top" xlink:title="Om header file.">
<polygon fill="none" stroke="black" points="120.815,-129 120.815,-161 235.185,-161 235.185,-129 120.815,-129"/>
<text text-anchor="start" x="128.815" y="-147" font-family="Helvetica,sans-Serif" font-size="10.00">om/symbols/separator</text>
<text text-anchor="middle" x="178" y="-135" font-family="Helvetica,sans-Serif" font-size="10.00">_symbol.hpp</text>
</a>
</g>
</g>
<!-- Node10&#45;&gt;Node17 -->
<g id="edge22" class="edge"><title>Node10&#45;&gt;Node17</title>
<path fill="none" stroke="midnightblue" d="M345.371,-204.97C316.192,-194.689 267.745,-177.62 230.462,-164.484"/>
<polygon fill="midnightblue" stroke="midnightblue" points="231.351,-161.086 220.756,-161.064 229.025,-167.689 231.351,-161.086"/>
</g>
<!-- Node10&#45;&gt;Node1 -->
<g id="edge24" class="edge"><title>Node10&#45;&gt;Node1</title>
<path fill="none" stroke="midnightblue" d="M375.963,-225.186C377.752,-233.991 378.198,-247.557 377.3,-258.735"/>
<polygon fill="midnightblue" stroke="midnightblue" points="373.804,-258.478 375.955,-268.852 380.743,-259.4 373.804,-258.478"/>
</g>
<!-- Node12 -->
<g id="node12" class="node"><title>Node12</title>
<g id="a_node12"><a xlink:href="consumer_8cpp.html" target="_top" xlink:title="Om source file.">
<polygon fill="none" stroke="black" points="507.535,-71 507.535,-91 602.465,-91 602.465,-71 507.535,-71"/>
<text text-anchor="middle" x="555" y="-77" font-family="Helvetica,sans-Serif" font-size="10.00">om/consumer.cpp</text>
</a>
</g>
</g>
<!-- Node11&#45;&gt;Node12 -->
<g id="edge13" class="edge"><title>Node11&#45;&gt;Node12</title>
<path fill="none" stroke="midnightblue" d="M550.045,-134.852C548.252,-126.06 547.802,-112.498 548.696,-101.313"/>
<polygon fill="midnightblue" stroke="midnightblue" points="552.194,-101.559 550.037,-91.1858 545.254,-100.64 552.194,-101.559"/>
</g>
<!-- Node12&#45;&gt;Node7 -->
<g id="edge14" class="edge"><title>Node12&#45;&gt;Node7</title>
<path fill="none" stroke="midnightblue" d="M569.313,-70.8517C585.073,-60.778 610.633,-44.4406 629.168,-32.5937"/>
<polygon fill="midnightblue" stroke="midnightblue" points="631.088,-35.5206 637.629,-27.1858 627.318,-29.6224 631.088,-35.5206"/>
</g>
<!-- Node12&#45;&gt;Node8 -->
<g id="edge15" class="edge"><title>Node12&#45;&gt;Node8</title>
<path fill="none" stroke="midnightblue" d="M556.18,-70.8517C557.315,-62.0601 559.065,-48.4977 560.508,-37.3131"/>
<polygon fill="midnightblue" stroke="midnightblue" points="564.006,-37.5516 561.815,-27.1858 557.064,-36.6557 564.006,-37.5516"/>
</g>
<!-- Node12&#45;&gt;Node11 -->
<g id="edge16" class="edge"><title>Node12&#45;&gt;Node11</title>
<path fill="none" stroke="midnightblue" d="M559.963,-91.1858C561.752,-99.991 562.198,-113.557 561.3,-124.735"/>
<polygon fill="midnightblue" stroke="midnightblue" points="557.804,-124.478 559.955,-134.852 564.743,-125.4 557.804,-124.478"/>
</g>
<!-- Node14 -->
<g id="node14" class="node"><title>Node14</title>
<g id="a_node14"><a xlink:href="macros_8hpp.html" target="_top" xlink:title="Om header file.">
<polygon fill="none" stroke="black" points="265.542,-71 265.542,-91 350.458,-91 350.458,-71 265.542,-71"/>
<text text-anchor="middle" x="308" y="-77" font-family="Helvetica,sans-Serif" font-size="10.00">om/macros.hpp</text>
</a>
</g>
</g>
<!-- Node13&#45;&gt;Node14 -->
<g id="edge18" class="edge"><title>Node13&#45;&gt;Node14</title>
<path fill="none" stroke="midnightblue" d="M308,-128.992C308,-120.726 308,-110.373 308,-101.489"/>
<polygon fill="midnightblue" stroke="midnightblue" points="311.5,-101.29 308,-91.2904 304.5,-101.29 311.5,-101.29"/>
</g>
<!-- Node15 -->
<g id="node15" class="node"><title>Node15</title>
<polygon fill="none" stroke="#bfbfbf" points="257.2,-1 257.2,-33 358.8,-33 358.8,-1 257.2,-1"/>
<text text-anchor="start" x="265.2" y="-19" font-family="Helvetica,sans-Serif" font-size="10.00">boost/preprocessor</text>
<text text-anchor="middle" x="308" y="-7" font-family="Helvetica,sans-Serif" font-size="10.00">/stringize.hpp</text>
</g>
<!-- Node14&#45;&gt;Node15 -->
<g id="edge19" class="edge"><title>Node14&#45;&gt;Node15</title>
<path fill="none" stroke="midnightblue" d="M308,-70.8517C308,-63.6285 308,-53.1849 308,-43.4856"/>
<polygon fill="midnightblue" stroke="midnightblue" points="311.5,-43.4404 308,-33.4404 304.5,-43.4404 311.5,-43.4404"/>
</g>
<!-- Node16&#45;&gt;Node14 -->
<g id="edge21" class="edge"><title>Node16&#45;&gt;Node14</title>
<path fill="none" stroke="midnightblue" d="M404.257,-128.992C383.344,-118.782 355.903,-105.385 335.673,-95.5095"/>
<polygon fill="midnightblue" stroke="midnightblue" points="337.18,-92.3506 326.658,-91.1088 334.109,-98.6411 337.18,-92.3506"/>
</g>
<!-- Node17&#45;&gt;Node14 -->
<g id="edge23" class="edge"><title>Node17&#45;&gt;Node14</title>
<path fill="none" stroke="midnightblue" d="M209.469,-128.992C230.877,-118.782 258.966,-105.385 279.674,-95.5095"/>
<polygon fill="midnightblue" stroke="midnightblue" points="281.382,-98.5727 288.901,-91.1088 278.368,-92.2544 281.382,-98.5727"/>
</g>
</g>
</svg>
