<?xml version="1.0" encoding="UTF-8" standalone="no"?>
<!DOCTYPE svg PUBLIC "-//W3C//DTD SVG 1.1//EN"
 "http://www.w3.org/Graphics/SVG/1.1/DTD/svg11.dtd">
<!-- Generated by graphviz version 2.28.0 (20120817.0054)
 -->
<!-- Title: code/om/parser.hpp Pages: 1 -->
<svg width="391pt" height="220pt"
 viewBox="0.00 0.00 391.00 220.00" xmlns="http://www.w3.org/2000/svg" xmlns:xlink="http://www.w3.org/1999/xlink">
<g id="graph1" class="graph" transform="scale(1 1) rotate(0) translate(4 216)">
<title>code/om/parser.hpp</title>
<!-- Node1 -->
<g id="node1" class="node"><title>Node1</title>
<polygon fill="#bfbfbf" stroke="black" points="240,-192.5 240,-211.5 342,-211.5 342,-192.5 240,-192.5"/>
<text text-anchor="middle" x="291" y="-199.5" font-family="Helvetica,sans-Serif" font-size="10.00">code/om/parser.hpp</text>
</g>
<!-- Node2 -->
<g id="node3" class="node"><title>Node2</title>
<a xlink:href="code__point_8hpp.html" target="_top" xlink:title="Om header file.">
<polygon fill="none" stroke="black" points="50,-130.5 50,-149.5 148,-149.5 148,-130.5 50,-130.5"/>
<text text-anchor="middle" x="99" y="-137.5" font-family="Helvetica,sans-Serif" font-size="10.00">om/code_point.hpp</text>
</a>
</g>
<!-- Node1&#45;&gt;Node2 -->
<g id="edge2" class="edge"><title>Node1&#45;&gt;Node2</title>
<path fill="none" stroke="midnightblue" d="M263.491,-192.403C230.129,-181.978 173.738,-164.356 136.437,-152.699"/>
<polygon fill="midnightblue" stroke="midnightblue" points="137.047,-149.223 126.458,-149.581 134.959,-155.904 137.047,-149.223"/>
</g>
<!-- Node4 -->
<g id="node7" class="node"><title>Node4</title>
<a xlink:href="default__source_8hpp.html" target="_top" xlink:title="Om header file.">
<polygon fill="none" stroke="black" points="191,-125 191,-155 287,-155 287,-125 191,-125"/>
<text text-anchor="start" x="199" y="-143" font-family="Helvetica,sans-Serif" font-size="10.00">om/sources/default</text>
<text text-anchor="middle" x="239" y="-132" font-family="Helvetica,sans-Serif" font-size="10.00">_source.hpp</text>
</a>
</g>
<!-- Node1&#45;&gt;Node4 -->
<g id="edge6" class="edge"><title>Node1&#45;&gt;Node4</title>
<path fill="none" stroke="midnightblue" d="M283.55,-192.403C276.902,-184.733 266.878,-173.167 258.021,-162.948"/>
<polygon fill="midnightblue" stroke="midnightblue" points="260.45,-160.405 251.255,-155.141 255.16,-164.99 260.45,-160.405"/>
</g>
<!-- Node8 -->
<g id="node17" class="node"><title>Node8</title>
<a xlink:href="parser_8cpp.html" target="_top" xlink:title="Om source file.">
<polygon fill="none" stroke="black" points="305,-130.5 305,-149.5 383,-149.5 383,-130.5 305,-130.5"/>
<text text-anchor="middle" x="344" y="-137.5" font-family="Helvetica,sans-Serif" font-size="10.00">om/parser.cpp</text>
</a>
</g>
<!-- Node1&#45;&gt;Node8 -->
<g id="edge18" class="edge"><title>Node1&#45;&gt;Node8</title>
<path fill="none" stroke="midnightblue" d="M293.693,-192.403C299.875,-183.136 312.708,-168.183 324.028,-156.788"/>
<polygon fill="midnightblue" stroke="midnightblue" points="326.741,-159.035 331.523,-149.581 321.889,-153.989 326.741,-159.035"/>
</g>
<!-- Node3 -->
<g id="node5" class="node"><title>Node3</title>
<polygon fill="none" stroke="#bfbfbf" points="0,-62.5 0,-81.5 100,-81.5 100,-62.5 0,-62.5"/>
<text text-anchor="middle" x="50" y="-69.5" font-family="Helvetica,sans-Serif" font-size="10.00">boost/locale/utf.hpp</text>
</g>
<!-- Node2&#45;&gt;Node3 -->
<g id="edge4" class="edge"><title>Node2&#45;&gt;Node3</title>
<path fill="none" stroke="midnightblue" d="M92.5941,-130.372C85.0062,-120.151 72.1866,-102.884 62.5894,-89.9571"/>
<polygon fill="midnightblue" stroke="midnightblue" points="65.3351,-87.7839 56.5639,-81.8411 59.7147,-91.9566 65.3351,-87.7839"/>
</g>
<!-- Node5 -->
<g id="node9" class="node"><title>Node5</title>
<a xlink:href="source_8hpp.html" target="_top" xlink:title="Om header file.">
<polygon fill="none" stroke="black" points="118,-62.5 118,-81.5 198,-81.5 198,-62.5 118,-62.5"/>
<text text-anchor="middle" x="158" y="-69.5" font-family="Helvetica,sans-Serif" font-size="10.00">om/source.hpp</text>
</a>
</g>
<!-- Node4&#45;&gt;Node5 -->
<g id="edge8" class="edge"><title>Node4&#45;&gt;Node5</title>
<path fill="none" stroke="midnightblue" d="M221.424,-124.679C208.294,-113.981 190.372,-99.3768 176.927,-88.4223"/>
<polygon fill="midnightblue" stroke="midnightblue" points="178.798,-85.4317 168.835,-81.8283 174.376,-90.8584 178.798,-85.4317"/>
</g>
<!-- Node7 -->
<g id="node14" class="node"><title>Node7</title>
<a xlink:href="default__source_8cpp.html" target="_top" xlink:title="Om source file.">
<polygon fill="none" stroke="black" points="216,-57 216,-87 312,-87 312,-57 216,-57"/>
<text text-anchor="start" x="224" y="-75" font-family="Helvetica,sans-Serif" font-size="10.00">om/sources/default</text>
<text text-anchor="middle" x="264" y="-64" font-family="Helvetica,sans-Serif" font-size="10.00">_source.cpp</text>
</a>
</g>
<!-- Node4&#45;&gt;Node7 -->
<g id="edge14" class="edge"><title>Node4&#45;&gt;Node7</title>
<path fill="none" stroke="midnightblue" d="M238.746,-124.679C240.797,-116.463 244.509,-105.943 248.585,-96.5417"/>
<polygon fill="midnightblue" stroke="midnightblue" points="251.845,-97.8341 252.911,-87.2931 245.504,-94.8684 251.845,-97.8341"/>
</g>
<!-- Node6 -->
<g id="node11" class="node"><title>Node6</title>
<a xlink:href="source_8cpp.html" target="_top" xlink:title="Om source file.">
<polygon fill="none" stroke="black" points="118.5,-0.5 118.5,-19.5 197.5,-19.5 197.5,-0.5 118.5,-0.5"/>
<text text-anchor="middle" x="158" y="-7.5" font-family="Helvetica,sans-Serif" font-size="10.00">om/source.cpp</text>
</a>
</g>
<!-- Node5&#45;&gt;Node6 -->
<g id="edge10" class="edge"><title>Node5&#45;&gt;Node6</title>
<path fill="none" stroke="midnightblue" d="M153.099,-62.4035C151.268,-53.9381 150.797,-40.7283 151.685,-29.8199"/>
<polygon fill="midnightblue" stroke="midnightblue" points="155.198,-29.9661 153.103,-19.5806 148.264,-29.006 155.198,-29.9661"/>
</g>
<!-- Node6&#45;&gt;Node5 -->
<g id="edge12" class="edge"><title>Node6&#45;&gt;Node5</title>
<path fill="none" stroke="midnightblue" d="M162.897,-19.5806C164.73,-28.04 165.203,-41.2482 164.317,-52.1595"/>
<polygon fill="midnightblue" stroke="midnightblue" points="160.803,-52.0184 162.901,-62.4035 167.737,-52.9769 160.803,-52.0184"/>
</g>
<!-- Node7&#45;&gt;Node4 -->
<g id="edge16" class="edge"><title>Node7&#45;&gt;Node4</title>
<path fill="none" stroke="midnightblue" d="M264.261,-87.2931C262.214,-95.5042 258.504,-106.023 254.428,-115.426"/>
<polygon fill="midnightblue" stroke="midnightblue" points="251.167,-114.138 250.103,-124.679 257.509,-117.102 251.167,-114.138"/>
</g>
<!-- Node8&#45;&gt;Node1 -->
<g id="edge20" class="edge"><title>Node8&#45;&gt;Node1</title>
<path fill="none" stroke="midnightblue" d="M341.318,-149.581C335.144,-158.841 322.313,-173.793 310.991,-185.193"/>
<polygon fill="midnightblue" stroke="midnightblue" points="308.275,-182.949 303.494,-192.403 313.128,-187.994 308.275,-182.949"/>
</g>
</g>
</svg>
