<?xml version="1.0" encoding="UTF-8" standalone="no"?>
<!DOCTYPE svg PUBLIC "-//W3C//DTD SVG 1.1//EN"
 "http://www.w3.org/Graphics/SVG/1.1/DTD/svg11.dtd">
<!-- Generated by graphviz version 2.28.0 (20120817.0054)
 -->
<!-- Title: code/om/parser.cpp Pages: 1 -->
<svg width="2672pt" height="288pt"
 viewBox="0.00 0.00 2672.00 288.00" xmlns="http://www.w3.org/2000/svg" xmlns:xlink="http://www.w3.org/1999/xlink">
<g id="graph1" class="graph" transform="scale(1 1) rotate(0) translate(4 284)">
<title>code/om/parser.cpp</title>
<!-- Node1 -->
<g id="node1" class="node"><title>Node1</title>
<polygon fill="#bfbfbf" stroke="black" points="2101.5,-260.5 2101.5,-279.5 2202.5,-279.5 2202.5,-260.5 2101.5,-260.5"/>
<text text-anchor="middle" x="2152" y="-267.5" font-family="Helvetica,sans-Serif" font-size="10.00">code/om/parser.cpp</text>
</g>
<!-- Node2 -->
<g id="node3" class="node"><title>Node2</title>
<a xlink:href="parser_8hpp.html" target="_top" xlink:title="Om header file.">
<polygon fill="none" stroke="black" points="2112.5,-204.5 2112.5,-223.5 2191.5,-223.5 2191.5,-204.5 2112.5,-204.5"/>
<text text-anchor="middle" x="2152" y="-211.5" font-family="Helvetica,sans-Serif" font-size="10.00">om/parser.hpp</text>
</a>
</g>
<!-- Node1&#45;&gt;Node2 -->
<g id="edge2" class="edge"><title>Node1&#45;&gt;Node2</title>
<path fill="none" stroke="midnightblue" d="M2146.83,-260.083C2145.32,-252.927 2144.89,-242.635 2145.54,-233.691"/>
<polygon fill="midnightblue" stroke="midnightblue" points="2149.02,-234.126 2146.87,-223.751 2142.08,-233.2 2149.02,-234.126"/>
</g>
<!-- Node2&#45;&gt;Node1 -->
<g id="edge66" class="edge"><title>Node2&#45;&gt;Node1</title>
<path fill="none" stroke="midnightblue" d="M2157.13,-223.751C2158.66,-230.858 2159.1,-241.136 2158.47,-250.101"/>
<polygon fill="midnightblue" stroke="midnightblue" points="2154.99,-249.713 2157.17,-260.083 2161.93,-250.622 2154.99,-249.713"/>
</g>
<!-- Node3 -->
<g id="node5" class="node"><title>Node3</title>
<a xlink:href="code__point_8hpp.html" target="_top" xlink:title="Om header file.">
<polygon fill="none" stroke="black" points="1693,-142.5 1693,-161.5 1791,-161.5 1791,-142.5 1693,-142.5"/>
<text text-anchor="middle" x="1742" y="-149.5" font-family="Helvetica,sans-Serif" font-size="10.00">om/code_point.hpp</text>
</a>
</g>
<!-- Node2&#45;&gt;Node3 -->
<g id="edge4" class="edge"><title>Node2&#45;&gt;Node3</title>
<path fill="none" stroke="midnightblue" d="M2112.31,-207.192C2039.9,-196.595 1885.98,-174.07 1801.16,-161.657"/>
<polygon fill="midnightblue" stroke="midnightblue" points="1801.57,-158.18 1791.17,-160.195 1800.55,-165.106 1801.57,-158.18"/>
</g>
<!-- Node28 -->
<g id="node55" class="node"><title>Node28</title>
<a xlink:href="default__source_8hpp.html" target="_top" xlink:title="Om header file.">
<polygon fill="none" stroke="black" points="2515,-137 2515,-167 2611,-167 2611,-137 2515,-137"/>
<text text-anchor="start" x="2523" y="-155" font-family="Helvetica,sans-Serif" font-size="10.00">om/sources/default</text>
<text text-anchor="middle" x="2563" y="-144" font-family="Helvetica,sans-Serif" font-size="10.00">_source.hpp</text>
</a>
</g>
<!-- Node2&#45;&gt;Node28 -->
<g id="edge54" class="edge"><title>Node2&#45;&gt;Node28</title>
<path fill="none" stroke="midnightblue" d="M2191.78,-207.192C2264.67,-196.552 2419.9,-173.89 2504.72,-161.509"/>
<polygon fill="midnightblue" stroke="midnightblue" points="2505.31,-164.959 2514.7,-160.051 2504.3,-158.033 2505.31,-164.959"/>
</g>
<!-- Node4 -->
<g id="node7" class="node"><title>Node4</title>
<a xlink:href="external_8hpp.html" target="_top" xlink:title="om/external.hpp">
<polygon fill="none" stroke="black" points="1067.5,-74.5 1067.5,-93.5 1152.5,-93.5 1152.5,-74.5 1067.5,-74.5"/>
<text text-anchor="middle" x="1110" y="-81.5" font-family="Helvetica,sans-Serif" font-size="10.00">om/external.hpp</text>
</a>
</g>
<!-- Node3&#45;&gt;Node4 -->
<g id="edge6" class="edge"><title>Node3&#45;&gt;Node4</title>
<path fill="none" stroke="midnightblue" d="M1692.93,-145.876C1576.27,-133.692 1283.07,-103.074 1162.77,-90.5105"/>
<polygon fill="midnightblue" stroke="midnightblue" points="1163.01,-87.0166 1152.7,-89.4589 1162.28,-93.9787 1163.01,-87.0166"/>
</g>
<!-- Node5 -->
<g id="node9" class="node"><title>Node5</title>
<polygon fill="none" stroke="#bfbfbf" points="-0.5,-6.5 -0.5,-25.5 46.5,-25.5 46.5,-6.5 -0.5,-6.5"/>
<text text-anchor="middle" x="23" y="-13.5" font-family="Helvetica,sans-Serif" font-size="10.00">cassert</text>
</g>
<!-- Node4&#45;&gt;Node5 -->
<g id="edge8" class="edge"><title>Node4&#45;&gt;Node5</title>
<path fill="none" stroke="midnightblue" d="M1067.32,-83.0714C895.298,-83.0306 252.754,-79.6256 56,-32 53.3393,-31.356 50.63,-30.4977 47.9654,-29.5166"/>
<polygon fill="midnightblue" stroke="midnightblue" points="49.2509,-26.2602 38.6774,-25.5883 46.5241,-32.7072 49.2509,-26.2602"/>
</g>
<!-- Node6 -->
<g id="node11" class="node"><title>Node6</title>
<polygon fill="none" stroke="#bfbfbf" points="65,-6.5 65,-25.5 117,-25.5 117,-6.5 65,-6.5"/>
<text text-anchor="middle" x="91" y="-13.5" font-family="Helvetica,sans-Serif" font-size="10.00">iostream</text>
</g>
<!-- Node4&#45;&gt;Node6 -->
<g id="edge10" class="edge"><title>Node4&#45;&gt;Node6</title>
<path fill="none" stroke="midnightblue" d="M1067.41,-82.781C902.906,-81.6282 309.077,-74.5452 126,-32 123.102,-31.3266 120.142,-30.4265 117.23,-29.4001"/>
<polygon fill="midnightblue" stroke="midnightblue" points="118.266,-26.0444 107.682,-25.5704 115.66,-32.5414 118.266,-26.0444"/>
</g>
<!-- Node7 -->
<g id="node13" class="node"><title>Node7</title>
<polygon fill="none" stroke="#bfbfbf" points="135,-6.5 135,-25.5 179,-25.5 179,-6.5 135,-6.5"/>
<text text-anchor="middle" x="157" y="-13.5" font-family="Helvetica,sans-Serif" font-size="10.00">iterator</text>
</g>
<!-- Node4&#45;&gt;Node7 -->
<g id="edge12" class="edge"><title>Node4&#45;&gt;Node7</title>
<path fill="none" stroke="midnightblue" d="M1067.36,-82.8593C909.345,-81.9947 357.569,-75.8332 188,-32 185.656,-31.394 183.277,-30.6043 180.934,-29.7042"/>
<polygon fill="midnightblue" stroke="midnightblue" points="182.237,-26.4531 171.679,-25.5705 179.382,-32.8445 182.237,-26.4531"/>
</g>
<!-- Node8 -->
<g id="node15" class="node"><title>Node8</title>
<polygon fill="none" stroke="#bfbfbf" points="197,-6.5 197,-25.5 247,-25.5 247,-6.5 197,-6.5"/>
<text text-anchor="middle" x="222" y="-13.5" font-family="Helvetica,sans-Serif" font-size="10.00">memory</text>
</g>
<!-- Node4&#45;&gt;Node8 -->
<g id="edge14" class="edge"><title>Node4&#45;&gt;Node8</title>
<path fill="none" stroke="midnightblue" d="M1067.48,-82.4504C917.339,-80.2002 412.627,-69.926 256,-32 253.178,-31.3167 250.298,-30.4102 247.467,-29.38"/>
<polygon fill="midnightblue" stroke="midnightblue" points="248.767,-26.13 238.188,-25.5458 246.093,-32.5995 248.767,-26.13"/>
</g>
<!-- Node9 -->
<g id="node17" class="node"><title>Node9</title>
<polygon fill="none" stroke="#bfbfbf" points="265.5,-6.5 265.5,-25.5 304.5,-25.5 304.5,-6.5 265.5,-6.5"/>
<text text-anchor="middle" x="285" y="-13.5" font-family="Helvetica,sans-Serif" font-size="10.00">stack</text>
</g>
<!-- Node4&#45;&gt;Node9 -->
<g id="edge16" class="edge"><title>Node4&#45;&gt;Node9</title>
<path fill="none" stroke="midnightblue" d="M1067.33,-82.57C923.555,-80.7626 457.778,-71.8944 314,-32 312.034,-31.4544 310.047,-30.7656 308.084,-29.9847"/>
<polygon fill="midnightblue" stroke="midnightblue" points="309.217,-26.6492 298.679,-25.5489 306.231,-32.9804 309.217,-26.6492"/>
</g>
<!-- Node10 -->
<g id="node19" class="node"><title>Node10</title>
<polygon fill="none" stroke="#bfbfbf" points="323,-6.5 323,-25.5 381,-25.5 381,-6.5 323,-6.5"/>
<text text-anchor="middle" x="352" y="-13.5" font-family="Helvetica,sans-Serif" font-size="10.00">stdexcept</text>
</g>
<!-- Node4&#45;&gt;Node10 -->
<g id="edge18" class="edge"><title>Node4&#45;&gt;Node10</title>
<path fill="none" stroke="midnightblue" d="M1067.37,-81.6842C933.127,-77.2729 520.297,-61.5939 390,-32 386.749,-31.2617 383.411,-30.2888 380.128,-29.1925"/>
<polygon fill="midnightblue" stroke="midnightblue" points="381.175,-25.8477 370.582,-25.644 378.736,-32.4091 381.175,-25.8477"/>
</g>
<!-- Node11 -->
<g id="node21" class="node"><title>Node11</title>
<polygon fill="none" stroke="#bfbfbf" points="399,-6.5 399,-25.5 437,-25.5 437,-6.5 399,-6.5"/>
<text text-anchor="middle" x="418" y="-13.5" font-family="Helvetica,sans-Serif" font-size="10.00">string</text>
</g>
<!-- Node4&#45;&gt;Node11 -->
<g id="edge20" class="edge"><title>Node4&#45;&gt;Node11</title>
<path fill="none" stroke="midnightblue" d="M1067.42,-82.0206C940.021,-78.7302 563.36,-66.2858 446,-32 444.094,-31.4433 442.171,-30.7465 440.273,-29.9601"/>
<polygon fill="midnightblue" stroke="midnightblue" points="441.706,-26.7651 431.185,-25.5142 438.63,-33.0529 441.706,-26.7651"/>
</g>
<!-- Node12 -->
<g id="node23" class="node"><title>Node12</title>
<polygon fill="none" stroke="#bfbfbf" points="455.5,-6.5 455.5,-25.5 540.5,-25.5 540.5,-6.5 455.5,-6.5"/>
<text text-anchor="middle" x="498" y="-13.5" font-family="Helvetica,sans-Serif" font-size="10.00">boost/array.hpp</text>
</g>
<!-- Node4&#45;&gt;Node12 -->
<g id="edge22" class="edge"><title>Node4&#45;&gt;Node12</title>
<path fill="none" stroke="midnightblue" d="M1067.47,-81.8793C973.41,-78.8016 740.928,-67.8942 550,-32 544.767,-31.0162 539.302,-29.7328 533.965,-28.3308"/>
<polygon fill="midnightblue" stroke="midnightblue" points="534.526,-24.8537 523.954,-25.5359 532.644,-31.5959 534.526,-24.8537"/>
</g>
<!-- Node13 -->
<g id="node25" class="node"><title>Node13</title>
<polygon fill="none" stroke="#bfbfbf" points="559,-6.5 559,-25.5 687,-25.5 687,-6.5 559,-6.5"/>
<text text-anchor="middle" x="623" y="-13.5" font-family="Helvetica,sans-Serif" font-size="10.00">boost/checked_delete.hpp</text>
</g>
<!-- Node4&#45;&gt;Node13 -->
<g id="edge24" class="edge"><title>Node4&#45;&gt;Node13</title>
<path fill="none" stroke="midnightblue" d="M1067.23,-78.8722C991.926,-71.3514 830.886,-54.1299 696,-32 688.012,-30.6895 679.569,-29.1237 671.369,-27.5056"/>
<polygon fill="midnightblue" stroke="midnightblue" points="672.031,-24.0686 661.536,-25.5196 670.645,-30.9301 672.031,-24.0686"/>
</g>
<!-- Node14 -->
<g id="node27" class="node"><title>Node14</title>
<polygon fill="none" stroke="#bfbfbf" points="705.5,-6.5 705.5,-25.5 820.5,-25.5 820.5,-6.5 705.5,-6.5"/>
<text text-anchor="middle" x="763" y="-13.5" font-family="Helvetica,sans-Serif" font-size="10.00">boost/integer_traits.hpp</text>
</g>
<!-- Node4&#45;&gt;Node14 -->
<g id="edge26" class="edge"><title>Node4&#45;&gt;Node14</title>
<path fill="none" stroke="midnightblue" d="M1067.04,-75.8072C1011.82,-66.423 913.041,-49.1679 829,-32 822.654,-30.7035 815.98,-29.2699 809.415,-27.8183"/>
<polygon fill="midnightblue" stroke="midnightblue" points="809.772,-24.3117 799.249,-25.5395 808.241,-31.1422 809.772,-24.3117"/>
</g>
<!-- Node15 -->
<g id="node29" class="node"><title>Node15</title>
<polygon fill="none" stroke="#bfbfbf" points="838.5,-6.5 838.5,-25.5 951.5,-25.5 951.5,-6.5 838.5,-6.5"/>
<text text-anchor="middle" x="895" y="-13.5" font-family="Helvetica,sans-Serif" font-size="10.00">boost/intrusive_ptr.hpp</text>
</g>
<!-- Node4&#45;&gt;Node15 -->
<g id="edge28" class="edge"><title>Node4&#45;&gt;Node15</title>
<path fill="none" stroke="midnightblue" d="M1081.89,-74.3717C1043.64,-62.6292 975.087,-41.5849 932.489,-28.5083"/>
<polygon fill="midnightblue" stroke="midnightblue" points="933.361,-25.1147 922.774,-25.5259 931.306,-31.8065 933.361,-25.1147"/>
</g>
<!-- Node16 -->
<g id="node31" class="node"><title>Node16</title>
<polygon fill="none" stroke="#bfbfbf" points="969.5,-6.5 969.5,-25.5 1100.5,-25.5 1100.5,-6.5 969.5,-6.5"/>
<text text-anchor="middle" x="1035" y="-13.5" font-family="Helvetica,sans-Serif" font-size="10.00">boost/locale/boundary.hpp</text>
</g>
<!-- Node4&#45;&gt;Node16 -->
<g id="edge30" class="edge"><title>Node4&#45;&gt;Node16</title>
<path fill="none" stroke="midnightblue" d="M1100.2,-74.3717C1088.13,-63.7581 1067.44,-45.5453 1052.6,-32.4855"/>
<polygon fill="midnightblue" stroke="midnightblue" points="1054.87,-29.8199 1045.05,-25.8411 1050.24,-35.0749 1054.87,-29.8199"/>
</g>
<!-- Node17 -->
<g id="node33" class="node"><title>Node17</title>
<polygon fill="none" stroke="#bfbfbf" points="1118.5,-6.5 1118.5,-25.5 1253.5,-25.5 1253.5,-6.5 1118.5,-6.5"/>
<text text-anchor="middle" x="1186" y="-13.5" font-family="Helvetica,sans-Serif" font-size="10.00">boost/locale/conversion.hpp</text>
</g>
<!-- Node4&#45;&gt;Node17 -->
<g id="edge32" class="edge"><title>Node4&#45;&gt;Node17</title>
<path fill="none" stroke="midnightblue" d="M1119.94,-74.3717C1132.16,-63.7581 1153.13,-45.5453 1168.17,-32.4855"/>
<polygon fill="midnightblue" stroke="midnightblue" points="1170.56,-35.0406 1175.82,-25.8411 1165.97,-29.7554 1170.56,-35.0406"/>
</g>
<!-- Node18 -->
<g id="node35" class="node"><title>Node18</title>
<polygon fill="none" stroke="#bfbfbf" points="1272,-6.5 1272,-25.5 1400,-25.5 1400,-6.5 1272,-6.5"/>
<text text-anchor="middle" x="1336" y="-13.5" font-family="Helvetica,sans-Serif" font-size="10.00">boost/locale/encoding.hpp</text>
</g>
<!-- Node4&#45;&gt;Node18 -->
<g id="edge34" class="edge"><title>Node4&#45;&gt;Node18</title>
<path fill="none" stroke="midnightblue" d="M1139.55,-74.3717C1179.92,-62.5797 1252.42,-41.4071 1297.16,-28.3432"/>
<polygon fill="midnightblue" stroke="midnightblue" points="1298.19,-31.6889 1306.81,-25.5259 1296.23,-24.9695 1298.19,-31.6889"/>
</g>
<!-- Node19 -->
<g id="node37" class="node"><title>Node19</title>
<polygon fill="none" stroke="#bfbfbf" points="1418.5,-6.5 1418.5,-25.5 1547.5,-25.5 1547.5,-6.5 1418.5,-6.5"/>
<text text-anchor="middle" x="1483" y="-13.5" font-family="Helvetica,sans-Serif" font-size="10.00">boost/locale/generator.hpp</text>
</g>
<!-- Node4&#45;&gt;Node19 -->
<g id="edge36" class="edge"><title>Node4&#45;&gt;Node19</title>
<path fill="none" stroke="midnightblue" d="M1152.66,-76.1518C1210.73,-66.7303 1317.89,-48.9998 1409,-32 1416.44,-30.6124 1424.28,-29.0881 1431.97,-27.5593"/>
<polygon fill="midnightblue" stroke="midnightblue" points="1432.83,-30.957 1441.95,-25.558 1431.45,-24.0938 1432.83,-30.957"/>
</g>
<!-- Node20 -->
<g id="node39" class="node"><title>Node20</title>
<polygon fill="none" stroke="#bfbfbf" points="1566,-6.5 1566,-25.5 1666,-25.5 1666,-6.5 1566,-6.5"/>
<text text-anchor="middle" x="1616" y="-13.5" font-family="Helvetica,sans-Serif" font-size="10.00">boost/locale/utf.hpp</text>
</g>
<!-- Node4&#45;&gt;Node20 -->
<g id="edge38" class="edge"><title>Node4&#45;&gt;Node20</title>
<path fill="none" stroke="midnightblue" d="M1152.7,-79.9911C1232.43,-73.9592 1409.15,-58.6338 1556,-32 1562.24,-30.8683 1568.79,-29.4604 1575.19,-27.9639"/>
<polygon fill="midnightblue" stroke="midnightblue" points="1576.14,-31.3339 1585.03,-25.5664 1574.48,-24.5328 1576.14,-31.3339"/>
</g>
<!-- Node21 -->
<g id="node41" class="node"><title>Node21</title>
<polygon fill="none" stroke="#bfbfbf" points="1684,-6.5 1684,-25.5 1780,-25.5 1780,-6.5 1684,-6.5"/>
<text text-anchor="middle" x="1732" y="-13.5" font-family="Helvetica,sans-Serif" font-size="10.00">boost/optional.hpp</text>
</g>
<!-- Node4&#45;&gt;Node21 -->
<g id="edge40" class="edge"><title>Node4&#45;&gt;Node21</title>
<path fill="none" stroke="midnightblue" d="M1152.85,-81.5779C1247.63,-77.8992 1481.96,-65.8678 1675,-32 1680.94,-30.9579 1687.17,-29.6005 1693.23,-28.1283"/>
<polygon fill="midnightblue" stroke="midnightblue" points="1694.39,-31.4454 1703.21,-25.5778 1692.65,-24.6635 1694.39,-31.4454"/>
</g>
<!-- Node22 -->
<g id="node43" class="node"><title>Node22</title>
<polygon fill="none" stroke="#bfbfbf" points="1798.5,-1 1798.5,-31 1895.5,-31 1895.5,-1 1798.5,-1"/>
<text text-anchor="start" x="1806.5" y="-19" font-family="Helvetica,sans-Serif" font-size="10.00">boost/ptr_container</text>
<text text-anchor="middle" x="1847" y="-8" font-family="Helvetica,sans-Serif" font-size="10.00">/ptr_deque.hpp</text>
</g>
<!-- Node4&#45;&gt;Node22 -->
<g id="edge42" class="edge"><title>Node4&#45;&gt;Node22</title>
<path fill="none" stroke="midnightblue" d="M1152.82,-82.4237C1258.99,-80.4324 1542.88,-71.6705 1788.22,-31.9104"/>
<polygon fill="midnightblue" stroke="midnightblue" points="1789.1,-35.3131 1798.4,-30.2391 1787.97,-28.4056 1789.1,-35.3131"/>
</g>
<!-- Node23 -->
<g id="node45" class="node"><title>Node23</title>
<polygon fill="none" stroke="#bfbfbf" points="1913.5,-1 1913.5,-31 2010.5,-31 2010.5,-1 1913.5,-1"/>
<text text-anchor="start" x="1921.5" y="-19" font-family="Helvetica,sans-Serif" font-size="10.00">boost/ptr_container</text>
<text text-anchor="middle" x="1962" y="-8" font-family="Helvetica,sans-Serif" font-size="10.00">/ptr_map.hpp</text>
</g>
<!-- Node4&#45;&gt;Node23 -->
<g id="edge44" class="edge"><title>Node4&#45;&gt;Node23</title>
<path fill="none" stroke="midnightblue" d="M1152.92,-83.081C1271.27,-82.7024 1612.18,-77.5519 1903.5,-31.851"/>
<polygon fill="midnightblue" stroke="midnightblue" points="1904.08,-35.3029 1913.41,-30.278 1902.98,-28.3895 1904.08,-35.3029"/>
</g>
<!-- Node24 -->
<g id="node47" class="node"><title>Node24</title>
<polygon fill="none" stroke="#bfbfbf" points="2028.5,-1 2028.5,-31 2125.5,-31 2125.5,-1 2028.5,-1"/>
<text text-anchor="start" x="2036.5" y="-19" font-family="Helvetica,sans-Serif" font-size="10.00">boost/ptr_container</text>
<text text-anchor="middle" x="2077" y="-8" font-family="Helvetica,sans-Serif" font-size="10.00">/ptr_vector.hpp</text>
</g>
<!-- Node4&#45;&gt;Node24 -->
<g id="edge46" class="edge"><title>Node4&#45;&gt;Node24</title>
<path fill="none" stroke="midnightblue" d="M1152.91,-83.5778C1282.44,-84.6914 1680.8,-83.4881 2018.44,-31.8497"/>
<polygon fill="midnightblue" stroke="midnightblue" points="2019.06,-35.2949 2028.41,-30.3072 2017.99,-28.3772 2019.06,-35.2949"/>
</g>
<!-- Node25 -->
<g id="node49" class="node"><title>Node25</title>
<polygon fill="none" stroke="#bfbfbf" points="2143.5,-6.5 2143.5,-25.5 2216.5,-25.5 2216.5,-6.5 2143.5,-6.5"/>
<text text-anchor="middle" x="2180" y="-13.5" font-family="Helvetica,sans-Serif" font-size="10.00">boost/ref.hpp</text>
</g>
<!-- Node4&#45;&gt;Node25 -->
<g id="edge48" class="edge"><title>Node4&#45;&gt;Node25</title>
<path fill="none" stroke="midnightblue" d="M1152.77,-82.3798C1321.49,-79.6997 1941.13,-67.5936 2134,-32 2138.58,-31.154 2143.34,-29.9697 2147.99,-28.6337"/>
<polygon fill="midnightblue" stroke="midnightblue" points="2149.35,-31.8725 2157.85,-25.5389 2147.26,-25.1936 2149.35,-31.8725"/>
</g>
<!-- Node26 -->
<g id="node51" class="node"><title>Node26</title>
<polygon fill="none" stroke="#bfbfbf" points="2235,-6.5 2235,-25.5 2345,-25.5 2345,-6.5 2235,-6.5"/>
<text text-anchor="middle" x="2290" y="-13.5" font-family="Helvetica,sans-Serif" font-size="10.00">boost/scoped_ptr.hpp</text>
</g>
<!-- Node4&#45;&gt;Node26 -->
<g id="edge50" class="edge"><title>Node4&#45;&gt;Node26</title>
<path fill="none" stroke="midnightblue" d="M1152.5,-82.0862C1329.9,-78.1134 2011.9,-61.2168 2225,-32 2232.58,-30.9609 2240.57,-29.4593 2248.27,-27.8032"/>
<polygon fill="midnightblue" stroke="midnightblue" points="2249.17,-31.1882 2258.14,-25.5629 2247.62,-24.3616 2249.17,-31.1882"/>
</g>
<!-- Node27 -->
<g id="node53" class="node"><title>Node27</title>
<polygon fill="none" stroke="#bfbfbf" points="2363.5,-6.5 2363.5,-25.5 2452.5,-25.5 2452.5,-6.5 2363.5,-6.5"/>
<text text-anchor="middle" x="2408" y="-13.5" font-family="Helvetica,sans-Serif" font-size="10.00">boost/swap.hpp</text>
</g>
<!-- Node4&#45;&gt;Node27 -->
<g id="edge52" class="edge"><title>Node4&#45;&gt;Node27</title>
<path fill="none" stroke="midnightblue" d="M1152.56,-82.5677C1342.64,-80.4357 2114.98,-69.5829 2354,-32 2359.91,-31.0705 2366.1,-29.7219 2372.09,-28.2093"/>
<polygon fill="midnightblue" stroke="midnightblue" points="2373.16,-31.545 2381.9,-25.5536 2371.33,-24.7882 2373.16,-31.545"/>
</g>
<!-- Node29 -->
<g id="node57" class="node"><title>Node29</title>
<a xlink:href="source_8hpp.html" target="_top" xlink:title="Om header file.">
<polygon fill="none" stroke="black" points="2470,-74.5 2470,-93.5 2550,-93.5 2550,-74.5 2470,-74.5"/>
<text text-anchor="middle" x="2510" y="-81.5" font-family="Helvetica,sans-Serif" font-size="10.00">om/source.hpp</text>
</a>
</g>
<!-- Node28&#45;&gt;Node29 -->
<g id="edge56" class="edge"><title>Node28&#45;&gt;Node29</title>
<path fill="none" stroke="midnightblue" d="M2551.5,-136.679C2543.24,-126.388 2532.07,-112.484 2523.4,-101.69"/>
<polygon fill="midnightblue" stroke="midnightblue" points="2526.08,-99.434 2517.09,-93.8283 2520.62,-103.817 2526.08,-99.434"/>
</g>
<!-- Node31 -->
<g id="node62" class="node"><title>Node31</title>
<a xlink:href="default__source_8cpp.html" target="_top" xlink:title="Om source file.">
<polygon fill="none" stroke="black" points="2568,-69 2568,-99 2664,-99 2664,-69 2568,-69"/>
<text text-anchor="start" x="2576" y="-87" font-family="Helvetica,sans-Serif" font-size="10.00">om/sources/default</text>
<text text-anchor="middle" x="2616" y="-76" font-family="Helvetica,sans-Serif" font-size="10.00">_source.cpp</text>
</a>
</g>
<!-- Node28&#45;&gt;Node31 -->
<g id="edge62" class="edge"><title>Node28&#45;&gt;Node31</title>
<path fill="none" stroke="midnightblue" d="M2568.82,-136.679C2574.71,-127.944 2583.58,-116.605 2592.12,-106.775"/>
<polygon fill="midnightblue" stroke="midnightblue" points="2594.77,-109.07 2598.85,-99.2931 2589.56,-104.392 2594.77,-109.07"/>
</g>
<!-- Node30 -->
<g id="node59" class="node"><title>Node30</title>
<a xlink:href="source_8cpp.html" target="_top" xlink:title="Om source file.">
<polygon fill="none" stroke="black" points="2470.5,-6.5 2470.5,-25.5 2549.5,-25.5 2549.5,-6.5 2470.5,-6.5"/>
<text text-anchor="middle" x="2510" y="-13.5" font-family="Helvetica,sans-Serif" font-size="10.00">om/source.cpp</text>
</a>
</g>
<!-- Node29&#45;&gt;Node30 -->
<g id="edge58" class="edge"><title>Node29&#45;&gt;Node30</title>
<path fill="none" stroke="midnightblue" d="M2505.27,-74.3717C2503.2,-64.6426 2502.72,-48.528 2503.83,-35.8504"/>
<polygon fill="midnightblue" stroke="midnightblue" points="2507.32,-36.2273 2505.22,-25.8411 2500.38,-35.265 2507.32,-36.2273"/>
</g>
<!-- Node30&#45;&gt;Node29 -->
<g id="edge60" class="edge"><title>Node30&#45;&gt;Node29</title>
<path fill="none" stroke="midnightblue" d="M2514.78,-25.8411C2516.82,-35.6623 2517.28,-51.7978 2516.14,-64.425"/>
<polygon fill="midnightblue" stroke="midnightblue" points="2512.67,-63.9795 2514.73,-74.3717 2519.6,-64.9616 2512.67,-63.9795"/>
</g>
<!-- Node31&#45;&gt;Node28 -->
<g id="edge64" class="edge"><title>Node31&#45;&gt;Node28</title>
<path fill="none" stroke="midnightblue" d="M2610.2,-99.2931C2604.32,-108.023 2595.45,-119.36 2586.9,-129.194"/>
<polygon fill="midnightblue" stroke="midnightblue" points="2584.26,-126.901 2580.18,-136.679 2589.47,-131.579 2584.26,-126.901"/>
</g>
</g>
</svg>
