<?xml version="1.0" encoding="UTF-8" standalone="no"?>
<!DOCTYPE svg PUBLIC "-//W3C//DTD SVG 1.1//EN"
 "http://www.w3.org/Graphics/SVG/1.1/DTD/svg11.dtd">
<!-- Generated by graphviz version 2.30.1 (20130221.2233)
 -->
<!-- Title: om/parser.cpp Pages: 1 -->
<svg width="481pt" height="356pt"
 viewBox="0.00 0.00 481.00 356.00" xmlns="http://www.w3.org/2000/svg" xmlns:xlink="http://www.w3.org/1999/xlink">
<g id="graph0" class="graph" transform="scale(1 1) rotate(0) translate(4 352)">
<title>om/parser.cpp</title>
<!-- Node1 -->
<g id="node1" class="node"><title>Node1</title>
<polygon fill="#bfbfbf" stroke="black" points="197.315,-327 197.315,-347 276.685,-347 276.685,-327 197.315,-327"/>
<text text-anchor="middle" x="237" y="-333" font-family="Helvetica,sans-Serif" font-size="10.00">om/parser.cpp</text>
</g>
<!-- Node2 -->
<g id="node2" class="node"><title>Node2</title>
<g id="a_node2"><a xlink:href="operand__symbol_8hpp.html" target="_top" xlink:title="Om header file.">
<polygon fill="none" stroke="black" points="-0.411133,-257 -0.411133,-289 108.411,-289 108.411,-257 -0.411133,-257"/>
<text text-anchor="start" x="7.58887" y="-275" font-family="Helvetica,sans-Serif" font-size="10.00">om/symbols/operand</text>
<text text-anchor="middle" x="54" y="-263" font-family="Helvetica,sans-Serif" font-size="10.00">_symbol.hpp</text>
</a>
</g>
</g>
<!-- Node1&#45;&gt;Node2 -->
<g id="edge1" class="edge"><title>Node1&#45;&gt;Node2</title>
<path fill="none" stroke="midnightblue" d="M210.39,-326.985C183.684,-317.937 141.783,-303.741 108.072,-292.319"/>
<polygon fill="midnightblue" stroke="midnightblue" points="108.945,-288.92 98.3503,-289.026 106.698,-295.55 108.945,-288.92"/>
</g>
<!-- Node5 -->
<g id="node5" class="node"><title>Node5</title>
<g id="a_node5"><a xlink:href="operator__symbol_8hpp.html" target="_top" xlink:title="Om header file.">
<polygon fill="none" stroke="black" points="126.315,-257 126.315,-289 235.685,-289 235.685,-257 126.315,-257"/>
<text text-anchor="start" x="134.315" y="-275" font-family="Helvetica,sans-Serif" font-size="10.00">om/symbols/operator</text>
<text text-anchor="middle" x="181" y="-263" font-family="Helvetica,sans-Serif" font-size="10.00">_symbol.hpp</text>
</a>
</g>
</g>
<!-- Node1&#45;&gt;Node5 -->
<g id="edge4" class="edge"><title>Node1&#45;&gt;Node5</title>
<path fill="none" stroke="midnightblue" d="M228.737,-326.852C221.658,-319.014 211.153,-307.384 201.799,-297.028"/>
<polygon fill="midnightblue" stroke="midnightblue" points="204.246,-294.515 194.946,-289.44 199.052,-299.207 204.246,-294.515"/>
</g>
<!-- Node6 -->
<g id="node6" class="node"><title>Node6</title>
<g id="a_node6"><a xlink:href="parser_8hpp.html" target="_top" xlink:title="Om header file.">
<polygon fill="none" stroke="black" points="254.035,-263 254.035,-283 333.965,-283 333.965,-263 254.035,-263"/>
<text text-anchor="middle" x="294" y="-269" font-family="Helvetica,sans-Serif" font-size="10.00">om/parser.hpp</text>
</a>
</g>
</g>
<!-- Node1&#45;&gt;Node6 -->
<g id="edge6" class="edge"><title>Node1&#45;&gt;Node6</title>
<path fill="none" stroke="midnightblue" d="M240.455,-326.852C247.335,-317.236 261.068,-301.913 273.056,-290.236"/>
<polygon fill="midnightblue" stroke="midnightblue" points="275.68,-292.574 280.592,-283.186 270.898,-287.462 275.68,-292.574"/>
</g>
<!-- Node3 -->
<g id="node3" class="node"><title>Node3</title>
<g id="a_node3"><a xlink:href="macros_8hpp.html" target="_top" xlink:title="Om header file.">
<polygon fill="none" stroke="black" points="26.542,-193 26.542,-213 111.458,-213 111.458,-193 26.542,-193"/>
<text text-anchor="middle" x="69" y="-199" font-family="Helvetica,sans-Serif" font-size="10.00">om/macros.hpp</text>
</a>
</g>
</g>
<!-- Node2&#45;&gt;Node3 -->
<g id="edge2" class="edge"><title>Node2&#45;&gt;Node3</title>
<path fill="none" stroke="midnightblue" d="M57.329,-256.909C59.5326,-246.919 62.4406,-233.736 64.8026,-223.028"/>
<polygon fill="midnightblue" stroke="midnightblue" points="68.2776,-223.523 67.0139,-213.004 61.4419,-222.015 68.2776,-223.523"/>
</g>
<!-- Node4 -->
<g id="node4" class="node"><title>Node4</title>
<polygon fill="none" stroke="#bfbfbf" points="18.1997,-117 18.1997,-149 119.8,-149 119.8,-117 18.1997,-117"/>
<text text-anchor="start" x="26.1997" y="-135" font-family="Helvetica,sans-Serif" font-size="10.00">boost/preprocessor</text>
<text text-anchor="middle" x="69" y="-123" font-family="Helvetica,sans-Serif" font-size="10.00">/stringize.hpp</text>
</g>
<!-- Node3&#45;&gt;Node4 -->
<g id="edge3" class="edge"><title>Node3&#45;&gt;Node4</title>
<path fill="none" stroke="midnightblue" d="M69,-192.829C69,-184.281 69,-171.127 69,-159.424"/>
<polygon fill="midnightblue" stroke="midnightblue" points="72.5001,-159.258 69,-149.258 65.5001,-159.258 72.5001,-159.258"/>
</g>
<!-- Node5&#45;&gt;Node3 -->
<g id="edge5" class="edge"><title>Node5&#45;&gt;Node3</title>
<path fill="none" stroke="midnightblue" d="M156.144,-256.909C137.178,-245.394 111.226,-229.637 92.5834,-218.318"/>
<polygon fill="midnightblue" stroke="midnightblue" points="94.1937,-215.202 83.8294,-213.004 90.5608,-221.185 94.1937,-215.202"/>
</g>
<!-- Node7 -->
<g id="node7" class="node"><title>Node7</title>
<g id="a_node7"><a xlink:href="code__point_8hpp.html" target="_top" xlink:title="Om header file.">
<polygon fill="none" stroke="black" points="183.468,-193 183.468,-213 284.532,-213 284.532,-193 183.468,-193"/>
<text text-anchor="middle" x="234" y="-199" font-family="Helvetica,sans-Serif" font-size="10.00">om/code_point.hpp</text>
</a>
</g>
</g>
<!-- Node6&#45;&gt;Node7 -->
<g id="edge7" class="edge"><title>Node6&#45;&gt;Node7</title>
<path fill="none" stroke="midnightblue" d="M285.908,-262.829C276.372,-252.022 260.342,-233.854 248.614,-220.562"/>
<polygon fill="midnightblue" stroke="midnightblue" points="251.204,-218.208 241.964,-213.025 245.955,-222.84 251.204,-218.208"/>
</g>
<!-- Node9 -->
<g id="node9" class="node"><title>Node9</title>
<g id="a_node9"><a xlink:href="default__source_8hpp.html" target="_top" xlink:title="Om header file.">
<polygon fill="none" stroke="black" points="302.756,-187 302.756,-219 403.244,-219 403.244,-187 302.756,-187"/>
<text text-anchor="start" x="310.756" y="-205" font-family="Helvetica,sans-Serif" font-size="10.00">om/sources/default</text>
<text text-anchor="middle" x="353" y="-193" font-family="Helvetica,sans-Serif" font-size="10.00">_source.hpp</text>
</a>
</g>
</g>
<!-- Node6&#45;&gt;Node9 -->
<g id="edge9" class="edge"><title>Node6&#45;&gt;Node9</title>
<path fill="none" stroke="midnightblue" d="M301.957,-262.829C309.904,-253.67 322.437,-239.225 333.096,-226.941"/>
<polygon fill="midnightblue" stroke="midnightblue" points="335.852,-229.105 339.762,-219.258 330.564,-224.517 335.852,-229.105"/>
</g>
<!-- Node6&#45;&gt;Node1 -->
<g id="edge17" class="edge"><title>Node6&#45;&gt;Node1</title>
<path fill="none" stroke="midnightblue" d="M290.518,-283.186C283.621,-292.816 269.881,-308.142 257.897,-319.81"/>
<polygon fill="midnightblue" stroke="midnightblue" points="255.28,-317.465 250.366,-326.852 260.061,-322.578 255.28,-317.465"/>
</g>
<!-- Node8 -->
<g id="node8" class="node"><title>Node8</title>
<polygon fill="none" stroke="#bfbfbf" points="152.636,-123 152.636,-143 255.364,-143 255.364,-123 152.636,-123"/>
<text text-anchor="middle" x="204" y="-129" font-family="Helvetica,sans-Serif" font-size="10.00">boost/locale/utf.hpp</text>
</g>
<!-- Node7&#45;&gt;Node8 -->
<g id="edge8" class="edge"><title>Node7&#45;&gt;Node8</title>
<path fill="none" stroke="midnightblue" d="M229.954,-192.829C225.411,-182.531 217.92,-165.552 212.15,-152.474"/>
<polygon fill="midnightblue" stroke="midnightblue" points="215.221,-150.762 207.982,-143.025 208.816,-153.587 215.221,-150.762"/>
</g>
<!-- Node10 -->
<g id="node10" class="node"><title>Node10</title>
<g id="a_node10"><a xlink:href="source_8hpp.html" target="_top" xlink:title="Om header file.">
<polygon fill="none" stroke="black" points="272.926,-123 272.926,-143 355.074,-143 355.074,-123 272.926,-123"/>
<text text-anchor="middle" x="314" y="-129" font-family="Helvetica,sans-Serif" font-size="10.00">om/source.hpp</text>
</a>
</g>
</g>
<!-- Node9&#45;&gt;Node10 -->
<g id="edge10" class="edge"><title>Node9&#45;&gt;Node10</title>
<path fill="none" stroke="midnightblue" d="M344.345,-186.909C338.374,-176.498 330.414,-162.62 324.145,-151.689"/>
<polygon fill="midnightblue" stroke="midnightblue" points="327.175,-149.937 319.164,-143.004 321.103,-153.419 327.175,-149.937"/>
</g>
<!-- Node14 -->
<g id="node14" class="node"><title>Node14</title>
<g id="a_node14"><a xlink:href="default__source_8cpp.html" target="_top" xlink:title="Om source file.">
<polygon fill="none" stroke="black" points="372.756,-117 372.756,-149 473.244,-149 473.244,-117 372.756,-117"/>
<text text-anchor="start" x="380.756" y="-135" font-family="Helvetica,sans-Serif" font-size="10.00">om/sources/default</text>
<text text-anchor="middle" x="423" y="-123" font-family="Helvetica,sans-Serif" font-size="10.00">_source.cpp</text>
</a>
</g>
</g>
<!-- Node9&#45;&gt;Node14 -->
<g id="edge15" class="edge"><title>Node9&#45;&gt;Node14</title>
<path fill="none" stroke="midnightblue" d="M362.815,-186.909C371.123,-177.753 383.101,-165.914 394.257,-155.758"/>
<polygon fill="midnightblue" stroke="midnightblue" points="396.651,-158.313 401.793,-149.049 391.997,-153.084 396.651,-158.313"/>
</g>
<!-- Node11 -->
<g id="node11" class="node"><title>Node11</title>
<g id="a_node11"><a xlink:href="source_8cpp.html" target="_top" xlink:title="Om source file.">
<polygon fill="none" stroke="black" points="273.207,-59 273.207,-79 354.793,-79 354.793,-59 273.207,-59"/>
<text text-anchor="middle" x="314" y="-65" font-family="Helvetica,sans-Serif" font-size="10.00">om/source.cpp</text>
</a>
</g>
</g>
<!-- Node10&#45;&gt;Node11 -->
<g id="edge11" class="edge"><title>Node10&#45;&gt;Node11</title>
<path fill="none" stroke="midnightblue" d="M309.045,-122.852C307.252,-114.06 306.802,-100.498 307.696,-89.3131"/>
<polygon fill="midnightblue" stroke="midnightblue" points="311.194,-89.5588 309.037,-79.1858 304.254,-88.6398 311.194,-89.5588"/>
</g>
<!-- Node12 -->
<g id="node12" class="node"><title>Node12</title>
<polygon fill="none" stroke="#bfbfbf" points="253.884,-1 253.884,-21 302.116,-21 302.116,-1 253.884,-1"/>
<text text-anchor="middle" x="278" y="-7" font-family="Helvetica,sans-Serif" font-size="10.00">cassert</text>
</g>
<!-- Node11&#45;&gt;Node12 -->
<g id="edge12" class="edge"><title>Node11&#45;&gt;Node12</title>
<path fill="none" stroke="midnightblue" d="M308.055,-58.7527C302.97,-50.8427 295.51,-39.2372 289.294,-29.5683"/>
<polygon fill="midnightblue" stroke="midnightblue" points="292.186,-27.5943 283.834,-21.0752 286.298,-31.3797 292.186,-27.5943"/>
</g>
<!-- Node13 -->
<g id="node13" class="node"><title>Node13</title>
<polygon fill="none" stroke="#bfbfbf" points="320.599,-1 320.599,-21 379.401,-21 379.401,-1 320.599,-1"/>
<text text-anchor="middle" x="350" y="-7" font-family="Helvetica,sans-Serif" font-size="10.00">stdexcept</text>
</g>
<!-- Node11&#45;&gt;Node13 -->
<g id="edge13" class="edge"><title>Node11&#45;&gt;Node13</title>
<path fill="none" stroke="midnightblue" d="M319.945,-58.7527C325.03,-50.8427 332.49,-39.2372 338.706,-29.5683"/>
<polygon fill="midnightblue" stroke="midnightblue" points="341.702,-31.3797 344.166,-21.0752 335.814,-27.5943 341.702,-31.3797"/>
</g>
<!-- Node11&#45;&gt;Node10 -->
<g id="edge14" class="edge"><title>Node11&#45;&gt;Node10</title>
<path fill="none" stroke="midnightblue" d="M318.963,-79.1858C320.752,-87.991 321.198,-101.557 320.3,-112.735"/>
<polygon fill="midnightblue" stroke="midnightblue" points="316.804,-112.478 318.955,-122.852 323.743,-113.4 316.804,-112.478"/>
</g>
<!-- Node14&#45;&gt;Node9 -->
<g id="edge16" class="edge"><title>Node14&#45;&gt;Node9</title>
<path fill="none" stroke="midnightblue" d="M413.223,-149.049C404.926,-158.197 392.953,-170.034 381.795,-180.195"/>
<polygon fill="midnightblue" stroke="midnightblue" points="379.396,-177.644 374.255,-186.909 384.051,-182.872 379.396,-177.644"/>
</g>
</g>
</svg>
