<?xml version="1.0" encoding="UTF-8" standalone="no"?>
<!DOCTYPE svg PUBLIC "-//W3C//DTD SVG 1.1//EN"
 "http://www.w3.org/Graphics/SVG/1.1/DTD/svg11.dtd">
<!-- Generated by graphviz version 2.30.1 (20130221.2233)
 -->
<!-- Title: code/om/parser.cpp Pages: 1 -->
<svg width="328pt" height="286pt"
 viewBox="0.00 0.00 328.00 286.00" xmlns="http://www.w3.org/2000/svg" xmlns:xlink="http://www.w3.org/1999/xlink">
<g id="graph0" class="graph" transform="scale(1 1) rotate(0) translate(4 282)">
<title>code/om/parser.cpp</title>
<!-- Node1 -->
<g id="node1" class="node"><title>Node1</title>
<polygon fill="#bfbfbf" stroke="black" points="121.084,-257 121.084,-277 224.916,-277 224.916,-257 121.084,-257"/>
<text text-anchor="middle" x="173" y="-263" font-family="Helvetica,sans-Serif" font-size="10.00">code/om/parser.cpp</text>
</g>
<!-- Node2 -->
<g id="node2" class="node"><title>Node2</title>
<g id="a_node2"><a xlink:href="parser_8hpp.html" target="_top" xlink:title="Om header file.">
<polygon fill="none" stroke="black" points="133.035,-199 133.035,-219 212.965,-219 212.965,-199 133.035,-199"/>
<text text-anchor="middle" x="173" y="-205" font-family="Helvetica,sans-Serif" font-size="10.00">om/parser.hpp</text>
</a>
</g>
</g>
<!-- Node1&#45;&gt;Node2 -->
<g id="edge1" class="edge"><title>Node1&#45;&gt;Node2</title>
<path fill="none" stroke="midnightblue" d="M167.834,-256.753C166.308,-249.25 165.884,-238.424 166.564,-229.078"/>
<polygon fill="midnightblue" stroke="midnightblue" points="170.046,-229.444 167.869,-219.075 163.105,-228.538 170.046,-229.444"/>
</g>
<!-- Node3 -->
<g id="node3" class="node"><title>Node3</title>
<g id="a_node3"><a xlink:href="code__point_8hpp.html" target="_top" xlink:title="Om header file.">
<polygon fill="none" stroke="black" points="50.4683,-135 50.4683,-155 151.532,-155 151.532,-135 50.4683,-135"/>
<text text-anchor="middle" x="101" y="-141" font-family="Helvetica,sans-Serif" font-size="10.00">om/code_point.hpp</text>
</a>
</g>
</g>
<!-- Node2&#45;&gt;Node3 -->
<g id="edge2" class="edge"><title>Node2&#45;&gt;Node3</title>
<path fill="none" stroke="midnightblue" d="M162.376,-198.852C151.103,-189.144 133.075,-173.62 119.468,-161.903"/>
<polygon fill="midnightblue" stroke="midnightblue" points="121.529,-159.059 111.667,-155.186 116.961,-164.363 121.529,-159.059"/>
</g>
<!-- Node5 -->
<g id="node5" class="node"><title>Node5</title>
<g id="a_node5"><a xlink:href="default__source_8hpp.html" target="_top" xlink:title="Om header file.">
<polygon fill="none" stroke="black" points="194.756,-129 194.756,-161 295.244,-161 295.244,-129 194.756,-129"/>
<text text-anchor="start" x="202.756" y="-147" font-family="Helvetica,sans-Serif" font-size="10.00">om/sources/default</text>
<text text-anchor="middle" x="245" y="-135" font-family="Helvetica,sans-Serif" font-size="10.00">_source.hpp</text>
</a>
</g>
</g>
<!-- Node2&#45;&gt;Node5 -->
<g id="edge4" class="edge"><title>Node2&#45;&gt;Node5</title>
<path fill="none" stroke="midnightblue" d="M183.624,-198.852C193.058,-190.728 207.222,-178.531 219.567,-167.9"/>
<polygon fill="midnightblue" stroke="midnightblue" points="222.056,-170.377 227.349,-161.199 217.488,-165.072 222.056,-170.377"/>
</g>
<!-- Node2&#45;&gt;Node1 -->
<g id="edge10" class="edge"><title>Node2&#45;&gt;Node1</title>
<path fill="none" stroke="midnightblue" d="M178.131,-219.075C179.674,-226.526 180.114,-237.338 179.451,-246.707"/>
<polygon fill="midnightblue" stroke="midnightblue" points="175.963,-246.389 178.166,-256.753 182.907,-247.278 175.963,-246.389"/>
</g>
<!-- Node4 -->
<g id="node4" class="node"><title>Node4</title>
<polygon fill="none" stroke="#bfbfbf" points="-0.364258,-65 -0.364258,-85 102.364,-85 102.364,-65 -0.364258,-65"/>
<text text-anchor="middle" x="51" y="-71" font-family="Helvetica,sans-Serif" font-size="10.00">boost/locale/utf.hpp</text>
</g>
<!-- Node3&#45;&gt;Node4 -->
<g id="edge3" class="edge"><title>Node3&#45;&gt;Node4</title>
<path fill="none" stroke="midnightblue" d="M94.2568,-134.829C86.4599,-124.225 73.4538,-106.537 63.7351,-93.3197"/>
<polygon fill="midnightblue" stroke="midnightblue" points="66.3801,-91.0086 57.6364,-85.0255 60.7405,-95.1554 66.3801,-91.0086"/>
</g>
<!-- Node6 -->
<g id="node6" class="node"><title>Node6</title>
<g id="a_node6"><a xlink:href="source_8hpp.html" target="_top" xlink:title="Om header file.">
<polygon fill="none" stroke="black" points="119.926,-65 119.926,-85 202.074,-85 202.074,-65 119.926,-65"/>
<text text-anchor="middle" x="161" y="-71" font-family="Helvetica,sans-Serif" font-size="10.00">om/source.hpp</text>
</a>
</g>
</g>
<!-- Node5&#45;&gt;Node6 -->
<g id="edge5" class="edge"><title>Node5&#45;&gt;Node6</title>
<path fill="none" stroke="midnightblue" d="M226.358,-128.909C212.588,-117.762 193.908,-102.64 180.045,-91.4171"/>
<polygon fill="midnightblue" stroke="midnightblue" points="182.097,-88.5752 172.122,-85.0035 177.692,-94.0159 182.097,-88.5752"/>
</g>
<!-- Node8 -->
<g id="node8" class="node"><title>Node8</title>
<g id="a_node8"><a xlink:href="default__source_8cpp.html" target="_top" xlink:title="Om source file.">
<polygon fill="none" stroke="black" points="219.756,-59 219.756,-91 320.244,-91 320.244,-59 219.756,-59"/>
<text text-anchor="start" x="227.756" y="-77" font-family="Helvetica,sans-Serif" font-size="10.00">om/sources/default</text>
<text text-anchor="middle" x="270" y="-65" font-family="Helvetica,sans-Serif" font-size="10.00">_source.cpp</text>
</a>
</g>
</g>
<!-- Node5&#45;&gt;Node8 -->
<g id="edge8" class="edge"><title>Node5&#45;&gt;Node8</title>
<path fill="none" stroke="midnightblue" d="M244.828,-128.909C246.883,-120.545 250.518,-109.943 254.512,-100.43"/>
<polygon fill="midnightblue" stroke="midnightblue" points="257.822,-101.603 258.752,-91.0492 251.444,-98.7198 257.822,-101.603"/>
</g>
<!-- Node7 -->
<g id="node7" class="node"><title>Node7</title>
<g id="a_node7"><a xlink:href="source_8cpp.html" target="_top" xlink:title="Om source file.">
<polygon fill="none" stroke="black" points="120.207,-1 120.207,-21 201.793,-21 201.793,-1 120.207,-1"/>
<text text-anchor="middle" x="161" y="-7" font-family="Helvetica,sans-Serif" font-size="10.00">om/source.cpp</text>
</a>
</g>
</g>
<!-- Node6&#45;&gt;Node7 -->
<g id="edge6" class="edge"><title>Node6&#45;&gt;Node7</title>
<path fill="none" stroke="midnightblue" d="M156.045,-64.8517C154.252,-56.0601 153.802,-42.4977 154.696,-31.3131"/>
<polygon fill="midnightblue" stroke="midnightblue" points="158.194,-31.5588 156.037,-21.1858 151.254,-30.6398 158.194,-31.5588"/>
</g>
<!-- Node7&#45;&gt;Node6 -->
<g id="edge7" class="edge"><title>Node7&#45;&gt;Node6</title>
<path fill="none" stroke="midnightblue" d="M165.963,-21.1858C167.752,-29.991 168.198,-43.5568 167.3,-54.7346"/>
<polygon fill="midnightblue" stroke="midnightblue" points="163.804,-54.4776 165.955,-64.8517 170.743,-55.4002 163.804,-54.4776"/>
</g>
<!-- Node8&#45;&gt;Node5 -->
<g id="edge9" class="edge"><title>Node8&#45;&gt;Node5</title>
<path fill="none" stroke="midnightblue" d="M270.182,-91.0492C268.133,-99.4052 264.501,-110.005 260.508,-119.522"/>
<polygon fill="midnightblue" stroke="midnightblue" points="257.195,-118.354 256.268,-128.909 263.575,-121.236 257.195,-118.354"/>
</g>
</g>
</svg>
