<?xml version="1.0" encoding="UTF-8" standalone="no"?>
<!DOCTYPE svg PUBLIC "-//W3C//DTD SVG 1.1//EN"
 "http://www.w3.org/Graphics/SVG/1.1/DTD/svg11.dtd">
<!-- Generated by graphviz version 2.30.1 (20130221.2233)
 -->
<!-- Title: code/om/producer.hpp Pages: 1 -->
<svg width="180pt" height="88pt"
 viewBox="0.00 0.00 180.00 88.00" xmlns="http://www.w3.org/2000/svg" xmlns:xlink="http://www.w3.org/1999/xlink">
<g id="graph0" class="graph" transform="scale(1 1) rotate(0) translate(4 84)">
<title>code/om/producer.hpp</title>
<!-- Node1 -->
<g id="node1" class="node"><title>Node1</title>
<polygon fill="#bfbfbf" stroke="black" points="57.2417,-59 57.2417,-79 172.758,-79 172.758,-59 57.2417,-59"/>
<text text-anchor="middle" x="115" y="-65" font-family="Helvetica,sans-Serif" font-size="10.00">code/om/producer.hpp</text>
</g>
<!-- Node2 -->
<g id="node2" class="node"><title>Node2</title>
<polygon fill="none" stroke="#bfbfbf" points="-0.0566406,-1 -0.0566406,-21 52.0566,-21 52.0566,-1 -0.0566406,-1"/>
<text text-anchor="middle" x="26" y="-7" font-family="Helvetica,sans-Serif" font-size="10.00">memory</text>
</g>
<!-- Node1&#45;&gt;Node2 -->
<g id="edge1" class="edge"><title>Node1&#45;&gt;Node2</title>
<path fill="none" stroke="midnightblue" d="M100.303,-58.7527C86.4361,-50.0272 65.4223,-36.8051 49.2763,-26.6458"/>
<polygon fill="midnightblue" stroke="midnightblue" points="50.751,-23.4385 40.4231,-21.0752 47.023,-29.3632 50.751,-23.4385"/>
</g>
<!-- Node3 -->
<g id="node3" class="node"><title>Node3</title>
<g id="a_node3"><a xlink:href="producer_8cpp.html" target="_top" xlink:title="Om source file.">
<polygon fill="none" stroke="black" points="69.7539,-1 69.7539,-21 160.246,-21 160.246,-1 69.7539,-1"/>
<text text-anchor="middle" x="115" y="-7" font-family="Helvetica,sans-Serif" font-size="10.00">om/producer.cpp</text>
</a>
</g>
</g>
<!-- Node1&#45;&gt;Node3 -->
<g id="edge2" class="edge"><title>Node1&#45;&gt;Node3</title>
<path fill="none" stroke="midnightblue" d="M109.834,-58.7527C108.308,-51.2504 107.884,-40.4238 108.564,-31.0781"/>
<polygon fill="midnightblue" stroke="midnightblue" points="112.046,-31.4439 109.869,-21.0752 105.105,-30.5385 112.046,-31.4439"/>
</g>
<!-- Node3&#45;&gt;Node1 -->
<g id="edge3" class="edge"><title>Node3&#45;&gt;Node1</title>
<path fill="none" stroke="midnightblue" d="M120.131,-21.0752C121.674,-28.5262 122.114,-39.3384 121.451,-48.7065"/>
<polygon fill="midnightblue" stroke="midnightblue" points="117.963,-48.3895 120.166,-58.7527 124.907,-49.2776 117.963,-48.3895"/>
</g>
</g>
</svg>
