<?xml version="1.0" encoding="UTF-8" standalone="no"?>
<!DOCTYPE svg PUBLIC "-//W3C//DTD SVG 1.1//EN"
 "http://www.w3.org/Graphics/SVG/1.1/DTD/svg11.dtd">
<!-- Generated by graphviz version 2.36.0 (20140111.2315)
 -->
<!-- Title: om/language/producer.cpp Pages: 1 -->
<svg width="286pt" height="140pt"
 viewBox="0.00 0.00 286.00 140.00" xmlns="http://www.w3.org/2000/svg" xmlns:xlink="http://www.w3.org/1999/xlink">
<g id="graph0" class="graph" transform="scale(1 1) rotate(0) translate(4 136)">
<title>om/language/producer.cpp</title>
<!-- Node1 -->
<g id="node1" class="node"><title>Node1</title>
<polygon fill="#bfbfbf" stroke="black" points="85.7886,-113 85.7886,-131 220.211,-131 220.211,-113 85.7886,-113"/>
<text text-anchor="middle" x="153" y="-119" font-family="Helvetica,sans-Serif" font-size="10.00">om/language/producer.cpp</text>
</g>
<!-- Node2 -->
<g id="node2" class="node"><title>Node2</title>
<polygon fill="none" stroke="#bfbfbf" points="-0.115723,-57 -0.115723,-75 48.1157,-75 48.1157,-57 -0.115723,-57"/>
<text text-anchor="middle" x="24" y="-63" font-family="Helvetica,sans-Serif" font-size="10.00">cassert</text>
</g>
<!-- Node1&#45;&gt;Node2 -->
<g id="edge1" class="edge"><title>Node1&#45;&gt;Node2</title>
<path fill="none" stroke="midnightblue" d="M133.687,-112.916C112.313,-103.968 77.6344,-89.4516 52.9958,-79.1378"/>
<polygon fill="midnightblue" stroke="midnightblue" points="54.0205,-75.7725 43.4446,-75.1396 51.3175,-82.2296 54.0205,-75.7725"/>
</g>
<!-- Node3 -->
<g id="node3" class="node"><title>Node3</title>
<polygon fill="none" stroke="#bfbfbf" points="66.5986,-57 66.5986,-75 125.401,-75 125.401,-57 66.5986,-57"/>
<text text-anchor="middle" x="96" y="-63" font-family="Helvetica,sans-Serif" font-size="10.00">stdexcept</text>
</g>
<!-- Node1&#45;&gt;Node3 -->
<g id="edge2" class="edge"><title>Node1&#45;&gt;Node3</title>
<path fill="none" stroke="midnightblue" d="M144.094,-112.562C135.511,-104.431 122.332,-91.9462 111.939,-82.1003"/>
<polygon fill="midnightblue" stroke="midnightblue" points="114.324,-79.5381 104.657,-75.2014 109.51,-84.6198 114.324,-79.5381"/>
</g>
<!-- Node4 -->
<g id="node4" class="node"><title>Node4</title>
<g id="a_node4"><a xlink:href="producer_8hpp.html" target="_top" xlink:title="Om header file. ">
<polygon fill="none" stroke="black" points="143.508,-57 143.508,-75 278.492,-75 278.492,-57 143.508,-57"/>
<text text-anchor="middle" x="211" y="-63" font-family="Helvetica,sans-Serif" font-size="10.00">om/language/producer.hpp</text>
</a>
</g>
</g>
<!-- Node1&#45;&gt;Node4 -->
<g id="edge3" class="edge"><title>Node1&#45;&gt;Node4</title>
<path fill="none" stroke="midnightblue" d="M157,-112.562C164.063,-104.272 177.495,-91.4549 189.336,-81.5243"/>
<polygon fill="midnightblue" stroke="midnightblue" points="191.592,-84.2016 197.182,-75.2014 187.199,-78.7513 191.592,-84.2016"/>
</g>
<!-- Node4&#45;&gt;Node1 -->
<g id="edge5" class="edge"><title>Node4&#45;&gt;Node1</title>
<path fill="none" stroke="midnightblue" d="M207.135,-75.2786C200.118,-83.554 186.613,-96.4506 174.707,-106.44"/>
<polygon fill="midnightblue" stroke="midnightblue" points="172.407,-103.798 166.818,-112.799 176.8,-109.248 172.407,-103.798"/>
</g>
<!-- Node5 -->
<g id="node5" class="node"><title>Node5</title>
<polygon fill="none" stroke="#bfbfbf" points="184.943,-1 184.943,-19 237.057,-19 237.057,-1 184.943,-1"/>
<text text-anchor="middle" x="211" y="-7" font-family="Helvetica,sans-Serif" font-size="10.00">memory</text>
</g>
<!-- Node4&#45;&gt;Node5 -->
<g id="edge4" class="edge"><title>Node4&#45;&gt;Node5</title>
<path fill="none" stroke="midnightblue" d="M211,-56.5625C211,-49.308 211,-38.5884 211,-29.3691"/>
<polygon fill="midnightblue" stroke="midnightblue" points="214.5,-29.2014 211,-19.2014 207.5,-29.2015 214.5,-29.2014"/>
</g>
</g>
</svg>
