<?xml version="1.0" encoding="UTF-8" standalone="no"?>
<!DOCTYPE svg PUBLIC "-//W3C//DTD SVG 1.1//EN"
 "http://www.w3.org/Graphics/SVG/1.1/DTD/svg11.dtd">
<!-- Generated by graphviz version 2.30.1 (20130221.2233)
 -->
<!-- Title: code/om/producer.cpp Pages: 1 -->
<svg width="122pt" height="146pt"
 viewBox="0.00 0.00 122.00 146.00" xmlns="http://www.w3.org/2000/svg" xmlns:xlink="http://www.w3.org/1999/xlink">
<g id="graph0" class="graph" transform="scale(1 1) rotate(0) translate(4 142)">
<title>code/om/producer.cpp</title>
<!-- Node1 -->
<g id="node1" class="node"><title>Node1</title>
<polygon fill="#bfbfbf" stroke="black" points="-0.477539,-117 -0.477539,-137 114.478,-137 114.478,-117 -0.477539,-117"/>
<text text-anchor="middle" x="57" y="-123" font-family="Helvetica,sans-Serif" font-size="10.00">code/om/producer.cpp</text>
</g>
<!-- Node2 -->
<g id="node2" class="node"><title>Node2</title>
<g id="a_node2"><a xlink:href="producer_8hpp.html" target="_top" xlink:title="Om header file.">
<polygon fill="none" stroke="black" points="11.4731,-59 11.4731,-79 102.527,-79 102.527,-59 11.4731,-59"/>
<text text-anchor="middle" x="57" y="-65" font-family="Helvetica,sans-Serif" font-size="10.00">om/producer.hpp</text>
</a>
</g>
</g>
<!-- Node1&#45;&gt;Node2 -->
<g id="edge1" class="edge"><title>Node1&#45;&gt;Node2</title>
<path fill="none" stroke="midnightblue" d="M51.8337,-116.753C50.3076,-109.25 49.8844,-98.4238 50.5643,-89.0781"/>
<polygon fill="midnightblue" stroke="midnightblue" points="54.0461,-89.4439 51.869,-79.0752 47.1049,-88.5385 54.0461,-89.4439"/>
</g>
<!-- Node3 -->
<g id="node3" class="node"><title>Node3</title>
<polygon fill="none" stroke="#bfbfbf" points="30.9434,-1 30.9434,-21 83.0566,-21 83.0566,-1 30.9434,-1"/>
<text text-anchor="middle" x="57" y="-7" font-family="Helvetica,sans-Serif" font-size="10.00">memory</text>
</g>
<!-- Node2&#45;&gt;Node3 -->
<g id="edge2" class="edge"><title>Node2&#45;&gt;Node3</title>
<path fill="none" stroke="midnightblue" d="M57,-58.7527C57,-51.2504 57,-40.4238 57,-31.0781"/>
<polygon fill="midnightblue" stroke="midnightblue" points="60.5001,-31.0752 57,-21.0752 53.5001,-31.0752 60.5001,-31.0752"/>
</g>
<!-- Node2&#45;&gt;Node1 -->
<g id="edge3" class="edge"><title>Node2&#45;&gt;Node1</title>
<path fill="none" stroke="midnightblue" d="M62.131,-79.0752C63.674,-86.5262 64.1141,-97.3384 63.4512,-106.707"/>
<polygon fill="midnightblue" stroke="midnightblue" points="59.9633,-106.389 62.1663,-116.753 66.9067,-107.278 59.9633,-106.389"/>
</g>
</g>
</svg>
