<?xml version="1.0" encoding="UTF-8" standalone="no"?>
<!DOCTYPE svg PUBLIC "-//W3C//DTD SVG 1.1//EN"
 "http://www.w3.org/Graphics/SVG/1.1/DTD/svg11.dtd">
<!-- Generated by graphviz version 2.36.0 (20140111.2315)
 -->
<!-- Title: om/language/program.hpp Pages: 1 -->
<svg width="1721pt" height="602pt"
 viewBox="0.00 0.00 1721.00 602.00" xmlns="http://www.w3.org/2000/svg" xmlns:xlink="http://www.w3.org/1999/xlink">
<g id="graph0" class="graph" transform="scale(1 1) rotate(0) translate(4 598)">
<title>om/language/program.hpp</title>
<!-- Node1 -->
<g id="node1" class="node"><title>Node1</title>
<g id="a_node1"><a xlink:title="Om header file.">
<polygon fill="#bfbfbf" stroke="black" points="628.35,-575 628.35,-593 761.65,-593 761.65,-575 628.35,-575"/>
<text text-anchor="middle" x="695" y="-581" font-family="Helvetica,sans-Serif" font-size="10.00">om/language/program.hpp</text>
</a>
</g>
</g>
<!-- Node2 -->
<g id="node2" class="node"><title>Node2</title>
<g id="a_node2"><a xlink:href="default__program_8hpp.html" target="_top" xlink:title="Om header file.">
<polygon fill="none" stroke="black" points="412.688,-509 412.688,-537 519.312,-537 519.312,-509 412.688,-509"/>
<text text-anchor="start" x="420.688" y="-525" font-family="Helvetica,sans-Serif" font-size="10.00">om/language/default</text>
<text text-anchor="middle" x="466" y="-515" font-family="Helvetica,sans-Serif" font-size="10.00">_program.hpp</text>
</a>
</g>
</g>
<!-- Node1&#45;&gt;Node2 -->
<g id="edge1" class="edge"><title>Node1&#45;&gt;Node2</title>
<path fill="none" stroke="midnightblue" d="M653.818,-572.39C615.393,-562.49 557.953,-547.691 516.719,-537.067"/>
<polygon fill="midnightblue" stroke="midnightblue" points="653.082,-575.814 663.639,-574.92 654.828,-569.036 653.082,-575.814"/>
</g>
<!-- Node42 -->
<g id="node42" class="node"><title>Node42</title>
<g id="a_node42"><a xlink:href="element_8hpp.html" target="_top" xlink:title="Om header file.">
<polygon fill="none" stroke="black" points="554.18,-514 554.18,-532 685.82,-532 685.82,-514 554.18,-514"/>
<text text-anchor="middle" x="620" y="-520" font-family="Helvetica,sans-Serif" font-size="10.00">om/language/element.hpp</text>
</a>
</g>
</g>
<!-- Node1&#45;&gt;Node42 -->
<g id="edge59" class="edge"><title>Node1&#45;&gt;Node42</title>
<path fill="none" stroke="midnightblue" d="M676.707,-568.61C662.141,-557.151 642.279,-541.526 630.34,-532.134"/>
<polygon fill="midnightblue" stroke="midnightblue" points="674.548,-571.364 684.572,-574.796 678.876,-565.863 674.548,-571.364"/>
</g>
<!-- Node46 -->
<g id="node46" class="node"><title>Node46</title>
<g id="a_node46"><a xlink:href="program_8cpp.html" target="_top" xlink:title="Om source file.">
<polygon fill="none" stroke="black" points="703.631,-514 703.631,-532 836.369,-532 836.369,-514 703.631,-514"/>
<text text-anchor="middle" x="770" y="-520" font-family="Helvetica,sans-Serif" font-size="10.00">om/language/program.cpp</text>
</a>
</g>
</g>
<!-- Node1&#45;&gt;Node46 -->
<g id="edge66" class="edge"><title>Node1&#45;&gt;Node46</title>
<path fill="none" stroke="midnightblue" d="M708.145,-567.963C721.293,-556.569 741.018,-541.351 754.831,-532.134"/>
<polygon fill="midnightblue" stroke="midnightblue" points="705.656,-565.495 700.583,-574.796 710.349,-570.688 705.656,-565.495"/>
</g>
<!-- Node3 -->
<g id="node3" class="node"><title>Node3</title>
<g id="a_node3"><a xlink:href="default__element_8hpp.html" target="_top" xlink:title="Om header file.">
<polygon fill="none" stroke="black" points="287.688,-443 287.688,-471 394.312,-471 394.312,-443 287.688,-443"/>
<text text-anchor="start" x="295.688" y="-459" font-family="Helvetica,sans-Serif" font-size="10.00">om/language/default</text>
<text text-anchor="middle" x="341" y="-449" font-family="Helvetica,sans-Serif" font-size="10.00">_element.hpp</text>
</a>
</g>
</g>
<!-- Node2&#45;&gt;Node3 -->
<g id="edge2" class="edge"><title>Node2&#45;&gt;Node3</title>
<path fill="none" stroke="midnightblue" d="M431.367,-504.268C410.837,-493.756 385.261,-480.661 366.563,-471.088"/>
<polygon fill="midnightblue" stroke="midnightblue" points="429.906,-507.452 440.403,-508.894 433.097,-501.221 429.906,-507.452"/>
</g>
<!-- Node39 -->
<g id="node39" class="node"><title>Node39</title>
<g id="a_node39"><a xlink:href="default__program_8cpp.html" target="_top" xlink:title="Om source file.">
<polygon fill="none" stroke="black" points="412.688,-443 412.688,-471 519.312,-471 519.312,-443 412.688,-443"/>
<text text-anchor="start" x="420.688" y="-459" font-family="Helvetica,sans-Serif" font-size="10.00">om/language/default</text>
<text text-anchor="middle" x="466" y="-449" font-family="Helvetica,sans-Serif" font-size="10.00">_program.cpp</text>
</a>
</g>
</g>
<!-- Node2&#45;&gt;Node39 -->
<g id="edge54" class="edge"><title>Node2&#45;&gt;Node39</title>
<path fill="none" stroke="midnightblue" d="M459.471,-498.595C458.986,-489.379 459.299,-479.135 460.41,-471.244"/>
<polygon fill="midnightblue" stroke="midnightblue" points="456.003,-499.103 460.407,-508.739 462.974,-498.46 456.003,-499.103"/>
</g>
<!-- Node40 -->
<g id="node40" class="node"><title>Node40</title>
<g id="a_node40"><a xlink:href="literal_8hpp.html" target="_top" xlink:title="Om header file.">
<polygon fill="none" stroke="black" points="-0.97998,-448 -0.97998,-466 118.98,-466 118.98,-448 -0.97998,-448"/>
<text text-anchor="middle" x="59" y="-454" font-family="Helvetica,sans-Serif" font-size="10.00">om/language/literal.hpp</text>
</a>
</g>
</g>
<!-- Node2&#45;&gt;Node40 -->
<g id="edge56" class="edge"><title>Node2&#45;&gt;Node40</title>
<path fill="none" stroke="midnightblue" d="M402.349,-511.991C321.721,-499.312 184.37,-477.714 110.177,-466.048"/>
<polygon fill="midnightblue" stroke="midnightblue" points="401.951,-515.471 412.373,-513.567 403.038,-508.556 401.951,-515.471"/>
</g>
<!-- Node4 -->
<g id="node4" class="node"><title>Node4</title>
<g id="a_node4"><a xlink:href="default__atom_8hpp.html" target="_top" xlink:title="Om header file.">
<polygon fill="none" stroke="black" points="616.688,-377 616.688,-405 723.312,-405 723.312,-377 616.688,-377"/>
<text text-anchor="start" x="624.688" y="-393" font-family="Helvetica,sans-Serif" font-size="10.00">om/language/default</text>
<text text-anchor="middle" x="670" y="-383" font-family="Helvetica,sans-Serif" font-size="10.00">_atom.hpp</text>
</a>
</g>
</g>
<!-- Node3&#45;&gt;Node4 -->
<g id="edge3" class="edge"><title>Node3&#45;&gt;Node4</title>
<path fill="none" stroke="midnightblue" d="M404.806,-441.875C484.483,-425.642 565.083,-410.794 616.655,-401.495"/>
<polygon fill="midnightblue" stroke="midnightblue" points="403.686,-438.532 394.591,-443.965 405.089,-445.39 403.686,-438.532"/>
</g>
<!-- Node34 -->
<g id="node34" class="node"><title>Node34</title>
<g id="a_node34"><a xlink:href="default__element_8cpp.html" target="_top" xlink:title="Om source file.">
<polygon fill="none" stroke="black" points="287.688,-377 287.688,-405 394.312,-405 394.312,-377 287.688,-377"/>
<text text-anchor="start" x="295.688" y="-393" font-family="Helvetica,sans-Serif" font-size="10.00">om/language/default</text>
<text text-anchor="middle" x="341" y="-383" font-family="Helvetica,sans-Serif" font-size="10.00">_element.cpp</text>
</a>
</g>
</g>
<!-- Node3&#45;&gt;Node34 -->
<g id="edge46" class="edge"><title>Node3&#45;&gt;Node34</title>
<path fill="none" stroke="midnightblue" d="M334.471,-432.595C333.986,-423.379 334.299,-413.135 335.41,-405.244"/>
<polygon fill="midnightblue" stroke="midnightblue" points="331.003,-433.103 335.407,-442.739 337.974,-432.46 331.003,-433.103"/>
</g>
<!-- Node35 -->
<g id="node35" class="node"><title>Node35</title>
<g id="a_node35"><a xlink:href="null_8hpp.html" target="_top" xlink:title="Om header file.">
<polygon fill="none" stroke="black" points="412.185,-382 412.185,-400 523.815,-400 523.815,-382 412.185,-382"/>
<text text-anchor="middle" x="468" y="-388" font-family="Helvetica,sans-Serif" font-size="10.00">om/language/null.hpp</text>
</a>
</g>
</g>
<!-- Node3&#45;&gt;Node35 -->
<g id="edge48" class="edge"><title>Node3&#45;&gt;Node35</title>
<path fill="none" stroke="midnightblue" d="M376.131,-438.296C400.98,-425.774 433.126,-409.574 452.06,-400.033"/>
<polygon fill="midnightblue" stroke="midnightblue" points="374.362,-435.268 367.007,-442.894 377.512,-441.519 374.362,-435.268"/>
</g>
<!-- Node37 -->
<g id="node37" class="node"><title>Node37</title>
<g id="a_node37"><a xlink:href="operand_8hpp.html" target="_top" xlink:title="Om header file.">
<polygon fill="none" stroke="black" points="136.619,-382 136.619,-400 269.381,-400 269.381,-382 136.619,-382"/>
<text text-anchor="middle" x="203" y="-388" font-family="Helvetica,sans-Serif" font-size="10.00">om/language/operand.hpp</text>
</a>
</g>
</g>
<!-- Node3&#45;&gt;Node37 -->
<g id="edge51" class="edge"><title>Node3&#45;&gt;Node37</title>
<path fill="none" stroke="midnightblue" d="M303.538,-438.626C276.441,-426.06 241.076,-409.658 220.321,-400.033"/>
<polygon fill="midnightblue" stroke="midnightblue" points="302.196,-441.862 312.741,-442.894 305.141,-435.512 302.196,-441.862"/>
</g>
<!-- Node5 -->
<g id="node5" class="node"><title>Node5</title>
<g id="a_node5"><a xlink:href="default__atom_8cpp.html" target="_top" xlink:title="Om source file.">
<polygon fill="none" stroke="black" points="633.688,-311 633.688,-339 740.312,-339 740.312,-311 633.688,-311"/>
<text text-anchor="start" x="641.688" y="-327" font-family="Helvetica,sans-Serif" font-size="10.00">om/language/default</text>
<text text-anchor="middle" x="687" y="-317" font-family="Helvetica,sans-Serif" font-size="10.00">_atom.cpp</text>
</a>
</g>
</g>
<!-- Node4&#45;&gt;Node5 -->
<g id="edge4" class="edge"><title>Node4&#45;&gt;Node5</title>
<path fill="none" stroke="midnightblue" d="M669.688,-366.595C671.651,-357.379 674.685,-347.135 677.892,-339.244"/>
<polygon fill="midnightblue" stroke="midnightblue" points="666.189,-366.288 667.93,-376.739 673.086,-367.484 666.189,-366.288"/>
</g>
<!-- Node6 -->
<g id="node6" class="node"><title>Node6</title>
<g id="a_node6"><a xlink:href="operator_8hpp.html" target="_top" xlink:title="Om header file.">
<polygon fill="none" stroke="black" points="758.619,-316 758.619,-334 891.381,-334 891.381,-316 758.619,-316"/>
<text text-anchor="middle" x="825" y="-322" font-family="Helvetica,sans-Serif" font-size="10.00">om/language/operator.hpp</text>
</a>
</g>
</g>
<!-- Node4&#45;&gt;Node6 -->
<g id="edge6" class="edge"><title>Node4&#45;&gt;Node6</title>
<path fill="none" stroke="midnightblue" d="M711.281,-372.955C741.817,-360.347 782.03,-343.742 805.546,-334.033"/>
<polygon fill="midnightblue" stroke="midnightblue" points="709.648,-369.843 701.741,-376.894 712.319,-376.313 709.648,-369.843"/>
</g>
<!-- Node32 -->
<g id="node32" class="node"><title>Node32</title>
<g id="a_node32"><a xlink:href="separator_8hpp.html" target="_top" xlink:title="Om header file.">
<polygon fill="none" stroke="black" points="478.119,-316 478.119,-334 615.881,-334 615.881,-316 478.119,-316"/>
<text text-anchor="middle" x="547" y="-322" font-family="Helvetica,sans-Serif" font-size="10.00">om/language/separator.hpp</text>
</a>
</g>
</g>
<!-- Node4&#45;&gt;Node32 -->
<g id="edge43" class="edge"><title>Node4&#45;&gt;Node32</title>
<path fill="none" stroke="midnightblue" d="M635.657,-372.131C611.635,-359.631 580.695,-343.532 562.438,-334.033"/>
<polygon fill="midnightblue" stroke="midnightblue" points="634.326,-375.383 644.812,-376.894 637.557,-369.174 634.326,-375.383"/>
</g>
<!-- Node5&#45;&gt;Node4 -->
<g id="edge5" class="edge"><title>Node5&#45;&gt;Node4</title>
<path fill="none" stroke="midnightblue" d="M687.316,-349.386C685.355,-358.6 682.322,-368.844 679.115,-376.739"/>
<polygon fill="midnightblue" stroke="midnightblue" points="690.814,-349.694 689.072,-339.244 683.917,-348.5 690.814,-349.694"/>
</g>
<!-- Node7 -->
<g id="node7" class="node"><title>Node7</title>
<g id="a_node7"><a xlink:href="form_8hpp.html" target="_top" xlink:title="Om header file.">
<polygon fill="none" stroke="black" points="1269.97,-255 1269.97,-273 1386.03,-273 1386.03,-255 1269.97,-255"/>
<text text-anchor="middle" x="1328" y="-261" font-family="Helvetica,sans-Serif" font-size="10.00">om/language/form.hpp</text>
</a>
</g>
</g>
<!-- Node6&#45;&gt;Node7 -->
<g id="edge7" class="edge"><title>Node6&#45;&gt;Node7</title>
<path fill="none" stroke="midnightblue" d="M901.693,-315.004C1002.91,-303.131 1178.89,-282.49 1269.85,-271.821"/>
<polygon fill="midnightblue" stroke="midnightblue" points="901.059,-311.554 891.535,-316.196 901.875,-318.507 901.059,-311.554"/>
</g>
<!-- Node21 -->
<g id="node21" class="node"><title>Node21</title>
<g id="a_node21"><a xlink:href="operator_8cpp.html" target="_top" xlink:title="Om source file.">
<polygon fill="none" stroke="black" points="695.899,-255 695.899,-273 828.101,-273 828.101,-255 695.899,-255"/>
<text text-anchor="middle" x="762" y="-261" font-family="Helvetica,sans-Serif" font-size="10.00">om/language/operator.cpp</text>
</a>
</g>
</g>
<!-- Node6&#45;&gt;Node21 -->
<g id="edge27" class="edge"><title>Node6&#45;&gt;Node21</title>
<path fill="none" stroke="midnightblue" d="M803.358,-309.287C789.774,-297.859 773.675,-282.438 765.856,-273.134"/>
<polygon fill="midnightblue" stroke="midnightblue" points="801.421,-312.222 811.395,-315.796 805.827,-306.783 801.421,-312.222"/>
</g>
<!-- Node22 -->
<g id="node22" class="node"><title>Node22</title>
<g id="a_node22"><a xlink:href="pair_8hpp.html" target="_top" xlink:title="Om header file.">
<polygon fill="none" stroke="black" points="845.904,-255 845.904,-273 958.096,-273 958.096,-255 845.904,-255"/>
<text text-anchor="middle" x="902" y="-261" font-family="Helvetica,sans-Serif" font-size="10.00">om/language/pair.hpp</text>
</a>
</g>
</g>
<!-- Node6&#45;&gt;Node22 -->
<g id="edge29" class="edge"><title>Node6&#45;&gt;Node22</title>
<path fill="none" stroke="midnightblue" d="M843.781,-309.61C858.735,-298.151 879.127,-282.526 891.384,-273.134"/>
<polygon fill="midnightblue" stroke="midnightblue" points="841.515,-306.936 835.707,-315.796 845.773,-312.492 841.515,-306.936"/>
</g>
<!-- Node8 -->
<g id="node8" class="node"><title>Node8</title>
<g id="a_node8"><a xlink:href="expression_8hpp.html" target="_top" xlink:title="Om header file.">
<polygon fill="none" stroke="black" points="1181.79,-199 1181.79,-217 1326.21,-217 1326.21,-199 1181.79,-199"/>
<text text-anchor="middle" x="1254" y="-205" font-family="Helvetica,sans-Serif" font-size="10.00">om/language/expression.hpp</text>
</a>
</g>
</g>
<!-- Node7&#45;&gt;Node8 -->
<g id="edge8" class="edge"><title>Node7&#45;&gt;Node8</title>
<path fill="none" stroke="midnightblue" d="M1308.44,-248.727C1294.7,-238.699 1276.79,-225.634 1265.34,-217.279"/>
<polygon fill="midnightblue" stroke="midnightblue" points="1306.62,-251.731 1316.76,-254.799 1310.75,-246.077 1306.62,-251.731"/>
</g>
<!-- Node20 -->
<g id="node20" class="node"><title>Node20</title>
<g id="a_node20"><a xlink:href="form_8cpp.html" target="_top" xlink:title="Om source file.">
<polygon fill="none" stroke="black" points="1344.25,-199 1344.25,-217 1459.75,-217 1459.75,-199 1344.25,-199"/>
<text text-anchor="middle" x="1402" y="-205" font-family="Helvetica,sans-Serif" font-size="10.00">om/language/form.cpp</text>
</a>
</g>
</g>
<!-- Node7&#45;&gt;Node20 -->
<g id="edge25" class="edge"><title>Node7&#45;&gt;Node20</title>
<path fill="none" stroke="midnightblue" d="M1341.94,-248.4C1354.53,-238.344 1372.69,-225.358 1385.91,-217.102"/>
<polygon fill="midnightblue" stroke="midnightblue" points="1339.69,-245.717 1334.23,-254.799 1344.16,-251.102 1339.69,-245.717"/>
</g>
<!-- Node9 -->
<g id="node9" class="node"><title>Node9</title>
<g id="a_node9"><a xlink:href="evaluation_8hpp.html" target="_top" xlink:title="Om header file.">
<polygon fill="none" stroke="black" points="1257.17,-138 1257.17,-156 1398.83,-156 1398.83,-138 1257.17,-138"/>
<text text-anchor="middle" x="1328" y="-144" font-family="Helvetica,sans-Serif" font-size="10.00">om/language/evaluation.hpp</text>
</a>
</g>
</g>
<!-- Node8&#45;&gt;Node9 -->
<g id="edge9" class="edge"><title>Node8&#45;&gt;Node9</title>
<path fill="none" stroke="midnightblue" d="M1272.45,-192.287C1286.79,-180.859 1306.13,-165.438 1317.8,-156.134"/>
<polygon fill="midnightblue" stroke="midnightblue" points="1269.93,-189.826 1264.29,-198.796 1274.29,-195.299 1269.93,-189.826"/>
</g>
<!-- Node11 -->
<g id="node11" class="node"><title>Node11</title>
<g id="a_node11"><a xlink:href="expression_8cpp.html" target="_top" xlink:title="Om source file.">
<polygon fill="none" stroke="black" points="1417.07,-138 1417.07,-156 1560.93,-156 1560.93,-138 1417.07,-138"/>
<text text-anchor="middle" x="1489" y="-144" font-family="Helvetica,sans-Serif" font-size="10.00">om/language/expression.cpp</text>
</a>
</g>
</g>
<!-- Node8&#45;&gt;Node11 -->
<g id="edge12" class="edge"><title>Node8&#45;&gt;Node11</title>
<path fill="none" stroke="midnightblue" d="M1291.11,-196.343C1335.18,-184.765 1407.99,-166.528 1452.01,-156.077"/>
<polygon fill="midnightblue" stroke="midnightblue" points="1290.14,-192.98 1281.37,-198.92 1291.93,-199.747 1290.14,-192.98"/>
</g>
<!-- Node12 -->
<g id="node12" class="node"><title>Node12</title>
<g id="a_node12"><a xlink:href="expression__operation_8hpp.html" target="_top" xlink:title="Om header file.">
<polygon fill="none" stroke="black" points="1579.07,-133 1579.07,-161 1712.93,-161 1712.93,-133 1579.07,-133"/>
<text text-anchor="start" x="1587.07" y="-149" font-family="Helvetica,sans-Serif" font-size="10.00">om/language/operation</text>
<text text-anchor="middle" x="1646" y="-139" font-family="Helvetica,sans-Serif" font-size="10.00">/expression_operation.hpp</text>
</a>
</g>
</g>
<!-- Node8&#45;&gt;Node12 -->
<g id="edge14" class="edge"><title>Node8&#45;&gt;Node12</title>
<path fill="none" stroke="midnightblue" d="M1325.05,-197.633C1388.97,-189.021 1485.41,-175.565 1569,-162 1572.22,-161.478 1575.51,-160.93 1578.83,-160.367"/>
<polygon fill="midnightblue" stroke="midnightblue" points="1324.53,-194.173 1315.08,-198.973 1325.46,-201.11 1324.53,-194.173"/>
</g>
<!-- Node14 -->
<g id="node14" class="node"><title>Node14</title>
<g id="a_node14"><a xlink:href="fill__operation_8hpp.html" target="_top" xlink:title="Om header file.">
<polygon fill="none" stroke="black" points="848.85,-133 848.85,-161 967.15,-161 967.15,-133 848.85,-133"/>
<text text-anchor="start" x="856.85" y="-149" font-family="Helvetica,sans-Serif" font-size="10.00">om/language/operation</text>
<text text-anchor="middle" x="908" y="-139" font-family="Helvetica,sans-Serif" font-size="10.00">/fill_operation.hpp</text>
</a>
</g>
</g>
<!-- Node8&#45;&gt;Node14 -->
<g id="edge16" class="edge"><title>Node8&#45;&gt;Node14</title>
<path fill="none" stroke="midnightblue" d="M1189.87,-197.411C1133.43,-188.786 1049.11,-175.437 976,-162 973.155,-161.477 970.246,-160.929 967.309,-160.366"/>
<polygon fill="midnightblue" stroke="midnightblue" points="1189.66,-200.92 1200.07,-198.966 1190.71,-194 1189.66,-200.92"/>
</g>
<!-- Node16 -->
<g id="node16" class="node"><title>Node16</title>
<g id="a_node16"><a xlink:href="inject__operation_8hpp.html" target="_top" xlink:title="Om header file.">
<polygon fill="none" stroke="black" points="984.85,-133 984.85,-161 1103.15,-161 1103.15,-133 984.85,-133"/>
<text text-anchor="start" x="992.85" y="-149" font-family="Helvetica,sans-Serif" font-size="10.00">om/language/operation</text>
<text text-anchor="middle" x="1044" y="-139" font-family="Helvetica,sans-Serif" font-size="10.00">/inject_operation.hpp</text>
</a>
</g>
</g>
<!-- Node8&#45;&gt;Node16 -->
<g id="edge19" class="edge"><title>Node8&#45;&gt;Node16</title>
<path fill="none" stroke="midnightblue" d="M1215.33,-196.136C1180.1,-186.238 1128,-171.601 1090.51,-161.067"/>
<polygon fill="midnightblue" stroke="midnightblue" points="1214.67,-199.585 1225.24,-198.92 1216.56,-192.846 1214.67,-199.585"/>
</g>
<!-- Node18 -->
<g id="node18" class="node"><title>Node18</title>
<g id="a_node18"><a xlink:href="skip__operation_8hpp.html" target="_top" xlink:title="Om header file.">
<polygon fill="none" stroke="black" points="1120.85,-133 1120.85,-161 1239.15,-161 1239.15,-133 1120.85,-133"/>
<text text-anchor="start" x="1128.85" y="-149" font-family="Helvetica,sans-Serif" font-size="10.00">om/language/operation</text>
<text text-anchor="middle" x="1180" y="-139" font-family="Helvetica,sans-Serif" font-size="10.00">/skip_operation.hpp</text>
</a>
</g>
</g>
<!-- Node8&#45;&gt;Node18 -->
<g id="edge22" class="edge"><title>Node8&#45;&gt;Node18</title>
<path fill="none" stroke="midnightblue" d="M1235.7,-192.407C1223.68,-182.823 1208.09,-170.393 1196.46,-161.121"/>
<polygon fill="midnightblue" stroke="midnightblue" points="1233.71,-195.299 1243.71,-198.796 1238.07,-189.826 1233.71,-195.299"/>
</g>
<!-- Node10 -->
<g id="node10" class="node"><title>Node10</title>
<g id="a_node10"><a xlink:href="evaluation_8cpp.html" target="_top" xlink:title="Om source file.">
<polygon fill="none" stroke="black" points="1257.45,-72 1257.45,-90 1398.55,-90 1398.55,-72 1257.45,-72"/>
<text text-anchor="middle" x="1328" y="-78" font-family="Helvetica,sans-Serif" font-size="10.00">om/language/evaluation.cpp</text>
</a>
</g>
</g>
<!-- Node9&#45;&gt;Node10 -->
<g id="edge10" class="edge"><title>Node9&#45;&gt;Node10</title>
<path fill="none" stroke="midnightblue" d="M1321.84,-127.777C1320.71,-115.421 1321.2,-99.677 1323.3,-90.242"/>
<polygon fill="midnightblue" stroke="midnightblue" points="1318.41,-128.51 1323.33,-137.894 1325.34,-127.492 1318.41,-128.51"/>
</g>
<!-- Node10&#45;&gt;Node9 -->
<g id="edge11" class="edge"><title>Node10&#45;&gt;Node9</title>
<path fill="none" stroke="midnightblue" d="M1334.18,-100.402C1335.29,-112.791 1334.79,-128.52 1332.67,-137.894"/>
<polygon fill="midnightblue" stroke="midnightblue" points="1337.6,-99.6365 1332.7,-90.242 1330.67,-100.641 1337.6,-99.6365"/>
</g>
<!-- Node11&#45;&gt;Node8 -->
<g id="edge13" class="edge"><title>Node11&#45;&gt;Node8</title>
<path fill="none" stroke="midnightblue" d="M1452.18,-158.581C1408.06,-170.176 1334.83,-188.517 1290.74,-198.982"/>
<polygon fill="midnightblue" stroke="midnightblue" points="1453.16,-161.942 1461.93,-156.001 1451.37,-155.175 1453.16,-161.942"/>
</g>
<!-- Node13 -->
<g id="node13" class="node"><title>Node13</title>
<g id="a_node13"><a xlink:href="expression__operation_8cpp.html" target="_top" xlink:title="Om source file.">
<polygon fill="none" stroke="black" points="1579.35,-67 1579.35,-95 1712.65,-95 1712.65,-67 1579.35,-67"/>
<text text-anchor="start" x="1587.35" y="-83" font-family="Helvetica,sans-Serif" font-size="10.00">om/language/operation</text>
<text text-anchor="middle" x="1646" y="-73" font-family="Helvetica,sans-Serif" font-size="10.00">/expression_operation.cpp</text>
</a>
</g>
</g>
<!-- Node12&#45;&gt;Node13 -->
<g id="edge15" class="edge"><title>Node12&#45;&gt;Node13</title>
<path fill="none" stroke="midnightblue" d="M1646,-122.595C1646,-113.379 1646,-103.135 1646,-95.2439"/>
<polygon fill="midnightblue" stroke="midnightblue" points="1642.5,-122.739 1646,-132.739 1649.5,-122.739 1642.5,-122.739"/>
</g>
<!-- Node15 -->
<g id="node15" class="node"><title>Node15</title>
<g id="a_node15"><a xlink:href="fill__operation_8cpp.html" target="_top" xlink:title="Om source file.">
<polygon fill="none" stroke="black" points="848.85,-67 848.85,-95 967.15,-95 967.15,-67 848.85,-67"/>
<text text-anchor="start" x="856.85" y="-83" font-family="Helvetica,sans-Serif" font-size="10.00">om/language/operation</text>
<text text-anchor="middle" x="908" y="-73" font-family="Helvetica,sans-Serif" font-size="10.00">/fill_operation.cpp</text>
</a>
</g>
</g>
<!-- Node14&#45;&gt;Node15 -->
<g id="edge17" class="edge"><title>Node14&#45;&gt;Node15</title>
<path fill="none" stroke="midnightblue" d="M901.471,-122.595C900.986,-113.379 901.299,-103.135 902.41,-95.2439"/>
<polygon fill="midnightblue" stroke="midnightblue" points="898.003,-123.103 902.407,-132.739 904.974,-122.46 898.003,-123.103"/>
</g>
<!-- Node15&#45;&gt;Node14 -->
<g id="edge18" class="edge"><title>Node15&#45;&gt;Node14</title>
<path fill="none" stroke="midnightblue" d="M914.528,-105.386C915.014,-114.6 914.702,-124.844 913.593,-132.739"/>
<polygon fill="midnightblue" stroke="midnightblue" points="917.996,-104.879 913.59,-95.2439 911.026,-105.524 917.996,-104.879"/>
</g>
<!-- Node17 -->
<g id="node17" class="node"><title>Node17</title>
<g id="a_node17"><a xlink:href="inject__operation_8cpp.html" target="_top" xlink:title="Om source file.">
<polygon fill="none" stroke="black" points="984.85,-67 984.85,-95 1103.15,-95 1103.15,-67 984.85,-67"/>
<text text-anchor="start" x="992.85" y="-83" font-family="Helvetica,sans-Serif" font-size="10.00">om/language/operation</text>
<text text-anchor="middle" x="1044" y="-73" font-family="Helvetica,sans-Serif" font-size="10.00">/inject_operation.cpp</text>
</a>
</g>
</g>
<!-- Node16&#45;&gt;Node17 -->
<g id="edge20" class="edge"><title>Node16&#45;&gt;Node17</title>
<path fill="none" stroke="midnightblue" d="M1037.47,-122.595C1036.99,-113.379 1037.3,-103.135 1038.41,-95.2439"/>
<polygon fill="midnightblue" stroke="midnightblue" points="1034,-123.103 1038.41,-132.739 1040.97,-122.46 1034,-123.103"/>
</g>
<!-- Node17&#45;&gt;Node16 -->
<g id="edge21" class="edge"><title>Node17&#45;&gt;Node16</title>
<path fill="none" stroke="midnightblue" d="M1050.53,-105.386C1051.01,-114.6 1050.7,-124.844 1049.59,-132.739"/>
<polygon fill="midnightblue" stroke="midnightblue" points="1054,-104.879 1049.59,-95.2439 1047.03,-105.524 1054,-104.879"/>
</g>
<!-- Node19 -->
<g id="node19" class="node"><title>Node19</title>
<g id="a_node19"><a xlink:href="skip__operation_8cpp.html" target="_top" xlink:title="Om source file.">
<polygon fill="none" stroke="black" points="1120.85,-67 1120.85,-95 1239.15,-95 1239.15,-67 1120.85,-67"/>
<text text-anchor="start" x="1128.85" y="-83" font-family="Helvetica,sans-Serif" font-size="10.00">om/language/operation</text>
<text text-anchor="middle" x="1180" y="-73" font-family="Helvetica,sans-Serif" font-size="10.00">/skip_operation.cpp</text>
</a>
</g>
</g>
<!-- Node18&#45;&gt;Node19 -->
<g id="edge23" class="edge"><title>Node18&#45;&gt;Node19</title>
<path fill="none" stroke="midnightblue" d="M1173.47,-122.595C1172.99,-113.379 1173.3,-103.135 1174.41,-95.2439"/>
<polygon fill="midnightblue" stroke="midnightblue" points="1170,-123.103 1174.41,-132.739 1176.97,-122.46 1170,-123.103"/>
</g>
<!-- Node19&#45;&gt;Node18 -->
<g id="edge24" class="edge"><title>Node19&#45;&gt;Node18</title>
<path fill="none" stroke="midnightblue" d="M1186.53,-105.386C1187.01,-114.6 1186.7,-124.844 1185.59,-132.739"/>
<polygon fill="midnightblue" stroke="midnightblue" points="1190,-104.879 1185.59,-95.2439 1183.03,-105.524 1190,-104.879"/>
</g>
<!-- Node20&#45;&gt;Node7 -->
<g id="edge26" class="edge"><title>Node20&#45;&gt;Node7</title>
<path fill="none" stroke="midnightblue" d="M1387.63,-223.943C1375.11,-233.908 1357.3,-246.631 1344.25,-254.799"/>
<polygon fill="midnightblue" stroke="midnightblue" points="1390.21,-226.353 1395.68,-217.279 1385.75,-220.961 1390.21,-226.353"/>
</g>
<!-- Node21&#45;&gt;Node6 -->
<g id="edge28" class="edge"><title>Node21&#45;&gt;Node6</title>
<path fill="none" stroke="midnightblue" d="M783.54,-279.627C797.112,-291.035 813.225,-306.462 821.085,-315.796"/>
<polygon fill="midnightblue" stroke="midnightblue" points="785.49,-276.703 775.515,-273.134 781.087,-282.145 785.49,-276.703"/>
</g>
<!-- Node23 -->
<g id="node23" class="node"><title>Node23</title>
<g id="a_node23"><a xlink:href="lexicon_8hpp.html" target="_top" xlink:title="Om header file.">
<polygon fill="none" stroke="black" points="420.404,-199 420.404,-217 547.596,-217 547.596,-199 420.404,-199"/>
<text text-anchor="middle" x="484" y="-205" font-family="Helvetica,sans-Serif" font-size="10.00">om/language/lexicon.hpp</text>
</a>
</g>
</g>
<!-- Node22&#45;&gt;Node23 -->
<g id="edge30" class="edge"><title>Node22&#45;&gt;Node23</title>
<path fill="none" stroke="midnightblue" d="M835.654,-253.832C728.884,-239.673 616.376,-225.487 547.797,-216.923"/>
<polygon fill="midnightblue" stroke="midnightblue" points="835.261,-257.31 845.635,-255.158 836.183,-250.371 835.261,-257.31"/>
</g>
<!-- Node31 -->
<g id="node31" class="node"><title>Node31</title>
<g id="a_node31"><a xlink:href="pair_8cpp.html" target="_top" xlink:title="Om source file.">
<polygon fill="none" stroke="black" points="846.185,-199 846.185,-217 957.815,-217 957.815,-199 846.185,-199"/>
<text text-anchor="middle" x="902" y="-205" font-family="Helvetica,sans-Serif" font-size="10.00">om/language/pair.cpp</text>
</a>
</g>
</g>
<!-- Node22&#45;&gt;Node31 -->
<g id="edge41" class="edge"><title>Node22&#45;&gt;Node31</title>
<path fill="none" stroke="midnightblue" d="M895.567,-244.633C894.861,-235.313 895.335,-224.459 896.991,-217.201"/>
<polygon fill="midnightblue" stroke="midnightblue" points="892.103,-245.135 896.938,-254.562 899.037,-244.178 892.103,-245.135"/>
</g>
<!-- Node24 -->
<g id="node24" class="node"><title>Node24</title>
<g id="a_node24"><a xlink:href="lexicon_8cpp.html" target="_top" xlink:title="Om source file.">
<polygon fill="none" stroke="black" points="280.685,-138 280.685,-156 407.315,-156 407.315,-138 280.685,-138"/>
<text text-anchor="middle" x="344" y="-144" font-family="Helvetica,sans-Serif" font-size="10.00">om/language/lexicon.cpp</text>
</a>
</g>
</g>
<!-- Node23&#45;&gt;Node24 -->
<g id="edge31" class="edge"><title>Node23&#45;&gt;Node24</title>
<path fill="none" stroke="midnightblue" d="M450.568,-195.237C421.274,-183.668 380.312,-166.31 358.553,-156.172"/>
<polygon fill="midnightblue" stroke="midnightblue" points="449.422,-198.547 460.01,-198.92 451.966,-192.026 449.422,-198.547"/>
</g>
<!-- Node25 -->
<g id="node25" class="node"><title>Node25</title>
<g id="a_node25"><a xlink:href="lexicon__operation_8hpp.html" target="_top" xlink:title="Om header file.">
<polygon fill="none" stroke="black" points="424.85,-133 424.85,-161 543.15,-161 543.15,-133 424.85,-133"/>
<text text-anchor="start" x="432.85" y="-149" font-family="Helvetica,sans-Serif" font-size="10.00">om/language/operation</text>
<text text-anchor="middle" x="484" y="-139" font-family="Helvetica,sans-Serif" font-size="10.00">/lexicon_operation.hpp</text>
</a>
</g>
</g>
<!-- Node23&#45;&gt;Node25 -->
<g id="edge33" class="edge"><title>Node23&#45;&gt;Node25</title>
<path fill="none" stroke="midnightblue" d="M484,-188.654C484,-179.736 484,-169.222 484,-161.121"/>
<polygon fill="midnightblue" stroke="midnightblue" points="480.5,-188.796 484,-198.796 487.5,-188.796 480.5,-188.796"/>
</g>
<!-- Node27 -->
<g id="node27" class="node"><title>Node27</title>
<g id="a_node27"><a xlink:href="translate__operation_8hpp.html" target="_top" xlink:title="Om header file.">
<polygon fill="none" stroke="black" points="561.072,-133 561.072,-161 684.928,-161 684.928,-133 561.072,-133"/>
<text text-anchor="start" x="569.072" y="-149" font-family="Helvetica,sans-Serif" font-size="10.00">om/language/operation</text>
<text text-anchor="middle" x="623" y="-139" font-family="Helvetica,sans-Serif" font-size="10.00">/translate_operation.hpp</text>
</a>
</g>
</g>
<!-- Node23&#45;&gt;Node27 -->
<g id="edge35" class="edge"><title>Node23&#45;&gt;Node27</title>
<path fill="none" stroke="midnightblue" d="M512.346,-194.968C535.563,-185.114 568.357,-171.194 592.214,-161.067"/>
<polygon fill="midnightblue" stroke="midnightblue" points="510.873,-191.791 503.036,-198.92 513.609,-198.235 510.873,-191.791"/>
</g>
<!-- Node24&#45;&gt;Node23 -->
<g id="edge32" class="edge"><title>Node24&#45;&gt;Node23</title>
<path fill="none" stroke="midnightblue" d="M377.698,-159.868C407.063,-171.472 448.001,-188.826 469.644,-198.92"/>
<polygon fill="midnightblue" stroke="midnightblue" points="378.816,-156.547 368.228,-156.172 376.271,-163.068 378.816,-156.547"/>
</g>
<!-- Node26 -->
<g id="node26" class="node"><title>Node26</title>
<g id="a_node26"><a xlink:href="lexicon__operation_8cpp.html" target="_top" xlink:title="Om source file.">
<polygon fill="none" stroke="black" points="424.85,-67 424.85,-95 543.15,-95 543.15,-67 424.85,-67"/>
<text text-anchor="start" x="432.85" y="-83" font-family="Helvetica,sans-Serif" font-size="10.00">om/language/operation</text>
<text text-anchor="middle" x="484" y="-73" font-family="Helvetica,sans-Serif" font-size="10.00">/lexicon_operation.cpp</text>
</a>
</g>
</g>
<!-- Node25&#45;&gt;Node26 -->
<g id="edge34" class="edge"><title>Node25&#45;&gt;Node26</title>
<path fill="none" stroke="midnightblue" d="M484,-122.595C484,-113.379 484,-103.135 484,-95.2439"/>
<polygon fill="midnightblue" stroke="midnightblue" points="480.5,-122.739 484,-132.739 487.5,-122.739 480.5,-122.739"/>
</g>
<!-- Node28 -->
<g id="node28" class="node"><title>Node28</title>
<g id="a_node28"><a xlink:href="substitute__operation_8hpp.html" target="_top" xlink:title="Om header file.">
<polygon fill="none" stroke="black" points="702.848,-67 702.848,-95 831.152,-95 831.152,-67 702.848,-67"/>
<text text-anchor="start" x="710.848" y="-83" font-family="Helvetica,sans-Serif" font-size="10.00">om/language/operation</text>
<text text-anchor="middle" x="767" y="-73" font-family="Helvetica,sans-Serif" font-size="10.00">/substitute_operation.hpp</text>
</a>
</g>
</g>
<!-- Node27&#45;&gt;Node28 -->
<g id="edge36" class="edge"><title>Node27&#45;&gt;Node28</title>
<path fill="none" stroke="midnightblue" d="M661.941,-128.693C685.751,-118.111 715.721,-104.791 737.551,-95.0883"/>
<polygon fill="midnightblue" stroke="midnightblue" points="660.205,-125.634 652.488,-132.894 663.048,-132.031 660.205,-125.634"/>
</g>
<!-- Node30 -->
<g id="node30" class="node"><title>Node30</title>
<g id="a_node30"><a xlink:href="translate__operation_8cpp.html" target="_top" xlink:title="Om source file.">
<polygon fill="none" stroke="black" points="561.353,-67 561.353,-95 684.647,-95 684.647,-67 561.353,-67"/>
<text text-anchor="start" x="569.353" y="-83" font-family="Helvetica,sans-Serif" font-size="10.00">om/language/operation</text>
<text text-anchor="middle" x="623" y="-73" font-family="Helvetica,sans-Serif" font-size="10.00">/translate_operation.cpp</text>
</a>
</g>
</g>
<!-- Node27&#45;&gt;Node30 -->
<g id="edge39" class="edge"><title>Node27&#45;&gt;Node30</title>
<path fill="none" stroke="midnightblue" d="M616.471,-122.595C615.986,-113.379 616.299,-103.135 617.41,-95.2439"/>
<polygon fill="midnightblue" stroke="midnightblue" points="613.003,-123.103 617.407,-132.739 619.974,-122.46 613.003,-123.103"/>
</g>
<!-- Node29 -->
<g id="node29" class="node"><title>Node29</title>
<g id="a_node29"><a xlink:href="substitute__operation_8cpp.html" target="_top" xlink:title="Om source file.">
<polygon fill="none" stroke="black" points="703.128,-1 703.128,-29 830.872,-29 830.872,-1 703.128,-1"/>
<text text-anchor="start" x="711.128" y="-17" font-family="Helvetica,sans-Serif" font-size="10.00">om/language/operation</text>
<text text-anchor="middle" x="767" y="-7" font-family="Helvetica,sans-Serif" font-size="10.00">/substitute_operation.cpp</text>
</a>
</g>
</g>
<!-- Node28&#45;&gt;Node29 -->
<g id="edge37" class="edge"><title>Node28&#45;&gt;Node29</title>
<path fill="none" stroke="midnightblue" d="M760.471,-56.5946C759.986,-47.3785 760.299,-37.1352 761.41,-29.2439"/>
<polygon fill="midnightblue" stroke="midnightblue" points="757.003,-57.1031 761.407,-66.7392 763.974,-56.4598 757.003,-57.1031"/>
</g>
<!-- Node29&#45;&gt;Node28 -->
<g id="edge38" class="edge"><title>Node29&#45;&gt;Node28</title>
<path fill="none" stroke="midnightblue" d="M773.528,-39.3855C774.014,-48.6002 773.702,-58.8444 772.593,-66.7392"/>
<polygon fill="midnightblue" stroke="midnightblue" points="776.996,-38.8792 772.59,-29.2439 770.026,-39.5236 776.996,-38.8792"/>
</g>
<!-- Node30&#45;&gt;Node27 -->
<g id="edge40" class="edge"><title>Node30&#45;&gt;Node27</title>
<path fill="none" stroke="midnightblue" d="M629.528,-105.386C630.014,-114.6 629.702,-124.844 628.593,-132.739"/>
<polygon fill="midnightblue" stroke="midnightblue" points="632.996,-104.879 628.59,-95.2439 626.026,-105.524 632.996,-104.879"/>
</g>
<!-- Node31&#45;&gt;Node22 -->
<g id="edge42" class="edge"><title>Node31&#45;&gt;Node22</title>
<path fill="none" stroke="midnightblue" d="M908.434,-227.369C909.132,-236.588 908.675,-247.308 907.062,-254.562"/>
<polygon fill="midnightblue" stroke="midnightblue" points="911.863,-226.619 907.009,-217.201 904.931,-227.59 911.863,-226.619"/>
</g>
<!-- Node33 -->
<g id="node33" class="node"><title>Node33</title>
<g id="a_node33"><a xlink:href="separator_8cpp.html" target="_top" xlink:title="Om source file.">
<polygon fill="none" stroke="black" points="478.399,-255 478.399,-273 615.601,-273 615.601,-255 478.399,-255"/>
<text text-anchor="middle" x="547" y="-261" font-family="Helvetica,sans-Serif" font-size="10.00">om/language/separator.cpp</text>
</a>
</g>
</g>
<!-- Node32&#45;&gt;Node33 -->
<g id="edge44" class="edge"><title>Node32&#45;&gt;Node33</title>
<path fill="none" stroke="midnightblue" d="M540.695,-305.612C539.782,-294.725 540.274,-281.473 542.171,-273.134"/>
<polygon fill="midnightblue" stroke="midnightblue" points="537.271,-306.394 542.155,-315.796 544.2,-305.401 537.271,-306.394"/>
</g>
<!-- Node33&#45;&gt;Node32 -->
<g id="edge45" class="edge"><title>Node33&#45;&gt;Node32</title>
<path fill="none" stroke="midnightblue" d="M553.297,-283.297C554.218,-294.171 553.734,-307.43 551.845,-315.796"/>
<polygon fill="midnightblue" stroke="midnightblue" points="556.723,-282.531 551.829,-273.134 549.795,-283.532 556.723,-282.531"/>
</g>
<!-- Node34&#45;&gt;Node3 -->
<g id="edge47" class="edge"><title>Node34&#45;&gt;Node3</title>
<path fill="none" stroke="midnightblue" d="M347.528,-415.386C348.014,-424.6 347.702,-434.844 346.593,-442.739"/>
<polygon fill="midnightblue" stroke="midnightblue" points="350.996,-414.879 346.59,-405.244 344.026,-415.524 350.996,-414.879"/>
</g>
<!-- Node36 -->
<g id="node36" class="node"><title>Node36</title>
<g id="a_node36"><a xlink:href="null_8cpp.html" target="_top" xlink:title="Om source file.">
<polygon fill="none" stroke="black" points="349.466,-316 349.466,-334 460.534,-334 460.534,-316 349.466,-316"/>
<text text-anchor="middle" x="405" y="-322" font-family="Helvetica,sans-Serif" font-size="10.00">om/language/null.cpp</text>
</a>
</g>
</g>
<!-- Node35&#45;&gt;Node36 -->
<g id="edge49" class="edge"><title>Node35&#45;&gt;Node36</title>
<path fill="none" stroke="midnightblue" d="M447.512,-375.088C433.436,-362.366 416.261,-344.544 408.41,-334.242"/>
<polygon fill="midnightblue" stroke="midnightblue" points="445.503,-377.979 455.348,-381.894 450.093,-372.694 445.503,-377.979"/>
</g>
<!-- Node36&#45;&gt;Node35 -->
<g id="edge50" class="edge"><title>Node36&#45;&gt;Node35</title>
<path fill="none" stroke="midnightblue" d="M425.675,-341.081C439.778,-353.848 456.926,-371.66 464.694,-381.894"/>
<polygon fill="midnightblue" stroke="midnightblue" points="427.658,-338.167 417.817,-334.242 423.062,-343.447 427.658,-338.167"/>
</g>
<!-- Node38 -->
<g id="node38" class="node"><title>Node38</title>
<g id="a_node38"><a xlink:href="operand_8cpp.html" target="_top" xlink:title="Om source file.">
<polygon fill="none" stroke="black" points="136.899,-316 136.899,-334 269.101,-334 269.101,-316 136.899,-316"/>
<text text-anchor="middle" x="203" y="-322" font-family="Helvetica,sans-Serif" font-size="10.00">om/language/operand.cpp</text>
</a>
</g>
</g>
<!-- Node37&#45;&gt;Node38 -->
<g id="edge52" class="edge"><title>Node37&#45;&gt;Node38</title>
<path fill="none" stroke="midnightblue" d="M196.84,-371.777C195.714,-359.421 196.2,-343.677 198.296,-334.242"/>
<polygon fill="midnightblue" stroke="midnightblue" points="193.41,-372.51 198.327,-381.894 200.336,-371.492 193.41,-372.51"/>
</g>
<!-- Node38&#45;&gt;Node37 -->
<g id="edge53" class="edge"><title>Node38&#45;&gt;Node37</title>
<path fill="none" stroke="midnightblue" d="M209.176,-344.402C210.286,-356.791 209.785,-372.52 207.673,-381.894"/>
<polygon fill="midnightblue" stroke="midnightblue" points="212.602,-343.637 207.704,-334.242 205.674,-344.641 212.602,-343.637"/>
</g>
<!-- Node39&#45;&gt;Node2 -->
<g id="edge55" class="edge"><title>Node39&#45;&gt;Node2</title>
<path fill="none" stroke="midnightblue" d="M472.528,-481.386C473.014,-490.6 472.702,-500.844 471.593,-508.739"/>
<polygon fill="midnightblue" stroke="midnightblue" points="475.996,-480.879 471.59,-471.244 469.026,-481.524 475.996,-480.879"/>
</g>
<!-- Node41 -->
<g id="node41" class="node"><title>Node41</title>
<g id="a_node41"><a xlink:href="literal_8cpp.html" target="_top" xlink:title="Om source file.">
<polygon fill="none" stroke="black" points="-0.699219,-382 -0.699219,-400 118.699,-400 118.699,-382 -0.699219,-382"/>
<text text-anchor="middle" x="59" y="-388" font-family="Helvetica,sans-Serif" font-size="10.00">om/language/literal.cpp</text>
</a>
</g>
</g>
<!-- Node40&#45;&gt;Node41 -->
<g id="edge57" class="edge"><title>Node40&#45;&gt;Node41</title>
<path fill="none" stroke="midnightblue" d="M52.84,-437.777C51.7142,-425.421 52.1996,-409.677 54.2963,-400.242"/>
<polygon fill="midnightblue" stroke="midnightblue" points="49.4099,-438.51 54.3268,-447.894 56.3355,-437.492 49.4099,-438.51"/>
</g>
<!-- Node41&#45;&gt;Node40 -->
<g id="edge58" class="edge"><title>Node41&#45;&gt;Node40</title>
<path fill="none" stroke="midnightblue" d="M65.1763,-410.402C66.2865,-422.791 65.7855,-438.52 63.6732,-447.894"/>
<polygon fill="midnightblue" stroke="midnightblue" points="68.6019,-409.637 63.7037,-400.242 61.6743,-410.641 68.6019,-409.637"/>
</g>
<!-- Node43 -->
<g id="node43" class="node"><title>Node43</title>
<g id="a_node43"><a xlink:href="atom_8hpp.html" target="_top" xlink:title="Om header file.">
<polygon fill="none" stroke="black" points="707.853,-448 707.853,-466 826.147,-466 826.147,-448 707.853,-448"/>
<text text-anchor="middle" x="767" y="-454" font-family="Helvetica,sans-Serif" font-size="10.00">om/language/atom.hpp</text>
</a>
</g>
</g>
<!-- Node42&#45;&gt;Node43 -->
<g id="edge60" class="edge"><title>Node42&#45;&gt;Node43</title>
<path fill="none" stroke="midnightblue" d="M647.959,-509.827C677.491,-496.97 723.21,-477.065 748.534,-466.04"/>
<polygon fill="midnightblue" stroke="midnightblue" points="646.389,-506.693 638.618,-513.894 649.184,-513.112 646.389,-506.693"/>
</g>
<!-- Node45 -->
<g id="node45" class="node"><title>Node45</title>
<g id="a_node45"><a xlink:href="element_8cpp.html" target="_top" xlink:title="Om source file.">
<polygon fill="none" stroke="black" points="554.461,-448 554.461,-466 685.539,-466 685.539,-448 554.461,-448"/>
<text text-anchor="middle" x="620" y="-454" font-family="Helvetica,sans-Serif" font-size="10.00">om/language/element.cpp</text>
</a>
</g>
</g>
<!-- Node42&#45;&gt;Node45 -->
<g id="edge64" class="edge"><title>Node42&#45;&gt;Node45</title>
<path fill="none" stroke="midnightblue" d="M613.84,-503.777C612.714,-491.421 613.2,-475.677 615.296,-466.242"/>
<polygon fill="midnightblue" stroke="midnightblue" points="610.41,-504.51 615.327,-513.894 617.336,-503.492 610.41,-504.51"/>
</g>
<!-- Node43&#45;&gt;Node4 -->
<g id="edge63" class="edge"><title>Node43&#45;&gt;Node4</title>
<path fill="none" stroke="midnightblue" d="M746.223,-442.291C729.568,-431.303 706.347,-415.981 689.922,-405.144"/>
<polygon fill="midnightblue" stroke="midnightblue" points="744.44,-445.309 754.715,-447.894 748.296,-439.466 744.44,-445.309"/>
</g>
<!-- Node44 -->
<g id="node44" class="node"><title>Node44</title>
<g id="a_node44"><a xlink:href="atom_8cpp.html" target="_top" xlink:title="Om source file.">
<polygon fill="none" stroke="black" points="741.133,-382 741.133,-400 858.867,-400 858.867,-382 741.133,-382"/>
<text text-anchor="middle" x="800" y="-388" font-family="Helvetica,sans-Serif" font-size="10.00">om/language/atom.cpp</text>
</a>
</g>
</g>
<!-- Node43&#45;&gt;Node44 -->
<g id="edge61" class="edge"><title>Node43&#45;&gt;Node44</title>
<path fill="none" stroke="midnightblue" d="M770.077,-438.154C775.306,-425.743 784.014,-409.773 791.047,-400.242"/>
<polygon fill="midnightblue" stroke="midnightblue" points="766.662,-437.301 766.506,-447.894 773.234,-439.71 766.662,-437.301"/>
</g>
<!-- Node44&#45;&gt;Node43 -->
<g id="edge62" class="edge"><title>Node44&#45;&gt;Node43</title>
<path fill="none" stroke="midnightblue" d="M797.007,-409.648C791.762,-422.146 782.94,-438.329 775.853,-447.894"/>
<polygon fill="midnightblue" stroke="midnightblue" points="800.299,-410.836 800.454,-400.242 793.726,-408.427 800.299,-410.836"/>
</g>
<!-- Node45&#45;&gt;Node42 -->
<g id="edge65" class="edge"><title>Node45&#45;&gt;Node42</title>
<path fill="none" stroke="midnightblue" d="M626.176,-476.402C627.286,-488.791 626.785,-504.52 624.673,-513.894"/>
<polygon fill="midnightblue" stroke="midnightblue" points="629.602,-475.637 624.704,-466.242 622.674,-476.641 629.602,-475.637"/>
</g>
<!-- Node46&#45;&gt;Node1 -->
<g id="edge67" class="edge"><title>Node46&#45;&gt;Node1</title>
<path fill="none" stroke="midnightblue" d="M756.954,-538.951C743.84,-550.326 724.116,-565.55 710.273,-574.796"/>
<polygon fill="midnightblue" stroke="midnightblue" points="759.422,-541.438 764.489,-532.134 754.726,-536.248 759.422,-541.438"/>
</g>
</g>
</svg>
