<?xml version="1.0" encoding="UTF-8" standalone="no"?>
<!DOCTYPE svg PUBLIC "-//W3C//DTD SVG 1.1//EN"
 "http://www.w3.org/Graphics/SVG/1.1/DTD/svg11.dtd">
<!-- Generated by graphviz version 2.30.1 (20130221.2233)
 -->
<!-- Title: om/operations/program_operation.cpp Pages: 1 -->
<svg width="686pt" height="252pt"
 viewBox="0.00 0.00 686.00 252.00" xmlns="http://www.w3.org/2000/svg" xmlns:xlink="http://www.w3.org/1999/xlink">
<g id="graph0" class="graph" transform="scale(1 1) rotate(0) translate(4 248)">
<title>om/operations/program_operation.cpp</title>
<!-- Node1 -->
<g id="node1" class="node"><title>Node1</title>
<polygon fill="#bfbfbf" stroke="black" points="279.308,-211 279.308,-243 398.692,-243 398.692,-211 279.308,-211"/>
<text text-anchor="start" x="287.308" y="-229" font-family="Helvetica,sans-Serif" font-size="10.00">om/operations/program</text>
<text text-anchor="middle" x="339" y="-217" font-family="Helvetica,sans-Serif" font-size="10.00">_operation.cpp</text>
</g>
<!-- Node2 -->
<g id="node2" class="node"><title>Node2</title>
<g id="a_node2"><a xlink:href="program__operation_8hpp.html" target="_top" xlink:title="Om header file.">
<polygon fill="none" stroke="black" points="279.308,-141 279.308,-173 398.692,-173 398.692,-141 279.308,-141"/>
<text text-anchor="start" x="287.308" y="-159" font-family="Helvetica,sans-Serif" font-size="10.00">om/operations/program</text>
<text text-anchor="middle" x="339" y="-147" font-family="Helvetica,sans-Serif" font-size="10.00">_operation.hpp</text>
</a>
</g>
</g>
<!-- Node1&#45;&gt;Node2 -->
<g id="edge1" class="edge"><title>Node1&#45;&gt;Node2</title>
<path fill="none" stroke="midnightblue" d="M332.461,-200.92C332.009,-191.56 332.284,-181.229 333.285,-173.049"/>
<polygon fill="midnightblue" stroke="midnightblue" points="328.974,-201.228 333.28,-210.909 335.951,-200.656 328.974,-201.228"/>
</g>
<!-- Node3 -->
<g id="node3" class="node"><title>Node3</title>
<g id="a_node3"><a xlink:href="expression__operation_8hpp.html" target="_top" xlink:title="Om header file.">
<polygon fill="none" stroke="black" points="-0.253418,-71 -0.253418,-103 130.253,-103 130.253,-71 -0.253418,-71"/>
<text text-anchor="start" x="7.74658" y="-89" font-family="Helvetica,sans-Serif" font-size="10.00">om/operations/expression</text>
<text text-anchor="middle" x="65" y="-77" font-family="Helvetica,sans-Serif" font-size="10.00">_operation.hpp</text>
</a>
</g>
</g>
<!-- Node2&#45;&gt;Node3 -->
<g id="edge2" class="edge"><title>Node2&#45;&gt;Node3</title>
<path fill="none" stroke="midnightblue" d="M269.37,-138.72C225.011,-127.711 168.105,-113.588 125.611,-103.042"/>
<polygon fill="midnightblue" stroke="midnightblue" points="268.659,-142.149 279.208,-141.161 270.346,-135.355 268.659,-142.149"/>
</g>
<!-- Node5 -->
<g id="node5" class="node"><title>Node5</title>
<g id="a_node5"><a xlink:href="lexicon__operation_8hpp.html" target="_top" xlink:title="Om header file.">
<polygon fill="none" stroke="black" points="148.362,-71 148.362,-103 261.638,-103 261.638,-71 148.362,-71"/>
<text text-anchor="start" x="156.362" y="-89" font-family="Helvetica,sans-Serif" font-size="10.00">om/operations/lexicon</text>
<text text-anchor="middle" x="205" y="-77" font-family="Helvetica,sans-Serif" font-size="10.00">_operation.hpp</text>
</a>
</g>
</g>
<!-- Node2&#45;&gt;Node5 -->
<g id="edge4" class="edge"><title>Node2&#45;&gt;Node5</title>
<path fill="none" stroke="midnightblue" d="M300.309,-136.366C279.399,-125.755 253.982,-112.857 234.656,-103.049"/>
<polygon fill="midnightblue" stroke="midnightblue" points="298.76,-139.504 309.261,-140.909 301.927,-133.262 298.76,-139.504"/>
</g>
<!-- Node7 -->
<g id="node7" class="node"><title>Node7</title>
<g id="a_node7"><a xlink:href="operand__operation_8hpp.html" target="_top" xlink:title="Om header file.">
<polygon fill="none" stroke="black" points="279.577,-71 279.577,-103 398.423,-103 398.423,-71 279.577,-71"/>
<text text-anchor="start" x="287.577" y="-89" font-family="Helvetica,sans-Serif" font-size="10.00">om/operations/operand</text>
<text text-anchor="middle" x="339" y="-77" font-family="Helvetica,sans-Serif" font-size="10.00">_operation.hpp</text>
</a>
</g>
</g>
<!-- Node2&#45;&gt;Node7 -->
<g id="edge6" class="edge"><title>Node2&#45;&gt;Node7</title>
<path fill="none" stroke="midnightblue" d="M339,-130.617C339,-121.338 339,-111.141 339,-103.049"/>
<polygon fill="midnightblue" stroke="midnightblue" points="335.5,-130.909 339,-140.909 342.5,-130.909 335.5,-130.909"/>
</g>
<!-- Node9 -->
<g id="node9" class="node"><title>Node9</title>
<g id="a_node9"><a xlink:href="operator__operation_8hpp.html" target="_top" xlink:title="Om header file.">
<polygon fill="none" stroke="black" points="416.303,-71 416.303,-103 535.697,-103 535.697,-71 416.303,-71"/>
<text text-anchor="start" x="424.303" y="-89" font-family="Helvetica,sans-Serif" font-size="10.00">om/operations/operator</text>
<text text-anchor="middle" x="476" y="-77" font-family="Helvetica,sans-Serif" font-size="10.00">_operation.hpp</text>
</a>
</g>
</g>
<!-- Node2&#45;&gt;Node9 -->
<g id="edge8" class="edge"><title>Node2&#45;&gt;Node9</title>
<path fill="none" stroke="midnightblue" d="M378.557,-136.366C399.935,-125.755 425.921,-112.857 445.68,-103.049"/>
<polygon fill="midnightblue" stroke="midnightblue" points="376.806,-133.328 369.405,-140.909 379.918,-139.598 376.806,-133.328"/>
</g>
<!-- Node2&#45;&gt;Node1 -->
<g id="edge10" class="edge"><title>Node2&#45;&gt;Node1</title>
<path fill="none" stroke="midnightblue" d="M345.537,-183.032C345.991,-192.389 345.719,-202.721 344.72,-210.909"/>
<polygon fill="midnightblue" stroke="midnightblue" points="349.024,-182.728 344.715,-173.049 342.047,-183.303 349.024,-182.728"/>
</g>
<!-- Node11 -->
<g id="node11" class="node"><title>Node11</title>
<g id="a_node11"><a xlink:href="separator__operation_8hpp.html" target="_top" xlink:title="Om header file.">
<polygon fill="none" stroke="black" points="553.803,-71 553.803,-103 678.197,-103 678.197,-71 553.803,-71"/>
<text text-anchor="start" x="561.803" y="-89" font-family="Helvetica,sans-Serif" font-size="10.00">om/operations/separator</text>
<text text-anchor="middle" x="616" y="-77" font-family="Helvetica,sans-Serif" font-size="10.00">_operation.hpp</text>
</a>
</g>
</g>
<!-- Node2&#45;&gt;Node11 -->
<g id="edge11" class="edge"><title>Node2&#45;&gt;Node11</title>
<path fill="none" stroke="midnightblue" d="M408.704,-138.888C453.544,-127.881 511.279,-113.708 554.426,-103.116"/>
<polygon fill="midnightblue" stroke="midnightblue" points="407.641,-135.545 398.764,-141.329 409.31,-142.344 407.641,-135.545"/>
</g>
<!-- Node4 -->
<g id="node4" class="node"><title>Node4</title>
<g id="a_node4"><a xlink:href="expression__operation_8cpp.html" target="_top" xlink:title="Om source file.">
<polygon fill="none" stroke="black" points="-0.253418,-1 -0.253418,-33 130.253,-33 130.253,-1 -0.253418,-1"/>
<text text-anchor="start" x="7.74658" y="-19" font-family="Helvetica,sans-Serif" font-size="10.00">om/operations/expression</text>
<text text-anchor="middle" x="65" y="-7" font-family="Helvetica,sans-Serif" font-size="10.00">_operation.cpp</text>
</a>
</g>
</g>
<!-- Node3&#45;&gt;Node4 -->
<g id="edge3" class="edge"><title>Node3&#45;&gt;Node4</title>
<path fill="none" stroke="midnightblue" d="M65,-60.6174C65,-51.3378 65,-41.1413 65,-33.0492"/>
<polygon fill="midnightblue" stroke="midnightblue" points="61.5001,-60.9086 65,-70.9086 68.5001,-60.9086 61.5001,-60.9086"/>
</g>
<!-- Node6 -->
<g id="node6" class="node"><title>Node6</title>
<g id="a_node6"><a xlink:href="lexicon__operation_8cpp.html" target="_top" xlink:title="Om source file.">
<polygon fill="none" stroke="black" points="148.362,-1 148.362,-33 261.638,-33 261.638,-1 148.362,-1"/>
<text text-anchor="start" x="156.362" y="-19" font-family="Helvetica,sans-Serif" font-size="10.00">om/operations/lexicon</text>
<text text-anchor="middle" x="205" y="-7" font-family="Helvetica,sans-Serif" font-size="10.00">_operation.cpp</text>
</a>
</g>
</g>
<!-- Node5&#45;&gt;Node6 -->
<g id="edge5" class="edge"><title>Node5&#45;&gt;Node6</title>
<path fill="none" stroke="midnightblue" d="M205,-60.6174C205,-51.3378 205,-41.1413 205,-33.0492"/>
<polygon fill="midnightblue" stroke="midnightblue" points="201.5,-60.9086 205,-70.9086 208.5,-60.9086 201.5,-60.9086"/>
</g>
<!-- Node8 -->
<g id="node8" class="node"><title>Node8</title>
<g id="a_node8"><a xlink:href="operand__operation_8cpp.html" target="_top" xlink:title="Om source file.">
<polygon fill="none" stroke="black" points="279.577,-1 279.577,-33 398.423,-33 398.423,-1 279.577,-1"/>
<text text-anchor="start" x="287.577" y="-19" font-family="Helvetica,sans-Serif" font-size="10.00">om/operations/operand</text>
<text text-anchor="middle" x="339" y="-7" font-family="Helvetica,sans-Serif" font-size="10.00">_operation.cpp</text>
</a>
</g>
</g>
<!-- Node7&#45;&gt;Node8 -->
<g id="edge7" class="edge"><title>Node7&#45;&gt;Node8</title>
<path fill="none" stroke="midnightblue" d="M339,-60.6174C339,-51.3378 339,-41.1413 339,-33.0492"/>
<polygon fill="midnightblue" stroke="midnightblue" points="335.5,-60.9086 339,-70.9086 342.5,-60.9086 335.5,-60.9086"/>
</g>
<!-- Node10 -->
<g id="node10" class="node"><title>Node10</title>
<g id="a_node10"><a xlink:href="operator__operation_8cpp.html" target="_top" xlink:title="Om source file.">
<polygon fill="none" stroke="black" points="416.303,-1 416.303,-33 535.697,-33 535.697,-1 416.303,-1"/>
<text text-anchor="start" x="424.303" y="-19" font-family="Helvetica,sans-Serif" font-size="10.00">om/operations/operator</text>
<text text-anchor="middle" x="476" y="-7" font-family="Helvetica,sans-Serif" font-size="10.00">_operation.cpp</text>
</a>
</g>
</g>
<!-- Node9&#45;&gt;Node10 -->
<g id="edge9" class="edge"><title>Node9&#45;&gt;Node10</title>
<path fill="none" stroke="midnightblue" d="M476,-60.6174C476,-51.3378 476,-41.1413 476,-33.0492"/>
<polygon fill="midnightblue" stroke="midnightblue" points="472.5,-60.9086 476,-70.9086 479.5,-60.9086 472.5,-60.9086"/>
</g>
<!-- Node12 -->
<g id="node12" class="node"><title>Node12</title>
<g id="a_node12"><a xlink:href="separator__operation_8cpp.html" target="_top" xlink:title="Om source file.">
<polygon fill="none" stroke="black" points="553.803,-1 553.803,-33 678.197,-33 678.197,-1 553.803,-1"/>
<text text-anchor="start" x="561.803" y="-19" font-family="Helvetica,sans-Serif" font-size="10.00">om/operations/separator</text>
<text text-anchor="middle" x="616" y="-7" font-family="Helvetica,sans-Serif" font-size="10.00">_operation.cpp</text>
</a>
</g>
</g>
<!-- Node11&#45;&gt;Node12 -->
<g id="edge12" class="edge"><title>Node11&#45;&gt;Node12</title>
<path fill="none" stroke="midnightblue" d="M616,-60.6174C616,-51.3378 616,-41.1413 616,-33.0492"/>
<polygon fill="midnightblue" stroke="midnightblue" points="612.5,-60.9086 616,-70.9086 619.5,-60.9086 612.5,-60.9086"/>
</g>
</g>
</svg>
