<?xml version="1.0" encoding="UTF-8" standalone="no"?>
<!DOCTYPE svg PUBLIC "-//W3C//DTD SVG 1.1//EN"
 "http://www.w3.org/Graphics/SVG/1.1/DTD/svg11.dtd">
<!-- Generated by graphviz version 2.30.1 (20130221.2233)
 -->
<!-- Title: code/om/operations/program_operation.cpp Pages: 1 -->
<svg width="700pt" height="252pt"
 viewBox="0.00 0.00 700.00 252.00" xmlns="http://www.w3.org/2000/svg" xmlns:xlink="http://www.w3.org/1999/xlink">
<g id="graph0" class="graph" transform="scale(1 1) rotate(0) translate(4 248)">
<title>code/om/operations/program_operation.cpp</title>
<!-- Node1 -->
<g id="node1" class="node"><title>Node1</title>
<polygon fill="#bfbfbf" stroke="black" points="284.912,-211 284.912,-243 407.088,-243 407.088,-211 284.912,-211"/>
<text text-anchor="start" x="292.912" y="-229" font-family="Helvetica,sans-Serif" font-size="10.00">code/om/operations</text>
<text text-anchor="middle" x="346" y="-217" font-family="Helvetica,sans-Serif" font-size="10.00">/program_operation.cpp</text>
</g>
<!-- Node2 -->
<g id="node2" class="node"><title>Node2</title>
<g id="a_node2"><a xlink:href="program__operation_8hpp.html" target="_top" xlink:title="Om header file.">
<polygon fill="none" stroke="black" points="284.631,-141 284.631,-173 407.369,-173 407.369,-141 284.631,-141"/>
<text text-anchor="start" x="292.631" y="-159" font-family="Helvetica,sans-Serif" font-size="10.00">code/om/operations</text>
<text text-anchor="middle" x="346" y="-147" font-family="Helvetica,sans-Serif" font-size="10.00">/program_operation.hpp</text>
</a>
</g>
</g>
<!-- Node1&#45;&gt;Node2 -->
<g id="edge1" class="edge"><title>Node1&#45;&gt;Node2</title>
<path fill="none" stroke="midnightblue" d="M339.461,-200.92C339.009,-191.56 339.284,-181.229 340.285,-173.049"/>
<polygon fill="midnightblue" stroke="midnightblue" points="335.974,-201.228 340.28,-210.909 342.951,-200.656 335.974,-201.228"/>
</g>
<!-- Node3 -->
<g id="node3" class="node"><title>Node3</title>
<g id="a_node3"><a xlink:href="expression__operation_8hpp.html" target="_top" xlink:title="Om header file.">
<polygon fill="none" stroke="black" points="-0.930664,-71 -0.930664,-103 132.931,-103 132.931,-71 -0.930664,-71"/>
<text text-anchor="start" x="7.06934" y="-89" font-family="Helvetica,sans-Serif" font-size="10.00">code/om/operations</text>
<text text-anchor="middle" x="66" y="-77" font-family="Helvetica,sans-Serif" font-size="10.00">/expression_operation.hpp</text>
</a>
</g>
</g>
<!-- Node2&#45;&gt;Node3 -->
<g id="edge2" class="edge"><title>Node2&#45;&gt;Node3</title>
<path fill="none" stroke="midnightblue" d="M274.783,-138.704C229.409,-127.685 171.208,-113.55 127.787,-103.005"/>
<polygon fill="midnightblue" stroke="midnightblue" points="274.009,-142.118 284.553,-141.077 275.661,-135.316 274.009,-142.118"/>
</g>
<!-- Node5 -->
<g id="node5" class="node"><title>Node5</title>
<g id="a_node5"><a xlink:href="lexicon__operation_8hpp.html" target="_top" xlink:title="Om header file.">
<polygon fill="none" stroke="black" points="150.685,-71 150.685,-103 267.315,-103 267.315,-71 150.685,-71"/>
<text text-anchor="start" x="158.685" y="-89" font-family="Helvetica,sans-Serif" font-size="10.00">code/om/operations</text>
<text text-anchor="middle" x="209" y="-77" font-family="Helvetica,sans-Serif" font-size="10.00">/lexicon_operation.hpp</text>
</a>
</g>
</g>
<!-- Node2&#45;&gt;Node5 -->
<g id="edge4" class="edge"><title>Node2&#45;&gt;Node5</title>
<path fill="none" stroke="midnightblue" d="M306.443,-136.366C285.065,-125.755 259.079,-112.857 239.32,-103.049"/>
<polygon fill="midnightblue" stroke="midnightblue" points="305.082,-139.598 315.595,-140.909 308.194,-133.328 305.082,-139.598"/>
</g>
<!-- Node7 -->
<g id="node7" class="node"><title>Node7</title>
<g id="a_node7"><a xlink:href="operand__operation_8hpp.html" target="_top" xlink:title="Om header file.">
<polygon fill="none" stroke="black" points="284.899,-71 284.899,-103 407.101,-103 407.101,-71 284.899,-71"/>
<text text-anchor="start" x="292.899" y="-89" font-family="Helvetica,sans-Serif" font-size="10.00">code/om/operations</text>
<text text-anchor="middle" x="346" y="-77" font-family="Helvetica,sans-Serif" font-size="10.00">/operand_operation.hpp</text>
</a>
</g>
</g>
<!-- Node2&#45;&gt;Node7 -->
<g id="edge6" class="edge"><title>Node2&#45;&gt;Node7</title>
<path fill="none" stroke="midnightblue" d="M346,-130.617C346,-121.338 346,-111.141 346,-103.049"/>
<polygon fill="midnightblue" stroke="midnightblue" points="342.5,-130.909 346,-140.909 349.5,-130.909 342.5,-130.909"/>
</g>
<!-- Node9 -->
<g id="node9" class="node"><title>Node9</title>
<g id="a_node9"><a xlink:href="operator__operation_8hpp.html" target="_top" xlink:title="Om header file.">
<polygon fill="none" stroke="black" points="424.626,-71 424.626,-103 547.374,-103 547.374,-71 424.626,-71"/>
<text text-anchor="start" x="432.626" y="-89" font-family="Helvetica,sans-Serif" font-size="10.00">code/om/operations</text>
<text text-anchor="middle" x="486" y="-77" font-family="Helvetica,sans-Serif" font-size="10.00">/operator_operation.hpp</text>
</a>
</g>
</g>
<!-- Node2&#45;&gt;Node9 -->
<g id="edge8" class="edge"><title>Node2&#45;&gt;Node9</title>
<path fill="none" stroke="midnightblue" d="M386.13,-136.508C408.031,-125.87 434.734,-112.9 455.016,-103.049"/>
<polygon fill="midnightblue" stroke="midnightblue" points="384.536,-133.391 377.071,-140.909 387.595,-139.688 384.536,-133.391"/>
</g>
<!-- Node2&#45;&gt;Node1 -->
<g id="edge10" class="edge"><title>Node2&#45;&gt;Node1</title>
<path fill="none" stroke="midnightblue" d="M352.537,-183.032C352.991,-192.389 352.719,-202.721 351.72,-210.909"/>
<polygon fill="midnightblue" stroke="midnightblue" points="356.024,-182.728 351.715,-173.049 349.047,-183.303 356.024,-182.728"/>
</g>
<!-- Node11 -->
<g id="node11" class="node"><title>Node11</title>
<g id="a_node11"><a xlink:href="separator__operation_8hpp.html" target="_top" xlink:title="Om header file.">
<polygon fill="none" stroke="black" points="565.126,-71 565.126,-103 692.874,-103 692.874,-71 565.126,-71"/>
<text text-anchor="start" x="573.126" y="-89" font-family="Helvetica,sans-Serif" font-size="10.00">code/om/operations</text>
<text text-anchor="middle" x="629" y="-77" font-family="Helvetica,sans-Serif" font-size="10.00">/separator_operation.hpp</text>
</a>
</g>
</g>
<!-- Node2&#45;&gt;Node11 -->
<g id="edge11" class="edge"><title>Node2&#45;&gt;Node11</title>
<path fill="none" stroke="midnightblue" d="M417.277,-138.873C463.132,-127.855 522.167,-113.67 566.245,-103.079"/>
<polygon fill="midnightblue" stroke="midnightblue" points="416.312,-135.505 407.407,-141.245 417.948,-142.312 416.312,-135.505"/>
</g>
<!-- Node4 -->
<g id="node4" class="node"><title>Node4</title>
<g id="a_node4"><a xlink:href="expression__operation_8cpp.html" target="_top" xlink:title="Om source file.">
<polygon fill="none" stroke="black" points="-0.649902,-1 -0.649902,-33 132.65,-33 132.65,-1 -0.649902,-1"/>
<text text-anchor="start" x="7.3501" y="-19" font-family="Helvetica,sans-Serif" font-size="10.00">code/om/operations</text>
<text text-anchor="middle" x="66" y="-7" font-family="Helvetica,sans-Serif" font-size="10.00">/expression_operation.cpp</text>
</a>
</g>
</g>
<!-- Node3&#45;&gt;Node4 -->
<g id="edge3" class="edge"><title>Node3&#45;&gt;Node4</title>
<path fill="none" stroke="midnightblue" d="M66,-60.6174C66,-51.3378 66,-41.1413 66,-33.0492"/>
<polygon fill="midnightblue" stroke="midnightblue" points="62.5001,-60.9086 66,-70.9086 69.5001,-60.9086 62.5001,-60.9086"/>
</g>
<!-- Node6 -->
<g id="node6" class="node"><title>Node6</title>
<g id="a_node6"><a xlink:href="lexicon__operation_8cpp.html" target="_top" xlink:title="Om source file.">
<polygon fill="none" stroke="black" points="150.966,-1 150.966,-33 267.034,-33 267.034,-1 150.966,-1"/>
<text text-anchor="start" x="158.966" y="-19" font-family="Helvetica,sans-Serif" font-size="10.00">code/om/operations</text>
<text text-anchor="middle" x="209" y="-7" font-family="Helvetica,sans-Serif" font-size="10.00">/lexicon_operation.cpp</text>
</a>
</g>
</g>
<!-- Node5&#45;&gt;Node6 -->
<g id="edge5" class="edge"><title>Node5&#45;&gt;Node6</title>
<path fill="none" stroke="midnightblue" d="M209,-60.6174C209,-51.3378 209,-41.1413 209,-33.0492"/>
<polygon fill="midnightblue" stroke="midnightblue" points="205.5,-60.9086 209,-70.9086 212.5,-60.9086 205.5,-60.9086"/>
</g>
<!-- Node8 -->
<g id="node8" class="node"><title>Node8</title>
<g id="a_node8"><a xlink:href="operand__operation_8cpp.html" target="_top" xlink:title="Om source file.">
<polygon fill="none" stroke="black" points="285.18,-1 285.18,-33 406.82,-33 406.82,-1 285.18,-1"/>
<text text-anchor="start" x="293.18" y="-19" font-family="Helvetica,sans-Serif" font-size="10.00">code/om/operations</text>
<text text-anchor="middle" x="346" y="-7" font-family="Helvetica,sans-Serif" font-size="10.00">/operand_operation.cpp</text>
</a>
</g>
</g>
<!-- Node7&#45;&gt;Node8 -->
<g id="edge7" class="edge"><title>Node7&#45;&gt;Node8</title>
<path fill="none" stroke="midnightblue" d="M346,-60.6174C346,-51.3378 346,-41.1413 346,-33.0492"/>
<polygon fill="midnightblue" stroke="midnightblue" points="342.5,-60.9086 346,-70.9086 349.5,-60.9086 342.5,-60.9086"/>
</g>
<!-- Node10 -->
<g id="node10" class="node"><title>Node10</title>
<g id="a_node10"><a xlink:href="operator__operation_8cpp.html" target="_top" xlink:title="Om source file.">
<polygon fill="none" stroke="black" points="424.907,-1 424.907,-33 547.093,-33 547.093,-1 424.907,-1"/>
<text text-anchor="start" x="432.907" y="-19" font-family="Helvetica,sans-Serif" font-size="10.00">code/om/operations</text>
<text text-anchor="middle" x="486" y="-7" font-family="Helvetica,sans-Serif" font-size="10.00">/operator_operation.cpp</text>
</a>
</g>
</g>
<!-- Node9&#45;&gt;Node10 -->
<g id="edge9" class="edge"><title>Node9&#45;&gt;Node10</title>
<path fill="none" stroke="midnightblue" d="M486,-60.6174C486,-51.3378 486,-41.1413 486,-33.0492"/>
<polygon fill="midnightblue" stroke="midnightblue" points="482.5,-60.9086 486,-70.9086 489.5,-60.9086 482.5,-60.9086"/>
</g>
<!-- Node12 -->
<g id="node12" class="node"><title>Node12</title>
<g id="a_node12"><a xlink:href="separator__operation_8cpp.html" target="_top" xlink:title="Om source file.">
<polygon fill="none" stroke="black" points="565.407,-1 565.407,-33 692.593,-33 692.593,-1 565.407,-1"/>
<text text-anchor="start" x="573.407" y="-19" font-family="Helvetica,sans-Serif" font-size="10.00">code/om/operations</text>
<text text-anchor="middle" x="629" y="-7" font-family="Helvetica,sans-Serif" font-size="10.00">/separator_operation.cpp</text>
</a>
</g>
</g>
<!-- Node11&#45;&gt;Node12 -->
<g id="edge12" class="edge"><title>Node11&#45;&gt;Node12</title>
<path fill="none" stroke="midnightblue" d="M629,-60.6174C629,-51.3378 629,-41.1413 629,-33.0492"/>
<polygon fill="midnightblue" stroke="midnightblue" points="625.5,-60.9086 629,-70.9086 632.5,-60.9086 625.5,-60.9086"/>
</g>
</g>
</svg>
