<?xml version="1.0" encoding="UTF-8" standalone="no"?>
<!DOCTYPE svg PUBLIC "-//W3C//DTD SVG 1.1//EN"
 "http://www.w3.org/Graphics/SVG/1.1/DTD/svg11.dtd">
<!-- Generated by graphviz version 2.30.1 (20130221.2233)
 -->
<!-- Title: code/om/operations/program_operation.hpp Pages: 1 -->
<svg width="924pt" height="298pt"
 viewBox="0.00 0.00 924.00 298.00" xmlns="http://www.w3.org/2000/svg" xmlns:xlink="http://www.w3.org/1999/xlink">
<g id="graph0" class="graph" transform="scale(1 1) rotate(0) translate(4 294)">
<title>code/om/operations/program_operation.hpp</title>
<!-- Node1 -->
<g id="node1" class="node"><title>Node1</title>
<polygon fill="#bfbfbf" stroke="black" points="437.631,-257 437.631,-289 560.369,-289 560.369,-257 437.631,-257"/>
<text text-anchor="start" x="445.631" y="-275" font-family="Helvetica,sans-Serif" font-size="10.00">code/om/operations</text>
<text text-anchor="middle" x="499" y="-263" font-family="Helvetica,sans-Serif" font-size="10.00">/program_operation.hpp</text>
</g>
<!-- Node2 -->
<g id="node2" class="node"><title>Node2</title>
<g id="a_node2"><a xlink:href="internal_8hpp.html" target="_top" xlink:title="code/om/internal.hpp">
<polygon fill="none" stroke="black" points="285.303,-123 285.303,-143 394.697,-143 394.697,-123 285.303,-123"/>
<text text-anchor="middle" x="340" y="-129" font-family="Helvetica,sans-Serif" font-size="10.00">code/om/internal.hpp</text>
</a>
</g>
</g>
<!-- Node1&#45;&gt;Node2 -->
<g id="edge1" class="edge"><title>Node1&#45;&gt;Node2</title>
<path fill="none" stroke="midnightblue" d="M427.753,-260.128C402.77,-252.564 376.584,-240.199 359,-220 339.623,-197.742 338.664,-160.165 339.365,-143.018"/>
<polygon fill="midnightblue" stroke="midnightblue" points="427.042,-263.563 437.615,-262.893 428.932,-256.823 427.042,-263.563"/>
</g>
<!-- Node6 -->
<g id="node6" class="node"><title>Node6</title>
<g id="a_node6"><a xlink:href="expression__operation_8hpp.html" target="_top" xlink:title="Om header file.">
<polygon fill="none" stroke="black" points="44.0693,-187 44.0693,-219 177.931,-219 177.931,-187 44.0693,-187"/>
<text text-anchor="start" x="52.0693" y="-205" font-family="Helvetica,sans-Serif" font-size="10.00">code/om/operations</text>
<text text-anchor="middle" x="111" y="-193" font-family="Helvetica,sans-Serif" font-size="10.00">/expression_operation.hpp</text>
</a>
</g>
</g>
<!-- Node1&#45;&gt;Node6 -->
<g id="edge7" class="edge"><title>Node1&#45;&gt;Node6</title>
<path fill="none" stroke="midnightblue" d="M427.705,-260.998C364.368,-251.014 269.341,-235.522 187,-220 184.085,-219.45 181.11,-218.877 178.106,-218.288"/>
<polygon fill="midnightblue" stroke="midnightblue" points="427.169,-264.457 437.591,-262.552 428.256,-257.541 427.169,-264.457"/>
</g>
<!-- Node8 -->
<g id="node8" class="node"><title>Node8</title>
<g id="a_node8"><a xlink:href="lexicon__operation_8hpp.html" target="_top" xlink:title="Om header file.">
<polygon fill="none" stroke="black" points="195.685,-187 195.685,-219 312.315,-219 312.315,-187 195.685,-187"/>
<text text-anchor="start" x="203.685" y="-205" font-family="Helvetica,sans-Serif" font-size="10.00">code/om/operations</text>
<text text-anchor="middle" x="254" y="-193" font-family="Helvetica,sans-Serif" font-size="10.00">/lexicon_operation.hpp</text>
</a>
</g>
</g>
<!-- Node1&#45;&gt;Node8 -->
<g id="edge10" class="edge"><title>Node1&#45;&gt;Node8</title>
<path fill="none" stroke="midnightblue" d="M435.162,-254.282C395.789,-243.354 345.832,-229.488 308.354,-219.086"/>
<polygon fill="midnightblue" stroke="midnightblue" points="434.359,-257.691 444.93,-256.993 436.231,-250.946 434.359,-257.691"/>
</g>
<!-- Node10 -->
<g id="node10" class="node"><title>Node10</title>
<g id="a_node10"><a xlink:href="operand__operation_8hpp.html" target="_top" xlink:title="Om header file.">
<polygon fill="none" stroke="black" points="367.899,-187 367.899,-219 490.101,-219 490.101,-187 367.899,-187"/>
<text text-anchor="start" x="375.899" y="-205" font-family="Helvetica,sans-Serif" font-size="10.00">code/om/operations</text>
<text text-anchor="middle" x="429" y="-193" font-family="Helvetica,sans-Serif" font-size="10.00">/operand_operation.hpp</text>
</a>
</g>
</g>
<!-- Node1&#45;&gt;Node10 -->
<g id="edge13" class="edge"><title>Node1&#45;&gt;Node10</title>
<path fill="none" stroke="midnightblue" d="M476.251,-249.901C465.859,-239.806 453.818,-228.109 444.492,-219.049"/>
<polygon fill="midnightblue" stroke="midnightblue" points="473.853,-252.451 483.465,-256.909 478.731,-247.43 473.853,-252.451"/>
</g>
<!-- Node12 -->
<g id="node12" class="node"><title>Node12</title>
<g id="a_node12"><a xlink:href="operator__operation_8hpp.html" target="_top" xlink:title="Om header file.">
<polygon fill="none" stroke="black" points="507.626,-187 507.626,-219 630.374,-219 630.374,-187 507.626,-187"/>
<text text-anchor="start" x="515.626" y="-205" font-family="Helvetica,sans-Serif" font-size="10.00">code/om/operations</text>
<text text-anchor="middle" x="569" y="-193" font-family="Helvetica,sans-Serif" font-size="10.00">/operator_operation.hpp</text>
</a>
</g>
</g>
<!-- Node1&#45;&gt;Node12 -->
<g id="edge16" class="edge"><title>Node1&#45;&gt;Node12</title>
<path fill="none" stroke="midnightblue" d="M521.749,-249.901C532.141,-239.806 544.182,-228.109 553.508,-219.049"/>
<polygon fill="midnightblue" stroke="midnightblue" points="519.269,-247.43 514.535,-256.909 524.147,-252.451 519.269,-247.43"/>
</g>
<!-- Node14 -->
<g id="node14" class="node"><title>Node14</title>
<g id="a_node14"><a xlink:href="program__operation_8cpp.html" target="_top" xlink:title="Om source file.">
<polygon fill="none" stroke="black" points="793.912,-187 793.912,-219 916.088,-219 916.088,-187 793.912,-187"/>
<text text-anchor="start" x="801.912" y="-205" font-family="Helvetica,sans-Serif" font-size="10.00">code/om/operations</text>
<text text-anchor="middle" x="855" y="-193" font-family="Helvetica,sans-Serif" font-size="10.00">/program_operation.cpp</text>
</a>
</g>
</g>
<!-- Node1&#45;&gt;Node14 -->
<g id="edge19" class="edge"><title>Node1&#45;&gt;Node14</title>
<path fill="none" stroke="midnightblue" d="M570.61,-258.466C626.404,-248.446 705.639,-234.137 775,-220 781.067,-218.764 787.412,-217.414 793.77,-216.041"/>
<polygon fill="midnightblue" stroke="midnightblue" points="569.697,-255.074 560.473,-260.286 570.934,-261.964 569.697,-255.074"/>
</g>
<!-- Node15 -->
<g id="node15" class="node"><title>Node15</title>
<g id="a_node15"><a xlink:href="separator__operation_8hpp.html" target="_top" xlink:title="Om header file.">
<polygon fill="none" stroke="black" points="648.126,-187 648.126,-219 775.874,-219 775.874,-187 648.126,-187"/>
<text text-anchor="start" x="656.126" y="-205" font-family="Helvetica,sans-Serif" font-size="10.00">code/om/operations</text>
<text text-anchor="middle" x="712" y="-193" font-family="Helvetica,sans-Serif" font-size="10.00">/separator_operation.hpp</text>
</a>
</g>
</g>
<!-- Node1&#45;&gt;Node15 -->
<g id="edge21" class="edge"><title>Node1&#45;&gt;Node15</title>
<path fill="none" stroke="midnightblue" d="M555.81,-253.864C589.833,-243.002 632.577,-229.356 664.745,-219.086"/>
<polygon fill="midnightblue" stroke="midnightblue" points="554.469,-250.617 546.007,-256.993 556.598,-257.286 554.469,-250.617"/>
</g>
<!-- Node3 -->
<g id="node3" class="node"><title>Node3</title>
<g id="a_node3"><a xlink:href="internal_8cpp.html" target="_top" xlink:title="code/om/internal.cpp">
<polygon fill="none" stroke="black" points="176.584,-59 176.584,-79 285.416,-79 285.416,-59 176.584,-59"/>
<text text-anchor="middle" x="231" y="-65" font-family="Helvetica,sans-Serif" font-size="10.00">code/om/internal.cpp</text>
</a>
</g>
</g>
<!-- Node2&#45;&gt;Node3 -->
<g id="edge2" class="edge"><title>Node2&#45;&gt;Node3</title>
<path fill="none" stroke="midnightblue" d="M314.986,-117.772C294.136,-105.912 265.048,-89.3668 247.149,-79.1858"/>
<polygon fill="midnightblue" stroke="midnightblue" points="313.494,-120.95 323.917,-122.852 316.955,-114.865 313.494,-120.95"/>
</g>
<!-- Node2&#45;&gt;Node2 -->
<g id="edge3" class="edge"><title>Node2&#45;&gt;Node2</title>
<path fill="none" stroke="midnightblue" d="M375.83,-144.532C394.792,-146.424 412,-142.58 412,-133 412,-121.75 388.27,-118.41 365.837,-122.98"/>
<polygon fill="midnightblue" stroke="midnightblue" points="376.248,-141.055 365.837,-143.02 375.201,-147.977 376.248,-141.055"/>
</g>
<!-- Node4 -->
<g id="node4" class="node"><title>Node4</title>
<g id="a_node4"><a xlink:href="om_8hpp.html" target="_top" xlink:title="Om &quot;umbrella&quot; header file.">
<polygon fill="none" stroke="black" points="303.091,-59 303.091,-79 376.909,-79 376.909,-59 303.091,-59"/>
<text text-anchor="middle" x="340" y="-65" font-family="Helvetica,sans-Serif" font-size="10.00">code/om.hpp</text>
</a>
</g>
</g>
<!-- Node2&#45;&gt;Node4 -->
<g id="edge4" class="edge"><title>Node2&#45;&gt;Node4</title>
<path fill="none" stroke="midnightblue" d="M333.7,-112.735C332.802,-101.557 333.248,-87.991 335.037,-79.1858"/>
<polygon fill="midnightblue" stroke="midnightblue" points="330.257,-113.4 335.045,-122.852 337.196,-112.478 330.257,-113.4"/>
</g>
<!-- Node4&#45;&gt;Node2 -->
<g id="edge5" class="edge"><title>Node4&#45;&gt;Node2</title>
<path fill="none" stroke="midnightblue" d="M346.304,-89.3131C347.198,-100.498 346.748,-114.06 344.955,-122.852"/>
<polygon fill="midnightblue" stroke="midnightblue" points="349.746,-88.6398 344.963,-79.1858 342.806,-89.5588 349.746,-88.6398"/>
</g>
<!-- Node5 -->
<g id="node5" class="node"><title>Node5</title>
<g id="a_node5"><a xlink:href="om_8cpp.html" target="_top" xlink:title="Om source file.">
<polygon fill="none" stroke="black" points="303.372,-1 303.372,-21 376.628,-21 376.628,-1 303.372,-1"/>
<text text-anchor="middle" x="340" y="-7" font-family="Helvetica,sans-Serif" font-size="10.00">code/om.cpp</text>
</a>
</g>
</g>
<!-- Node4&#45;&gt;Node5 -->
<g id="edge6" class="edge"><title>Node4&#45;&gt;Node5</title>
<path fill="none" stroke="midnightblue" d="M340,-48.7065C340,-39.3384 340,-28.5262 340,-21.0752"/>
<polygon fill="midnightblue" stroke="midnightblue" points="336.5,-48.7527 340,-58.7527 343.5,-48.7528 336.5,-48.7527"/>
</g>
<!-- Node6&#45;&gt;Node2 -->
<g id="edge8" class="edge"><title>Node6&#45;&gt;Node2</title>
<path fill="none" stroke="midnightblue" d="M171.372,-184.073C215.852,-170.865 274.489,-153.453 309.602,-143.027"/>
<polygon fill="midnightblue" stroke="midnightblue" points="170.128,-180.791 161.539,-186.993 172.121,-187.501 170.128,-180.791"/>
</g>
<!-- Node7 -->
<g id="node7" class="node"><title>Node7</title>
<g id="a_node7"><a xlink:href="expression__operation_8cpp.html" target="_top" xlink:title="Om source file.">
<polygon fill="none" stroke="black" points="-0.649902,-117 -0.649902,-149 132.65,-149 132.65,-117 -0.649902,-117"/>
<text text-anchor="start" x="7.3501" y="-135" font-family="Helvetica,sans-Serif" font-size="10.00">code/om/operations</text>
<text text-anchor="middle" x="66" y="-123" font-family="Helvetica,sans-Serif" font-size="10.00">/expression_operation.cpp</text>
</a>
</g>
</g>
<!-- Node6&#45;&gt;Node7 -->
<g id="edge9" class="edge"><title>Node6&#45;&gt;Node7</title>
<path fill="none" stroke="midnightblue" d="M95.3959,-178.42C88.9478,-168.677 81.6634,-157.669 75.959,-149.049"/>
<polygon fill="midnightblue" stroke="midnightblue" points="92.5756,-180.501 101.013,-186.909 98.4131,-176.638 92.5756,-180.501"/>
</g>
<!-- Node8&#45;&gt;Node2 -->
<g id="edge11" class="edge"><title>Node8&#45;&gt;Node2</title>
<path fill="none" stroke="midnightblue" d="M281.094,-180.577C297.114,-167.91 316.564,-152.531 328.613,-143.004"/>
<polygon fill="midnightblue" stroke="midnightblue" points="278.76,-177.961 273.086,-186.909 283.101,-183.452 278.76,-177.961"/>
</g>
<!-- Node9 -->
<g id="node9" class="node"><title>Node9</title>
<g id="a_node9"><a xlink:href="lexicon__operation_8cpp.html" target="_top" xlink:title="Om source file.">
<polygon fill="none" stroke="black" points="150.966,-117 150.966,-149 267.034,-149 267.034,-117 150.966,-117"/>
<text text-anchor="start" x="158.966" y="-135" font-family="Helvetica,sans-Serif" font-size="10.00">code/om/operations</text>
<text text-anchor="middle" x="209" y="-123" font-family="Helvetica,sans-Serif" font-size="10.00">/lexicon_operation.cpp</text>
</a>
</g>
</g>
<!-- Node8&#45;&gt;Node9 -->
<g id="edge12" class="edge"><title>Node8&#45;&gt;Node9</title>
<path fill="none" stroke="midnightblue" d="M238.396,-178.42C231.948,-168.677 224.663,-157.669 218.959,-149.049"/>
<polygon fill="midnightblue" stroke="midnightblue" points="235.576,-180.501 244.013,-186.909 241.413,-176.638 235.576,-180.501"/>
</g>
<!-- Node10&#45;&gt;Node2 -->
<g id="edge14" class="edge"><title>Node10&#45;&gt;Node2</title>
<path fill="none" stroke="midnightblue" d="M400.961,-180.577C384.382,-167.91 364.254,-152.531 351.784,-143.004"/>
<polygon fill="midnightblue" stroke="midnightblue" points="399.177,-183.619 409.248,-186.909 403.427,-178.056 399.177,-183.619"/>
</g>
<!-- Node11 -->
<g id="node11" class="node"><title>Node11</title>
<g id="a_node11"><a xlink:href="operand__operation_8cpp.html" target="_top" xlink:title="Om source file.">
<polygon fill="none" stroke="black" points="431.18,-117 431.18,-149 552.82,-149 552.82,-117 431.18,-117"/>
<text text-anchor="start" x="439.18" y="-135" font-family="Helvetica,sans-Serif" font-size="10.00">code/om/operations</text>
<text text-anchor="middle" x="492" y="-123" font-family="Helvetica,sans-Serif" font-size="10.00">/operand_operation.cpp</text>
</a>
</g>
</g>
<!-- Node10&#45;&gt;Node11 -->
<g id="edge15" class="edge"><title>Node10&#45;&gt;Node11</title>
<path fill="none" stroke="midnightblue" d="M450.02,-179.312C459.247,-169.353 469.827,-157.933 478.057,-149.049"/>
<polygon fill="midnightblue" stroke="midnightblue" points="447.211,-177.194 442.982,-186.909 452.345,-181.952 447.211,-177.194"/>
</g>
<!-- Node12&#45;&gt;Node2 -->
<g id="edge17" class="edge"><title>Node12&#45;&gt;Node2</title>
<path fill="none" stroke="midnightblue" d="M508.628,-184.073C464.148,-170.865 405.511,-153.453 370.398,-143.027"/>
<polygon fill="midnightblue" stroke="midnightblue" points="507.879,-187.501 518.461,-186.993 509.872,-180.791 507.879,-187.501"/>
</g>
<!-- Node13 -->
<g id="node13" class="node"><title>Node13</title>
<g id="a_node13"><a xlink:href="operator__operation_8cpp.html" target="_top" xlink:title="Om source file.">
<polygon fill="none" stroke="black" points="570.907,-117 570.907,-149 693.093,-149 693.093,-117 570.907,-117"/>
<text text-anchor="start" x="578.907" y="-135" font-family="Helvetica,sans-Serif" font-size="10.00">code/om/operations</text>
<text text-anchor="middle" x="632" y="-123" font-family="Helvetica,sans-Serif" font-size="10.00">/operator_operation.cpp</text>
</a>
</g>
</g>
<!-- Node12&#45;&gt;Node13 -->
<g id="edge18" class="edge"><title>Node12&#45;&gt;Node13</title>
<path fill="none" stroke="midnightblue" d="M590.02,-179.312C599.247,-169.353 609.827,-157.933 618.057,-149.049"/>
<polygon fill="midnightblue" stroke="midnightblue" points="587.211,-177.194 582.982,-186.909 592.345,-181.952 587.211,-177.194"/>
</g>
<!-- Node14&#45;&gt;Node1 -->
<g id="edge20" class="edge"><title>Node14&#45;&gt;Node1</title>
<path fill="none" stroke="midnightblue" d="M787.581,-221.085C705.953,-237.551 617.906,-253.161 560.484,-262.697"/>
<polygon fill="midnightblue" stroke="midnightblue" points="788.397,-224.491 797.502,-219.073 787.005,-217.63 788.397,-224.491"/>
</g>
<!-- Node15&#45;&gt;Node2 -->
<g id="edge22" class="edge"><title>Node15&#45;&gt;Node2</title>
<path fill="none" stroke="midnightblue" d="M638.043,-185.87C541.326,-167.5 515.108,-166.803 422,-150 410.01,-147.836 397.06,-145.37 385.07,-143.032"/>
<polygon fill="midnightblue" stroke="midnightblue" points="637.465,-189.323 647.944,-187.765 638.781,-182.448 637.465,-189.323"/>
</g>
<!-- Node16 -->
<g id="node16" class="node"><title>Node16</title>
<g id="a_node16"><a xlink:href="separator__operation_8cpp.html" target="_top" xlink:title="Om source file.">
<polygon fill="none" stroke="black" points="711.407,-117 711.407,-149 838.593,-149 838.593,-117 711.407,-117"/>
<text text-anchor="start" x="719.407" y="-135" font-family="Helvetica,sans-Serif" font-size="10.00">code/om/operations</text>
<text text-anchor="middle" x="775" y="-123" font-family="Helvetica,sans-Serif" font-size="10.00">/separator_operation.cpp</text>
</a>
</g>
</g>
<!-- Node15&#45;&gt;Node16 -->
<g id="edge23" class="edge"><title>Node15&#45;&gt;Node16</title>
<path fill="none" stroke="midnightblue" d="M733.02,-179.312C742.247,-169.353 752.827,-157.933 761.057,-149.049"/>
<polygon fill="midnightblue" stroke="midnightblue" points="730.211,-177.194 725.982,-186.909 735.345,-181.952 730.211,-177.194"/>
</g>
</g>
</svg>
