<?xml version="1.0" encoding="UTF-8" standalone="no"?>
<!DOCTYPE svg PUBLIC "-//W3C//DTD SVG 1.1//EN"
 "http://www.w3.org/Graphics/SVG/1.1/DTD/svg11.dtd">
<!-- Generated by graphviz version 2.34.0 (20130907.0228)
 -->
<!-- Title: om/program.hpp Pages: 1 -->
<svg width="1747pt" height="460pt"
 viewBox="0.00 0.00 1747.00 460.00" xmlns="http://www.w3.org/2000/svg" xmlns:xlink="http://www.w3.org/1999/xlink">
<g id="graph0" class="graph" transform="scale(1 1) rotate(0) translate(4 456)">
<title>om/program.hpp</title>
<!-- Node1 -->
<g id="node1" class="node"><title>Node1</title>
<polygon fill="#bfbfbf" stroke="black" points="1357.32,-431 1357.32,-451 1446.68,-451 1446.68,-431 1357.32,-431"/>
<text text-anchor="middle" x="1402" y="-437" font-family="Helvetica,sans-Serif" font-size="10.00">om/program.hpp</text>
</g>
<!-- Node2 -->
<g id="node2" class="node"><title>Node2</title>
<g id="a_node2"><a xlink:href="consumer_8hpp.html" target="_top" xlink:title="Om header file. ">
<polygon fill="none" stroke="black" points="856.254,-373 856.254,-393 951.746,-393 951.746,-373 856.254,-373"/>
<text text-anchor="middle" x="904" y="-379" font-family="Helvetica,sans-Serif" font-size="10.00">om/consumer.hpp</text>
</a>
</g>
</g>
<!-- Node1&#45;&gt;Node2 -->
<g id="edge1" class="edge"><title>Node1&#45;&gt;Node2</title>
<path fill="none" stroke="midnightblue" d="M1356.93,-434.932C1266.3,-424.741 1062.14,-401.783 961.836,-390.504"/>
<polygon fill="midnightblue" stroke="midnightblue" points="962.207,-387.023 951.878,-389.384 961.425,-393.98 962.207,-387.023"/>
</g>
<!-- Node20 -->
<g id="node20" class="node"><title>Node20</title>
<g id="a_node20"><a xlink:href="giveable_8hpp.html" target="_top" xlink:title="Om header file. ">
<polygon fill="none" stroke="black" points="1175.31,-199 1175.31,-219 1264.69,-219 1264.69,-199 1175.31,-199"/>
<text text-anchor="middle" x="1220" y="-205" font-family="Helvetica,sans-Serif" font-size="10.00">om/giveable.hpp</text>
</a>
</g>
</g>
<!-- Node1&#45;&gt;Node20 -->
<g id="edge27" class="edge"><title>Node1&#45;&gt;Node20</title>
<path fill="none" stroke="midnightblue" d="M1390.14,-430.836C1379.11,-422.02 1362.55,-408.001 1350,-394 1299.86,-338.068 1251.79,-262.507 1230.9,-228.242"/>
<polygon fill="midnightblue" stroke="midnightblue" points="1233.7,-226.109 1225.53,-219.361 1227.71,-229.73 1233.7,-226.109"/>
</g>
<!-- Node27 -->
<g id="node27" class="node"><title>Node27</title>
<g id="a_node27"><a xlink:href="producer_8hpp.html" target="_top" xlink:title="Om header file. ">
<polygon fill="none" stroke="black" points="1282.47,-135 1282.47,-155 1373.53,-155 1373.53,-135 1282.47,-135"/>
<text text-anchor="middle" x="1328" y="-141" font-family="Helvetica,sans-Serif" font-size="10.00">om/producer.hpp</text>
</a>
</g>
</g>
<!-- Node1&#45;&gt;Node27 -->
<g id="edge42" class="edge"><title>Node1&#45;&gt;Node27</title>
<path fill="none" stroke="midnightblue" d="M1396.72,-430.887C1386.27,-411.992 1364,-366.89 1364,-326 1364,-326 1364,-326 1364,-266 1364,-228.653 1347.81,-187.422 1337.14,-164.317"/>
<polygon fill="midnightblue" stroke="midnightblue" points="1340.18,-162.565 1332.71,-155.056 1333.87,-165.587 1340.18,-162.565"/>
</g>
<!-- Node29 -->
<g id="node29" class="node"><title>Node29</title>
<g id="a_node29"><a xlink:href="shareable_8hpp.html" target="_top" xlink:title="Om header file. ">
<polygon fill="none" stroke="black" points="1391.97,-373 1391.97,-393 1488.03,-393 1488.03,-373 1391.97,-373"/>
<text text-anchor="middle" x="1440" y="-379" font-family="Helvetica,sans-Serif" font-size="10.00">om/shareable.hpp</text>
</a>
</g>
</g>
<!-- Node1&#45;&gt;Node29 -->
<g id="edge48" class="edge"><title>Node1&#45;&gt;Node29</title>
<path fill="none" stroke="midnightblue" d="M1408.27,-430.753C1413.64,-422.843 1421.52,-411.237 1428.08,-401.568"/>
<polygon fill="midnightblue" stroke="midnightblue" points="1431.12,-403.315 1433.84,-393.075 1425.33,-399.385 1431.12,-403.315"/>
</g>
<!-- Node34 -->
<g id="node34" class="node"><title>Node34</title>
<g id="a_node34"><a xlink:href="program_8cpp.html" target="_top" xlink:title="Om source file. ">
<polygon fill="none" stroke="black" points="1505.6,-373 1505.6,-393 1594.4,-393 1594.4,-373 1505.6,-373"/>
<text text-anchor="middle" x="1550" y="-379" font-family="Helvetica,sans-Serif" font-size="10.00">om/program.cpp</text>
</a>
</g>
</g>
<!-- Node1&#45;&gt;Node34 -->
<g id="edge55" class="edge"><title>Node1&#45;&gt;Node34</title>
<path fill="none" stroke="midnightblue" d="M1420.97,-430.878C1443.83,-421.494 1482.44,-406.815 1511.55,-396.386"/>
<polygon fill="midnightblue" stroke="midnightblue" points="1512.77,-399.667 1521.03,-393.025 1510.43,-393.07 1512.77,-399.667"/>
</g>
<!-- Node3 -->
<g id="node3" class="node"><title>Node3</title>
<g id="a_node3"><a xlink:href="consumer_8cpp.html" target="_top" xlink:title="Om source file. ">
<polygon fill="none" stroke="black" points="856.535,-315 856.535,-335 951.465,-335 951.465,-315 856.535,-315"/>
<text text-anchor="middle" x="904" y="-321" font-family="Helvetica,sans-Serif" font-size="10.00">om/consumer.cpp</text>
</a>
</g>
</g>
<!-- Node2&#45;&gt;Node3 -->
<g id="edge2" class="edge"><title>Node2&#45;&gt;Node3</title>
<path fill="none" stroke="midnightblue" d="M898.834,-372.753C897.308,-365.25 896.884,-354.424 897.564,-345.078"/>
<polygon fill="midnightblue" stroke="midnightblue" points="901.046,-345.444 898.869,-335.075 894.105,-344.538 901.046,-345.444"/>
</g>
<!-- Node3&#45;&gt;Node2 -->
<g id="edge26" class="edge"><title>Node3&#45;&gt;Node2</title>
<path fill="none" stroke="midnightblue" d="M909.131,-335.075C910.674,-342.526 911.114,-353.338 910.451,-362.707"/>
<polygon fill="midnightblue" stroke="midnightblue" points="906.963,-362.389 909.166,-372.753 913.907,-363.278 906.963,-362.389"/>
</g>
<!-- Node4 -->
<g id="node4" class="node"><title>Node4</title>
<g id="a_node4"><a xlink:href="reader_8hpp.html" target="_top" xlink:title="Om header file. ">
<polygon fill="none" stroke="black" points="438.754,-257 438.754,-277 519.246,-277 519.246,-257 438.754,-257"/>
<text text-anchor="middle" x="479" y="-263" font-family="Helvetica,sans-Serif" font-size="10.00">om/reader.hpp</text>
</a>
</g>
</g>
<!-- Node3&#45;&gt;Node4 -->
<g id="edge3" class="edge"><title>Node3&#45;&gt;Node4</title>
<path fill="none" stroke="midnightblue" d="M856.486,-318.321C787.558,-309.994 655.839,-293.746 544,-278 539.301,-277.338 534.414,-276.628 529.525,-275.902"/>
<polygon fill="midnightblue" stroke="midnightblue" points="529.954,-272.427 519.544,-274.401 528.913,-279.35 529.954,-272.427"/>
</g>
<!-- Node10 -->
<g id="node10" class="node"><title>Node10</title>
<polygon fill="none" stroke="#bfbfbf" points="973.884,-7 973.884,-27 1022.12,-27 1022.12,-7 973.884,-7"/>
<text text-anchor="middle" x="998" y="-13" font-family="Helvetica,sans-Serif" font-size="10.00">cassert</text>
</g>
<!-- Node3&#45;&gt;Node10 -->
<g id="edge24" class="edge"><title>Node3&#45;&gt;Node10</title>
<path fill="none" stroke="midnightblue" d="M856.253,-318.411C761.337,-305.965 558,-272.06 558,-210 558,-210 558,-210 558,-144 558,-59.7741 859.741,-28.6381 963.47,-20.4229"/>
<polygon fill="midnightblue" stroke="midnightblue" points="964.015,-23.8914 973.717,-19.6354 963.478,-16.912 964.015,-23.8914"/>
</g>
<!-- Node11 -->
<g id="node11" class="node"><title>Node11</title>
<polygon fill="none" stroke="#bfbfbf" points="1180.6,-7 1180.6,-27 1239.4,-27 1239.4,-7 1180.6,-7"/>
<text text-anchor="middle" x="1210" y="-13" font-family="Helvetica,sans-Serif" font-size="10.00">stdexcept</text>
</g>
<!-- Node3&#45;&gt;Node11 -->
<g id="edge25" class="edge"><title>Node3&#45;&gt;Node11</title>
<path fill="none" stroke="midnightblue" d="M951.504,-315.772C1063.15,-295.293 1336.26,-238.147 1382,-162 1403.45,-126.284 1393.09,-99.8229 1364,-70 1333.73,-38.9723 1284.34,-26.4579 1249.67,-21.4107"/>
<polygon fill="midnightblue" stroke="midnightblue" points="1249.79,-17.8968 1239.42,-20.0719 1248.89,-24.8378 1249.79,-17.8968"/>
</g>
<!-- Node5 -->
<g id="node5" class="node"><title>Node5</title>
<g id="a_node5"><a xlink:href="code__point_8hpp.html" target="_top" xlink:title="Om header file. ">
<polygon fill="none" stroke="black" points="428.468,-199 428.468,-219 529.532,-219 529.532,-199 428.468,-199"/>
<text text-anchor="middle" x="479" y="-205" font-family="Helvetica,sans-Serif" font-size="10.00">om/code_point.hpp</text>
</a>
</g>
</g>
<!-- Node4&#45;&gt;Node5 -->
<g id="edge4" class="edge"><title>Node4&#45;&gt;Node5</title>
<path fill="none" stroke="midnightblue" d="M479,-256.753C479,-249.25 479,-238.424 479,-229.078"/>
<polygon fill="midnightblue" stroke="midnightblue" points="482.5,-229.075 479,-219.075 475.5,-229.075 482.5,-229.075"/>
</g>
<!-- Node7 -->
<g id="node7" class="node"><title>Node7</title>
<g id="a_node7"><a xlink:href="default__source_8hpp.html" target="_top" xlink:title="Om header file. ">
<polygon fill="none" stroke="black" points="585.737,-199 585.737,-219 736.263,-219 736.263,-199 585.737,-199"/>
<text text-anchor="middle" x="661" y="-205" font-family="Helvetica,sans-Serif" font-size="10.00">om/source/default_source.hpp</text>
</a>
</g>
</g>
<!-- Node4&#45;&gt;Node7 -->
<g id="edge6" class="edge"><title>Node4&#45;&gt;Node7</title>
<path fill="none" stroke="midnightblue" d="M508.647,-256.878C539.542,-247.372 588.097,-232.432 622.066,-221.98"/>
<polygon fill="midnightblue" stroke="midnightblue" points="623.139,-225.311 631.668,-219.025 621.081,-218.621 623.139,-225.311"/>
</g>
<!-- Node14 -->
<g id="node14" class="node"><title>Node14</title>
<g id="a_node14"><a xlink:href="reader_8cpp.html" target="_top" xlink:title="Om source file. ">
<polygon fill="none" stroke="black" points="317.035,-199 317.035,-219 396.965,-219 396.965,-199 317.035,-199"/>
<text text-anchor="middle" x="357" y="-205" font-family="Helvetica,sans-Serif" font-size="10.00">om/reader.cpp</text>
</a>
</g>
</g>
<!-- Node4&#45;&gt;Node14 -->
<g id="edge15" class="edge"><title>Node4&#45;&gt;Node14</title>
<path fill="none" stroke="midnightblue" d="M453.986,-256.878C432.452,-247.847 401.848,-233.913 380.706,-223.581"/>
<polygon fill="midnightblue" stroke="midnightblue" points="382.237,-220.434 371.725,-219.118 379.122,-226.703 382.237,-220.434"/>
</g>
<!-- Node6 -->
<g id="node6" class="node"><title>Node6</title>
<polygon fill="none" stroke="#bfbfbf" points="427.636,-135 427.636,-155 530.364,-155 530.364,-135 427.636,-135"/>
<text text-anchor="middle" x="479" y="-141" font-family="Helvetica,sans-Serif" font-size="10.00">boost/locale/utf.hpp</text>
</g>
<!-- Node5&#45;&gt;Node6 -->
<g id="edge5" class="edge"><title>Node5&#45;&gt;Node6</title>
<path fill="none" stroke="midnightblue" d="M479,-198.852C479,-190.06 479,-176.498 479,-165.313"/>
<polygon fill="midnightblue" stroke="midnightblue" points="482.5,-165.186 479,-155.186 475.5,-165.186 482.5,-165.186"/>
</g>
<!-- Node8 -->
<g id="node8" class="node"><title>Node8</title>
<g id="a_node8"><a xlink:href="source_2source_8hpp.html" target="_top" xlink:title="Om header file. ">
<polygon fill="none" stroke="black" points="753.53,-135 753.53,-155 868.47,-155 868.47,-135 753.53,-135"/>
<text text-anchor="middle" x="811" y="-141" font-family="Helvetica,sans-Serif" font-size="10.00">om/source/source.hpp</text>
</a>
</g>
</g>
<!-- Node7&#45;&gt;Node8 -->
<g id="edge7" class="edge"><title>Node7&#45;&gt;Node8</title>
<path fill="none" stroke="midnightblue" d="M682.811,-198.985C708.362,-188.424 750.881,-170.849 779.887,-158.86"/>
<polygon fill="midnightblue" stroke="midnightblue" points="781.258,-162.081 789.162,-155.026 778.584,-155.612 781.258,-162.081"/>
</g>
<!-- Node12 -->
<g id="node12" class="node"><title>Node12</title>
<polygon fill="none" stroke="#bfbfbf" points="886.438,-135 886.438,-155 933.562,-155 933.562,-135 886.438,-135"/>
<text text-anchor="middle" x="910" y="-141" font-family="Helvetica,sans-Serif" font-size="10.00">iterator</text>
</g>
<!-- Node7&#45;&gt;Node12 -->
<g id="edge12" class="edge"><title>Node7&#45;&gt;Node12</title>
<path fill="none" stroke="midnightblue" d="M722.584,-198.959C766.39,-191.55 826.23,-179.426 877,-162 879.287,-161.215 881.621,-160.311 883.938,-159.341"/>
<polygon fill="midnightblue" stroke="midnightblue" points="885.561,-162.447 893.205,-155.111 882.654,-156.079 885.561,-162.447"/>
</g>
<!-- Node13 -->
<g id="node13" class="node"><title>Node13</title>
<g id="a_node13"><a xlink:href="default__source_8cpp.html" target="_top" xlink:title="Om source file. ">
<polygon fill="none" stroke="black" points="586.018,-135 586.018,-155 735.982,-155 735.982,-135 586.018,-135"/>
<text text-anchor="middle" x="661" y="-141" font-family="Helvetica,sans-Serif" font-size="10.00">om/source/default_source.cpp</text>
</a>
</g>
</g>
<!-- Node7&#45;&gt;Node13 -->
<g id="edge13" class="edge"><title>Node7&#45;&gt;Node13</title>
<path fill="none" stroke="midnightblue" d="M656.045,-198.852C654.252,-190.06 653.802,-176.498 654.696,-165.313"/>
<polygon fill="midnightblue" stroke="midnightblue" points="658.194,-165.559 656.037,-155.186 651.254,-164.64 658.194,-165.559"/>
</g>
<!-- Node9 -->
<g id="node9" class="node"><title>Node9</title>
<g id="a_node9"><a xlink:href="source_2source_8cpp.html" target="_top" xlink:title="Om source file. ">
<polygon fill="none" stroke="black" points="786.811,-71 786.811,-91 901.189,-91 901.189,-71 786.811,-71"/>
<text text-anchor="middle" x="844" y="-77" font-family="Helvetica,sans-Serif" font-size="10.00">om/source/source.cpp</text>
</a>
</g>
</g>
<!-- Node8&#45;&gt;Node9 -->
<g id="edge8" class="edge"><title>Node8&#45;&gt;Node9</title>
<path fill="none" stroke="midnightblue" d="M810.914,-134.852C813.951,-125.602 821.285,-111.072 828.486,-99.5859"/>
<polygon fill="midnightblue" stroke="midnightblue" points="831.461,-101.434 834.148,-91.1858 825.656,-97.522 831.461,-101.434"/>
</g>
<!-- Node9&#45;&gt;Node8 -->
<g id="edge11" class="edge"><title>Node9&#45;&gt;Node8</title>
<path fill="none" stroke="midnightblue" d="M844.074,-91.1858C841.025,-100.45 833.685,-114.983 826.485,-126.461"/>
<polygon fill="midnightblue" stroke="midnightblue" points="823.515,-124.604 820.825,-134.852 829.318,-128.519 823.515,-124.604"/>
</g>
<!-- Node9&#45;&gt;Node10 -->
<g id="edge9" class="edge"><title>Node9&#45;&gt;Node10</title>
<path fill="none" stroke="midnightblue" d="M866.393,-70.9847C892.625,-60.4237 936.278,-42.8493 966.058,-30.8599"/>
<polygon fill="midnightblue" stroke="midnightblue" points="967.611,-34.0077 975.58,-27.0262 964.996,-27.5142 967.611,-34.0077"/>
</g>
<!-- Node9&#45;&gt;Node11 -->
<g id="edge10" class="edge"><title>Node9&#45;&gt;Node11</title>
<path fill="none" stroke="midnightblue" d="M897.22,-70.9847C971.367,-58.4241 1104.08,-35.9427 1170.24,-24.7358"/>
<polygon fill="midnightblue" stroke="midnightblue" points="1170.99,-28.1583 1180.26,-23.0372 1169.82,-21.2566 1170.99,-28.1583"/>
</g>
<!-- Node13&#45;&gt;Node7 -->
<g id="edge14" class="edge"><title>Node13&#45;&gt;Node7</title>
<path fill="none" stroke="midnightblue" d="M665.963,-155.186C667.752,-163.991 668.198,-177.557 667.3,-188.735"/>
<polygon fill="midnightblue" stroke="midnightblue" points="663.804,-188.478 665.955,-198.852 670.743,-189.4 663.804,-188.478"/>
</g>
<!-- Node14&#45;&gt;Node4 -->
<g id="edge23" class="edge"><title>Node14&#45;&gt;Node4</title>
<path fill="none" stroke="midnightblue" d="M381.902,-219.075C403.349,-228.065 433.849,-241.948 455.017,-252.284"/>
<polygon fill="midnightblue" stroke="midnightblue" points="453.507,-255.441 464.021,-256.753 456.62,-249.171 453.507,-255.441"/>
</g>
<!-- Node15 -->
<g id="node15" class="node"><title>Node15</title>
<g id="a_node15"><a xlink:href="operand__symbol_8hpp.html" target="_top" xlink:title="Om header file. ">
<polygon fill="none" stroke="black" points="126.739,-135 126.739,-155 287.261,-155 287.261,-135 126.739,-135"/>
<text text-anchor="middle" x="207" y="-141" font-family="Helvetica,sans-Serif" font-size="10.00">om/symbol/operand_symbol.hpp</text>
</a>
</g>
</g>
<!-- Node14&#45;&gt;Node15 -->
<g id="edge16" class="edge"><title>Node14&#45;&gt;Node15</title>
<path fill="none" stroke="midnightblue" d="M335.189,-198.985C309.638,-188.424 267.119,-170.849 238.113,-158.86"/>
<polygon fill="midnightblue" stroke="midnightblue" points="239.416,-155.612 228.838,-155.026 236.742,-162.081 239.416,-155.612"/>
</g>
<!-- Node18 -->
<g id="node18" class="node"><title>Node18</title>
<g id="a_node18"><a xlink:href="operator__symbol_8hpp.html" target="_top" xlink:title="Om header file. ">
<polygon fill="none" stroke="black" points="304.815,-129 304.815,-161 409.185,-161 409.185,-129 304.815,-129"/>
<text text-anchor="start" x="312.815" y="-147" font-family="Helvetica,sans-Serif" font-size="10.00">om/symbol/operator</text>
<text text-anchor="middle" x="357" y="-135" font-family="Helvetica,sans-Serif" font-size="10.00">_symbol.hpp</text>
</a>
</g>
</g>
<!-- Node14&#45;&gt;Node18 -->
<g id="edge19" class="edge"><title>Node14&#45;&gt;Node18</title>
<path fill="none" stroke="midnightblue" d="M357,-198.852C357,-191.629 357,-181.185 357,-171.486"/>
<polygon fill="midnightblue" stroke="midnightblue" points="360.5,-171.44 357,-161.44 353.5,-171.44 360.5,-171.44"/>
</g>
<!-- Node19 -->
<g id="node19" class="node"><title>Node19</title>
<g id="a_node19"><a xlink:href="separator__symbol_8hpp.html" target="_top" xlink:title="Om header file. ">
<polygon fill="none" stroke="black" points="-0.68457,-129 -0.68457,-161 108.685,-161 108.685,-129 -0.68457,-129"/>
<text text-anchor="start" x="7.31543" y="-147" font-family="Helvetica,sans-Serif" font-size="10.00">om/symbol/separator</text>
<text text-anchor="middle" x="54" y="-135" font-family="Helvetica,sans-Serif" font-size="10.00">_symbol.hpp</text>
</a>
</g>
</g>
<!-- Node14&#45;&gt;Node19 -->
<g id="edge21" class="edge"><title>Node14&#45;&gt;Node19</title>
<path fill="none" stroke="midnightblue" d="M316.688,-200.938C271.112,-192.8 194.466,-178.651 118.931,-162.139"/>
<polygon fill="midnightblue" stroke="midnightblue" points="119.285,-158.633 108.766,-159.901 117.78,-165.47 119.285,-158.633"/>
</g>
<!-- Node16 -->
<g id="node16" class="node"><title>Node16</title>
<g id="a_node16"><a xlink:href="macro_8hpp.html" target="_top" xlink:title="Om header file. ">
<polygon fill="none" stroke="black" points="167.042,-71 167.042,-91 246.958,-91 246.958,-71 167.042,-71"/>
<text text-anchor="middle" x="207" y="-77" font-family="Helvetica,sans-Serif" font-size="10.00">om/macro.hpp</text>
</a>
</g>
</g>
<!-- Node15&#45;&gt;Node16 -->
<g id="edge17" class="edge"><title>Node15&#45;&gt;Node16</title>
<path fill="none" stroke="midnightblue" d="M207,-134.852C207,-126.06 207,-112.498 207,-101.313"/>
<polygon fill="midnightblue" stroke="midnightblue" points="210.5,-101.186 207,-91.1858 203.5,-101.186 210.5,-101.186"/>
</g>
<!-- Node17 -->
<g id="node17" class="node"><title>Node17</title>
<polygon fill="none" stroke="#bfbfbf" points="156.2,-1 156.2,-33 257.8,-33 257.8,-1 156.2,-1"/>
<text text-anchor="start" x="164.2" y="-19" font-family="Helvetica,sans-Serif" font-size="10.00">boost/preprocessor</text>
<text text-anchor="middle" x="207" y="-7" font-family="Helvetica,sans-Serif" font-size="10.00">/stringize.hpp</text>
</g>
<!-- Node16&#45;&gt;Node17 -->
<g id="edge18" class="edge"><title>Node16&#45;&gt;Node17</title>
<path fill="none" stroke="midnightblue" d="M207,-70.8517C207,-63.6285 207,-53.1849 207,-43.4856"/>
<polygon fill="midnightblue" stroke="midnightblue" points="210.5,-43.4404 207,-33.4404 203.5,-43.4404 210.5,-43.4404"/>
</g>
<!-- Node18&#45;&gt;Node16 -->
<g id="edge20" class="edge"><title>Node18&#45;&gt;Node16</title>
<path fill="none" stroke="midnightblue" d="M320.689,-128.992C295.541,-118.597 262.402,-104.899 238.395,-94.9767"/>
<polygon fill="midnightblue" stroke="midnightblue" points="239.616,-91.6941 229.037,-91.1088 236.942,-98.1633 239.616,-91.6941"/>
</g>
<!-- Node19&#45;&gt;Node16 -->
<g id="edge22" class="edge"><title>Node19&#45;&gt;Node16</title>
<path fill="none" stroke="midnightblue" d="M91.037,-128.992C116.688,-118.597 150.49,-104.899 174.977,-94.9767"/>
<polygon fill="midnightblue" stroke="midnightblue" points="176.568,-98.1083 184.522,-91.1088 173.939,-91.6207 176.568,-98.1083"/>
</g>
<!-- Node21 -->
<g id="node21" class="node"><title>Node21</title>
<g id="a_node21"><a xlink:href="copyable_8hpp.html" target="_top" xlink:title="Om header file. ">
<polygon fill="none" stroke="black" points="951.919,-135 951.919,-155 1044.08,-155 1044.08,-135 951.919,-135"/>
<text text-anchor="middle" x="998" y="-141" font-family="Helvetica,sans-Serif" font-size="10.00">om/copyable.hpp</text>
</a>
</g>
</g>
<!-- Node20&#45;&gt;Node21 -->
<g id="edge28" class="edge"><title>Node20&#45;&gt;Node21</title>
<path fill="none" stroke="midnightblue" d="M1186.69,-198.976C1152.96,-189.801 1099.3,-175.109 1053,-162 1048.34,-160.681 1043.47,-159.285 1038.62,-157.889"/>
<polygon fill="midnightblue" stroke="midnightblue" points="1039.39,-154.467 1028.81,-155.048 1037.44,-161.191 1039.39,-154.467"/>
</g>
<!-- Node24 -->
<g id="node24" class="node"><title>Node24</title>
<g id="a_node24"><a xlink:href="moveable_8hpp.html" target="_top" xlink:title="Om header file. ">
<polygon fill="none" stroke="black" points="1062.25,-135 1062.25,-155 1157.75,-155 1157.75,-135 1062.25,-135"/>
<text text-anchor="middle" x="1110" y="-141" font-family="Helvetica,sans-Serif" font-size="10.00">om/moveable.hpp</text>
</a>
</g>
</g>
<!-- Node20&#45;&gt;Node24 -->
<g id="edge34" class="edge"><title>Node20&#45;&gt;Node24</title>
<path fill="none" stroke="midnightblue" d="M1203.77,-198.852C1185.65,-188.641 1156.12,-171.994 1135.04,-160.112"/>
<polygon fill="midnightblue" stroke="midnightblue" points="1136.73,-157.047 1126.3,-155.186 1133.29,-163.145 1136.73,-157.047"/>
</g>
<!-- Node26 -->
<g id="node26" class="node"><title>Node26</title>
<g id="a_node26"><a xlink:href="giveable_8cpp.html" target="_top" xlink:title="Om source file. ">
<polygon fill="none" stroke="black" points="1175.59,-135 1175.59,-155 1264.41,-155 1264.41,-135 1175.59,-135"/>
<text text-anchor="middle" x="1220" y="-141" font-family="Helvetica,sans-Serif" font-size="10.00">om/giveable.cpp</text>
</a>
</g>
</g>
<!-- Node20&#45;&gt;Node26 -->
<g id="edge40" class="edge"><title>Node20&#45;&gt;Node26</title>
<path fill="none" stroke="midnightblue" d="M1215.04,-198.852C1213.25,-190.06 1212.8,-176.498 1213.7,-165.313"/>
<polygon fill="midnightblue" stroke="midnightblue" points="1217.19,-165.559 1215.04,-155.186 1210.25,-164.64 1217.19,-165.559"/>
</g>
<!-- Node22 -->
<g id="node22" class="node"><title>Node22</title>
<polygon fill="none" stroke="#bfbfbf" points="1175.94,-71 1175.94,-91 1228.06,-91 1228.06,-71 1175.94,-71"/>
<text text-anchor="middle" x="1202" y="-77" font-family="Helvetica,sans-Serif" font-size="10.00">memory</text>
</g>
<!-- Node21&#45;&gt;Node22 -->
<g id="edge29" class="edge"><title>Node21&#45;&gt;Node22</title>
<path fill="none" stroke="midnightblue" d="M1027.66,-134.985C1064.36,-123.831 1126.8,-104.856 1166.14,-92.8973"/>
<polygon fill="midnightblue" stroke="midnightblue" points="1167.31,-96.2004 1175.86,-89.9437 1165.28,-89.5029 1167.31,-96.2004"/>
</g>
<!-- Node23 -->
<g id="node23" class="node"><title>Node23</title>
<g id="a_node23"><a xlink:href="copyable_8cpp.html" target="_top" xlink:title="Om source file. ">
<polygon fill="none" stroke="black" points="952.2,-71 952.2,-91 1043.8,-91 1043.8,-71 952.2,-71"/>
<text text-anchor="middle" x="998" y="-77" font-family="Helvetica,sans-Serif" font-size="10.00">om/copyable.cpp</text>
</a>
</g>
</g>
<!-- Node21&#45;&gt;Node23 -->
<g id="edge30" class="edge"><title>Node21&#45;&gt;Node23</title>
<path fill="none" stroke="midnightblue" d="M993.045,-134.852C991.252,-126.06 990.802,-112.498 991.696,-101.313"/>
<polygon fill="midnightblue" stroke="midnightblue" points="995.194,-101.559 993.037,-91.1858 988.254,-100.64 995.194,-101.559"/>
</g>
<!-- Node23&#45;&gt;Node10 -->
<g id="edge31" class="edge"><title>Node23&#45;&gt;Node10</title>
<path fill="none" stroke="midnightblue" d="M998,-70.8517C998,-62.0601 998,-48.4977 998,-37.3131"/>
<polygon fill="midnightblue" stroke="midnightblue" points="1001.5,-37.1858 998,-27.1858 994.5,-37.1859 1001.5,-37.1858"/>
</g>
<!-- Node23&#45;&gt;Node11 -->
<g id="edge32" class="edge"><title>Node23&#45;&gt;Node11</title>
<path fill="none" stroke="midnightblue" d="M1028.83,-70.9847C1066.38,-60.0012 1129.88,-41.4317 1170.85,-29.4483"/>
<polygon fill="midnightblue" stroke="midnightblue" points="1171.89,-32.7928 1180.5,-26.6264 1169.92,-26.0742 1171.89,-32.7928"/>
</g>
<!-- Node23&#45;&gt;Node21 -->
<g id="edge33" class="edge"><title>Node23&#45;&gt;Node21</title>
<path fill="none" stroke="midnightblue" d="M1002.96,-91.1858C1004.75,-99.991 1005.2,-113.557 1004.3,-124.735"/>
<polygon fill="midnightblue" stroke="midnightblue" points="1000.8,-124.478 1002.96,-134.852 1007.74,-125.4 1000.8,-124.478"/>
</g>
<!-- Node24&#45;&gt;Node22 -->
<g id="edge35" class="edge"><title>Node24&#45;&gt;Node22</title>
<path fill="none" stroke="midnightblue" d="M1123.57,-134.852C1138.39,-124.87 1162.33,-108.737 1179.86,-96.9179"/>
<polygon fill="midnightblue" stroke="midnightblue" points="1182.03,-99.6769 1188.37,-91.1858 1178.12,-93.872 1182.03,-99.6769"/>
</g>
<!-- Node25 -->
<g id="node25" class="node"><title>Node25</title>
<g id="a_node25"><a xlink:href="moveable_8cpp.html" target="_top" xlink:title="Om source file. ">
<polygon fill="none" stroke="black" points="1062.53,-71 1062.53,-91 1157.47,-91 1157.47,-71 1062.53,-71"/>
<text text-anchor="middle" x="1110" y="-77" font-family="Helvetica,sans-Serif" font-size="10.00">om/moveable.cpp</text>
</a>
</g>
</g>
<!-- Node24&#45;&gt;Node25 -->
<g id="edge36" class="edge"><title>Node24&#45;&gt;Node25</title>
<path fill="none" stroke="midnightblue" d="M1105.04,-134.852C1103.25,-126.06 1102.8,-112.498 1103.7,-101.313"/>
<polygon fill="midnightblue" stroke="midnightblue" points="1107.19,-101.559 1105.04,-91.1858 1100.25,-100.64 1107.19,-101.559"/>
</g>
<!-- Node25&#45;&gt;Node10 -->
<g id="edge37" class="edge"><title>Node25&#45;&gt;Node10</title>
<path fill="none" stroke="midnightblue" d="M1093.47,-70.8517C1075.03,-60.6406 1044.96,-43.9938 1023.49,-32.1116"/>
<polygon fill="midnightblue" stroke="midnightblue" points="1025.04,-28.9669 1014.59,-27.1858 1021.65,-35.0912 1025.04,-28.9669"/>
</g>
<!-- Node25&#45;&gt;Node11 -->
<g id="edge38" class="edge"><title>Node25&#45;&gt;Node11</title>
<path fill="none" stroke="midnightblue" d="M1124.76,-70.8517C1141,-60.778 1167.35,-44.4406 1186.46,-32.5937"/>
<polygon fill="midnightblue" stroke="midnightblue" points="1188.53,-35.43 1195.18,-27.1858 1184.84,-29.4806 1188.53,-35.43"/>
</g>
<!-- Node25&#45;&gt;Node24 -->
<g id="edge39" class="edge"><title>Node25&#45;&gt;Node24</title>
<path fill="none" stroke="midnightblue" d="M1114.96,-91.1858C1116.75,-99.991 1117.2,-113.557 1116.3,-124.735"/>
<polygon fill="midnightblue" stroke="midnightblue" points="1112.8,-124.478 1114.96,-134.852 1119.74,-125.4 1112.8,-124.478"/>
</g>
<!-- Node26&#45;&gt;Node20 -->
<g id="edge41" class="edge"><title>Node26&#45;&gt;Node20</title>
<path fill="none" stroke="midnightblue" d="M1224.96,-155.186C1226.75,-163.991 1227.2,-177.557 1226.3,-188.735"/>
<polygon fill="midnightblue" stroke="midnightblue" points="1222.8,-188.478 1224.96,-198.852 1229.74,-189.4 1222.8,-188.478"/>
</g>
<!-- Node27&#45;&gt;Node22 -->
<g id="edge43" class="edge"><title>Node27&#45;&gt;Node22</title>
<path fill="none" stroke="midnightblue" d="M1309.68,-134.985C1288.59,-124.607 1253.74,-107.458 1229.42,-95.4904"/>
<polygon fill="midnightblue" stroke="midnightblue" points="1230.86,-92.3009 1220.34,-91.0262 1227.77,-98.5817 1230.86,-92.3009"/>
</g>
<!-- Node28 -->
<g id="node28" class="node"><title>Node28</title>
<g id="a_node28"><a xlink:href="producer_8cpp.html" target="_top" xlink:title="Om source file. ">
<polygon fill="none" stroke="black" points="1264.75,-71 1264.75,-91 1355.25,-91 1355.25,-71 1264.75,-71"/>
<text text-anchor="middle" x="1310" y="-77" font-family="Helvetica,sans-Serif" font-size="10.00">om/producer.cpp</text>
</a>
</g>
</g>
<!-- Node27&#45;&gt;Node28 -->
<g id="edge44" class="edge"><title>Node27&#45;&gt;Node28</title>
<path fill="none" stroke="midnightblue" d="M1320.39,-134.852C1316.04,-126.06 1311.66,-112.498 1309.3,-101.313"/>
<polygon fill="midnightblue" stroke="midnightblue" points="1312.72,-100.518 1307.7,-91.1858 1305.81,-101.609 1312.72,-100.518"/>
</g>
<!-- Node28&#45;&gt;Node10 -->
<g id="edge45" class="edge"><title>Node28&#45;&gt;Node10</title>
<path fill="none" stroke="midnightblue" d="M1264.63,-70.9847C1201.47,-58.4326 1088.45,-35.9733 1032.01,-24.7586"/>
<polygon fill="midnightblue" stroke="midnightblue" points="1032.65,-21.3167 1022.16,-22.8004 1031.28,-28.1824 1032.65,-21.3167"/>
</g>
<!-- Node28&#45;&gt;Node11 -->
<g id="edge46" class="edge"><title>Node28&#45;&gt;Node11</title>
<path fill="none" stroke="midnightblue" d="M1295.24,-70.8517C1279,-60.778 1252.65,-44.4406 1233.54,-32.5937"/>
<polygon fill="midnightblue" stroke="midnightblue" points="1235.16,-29.4806 1224.82,-27.1858 1231.47,-35.43 1235.16,-29.4806"/>
</g>
<!-- Node28&#45;&gt;Node27 -->
<g id="edge47" class="edge"><title>Node28&#45;&gt;Node27</title>
<path fill="none" stroke="midnightblue" d="M1317.63,-91.1858C1321.98,-99.991 1326.36,-113.557 1328.71,-124.735"/>
<polygon fill="midnightblue" stroke="midnightblue" points="1325.29,-125.517 1330.3,-134.852 1332.2,-124.429 1325.29,-125.517"/>
</g>
<!-- Node30 -->
<g id="node30" class="node"><title>Node30</title>
<polygon fill="none" stroke="#bfbfbf" points="1505.88,-315 1505.88,-335 1554.12,-335 1554.12,-315 1505.88,-315"/>
<text text-anchor="middle" x="1530" y="-321" font-family="Helvetica,sans-Serif" font-size="10.00">cstddef</text>
</g>
<!-- Node29&#45;&gt;Node30 -->
<g id="edge49" class="edge"><title>Node29&#45;&gt;Node30</title>
<path fill="none" stroke="midnightblue" d="M1454.86,-372.753C1469.02,-363.946 1490.53,-350.558 1506.92,-340.362"/>
<polygon fill="midnightblue" stroke="midnightblue" points="1508.77,-343.33 1515.41,-335.075 1505.08,-337.387 1508.77,-343.33"/>
</g>
<!-- Node31 -->
<g id="node31" class="node"><title>Node31</title>
<g id="a_node31"><a xlink:href="shareable_8cpp.html" target="_top" xlink:title="Om source file. ">
<polygon fill="none" stroke="black" points="1392.25,-315 1392.25,-335 1487.75,-335 1487.75,-315 1392.25,-315"/>
<text text-anchor="middle" x="1440" y="-321" font-family="Helvetica,sans-Serif" font-size="10.00">om/shareable.cpp</text>
</a>
</g>
</g>
<!-- Node29&#45;&gt;Node31 -->
<g id="edge50" class="edge"><title>Node29&#45;&gt;Node31</title>
<path fill="none" stroke="midnightblue" d="M1434.83,-372.753C1433.31,-365.25 1432.88,-354.424 1433.56,-345.078"/>
<polygon fill="midnightblue" stroke="midnightblue" points="1437.05,-345.444 1434.87,-335.075 1430.1,-344.538 1437.05,-345.444"/>
</g>
<!-- Node31&#45;&gt;Node11 -->
<g id="edge51" class="edge"><title>Node31&#45;&gt;Node11</title>
<path fill="none" stroke="midnightblue" d="M1440,-314.838C1440,-295.48 1440,-248.99 1440,-210 1440,-210 1440,-210 1440,-144 1440,-109.425 1441.25,-93.624 1416,-70 1370.65,-27.563 1295.83,-18.4548 1249.94,-17.1912"/>
<polygon fill="midnightblue" stroke="midnightblue" points="1249.82,-13.6889 1239.76,-17.0266 1249.71,-20.688 1249.82,-13.6889"/>
</g>
<!-- Node31&#45;&gt;Node29 -->
<g id="edge54" class="edge"><title>Node31&#45;&gt;Node29</title>
<path fill="none" stroke="midnightblue" d="M1445.13,-335.075C1446.67,-342.526 1447.11,-353.338 1446.45,-362.707"/>
<polygon fill="midnightblue" stroke="midnightblue" points="1442.96,-362.389 1445.17,-372.753 1449.91,-363.278 1442.96,-362.389"/>
</g>
<!-- Node32 -->
<g id="node32" class="node"><title>Node32</title>
<polygon fill="none" stroke="#bfbfbf" points="1606.62,-257 1606.62,-277 1739.38,-277 1739.38,-257 1606.62,-257"/>
<text text-anchor="middle" x="1673" y="-263" font-family="Helvetica,sans-Serif" font-size="10.00">boost/checked_delete.hpp</text>
</g>
<!-- Node31&#45;&gt;Node32 -->
<g id="edge52" class="edge"><title>Node31&#45;&gt;Node32</title>
<path fill="none" stroke="midnightblue" d="M1477.69,-314.94C1517.96,-305.262 1581.88,-289.901 1625.54,-279.406"/>
<polygon fill="midnightblue" stroke="midnightblue" points="1626.45,-282.787 1635.36,-277.047 1624.82,-275.98 1626.45,-282.787"/>
</g>
<!-- Node33 -->
<g id="node33" class="node"><title>Node33</title>
<polygon fill="none" stroke="#bfbfbf" points="1467.74,-257 1467.74,-277 1588.26,-277 1588.26,-257 1467.74,-257"/>
<text text-anchor="middle" x="1528" y="-263" font-family="Helvetica,sans-Serif" font-size="10.00">boost/integer_traits.hpp</text>
</g>
<!-- Node31&#45;&gt;Node33 -->
<g id="edge53" class="edge"><title>Node31&#45;&gt;Node33</title>
<path fill="none" stroke="midnightblue" d="M1454.53,-314.753C1468.24,-306.027 1489.02,-292.805 1504.99,-282.646"/>
<polygon fill="midnightblue" stroke="midnightblue" points="1507.18,-285.397 1513.74,-277.075 1503.42,-279.491 1507.18,-285.397"/>
</g>
<!-- Node34&#45;&gt;Node1 -->
<g id="edge56" class="edge"><title>Node34&#45;&gt;Node1</title>
<path fill="none" stroke="midnightblue" d="M1531.04,-393.118C1508.25,-402.473 1469.81,-417.092 1440.72,-427.517"/>
<polygon fill="midnightblue" stroke="midnightblue" points="1439.5,-424.235 1431.25,-430.878 1441.84,-430.832 1439.5,-424.235"/>
</g>
</g>
</svg>
