<?xml version="1.0" encoding="UTF-8" standalone="no"?>
<!DOCTYPE svg PUBLIC "-//W3C//DTD SVG 1.1//EN"
 "http://www.w3.org/Graphics/SVG/1.1/DTD/svg11.dtd">
<!-- Generated by graphviz version 2.28.0 (20120817.0054)
 -->
<!-- Title: code/om/operations/program_operation.cpp Pages: 1 -->
<svg width="684pt" height="244pt"
 viewBox="0.00 0.00 684.00 244.00" xmlns="http://www.w3.org/2000/svg" xmlns:xlink="http://www.w3.org/1999/xlink">
<g id="graph1" class="graph" transform="scale(1 1) rotate(0) translate(4 240)">
<title>code/om/operations/program_operation.cpp</title>
<!-- Node1 -->
<g id="node1" class="node"><title>Node1</title>
<polygon fill="#bfbfbf" stroke="black" points="279.5,-205 279.5,-235 396.5,-235 396.5,-205 279.5,-205"/>
<text text-anchor="start" x="287.5" y="-223" font-family="Helvetica,sans-Serif" font-size="10.00">code/om/operations</text>
<text text-anchor="middle" x="338" y="-212" font-family="Helvetica,sans-Serif" font-size="10.00">/program_operation.cpp</text>
</g>
<!-- Node2 -->
<g id="node3" class="node"><title>Node2</title>
<a xlink:href="program__operation_8hpp.html" target="_top" xlink:title="Om hpp file.">
<polygon fill="none" stroke="black" points="279,-137 279,-167 397,-167 397,-137 279,-137"/>
<text text-anchor="start" x="287" y="-155" font-family="Helvetica,sans-Serif" font-size="10.00">code/om/operations</text>
<text text-anchor="middle" x="338" y="-144" font-family="Helvetica,sans-Serif" font-size="10.00">/program_operation.hpp</text>
</a>
</g>
<!-- Node1&#45;&gt;Node2 -->
<g id="edge2" class="edge"><title>Node1&#45;&gt;Node2</title>
<path fill="none" stroke="midnightblue" d="M331.455,-194.532C331.005,-185.361 331.296,-175.245 332.325,-167.293"/>
<polygon fill="midnightblue" stroke="midnightblue" points="327.983,-195.013 332.322,-204.679 334.958,-194.417 327.983,-195.013"/>
</g>
<!-- Node2&#45;&gt;Node1 -->
<g id="edge20" class="edge"><title>Node2&#45;&gt;Node1</title>
<path fill="none" stroke="midnightblue" d="M344.544,-177.436C344.995,-186.605 344.706,-196.722 343.678,-204.679"/>
<polygon fill="midnightblue" stroke="midnightblue" points="348.016,-176.958 343.675,-167.293 341.041,-177.555 348.016,-176.958"/>
</g>
<!-- Node3 -->
<g id="node5" class="node"><title>Node3</title>
<a xlink:href="expression__operation_8hpp.html" target="_top" xlink:title="Om hpp file.">
<polygon fill="none" stroke="black" points="0,-69 0,-99 130,-99 130,-69 0,-69"/>
<text text-anchor="start" x="8" y="-87" font-family="Helvetica,sans-Serif" font-size="10.00">code/om/operations</text>
<text text-anchor="middle" x="65" y="-76" font-family="Helvetica,sans-Serif" font-size="10.00">/expression_operation.hpp</text>
</a>
</g>
<!-- Node2&#45;&gt;Node3 -->
<g id="edge4" class="edge"><title>Node2&#45;&gt;Node3</title>
<path fill="none" stroke="midnightblue" d="M269.77,-134.505C224.627,-123.591 166.067,-109.434 123.141,-99.0561"/>
<polygon fill="midnightblue" stroke="midnightblue" points="269.227,-137.974 279.77,-136.922 270.872,-131.17 269.227,-137.974"/>
</g>
<!-- Node5 -->
<g id="node9" class="node"><title>Node5</title>
<a xlink:href="lexicon__operation_8hpp.html" target="_top" xlink:title="Om hpp file.">
<polygon fill="none" stroke="black" points="148,-69 148,-99 260,-99 260,-69 148,-69"/>
<text text-anchor="start" x="156" y="-87" font-family="Helvetica,sans-Serif" font-size="10.00">code/om/operations</text>
<text text-anchor="middle" x="204" y="-76" font-family="Helvetica,sans-Serif" font-size="10.00">/lexicon_operation.hpp</text>
</a>
</g>
<!-- Node2&#45;&gt;Node5 -->
<g id="edge8" class="edge"><title>Node2&#45;&gt;Node5</title>
<path fill="none" stroke="midnightblue" d="M300.112,-132.339C278.708,-121.796 252.383,-108.83 232.699,-99.1352"/>
<polygon fill="midnightblue" stroke="midnightblue" points="298.736,-135.563 309.254,-136.841 301.829,-129.283 298.736,-135.563"/>
</g>
<!-- Node7 -->
<g id="node13" class="node"><title>Node7</title>
<a xlink:href="operand__operation_8hpp.html" target="_top" xlink:title="Om hpp file.">
<polygon fill="none" stroke="black" points="278.5,-69 278.5,-99 397.5,-99 397.5,-69 278.5,-69"/>
<text text-anchor="start" x="286.5" y="-87" font-family="Helvetica,sans-Serif" font-size="10.00">code/om/operations</text>
<text text-anchor="middle" x="338" y="-76" font-family="Helvetica,sans-Serif" font-size="10.00">/operand_operation.hpp</text>
</a>
</g>
<!-- Node2&#45;&gt;Node7 -->
<g id="edge12" class="edge"><title>Node2&#45;&gt;Node7</title>
<path fill="none" stroke="midnightblue" d="M338,-126.532C338,-117.361 338,-107.245 338,-99.2931"/>
<polygon fill="midnightblue" stroke="midnightblue" points="334.5,-126.679 338,-136.679 341.5,-126.679 334.5,-126.679"/>
</g>
<!-- Node9 -->
<g id="node17" class="node"><title>Node9</title>
<a xlink:href="operator__operation_8hpp.html" target="_top" xlink:title="Om hpp file.">
<polygon fill="none" stroke="black" points="416,-69 416,-99 534,-99 534,-69 416,-69"/>
<text text-anchor="start" x="424" y="-87" font-family="Helvetica,sans-Serif" font-size="10.00">code/om/operations</text>
<text text-anchor="middle" x="475" y="-76" font-family="Helvetica,sans-Serif" font-size="10.00">/operator_operation.hpp</text>
</a>
</g>
<!-- Node2&#45;&gt;Node9 -->
<g id="edge16" class="edge"><title>Node2&#45;&gt;Node9</title>
<path fill="none" stroke="midnightblue" d="M376.442,-132.48C398.378,-121.913 425.444,-108.874 445.659,-99.1352"/>
<polygon fill="midnightblue" stroke="midnightblue" points="374.88,-129.348 367.39,-136.841 377.918,-135.654 374.88,-129.348"/>
</g>
<!-- Node11 -->
<g id="node22" class="node"><title>Node11</title>
<a xlink:href="separator__operation_8hpp.html" target="_top" xlink:title="Om hpp file.">
<polygon fill="none" stroke="black" points="552,-69 552,-99 676,-99 676,-69 552,-69"/>
<text text-anchor="start" x="560" y="-87" font-family="Helvetica,sans-Serif" font-size="10.00">code/om/operations</text>
<text text-anchor="middle" x="614" y="-76" font-family="Helvetica,sans-Serif" font-size="10.00">/separator_operation.hpp</text>
</a>
</g>
<!-- Node2&#45;&gt;Node11 -->
<g id="edge22" class="edge"><title>Node2&#45;&gt;Node11</title>
<path fill="none" stroke="midnightblue" d="M406.693,-134.574C452.371,-123.651 511.731,-109.456 555.22,-99.0561"/>
<polygon fill="midnightblue" stroke="midnightblue" points="405.782,-131.192 396.87,-136.922 407.41,-138.001 405.782,-131.192"/>
</g>
<!-- Node4 -->
<g id="node7" class="node"><title>Node4</title>
<a xlink:href="expression__operation_8cpp.html" target="_top" xlink:title="Om cpp file.">
<polygon fill="none" stroke="black" points="0.5,-1 0.5,-31 129.5,-31 129.5,-1 0.5,-1"/>
<text text-anchor="start" x="8.5" y="-19" font-family="Helvetica,sans-Serif" font-size="10.00">code/om/operations</text>
<text text-anchor="middle" x="65" y="-8" font-family="Helvetica,sans-Serif" font-size="10.00">/expression_operation.cpp</text>
</a>
</g>
<!-- Node3&#45;&gt;Node4 -->
<g id="edge6" class="edge"><title>Node3&#45;&gt;Node4</title>
<path fill="none" stroke="midnightblue" d="M65,-58.5322C65,-49.3606 65,-39.2449 65,-31.2931"/>
<polygon fill="midnightblue" stroke="midnightblue" points="61.5001,-58.6789 65,-68.679 68.5001,-58.679 61.5001,-58.6789"/>
</g>
<!-- Node6 -->
<g id="node11" class="node"><title>Node6</title>
<a xlink:href="lexicon__operation_8cpp.html" target="_top" xlink:title="Om cpp file.">
<polygon fill="none" stroke="black" points="148.5,-1 148.5,-31 259.5,-31 259.5,-1 148.5,-1"/>
<text text-anchor="start" x="156.5" y="-19" font-family="Helvetica,sans-Serif" font-size="10.00">code/om/operations</text>
<text text-anchor="middle" x="204" y="-8" font-family="Helvetica,sans-Serif" font-size="10.00">/lexicon_operation.cpp</text>
</a>
</g>
<!-- Node5&#45;&gt;Node6 -->
<g id="edge10" class="edge"><title>Node5&#45;&gt;Node6</title>
<path fill="none" stroke="midnightblue" d="M204,-58.5322C204,-49.3606 204,-39.2449 204,-31.2931"/>
<polygon fill="midnightblue" stroke="midnightblue" points="200.5,-58.6789 204,-68.679 207.5,-58.679 200.5,-58.6789"/>
</g>
<!-- Node8 -->
<g id="node15" class="node"><title>Node8</title>
<a xlink:href="operand__operation_8cpp.html" target="_top" xlink:title="Om cpp file.">
<polygon fill="none" stroke="black" points="279,-1 279,-31 397,-31 397,-1 279,-1"/>
<text text-anchor="start" x="287" y="-19" font-family="Helvetica,sans-Serif" font-size="10.00">code/om/operations</text>
<text text-anchor="middle" x="338" y="-8" font-family="Helvetica,sans-Serif" font-size="10.00">/operand_operation.cpp</text>
</a>
</g>
<!-- Node7&#45;&gt;Node8 -->
<g id="edge14" class="edge"><title>Node7&#45;&gt;Node8</title>
<path fill="none" stroke="midnightblue" d="M338,-58.5322C338,-49.3606 338,-39.2449 338,-31.2931"/>
<polygon fill="midnightblue" stroke="midnightblue" points="334.5,-58.6789 338,-68.679 341.5,-58.679 334.5,-58.6789"/>
</g>
<!-- Node10 -->
<g id="node19" class="node"><title>Node10</title>
<a xlink:href="operator__operation_8cpp.html" target="_top" xlink:title="Om cpp file.">
<polygon fill="none" stroke="black" points="416.5,-1 416.5,-31 533.5,-31 533.5,-1 416.5,-1"/>
<text text-anchor="start" x="424.5" y="-19" font-family="Helvetica,sans-Serif" font-size="10.00">code/om/operations</text>
<text text-anchor="middle" x="475" y="-8" font-family="Helvetica,sans-Serif" font-size="10.00">/operator_operation.cpp</text>
</a>
</g>
<!-- Node9&#45;&gt;Node10 -->
<g id="edge18" class="edge"><title>Node9&#45;&gt;Node10</title>
<path fill="none" stroke="midnightblue" d="M475,-58.5322C475,-49.3606 475,-39.2449 475,-31.2931"/>
<polygon fill="midnightblue" stroke="midnightblue" points="471.5,-58.6789 475,-68.679 478.5,-58.679 471.5,-58.6789"/>
</g>
<!-- Node12 -->
<g id="node24" class="node"><title>Node12</title>
<a xlink:href="separator__operation_8cpp.html" target="_top" xlink:title="Om cpp file.">
<polygon fill="none" stroke="black" points="552.5,-1 552.5,-31 675.5,-31 675.5,-1 552.5,-1"/>
<text text-anchor="start" x="560.5" y="-19" font-family="Helvetica,sans-Serif" font-size="10.00">code/om/operations</text>
<text text-anchor="middle" x="614" y="-8" font-family="Helvetica,sans-Serif" font-size="10.00">/separator_operation.cpp</text>
</a>
</g>
<!-- Node11&#45;&gt;Node12 -->
<g id="edge24" class="edge"><title>Node11&#45;&gt;Node12</title>
<path fill="none" stroke="midnightblue" d="M614,-58.5322C614,-49.3606 614,-39.2449 614,-31.2931"/>
<polygon fill="midnightblue" stroke="midnightblue" points="610.5,-58.6789 614,-68.679 617.5,-58.679 610.5,-58.6789"/>
</g>
</g>
</svg>
