<?xml version="1.0" encoding="UTF-8" standalone="no"?>
<!DOCTYPE svg PUBLIC "-//W3C//DTD SVG 1.1//EN"
 "http://www.w3.org/Graphics/SVG/1.1/DTD/svg11.dtd">
<!-- Generated by graphviz version 2.28.0 (20120817.0054)
 -->
<!-- Title: code/om/operations/program_operation.cpp Pages: 1 -->
<svg width="404pt" height="244pt"
 viewBox="0.00 0.00 404.00 244.00" xmlns="http://www.w3.org/2000/svg" xmlns:xlink="http://www.w3.org/1999/xlink">
<g id="graph1" class="graph" transform="scale(1 1) rotate(0) translate(4 240)">
<title>code/om/operations/program_operation.cpp</title>
<!-- Node1 -->
<g id="node1" class="node"><title>Node1</title>
<polygon fill="#bfbfbf" stroke="black" points="145.5,-205 145.5,-235 262.5,-235 262.5,-205 145.5,-205"/>
<text text-anchor="start" x="153.5" y="-223" font-family="Helvetica,sans-Serif" font-size="10.00">code/om/operations</text>
<text text-anchor="middle" x="204" y="-212" font-family="Helvetica,sans-Serif" font-size="10.00">/program_operation.cpp</text>
</g>
<!-- Node2 -->
<g id="node3" class="node"><title>Node2</title>
<a xlink:href="program__operation_8hpp.html" target="_top" xlink:title="Om hpp file.">
<polygon fill="none" stroke="black" points="145,-137 145,-167 263,-167 263,-137 145,-137"/>
<text text-anchor="start" x="153" y="-155" font-family="Helvetica,sans-Serif" font-size="10.00">code/om/operations</text>
<text text-anchor="middle" x="204" y="-144" font-family="Helvetica,sans-Serif" font-size="10.00">/program_operation.hpp</text>
</a>
</g>
<!-- Node1&#45;&gt;Node2 -->
<g id="edge2" class="edge"><title>Node1&#45;&gt;Node2</title>
<path fill="none" stroke="midnightblue" d="M197.455,-194.532C197.005,-185.361 197.296,-175.245 198.325,-167.293"/>
<polygon fill="midnightblue" stroke="midnightblue" points="193.983,-195.013 198.322,-204.679 200.958,-194.417 193.983,-195.013"/>
</g>
<!-- Node2&#45;&gt;Node1 -->
<g id="edge16" class="edge"><title>Node2&#45;&gt;Node1</title>
<path fill="none" stroke="midnightblue" d="M210.544,-177.436C210.995,-186.605 210.706,-196.722 209.678,-204.679"/>
<polygon fill="midnightblue" stroke="midnightblue" points="214.016,-176.958 209.675,-167.293 207.041,-177.555 214.016,-176.958"/>
</g>
<!-- Node3 -->
<g id="node5" class="node"><title>Node3</title>
<a xlink:href="expression__operation_8hpp.html" target="_top" xlink:title="Om hpp file.">
<polygon fill="none" stroke="black" points="0,-69 0,-99 130,-99 130,-69 0,-69"/>
<text text-anchor="start" x="8" y="-87" font-family="Helvetica,sans-Serif" font-size="10.00">code/om/operations</text>
<text text-anchor="middle" x="65" y="-76" font-family="Helvetica,sans-Serif" font-size="10.00">/expression_operation.hpp</text>
</a>
</g>
<!-- Node2&#45;&gt;Node3 -->
<g id="edge4" class="edge"><title>Node2&#45;&gt;Node3</title>
<path fill="none" stroke="midnightblue" d="M164.997,-132.48C142.741,-121.913 115.28,-108.874 94.7697,-99.1352"/>
<polygon fill="midnightblue" stroke="midnightblue" points="163.646,-135.714 174.181,-136.841 166.649,-129.39 163.646,-135.714"/>
</g>
<!-- Node5 -->
<g id="node9" class="node"><title>Node5</title>
<a xlink:href="lexicon__operation_8hpp.html" target="_top" xlink:title="Om hpp file.">
<polygon fill="none" stroke="black" points="148,-69 148,-99 260,-99 260,-69 148,-69"/>
<text text-anchor="start" x="156" y="-87" font-family="Helvetica,sans-Serif" font-size="10.00">code/om/operations</text>
<text text-anchor="middle" x="204" y="-76" font-family="Helvetica,sans-Serif" font-size="10.00">/lexicon_operation.hpp</text>
</a>
</g>
<!-- Node2&#45;&gt;Node5 -->
<g id="edge8" class="edge"><title>Node2&#45;&gt;Node5</title>
<path fill="none" stroke="midnightblue" d="M204,-126.532C204,-117.361 204,-107.245 204,-99.2931"/>
<polygon fill="midnightblue" stroke="midnightblue" points="200.5,-126.679 204,-136.679 207.5,-126.679 200.5,-126.679"/>
</g>
<!-- Node7 -->
<g id="node13" class="node"><title>Node7</title>
<a xlink:href="operator__operation_8hpp.html" target="_top" xlink:title="Om hpp file.">
<polygon fill="none" stroke="black" points="278,-69 278,-99 396,-99 396,-69 278,-69"/>
<text text-anchor="start" x="286" y="-87" font-family="Helvetica,sans-Serif" font-size="10.00">code/om/operations</text>
<text text-anchor="middle" x="337" y="-76" font-family="Helvetica,sans-Serif" font-size="10.00">/operator_operation.hpp</text>
</a>
</g>
<!-- Node2&#45;&gt;Node7 -->
<g id="edge12" class="edge"><title>Node2&#45;&gt;Node7</title>
<path fill="none" stroke="midnightblue" d="M241.605,-132.339C262.85,-121.796 288.978,-108.83 308.515,-99.1352"/>
<polygon fill="midnightblue" stroke="midnightblue" points="239.934,-129.261 232.532,-136.841 243.045,-135.531 239.934,-129.261"/>
</g>
<!-- Node4 -->
<g id="node7" class="node"><title>Node4</title>
<a xlink:href="expression__operation_8cpp.html" target="_top" xlink:title="Om cpp file.">
<polygon fill="none" stroke="black" points="0.5,-1 0.5,-31 129.5,-31 129.5,-1 0.5,-1"/>
<text text-anchor="start" x="8.5" y="-19" font-family="Helvetica,sans-Serif" font-size="10.00">code/om/operations</text>
<text text-anchor="middle" x="65" y="-8" font-family="Helvetica,sans-Serif" font-size="10.00">/expression_operation.cpp</text>
</a>
</g>
<!-- Node3&#45;&gt;Node4 -->
<g id="edge6" class="edge"><title>Node3&#45;&gt;Node4</title>
<path fill="none" stroke="midnightblue" d="M65,-58.5322C65,-49.3606 65,-39.2449 65,-31.2931"/>
<polygon fill="midnightblue" stroke="midnightblue" points="61.5001,-58.6789 65,-68.679 68.5001,-58.679 61.5001,-58.6789"/>
</g>
<!-- Node6 -->
<g id="node11" class="node"><title>Node6</title>
<a xlink:href="lexicon__operation_8cpp.html" target="_top" xlink:title="Om cpp file.">
<polygon fill="none" stroke="black" points="148.5,-1 148.5,-31 259.5,-31 259.5,-1 148.5,-1"/>
<text text-anchor="start" x="156.5" y="-19" font-family="Helvetica,sans-Serif" font-size="10.00">code/om/operations</text>
<text text-anchor="middle" x="204" y="-8" font-family="Helvetica,sans-Serif" font-size="10.00">/lexicon_operation.cpp</text>
</a>
</g>
<!-- Node5&#45;&gt;Node6 -->
<g id="edge10" class="edge"><title>Node5&#45;&gt;Node6</title>
<path fill="none" stroke="midnightblue" d="M204,-58.5322C204,-49.3606 204,-39.2449 204,-31.2931"/>
<polygon fill="midnightblue" stroke="midnightblue" points="200.5,-58.6789 204,-68.679 207.5,-58.679 200.5,-58.6789"/>
</g>
<!-- Node8 -->
<g id="node15" class="node"><title>Node8</title>
<a xlink:href="operator__operation_8cpp.html" target="_top" xlink:title="Om cpp file.">
<polygon fill="none" stroke="black" points="278.5,-1 278.5,-31 395.5,-31 395.5,-1 278.5,-1"/>
<text text-anchor="start" x="286.5" y="-19" font-family="Helvetica,sans-Serif" font-size="10.00">code/om/operations</text>
<text text-anchor="middle" x="337" y="-8" font-family="Helvetica,sans-Serif" font-size="10.00">/operator_operation.cpp</text>
</a>
</g>
<!-- Node7&#45;&gt;Node8 -->
<g id="edge14" class="edge"><title>Node7&#45;&gt;Node8</title>
<path fill="none" stroke="midnightblue" d="M337,-58.5322C337,-49.3606 337,-39.2449 337,-31.2931"/>
<polygon fill="midnightblue" stroke="midnightblue" points="333.5,-58.6789 337,-68.679 340.5,-58.679 333.5,-58.6789"/>
</g>
</g>
</svg>
