<?xml version="1.0" encoding="UTF-8" standalone="no"?>
<!DOCTYPE svg PUBLIC "-//W3C//DTD SVG 1.1//EN"
 "http://www.w3.org/Graphics/SVG/1.1/DTD/svg11.dtd">
<!-- Generated by graphviz version 2.30.1 (20130221.2233)
 -->
<!-- Title: om/operations/pull_operation.hpp Pages: 1 -->
<svg width="2994pt" height="182pt"
 viewBox="0.00 0.00 2994.00 182.00" xmlns="http://www.w3.org/2000/svg" xmlns:xlink="http://www.w3.org/1999/xlink">
<g id="graph0" class="graph" transform="scale(1 1) rotate(0) translate(4 178)">
<title>om/operations/pull_operation.hpp</title>
<!-- Node1 -->
<g id="node1" class="node"><title>Node1</title>
<polygon fill="#bfbfbf" stroke="black" points="1558.14,-141 1558.14,-173 1655.86,-173 1655.86,-141 1558.14,-141"/>
<text text-anchor="start" x="1566.14" y="-159" font-family="Helvetica,sans-Serif" font-size="10.00">om/operations/pull</text>
<text text-anchor="middle" x="1607" y="-147" font-family="Helvetica,sans-Serif" font-size="10.00">_operation.hpp</text>
</g>
<!-- Node2 -->
<g id="node2" class="node"><title>Node2</title>
<g id="a_node2"><a xlink:href="back__pull__character__operation_8cpp.html" target="_top" xlink:title="Om source file. ">
<polygon fill="none" stroke="black" points="-0.268066,-71 -0.268066,-103 150.268,-103 150.268,-71 -0.268066,-71"/>
<text text-anchor="start" x="7.73193" y="-89" font-family="Helvetica,sans-Serif" font-size="10.00">om/operations/back</text>
<text text-anchor="middle" x="75" y="-77" font-family="Helvetica,sans-Serif" font-size="10.00">_pull_character_operation.cpp</text>
</a>
</g>
</g>
<!-- Node1&#45;&gt;Node2 -->
<g id="edge1" class="edge"><title>Node1&#45;&gt;Node2</title>
<path fill="none" stroke="midnightblue" d="M1547.83,-155.06C1311.64,-151.124 435.712,-134.727 160,-104 156.866,-103.651 153.674,-103.251 150.455,-102.812"/>
<polygon fill="midnightblue" stroke="midnightblue" points="1547.88,-158.561 1557.94,-155.227 1548,-151.562 1547.88,-158.561"/>
</g>
<!-- Node4 -->
<g id="node4" class="node"><title>Node4</title>
<g id="a_node4"><a xlink:href="back__pull__code__point__operation_8cpp.html" target="_top" xlink:title="Om source file. ">
<polygon fill="none" stroke="black" points="169.109,-71 169.109,-103 326.891,-103 326.891,-71 169.109,-71"/>
<text text-anchor="start" x="177.109" y="-89" font-family="Helvetica,sans-Serif" font-size="10.00">om/operations/back</text>
<text text-anchor="middle" x="248" y="-77" font-family="Helvetica,sans-Serif" font-size="10.00">_pull_code_point_operation.cpp</text>
</a>
</g>
</g>
<!-- Node1&#45;&gt;Node4 -->
<g id="edge4" class="edge"><title>Node1&#45;&gt;Node4</title>
<path fill="none" stroke="midnightblue" d="M1547.95,-156.449C1366.55,-157.214 801.508,-155.02 337,-104 333.723,-103.64 330.385,-103.231 327.017,-102.785"/>
<polygon fill="midnightblue" stroke="midnightblue" points="1548.1,-159.948 1558.08,-156.401 1548.06,-152.948 1548.1,-159.948"/>
</g>
<!-- Node6 -->
<g id="node6" class="node"><title>Node6</title>
<g id="a_node6"><a xlink:href="back__pull__element__operation_8cpp.html" target="_top" xlink:title="Om source file. ">
<polygon fill="none" stroke="black" points="345.786,-71 345.786,-103 490.214,-103 490.214,-71 345.786,-71"/>
<text text-anchor="start" x="353.786" y="-89" font-family="Helvetica,sans-Serif" font-size="10.00">om/operations/back</text>
<text text-anchor="middle" x="418" y="-77" font-family="Helvetica,sans-Serif" font-size="10.00">_pull_element_operation.cpp</text>
</a>
</g>
</g>
<!-- Node1&#45;&gt;Node6 -->
<g id="edge7" class="edge"><title>Node1&#45;&gt;Node6</title>
<path fill="none" stroke="midnightblue" d="M1547.47,-156.246C1381.19,-156.279 897.897,-151.906 500,-104 496.832,-103.619 493.603,-103.185 490.346,-102.71"/>
<polygon fill="midnightblue" stroke="midnightblue" points="1547.96,-159.746 1557.96,-156.238 1547.96,-152.746 1547.96,-159.746"/>
</g>
<!-- Node8 -->
<g id="node8" class="node"><title>Node8</title>
<g id="a_node8"><a xlink:href="back__pull__form__operation_8cpp.html" target="_top" xlink:title="Om source file. ">
<polygon fill="none" stroke="black" points="508.574,-71 508.574,-103 637.426,-103 637.426,-71 508.574,-71"/>
<text text-anchor="start" x="516.574" y="-89" font-family="Helvetica,sans-Serif" font-size="10.00">om/operations/back</text>
<text text-anchor="middle" x="573" y="-77" font-family="Helvetica,sans-Serif" font-size="10.00">_pull_form_operation.cpp</text>
</a>
</g>
</g>
<!-- Node1&#45;&gt;Node8 -->
<g id="edge10" class="edge"><title>Node1&#45;&gt;Node8</title>
<path fill="none" stroke="midnightblue" d="M1547.62,-156.052C1396.56,-155.478 985.645,-149.489 647,-104 643.873,-103.58 640.683,-103.098 637.467,-102.57"/>
<polygon fill="midnightblue" stroke="midnightblue" points="1548.03,-159.553 1558.04,-156.085 1548.05,-152.553 1548.03,-159.553"/>
</g>
<!-- Node10 -->
<g id="node10" class="node"><title>Node10</title>
<g id="a_node10"><a xlink:href="back__pull__operand__operation_8cpp.html" target="_top" xlink:title="Om source file. ">
<polygon fill="none" stroke="black" points="656.225,-71 656.225,-103 801.775,-103 801.775,-71 656.225,-71"/>
<text text-anchor="start" x="664.225" y="-89" font-family="Helvetica,sans-Serif" font-size="10.00">om/operations/back</text>
<text text-anchor="middle" x="729" y="-77" font-family="Helvetica,sans-Serif" font-size="10.00">_pull_operand_operation.cpp</text>
</a>
</g>
</g>
<!-- Node1&#45;&gt;Node10 -->
<g id="edge13" class="edge"><title>Node1&#45;&gt;Node10</title>
<path fill="none" stroke="midnightblue" d="M1547.54,-154.704C1414.86,-151.247 1084.79,-139.507 811,-104 807.979,-103.608 804.902,-103.173 801.799,-102.704"/>
<polygon fill="midnightblue" stroke="midnightblue" points="1547.79,-158.212 1557.88,-154.967 1547.97,-151.214 1547.79,-158.212"/>
</g>
<!-- Node12 -->
<g id="node12" class="node"><title>Node12</title>
<g id="a_node12"><a xlink:href="back__pull__operator__operation_8cpp.html" target="_top" xlink:title="Om source file. ">
<polygon fill="none" stroke="black" points="819.951,-71 819.951,-103 966.049,-103 966.049,-71 819.951,-71"/>
<text text-anchor="start" x="827.951" y="-89" font-family="Helvetica,sans-Serif" font-size="10.00">om/operations/back</text>
<text text-anchor="middle" x="893" y="-77" font-family="Helvetica,sans-Serif" font-size="10.00">_pull_operator_operation.cpp</text>
</a>
</g>
</g>
<!-- Node1&#45;&gt;Node12 -->
<g id="edge16" class="edge"><title>Node1&#45;&gt;Node12</title>
<path fill="none" stroke="midnightblue" d="M1547.95,-153.325C1435.84,-147.764 1184.66,-132.989 975,-104 972.126,-103.603 969.201,-103.17 966.25,-102.709"/>
<polygon fill="midnightblue" stroke="midnightblue" points="1547.87,-156.826 1558.03,-153.819 1548.22,-149.834 1547.87,-156.826"/>
</g>
<!-- Node14 -->
<g id="node14" class="node"><title>Node14</title>
<g id="a_node14"><a xlink:href="back__pull__pair__operation_8cpp.html" target="_top" xlink:title="Om source file. ">
<polygon fill="none" stroke="black" points="984.237,-71 984.237,-103 1109.76,-103 1109.76,-71 984.237,-71"/>
<text text-anchor="start" x="992.237" y="-89" font-family="Helvetica,sans-Serif" font-size="10.00">om/operations/back</text>
<text text-anchor="middle" x="1047" y="-77" font-family="Helvetica,sans-Serif" font-size="10.00">_pull_pair_operation.cpp</text>
</a>
</g>
</g>
<!-- Node1&#45;&gt;Node14 -->
<g id="edge19" class="edge"><title>Node1&#45;&gt;Node14</title>
<path fill="none" stroke="midnightblue" d="M1547.68,-151.844C1455.54,-144.901 1272.62,-129.172 1119,-104 1116.09,-103.524 1113.13,-103.004 1110.14,-102.452"/>
<polygon fill="midnightblue" stroke="midnightblue" points="1547.69,-155.354 1557.92,-152.607 1548.21,-148.373 1547.69,-155.354"/>
</g>
<!-- Node16 -->
<g id="node16" class="node"><title>Node16</title>
<g id="a_node16"><a xlink:href="back__pull__separator__operation_8cpp.html" target="_top" xlink:title="Om source file. ">
<polygon fill="none" stroke="black" points="1128.45,-71 1128.45,-103 1279.55,-103 1279.55,-71 1128.45,-71"/>
<text text-anchor="start" x="1136.45" y="-89" font-family="Helvetica,sans-Serif" font-size="10.00">om/operations/back</text>
<text text-anchor="middle" x="1204" y="-77" font-family="Helvetica,sans-Serif" font-size="10.00">_pull_separator_operation.cpp</text>
</a>
</g>
</g>
<!-- Node1&#45;&gt;Node16 -->
<g id="edge22" class="edge"><title>Node1&#45;&gt;Node16</title>
<path fill="none" stroke="midnightblue" d="M1547.81,-146.678C1484.09,-136.551 1379.77,-119.711 1290,-104 1286.71,-103.424 1283.35,-102.829 1279.95,-102.222"/>
<polygon fill="midnightblue" stroke="midnightblue" points="1547.65,-150.195 1558.07,-148.306 1548.74,-143.282 1547.65,-150.195"/>
</g>
<!-- Node18 -->
<g id="node18" class="node"><title>Node18</title>
<g id="a_node18"><a xlink:href="back__pull__term__operation_8cpp.html" target="_top" xlink:title="Om source file. ">
<polygon fill="none" stroke="black" points="1298.57,-71 1298.57,-103 1427.43,-103 1427.43,-71 1298.57,-71"/>
<text text-anchor="start" x="1306.57" y="-89" font-family="Helvetica,sans-Serif" font-size="10.00">om/operations/back</text>
<text text-anchor="middle" x="1363" y="-77" font-family="Helvetica,sans-Serif" font-size="10.00">_pull_term_operation.cpp</text>
</a>
</g>
</g>
<!-- Node1&#45;&gt;Node18 -->
<g id="edge25" class="edge"><title>Node1&#45;&gt;Node18</title>
<path fill="none" stroke="midnightblue" d="M1548.06,-139.574C1508.18,-128.461 1455.91,-113.894 1417.1,-103.076"/>
<polygon fill="midnightblue" stroke="midnightblue" points="1547.34,-143.008 1557.92,-142.321 1549.22,-136.265 1547.34,-143.008"/>
</g>
<!-- Node20 -->
<g id="node20" class="node"><title>Node20</title>
<g id="a_node20"><a xlink:href="front__pull__character__operation_8cpp.html" target="_top" xlink:title="Om source file. ">
<polygon fill="none" stroke="black" points="1445.73,-71 1445.73,-103 1596.27,-103 1596.27,-71 1445.73,-71"/>
<text text-anchor="start" x="1453.73" y="-89" font-family="Helvetica,sans-Serif" font-size="10.00">om/operations/front</text>
<text text-anchor="middle" x="1521" y="-77" font-family="Helvetica,sans-Serif" font-size="10.00">_pull_character_operation.cpp</text>
</a>
</g>
</g>
<!-- Node1&#45;&gt;Node20 -->
<g id="edge28" class="edge"><title>Node1&#45;&gt;Node20</title>
<path fill="none" stroke="midnightblue" d="M1579.79,-134.488C1566.86,-124.261 1551.71,-112.285 1540.03,-103.049"/>
<polygon fill="midnightblue" stroke="midnightblue" points="1577.9,-137.452 1587.91,-140.909 1582.24,-131.961 1577.9,-137.452"/>
</g>
<!-- Node22 -->
<g id="node22" class="node"><title>Node22</title>
<g id="a_node22"><a xlink:href="front__pull__code__point__operation_8cpp.html" target="_top" xlink:title="Om source file. ">
<polygon fill="none" stroke="black" points="1615.11,-71 1615.11,-103 1772.89,-103 1772.89,-71 1615.11,-71"/>
<text text-anchor="start" x="1623.11" y="-89" font-family="Helvetica,sans-Serif" font-size="10.00">om/operations/front</text>
<text text-anchor="middle" x="1694" y="-77" font-family="Helvetica,sans-Serif" font-size="10.00">_pull_code_point_operation.cpp</text>
</a>
</g>
</g>
<!-- Node1&#45;&gt;Node22 -->
<g id="edge31" class="edge"><title>Node1&#45;&gt;Node22</title>
<path fill="none" stroke="midnightblue" d="M1634.52,-134.488C1647.61,-124.261 1662.93,-112.285 1674.75,-103.049"/>
<polygon fill="midnightblue" stroke="midnightblue" points="1632.03,-131.993 1626.31,-140.909 1636.34,-137.508 1632.03,-131.993"/>
</g>
<!-- Node24 -->
<g id="node24" class="node"><title>Node24</title>
<g id="a_node24"><a xlink:href="front__pull__element__operation_8cpp.html" target="_top" xlink:title="Om source file. ">
<polygon fill="none" stroke="black" points="1791.79,-71 1791.79,-103 1936.21,-103 1936.21,-71 1791.79,-71"/>
<text text-anchor="start" x="1799.79" y="-89" font-family="Helvetica,sans-Serif" font-size="10.00">om/operations/front</text>
<text text-anchor="middle" x="1864" y="-77" font-family="Helvetica,sans-Serif" font-size="10.00">_pull_element_operation.cpp</text>
</a>
</g>
</g>
<!-- Node1&#45;&gt;Node24 -->
<g id="edge34" class="edge"><title>Node1&#45;&gt;Node24</title>
<path fill="none" stroke="midnightblue" d="M1665.85,-140.428C1708.28,-129.202 1765.22,-114.137 1807.17,-103.036"/>
<polygon fill="midnightblue" stroke="midnightblue" points="1664.72,-137.108 1655.94,-143.05 1666.51,-143.875 1664.72,-137.108"/>
</g>
<!-- Node26 -->
<g id="node26" class="node"><title>Node26</title>
<g id="a_node26"><a xlink:href="front__pull__form__operation_8cpp.html" target="_top" xlink:title="Om source file. ">
<polygon fill="none" stroke="black" points="1954.57,-71 1954.57,-103 2083.43,-103 2083.43,-71 1954.57,-71"/>
<text text-anchor="start" x="1962.57" y="-89" font-family="Helvetica,sans-Serif" font-size="10.00">om/operations/front</text>
<text text-anchor="middle" x="2019" y="-77" font-family="Helvetica,sans-Serif" font-size="10.00">_pull_form_operation.cpp</text>
</a>
</g>
</g>
<!-- Node1&#45;&gt;Node26 -->
<g id="edge37" class="edge"><title>Node1&#45;&gt;Node26</title>
<path fill="none" stroke="midnightblue" d="M1666.17,-147.998C1733.79,-138.599 1847.68,-121.99 1945,-104 1948.1,-103.427 1951.27,-102.82 1954.47,-102.192"/>
<polygon fill="midnightblue" stroke="midnightblue" points="1665.56,-144.55 1656.13,-149.388 1666.52,-151.484 1665.56,-144.55"/>
</g>
<!-- Node28 -->
<g id="node28" class="node"><title>Node28</title>
<g id="a_node28"><a xlink:href="front__pull__operand__operation_8cpp.html" target="_top" xlink:title="Om source file. ">
<polygon fill="none" stroke="black" points="2102.22,-71 2102.22,-103 2247.78,-103 2247.78,-71 2102.22,-71"/>
<text text-anchor="start" x="2110.22" y="-89" font-family="Helvetica,sans-Serif" font-size="10.00">om/operations/front</text>
<text text-anchor="middle" x="2175" y="-77" font-family="Helvetica,sans-Serif" font-size="10.00">_pull_operand_operation.cpp</text>
</a>
</g>
</g>
<!-- Node1&#45;&gt;Node28 -->
<g id="edge40" class="edge"><title>Node1&#45;&gt;Node28</title>
<path fill="none" stroke="midnightblue" d="M1666.23,-151.257C1757.81,-143.562 1939.18,-126.881 2092,-104 2095.34,-103.5 2098.75,-102.961 2102.19,-102.394"/>
<polygon fill="midnightblue" stroke="midnightblue" points="1665.72,-147.787 1656.05,-152.107 1666.31,-154.763 1665.72,-147.787"/>
</g>
<!-- Node30 -->
<g id="node30" class="node"><title>Node30</title>
<g id="a_node30"><a xlink:href="front__pull__operator__operation_8cpp.html" target="_top" xlink:title="Om source file. ">
<polygon fill="none" stroke="black" points="2265.95,-71 2265.95,-103 2412.05,-103 2412.05,-71 2265.95,-71"/>
<text text-anchor="start" x="2273.95" y="-89" font-family="Helvetica,sans-Serif" font-size="10.00">om/operations/front</text>
<text text-anchor="middle" x="2339" y="-77" font-family="Helvetica,sans-Serif" font-size="10.00">_pull_operator_operation.cpp</text>
</a>
</g>
</g>
<!-- Node1&#45;&gt;Node30 -->
<g id="edge43" class="edge"><title>Node1&#45;&gt;Node30</title>
<path fill="none" stroke="midnightblue" d="M1666.34,-153.443C1780.8,-148.024 2039.86,-133.4 2256,-104 2259.2,-103.565 2262.46,-103.086 2265.75,-102.575"/>
<polygon fill="midnightblue" stroke="midnightblue" points="1665.87,-149.96 1656.05,-153.923 1666.2,-156.953 1665.87,-149.96"/>
</g>
<!-- Node32 -->
<g id="node32" class="node"><title>Node32</title>
<g id="a_node32"><a xlink:href="front__pull__pair__operation_8cpp.html" target="_top" xlink:title="Om source file. ">
<polygon fill="none" stroke="black" points="2430.24,-71 2430.24,-103 2555.76,-103 2555.76,-71 2430.24,-71"/>
<text text-anchor="start" x="2438.24" y="-89" font-family="Helvetica,sans-Serif" font-size="10.00">om/operations/front</text>
<text text-anchor="middle" x="2493" y="-77" font-family="Helvetica,sans-Serif" font-size="10.00">_pull_pair_operation.cpp</text>
</a>
</g>
</g>
<!-- Node1&#45;&gt;Node32 -->
<g id="edge46" class="edge"><title>Node1&#45;&gt;Node32</title>
<path fill="none" stroke="midnightblue" d="M1665.99,-155.356C1800.54,-153.206 2140.21,-143.922 2421,-104 2423.92,-103.585 2426.89,-103.116 2429.89,-102.605"/>
<polygon fill="midnightblue" stroke="midnightblue" points="1665.84,-151.858 1655.9,-155.51 1665.95,-158.857 1665.84,-151.858"/>
</g>
<!-- Node34 -->
<g id="node34" class="node"><title>Node34</title>
<g id="a_node34"><a xlink:href="front__pull__separator__operation_8cpp.html" target="_top" xlink:title="Om source file. ">
<polygon fill="none" stroke="black" points="2573.45,-71 2573.45,-103 2724.55,-103 2724.55,-71 2573.45,-71"/>
<text text-anchor="start" x="2581.45" y="-89" font-family="Helvetica,sans-Serif" font-size="10.00">om/operations/front</text>
<text text-anchor="middle" x="2649" y="-77" font-family="Helvetica,sans-Serif" font-size="10.00">_pull_separator_operation.cpp</text>
</a>
</g>
</g>
<!-- Node1&#45;&gt;Node34 -->
<g id="edge49" class="edge"><title>Node1&#45;&gt;Node34</title>
<path fill="none" stroke="midnightblue" d="M1666.39,-155.488C1817.04,-153.603 2226.04,-144.81 2564,-104 2566.98,-103.64 2570.02,-103.239 2573.08,-102.804"/>
<polygon fill="midnightblue" stroke="midnightblue" points="1665.96,-151.993 1656,-155.613 1666.04,-158.993 1665.96,-151.993"/>
</g>
<!-- Node36 -->
<g id="node36" class="node"><title>Node36</title>
<g id="a_node36"><a xlink:href="front__pull__term__operation_8cpp.html" target="_top" xlink:title="Om source file. ">
<polygon fill="none" stroke="black" points="2742.57,-71 2742.57,-103 2871.43,-103 2871.43,-71 2742.57,-71"/>
<text text-anchor="start" x="2750.57" y="-89" font-family="Helvetica,sans-Serif" font-size="10.00">om/operations/front</text>
<text text-anchor="middle" x="2807" y="-77" font-family="Helvetica,sans-Serif" font-size="10.00">_pull_term_operation.cpp</text>
</a>
</g>
</g>
<!-- Node1&#45;&gt;Node36 -->
<g id="edge52" class="edge"><title>Node1&#45;&gt;Node36</title>
<path fill="none" stroke="midnightblue" d="M1666.23,-154.57C1867.42,-149.509 2523.66,-131.271 2733,-104 2736.13,-103.592 2739.32,-103.121 2742.54,-102.6"/>
<polygon fill="midnightblue" stroke="midnightblue" points="1666.06,-151.073 1656.15,-154.822 1666.24,-158.071 1666.06,-151.073"/>
</g>
<!-- Node38 -->
<g id="node38" class="node"><title>Node38</title>
<g id="a_node38"><a xlink:href="pull__operation_8cpp.html" target="_top" xlink:title="Om source file. ">
<polygon fill="none" stroke="black" points="2889.14,-71 2889.14,-103 2986.86,-103 2986.86,-71 2889.14,-71"/>
<text text-anchor="start" x="2897.14" y="-89" font-family="Helvetica,sans-Serif" font-size="10.00">om/operations/pull</text>
<text text-anchor="middle" x="2938" y="-77" font-family="Helvetica,sans-Serif" font-size="10.00">_operation.cpp</text>
</a>
</g>
</g>
<!-- Node1&#45;&gt;Node38 -->
<g id="edge55" class="edge"><title>Node1&#45;&gt;Node38</title>
<path fill="none" stroke="midnightblue" d="M1666.39,-155.329C1883.59,-152.659 2633.81,-141.061 2871,-104 2876.88,-103.081 2883.02,-101.778 2889.11,-100.307"/>
<polygon fill="midnightblue" stroke="midnightblue" points="1666.11,-151.832 1656.16,-155.453 1666.2,-158.832 1666.11,-151.832"/>
</g>
<!-- Node3 -->
<g id="node3" class="node"><title>Node3</title>
<g id="a_node3"><a xlink:href="back__pull__character__operation_8hpp.html" target="_top" xlink:title="Om header file. ">
<polygon fill="none" stroke="black" points="-0.548828,-1 -0.548828,-33 150.549,-33 150.549,-1 -0.548828,-1"/>
<text text-anchor="start" x="7.45117" y="-19" font-family="Helvetica,sans-Serif" font-size="10.00">om/operations/back</text>
<text text-anchor="middle" x="75" y="-7" font-family="Helvetica,sans-Serif" font-size="10.00">_pull_character_operation.hpp</text>
</a>
</g>
</g>
<!-- Node2&#45;&gt;Node3 -->
<g id="edge2" class="edge"><title>Node2&#45;&gt;Node3</title>
<path fill="none" stroke="midnightblue" d="M68.4608,-60.9196C68.0088,-51.5597 68.2836,-41.2293 69.2851,-33.0492"/>
<polygon fill="midnightblue" stroke="midnightblue" points="64.9743,-61.2281 69.28,-70.9086 71.9509,-60.656 64.9743,-61.2281"/>
</g>
<!-- Node3&#45;&gt;Node2 -->
<g id="edge3" class="edge"><title>Node3&#45;&gt;Node2</title>
<path fill="none" stroke="midnightblue" d="M81.5368,-43.0321C81.9913,-52.3887 81.7191,-62.7211 80.72,-70.9086"/>
<polygon fill="midnightblue" stroke="midnightblue" points="85.0237,-42.7283 80.7149,-33.0492 78.0474,-43.3027 85.0237,-42.7283"/>
</g>
<!-- Node5 -->
<g id="node5" class="node"><title>Node5</title>
<g id="a_node5"><a xlink:href="back__pull__code__point__operation_8hpp.html" target="_top" xlink:title="Om header file. ">
<polygon fill="none" stroke="black" points="168.828,-1 168.828,-33 327.172,-33 327.172,-1 168.828,-1"/>
<text text-anchor="start" x="176.828" y="-19" font-family="Helvetica,sans-Serif" font-size="10.00">om/operations/back</text>
<text text-anchor="middle" x="248" y="-7" font-family="Helvetica,sans-Serif" font-size="10.00">_pull_code_point_operation.hpp</text>
</a>
</g>
</g>
<!-- Node4&#45;&gt;Node5 -->
<g id="edge5" class="edge"><title>Node4&#45;&gt;Node5</title>
<path fill="none" stroke="midnightblue" d="M241.461,-60.9196C241.009,-51.5597 241.284,-41.2293 242.285,-33.0492"/>
<polygon fill="midnightblue" stroke="midnightblue" points="237.974,-61.2281 242.28,-70.9086 244.951,-60.656 237.974,-61.2281"/>
</g>
<!-- Node5&#45;&gt;Node4 -->
<g id="edge6" class="edge"><title>Node5&#45;&gt;Node4</title>
<path fill="none" stroke="midnightblue" d="M254.537,-43.0321C254.991,-52.3887 254.719,-62.7211 253.72,-70.9086"/>
<polygon fill="midnightblue" stroke="midnightblue" points="258.024,-42.7283 253.715,-33.0492 251.047,-43.3027 258.024,-42.7283"/>
</g>
<!-- Node7 -->
<g id="node7" class="node"><title>Node7</title>
<g id="a_node7"><a xlink:href="back__pull__element__operation_8hpp.html" target="_top" xlink:title="Om header file. ">
<polygon fill="none" stroke="black" points="345.505,-1 345.505,-33 490.495,-33 490.495,-1 345.505,-1"/>
<text text-anchor="start" x="353.505" y="-19" font-family="Helvetica,sans-Serif" font-size="10.00">om/operations/back</text>
<text text-anchor="middle" x="418" y="-7" font-family="Helvetica,sans-Serif" font-size="10.00">_pull_element_operation.hpp</text>
</a>
</g>
</g>
<!-- Node6&#45;&gt;Node7 -->
<g id="edge8" class="edge"><title>Node6&#45;&gt;Node7</title>
<path fill="none" stroke="midnightblue" d="M411.461,-60.9196C411.009,-51.5597 411.284,-41.2293 412.285,-33.0492"/>
<polygon fill="midnightblue" stroke="midnightblue" points="407.974,-61.2281 412.28,-70.9086 414.951,-60.656 407.974,-61.2281"/>
</g>
<!-- Node7&#45;&gt;Node6 -->
<g id="edge9" class="edge"><title>Node7&#45;&gt;Node6</title>
<path fill="none" stroke="midnightblue" d="M424.537,-43.0321C424.991,-52.3887 424.719,-62.7211 423.72,-70.9086"/>
<polygon fill="midnightblue" stroke="midnightblue" points="428.024,-42.7283 423.715,-33.0492 421.047,-43.3027 428.024,-42.7283"/>
</g>
<!-- Node9 -->
<g id="node9" class="node"><title>Node9</title>
<g id="a_node9"><a xlink:href="back__pull__form__operation_8hpp.html" target="_top" xlink:title="Om header file. ">
<polygon fill="none" stroke="black" points="508.293,-1 508.293,-33 637.707,-33 637.707,-1 508.293,-1"/>
<text text-anchor="start" x="516.293" y="-19" font-family="Helvetica,sans-Serif" font-size="10.00">om/operations/back</text>
<text text-anchor="middle" x="573" y="-7" font-family="Helvetica,sans-Serif" font-size="10.00">_pull_form_operation.hpp</text>
</a>
</g>
</g>
<!-- Node8&#45;&gt;Node9 -->
<g id="edge11" class="edge"><title>Node8&#45;&gt;Node9</title>
<path fill="none" stroke="midnightblue" d="M566.461,-60.9196C566.009,-51.5597 566.284,-41.2293 567.285,-33.0492"/>
<polygon fill="midnightblue" stroke="midnightblue" points="562.974,-61.2281 567.28,-70.9086 569.951,-60.656 562.974,-61.2281"/>
</g>
<!-- Node9&#45;&gt;Node8 -->
<g id="edge12" class="edge"><title>Node9&#45;&gt;Node8</title>
<path fill="none" stroke="midnightblue" d="M579.537,-43.0321C579.991,-52.3887 579.719,-62.7211 578.72,-70.9086"/>
<polygon fill="midnightblue" stroke="midnightblue" points="583.024,-42.7283 578.715,-33.0492 576.047,-43.3027 583.024,-42.7283"/>
</g>
<!-- Node11 -->
<g id="node11" class="node"><title>Node11</title>
<g id="a_node11"><a xlink:href="back__pull__operand__operation_8hpp.html" target="_top" xlink:title="Om header file. ">
<polygon fill="none" stroke="black" points="655.944,-1 655.944,-33 802.056,-33 802.056,-1 655.944,-1"/>
<text text-anchor="start" x="663.944" y="-19" font-family="Helvetica,sans-Serif" font-size="10.00">om/operations/back</text>
<text text-anchor="middle" x="729" y="-7" font-family="Helvetica,sans-Serif" font-size="10.00">_pull_operand_operation.hpp</text>
</a>
</g>
</g>
<!-- Node10&#45;&gt;Node11 -->
<g id="edge14" class="edge"><title>Node10&#45;&gt;Node11</title>
<path fill="none" stroke="midnightblue" d="M722.461,-60.9196C722.009,-51.5597 722.284,-41.2293 723.285,-33.0492"/>
<polygon fill="midnightblue" stroke="midnightblue" points="718.974,-61.2281 723.28,-70.9086 725.951,-60.656 718.974,-61.2281"/>
</g>
<!-- Node11&#45;&gt;Node10 -->
<g id="edge15" class="edge"><title>Node11&#45;&gt;Node10</title>
<path fill="none" stroke="midnightblue" d="M735.537,-43.0321C735.991,-52.3887 735.719,-62.7211 734.72,-70.9086"/>
<polygon fill="midnightblue" stroke="midnightblue" points="739.024,-42.7283 734.715,-33.0492 732.047,-43.3027 739.024,-42.7283"/>
</g>
<!-- Node13 -->
<g id="node13" class="node"><title>Node13</title>
<g id="a_node13"><a xlink:href="back__pull__operator__operation_8hpp.html" target="_top" xlink:title="Om header file. ">
<polygon fill="none" stroke="black" points="819.67,-1 819.67,-33 966.33,-33 966.33,-1 819.67,-1"/>
<text text-anchor="start" x="827.67" y="-19" font-family="Helvetica,sans-Serif" font-size="10.00">om/operations/back</text>
<text text-anchor="middle" x="893" y="-7" font-family="Helvetica,sans-Serif" font-size="10.00">_pull_operator_operation.hpp</text>
</a>
</g>
</g>
<!-- Node12&#45;&gt;Node13 -->
<g id="edge17" class="edge"><title>Node12&#45;&gt;Node13</title>
<path fill="none" stroke="midnightblue" d="M886.461,-60.9196C886.009,-51.5597 886.284,-41.2293 887.285,-33.0492"/>
<polygon fill="midnightblue" stroke="midnightblue" points="882.974,-61.2281 887.28,-70.9086 889.951,-60.656 882.974,-61.2281"/>
</g>
<!-- Node13&#45;&gt;Node12 -->
<g id="edge18" class="edge"><title>Node13&#45;&gt;Node12</title>
<path fill="none" stroke="midnightblue" d="M899.537,-43.0321C899.991,-52.3887 899.719,-62.7211 898.72,-70.9086"/>
<polygon fill="midnightblue" stroke="midnightblue" points="903.024,-42.7283 898.715,-33.0492 896.047,-43.3027 903.024,-42.7283"/>
</g>
<!-- Node15 -->
<g id="node15" class="node"><title>Node15</title>
<g id="a_node15"><a xlink:href="back__pull__pair__operation_8hpp.html" target="_top" xlink:title="Om header file. ">
<polygon fill="none" stroke="black" points="983.956,-1 983.956,-33 1110.04,-33 1110.04,-1 983.956,-1"/>
<text text-anchor="start" x="991.956" y="-19" font-family="Helvetica,sans-Serif" font-size="10.00">om/operations/back</text>
<text text-anchor="middle" x="1047" y="-7" font-family="Helvetica,sans-Serif" font-size="10.00">_pull_pair_operation.hpp</text>
</a>
</g>
</g>
<!-- Node14&#45;&gt;Node15 -->
<g id="edge20" class="edge"><title>Node14&#45;&gt;Node15</title>
<path fill="none" stroke="midnightblue" d="M1040.46,-60.9196C1040.01,-51.5597 1040.28,-41.2293 1041.29,-33.0492"/>
<polygon fill="midnightblue" stroke="midnightblue" points="1036.97,-61.2281 1041.28,-70.9086 1043.95,-60.656 1036.97,-61.2281"/>
</g>
<!-- Node15&#45;&gt;Node14 -->
<g id="edge21" class="edge"><title>Node15&#45;&gt;Node14</title>
<path fill="none" stroke="midnightblue" d="M1053.54,-43.0321C1053.99,-52.3887 1053.72,-62.7211 1052.72,-70.9086"/>
<polygon fill="midnightblue" stroke="midnightblue" points="1057.02,-42.7283 1052.71,-33.0492 1050.05,-43.3027 1057.02,-42.7283"/>
</g>
<!-- Node17 -->
<g id="node17" class="node"><title>Node17</title>
<g id="a_node17"><a xlink:href="back__pull__separator__operation_8hpp.html" target="_top" xlink:title="Om header file. ">
<polygon fill="none" stroke="black" points="1128.17,-1 1128.17,-33 1279.83,-33 1279.83,-1 1128.17,-1"/>
<text text-anchor="start" x="1136.17" y="-19" font-family="Helvetica,sans-Serif" font-size="10.00">om/operations/back</text>
<text text-anchor="middle" x="1204" y="-7" font-family="Helvetica,sans-Serif" font-size="10.00">_pull_separator_operation.hpp</text>
</a>
</g>
</g>
<!-- Node16&#45;&gt;Node17 -->
<g id="edge23" class="edge"><title>Node16&#45;&gt;Node17</title>
<path fill="none" stroke="midnightblue" d="M1197.46,-60.9196C1197.01,-51.5597 1197.28,-41.2293 1198.29,-33.0492"/>
<polygon fill="midnightblue" stroke="midnightblue" points="1193.97,-61.2281 1198.28,-70.9086 1200.95,-60.656 1193.97,-61.2281"/>
</g>
<!-- Node17&#45;&gt;Node16 -->
<g id="edge24" class="edge"><title>Node17&#45;&gt;Node16</title>
<path fill="none" stroke="midnightblue" d="M1210.54,-43.0321C1210.99,-52.3887 1210.72,-62.7211 1209.72,-70.9086"/>
<polygon fill="midnightblue" stroke="midnightblue" points="1214.02,-42.7283 1209.71,-33.0492 1207.05,-43.3027 1214.02,-42.7283"/>
</g>
<!-- Node19 -->
<g id="node19" class="node"><title>Node19</title>
<g id="a_node19"><a xlink:href="back__pull__term__operation_8hpp.html" target="_top" xlink:title="Om header file. ">
<polygon fill="none" stroke="black" points="1298.29,-1 1298.29,-33 1427.71,-33 1427.71,-1 1298.29,-1"/>
<text text-anchor="start" x="1306.29" y="-19" font-family="Helvetica,sans-Serif" font-size="10.00">om/operations/back</text>
<text text-anchor="middle" x="1363" y="-7" font-family="Helvetica,sans-Serif" font-size="10.00">_pull_term_operation.hpp</text>
</a>
</g>
</g>
<!-- Node18&#45;&gt;Node19 -->
<g id="edge26" class="edge"><title>Node18&#45;&gt;Node19</title>
<path fill="none" stroke="midnightblue" d="M1356.46,-60.9196C1356.01,-51.5597 1356.28,-41.2293 1357.29,-33.0492"/>
<polygon fill="midnightblue" stroke="midnightblue" points="1352.97,-61.2281 1357.28,-70.9086 1359.95,-60.656 1352.97,-61.2281"/>
</g>
<!-- Node19&#45;&gt;Node18 -->
<g id="edge27" class="edge"><title>Node19&#45;&gt;Node18</title>
<path fill="none" stroke="midnightblue" d="M1369.54,-43.0321C1369.99,-52.3887 1369.72,-62.7211 1368.72,-70.9086"/>
<polygon fill="midnightblue" stroke="midnightblue" points="1373.02,-42.7283 1368.71,-33.0492 1366.05,-43.3027 1373.02,-42.7283"/>
</g>
<!-- Node21 -->
<g id="node21" class="node"><title>Node21</title>
<g id="a_node21"><a xlink:href="front__pull__character__operation_8hpp.html" target="_top" xlink:title="Om header file. ">
<polygon fill="none" stroke="black" points="1445.45,-1 1445.45,-33 1596.55,-33 1596.55,-1 1445.45,-1"/>
<text text-anchor="start" x="1453.45" y="-19" font-family="Helvetica,sans-Serif" font-size="10.00">om/operations/front</text>
<text text-anchor="middle" x="1521" y="-7" font-family="Helvetica,sans-Serif" font-size="10.00">_pull_character_operation.hpp</text>
</a>
</g>
</g>
<!-- Node20&#45;&gt;Node21 -->
<g id="edge29" class="edge"><title>Node20&#45;&gt;Node21</title>
<path fill="none" stroke="midnightblue" d="M1514.46,-60.9196C1514.01,-51.5597 1514.28,-41.2293 1515.29,-33.0492"/>
<polygon fill="midnightblue" stroke="midnightblue" points="1510.97,-61.2281 1515.28,-70.9086 1517.95,-60.656 1510.97,-61.2281"/>
</g>
<!-- Node21&#45;&gt;Node20 -->
<g id="edge30" class="edge"><title>Node21&#45;&gt;Node20</title>
<path fill="none" stroke="midnightblue" d="M1527.54,-43.0321C1527.99,-52.3887 1527.72,-62.7211 1526.72,-70.9086"/>
<polygon fill="midnightblue" stroke="midnightblue" points="1531.02,-42.7283 1526.71,-33.0492 1524.05,-43.3027 1531.02,-42.7283"/>
</g>
<!-- Node23 -->
<g id="node23" class="node"><title>Node23</title>
<g id="a_node23"><a xlink:href="front__pull__code__point__operation_8hpp.html" target="_top" xlink:title="Om header file. ">
<polygon fill="none" stroke="black" points="1614.83,-1 1614.83,-33 1773.17,-33 1773.17,-1 1614.83,-1"/>
<text text-anchor="start" x="1622.83" y="-19" font-family="Helvetica,sans-Serif" font-size="10.00">om/operations/front</text>
<text text-anchor="middle" x="1694" y="-7" font-family="Helvetica,sans-Serif" font-size="10.00">_pull_code_point_operation.hpp</text>
</a>
</g>
</g>
<!-- Node22&#45;&gt;Node23 -->
<g id="edge32" class="edge"><title>Node22&#45;&gt;Node23</title>
<path fill="none" stroke="midnightblue" d="M1687.46,-60.9196C1687.01,-51.5597 1687.28,-41.2293 1688.29,-33.0492"/>
<polygon fill="midnightblue" stroke="midnightblue" points="1683.97,-61.2281 1688.28,-70.9086 1690.95,-60.656 1683.97,-61.2281"/>
</g>
<!-- Node23&#45;&gt;Node22 -->
<g id="edge33" class="edge"><title>Node23&#45;&gt;Node22</title>
<path fill="none" stroke="midnightblue" d="M1700.54,-43.0321C1700.99,-52.3887 1700.72,-62.7211 1699.72,-70.9086"/>
<polygon fill="midnightblue" stroke="midnightblue" points="1704.02,-42.7283 1699.71,-33.0492 1697.05,-43.3027 1704.02,-42.7283"/>
</g>
<!-- Node25 -->
<g id="node25" class="node"><title>Node25</title>
<g id="a_node25"><a xlink:href="front__pull__element__operation_8hpp.html" target="_top" xlink:title="Om header file. ">
<polygon fill="none" stroke="black" points="1791.51,-1 1791.51,-33 1936.49,-33 1936.49,-1 1791.51,-1"/>
<text text-anchor="start" x="1799.51" y="-19" font-family="Helvetica,sans-Serif" font-size="10.00">om/operations/front</text>
<text text-anchor="middle" x="1864" y="-7" font-family="Helvetica,sans-Serif" font-size="10.00">_pull_element_operation.hpp</text>
</a>
</g>
</g>
<!-- Node24&#45;&gt;Node25 -->
<g id="edge35" class="edge"><title>Node24&#45;&gt;Node25</title>
<path fill="none" stroke="midnightblue" d="M1857.46,-60.9196C1857.01,-51.5597 1857.28,-41.2293 1858.29,-33.0492"/>
<polygon fill="midnightblue" stroke="midnightblue" points="1853.97,-61.2281 1858.28,-70.9086 1860.95,-60.656 1853.97,-61.2281"/>
</g>
<!-- Node25&#45;&gt;Node24 -->
<g id="edge36" class="edge"><title>Node25&#45;&gt;Node24</title>
<path fill="none" stroke="midnightblue" d="M1870.54,-43.0321C1870.99,-52.3887 1870.72,-62.7211 1869.72,-70.9086"/>
<polygon fill="midnightblue" stroke="midnightblue" points="1874.02,-42.7283 1869.71,-33.0492 1867.05,-43.3027 1874.02,-42.7283"/>
</g>
<!-- Node27 -->
<g id="node27" class="node"><title>Node27</title>
<g id="a_node27"><a xlink:href="front__pull__form__operation_8hpp.html" target="_top" xlink:title="Om header file. ">
<polygon fill="none" stroke="black" points="1954.29,-1 1954.29,-33 2083.71,-33 2083.71,-1 1954.29,-1"/>
<text text-anchor="start" x="1962.29" y="-19" font-family="Helvetica,sans-Serif" font-size="10.00">om/operations/front</text>
<text text-anchor="middle" x="2019" y="-7" font-family="Helvetica,sans-Serif" font-size="10.00">_pull_form_operation.hpp</text>
</a>
</g>
</g>
<!-- Node26&#45;&gt;Node27 -->
<g id="edge38" class="edge"><title>Node26&#45;&gt;Node27</title>
<path fill="none" stroke="midnightblue" d="M2012.46,-60.9196C2012.01,-51.5597 2012.28,-41.2293 2013.29,-33.0492"/>
<polygon fill="midnightblue" stroke="midnightblue" points="2008.97,-61.2281 2013.28,-70.9086 2015.95,-60.656 2008.97,-61.2281"/>
</g>
<!-- Node27&#45;&gt;Node26 -->
<g id="edge39" class="edge"><title>Node27&#45;&gt;Node26</title>
<path fill="none" stroke="midnightblue" d="M2025.54,-43.0321C2025.99,-52.3887 2025.72,-62.7211 2024.72,-70.9086"/>
<polygon fill="midnightblue" stroke="midnightblue" points="2029.02,-42.7283 2024.71,-33.0492 2022.05,-43.3027 2029.02,-42.7283"/>
</g>
<!-- Node29 -->
<g id="node29" class="node"><title>Node29</title>
<g id="a_node29"><a xlink:href="front__pull__operand__operation_8hpp.html" target="_top" xlink:title="Om header file. ">
<polygon fill="none" stroke="black" points="2101.94,-1 2101.94,-33 2248.06,-33 2248.06,-1 2101.94,-1"/>
<text text-anchor="start" x="2109.94" y="-19" font-family="Helvetica,sans-Serif" font-size="10.00">om/operations/front</text>
<text text-anchor="middle" x="2175" y="-7" font-family="Helvetica,sans-Serif" font-size="10.00">_pull_operand_operation.hpp</text>
</a>
</g>
</g>
<!-- Node28&#45;&gt;Node29 -->
<g id="edge41" class="edge"><title>Node28&#45;&gt;Node29</title>
<path fill="none" stroke="midnightblue" d="M2168.46,-60.9196C2168.01,-51.5597 2168.28,-41.2293 2169.29,-33.0492"/>
<polygon fill="midnightblue" stroke="midnightblue" points="2164.97,-61.2281 2169.28,-70.9086 2171.95,-60.656 2164.97,-61.2281"/>
</g>
<!-- Node29&#45;&gt;Node28 -->
<g id="edge42" class="edge"><title>Node29&#45;&gt;Node28</title>
<path fill="none" stroke="midnightblue" d="M2181.54,-43.0321C2181.99,-52.3887 2181.72,-62.7211 2180.72,-70.9086"/>
<polygon fill="midnightblue" stroke="midnightblue" points="2185.02,-42.7283 2180.71,-33.0492 2178.05,-43.3027 2185.02,-42.7283"/>
</g>
<!-- Node31 -->
<g id="node31" class="node"><title>Node31</title>
<g id="a_node31"><a xlink:href="front__pull__operator__operation_8hpp.html" target="_top" xlink:title="Om header file. ">
<polygon fill="none" stroke="black" points="2265.67,-1 2265.67,-33 2412.33,-33 2412.33,-1 2265.67,-1"/>
<text text-anchor="start" x="2273.67" y="-19" font-family="Helvetica,sans-Serif" font-size="10.00">om/operations/front</text>
<text text-anchor="middle" x="2339" y="-7" font-family="Helvetica,sans-Serif" font-size="10.00">_pull_operator_operation.hpp</text>
</a>
</g>
</g>
<!-- Node30&#45;&gt;Node31 -->
<g id="edge44" class="edge"><title>Node30&#45;&gt;Node31</title>
<path fill="none" stroke="midnightblue" d="M2332.46,-60.9196C2332.01,-51.5597 2332.28,-41.2293 2333.29,-33.0492"/>
<polygon fill="midnightblue" stroke="midnightblue" points="2328.97,-61.2281 2333.28,-70.9086 2335.95,-60.656 2328.97,-61.2281"/>
</g>
<!-- Node31&#45;&gt;Node30 -->
<g id="edge45" class="edge"><title>Node31&#45;&gt;Node30</title>
<path fill="none" stroke="midnightblue" d="M2345.54,-43.0321C2345.99,-52.3887 2345.72,-62.7211 2344.72,-70.9086"/>
<polygon fill="midnightblue" stroke="midnightblue" points="2349.02,-42.7283 2344.71,-33.0492 2342.05,-43.3027 2349.02,-42.7283"/>
</g>
<!-- Node33 -->
<g id="node33" class="node"><title>Node33</title>
<g id="a_node33"><a xlink:href="front__pull__pair__operation_8hpp.html" target="_top" xlink:title="Om header file. ">
<polygon fill="none" stroke="black" points="2429.96,-1 2429.96,-33 2556.04,-33 2556.04,-1 2429.96,-1"/>
<text text-anchor="start" x="2437.96" y="-19" font-family="Helvetica,sans-Serif" font-size="10.00">om/operations/front</text>
<text text-anchor="middle" x="2493" y="-7" font-family="Helvetica,sans-Serif" font-size="10.00">_pull_pair_operation.hpp</text>
</a>
</g>
</g>
<!-- Node32&#45;&gt;Node33 -->
<g id="edge47" class="edge"><title>Node32&#45;&gt;Node33</title>
<path fill="none" stroke="midnightblue" d="M2486.46,-60.9196C2486.01,-51.5597 2486.28,-41.2293 2487.29,-33.0492"/>
<polygon fill="midnightblue" stroke="midnightblue" points="2482.97,-61.2281 2487.28,-70.9086 2489.95,-60.656 2482.97,-61.2281"/>
</g>
<!-- Node33&#45;&gt;Node32 -->
<g id="edge48" class="edge"><title>Node33&#45;&gt;Node32</title>
<path fill="none" stroke="midnightblue" d="M2499.54,-43.0321C2499.99,-52.3887 2499.72,-62.7211 2498.72,-70.9086"/>
<polygon fill="midnightblue" stroke="midnightblue" points="2503.02,-42.7283 2498.71,-33.0492 2496.05,-43.3027 2503.02,-42.7283"/>
</g>
<!-- Node35 -->
<g id="node35" class="node"><title>Node35</title>
<g id="a_node35"><a xlink:href="front__pull__separator__operation_8hpp.html" target="_top" xlink:title="Om header file. ">
<polygon fill="none" stroke="black" points="2574.17,-1 2574.17,-33 2725.83,-33 2725.83,-1 2574.17,-1"/>
<text text-anchor="start" x="2582.17" y="-19" font-family="Helvetica,sans-Serif" font-size="10.00">om/operations/front</text>
<text text-anchor="middle" x="2650" y="-7" font-family="Helvetica,sans-Serif" font-size="10.00">_pull_separator_operation.hpp</text>
</a>
</g>
</g>
<!-- Node34&#45;&gt;Node35 -->
<g id="edge50" class="edge"><title>Node34&#45;&gt;Node35</title>
<path fill="none" stroke="midnightblue" d="M2642.83,-60.9196C2642.52,-51.5597 2642.94,-41.2293 2644.06,-33.0492"/>
<polygon fill="midnightblue" stroke="midnightblue" points="2639.34,-61.1662 2643.5,-70.9086 2646.32,-60.6961 2639.34,-61.1662"/>
</g>
<!-- Node35&#45;&gt;Node34 -->
<g id="edge51" class="edge"><title>Node35&#45;&gt;Node34</title>
<path fill="none" stroke="midnightblue" d="M2656.17,-43.0321C2656.49,-52.3887 2656.06,-62.7211 2654.94,-70.9086"/>
<polygon fill="midnightblue" stroke="midnightblue" points="2659.66,-42.7902 2655.49,-33.0492 2652.68,-43.2626 2659.66,-42.7902"/>
</g>
<!-- Node37 -->
<g id="node37" class="node"><title>Node37</title>
<g id="a_node37"><a xlink:href="front__pull__term__operation_8hpp.html" target="_top" xlink:title="Om header file. ">
<polygon fill="none" stroke="black" points="2744.29,-1 2744.29,-33 2873.71,-33 2873.71,-1 2744.29,-1"/>
<text text-anchor="start" x="2752.29" y="-19" font-family="Helvetica,sans-Serif" font-size="10.00">om/operations/front</text>
<text text-anchor="middle" x="2809" y="-7" font-family="Helvetica,sans-Serif" font-size="10.00">_pull_term_operation.hpp</text>
</a>
</g>
</g>
<!-- Node36&#45;&gt;Node37 -->
<g id="edge53" class="edge"><title>Node36&#45;&gt;Node37</title>
<path fill="none" stroke="midnightblue" d="M2801.2,-60.9196C2801.02,-51.5597 2801.6,-41.2293 2802.84,-33.0492"/>
<polygon fill="midnightblue" stroke="midnightblue" points="2797.7,-61.1062 2801.72,-70.9086 2804.69,-60.7385 2797.7,-61.1062"/>
</g>
<!-- Node37&#45;&gt;Node36 -->
<g id="edge54" class="edge"><title>Node37&#45;&gt;Node36</title>
<path fill="none" stroke="midnightblue" d="M2814.81,-43.3343C2814.97,-52.6107 2814.39,-62.8092 2813.16,-70.9086"/>
<polygon fill="midnightblue" stroke="midnightblue" points="2818.29,-42.8543 2814.27,-33.0492 2811.3,-43.2172 2818.29,-42.8543"/>
</g>
<!-- Node38&#45;&gt;Node1 -->
<g id="edge56" class="edge"><title>Node38&#45;&gt;Node1</title>
<path fill="none" stroke="midnightblue" d="M2884.5,-104.551C2624.73,-142.367 1857.53,-153.303 1655.91,-155.529"/>
<polygon fill="midnightblue" stroke="midnightblue" points="2885.27,-107.975 2894.63,-103.021 2884.22,-101.053 2885.27,-107.975"/>
</g>
</g>
</svg>
