<?xml version="1.0" encoding="UTF-8" standalone="no"?>
<!DOCTYPE svg PUBLIC "-//W3C//DTD SVG 1.1//EN"
 "http://www.w3.org/Graphics/SVG/1.1/DTD/svg11.dtd">
<!-- Generated by graphviz version 2.34.0 (20130907.0228)
 -->
<!-- Title: om/reader.hpp Pages: 1 -->
<svg width="904pt" height="286pt"
 viewBox="0.00 0.00 904.00 286.00" xmlns="http://www.w3.org/2000/svg" xmlns:xlink="http://www.w3.org/1999/xlink">
<g id="graph0" class="graph" transform="scale(1 1) rotate(0) translate(4 282)">
<title>om/reader.hpp</title>
<!-- Node1 -->
<g id="node1" class="node"><title>Node1</title>
<polygon fill="#bfbfbf" stroke="black" points="439.754,-257 439.754,-277 520.246,-277 520.246,-257 439.754,-257"/>
<text text-anchor="middle" x="480" y="-263" font-family="Helvetica,sans-Serif" font-size="10.00">om/reader.hpp</text>
</g>
<!-- Node2 -->
<g id="node2" class="node"><title>Node2</title>
<g id="a_node2"><a xlink:href="code__point_8hpp.html" target="_top" xlink:title="Om header file. ">
<polygon fill="none" stroke="black" points="100.468,-199 100.468,-219 201.532,-219 201.532,-199 100.468,-199"/>
<text text-anchor="middle" x="151" y="-205" font-family="Helvetica,sans-Serif" font-size="10.00">om/code_point.hpp</text>
</a>
</g>
</g>
<!-- Node1&#45;&gt;Node2 -->
<g id="edge1" class="edge"><title>Node1&#45;&gt;Node2</title>
<path fill="none" stroke="midnightblue" d="M439.658,-259.133C382.617,-249.424 277.957,-231.61 211.562,-220.309"/>
<polygon fill="midnightblue" stroke="midnightblue" points="212.097,-216.849 201.652,-218.622 210.922,-223.75 212.097,-216.849"/>
</g>
<!-- Node4 -->
<g id="node4" class="node"><title>Node4</title>
<g id="a_node4"><a xlink:href="default__source_8hpp.html" target="_top" xlink:title="Om header file. ">
<polygon fill="none" stroke="black" points="318.737,-199 318.737,-219 469.263,-219 469.263,-199 318.737,-199"/>
<text text-anchor="middle" x="394" y="-205" font-family="Helvetica,sans-Serif" font-size="10.00">om/source/default_source.hpp</text>
</a>
</g>
</g>
<!-- Node1&#45;&gt;Node4 -->
<g id="edge3" class="edge"><title>Node1&#45;&gt;Node4</title>
<path fill="none" stroke="midnightblue" d="M465.799,-256.753C452.399,-248.027 432.093,-234.805 416.492,-224.646"/>
<polygon fill="midnightblue" stroke="midnightblue" points="418.227,-221.599 407.937,-219.075 414.407,-227.465 418.227,-221.599"/>
</g>
<!-- Node11 -->
<g id="node11" class="node"><title>Node11</title>
<g id="a_node11"><a xlink:href="reader_8cpp.html" target="_top" xlink:title="Om source file. ">
<polygon fill="none" stroke="black" points="527.035,-199 527.035,-219 606.965,-219 606.965,-199 527.035,-199"/>
<text text-anchor="middle" x="567" y="-205" font-family="Helvetica,sans-Serif" font-size="10.00">om/reader.cpp</text>
</a>
</g>
</g>
<!-- Node1&#45;&gt;Node11 -->
<g id="edge12" class="edge"><title>Node1&#45;&gt;Node11</title>
<path fill="none" stroke="midnightblue" d="M489.2,-256.753C501.091,-247.946 521.619,-234.558 538.707,-224.362"/>
<polygon fill="midnightblue" stroke="midnightblue" points="540.896,-227.137 547.77,-219.075 537.369,-221.091 540.896,-227.137"/>
</g>
<!-- Node3 -->
<g id="node3" class="node"><title>Node3</title>
<polygon fill="none" stroke="#bfbfbf" points="-0.364258,-135 -0.364258,-155 102.364,-155 102.364,-135 -0.364258,-135"/>
<text text-anchor="middle" x="51" y="-141" font-family="Helvetica,sans-Serif" font-size="10.00">boost/locale/utf.hpp</text>
</g>
<!-- Node2&#45;&gt;Node3 -->
<g id="edge2" class="edge"><title>Node2&#45;&gt;Node3</title>
<path fill="none" stroke="midnightblue" d="M136.245,-198.852C119.997,-188.778 93.6461,-172.441 74.5383,-160.594"/>
<polygon fill="midnightblue" stroke="midnightblue" points="76.1592,-157.481 65.8159,-155.186 72.4706,-163.43 76.1592,-157.481"/>
</g>
<!-- Node5 -->
<g id="node5" class="node"><title>Node5</title>
<g id="a_node5"><a xlink:href="source_2source_8hpp.html" target="_top" xlink:title="Om header file. ">
<polygon fill="none" stroke="black" points="120.53,-135 120.53,-155 235.47,-155 235.47,-135 120.53,-135"/>
<text text-anchor="middle" x="178" y="-141" font-family="Helvetica,sans-Serif" font-size="10.00">om/source/source.hpp</text>
</a>
</g>
</g>
<!-- Node4&#45;&gt;Node5 -->
<g id="edge4" class="edge"><title>Node4&#45;&gt;Node5</title>
<path fill="none" stroke="midnightblue" d="M362.592,-198.985C324.759,-188.125 261.092,-169.85 219.308,-157.857"/>
<polygon fill="midnightblue" stroke="midnightblue" points="220.024,-154.421 209.446,-155.026 218.092,-161.149 220.024,-154.421"/>
</g>
<!-- Node9 -->
<g id="node9" class="node"><title>Node9</title>
<polygon fill="none" stroke="#bfbfbf" points="253.438,-135 253.438,-155 300.562,-155 300.562,-135 253.438,-135"/>
<text text-anchor="middle" x="277" y="-141" font-family="Helvetica,sans-Serif" font-size="10.00">iterator</text>
</g>
<!-- Node4&#45;&gt;Node9 -->
<g id="edge9" class="edge"><title>Node4&#45;&gt;Node9</title>
<path fill="none" stroke="midnightblue" d="M376.987,-198.985C357.578,-188.699 325.614,-171.761 303.06,-159.809"/>
<polygon fill="midnightblue" stroke="midnightblue" points="304.508,-156.616 294.033,-155.026 301.231,-162.801 304.508,-156.616"/>
</g>
<!-- Node10 -->
<g id="node10" class="node"><title>Node10</title>
<g id="a_node10"><a xlink:href="default__source_8cpp.html" target="_top" xlink:title="Om source file. ">
<polygon fill="none" stroke="black" points="319.018,-135 319.018,-155 468.982,-155 468.982,-135 319.018,-135"/>
<text text-anchor="middle" x="394" y="-141" font-family="Helvetica,sans-Serif" font-size="10.00">om/source/default_source.cpp</text>
</a>
</g>
</g>
<!-- Node4&#45;&gt;Node10 -->
<g id="edge10" class="edge"><title>Node4&#45;&gt;Node10</title>
<path fill="none" stroke="midnightblue" d="M389.045,-198.852C387.252,-190.06 386.802,-176.498 387.696,-165.313"/>
<polygon fill="midnightblue" stroke="midnightblue" points="391.194,-165.559 389.037,-155.186 384.254,-164.64 391.194,-165.559"/>
</g>
<!-- Node6 -->
<g id="node6" class="node"><title>Node6</title>
<g id="a_node6"><a xlink:href="source_2source_8cpp.html" target="_top" xlink:title="Om source file. ">
<polygon fill="none" stroke="black" points="120.811,-71 120.811,-91 235.189,-91 235.189,-71 120.811,-71"/>
<text text-anchor="middle" x="178" y="-77" font-family="Helvetica,sans-Serif" font-size="10.00">om/source/source.cpp</text>
</a>
</g>
</g>
<!-- Node5&#45;&gt;Node6 -->
<g id="edge5" class="edge"><title>Node5&#45;&gt;Node6</title>
<path fill="none" stroke="midnightblue" d="M173.045,-134.852C171.252,-126.06 170.802,-112.498 171.696,-101.313"/>
<polygon fill="midnightblue" stroke="midnightblue" points="175.194,-101.559 173.037,-91.1858 168.254,-100.64 175.194,-101.559"/>
</g>
<!-- Node6&#45;&gt;Node5 -->
<g id="edge8" class="edge"><title>Node6&#45;&gt;Node5</title>
<path fill="none" stroke="midnightblue" d="M182.963,-91.1858C184.752,-99.991 185.198,-113.557 184.3,-124.735"/>
<polygon fill="midnightblue" stroke="midnightblue" points="180.804,-124.478 182.955,-134.852 187.743,-125.4 180.804,-124.478"/>
</g>
<!-- Node7 -->
<g id="node7" class="node"><title>Node7</title>
<polygon fill="none" stroke="#bfbfbf" points="117.884,-7 117.884,-27 166.116,-27 166.116,-7 117.884,-7"/>
<text text-anchor="middle" x="142" y="-13" font-family="Helvetica,sans-Serif" font-size="10.00">cassert</text>
</g>
<!-- Node6&#45;&gt;Node7 -->
<g id="edge6" class="edge"><title>Node6&#45;&gt;Node7</title>
<path fill="none" stroke="midnightblue" d="M172.688,-70.8517C167.371,-61.6938 159.047,-47.3592 152.41,-35.9279"/>
<polygon fill="midnightblue" stroke="midnightblue" points="155.382,-34.0763 147.334,-27.1858 149.328,-37.5912 155.382,-34.0763"/>
</g>
<!-- Node8 -->
<g id="node8" class="node"><title>Node8</title>
<polygon fill="none" stroke="#bfbfbf" points="184.599,-7 184.599,-27 243.401,-27 243.401,-7 184.599,-7"/>
<text text-anchor="middle" x="214" y="-13" font-family="Helvetica,sans-Serif" font-size="10.00">stdexcept</text>
</g>
<!-- Node6&#45;&gt;Node8 -->
<g id="edge7" class="edge"><title>Node6&#45;&gt;Node8</title>
<path fill="none" stroke="midnightblue" d="M183.312,-70.8517C188.629,-61.6938 196.953,-47.3592 203.59,-35.9279"/>
<polygon fill="midnightblue" stroke="midnightblue" points="206.672,-37.5912 208.666,-27.1858 200.618,-34.0763 206.672,-37.5912"/>
</g>
<!-- Node10&#45;&gt;Node4 -->
<g id="edge11" class="edge"><title>Node10&#45;&gt;Node4</title>
<path fill="none" stroke="midnightblue" d="M398.963,-155.186C400.752,-163.991 401.198,-177.557 400.3,-188.735"/>
<polygon fill="midnightblue" stroke="midnightblue" points="396.804,-188.478 398.955,-198.852 403.743,-189.4 396.804,-188.478"/>
</g>
<!-- Node11&#45;&gt;Node1 -->
<g id="edge20" class="edge"><title>Node11&#45;&gt;Node1</title>
<path fill="none" stroke="midnightblue" d="M558.032,-219.075C546.255,-227.822 525.761,-241.201 508.628,-251.438"/>
<polygon fill="midnightblue" stroke="midnightblue" points="506.401,-248.686 499.533,-256.753 509.932,-254.73 506.401,-248.686"/>
</g>
<!-- Node12 -->
<g id="node12" class="node"><title>Node12</title>
<g id="a_node12"><a xlink:href="operand__symbol_8hpp.html" target="_top" xlink:title="Om header file. ">
<polygon fill="none" stroke="black" points="486.739,-135 486.739,-155 647.261,-155 647.261,-135 486.739,-135"/>
<text text-anchor="middle" x="567" y="-141" font-family="Helvetica,sans-Serif" font-size="10.00">om/symbol/operand_symbol.hpp</text>
</a>
</g>
</g>
<!-- Node11&#45;&gt;Node12 -->
<g id="edge13" class="edge"><title>Node11&#45;&gt;Node12</title>
<path fill="none" stroke="midnightblue" d="M567,-198.852C567,-190.06 567,-176.498 567,-165.313"/>
<polygon fill="midnightblue" stroke="midnightblue" points="570.5,-165.186 567,-155.186 563.5,-165.186 570.5,-165.186"/>
</g>
<!-- Node15 -->
<g id="node15" class="node"><title>Node15</title>
<g id="a_node15"><a xlink:href="operator__symbol_8hpp.html" target="_top" xlink:title="Om header file. ">
<polygon fill="none" stroke="black" points="664.815,-129 664.815,-161 769.185,-161 769.185,-129 664.815,-129"/>
<text text-anchor="start" x="672.815" y="-147" font-family="Helvetica,sans-Serif" font-size="10.00">om/symbol/operator</text>
<text text-anchor="middle" x="717" y="-135" font-family="Helvetica,sans-Serif" font-size="10.00">_symbol.hpp</text>
</a>
</g>
</g>
<!-- Node11&#45;&gt;Node15 -->
<g id="edge16" class="edge"><title>Node11&#45;&gt;Node15</title>
<path fill="none" stroke="midnightblue" d="M588.811,-198.985C610.326,-190.092 643.871,-176.227 671.25,-164.91"/>
<polygon fill="midnightblue" stroke="midnightblue" points="672.743,-168.08 680.647,-161.026 670.069,-161.611 672.743,-168.08"/>
</g>
<!-- Node16 -->
<g id="node16" class="node"><title>Node16</title>
<g id="a_node16"><a xlink:href="separator__symbol_8hpp.html" target="_top" xlink:title="Om header file. ">
<polygon fill="none" stroke="black" points="787.315,-129 787.315,-161 896.685,-161 896.685,-129 787.315,-129"/>
<text text-anchor="start" x="795.315" y="-147" font-family="Helvetica,sans-Serif" font-size="10.00">om/symbol/separator</text>
<text text-anchor="middle" x="842" y="-135" font-family="Helvetica,sans-Serif" font-size="10.00">_symbol.hpp</text>
</a>
</g>
</g>
<!-- Node11&#45;&gt;Node16 -->
<g id="edge18" class="edge"><title>Node11&#45;&gt;Node16</title>
<path fill="none" stroke="midnightblue" d="M607.139,-199.628C647.573,-191.11 711.999,-177.309 777.174,-162.156"/>
<polygon fill="midnightblue" stroke="midnightblue" points="778.271,-165.494 787.214,-159.813 776.68,-158.678 778.271,-165.494"/>
</g>
<!-- Node13 -->
<g id="node13" class="node"><title>Node13</title>
<g id="a_node13"><a xlink:href="macro_8hpp.html" target="_top" xlink:title="Om header file. ">
<polygon fill="none" stroke="black" points="677.042,-71 677.042,-91 756.958,-91 756.958,-71 677.042,-71"/>
<text text-anchor="middle" x="717" y="-77" font-family="Helvetica,sans-Serif" font-size="10.00">om/macro.hpp</text>
</a>
</g>
</g>
<!-- Node12&#45;&gt;Node13 -->
<g id="edge14" class="edge"><title>Node12&#45;&gt;Node13</title>
<path fill="none" stroke="midnightblue" d="M588.811,-134.985C614.362,-124.424 656.881,-106.849 685.887,-94.8599"/>
<polygon fill="midnightblue" stroke="midnightblue" points="687.258,-98.0808 695.162,-91.0262 684.584,-91.6116 687.258,-98.0808"/>
</g>
<!-- Node14 -->
<g id="node14" class="node"><title>Node14</title>
<polygon fill="none" stroke="#bfbfbf" points="666.2,-1 666.2,-33 767.8,-33 767.8,-1 666.2,-1"/>
<text text-anchor="start" x="674.2" y="-19" font-family="Helvetica,sans-Serif" font-size="10.00">boost/preprocessor</text>
<text text-anchor="middle" x="717" y="-7" font-family="Helvetica,sans-Serif" font-size="10.00">/stringize.hpp</text>
</g>
<!-- Node13&#45;&gt;Node14 -->
<g id="edge15" class="edge"><title>Node13&#45;&gt;Node14</title>
<path fill="none" stroke="midnightblue" d="M717,-70.8517C717,-63.6285 717,-53.1849 717,-43.4856"/>
<polygon fill="midnightblue" stroke="midnightblue" points="720.5,-43.4404 717,-33.4404 713.5,-43.4404 720.5,-43.4404"/>
</g>
<!-- Node15&#45;&gt;Node13 -->
<g id="edge17" class="edge"><title>Node15&#45;&gt;Node13</title>
<path fill="none" stroke="midnightblue" d="M717,-128.992C717,-120.726 717,-110.373 717,-101.489"/>
<polygon fill="midnightblue" stroke="midnightblue" points="720.5,-101.29 717,-91.2904 713.5,-101.29 720.5,-101.29"/>
</g>
<!-- Node16&#45;&gt;Node13 -->
<g id="edge19" class="edge"><title>Node16&#45;&gt;Node13</title>
<path fill="none" stroke="midnightblue" d="M811.741,-128.992C791.25,-118.828 764.392,-105.507 744.508,-95.6437"/>
<polygon fill="midnightblue" stroke="midnightblue" points="745.878,-92.4168 735.364,-91.1088 742.768,-98.6878 745.878,-92.4168"/>
</g>
</g>
</svg>
