<?xml version="1.0" encoding="UTF-8" standalone="no"?>
<!DOCTYPE svg PUBLIC "-//W3C//DTD SVG 1.1//EN"
 "http://www.w3.org/Graphics/SVG/1.1/DTD/svg11.dtd">
<!-- Generated by graphviz version 2.28.0 (20120817.0054)
 -->
<!-- Title: code/om/symbols/separator_symbol.hpp Pages: 1 -->
<svg width="142pt" height="164pt"
 viewBox="0.00 0.00 142.00 164.00" xmlns="http://www.w3.org/2000/svg" xmlns:xlink="http://www.w3.org/1999/xlink">
<g id="graph1" class="graph" transform="scale(1 1) rotate(0) translate(4 160)">
<title>code/om/symbols/separator_symbol.hpp</title>
<!-- Node1 -->
<g id="node1" class="node"><title>Node1</title>
<polygon fill="#bfbfbf" stroke="black" points="-0.5,-125 -0.5,-155 134.5,-155 134.5,-125 -0.5,-125"/>
<text text-anchor="start" x="7.5" y="-143" font-family="Helvetica,sans-Serif" font-size="10.00">code/om/symbols/separator</text>
<text text-anchor="middle" x="67" y="-132" font-family="Helvetica,sans-Serif" font-size="10.00">_symbol.hpp</text>
</g>
<!-- Node2 -->
<g id="node3" class="node"><title>Node2</title>
<a xlink:href="macros_8hpp.html" target="_top" xlink:title="Om header file.">
<polygon fill="none" stroke="black" points="25.5,-68.5 25.5,-87.5 108.5,-87.5 108.5,-68.5 25.5,-68.5"/>
<text text-anchor="middle" x="67" y="-75.5" font-family="Helvetica,sans-Serif" font-size="10.00">om/macros.hpp</text>
</a>
</g>
<!-- Node1&#45;&gt;Node2 -->
<g id="edge2" class="edge"><title>Node1&#45;&gt;Node2</title>
<path fill="none" stroke="midnightblue" d="M67,-124.781C67,-116.781 67,-106.689 67,-98.0168"/>
<polygon fill="midnightblue" stroke="midnightblue" points="70.5001,-97.7305 67,-87.7305 63.5001,-97.7306 70.5001,-97.7305"/>
</g>
<!-- Node3 -->
<g id="node5" class="node"><title>Node3</title>
<polygon fill="none" stroke="#bfbfbf" points="18,-1 18,-31 116,-31 116,-1 18,-1"/>
<text text-anchor="start" x="26" y="-19" font-family="Helvetica,sans-Serif" font-size="10.00">boost/preprocessor</text>
<text text-anchor="middle" x="67" y="-8" font-family="Helvetica,sans-Serif" font-size="10.00">/stringize.hpp</text>
</g>
<!-- Node2&#45;&gt;Node3 -->
<g id="edge4" class="edge"><title>Node2&#45;&gt;Node3</title>
<path fill="none" stroke="midnightblue" d="M67,-68.4035C67,-61.3405 67,-50.975 67,-41.399"/>
<polygon fill="midnightblue" stroke="midnightblue" points="70.5001,-41.1408 67,-31.1408 63.5001,-41.1408 70.5001,-41.1408"/>
</g>
</g>
</svg>
