<?xml version="1.0" encoding="UTF-8" standalone="no"?>
<!DOCTYPE svg PUBLIC "-//W3C//DTD SVG 1.1//EN"
 "http://www.w3.org/Graphics/SVG/1.1/DTD/svg11.dtd">
<!-- Generated by graphviz version 2.36.0 (20140111.2315)
 -->
<!-- Title: om/symbol/separator_symbol.cpp Pages: 1 -->
<svg width="116pt" height="226pt"
 viewBox="0.00 0.00 116.00 226.00" xmlns="http://www.w3.org/2000/svg" xmlns:xlink="http://www.w3.org/1999/xlink">
<g id="graph0" class="graph" transform="scale(1 1) rotate(0) translate(4 222)">
<title>om/symbol/separator_symbol.cpp</title>
<!-- Node1 -->
<g id="node1" class="node"><title>Node1</title>
<polygon fill="#bfbfbf" stroke="black" points="-0.68457,-189 -0.68457,-217 108.685,-217 108.685,-189 -0.68457,-189"/>
<text text-anchor="start" x="7.31543" y="-205" font-family="Helvetica,sans-Serif" font-size="10.00">om/symbol/separator</text>
<text text-anchor="middle" x="54" y="-195" font-family="Helvetica,sans-Serif" font-size="10.00">_symbol.cpp</text>
</g>
<!-- Node2 -->
<g id="node2" class="node"><title>Node2</title>
<g id="a_node2"><a xlink:href="separator__symbol_8hpp.html" target="_top" xlink:title="Om header file. ">
<polygon fill="none" stroke="black" points="-0.68457,-123 -0.68457,-151 108.685,-151 108.685,-123 -0.68457,-123"/>
<text text-anchor="start" x="7.31543" y="-139" font-family="Helvetica,sans-Serif" font-size="10.00">om/symbol/separator</text>
<text text-anchor="middle" x="54" y="-129" font-family="Helvetica,sans-Serif" font-size="10.00">_symbol.hpp</text>
</a>
</g>
</g>
<!-- Node1&#45;&gt;Node2 -->
<g id="edge1" class="edge"><title>Node1&#45;&gt;Node2</title>
<path fill="none" stroke="midnightblue" d="M54,-188.739C54,-180.844 54,-170.6 54,-161.386"/>
<polygon fill="midnightblue" stroke="midnightblue" points="57.5001,-161.244 54,-151.244 50.5001,-161.244 57.5001,-161.244"/>
</g>
<!-- Node3 -->
<g id="node3" class="node"><title>Node3</title>
<g id="a_node3"><a xlink:href="macro_8hpp.html" target="_top" xlink:title="Om header file. ">
<polygon fill="none" stroke="black" points="14.042,-67 14.042,-85 93.958,-85 93.958,-67 14.042,-67"/>
<text text-anchor="middle" x="54" y="-73" font-family="Helvetica,sans-Serif" font-size="10.00">om/macro.hpp</text>
</a>
</g>
</g>
<!-- Node2&#45;&gt;Node3 -->
<g id="edge2" class="edge"><title>Node2&#45;&gt;Node3</title>
<path fill="none" stroke="midnightblue" d="M54,-122.906C54,-114.79 54,-104.245 54,-95.3086"/>
<polygon fill="midnightblue" stroke="midnightblue" points="57.5001,-95.1533 54,-85.1534 50.5001,-95.1534 57.5001,-95.1533"/>
</g>
<!-- Node4 -->
<g id="node4" class="node"><title>Node4</title>
<polygon fill="none" stroke="#bfbfbf" points="3.19971,-1 3.19971,-29 104.8,-29 104.8,-1 3.19971,-1"/>
<text text-anchor="start" x="11.1997" y="-17" font-family="Helvetica,sans-Serif" font-size="10.00">boost/preprocessor</text>
<text text-anchor="middle" x="54" y="-7" font-family="Helvetica,sans-Serif" font-size="10.00">/stringize.hpp</text>
</g>
<!-- Node3&#45;&gt;Node4 -->
<g id="edge3" class="edge"><title>Node3&#45;&gt;Node4</title>
<path fill="none" stroke="midnightblue" d="M54,-66.7963C54,-59.7107 54,-49.1152 54,-39.4315"/>
<polygon fill="midnightblue" stroke="midnightblue" points="57.5001,-39.1215 54,-29.1215 50.5001,-39.1215 57.5001,-39.1215"/>
</g>
</g>
</svg>
