<?xml version="1.0" encoding="UTF-8" standalone="no"?>
<!DOCTYPE svg PUBLIC "-//W3C//DTD SVG 1.1//EN"
 "http://www.w3.org/Graphics/SVG/1.1/DTD/svg11.dtd">
<!-- Generated by graphviz version 2.30.1 (20130221.2233)
 -->
<!-- Title: code/om/separator.hpp Pages: 1 -->
<svg width="1180pt" height="518pt"
 viewBox="0.00 0.00 1180.00 518.00" xmlns="http://www.w3.org/2000/svg" xmlns:xlink="http://www.w3.org/1999/xlink">
<g id="graph0" class="graph" transform="scale(1 1) rotate(0) translate(4 514)">
<title>code/om/separator.hpp</title>
<!-- Node1 -->
<g id="node1" class="node"><title>Node1</title>
<polygon fill="#bfbfbf" stroke="black" points="997.853,-489 997.853,-509 1116.15,-509 1116.15,-489 997.853,-489"/>
<text text-anchor="middle" x="1057" y="-495" font-family="Helvetica,sans-Serif" font-size="10.00">code/om/separator.hpp</text>
</g>
<!-- Node2 -->
<g id="node2" class="node"><title>Node2</title>
<g id="a_node2"><a xlink:href="default__atom_8hpp.html" target="_top" xlink:title="Om header file.">
<polygon fill="none" stroke="black" points="744.025,-425 744.025,-445 853.975,-445 853.975,-425 744.025,-425"/>
<text text-anchor="middle" x="799" y="-431" font-family="Helvetica,sans-Serif" font-size="10.00">om/default_atom.hpp</text>
</a>
</g>
</g>
<!-- Node1&#45;&gt;Node2 -->
<g id="edge1" class="edge"><title>Node1&#45;&gt;Node2</title>
<path fill="none" stroke="midnightblue" d="M1019.48,-488.985C973.722,-477.988 896.314,-459.386 846.454,-447.404"/>
<polygon fill="midnightblue" stroke="midnightblue" points="847.102,-443.96 836.561,-445.026 845.466,-450.766 847.102,-443.96"/>
</g>
<!-- Node40 -->
<g id="node40" class="node"><title>Node40</title>
<g id="a_node40"><a xlink:href="separator__symbol_8hpp.html" target="_top" xlink:title="Om header file.">
<polygon fill="none" stroke="black" points="938.815,-419 938.815,-451 1053.18,-451 1053.18,-419 938.815,-419"/>
<text text-anchor="start" x="946.815" y="-437" font-family="Helvetica,sans-Serif" font-size="10.00">om/symbols/separator</text>
<text text-anchor="middle" x="996" y="-425" font-family="Helvetica,sans-Serif" font-size="10.00">_symbol.hpp</text>
</a>
</g>
</g>
<!-- Node1&#45;&gt;Node40 -->
<g id="edge64" class="edge"><title>Node1&#45;&gt;Node40</title>
<path fill="none" stroke="midnightblue" d="M1048,-488.852C1040.21,-480.937 1028.62,-469.156 1018.36,-458.724"/>
<polygon fill="midnightblue" stroke="midnightblue" points="1020.7,-456.114 1011.19,-451.44 1015.71,-461.023 1020.7,-456.114"/>
</g>
<!-- Node43 -->
<g id="node43" class="node"><title>Node43</title>
<g id="a_node43"><a xlink:href="separator_8cpp.html" target="_top" xlink:title="Om source file.">
<polygon fill="none" stroke="black" points="1071.36,-425 1071.36,-445 1164.64,-445 1164.64,-425 1071.36,-425"/>
<text text-anchor="middle" x="1118" y="-431" font-family="Helvetica,sans-Serif" font-size="10.00">om/separator.cpp</text>
</a>
</g>
</g>
<!-- Node1&#45;&gt;Node43 -->
<g id="edge67" class="edge"><title>Node1&#45;&gt;Node43</title>
<path fill="none" stroke="midnightblue" d="M1061.05,-488.852C1068.62,-479.144 1083.55,-463.62 1096.37,-451.903"/>
<polygon fill="midnightblue" stroke="midnightblue" points="1098.81,-454.422 1104,-445.186 1094.18,-449.169 1098.81,-454.422"/>
</g>
<!-- Node3 -->
<g id="node3" class="node"><title>Node3</title>
<g id="a_node3"><a xlink:href="atom_8hpp.html" target="_top" xlink:title="Om header file.">
<polygon fill="none" stroke="black" points="871.818,-361 871.818,-381 946.182,-381 946.182,-361 871.818,-361"/>
<text text-anchor="middle" x="909" y="-367" font-family="Helvetica,sans-Serif" font-size="10.00">om/atom.hpp</text>
</a>
</g>
</g>
<!-- Node2&#45;&gt;Node3 -->
<g id="edge2" class="edge"><title>Node2&#45;&gt;Node3</title>
<path fill="none" stroke="midnightblue" d="M815.231,-424.852C833.347,-414.641 862.882,-397.994 883.963,-386.112"/>
<polygon fill="midnightblue" stroke="midnightblue" points="885.71,-389.145 892.703,-381.186 882.272,-383.047 885.71,-389.145"/>
</g>
<!-- Node25 -->
<g id="node25" class="node"><title>Node25</title>
<g id="a_node25"><a xlink:href="default__element_8hpp.html" target="_top" xlink:title="Om header file.">
<polygon fill="none" stroke="black" points="588.353,-361 588.353,-381 711.647,-381 711.647,-361 588.353,-361"/>
<text text-anchor="middle" x="650" y="-367" font-family="Helvetica,sans-Serif" font-size="10.00">om/default_element.hpp</text>
</a>
</g>
</g>
<!-- Node2&#45;&gt;Node25 -->
<g id="edge36" class="edge"><title>Node2&#45;&gt;Node25</title>
<path fill="none" stroke="midnightblue" d="M777.334,-424.985C752.064,-414.47 710.085,-397.002 681.282,-385.017"/>
<polygon fill="midnightblue" stroke="midnightblue" points="682.269,-381.637 671.692,-381.026 679.58,-388.099 682.269,-381.637"/>
</g>
<!-- Node39 -->
<g id="node39" class="node"><title>Node39</title>
<g id="a_node39"><a xlink:href="default__atom_8cpp.html" target="_top" xlink:title="Om source file.">
<polygon fill="none" stroke="black" points="744.306,-361 744.306,-381 853.694,-381 853.694,-361 744.306,-361"/>
<text text-anchor="middle" x="799" y="-367" font-family="Helvetica,sans-Serif" font-size="10.00">om/default_atom.cpp</text>
</a>
</g>
</g>
<!-- Node2&#45;&gt;Node39 -->
<g id="edge62" class="edge"><title>Node2&#45;&gt;Node39</title>
<path fill="none" stroke="midnightblue" d="M794.045,-424.852C792.252,-416.06 791.802,-402.498 792.696,-391.313"/>
<polygon fill="midnightblue" stroke="midnightblue" points="796.194,-391.559 794.037,-381.186 789.254,-390.64 796.194,-391.559"/>
</g>
<!-- Node4 -->
<g id="node4" class="node"><title>Node4</title>
<g id="a_node4"><a xlink:href="element_8hpp.html" target="_top" xlink:title="Om header file.">
<polygon fill="none" stroke="black" points="964.146,-297 964.146,-317 1051.85,-317 1051.85,-297 964.146,-297"/>
<text text-anchor="middle" x="1008" y="-303" font-family="Helvetica,sans-Serif" font-size="10.00">om/element.hpp</text>
</a>
</g>
</g>
<!-- Node3&#45;&gt;Node4 -->
<g id="edge3" class="edge"><title>Node3&#45;&gt;Node4</title>
<path fill="none" stroke="midnightblue" d="M923.608,-360.852C939.693,-350.778 965.78,-334.441 984.697,-322.594"/>
<polygon fill="midnightblue" stroke="midnightblue" points="986.715,-325.46 993.332,-317.186 982.999,-319.527 986.715,-325.46"/>
</g>
<!-- Node24 -->
<g id="node24" class="node"><title>Node24</title>
<g id="a_node24"><a xlink:href="atom_8cpp.html" target="_top" xlink:title="Om source file.">
<polygon fill="none" stroke="black" points="872.099,-297 872.099,-317 945.901,-317 945.901,-297 872.099,-297"/>
<text text-anchor="middle" x="909" y="-303" font-family="Helvetica,sans-Serif" font-size="10.00">om/atom.cpp</text>
</a>
</g>
</g>
<!-- Node3&#45;&gt;Node24 -->
<g id="edge34" class="edge"><title>Node3&#45;&gt;Node24</title>
<path fill="none" stroke="midnightblue" d="M904.045,-360.852C902.252,-352.06 901.802,-338.498 902.696,-327.313"/>
<polygon fill="midnightblue" stroke="midnightblue" points="906.194,-327.559 904.037,-317.186 899.254,-326.64 906.194,-327.559"/>
</g>
<!-- Node5 -->
<g id="node5" class="node"><title>Node5</title>
<g id="a_node5"><a xlink:href="program_8hpp.html" target="_top" xlink:title="Om header file.">
<polygon fill="none" stroke="black" points="865.315,-233 865.315,-253 954.685,-253 954.685,-233 865.315,-233"/>
<text text-anchor="middle" x="910" y="-239" font-family="Helvetica,sans-Serif" font-size="10.00">om/program.hpp</text>
</a>
</g>
</g>
<!-- Node4&#45;&gt;Node5 -->
<g id="edge4" class="edge"><title>Node4&#45;&gt;Node5</title>
<path fill="none" stroke="midnightblue" d="M993.54,-296.852C977.617,-286.778 951.793,-270.441 933.067,-258.594"/>
<polygon fill="midnightblue" stroke="midnightblue" points="934.842,-255.575 924.52,-253.186 931.099,-261.49 934.842,-255.575"/>
</g>
<!-- Node23 -->
<g id="node23" class="node"><title>Node23</title>
<g id="a_node23"><a xlink:href="element_8cpp.html" target="_top" xlink:title="Om source file.">
<polygon fill="none" stroke="black" points="972.426,-233 972.426,-253 1059.57,-253 1059.57,-233 972.426,-233"/>
<text text-anchor="middle" x="1016" y="-239" font-family="Helvetica,sans-Serif" font-size="10.00">om/element.cpp</text>
</a>
</g>
</g>
<!-- Node4&#45;&gt;Node23 -->
<g id="edge32" class="edge"><title>Node4&#45;&gt;Node23</title>
<path fill="none" stroke="midnightblue" d="M1004.23,-296.852C1003.56,-287.969 1004.89,-274.215 1007.28,-262.964"/>
<polygon fill="midnightblue" stroke="midnightblue" points="1010.69,-263.747 1009.85,-253.186 1003.92,-261.965 1010.69,-263.747"/>
</g>
<!-- Node6 -->
<g id="node6" class="node"><title>Node6</title>
<g id="a_node6"><a xlink:href="giveable_8hpp.html" target="_top" xlink:title="Om header file.">
<polygon fill="none" stroke="black" points="569.308,-175 569.308,-195 658.692,-195 658.692,-175 569.308,-175"/>
<text text-anchor="middle" x="614" y="-181" font-family="Helvetica,sans-Serif" font-size="10.00">om/giveable.hpp</text>
</a>
</g>
</g>
<!-- Node5&#45;&gt;Node6 -->
<g id="edge5" class="edge"><title>Node5&#45;&gt;Node6</title>
<path fill="none" stroke="midnightblue" d="M865.044,-233.495C812.408,-223.537 725.251,-207.047 668.729,-196.354"/>
<polygon fill="midnightblue" stroke="midnightblue" points="669.37,-192.913 658.893,-194.493 668.068,-199.791 669.37,-192.913"/>
</g>
<!-- Node17 -->
<g id="node17" class="node"><title>Node17</title>
<g id="a_node17"><a xlink:href="queue_8hpp.html" target="_top" xlink:title="Om header file.">
<polygon fill="none" stroke="black" points="768.03,-175 768.03,-195 847.97,-195 847.97,-175 768.03,-175"/>
<text text-anchor="middle" x="808" y="-181" font-family="Helvetica,sans-Serif" font-size="10.00">om/queue.hpp</text>
</a>
</g>
</g>
<!-- Node5&#45;&gt;Node17 -->
<g id="edge22" class="edge"><title>Node5&#45;&gt;Node17</title>
<path fill="none" stroke="midnightblue" d="M893.157,-232.753C876.892,-223.823 852.051,-210.185 833.388,-199.939"/>
<polygon fill="midnightblue" stroke="midnightblue" points="834.98,-196.82 824.53,-195.075 831.611,-202.956 834.98,-196.82"/>
</g>
<!-- Node19 -->
<g id="node19" class="node"><title>Node19</title>
<g id="a_node19"><a xlink:href="shareable_8hpp.html" target="_top" xlink:title="Om header file.">
<polygon fill="none" stroke="black" points="971.973,-175 971.973,-195 1068.03,-195 1068.03,-175 971.973,-175"/>
<text text-anchor="middle" x="1020" y="-181" font-family="Helvetica,sans-Serif" font-size="10.00">om/shareable.hpp</text>
</a>
</g>
</g>
<!-- Node5&#45;&gt;Node19 -->
<g id="edge26" class="edge"><title>Node5&#45;&gt;Node19</title>
<path fill="none" stroke="midnightblue" d="M928.164,-232.753C945.864,-223.742 972.984,-209.935 993.17,-199.659"/>
<polygon fill="midnightblue" stroke="midnightblue" points="994.85,-202.731 1002.17,-195.075 991.674,-196.493 994.85,-202.731"/>
</g>
<!-- Node22 -->
<g id="node22" class="node"><title>Node22</title>
<g id="a_node22"><a xlink:href="program_8cpp.html" target="_top" xlink:title="Om source file.">
<polygon fill="none" stroke="black" points="865.596,-175 865.596,-195 954.404,-195 954.404,-175 865.596,-175"/>
<text text-anchor="middle" x="910" y="-181" font-family="Helvetica,sans-Serif" font-size="10.00">om/program.cpp</text>
</a>
</g>
</g>
<!-- Node5&#45;&gt;Node22 -->
<g id="edge30" class="edge"><title>Node5&#45;&gt;Node22</title>
<path fill="none" stroke="midnightblue" d="M904.834,-232.753C903.308,-225.25 902.884,-214.424 903.564,-205.078"/>
<polygon fill="midnightblue" stroke="midnightblue" points="907.046,-205.444 904.869,-195.075 900.105,-204.538 907.046,-205.444"/>
</g>
<!-- Node7 -->
<g id="node7" class="node"><title>Node7</title>
<g id="a_node7"><a xlink:href="copyable_8hpp.html" target="_top" xlink:title="Om header file.">
<polygon fill="none" stroke="black" points="435.919,-117 435.919,-137 528.081,-137 528.081,-117 435.919,-117"/>
<text text-anchor="middle" x="482" y="-123" font-family="Helvetica,sans-Serif" font-size="10.00">om/copyable.hpp</text>
</a>
</g>
</g>
<!-- Node6&#45;&gt;Node7 -->
<g id="edge6" class="edge"><title>Node6&#45;&gt;Node7</title>
<path fill="none" stroke="midnightblue" d="M592.498,-174.878C570.828,-165.685 537.179,-151.409 512.705,-141.026"/>
<polygon fill="midnightblue" stroke="midnightblue" points="514.065,-137.802 503.493,-137.118 511.332,-144.246 514.065,-137.802"/>
</g>
<!-- Node12 -->
<g id="node12" class="node"><title>Node12</title>
<g id="a_node12"><a xlink:href="moveable_8hpp.html" target="_top" xlink:title="Om header file.">
<polygon fill="none" stroke="black" points="547.254,-117 547.254,-137 642.746,-137 642.746,-117 547.254,-117"/>
<text text-anchor="middle" x="595" y="-123" font-family="Helvetica,sans-Serif" font-size="10.00">om/moveable.hpp</text>
</a>
</g>
</g>
<!-- Node6&#45;&gt;Node12 -->
<g id="edge13" class="edge"><title>Node6&#45;&gt;Node12</title>
<path fill="none" stroke="midnightblue" d="M610.863,-174.753C608.289,-167.169 604.564,-156.188 601.37,-146.774"/>
<polygon fill="midnightblue" stroke="midnightblue" points="604.607,-145.42 598.079,-137.075 597.978,-147.67 604.607,-145.42"/>
</g>
<!-- Node16 -->
<g id="node16" class="node"><title>Node16</title>
<g id="a_node16"><a xlink:href="giveable_8cpp.html" target="_top" xlink:title="Om source file.">
<polygon fill="none" stroke="black" points="660.589,-117 660.589,-137 749.411,-137 749.411,-117 660.589,-117"/>
<text text-anchor="middle" x="705" y="-123" font-family="Helvetica,sans-Serif" font-size="10.00">om/giveable.cpp</text>
</a>
</g>
</g>
<!-- Node6&#45;&gt;Node16 -->
<g id="edge20" class="edge"><title>Node6&#45;&gt;Node16</title>
<path fill="none" stroke="midnightblue" d="M623.86,-174.753C636.496,-165.864 658.263,-152.309 676.175,-142.079"/>
<polygon fill="midnightblue" stroke="midnightblue" points="678.103,-145.011 685.122,-137.075 674.686,-138.902 678.103,-145.011"/>
</g>
<!-- Node8 -->
<g id="node8" class="node"><title>Node8</title>
<g id="a_node8"><a xlink:href="copy_8hpp.html" target="_top" xlink:title="Om header file.">
<polygon fill="none" stroke="black" points="501.741,-59 501.741,-79 574.259,-79 574.259,-59 501.741,-59"/>
<text text-anchor="middle" x="538" y="-65" font-family="Helvetica,sans-Serif" font-size="10.00">om/copy.hpp</text>
</a>
</g>
</g>
<!-- Node7&#45;&gt;Node8 -->
<g id="edge7" class="edge"><title>Node7&#45;&gt;Node8</title>
<path fill="none" stroke="midnightblue" d="M491.247,-116.753C499.484,-108.516 511.726,-96.2738 521.618,-86.3824"/>
<polygon fill="midnightblue" stroke="midnightblue" points="524.329,-88.6212 528.925,-79.0752 519.379,-83.6714 524.329,-88.6212"/>
</g>
<!-- Node11 -->
<g id="node11" class="node"><title>Node11</title>
<g id="a_node11"><a xlink:href="copyable_8cpp.html" target="_top" xlink:title="Om source file.">
<polygon fill="none" stroke="black" points="392.2,-59 392.2,-79 483.8,-79 483.8,-59 392.2,-59"/>
<text text-anchor="middle" x="438" y="-65" font-family="Helvetica,sans-Serif" font-size="10.00">om/copyable.cpp</text>
</a>
</g>
</g>
<!-- Node7&#45;&gt;Node11 -->
<g id="edge11" class="edge"><title>Node7&#45;&gt;Node11</title>
<path fill="none" stroke="midnightblue" d="M469.568,-116.753C461.744,-108.843 452.242,-97.2372 445.489,-87.5683"/>
<polygon fill="midnightblue" stroke="midnightblue" points="448.367,-85.574 440,-79.0752 442.488,-89.3736 448.367,-85.574"/>
</g>
<!-- Node9 -->
<g id="node9" class="node"><title>Node9</title>
<polygon fill="none" stroke="#bfbfbf" points="832.943,-1 832.943,-21 885.057,-21 885.057,-1 832.943,-1"/>
<text text-anchor="middle" x="859" y="-7" font-family="Helvetica,sans-Serif" font-size="10.00">memory</text>
</g>
<!-- Node8&#45;&gt;Node9 -->
<g id="edge8" class="edge"><title>Node8&#45;&gt;Node9</title>
<path fill="none" stroke="midnightblue" d="M574.626,-59.8709C577.792,-59.2187 580.95,-58.5862 584,-58 669.165,-41.6301 769.813,-25.6433 822.562,-17.5209"/>
<polygon fill="midnightblue" stroke="midnightblue" points="823.408,-20.9322 832.762,-15.9565 822.347,-14.0131 823.408,-20.9322"/>
</g>
<!-- Node10 -->
<g id="node10" class="node"><title>Node10</title>
<g id="a_node10"><a xlink:href="copy_8cpp.html" target="_top" xlink:title="Om source file.">
<polygon fill="none" stroke="black" points="502.021,-1 502.021,-21 573.979,-21 573.979,-1 502.021,-1"/>
<text text-anchor="middle" x="538" y="-7" font-family="Helvetica,sans-Serif" font-size="10.00">om/copy.cpp</text>
</a>
</g>
</g>
<!-- Node8&#45;&gt;Node10 -->
<g id="edge9" class="edge"><title>Node8&#45;&gt;Node10</title>
<path fill="none" stroke="midnightblue" d="M532.834,-58.7527C531.308,-51.2504 530.884,-40.4238 531.564,-31.0781"/>
<polygon fill="midnightblue" stroke="midnightblue" points="535.046,-31.4439 532.869,-21.0752 528.105,-30.5385 535.046,-31.4439"/>
</g>
<!-- Node10&#45;&gt;Node8 -->
<g id="edge10" class="edge"><title>Node10&#45;&gt;Node8</title>
<path fill="none" stroke="midnightblue" d="M543.131,-21.0752C544.674,-28.5262 545.114,-39.3384 544.451,-48.7065"/>
<polygon fill="midnightblue" stroke="midnightblue" points="540.963,-48.3895 543.166,-58.7527 547.907,-49.2776 540.963,-48.3895"/>
</g>
<!-- Node11&#45;&gt;Node7 -->
<g id="edge12" class="edge"><title>Node11&#45;&gt;Node7</title>
<path fill="none" stroke="midnightblue" d="M450.262,-79.0752C458.061,-86.9312 467.57,-98.5235 474.364,-108.22"/>
<polygon fill="midnightblue" stroke="midnightblue" points="471.521,-110.27 479.901,-116.753 477.393,-106.459 471.521,-110.27"/>
</g>
<!-- Node13 -->
<g id="node13" class="node"><title>Node13</title>
<g id="a_node13"><a xlink:href="move_8hpp.html" target="_top" xlink:title="Om header file.">
<polygon fill="none" stroke="black" points="902.707,-59 902.707,-79 979.293,-79 979.293,-59 902.707,-59"/>
<text text-anchor="middle" x="941" y="-65" font-family="Helvetica,sans-Serif" font-size="10.00">om/move.hpp</text>
</a>
</g>
</g>
<!-- Node12&#45;&gt;Node13 -->
<g id="edge14" class="edge"><title>Node12&#45;&gt;Node13</title>
<path fill="none" stroke="midnightblue" d="M642.885,-117.543C645.968,-117.015 649.027,-116.497 652,-116 736.439,-101.874 834.936,-86.4133 892.396,-77.4959"/>
<polygon fill="midnightblue" stroke="midnightblue" points="893.289,-80.8993 902.635,-75.9087 892.217,-73.9819 893.289,-80.8993"/>
</g>
<!-- Node15 -->
<g id="node15" class="node"><title>Node15</title>
<g id="a_node15"><a xlink:href="moveable_8cpp.html" target="_top" xlink:title="Om source file.">
<polygon fill="none" stroke="black" points="592.535,-59 592.535,-79 687.465,-79 687.465,-59 592.535,-59"/>
<text text-anchor="middle" x="640" y="-65" font-family="Helvetica,sans-Serif" font-size="10.00">om/moveable.cpp</text>
</a>
</g>
</g>
<!-- Node12&#45;&gt;Node15 -->
<g id="edge18" class="edge"><title>Node12&#45;&gt;Node15</title>
<path fill="none" stroke="midnightblue" d="M597.265,-116.753C602.208,-108.516 611.699,-96.2738 620.631,-86.3824"/>
<polygon fill="midnightblue" stroke="midnightblue" points="623.224,-88.7347 627.576,-79.0752 618.15,-83.9122 623.224,-88.7347"/>
</g>
<!-- Node13&#45;&gt;Node9 -->
<g id="edge15" class="edge"><title>Node13&#45;&gt;Node9</title>
<path fill="none" stroke="midnightblue" d="M927.459,-58.7527C914.802,-50.1087 895.683,-37.0518 880.864,-26.9314"/>
<polygon fill="midnightblue" stroke="midnightblue" points="882.521,-23.8245 872.289,-21.0752 878.573,-29.6052 882.521,-23.8245"/>
</g>
<!-- Node14 -->
<g id="node14" class="node"><title>Node14</title>
<g id="a_node14"><a xlink:href="move_8cpp.html" target="_top" xlink:title="Om source file.">
<polygon fill="none" stroke="black" points="902.988,-1 902.988,-21 979.012,-21 979.012,-1 902.988,-1"/>
<text text-anchor="middle" x="941" y="-7" font-family="Helvetica,sans-Serif" font-size="10.00">om/move.cpp</text>
</a>
</g>
</g>
<!-- Node13&#45;&gt;Node14 -->
<g id="edge16" class="edge"><title>Node13&#45;&gt;Node14</title>
<path fill="none" stroke="midnightblue" d="M935.834,-58.7527C934.308,-51.2504 933.884,-40.4238 934.564,-31.0781"/>
<polygon fill="midnightblue" stroke="midnightblue" points="938.046,-31.4439 935.869,-21.0752 931.105,-30.5385 938.046,-31.4439"/>
</g>
<!-- Node14&#45;&gt;Node13 -->
<g id="edge17" class="edge"><title>Node14&#45;&gt;Node13</title>
<path fill="none" stroke="midnightblue" d="M946.131,-21.0752C947.674,-28.5262 948.114,-39.3384 947.451,-48.7065"/>
<polygon fill="midnightblue" stroke="midnightblue" points="943.963,-48.3895 946.166,-58.7527 950.907,-49.2776 943.963,-48.3895"/>
</g>
<!-- Node15&#45;&gt;Node12 -->
<g id="edge19" class="edge"><title>Node15&#45;&gt;Node12</title>
<path fill="none" stroke="midnightblue" d="M637.838,-79.0752C632.959,-87.2551 623.496,-99.486 614.556,-109.41"/>
<polygon fill="midnightblue" stroke="midnightblue" points="611.936,-107.087 607.597,-116.753 617.016,-111.902 611.936,-107.087"/>
</g>
<!-- Node16&#45;&gt;Node6 -->
<g id="edge21" class="edge"><title>Node16&#45;&gt;Node6</title>
<path fill="none" stroke="midnightblue" d="M695.384,-137.075C682.867,-145.903 661.135,-159.449 643.173,-169.722"/>
<polygon fill="midnightblue" stroke="midnightblue" points="641.206,-166.811 634.193,-174.753 644.628,-172.918 641.206,-166.811"/>
</g>
<!-- Node17&#45;&gt;Node9 -->
<g id="edge23" class="edge"><title>Node17&#45;&gt;Node9</title>
<path fill="none" stroke="midnightblue" d="M821.958,-174.936C833.159,-166.778 848.111,-153.68 855,-138 870.49,-102.742 866.576,-56.4245 862.614,-30.9088"/>
<polygon fill="midnightblue" stroke="midnightblue" points="866.063,-30.311 860.915,-21.0509 859.164,-31.5002 866.063,-30.311"/>
</g>
<!-- Node18 -->
<g id="node18" class="node"><title>Node18</title>
<g id="a_node18"><a xlink:href="queue_8cpp.html" target="_top" xlink:title="Om source file.">
<polygon fill="none" stroke="black" points="767.311,-117 767.311,-137 846.689,-137 846.689,-117 767.311,-117"/>
<text text-anchor="middle" x="807" y="-123" font-family="Helvetica,sans-Serif" font-size="10.00">om/queue.cpp</text>
</a>
</g>
</g>
<!-- Node17&#45;&gt;Node18 -->
<g id="edge24" class="edge"><title>Node17&#45;&gt;Node18</title>
<path fill="none" stroke="midnightblue" d="M802.669,-174.753C801.008,-167.25 800.392,-156.424 800.905,-147.078"/>
<polygon fill="midnightblue" stroke="midnightblue" points="804.39,-147.404 802.031,-137.075 797.434,-146.621 804.39,-147.404"/>
</g>
<!-- Node18&#45;&gt;Node17 -->
<g id="edge25" class="edge"><title>Node18&#45;&gt;Node17</title>
<path fill="none" stroke="midnightblue" d="M812.293,-137.075C813.969,-144.526 814.602,-155.338 814.107,-164.707"/>
<polygon fill="midnightblue" stroke="midnightblue" points="810.616,-164.43 813.001,-174.753 817.574,-165.196 810.616,-164.43"/>
</g>
<!-- Node20 -->
<g id="node20" class="node"><title>Node20</title>
<polygon fill="none" stroke="#bfbfbf" points="1085.88,-117 1085.88,-137 1134.12,-137 1134.12,-117 1085.88,-117"/>
<text text-anchor="middle" x="1110" y="-123" font-family="Helvetica,sans-Serif" font-size="10.00">cstddef</text>
</g>
<!-- Node19&#45;&gt;Node20 -->
<g id="edge27" class="edge"><title>Node19&#45;&gt;Node20</title>
<path fill="none" stroke="midnightblue" d="M1034.86,-174.753C1049.02,-165.946 1070.53,-152.558 1086.92,-142.362"/>
<polygon fill="midnightblue" stroke="midnightblue" points="1088.77,-145.33 1095.41,-137.075 1085.08,-139.387 1088.77,-145.33"/>
</g>
<!-- Node21 -->
<g id="node21" class="node"><title>Node21</title>
<g id="a_node21"><a xlink:href="shareable_8cpp.html" target="_top" xlink:title="Om source file.">
<polygon fill="none" stroke="black" points="972.254,-117 972.254,-137 1067.75,-137 1067.75,-117 972.254,-117"/>
<text text-anchor="middle" x="1020" y="-123" font-family="Helvetica,sans-Serif" font-size="10.00">om/shareable.cpp</text>
</a>
</g>
</g>
<!-- Node19&#45;&gt;Node21 -->
<g id="edge28" class="edge"><title>Node19&#45;&gt;Node21</title>
<path fill="none" stroke="midnightblue" d="M1014.83,-174.753C1013.31,-167.25 1012.88,-156.424 1013.56,-147.078"/>
<polygon fill="midnightblue" stroke="midnightblue" points="1017.05,-147.444 1014.87,-137.075 1010.1,-146.538 1017.05,-147.444"/>
</g>
<!-- Node21&#45;&gt;Node19 -->
<g id="edge29" class="edge"><title>Node21&#45;&gt;Node19</title>
<path fill="none" stroke="midnightblue" d="M1025.13,-137.075C1026.67,-144.526 1027.11,-155.338 1026.45,-164.707"/>
<polygon fill="midnightblue" stroke="midnightblue" points="1022.96,-164.389 1025.17,-174.753 1029.91,-165.278 1022.96,-164.389"/>
</g>
<!-- Node22&#45;&gt;Node5 -->
<g id="edge31" class="edge"><title>Node22&#45;&gt;Node5</title>
<path fill="none" stroke="midnightblue" d="M915.131,-195.075C916.674,-202.526 917.114,-213.338 916.451,-222.707"/>
<polygon fill="midnightblue" stroke="midnightblue" points="912.963,-222.389 915.166,-232.753 919.907,-223.278 912.963,-222.389"/>
</g>
<!-- Node23&#45;&gt;Node4 -->
<g id="edge33" class="edge"><title>Node23&#45;&gt;Node4</title>
<path fill="none" stroke="midnightblue" d="M1019.78,-253.186C1020.44,-262.083 1019.1,-275.84 1016.71,-287.083"/>
<polygon fill="midnightblue" stroke="midnightblue" points="1013.3,-286.29 1014.14,-296.852 1020.07,-288.075 1013.3,-286.29"/>
</g>
<!-- Node24&#45;&gt;Node3 -->
<g id="edge35" class="edge"><title>Node24&#45;&gt;Node3</title>
<path fill="none" stroke="midnightblue" d="M913.963,-317.186C915.752,-325.991 916.198,-339.557 915.3,-350.735"/>
<polygon fill="midnightblue" stroke="midnightblue" points="911.804,-350.478 913.955,-360.852 918.743,-351.4 911.804,-350.478"/>
</g>
<!-- Node26 -->
<g id="node26" class="node"><title>Node26</title>
<g id="a_node26"><a xlink:href="default__program_8hpp.html" target="_top" xlink:title="Om header file.">
<polygon fill="none" stroke="black" points="722.522,-297 722.522,-317 847.478,-317 847.478,-297 722.522,-297"/>
<text text-anchor="middle" x="785" y="-303" font-family="Helvetica,sans-Serif" font-size="10.00">om/default_program.hpp</text>
</a>
</g>
</g>
<!-- Node25&#45;&gt;Node26 -->
<g id="edge37" class="edge"><title>Node25&#45;&gt;Node26</title>
<path fill="none" stroke="midnightblue" d="M669.63,-360.985C692.326,-350.561 729.897,-333.307 755.971,-321.332"/>
<polygon fill="midnightblue" stroke="midnightblue" points="757.719,-324.38 765.346,-317.026 754.798,-318.019 757.719,-324.38"/>
</g>
<!-- Node38 -->
<g id="node38" class="node"><title>Node38</title>
<g id="a_node38"><a xlink:href="default__element_8cpp.html" target="_top" xlink:title="Om source file.">
<polygon fill="none" stroke="black" points="581.633,-297 581.633,-317 704.367,-317 704.367,-297 581.633,-297"/>
<text text-anchor="middle" x="643" y="-303" font-family="Helvetica,sans-Serif" font-size="10.00">om/default_element.cpp</text>
</a>
</g>
</g>
<!-- Node25&#45;&gt;Node38 -->
<g id="edge60" class="edge"><title>Node25&#45;&gt;Node38</title>
<path fill="none" stroke="midnightblue" d="M644.012,-360.852C641.226,-352.06 639.246,-338.498 638.876,-327.313"/>
<polygon fill="midnightblue" stroke="midnightblue" points="642.378,-327.252 639.074,-317.186 635.379,-327.116 642.378,-327.252"/>
</g>
<!-- Node27 -->
<g id="node27" class="node"><title>Node27</title>
<g id="a_node27"><a xlink:href="default__giveable_8hpp.html" target="_top" xlink:title="Om header file.">
<polygon fill="none" stroke="black" points="216.515,-233 216.515,-253 341.485,-253 341.485,-233 216.515,-233"/>
<text text-anchor="middle" x="279" y="-239" font-family="Helvetica,sans-Serif" font-size="10.00">om/default_giveable.hpp</text>
</a>
</g>
</g>
<!-- Node26&#45;&gt;Node27 -->
<g id="edge38" class="edge"><title>Node26&#45;&gt;Node27</title>
<path fill="none" stroke="midnightblue" d="M748.157,-296.972C736.922,-294.446 724.5,-291.881 713,-290 586.767,-269.352 438.291,-255.933 351.802,-249.187"/>
<polygon fill="midnightblue" stroke="midnightblue" points="352.065,-245.697 341.825,-248.417 351.526,-252.677 352.065,-245.697"/>
</g>
<!-- Node33 -->
<g id="node33" class="node"><title>Node33</title>
<g id="a_node33"><a xlink:href="default__queue_8hpp.html" target="_top" xlink:title="Om header file.">
<polygon fill="none" stroke="black" points="466.237,-233 466.237,-253 581.763,-253 581.763,-233 466.237,-233"/>
<text text-anchor="middle" x="524" y="-239" font-family="Helvetica,sans-Serif" font-size="10.00">om/default_queue.hpp</text>
</a>
</g>
</g>
<!-- Node26&#45;&gt;Node33 -->
<g id="edge50" class="edge"><title>Node26&#45;&gt;Node33</title>
<path fill="none" stroke="midnightblue" d="M747.048,-296.985C700.754,-285.988 622.446,-267.386 572.006,-255.404"/>
<polygon fill="midnightblue" stroke="midnightblue" points="572.536,-251.932 561.997,-253.026 570.918,-258.743 572.536,-251.932"/>
</g>
<!-- Node26&#45;&gt;Node5 -->
<g id="edge54" class="edge"><title>Node26&#45;&gt;Node5</title>
<path fill="none" stroke="midnightblue" d="M803.176,-296.985C824.098,-286.607 858.672,-269.458 882.802,-257.49"/>
<polygon fill="midnightblue" stroke="midnightblue" points="884.399,-260.605 891.802,-253.026 881.288,-254.334 884.399,-260.605"/>
</g>
<!-- Node35 -->
<g id="node35" class="node"><title>Node35</title>
<g id="a_node35"><a xlink:href="taker_8hpp.html" target="_top" xlink:title="Om header file.">
<polygon fill="none" stroke="black" points="631.091,-233 631.091,-253 704.909,-253 704.909,-233 631.091,-233"/>
<text text-anchor="middle" x="668" y="-239" font-family="Helvetica,sans-Serif" font-size="10.00">om/taker.hpp</text>
</a>
</g>
</g>
<!-- Node26&#45;&gt;Node35 -->
<g id="edge55" class="edge"><title>Node26&#45;&gt;Node35</title>
<path fill="none" stroke="midnightblue" d="M767.987,-296.985C748.578,-286.699 716.614,-269.761 694.06,-257.809"/>
<polygon fill="midnightblue" stroke="midnightblue" points="695.508,-254.616 685.033,-253.026 692.231,-260.801 695.508,-254.616"/>
</g>
<!-- Node37 -->
<g id="node37" class="node"><title>Node37</title>
<g id="a_node37"><a xlink:href="default__program_8cpp.html" target="_top" xlink:title="Om source file.">
<polygon fill="none" stroke="black" points="722.803,-233 722.803,-253 847.197,-253 847.197,-233 722.803,-233"/>
<text text-anchor="middle" x="785" y="-239" font-family="Helvetica,sans-Serif" font-size="10.00">om/default_program.cpp</text>
</a>
</g>
</g>
<!-- Node26&#45;&gt;Node37 -->
<g id="edge58" class="edge"><title>Node26&#45;&gt;Node37</title>
<path fill="none" stroke="midnightblue" d="M780.045,-296.852C778.252,-288.06 777.802,-274.498 778.696,-263.313"/>
<polygon fill="midnightblue" stroke="midnightblue" points="782.194,-263.559 780.037,-253.186 775.254,-262.64 782.194,-263.559"/>
</g>
<!-- Node28 -->
<g id="node28" class="node"><title>Node28</title>
<g id="a_node28"><a xlink:href="default__copyable_8hpp.html" target="_top" xlink:title="Om header file.">
<polygon fill="none" stroke="black" points="142.126,-175 142.126,-195 269.874,-195 269.874,-175 142.126,-175"/>
<text text-anchor="middle" x="206" y="-181" font-family="Helvetica,sans-Serif" font-size="10.00">om/default_copyable.hpp</text>
</a>
</g>
</g>
<!-- Node27&#45;&gt;Node28 -->
<g id="edge39" class="edge"><title>Node27&#45;&gt;Node28</title>
<path fill="none" stroke="midnightblue" d="M266.946,-232.753C255.784,-224.19 238.977,-211.298 225.839,-201.219"/>
<polygon fill="midnightblue" stroke="midnightblue" points="227.895,-198.385 217.83,-195.075 223.634,-203.939 227.895,-198.385"/>
</g>
<!-- Node30 -->
<g id="node30" class="node"><title>Node30</title>
<g id="a_node30"><a xlink:href="default__moveable_8hpp.html" target="_top" xlink:title="Om header file.">
<polygon fill="none" stroke="black" points="287.461,-175 287.461,-195 418.539,-195 418.539,-175 287.461,-175"/>
<text text-anchor="middle" x="353" y="-181" font-family="Helvetica,sans-Serif" font-size="10.00">om/default_moveable.hpp</text>
</a>
</g>
</g>
<!-- Node27&#45;&gt;Node30 -->
<g id="edge43" class="edge"><title>Node27&#45;&gt;Node30</title>
<path fill="none" stroke="midnightblue" d="M291.22,-232.753C302.534,-224.19 319.571,-211.298 332.89,-201.219"/>
<polygon fill="midnightblue" stroke="midnightblue" points="335.146,-203.901 341.008,-195.075 330.922,-198.319 335.146,-203.901"/>
</g>
<!-- Node27&#45;&gt;Node6 -->
<g id="edge47" class="edge"><title>Node27&#45;&gt;Node6</title>
<path fill="none" stroke="midnightblue" d="M336.375,-232.967C391.041,-224.278 475.922,-210.577 559.326,-196.09"/>
<polygon fill="midnightblue" stroke="midnightblue" points="559.973,-199.53 569.224,-194.366 558.772,-192.634 559.973,-199.53"/>
</g>
<!-- Node32 -->
<g id="node32" class="node"><title>Node32</title>
<g id="a_node32"><a xlink:href="default__giveable_8cpp.html" target="_top" xlink:title="Om source file.">
<polygon fill="none" stroke="black" points="-0.204102,-175 -0.204102,-195 124.204,-195 124.204,-175 -0.204102,-175"/>
<text text-anchor="middle" x="62" y="-181" font-family="Helvetica,sans-Serif" font-size="10.00">om/default_giveable.cpp</text>
</a>
</g>
</g>
<!-- Node27&#45;&gt;Node32 -->
<g id="edge48" class="edge"><title>Node27&#45;&gt;Node32</title>
<path fill="none" stroke="midnightblue" d="M238.766,-232.94C199.672,-223.364 140.84,-208.224 101.873,-197.739"/>
<polygon fill="midnightblue" stroke="midnightblue" points="102.498,-194.282 91.9305,-195.047 100.668,-201.039 102.498,-194.282"/>
</g>
<!-- Node28&#45;&gt;Node7 -->
<g id="edge40" class="edge"><title>Node28&#45;&gt;Node7</title>
<path fill="none" stroke="midnightblue" d="M250.651,-174.94C298.852,-165.16 375.658,-149.577 427.412,-139.076"/>
<polygon fill="midnightblue" stroke="midnightblue" points="428.309,-142.465 437.413,-137.047 426.917,-135.605 428.309,-142.465"/>
</g>
<!-- Node29 -->
<g id="node29" class="node"><title>Node29</title>
<g id="a_node29"><a xlink:href="default__copyable_8cpp.html" target="_top" xlink:title="Om source file.">
<polygon fill="none" stroke="black" points="142.407,-117 142.407,-137 269.593,-137 269.593,-117 142.407,-117"/>
<text text-anchor="middle" x="206" y="-123" font-family="Helvetica,sans-Serif" font-size="10.00">om/default_copyable.cpp</text>
</a>
</g>
</g>
<!-- Node28&#45;&gt;Node29 -->
<g id="edge41" class="edge"><title>Node28&#45;&gt;Node29</title>
<path fill="none" stroke="midnightblue" d="M200.834,-174.753C199.308,-167.25 198.884,-156.424 199.564,-147.078"/>
<polygon fill="midnightblue" stroke="midnightblue" points="203.046,-147.444 200.869,-137.075 196.105,-146.538 203.046,-147.444"/>
</g>
<!-- Node29&#45;&gt;Node28 -->
<g id="edge42" class="edge"><title>Node29&#45;&gt;Node28</title>
<path fill="none" stroke="midnightblue" d="M211.131,-137.075C212.674,-144.526 213.114,-155.338 212.451,-164.707"/>
<polygon fill="midnightblue" stroke="midnightblue" points="208.963,-164.389 211.166,-174.753 215.907,-165.278 208.963,-164.389"/>
</g>
<!-- Node30&#45;&gt;Node12 -->
<g id="edge44" class="edge"><title>Node30&#45;&gt;Node12</title>
<path fill="none" stroke="midnightblue" d="M392.15,-174.94C434.062,-165.242 500.637,-149.836 545.998,-139.339"/>
<polygon fill="midnightblue" stroke="midnightblue" points="546.952,-142.711 555.906,-137.047 545.374,-135.891 546.952,-142.711"/>
</g>
<!-- Node31 -->
<g id="node31" class="node"><title>Node31</title>
<g id="a_node31"><a xlink:href="default__moveable_8cpp.html" target="_top" xlink:title="Om source file.">
<polygon fill="none" stroke="black" points="287.742,-117 287.742,-137 418.258,-137 418.258,-117 287.742,-117"/>
<text text-anchor="middle" x="353" y="-123" font-family="Helvetica,sans-Serif" font-size="10.00">om/default_moveable.cpp</text>
</a>
</g>
</g>
<!-- Node30&#45;&gt;Node31 -->
<g id="edge45" class="edge"><title>Node30&#45;&gt;Node31</title>
<path fill="none" stroke="midnightblue" d="M347.834,-174.753C346.308,-167.25 345.884,-156.424 346.564,-147.078"/>
<polygon fill="midnightblue" stroke="midnightblue" points="350.046,-147.444 347.869,-137.075 343.105,-146.538 350.046,-147.444"/>
</g>
<!-- Node31&#45;&gt;Node30 -->
<g id="edge46" class="edge"><title>Node31&#45;&gt;Node30</title>
<path fill="none" stroke="midnightblue" d="M358.131,-137.075C359.674,-144.526 360.114,-155.338 359.451,-164.707"/>
<polygon fill="midnightblue" stroke="midnightblue" points="355.963,-164.389 358.166,-174.753 362.907,-165.278 355.963,-164.389"/>
</g>
<!-- Node32&#45;&gt;Node27 -->
<g id="edge49" class="edge"><title>Node32&#45;&gt;Node27</title>
<path fill="none" stroke="midnightblue" d="M102.094,-195.025C141.09,-204.576 199.819,-219.688 238.834,-230.183"/>
<polygon fill="midnightblue" stroke="midnightblue" points="238.226,-233.644 248.793,-232.878 240.055,-226.887 238.226,-233.644"/>
</g>
<!-- Node33&#45;&gt;Node17 -->
<g id="edge51" class="edge"><title>Node33&#45;&gt;Node17</title>
<path fill="none" stroke="midnightblue" d="M570.184,-232.968C617.39,-223.724 692.818,-208.925 758,-196 758.1,-195.98 758.201,-195.96 758.302,-195.94"/>
<polygon fill="midnightblue" stroke="midnightblue" points="758.76,-199.418 767.885,-194.035 757.395,-192.552 758.76,-199.418"/>
</g>
<!-- Node34 -->
<g id="node34" class="node"><title>Node34</title>
<g id="a_node34"><a xlink:href="default__queue_8cpp.html" target="_top" xlink:title="Om source file.">
<polygon fill="none" stroke="black" points="436.518,-175 436.518,-195 551.482,-195 551.482,-175 436.518,-175"/>
<text text-anchor="middle" x="494" y="-181" font-family="Helvetica,sans-Serif" font-size="10.00">om/default_queue.cpp</text>
</a>
</g>
</g>
<!-- Node33&#45;&gt;Node34 -->
<g id="edge52" class="edge"><title>Node33&#45;&gt;Node34</title>
<path fill="none" stroke="midnightblue" d="M513.88,-232.753C508.214,-225.087 501.841,-213.952 497.505,-204.471"/>
<polygon fill="midnightblue" stroke="midnightblue" points="500.706,-203.05 493.731,-195.075 494.211,-205.659 500.706,-203.05"/>
</g>
<!-- Node34&#45;&gt;Node33 -->
<g id="edge53" class="edge"><title>Node34&#45;&gt;Node33</title>
<path fill="none" stroke="midnightblue" d="M503.993,-195.075C509.648,-202.688 516.031,-213.81 520.397,-223.315"/>
<polygon fill="midnightblue" stroke="midnightblue" points="517.219,-224.794 524.212,-232.753 523.709,-222.17 517.219,-224.794"/>
</g>
<!-- Node36 -->
<g id="node36" class="node"><title>Node36</title>
<g id="a_node36"><a xlink:href="taker_8cpp.html" target="_top" xlink:title="Om source file.">
<polygon fill="none" stroke="black" points="676.372,-175 676.372,-195 749.628,-195 749.628,-175 676.372,-175"/>
<text text-anchor="middle" x="713" y="-181" font-family="Helvetica,sans-Serif" font-size="10.00">om/taker.cpp</text>
</a>
</g>
</g>
<!-- Node35&#45;&gt;Node36 -->
<g id="edge56" class="edge"><title>Node35&#45;&gt;Node36</title>
<path fill="none" stroke="midnightblue" d="M670.265,-232.753C675.208,-224.516 684.699,-212.274 693.631,-202.382"/>
<polygon fill="midnightblue" stroke="midnightblue" points="696.224,-204.735 700.576,-195.075 691.15,-199.912 696.224,-204.735"/>
</g>
<!-- Node36&#45;&gt;Node35 -->
<g id="edge57" class="edge"><title>Node36&#45;&gt;Node35</title>
<path fill="none" stroke="midnightblue" d="M710.838,-195.075C705.959,-203.255 696.496,-215.486 687.556,-225.41"/>
<polygon fill="midnightblue" stroke="midnightblue" points="684.936,-223.087 680.597,-232.753 690.016,-227.902 684.936,-223.087"/>
</g>
<!-- Node37&#45;&gt;Node26 -->
<g id="edge59" class="edge"><title>Node37&#45;&gt;Node26</title>
<path fill="none" stroke="midnightblue" d="M789.963,-253.186C791.752,-261.991 792.198,-275.557 791.3,-286.735"/>
<polygon fill="midnightblue" stroke="midnightblue" points="787.804,-286.478 789.955,-296.852 794.743,-287.4 787.804,-286.478"/>
</g>
<!-- Node38&#45;&gt;Node25 -->
<g id="edge61" class="edge"><title>Node38&#45;&gt;Node25</title>
<path fill="none" stroke="midnightblue" d="M649,-317.186C651.783,-325.991 653.761,-339.557 654.125,-350.735"/>
<polygon fill="midnightblue" stroke="midnightblue" points="650.624,-350.784 653.923,-360.852 657.622,-350.924 650.624,-350.784"/>
</g>
<!-- Node39&#45;&gt;Node2 -->
<g id="edge63" class="edge"><title>Node39&#45;&gt;Node2</title>
<path fill="none" stroke="midnightblue" d="M803.963,-381.186C805.752,-389.991 806.198,-403.557 805.3,-414.735"/>
<polygon fill="midnightblue" stroke="midnightblue" points="801.804,-414.478 803.955,-424.852 808.743,-415.4 801.804,-414.478"/>
</g>
<!-- Node41 -->
<g id="node41" class="node"><title>Node41</title>
<g id="a_node41"><a xlink:href="macros_8hpp.html" target="_top" xlink:title="Om header file.">
<polygon fill="none" stroke="black" points="1021.54,-361 1021.54,-381 1106.46,-381 1106.46,-361 1021.54,-361"/>
<text text-anchor="middle" x="1064" y="-367" font-family="Helvetica,sans-Serif" font-size="10.00">om/macros.hpp</text>
</a>
</g>
</g>
<!-- Node40&#45;&gt;Node41 -->
<g id="edge65" class="edge"><title>Node40&#45;&gt;Node41</title>
<path fill="none" stroke="midnightblue" d="M1012.46,-418.992C1022.63,-409.716 1035.69,-397.811 1046.12,-388.304"/>
<polygon fill="midnightblue" stroke="midnightblue" points="1048.78,-390.614 1053.81,-381.29 1044.06,-385.442 1048.78,-390.614"/>
</g>
<!-- Node42 -->
<g id="node42" class="node"><title>Node42</title>
<polygon fill="none" stroke="#bfbfbf" points="1070.2,-291 1070.2,-323 1171.8,-323 1171.8,-291 1070.2,-291"/>
<text text-anchor="start" x="1078.2" y="-309" font-family="Helvetica,sans-Serif" font-size="10.00">boost/preprocessor</text>
<text text-anchor="middle" x="1121" y="-297" font-family="Helvetica,sans-Serif" font-size="10.00">/stringize.hpp</text>
</g>
<!-- Node41&#45;&gt;Node42 -->
<g id="edge66" class="edge"><title>Node41&#45;&gt;Node42</title>
<path fill="none" stroke="midnightblue" d="M1072.41,-360.852C1079.62,-353.014 1090.31,-341.384 1099.83,-331.028"/>
<polygon fill="midnightblue" stroke="midnightblue" points="1102.61,-333.171 1106.8,-323.44 1097.46,-328.433 1102.61,-333.171"/>
</g>
<!-- Node43&#45;&gt;Node1 -->
<g id="edge68" class="edge"><title>Node43&#45;&gt;Node1</title>
<path fill="none" stroke="midnightblue" d="M1113.93,-445.186C1106.34,-454.908 1091.4,-470.435 1078.58,-482.142"/>
<polygon fill="midnightblue" stroke="midnightblue" points="1076.15,-479.617 1070.96,-488.852 1080.77,-484.871 1076.15,-479.617"/>
</g>
</g>
</svg>
