<?xml version="1.0" encoding="UTF-8" standalone="no"?>
<!DOCTYPE svg PUBLIC "-//W3C//DTD SVG 1.1//EN"
 "http://www.w3.org/Graphics/SVG/1.1/DTD/svg11.dtd">
<!-- Generated by graphviz version 2.30.1 (20130221.2233)
 -->
<!-- Title: code/om/shareable.hpp Pages: 1 -->
<svg width="182pt" height="88pt"
 viewBox="0.00 0.00 182.00 88.00" xmlns="http://www.w3.org/2000/svg" xmlns:xlink="http://www.w3.org/1999/xlink">
<g id="graph0" class="graph" transform="scale(1 1) rotate(0) translate(4 84)">
<title>code/om/shareable.hpp</title>
<!-- Node1 -->
<g id="node1" class="node"><title>Node1</title>
<polygon fill="#bfbfbf" stroke="black" points="53.7417,-59 53.7417,-79 174.258,-79 174.258,-59 53.7417,-59"/>
<text text-anchor="middle" x="114" y="-65" font-family="Helvetica,sans-Serif" font-size="10.00">code/om/shareable.hpp</text>
</g>
<!-- Node2 -->
<g id="node2" class="node"><title>Node2</title>
<polygon fill="none" stroke="#bfbfbf" points="-0.120605,-1 -0.120605,-21 48.1206,-21 48.1206,-1 -0.120605,-1"/>
<text text-anchor="middle" x="24" y="-7" font-family="Helvetica,sans-Serif" font-size="10.00">cstddef</text>
</g>
<!-- Node1&#45;&gt;Node2 -->
<g id="edge1" class="edge"><title>Node1&#45;&gt;Node2</title>
<path fill="none" stroke="midnightblue" d="M99.1383,-58.7527C84.9841,-49.9457 63.4675,-36.5575 47.0814,-26.3617"/>
<polygon fill="midnightblue" stroke="midnightblue" points="48.9248,-23.3866 38.5851,-21.0752 45.2266,-29.33 48.9248,-23.3866"/>
</g>
<!-- Node3 -->
<g id="node3" class="node"><title>Node3</title>
<g id="a_node3"><a xlink:href="shareable_8cpp.html" target="_top" xlink:title="Om source file.">
<polygon fill="none" stroke="black" points="66.2539,-1 66.2539,-21 161.746,-21 161.746,-1 66.2539,-1"/>
<text text-anchor="middle" x="114" y="-7" font-family="Helvetica,sans-Serif" font-size="10.00">om/shareable.cpp</text>
</a>
</g>
</g>
<!-- Node1&#45;&gt;Node3 -->
<g id="edge2" class="edge"><title>Node1&#45;&gt;Node3</title>
<path fill="none" stroke="midnightblue" d="M108.834,-58.7527C107.308,-51.2504 106.884,-40.4238 107.564,-31.0781"/>
<polygon fill="midnightblue" stroke="midnightblue" points="111.046,-31.4439 108.869,-21.0752 104.105,-30.5385 111.046,-31.4439"/>
</g>
<!-- Node3&#45;&gt;Node1 -->
<g id="edge3" class="edge"><title>Node3&#45;&gt;Node1</title>
<path fill="none" stroke="midnightblue" d="M119.131,-21.0752C120.674,-28.5262 121.114,-39.3384 120.451,-48.7065"/>
<polygon fill="midnightblue" stroke="midnightblue" points="116.963,-48.3895 119.166,-58.7527 123.907,-49.2776 116.963,-48.3895"/>
</g>
</g>
</svg>
