<?xml version="1.0" encoding="UTF-8" standalone="no"?>
<!DOCTYPE svg PUBLIC "-//W3C//DTD SVG 1.1//EN"
 "http://www.w3.org/Graphics/SVG/1.1/DTD/svg11.dtd">
<!-- Generated by graphviz version 2.30.1 (20130221.2233)
 -->
<!-- Title: code/om/shareable.hpp Pages: 1 -->
<svg width="1466pt" height="646pt"
 viewBox="0.00 0.00 1466.00 646.00" xmlns="http://www.w3.org/2000/svg" xmlns:xlink="http://www.w3.org/1999/xlink">
<g id="graph0" class="graph" transform="scale(1 1) rotate(0) translate(4 642)">
<title>code/om/shareable.hpp</title>
<!-- Node1 -->
<g id="node1" class="node"><title>Node1</title>
<polygon fill="#bfbfbf" stroke="black" points="1336.74,-617 1336.74,-637 1457.26,-637 1457.26,-617 1336.74,-617"/>
<text text-anchor="middle" x="1397" y="-623" font-family="Helvetica,sans-Serif" font-size="10.00">code/om/shareable.hpp</text>
</g>
<!-- Node2 -->
<g id="node2" class="node"><title>Node2</title>
<g id="a_node2"><a xlink:href="program_8hpp.html" target="_top" xlink:title="Om header file.">
<polygon fill="none" stroke="black" points="1205.08,-559 1205.08,-579 1318.92,-579 1318.92,-559 1205.08,-559"/>
<text text-anchor="middle" x="1262" y="-565" font-family="Helvetica,sans-Serif" font-size="10.00">code/om/program.hpp</text>
</a>
</g>
</g>
<!-- Node1&#45;&gt;Node2 -->
<g id="edge1" class="edge"><title>Node1&#45;&gt;Node2</title>
<path fill="none" stroke="midnightblue" d="M1365.59,-612.969C1340.55,-602.585 1306.14,-588.31 1283.98,-579.118"/>
<polygon fill="midnightblue" stroke="midnightblue" points="1364.43,-616.279 1375.01,-616.878 1367.11,-609.813 1364.43,-616.279"/>
</g>
<!-- Node48 -->
<g id="node48" class="node"><title>Node48</title>
<g id="a_node48"><a xlink:href="shareable_8cpp.html" target="_top" xlink:title="Om source file.">
<polygon fill="none" stroke="black" points="1337.02,-559 1337.02,-579 1456.98,-579 1456.98,-559 1337.02,-559"/>
<text text-anchor="middle" x="1397" y="-565" font-family="Helvetica,sans-Serif" font-size="10.00">code/om/shareable.cpp</text>
</a>
</g>
</g>
<!-- Node1&#45;&gt;Node48 -->
<g id="edge69" class="edge"><title>Node1&#45;&gt;Node48</title>
<path fill="none" stroke="midnightblue" d="M1390.55,-606.707C1389.89,-597.338 1390.33,-586.526 1391.87,-579.075"/>
<polygon fill="midnightblue" stroke="midnightblue" points="1387.09,-607.278 1391.83,-616.753 1394.04,-606.389 1387.09,-607.278"/>
</g>
<!-- Node3 -->
<g id="node3" class="node"><title>Node3</title>
<g id="a_node3"><a xlink:href="default__program_8hpp.html" target="_top" xlink:title="Om header file.">
<polygon fill="none" stroke="black" points="836.291,-501 836.291,-521 985.709,-521 985.709,-501 836.291,-501"/>
<text text-anchor="middle" x="911" y="-507" font-family="Helvetica,sans-Serif" font-size="10.00">code/om/default_program.hpp</text>
</a>
</g>
</g>
<!-- Node2&#45;&gt;Node3 -->
<g id="edge2" class="edge"><title>Node2&#45;&gt;Node3</title>
<path fill="none" stroke="midnightblue" d="M1195.34,-557.364C1129.38,-546.842 1029.55,-530.914 967.412,-521"/>
<polygon fill="midnightblue" stroke="midnightblue" points="1194.79,-560.821 1205.22,-558.94 1195.89,-553.909 1194.79,-560.821"/>
</g>
<!-- Node43 -->
<g id="node43" class="node"><title>Node43</title>
<g id="a_node43"><a xlink:href="element_8hpp.html" target="_top" xlink:title="Om header file.">
<polygon fill="none" stroke="black" points="1140.91,-501 1140.91,-521 1253.09,-521 1253.09,-501 1140.91,-501"/>
<text text-anchor="middle" x="1197" y="-507" font-family="Helvetica,sans-Serif" font-size="10.00">code/om/element.hpp</text>
</a>
</g>
</g>
<!-- Node2&#45;&gt;Node43 -->
<g id="edge60" class="edge"><title>Node2&#45;&gt;Node43</title>
<path fill="none" stroke="midnightblue" d="M1243.42,-551.997C1231.79,-541.972 1217.22,-529.417 1207.53,-521.075"/>
<polygon fill="midnightblue" stroke="midnightblue" points="1241.41,-554.877 1251.27,-558.753 1245.97,-549.574 1241.41,-554.877"/>
</g>
<!-- Node47 -->
<g id="node47" class="node"><title>Node47</title>
<g id="a_node47"><a xlink:href="program_8cpp.html" target="_top" xlink:title="Om source file.">
<polygon fill="none" stroke="black" points="1271.36,-501 1271.36,-521 1384.64,-521 1384.64,-501 1271.36,-501"/>
<text text-anchor="middle" x="1328" y="-507" font-family="Helvetica,sans-Serif" font-size="10.00">code/om/program.cpp</text>
</a>
</g>
</g>
<!-- Node2&#45;&gt;Node47 -->
<g id="edge67" class="edge"><title>Node2&#45;&gt;Node47</title>
<path fill="none" stroke="midnightblue" d="M1275.01,-551.704C1285.77,-541.729 1300.73,-529.336 1312.17,-521.075"/>
<polygon fill="midnightblue" stroke="midnightblue" points="1272.48,-549.281 1267.73,-558.753 1277.35,-554.31 1272.48,-549.281"/>
</g>
<!-- Node4 -->
<g id="node4" class="node"><title>Node4</title>
<g id="a_node4"><a xlink:href="default__element_8hpp.html" target="_top" xlink:title="Om header file.">
<polygon fill="none" stroke="black" points="754.121,-443 754.121,-463 901.879,-463 901.879,-443 754.121,-443"/>
<text text-anchor="middle" x="828" y="-449" font-family="Helvetica,sans-Serif" font-size="10.00">code/om/default_element.hpp</text>
</a>
</g>
</g>
<!-- Node3&#45;&gt;Node4 -->
<g id="edge3" class="edge"><title>Node3&#45;&gt;Node4</title>
<path fill="none" stroke="midnightblue" d="M888.994,-495.153C873.877,-484.953 854.295,-471.741 841.451,-463.075"/>
<polygon fill="midnightblue" stroke="midnightblue" points="887.047,-498.061 897.294,-500.753 890.962,-492.258 887.047,-498.061"/>
</g>
<!-- Node38 -->
<g id="node38" class="node"><title>Node38</title>
<g id="a_node38"><a xlink:href="default__program_8cpp.html" target="_top" xlink:title="Om source file.">
<polygon fill="none" stroke="black" points="919.572,-443 919.572,-463 1068.43,-463 1068.43,-443 919.572,-443"/>
<text text-anchor="middle" x="994" y="-449" font-family="Helvetica,sans-Serif" font-size="10.00">code/om/default_program.cpp</text>
</a>
</g>
</g>
<!-- Node3&#45;&gt;Node38 -->
<g id="edge52" class="edge"><title>Node3&#45;&gt;Node38</title>
<path fill="none" stroke="midnightblue" d="M927.754,-494.578C941.636,-484.461 961.053,-471.579 975.418,-463.075"/>
<polygon fill="midnightblue" stroke="midnightblue" points="925.43,-491.946 919.539,-500.753 929.636,-497.542 925.43,-491.946"/>
</g>
<!-- Node39 -->
<g id="node39" class="node"><title>Node39</title>
<g id="a_node39"><a xlink:href="literal_8hpp.html" target="_top" xlink:title="Om header file.">
<polygon fill="none" stroke="black" points="403.754,-443 403.754,-463 504.246,-463 504.246,-443 403.754,-443"/>
<text text-anchor="middle" x="454" y="-449" font-family="Helvetica,sans-Serif" font-size="10.00">code/om/literal.hpp</text>
</a>
</g>
</g>
<!-- Node3&#45;&gt;Node39 -->
<g id="edge54" class="edge"><title>Node3&#45;&gt;Node39</title>
<path fill="none" stroke="midnightblue" d="M825.918,-501.481C745.219,-493.091 620.642,-479.332 513,-464 510.223,-463.604 507.375,-463.181 504.503,-462.74"/>
<polygon fill="midnightblue" stroke="midnightblue" points="825.72,-504.979 836.027,-502.528 826.441,-498.017 825.72,-504.979"/>
</g>
<!-- Node41 -->
<g id="node41" class="node"><title>Node41</title>
<g id="a_node41"><a xlink:href="null_8hpp.html" target="_top" xlink:title="Om header file.">
<polygon fill="none" stroke="black" points="521.919,-443 521.919,-463 614.081,-463 614.081,-443 521.919,-443"/>
<text text-anchor="middle" x="568" y="-449" font-family="Helvetica,sans-Serif" font-size="10.00">code/om/null.hpp</text>
</a>
</g>
</g>
<!-- Node3&#45;&gt;Node41 -->
<g id="edge57" class="edge"><title>Node3&#45;&gt;Node41</title>
<path fill="none" stroke="midnightblue" d="M845.384,-499.287C777.711,-488.238 673.9,-471.29 614.331,-461.564"/>
<polygon fill="midnightblue" stroke="midnightblue" points="845.077,-502.783 855.51,-500.94 846.205,-495.875 845.077,-502.783"/>
</g>
<!-- Node5 -->
<g id="node5" class="node"><title>Node5</title>
<g id="a_node5"><a xlink:href="default__atom_8hpp.html" target="_top" xlink:title="Om header file.">
<polygon fill="none" stroke="black" points="934.793,-385 934.793,-405 1069.21,-405 1069.21,-385 934.793,-385"/>
<text text-anchor="middle" x="1002" y="-391" font-family="Helvetica,sans-Serif" font-size="10.00">code/om/default_atom.hpp</text>
</a>
</g>
</g>
<!-- Node4&#45;&gt;Node5 -->
<g id="edge4" class="edge"><title>Node4&#45;&gt;Node5</title>
<path fill="none" stroke="midnightblue" d="M865.974,-439.778C898.522,-429.303 944.661,-414.454 973.957,-405.025"/>
<polygon fill="midnightblue" stroke="midnightblue" points="864.79,-436.483 856.343,-442.878 866.935,-443.146 864.79,-436.483"/>
</g>
<!-- Node35 -->
<g id="node35" class="node"><title>Node35</title>
<g id="a_node35"><a xlink:href="default__element_8cpp.html" target="_top" xlink:title="Om source file.">
<polygon fill="none" stroke="black" points="762.402,-385 762.402,-405 909.598,-405 909.598,-385 762.402,-385"/>
<text text-anchor="middle" x="836" y="-391" font-family="Helvetica,sans-Serif" font-size="10.00">code/om/default_element.cpp</text>
</a>
</g>
</g>
<!-- Node4&#45;&gt;Node35 -->
<g id="edge47" class="edge"><title>Node4&#45;&gt;Node35</title>
<path fill="none" stroke="midnightblue" d="M824.305,-432.707C824.98,-423.338 826.965,-412.526 829.573,-405.075"/>
<polygon fill="midnightblue" stroke="midnightblue" points="820.805,-432.701 824.155,-442.753 827.804,-432.806 820.805,-432.701"/>
</g>
<!-- Node36 -->
<g id="node36" class="node"><title>Node36</title>
<g id="a_node36"><a xlink:href="operand_8hpp.html" target="_top" xlink:title="Om header file.">
<polygon fill="none" stroke="black" points="631.353,-385 631.353,-405 744.647,-405 744.647,-385 631.353,-385"/>
<text text-anchor="middle" x="688" y="-391" font-family="Helvetica,sans-Serif" font-size="10.00">code/om/operand.hpp</text>
</a>
</g>
</g>
<!-- Node4&#45;&gt;Node36 -->
<g id="edge49" class="edge"><title>Node4&#45;&gt;Node36</title>
<path fill="none" stroke="midnightblue" d="M795.767,-439.107C769.779,-428.711 733.876,-414.351 710.795,-405.118"/>
<polygon fill="midnightblue" stroke="midnightblue" points="794.61,-442.414 805.195,-442.878 797.21,-435.914 794.61,-442.414"/>
</g>
<!-- Node6 -->
<g id="node6" class="node"><title>Node6</title>
<g id="a_node6"><a xlink:href="default__atom_8cpp.html" target="_top" xlink:title="Om source file.">
<polygon fill="none" stroke="black" points="1079.07,-327 1079.07,-347 1212.93,-347 1212.93,-327 1079.07,-327"/>
<text text-anchor="middle" x="1146" y="-333" font-family="Helvetica,sans-Serif" font-size="10.00">code/om/default_atom.cpp</text>
</a>
</g>
</g>
<!-- Node5&#45;&gt;Node6 -->
<g id="edge5" class="edge"><title>Node5&#45;&gt;Node6</title>
<path fill="none" stroke="midnightblue" d="M1029.73,-380.957C1055.07,-370.539 1092.14,-356.21 1117.67,-347.025"/>
<polygon fill="midnightblue" stroke="midnightblue" points="1028.2,-377.802 1020.32,-384.878 1030.89,-384.264 1028.2,-377.802"/>
</g>
<!-- Node7 -->
<g id="node7" class="node"><title>Node7</title>
<g id="a_node7"><a xlink:href="operator_8hpp.html" target="_top" xlink:title="Om header file.">
<polygon fill="none" stroke="black" points="762.353,-327 762.353,-347 875.647,-347 875.647,-327 762.353,-327"/>
<text text-anchor="middle" x="819" y="-333" font-family="Helvetica,sans-Serif" font-size="10.00">code/om/operator.hpp</text>
</a>
</g>
</g>
<!-- Node5&#45;&gt;Node7 -->
<g id="edge7" class="edge"><title>Node5&#45;&gt;Node7</title>
<path fill="none" stroke="midnightblue" d="M962.503,-381.914C928.249,-371.431 879.437,-356.494 848.493,-347.025"/>
<polygon fill="midnightblue" stroke="midnightblue" points="961.604,-385.299 972.191,-384.878 963.652,-378.605 961.604,-385.299"/>
</g>
<!-- Node33 -->
<g id="node33" class="node"><title>Node33</title>
<g id="a_node33"><a xlink:href="separator_8hpp.html" target="_top" xlink:title="Om header file.">
<polygon fill="none" stroke="black" points="942.853,-327 942.853,-347 1061.15,-347 1061.15,-327 942.853,-327"/>
<text text-anchor="middle" x="1002" y="-333" font-family="Helvetica,sans-Serif" font-size="10.00">code/om/separator.hpp</text>
</a>
</g>
</g>
<!-- Node5&#45;&gt;Node33 -->
<g id="edge44" class="edge"><title>Node5&#45;&gt;Node33</title>
<path fill="none" stroke="midnightblue" d="M1002,-374.707C1002,-365.338 1002,-354.526 1002,-347.075"/>
<polygon fill="midnightblue" stroke="midnightblue" points="998.5,-374.753 1002,-384.753 1005.5,-374.753 998.5,-374.753"/>
</g>
<!-- Node6&#45;&gt;Node5 -->
<g id="edge6" class="edge"><title>Node6&#45;&gt;Node5</title>
<path fill="none" stroke="midnightblue" d="M1118.31,-351.026C1093.06,-361.409 1056.13,-375.685 1030.6,-384.878"/>
<polygon fill="midnightblue" stroke="midnightblue" points="1119.81,-354.194 1127.69,-347.118 1117.12,-347.732 1119.81,-354.194"/>
</g>
<!-- Node8 -->
<g id="node8" class="node"><title>Node8</title>
<g id="a_node8"><a xlink:href="form_8hpp.html" target="_top" xlink:title="Om header file.">
<polygon fill="none" stroke="black" points="859.702,-269 859.702,-289 956.298,-289 956.298,-269 859.702,-269"/>
<text text-anchor="middle" x="908" y="-275" font-family="Helvetica,sans-Serif" font-size="10.00">code/om/form.hpp</text>
</a>
</g>
</g>
<!-- Node7&#45;&gt;Node8 -->
<g id="edge8" class="edge"><title>Node7&#45;&gt;Node8</title>
<path fill="none" stroke="midnightblue" d="M842.596,-321.153C858.806,-310.953 879.804,-297.741 893.577,-289.075"/>
<polygon fill="midnightblue" stroke="midnightblue" points="840.296,-318.465 833.697,-326.753 844.024,-324.389 840.296,-318.465"/>
</g>
<!-- Node22 -->
<g id="node22" class="node"><title>Node22</title>
<g id="a_node22"><a xlink:href="operator_8cpp.html" target="_top" xlink:title="Om source file.">
<polygon fill="none" stroke="black" points="610.633,-269 610.633,-289 723.367,-289 723.367,-269 610.633,-269"/>
<text text-anchor="middle" x="667" y="-275" font-family="Helvetica,sans-Serif" font-size="10.00">code/om/operator.cpp</text>
</a>
</g>
</g>
<!-- Node7&#45;&gt;Node22 -->
<g id="edge28" class="edge"><title>Node7&#45;&gt;Node22</title>
<path fill="none" stroke="midnightblue" d="M779.389,-323.517C749.556,-313.092 710.071,-298.473 686.609,-289.118"/>
<polygon fill="midnightblue" stroke="midnightblue" points="778.505,-326.914 789.1,-326.878 780.795,-320.3 778.505,-326.914"/>
</g>
<!-- Node23 -->
<g id="node23" class="node"><title>Node23</title>
<g id="a_node23"><a xlink:href="pair_8hpp.html" target="_top" xlink:title="Om header file.">
<polygon fill="none" stroke="black" points="741.638,-269 741.638,-289 834.362,-289 834.362,-269 741.638,-269"/>
<text text-anchor="middle" x="788" y="-275" font-family="Helvetica,sans-Serif" font-size="10.00">code/om/pair.hpp</text>
</a>
</g>
</g>
<!-- Node7&#45;&gt;Node23 -->
<g id="edge30" class="edge"><title>Node7&#45;&gt;Node23</title>
<path fill="none" stroke="midnightblue" d="M808.991,-317.92C803.658,-308.285 797.328,-296.85 793.024,-289.075"/>
<polygon fill="midnightblue" stroke="midnightblue" points="805.976,-319.699 813.881,-326.753 812.1,-316.309 805.976,-319.699"/>
</g>
<!-- Node9 -->
<g id="node9" class="node"><title>Node9</title>
<g id="a_node9"><a xlink:href="expression_8hpp.html" target="_top" xlink:title="Om header file.">
<polygon fill="none" stroke="black" points="849.522,-211 849.522,-231 974.478,-231 974.478,-211 849.522,-211"/>
<text text-anchor="middle" x="912" y="-217" font-family="Helvetica,sans-Serif" font-size="10.00">code/om/expression.hpp</text>
</a>
</g>
</g>
<!-- Node8&#45;&gt;Node9 -->
<g id="edge9" class="edge"><title>Node8&#45;&gt;Node9</title>
<path fill="none" stroke="midnightblue" d="M909.378,-258.707C910.047,-249.338 910.82,-238.526 911.352,-231.075"/>
<polygon fill="midnightblue" stroke="midnightblue" points="905.882,-258.529 908.661,-268.753 912.864,-259.028 905.882,-258.529"/>
</g>
<!-- Node21 -->
<g id="node21" class="node"><title>Node21</title>
<g id="a_node21"><a xlink:href="form_8cpp.html" target="_top" xlink:title="Om source file.">
<polygon fill="none" stroke="black" points="991.983,-211 991.983,-231 1088.02,-231 1088.02,-211 991.983,-211"/>
<text text-anchor="middle" x="1040" y="-217" font-family="Helvetica,sans-Serif" font-size="10.00">code/om/form.cpp</text>
</a>
</g>
</g>
<!-- Node8&#45;&gt;Node21 -->
<g id="edge26" class="edge"><title>Node8&#45;&gt;Node21</title>
<path fill="none" stroke="midnightblue" d="M933.522,-264.693C956.534,-254.333 990.015,-240.229 1013.37,-231.118"/>
<polygon fill="midnightblue" stroke="midnightblue" points="932.003,-261.539 924.361,-268.878 934.911,-267.906 932.003,-261.539"/>
</g>
<!-- Node10 -->
<g id="node10" class="node"><title>Node10</title>
<g id="a_node10"><a xlink:href="evaluation_8hpp.html" target="_top" xlink:title="Om header file.">
<polygon fill="none" stroke="black" points="916.907,-147 916.907,-167 1039.09,-167 1039.09,-147 916.907,-147"/>
<text text-anchor="middle" x="978" y="-153" font-family="Helvetica,sans-Serif" font-size="10.00">code/om/evaluation.hpp</text>
</a>
</g>
</g>
<!-- Node9&#45;&gt;Node10 -->
<g id="edge10" class="edge"><title>Node9&#45;&gt;Node10</title>
<path fill="none" stroke="midnightblue" d="M929.235,-203.81C941.655,-192.142 957.97,-176.816 968.222,-167.186"/>
<polygon fill="midnightblue" stroke="midnightblue" points="926.631,-201.454 921.739,-210.852 931.423,-206.556 926.631,-201.454"/>
</g>
<!-- Node12 -->
<g id="node12" class="node"><title>Node12</title>
<g id="a_node12"><a xlink:href="expression_8cpp.html" target="_top" xlink:title="Om source file.">
<polygon fill="none" stroke="black" points="1056.8,-147 1056.8,-167 1181.2,-167 1181.2,-147 1056.8,-147"/>
<text text-anchor="middle" x="1119" y="-153" font-family="Helvetica,sans-Serif" font-size="10.00">code/om/expression.cpp</text>
</a>
</g>
</g>
<!-- Node9&#45;&gt;Node12 -->
<g id="edge13" class="edge"><title>Node9&#45;&gt;Node12</title>
<path fill="none" stroke="midnightblue" d="M946.835,-207.926C985.008,-195.934 1045.66,-177.822 1083.93,-167.026"/>
<polygon fill="midnightblue" stroke="midnightblue" points="945.649,-204.63 937.171,-210.985 947.762,-211.304 945.649,-204.63"/>
</g>
<!-- Node13 -->
<g id="node13" class="node"><title>Node13</title>
<g id="a_node13"><a xlink:href="expression__operation_8hpp.html" target="_top" xlink:title="Om header file.">
<polygon fill="none" stroke="black" points="1199.07,-141 1199.07,-173 1332.93,-173 1332.93,-141 1199.07,-141"/>
<text text-anchor="start" x="1207.07" y="-159" font-family="Helvetica,sans-Serif" font-size="10.00">code/om/operations</text>
<text text-anchor="middle" x="1266" y="-147" font-family="Helvetica,sans-Serif" font-size="10.00">/expression_operation.hpp</text>
</a>
</g>
</g>
<!-- Node9&#45;&gt;Node13 -->
<g id="edge15" class="edge"><title>Node9&#45;&gt;Node13</title>
<path fill="none" stroke="midnightblue" d="M981.461,-209.366C1037.79,-200.536 1119.17,-187.31 1190,-174 1192.92,-173.452 1195.89,-172.88 1198.89,-172.293"/>
<polygon fill="midnightblue" stroke="midnightblue" points="980.583,-205.96 971.243,-210.962 981.664,-212.876 980.583,-205.96"/>
</g>
<!-- Node15 -->
<g id="node15" class="node"><title>Node15</title>
<g id="a_node15"><a xlink:href="fill__operation_8hpp.html" target="_top" xlink:title="Om header file.">
<polygon fill="none" stroke="black" points="547.084,-141 547.084,-173 650.916,-173 650.916,-141 547.084,-141"/>
<text text-anchor="start" x="555.084" y="-159" font-family="Helvetica,sans-Serif" font-size="10.00">code/om/operations</text>
<text text-anchor="middle" x="599" y="-147" font-family="Helvetica,sans-Serif" font-size="10.00">/fill_operation.hpp</text>
</a>
</g>
</g>
<!-- Node9&#45;&gt;Node15 -->
<g id="edge17" class="edge"><title>Node9&#45;&gt;Node15</title>
<path fill="none" stroke="midnightblue" d="M845.799,-209.329C794.812,-200.77 722.681,-187.92 660,-174 657.114,-173.359 654.159,-172.675 651.18,-171.965"/>
<polygon fill="midnightblue" stroke="midnightblue" points="845.265,-212.789 855.705,-210.983 846.418,-205.884 845.265,-212.789"/>
</g>
<!-- Node17 -->
<g id="node17" class="node"><title>Node17</title>
<g id="a_node17"><a xlink:href="inject__operation_8hpp.html" target="_top" xlink:title="Om header file.">
<polygon fill="none" stroke="black" points="668.577,-141 668.577,-173 777.423,-173 777.423,-141 668.577,-141"/>
<text text-anchor="start" x="676.577" y="-159" font-family="Helvetica,sans-Serif" font-size="10.00">code/om/operations</text>
<text text-anchor="middle" x="723" y="-147" font-family="Helvetica,sans-Serif" font-size="10.00">/inject_operation.hpp</text>
</a>
</g>
</g>
<!-- Node9&#45;&gt;Node17 -->
<g id="edge20" class="edge"><title>Node9&#45;&gt;Node17</title>
<path fill="none" stroke="midnightblue" d="M874.732,-207.774C844.345,-197.806 801.292,-183.683 768.804,-173.026"/>
<polygon fill="midnightblue" stroke="midnightblue" points="873.925,-211.193 884.518,-210.985 876.107,-204.542 873.925,-211.193"/>
</g>
<!-- Node19 -->
<g id="node19" class="node"><title>Node19</title>
<g id="a_node19"><a xlink:href="skip__operation_8hpp.html" target="_top" xlink:title="Om header file.">
<polygon fill="none" stroke="black" points="795.084,-141 795.084,-173 898.916,-173 898.916,-141 795.084,-141"/>
<text text-anchor="start" x="803.084" y="-159" font-family="Helvetica,sans-Serif" font-size="10.00">code/om/operations</text>
<text text-anchor="middle" x="847" y="-147" font-family="Helvetica,sans-Serif" font-size="10.00">/skip_operation.hpp</text>
</a>
</g>
</g>
<!-- Node9&#45;&gt;Node19 -->
<g id="edge23" class="edge"><title>Node9&#45;&gt;Node19</title>
<path fill="none" stroke="midnightblue" d="M895.092,-203.873C885.163,-194.402 872.69,-182.504 862.935,-173.199"/>
<polygon fill="midnightblue" stroke="midnightblue" points="892.757,-206.482 902.409,-210.852 897.589,-201.417 892.757,-206.482"/>
</g>
<!-- Node11 -->
<g id="node11" class="node"><title>Node11</title>
<g id="a_node11"><a xlink:href="evaluation_8cpp.html" target="_top" xlink:title="Om source file.">
<polygon fill="none" stroke="black" points="917.188,-77 917.188,-97 1038.81,-97 1038.81,-77 917.188,-77"/>
<text text-anchor="middle" x="978" y="-83" font-family="Helvetica,sans-Serif" font-size="10.00">code/om/evaluation.cpp</text>
</a>
</g>
</g>
<!-- Node10&#45;&gt;Node11 -->
<g id="edge11" class="edge"><title>Node10&#45;&gt;Node11</title>
<path fill="none" stroke="midnightblue" d="M971.833,-136.557C970.726,-123.557 971.195,-107.057 973.241,-97.0255"/>
<polygon fill="midnightblue" stroke="midnightblue" points="968.412,-137.384 973.211,-146.829 975.35,-136.453 968.412,-137.384"/>
</g>
<!-- Node11&#45;&gt;Node10 -->
<g id="edge12" class="edge"><title>Node11&#45;&gt;Node10</title>
<path fill="none" stroke="midnightblue" d="M984.151,-107.256C985.273,-120.222 984.819,-136.735 982.789,-146.829"/>
<polygon fill="midnightblue" stroke="midnightblue" points="987.575,-106.462 982.759,-97.0255 980.639,-107.406 987.575,-106.462"/>
</g>
<!-- Node12&#45;&gt;Node9 -->
<g id="edge14" class="edge"><title>Node12&#45;&gt;Node9</title>
<path fill="none" stroke="midnightblue" d="M1084.13,-170.086C1045.94,-182.082 985.283,-200.194 947.028,-210.985"/>
<polygon fill="midnightblue" stroke="midnightblue" points="1085.32,-173.381 1093.79,-167.026 1083.2,-166.707 1085.32,-173.381"/>
</g>
<!-- Node14 -->
<g id="node14" class="node"><title>Node14</title>
<g id="a_node14"><a xlink:href="expression__operation_8cpp.html" target="_top" xlink:title="Om source file.">
<polygon fill="none" stroke="black" points="1199.35,-71 1199.35,-103 1332.65,-103 1332.65,-71 1199.35,-71"/>
<text text-anchor="start" x="1207.35" y="-89" font-family="Helvetica,sans-Serif" font-size="10.00">code/om/operations</text>
<text text-anchor="middle" x="1266" y="-77" font-family="Helvetica,sans-Serif" font-size="10.00">/expression_operation.cpp</text>
</a>
</g>
</g>
<!-- Node13&#45;&gt;Node14 -->
<g id="edge16" class="edge"><title>Node13&#45;&gt;Node14</title>
<path fill="none" stroke="midnightblue" d="M1266,-130.617C1266,-121.338 1266,-111.141 1266,-103.049"/>
<polygon fill="midnightblue" stroke="midnightblue" points="1262.5,-130.909 1266,-140.909 1269.5,-130.909 1262.5,-130.909"/>
</g>
<!-- Node16 -->
<g id="node16" class="node"><title>Node16</title>
<g id="a_node16"><a xlink:href="fill__operation_8cpp.html" target="_top" xlink:title="Om source file.">
<polygon fill="none" stroke="black" points="547.084,-71 547.084,-103 650.916,-103 650.916,-71 547.084,-71"/>
<text text-anchor="start" x="555.084" y="-89" font-family="Helvetica,sans-Serif" font-size="10.00">code/om/operations</text>
<text text-anchor="middle" x="599" y="-77" font-family="Helvetica,sans-Serif" font-size="10.00">/fill_operation.cpp</text>
</a>
</g>
</g>
<!-- Node15&#45;&gt;Node16 -->
<g id="edge18" class="edge"><title>Node15&#45;&gt;Node16</title>
<path fill="none" stroke="midnightblue" d="M592.461,-130.92C592.009,-121.56 592.284,-111.229 593.285,-103.049"/>
<polygon fill="midnightblue" stroke="midnightblue" points="588.974,-131.228 593.28,-140.909 595.951,-130.656 588.974,-131.228"/>
</g>
<!-- Node16&#45;&gt;Node15 -->
<g id="edge19" class="edge"><title>Node16&#45;&gt;Node15</title>
<path fill="none" stroke="midnightblue" d="M605.537,-113.032C605.991,-122.389 605.719,-132.721 604.72,-140.909"/>
<polygon fill="midnightblue" stroke="midnightblue" points="609.024,-112.728 604.715,-103.049 602.047,-113.303 609.024,-112.728"/>
</g>
<!-- Node18 -->
<g id="node18" class="node"><title>Node18</title>
<g id="a_node18"><a xlink:href="inject__operation_8cpp.html" target="_top" xlink:title="Om source file.">
<polygon fill="none" stroke="black" points="668.857,-71 668.857,-103 777.143,-103 777.143,-71 668.857,-71"/>
<text text-anchor="start" x="676.857" y="-89" font-family="Helvetica,sans-Serif" font-size="10.00">code/om/operations</text>
<text text-anchor="middle" x="723" y="-77" font-family="Helvetica,sans-Serif" font-size="10.00">/inject_operation.cpp</text>
</a>
</g>
</g>
<!-- Node17&#45;&gt;Node18 -->
<g id="edge21" class="edge"><title>Node17&#45;&gt;Node18</title>
<path fill="none" stroke="midnightblue" d="M716.461,-130.92C716.009,-121.56 716.284,-111.229 717.285,-103.049"/>
<polygon fill="midnightblue" stroke="midnightblue" points="712.974,-131.228 717.28,-140.909 719.951,-130.656 712.974,-131.228"/>
</g>
<!-- Node18&#45;&gt;Node17 -->
<g id="edge22" class="edge"><title>Node18&#45;&gt;Node17</title>
<path fill="none" stroke="midnightblue" d="M729.537,-113.032C729.991,-122.389 729.719,-132.721 728.72,-140.909"/>
<polygon fill="midnightblue" stroke="midnightblue" points="733.024,-112.728 728.715,-103.049 726.047,-113.303 733.024,-112.728"/>
</g>
<!-- Node20 -->
<g id="node20" class="node"><title>Node20</title>
<g id="a_node20"><a xlink:href="skip__operation_8cpp.html" target="_top" xlink:title="Om source file.">
<polygon fill="none" stroke="black" points="795.084,-71 795.084,-103 898.916,-103 898.916,-71 795.084,-71"/>
<text text-anchor="start" x="803.084" y="-89" font-family="Helvetica,sans-Serif" font-size="10.00">code/om/operations</text>
<text text-anchor="middle" x="847" y="-77" font-family="Helvetica,sans-Serif" font-size="10.00">/skip_operation.cpp</text>
</a>
</g>
</g>
<!-- Node19&#45;&gt;Node20 -->
<g id="edge24" class="edge"><title>Node19&#45;&gt;Node20</title>
<path fill="none" stroke="midnightblue" d="M840.461,-130.92C840.009,-121.56 840.284,-111.229 841.285,-103.049"/>
<polygon fill="midnightblue" stroke="midnightblue" points="836.974,-131.228 841.28,-140.909 843.951,-130.656 836.974,-131.228"/>
</g>
<!-- Node20&#45;&gt;Node19 -->
<g id="edge25" class="edge"><title>Node20&#45;&gt;Node19</title>
<path fill="none" stroke="midnightblue" d="M853.537,-113.032C853.991,-122.389 853.719,-132.721 852.72,-140.909"/>
<polygon fill="midnightblue" stroke="midnightblue" points="857.024,-112.728 852.715,-103.049 850.047,-113.303 857.024,-112.728"/>
</g>
<!-- Node21&#45;&gt;Node8 -->
<g id="edge27" class="edge"><title>Node21&#45;&gt;Node8</title>
<path fill="none" stroke="midnightblue" d="M1014.49,-235.303C991.479,-245.662 957.998,-259.766 934.643,-268.878"/>
<polygon fill="midnightblue" stroke="midnightblue" points="1016.01,-238.457 1023.65,-231.118 1013.1,-232.09 1016.01,-238.457"/>
</g>
<!-- Node22&#45;&gt;Node7 -->
<g id="edge29" class="edge"><title>Node22&#45;&gt;Node7</title>
<path fill="none" stroke="midnightblue" d="M706.332,-292.386C736.193,-302.815 775.845,-317.494 799.381,-326.878"/>
<polygon fill="midnightblue" stroke="midnightblue" points="707.213,-288.987 696.618,-289.025 704.924,-295.602 707.213,-288.987"/>
</g>
<!-- Node24 -->
<g id="node24" class="node"><title>Node24</title>
<g id="a_node24"><a xlink:href="lexicon_8hpp.html" target="_top" xlink:title="Om header file.">
<polygon fill="none" stroke="black" points="129.138,-211 129.138,-231 236.862,-231 236.862,-211 129.138,-211"/>
<text text-anchor="middle" x="183" y="-217" font-family="Helvetica,sans-Serif" font-size="10.00">code/om/lexicon.hpp</text>
</a>
</g>
</g>
<!-- Node23&#45;&gt;Node24 -->
<g id="edge31" class="edge"><title>Node23&#45;&gt;Node24</title>
<path fill="none" stroke="midnightblue" d="M731.547,-268.063C543.784,-243.866 333.811,-230.329 236.947,-224.849"/>
<polygon fill="midnightblue" stroke="midnightblue" points="731.236,-271.552 741.604,-269.372 732.139,-264.61 731.236,-271.552"/>
</g>
<!-- Node32 -->
<g id="node32" class="node"><title>Node32</title>
<g id="a_node32"><a xlink:href="pair_8cpp.html" target="_top" xlink:title="Om source file.">
<polygon fill="none" stroke="black" points="738.919,-211 738.919,-231 831.081,-231 831.081,-211 738.919,-211"/>
<text text-anchor="middle" x="785" y="-217" font-family="Helvetica,sans-Serif" font-size="10.00">code/om/pair.cpp</text>
</a>
</g>
</g>
<!-- Node23&#45;&gt;Node32 -->
<g id="edge42" class="edge"><title>Node23&#45;&gt;Node32</title>
<path fill="none" stroke="midnightblue" d="M780.515,-258.707C779.35,-249.338 779.211,-238.526 780.355,-231.075"/>
<polygon fill="midnightblue" stroke="midnightblue" points="777.109,-259.538 782.338,-268.753 783.996,-258.288 777.109,-259.538"/>
</g>
<!-- Node25 -->
<g id="node25" class="node"><title>Node25</title>
<g id="a_node25"><a xlink:href="lexicon_8cpp.html" target="_top" xlink:title="Om source file.">
<polygon fill="none" stroke="black" points="-0.581055,-147 -0.581055,-167 106.581,-167 106.581,-147 -0.581055,-147"/>
<text text-anchor="middle" x="53" y="-153" font-family="Helvetica,sans-Serif" font-size="10.00">code/om/lexicon.cpp</text>
</a>
</g>
</g>
<!-- Node24&#45;&gt;Node25 -->
<g id="edge32" class="edge"><title>Node24&#45;&gt;Node25</title>
<path fill="none" stroke="midnightblue" d="M149.766,-206.839C122.963,-194.862 86.7954,-177.5 66.9956,-167.026"/>
<polygon fill="midnightblue" stroke="midnightblue" points="148.607,-210.153 159.169,-210.985 151.431,-203.748 148.607,-210.153"/>
</g>
<!-- Node26 -->
<g id="node26" class="node"><title>Node26</title>
<g id="a_node26"><a xlink:href="lexicon__operation_8hpp.html" target="_top" xlink:title="Om header file.">
<polygon fill="none" stroke="black" points="124.685,-141 124.685,-173 241.315,-173 241.315,-141 124.685,-141"/>
<text text-anchor="start" x="132.685" y="-159" font-family="Helvetica,sans-Serif" font-size="10.00">code/om/operations</text>
<text text-anchor="middle" x="183" y="-147" font-family="Helvetica,sans-Serif" font-size="10.00">/lexicon_operation.hpp</text>
</a>
</g>
</g>
<!-- Node24&#45;&gt;Node26 -->
<g id="edge34" class="edge"><title>Node24&#45;&gt;Node26</title>
<path fill="none" stroke="midnightblue" d="M183,-200.775C183,-191.986 183,-181.715 183,-173.44"/>
<polygon fill="midnightblue" stroke="midnightblue" points="179.5,-200.852 183,-210.852 186.5,-200.852 179.5,-200.852"/>
</g>
<!-- Node28 -->
<g id="node28" class="node"><title>Node28</title>
<g id="a_node28"><a xlink:href="translate__operation_8hpp.html" target="_top" xlink:title="Om header file.">
<polygon fill="none" stroke="black" points="259.072,-141 259.072,-173 382.928,-173 382.928,-141 259.072,-141"/>
<text text-anchor="start" x="267.072" y="-159" font-family="Helvetica,sans-Serif" font-size="10.00">code/om/operations</text>
<text text-anchor="middle" x="321" y="-147" font-family="Helvetica,sans-Serif" font-size="10.00">/translate_operation.hpp</text>
</a>
</g>
</g>
<!-- Node24&#45;&gt;Node28 -->
<g id="edge36" class="edge"><title>Node24&#45;&gt;Node28</title>
<path fill="none" stroke="midnightblue" d="M212.263,-206.853C234.306,-196.95 264.556,-183.359 287.556,-173.026"/>
<polygon fill="midnightblue" stroke="midnightblue" points="210.754,-203.694 203.066,-210.985 213.622,-210.079 210.754,-203.694"/>
</g>
<!-- Node25&#45;&gt;Node24 -->
<g id="edge33" class="edge"><title>Node25&#45;&gt;Node24</title>
<path fill="none" stroke="midnightblue" d="M86.2623,-171.174C113.071,-183.154 149.236,-200.516 169.025,-210.985"/>
<polygon fill="midnightblue" stroke="midnightblue" points="87.4184,-167.859 76.8563,-167.026 84.594,-174.264 87.4184,-167.859"/>
</g>
<!-- Node27 -->
<g id="node27" class="node"><title>Node27</title>
<g id="a_node27"><a xlink:href="lexicon__operation_8cpp.html" target="_top" xlink:title="Om source file.">
<polygon fill="none" stroke="black" points="124.966,-71 124.966,-103 241.034,-103 241.034,-71 124.966,-71"/>
<text text-anchor="start" x="132.966" y="-89" font-family="Helvetica,sans-Serif" font-size="10.00">code/om/operations</text>
<text text-anchor="middle" x="183" y="-77" font-family="Helvetica,sans-Serif" font-size="10.00">/lexicon_operation.cpp</text>
</a>
</g>
</g>
<!-- Node26&#45;&gt;Node27 -->
<g id="edge35" class="edge"><title>Node26&#45;&gt;Node27</title>
<path fill="none" stroke="midnightblue" d="M183,-130.617C183,-121.338 183,-111.141 183,-103.049"/>
<polygon fill="midnightblue" stroke="midnightblue" points="179.5,-130.909 183,-140.909 186.5,-130.909 179.5,-130.909"/>
</g>
<!-- Node29 -->
<g id="node29" class="node"><title>Node29</title>
<g id="a_node29"><a xlink:href="substitute__operation_8hpp.html" target="_top" xlink:title="Om header file.">
<polygon fill="none" stroke="black" points="400.848,-71 400.848,-103 529.152,-103 529.152,-71 400.848,-71"/>
<text text-anchor="start" x="408.848" y="-89" font-family="Helvetica,sans-Serif" font-size="10.00">code/om/operations</text>
<text text-anchor="middle" x="465" y="-77" font-family="Helvetica,sans-Serif" font-size="10.00">/substitute_operation.hpp</text>
</a>
</g>
</g>
<!-- Node28&#45;&gt;Node29 -->
<g id="edge37" class="edge"><title>Node28&#45;&gt;Node29</title>
<path fill="none" stroke="midnightblue" d="M362.277,-136.508C384.804,-125.87 412.27,-112.9 433.131,-103.049"/>
<polygon fill="midnightblue" stroke="midnightblue" points="360.506,-133.474 352.958,-140.909 363.495,-139.803 360.506,-133.474"/>
</g>
<!-- Node31 -->
<g id="node31" class="node"><title>Node31</title>
<g id="a_node31"><a xlink:href="translate__operation_8cpp.html" target="_top" xlink:title="Om source file.">
<polygon fill="none" stroke="black" points="259.353,-71 259.353,-103 382.647,-103 382.647,-71 259.353,-71"/>
<text text-anchor="start" x="267.353" y="-89" font-family="Helvetica,sans-Serif" font-size="10.00">code/om/operations</text>
<text text-anchor="middle" x="321" y="-77" font-family="Helvetica,sans-Serif" font-size="10.00">/translate_operation.cpp</text>
</a>
</g>
</g>
<!-- Node28&#45;&gt;Node31 -->
<g id="edge40" class="edge"><title>Node28&#45;&gt;Node31</title>
<path fill="none" stroke="midnightblue" d="M314.461,-130.92C314.009,-121.56 314.284,-111.229 315.285,-103.049"/>
<polygon fill="midnightblue" stroke="midnightblue" points="310.974,-131.228 315.28,-140.909 317.951,-130.656 310.974,-131.228"/>
</g>
<!-- Node30 -->
<g id="node30" class="node"><title>Node30</title>
<g id="a_node30"><a xlink:href="substitute__operation_8cpp.html" target="_top" xlink:title="Om source file.">
<polygon fill="none" stroke="black" points="401.128,-1 401.128,-33 528.872,-33 528.872,-1 401.128,-1"/>
<text text-anchor="start" x="409.128" y="-19" font-family="Helvetica,sans-Serif" font-size="10.00">code/om/operations</text>
<text text-anchor="middle" x="465" y="-7" font-family="Helvetica,sans-Serif" font-size="10.00">/substitute_operation.cpp</text>
</a>
</g>
</g>
<!-- Node29&#45;&gt;Node30 -->
<g id="edge38" class="edge"><title>Node29&#45;&gt;Node30</title>
<path fill="none" stroke="midnightblue" d="M458.461,-60.9196C458.009,-51.5597 458.284,-41.2293 459.285,-33.0492"/>
<polygon fill="midnightblue" stroke="midnightblue" points="454.974,-61.2281 459.28,-70.9086 461.951,-60.656 454.974,-61.2281"/>
</g>
<!-- Node30&#45;&gt;Node29 -->
<g id="edge39" class="edge"><title>Node30&#45;&gt;Node29</title>
<path fill="none" stroke="midnightblue" d="M471.537,-43.0321C471.991,-52.3887 471.719,-62.7211 470.72,-70.9086"/>
<polygon fill="midnightblue" stroke="midnightblue" points="475.024,-42.7283 470.715,-33.0492 468.047,-43.3027 475.024,-42.7283"/>
</g>
<!-- Node31&#45;&gt;Node28 -->
<g id="edge41" class="edge"><title>Node31&#45;&gt;Node28</title>
<path fill="none" stroke="midnightblue" d="M327.537,-113.032C327.991,-122.389 327.719,-132.721 326.72,-140.909"/>
<polygon fill="midnightblue" stroke="midnightblue" points="331.024,-112.728 326.715,-103.049 324.047,-113.303 331.024,-112.728"/>
</g>
<!-- Node32&#45;&gt;Node23 -->
<g id="edge43" class="edge"><title>Node32&#45;&gt;Node23</title>
<path fill="none" stroke="midnightblue" d="M792.458,-241.078C793.638,-250.424 793.795,-261.25 792.671,-268.753"/>
<polygon fill="midnightblue" stroke="midnightblue" points="795.869,-240.277 790.617,-231.075 788.985,-241.543 795.869,-240.277"/>
</g>
<!-- Node34 -->
<g id="node34" class="node"><title>Node34</title>
<g id="a_node34"><a xlink:href="separator_8cpp.html" target="_top" xlink:title="Om source file.">
<polygon fill="none" stroke="black" points="974.133,-269 974.133,-289 1091.87,-289 1091.87,-269 974.133,-269"/>
<text text-anchor="middle" x="1033" y="-275" font-family="Helvetica,sans-Serif" font-size="10.00">code/om/separator.cpp</text>
</a>
</g>
</g>
<!-- Node33&#45;&gt;Node34 -->
<g id="edge45" class="edge"><title>Node33&#45;&gt;Node34</title>
<path fill="none" stroke="midnightblue" d="M1005.94,-317.315C1010.47,-307.81 1017.05,-296.688 1022.85,-289.075"/>
<polygon fill="midnightblue" stroke="midnightblue" points="1002.62,-316.179 1001.95,-326.753 1009.07,-318.901 1002.62,-316.179"/>
</g>
<!-- Node34&#45;&gt;Node33 -->
<g id="edge46" class="edge"><title>Node34&#45;&gt;Node33</title>
<path fill="none" stroke="midnightblue" d="M1029.16,-298.471C1024.66,-307.952 1018.09,-319.087 1012.29,-326.753"/>
<polygon fill="midnightblue" stroke="midnightblue" points="1032.47,-299.651 1033.11,-289.075 1026.01,-296.942 1032.47,-299.651"/>
</g>
<!-- Node35&#45;&gt;Node4 -->
<g id="edge48" class="edge"><title>Node35&#45;&gt;Node4</title>
<path fill="none" stroke="midnightblue" d="M839.71,-415.078C839.055,-424.424 837.085,-435.25 834.487,-442.753"/>
<polygon fill="midnightblue" stroke="midnightblue" points="843.21,-415.118 839.835,-405.075 836.211,-415.031 843.21,-415.118"/>
</g>
<!-- Node37 -->
<g id="node37" class="node"><title>Node37</title>
<g id="a_node37"><a xlink:href="operand_8cpp.html" target="_top" xlink:title="Om source file.">
<polygon fill="none" stroke="black" points="631.633,-327 631.633,-347 744.367,-347 744.367,-327 631.633,-327"/>
<text text-anchor="middle" x="688" y="-333" font-family="Helvetica,sans-Serif" font-size="10.00">code/om/operand.cpp</text>
</a>
</g>
</g>
<!-- Node36&#45;&gt;Node37 -->
<g id="edge50" class="edge"><title>Node36&#45;&gt;Node37</title>
<path fill="none" stroke="midnightblue" d="M681.549,-374.707C680.886,-365.338 681.326,-354.526 682.869,-347.075"/>
<polygon fill="midnightblue" stroke="midnightblue" points="678.093,-375.278 682.834,-384.753 685.037,-374.389 678.093,-375.278"/>
</g>
<!-- Node37&#45;&gt;Node36 -->
<g id="edge51" class="edge"><title>Node37&#45;&gt;Node36</title>
<path fill="none" stroke="midnightblue" d="M694.436,-357.078C695.116,-366.424 694.692,-377.25 693.166,-384.753"/>
<polygon fill="midnightblue" stroke="midnightblue" points="697.895,-356.538 693.131,-347.075 690.954,-357.444 697.895,-356.538"/>
</g>
<!-- Node38&#45;&gt;Node3 -->
<g id="edge53" class="edge"><title>Node38&#45;&gt;Node3</title>
<path fill="none" stroke="midnightblue" d="M977.525,-469.219C963.718,-479.298 944.305,-492.19 929.872,-500.753"/>
<polygon fill="midnightblue" stroke="midnightblue" points="979.799,-471.888 985.68,-463.075 975.587,-466.297 979.799,-471.888"/>
</g>
<!-- Node40 -->
<g id="node40" class="node"><title>Node40</title>
<g id="a_node40"><a xlink:href="literal_8cpp.html" target="_top" xlink:title="Om source file.">
<polygon fill="none" stroke="black" points="404.035,-385 404.035,-405 503.965,-405 503.965,-385 404.035,-385"/>
<text text-anchor="middle" x="454" y="-391" font-family="Helvetica,sans-Serif" font-size="10.00">code/om/literal.cpp</text>
</a>
</g>
</g>
<!-- Node39&#45;&gt;Node40 -->
<g id="edge55" class="edge"><title>Node39&#45;&gt;Node40</title>
<path fill="none" stroke="midnightblue" d="M447.549,-432.707C446.886,-423.338 447.326,-412.526 448.869,-405.075"/>
<polygon fill="midnightblue" stroke="midnightblue" points="444.093,-433.278 448.834,-442.753 451.037,-432.389 444.093,-433.278"/>
</g>
<!-- Node40&#45;&gt;Node39 -->
<g id="edge56" class="edge"><title>Node40&#45;&gt;Node39</title>
<path fill="none" stroke="midnightblue" d="M460.436,-415.078C461.116,-424.424 460.692,-435.25 459.166,-442.753"/>
<polygon fill="midnightblue" stroke="midnightblue" points="463.895,-414.538 459.131,-405.075 456.954,-415.444 463.895,-414.538"/>
</g>
<!-- Node42 -->
<g id="node42" class="node"><title>Node42</title>
<g id="a_node42"><a xlink:href="null_8cpp.html" target="_top" xlink:title="Om source file.">
<polygon fill="none" stroke="black" points="522.2,-385 522.2,-405 613.8,-405 613.8,-385 522.2,-385"/>
<text text-anchor="middle" x="568" y="-391" font-family="Helvetica,sans-Serif" font-size="10.00">code/om/null.cpp</text>
</a>
</g>
</g>
<!-- Node41&#45;&gt;Node42 -->
<g id="edge58" class="edge"><title>Node41&#45;&gt;Node42</title>
<path fill="none" stroke="midnightblue" d="M561.549,-432.707C560.886,-423.338 561.326,-412.526 562.869,-405.075"/>
<polygon fill="midnightblue" stroke="midnightblue" points="558.093,-433.278 562.834,-442.753 565.037,-432.389 558.093,-433.278"/>
</g>
<!-- Node42&#45;&gt;Node41 -->
<g id="edge59" class="edge"><title>Node42&#45;&gt;Node41</title>
<path fill="none" stroke="midnightblue" d="M574.436,-415.078C575.116,-424.424 574.692,-435.25 573.166,-442.753"/>
<polygon fill="midnightblue" stroke="midnightblue" points="577.895,-414.538 573.131,-405.075 570.954,-415.444 577.895,-414.538"/>
</g>
<!-- Node44 -->
<g id="node44" class="node"><title>Node44</title>
<g id="a_node44"><a xlink:href="atom_8hpp.html" target="_top" xlink:title="Om header file.">
<polygon fill="none" stroke="black" points="1086.59,-443 1086.59,-463 1185.41,-463 1185.41,-443 1086.59,-443"/>
<text text-anchor="middle" x="1136" y="-449" font-family="Helvetica,sans-Serif" font-size="10.00">code/om/atom.hpp</text>
</a>
</g>
</g>
<!-- Node43&#45;&gt;Node44 -->
<g id="edge61" class="edge"><title>Node43&#45;&gt;Node44</title>
<path fill="none" stroke="midnightblue" d="M1179.25,-493.704C1168.38,-483.729 1154.88,-471.336 1145.89,-463.075"/>
<polygon fill="midnightblue" stroke="midnightblue" points="1177.19,-496.568 1186.93,-500.753 1181.93,-491.412 1177.19,-496.568"/>
</g>
<!-- Node46 -->
<g id="node46" class="node"><title>Node46</title>
<g id="a_node46"><a xlink:href="element_8cpp.html" target="_top" xlink:title="Om source file.">
<polygon fill="none" stroke="black" points="1203.19,-443 1203.19,-463 1314.81,-463 1314.81,-443 1203.19,-443"/>
<text text-anchor="middle" x="1259" y="-449" font-family="Helvetica,sans-Serif" font-size="10.00">code/om/element.cpp</text>
</a>
</g>
</g>
<!-- Node43&#45;&gt;Node46 -->
<g id="edge65" class="edge"><title>Node43&#45;&gt;Node46</title>
<path fill="none" stroke="midnightblue" d="M1209.14,-493.41C1219.17,-483.486 1233.07,-471.255 1243.82,-463.075"/>
<polygon fill="midnightblue" stroke="midnightblue" points="1206.49,-491.122 1202.07,-500.753 1211.53,-495.977 1206.49,-491.122"/>
</g>
<!-- Node45 -->
<g id="node45" class="node"><title>Node45</title>
<g id="a_node45"><a xlink:href="atom_8cpp.html" target="_top" xlink:title="Om source file.">
<polygon fill="none" stroke="black" points="1086.87,-385 1086.87,-405 1185.13,-405 1185.13,-385 1086.87,-385"/>
<text text-anchor="middle" x="1136" y="-391" font-family="Helvetica,sans-Serif" font-size="10.00">code/om/atom.cpp</text>
</a>
</g>
</g>
<!-- Node44&#45;&gt;Node45 -->
<g id="edge62" class="edge"><title>Node44&#45;&gt;Node45</title>
<path fill="none" stroke="midnightblue" d="M1129.55,-432.707C1128.89,-423.338 1129.33,-412.526 1130.87,-405.075"/>
<polygon fill="midnightblue" stroke="midnightblue" points="1126.09,-433.278 1130.83,-442.753 1133.04,-432.389 1126.09,-433.278"/>
</g>
<!-- Node44&#45;&gt;Node5 -->
<g id="edge64" class="edge"><title>Node44&#45;&gt;Node5</title>
<path fill="none" stroke="midnightblue" d="M1104.82,-438.969C1079.97,-428.585 1045.81,-414.31 1023.82,-405.118"/>
<polygon fill="midnightblue" stroke="midnightblue" points="1103.6,-442.251 1114.17,-442.878 1106.3,-435.793 1103.6,-442.251"/>
</g>
<!-- Node45&#45;&gt;Node44 -->
<g id="edge63" class="edge"><title>Node45&#45;&gt;Node44</title>
<path fill="none" stroke="midnightblue" d="M1142.44,-415.078C1143.12,-424.424 1142.69,-435.25 1141.17,-442.753"/>
<polygon fill="midnightblue" stroke="midnightblue" points="1145.9,-414.538 1141.13,-405.075 1138.95,-415.444 1145.9,-414.538"/>
</g>
<!-- Node46&#45;&gt;Node43 -->
<g id="edge66" class="edge"><title>Node46&#45;&gt;Node43</title>
<path fill="none" stroke="midnightblue" d="M1247.07,-470.382C1237.1,-480.274 1223.2,-492.516 1212.4,-500.753"/>
<polygon fill="midnightblue" stroke="midnightblue" points="1249.68,-472.712 1254.08,-463.075 1244.63,-467.864 1249.68,-472.712"/>
</g>
<!-- Node47&#45;&gt;Node2 -->
<g id="edge68" class="edge"><title>Node47&#45;&gt;Node2</title>
<path fill="none" stroke="midnightblue" d="M1315.21,-528.089C1304.52,-538.031 1289.56,-550.435 1278.06,-558.753"/>
<polygon fill="midnightblue" stroke="midnightblue" points="1317.7,-530.553 1322.44,-521.075 1312.82,-525.531 1317.7,-530.553"/>
</g>
<!-- Node48&#45;&gt;Node1 -->
<g id="edge70" class="edge"><title>Node48&#45;&gt;Node1</title>
<path fill="none" stroke="midnightblue" d="M1403.44,-589.078C1404.12,-598.424 1403.69,-609.25 1402.17,-616.753"/>
<polygon fill="midnightblue" stroke="midnightblue" points="1406.9,-588.538 1402.13,-579.075 1399.95,-589.444 1406.9,-588.538"/>
</g>
</g>
</svg>
