<?xml version="1.0" encoding="UTF-8" standalone="no"?>
<!DOCTYPE svg PUBLIC "-//W3C//DTD SVG 1.1//EN"
 "http://www.w3.org/Graphics/SVG/1.1/DTD/svg11.dtd">
<!-- Generated by graphviz version 2.30.1 (20130221.2233)
 -->
<!-- Title: om/shareable.cpp Pages: 1 -->
<svg width="470pt" height="146pt"
 viewBox="0.00 0.00 470.00 146.00" xmlns="http://www.w3.org/2000/svg" xmlns:xlink="http://www.w3.org/1999/xlink">
<g id="graph0" class="graph" transform="scale(1 1) rotate(0) translate(4 142)">
<title>om/shareable.cpp</title>
<!-- Node1 -->
<g id="node1" class="node"><title>Node1</title>
<polygon fill="#bfbfbf" stroke="black" points="240.254,-117 240.254,-137 335.746,-137 335.746,-117 240.254,-117"/>
<text text-anchor="middle" x="288" y="-123" font-family="Helvetica,sans-Serif" font-size="10.00">om/shareable.cpp</text>
</g>
<!-- Node2 -->
<g id="node2" class="node"><title>Node2</title>
<polygon fill="none" stroke="#bfbfbf" points="-0.401367,-59 -0.401367,-79 58.4014,-79 58.4014,-59 -0.401367,-59"/>
<text text-anchor="middle" x="29" y="-65" font-family="Helvetica,sans-Serif" font-size="10.00">stdexcept</text>
</g>
<!-- Node1&#45;&gt;Node2 -->
<g id="edge1" class="edge"><title>Node1&#45;&gt;Node2</title>
<path fill="none" stroke="midnightblue" d="M241.939,-116.995C199.514,-108.56 134.584,-95.299 68.8961,-80.1321"/>
<polygon fill="midnightblue" stroke="midnightblue" points="69.3094,-76.635 58.7768,-77.7816 67.7256,-83.4535 69.3094,-76.635"/>
</g>
<!-- Node3 -->
<g id="node3" class="node"><title>Node3</title>
<polygon fill="none" stroke="#bfbfbf" points="76.6211,-59 76.6211,-79 209.379,-79 209.379,-59 76.6211,-59"/>
<text text-anchor="middle" x="143" y="-65" font-family="Helvetica,sans-Serif" font-size="10.00">boost/checked_delete.hpp</text>
</g>
<!-- Node1&#45;&gt;Node3 -->
<g id="edge2" class="edge"><title>Node1&#45;&gt;Node3</title>
<path fill="none" stroke="midnightblue" d="M264.381,-116.878C240.366,-107.603 202.959,-93.1564 176.017,-82.7515"/>
<polygon fill="midnightblue" stroke="midnightblue" points="177.199,-79.4559 166.609,-79.1181 174.677,-85.9858 177.199,-79.4559"/>
</g>
<!-- Node4 -->
<g id="node4" class="node"><title>Node4</title>
<polygon fill="none" stroke="#bfbfbf" points="227.744,-59 227.744,-79 348.256,-79 348.256,-59 227.744,-59"/>
<text text-anchor="middle" x="288" y="-65" font-family="Helvetica,sans-Serif" font-size="10.00">boost/integer_traits.hpp</text>
</g>
<!-- Node1&#45;&gt;Node4 -->
<g id="edge3" class="edge"><title>Node1&#45;&gt;Node4</title>
<path fill="none" stroke="midnightblue" d="M288,-116.753C288,-109.25 288,-98.4238 288,-89.0781"/>
<polygon fill="midnightblue" stroke="midnightblue" points="291.5,-89.0752 288,-79.0752 284.5,-89.0752 291.5,-89.0752"/>
</g>
<!-- Node5 -->
<g id="node5" class="node"><title>Node5</title>
<g id="a_node5"><a xlink:href="shareable_8hpp.html" target="_top" xlink:title="Om header file. ">
<polygon fill="none" stroke="black" points="365.973,-59 365.973,-79 462.027,-79 462.027,-59 365.973,-59"/>
<text text-anchor="middle" x="414" y="-65" font-family="Helvetica,sans-Serif" font-size="10.00">om/shareable.hpp</text>
</a>
</g>
</g>
<!-- Node1&#45;&gt;Node5 -->
<g id="edge4" class="edge"><title>Node1&#45;&gt;Node5</title>
<path fill="none" stroke="midnightblue" d="M303.384,-116.878C322.174,-107.685 354.072,-93.4095 378.885,-83.0263"/>
<polygon fill="midnightblue" stroke="midnightblue" points="380.439,-86.1713 388.344,-79.1181 377.766,-79.7017 380.439,-86.1713"/>
</g>
<!-- Node6 -->
<g id="node6" class="node"><title>Node6</title>
<polygon fill="none" stroke="#bfbfbf" points="389.879,-1 389.879,-21 438.121,-21 438.121,-1 389.879,-1"/>
<text text-anchor="middle" x="414" y="-7" font-family="Helvetica,sans-Serif" font-size="10.00">cstddef</text>
</g>
<!-- Node5&#45;&gt;Node6 -->
<g id="edge5" class="edge"><title>Node5&#45;&gt;Node6</title>
<path fill="none" stroke="midnightblue" d="M414,-58.7527C414,-51.2504 414,-40.4238 414,-31.0781"/>
<polygon fill="midnightblue" stroke="midnightblue" points="417.5,-31.0752 414,-21.0752 410.5,-31.0752 417.5,-31.0752"/>
</g>
<!-- Node5&#45;&gt;Node1 -->
<g id="edge6" class="edge"><title>Node5&#45;&gt;Node1</title>
<path fill="none" stroke="midnightblue" d="M398.624,-79.1181C379.838,-88.3099 347.941,-102.585 323.126,-112.969"/>
<polygon fill="midnightblue" stroke="midnightblue" points="321.571,-109.825 313.665,-116.878 324.244,-116.294 321.571,-109.825"/>
</g>
</g>
</svg>
