<?xml version="1.0" encoding="UTF-8" standalone="no"?>
<!DOCTYPE svg PUBLIC "-//W3C//DTD SVG 1.1//EN"
 "http://www.w3.org/Graphics/SVG/1.1/DTD/svg11.dtd">
<!-- Generated by graphviz version 2.28.0 (20120817.0054)
 -->
<!-- Title: code/om/sinks.hpp Pages: 1 -->
<svg width="350pt" height="196pt"
 viewBox="0.00 0.00 350.00 196.00" xmlns="http://www.w3.org/2000/svg" xmlns:xlink="http://www.w3.org/1999/xlink">
<g id="graph1" class="graph" transform="scale(1 1) rotate(0) translate(4 192)">
<title>code/om/sinks.hpp</title>
<!-- Node1 -->
<g id="node1" class="node"><title>Node1</title>
<polygon fill="#bfbfbf" stroke="black" points="177.5,-168.5 177.5,-187.5 274.5,-187.5 274.5,-168.5 177.5,-168.5"/>
<text text-anchor="middle" x="226" y="-175.5" font-family="Helvetica,sans-Serif" font-size="10.00">code/om/sinks.hpp</text>
</g>
<!-- Node2 -->
<g id="node3" class="node"><title>Node2</title>
<a xlink:href="internal_8hpp.html" target="_top" xlink:title="code/om/internal.hpp">
<polygon fill="none" stroke="black" points="106,-112.5 106,-131.5 210,-131.5 210,-112.5 106,-112.5"/>
<text text-anchor="middle" x="158" y="-119.5" font-family="Helvetica,sans-Serif" font-size="10.00">code/om/internal.hpp</text>
</a>
</g>
<!-- Node1&#45;&gt;Node2 -->
<g id="edge2" class="edge"><title>Node1&#45;&gt;Node2</title>
<path fill="none" stroke="midnightblue" d="M207.238,-162.101C195,-152.382 179.441,-140.027 169.124,-131.834"/>
<polygon fill="midnightblue" stroke="midnightblue" points="205.067,-164.846 215.075,-168.324 209.42,-159.364 205.067,-164.846"/>
</g>
<!-- Node6 -->
<g id="node13" class="node"><title>Node6</title>
<a xlink:href="sinks_8cpp.html" target="_top" xlink:title="Om source file.">
<polygon fill="none" stroke="black" points="246,-112.5 246,-131.5 342,-131.5 342,-112.5 246,-112.5"/>
<text text-anchor="middle" x="294" y="-119.5" font-family="Helvetica,sans-Serif" font-size="10.00">code/om/sinks.cpp</text>
</a>
</g>
<!-- Node1&#45;&gt;Node6 -->
<g id="edge14" class="edge"><title>Node1&#45;&gt;Node6</title>
<path fill="none" stroke="midnightblue" d="M244.762,-162.101C257,-152.382 272.559,-140.027 282.876,-131.834"/>
<polygon fill="midnightblue" stroke="midnightblue" points="242.58,-159.364 236.925,-168.324 246.933,-164.846 242.58,-159.364"/>
</g>
<!-- Node2&#45;&gt;Node2 -->
<g id="edge6" class="edge"><title>Node2&#45;&gt;Node2</title>
<path fill="none" stroke="midnightblue" d="M198.178,-132.432C214.381,-133.04 228,-129.563 228,-122 228,-112.867 208.141,-109.692 187.855,-112.475"/>
<polygon fill="midnightblue" stroke="midnightblue" points="198.123,-128.914 187.855,-131.525 197.51,-135.887 198.123,-128.914"/>
</g>
<!-- Node3 -->
<g id="node5" class="node"><title>Node3</title>
<a xlink:href="internal_8cpp.html" target="_top" xlink:title="code/om/internal.cpp">
<polygon fill="none" stroke="black" points="0,-56.5 0,-75.5 104,-75.5 104,-56.5 0,-56.5"/>
<text text-anchor="middle" x="52" y="-63.5" font-family="Helvetica,sans-Serif" font-size="10.00">code/om/internal.cpp</text>
</a>
</g>
<!-- Node2&#45;&gt;Node3 -->
<g id="edge4" class="edge"><title>Node2&#45;&gt;Node3</title>
<path fill="none" stroke="midnightblue" d="M131.944,-107.726C112.316,-97.7271 85.972,-84.3065 68.9885,-75.6545"/>
<polygon fill="midnightblue" stroke="midnightblue" points="130.47,-110.903 140.969,-112.324 133.648,-104.666 130.47,-110.903"/>
</g>
<!-- Node4 -->
<g id="node8" class="node"><title>Node4</title>
<a xlink:href="om_8hpp.html" target="_top" xlink:title="Om &quot;umbrella&quot; header file.">
<polygon fill="none" stroke="black" points="122,-56.5 122,-75.5 194,-75.5 194,-56.5 122,-56.5"/>
<text text-anchor="middle" x="158" y="-63.5" font-family="Helvetica,sans-Serif" font-size="10.00">code/om.hpp</text>
</a>
</g>
<!-- Node2&#45;&gt;Node4 -->
<g id="edge8" class="edge"><title>Node2&#45;&gt;Node4</title>
<path fill="none" stroke="midnightblue" d="M151.528,-102.101C150.896,-93.1357 151.343,-82.8579 152.869,-75.7511"/>
<polygon fill="midnightblue" stroke="midnightblue" points="148.066,-102.622 152.834,-112.083 155.007,-101.713 148.066,-102.622"/>
</g>
<!-- Node4&#45;&gt;Node2 -->
<g id="edge10" class="edge"><title>Node4&#45;&gt;Node2</title>
<path fill="none" stroke="midnightblue" d="M164.458,-85.6911C165.106,-94.6353 164.676,-104.927 163.166,-112.083"/>
<polygon fill="midnightblue" stroke="midnightblue" points="167.923,-85.2002 163.131,-75.7511 160.985,-86.1262 167.923,-85.2002"/>
</g>
<!-- Node5 -->
<g id="node11" class="node"><title>Node5</title>
<a xlink:href="om_8cpp.html" target="_top" xlink:title="Om source file.">
<polygon fill="none" stroke="black" points="122.5,-0.5 122.5,-19.5 193.5,-19.5 193.5,-0.5 122.5,-0.5"/>
<text text-anchor="middle" x="158" y="-7.5" font-family="Helvetica,sans-Serif" font-size="10.00">code/om.cpp</text>
</a>
</g>
<!-- Node4&#45;&gt;Node5 -->
<g id="edge12" class="edge"><title>Node4&#45;&gt;Node5</title>
<path fill="none" stroke="midnightblue" d="M158,-45.8045C158,-36.9102 158,-26.7798 158,-19.7511"/>
<polygon fill="midnightblue" stroke="midnightblue" points="154.5,-46.083 158,-56.083 161.5,-46.083 154.5,-46.083"/>
</g>
</g>
</svg>
