<?xml version="1.0" encoding="UTF-8" standalone="no"?>
<!DOCTYPE svg PUBLIC "-//W3C//DTD SVG 1.1//EN"
 "http://www.w3.org/Graphics/SVG/1.1/DTD/svg11.dtd">
<!-- Generated by graphviz version 2.28.0 (20120817.0054)
 -->
<!-- Title: code/om/sink.hpp Pages: 1 -->
<svg width="819pt" height="412pt"
 viewBox="0.00 0.00 819.23 412.00" xmlns="http://www.w3.org/2000/svg" xmlns:xlink="http://www.w3.org/1999/xlink">
<g id="graph1" class="graph" transform="scale(1 1) rotate(0) translate(4 408)">
<title>code/om/sink.hpp</title>
<!-- Node1 -->
<g id="node1" class="node"><title>Node1</title>
<polygon fill="#bfbfbf" stroke="black" points="33.2337,-384.5 33.2337,-403.5 125.234,-403.5 125.234,-384.5 33.2337,-384.5"/>
<text text-anchor="middle" x="79.2337" y="-391.5" font-family="Helvetica,sans-Serif" font-size="10.00">code/om/sink.hpp</text>
</g>
<!-- Node2 -->
<g id="node3" class="node"><title>Node2</title>
<a xlink:href="internal_8hpp.html" target="_top" xlink:title="code/om/internal.hpp">
<polygon fill="none" stroke="black" points="147.234,-118.5 147.234,-137.5 251.234,-137.5 251.234,-118.5 147.234,-118.5"/>
<text text-anchor="middle" x="199.234" y="-125.5" font-family="Helvetica,sans-Serif" font-size="10.00">code/om/internal.hpp</text>
</a>
</g>
<!-- Node1&#45;&gt;Node2 -->
<g id="edge2" class="edge"><title>Node1&#45;&gt;Node2</title>
<path fill="none" stroke="midnightblue" d="M53.3743,-378.947C42.228,-371.383 30.3619,-360.932 24.2337,-348 5.40108,-308.259 -24.4832,-256.234 37.2337,-180 63.5791,-147.458 110.541,-135.325 147.143,-130.973"/>
<polygon fill="midnightblue" stroke="midnightblue" points="51.7057,-382.032 62.0357,-384.386 55.4284,-376.104 51.7057,-382.032"/>
</g>
<!-- Node6 -->
<g id="node13" class="node"><title>Node6</title>
<a xlink:href="sink_8cpp.html" target="_top" xlink:title="Om source file.">
<polygon fill="none" stroke="black" points="33.7337,-322.5 33.7337,-341.5 124.734,-341.5 124.734,-322.5 33.7337,-322.5"/>
<text text-anchor="middle" x="79.2337" y="-329.5" font-family="Helvetica,sans-Serif" font-size="10.00">code/om/sink.cpp</text>
</a>
</g>
<!-- Node1&#45;&gt;Node6 -->
<g id="edge14" class="edge"><title>Node1&#45;&gt;Node6</title>
<path fill="none" stroke="midnightblue" d="M72.9172,-374.16C72.0308,-363.248 72.5039,-350.04 74.3366,-341.581"/>
<polygon fill="midnightblue" stroke="midnightblue" points="69.4968,-374.977 74.3331,-384.403 76.4309,-374.018 69.4968,-374.977"/>
</g>
<!-- Node7 -->
<g id="node16" class="node"><title>Node7</title>
<a xlink:href="default__sink_8hpp.html" target="_top" xlink:title="Om header file.">
<polygon fill="none" stroke="black" points="251.234,-317 251.234,-347 359.234,-347 359.234,-317 251.234,-317"/>
<text text-anchor="start" x="259.234" y="-335" font-family="Helvetica,sans-Serif" font-size="10.00">code/om/sinks/default</text>
<text text-anchor="middle" x="305.234" y="-324" font-family="Helvetica,sans-Serif" font-size="10.00">_sink.hpp</text>
</a>
</g>
<!-- Node1&#45;&gt;Node7 -->
<g id="edge18" class="edge"><title>Node1&#45;&gt;Node7</title>
<path fill="none" stroke="midnightblue" d="M121.585,-381.756C158.619,-371.924 212.558,-357.604 252.405,-347.025"/>
<polygon fill="midnightblue" stroke="midnightblue" points="120.381,-378.455 111.614,-384.403 122.177,-385.22 120.381,-378.455"/>
</g>
<!-- Node2&#45;&gt;Node2 -->
<g id="edge6" class="edge"><title>Node2&#45;&gt;Node2</title>
<path fill="none" stroke="midnightblue" d="M233.711,-139.135C252.286,-141.053 269.234,-137.341 269.234,-128 269.234,-116.98 245.647,-113.795 223.626,-118.444"/>
<polygon fill="midnightblue" stroke="midnightblue" points="234.048,-135.645 223.626,-137.556 232.964,-142.561 234.048,-135.645"/>
</g>
<!-- Node3 -->
<g id="node5" class="node"><title>Node3</title>
<a xlink:href="internal_8cpp.html" target="_top" xlink:title="code/om/internal.cpp">
<polygon fill="none" stroke="black" points="41.2337,-56.5 41.2337,-75.5 145.234,-75.5 145.234,-56.5 41.2337,-56.5"/>
<text text-anchor="middle" x="93.2337" y="-63.5" font-family="Helvetica,sans-Serif" font-size="10.00">code/om/internal.cpp</text>
</a>
</g>
<!-- Node2&#45;&gt;Node3 -->
<g id="edge4" class="edge"><title>Node2&#45;&gt;Node3</title>
<path fill="none" stroke="midnightblue" d="M175.284,-113.443C154.77,-101.832 125.855,-85.4648 108.393,-75.5806"/>
<polygon fill="midnightblue" stroke="midnightblue" points="173.62,-116.523 184.047,-118.403 177.068,-110.432 173.62,-116.523"/>
</g>
<!-- Node4 -->
<g id="node8" class="node"><title>Node4</title>
<a xlink:href="om_8hpp.html" target="_top" xlink:title="Om &quot;umbrella&quot; header file.">
<polygon fill="none" stroke="black" points="163.234,-56.5 163.234,-75.5 235.234,-75.5 235.234,-56.5 163.234,-56.5"/>
<text text-anchor="middle" x="199.234" y="-63.5" font-family="Helvetica,sans-Serif" font-size="10.00">code/om.hpp</text>
</a>
</g>
<!-- Node2&#45;&gt;Node4 -->
<g id="edge8" class="edge"><title>Node2&#45;&gt;Node4</title>
<path fill="none" stroke="midnightblue" d="M192.917,-108.16C192.031,-97.2482 192.504,-84.04 194.337,-75.5806"/>
<polygon fill="midnightblue" stroke="midnightblue" points="189.497,-108.977 194.333,-118.403 196.431,-108.018 189.497,-108.977"/>
</g>
<!-- Node4&#45;&gt;Node2 -->
<g id="edge10" class="edge"><title>Node4&#45;&gt;Node2</title>
<path fill="none" stroke="midnightblue" d="M205.549,-85.8199C206.437,-96.7283 205.965,-109.938 204.134,-118.403"/>
<polygon fill="midnightblue" stroke="midnightblue" points="208.969,-85.006 204.131,-75.5806 202.036,-85.9661 208.969,-85.006"/>
</g>
<!-- Node5 -->
<g id="node11" class="node"><title>Node5</title>
<a xlink:href="om_8cpp.html" target="_top" xlink:title="Om source file.">
<polygon fill="none" stroke="black" points="163.734,-0.5 163.734,-19.5 234.734,-19.5 234.734,-0.5 163.734,-0.5"/>
<text text-anchor="middle" x="199.234" y="-7.5" font-family="Helvetica,sans-Serif" font-size="10.00">code/om.cpp</text>
</a>
</g>
<!-- Node4&#45;&gt;Node5 -->
<g id="edge12" class="edge"><title>Node4&#45;&gt;Node5</title>
<path fill="none" stroke="midnightblue" d="M199.234,-45.8045C199.234,-36.9102 199.234,-26.7798 199.234,-19.7511"/>
<polygon fill="midnightblue" stroke="midnightblue" points="195.734,-46.083 199.234,-56.083 202.734,-46.083 195.734,-46.083"/>
</g>
<!-- Node6&#45;&gt;Node1 -->
<g id="edge16" class="edge"><title>Node6&#45;&gt;Node1</title>
<path fill="none" stroke="midnightblue" d="M85.5486,-351.82C86.4367,-362.728 85.9653,-375.938 84.1343,-384.403"/>
<polygon fill="midnightblue" stroke="midnightblue" points="88.9694,-351.006 84.1309,-341.581 82.0355,-351.966 88.9694,-351.006"/>
</g>
<!-- Node7&#45;&gt;Node2 -->
<g id="edge20" class="edge"><title>Node7&#45;&gt;Node2</title>
<path fill="none" stroke="midnightblue" d="M240.797,-327.255C173.049,-321.814 73.0201,-308.992 49.2337,-280 39.3287,-267.927 33.2612,-204.435 51.2337,-180 73.2141,-150.116 113.832,-137.601 146.963,-132.429"/>
<polygon fill="midnightblue" stroke="midnightblue" points="240.722,-330.76 250.961,-328.036 241.258,-323.78 240.722,-330.76"/>
</g>
<!-- Node8 -->
<g id="node19" class="node"><title>Node8</title>
<a xlink:href="code__point__sink_8hpp.html" target="_top" xlink:title="Om header file.">
<polygon fill="none" stroke="black" points="58.7337,-249 58.7337,-279 159.734,-279 159.734,-249 58.7337,-249"/>
<text text-anchor="start" x="66.7337" y="-267" font-family="Helvetica,sans-Serif" font-size="10.00">code/om/sinks/code</text>
<text text-anchor="middle" x="109.234" y="-256" font-family="Helvetica,sans-Serif" font-size="10.00">_point_sink.hpp</text>
</a>
</g>
<!-- Node7&#45;&gt;Node8 -->
<g id="edge22" class="edge"><title>Node7&#45;&gt;Node8</title>
<path fill="none" stroke="midnightblue" d="M253.536,-313.592C221.483,-302.798 180.85,-289.116 150.874,-279.022"/>
<polygon fill="midnightblue" stroke="midnightblue" points="252.593,-316.967 263.187,-316.841 254.827,-310.333 252.593,-316.967"/>
</g>
<!-- Node10 -->
<g id="node25" class="node"><title>Node10</title>
<a xlink:href="container__back__sink_8hpp.html" target="_top" xlink:title="Om header file.">
<polygon fill="none" stroke="black" points="178.234,-249 178.234,-279 296.234,-279 296.234,-249 178.234,-249"/>
<text text-anchor="start" x="186.234" y="-267" font-family="Helvetica,sans-Serif" font-size="10.00">code/om/sinks/container</text>
<text text-anchor="middle" x="237.234" y="-256" font-family="Helvetica,sans-Serif" font-size="10.00">_back_sink.hpp</text>
</a>
</g>
<!-- Node7&#45;&gt;Node10 -->
<g id="edge30" class="edge"><title>Node7&#45;&gt;Node10</title>
<path fill="none" stroke="midnightblue" d="M283.067,-309.485C272.867,-299.585 261.043,-288.109 251.96,-279.293"/>
<polygon fill="midnightblue" stroke="midnightblue" points="280.865,-312.226 290.479,-316.679 285.741,-307.203 280.865,-312.226"/>
</g>
<!-- Node12 -->
<g id="node31" class="node"><title>Node12</title>
<a xlink:href="container__front__sink_8hpp.html" target="_top" xlink:title="Om header file.">
<polygon fill="none" stroke="black" points="314.234,-249 314.234,-279 432.234,-279 432.234,-249 314.234,-249"/>
<text text-anchor="start" x="322.234" y="-267" font-family="Helvetica,sans-Serif" font-size="10.00">code/om/sinks/container</text>
<text text-anchor="middle" x="373.234" y="-256" font-family="Helvetica,sans-Serif" font-size="10.00">_front_sink.hpp</text>
</a>
</g>
<!-- Node7&#45;&gt;Node12 -->
<g id="edge38" class="edge"><title>Node7&#45;&gt;Node12</title>
<path fill="none" stroke="midnightblue" d="M327.4,-309.485C337.6,-299.585 349.424,-288.109 358.508,-279.293"/>
<polygon fill="midnightblue" stroke="midnightblue" points="324.727,-307.203 319.989,-316.679 329.602,-312.226 324.727,-307.203"/>
</g>
<!-- Node14 -->
<g id="node37" class="node"><title>Node14</title>
<a xlink:href="default__sink_8cpp.html" target="_top" xlink:title="Om source file.">
<polygon fill="none" stroke="black" points="450.234,-249 450.234,-279 558.234,-279 558.234,-249 450.234,-249"/>
<text text-anchor="start" x="458.234" y="-267" font-family="Helvetica,sans-Serif" font-size="10.00">code/om/sinks/default</text>
<text text-anchor="middle" x="504.234" y="-256" font-family="Helvetica,sans-Serif" font-size="10.00">_sink.cpp</text>
</a>
</g>
<!-- Node7&#45;&gt;Node14 -->
<g id="edge46" class="edge"><title>Node7&#45;&gt;Node14</title>
<path fill="none" stroke="midnightblue" d="M352.1,-313.452C383.516,-302.68 424.682,-289.072 456.317,-279.022"/>
<polygon fill="midnightblue" stroke="midnightblue" points="350.58,-310.274 342.267,-316.841 352.862,-316.891 350.58,-310.274"/>
</g>
<!-- Node15 -->
<g id="node40" class="node"><title>Node15</title>
<a xlink:href="iterator__sink_8hpp.html" target="_top" xlink:title="Om header file.">
<polygon fill="none" stroke="black" points="576.734,-249 576.734,-279 683.734,-279 683.734,-249 576.734,-249"/>
<text text-anchor="start" x="584.734" y="-267" font-family="Helvetica,sans-Serif" font-size="10.00">code/om/sinks/iterator</text>
<text text-anchor="middle" x="630.234" y="-256" font-family="Helvetica,sans-Serif" font-size="10.00">_sink.hpp</text>
</a>
</g>
<!-- Node7&#45;&gt;Node15 -->
<g id="edge50" class="edge"><title>Node7&#45;&gt;Node15</title>
<path fill="none" stroke="midnightblue" d="M369.271,-319.303C422.41,-309.412 499.898,-294.563 567.234,-280 570.311,-279.335 573.468,-278.635 576.652,-277.917"/>
<polygon fill="midnightblue" stroke="midnightblue" points="368.502,-315.885 359.309,-321.152 369.78,-322.768 368.502,-315.885"/>
</g>
<!-- Node8&#45;&gt;Node2 -->
<g id="edge24" class="edge"><title>Node8&#45;&gt;Node2</title>
<path fill="none" stroke="midnightblue" d="M82.8126,-241.946C64.6163,-224.832 46.0671,-200.288 60.2337,-180 79.7331,-152.075 116.284,-139.395 147.012,-133.659"/>
<polygon fill="midnightblue" stroke="midnightblue" points="80.699,-244.75 90.4929,-248.791 85.3566,-239.525 80.699,-244.75"/>
</g>
<!-- Node9 -->
<g id="node22" class="node"><title>Node9</title>
<a xlink:href="code__point__sink_8cpp.html" target="_top" xlink:title="Om source file.">
<polygon fill="none" stroke="black" points="69.7337,-181 69.7337,-211 170.734,-211 170.734,-181 69.7337,-181"/>
<text text-anchor="start" x="77.7337" y="-199" font-family="Helvetica,sans-Serif" font-size="10.00">code/om/sinks/code</text>
<text text-anchor="middle" x="120.234" y="-188" font-family="Helvetica,sans-Serif" font-size="10.00">_point_sink.cpp</text>
</a>
</g>
<!-- Node8&#45;&gt;Node9 -->
<g id="edge26" class="edge"><title>Node8&#45;&gt;Node9</title>
<path fill="none" stroke="midnightblue" d="M106.766,-238.532C107.846,-229.361 109.822,-219.245 112.177,-211.293"/>
<polygon fill="midnightblue" stroke="midnightblue" points="103.263,-238.428 105.942,-248.679 110.24,-238.995 103.263,-238.428"/>
</g>
<!-- Node9&#45;&gt;Node8 -->
<g id="edge28" class="edge"><title>Node9&#45;&gt;Node8</title>
<path fill="none" stroke="midnightblue" d="M122.705,-221.436C121.628,-230.605 119.653,-240.722 117.299,-248.679"/>
<polygon fill="midnightblue" stroke="midnightblue" points="126.208,-221.543 123.526,-211.293 119.23,-220.978 126.208,-221.543"/>
</g>
<!-- Node10&#45;&gt;Node2 -->
<g id="edge32" class="edge"><title>Node10&#45;&gt;Node2</title>
<path fill="none" stroke="midnightblue" d="M227.745,-239.51C224.479,-230.936 220.96,-221.108 218.234,-212 210.265,-185.376 203.753,-153.094 200.856,-137.822"/>
<polygon fill="midnightblue" stroke="midnightblue" points="224.506,-240.838 231.402,-248.881 231.028,-238.293 224.506,-240.838"/>
</g>
<!-- Node11 -->
<g id="node28" class="node"><title>Node11</title>
<a xlink:href="container__back__sink_8cpp.html" target="_top" xlink:title="Om source file.">
<polygon fill="none" stroke="black" points="227.234,-181 227.234,-211 345.234,-211 345.234,-181 227.234,-181"/>
<text text-anchor="start" x="235.234" y="-199" font-family="Helvetica,sans-Serif" font-size="10.00">code/om/sinks/container</text>
<text text-anchor="middle" x="286.234" y="-188" font-family="Helvetica,sans-Serif" font-size="10.00">_back_sink.cpp</text>
</a>
</g>
<!-- Node10&#45;&gt;Node11 -->
<g id="edge34" class="edge"><title>Node10&#45;&gt;Node11</title>
<path fill="none" stroke="midnightblue" d="M247.83,-240.019C254.364,-230.467 262.637,-219.677 269.947,-211.293"/>
<polygon fill="midnightblue" stroke="midnightblue" points="244.714,-238.39 242.188,-248.679 250.579,-242.211 244.714,-238.39"/>
</g>
<!-- Node11&#45;&gt;Node10 -->
<g id="edge36" class="edge"><title>Node11&#45;&gt;Node10</title>
<path fill="none" stroke="midnightblue" d="M275.659,-219.949C269.13,-229.499 260.856,-240.29 253.544,-248.679"/>
<polygon fill="midnightblue" stroke="midnightblue" points="278.772,-221.583 281.297,-211.293 272.907,-217.762 278.772,-221.583"/>
</g>
<!-- Node12&#45;&gt;Node2 -->
<g id="edge40" class="edge"><title>Node12&#45;&gt;Node2</title>
<path fill="none" stroke="midnightblue" d="M373.753,-238.569C372.836,-220.29 368.648,-195.819 354.234,-180 327.998,-151.208 285.23,-138.632 251.257,-133.159"/>
<polygon fill="midnightblue" stroke="midnightblue" points="370.258,-238.835 373.967,-248.76 377.257,-238.689 370.258,-238.835"/>
</g>
<!-- Node13 -->
<g id="node34" class="node"><title>Node13</title>
<a xlink:href="container__front__sink_8cpp.html" target="_top" xlink:title="Om source file.">
<polygon fill="none" stroke="black" points="401.234,-181 401.234,-211 519.234,-211 519.234,-181 401.234,-181"/>
<text text-anchor="start" x="409.234" y="-199" font-family="Helvetica,sans-Serif" font-size="10.00">code/om/sinks/container</text>
<text text-anchor="middle" x="460.234" y="-188" font-family="Helvetica,sans-Serif" font-size="10.00">_front_sink.cpp</text>
</a>
</g>
<!-- Node12&#45;&gt;Node13 -->
<g id="edge42" class="edge"><title>Node12&#45;&gt;Node13</title>
<path fill="none" stroke="midnightblue" d="M394.194,-242.309C406.842,-232.143 422.865,-220.156 436.047,-211.066"/>
<polygon fill="midnightblue" stroke="midnightblue" points="391.942,-239.629 386.433,-248.679 396.383,-245.04 391.942,-239.629"/>
</g>
<!-- Node13&#45;&gt;Node12 -->
<g id="edge44" class="edge"><title>Node13&#45;&gt;Node12</title>
<path fill="none" stroke="midnightblue" d="M439.266,-217.697C426.736,-227.768 410.898,-239.623 397.79,-248.679"/>
<polygon fill="midnightblue" stroke="midnightblue" points="441.832,-220.119 447.337,-211.066 437.388,-214.71 441.832,-220.119"/>
</g>
<!-- Node14&#45;&gt;Node7 -->
<g id="edge48" class="edge"><title>Node14&#45;&gt;Node7</title>
<path fill="none" stroke="midnightblue" d="M457.673,-282.443C426.276,-293.211 385.041,-306.845 353.327,-316.922"/>
<polygon fill="midnightblue" stroke="midnightblue" points="459.184,-285.625 467.496,-279.056 456.902,-279.007 459.184,-285.625"/>
</g>
<!-- Node15&#45;&gt;Node2 -->
<g id="edge52" class="edge"><title>Node15&#45;&gt;Node2</title>
<path fill="none" stroke="midnightblue" d="M604.901,-242.555C593.391,-233.251 579.61,-222.087 567.234,-212 549.854,-197.835 548.702,-189.152 528.234,-180 436.817,-139.125 318.452,-130.217 251.482,-128.729"/>
<polygon fill="midnightblue" stroke="midnightblue" points="602.849,-245.398 612.827,-248.96 607.249,-239.953 602.849,-245.398"/>
</g>
<!-- Node16 -->
<g id="node43" class="node"><title>Node16</title>
<a xlink:href="iterator__sink_8cpp.html" target="_top" xlink:title="Om source file.">
<polygon fill="none" stroke="black" points="576.734,-181 576.734,-211 683.734,-211 683.734,-181 576.734,-181"/>
<text text-anchor="start" x="584.734" y="-199" font-family="Helvetica,sans-Serif" font-size="10.00">code/om/sinks/iterator</text>
<text text-anchor="middle" x="630.234" y="-188" font-family="Helvetica,sans-Serif" font-size="10.00">_sink.cpp</text>
</a>
</g>
<!-- Node15&#45;&gt;Node16 -->
<g id="edge54" class="edge"><title>Node15&#45;&gt;Node16</title>
<path fill="none" stroke="midnightblue" d="M623.688,-238.532C623.239,-229.361 623.529,-219.245 624.559,-211.293"/>
<polygon fill="midnightblue" stroke="midnightblue" points="620.217,-239.013 624.555,-248.679 627.191,-238.417 620.217,-239.013"/>
</g>
<!-- Node17 -->
<g id="node46" class="node"><title>Node17</title>
<a xlink:href="stream__sink_8hpp.html" target="_top" xlink:title="Om header file.">
<polygon fill="none" stroke="black" points="701.734,-181 701.734,-211 810.734,-211 810.734,-181 701.734,-181"/>
<text text-anchor="start" x="709.734" y="-199" font-family="Helvetica,sans-Serif" font-size="10.00">code/om/sinks/stream</text>
<text text-anchor="middle" x="756.234" y="-188" font-family="Helvetica,sans-Serif" font-size="10.00">_sink.hpp</text>
</a>
</g>
<!-- Node15&#45;&gt;Node17 -->
<g id="edge58" class="edge"><title>Node15&#45;&gt;Node17</title>
<path fill="none" stroke="midnightblue" d="M666.131,-244.197C686.208,-233.68 710.823,-220.787 729.248,-211.135"/>
<polygon fill="midnightblue" stroke="midnightblue" points="664.498,-241.101 657.264,-248.841 667.746,-247.302 664.498,-241.101"/>
</g>
<!-- Node16&#45;&gt;Node15 -->
<g id="edge56" class="edge"><title>Node16&#45;&gt;Node15</title>
<path fill="none" stroke="midnightblue" d="M636.777,-221.436C637.228,-230.605 636.94,-240.722 635.912,-248.679"/>
<polygon fill="midnightblue" stroke="midnightblue" points="640.249,-220.958 635.909,-211.293 633.275,-221.555 640.249,-220.958"/>
</g>
<!-- Node17&#45;&gt;Node2 -->
<g id="edge60" class="edge"><title>Node17&#45;&gt;Node2</title>
<path fill="none" stroke="midnightblue" d="M691.598,-180.036C525.28,-152.586 339.844,-138.122 251.341,-132.204"/>
<polygon fill="midnightblue" stroke="midnightblue" points="691.074,-183.497 701.514,-181.692 692.227,-176.593 691.074,-183.497"/>
</g>
<!-- Node18 -->
<g id="node49" class="node"><title>Node18</title>
<a xlink:href="stream__sink_8cpp.html" target="_top" xlink:title="Om source file.">
<polygon fill="none" stroke="black" points="701.734,-113 701.734,-143 810.734,-143 810.734,-113 701.734,-113"/>
<text text-anchor="start" x="709.734" y="-131" font-family="Helvetica,sans-Serif" font-size="10.00">code/om/sinks/stream</text>
<text text-anchor="middle" x="756.234" y="-120" font-family="Helvetica,sans-Serif" font-size="10.00">_sink.cpp</text>
</a>
</g>
<!-- Node17&#45;&gt;Node18 -->
<g id="edge62" class="edge"><title>Node17&#45;&gt;Node18</title>
<path fill="none" stroke="midnightblue" d="M749.688,-170.532C749.239,-161.361 749.529,-151.245 750.559,-143.293"/>
<polygon fill="midnightblue" stroke="midnightblue" points="746.217,-171.013 750.555,-180.679 753.191,-170.417 746.217,-171.013"/>
</g>
<!-- Node18&#45;&gt;Node17 -->
<g id="edge64" class="edge"><title>Node18&#45;&gt;Node17</title>
<path fill="none" stroke="midnightblue" d="M762.777,-153.436C763.228,-162.605 762.94,-172.722 761.912,-180.679"/>
<polygon fill="midnightblue" stroke="midnightblue" points="766.249,-152.958 761.909,-143.293 759.275,-153.555 766.249,-152.958"/>
</g>
</g>
</svg>
