<?xml version="1.0" encoding="UTF-8" standalone="no"?>
<!DOCTYPE svg PUBLIC "-//W3C//DTD SVG 1.1//EN"
 "http://www.w3.org/Graphics/SVG/1.1/DTD/svg11.dtd">
<!-- Generated by graphviz version 2.30.1 (20130221.2233)
 -->
<!-- Title: om/sink.cpp Pages: 1 -->
<svg width="220pt" height="88pt"
 viewBox="0.00 0.00 220.00 88.00" xmlns="http://www.w3.org/2000/svg" xmlns:xlink="http://www.w3.org/1999/xlink">
<g id="graph0" class="graph" transform="scale(1 1) rotate(0) translate(4 84)">
<title>om/sink.cpp</title>
<!-- Node1 -->
<g id="node1" class="node"><title>Node1</title>
<polygon fill="#bfbfbf" stroke="black" points="102.323,-59 102.323,-79 171.677,-79 171.677,-59 102.323,-59"/>
<text text-anchor="middle" x="137" y="-65" font-family="Helvetica,sans-Serif" font-size="10.00">om/sink.cpp</text>
</g>
<!-- Node2 -->
<g id="node2" class="node"><title>Node2</title>
<polygon fill="none" stroke="#bfbfbf" points="-0.115723,-1 -0.115723,-21 48.1157,-21 48.1157,-1 -0.115723,-1"/>
<text text-anchor="middle" x="24" y="-7" font-family="Helvetica,sans-Serif" font-size="10.00">cassert</text>
</g>
<!-- Node1&#45;&gt;Node2 -->
<g id="edge1" class="edge"><title>Node1&#45;&gt;Node2</title>
<path fill="none" stroke="midnightblue" d="M118.593,-58.878C100.371,-49.8475 72.2534,-35.9132 51.4049,-25.5812"/>
<polygon fill="midnightblue" stroke="midnightblue" points="52.9133,-22.4225 42.399,-21.1181 49.8049,-28.6946 52.9133,-22.4225"/>
</g>
<!-- Node3 -->
<g id="node3" class="node"><title>Node3</title>
<polygon fill="none" stroke="#bfbfbf" points="66.5986,-1 66.5986,-21 125.401,-21 125.401,-1 66.5986,-1"/>
<text text-anchor="middle" x="96" y="-7" font-family="Helvetica,sans-Serif" font-size="10.00">stdexcept</text>
</g>
<!-- Node1&#45;&gt;Node3 -->
<g id="edge2" class="edge"><title>Node1&#45;&gt;Node3</title>
<path fill="none" stroke="midnightblue" d="M130.23,-58.7527C124.379,-50.7611 115.766,-38.9975 108.644,-29.2698"/>
<polygon fill="midnightblue" stroke="midnightblue" points="111.376,-27.0762 102.644,-21.0752 105.728,-31.2114 111.376,-27.0762"/>
</g>
<!-- Node4 -->
<g id="node4" class="node"><title>Node4</title>
<g id="a_node4"><a xlink:href="sink_8hpp.html" target="_top" xlink:title="Om header file.">
<polygon fill="none" stroke="black" points="143.042,-1 143.042,-21 212.958,-21 212.958,-1 143.042,-1"/>
<text text-anchor="middle" x="178" y="-7" font-family="Helvetica,sans-Serif" font-size="10.00">om/sink.hpp</text>
</a>
</g>
</g>
<!-- Node1&#45;&gt;Node4 -->
<g id="edge3" class="edge"><title>Node1&#45;&gt;Node4</title>
<path fill="none" stroke="midnightblue" d="M138.604,-58.7527C142.916,-50.598 151.406,-38.5158 159.557,-28.6769"/>
<polygon fill="midnightblue" stroke="midnightblue" points="162.262,-30.9009 166.225,-21.0752 156.999,-26.2849 162.262,-30.9009"/>
</g>
<!-- Node4&#45;&gt;Node1 -->
<g id="edge4" class="edge"><title>Node4&#45;&gt;Node1</title>
<path fill="none" stroke="midnightblue" d="M176.487,-21.0752C172.234,-29.1742 163.771,-41.2442 155.616,-51.1145"/>
<polygon fill="midnightblue" stroke="midnightblue" points="152.885,-48.9209 148.937,-58.7527 158.154,-53.5288 152.885,-48.9209"/>
</g>
</g>
</svg>
