<?xml version="1.0" encoding="UTF-8" standalone="no"?>
<!DOCTYPE svg PUBLIC "-//W3C//DTD SVG 1.1//EN"
 "http://www.w3.org/Graphics/SVG/1.1/DTD/svg11.dtd">
<!-- Generated by graphviz version 2.30.1 (20130221.2233)
 -->
<!-- Title: code/om/sink.cpp Pages: 1 -->
<svg width="815pt" height="484pt"
 viewBox="0.00 0.00 815.30 484.00" xmlns="http://www.w3.org/2000/svg" xmlns:xlink="http://www.w3.org/1999/xlink">
<g id="graph0" class="graph" transform="scale(1 1) rotate(0) translate(4 480)">
<title>code/om/sink.cpp</title>
<!-- Node1 -->
<g id="node1" class="node"><title>Node1</title>
<polygon fill="#bfbfbf" stroke="black" points="60.3866,-455 60.3866,-475 154.204,-475 154.204,-455 60.3866,-455"/>
<text text-anchor="middle" x="107.295" y="-461" font-family="Helvetica,sans-Serif" font-size="10.00">code/om/sink.cpp</text>
</g>
<!-- Node2 -->
<g id="node2" class="node"><title>Node2</title>
<g id="a_node2"><a xlink:href="sink_8hpp.html" target="_top" xlink:title="Om header file.">
<polygon fill="none" stroke="black" points="60.1058,-397 60.1058,-417 154.485,-417 154.485,-397 60.1058,-397"/>
<text text-anchor="middle" x="107.295" y="-403" font-family="Helvetica,sans-Serif" font-size="10.00">code/om/sink.hpp</text>
</a>
</g>
</g>
<!-- Node1&#45;&gt;Node2 -->
<g id="edge1" class="edge"><title>Node1&#45;&gt;Node2</title>
<path fill="none" stroke="midnightblue" d="M100.844,-444.707C100.181,-435.338 100.621,-424.526 102.164,-417.075"/>
<polygon fill="midnightblue" stroke="midnightblue" points="97.3886,-445.278 102.129,-454.753 104.332,-444.389 97.3886,-445.278"/>
</g>
<!-- Node3 -->
<g id="node3" class="node"><title>Node3</title>
<g id="a_node3"><a xlink:href="internal_8hpp.html" target="_top" xlink:title="code/om/internal.hpp">
<polygon fill="none" stroke="black" points="116.599,-123 116.599,-143 225.992,-143 225.992,-123 116.599,-123"/>
<text text-anchor="middle" x="171.295" y="-129" font-family="Helvetica,sans-Serif" font-size="10.00">code/om/internal.hpp</text>
</a>
</g>
</g>
<!-- Node2&#45;&gt;Node3 -->
<g id="edge2" class="edge"><title>Node2&#45;&gt;Node3</title>
<path fill="none" stroke="midnightblue" d="M86.7053,-390.581C61.9034,-370.578 21.5478,-333.096 5.2953,-290 -1.1918,-272.799 -2.96771,-199.609 7.2953,-186 32.4742,-152.613 79.1615,-140.192 116.302,-135.789"/>
<polygon fill="midnightblue" stroke="midnightblue" points="84.7375,-393.486 94.7644,-396.908 89.0601,-387.98 84.7375,-393.486"/>
</g>
<!-- Node2&#45;&gt;Node1 -->
<g id="edge8" class="edge"><title>Node2&#45;&gt;Node1</title>
<path fill="none" stroke="midnightblue" d="M113.731,-427.078C114.411,-436.424 113.988,-447.25 112.462,-454.753"/>
<polygon fill="midnightblue" stroke="midnightblue" points="117.19,-426.538 112.426,-417.075 110.249,-427.444 117.19,-426.538"/>
</g>
<!-- Node7 -->
<g id="node7" class="node"><title>Node7</title>
<g id="a_node7"><a xlink:href="default__sink_8hpp.html" target="_top" xlink:title="Om header file.">
<polygon fill="none" stroke="black" points="223.936,-327 223.936,-359 336.655,-359 336.655,-327 223.936,-327"/>
<text text-anchor="start" x="231.936" y="-345" font-family="Helvetica,sans-Serif" font-size="10.00">code/om/sinks/default</text>
<text text-anchor="middle" x="280.295" y="-333" font-family="Helvetica,sans-Serif" font-size="10.00">_sink.hpp</text>
</a>
</g>
</g>
<!-- Node2&#45;&gt;Node7 -->
<g id="edge9" class="edge"><title>Node2&#45;&gt;Node7</title>
<path fill="none" stroke="midnightblue" d="M142.137,-393.513C169.908,-383.561 208.89,-369.59 238.369,-359.026"/>
<polygon fill="midnightblue" stroke="midnightblue" points="140.684,-390.316 132.451,-396.985 143.046,-396.906 140.684,-390.316"/>
</g>
<!-- Node4 -->
<g id="node4" class="node"><title>Node4</title>
<g id="a_node4"><a xlink:href="internal_8cpp.html" target="_top" xlink:title="code/om/internal.cpp">
<polygon fill="none" stroke="black" points="7.87928,-59 7.87928,-79 116.711,-79 116.711,-59 7.87928,-59"/>
<text text-anchor="middle" x="62.2953" y="-65" font-family="Helvetica,sans-Serif" font-size="10.00">code/om/internal.cpp</text>
</a>
</g>
</g>
<!-- Node3&#45;&gt;Node4 -->
<g id="edge3" class="edge"><title>Node3&#45;&gt;Node4</title>
<path fill="none" stroke="midnightblue" d="M146.282,-117.772C125.431,-105.912 96.3434,-89.3668 78.4446,-79.1858"/>
<polygon fill="midnightblue" stroke="midnightblue" points="144.789,-120.95 155.212,-122.852 148.25,-114.865 144.789,-120.95"/>
</g>
<!-- Node3&#45;&gt;Node3 -->
<g id="edge4" class="edge"><title>Node3&#45;&gt;Node3</title>
<path fill="none" stroke="midnightblue" d="M207.126,-144.532C226.087,-146.424 243.295,-142.58 243.295,-133 243.295,-121.75 219.565,-118.41 197.132,-122.98"/>
<polygon fill="midnightblue" stroke="midnightblue" points="207.543,-141.055 197.132,-143.02 206.496,-147.977 207.543,-141.055"/>
</g>
<!-- Node5 -->
<g id="node5" class="node"><title>Node5</title>
<g id="a_node5"><a xlink:href="om_8hpp.html" target="_top" xlink:title="Om &quot;umbrella&quot; header file.">
<polygon fill="none" stroke="black" points="134.387,-59 134.387,-79 208.204,-79 208.204,-59 134.387,-59"/>
<text text-anchor="middle" x="171.295" y="-65" font-family="Helvetica,sans-Serif" font-size="10.00">code/om.hpp</text>
</a>
</g>
</g>
<!-- Node3&#45;&gt;Node5 -->
<g id="edge5" class="edge"><title>Node3&#45;&gt;Node5</title>
<path fill="none" stroke="midnightblue" d="M164.995,-112.735C164.098,-101.557 164.543,-87.991 166.332,-79.1858"/>
<polygon fill="midnightblue" stroke="midnightblue" points="161.553,-113.4 166.34,-122.852 168.491,-112.478 161.553,-113.4"/>
</g>
<!-- Node5&#45;&gt;Node3 -->
<g id="edge6" class="edge"><title>Node5&#45;&gt;Node3</title>
<path fill="none" stroke="midnightblue" d="M177.6,-89.3131C178.493,-100.498 178.043,-114.06 176.251,-122.852"/>
<polygon fill="midnightblue" stroke="midnightblue" points="181.041,-88.6398 176.258,-79.1858 174.102,-89.5588 181.041,-88.6398"/>
</g>
<!-- Node6 -->
<g id="node6" class="node"><title>Node6</title>
<g id="a_node6"><a xlink:href="om_8cpp.html" target="_top" xlink:title="Om source file.">
<polygon fill="none" stroke="black" points="134.667,-1 134.667,-21 207.923,-21 207.923,-1 134.667,-1"/>
<text text-anchor="middle" x="171.295" y="-7" font-family="Helvetica,sans-Serif" font-size="10.00">code/om.cpp</text>
</a>
</g>
</g>
<!-- Node5&#45;&gt;Node6 -->
<g id="edge7" class="edge"><title>Node5&#45;&gt;Node6</title>
<path fill="none" stroke="midnightblue" d="M171.295,-48.7065C171.295,-39.3384 171.295,-28.5262 171.295,-21.0752"/>
<polygon fill="midnightblue" stroke="midnightblue" points="167.795,-48.7527 171.295,-58.7527 174.795,-48.7528 167.795,-48.7527"/>
</g>
<!-- Node7&#45;&gt;Node3 -->
<g id="edge10" class="edge"><title>Node7&#45;&gt;Node3</title>
<path fill="none" stroke="midnightblue" d="M213.68,-338.28C143.825,-332.823 40.8265,-319.834 16.2953,-290 4.82992,-276.056 5.37326,-206.763 21.2953,-186 43.6862,-156.802 83.516,-143.915 116.507,-138.268"/>
<polygon fill="midnightblue" stroke="midnightblue" points="213.499,-341.776 223.733,-339.032 214.021,-334.796 213.499,-341.776"/>
</g>
<!-- Node8 -->
<g id="node8" class="node"><title>Node8</title>
<g id="a_node8"><a xlink:href="code__point__sink_8hpp.html" target="_top" xlink:title="Om header file.">
<polygon fill="none" stroke="black" points="25.1058,-257 25.1058,-289 129.485,-289 129.485,-257 25.1058,-257"/>
<text text-anchor="start" x="33.1058" y="-275" font-family="Helvetica,sans-Serif" font-size="10.00">code/om/sinks/code</text>
<text text-anchor="middle" x="77.2953" y="-263" font-family="Helvetica,sans-Serif" font-size="10.00">_point_sink.hpp</text>
</a>
</g>
</g>
<!-- Node7&#45;&gt;Node8 -->
<g id="edge11" class="edge"><title>Node7&#45;&gt;Node8</title>
<path fill="none" stroke="midnightblue" d="M225.735,-323.724C193.377,-312.885 152.858,-299.312 122.332,-289.086"/>
<polygon fill="midnightblue" stroke="midnightblue" points="224.901,-327.135 235.495,-326.993 227.124,-320.498 224.901,-327.135"/>
</g>
<!-- Node10 -->
<g id="node10" class="node"><title>Node10</title>
<g id="a_node10"><a xlink:href="container__back__sink_8hpp.html" target="_top" xlink:title="Om header file.">
<polygon fill="none" stroke="black" points="147.379,-257 147.379,-289 271.211,-289 271.211,-257 147.379,-257"/>
<text text-anchor="start" x="155.379" y="-275" font-family="Helvetica,sans-Serif" font-size="10.00">code/om/sinks/container</text>
<text text-anchor="middle" x="209.295" y="-263" font-family="Helvetica,sans-Serif" font-size="10.00">_back_sink.hpp</text>
</a>
</g>
</g>
<!-- Node7&#45;&gt;Node10 -->
<g id="edge15" class="edge"><title>Node7&#45;&gt;Node10</title>
<path fill="none" stroke="midnightblue" d="M257.222,-319.901C246.681,-309.806 234.468,-298.109 225.008,-289.049"/>
<polygon fill="midnightblue" stroke="midnightblue" points="254.895,-322.519 264.538,-326.909 259.737,-317.464 254.895,-322.519"/>
</g>
<!-- Node12 -->
<g id="node12" class="node"><title>Node12</title>
<g id="a_node12"><a xlink:href="container__front__sink_8hpp.html" target="_top" xlink:title="Om header file.">
<polygon fill="none" stroke="black" points="289.379,-257 289.379,-289 413.211,-289 413.211,-257 289.379,-257"/>
<text text-anchor="start" x="297.379" y="-275" font-family="Helvetica,sans-Serif" font-size="10.00">code/om/sinks/container</text>
<text text-anchor="middle" x="351.295" y="-263" font-family="Helvetica,sans-Serif" font-size="10.00">_front_sink.hpp</text>
</a>
</g>
</g>
<!-- Node7&#45;&gt;Node12 -->
<g id="edge19" class="edge"><title>Node7&#45;&gt;Node12</title>
<path fill="none" stroke="midnightblue" d="M303.369,-319.901C313.909,-309.806 326.123,-298.109 335.582,-289.049"/>
<polygon fill="midnightblue" stroke="midnightblue" points="300.854,-317.464 296.052,-326.909 305.695,-322.519 300.854,-317.464"/>
</g>
<!-- Node14 -->
<g id="node14" class="node"><title>Node14</title>
<g id="a_node14"><a xlink:href="default__sink_8cpp.html" target="_top" xlink:title="Om source file.">
<polygon fill="none" stroke="black" points="430.936,-257 430.936,-289 543.655,-289 543.655,-257 430.936,-257"/>
<text text-anchor="start" x="438.936" y="-275" font-family="Helvetica,sans-Serif" font-size="10.00">code/om/sinks/default</text>
<text text-anchor="middle" x="487.295" y="-263" font-family="Helvetica,sans-Serif" font-size="10.00">_sink.cpp</text>
</a>
</g>
</g>
<!-- Node7&#45;&gt;Node14 -->
<g id="edge23" class="edge"><title>Node7&#45;&gt;Node14</title>
<path fill="none" stroke="midnightblue" d="M330.118,-323.639C362.098,-312.801 403.46,-299.252 435.769,-289.049"/>
<polygon fill="midnightblue" stroke="midnightblue" points="328.853,-320.372 320.515,-326.909 331.11,-326.999 328.853,-320.372"/>
</g>
<!-- Node15 -->
<g id="node15" class="node"><title>Node15</title>
<g id="a_node15"><a xlink:href="iterator__sink_8hpp.html" target="_top" xlink:title="Om header file.">
<polygon fill="none" stroke="black" points="561.387,-257 561.387,-289 675.204,-289 675.204,-257 561.387,-257"/>
<text text-anchor="start" x="569.387" y="-275" font-family="Helvetica,sans-Serif" font-size="10.00">code/om/sinks/iterator</text>
<text text-anchor="middle" x="618.295" y="-263" font-family="Helvetica,sans-Serif" font-size="10.00">_sink.hpp</text>
</a>
</g>
</g>
<!-- Node7&#45;&gt;Node15 -->
<g id="edge25" class="edge"><title>Node7&#45;&gt;Node15</title>
<path fill="none" stroke="midnightblue" d="M346.721,-330.239C401.907,-320.243 482.406,-305.143 552.295,-290 555.176,-289.376 558.124,-288.721 561.097,-288.047"/>
<polygon fill="midnightblue" stroke="midnightblue" points="345.939,-326.824 336.72,-332.045 347.183,-333.712 345.939,-326.824"/>
</g>
<!-- Node8&#45;&gt;Node3 -->
<g id="edge12" class="edge"><title>Node8&#45;&gt;Node3</title>
<path fill="none" stroke="midnightblue" d="M51.2106,-249.663C33.613,-231.83 15.9928,-206.519 30.2953,-186 49.6908,-158.175 85.7479,-145.2 116.543,-139.169"/>
<polygon fill="midnightblue" stroke="midnightblue" points="49.0202,-252.412 58.6579,-256.813 53.8679,-247.363 49.0202,-252.412"/>
</g>
<!-- Node9 -->
<g id="node9" class="node"><title>Node9</title>
<g id="a_node9"><a xlink:href="code__point__sink_8cpp.html" target="_top" xlink:title="Om source file.">
<polygon fill="none" stroke="black" points="39.1058,-187 39.1058,-219 143.485,-219 143.485,-187 39.1058,-187"/>
<text text-anchor="start" x="47.1058" y="-205" font-family="Helvetica,sans-Serif" font-size="10.00">code/om/sinks/code</text>
<text text-anchor="middle" x="91.2953" y="-193" font-family="Helvetica,sans-Serif" font-size="10.00">_point_sink.cpp</text>
</a>
</g>
</g>
<!-- Node8&#45;&gt;Node9 -->
<g id="edge13" class="edge"><title>Node8&#45;&gt;Node9</title>
<path fill="none" stroke="midnightblue" d="M75.9197,-246.92C77.3948,-237.56 79.7964,-227.229 82.4821,-219.049"/>
<polygon fill="midnightblue" stroke="midnightblue" points="72.4383,-246.554 74.6823,-256.909 79.3852,-247.415 72.4383,-246.554"/>
</g>
<!-- Node9&#45;&gt;Node8 -->
<g id="edge14" class="edge"><title>Node9&#45;&gt;Node8</title>
<path fill="none" stroke="midnightblue" d="M92.6785,-229.032C91.2066,-238.389 88.8071,-248.721 86.1224,-256.909"/>
<polygon fill="midnightblue" stroke="midnightblue" points="96.1592,-229.403 93.9118,-219.049 89.212,-228.545 96.1592,-229.403"/>
</g>
<!-- Node10&#45;&gt;Node3 -->
<g id="edge16" class="edge"><title>Node10&#45;&gt;Node3</title>
<path fill="none" stroke="midnightblue" d="M199.507,-247.294C196.319,-238.732 192.927,-229.019 190.295,-220 182.244,-192.404 175.771,-158.959 172.901,-143.139"/>
<polygon fill="midnightblue" stroke="midnightblue" points="196.263,-248.611 203.098,-256.706 202.803,-246.115 196.263,-248.611"/>
</g>
<!-- Node11 -->
<g id="node11" class="node"><title>Node11</title>
<g id="a_node11"><a xlink:href="container__back__sink_8cpp.html" target="_top" xlink:title="Om source file.">
<polygon fill="none" stroke="black" points="199.379,-187 199.379,-219 323.211,-219 323.211,-187 199.379,-187"/>
<text text-anchor="start" x="207.379" y="-205" font-family="Helvetica,sans-Serif" font-size="10.00">code/om/sinks/container</text>
<text text-anchor="middle" x="261.295" y="-193" font-family="Helvetica,sans-Serif" font-size="10.00">_back_sink.cpp</text>
</a>
</g>
</g>
<!-- Node10&#45;&gt;Node11 -->
<g id="edge17" class="edge"><title>Node10&#45;&gt;Node11</title>
<path fill="none" stroke="midnightblue" d="M220.867,-248.42C227.759,-238.677 236.425,-227.669 244.072,-219.049"/>
<polygon fill="midnightblue" stroke="midnightblue" points="217.827,-246.667 215.116,-256.909 223.622,-250.593 217.827,-246.667"/>
</g>
<!-- Node11&#45;&gt;Node10 -->
<g id="edge18" class="edge"><title>Node11&#45;&gt;Node10</title>
<path fill="none" stroke="midnightblue" d="M249.757,-227.532C242.871,-237.272 234.206,-248.281 226.556,-256.909"/>
<polygon fill="midnightblue" stroke="midnightblue" points="252.793,-229.292 255.502,-219.049 246.997,-225.367 252.793,-229.292"/>
</g>
<!-- Node12&#45;&gt;Node3 -->
<g id="edge20" class="edge"><title>Node12&#45;&gt;Node3</title>
<path fill="none" stroke="midnightblue" d="M351.758,-246.867C350.762,-227.894 346.355,-202.409 331.295,-186 304.437,-156.734 260.959,-143.887 226.1,-138.274"/>
<polygon fill="midnightblue" stroke="midnightblue" points="348.26,-246.992 352.006,-256.903 355.258,-246.82 348.26,-246.992"/>
</g>
<!-- Node13 -->
<g id="node13" class="node"><title>Node13</title>
<g id="a_node13"><a xlink:href="container__front__sink_8cpp.html" target="_top" xlink:title="Om source file.">
<polygon fill="none" stroke="black" points="379.379,-187 379.379,-219 503.211,-219 503.211,-187 379.379,-187"/>
<text text-anchor="start" x="387.379" y="-205" font-family="Helvetica,sans-Serif" font-size="10.00">code/om/sinks/container</text>
<text text-anchor="middle" x="441.295" y="-193" font-family="Helvetica,sans-Serif" font-size="10.00">_front_sink.cpp</text>
</a>
</g>
</g>
<!-- Node12&#45;&gt;Node13 -->
<g id="edge21" class="edge"><title>Node12&#45;&gt;Node13</title>
<path fill="none" stroke="midnightblue" d="M373.44,-250.488C386.252,-240.261 402.308,-228.285 415.662,-219.049"/>
<polygon fill="midnightblue" stroke="midnightblue" points="371.096,-247.882 365.549,-256.909 375.515,-253.311 371.096,-247.882"/>
</g>
<!-- Node13&#45;&gt;Node12 -->
<g id="edge22" class="edge"><title>Node13&#45;&gt;Node12</title>
<path fill="none" stroke="midnightblue" d="M419.209,-225.466C406.407,-235.687 390.352,-247.665 376.989,-256.909"/>
<polygon fill="midnightblue" stroke="midnightblue" points="421.546,-228.077 427.092,-219.049 417.127,-222.648 421.546,-228.077"/>
</g>
<!-- Node14&#45;&gt;Node7 -->
<g id="edge24" class="edge"><title>Node14&#45;&gt;Node7</title>
<path fill="none" stroke="midnightblue" d="M437.475,-292.36C405.451,-303.213 364.017,-316.785 331.688,-326.993"/>
<polygon fill="midnightblue" stroke="midnightblue" points="438.753,-295.623 447.091,-289.086 436.496,-288.996 438.753,-295.623"/>
</g>
<!-- Node15&#45;&gt;Node3 -->
<g id="edge26" class="edge"><title>Node15&#45;&gt;Node3</title>
<path fill="none" stroke="midnightblue" d="M590.635,-250.456C578.776,-241.155 564.802,-230.11 552.295,-220 533.885,-205.118 532.891,-195.697 511.295,-186 417.327,-143.805 295.621,-134.864 226.223,-133.521"/>
<polygon fill="midnightblue" stroke="midnightblue" points="588.813,-253.475 598.845,-256.882 593.127,-247.962 588.813,-253.475"/>
</g>
<!-- Node16 -->
<g id="node16" class="node"><title>Node16</title>
<g id="a_node16"><a xlink:href="iterator__sink_8cpp.html" target="_top" xlink:title="Om source file.">
<polygon fill="none" stroke="black" points="561.387,-187 561.387,-219 675.204,-219 675.204,-187 561.387,-187"/>
<text text-anchor="start" x="569.387" y="-205" font-family="Helvetica,sans-Serif" font-size="10.00">code/om/sinks/iterator</text>
<text text-anchor="middle" x="618.295" y="-193" font-family="Helvetica,sans-Serif" font-size="10.00">_sink.cpp</text>
</a>
</g>
</g>
<!-- Node15&#45;&gt;Node16 -->
<g id="edge27" class="edge"><title>Node15&#45;&gt;Node16</title>
<path fill="none" stroke="midnightblue" d="M611.756,-246.92C611.304,-237.56 611.579,-227.229 612.58,-219.049"/>
<polygon fill="midnightblue" stroke="midnightblue" points="608.27,-247.228 612.575,-256.909 615.246,-246.656 608.27,-247.228"/>
</g>
<!-- Node17 -->
<g id="node17" class="node"><title>Node17</title>
<g id="a_node17"><a xlink:href="stream__sink_8hpp.html" target="_top" xlink:title="Om header file.">
<polygon fill="none" stroke="black" points="693.667,-187 693.667,-219 806.923,-219 806.923,-187 693.667,-187"/>
<text text-anchor="start" x="701.667" y="-205" font-family="Helvetica,sans-Serif" font-size="10.00">code/om/sinks/stream</text>
<text text-anchor="middle" x="750.295" y="-193" font-family="Helvetica,sans-Serif" font-size="10.00">_sink.hpp</text>
</a>
</g>
</g>
<!-- Node15&#45;&gt;Node17 -->
<g id="edge29" class="edge"><title>Node15&#45;&gt;Node17</title>
<path fill="none" stroke="midnightblue" d="M656.686,-252.223C677.231,-241.639 702.13,-228.813 721.082,-219.049"/>
<polygon fill="midnightblue" stroke="midnightblue" points="654.877,-249.218 647.59,-256.909 658.083,-255.44 654.877,-249.218"/>
</g>
<!-- Node16&#45;&gt;Node15 -->
<g id="edge28" class="edge"><title>Node16&#45;&gt;Node15</title>
<path fill="none" stroke="midnightblue" d="M624.832,-229.032C625.287,-238.389 625.014,-248.721 624.015,-256.909"/>
<polygon fill="midnightblue" stroke="midnightblue" points="628.319,-228.728 624.01,-219.049 621.343,-229.303 628.319,-228.728"/>
</g>
<!-- Node17&#45;&gt;Node3 -->
<g id="edge30" class="edge"><title>Node17&#45;&gt;Node3</title>
<path fill="none" stroke="midnightblue" d="M683.605,-186.053C683.502,-186.035 683.398,-186.017 683.295,-186 518.125,-158.019 320.245,-143.131 226.174,-137.167"/>
<polygon fill="midnightblue" stroke="midnightblue" points="682.911,-189.483 693.381,-187.863 684.186,-182.601 682.911,-189.483"/>
</g>
<!-- Node18 -->
<g id="node18" class="node"><title>Node18</title>
<g id="a_node18"><a xlink:href="stream__sink_8cpp.html" target="_top" xlink:title="Om source file.">
<polygon fill="none" stroke="black" points="693.667,-117 693.667,-149 806.923,-149 806.923,-117 693.667,-117"/>
<text text-anchor="start" x="701.667" y="-135" font-family="Helvetica,sans-Serif" font-size="10.00">code/om/sinks/stream</text>
<text text-anchor="middle" x="750.295" y="-123" font-family="Helvetica,sans-Serif" font-size="10.00">_sink.cpp</text>
</a>
</g>
</g>
<!-- Node17&#45;&gt;Node18 -->
<g id="edge31" class="edge"><title>Node17&#45;&gt;Node18</title>
<path fill="none" stroke="midnightblue" d="M743.756,-176.92C743.304,-167.56 743.579,-157.229 744.58,-149.049"/>
<polygon fill="midnightblue" stroke="midnightblue" points="740.27,-177.228 744.575,-186.909 747.246,-176.656 740.27,-177.228"/>
</g>
<!-- Node18&#45;&gt;Node17 -->
<g id="edge32" class="edge"><title>Node18&#45;&gt;Node17</title>
<path fill="none" stroke="midnightblue" d="M756.832,-159.032C757.287,-168.389 757.014,-178.721 756.015,-186.909"/>
<polygon fill="midnightblue" stroke="midnightblue" points="760.319,-158.728 756.01,-149.049 753.343,-159.303 760.319,-158.728"/>
</g>
</g>
</svg>
