<?xml version="1.0" encoding="UTF-8" standalone="no"?>
<!DOCTYPE svg PUBLIC "-//W3C//DTD SVG 1.1//EN"
 "http://www.w3.org/Graphics/SVG/1.1/DTD/svg11.dtd">
<!-- Generated by graphviz version 2.30.1 (20130221.2233)
 -->
<!-- Title: om/source.cpp Pages: 1 -->
<svg width="233pt" height="88pt"
 viewBox="0.00 0.00 233.00 88.00" xmlns="http://www.w3.org/2000/svg" xmlns:xlink="http://www.w3.org/1999/xlink">
<g id="graph0" class="graph" transform="scale(1 1) rotate(0) translate(4 84)">
<title>om/source.cpp</title>
<!-- Node1 -->
<g id="node1" class="node"><title>Node1</title>
<polygon fill="#bfbfbf" stroke="black" points="99.207,-59 99.207,-79 180.793,-79 180.793,-59 99.207,-59"/>
<text text-anchor="middle" x="140" y="-65" font-family="Helvetica,sans-Serif" font-size="10.00">om/source.cpp</text>
</g>
<!-- Node2 -->
<g id="node2" class="node"><title>Node2</title>
<polygon fill="none" stroke="#bfbfbf" points="-0.115723,-1 -0.115723,-21 48.1157,-21 48.1157,-1 -0.115723,-1"/>
<text text-anchor="middle" x="24" y="-7" font-family="Helvetica,sans-Serif" font-size="10.00">cassert</text>
</g>
<!-- Node1&#45;&gt;Node2 -->
<g id="edge1" class="edge"><title>Node1&#45;&gt;Node2</title>
<path fill="none" stroke="midnightblue" d="M121.104,-58.878C102.398,-49.8475 73.5345,-35.9132 52.1325,-25.5812"/>
<polygon fill="midnightblue" stroke="midnightblue" points="53.4147,-22.3137 42.8875,-21.1181 50.3714,-28.6176 53.4147,-22.3137"/>
</g>
<!-- Node3 -->
<g id="node3" class="node"><title>Node3</title>
<polygon fill="none" stroke="#bfbfbf" points="66.5986,-1 66.5986,-21 125.401,-21 125.401,-1 66.5986,-1"/>
<text text-anchor="middle" x="96" y="-7" font-family="Helvetica,sans-Serif" font-size="10.00">stdexcept</text>
</g>
<!-- Node1&#45;&gt;Node3 -->
<g id="edge2" class="edge"><title>Node1&#45;&gt;Node3</title>
<path fill="none" stroke="midnightblue" d="M132.734,-58.7527C126.391,-50.6796 117.023,-38.7571 109.336,-28.9727"/>
<polygon fill="midnightblue" stroke="midnightblue" points="112.061,-26.776 103.131,-21.0752 106.557,-31.1008 112.061,-26.776"/>
</g>
<!-- Node4 -->
<g id="node4" class="node"><title>Node4</title>
<g id="a_node4"><a xlink:href="source_8hpp.html" target="_top" xlink:title="Om header file. ">
<polygon fill="none" stroke="black" points="142.926,-1 142.926,-21 225.074,-21 225.074,-1 142.926,-1"/>
<text text-anchor="middle" x="184" y="-7" font-family="Helvetica,sans-Serif" font-size="10.00">om/source.hpp</text>
</a>
</g>
</g>
<!-- Node1&#45;&gt;Node4 -->
<g id="edge3" class="edge"><title>Node1&#45;&gt;Node4</title>
<path fill="none" stroke="midnightblue" d="M142.099,-58.7527C146.848,-50.598 155.985,-38.5158 164.663,-28.6769"/>
<polygon fill="midnightblue" stroke="midnightblue" points="167.487,-30.7798 171.738,-21.0752 162.363,-26.0107 167.487,-30.7798"/>
</g>
<!-- Node4&#45;&gt;Node1 -->
<g id="edge4" class="edge"><title>Node4&#45;&gt;Node1</title>
<path fill="none" stroke="midnightblue" d="M182,-21.0752C177.267,-29.2551 168.022,-41.486 159.26,-51.4099"/>
<polygon fill="midnightblue" stroke="midnightblue" points="156.679,-49.0462 152.432,-58.7527 161.805,-53.813 156.679,-49.0462"/>
</g>
</g>
</svg>
