<?xml version="1.0" encoding="UTF-8" standalone="no"?>
<!DOCTYPE svg PUBLIC "-//W3C//DTD SVG 1.1//EN"
 "http://www.w3.org/Graphics/SVG/1.1/DTD/svg11.dtd">
<!-- Generated by graphviz version 2.30.1 (20130221.2233)
 -->
<!-- Title: code/om/source.cpp Pages: 1 -->
<svg width="114pt" height="88pt"
 viewBox="0.00 0.00 114.00 88.00" xmlns="http://www.w3.org/2000/svg" xmlns:xlink="http://www.w3.org/1999/xlink">
<g id="graph0" class="graph" transform="scale(1 1) rotate(0) translate(4 84)">
<title>code/om/source.cpp</title>
<!-- Node1 -->
<g id="node1" class="node"><title>Node1</title>
<polygon fill="#bfbfbf" stroke="black" points="-0.0244141,-59 -0.0244141,-79 106.024,-79 106.024,-59 -0.0244141,-59"/>
<text text-anchor="middle" x="53" y="-65" font-family="Helvetica,sans-Serif" font-size="10.00">code/om/source.cpp</text>
</g>
<!-- Node2 -->
<g id="node2" class="node"><title>Node2</title>
<g id="a_node2"><a xlink:href="source_8hpp.html" target="_top" xlink:title="Om header file.">
<polygon fill="none" stroke="black" points="11.9263,-1 11.9263,-21 94.0737,-21 94.0737,-1 11.9263,-1"/>
<text text-anchor="middle" x="53" y="-7" font-family="Helvetica,sans-Serif" font-size="10.00">om/source.hpp</text>
</a>
</g>
</g>
<!-- Node1&#45;&gt;Node2 -->
<g id="edge1" class="edge"><title>Node1&#45;&gt;Node2</title>
<path fill="none" stroke="midnightblue" d="M47.8337,-58.7527C46.3076,-51.2504 45.8844,-40.4238 46.5643,-31.0781"/>
<polygon fill="midnightblue" stroke="midnightblue" points="50.0461,-31.4439 47.869,-21.0752 43.1049,-30.5385 50.0461,-31.4439"/>
</g>
<!-- Node2&#45;&gt;Node1 -->
<g id="edge2" class="edge"><title>Node2&#45;&gt;Node1</title>
<path fill="none" stroke="midnightblue" d="M58.131,-21.0752C59.674,-28.5262 60.1141,-39.3384 59.4512,-48.7065"/>
<polygon fill="midnightblue" stroke="midnightblue" points="55.9633,-48.3895 58.1663,-58.7527 62.9067,-49.2776 55.9633,-48.3895"/>
</g>
</g>
</svg>
