<?xml version="1.0" encoding="UTF-8" standalone="no"?>
<!DOCTYPE svg PUBLIC "-//W3C//DTD SVG 1.1//EN"
 "http://www.w3.org/Graphics/SVG/1.1/DTD/svg11.dtd">
<!-- Generated by graphviz version 2.30.1 (20130221.2233)
 -->
<!-- Title: om/sources/stream_source.hpp Pages: 1 -->
<svg width="516pt" height="286pt"
 viewBox="0.00 0.00 516.00 286.00" xmlns="http://www.w3.org/2000/svg" xmlns:xlink="http://www.w3.org/1999/xlink">
<g id="graph0" class="graph" transform="scale(1 1) rotate(0) translate(4 282)">
<title>om/sources/stream_source.hpp</title>
<!-- Node1 -->
<g id="node1" class="node"><title>Node1</title>
<polygon fill="#bfbfbf" stroke="black" points="279.968,-257 279.968,-277 436.032,-277 436.032,-257 279.968,-257"/>
<text text-anchor="middle" x="358" y="-263" font-family="Helvetica,sans-Serif" font-size="10.00">om/sources/stream_source.hpp</text>
</g>
<!-- Node2 -->
<g id="node2" class="node"><title>Node2</title>
<g id="a_node2"><a xlink:href="default__source_8hpp.html" target="_top" xlink:title="Om header file.">
<polygon fill="none" stroke="black" points="118.756,-187 118.756,-219 219.244,-219 219.244,-187 118.756,-187"/>
<text text-anchor="start" x="126.756" y="-205" font-family="Helvetica,sans-Serif" font-size="10.00">om/sources/default</text>
<text text-anchor="middle" x="169" y="-193" font-family="Helvetica,sans-Serif" font-size="10.00">_source.hpp</text>
</a>
</g>
</g>
<!-- Node1&#45;&gt;Node2 -->
<g id="edge1" class="edge"><title>Node1&#45;&gt;Node2</title>
<path fill="none" stroke="midnightblue" d="M330.518,-256.985C302.818,-247.898 259.289,-233.619 224.397,-222.172"/>
<polygon fill="midnightblue" stroke="midnightblue" points="225.397,-218.817 214.804,-219.026 223.215,-225.468 225.397,-218.817"/>
</g>
<!-- Node8 -->
<g id="node8" class="node"><title>Node8</title>
<polygon fill="none" stroke="#bfbfbf" points="237.133,-193 237.133,-213 334.867,-213 334.867,-193 237.133,-193"/>
<text text-anchor="middle" x="286" y="-199" font-family="Helvetica,sans-Serif" font-size="10.00">boost/optional.hpp</text>
</g>
<!-- Node1&#45;&gt;Node8 -->
<g id="edge9" class="edge"><title>Node1&#45;&gt;Node8</title>
<path fill="none" stroke="midnightblue" d="M347.376,-256.852C336.103,-247.144 318.075,-231.62 304.468,-219.903"/>
<polygon fill="midnightblue" stroke="midnightblue" points="306.529,-217.059 296.667,-213.186 301.961,-222.363 306.529,-217.059"/>
</g>
<!-- Node9 -->
<g id="node9" class="node"><title>Node9</title>
<g id="a_node9"><a xlink:href="stream__source_8cpp.html" target="_top" xlink:title="Om source file.">
<polygon fill="none" stroke="black" points="353.249,-193 353.249,-213 508.751,-213 508.751,-193 353.249,-193"/>
<text text-anchor="middle" x="431" y="-199" font-family="Helvetica,sans-Serif" font-size="10.00">om/sources/stream_source.cpp</text>
</a>
</g>
</g>
<!-- Node1&#45;&gt;Node9 -->
<g id="edge10" class="edge"><title>Node1&#45;&gt;Node9</title>
<path fill="none" stroke="midnightblue" d="M363.816,-256.852C373.445,-246.961 391.882,-231.033 407.145,-219.244"/>
<polygon fill="midnightblue" stroke="midnightblue" points="409.322,-221.986 415.221,-213.186 405.122,-216.387 409.322,-221.986"/>
</g>
<!-- Node3 -->
<g id="node3" class="node"><title>Node3</title>
<g id="a_node3"><a xlink:href="source_8hpp.html" target="_top" xlink:title="Om header file.">
<polygon fill="none" stroke="black" points="18.9263,-123 18.9263,-143 101.074,-143 101.074,-123 18.9263,-123"/>
<text text-anchor="middle" x="60" y="-129" font-family="Helvetica,sans-Serif" font-size="10.00">om/source.hpp</text>
</a>
</g>
</g>
<!-- Node2&#45;&gt;Node3 -->
<g id="edge2" class="edge"><title>Node2&#45;&gt;Node3</title>
<path fill="none" stroke="midnightblue" d="M144.809,-186.909C126.437,-175.447 101.325,-159.781 83.2006,-148.474"/>
<polygon fill="midnightblue" stroke="midnightblue" points="84.7691,-145.327 74.4322,-143.004 81.064,-151.266 84.7691,-145.327"/>
</g>
<!-- Node7 -->
<g id="node7" class="node"><title>Node7</title>
<g id="a_node7"><a xlink:href="default__source_8cpp.html" target="_top" xlink:title="Om source file.">
<polygon fill="none" stroke="black" points="118.756,-117 118.756,-149 219.244,-149 219.244,-117 118.756,-117"/>
<text text-anchor="start" x="126.756" y="-135" font-family="Helvetica,sans-Serif" font-size="10.00">om/sources/default</text>
<text text-anchor="middle" x="169" y="-123" font-family="Helvetica,sans-Serif" font-size="10.00">_source.cpp</text>
</a>
</g>
</g>
<!-- Node2&#45;&gt;Node7 -->
<g id="edge7" class="edge"><title>Node2&#45;&gt;Node7</title>
<path fill="none" stroke="midnightblue" d="M163.28,-186.909C162.281,-178.721 162.009,-168.389 162.463,-159.032"/>
<polygon fill="midnightblue" stroke="midnightblue" points="165.953,-159.303 163.285,-149.049 158.976,-158.728 165.953,-159.303"/>
</g>
<!-- Node4 -->
<g id="node4" class="node"><title>Node4</title>
<g id="a_node4"><a xlink:href="source_8cpp.html" target="_top" xlink:title="Om source file.">
<polygon fill="none" stroke="black" points="19.207,-59 19.207,-79 100.793,-79 100.793,-59 19.207,-59"/>
<text text-anchor="middle" x="60" y="-65" font-family="Helvetica,sans-Serif" font-size="10.00">om/source.cpp</text>
</a>
</g>
</g>
<!-- Node3&#45;&gt;Node4 -->
<g id="edge3" class="edge"><title>Node3&#45;&gt;Node4</title>
<path fill="none" stroke="midnightblue" d="M55.0446,-122.852C53.2519,-114.06 52.8023,-100.498 53.6958,-89.3131"/>
<polygon fill="midnightblue" stroke="midnightblue" points="57.1937,-89.5588 55.037,-79.1858 50.2543,-88.6398 57.1937,-89.5588"/>
</g>
<!-- Node5 -->
<g id="node5" class="node"><title>Node5</title>
<polygon fill="none" stroke="#bfbfbf" points="-0.115723,-1 -0.115723,-21 48.1157,-21 48.1157,-1 -0.115723,-1"/>
<text text-anchor="middle" x="24" y="-7" font-family="Helvetica,sans-Serif" font-size="10.00">cassert</text>
</g>
<!-- Node4&#45;&gt;Node5 -->
<g id="edge4" class="edge"><title>Node4&#45;&gt;Node5</title>
<path fill="none" stroke="midnightblue" d="M54.0553,-58.7527C48.9703,-50.8427 41.5096,-39.2372 35.2939,-29.5683"/>
<polygon fill="midnightblue" stroke="midnightblue" points="38.1858,-27.5943 29.8341,-21.0752 32.2975,-31.3797 38.1858,-27.5943"/>
</g>
<!-- Node6 -->
<g id="node6" class="node"><title>Node6</title>
<polygon fill="none" stroke="#bfbfbf" points="66.5986,-1 66.5986,-21 125.401,-21 125.401,-1 66.5986,-1"/>
<text text-anchor="middle" x="96" y="-7" font-family="Helvetica,sans-Serif" font-size="10.00">stdexcept</text>
</g>
<!-- Node4&#45;&gt;Node6 -->
<g id="edge5" class="edge"><title>Node4&#45;&gt;Node6</title>
<path fill="none" stroke="midnightblue" d="M65.9447,-58.7527C71.0297,-50.8427 78.4904,-39.2372 84.7061,-29.5683"/>
<polygon fill="midnightblue" stroke="midnightblue" points="87.7025,-31.3797 90.1659,-21.0752 81.8142,-27.5943 87.7025,-31.3797"/>
</g>
<!-- Node4&#45;&gt;Node3 -->
<g id="edge6" class="edge"><title>Node4&#45;&gt;Node3</title>
<path fill="none" stroke="midnightblue" d="M64.963,-79.1858C66.7519,-87.991 67.1977,-101.557 66.3004,-112.735"/>
<polygon fill="midnightblue" stroke="midnightblue" points="62.8038,-112.478 64.9554,-122.852 69.7428,-113.4 62.8038,-112.478"/>
</g>
<!-- Node7&#45;&gt;Node2 -->
<g id="edge8" class="edge"><title>Node7&#45;&gt;Node2</title>
<path fill="none" stroke="midnightblue" d="M174.715,-149.049C175.716,-157.229 175.991,-167.56 175.539,-176.92"/>
<polygon fill="midnightblue" stroke="midnightblue" points="172.049,-176.656 174.72,-186.909 179.026,-177.228 172.049,-176.656"/>
</g>
<!-- Node9&#45;&gt;Node1 -->
<g id="edge11" class="edge"><title>Node9&#45;&gt;Node1</title>
<path fill="none" stroke="midnightblue" d="M425.147,-213.186C415.497,-223.092 397.052,-239.023 381.797,-250.8"/>
<polygon fill="midnightblue" stroke="midnightblue" points="379.628,-248.052 373.727,-256.852 383.827,-253.653 379.628,-248.052"/>
</g>
</g>
</svg>
