<?xml version="1.0" encoding="UTF-8" standalone="no"?>
<!DOCTYPE svg PUBLIC "-//W3C//DTD SVG 1.1//EN"
 "http://www.w3.org/Graphics/SVG/1.1/DTD/svg11.dtd">
<!-- Generated by graphviz version 2.34.0 (20130907.0228)
 -->
<!-- Title: om/sink/stream_sink.hpp Pages: 1 -->
<svg width="134pt" height="88pt"
 viewBox="0.00 0.00 134.00 88.00" xmlns="http://www.w3.org/2000/svg" xmlns:xlink="http://www.w3.org/1999/xlink">
<g id="graph0" class="graph" transform="scale(1 1) rotate(0) translate(4 84)">
<title>om/sink/stream_sink.hpp</title>
<!-- Node1 -->
<g id="node1" class="node"><title>Node1</title>
<polygon fill="#bfbfbf" stroke="black" points="-0.300293,-59 -0.300293,-79 126.3,-79 126.3,-59 -0.300293,-59"/>
<text text-anchor="middle" x="63" y="-65" font-family="Helvetica,sans-Serif" font-size="10.00">om/sink/stream_sink.hpp</text>
</g>
<!-- Node2 -->
<g id="node2" class="node"><title>Node2</title>
<g id="a_node2"><a xlink:href="stream__sink_8cpp.html" target="_top" xlink:title="Om source file. ">
<polygon fill="none" stroke="black" points="-0.0195312,-1 -0.0195312,-21 126.02,-21 126.02,-1 -0.0195312,-1"/>
<text text-anchor="middle" x="63" y="-7" font-family="Helvetica,sans-Serif" font-size="10.00">om/sink/stream_sink.cpp</text>
</a>
</g>
</g>
<!-- Node1&#45;&gt;Node2 -->
<g id="edge1" class="edge"><title>Node1&#45;&gt;Node2</title>
<path fill="none" stroke="midnightblue" d="M56.5488,-48.7065C55.8859,-39.3384 56.326,-28.5262 57.869,-21.0752"/>
<polygon fill="midnightblue" stroke="midnightblue" points="53.0933,-49.2776 57.8337,-58.7527 60.0367,-48.3895 53.0933,-49.2776"/>
</g>
<!-- Node2&#45;&gt;Node1 -->
<g id="edge2" class="edge"><title>Node2&#45;&gt;Node1</title>
<path fill="none" stroke="midnightblue" d="M69.4357,-31.0781C70.1156,-40.4238 69.6924,-51.2504 68.1663,-58.7527"/>
<polygon fill="midnightblue" stroke="midnightblue" points="72.8951,-30.5385 68.131,-21.0752 65.9539,-31.4439 72.8951,-30.5385"/>
</g>
</g>
</svg>
