<?xml version="1.0" encoding="UTF-8" standalone="no"?>
<!DOCTYPE svg PUBLIC "-//W3C//DTD SVG 1.1//EN"
 "http://www.w3.org/Graphics/SVG/1.1/DTD/svg11.dtd">
<!-- Generated by graphviz version 2.28.0 (20120817.0054)
 -->
<!-- Title: code/om/sinks/stream_sink.hpp Pages: 1 -->
<svg width="363pt" height="220pt"
 viewBox="0.00 0.00 363.00 220.00" xmlns="http://www.w3.org/2000/svg" xmlns:xlink="http://www.w3.org/1999/xlink">
<g id="graph1" class="graph" transform="scale(1 1) rotate(0) translate(4 216)">
<title>code/om/sinks/stream_sink.hpp</title>
<!-- Node1 -->
<g id="node1" class="node"><title>Node1</title>
<polygon fill="#bfbfbf" stroke="black" points="246.5,-181 246.5,-211 355.5,-211 355.5,-181 246.5,-181"/>
<text text-anchor="start" x="254.5" y="-199" font-family="Helvetica,sans-Serif" font-size="10.00">code/om/sinks/stream</text>
<text text-anchor="middle" x="301" y="-188" font-family="Helvetica,sans-Serif" font-size="10.00">_sink.hpp</text>
</g>
<!-- Node2 -->
<g id="node3" class="node"><title>Node2</title>
<a xlink:href="internal_8hpp.html" target="_top" xlink:title="code/om/internal.hpp">
<polygon fill="none" stroke="black" points="106,-118.5 106,-137.5 210,-137.5 210,-118.5 106,-118.5"/>
<text text-anchor="middle" x="158" y="-125.5" font-family="Helvetica,sans-Serif" font-size="10.00">code/om/internal.hpp</text>
</a>
</g>
<!-- Node1&#45;&gt;Node2 -->
<g id="edge2" class="edge"><title>Node1&#45;&gt;Node2</title>
<path fill="none" stroke="midnightblue" d="M260.943,-176.512C233.408,-163.804 198.104,-147.51 176.811,-137.682"/>
<polygon fill="midnightblue" stroke="midnightblue" points="259.777,-179.829 270.323,-180.841 262.71,-173.473 259.777,-179.829"/>
</g>
<!-- Node6 -->
<g id="node13" class="node"><title>Node6</title>
<a xlink:href="stream__sink_8cpp.html" target="_top" xlink:title="Om source file.">
<polygon fill="none" stroke="black" points="246.5,-113 246.5,-143 355.5,-143 355.5,-113 246.5,-113"/>
<text text-anchor="start" x="254.5" y="-131" font-family="Helvetica,sans-Serif" font-size="10.00">code/om/sinks/stream</text>
<text text-anchor="middle" x="301" y="-120" font-family="Helvetica,sans-Serif" font-size="10.00">_sink.cpp</text>
</a>
</g>
<!-- Node1&#45;&gt;Node6 -->
<g id="edge14" class="edge"><title>Node1&#45;&gt;Node6</title>
<path fill="none" stroke="midnightblue" d="M294.455,-170.532C294.005,-161.361 294.296,-151.245 295.325,-143.293"/>
<polygon fill="midnightblue" stroke="midnightblue" points="290.983,-171.013 295.322,-180.679 297.958,-170.417 290.983,-171.013"/>
</g>
<!-- Node2&#45;&gt;Node2 -->
<g id="edge6" class="edge"><title>Node2&#45;&gt;Node2</title>
<path fill="none" stroke="midnightblue" d="M192.477,-139.135C211.052,-141.053 228,-137.341 228,-128 228,-116.98 204.413,-113.795 182.393,-118.444"/>
<polygon fill="midnightblue" stroke="midnightblue" points="192.814,-135.645 182.393,-137.556 191.731,-142.561 192.814,-135.645"/>
</g>
<!-- Node3 -->
<g id="node5" class="node"><title>Node3</title>
<a xlink:href="internal_8cpp.html" target="_top" xlink:title="code/om/internal.cpp">
<polygon fill="none" stroke="black" points="0,-56.5 0,-75.5 104,-75.5 104,-56.5 0,-56.5"/>
<text text-anchor="middle" x="52" y="-63.5" font-family="Helvetica,sans-Serif" font-size="10.00">code/om/internal.cpp</text>
</a>
</g>
<!-- Node2&#45;&gt;Node3 -->
<g id="edge4" class="edge"><title>Node2&#45;&gt;Node3</title>
<path fill="none" stroke="midnightblue" d="M134.05,-113.443C113.537,-101.832 84.6211,-85.4648 67.159,-75.5806"/>
<polygon fill="midnightblue" stroke="midnightblue" points="132.386,-116.523 142.813,-118.403 135.834,-110.432 132.386,-116.523"/>
</g>
<!-- Node4 -->
<g id="node8" class="node"><title>Node4</title>
<a xlink:href="om_8hpp.html" target="_top" xlink:title="Om &quot;umbrella&quot; header file.">
<polygon fill="none" stroke="black" points="122,-56.5 122,-75.5 194,-75.5 194,-56.5 122,-56.5"/>
<text text-anchor="middle" x="158" y="-63.5" font-family="Helvetica,sans-Serif" font-size="10.00">code/om.hpp</text>
</a>
</g>
<!-- Node2&#45;&gt;Node4 -->
<g id="edge8" class="edge"><title>Node2&#45;&gt;Node4</title>
<path fill="none" stroke="midnightblue" d="M151.683,-108.16C150.797,-97.2482 151.27,-84.04 153.103,-75.5806"/>
<polygon fill="midnightblue" stroke="midnightblue" points="148.263,-108.977 153.099,-118.403 155.197,-108.018 148.263,-108.977"/>
</g>
<!-- Node4&#45;&gt;Node2 -->
<g id="edge10" class="edge"><title>Node4&#45;&gt;Node2</title>
<path fill="none" stroke="midnightblue" d="M164.315,-85.8199C165.203,-96.7283 164.732,-109.938 162.901,-118.403"/>
<polygon fill="midnightblue" stroke="midnightblue" points="167.736,-85.006 162.897,-75.5806 160.802,-85.9661 167.736,-85.006"/>
</g>
<!-- Node5 -->
<g id="node11" class="node"><title>Node5</title>
<a xlink:href="om_8cpp.html" target="_top" xlink:title="Om source file.">
<polygon fill="none" stroke="black" points="122.5,-0.5 122.5,-19.5 193.5,-19.5 193.5,-0.5 122.5,-0.5"/>
<text text-anchor="middle" x="158" y="-7.5" font-family="Helvetica,sans-Serif" font-size="10.00">code/om.cpp</text>
</a>
</g>
<!-- Node4&#45;&gt;Node5 -->
<g id="edge12" class="edge"><title>Node4&#45;&gt;Node5</title>
<path fill="none" stroke="midnightblue" d="M158,-45.8045C158,-36.9102 158,-26.7798 158,-19.7511"/>
<polygon fill="midnightblue" stroke="midnightblue" points="154.5,-46.083 158,-56.083 161.5,-46.083 154.5,-46.083"/>
</g>
<!-- Node6&#45;&gt;Node1 -->
<g id="edge16" class="edge"><title>Node6&#45;&gt;Node1</title>
<path fill="none" stroke="midnightblue" d="M307.544,-153.436C307.995,-162.605 307.706,-172.722 306.678,-180.679"/>
<polygon fill="midnightblue" stroke="midnightblue" points="311.016,-152.958 306.675,-143.293 304.041,-153.555 311.016,-152.958"/>
</g>
</g>
</svg>
