<?xml version="1.0" encoding="UTF-8" standalone="no"?>
<!DOCTYPE svg PUBLIC "-//W3C//DTD SVG 1.1//EN"
 "http://www.w3.org/Graphics/SVG/1.1/DTD/svg11.dtd">
<!-- Generated by graphviz version 2.28.0 (20120817.0054)
 -->
<!-- Title: code/om/sinks/stream_sink.cpp Pages: 1 -->
<svg width="364pt" height="320pt"
 viewBox="0.00 0.00 364.00 320.00" xmlns="http://www.w3.org/2000/svg" xmlns:xlink="http://www.w3.org/1999/xlink">
<g id="graph1" class="graph" transform="scale(1 1) rotate(0) translate(4 316)">
<title>code/om/sinks/stream_sink.cpp</title>
<!-- Node1 -->
<g id="node1" class="node"><title>Node1</title>
<polygon fill="#bfbfbf" stroke="black" points="238.5,-281 238.5,-311 347.5,-311 347.5,-281 238.5,-281"/>
<text text-anchor="start" x="246.5" y="-299" font-family="Helvetica,sans-Serif" font-size="10.00">code/om/sinks/stream</text>
<text text-anchor="middle" x="293" y="-288" font-family="Helvetica,sans-Serif" font-size="10.00">_sink.cpp</text>
</g>
<!-- Node2 -->
<g id="node3" class="node"><title>Node2</title>
<a xlink:href="stream__sink_8hpp.html" target="_top" xlink:title="Om header file.">
<polygon fill="none" stroke="black" points="229.5,-224.5 229.5,-243.5 356.5,-243.5 356.5,-224.5 229.5,-224.5"/>
<text text-anchor="middle" x="293" y="-231.5" font-family="Helvetica,sans-Serif" font-size="10.00">om/sinks/stream_sink.hpp</text>
</a>
</g>
<!-- Node1&#45;&gt;Node2 -->
<g id="edge2" class="edge"><title>Node1&#45;&gt;Node2</title>
<path fill="none" stroke="midnightblue" d="M287.16,-280.781C286.13,-272.691 285.974,-262.462 286.693,-253.725"/>
<polygon fill="midnightblue" stroke="midnightblue" points="290.172,-254.115 288.071,-243.731 283.238,-253.159 290.172,-254.115"/>
</g>
<!-- Node2&#45;&gt;Node1 -->
<g id="edge22" class="edge"><title>Node2&#45;&gt;Node1</title>
<path fill="none" stroke="midnightblue" d="M297.929,-243.731C299.435,-250.786 300.007,-261.074 299.645,-270.586"/>
<polygon fill="midnightblue" stroke="midnightblue" points="296.138,-270.536 298.84,-280.781 303.116,-271.087 296.138,-270.536"/>
</g>
<!-- Node3 -->
<g id="node5" class="node"><title>Node3</title>
<a xlink:href="iterator__sink_8hpp.html" target="_top" xlink:title="Om header file.">
<polygon fill="none" stroke="black" points="230.5,-168.5 230.5,-187.5 355.5,-187.5 355.5,-168.5 230.5,-168.5"/>
<text text-anchor="middle" x="293" y="-175.5" font-family="Helvetica,sans-Serif" font-size="10.00">om/sinks/iterator_sink.hpp</text>
</a>
</g>
<!-- Node2&#45;&gt;Node3 -->
<g id="edge4" class="edge"><title>Node2&#45;&gt;Node3</title>
<path fill="none" stroke="midnightblue" d="M293,-224.083C293,-217.006 293,-206.861 293,-197.986"/>
<polygon fill="midnightblue" stroke="midnightblue" points="296.5,-197.751 293,-187.751 289.5,-197.751 296.5,-197.751"/>
</g>
<!-- Node4 -->
<g id="node7" class="node"><title>Node4</title>
<a xlink:href="default__sink_8hpp.html" target="_top" xlink:title="Om header file.">
<polygon fill="none" stroke="black" points="86,-112.5 86,-131.5 212,-131.5 212,-112.5 86,-112.5"/>
<text text-anchor="middle" x="149" y="-119.5" font-family="Helvetica,sans-Serif" font-size="10.00">om/sinks/default_sink.hpp</text>
</a>
</g>
<!-- Node3&#45;&gt;Node4 -->
<g id="edge6" class="edge"><title>Node3&#45;&gt;Node4</title>
<path fill="none" stroke="midnightblue" d="M270.183,-168.444C246.168,-159.438 208.171,-145.189 181.131,-135.049"/>
<polygon fill="midnightblue" stroke="midnightblue" points="182.303,-131.751 171.71,-131.516 179.845,-138.305 182.303,-131.751"/>
</g>
<!-- Node8 -->
<g id="node17" class="node"><title>Node8</title>
<a xlink:href="iterator__sink_8cpp.html" target="_top" xlink:title="Om source file.">
<polygon fill="none" stroke="black" points="230.5,-112.5 230.5,-131.5 355.5,-131.5 355.5,-112.5 230.5,-112.5"/>
<text text-anchor="middle" x="293" y="-119.5" font-family="Helvetica,sans-Serif" font-size="10.00">om/sinks/iterator_sink.cpp</text>
</a>
</g>
<!-- Node3&#45;&gt;Node8 -->
<g id="edge18" class="edge"><title>Node3&#45;&gt;Node8</title>
<path fill="none" stroke="midnightblue" d="M287.834,-168.083C286.324,-160.927 285.894,-150.635 286.542,-141.691"/>
<polygon fill="midnightblue" stroke="midnightblue" points="290.015,-142.126 287.869,-131.751 283.077,-141.2 290.015,-142.126"/>
</g>
<!-- Node5 -->
<g id="node9" class="node"><title>Node5</title>
<a xlink:href="sink_8hpp.html" target="_top" xlink:title="Om header file.">
<polygon fill="none" stroke="black" points="0,-56.5 0,-75.5 68,-75.5 68,-56.5 0,-56.5"/>
<text text-anchor="middle" x="34" y="-63.5" font-family="Helvetica,sans-Serif" font-size="10.00">om/sink.hpp</text>
</a>
</g>
<!-- Node4&#45;&gt;Node5 -->
<g id="edge8" class="edge"><title>Node4&#45;&gt;Node5</title>
<path fill="none" stroke="midnightblue" d="M130.778,-112.444C112.104,-103.675 82.844,-89.9355 61.3826,-79.8579"/>
<polygon fill="midnightblue" stroke="midnightblue" points="62.6763,-76.5988 52.1368,-75.5164 59.7009,-82.935 62.6763,-76.5988"/>
</g>
<!-- Node7 -->
<g id="node14" class="node"><title>Node7</title>
<a xlink:href="default__sink_8cpp.html" target="_top" xlink:title="Om source file.">
<polygon fill="none" stroke="black" points="86.5,-56.5 86.5,-75.5 211.5,-75.5 211.5,-56.5 86.5,-56.5"/>
<text text-anchor="middle" x="149" y="-63.5" font-family="Helvetica,sans-Serif" font-size="10.00">om/sinks/default_sink.cpp</text>
</a>
</g>
<!-- Node4&#45;&gt;Node7 -->
<g id="edge14" class="edge"><title>Node4&#45;&gt;Node7</title>
<path fill="none" stroke="midnightblue" d="M143.834,-112.083C142.324,-104.927 141.894,-94.6353 142.542,-85.6911"/>
<polygon fill="midnightblue" stroke="midnightblue" points="146.015,-86.1262 143.869,-75.7511 139.077,-85.2002 146.015,-86.1262"/>
</g>
<!-- Node6 -->
<g id="node11" class="node"><title>Node6</title>
<a xlink:href="sink_8cpp.html" target="_top" xlink:title="Om source file.">
<polygon fill="none" stroke="black" points="0,-0.5 0,-19.5 68,-19.5 68,-0.5 0,-0.5"/>
<text text-anchor="middle" x="34" y="-7.5" font-family="Helvetica,sans-Serif" font-size="10.00">om/sink.cpp</text>
</a>
</g>
<!-- Node5&#45;&gt;Node6 -->
<g id="edge10" class="edge"><title>Node5&#45;&gt;Node6</title>
<path fill="none" stroke="midnightblue" d="M28.8337,-56.083C27.3242,-48.9272 26.8938,-38.6353 27.5425,-29.6911"/>
<polygon fill="midnightblue" stroke="midnightblue" points="31.0154,-30.1262 28.869,-19.7511 24.0769,-29.2002 31.0154,-30.1262"/>
</g>
<!-- Node6&#45;&gt;Node5 -->
<g id="edge12" class="edge"><title>Node6&#45;&gt;Node5</title>
<path fill="none" stroke="midnightblue" d="M39.131,-19.7511C40.6573,-26.8579 41.1044,-37.1357 40.4724,-46.1005"/>
<polygon fill="midnightblue" stroke="midnightblue" points="36.9933,-45.7134 39.1663,-56.083 43.9342,-46.6216 36.9933,-45.7134"/>
</g>
<!-- Node7&#45;&gt;Node4 -->
<g id="edge16" class="edge"><title>Node7&#45;&gt;Node4</title>
<path fill="none" stroke="midnightblue" d="M154.131,-75.7511C155.657,-82.8579 156.104,-93.1357 155.472,-102.101"/>
<polygon fill="midnightblue" stroke="midnightblue" points="151.993,-101.713 154.166,-112.083 158.934,-102.622 151.993,-101.713"/>
</g>
<!-- Node8&#45;&gt;Node3 -->
<g id="edge20" class="edge"><title>Node8&#45;&gt;Node3</title>
<path fill="none" stroke="midnightblue" d="M298.131,-131.751C299.657,-138.858 300.104,-149.136 299.472,-158.101"/>
<polygon fill="midnightblue" stroke="midnightblue" points="295.993,-157.713 298.166,-168.083 302.934,-158.622 295.993,-157.713"/>
</g>
</g>
</svg>
