<?xml version="1.0" encoding="UTF-8" standalone="no"?>
<!DOCTYPE svg PUBLIC "-//W3C//DTD SVG 1.1//EN"
 "http://www.w3.org/Graphics/SVG/1.1/DTD/svg11.dtd">
<!-- Generated by graphviz version 2.30.1 (20130221.2233)
 -->
<!-- Title: om/sinks/stream_sink.cpp Pages: 1 -->
<svg width="401pt" height="378pt"
 viewBox="0.00 0.00 401.00 378.00" xmlns="http://www.w3.org/2000/svg" xmlns:xlink="http://www.w3.org/1999/xlink">
<g id="graph0" class="graph" transform="scale(1 1) rotate(0) translate(4 374)">
<title>om/sinks/stream_sink.cpp</title>
<!-- Node1 -->
<g id="node1" class="node"><title>Node1</title>
<polygon fill="#bfbfbf" stroke="black" points="261.48,-349 261.48,-369 392.52,-369 392.52,-349 261.48,-349"/>
<text text-anchor="middle" x="327" y="-355" font-family="Helvetica,sans-Serif" font-size="10.00">om/sinks/stream_sink.cpp</text>
</g>
<!-- Node2 -->
<g id="node2" class="node"><title>Node2</title>
<g id="a_node2"><a xlink:href="stream__sink_8hpp.html" target="_top" xlink:title="Om header file. ">
<polygon fill="none" stroke="black" points="261.2,-291 261.2,-311 392.8,-311 392.8,-291 261.2,-291"/>
<text text-anchor="middle" x="327" y="-297" font-family="Helvetica,sans-Serif" font-size="10.00">om/sinks/stream_sink.hpp</text>
</a>
</g>
</g>
<!-- Node1&#45;&gt;Node2 -->
<g id="edge1" class="edge"><title>Node1&#45;&gt;Node2</title>
<path fill="none" stroke="midnightblue" d="M321.834,-348.753C320.308,-341.25 319.884,-330.424 320.564,-321.078"/>
<polygon fill="midnightblue" stroke="midnightblue" points="324.046,-321.444 321.869,-311.075 317.105,-320.538 324.046,-321.444"/>
</g>
<!-- Node3 -->
<g id="node3" class="node"><title>Node3</title>
<g id="a_node3"><a xlink:href="iterator__sink_8hpp.html" target="_top" xlink:title="Om header file. ">
<polygon fill="none" stroke="black" points="260.919,-233 260.919,-253 393.081,-253 393.081,-233 260.919,-233"/>
<text text-anchor="middle" x="327" y="-239" font-family="Helvetica,sans-Serif" font-size="10.00">om/sinks/iterator_sink.hpp</text>
</a>
</g>
</g>
<!-- Node2&#45;&gt;Node3 -->
<g id="edge2" class="edge"><title>Node2&#45;&gt;Node3</title>
<path fill="none" stroke="midnightblue" d="M327,-290.753C327,-283.25 327,-272.424 327,-263.078"/>
<polygon fill="midnightblue" stroke="midnightblue" points="330.5,-263.075 327,-253.075 323.5,-263.075 330.5,-263.075"/>
</g>
<!-- Node2&#45;&gt;Node1 -->
<g id="edge13" class="edge"><title>Node2&#45;&gt;Node1</title>
<path fill="none" stroke="midnightblue" d="M332.131,-311.075C333.674,-318.526 334.114,-329.338 333.451,-338.707"/>
<polygon fill="midnightblue" stroke="midnightblue" points="329.963,-338.389 332.166,-348.753 336.907,-339.278 329.963,-338.389"/>
</g>
<!-- Node4 -->
<g id="node4" class="node"><title>Node4</title>
<g id="a_node4"><a xlink:href="default__sink_8hpp.html" target="_top" xlink:title="Om header file. ">
<polygon fill="none" stroke="black" points="112.468,-175 112.468,-195 243.532,-195 243.532,-175 112.468,-175"/>
<text text-anchor="middle" x="178" y="-181" font-family="Helvetica,sans-Serif" font-size="10.00">om/sinks/default_sink.hpp</text>
</a>
</g>
</g>
<!-- Node3&#45;&gt;Node4 -->
<g id="edge3" class="edge"><title>Node3&#45;&gt;Node4</title>
<path fill="none" stroke="midnightblue" d="M302.729,-232.878C278.052,-223.603 239.613,-209.156 211.928,-198.752"/>
<polygon fill="midnightblue" stroke="midnightblue" points="212.853,-195.36 202.261,-195.118 210.39,-201.913 212.853,-195.36"/>
</g>
<!-- Node10 -->
<g id="node10" class="node"><title>Node10</title>
<g id="a_node10"><a xlink:href="iterator__sink_8cpp.html" target="_top" xlink:title="Om source file. ">
<polygon fill="none" stroke="black" points="261.2,-175 261.2,-195 392.8,-195 392.8,-175 261.2,-175"/>
<text text-anchor="middle" x="327" y="-181" font-family="Helvetica,sans-Serif" font-size="10.00">om/sinks/iterator_sink.cpp</text>
</a>
</g>
</g>
<!-- Node3&#45;&gt;Node10 -->
<g id="edge11" class="edge"><title>Node3&#45;&gt;Node10</title>
<path fill="none" stroke="midnightblue" d="M321.834,-232.753C320.308,-225.25 319.884,-214.424 320.564,-205.078"/>
<polygon fill="midnightblue" stroke="midnightblue" points="324.046,-205.444 321.869,-195.075 317.105,-204.538 324.046,-205.444"/>
</g>
<!-- Node5 -->
<g id="node5" class="node"><title>Node5</title>
<g id="a_node5"><a xlink:href="sink_8hpp.html" target="_top" xlink:title="Om header file. ">
<polygon fill="none" stroke="black" points="25.042,-117 25.042,-137 94.958,-137 94.958,-117 25.042,-117"/>
<text text-anchor="middle" x="60" y="-123" font-family="Helvetica,sans-Serif" font-size="10.00">om/sink.hpp</text>
</a>
</g>
</g>
<!-- Node4&#45;&gt;Node5 -->
<g id="edge4" class="edge"><title>Node4&#45;&gt;Node5</title>
<path fill="none" stroke="midnightblue" d="M158.779,-174.878C139.664,-165.807 110.124,-151.788 88.3238,-141.442"/>
<polygon fill="midnightblue" stroke="midnightblue" points="89.748,-138.244 79.2131,-137.118 86.7468,-144.568 89.748,-138.244"/>
</g>
<!-- Node9 -->
<g id="node9" class="node"><title>Node9</title>
<g id="a_node9"><a xlink:href="default__sink_8cpp.html" target="_top" xlink:title="Om source file. ">
<polygon fill="none" stroke="black" points="112.749,-117 112.749,-137 243.251,-137 243.251,-117 112.749,-117"/>
<text text-anchor="middle" x="178" y="-123" font-family="Helvetica,sans-Serif" font-size="10.00">om/sinks/default_sink.cpp</text>
</a>
</g>
</g>
<!-- Node4&#45;&gt;Node9 -->
<g id="edge9" class="edge"><title>Node4&#45;&gt;Node9</title>
<path fill="none" stroke="midnightblue" d="M172.834,-174.753C171.308,-167.25 170.884,-156.424 171.564,-147.078"/>
<polygon fill="midnightblue" stroke="midnightblue" points="175.046,-147.444 172.869,-137.075 168.105,-146.538 175.046,-147.444"/>
</g>
<!-- Node6 -->
<g id="node6" class="node"><title>Node6</title>
<g id="a_node6"><a xlink:href="sink_8cpp.html" target="_top" xlink:title="Om source file. ">
<polygon fill="none" stroke="black" points="25.3228,-59 25.3228,-79 94.6772,-79 94.6772,-59 25.3228,-59"/>
<text text-anchor="middle" x="60" y="-65" font-family="Helvetica,sans-Serif" font-size="10.00">om/sink.cpp</text>
</a>
</g>
</g>
<!-- Node5&#45;&gt;Node6 -->
<g id="edge5" class="edge"><title>Node5&#45;&gt;Node6</title>
<path fill="none" stroke="midnightblue" d="M54.8337,-116.753C53.3076,-109.25 52.8844,-98.4238 53.5643,-89.0781"/>
<polygon fill="midnightblue" stroke="midnightblue" points="57.0461,-89.4439 54.869,-79.0752 50.1049,-88.5385 57.0461,-89.4439"/>
</g>
<!-- Node7 -->
<g id="node7" class="node"><title>Node7</title>
<polygon fill="none" stroke="#bfbfbf" points="-0.115723,-1 -0.115723,-21 48.1157,-21 48.1157,-1 -0.115723,-1"/>
<text text-anchor="middle" x="24" y="-7" font-family="Helvetica,sans-Serif" font-size="10.00">cassert</text>
</g>
<!-- Node6&#45;&gt;Node7 -->
<g id="edge6" class="edge"><title>Node6&#45;&gt;Node7</title>
<path fill="none" stroke="midnightblue" d="M54.0553,-58.7527C48.9703,-50.8427 41.5096,-39.2372 35.2939,-29.5683"/>
<polygon fill="midnightblue" stroke="midnightblue" points="38.1858,-27.5943 29.8341,-21.0752 32.2975,-31.3797 38.1858,-27.5943"/>
</g>
<!-- Node8 -->
<g id="node8" class="node"><title>Node8</title>
<polygon fill="none" stroke="#bfbfbf" points="66.5986,-1 66.5986,-21 125.401,-21 125.401,-1 66.5986,-1"/>
<text text-anchor="middle" x="96" y="-7" font-family="Helvetica,sans-Serif" font-size="10.00">stdexcept</text>
</g>
<!-- Node6&#45;&gt;Node8 -->
<g id="edge7" class="edge"><title>Node6&#45;&gt;Node8</title>
<path fill="none" stroke="midnightblue" d="M65.9447,-58.7527C71.0297,-50.8427 78.4904,-39.2372 84.7061,-29.5683"/>
<polygon fill="midnightblue" stroke="midnightblue" points="87.7025,-31.3797 90.1659,-21.0752 81.8142,-27.5943 87.7025,-31.3797"/>
</g>
<!-- Node6&#45;&gt;Node5 -->
<g id="edge8" class="edge"><title>Node6&#45;&gt;Node5</title>
<path fill="none" stroke="midnightblue" d="M65.131,-79.0752C66.674,-86.5262 67.1141,-97.3384 66.4512,-106.707"/>
<polygon fill="midnightblue" stroke="midnightblue" points="62.9633,-106.389 65.1663,-116.753 69.9067,-107.278 62.9633,-106.389"/>
</g>
<!-- Node9&#45;&gt;Node4 -->
<g id="edge10" class="edge"><title>Node9&#45;&gt;Node4</title>
<path fill="none" stroke="midnightblue" d="M183.131,-137.075C184.674,-144.526 185.114,-155.338 184.451,-164.707"/>
<polygon fill="midnightblue" stroke="midnightblue" points="180.963,-164.389 183.166,-174.753 187.907,-165.278 180.963,-164.389"/>
</g>
<!-- Node10&#45;&gt;Node3 -->
<g id="edge12" class="edge"><title>Node10&#45;&gt;Node3</title>
<path fill="none" stroke="midnightblue" d="M332.131,-195.075C333.674,-202.526 334.114,-213.338 333.451,-222.707"/>
<polygon fill="midnightblue" stroke="midnightblue" points="329.963,-222.389 332.166,-232.753 336.907,-223.278 329.963,-222.389"/>
</g>
</g>
</svg>
