<?xml version="1.0" encoding="UTF-8" standalone="no"?>
<!DOCTYPE svg PUBLIC "-//W3C//DTD SVG 1.1//EN"
 "http://www.w3.org/Graphics/SVG/1.1/DTD/svg11.dtd">
<!-- Generated by graphviz version 2.28.0 (20120817.0054)
 -->
<!-- Title: code/om/sources/stream_source.cpp Pages: 1 -->
<svg width="228pt" height="288pt"
 viewBox="0.00 0.00 228.00 288.00" xmlns="http://www.w3.org/2000/svg" xmlns:xlink="http://www.w3.org/1999/xlink">
<g id="graph1" class="graph" transform="scale(1 1) rotate(0) translate(4 284)">
<title>code/om/sources/stream_source.cpp</title>
<!-- Node1 -->
<g id="node1" class="node"><title>Node1</title>
<polygon fill="#bfbfbf" stroke="black" points="86,-249 86,-279 206,-279 206,-249 86,-249"/>
<text text-anchor="start" x="94" y="-267" font-family="Helvetica,sans-Serif" font-size="10.00">code/om/sources/stream</text>
<text text-anchor="middle" x="146" y="-256" font-family="Helvetica,sans-Serif" font-size="10.00">_source.cpp</text>
</g>
<!-- Node2 -->
<g id="node3" class="node"><title>Node2</title>
<a xlink:href="stream__source_8hpp.html" target="_top" xlink:title="Om header file.">
<polygon fill="none" stroke="black" points="71.5,-192.5 71.5,-211.5 220.5,-211.5 220.5,-192.5 71.5,-192.5"/>
<text text-anchor="middle" x="146" y="-199.5" font-family="Helvetica,sans-Serif" font-size="10.00">om/sources/stream_source.hpp</text>
</a>
</g>
<!-- Node1&#45;&gt;Node2 -->
<g id="edge2" class="edge"><title>Node1&#45;&gt;Node2</title>
<path fill="none" stroke="midnightblue" d="M140.16,-248.781C139.13,-240.691 138.974,-230.462 139.693,-221.725"/>
<polygon fill="midnightblue" stroke="midnightblue" points="143.172,-222.115 141.071,-211.731 136.238,-221.159 143.172,-222.115"/>
</g>
<!-- Node2&#45;&gt;Node1 -->
<g id="edge16" class="edge"><title>Node2&#45;&gt;Node1</title>
<path fill="none" stroke="midnightblue" d="M150.929,-211.731C152.435,-218.786 153.007,-229.074 152.645,-238.586"/>
<polygon fill="midnightblue" stroke="midnightblue" points="149.138,-238.536 151.84,-248.781 156.116,-239.087 149.138,-238.536"/>
</g>
<!-- Node3 -->
<g id="node5" class="node"><title>Node3</title>
<a xlink:href="default__source_8hpp.html" target="_top" xlink:title="Om header file.">
<polygon fill="none" stroke="black" points="98,-125 98,-155 194,-155 194,-125 98,-125"/>
<text text-anchor="start" x="106" y="-143" font-family="Helvetica,sans-Serif" font-size="10.00">om/sources/default</text>
<text text-anchor="middle" x="146" y="-132" font-family="Helvetica,sans-Serif" font-size="10.00">_source.hpp</text>
</a>
</g>
<!-- Node2&#45;&gt;Node3 -->
<g id="edge4" class="edge"><title>Node2&#45;&gt;Node3</title>
<path fill="none" stroke="midnightblue" d="M146,-192.403C146,-185.341 146,-174.975 146,-165.399"/>
<polygon fill="midnightblue" stroke="midnightblue" points="149.5,-165.141 146,-155.141 142.5,-165.141 149.5,-165.141"/>
</g>
<!-- Node4 -->
<g id="node7" class="node"><title>Node4</title>
<a xlink:href="source_8hpp.html" target="_top" xlink:title="Om header file.">
<polygon fill="none" stroke="black" points="0,-62.5 0,-81.5 80,-81.5 80,-62.5 0,-62.5"/>
<text text-anchor="middle" x="40" y="-69.5" font-family="Helvetica,sans-Serif" font-size="10.00">om/source.hpp</text>
</a>
</g>
<!-- Node3&#45;&gt;Node4 -->
<g id="edge6" class="edge"><title>Node3&#45;&gt;Node4</title>
<path fill="none" stroke="midnightblue" d="M123.26,-124.841C105.337,-113.681 80.469,-98.1977 62.5853,-87.0625"/>
<polygon fill="midnightblue" stroke="midnightblue" points="64.2826,-83.9964 53.9436,-81.6819 60.5826,-89.9387 64.2826,-83.9964"/>
</g>
<!-- Node6 -->
<g id="node12" class="node"><title>Node6</title>
<a xlink:href="default__source_8cpp.html" target="_top" xlink:title="Om source file.">
<polygon fill="none" stroke="black" points="98,-57 98,-87 194,-87 194,-57 98,-57"/>
<text text-anchor="start" x="106" y="-75" font-family="Helvetica,sans-Serif" font-size="10.00">om/sources/default</text>
<text text-anchor="middle" x="146" y="-64" font-family="Helvetica,sans-Serif" font-size="10.00">_source.cpp</text>
</a>
</g>
<!-- Node3&#45;&gt;Node6 -->
<g id="edge12" class="edge"><title>Node3&#45;&gt;Node6</title>
<path fill="none" stroke="midnightblue" d="M140.322,-124.679C139.294,-116.722 139.005,-106.605 139.456,-97.4356"/>
<polygon fill="midnightblue" stroke="midnightblue" points="142.959,-97.5554 140.325,-87.2931 135.984,-96.9578 142.959,-97.5554"/>
</g>
<!-- Node5 -->
<g id="node9" class="node"><title>Node5</title>
<a xlink:href="source_8cpp.html" target="_top" xlink:title="Om source file.">
<polygon fill="none" stroke="black" points="0.5,-0.5 0.5,-19.5 79.5,-19.5 79.5,-0.5 0.5,-0.5"/>
<text text-anchor="middle" x="40" y="-7.5" font-family="Helvetica,sans-Serif" font-size="10.00">om/source.cpp</text>
</a>
</g>
<!-- Node4&#45;&gt;Node5 -->
<g id="edge8" class="edge"><title>Node4&#45;&gt;Node5</title>
<path fill="none" stroke="midnightblue" d="M35.0994,-62.4035C33.2684,-53.9381 32.797,-40.7283 33.6851,-29.8199"/>
<polygon fill="midnightblue" stroke="midnightblue" points="37.1982,-29.9661 35.1029,-19.5806 30.2644,-29.006 37.1982,-29.9661"/>
</g>
<!-- Node5&#45;&gt;Node4 -->
<g id="edge10" class="edge"><title>Node5&#45;&gt;Node4</title>
<path fill="none" stroke="midnightblue" d="M44.8971,-19.5806C46.7298,-28.04 47.203,-41.2482 46.3165,-52.1595"/>
<polygon fill="midnightblue" stroke="midnightblue" points="42.8028,-52.0184 44.9006,-62.4035 49.7369,-52.9769 42.8028,-52.0184"/>
</g>
<!-- Node6&#45;&gt;Node3 -->
<g id="edge14" class="edge"><title>Node6&#45;&gt;Node3</title>
<path fill="none" stroke="midnightblue" d="M151.675,-87.2931C152.704,-95.2449 152.995,-105.361 152.545,-114.532"/>
<polygon fill="midnightblue" stroke="midnightblue" points="149.042,-114.417 151.678,-124.679 156.017,-115.013 149.042,-114.417"/>
</g>
</g>
</svg>
