<?xml version="1.0" encoding="UTF-8" standalone="no"?>
<!DOCTYPE svg PUBLIC "-//W3C//DTD SVG 1.1//EN"
 "http://www.w3.org/Graphics/SVG/1.1/DTD/svg11.dtd">
<!-- Generated by graphviz version 2.34.0 (20130907.0228)
 -->
<!-- Title: om/sink/stream_sink.hpp Pages: 1 -->
<svg width="559pt" height="320pt"
 viewBox="0.00 0.00 559.00 320.00" xmlns="http://www.w3.org/2000/svg" xmlns:xlink="http://www.w3.org/1999/xlink">
<g id="graph0" class="graph" transform="scale(1 1) rotate(0) translate(4 316)">
<title>om/sink/stream_sink.hpp</title>
<!-- Node1 -->
<g id="node1" class="node"><title>Node1</title>
<polygon fill="#bfbfbf" stroke="black" points="424.7,-291 424.7,-311 551.3,-311 551.3,-291 424.7,-291"/>
<text text-anchor="middle" x="488" y="-297" font-family="Helvetica,sans-Serif" font-size="10.00">om/sink/stream_sink.hpp</text>
</g>
<!-- Node2 -->
<g id="node2" class="node"><title>Node2</title>
<g id="a_node2"><a xlink:href="iterator__sink_8hpp.html" target="_top" xlink:title="Om header file. ">
<polygon fill="none" stroke="black" points="279.419,-233 279.419,-253 406.581,-253 406.581,-233 279.419,-233"/>
<text text-anchor="middle" x="343" y="-239" font-family="Helvetica,sans-Serif" font-size="10.00">om/sink/iterator_sink.hpp</text>
</a>
</g>
</g>
<!-- Node1&#45;&gt;Node2 -->
<g id="edge1" class="edge"><title>Node1&#45;&gt;Node2</title>
<path fill="none" stroke="midnightblue" d="M464.381,-290.878C440.366,-281.603 402.959,-267.156 376.017,-256.752"/>
<polygon fill="midnightblue" stroke="midnightblue" points="377.199,-253.456 366.609,-253.118 374.677,-259.986 377.199,-253.456"/>
</g>
<!-- Node11 -->
<g id="node11" class="node"><title>Node11</title>
<g id="a_node11"><a xlink:href="stream__sink_8cpp.html" target="_top" xlink:title="Om source file. ">
<polygon fill="none" stroke="black" points="424.98,-233 424.98,-253 551.02,-253 551.02,-233 424.98,-233"/>
<text text-anchor="middle" x="488" y="-239" font-family="Helvetica,sans-Serif" font-size="10.00">om/sink/stream_sink.cpp</text>
</a>
</g>
</g>
<!-- Node1&#45;&gt;Node11 -->
<g id="edge13" class="edge"><title>Node1&#45;&gt;Node11</title>
<path fill="none" stroke="midnightblue" d="M482.834,-290.753C481.308,-283.25 480.884,-272.424 481.564,-263.078"/>
<polygon fill="midnightblue" stroke="midnightblue" points="485.046,-263.444 482.869,-253.075 478.105,-262.538 485.046,-263.444"/>
</g>
<!-- Node3 -->
<g id="node3" class="node"><title>Node3</title>
<g id="a_node3"><a xlink:href="default__sink_8hpp.html" target="_top" xlink:title="Om header file. ">
<polygon fill="none" stroke="black" points="135.968,-175 135.968,-195 262.032,-195 262.032,-175 135.968,-175"/>
<text text-anchor="middle" x="199" y="-181" font-family="Helvetica,sans-Serif" font-size="10.00">om/sink/default_sink.hpp</text>
</a>
</g>
</g>
<!-- Node2&#45;&gt;Node3 -->
<g id="edge2" class="edge"><title>Node2&#45;&gt;Node3</title>
<path fill="none" stroke="midnightblue" d="M319.543,-232.878C295.695,-223.603 258.545,-209.156 231.79,-198.752"/>
<polygon fill="midnightblue" stroke="midnightblue" points="233.035,-195.481 222.447,-195.118 230.498,-202.005 233.035,-195.481"/>
</g>
<!-- Node10 -->
<g id="node10" class="node"><title>Node10</title>
<g id="a_node10"><a xlink:href="iterator__sink_8cpp.html" target="_top" xlink:title="Om source file. ">
<polygon fill="none" stroke="black" points="279.7,-175 279.7,-195 406.3,-195 406.3,-175 279.7,-175"/>
<text text-anchor="middle" x="343" y="-181" font-family="Helvetica,sans-Serif" font-size="10.00">om/sink/iterator_sink.cpp</text>
</a>
</g>
</g>
<!-- Node2&#45;&gt;Node10 -->
<g id="edge11" class="edge"><title>Node2&#45;&gt;Node10</title>
<path fill="none" stroke="midnightblue" d="M337.834,-232.753C336.308,-225.25 335.884,-214.424 336.564,-205.078"/>
<polygon fill="midnightblue" stroke="midnightblue" points="340.046,-205.444 337.869,-195.075 333.105,-204.538 340.046,-205.444"/>
</g>
<!-- Node4 -->
<g id="node4" class="node"><title>Node4</title>
<g id="a_node4"><a xlink:href="sink_2sink_8hpp.html" target="_top" xlink:title="Om header file. ">
<polygon fill="none" stroke="black" points="14.7612,-117 14.7612,-137 105.239,-137 105.239,-117 14.7612,-117"/>
<text text-anchor="middle" x="60" y="-123" font-family="Helvetica,sans-Serif" font-size="10.00">om/sink/sink.hpp</text>
</a>
</g>
</g>
<!-- Node3&#45;&gt;Node4 -->
<g id="edge3" class="edge"><title>Node3&#45;&gt;Node4</title>
<path fill="none" stroke="midnightblue" d="M176.358,-174.878C153.438,-165.644 117.792,-151.283 91.9915,-140.889"/>
<polygon fill="midnightblue" stroke="midnightblue" points="93.2159,-137.609 82.6324,-137.118 90.6,-144.102 93.2159,-137.609"/>
</g>
<!-- Node8 -->
<g id="node8" class="node"><title>Node8</title>
<polygon fill="none" stroke="#bfbfbf" points="123.438,-117 123.438,-137 170.562,-137 170.562,-117 123.438,-117"/>
<text text-anchor="middle" x="147" y="-123" font-family="Helvetica,sans-Serif" font-size="10.00">iterator</text>
</g>
<!-- Node3&#45;&gt;Node8 -->
<g id="edge8" class="edge"><title>Node3&#45;&gt;Node8</title>
<path fill="none" stroke="midnightblue" d="M190.413,-174.753C182.841,-166.598 171.622,-154.516 162.486,-144.677"/>
<polygon fill="midnightblue" stroke="midnightblue" points="164.796,-142.022 155.427,-137.075 159.667,-146.785 164.796,-142.022"/>
</g>
<!-- Node9 -->
<g id="node9" class="node"><title>Node9</title>
<g id="a_node9"><a xlink:href="default__sink_8cpp.html" target="_top" xlink:title="Om source file. ">
<polygon fill="none" stroke="black" points="188.249,-117 188.249,-137 313.751,-137 313.751,-117 188.249,-117"/>
<text text-anchor="middle" x="251" y="-123" font-family="Helvetica,sans-Serif" font-size="10.00">om/sink/default_sink.cpp</text>
</a>
</g>
</g>
<!-- Node3&#45;&gt;Node9 -->
<g id="edge9" class="edge"><title>Node3&#45;&gt;Node9</title>
<path fill="none" stroke="midnightblue" d="M202.42,-174.753C208.452,-166.435 219.634,-154.031 229.885,-144.089"/>
<polygon fill="midnightblue" stroke="midnightblue" points="232.494,-146.443 237.442,-137.075 227.732,-141.313 232.494,-146.443"/>
</g>
<!-- Node5 -->
<g id="node5" class="node"><title>Node5</title>
<g id="a_node5"><a xlink:href="sink_2sink_8cpp.html" target="_top" xlink:title="Om source file. ">
<polygon fill="none" stroke="black" points="15.042,-59 15.042,-79 104.958,-79 104.958,-59 15.042,-59"/>
<text text-anchor="middle" x="60" y="-65" font-family="Helvetica,sans-Serif" font-size="10.00">om/sink/sink.cpp</text>
</a>
</g>
</g>
<!-- Node4&#45;&gt;Node5 -->
<g id="edge4" class="edge"><title>Node4&#45;&gt;Node5</title>
<path fill="none" stroke="midnightblue" d="M54.8337,-116.753C53.3076,-109.25 52.8844,-98.4238 53.5643,-89.0781"/>
<polygon fill="midnightblue" stroke="midnightblue" points="57.0461,-89.4439 54.869,-79.0752 50.1049,-88.5385 57.0461,-89.4439"/>
</g>
<!-- Node5&#45;&gt;Node4 -->
<g id="edge7" class="edge"><title>Node5&#45;&gt;Node4</title>
<path fill="none" stroke="midnightblue" d="M65.131,-79.0752C66.674,-86.5262 67.1141,-97.3384 66.4512,-106.707"/>
<polygon fill="midnightblue" stroke="midnightblue" points="62.9633,-106.389 65.1663,-116.753 69.9067,-107.278 62.9633,-106.389"/>
</g>
<!-- Node6 -->
<g id="node6" class="node"><title>Node6</title>
<polygon fill="none" stroke="#bfbfbf" points="-0.115723,-1 -0.115723,-21 48.1157,-21 48.1157,-1 -0.115723,-1"/>
<text text-anchor="middle" x="24" y="-7" font-family="Helvetica,sans-Serif" font-size="10.00">cassert</text>
</g>
<!-- Node5&#45;&gt;Node6 -->
<g id="edge5" class="edge"><title>Node5&#45;&gt;Node6</title>
<path fill="none" stroke="midnightblue" d="M54.0553,-58.7527C48.9703,-50.8427 41.5096,-39.2372 35.2939,-29.5683"/>
<polygon fill="midnightblue" stroke="midnightblue" points="38.1858,-27.5943 29.8341,-21.0752 32.2975,-31.3797 38.1858,-27.5943"/>
</g>
<!-- Node7 -->
<g id="node7" class="node"><title>Node7</title>
<polygon fill="none" stroke="#bfbfbf" points="66.5986,-1 66.5986,-21 125.401,-21 125.401,-1 66.5986,-1"/>
<text text-anchor="middle" x="96" y="-7" font-family="Helvetica,sans-Serif" font-size="10.00">stdexcept</text>
</g>
<!-- Node5&#45;&gt;Node7 -->
<g id="edge6" class="edge"><title>Node5&#45;&gt;Node7</title>
<path fill="none" stroke="midnightblue" d="M65.9447,-58.7527C71.0297,-50.8427 78.4904,-39.2372 84.7061,-29.5683"/>
<polygon fill="midnightblue" stroke="midnightblue" points="87.7025,-31.3797 90.1659,-21.0752 81.8142,-27.5943 87.7025,-31.3797"/>
</g>
<!-- Node9&#45;&gt;Node3 -->
<g id="edge10" class="edge"><title>Node9&#45;&gt;Node3</title>
<path fill="none" stroke="midnightblue" d="M247.704,-137.075C241.744,-145.336 230.592,-157.729 220.328,-167.704"/>
<polygon fill="midnightblue" stroke="midnightblue" points="217.69,-165.378 212.753,-174.753 222.458,-170.503 217.69,-165.378"/>
</g>
<!-- Node10&#45;&gt;Node2 -->
<g id="edge12" class="edge"><title>Node10&#45;&gt;Node2</title>
<path fill="none" stroke="midnightblue" d="M348.131,-195.075C349.674,-202.526 350.114,-213.338 349.451,-222.707"/>
<polygon fill="midnightblue" stroke="midnightblue" points="345.963,-222.389 348.166,-232.753 352.907,-223.278 345.963,-222.389"/>
</g>
<!-- Node11&#45;&gt;Node1 -->
<g id="edge14" class="edge"><title>Node11&#45;&gt;Node1</title>
<path fill="none" stroke="midnightblue" d="M493.131,-253.075C494.674,-260.526 495.114,-271.338 494.451,-280.707"/>
<polygon fill="midnightblue" stroke="midnightblue" points="490.963,-280.389 493.166,-290.753 497.907,-281.278 490.963,-280.389"/>
</g>
</g>
</svg>
