<?xml version="1.0" encoding="UTF-8" standalone="no"?>
<!DOCTYPE svg PUBLIC "-//W3C//DTD SVG 1.1//EN"
 "http://www.w3.org/Graphics/SVG/1.1/DTD/svg11.dtd">
<!-- Generated by graphviz version 2.28.0 (20120817.0054)
 -->
<!-- Title: Om::Form::OperandRange&lt; Operand const &#160;&gt; Pages: 1 -->
<svg width="960pt" height="126pt"
 viewBox="0.00 0.00 960.00 126.00" xmlns="http://www.w3.org/2000/svg" xmlns:xlink="http://www.w3.org/1999/xlink">
<g id="graph1" class="graph" transform="scale(1 1) rotate(0) translate(4 122)">
<title>Om::Form::OperandRange&lt; Operand const &#160;&gt;</title>
<!-- Node1 -->
<g id="node1" class="node"><title>Node1</title>
<polygon fill="#bfbfbf" stroke="black" points="822.5,-24 822.5,-54 951.5,-54 951.5,-24 822.5,-24"/>
<text text-anchor="start" x="830.5" y="-42" font-family="Helvetica,sans-Serif" font-size="10.00">Om::Form::OperandRange</text>
<text text-anchor="middle" x="887" y="-31" font-family="Helvetica,sans-Serif" font-size="10.00">&lt; Operand const &gt;</text>
</g>
<!-- Node2 -->
<g id="node2" class="node"><title>Node2</title>
<a xlink:href="struct_om_1_1_sources_1_1_collection_front_source.html" target="_top" xlink:title="Om::Sources::CollectionFront\lSource\&lt; Operand const, OperandDeque\l::const_iterator \&gt;">
<polygon fill="none" stroke="black" points="594,-18.5 594,-59.5 784,-59.5 784,-18.5 594,-18.5"/>
<text text-anchor="start" x="602" y="-47.5" font-family="Helvetica,sans-Serif" font-size="10.00">Om::Sources::CollectionFront</text>
<text text-anchor="start" x="602" y="-36.5" font-family="Helvetica,sans-Serif" font-size="10.00">Source&lt; Operand const, OperandDeque</text>
<text text-anchor="middle" x="689" y="-25.5" font-family="Helvetica,sans-Serif" font-size="10.00">::const_iterator &gt;</text>
</a>
</g>
<!-- Node2&#45;&gt;Node1 -->
<g id="edge2" class="edge"><title>Node2&#45;&gt;Node1</title>
<path fill="none" stroke="midnightblue" d="M794.283,-39C803.879,-39 813.395,-39 822.46,-39"/>
<polygon fill="midnightblue" stroke="midnightblue" points="794.268,-35.5001 784.268,-39 794.268,-42.5001 794.268,-35.5001"/>
</g>
<!-- Node3 -->
<g id="node4" class="node"><title>Node3</title>
<a xlink:href="struct_om_1_1_sources_1_1_iterator_pair_source.html" target="_top" xlink:title="Om::Sources::IteratorPair\lSource\&lt; Operand const ,\l OperandDeque::const_iterator \&gt;">
<polygon fill="none" stroke="black" points="402,-18.5 402,-59.5 556,-59.5 556,-18.5 402,-18.5"/>
<text text-anchor="start" x="410" y="-47.5" font-family="Helvetica,sans-Serif" font-size="10.00">Om::Sources::IteratorPair</text>
<text text-anchor="start" x="410" y="-36.5" font-family="Helvetica,sans-Serif" font-size="10.00">Source&lt; Operand const ,</text>
<text text-anchor="middle" x="479" y="-25.5" font-family="Helvetica,sans-Serif" font-size="10.00"> OperandDeque::const_iterator &gt;</text>
</a>
</g>
<!-- Node3&#45;&gt;Node2 -->
<g id="edge4" class="edge"><title>Node3&#45;&gt;Node2</title>
<path fill="none" stroke="midnightblue" d="M566.365,-39C575.387,-39 584.592,-39 593.697,-39"/>
<polygon fill="midnightblue" stroke="midnightblue" points="566.27,-35.5001 556.27,-39 566.27,-42.5001 566.27,-35.5001"/>
</g>
<!-- Node4 -->
<g id="node6" class="node"><title>Node4</title>
<a xlink:href="struct_om_1_1_sources_1_1_default_source.html" target="_top" xlink:title="Om::Sources::DefaultSource\l\&lt; Operand const , IteratorPairSource\l\&lt; Operand const , OperandDeque\l::const_iterator \&gt; \&gt;">
<polygon fill="none" stroke="black" points="152,-49 152,-101 322,-101 322,-49 152,-49"/>
<text text-anchor="start" x="160" y="-89" font-family="Helvetica,sans-Serif" font-size="10.00">Om::Sources::DefaultSource</text>
<text text-anchor="start" x="160" y="-78" font-family="Helvetica,sans-Serif" font-size="10.00">&lt; Operand const , IteratorPairSource</text>
<text text-anchor="start" x="160" y="-67" font-family="Helvetica,sans-Serif" font-size="10.00">&lt; Operand const , OperandDeque</text>
<text text-anchor="middle" x="237" y="-56" font-family="Helvetica,sans-Serif" font-size="10.00">::const_iterator &gt; &gt;</text>
</a>
</g>
<!-- Node4&#45;&gt;Node3 -->
<g id="edge6" class="edge"><title>Node4&#45;&gt;Node3</title>
<path fill="none" stroke="midnightblue" d="M332.417,-60.8375C355.477,-57.3785 379.859,-53.7211 401.939,-50.4092"/>
<polygon fill="midnightblue" stroke="midnightblue" points="331.648,-57.4136 322.278,-62.3584 332.686,-64.3362 331.648,-57.4136"/>
</g>
<!-- Node5 -->
<g id="node8" class="node"><title>Node5</title>
<a xlink:href="struct_om_1_1_source.html" target="_top" xlink:title="Om::Source\&lt; Operand\l const &#160;\&gt;">
<polygon fill="none" stroke="black" points="0.5,-88 0.5,-118 113.5,-118 113.5,-88 0.5,-88"/>
<text text-anchor="start" x="8.5" y="-106" font-family="Helvetica,sans-Serif" font-size="10.00">Om::Source&lt; Operand</text>
<text text-anchor="middle" x="57" y="-95" font-family="Helvetica,sans-Serif" font-size="10.00"> const &gt;</text>
</a>
</g>
<!-- Node5&#45;&gt;Node4 -->
<g id="edge8" class="edge"><title>Node5&#45;&gt;Node4</title>
<path fill="none" stroke="midnightblue" d="M123.891,-92.6352C132.948,-91.2104 142.349,-89.7316 151.681,-88.2636"/>
<polygon fill="midnightblue" stroke="midnightblue" points="123.167,-89.206 113.832,-94.2174 124.254,-96.1209 123.167,-89.206"/>
</g>
<!-- Node6 -->
<g id="node10" class="node"><title>Node6</title>
<a xlink:href="classstd_1_1iterator.html" target="_top" xlink:title="std::iterator\&lt; std\l::input_iterator_tag,\l Operand const &#160;\&gt;">
<polygon fill="none" stroke="black" points="9.5,-27.5 9.5,-68.5 104.5,-68.5 104.5,-27.5 9.5,-27.5"/>
<text text-anchor="start" x="17.5" y="-56.5" font-family="Helvetica,sans-Serif" font-size="10.00">std::iterator&lt; std</text>
<text text-anchor="start" x="17.5" y="-45.5" font-family="Helvetica,sans-Serif" font-size="10.00">::input_iterator_tag,</text>
<text text-anchor="middle" x="57" y="-34.5" font-family="Helvetica,sans-Serif" font-size="10.00"> Operand const &gt;</text>
</a>
</g>
<!-- Node6&#45;&gt;Node4 -->
<g id="edge10" class="edge"><title>Node6&#45;&gt;Node4</title>
<path fill="none" stroke="midnightblue" d="M114.841,-56.6219C126.584,-58.4033 139.191,-60.3155 151.675,-62.2092"/>
<polygon fill="midnightblue" stroke="midnightblue" points="115.179,-53.1333 104.767,-55.0939 114.129,-60.0541 115.179,-53.1333"/>
</g>
<!-- Node7 -->
<g id="node12" class="node"><title>Node7</title>
<a xlink:title="STL iterator class.">
<polygon fill="none" stroke="#bfbfbf" points="182.5,-0 182.5,-30 291.5,-30 291.5,-0 182.5,-0"/>
<text text-anchor="start" x="190.5" y="-18" font-family="Helvetica,sans-Serif" font-size="10.00">std::deque&lt; T &gt;::const</text>
<text text-anchor="middle" x="237" y="-7" font-family="Helvetica,sans-Serif" font-size="10.00">_iterator</text>
</a>
</g>
<!-- Node7&#45;&gt;Node3 -->
<g id="edge12" class="edge"><title>Node7&#45;&gt;Node3</title>
<path fill="none" stroke="#9a32cd" stroke-dasharray="5,2" d="M302.086,-19.6408C327.6,-21.652 357.212,-24.1906 384,-27 389.809,-27.6092 395.814,-28.2801 401.849,-28.9841"/>
<polygon fill="#9a32cd" stroke="#9a32cd" points="302.033,-16.1262 291.792,-18.8403 301.49,-23.1051 302.033,-16.1262"/>
<text text-anchor="middle" x="362" y="-41" font-family="Helvetica,sans-Serif" font-size="10.00"> thisEnd</text>
<text text-anchor="middle" x="362" y="-30" font-family="Helvetica,sans-Serif" font-size="10.00">thisIterator</text>
</g>
</g>
</svg>
