<?xml version="1.0" encoding="UTF-8" standalone="no"?>
<!DOCTYPE svg PUBLIC "-//W3C//DTD SVG 1.1//EN"
 "http://www.w3.org/Graphics/SVG/1.1/DTD/svg11.dtd">
<!-- Generated by graphviz version 2.28.0 (20120817.0054)
 -->
<!-- Title: Om::Taker&lt; ThisImplementation &gt; Pages: 1 -->
<svg width="742pt" height="110pt"
 viewBox="0.00 0.00 742.00 110.00" xmlns="http://www.w3.org/2000/svg" xmlns:xlink="http://www.w3.org/1999/xlink">
<g id="graph1" class="graph" transform="scale(1 1) rotate(0) translate(4 106)">
<title>Om::Taker&lt; ThisImplementation &gt;</title>
<!-- Node1 -->
<g id="node1" class="node"><title>Node1</title>
<polygon fill="#bfbfbf" stroke="black" points="0.5,-42.5 0.5,-61.5 157.5,-61.5 157.5,-42.5 0.5,-42.5"/>
<text text-anchor="middle" x="79" y="-49.5" font-family="Helvetica,sans-Serif" font-size="10.00">Om::Taker&lt; ThisImplementation &gt;</text>
</g>
<!-- Node2 -->
<g id="node3" class="node"><title>Node2</title>
<a xlink:href="struct_om_1_1_default_program.html" target="_top" xlink:title="DefaultProgram\&lt; ThisImplementation,\l Atom \&gt;">
<polygon fill="none" stroke="black" points="194.5,-63 194.5,-93 367.5,-93 367.5,-63 194.5,-63"/>
<text text-anchor="start" x="202.5" y="-81" font-family="Helvetica,sans-Serif" font-size="10.00">DefaultProgram&lt; ThisImplementation,</text>
<text text-anchor="middle" x="281" y="-70" font-family="Helvetica,sans-Serif" font-size="10.00"> Atom &gt;</text>
</a>
</g>
<!-- Node1&#45;&gt;Node2 -->
<g id="edge2" class="edge"><title>Node1&#45;&gt;Node2</title>
<path fill="none" stroke="midnightblue" d="M163.483,-62.8528C173.724,-64.1842 184.204,-65.5465 194.475,-66.8817"/>
<polygon fill="midnightblue" stroke="midnightblue" points="163.705,-59.3522 153.337,-61.5338 162.802,-66.2938 163.705,-59.3522"/>
</g>
<!-- Node5 -->
<g id="node9" class="node"><title>Node5</title>
<a xlink:href="struct_om_1_1_default_program.html" target="_top" xlink:title="Om::DefaultProgram\l\&lt; ThisImplementation \&gt;">
<polygon fill="none" stroke="black" points="224.5,-11 224.5,-41 337.5,-41 337.5,-11 224.5,-11"/>
<text text-anchor="start" x="232.5" y="-29" font-family="Helvetica,sans-Serif" font-size="10.00">Om::DefaultProgram</text>
<text text-anchor="middle" x="281" y="-18" font-family="Helvetica,sans-Serif" font-size="10.00">&lt; ThisImplementation &gt;</text>
</a>
</g>
<!-- Node1&#45;&gt;Node5 -->
<g id="edge8" class="edge"><title>Node1&#45;&gt;Node5</title>
<path fill="none" stroke="midnightblue" d="M163.323,-41.168C183.854,-38.4989 205.351,-35.7044 224.218,-33.2516"/>
<polygon fill="midnightblue" stroke="midnightblue" points="162.802,-37.7062 153.337,-42.4662 163.705,-44.6478 162.802,-37.7062"/>
</g>
<!-- Node3 -->
<g id="node5" class="node"><title>Node3</title>
<a xlink:href="struct_om_1_1_default_element.html" target="_top" xlink:title="Om::DefaultElement\l\&lt; ThisImplementation,\l Atom \&gt;">
<polygon fill="none" stroke="black" points="404.5,-60.5 404.5,-101.5 511.5,-101.5 511.5,-60.5 404.5,-60.5"/>
<text text-anchor="start" x="412.5" y="-89.5" font-family="Helvetica,sans-Serif" font-size="10.00">Om::DefaultElement</text>
<text text-anchor="start" x="412.5" y="-78.5" font-family="Helvetica,sans-Serif" font-size="10.00">&lt; ThisImplementation,</text>
<text text-anchor="middle" x="458" y="-67.5" font-family="Helvetica,sans-Serif" font-size="10.00"> Atom &gt;</text>
</a>
</g>
<!-- Node2&#45;&gt;Node3 -->
<g id="edge4" class="edge"><title>Node2&#45;&gt;Node3</title>
<path fill="none" stroke="midnightblue" d="M377.926,-79.6444C386.951,-79.7992 395.855,-79.9518 404.249,-80.0957"/>
<polygon fill="midnightblue" stroke="midnightblue" points="377.764,-76.1413 367.706,-79.4692 377.644,-83.1402 377.764,-76.1413"/>
</g>
<!-- Node4 -->
<g id="node7" class="node"><title>Node4</title>
<a xlink:href="struct_om_1_1_default_atom.html" target="_top" xlink:title="Om::DefaultAtom\&lt; ThisImplementation \&gt;">
<polygon fill="none" stroke="black" points="548.5,-71.5 548.5,-90.5 733.5,-90.5 733.5,-71.5 548.5,-71.5"/>
<text text-anchor="middle" x="641" y="-78.5" font-family="Helvetica,sans-Serif" font-size="10.00">Om::DefaultAtom&lt; ThisImplementation &gt;</text>
</a>
</g>
<!-- Node3&#45;&gt;Node4 -->
<g id="edge6" class="edge"><title>Node3&#45;&gt;Node4</title>
<path fill="none" stroke="midnightblue" d="M522.016,-81C530.524,-81 539.39,-81 548.272,-81"/>
<polygon fill="midnightblue" stroke="midnightblue" points="521.839,-77.5001 511.839,-81 521.839,-84.5001 521.839,-77.5001"/>
</g>
<!-- Node6 -->
<g id="node11" class="node"><title>Node6</title>
<a xlink:href="struct_om_1_1_default_element.html" target="_top" xlink:title="Om::DefaultElement\l\&lt; ThisImplementation,\l ThisInterface \&gt;">
<polygon fill="none" stroke="black" points="404.5,-0.5 404.5,-41.5 511.5,-41.5 511.5,-0.5 404.5,-0.5"/>
<text text-anchor="start" x="412.5" y="-29.5" font-family="Helvetica,sans-Serif" font-size="10.00">Om::DefaultElement</text>
<text text-anchor="start" x="412.5" y="-18.5" font-family="Helvetica,sans-Serif" font-size="10.00">&lt; ThisImplementation,</text>
<text text-anchor="middle" x="458" y="-7.5" font-family="Helvetica,sans-Serif" font-size="10.00"> ThisInterface &gt;</text>
</a>
</g>
<!-- Node5&#45;&gt;Node6 -->
<g id="edge10" class="edge"><title>Node5&#45;&gt;Node6</title>
<path fill="none" stroke="midnightblue" d="M348.028,-24.1135C366.643,-23.5816 386.639,-23.0103 404.356,-22.5041"/>
<polygon fill="midnightblue" stroke="midnightblue" points="347.748,-20.62 337.852,-24.4042 347.948,-27.6171 347.748,-20.62"/>
</g>
</g>
</svg>
