<?xml version="1.0" encoding="UTF-8" standalone="no"?>
<!DOCTYPE svg PUBLIC "-//W3C//DTD SVG 1.1//EN"
 "http://www.w3.org/Graphics/SVG/1.1/DTD/svg11.dtd">
<!-- Generated by graphviz version 2.28.0 (20120817.0054)
 -->
<!-- Title: Om::Sources::IteratorPairSource&lt; ThisItem, ThisIterator &gt; Pages: 1 -->
<svg width="668pt" height="93pt"
 viewBox="0.00 0.00 668.00 93.00" xmlns="http://www.w3.org/2000/svg" xmlns:xlink="http://www.w3.org/1999/xlink">
<g id="graph1" class="graph" transform="scale(1 1) rotate(0) translate(4 89)">
<title>Om::Sources::IteratorPairSource&lt; ThisItem, ThisIterator &gt;</title>
<!-- Node1 -->
<g id="node1" class="node"><title>Node1</title>
<polygon fill="#bfbfbf" stroke="black" points="328.5,-30 328.5,-60 475.5,-60 475.5,-30 328.5,-30"/>
<text text-anchor="start" x="336.5" y="-48" font-family="Helvetica,sans-Serif" font-size="10.00">Om::Sources::IteratorPair</text>
<text text-anchor="middle" x="402" y="-37" font-family="Helvetica,sans-Serif" font-size="10.00">Source&lt; ThisItem, ThisIterator &gt;</text>
</g>
<!-- Node5 -->
<g id="node9" class="node"><title>Node5</title>
<a xlink:href="struct_om_1_1_sources_1_1_collection_back_source.html" target="_top" xlink:title="A range over a collection, starting from the back.">
<polygon fill="none" stroke="black" points="512.5,-55 512.5,-85 659.5,-85 659.5,-55 512.5,-55"/>
<text text-anchor="start" x="520.5" y="-73" font-family="Helvetica,sans-Serif" font-size="10.00">Om::Sources::CollectionBack</text>
<text text-anchor="middle" x="586" y="-62" font-family="Helvetica,sans-Serif" font-size="10.00">Source&lt; ThisItem, ThisIterator &gt;</text>
</a>
</g>
<!-- Node1&#45;&gt;Node5 -->
<g id="edge8" class="edge"><title>Node1&#45;&gt;Node5</title>
<path fill="none" stroke="midnightblue" d="M485.707,-56.3608C494.613,-57.5842 503.625,-58.8222 512.4,-60.0274"/>
<polygon fill="midnightblue" stroke="midnightblue" points="486.099,-52.8819 475.716,-54.9884 485.147,-59.8168 486.099,-52.8819"/>
</g>
<!-- Node6 -->
<g id="node11" class="node"><title>Node6</title>
<a xlink:href="struct_om_1_1_sources_1_1_collection_front_source.html" target="_top" xlink:title="A range over a collection, starting from the front.">
<polygon fill="none" stroke="black" points="512.5,-6 512.5,-36 659.5,-36 659.5,-6 512.5,-6"/>
<text text-anchor="start" x="520.5" y="-24" font-family="Helvetica,sans-Serif" font-size="10.00">Om::Sources::CollectionFront</text>
<text text-anchor="middle" x="586" y="-13" font-family="Helvetica,sans-Serif" font-size="10.00">Source&lt; ThisItem, ThisIterator &gt;</text>
</a>
</g>
<!-- Node1&#45;&gt;Node6 -->
<g id="edge10" class="edge"><title>Node1&#45;&gt;Node6</title>
<path fill="none" stroke="midnightblue" d="M485.707,-34.0936C494.613,-32.9192 503.625,-31.7307 512.4,-30.5737"/>
<polygon fill="midnightblue" stroke="midnightblue" points="485.172,-30.6337 475.716,-35.4111 486.088,-37.5736 485.172,-30.6337"/>
</g>
<!-- Node2 -->
<g id="node2" class="node"><title>Node2</title>
<a xlink:href="struct_om_1_1_sources_1_1_default_source.html" target="_top" xlink:title="Om::Sources::DefaultSource\l\&lt; ThisItem, IteratorPairSource\l\&lt; ThisItem, ThisIterator \&gt; \&gt;">
<polygon fill="none" stroke="black" points="154,-24.5 154,-65.5 292,-65.5 292,-24.5 154,-24.5"/>
<text text-anchor="start" x="162" y="-53.5" font-family="Helvetica,sans-Serif" font-size="10.00">Om::Sources::DefaultSource</text>
<text text-anchor="start" x="162" y="-42.5" font-family="Helvetica,sans-Serif" font-size="10.00">&lt; ThisItem, IteratorPairSource</text>
<text text-anchor="middle" x="223" y="-31.5" font-family="Helvetica,sans-Serif" font-size="10.00">&lt; ThisItem, ThisIterator &gt; &gt;</text>
</a>
</g>
<!-- Node2&#45;&gt;Node1 -->
<g id="edge2" class="edge"><title>Node2&#45;&gt;Node1</title>
<path fill="none" stroke="midnightblue" d="M302.306,-45C311.002,-45 319.831,-45 328.452,-45"/>
<polygon fill="midnightblue" stroke="midnightblue" points="302.18,-41.5001 292.18,-45 302.18,-48.5001 302.18,-41.5001"/>
</g>
<!-- Node3 -->
<g id="node4" class="node"><title>Node3</title>
<a xlink:href="struct_om_1_1_source.html" target="_top" xlink:title="Any object that items can be pulled from.">
<polygon fill="none" stroke="black" points="0.5,-60.5 0.5,-79.5 117.5,-79.5 117.5,-60.5 0.5,-60.5"/>
<text text-anchor="middle" x="59" y="-67.5" font-family="Helvetica,sans-Serif" font-size="10.00">Om::Source&lt; ThisItem &gt;</text>
</a>
</g>
<!-- Node3&#45;&gt;Node2 -->
<g id="edge4" class="edge"><title>Node3&#45;&gt;Node2</title>
<path fill="none" stroke="midnightblue" d="M127.616,-59.5655C136.275,-58.2292 145.144,-56.8604 153.813,-55.5227"/>
<polygon fill="midnightblue" stroke="midnightblue" points="126.92,-56.1312 117.571,-61.1155 127.988,-63.0494 126.92,-56.1312"/>
</g>
<!-- Node4 -->
<g id="node6" class="node"><title>Node4</title>
<a xlink:href="classstd_1_1iterator.html" target="_top" xlink:title="std::iterator\&lt; std\l::input_iterator_tag,\l ThisItem \&gt;">
<polygon fill="none" stroke="black" points="11.5,-0.5 11.5,-41.5 106.5,-41.5 106.5,-0.5 11.5,-0.5"/>
<text text-anchor="start" x="19.5" y="-29.5" font-family="Helvetica,sans-Serif" font-size="10.00">std::iterator&lt; std</text>
<text text-anchor="start" x="19.5" y="-18.5" font-family="Helvetica,sans-Serif" font-size="10.00">::input_iterator_tag,</text>
<text text-anchor="middle" x="59" y="-7.5" font-family="Helvetica,sans-Serif" font-size="10.00"> ThisItem &gt;</text>
</a>
</g>
<!-- Node4&#45;&gt;Node2 -->
<g id="edge6" class="edge"><title>Node4&#45;&gt;Node2</title>
<path fill="none" stroke="midnightblue" d="M117.081,-29.4565C128.97,-31.2178 141.615,-33.0911 153.857,-34.9047"/>
<polygon fill="midnightblue" stroke="midnightblue" points="117.262,-25.9452 106.857,-27.9418 116.236,-32.8696 117.262,-25.9452"/>
</g>
</g>
</svg>
