<?xml version="1.0" encoding="UTF-8" standalone="no"?>
<!DOCTYPE svg PUBLIC "-//W3C//DTD SVG 1.1//EN"
 "http://www.w3.org/Graphics/SVG/1.1/DTD/svg11.dtd">
<!-- Generated by graphviz version 2.28.0 (20120817.0054)
 -->
<!-- Title: Om::Expression::ElementRange Pages: 1 -->
<svg width="570pt" height="115pt"
 viewBox="0.00 0.00 570.00 115.00" xmlns="http://www.w3.org/2000/svg" xmlns:xlink="http://www.w3.org/1999/xlink">
<g id="graph1" class="graph" transform="scale(1 1) rotate(0) translate(4 111)">
<title>Om::Expression::ElementRange</title>
<!-- Node1 -->
<g id="node1" class="node"><title>Node1</title>
<polygon fill="#bfbfbf" stroke="black" points="410,-26.5 410,-45.5 562,-45.5 562,-26.5 410,-26.5"/>
<text text-anchor="middle" x="486" y="-33.5" font-family="Helvetica,sans-Serif" font-size="10.00">Om::Expression::ElementRange</text>
</g>
<!-- Node2 -->
<g id="node2" class="node"><title>Node2</title>
<a xlink:href="struct_om_1_1_sources_1_1_default_source.html" target="_top" xlink:title="Om::Sources::DefaultSource\l\&lt; Element const, ElementRange \&gt;">
<polygon fill="none" stroke="black" points="146.5,-49 146.5,-79 307.5,-79 307.5,-49 146.5,-49"/>
<text text-anchor="start" x="154.5" y="-67" font-family="Helvetica,sans-Serif" font-size="10.00">Om::Sources::DefaultSource</text>
<text text-anchor="middle" x="227" y="-56" font-family="Helvetica,sans-Serif" font-size="10.00">&lt; Element const, ElementRange &gt;</text>
</a>
</g>
<!-- Node2&#45;&gt;Node1 -->
<g id="edge2" class="edge"><title>Node2&#45;&gt;Node1</title>
<path fill="none" stroke="midnightblue" d="M317.625,-54.2354C347.7,-50.9587 380.912,-47.3403 409.769,-44.1963"/>
<polygon fill="midnightblue" stroke="midnightblue" points="317.118,-50.7698 307.556,-55.3324 317.877,-57.7286 317.118,-50.7698"/>
</g>
<!-- Node3 -->
<g id="node4" class="node"><title>Node3</title>
<a xlink:href="struct_om_1_1_source.html" target="_top" xlink:title="Om::Source\&lt; Element\l const &#160;\&gt;">
<polygon fill="none" stroke="black" points="0,-77 0,-107 108,-107 108,-77 0,-77"/>
<text text-anchor="start" x="8" y="-95" font-family="Helvetica,sans-Serif" font-size="10.00">Om::Source&lt; Element</text>
<text text-anchor="middle" x="54" y="-84" font-family="Helvetica,sans-Serif" font-size="10.00"> const &gt;</text>
</a>
</g>
<!-- Node3&#45;&gt;Node2 -->
<g id="edge4" class="edge"><title>Node3&#45;&gt;Node2</title>
<path fill="none" stroke="midnightblue" d="M118.05,-81.6761C127.314,-80.1591 136.957,-78.5802 146.5,-77.0176"/>
<polygon fill="midnightblue" stroke="midnightblue" points="117.471,-78.2241 108.168,-83.2941 118.602,-85.1321 117.471,-78.2241"/>
</g>
<!-- Node4 -->
<g id="node6" class="node"><title>Node4</title>
<a xlink:href="classstd_1_1iterator.html" target="_top" xlink:title="std::iterator\&lt; std\l::input_iterator_tag,\l Element const &#160;\&gt;">
<polygon fill="none" stroke="black" points="6.5,-16.5 6.5,-57.5 101.5,-57.5 101.5,-16.5 6.5,-16.5"/>
<text text-anchor="start" x="14.5" y="-45.5" font-family="Helvetica,sans-Serif" font-size="10.00">std::iterator&lt; std</text>
<text text-anchor="start" x="14.5" y="-34.5" font-family="Helvetica,sans-Serif" font-size="10.00">::input_iterator_tag,</text>
<text text-anchor="middle" x="54" y="-23.5" font-family="Helvetica,sans-Serif" font-size="10.00"> Element const &gt;</text>
</a>
</g>
<!-- Node4&#45;&gt;Node2 -->
<g id="edge6" class="edge"><title>Node4&#45;&gt;Node2</title>
<path fill="none" stroke="midnightblue" d="M111.719,-45.9556C122.853,-47.7136 134.724,-49.5879 146.445,-51.4387"/>
<polygon fill="midnightblue" stroke="midnightblue" points="112.15,-42.4804 101.727,-44.3779 111.058,-49.3947 112.15,-42.4804"/>
</g>
<!-- Node5 -->
<g id="node8" class="node"><title>Node5</title>
<a xlink:title="STL iterator class.">
<polygon fill="none" stroke="#bfbfbf" points="172.5,-0 172.5,-30 281.5,-30 281.5,-0 172.5,-0"/>
<text text-anchor="start" x="180.5" y="-18" font-family="Helvetica,sans-Serif" font-size="10.00">std::deque&lt; T &gt;::const</text>
<text text-anchor="middle" x="227" y="-7" font-family="Helvetica,sans-Serif" font-size="10.00">_iterator</text>
</a>
</g>
<!-- Node5&#45;&gt;Node1 -->
<g id="edge8" class="edge"><title>Node5&#45;&gt;Node1</title>
<path fill="none" stroke="#9a32cd" stroke-dasharray="5,2" d="M291.701,-16.1382C322.116,-17.0853 358.996,-18.8206 392,-22 403.702,-23.1273 416.178,-24.7279 428.067,-26.4464"/>
<polygon fill="#9a32cd" stroke="#9a32cd" points="291.747,-12.6381 281.649,-15.8462 291.543,-19.6352 291.747,-12.6381"/>
<text text-anchor="middle" x="359" y="-36" font-family="Helvetica,sans-Serif" font-size="10.00"> thisFormIterator</text>
<text text-anchor="middle" x="359" y="-25" font-family="Helvetica,sans-Serif" font-size="10.00">thisFormEnd</text>
</g>
</g>
</svg>
