<?xml version="1.0" encoding="UTF-8" standalone="no"?>
<!DOCTYPE svg PUBLIC "-//W3C//DTD SVG 1.1//EN"
 "http://www.w3.org/Graphics/SVG/1.1/DTD/svg11.dtd">
<!-- Generated by graphviz version 2.28.0 (20120817.0054)
 -->
<!-- Title: Om::Sources::CodePointStringBackSource&lt; ThisStringIterator &gt; Pages: 1 -->
<svg width="512pt" height="88pt"
 viewBox="0.00 0.00 512.00 88.00" xmlns="http://www.w3.org/2000/svg" xmlns:xlink="http://www.w3.org/1999/xlink">
<g id="graph1" class="graph" transform="scale(1 1) rotate(0) translate(4 84)">
<title>Om::Sources::CodePointStringBackSource&lt; ThisStringIterator &gt;</title>
<!-- Node1 -->
<g id="node1" class="node"><title>Node1</title>
<polygon fill="#bfbfbf" stroke="black" points="352,-30 352,-60 504,-60 504,-30 352,-30"/>
<text text-anchor="start" x="360" y="-48" font-family="Helvetica,sans-Serif" font-size="10.00">Om::Sources::CodePointString</text>
<text text-anchor="middle" x="428" y="-37" font-family="Helvetica,sans-Serif" font-size="10.00">BackSource&lt; ThisStringIterator &gt;</text>
</g>
<!-- Node2 -->
<g id="node2" class="node"><title>Node2</title>
<a xlink:href="struct_om_1_1_sources_1_1_default_source.html" target="_top" xlink:title="Om::Sources::DefaultSource\l\&lt; std::string, CodePointStringBack\lSource\&lt; ThisStringIterator \&gt; \&gt;">
<polygon fill="none" stroke="black" points="158,-24.5 158,-65.5 316,-65.5 316,-24.5 158,-24.5"/>
<text text-anchor="start" x="166" y="-53.5" font-family="Helvetica,sans-Serif" font-size="10.00">Om::Sources::DefaultSource</text>
<text text-anchor="start" x="166" y="-42.5" font-family="Helvetica,sans-Serif" font-size="10.00">&lt; std::string, CodePointStringBack</text>
<text text-anchor="middle" x="237" y="-31.5" font-family="Helvetica,sans-Serif" font-size="10.00">Source&lt; ThisStringIterator &gt; &gt;</text>
</a>
</g>
<!-- Node2&#45;&gt;Node1 -->
<g id="edge2" class="edge"><title>Node2&#45;&gt;Node1</title>
<path fill="none" stroke="midnightblue" d="M326.243,-45C334.807,-45 343.44,-45 351.859,-45"/>
<polygon fill="midnightblue" stroke="midnightblue" points="326.238,-41.5001 316.238,-45 326.238,-48.5001 326.238,-41.5001"/>
</g>
<!-- Node3 -->
<g id="node4" class="node"><title>Node3</title>
<a xlink:href="struct_om_1_1_source.html" target="_top" xlink:title="Om::Source\&lt; std::string \&gt;">
<polygon fill="none" stroke="black" points="0,-60.5 0,-79.5 122,-79.5 122,-60.5 0,-60.5"/>
<text text-anchor="middle" x="61" y="-67.5" font-family="Helvetica,sans-Serif" font-size="10.00">Om::Source&lt; std::string &gt;</text>
</a>
</g>
<!-- Node3&#45;&gt;Node2 -->
<g id="edge4" class="edge"><title>Node3&#45;&gt;Node2</title>
<path fill="none" stroke="midnightblue" d="M132.477,-59.874C140.869,-58.6683 149.474,-57.4319 157.963,-56.2121"/>
<polygon fill="midnightblue" stroke="midnightblue" points="131.769,-56.4397 122.368,-61.3264 132.765,-63.3685 131.769,-56.4397"/>
</g>
<!-- Node4 -->
<g id="node6" class="node"><title>Node4</title>
<a xlink:href="classstd_1_1iterator.html" target="_top" xlink:title="std::iterator\&lt; std\l::input_iterator_tag,\l std::string \&gt;">
<polygon fill="none" stroke="black" points="13.5,-0.5 13.5,-41.5 108.5,-41.5 108.5,-0.5 13.5,-0.5"/>
<text text-anchor="start" x="21.5" y="-29.5" font-family="Helvetica,sans-Serif" font-size="10.00">std::iterator&lt; std</text>
<text text-anchor="start" x="21.5" y="-18.5" font-family="Helvetica,sans-Serif" font-size="10.00">::input_iterator_tag,</text>
<text text-anchor="middle" x="61" y="-7.5" font-family="Helvetica,sans-Serif" font-size="10.00"> std::string &gt;</text>
</a>
</g>
<!-- Node4&#45;&gt;Node2 -->
<g id="edge6" class="edge"><title>Node4&#45;&gt;Node2</title>
<path fill="none" stroke="midnightblue" d="M118.811,-28.836C131.226,-30.5484 144.578,-32.39 157.665,-34.1952"/>
<polygon fill="midnightblue" stroke="midnightblue" points="119.013,-25.3308 108.629,-27.4316 118.057,-32.2652 119.013,-25.3308"/>
</g>
</g>
</svg>
