<?xml version="1.0" encoding="UTF-8" standalone="no"?>
<!DOCTYPE svg PUBLIC "-//W3C//DTD SVG 1.1//EN"
 "http://www.w3.org/Graphics/SVG/1.1/DTD/svg11.dtd">
<!-- Generated by graphviz version 2.28.0 (20120817.0054)
 -->
<!-- Title: Om::Expression::FormRange&lt; Form const &#160;&gt; Pages: 1 -->
<svg width="888pt" height="88pt"
 viewBox="0.00 0.00 888.00 88.00" xmlns="http://www.w3.org/2000/svg" xmlns:xlink="http://www.w3.org/1999/xlink">
<g id="graph1" class="graph" transform="scale(1 1) rotate(0) translate(4 84)">
<title>Om::Expression::FormRange&lt; Form const &#160;&gt;</title>
<!-- Node1 -->
<g id="node1" class="node"><title>Node1</title>
<polygon fill="#bfbfbf" stroke="black" points="740.5,-30 740.5,-60 879.5,-60 879.5,-30 740.5,-30"/>
<text text-anchor="start" x="748.5" y="-48" font-family="Helvetica,sans-Serif" font-size="10.00">Om::Expression::FormRange</text>
<text text-anchor="middle" x="810" y="-37" font-family="Helvetica,sans-Serif" font-size="10.00">&lt; Form const &gt;</text>
</g>
<!-- Node2 -->
<g id="node2" class="node"><title>Node2</title>
<a xlink:href="struct_om_1_1_sources_1_1_collection_front_source.html" target="_top" xlink:title="Om::Sources::CollectionFront\lSource\&lt; Form const, FormDeque\l::const_iterator \&gt;">
<polygon fill="none" stroke="black" points="550,-24.5 550,-65.5 704,-65.5 704,-24.5 550,-24.5"/>
<text text-anchor="start" x="558" y="-53.5" font-family="Helvetica,sans-Serif" font-size="10.00">Om::Sources::CollectionFront</text>
<text text-anchor="start" x="558" y="-42.5" font-family="Helvetica,sans-Serif" font-size="10.00">Source&lt; Form const, FormDeque</text>
<text text-anchor="middle" x="627" y="-31.5" font-family="Helvetica,sans-Serif" font-size="10.00">::const_iterator &gt;</text>
</a>
</g>
<!-- Node2&#45;&gt;Node1 -->
<g id="edge2" class="edge"><title>Node2&#45;&gt;Node1</title>
<path fill="none" stroke="midnightblue" d="M714.406,-45C723.105,-45 731.855,-45 740.334,-45"/>
<polygon fill="midnightblue" stroke="midnightblue" points="714.236,-41.5001 704.236,-45 714.236,-48.5001 714.236,-41.5001"/>
</g>
<!-- Node3 -->
<g id="node4" class="node"><title>Node3</title>
<a xlink:href="struct_om_1_1_sources_1_1_iterator_pair_source.html" target="_top" xlink:title="Om::Sources::IteratorPair\lSource\&lt; Form const , FormDeque\l::const_iterator \&gt;">
<polygon fill="none" stroke="black" points="356.5,-24.5 356.5,-65.5 513.5,-65.5 513.5,-24.5 356.5,-24.5"/>
<text text-anchor="start" x="364.5" y="-53.5" font-family="Helvetica,sans-Serif" font-size="10.00">Om::Sources::IteratorPair</text>
<text text-anchor="start" x="364.5" y="-42.5" font-family="Helvetica,sans-Serif" font-size="10.00">Source&lt; Form const , FormDeque</text>
<text text-anchor="middle" x="435" y="-31.5" font-family="Helvetica,sans-Serif" font-size="10.00">::const_iterator &gt;</text>
</a>
</g>
<!-- Node3&#45;&gt;Node2 -->
<g id="edge4" class="edge"><title>Node3&#45;&gt;Node2</title>
<path fill="none" stroke="midnightblue" d="M523.757,-45C532.496,-45 541.318,-45 549.923,-45"/>
<polygon fill="midnightblue" stroke="midnightblue" points="523.554,-41.5001 513.554,-45 523.554,-48.5001 523.554,-41.5001"/>
</g>
<!-- Node4 -->
<g id="node6" class="node"><title>Node4</title>
<a xlink:href="struct_om_1_1_sources_1_1_default_source.html" target="_top" xlink:title="Om::Sources::DefaultSource\l\&lt; Form const , IteratorPairSource\l\&lt; Form const , FormDeque::const\l_iterator \&gt; \&gt;">
<polygon fill="none" stroke="black" points="164.5,-19 164.5,-71 319.5,-71 319.5,-19 164.5,-19"/>
<text text-anchor="start" x="172.5" y="-59" font-family="Helvetica,sans-Serif" font-size="10.00">Om::Sources::DefaultSource</text>
<text text-anchor="start" x="172.5" y="-48" font-family="Helvetica,sans-Serif" font-size="10.00">&lt; Form const , IteratorPairSource</text>
<text text-anchor="start" x="172.5" y="-37" font-family="Helvetica,sans-Serif" font-size="10.00">&lt; Form const , FormDeque::const</text>
<text text-anchor="middle" x="242" y="-26" font-family="Helvetica,sans-Serif" font-size="10.00">_iterator &gt; &gt;</text>
</a>
</g>
<!-- Node4&#45;&gt;Node3 -->
<g id="edge6" class="edge"><title>Node4&#45;&gt;Node3</title>
<path fill="none" stroke="midnightblue" d="M329.626,-45C338.572,-45 347.623,-45 356.461,-45"/>
<polygon fill="midnightblue" stroke="midnightblue" points="329.587,-41.5001 319.586,-45 329.586,-48.5001 329.587,-41.5001"/>
</g>
<!-- Node5 -->
<g id="node8" class="node"><title>Node5</title>
<a xlink:href="struct_om_1_1_source.html" target="_top" xlink:title="Om::Source\&lt; Form const &#160;\&gt;">
<polygon fill="none" stroke="black" points="0,-60.5 0,-79.5 128,-79.5 128,-60.5 0,-60.5"/>
<text text-anchor="middle" x="64" y="-67.5" font-family="Helvetica,sans-Serif" font-size="10.00">Om::Source&lt; Form const &gt;</text>
</a>
</g>
<!-- Node5&#45;&gt;Node4 -->
<g id="edge8" class="edge"><title>Node5&#45;&gt;Node4</title>
<path fill="none" stroke="midnightblue" d="M138.079,-59.6195C146.723,-58.3916 155.566,-57.1356 164.259,-55.9007"/>
<polygon fill="midnightblue" stroke="midnightblue" points="137.451,-56.1734 128.043,-61.045 138.436,-63.1038 137.451,-56.1734"/>
</g>
<!-- Node6 -->
<g id="node10" class="node"><title>Node6</title>
<polygon fill="none" stroke="#bfbfbf" points="16.5,-0.5 16.5,-41.5 111.5,-41.5 111.5,-0.5 16.5,-0.5"/>
<text text-anchor="start" x="24.5" y="-29.5" font-family="Helvetica,sans-Serif" font-size="10.00">std::iterator&lt; std</text>
<text text-anchor="start" x="24.5" y="-18.5" font-family="Helvetica,sans-Serif" font-size="10.00">::input_iterator_tag,</text>
<text text-anchor="middle" x="64" y="-7.5" font-family="Helvetica,sans-Serif" font-size="10.00"> Form const &gt;</text>
</g>
<!-- Node6&#45;&gt;Node4 -->
<g id="edge10" class="edge"><title>Node6&#45;&gt;Node4</title>
<path fill="none" stroke="midnightblue" d="M121.843,-28.7513C135.426,-30.6036 150.147,-32.611 164.457,-34.5623"/>
<polygon fill="midnightblue" stroke="midnightblue" points="122.084,-25.2519 111.703,-27.3685 121.138,-32.1877 122.084,-25.2519"/>
</g>
</g>
</svg>
