<?xml version="1.0" encoding="UTF-8" standalone="no"?>
<!DOCTYPE svg PUBLIC "-//W3C//DTD SVG 1.1//EN"
 "http://www.w3.org/Graphics/SVG/1.1/DTD/svg11.dtd">
<!-- Generated by graphviz version 2.28.0 (20120817.0054)
 -->
<!-- Title: Om::Pair Pages: 1 -->
<svg width="585pt" height="946pt"
 viewBox="0.00 0.00 585.00 946.00" xmlns="http://www.w3.org/2000/svg" xmlns:xlink="http://www.w3.org/1999/xlink">
<g id="graph1" class="graph" transform="scale(1 1) rotate(0) translate(4 942)">
<title>Om::Pair</title>
<!-- Node1 -->
<g id="node1" class="node"><title>Node1</title>
<polygon fill="#bfbfbf" stroke="black" points="214.5,-0.5 214.5,-19.5 267.5,-19.5 267.5,-0.5 214.5,-0.5"/>
<text text-anchor="middle" x="241" y="-7.5" font-family="Helvetica,sans-Serif" font-size="10.00">Om::Pair</text>
</g>
<!-- Node2 -->
<g id="node2" class="node"><title>Node2</title>
<a xlink:href="struct_om_1_1_operator.html" target="_top" xlink:title="The Operator implementation.">
<polygon fill="none" stroke="black" points="253,-68.5 253,-87.5 327,-87.5 327,-68.5 253,-68.5"/>
<text text-anchor="middle" x="290" y="-75.5" font-family="Helvetica,sans-Serif" font-size="10.00">Om::Operator</text>
</a>
</g>
<!-- Node2&#45;&gt;Node1 -->
<g id="edge2" class="edge"><title>Node2&#45;&gt;Node1</title>
<path fill="none" stroke="#9a32cd" stroke-dasharray="5,2" d="M277.609,-60.3101C268.057,-47.4437 255.224,-30.1583 247.564,-19.8411"/>
<polygon fill="#9a32cd" stroke="#9a32cd" points="274.823,-62.4289 283.594,-68.3717 280.443,-58.2562 274.823,-62.4289"/>
<text text-anchor="middle" x="297.5" y="-41.5" font-family="Helvetica,sans-Serif" font-size="10.00"> thisOperator</text>
</g>
<!-- Node3 -->
<g id="node4" class="node"><title>Node3</title>
<a xlink:href="struct_om_1_1_default_atom.html" target="_top" xlink:title="Om::DefaultAtom\&lt; Operator \&gt;">
<polygon fill="none" stroke="black" points="248.5,-136.5 248.5,-155.5 391.5,-155.5 391.5,-136.5 248.5,-136.5"/>
<text text-anchor="middle" x="320" y="-143.5" font-family="Helvetica,sans-Serif" font-size="10.00">Om::DefaultAtom&lt; Operator &gt;</text>
</a>
</g>
<!-- Node3&#45;&gt;Node2 -->
<g id="edge4" class="edge"><title>Node3&#45;&gt;Node2</title>
<path fill="none" stroke="midnightblue" d="M311.903,-127.186C306.115,-114.452 298.573,-97.8607 294.019,-87.8411"/>
<polygon fill="midnightblue" stroke="midnightblue" points="308.754,-128.716 316.078,-136.372 315.126,-125.82 308.754,-128.716"/>
</g>
<!-- Node4 -->
<g id="node6" class="node"><title>Node4</title>
<a xlink:href="struct_om_1_1_default_element.html" target="_top" xlink:title="Om::DefaultElement\l\&lt; Operator, Atom \&gt;">
<polygon fill="none" stroke="black" points="370.5,-205 370.5,-235 471.5,-235 471.5,-205 370.5,-205"/>
<text text-anchor="start" x="378.5" y="-223" font-family="Helvetica,sans-Serif" font-size="10.00">Om::DefaultElement</text>
<text text-anchor="middle" x="421" y="-212" font-family="Helvetica,sans-Serif" font-size="10.00">&lt; Operator, Atom &gt;</text>
</a>
</g>
<!-- Node4&#45;&gt;Node3 -->
<g id="edge6" class="edge"><title>Node4&#45;&gt;Node3</title>
<path fill="none" stroke="midnightblue" d="M397.092,-198.598C387.366,-190.616 375.872,-181.577 365,-174 355.582,-167.436 344.534,-160.793 335.741,-155.738"/>
<polygon fill="midnightblue" stroke="midnightblue" points="394.867,-201.3 404.795,-205 399.341,-195.916 394.867,-201.3"/>
</g>
<!-- Node5 -->
<g id="node8" class="node"><title>Node5</title>
<a xlink:href="struct_om_1_1_default_program.html" target="_top" xlink:title="Om::DefaultProgram\l\&lt; Operator, Atom \&gt;">
<polygon fill="none" stroke="black" points="383,-285 383,-315 485,-315 485,-285 383,-285"/>
<text text-anchor="start" x="391" y="-303" font-family="Helvetica,sans-Serif" font-size="10.00">Om::DefaultProgram</text>
<text text-anchor="middle" x="434" y="-292" font-family="Helvetica,sans-Serif" font-size="10.00">&lt; Operator, Atom &gt;</text>
</a>
</g>
<!-- Node5&#45;&gt;Node4 -->
<g id="edge8" class="edge"><title>Node5&#45;&gt;Node4</title>
<path fill="none" stroke="midnightblue" d="M429.927,-274.564C427.771,-261.624 425.198,-246.186 423.369,-235.216"/>
<polygon fill="midnightblue" stroke="midnightblue" points="426.519,-275.405 431.616,-284.694 433.424,-274.254 426.519,-275.405"/>
</g>
<!-- Node6 -->
<g id="node10" class="node"><title>Node6</title>
<a xlink:href="struct_om_1_1_default_queue.html" target="_top" xlink:title="Om::DefaultQueue\&lt; Operator,\l DefaultGiveable\&lt; Operator,\l Atom \&gt; \&gt;">
<polygon fill="none" stroke="black" points="301,-354.5 301,-395.5 445,-395.5 445,-354.5 301,-354.5"/>
<text text-anchor="start" x="309" y="-383.5" font-family="Helvetica,sans-Serif" font-size="10.00">Om::DefaultQueue&lt; Operator,</text>
<text text-anchor="start" x="309" y="-372.5" font-family="Helvetica,sans-Serif" font-size="10.00"> DefaultGiveable&lt; Operator,</text>
<text text-anchor="middle" x="373" y="-361.5" font-family="Helvetica,sans-Serif" font-size="10.00"> Atom &gt; &gt;</text>
</a>
</g>
<!-- Node6&#45;&gt;Node5 -->
<g id="edge10" class="edge"><title>Node6&#45;&gt;Node5</title>
<path fill="none" stroke="midnightblue" d="M395.915,-346.577C404.809,-335.933 414.622,-324.19 422.06,-315.289"/>
<polygon fill="midnightblue" stroke="midnightblue" points="393.073,-344.519 389.347,-354.437 398.445,-349.008 393.073,-344.519"/>
</g>
<!-- Node7 -->
<g id="node12" class="node"><title>Node7</title>
<a xlink:href="struct_om_1_1_default_giveable.html" target="_top" xlink:title="Om::DefaultGiveable\l\&lt; Operator, Atom \&gt;">
<polygon fill="none" stroke="black" points="320,-440 320,-470 426,-470 426,-440 320,-440"/>
<text text-anchor="start" x="328" y="-458" font-family="Helvetica,sans-Serif" font-size="10.00">Om::DefaultGiveable</text>
<text text-anchor="middle" x="373" y="-447" font-family="Helvetica,sans-Serif" font-size="10.00">&lt; Operator, Atom &gt;</text>
</a>
</g>
<!-- Node7&#45;&gt;Node6 -->
<g id="edge12" class="edge"><title>Node7&#45;&gt;Node6</title>
<path fill="none" stroke="midnightblue" d="M373,-429.487C373,-418.531 373,-405.797 373,-395.503"/>
<polygon fill="midnightblue" stroke="midnightblue" points="369.5,-429.694 373,-439.694 376.5,-429.694 369.5,-429.694"/>
</g>
<!-- Node8 -->
<g id="node14" class="node"><title>Node8</title>
<a xlink:href="struct_om_1_1_default_moveable.html" target="_top" xlink:title="Om::DefaultMoveable\l\&lt; Operator, DefaultCopyable\l\&lt; Operator, Atom \&gt; \&gt;">
<polygon fill="none" stroke="black" points="303,-514.5 303,-555.5 443,-555.5 443,-514.5 303,-514.5"/>
<text text-anchor="start" x="311" y="-543.5" font-family="Helvetica,sans-Serif" font-size="10.00">Om::DefaultMoveable</text>
<text text-anchor="start" x="311" y="-532.5" font-family="Helvetica,sans-Serif" font-size="10.00">&lt; Operator, DefaultCopyable</text>
<text text-anchor="middle" x="373" y="-521.5" font-family="Helvetica,sans-Serif" font-size="10.00">&lt; Operator, Atom &gt; &gt;</text>
</a>
</g>
<!-- Node8&#45;&gt;Node7 -->
<g id="edge14" class="edge"><title>Node8&#45;&gt;Node7</title>
<path fill="none" stroke="midnightblue" d="M373,-504.095C373,-492.476 373,-479.716 373,-470.261"/>
<polygon fill="midnightblue" stroke="midnightblue" points="369.5,-504.317 373,-514.317 376.5,-504.317 369.5,-504.317"/>
</g>
<!-- Node9 -->
<g id="node16" class="node"><title>Node9</title>
<a xlink:href="struct_om_1_1_default_copyable.html" target="_top" xlink:title="Om::DefaultCopyable\l\&lt; Operator, Atom \&gt;">
<polygon fill="none" stroke="black" points="318,-600 318,-630 428,-630 428,-600 318,-600"/>
<text text-anchor="start" x="326" y="-618" font-family="Helvetica,sans-Serif" font-size="10.00">Om::DefaultCopyable</text>
<text text-anchor="middle" x="373" y="-607" font-family="Helvetica,sans-Serif" font-size="10.00">&lt; Operator, Atom &gt;</text>
</a>
</g>
<!-- Node9&#45;&gt;Node8 -->
<g id="edge16" class="edge"><title>Node9&#45;&gt;Node8</title>
<path fill="none" stroke="midnightblue" d="M373,-589.487C373,-578.531 373,-565.797 373,-555.503"/>
<polygon fill="midnightblue" stroke="midnightblue" points="369.5,-589.694 373,-599.694 376.5,-589.694 369.5,-589.694"/>
</g>
<!-- Node10 -->
<g id="node18" class="node"><title>Node10</title>
<a xlink:href="struct_om_1_1_atom.html" target="_top" xlink:title="A leaf Element defined by a string.">
<polygon fill="none" stroke="black" points="330.5,-680.5 330.5,-699.5 389.5,-699.5 389.5,-680.5 330.5,-680.5"/>
<text text-anchor="middle" x="360" y="-687.5" font-family="Helvetica,sans-Serif" font-size="10.00">Om::Atom</text>
</a>
</g>
<!-- Node10&#45;&gt;Node9 -->
<g id="edge18" class="edge"><title>Node10&#45;&gt;Node9</title>
<path fill="none" stroke="midnightblue" d="M363.36,-670.133C365.583,-657.649 368.451,-641.545 370.479,-630.156"/>
<polygon fill="midnightblue" stroke="midnightblue" points="359.85,-669.881 361.542,-680.339 366.741,-671.108 359.85,-669.881"/>
</g>
<!-- Node11 -->
<g id="node20" class="node"><title>Node11</title>
<a xlink:href="struct_om_1_1_element.html" target="_top" xlink:title="An &quot;elemental&quot; Program comprised of a single item (or empty).">
<polygon fill="none" stroke="black" points="280.5,-744.5 280.5,-763.5 351.5,-763.5 351.5,-744.5 280.5,-744.5"/>
<text text-anchor="middle" x="316" y="-751.5" font-family="Helvetica,sans-Serif" font-size="10.00">Om::Element</text>
</a>
</g>
<!-- Node11&#45;&gt;Node10 -->
<g id="edge20" class="edge"><title>Node11&#45;&gt;Node10</title>
<path fill="none" stroke="midnightblue" d="M327.949,-736.162C336.356,-724.316 347.257,-708.956 353.934,-699.548"/>
<polygon fill="midnightblue" stroke="midnightblue" points="325.051,-734.198 322.118,-744.379 330.76,-738.25 325.051,-734.198"/>
</g>
<!-- Node27 -->
<g id="node52" class="node"><title>Node27</title>
<a xlink:href="struct_om_1_1_default_copyable.html" target="_top" xlink:title="Om::DefaultCopyable\l\&lt; Operand, Element \&gt;">
<polygon fill="none" stroke="black" points="199,-675 199,-705 309,-705 309,-675 199,-675"/>
<text text-anchor="start" x="207" y="-693" font-family="Helvetica,sans-Serif" font-size="10.00">Om::DefaultCopyable</text>
<text text-anchor="middle" x="254" y="-682" font-family="Helvetica,sans-Serif" font-size="10.00">&lt; Operand, Element &gt;</text>
</a>
</g>
<!-- Node11&#45;&gt;Node27 -->
<g id="edge54" class="edge"><title>Node11&#45;&gt;Node27</title>
<path fill="none" stroke="midnightblue" d="M300.179,-737.179C290.341,-727.341 277.794,-714.794 268.263,-705.263"/>
<polygon fill="midnightblue" stroke="midnightblue" points="297.833,-739.783 307.379,-744.379 302.783,-734.833 297.833,-739.783"/>
</g>
<!-- Node12 -->
<g id="node22" class="node"><title>Node12</title>
<a xlink:href="struct_om_1_1_program.html" target="_top" xlink:title="The Program implementation.">
<polygon fill="none" stroke="black" points="280,-802.5 280,-821.5 352,-821.5 352,-802.5 280,-802.5"/>
<text text-anchor="middle" x="316" y="-809.5" font-family="Helvetica,sans-Serif" font-size="10.00">Om::Program</text>
</a>
</g>
<!-- Node12&#45;&gt;Node11 -->
<g id="edge22" class="edge"><title>Node12&#45;&gt;Node11</title>
<path fill="none" stroke="midnightblue" d="M316,-791.953C316,-782.287 316,-771.031 316,-763.505"/>
<polygon fill="midnightblue" stroke="midnightblue" points="312.5,-792.25 316,-802.25 319.5,-792.25 312.5,-792.25"/>
</g>
<!-- Node13 -->
<g id="node24" class="node"><title>Node13</title>
<a xlink:href="struct_om_1_1_giveable.html" target="_top" xlink:title="An object that can be copied or moved via Give.">
<polygon fill="none" stroke="black" points="189,-860.5 189,-879.5 265,-879.5 265,-860.5 189,-860.5"/>
<text text-anchor="middle" x="227" y="-867.5" font-family="Helvetica,sans-Serif" font-size="10.00">Om::Giveable</text>
</a>
</g>
<!-- Node13&#45;&gt;Node12 -->
<g id="edge24" class="edge"><title>Node13&#45;&gt;Node12</title>
<path fill="none" stroke="midnightblue" d="M249.119,-855.082C265.815,-844.577 288.192,-830.497 302.356,-821.585"/>
<polygon fill="midnightblue" stroke="midnightblue" points="247.117,-852.207 240.517,-860.495 250.845,-858.132 247.117,-852.207"/>
</g>
<!-- Node14 -->
<g id="node26" class="node"><title>Node14</title>
<a xlink:href="struct_om_1_1_copyable.html" target="_top" xlink:title="An object that can be passed to Copy to be copied.">
<polygon fill="none" stroke="black" points="138,-918.5 138,-937.5 218,-937.5 218,-918.5 138,-918.5"/>
<text text-anchor="middle" x="178" y="-925.5" font-family="Helvetica,sans-Serif" font-size="10.00">Om::Copyable</text>
</a>
</g>
<!-- Node14&#45;&gt;Node13 -->
<g id="edge26" class="edge"><title>Node14&#45;&gt;Node13</title>
<path fill="none" stroke="midnightblue" d="M192.494,-910.435C201.386,-900.273 212.4,-887.686 219.558,-879.505"/>
<polygon fill="midnightblue" stroke="midnightblue" points="189.607,-908.419 185.656,-918.25 194.875,-913.029 189.607,-908.419"/>
</g>
<!-- Node15 -->
<g id="node28" class="node"><title>Node15</title>
<a xlink:href="struct_om_1_1_moveable.html" target="_top" xlink:title="An object that can be passed to Move to be moved.">
<polygon fill="none" stroke="black" points="236,-918.5 236,-937.5 316,-937.5 316,-918.5 236,-918.5"/>
<text text-anchor="middle" x="276" y="-925.5" font-family="Helvetica,sans-Serif" font-size="10.00">Om::Moveable</text>
</a>
</g>
<!-- Node15&#45;&gt;Node13 -->
<g id="edge28" class="edge"><title>Node15&#45;&gt;Node13</title>
<path fill="none" stroke="midnightblue" d="M261.506,-910.435C252.614,-900.273 241.6,-887.686 234.442,-879.505"/>
<polygon fill="midnightblue" stroke="midnightblue" points="259.125,-913.029 268.344,-918.25 264.393,-908.419 259.125,-913.029"/>
</g>
<!-- Node16 -->
<g id="node30" class="node"><title>Node16</title>
<a xlink:href="struct_om_1_1_queue.html" target="_top" xlink:title="A first&#45;in, first&#45;out Element processor.">
<polygon fill="none" stroke="black" points="283,-860.5 283,-879.5 349,-879.5 349,-860.5 283,-860.5"/>
<text text-anchor="middle" x="316" y="-867.5" font-family="Helvetica,sans-Serif" font-size="10.00">Om::Queue</text>
</a>
</g>
<!-- Node16&#45;&gt;Node12 -->
<g id="edge30" class="edge"><title>Node16&#45;&gt;Node12</title>
<path fill="none" stroke="midnightblue" d="M316,-849.953C316,-840.287 316,-829.031 316,-821.505"/>
<polygon fill="midnightblue" stroke="midnightblue" points="312.5,-850.25 316,-860.25 319.5,-850.25 312.5,-850.25"/>
</g>
<!-- Node17 -->
<g id="node32" class="node"><title>Node17</title>
<a xlink:href="struct_om_1_1_shareable.html" target="_top" xlink:title="Om::Shareable\&lt;\&gt;">
<polygon fill="none" stroke="black" points="367,-860.5 367,-879.5 459,-879.5 459,-860.5 367,-860.5"/>
<text text-anchor="middle" x="413" y="-867.5" font-family="Helvetica,sans-Serif" font-size="10.00">Om::Shareable&lt;&gt;</text>
</a>
</g>
<!-- Node17&#45;&gt;Node12 -->
<g id="edge32" class="edge"><title>Node17&#45;&gt;Node12</title>
<path fill="none" stroke="midnightblue" d="M389.396,-855.373C371.149,-844.838 346.451,-830.58 330.871,-821.585"/>
<polygon fill="midnightblue" stroke="midnightblue" points="387.857,-858.526 398.268,-860.495 391.357,-852.464 387.857,-858.526"/>
</g>
<!-- Node18 -->
<g id="node34" class="node"><title>Node18</title>
<a xlink:href="struct_om_1_1_taker.html" target="_top" xlink:title="Om::Taker\&lt; Operator \&gt;">
<polygon fill="none" stroke="black" points="463,-365.5 463,-384.5 577,-384.5 577,-365.5 463,-365.5"/>
<text text-anchor="middle" x="520" y="-372.5" font-family="Helvetica,sans-Serif" font-size="10.00">Om::Taker&lt; Operator &gt;</text>
</a>
</g>
<!-- Node18&#45;&gt;Node5 -->
<g id="edge34" class="edge"><title>Node18&#45;&gt;Node5</title>
<path fill="none" stroke="midnightblue" d="M502.131,-358.832C486.996,-345.985 465.463,-327.707 450.677,-315.156"/>
<polygon fill="midnightblue" stroke="midnightblue" points="499.908,-361.536 509.797,-365.339 504.438,-356.2 499.908,-361.536"/>
</g>
<!-- Node19 -->
<g id="node36" class="node"><title>Node19</title>
<a xlink:title="STL class.">
<polygon fill="none" stroke="#bfbfbf" points="292,-210.5 292,-229.5 348,-229.5 348,-210.5 292,-210.5"/>
<text text-anchor="middle" x="320" y="-217.5" font-family="Helvetica,sans-Serif" font-size="10.00">std::string</text>
</a>
</g>
<!-- Node19&#45;&gt;Node3 -->
<g id="edge36" class="edge"><title>Node19&#45;&gt;Node3</title>
<path fill="none" stroke="#9a32cd" stroke-dasharray="5,2" d="M320,-200.156C320,-185.712 320,-166.459 320,-155.531"/>
<polygon fill="#9a32cd" stroke="#9a32cd" points="316.5,-200.458 320,-210.458 323.5,-200.458 316.5,-200.458"/>
<text text-anchor="middle" x="340.5" y="-177.5" font-family="Helvetica,sans-Serif" font-size="10.00"> thisString</text>
</g>
<!-- Node20 -->
<g id="node38" class="node"><title>Node20</title>
<a xlink:title="STL class.">
<polygon fill="none" stroke="#bfbfbf" points="275.5,-285 275.5,-315 364.5,-315 364.5,-285 275.5,-285"/>
<text text-anchor="start" x="283.5" y="-303" font-family="Helvetica,sans-Serif" font-size="10.00">std::basic_string&lt;</text>
<text text-anchor="middle" x="320" y="-292" font-family="Helvetica,sans-Serif" font-size="10.00"> char &gt;</text>
</a>
</g>
<!-- Node20&#45;&gt;Node19 -->
<g id="edge38" class="edge"><title>Node20&#45;&gt;Node19</title>
<path fill="none" stroke="midnightblue" d="M320,-274.394C320,-259.208 320,-240.635 320,-229.876"/>
<polygon fill="midnightblue" stroke="midnightblue" points="316.5,-274.694 320,-284.694 323.5,-274.694 316.5,-274.694"/>
</g>
<!-- Node21 -->
<g id="node40" class="node"><title>Node21</title>
<a xlink:href="struct_om_1_1_operand.html" target="_top" xlink:title="The Operand implementation.">
<polygon fill="none" stroke="black" points="169.5,-210.5 169.5,-229.5 244.5,-229.5 244.5,-210.5 169.5,-210.5"/>
<text text-anchor="middle" x="207" y="-217.5" font-family="Helvetica,sans-Serif" font-size="10.00">Om::Operand</text>
</a>
</g>
<!-- Node21&#45;&gt;Node1 -->
<g id="edge40" class="edge"><title>Node21&#45;&gt;Node1</title>
<path fill="none" stroke="#9a32cd" stroke-dasharray="5,2" d="M210.056,-200.302C217.145,-156.934 234.49,-50.824 239.576,-19.7097"/>
<polygon fill="#9a32cd" stroke="#9a32cd" points="206.577,-199.894 208.418,-210.327 213.485,-201.023 206.577,-199.894"/>
<text text-anchor="middle" x="254" y="-109.5" font-family="Helvetica,sans-Serif" font-size="10.00"> thisOperand</text>
</g>
<!-- Node22 -->
<g id="node42" class="node"><title>Node22</title>
<a xlink:href="struct_om_1_1_default_element.html" target="_top" xlink:title="Om::DefaultElement\l\&lt; Operand \&gt;">
<polygon fill="none" stroke="black" points="156.5,-285 156.5,-315 257.5,-315 257.5,-285 156.5,-285"/>
<text text-anchor="start" x="164.5" y="-303" font-family="Helvetica,sans-Serif" font-size="10.00">Om::DefaultElement</text>
<text text-anchor="middle" x="207" y="-292" font-family="Helvetica,sans-Serif" font-size="10.00">&lt; Operand &gt;</text>
</a>
</g>
<!-- Node22&#45;&gt;Node21 -->
<g id="edge42" class="edge"><title>Node22&#45;&gt;Node21</title>
<path fill="none" stroke="midnightblue" d="M207,-274.394C207,-259.208 207,-240.635 207,-229.876"/>
<polygon fill="midnightblue" stroke="midnightblue" points="203.5,-274.694 207,-284.694 210.5,-274.694 203.5,-274.694"/>
</g>
<!-- Node23 -->
<g id="node44" class="node"><title>Node23</title>
<a xlink:href="struct_om_1_1_default_program.html" target="_top" xlink:title="Om::DefaultProgram\l\&lt; Operand, Element \&gt;">
<polygon fill="none" stroke="black" points="152,-360 152,-390 262,-390 262,-360 152,-360"/>
<text text-anchor="start" x="160" y="-378" font-family="Helvetica,sans-Serif" font-size="10.00">Om::DefaultProgram</text>
<text text-anchor="middle" x="207" y="-367" font-family="Helvetica,sans-Serif" font-size="10.00">&lt; Operand, Element &gt;</text>
</a>
</g>
<!-- Node23&#45;&gt;Node22 -->
<g id="edge44" class="edge"><title>Node23&#45;&gt;Node22</title>
<path fill="none" stroke="midnightblue" d="M207,-349.629C207,-338.129 207,-324.818 207,-315.032"/>
<polygon fill="midnightblue" stroke="midnightblue" points="203.5,-349.925 207,-359.925 210.5,-349.925 203.5,-349.925"/>
</g>
<!-- Node24 -->
<g id="node46" class="node"><title>Node24</title>
<a xlink:href="struct_om_1_1_default_queue.html" target="_top" xlink:title="Om::DefaultQueue\&lt; Operand,\l DefaultGiveable\&lt; Operand,\l Element \&gt; \&gt;">
<polygon fill="none" stroke="black" points="156.5,-434.5 156.5,-475.5 301.5,-475.5 301.5,-434.5 156.5,-434.5"/>
<text text-anchor="start" x="164.5" y="-463.5" font-family="Helvetica,sans-Serif" font-size="10.00">Om::DefaultQueue&lt; Operand,</text>
<text text-anchor="start" x="164.5" y="-452.5" font-family="Helvetica,sans-Serif" font-size="10.00"> DefaultGiveable&lt; Operand,</text>
<text text-anchor="middle" x="229" y="-441.5" font-family="Helvetica,sans-Serif" font-size="10.00"> Element &gt; &gt;</text>
</a>
</g>
<!-- Node24&#45;&gt;Node23 -->
<g id="edge46" class="edge"><title>Node24&#45;&gt;Node23</title>
<path fill="none" stroke="midnightblue" d="M220.665,-424.45C217.362,-412.737 213.716,-399.813 211.022,-390.261"/>
<polygon fill="midnightblue" stroke="midnightblue" points="217.365,-425.643 223.448,-434.317 224.102,-423.743 217.365,-425.643"/>
</g>
<!-- Node25 -->
<g id="node48" class="node"><title>Node25</title>
<a xlink:href="struct_om_1_1_default_giveable.html" target="_top" xlink:title="Om::DefaultGiveable\l\&lt; Operand, Element \&gt;">
<polygon fill="none" stroke="black" points="174,-520 174,-550 284,-550 284,-520 174,-520"/>
<text text-anchor="start" x="182" y="-538" font-family="Helvetica,sans-Serif" font-size="10.00">Om::DefaultGiveable</text>
<text text-anchor="middle" x="229" y="-527" font-family="Helvetica,sans-Serif" font-size="10.00">&lt; Operand, Element &gt;</text>
</a>
</g>
<!-- Node25&#45;&gt;Node24 -->
<g id="edge48" class="edge"><title>Node25&#45;&gt;Node24</title>
<path fill="none" stroke="midnightblue" d="M229,-509.487C229,-498.531 229,-485.797 229,-475.503"/>
<polygon fill="midnightblue" stroke="midnightblue" points="225.5,-509.694 229,-519.694 232.5,-509.694 225.5,-509.694"/>
</g>
<!-- Node26 -->
<g id="node50" class="node"><title>Node26</title>
<a xlink:href="struct_om_1_1_default_moveable.html" target="_top" xlink:title="Om::DefaultMoveable\l\&lt; Operand, DefaultCopyable\l\&lt; Operand, Element \&gt; \&gt;">
<polygon fill="none" stroke="black" points="158.5,-594.5 158.5,-635.5 299.5,-635.5 299.5,-594.5 158.5,-594.5"/>
<text text-anchor="start" x="166.5" y="-623.5" font-family="Helvetica,sans-Serif" font-size="10.00">Om::DefaultMoveable</text>
<text text-anchor="start" x="166.5" y="-612.5" font-family="Helvetica,sans-Serif" font-size="10.00">&lt; Operand, DefaultCopyable</text>
<text text-anchor="middle" x="229" y="-601.5" font-family="Helvetica,sans-Serif" font-size="10.00">&lt; Operand, Element &gt; &gt;</text>
</a>
</g>
<!-- Node26&#45;&gt;Node25 -->
<g id="edge50" class="edge"><title>Node26&#45;&gt;Node25</title>
<path fill="none" stroke="midnightblue" d="M229,-584.095C229,-572.476 229,-559.716 229,-550.261"/>
<polygon fill="midnightblue" stroke="midnightblue" points="225.5,-584.317 229,-594.317 232.5,-584.317 225.5,-584.317"/>
</g>
<!-- Node27&#45;&gt;Node26 -->
<g id="edge52" class="edge"><title>Node27&#45;&gt;Node26</title>
<path fill="none" stroke="midnightblue" d="M245.845,-665.188C242.56,-655.595 238.817,-644.666 235.695,-635.551"/>
<polygon fill="midnightblue" stroke="midnightblue" points="242.629,-666.598 249.18,-674.925 249.251,-664.33 242.629,-666.598"/>
</g>
<!-- Node28 -->
<g id="node55" class="node"><title>Node28</title>
<a xlink:href="struct_om_1_1_taker.html" target="_top" xlink:title="Om::Taker\&lt; Operand \&gt;">
<polygon fill="none" stroke="black" points="23.5,-445.5 23.5,-464.5 138.5,-464.5 138.5,-445.5 23.5,-445.5"/>
<text text-anchor="middle" x="81" y="-452.5" font-family="Helvetica,sans-Serif" font-size="10.00">Om::Taker&lt; Operand &gt;</text>
</a>
</g>
<!-- Node28&#45;&gt;Node23 -->
<g id="edge56" class="edge"><title>Node28&#45;&gt;Node23</title>
<path fill="none" stroke="midnightblue" d="M103.603,-440.008C126.323,-425.943 161.164,-404.374 184.018,-390.227"/>
<polygon fill="midnightblue" stroke="midnightblue" points="101.626,-437.115 94.9656,-445.355 105.311,-443.067 101.626,-437.115"/>
</g>
<!-- Node29 -->
<g id="node57" class="node"><title>Node29</title>
<a xlink:href="struct_om_1_1_owner.html" target="_top" xlink:title="Om::Owner\&lt; Om::Program \&gt;">
<polygon fill="none" stroke="black" points="0,-290.5 0,-309.5 138,-309.5 138,-290.5 0,-290.5"/>
<text text-anchor="middle" x="69" y="-297.5" font-family="Helvetica,sans-Serif" font-size="10.00">Om::Owner&lt; Om::Program &gt;</text>
</a>
</g>
<!-- Node29&#45;&gt;Node21 -->
<g id="edge58" class="edge"><title>Node29&#45;&gt;Node21</title>
<path fill="none" stroke="#9a32cd" stroke-dasharray="5,2" d="M93.1775,-285.334C121.554,-269.295 167.761,-243.179 191.636,-229.684"/>
<polygon fill="#9a32cd" stroke="#9a32cd" points="91.2791,-282.387 84.2957,-290.355 94.7235,-288.481 91.2791,-282.387"/>
<text text-anchor="middle" x="173.5" y="-257.5" font-family="Helvetica,sans-Serif" font-size="10.00"> thisProgram</text>
</g>
<!-- Node30 -->
<g id="node59" class="node"><title>Node30</title>
<a xlink:href="struct_om_1_1_taker.html" target="_top" xlink:title="Om::Taker\&lt; Owner\&lt; Om\l::Program \&gt; \&gt;">
<polygon fill="none" stroke="black" points="8,-360 8,-390 130,-390 130,-360 8,-360"/>
<text text-anchor="start" x="16" y="-378" font-family="Helvetica,sans-Serif" font-size="10.00">Om::Taker&lt; Owner&lt; Om</text>
<text text-anchor="middle" x="69" y="-367" font-family="Helvetica,sans-Serif" font-size="10.00">::Program &gt; &gt;</text>
</a>
</g>
<!-- Node30&#45;&gt;Node29 -->
<g id="edge60" class="edge"><title>Node30&#45;&gt;Node29</title>
<path fill="none" stroke="midnightblue" d="M69,-349.574C69,-335.751 69,-319.325 69,-309.553"/>
<polygon fill="midnightblue" stroke="midnightblue" points="65.5001,-349.925 69,-359.925 72.5001,-349.925 65.5001,-349.925"/>
</g>
</g>
</svg>
