<?xml version="1.0" encoding="UTF-8" standalone="no"?>
<!DOCTYPE svg PUBLIC "-//W3C//DTD SVG 1.1//EN"
 "http://www.w3.org/Graphics/SVG/1.1/DTD/svg11.dtd">
<!-- Generated by graphviz version 2.28.0 (20120817.0054)
 -->
<!-- Title: Om::Sources::IteratorSource&lt; ThisItem, ThisIterator &gt; Pages: 1 -->
<svg width="516pt" height="101pt"
 viewBox="0.00 0.00 516.00 101.00" xmlns="http://www.w3.org/2000/svg" xmlns:xlink="http://www.w3.org/1999/xlink">
<g id="graph1" class="graph" transform="scale(1 1) rotate(0) translate(4 97)">
<title>Om::Sources::IteratorSource&lt; ThisItem, ThisIterator &gt;</title>
<!-- Node1 -->
<g id="node1" class="node"><title>Node1</title>
<polygon fill="#bfbfbf" stroke="black" points="374.5,-13 374.5,-43 507.5,-43 507.5,-13 374.5,-13"/>
<text text-anchor="start" x="382.5" y="-31" font-family="Helvetica,sans-Serif" font-size="10.00">Om::Sources::IteratorSource</text>
<text text-anchor="middle" x="441" y="-20" font-family="Helvetica,sans-Serif" font-size="10.00">&lt; ThisItem, ThisIterator &gt;</text>
</g>
<!-- Node2 -->
<g id="node2" class="node"><title>Node2</title>
<a xlink:href="struct_om_1_1_sources_1_1_default_source.html" target="_top" xlink:title="Om::Sources::DefaultSource\l\&lt; ThisItem, IteratorSource\l\&lt; ThisItem, ThisIterator \&gt; \&gt;">
<polygon fill="none" stroke="black" points="156.5,-38.5 156.5,-79.5 291.5,-79.5 291.5,-38.5 156.5,-38.5"/>
<text text-anchor="start" x="164.5" y="-67.5" font-family="Helvetica,sans-Serif" font-size="10.00">Om::Sources::DefaultSource</text>
<text text-anchor="start" x="164.5" y="-56.5" font-family="Helvetica,sans-Serif" font-size="10.00">&lt; ThisItem, IteratorSource</text>
<text text-anchor="middle" x="224" y="-45.5" font-family="Helvetica,sans-Serif" font-size="10.00">&lt; ThisItem, ThisIterator &gt; &gt;</text>
</a>
</g>
<!-- Node2&#45;&gt;Node1 -->
<g id="edge2" class="edge"><title>Node2&#45;&gt;Node1</title>
<path fill="none" stroke="midnightblue" d="M301.618,-47.9527C325.45,-44.5164 351.496,-40.7611 374.497,-37.4446"/>
<polygon fill="midnightblue" stroke="midnightblue" points="300.953,-44.5123 291.555,-49.4037 301.952,-51.4407 300.953,-44.5123"/>
</g>
<!-- Node3 -->
<g id="node4" class="node"><title>Node3</title>
<a xlink:href="struct_om_1_1_source.html" target="_top" xlink:title="Any object that items can be pulled from.">
<polygon fill="none" stroke="black" points="0.5,-73.5 0.5,-92.5 117.5,-92.5 117.5,-73.5 0.5,-73.5"/>
<text text-anchor="middle" x="59" y="-80.5" font-family="Helvetica,sans-Serif" font-size="10.00">Om::Source&lt; ThisItem &gt;</text>
</a>
</g>
<!-- Node3&#45;&gt;Node2 -->
<g id="edge4" class="edge"><title>Node3&#45;&gt;Node2</title>
<path fill="none" stroke="midnightblue" d="M127.989,-72.9894C137.374,-71.6076 147.004,-70.1896 156.364,-68.8115"/>
<polygon fill="midnightblue" stroke="midnightblue" points="127.31,-69.5515 117.927,-74.4709 128.33,-76.4768 127.31,-69.5515"/>
</g>
<!-- Node4 -->
<g id="node6" class="node"><title>Node4</title>
<a xlink:href="classstd_1_1iterator.html" target="_top" xlink:title="std::iterator\&lt; std\l::input_iterator_tag,\l ThisItem \&gt;">
<polygon fill="none" stroke="black" points="11.5,-13.5 11.5,-54.5 106.5,-54.5 106.5,-13.5 11.5,-13.5"/>
<text text-anchor="start" x="19.5" y="-42.5" font-family="Helvetica,sans-Serif" font-size="10.00">std::iterator&lt; std</text>
<text text-anchor="start" x="19.5" y="-31.5" font-family="Helvetica,sans-Serif" font-size="10.00">::input_iterator_tag,</text>
<text text-anchor="middle" x="59" y="-20.5" font-family="Helvetica,sans-Serif" font-size="10.00"> ThisItem &gt;</text>
</a>
</g>
<!-- Node4&#45;&gt;Node2 -->
<g id="edge6" class="edge"><title>Node4&#45;&gt;Node2</title>
<path fill="none" stroke="midnightblue" d="M116.719,-42.6992C129.472,-44.6553 143.121,-46.7486 156.242,-48.7611"/>
<polygon fill="midnightblue" stroke="midnightblue" points="117.124,-39.2205 106.709,-41.164 116.063,-46.1396 117.124,-39.2205"/>
</g>
<!-- Node5 -->
<g id="node8" class="node"><title>Node5</title>
<polygon fill="none" stroke="#bfbfbf" points="193,-0.5 193,-19.5 255,-19.5 255,-0.5 193,-0.5"/>
<text text-anchor="middle" x="224" y="-7.5" font-family="Helvetica,sans-Serif" font-size="10.00">ThisIterator</text>
</g>
<!-- Node5&#45;&gt;Node1 -->
<g id="edge8" class="edge"><title>Node5&#45;&gt;Node1</title>
<path fill="none" stroke="#9a32cd" stroke-dasharray="5,2" d="M265.654,-13.4036C296.297,-15.9691 338.955,-19.5404 374.405,-22.5083"/>
<polygon fill="#9a32cd" stroke="#9a32cd" points="265.605,-9.88736 255.348,-12.5408 265.021,-16.863 265.605,-9.88736"/>
<text text-anchor="middle" x="333" y="-24" font-family="Helvetica,sans-Serif" font-size="10.00"> thisIterator</text>
</g>
</g>
</svg>
