<?xml version="1.0" encoding="UTF-8" standalone="no"?>
<!DOCTYPE svg PUBLIC "-//W3C//DTD SVG 1.1//EN"
 "http://www.w3.org/Graphics/SVG/1.1/DTD/svg11.dtd">
<!-- Generated by graphviz version 2.28.0 (20120817.0054)
 -->
<!-- Title: Om::Literal::ElementRange&lt; Literal const &#160;&gt; Pages: 1 -->
<svg width="886pt" height="99pt"
 viewBox="0.00 0.00 886.00 99.00" xmlns="http://www.w3.org/2000/svg" xmlns:xlink="http://www.w3.org/1999/xlink">
<g id="graph1" class="graph" transform="scale(1 1) rotate(0) translate(4 95)">
<title>Om::Literal::ElementRange&lt; Literal const &#160;&gt;</title>
<!-- Node1 -->
<g id="node1" class="node"><title>Node1</title>
<polygon fill="#bfbfbf" stroke="black" points="750,-33 750,-63 878,-63 878,-33 750,-33"/>
<text text-anchor="start" x="758" y="-51" font-family="Helvetica,sans-Serif" font-size="10.00">Om::Literal::ElementRange</text>
<text text-anchor="middle" x="814" y="-40" font-family="Helvetica,sans-Serif" font-size="10.00">&lt; Literal const &gt;</text>
</g>
<!-- Node2 -->
<g id="node2" class="node"><title>Node2</title>
<a xlink:href="struct_om_1_1_sources_1_1_collection_front_source.html" target="_top" xlink:title="Om::Sources::CollectionFront\lSource\&lt; Element const, ElementDeque\l::const_iterator \&gt;">
<polygon fill="none" stroke="black" points="532.5,-27.5 532.5,-68.5 713.5,-68.5 713.5,-27.5 532.5,-27.5"/>
<text text-anchor="start" x="540.5" y="-56.5" font-family="Helvetica,sans-Serif" font-size="10.00">Om::Sources::CollectionFront</text>
<text text-anchor="start" x="540.5" y="-45.5" font-family="Helvetica,sans-Serif" font-size="10.00">Source&lt; Element const, ElementDeque</text>
<text text-anchor="middle" x="623" y="-34.5" font-family="Helvetica,sans-Serif" font-size="10.00">::const_iterator &gt;</text>
</a>
</g>
<!-- Node2&#45;&gt;Node1 -->
<g id="edge2" class="edge"><title>Node2&#45;&gt;Node1</title>
<path fill="none" stroke="midnightblue" d="M723.623,-48C732.565,-48 741.446,-48 749.944,-48"/>
<polygon fill="midnightblue" stroke="midnightblue" points="723.519,-44.5001 713.519,-48 723.519,-51.5001 723.519,-44.5001"/>
</g>
<!-- Node3 -->
<g id="node4" class="node"><title>Node3</title>
<a xlink:href="struct_om_1_1_sources_1_1_iterator_pair_source.html" target="_top" xlink:title="Om::Sources::IteratorPair\lSource\&lt; Element const ,\l ElementDeque::const_iterator \&gt;">
<polygon fill="none" stroke="black" points="346.5,-27.5 346.5,-68.5 495.5,-68.5 495.5,-27.5 346.5,-27.5"/>
<text text-anchor="start" x="354.5" y="-56.5" font-family="Helvetica,sans-Serif" font-size="10.00">Om::Sources::IteratorPair</text>
<text text-anchor="start" x="354.5" y="-45.5" font-family="Helvetica,sans-Serif" font-size="10.00">Source&lt; Element const ,</text>
<text text-anchor="middle" x="421" y="-34.5" font-family="Helvetica,sans-Serif" font-size="10.00"> ElementDeque::const_iterator &gt;</text>
</a>
</g>
<!-- Node3&#45;&gt;Node2 -->
<g id="edge4" class="edge"><title>Node3&#45;&gt;Node2</title>
<path fill="none" stroke="midnightblue" d="M505.787,-48C514.528,-48 523.439,-48 532.243,-48"/>
<polygon fill="midnightblue" stroke="midnightblue" points="505.621,-44.5001 495.621,-48 505.621,-51.5001 505.621,-44.5001"/>
</g>
<!-- Node4 -->
<g id="node6" class="node"><title>Node4</title>
<a xlink:href="struct_om_1_1_sources_1_1_default_source.html" target="_top" xlink:title="Om::Sources::DefaultSource\l\&lt; Element const , IteratorPairSource\l\&lt; Element const , ElementDeque\l::const_iterator \&gt; \&gt;">
<polygon fill="none" stroke="black" points="144,-22 144,-74 310,-74 310,-22 144,-22"/>
<text text-anchor="start" x="152" y="-62" font-family="Helvetica,sans-Serif" font-size="10.00">Om::Sources::DefaultSource</text>
<text text-anchor="start" x="152" y="-51" font-family="Helvetica,sans-Serif" font-size="10.00">&lt; Element const , IteratorPairSource</text>
<text text-anchor="start" x="152" y="-40" font-family="Helvetica,sans-Serif" font-size="10.00">&lt; Element const , ElementDeque</text>
<text text-anchor="middle" x="227" y="-29" font-family="Helvetica,sans-Serif" font-size="10.00">::const_iterator &gt; &gt;</text>
</a>
</g>
<!-- Node4&#45;&gt;Node3 -->
<g id="edge6" class="edge"><title>Node4&#45;&gt;Node3</title>
<path fill="none" stroke="midnightblue" d="M320.447,-48C329.154,-48 337.899,-48 346.397,-48"/>
<polygon fill="midnightblue" stroke="midnightblue" points="320.261,-44.5001 310.261,-48 320.261,-51.5001 320.261,-44.5001"/>
</g>
<!-- Node5 -->
<g id="node8" class="node"><title>Node5</title>
<a xlink:href="struct_om_1_1_source.html" target="_top" xlink:title="Om::Source\&lt; Element\l const &#160;\&gt;">
<polygon fill="none" stroke="black" points="0,-61 0,-91 108,-91 108,-61 0,-61"/>
<text text-anchor="start" x="8" y="-79" font-family="Helvetica,sans-Serif" font-size="10.00">Om::Source&lt; Element</text>
<text text-anchor="middle" x="54" y="-68" font-family="Helvetica,sans-Serif" font-size="10.00"> const &gt;</text>
</a>
</g>
<!-- Node5&#45;&gt;Node4 -->
<g id="edge8" class="edge"><title>Node5&#45;&gt;Node4</title>
<path fill="none" stroke="midnightblue" d="M118.231,-65.6464C126.625,-64.2719 135.328,-62.8469 143.982,-61.4298"/>
<polygon fill="midnightblue" stroke="midnightblue" points="117.471,-62.2241 108.168,-67.2941 118.602,-69.1321 117.471,-62.2241"/>
</g>
<!-- Node6 -->
<g id="node10" class="node"><title>Node6</title>
<a xlink:href="classstd_1_1iterator.html" target="_top" xlink:title="std::iterator\&lt; std\l::input_iterator_tag,\l Element const &#160;\&gt;">
<polygon fill="none" stroke="black" points="6.5,-0.5 6.5,-41.5 101.5,-41.5 101.5,-0.5 6.5,-0.5"/>
<text text-anchor="start" x="14.5" y="-29.5" font-family="Helvetica,sans-Serif" font-size="10.00">std::iterator&lt; std</text>
<text text-anchor="start" x="14.5" y="-18.5" font-family="Helvetica,sans-Serif" font-size="10.00">::input_iterator_tag,</text>
<text text-anchor="middle" x="54" y="-7.5" font-family="Helvetica,sans-Serif" font-size="10.00"> Element const &gt;</text>
</a>
</g>
<!-- Node6&#45;&gt;Node4 -->
<g id="edge10" class="edge"><title>Node6&#45;&gt;Node4</title>
<path fill="none" stroke="midnightblue" d="M111.777,-29.9648C122.063,-31.5889 132.976,-33.312 143.818,-35.0239"/>
<polygon fill="midnightblue" stroke="midnightblue" points="112.15,-26.4804 101.727,-28.3779 111.058,-33.3947 112.15,-26.4804"/>
</g>
</g>
</svg>
