<?xml version="1.0" encoding="UTF-8" standalone="no"?>
<!DOCTYPE svg PUBLIC "-//W3C//DTD SVG 1.1//EN"
 "http://www.w3.org/Graphics/SVG/1.1/DTD/svg11.dtd">
<!-- Generated by graphviz version 2.28.0 (20120817.0054)
 -->
<!-- Title: Om::Translator Pages: 1 -->
<svg width="660pt" height="1236pt"
 viewBox="0.00 0.00 660.00 1236.00" xmlns="http://www.w3.org/2000/svg" xmlns:xlink="http://www.w3.org/1999/xlink">
<g id="graph1" class="graph" transform="scale(1 1) rotate(0) translate(4 1232)">
<title>Om::Translator</title>
<!-- Node1 -->
<g id="node1" class="node"><title>Node1</title>
<polygon fill="#bfbfbf" stroke="black" points="223,-0.5 223,-19.5 301,-19.5 301,-0.5 223,-0.5"/>
<text text-anchor="middle" x="262" y="-7.5" font-family="Helvetica,sans-Serif" font-size="10.00">Om::Translator</text>
</g>
<!-- Node2 -->
<g id="node2" class="node"><title>Node2</title>
<a xlink:href="struct_om_1_1_sinks_1_1_default_sink.html" target="_top" xlink:title="Om::Sinks::DefaultSink\l\&lt; Lexicon const, Translator \&gt;">
<polygon fill="none" stroke="black" points="47.5,-69 47.5,-99 184.5,-99 184.5,-69 47.5,-69"/>
<text text-anchor="start" x="55.5" y="-87" font-family="Helvetica,sans-Serif" font-size="10.00">Om::Sinks::DefaultSink</text>
<text text-anchor="middle" x="116" y="-76" font-family="Helvetica,sans-Serif" font-size="10.00">&lt; Lexicon const, Translator &gt;</text>
</a>
</g>
<!-- Node2&#45;&gt;Node1 -->
<g id="edge2" class="edge"><title>Node2&#45;&gt;Node1</title>
<path fill="none" stroke="midnightblue" d="M153.621,-64.447C182.915,-50.0007 222.234,-30.6108 244.567,-19.5972"/>
<polygon fill="midnightblue" stroke="midnightblue" points="151.918,-61.3847 144.497,-68.9468 155.014,-67.6628 151.918,-61.3847"/>
</g>
<!-- Node3 -->
<g id="node4" class="node"><title>Node3</title>
<a xlink:href="struct_om_1_1_sink.html" target="_top" xlink:title="Om::Sink\&lt; Lexicon const &#160;\&gt;">
<polygon fill="none" stroke="black" points="118.5,-159.5 118.5,-178.5 247.5,-178.5 247.5,-159.5 118.5,-159.5"/>
<text text-anchor="middle" x="183" y="-166.5" font-family="Helvetica,sans-Serif" font-size="10.00">Om::Sink&lt; Lexicon const &gt;</text>
</a>
</g>
<!-- Node3&#45;&gt;Node2 -->
<g id="edge4" class="edge"><title>Node3&#45;&gt;Node2</title>
<path fill="none" stroke="midnightblue" d="M169.571,-151.365C157.226,-136.071 139.121,-113.642 127.446,-99.1798"/>
<polygon fill="midnightblue" stroke="midnightblue" points="167.078,-153.847 176.082,-159.43 172.524,-149.451 167.078,-153.847"/>
</g>
<!-- Node4 -->
<g id="node6" class="node"><title>Node4</title>
<a xlink:href="classstd_1_1iterator.html" target="_top" xlink:title="std::iterator\&lt; std\l::output_iterator_tag,\l Lexicon const &#160;\&gt;">
<polygon fill="none" stroke="black" points="-0.5,-148.5 -0.5,-189.5 100.5,-189.5 100.5,-148.5 -0.5,-148.5"/>
<text text-anchor="start" x="7.5" y="-177.5" font-family="Helvetica,sans-Serif" font-size="10.00">std::iterator&lt; std</text>
<text text-anchor="start" x="7.5" y="-166.5" font-family="Helvetica,sans-Serif" font-size="10.00">::output_iterator_tag,</text>
<text text-anchor="middle" x="50" y="-155.5" font-family="Helvetica,sans-Serif" font-size="10.00"> Lexicon const &gt;</text>
</a>
</g>
<!-- Node4&#45;&gt;Node2 -->
<g id="edge6" class="edge"><title>Node4&#45;&gt;Node2</title>
<path fill="none" stroke="midnightblue" d="M71.8744,-140.491C82.904,-126.621 95.8116,-110.388 104.806,-99.0769"/>
<polygon fill="midnightblue" stroke="midnightblue" points="69.1256,-138.325 65.6411,-148.33 74.6045,-142.681 69.1256,-138.325"/>
</g>
<!-- Node5 -->
<g id="node8" class="node"><title>Node5</title>
<a xlink:href="struct_om_1_1_taker.html" target="_top" xlink:title="Om::Taker\&lt; Translator \&gt;">
<polygon fill="none" stroke="black" points="203,-74.5 203,-93.5 321,-93.5 321,-74.5 203,-74.5"/>
<text text-anchor="middle" x="262" y="-81.5" font-family="Helvetica,sans-Serif" font-size="10.00">Om::Taker&lt; Translator &gt;</text>
</a>
</g>
<!-- Node5&#45;&gt;Node1 -->
<g id="edge8" class="edge"><title>Node5&#45;&gt;Node1</title>
<path fill="none" stroke="midnightblue" d="M262,-64.1562C262,-49.7123 262,-30.4594 262,-19.531"/>
<polygon fill="midnightblue" stroke="midnightblue" points="258.5,-64.4579 262,-74.4579 265.5,-64.4579 258.5,-64.4579"/>
</g>
<!-- Node6 -->
<g id="node10" class="node"><title>Node6</title>
<polygon fill="none" stroke="#bfbfbf" points="339.5,-69 339.5,-99 438.5,-99 438.5,-69 339.5,-69"/>
<text text-anchor="start" x="347.5" y="-87" font-family="Helvetica,sans-Serif" font-size="10.00">std::vector&lt; Lexicon</text>
<text text-anchor="middle" x="389" y="-76" font-family="Helvetica,sans-Serif" font-size="10.00"> const * &gt;</text>
</g>
<!-- Node6&#45;&gt;Node1 -->
<g id="edge10" class="edge"><title>Node6&#45;&gt;Node1</title>
<path fill="none" stroke="#9a32cd" stroke-dasharray="5,2" d="M355.277,-63.8817C329.907,-49.4985 296.339,-30.4677 277.164,-19.5972"/>
<polygon fill="#9a32cd" stroke="#9a32cd" points="353.786,-67.0596 364.212,-68.9468 357.239,-60.9701 353.786,-67.0596"/>
<text text-anchor="middle" x="367" y="-41.5" font-family="Helvetica,sans-Serif" font-size="10.00"> thisLexiconVector</text>
</g>
<!-- Node7 -->
<g id="node12" class="node"><title>Node7</title>
<a xlink:href="struct_om_1_1_lexicon.html" target="_top" xlink:title="The Lexicon Program implementation.">
<polygon fill="none" stroke="black" points="354.5,-159.5 354.5,-178.5 423.5,-178.5 423.5,-159.5 354.5,-159.5"/>
<text text-anchor="middle" x="389" y="-166.5" font-family="Helvetica,sans-Serif" font-size="10.00">Om::Lexicon</text>
</a>
</g>
<!-- Node7&#45;&gt;Node6 -->
<g id="edge12" class="edge"><title>Node7&#45;&gt;Node6</title>
<path fill="none" stroke="#9a32cd" stroke-dasharray="5,2" d="M389,-149.175C389,-133.993 389,-112.967 389,-99.1798"/>
<polygon fill="#9a32cd" stroke="#9a32cd" points="385.5,-149.43 389,-159.43 392.5,-149.43 385.5,-149.43"/>
<text text-anchor="middle" x="409.5" y="-121.5" font-family="Helvetica,sans-Serif" font-size="10.00"> elements</text>
</g>
<!-- Node8 -->
<g id="node14" class="node"><title>Node8</title>
<a xlink:href="struct_om_1_1_default_program.html" target="_top" xlink:title="Om::DefaultProgram\l\&lt; Lexicon \&gt;">
<polygon fill="none" stroke="black" points="394,-723 394,-753 496,-753 496,-723 394,-723"/>
<text text-anchor="start" x="402" y="-741" font-family="Helvetica,sans-Serif" font-size="10.00">Om::DefaultProgram</text>
<text text-anchor="middle" x="445" y="-730" font-family="Helvetica,sans-Serif" font-size="10.00">&lt; Lexicon &gt;</text>
</a>
</g>
<!-- Node8&#45;&gt;Node7 -->
<g id="edge14" class="edge"><title>Node8&#45;&gt;Node7</title>
<path fill="none" stroke="midnightblue" d="M445,-712.346C445,-698.198 445,-680.1 445,-664 445,-664 445,-664 445,-258 445,-224.317 415.438,-193.125 399.271,-178.585"/>
<polygon fill="midnightblue" stroke="midnightblue" points="441.5,-712.732 445,-722.732 448.5,-712.732 441.5,-712.732"/>
</g>
<!-- Node9 -->
<g id="node16" class="node"><title>Node9</title>
<a xlink:href="struct_om_1_1_default_queue.html" target="_top" xlink:title="Om::DefaultQueue\&lt; Lexicon,\l DefaultGiveable\&lt; Lexicon,\l Program \&gt; \&gt;">
<polygon fill="none" stroke="black" points="513.5,-792.5 513.5,-833.5 652.5,-833.5 652.5,-792.5 513.5,-792.5"/>
<text text-anchor="start" x="521.5" y="-821.5" font-family="Helvetica,sans-Serif" font-size="10.00">Om::DefaultQueue&lt; Lexicon,</text>
<text text-anchor="start" x="521.5" y="-810.5" font-family="Helvetica,sans-Serif" font-size="10.00"> DefaultGiveable&lt; Lexicon,</text>
<text text-anchor="middle" x="583" y="-799.5" font-family="Helvetica,sans-Serif" font-size="10.00"> Program &gt; &gt;</text>
</a>
</g>
<!-- Node9&#45;&gt;Node8 -->
<g id="edge16" class="edge"><title>Node9&#45;&gt;Node8</title>
<path fill="none" stroke="midnightblue" d="M536.948,-787.639C515.226,-776.148 490.079,-762.846 471.58,-753.06"/>
<polygon fill="midnightblue" stroke="midnightblue" points="535.542,-790.855 546.019,-792.437 538.816,-784.668 535.542,-790.855"/>
</g>
<!-- Node10 -->
<g id="node18" class="node"><title>Node10</title>
<a xlink:href="struct_om_1_1_default_giveable.html" target="_top" xlink:title="Om::DefaultGiveable\l\&lt; Lexicon, Program \&gt;">
<polygon fill="none" stroke="black" points="480,-873 480,-903 586,-903 586,-873 480,-873"/>
<text text-anchor="start" x="488" y="-891" font-family="Helvetica,sans-Serif" font-size="10.00">Om::DefaultGiveable</text>
<text text-anchor="middle" x="533" y="-880" font-family="Helvetica,sans-Serif" font-size="10.00">&lt; Lexicon, Program &gt;</text>
</a>
</g>
<!-- Node10&#45;&gt;Node9 -->
<g id="edge18" class="edge"><title>Node10&#45;&gt;Node9</title>
<path fill="none" stroke="midnightblue" d="M548.476,-864.406C555.241,-854.529 563.1,-843.054 569.609,-833.551"/>
<polygon fill="midnightblue" stroke="midnightblue" points="545.404,-862.697 542.641,-872.925 551.179,-866.652 545.404,-862.697"/>
</g>
<!-- Node11 -->
<g id="node20" class="node"><title>Node11</title>
<a xlink:href="struct_om_1_1_default_moveable.html" target="_top" xlink:title="Om::DefaultMoveable\l\&lt; Lexicon, DefaultCopyable\l\&lt; Lexicon, Program \&gt; \&gt;">
<polygon fill="none" stroke="black" points="458.5,-942.5 458.5,-983.5 593.5,-983.5 593.5,-942.5 458.5,-942.5"/>
<text text-anchor="start" x="466.5" y="-971.5" font-family="Helvetica,sans-Serif" font-size="10.00">Om::DefaultMoveable</text>
<text text-anchor="start" x="466.5" y="-960.5" font-family="Helvetica,sans-Serif" font-size="10.00">&lt; Lexicon, DefaultCopyable</text>
<text text-anchor="middle" x="526" y="-949.5" font-family="Helvetica,sans-Serif" font-size="10.00">&lt; Lexicon, Program &gt; &gt;</text>
</a>
</g>
<!-- Node11&#45;&gt;Node10 -->
<g id="edge20" class="edge"><title>Node11&#45;&gt;Node10</title>
<path fill="none" stroke="midnightblue" d="M528.841,-932.372C529.803,-922.335 530.835,-911.579 531.63,-903.289"/>
<polygon fill="midnightblue" stroke="midnightblue" points="525.346,-932.149 527.876,-942.437 532.315,-932.817 525.346,-932.149"/>
</g>
<!-- Node12 -->
<g id="node22" class="node"><title>Node12</title>
<a xlink:href="struct_om_1_1_default_copyable.html" target="_top" xlink:title="Om::DefaultCopyable\l\&lt; Lexicon, Program \&gt;">
<polygon fill="none" stroke="black" points="468,-1023 468,-1053 578,-1053 578,-1023 468,-1023"/>
<text text-anchor="start" x="476" y="-1041" font-family="Helvetica,sans-Serif" font-size="10.00">Om::DefaultCopyable</text>
<text text-anchor="middle" x="523" y="-1030" font-family="Helvetica,sans-Serif" font-size="10.00">&lt; Lexicon, Program &gt;</text>
</a>
</g>
<!-- Node12&#45;&gt;Node11 -->
<g id="edge22" class="edge"><title>Node12&#45;&gt;Node11</title>
<path fill="none" stroke="midnightblue" d="M523.991,-1012.88C524.382,-1003.36 524.826,-992.569 525.197,-983.551"/>
<polygon fill="midnightblue" stroke="midnightblue" points="520.492,-1012.79 523.578,-1022.92 527.486,-1013.08 520.492,-1012.79"/>
</g>
<!-- Node13 -->
<g id="node24" class="node"><title>Node13</title>
<a xlink:href="struct_om_1_1_program.html" target="_top" xlink:title="The Program implementation.">
<polygon fill="none" stroke="black" points="443,-1092.5 443,-1111.5 515,-1111.5 515,-1092.5 443,-1092.5"/>
<text text-anchor="middle" x="479" y="-1099.5" font-family="Helvetica,sans-Serif" font-size="10.00">Om::Program</text>
</a>
</g>
<!-- Node13&#45;&gt;Node12 -->
<g id="edge24" class="edge"><title>Node13&#45;&gt;Node12</title>
<path fill="none" stroke="midnightblue" d="M491.066,-1084C497.912,-1074.35 506.382,-1062.42 512.878,-1053.26"/>
<polygon fill="midnightblue" stroke="midnightblue" points="488.051,-1082.2 485.118,-1092.38 493.76,-1086.25 488.051,-1082.2"/>
</g>
<!-- Node31 -->
<g id="node60" class="node"><title>Node31</title>
<a xlink:href="struct_om_1_1_element.html" target="_top" xlink:title="An &quot;elemental&quot; Program comprised of a single item.">
<polygon fill="none" stroke="black" points="378.5,-1028.5 378.5,-1047.5 449.5,-1047.5 449.5,-1028.5 378.5,-1028.5"/>
<text text-anchor="middle" x="414" y="-1035.5" font-family="Helvetica,sans-Serif" font-size="10.00">Om::Element</text>
</a>
</g>
<!-- Node13&#45;&gt;Node31 -->
<g id="edge62" class="edge"><title>Node13&#45;&gt;Node31</title>
<path fill="none" stroke="midnightblue" d="M462.434,-1085.2C449.881,-1073.23 433.115,-1057.23 422.961,-1047.55"/>
<polygon fill="midnightblue" stroke="midnightblue" points="460.31,-1088.01 469.962,-1092.38 465.142,-1082.94 460.31,-1088.01"/>
</g>
<!-- Node14 -->
<g id="node26" class="node"><title>Node14</title>
<a xlink:href="struct_om_1_1_giveable.html" target="_top" xlink:title="An object that can be copied or moved via Give.">
<polygon fill="none" stroke="black" points="352,-1150.5 352,-1169.5 428,-1169.5 428,-1150.5 352,-1150.5"/>
<text text-anchor="middle" x="390" y="-1157.5" font-family="Helvetica,sans-Serif" font-size="10.00">Om::Giveable</text>
</a>
</g>
<!-- Node14&#45;&gt;Node13 -->
<g id="edge26" class="edge"><title>Node14&#45;&gt;Node13</title>
<path fill="none" stroke="midnightblue" d="M412.119,-1145.08C428.815,-1134.58 451.192,-1120.5 465.356,-1111.59"/>
<polygon fill="midnightblue" stroke="midnightblue" points="410.117,-1142.21 403.517,-1150.49 413.845,-1148.13 410.117,-1142.21"/>
</g>
<!-- Node15 -->
<g id="node28" class="node"><title>Node15</title>
<a xlink:href="struct_om_1_1_copyable.html" target="_top" xlink:title="An object that can be passed to Copy to be copied.">
<polygon fill="none" stroke="black" points="301,-1208.5 301,-1227.5 381,-1227.5 381,-1208.5 301,-1208.5"/>
<text text-anchor="middle" x="341" y="-1215.5" font-family="Helvetica,sans-Serif" font-size="10.00">Om::Copyable</text>
</a>
</g>
<!-- Node15&#45;&gt;Node14 -->
<g id="edge28" class="edge"><title>Node15&#45;&gt;Node14</title>
<path fill="none" stroke="midnightblue" d="M355.494,-1200.43C364.386,-1190.27 375.4,-1177.69 382.558,-1169.51"/>
<polygon fill="midnightblue" stroke="midnightblue" points="352.607,-1198.42 348.656,-1208.25 357.875,-1203.03 352.607,-1198.42"/>
</g>
<!-- Node16 -->
<g id="node30" class="node"><title>Node16</title>
<a xlink:href="struct_om_1_1_moveable.html" target="_top" xlink:title="An object that can be passed to Move to be moved.">
<polygon fill="none" stroke="black" points="399,-1208.5 399,-1227.5 479,-1227.5 479,-1208.5 399,-1208.5"/>
<text text-anchor="middle" x="439" y="-1215.5" font-family="Helvetica,sans-Serif" font-size="10.00">Om::Moveable</text>
</a>
</g>
<!-- Node16&#45;&gt;Node14 -->
<g id="edge30" class="edge"><title>Node16&#45;&gt;Node14</title>
<path fill="none" stroke="midnightblue" d="M424.506,-1200.43C415.614,-1190.27 404.6,-1177.69 397.442,-1169.51"/>
<polygon fill="midnightblue" stroke="midnightblue" points="422.125,-1203.03 431.344,-1208.25 427.393,-1198.42 422.125,-1203.03"/>
</g>
<!-- Node17 -->
<g id="node32" class="node"><title>Node17</title>
<a xlink:href="struct_om_1_1_queue.html" target="_top" xlink:title="A first&#45;in, first&#45;out Element processor.">
<polygon fill="none" stroke="black" points="446,-1150.5 446,-1169.5 512,-1169.5 512,-1150.5 446,-1150.5"/>
<text text-anchor="middle" x="479" y="-1157.5" font-family="Helvetica,sans-Serif" font-size="10.00">Om::Queue</text>
</a>
</g>
<!-- Node17&#45;&gt;Node13 -->
<g id="edge32" class="edge"><title>Node17&#45;&gt;Node13</title>
<path fill="none" stroke="midnightblue" d="M479,-1139.95C479,-1130.29 479,-1119.03 479,-1111.51"/>
<polygon fill="midnightblue" stroke="midnightblue" points="475.5,-1140.25 479,-1150.25 482.5,-1140.25 475.5,-1140.25"/>
</g>
<!-- Node18 -->
<g id="node34" class="node"><title>Node18</title>
<a xlink:href="struct_om_1_1_shareable.html" target="_top" xlink:title="Om::Shareable\&lt;\&gt;">
<polygon fill="none" stroke="black" points="530,-1150.5 530,-1169.5 622,-1169.5 622,-1150.5 530,-1150.5"/>
<text text-anchor="middle" x="576" y="-1157.5" font-family="Helvetica,sans-Serif" font-size="10.00">Om::Shareable&lt;&gt;</text>
</a>
</g>
<!-- Node18&#45;&gt;Node13 -->
<g id="edge34" class="edge"><title>Node18&#45;&gt;Node13</title>
<path fill="none" stroke="midnightblue" d="M552.396,-1145.37C534.149,-1134.84 509.451,-1120.58 493.871,-1111.59"/>
<polygon fill="midnightblue" stroke="midnightblue" points="550.857,-1148.53 561.268,-1150.49 554.357,-1142.46 550.857,-1148.53"/>
</g>
<!-- Node19 -->
<g id="node36" class="node"><title>Node19</title>
<a xlink:href="struct_om_1_1_taker.html" target="_top" xlink:title="Om::Taker\&lt; Lexicon \&gt;">
<polygon fill="none" stroke="black" points="386.5,-803.5 386.5,-822.5 495.5,-822.5 495.5,-803.5 386.5,-803.5"/>
<text text-anchor="middle" x="441" y="-810.5" font-family="Helvetica,sans-Serif" font-size="10.00">Om::Taker&lt; Lexicon &gt;</text>
</a>
</g>
<!-- Node19&#45;&gt;Node8 -->
<g id="edge36" class="edge"><title>Node19&#45;&gt;Node8</title>
<path fill="none" stroke="midnightblue" d="M442.034,-793.133C442.718,-780.649 443.6,-764.545 444.224,-753.156"/>
<polygon fill="midnightblue" stroke="midnightblue" points="438.527,-793.163 441.475,-803.339 445.517,-793.546 438.527,-793.163"/>
</g>
<!-- Node20 -->
<g id="node38" class="node"><title>Node20</title>
<a xlink:href="struct_om_1_1_lexicon_1_1_node.html" target="_top" xlink:title="A Lexicon linked list node, extending Pair with next and prior pointers.">
<polygon fill="none" stroke="black" points="245,-249.5 245,-268.5 341,-268.5 341,-249.5 245,-249.5"/>
<text text-anchor="middle" x="293" y="-256.5" font-family="Helvetica,sans-Serif" font-size="10.00">Om::Lexicon::Node</text>
</a>
</g>
<!-- Node20&#45;&gt;Node7 -->
<g id="edge38" class="edge"><title>Node20&#45;&gt;Node7</title>
<path fill="none" stroke="#9a32cd" stroke-dasharray="5,2" d="M310.12,-242.306C330.363,-223.751 363.337,-193.525 379.483,-178.724"/>
<polygon fill="#9a32cd" stroke="#9a32cd" points="307.562,-239.903 302.556,-249.241 312.292,-245.063 307.562,-239.903"/>
<text text-anchor="middle" x="374.5" y="-222" font-family="Helvetica,sans-Serif" font-size="10.00"> thisFirstNode</text>
<text text-anchor="middle" x="374.5" y="-211" font-family="Helvetica,sans-Serif" font-size="10.00">thisLastNode</text>
</g>
<!-- Node20&#45;&gt;Node20 -->
<g id="edge70" class="edge"><title>Node20&#45;&gt;Node20</title>
<path fill="none" stroke="#9a32cd" stroke-dasharray="5,2" d="M351.304,-263.316C356.053,-262.38 359,-260.941 359,-259 359,-255.895 351.456,-254.075 341.054,-253.541"/>
<polygon fill="#9a32cd" stroke="#9a32cd" points="350.605,-259.872 341.054,-264.459 351.381,-266.829 350.605,-259.872"/>
<text text-anchor="middle" x="388" y="-262" font-family="Helvetica,sans-Serif" font-size="10.00"> thisPriorNode</text>
<text text-anchor="middle" x="388" y="-251" font-family="Helvetica,sans-Serif" font-size="10.00">thisNextNode</text>
</g>
<!-- Node21 -->
<g id="node40" class="node"><title>Node21</title>
<a xlink:href="struct_om_1_1_pair.html" target="_top" xlink:title="Om::Pair">
<polygon fill="none" stroke="black" points="266.5,-308.5 266.5,-327.5 319.5,-327.5 319.5,-308.5 266.5,-308.5"/>
<text text-anchor="middle" x="293" y="-315.5" font-family="Helvetica,sans-Serif" font-size="10.00">Om::Pair</text>
</a>
</g>
<!-- Node21&#45;&gt;Node20 -->
<g id="edge40" class="edge"><title>Node21&#45;&gt;Node20</title>
<path fill="none" stroke="midnightblue" d="M293,-297.933C293,-288.024 293,-276.401 293,-268.657"/>
<polygon fill="midnightblue" stroke="midnightblue" points="289.5,-298.094 293,-308.094 296.5,-298.094 289.5,-298.094"/>
</g>
<!-- Node22 -->
<g id="node42" class="node"><title>Node22</title>
<a xlink:href="struct_om_1_1_operator.html" target="_top" xlink:title="The Operator implementation.">
<polygon fill="none" stroke="black" points="256,-376.5 256,-395.5 330,-395.5 330,-376.5 256,-376.5"/>
<text text-anchor="middle" x="293" y="-383.5" font-family="Helvetica,sans-Serif" font-size="10.00">Om::Operator</text>
</a>
</g>
<!-- Node22&#45;&gt;Node21 -->
<g id="edge42" class="edge"><title>Node22&#45;&gt;Node21</title>
<path fill="none" stroke="#9a32cd" stroke-dasharray="5,2" d="M293,-366.041C293,-353.472 293,-337.563 293,-327.841"/>
<polygon fill="#9a32cd" stroke="#9a32cd" points="289.5,-366.372 293,-376.372 296.5,-366.372 289.5,-366.372"/>
<text text-anchor="middle" x="320.5" y="-349.5" font-family="Helvetica,sans-Serif" font-size="10.00"> thisOperator</text>
</g>
<!-- Node23 -->
<g id="node44" class="node"><title>Node23</title>
<a xlink:href="struct_om_1_1_default_atom.html" target="_top" xlink:title="Om::DefaultAtom\&lt; Operator \&gt;">
<polygon fill="none" stroke="black" points="221.5,-434.5 221.5,-453.5 364.5,-453.5 364.5,-434.5 221.5,-434.5"/>
<text text-anchor="middle" x="293" y="-441.5" font-family="Helvetica,sans-Serif" font-size="10.00">Om::DefaultAtom&lt; Operator &gt;</text>
</a>
</g>
<!-- Node23&#45;&gt;Node22 -->
<g id="edge44" class="edge"><title>Node23&#45;&gt;Node22</title>
<path fill="none" stroke="midnightblue" d="M293,-423.953C293,-414.287 293,-403.031 293,-395.505"/>
<polygon fill="midnightblue" stroke="midnightblue" points="289.5,-424.25 293,-434.25 296.5,-424.25 289.5,-424.25"/>
</g>
<!-- Node24 -->
<g id="node46" class="node"><title>Node24</title>
<a xlink:href="struct_om_1_1_default_element.html" target="_top" xlink:title="Om::DefaultElement\l\&lt; Operator, Atom \&gt;">
<polygon fill="none" stroke="black" points="243.5,-503 243.5,-533 344.5,-533 344.5,-503 243.5,-503"/>
<text text-anchor="start" x="251.5" y="-521" font-family="Helvetica,sans-Serif" font-size="10.00">Om::DefaultElement</text>
<text text-anchor="middle" x="294" y="-510" font-family="Helvetica,sans-Serif" font-size="10.00">&lt; Operator, Atom &gt;</text>
</a>
</g>
<!-- Node24&#45;&gt;Node23 -->
<g id="edge46" class="edge"><title>Node24&#45;&gt;Node23</title>
<path fill="none" stroke="midnightblue" d="M293.662,-492.688C293.476,-479.253 293.255,-463.38 293.122,-453.759"/>
<polygon fill="midnightblue" stroke="midnightblue" points="290.164,-492.825 293.802,-502.775 297.163,-492.727 290.164,-492.825"/>
</g>
<!-- Node25 -->
<g id="node48" class="node"><title>Node25</title>
<a xlink:href="struct_om_1_1_default_program.html" target="_top" xlink:title="Om::DefaultProgram\l\&lt; Operator, Atom \&gt;">
<polygon fill="none" stroke="black" points="244,-573 244,-603 346,-603 346,-573 244,-573"/>
<text text-anchor="start" x="252" y="-591" font-family="Helvetica,sans-Serif" font-size="10.00">Om::DefaultProgram</text>
<text text-anchor="middle" x="295" y="-580" font-family="Helvetica,sans-Serif" font-size="10.00">&lt; Operator, Atom &gt;</text>
</a>
</g>
<!-- Node25&#45;&gt;Node24 -->
<g id="edge48" class="edge"><title>Node25&#45;&gt;Node24</title>
<path fill="none" stroke="midnightblue" d="M294.644,-562.769C294.497,-552.814 294.333,-541.638 294.207,-533.072"/>
<polygon fill="midnightblue" stroke="midnightblue" points="291.146,-562.963 294.793,-572.91 298.145,-562.86 291.146,-562.963"/>
</g>
<!-- Node26 -->
<g id="node50" class="node"><title>Node26</title>
<a xlink:href="struct_om_1_1_default_queue.html" target="_top" xlink:title="Om::DefaultQueue\&lt; Operator,\l DefaultGiveable\&lt; Operator,\l Atom \&gt; \&gt;">
<polygon fill="none" stroke="black" points="226,-642.5 226,-683.5 370,-683.5 370,-642.5 226,-642.5"/>
<text text-anchor="start" x="234" y="-671.5" font-family="Helvetica,sans-Serif" font-size="10.00">Om::DefaultQueue&lt; Operator,</text>
<text text-anchor="start" x="234" y="-660.5" font-family="Helvetica,sans-Serif" font-size="10.00"> DefaultGiveable&lt; Operator,</text>
<text text-anchor="middle" x="298" y="-649.5" font-family="Helvetica,sans-Serif" font-size="10.00"> Atom &gt; &gt;</text>
</a>
</g>
<!-- Node26&#45;&gt;Node25 -->
<g id="edge50" class="edge"><title>Node26&#45;&gt;Node25</title>
<path fill="none" stroke="midnightblue" d="M296.782,-632.372C296.37,-622.335 295.928,-611.579 295.587,-603.289"/>
<polygon fill="midnightblue" stroke="midnightblue" points="293.288,-632.59 297.196,-642.437 300.282,-632.302 293.288,-632.59"/>
</g>
<!-- Node27 -->
<g id="node52" class="node"><title>Node27</title>
<a xlink:href="struct_om_1_1_default_giveable.html" target="_top" xlink:title="Om::DefaultGiveable\l\&lt; Operator, Atom \&gt;">
<polygon fill="none" stroke="black" points="245,-723 245,-753 351,-753 351,-723 245,-723"/>
<text text-anchor="start" x="253" y="-741" font-family="Helvetica,sans-Serif" font-size="10.00">Om::DefaultGiveable</text>
<text text-anchor="middle" x="298" y="-730" font-family="Helvetica,sans-Serif" font-size="10.00">&lt; Operator, Atom &gt;</text>
</a>
</g>
<!-- Node27&#45;&gt;Node26 -->
<g id="edge52" class="edge"><title>Node27&#45;&gt;Node26</title>
<path fill="none" stroke="midnightblue" d="M298,-712.882C298,-703.363 298,-692.569 298,-683.551"/>
<polygon fill="midnightblue" stroke="midnightblue" points="294.5,-712.925 298,-722.925 301.5,-712.925 294.5,-712.925"/>
</g>
<!-- Node28 -->
<g id="node54" class="node"><title>Node28</title>
<a xlink:href="struct_om_1_1_default_moveable.html" target="_top" xlink:title="Om::DefaultMoveable\l\&lt; Operator, DefaultCopyable\l\&lt; Operator, Atom \&gt; \&gt;">
<polygon fill="none" stroke="black" points="228,-792.5 228,-833.5 368,-833.5 368,-792.5 228,-792.5"/>
<text text-anchor="start" x="236" y="-821.5" font-family="Helvetica,sans-Serif" font-size="10.00">Om::DefaultMoveable</text>
<text text-anchor="start" x="236" y="-810.5" font-family="Helvetica,sans-Serif" font-size="10.00">&lt; Operator, DefaultCopyable</text>
<text text-anchor="middle" x="298" y="-799.5" font-family="Helvetica,sans-Serif" font-size="10.00">&lt; Operator, Atom &gt; &gt;</text>
</a>
</g>
<!-- Node28&#45;&gt;Node27 -->
<g id="edge54" class="edge"><title>Node28&#45;&gt;Node27</title>
<path fill="none" stroke="midnightblue" d="M298,-782.372C298,-772.335 298,-761.579 298,-753.289"/>
<polygon fill="midnightblue" stroke="midnightblue" points="294.5,-782.437 298,-792.437 301.5,-782.437 294.5,-782.437"/>
</g>
<!-- Node29 -->
<g id="node56" class="node"><title>Node29</title>
<a xlink:href="struct_om_1_1_default_copyable.html" target="_top" xlink:title="Om::DefaultCopyable\l\&lt; Operator, Atom \&gt;">
<polygon fill="none" stroke="black" points="342,-873 342,-903 452,-903 452,-873 342,-873"/>
<text text-anchor="start" x="350" y="-891" font-family="Helvetica,sans-Serif" font-size="10.00">Om::DefaultCopyable</text>
<text text-anchor="middle" x="397" y="-880" font-family="Helvetica,sans-Serif" font-size="10.00">&lt; Operator, Atom &gt;</text>
</a>
</g>
<!-- Node29&#45;&gt;Node28 -->
<g id="edge56" class="edge"><title>Node29&#45;&gt;Node28</title>
<path fill="none" stroke="midnightblue" d="M369.593,-866.791C355.522,-856.415 338.455,-843.83 324.514,-833.551"/>
<polygon fill="midnightblue" stroke="midnightblue" points="367.786,-869.807 377.912,-872.925 371.94,-864.173 367.786,-869.807"/>
</g>
<!-- Node30 -->
<g id="node58" class="node"><title>Node30</title>
<a xlink:href="struct_om_1_1_atom.html" target="_top" xlink:title="A leaf Element defined by a string.">
<polygon fill="none" stroke="black" points="380.5,-953.5 380.5,-972.5 439.5,-972.5 439.5,-953.5 380.5,-953.5"/>
<text text-anchor="middle" x="410" y="-960.5" font-family="Helvetica,sans-Serif" font-size="10.00">Om::Atom</text>
</a>
</g>
<!-- Node30&#45;&gt;Node29 -->
<g id="edge58" class="edge"><title>Node30&#45;&gt;Node29</title>
<path fill="none" stroke="midnightblue" d="M406.64,-943.133C404.417,-930.649 401.549,-914.545 399.521,-903.156"/>
<polygon fill="midnightblue" stroke="midnightblue" points="403.259,-944.108 408.458,-953.339 410.15,-942.881 403.259,-944.108"/>
</g>
<!-- Node31&#45;&gt;Node30 -->
<g id="edge60" class="edge"><title>Node31&#45;&gt;Node30</title>
<path fill="none" stroke="midnightblue" d="M412.977,-1018.33C412.172,-1003.64 411.087,-983.839 410.474,-972.649"/>
<polygon fill="midnightblue" stroke="midnightblue" points="409.483,-1018.55 413.525,-1028.34 416.473,-1018.16 409.483,-1018.55"/>
</g>
<!-- Node32 -->
<g id="node63" class="node"><title>Node32</title>
<a xlink:href="struct_om_1_1_taker.html" target="_top" xlink:title="Om::Taker\&lt; Operator \&gt;">
<polygon fill="none" stroke="black" points="94,-653.5 94,-672.5 208,-672.5 208,-653.5 94,-653.5"/>
<text text-anchor="middle" x="151" y="-660.5" font-family="Helvetica,sans-Serif" font-size="10.00">Om::Taker&lt; Operator &gt;</text>
</a>
</g>
<!-- Node32&#45;&gt;Node25 -->
<g id="edge64" class="edge"><title>Node32&#45;&gt;Node25</title>
<path fill="none" stroke="midnightblue" d="M176.856,-648.893C202.325,-635.981 241.107,-616.321 267.221,-603.082"/>
<polygon fill="midnightblue" stroke="midnightblue" points="175.137,-645.84 167.8,-653.483 178.302,-652.083 175.137,-645.84"/>
</g>
<!-- Node33 -->
<g id="node65" class="node"><title>Node33</title>
<a xlink:title="STL class.">
<polygon fill="none" stroke="#bfbfbf" points="161,-508.5 161,-527.5 217,-527.5 217,-508.5 161,-508.5"/>
<text text-anchor="middle" x="189" y="-515.5" font-family="Helvetica,sans-Serif" font-size="10.00">std::string</text>
</a>
</g>
<!-- Node33&#45;&gt;Node23 -->
<g id="edge66" class="edge"><title>Node33&#45;&gt;Node23</title>
<path fill="none" stroke="#9a32cd" stroke-dasharray="5,2" d="M207.556,-502.002C218.984,-492.979 234.067,-481.451 248,-472 257.651,-465.454 268.901,-458.704 277.738,-453.59"/>
<polygon fill="#9a32cd" stroke="#9a32cd" points="205.246,-499.367 199.608,-508.337 209.61,-504.84 205.246,-499.367"/>
<text text-anchor="middle" x="268.5" y="-475.5" font-family="Helvetica,sans-Serif" font-size="10.00"> thisString</text>
</g>
<!-- Node34 -->
<g id="node67" class="node"><title>Node34</title>
<a xlink:title="STL class.">
<polygon fill="none" stroke="#bfbfbf" points="136.5,-573 136.5,-603 225.5,-603 225.5,-573 136.5,-573"/>
<text text-anchor="start" x="144.5" y="-591" font-family="Helvetica,sans-Serif" font-size="10.00">std::basic_string&lt;</text>
<text text-anchor="middle" x="181" y="-580" font-family="Helvetica,sans-Serif" font-size="10.00"> char &gt;</text>
</a>
</g>
<!-- Node34&#45;&gt;Node33 -->
<g id="edge68" class="edge"><title>Node34&#45;&gt;Node33</title>
<path fill="none" stroke="midnightblue" d="M183.837,-562.883C185.267,-550.733 186.913,-536.739 187.955,-527.883"/>
<polygon fill="midnightblue" stroke="midnightblue" points="180.35,-562.57 182.658,-572.91 187.302,-563.388 180.35,-562.57"/>
</g>
</g>
</svg>
