<?xml version="1.0" encoding="UTF-8" standalone="no"?>
<!DOCTYPE svg PUBLIC "-//W3C//DTD SVG 1.1//EN"
 "http://www.w3.org/Graphics/SVG/1.1/DTD/svg11.dtd">
<!-- Generated by graphviz version 2.28.0 (20120817.0054)
 -->
<!-- Title: Om::Separator Pages: 1 -->
<svg width="397pt" height="792pt"
 viewBox="0.00 0.00 397.00 792.00" xmlns="http://www.w3.org/2000/svg" xmlns:xlink="http://www.w3.org/1999/xlink">
<g id="graph1" class="graph" transform="scale(1 1) rotate(0) translate(4 788)">
<title>Om::Separator</title>
<!-- Node1 -->
<g id="node1" class="node"><title>Node1</title>
<polygon fill="#bfbfbf" stroke="black" points="214.5,-0.5 214.5,-19.5 293.5,-19.5 293.5,-0.5 214.5,-0.5"/>
<text text-anchor="middle" x="254" y="-7.5" font-family="Helvetica,sans-Serif" font-size="10.00">Om::Separator</text>
</g>
<!-- Node2 -->
<g id="node2" class="node"><title>Node2</title>
<a xlink:href="struct_om_1_1_default_atom.html" target="_top" xlink:title="Om::DefaultAtom\&lt; Separator \&gt;">
<polygon fill="none" stroke="black" points="180.5,-56.5 180.5,-75.5 327.5,-75.5 327.5,-56.5 180.5,-56.5"/>
<text text-anchor="middle" x="254" y="-63.5" font-family="Helvetica,sans-Serif" font-size="10.00">Om::DefaultAtom&lt; Separator &gt;</text>
</a>
</g>
<!-- Node2&#45;&gt;Node1 -->
<g id="edge2" class="edge"><title>Node2&#45;&gt;Node1</title>
<path fill="none" stroke="midnightblue" d="M254,-45.8045C254,-36.9102 254,-26.7798 254,-19.7511"/>
<polygon fill="midnightblue" stroke="midnightblue" points="250.5,-46.083 254,-56.083 257.5,-46.083 250.5,-46.083"/>
</g>
<!-- Node3 -->
<g id="node4" class="node"><title>Node3</title>
<a xlink:href="struct_om_1_1_default_element.html" target="_top" xlink:title="Om::DefaultElement\l\&lt; Separator, Atom \&gt;">
<polygon fill="none" stroke="black" points="203,-113 203,-143 305,-143 305,-113 203,-113"/>
<text text-anchor="start" x="211" y="-131" font-family="Helvetica,sans-Serif" font-size="10.00">Om::DefaultElement</text>
<text text-anchor="middle" x="254" y="-120" font-family="Helvetica,sans-Serif" font-size="10.00">&lt; Separator, Atom &gt;</text>
</a>
</g>
<!-- Node3&#45;&gt;Node2 -->
<g id="edge4" class="edge"><title>Node3&#45;&gt;Node2</title>
<path fill="none" stroke="midnightblue" d="M254,-102.586C254,-93.0743 254,-82.7864 254,-75.7305"/>
<polygon fill="midnightblue" stroke="midnightblue" points="250.5,-102.781 254,-112.781 257.5,-102.781 250.5,-102.781"/>
</g>
<!-- Node4 -->
<g id="node6" class="node"><title>Node4</title>
<a xlink:href="struct_om_1_1_default_program.html" target="_top" xlink:title="Om::DefaultProgram\l\&lt; Separator, Atom \&gt;">
<polygon fill="none" stroke="black" points="203,-181 203,-211 305,-211 305,-181 203,-181"/>
<text text-anchor="start" x="211" y="-199" font-family="Helvetica,sans-Serif" font-size="10.00">Om::DefaultProgram</text>
<text text-anchor="middle" x="254" y="-188" font-family="Helvetica,sans-Serif" font-size="10.00">&lt; Separator, Atom &gt;</text>
</a>
</g>
<!-- Node4&#45;&gt;Node3 -->
<g id="edge6" class="edge"><title>Node4&#45;&gt;Node3</title>
<path fill="none" stroke="midnightblue" d="M254,-170.532C254,-161.361 254,-151.245 254,-143.293"/>
<polygon fill="midnightblue" stroke="midnightblue" points="250.5,-170.679 254,-180.679 257.5,-170.679 250.5,-170.679"/>
</g>
<!-- Node5 -->
<g id="node8" class="node"><title>Node5</title>
<a xlink:href="struct_om_1_1_default_queue.html" target="_top" xlink:title="Om::DefaultQueue\&lt; Separator,\l DefaultGiveable\&lt; Separator,\l Atom \&gt; \&gt;">
<polygon fill="none" stroke="black" points="103.5,-248.5 103.5,-289.5 252.5,-289.5 252.5,-248.5 103.5,-248.5"/>
<text text-anchor="start" x="111.5" y="-277.5" font-family="Helvetica,sans-Serif" font-size="10.00">Om::DefaultQueue&lt; Separator,</text>
<text text-anchor="start" x="111.5" y="-266.5" font-family="Helvetica,sans-Serif" font-size="10.00"> DefaultGiveable&lt; Separator,</text>
<text text-anchor="middle" x="178" y="-255.5" font-family="Helvetica,sans-Serif" font-size="10.00"> Atom &gt; &gt;</text>
</a>
</g>
<!-- Node5&#45;&gt;Node4 -->
<g id="edge8" class="edge"><title>Node5&#45;&gt;Node4</title>
<path fill="none" stroke="midnightblue" d="M206.565,-241.314C217.578,-231.026 229.72,-219.683 238.962,-211.049"/>
<polygon fill="midnightblue" stroke="midnightblue" points="204.088,-238.838 199.17,-248.223 208.867,-243.953 204.088,-238.838"/>
</g>
<!-- Node6 -->
<g id="node10" class="node"><title>Node6</title>
<a xlink:href="struct_om_1_1_default_giveable.html" target="_top" xlink:title="Om::DefaultGiveable\l\&lt; Separator, Atom \&gt;">
<polygon fill="none" stroke="black" points="125,-327 125,-357 231,-357 231,-327 125,-327"/>
<text text-anchor="start" x="133" y="-345" font-family="Helvetica,sans-Serif" font-size="10.00">Om::DefaultGiveable</text>
<text text-anchor="middle" x="178" y="-334" font-family="Helvetica,sans-Serif" font-size="10.00">&lt; Separator, Atom &gt;</text>
</a>
</g>
<!-- Node6&#45;&gt;Node5 -->
<g id="edge10" class="edge"><title>Node6&#45;&gt;Node5</title>
<path fill="none" stroke="midnightblue" d="M178,-316.853C178,-307.987 178,-298.065 178,-289.642"/>
<polygon fill="midnightblue" stroke="midnightblue" points="174.5,-316.973 178,-326.973 181.5,-316.973 174.5,-316.973"/>
</g>
<!-- Node7 -->
<g id="node12" class="node"><title>Node7</title>
<a xlink:href="struct_om_1_1_default_moveable.html" target="_top" xlink:title="Om::DefaultMoveable\l\&lt; Separator, DefaultCopyable\l\&lt; Separator, Atom \&gt; \&gt;">
<polygon fill="none" stroke="black" points="105.5,-394.5 105.5,-435.5 250.5,-435.5 250.5,-394.5 105.5,-394.5"/>
<text text-anchor="start" x="113.5" y="-423.5" font-family="Helvetica,sans-Serif" font-size="10.00">Om::DefaultMoveable</text>
<text text-anchor="start" x="113.5" y="-412.5" font-family="Helvetica,sans-Serif" font-size="10.00">&lt; Separator, DefaultCopyable</text>
<text text-anchor="middle" x="178" y="-401.5" font-family="Helvetica,sans-Serif" font-size="10.00">&lt; Separator, Atom &gt; &gt;</text>
</a>
</g>
<!-- Node7&#45;&gt;Node6 -->
<g id="edge12" class="edge"><title>Node7&#45;&gt;Node6</title>
<path fill="none" stroke="midnightblue" d="M178,-384.019C178,-374.657 178,-364.77 178,-357.049"/>
<polygon fill="midnightblue" stroke="midnightblue" points="174.5,-384.223 178,-394.223 181.5,-384.223 174.5,-384.223"/>
</g>
<!-- Node8 -->
<g id="node14" class="node"><title>Node8</title>
<a xlink:href="struct_om_1_1_default_copyable.html" target="_top" xlink:title="Om::DefaultCopyable\l\&lt; Separator, Atom \&gt;">
<polygon fill="none" stroke="black" points="123,-473 123,-503 233,-503 233,-473 123,-473"/>
<text text-anchor="start" x="131" y="-491" font-family="Helvetica,sans-Serif" font-size="10.00">Om::DefaultCopyable</text>
<text text-anchor="middle" x="178" y="-480" font-family="Helvetica,sans-Serif" font-size="10.00">&lt; Separator, Atom &gt;</text>
</a>
</g>
<!-- Node8&#45;&gt;Node7 -->
<g id="edge14" class="edge"><title>Node8&#45;&gt;Node7</title>
<path fill="none" stroke="midnightblue" d="M178,-462.853C178,-453.987 178,-444.065 178,-435.642"/>
<polygon fill="midnightblue" stroke="midnightblue" points="174.5,-462.973 178,-472.973 181.5,-462.973 174.5,-462.973"/>
</g>
<!-- Node9 -->
<g id="node16" class="node"><title>Node9</title>
<a xlink:href="struct_om_1_1_atom.html" target="_top" xlink:title="A leaf Element defined by a string.">
<polygon fill="none" stroke="black" points="148.5,-540.5 148.5,-559.5 207.5,-559.5 207.5,-540.5 148.5,-540.5"/>
<text text-anchor="middle" x="178" y="-547.5" font-family="Helvetica,sans-Serif" font-size="10.00">Om::Atom</text>
</a>
</g>
<!-- Node9&#45;&gt;Node8 -->
<g id="edge16" class="edge"><title>Node9&#45;&gt;Node8</title>
<path fill="none" stroke="midnightblue" d="M178,-530.371C178,-521.585 178,-511.272 178,-503.141"/>
<polygon fill="midnightblue" stroke="midnightblue" points="174.5,-530.403 178,-540.403 181.5,-530.403 174.5,-530.403"/>
</g>
<!-- Node10 -->
<g id="node18" class="node"><title>Node10</title>
<a xlink:href="struct_om_1_1_element.html" target="_top" xlink:title="An &quot;elemental&quot; Program comprised of a single item.">
<polygon fill="none" stroke="black" points="142.5,-596.5 142.5,-615.5 213.5,-615.5 213.5,-596.5 142.5,-596.5"/>
<text text-anchor="middle" x="178" y="-603.5" font-family="Helvetica,sans-Serif" font-size="10.00">Om::Element</text>
</a>
</g>
<!-- Node10&#45;&gt;Node9 -->
<g id="edge18" class="edge"><title>Node10&#45;&gt;Node9</title>
<path fill="none" stroke="midnightblue" d="M178,-585.805C178,-576.91 178,-566.78 178,-559.751"/>
<polygon fill="midnightblue" stroke="midnightblue" points="174.5,-586.083 178,-596.083 181.5,-586.083 174.5,-586.083"/>
</g>
<!-- Node11 -->
<g id="node20" class="node"><title>Node11</title>
<a xlink:href="struct_om_1_1_program.html" target="_top" xlink:title="The Program implementation.">
<polygon fill="none" stroke="black" points="142,-652.5 142,-671.5 214,-671.5 214,-652.5 142,-652.5"/>
<text text-anchor="middle" x="178" y="-659.5" font-family="Helvetica,sans-Serif" font-size="10.00">Om::Program</text>
</a>
</g>
<!-- Node11&#45;&gt;Node10 -->
<g id="edge20" class="edge"><title>Node11&#45;&gt;Node10</title>
<path fill="none" stroke="midnightblue" d="M178,-641.805C178,-632.91 178,-622.78 178,-615.751"/>
<polygon fill="midnightblue" stroke="midnightblue" points="174.5,-642.083 178,-652.083 181.5,-642.083 174.5,-642.083"/>
</g>
<!-- Node12 -->
<g id="node22" class="node"><title>Node12</title>
<a xlink:href="struct_om_1_1_giveable.html" target="_top" xlink:title="An object that can be copied or moved via Give.">
<polygon fill="none" stroke="black" points="51,-708.5 51,-727.5 127,-727.5 127,-708.5 51,-708.5"/>
<text text-anchor="middle" x="89" y="-715.5" font-family="Helvetica,sans-Serif" font-size="10.00">Om::Giveable</text>
</a>
</g>
<!-- Node12&#45;&gt;Node11 -->
<g id="edge22" class="edge"><title>Node12&#45;&gt;Node11</title>
<path fill="none" stroke="midnightblue" d="M112.238,-702.901C128.558,-692.999 149.865,-680.071 163.736,-671.655"/>
<polygon fill="midnightblue" stroke="midnightblue" points="110.033,-700.144 103.299,-708.324 113.664,-706.129 110.033,-700.144"/>
</g>
<!-- Node13 -->
<g id="node24" class="node"><title>Node13</title>
<a xlink:href="struct_om_1_1_copyable.html" target="_top" xlink:title="An object that can be passed to Copy to be copied.">
<polygon fill="none" stroke="black" points="0,-764.5 0,-783.5 80,-783.5 80,-764.5 0,-764.5"/>
<text text-anchor="middle" x="40" y="-771.5" font-family="Helvetica,sans-Serif" font-size="10.00">Om::Copyable</text>
</a>
</g>
<!-- Node13&#45;&gt;Node12 -->
<g id="edge24" class="edge"><title>Node13&#45;&gt;Node12</title>
<path fill="none" stroke="midnightblue" d="M55.0345,-756.431C63.6222,-746.967 74.0435,-735.483 81.0592,-727.751"/>
<polygon fill="midnightblue" stroke="midnightblue" points="52.2193,-754.325 48.0914,-764.083 57.4033,-759.029 52.2193,-754.325"/>
</g>
<!-- Node14 -->
<g id="node26" class="node"><title>Node14</title>
<a xlink:href="struct_om_1_1_moveable.html" target="_top" xlink:title="An object that can be passed to Move to be moved.">
<polygon fill="none" stroke="black" points="98,-764.5 98,-783.5 178,-783.5 178,-764.5 98,-764.5"/>
<text text-anchor="middle" x="138" y="-771.5" font-family="Helvetica,sans-Serif" font-size="10.00">Om::Moveable</text>
</a>
</g>
<!-- Node14&#45;&gt;Node12 -->
<g id="edge26" class="edge"><title>Node14&#45;&gt;Node12</title>
<path fill="none" stroke="midnightblue" d="M122.966,-756.431C114.378,-746.967 103.957,-735.483 96.9408,-727.751"/>
<polygon fill="midnightblue" stroke="midnightblue" points="120.597,-759.029 129.909,-764.083 125.781,-754.325 120.597,-759.029"/>
</g>
<!-- Node15 -->
<g id="node28" class="node"><title>Node15</title>
<a xlink:href="struct_om_1_1_queue.html" target="_top" xlink:title="A first&#45;in, first&#45;out Element processor.">
<polygon fill="none" stroke="black" points="145,-708.5 145,-727.5 211,-727.5 211,-708.5 145,-708.5"/>
<text text-anchor="middle" x="178" y="-715.5" font-family="Helvetica,sans-Serif" font-size="10.00">Om::Queue</text>
</a>
</g>
<!-- Node15&#45;&gt;Node11 -->
<g id="edge28" class="edge"><title>Node15&#45;&gt;Node11</title>
<path fill="none" stroke="midnightblue" d="M178,-697.805C178,-688.91 178,-678.78 178,-671.751"/>
<polygon fill="midnightblue" stroke="midnightblue" points="174.5,-698.083 178,-708.083 181.5,-698.083 174.5,-698.083"/>
</g>
<!-- Node16 -->
<g id="node30" class="node"><title>Node16</title>
<a xlink:href="struct_om_1_1_shareable.html" target="_top" xlink:title="Om::Shareable\&lt;\&gt;">
<polygon fill="none" stroke="black" points="229,-708.5 229,-727.5 321,-727.5 321,-708.5 229,-708.5"/>
<text text-anchor="middle" x="275" y="-715.5" font-family="Helvetica,sans-Serif" font-size="10.00">Om::Shareable&lt;&gt;</text>
</a>
</g>
<!-- Node16&#45;&gt;Node11 -->
<g id="edge30" class="edge"><title>Node16&#45;&gt;Node11</title>
<path fill="none" stroke="midnightblue" d="M250.665,-703.453C232.757,-693.483 208.946,-680.228 193.546,-671.655"/>
<polygon fill="midnightblue" stroke="midnightblue" points="248.975,-706.518 259.415,-708.324 252.38,-700.402 248.975,-706.518"/>
</g>
<!-- Node17 -->
<g id="node32" class="node"><title>Node17</title>
<a xlink:href="struct_om_1_1_taker.html" target="_top" xlink:title="Om::Taker\&lt; Separator \&gt;">
<polygon fill="none" stroke="black" points="270.5,-259.5 270.5,-278.5 389.5,-278.5 389.5,-259.5 270.5,-259.5"/>
<text text-anchor="middle" x="330" y="-266.5" font-family="Helvetica,sans-Serif" font-size="10.00">Om::Taker&lt; Separator &gt;</text>
</a>
</g>
<!-- Node17&#45;&gt;Node4 -->
<g id="edge32" class="edge"><title>Node17&#45;&gt;Node4</title>
<path fill="none" stroke="midnightblue" d="M313.226,-252.33C300.066,-240.035 281.905,-223.069 269.174,-211.176"/>
<polygon fill="midnightblue" stroke="midnightblue" points="310.984,-255.025 320.681,-259.294 315.763,-249.91 310.984,-255.025"/>
</g>
</g>
</svg>
