<?xml version="1.0" encoding="UTF-8" standalone="no"?>
<!DOCTYPE svg PUBLIC "-//W3C//DTD SVG 1.1//EN"
 "http://www.w3.org/Graphics/SVG/1.1/DTD/svg11.dtd">
<!-- Generated by graphviz version 2.28.0 (20120817.0054)
 -->
<!-- Title: Om::Translator Pages: 1 -->
<svg width="552pt" height="97pt"
 viewBox="0.00 0.00 552.00 97.00" xmlns="http://www.w3.org/2000/svg" xmlns:xlink="http://www.w3.org/1999/xlink">
<g id="graph1" class="graph" transform="scale(1 1) rotate(0) translate(4 93)">
<title>Om::Translator</title>
<!-- Node1 -->
<g id="node1" class="node"><title>Node1</title>
<polygon fill="#bfbfbf" stroke="black" points="340,-22.5 340,-41.5 418,-41.5 418,-22.5 340,-22.5"/>
<text text-anchor="middle" x="379" y="-29.5" font-family="Helvetica,sans-Serif" font-size="10.00">Om::Translator</text>
</g>
<!-- Node6 -->
<g id="node11" class="node"><title>Node6</title>
<a xlink:href="struct_om_1_1_environment.html" target="_top" xlink:title="A Translator that falls through to a System lookup.">
<polygon fill="none" stroke="black" points="454.5,-22.5 454.5,-41.5 543.5,-41.5 543.5,-22.5 454.5,-22.5"/>
<text text-anchor="middle" x="499" y="-29.5" font-family="Helvetica,sans-Serif" font-size="10.00">Om::Environment</text>
</a>
</g>
<!-- Node1&#45;&gt;Node6 -->
<g id="edge10" class="edge"><title>Node1&#45;&gt;Node6</title>
<path fill="none" stroke="midnightblue" d="M428.48,-32C436.98,-32 445.781,-32 454.146,-32"/>
<polygon fill="midnightblue" stroke="midnightblue" points="428.311,-28.5001 418.311,-32 428.311,-35.5001 428.311,-28.5001"/>
</g>
<!-- Node2 -->
<g id="node2" class="node"><title>Node2</title>
<a xlink:href="struct_om_1_1_sinks_1_1_default_sink.html" target="_top" xlink:title="Om::Sinks::DefaultSink\l\&lt; Lexicon const, Translator \&gt;">
<polygon fill="none" stroke="black" points="166.5,-39 166.5,-69 303.5,-69 303.5,-39 166.5,-39"/>
<text text-anchor="start" x="174.5" y="-57" font-family="Helvetica,sans-Serif" font-size="10.00">Om::Sinks::DefaultSink</text>
<text text-anchor="middle" x="235" y="-46" font-family="Helvetica,sans-Serif" font-size="10.00">&lt; Lexicon const, Translator &gt;</text>
</a>
</g>
<!-- Node2&#45;&gt;Node1 -->
<g id="edge2" class="edge"><title>Node2&#45;&gt;Node1</title>
<path fill="none" stroke="midnightblue" d="M313.578,-41.9809C322.68,-40.5708 331.636,-39.1832 339.842,-37.9119"/>
<polygon fill="midnightblue" stroke="midnightblue" points="313.019,-38.5256 303.673,-43.5155 314.091,-45.4431 313.019,-38.5256"/>
</g>
<!-- Node3 -->
<g id="node4" class="node"><title>Node3</title>
<a xlink:href="struct_om_1_1_sink.html" target="_top" xlink:title="Om::Sink\&lt; Lexicon const &#160;\&gt;">
<polygon fill="none" stroke="black" points="0.5,-69.5 0.5,-88.5 129.5,-88.5 129.5,-69.5 0.5,-69.5"/>
<text text-anchor="middle" x="65" y="-76.5" font-family="Helvetica,sans-Serif" font-size="10.00">Om::Sink&lt; Lexicon const &gt;</text>
</a>
</g>
<!-- Node3&#45;&gt;Node2 -->
<g id="edge4" class="edge"><title>Node3&#45;&gt;Node2</title>
<path fill="none" stroke="midnightblue" d="M139.535,-68.0572C148.492,-66.7244 157.61,-65.3675 166.474,-64.0486"/>
<polygon fill="midnightblue" stroke="midnightblue" points="138.889,-64.6147 129.514,-69.5486 139.92,-71.5385 138.889,-64.6147"/>
</g>
<!-- Node4 -->
<g id="node6" class="node"><title>Node4</title>
<a xlink:href="classstd_1_1iterator.html" target="_top" xlink:title="std::iterator\&lt; std\l::output_iterator_tag,\l Lexicon const &#160;\&gt;">
<polygon fill="none" stroke="black" points="14.5,-9.5 14.5,-50.5 115.5,-50.5 115.5,-9.5 14.5,-9.5"/>
<text text-anchor="start" x="22.5" y="-38.5" font-family="Helvetica,sans-Serif" font-size="10.00">std::iterator&lt; std</text>
<text text-anchor="start" x="22.5" y="-27.5" font-family="Helvetica,sans-Serif" font-size="10.00">::output_iterator_tag,</text>
<text text-anchor="middle" x="65" y="-16.5" font-family="Helvetica,sans-Serif" font-size="10.00"> Lexicon const &gt;</text>
</a>
</g>
<!-- Node4&#45;&gt;Node2 -->
<g id="edge6" class="edge"><title>Node4&#45;&gt;Node2</title>
<path fill="none" stroke="midnightblue" d="M126.158,-38.594C139.14,-40.4486 152.951,-42.4216 166.202,-44.3146"/>
<polygon fill="midnightblue" stroke="midnightblue" points="126.345,-35.0853 115.951,-37.1358 125.355,-42.0149 126.345,-35.0853"/>
</g>
<!-- Node5 -->
<g id="node8" class="node"><title>Node5</title>
<a xlink:href="struct_om_1_1_taker.html" target="_top" xlink:title="Om::Taker\&lt; Translator \&gt;">
<polygon fill="none" stroke="black" points="176,-0.5 176,-19.5 294,-19.5 294,-0.5 176,-0.5"/>
<text text-anchor="middle" x="235" y="-7.5" font-family="Helvetica,sans-Serif" font-size="10.00">Om::Taker&lt; Translator &gt;</text>
</a>
</g>
<!-- Node5&#45;&gt;Node1 -->
<g id="edge8" class="edge"><title>Node5&#45;&gt;Node1</title>
<path fill="none" stroke="midnightblue" d="M304.306,-20.5827C316.444,-22.4632 328.687,-24.36 339.614,-26.0528"/>
<polygon fill="midnightblue" stroke="midnightblue" points="304.585,-17.0841 294.167,-19.0117 303.513,-24.0016 304.585,-17.0841"/>
</g>
</g>
</svg>
