<?xml version="1.0" encoding="UTF-8" standalone="no"?>
<!DOCTYPE svg PUBLIC "-//W3C//DTD SVG 1.1//EN"
 "http://www.w3.org/Graphics/SVG/1.1/DTD/svg11.dtd">
<!-- Generated by graphviz version 2.28.0 (20120817.0054)
 -->
<!-- Title: Om::Operations::PullOperation&lt; ThisProgram, ThisImplementation &gt; Pages: 1 -->
<svg width="178pt" height="174pt"
 viewBox="0.00 0.00 178.00 174.00" xmlns="http://www.w3.org/2000/svg" xmlns:xlink="http://www.w3.org/1999/xlink">
<g id="graph1" class="graph" transform="scale(1 1) rotate(0) translate(4 170)">
<title>Om::Operations::PullOperation&lt; ThisProgram, ThisImplementation &gt;</title>
<!-- Node1 -->
<g id="node1" class="node"><title>Node1</title>
<polygon fill="#bfbfbf" stroke="black" points="-0.5,-1 -0.5,-31 170.5,-31 170.5,-1 -0.5,-1"/>
<text text-anchor="start" x="7.5" y="-19" font-family="Helvetica,sans-Serif" font-size="10.00">Om::Operations::PullOperation</text>
<text text-anchor="middle" x="85" y="-8" font-family="Helvetica,sans-Serif" font-size="10.00">&lt; ThisProgram, ThisImplementation &gt;</text>
</g>
<!-- Node2 -->
<g id="node2" class="node"><title>Node2</title>
<a xlink:href="struct_om_1_1_default_operation.html" target="_top" xlink:title="Om::DefaultOperation\l\&lt; PullOperation\&lt; ThisProgram,\l ThisImplementation \&gt; \&gt;">
<polygon fill="none" stroke="black" points="12.5,-68.5 12.5,-109.5 157.5,-109.5 157.5,-68.5 12.5,-68.5"/>
<text text-anchor="start" x="20.5" y="-97.5" font-family="Helvetica,sans-Serif" font-size="10.00">Om::DefaultOperation</text>
<text text-anchor="start" x="20.5" y="-86.5" font-family="Helvetica,sans-Serif" font-size="10.00">&lt; PullOperation&lt; ThisProgram,</text>
<text text-anchor="middle" x="85" y="-75.5" font-family="Helvetica,sans-Serif" font-size="10.00"> ThisImplementation &gt; &gt;</text>
</a>
</g>
<!-- Node2&#45;&gt;Node1 -->
<g id="edge2" class="edge"><title>Node2&#45;&gt;Node1</title>
<path fill="none" stroke="midnightblue" d="M85,-58.0188C85,-48.6567 85,-38.7696 85,-31.0485"/>
<polygon fill="midnightblue" stroke="midnightblue" points="81.5001,-58.2225 85,-68.2225 88.5001,-58.2226 81.5001,-58.2225"/>
</g>
<!-- Node3 -->
<g id="node4" class="node"><title>Node3</title>
<a xlink:href="struct_om_1_1_operation.html" target="_top" xlink:title="An Operation that has yet to consume one or more Operands, and therefore must live in memory while &quot;i...">
<polygon fill="none" stroke="black" points="45.5,-146.5 45.5,-165.5 124.5,-165.5 124.5,-146.5 45.5,-146.5"/>
<text text-anchor="middle" x="85" y="-153.5" font-family="Helvetica,sans-Serif" font-size="10.00">Om::Operation</text>
</a>
</g>
<!-- Node3&#45;&gt;Node2 -->
<g id="edge4" class="edge"><title>Node3&#45;&gt;Node2</title>
<path fill="none" stroke="midnightblue" d="M85,-136.037C85,-127.708 85,-117.936 85,-109.542"/>
<polygon fill="midnightblue" stroke="midnightblue" points="81.5001,-136.234 85,-146.234 88.5001,-136.234 81.5001,-136.234"/>
</g>
</g>
</svg>
