<?xml version="1.0" encoding="UTF-8" standalone="no"?>
<!DOCTYPE svg PUBLIC "-//W3C//DTD SVG 1.1//EN"
 "http://www.w3.org/Graphics/SVG/1.1/DTD/svg11.dtd">
<!-- Generated by graphviz version 2.28.0 (20120817.0054)
 -->
<!-- Title: Om::Lexicon Pages: 1 -->
<svg width="566pt" height="1066pt"
 viewBox="0.00 0.00 566.00 1066.00" xmlns="http://www.w3.org/2000/svg" xmlns:xlink="http://www.w3.org/1999/xlink">
<g id="graph1" class="graph" transform="scale(1 1) rotate(0) translate(4 1062)">
<title>Om::Lexicon</title>
<!-- Node1 -->
<g id="node1" class="node"><title>Node1</title>
<polygon fill="#bfbfbf" stroke="black" points="260.5,-0.5 260.5,-19.5 329.5,-19.5 329.5,-0.5 260.5,-0.5"/>
<text text-anchor="middle" x="295" y="-7.5" font-family="Helvetica,sans-Serif" font-size="10.00">Om::Lexicon</text>
</g>
<!-- Node2 -->
<g id="node2" class="node"><title>Node2</title>
<a xlink:href="struct_om_1_1_default_program.html" target="_top" xlink:title="Om::DefaultProgram\l\&lt; Lexicon \&gt;">
<polygon fill="none" stroke="black" points="300,-553 300,-583 402,-583 402,-553 300,-553"/>
<text text-anchor="start" x="308" y="-571" font-family="Helvetica,sans-Serif" font-size="10.00">Om::DefaultProgram</text>
<text text-anchor="middle" x="351" y="-560" font-family="Helvetica,sans-Serif" font-size="10.00">&lt; Lexicon &gt;</text>
</a>
</g>
<!-- Node2&#45;&gt;Node1 -->
<g id="edge2" class="edge"><title>Node2&#45;&gt;Node1</title>
<path fill="none" stroke="midnightblue" d="M351,-542.346C351,-528.198 351,-510.1 351,-494 351,-494 351,-494 351,-88 351,-58.4121 323.621,-32.5552 307.151,-19.6775"/>
<polygon fill="midnightblue" stroke="midnightblue" points="347.5,-542.732 351,-552.732 354.5,-542.732 347.5,-542.732"/>
</g>
<!-- Node3 -->
<g id="node4" class="node"><title>Node3</title>
<a xlink:href="struct_om_1_1_default_queue.html" target="_top" xlink:title="Om::DefaultQueue\&lt; Lexicon,\l DefaultGiveable\&lt; Lexicon,\l Program \&gt; \&gt;">
<polygon fill="none" stroke="black" points="419.5,-622.5 419.5,-663.5 558.5,-663.5 558.5,-622.5 419.5,-622.5"/>
<text text-anchor="start" x="427.5" y="-651.5" font-family="Helvetica,sans-Serif" font-size="10.00">Om::DefaultQueue&lt; Lexicon,</text>
<text text-anchor="start" x="427.5" y="-640.5" font-family="Helvetica,sans-Serif" font-size="10.00"> DefaultGiveable&lt; Lexicon,</text>
<text text-anchor="middle" x="489" y="-629.5" font-family="Helvetica,sans-Serif" font-size="10.00"> Program &gt; &gt;</text>
</a>
</g>
<!-- Node3&#45;&gt;Node2 -->
<g id="edge4" class="edge"><title>Node3&#45;&gt;Node2</title>
<path fill="none" stroke="midnightblue" d="M442.948,-617.639C421.226,-606.148 396.079,-592.846 377.58,-583.06"/>
<polygon fill="midnightblue" stroke="midnightblue" points="441.542,-620.855 452.019,-622.437 444.816,-614.668 441.542,-620.855"/>
</g>
<!-- Node4 -->
<g id="node6" class="node"><title>Node4</title>
<a xlink:href="struct_om_1_1_default_giveable.html" target="_top" xlink:title="Om::DefaultGiveable\l\&lt; Lexicon, Program \&gt;">
<polygon fill="none" stroke="black" points="386,-703 386,-733 492,-733 492,-703 386,-703"/>
<text text-anchor="start" x="394" y="-721" font-family="Helvetica,sans-Serif" font-size="10.00">Om::DefaultGiveable</text>
<text text-anchor="middle" x="439" y="-710" font-family="Helvetica,sans-Serif" font-size="10.00">&lt; Lexicon, Program &gt;</text>
</a>
</g>
<!-- Node4&#45;&gt;Node3 -->
<g id="edge6" class="edge"><title>Node4&#45;&gt;Node3</title>
<path fill="none" stroke="midnightblue" d="M454.476,-694.406C461.241,-684.529 469.1,-673.054 475.609,-663.551"/>
<polygon fill="midnightblue" stroke="midnightblue" points="451.404,-692.697 448.641,-702.925 457.179,-696.652 451.404,-692.697"/>
</g>
<!-- Node5 -->
<g id="node8" class="node"><title>Node5</title>
<a xlink:href="struct_om_1_1_default_moveable.html" target="_top" xlink:title="Om::DefaultMoveable\l\&lt; Lexicon, DefaultCopyable\l\&lt; Lexicon, Program \&gt; \&gt;">
<polygon fill="none" stroke="black" points="364.5,-772.5 364.5,-813.5 499.5,-813.5 499.5,-772.5 364.5,-772.5"/>
<text text-anchor="start" x="372.5" y="-801.5" font-family="Helvetica,sans-Serif" font-size="10.00">Om::DefaultMoveable</text>
<text text-anchor="start" x="372.5" y="-790.5" font-family="Helvetica,sans-Serif" font-size="10.00">&lt; Lexicon, DefaultCopyable</text>
<text text-anchor="middle" x="432" y="-779.5" font-family="Helvetica,sans-Serif" font-size="10.00">&lt; Lexicon, Program &gt; &gt;</text>
</a>
</g>
<!-- Node5&#45;&gt;Node4 -->
<g id="edge8" class="edge"><title>Node5&#45;&gt;Node4</title>
<path fill="none" stroke="midnightblue" d="M434.841,-762.372C435.803,-752.335 436.835,-741.579 437.63,-733.289"/>
<polygon fill="midnightblue" stroke="midnightblue" points="431.346,-762.149 433.876,-772.437 438.315,-762.817 431.346,-762.149"/>
</g>
<!-- Node6 -->
<g id="node10" class="node"><title>Node6</title>
<a xlink:href="struct_om_1_1_default_copyable.html" target="_top" xlink:title="Om::DefaultCopyable\l\&lt; Lexicon, Program \&gt;">
<polygon fill="none" stroke="black" points="374,-853 374,-883 484,-883 484,-853 374,-853"/>
<text text-anchor="start" x="382" y="-871" font-family="Helvetica,sans-Serif" font-size="10.00">Om::DefaultCopyable</text>
<text text-anchor="middle" x="429" y="-860" font-family="Helvetica,sans-Serif" font-size="10.00">&lt; Lexicon, Program &gt;</text>
</a>
</g>
<!-- Node6&#45;&gt;Node5 -->
<g id="edge10" class="edge"><title>Node6&#45;&gt;Node5</title>
<path fill="none" stroke="midnightblue" d="M429.991,-842.882C430.382,-833.363 430.826,-822.569 431.197,-813.551"/>
<polygon fill="midnightblue" stroke="midnightblue" points="426.492,-842.79 429.578,-852.925 433.486,-843.077 426.492,-842.79"/>
</g>
<!-- Node7 -->
<g id="node12" class="node"><title>Node7</title>
<a xlink:href="struct_om_1_1_program.html" target="_top" xlink:title="The Program implementation.">
<polygon fill="none" stroke="black" points="349,-922.5 349,-941.5 421,-941.5 421,-922.5 349,-922.5"/>
<text text-anchor="middle" x="385" y="-929.5" font-family="Helvetica,sans-Serif" font-size="10.00">Om::Program</text>
</a>
</g>
<!-- Node7&#45;&gt;Node6 -->
<g id="edge12" class="edge"><title>Node7&#45;&gt;Node6</title>
<path fill="none" stroke="midnightblue" d="M397.066,-913.998C403.912,-904.352 412.382,-892.417 418.878,-883.263"/>
<polygon fill="midnightblue" stroke="midnightblue" points="394.051,-912.198 391.118,-922.379 399.76,-916.25 394.051,-912.198"/>
</g>
<!-- Node25 -->
<g id="node48" class="node"><title>Node25</title>
<a xlink:href="struct_om_1_1_element.html" target="_top" xlink:title="An &quot;elemental&quot; Program comprised of a single item.">
<polygon fill="none" stroke="black" points="284.5,-858.5 284.5,-877.5 355.5,-877.5 355.5,-858.5 284.5,-858.5"/>
<text text-anchor="middle" x="320" y="-865.5" font-family="Helvetica,sans-Serif" font-size="10.00">Om::Element</text>
</a>
</g>
<!-- Node7&#45;&gt;Node25 -->
<g id="edge50" class="edge"><title>Node7&#45;&gt;Node25</title>
<path fill="none" stroke="midnightblue" d="M368.434,-915.198C355.881,-903.225 339.115,-887.233 328.961,-877.548"/>
<polygon fill="midnightblue" stroke="midnightblue" points="366.31,-918.01 375.962,-922.379 371.142,-912.944 366.31,-918.01"/>
</g>
<!-- Node8 -->
<g id="node14" class="node"><title>Node8</title>
<a xlink:href="struct_om_1_1_giveable.html" target="_top" xlink:title="An object that can be copied or moved via Give.">
<polygon fill="none" stroke="black" points="258,-980.5 258,-999.5 334,-999.5 334,-980.5 258,-980.5"/>
<text text-anchor="middle" x="296" y="-987.5" font-family="Helvetica,sans-Serif" font-size="10.00">Om::Giveable</text>
</a>
</g>
<!-- Node8&#45;&gt;Node7 -->
<g id="edge14" class="edge"><title>Node8&#45;&gt;Node7</title>
<path fill="none" stroke="midnightblue" d="M318.119,-975.082C334.815,-964.577 357.192,-950.497 371.356,-941.585"/>
<polygon fill="midnightblue" stroke="midnightblue" points="316.117,-972.207 309.517,-980.495 319.845,-978.132 316.117,-972.207"/>
</g>
<!-- Node9 -->
<g id="node16" class="node"><title>Node9</title>
<a xlink:href="struct_om_1_1_copyable.html" target="_top" xlink:title="An object that can be passed to Copy to be copied.">
<polygon fill="none" stroke="black" points="207,-1038.5 207,-1057.5 287,-1057.5 287,-1038.5 207,-1038.5"/>
<text text-anchor="middle" x="247" y="-1045.5" font-family="Helvetica,sans-Serif" font-size="10.00">Om::Copyable</text>
</a>
</g>
<!-- Node9&#45;&gt;Node8 -->
<g id="edge16" class="edge"><title>Node9&#45;&gt;Node8</title>
<path fill="none" stroke="midnightblue" d="M261.494,-1030.43C270.386,-1020.27 281.4,-1007.69 288.558,-999.505"/>
<polygon fill="midnightblue" stroke="midnightblue" points="258.607,-1028.42 254.656,-1038.25 263.875,-1033.03 258.607,-1028.42"/>
</g>
<!-- Node10 -->
<g id="node18" class="node"><title>Node10</title>
<a xlink:href="struct_om_1_1_moveable.html" target="_top" xlink:title="An object that can be passed to Move to be moved.">
<polygon fill="none" stroke="black" points="305,-1038.5 305,-1057.5 385,-1057.5 385,-1038.5 305,-1038.5"/>
<text text-anchor="middle" x="345" y="-1045.5" font-family="Helvetica,sans-Serif" font-size="10.00">Om::Moveable</text>
</a>
</g>
<!-- Node10&#45;&gt;Node8 -->
<g id="edge18" class="edge"><title>Node10&#45;&gt;Node8</title>
<path fill="none" stroke="midnightblue" d="M330.506,-1030.43C321.614,-1020.27 310.6,-1007.69 303.442,-999.505"/>
<polygon fill="midnightblue" stroke="midnightblue" points="328.125,-1033.03 337.344,-1038.25 333.393,-1028.42 328.125,-1033.03"/>
</g>
<!-- Node11 -->
<g id="node20" class="node"><title>Node11</title>
<a xlink:href="struct_om_1_1_queue.html" target="_top" xlink:title="A first&#45;in, first&#45;out Element processor.">
<polygon fill="none" stroke="black" points="352,-980.5 352,-999.5 418,-999.5 418,-980.5 352,-980.5"/>
<text text-anchor="middle" x="385" y="-987.5" font-family="Helvetica,sans-Serif" font-size="10.00">Om::Queue</text>
</a>
</g>
<!-- Node11&#45;&gt;Node7 -->
<g id="edge20" class="edge"><title>Node11&#45;&gt;Node7</title>
<path fill="none" stroke="midnightblue" d="M385,-969.953C385,-960.287 385,-949.031 385,-941.505"/>
<polygon fill="midnightblue" stroke="midnightblue" points="381.5,-970.25 385,-980.25 388.5,-970.25 381.5,-970.25"/>
</g>
<!-- Node12 -->
<g id="node22" class="node"><title>Node12</title>
<a xlink:href="struct_om_1_1_shareable.html" target="_top" xlink:title="Om::Shareable\&lt;\&gt;">
<polygon fill="none" stroke="black" points="436,-980.5 436,-999.5 528,-999.5 528,-980.5 436,-980.5"/>
<text text-anchor="middle" x="482" y="-987.5" font-family="Helvetica,sans-Serif" font-size="10.00">Om::Shareable&lt;&gt;</text>
</a>
</g>
<!-- Node12&#45;&gt;Node7 -->
<g id="edge22" class="edge"><title>Node12&#45;&gt;Node7</title>
<path fill="none" stroke="midnightblue" d="M458.396,-975.373C440.149,-964.838 415.451,-950.58 399.871,-941.585"/>
<polygon fill="midnightblue" stroke="midnightblue" points="456.857,-978.526 467.268,-980.495 460.357,-972.464 456.857,-978.526"/>
</g>
<!-- Node13 -->
<g id="node24" class="node"><title>Node13</title>
<a xlink:href="struct_om_1_1_taker.html" target="_top" xlink:title="Om::Taker\&lt; Lexicon \&gt;">
<polygon fill="none" stroke="black" points="292.5,-633.5 292.5,-652.5 401.5,-652.5 401.5,-633.5 292.5,-633.5"/>
<text text-anchor="middle" x="347" y="-640.5" font-family="Helvetica,sans-Serif" font-size="10.00">Om::Taker&lt; Lexicon &gt;</text>
</a>
</g>
<!-- Node13&#45;&gt;Node2 -->
<g id="edge24" class="edge"><title>Node13&#45;&gt;Node2</title>
<path fill="none" stroke="midnightblue" d="M348.034,-623.133C348.718,-610.649 349.6,-594.545 350.224,-583.156"/>
<polygon fill="midnightblue" stroke="midnightblue" points="344.527,-623.163 347.475,-633.339 351.517,-623.546 344.527,-623.163"/>
</g>
<!-- Node14 -->
<g id="node26" class="node"><title>Node14</title>
<a xlink:href="struct_om_1_1_lexicon_1_1_node.html" target="_top" xlink:title="A Lexicon linked list node, extending Pair with next and prior pointers.">
<polygon fill="none" stroke="black" points="151,-79.5 151,-98.5 247,-98.5 247,-79.5 151,-79.5"/>
<text text-anchor="middle" x="199" y="-86.5" font-family="Helvetica,sans-Serif" font-size="10.00">Om::Lexicon::Node</text>
</a>
</g>
<!-- Node14&#45;&gt;Node1 -->
<g id="edge26" class="edge"><title>Node14&#45;&gt;Node1</title>
<path fill="none" stroke="#9a32cd" stroke-dasharray="5,2" d="M217.655,-73.037C237.502,-57.1185 268.209,-32.489 284.312,-19.5728"/>
<polygon fill="#9a32cd" stroke="#9a32cd" points="215.251,-70.4783 209.64,-79.4655 219.631,-75.9388 215.251,-70.4783"/>
<text text-anchor="middle" x="289.5" y="-52" font-family="Helvetica,sans-Serif" font-size="10.00"> thisFirstNode</text>
<text text-anchor="middle" x="289.5" y="-41" font-family="Helvetica,sans-Serif" font-size="10.00">thisLastNode</text>
</g>
<!-- Node14&#45;&gt;Node14 -->
<g id="edge58" class="edge"><title>Node14&#45;&gt;Node14</title>
<path fill="none" stroke="#9a32cd" stroke-dasharray="5,2" d="M257.304,-93.3159C262.053,-92.3795 265,-90.9409 265,-89 265,-85.8945 257.456,-84.0749 247.054,-83.5412"/>
<polygon fill="#9a32cd" stroke="#9a32cd" points="256.605,-89.872 247.054,-94.4588 257.381,-96.8289 256.605,-89.872"/>
<text text-anchor="middle" x="294" y="-92" font-family="Helvetica,sans-Serif" font-size="10.00"> thisPriorNode</text>
<text text-anchor="middle" x="294" y="-81" font-family="Helvetica,sans-Serif" font-size="10.00">thisNextNode</text>
</g>
<!-- Node15 -->
<g id="node28" class="node"><title>Node15</title>
<a xlink:href="struct_om_1_1_pair.html" target="_top" xlink:title="Om::Pair">
<polygon fill="none" stroke="black" points="172.5,-138.5 172.5,-157.5 225.5,-157.5 225.5,-138.5 172.5,-138.5"/>
<text text-anchor="middle" x="199" y="-145.5" font-family="Helvetica,sans-Serif" font-size="10.00">Om::Pair</text>
</a>
</g>
<!-- Node15&#45;&gt;Node14 -->
<g id="edge28" class="edge"><title>Node15&#45;&gt;Node14</title>
<path fill="none" stroke="midnightblue" d="M199,-127.933C199,-118.024 199,-106.401 199,-98.6571"/>
<polygon fill="midnightblue" stroke="midnightblue" points="195.5,-128.094 199,-138.094 202.5,-128.094 195.5,-128.094"/>
</g>
<!-- Node16 -->
<g id="node30" class="node"><title>Node16</title>
<a xlink:href="struct_om_1_1_operator.html" target="_top" xlink:title="The Operator implementation.">
<polygon fill="none" stroke="black" points="162,-206.5 162,-225.5 236,-225.5 236,-206.5 162,-206.5"/>
<text text-anchor="middle" x="199" y="-213.5" font-family="Helvetica,sans-Serif" font-size="10.00">Om::Operator</text>
</a>
</g>
<!-- Node16&#45;&gt;Node15 -->
<g id="edge30" class="edge"><title>Node16&#45;&gt;Node15</title>
<path fill="none" stroke="#9a32cd" stroke-dasharray="5,2" d="M199,-196.041C199,-183.472 199,-167.563 199,-157.841"/>
<polygon fill="#9a32cd" stroke="#9a32cd" points="195.5,-196.372 199,-206.372 202.5,-196.372 195.5,-196.372"/>
<text text-anchor="middle" x="226.5" y="-179.5" font-family="Helvetica,sans-Serif" font-size="10.00"> thisOperator</text>
</g>
<!-- Node17 -->
<g id="node32" class="node"><title>Node17</title>
<a xlink:href="struct_om_1_1_default_atom.html" target="_top" xlink:title="Om::DefaultAtom\&lt; Operator \&gt;">
<polygon fill="none" stroke="black" points="127.5,-264.5 127.5,-283.5 270.5,-283.5 270.5,-264.5 127.5,-264.5"/>
<text text-anchor="middle" x="199" y="-271.5" font-family="Helvetica,sans-Serif" font-size="10.00">Om::DefaultAtom&lt; Operator &gt;</text>
</a>
</g>
<!-- Node17&#45;&gt;Node16 -->
<g id="edge32" class="edge"><title>Node17&#45;&gt;Node16</title>
<path fill="none" stroke="midnightblue" d="M199,-253.953C199,-244.287 199,-233.031 199,-225.505"/>
<polygon fill="midnightblue" stroke="midnightblue" points="195.5,-254.25 199,-264.25 202.5,-254.25 195.5,-254.25"/>
</g>
<!-- Node18 -->
<g id="node34" class="node"><title>Node18</title>
<a xlink:href="struct_om_1_1_default_element.html" target="_top" xlink:title="Om::DefaultElement\l\&lt; Operator, Atom \&gt;">
<polygon fill="none" stroke="black" points="149.5,-333 149.5,-363 250.5,-363 250.5,-333 149.5,-333"/>
<text text-anchor="start" x="157.5" y="-351" font-family="Helvetica,sans-Serif" font-size="10.00">Om::DefaultElement</text>
<text text-anchor="middle" x="200" y="-340" font-family="Helvetica,sans-Serif" font-size="10.00">&lt; Operator, Atom &gt;</text>
</a>
</g>
<!-- Node18&#45;&gt;Node17 -->
<g id="edge34" class="edge"><title>Node18&#45;&gt;Node17</title>
<path fill="none" stroke="midnightblue" d="M199.662,-322.688C199.476,-309.253 199.255,-293.38 199.122,-283.759"/>
<polygon fill="midnightblue" stroke="midnightblue" points="196.164,-322.825 199.802,-332.775 203.163,-322.727 196.164,-322.825"/>
</g>
<!-- Node19 -->
<g id="node36" class="node"><title>Node19</title>
<a xlink:href="struct_om_1_1_default_program.html" target="_top" xlink:title="Om::DefaultProgram\l\&lt; Operator, Atom \&gt;">
<polygon fill="none" stroke="black" points="150,-403 150,-433 252,-433 252,-403 150,-403"/>
<text text-anchor="start" x="158" y="-421" font-family="Helvetica,sans-Serif" font-size="10.00">Om::DefaultProgram</text>
<text text-anchor="middle" x="201" y="-410" font-family="Helvetica,sans-Serif" font-size="10.00">&lt; Operator, Atom &gt;</text>
</a>
</g>
<!-- Node19&#45;&gt;Node18 -->
<g id="edge36" class="edge"><title>Node19&#45;&gt;Node18</title>
<path fill="none" stroke="midnightblue" d="M200.644,-392.769C200.497,-382.814 200.333,-371.638 200.207,-363.072"/>
<polygon fill="midnightblue" stroke="midnightblue" points="197.146,-392.963 200.793,-402.91 204.145,-392.86 197.146,-392.963"/>
</g>
<!-- Node20 -->
<g id="node38" class="node"><title>Node20</title>
<a xlink:href="struct_om_1_1_default_queue.html" target="_top" xlink:title="Om::DefaultQueue\&lt; Operator,\l DefaultGiveable\&lt; Operator,\l Atom \&gt; \&gt;">
<polygon fill="none" stroke="black" points="132,-472.5 132,-513.5 276,-513.5 276,-472.5 132,-472.5"/>
<text text-anchor="start" x="140" y="-501.5" font-family="Helvetica,sans-Serif" font-size="10.00">Om::DefaultQueue&lt; Operator,</text>
<text text-anchor="start" x="140" y="-490.5" font-family="Helvetica,sans-Serif" font-size="10.00"> DefaultGiveable&lt; Operator,</text>
<text text-anchor="middle" x="204" y="-479.5" font-family="Helvetica,sans-Serif" font-size="10.00"> Atom &gt; &gt;</text>
</a>
</g>
<!-- Node20&#45;&gt;Node19 -->
<g id="edge38" class="edge"><title>Node20&#45;&gt;Node19</title>
<path fill="none" stroke="midnightblue" d="M202.782,-462.372C202.37,-452.335 201.928,-441.579 201.587,-433.289"/>
<polygon fill="midnightblue" stroke="midnightblue" points="199.288,-462.59 203.196,-472.437 206.282,-462.302 199.288,-462.59"/>
</g>
<!-- Node21 -->
<g id="node40" class="node"><title>Node21</title>
<a xlink:href="struct_om_1_1_default_giveable.html" target="_top" xlink:title="Om::DefaultGiveable\l\&lt; Operator, Atom \&gt;">
<polygon fill="none" stroke="black" points="151,-553 151,-583 257,-583 257,-553 151,-553"/>
<text text-anchor="start" x="159" y="-571" font-family="Helvetica,sans-Serif" font-size="10.00">Om::DefaultGiveable</text>
<text text-anchor="middle" x="204" y="-560" font-family="Helvetica,sans-Serif" font-size="10.00">&lt; Operator, Atom &gt;</text>
</a>
</g>
<!-- Node21&#45;&gt;Node20 -->
<g id="edge40" class="edge"><title>Node21&#45;&gt;Node20</title>
<path fill="none" stroke="midnightblue" d="M204,-542.882C204,-533.363 204,-522.569 204,-513.551"/>
<polygon fill="midnightblue" stroke="midnightblue" points="200.5,-542.925 204,-552.925 207.5,-542.925 200.5,-542.925"/>
</g>
<!-- Node22 -->
<g id="node42" class="node"><title>Node22</title>
<a xlink:href="struct_om_1_1_default_moveable.html" target="_top" xlink:title="Om::DefaultMoveable\l\&lt; Operator, DefaultCopyable\l\&lt; Operator, Atom \&gt; \&gt;">
<polygon fill="none" stroke="black" points="134,-622.5 134,-663.5 274,-663.5 274,-622.5 134,-622.5"/>
<text text-anchor="start" x="142" y="-651.5" font-family="Helvetica,sans-Serif" font-size="10.00">Om::DefaultMoveable</text>
<text text-anchor="start" x="142" y="-640.5" font-family="Helvetica,sans-Serif" font-size="10.00">&lt; Operator, DefaultCopyable</text>
<text text-anchor="middle" x="204" y="-629.5" font-family="Helvetica,sans-Serif" font-size="10.00">&lt; Operator, Atom &gt; &gt;</text>
</a>
</g>
<!-- Node22&#45;&gt;Node21 -->
<g id="edge42" class="edge"><title>Node22&#45;&gt;Node21</title>
<path fill="none" stroke="midnightblue" d="M204,-612.372C204,-602.335 204,-591.579 204,-583.289"/>
<polygon fill="midnightblue" stroke="midnightblue" points="200.5,-612.437 204,-622.437 207.5,-612.437 200.5,-612.437"/>
</g>
<!-- Node23 -->
<g id="node44" class="node"><title>Node23</title>
<a xlink:href="struct_om_1_1_default_copyable.html" target="_top" xlink:title="Om::DefaultCopyable\l\&lt; Operator, Atom \&gt;">
<polygon fill="none" stroke="black" points="248,-703 248,-733 358,-733 358,-703 248,-703"/>
<text text-anchor="start" x="256" y="-721" font-family="Helvetica,sans-Serif" font-size="10.00">Om::DefaultCopyable</text>
<text text-anchor="middle" x="303" y="-710" font-family="Helvetica,sans-Serif" font-size="10.00">&lt; Operator, Atom &gt;</text>
</a>
</g>
<!-- Node23&#45;&gt;Node22 -->
<g id="edge44" class="edge"><title>Node23&#45;&gt;Node22</title>
<path fill="none" stroke="midnightblue" d="M275.593,-696.791C261.522,-686.415 244.455,-673.83 230.514,-663.551"/>
<polygon fill="midnightblue" stroke="midnightblue" points="273.786,-699.807 283.912,-702.925 277.94,-694.173 273.786,-699.807"/>
</g>
<!-- Node24 -->
<g id="node46" class="node"><title>Node24</title>
<a xlink:href="struct_om_1_1_atom.html" target="_top" xlink:title="A leaf Element defined by a string.">
<polygon fill="none" stroke="black" points="286.5,-783.5 286.5,-802.5 345.5,-802.5 345.5,-783.5 286.5,-783.5"/>
<text text-anchor="middle" x="316" y="-790.5" font-family="Helvetica,sans-Serif" font-size="10.00">Om::Atom</text>
</a>
</g>
<!-- Node24&#45;&gt;Node23 -->
<g id="edge46" class="edge"><title>Node24&#45;&gt;Node23</title>
<path fill="none" stroke="midnightblue" d="M312.64,-773.133C310.417,-760.649 307.549,-744.545 305.521,-733.156"/>
<polygon fill="midnightblue" stroke="midnightblue" points="309.259,-774.108 314.458,-783.339 316.15,-772.881 309.259,-774.108"/>
</g>
<!-- Node25&#45;&gt;Node24 -->
<g id="edge48" class="edge"><title>Node25&#45;&gt;Node24</title>
<path fill="none" stroke="midnightblue" d="M318.977,-848.328C318.172,-833.637 317.087,-813.839 316.474,-802.649"/>
<polygon fill="midnightblue" stroke="midnightblue" points="315.483,-848.546 319.525,-858.339 322.473,-848.163 315.483,-848.546"/>
</g>
<!-- Node26 -->
<g id="node51" class="node"><title>Node26</title>
<a xlink:href="struct_om_1_1_taker.html" target="_top" xlink:title="Om::Taker\&lt; Operator \&gt;">
<polygon fill="none" stroke="black" points="0,-483.5 0,-502.5 114,-502.5 114,-483.5 0,-483.5"/>
<text text-anchor="middle" x="57" y="-490.5" font-family="Helvetica,sans-Serif" font-size="10.00">Om::Taker&lt; Operator &gt;</text>
</a>
</g>
<!-- Node26&#45;&gt;Node19 -->
<g id="edge52" class="edge"><title>Node26&#45;&gt;Node19</title>
<path fill="none" stroke="midnightblue" d="M82.8558,-478.893C108.325,-465.981 147.107,-446.321 173.221,-433.082"/>
<polygon fill="midnightblue" stroke="midnightblue" points="81.1372,-475.84 73.8005,-483.483 84.3024,-482.083 81.1372,-475.84"/>
</g>
<!-- Node27 -->
<g id="node53" class="node"><title>Node27</title>
<a xlink:title="STL class.">
<polygon fill="none" stroke="#bfbfbf" points="67,-338.5 67,-357.5 123,-357.5 123,-338.5 67,-338.5"/>
<text text-anchor="middle" x="95" y="-345.5" font-family="Helvetica,sans-Serif" font-size="10.00">std::string</text>
</a>
</g>
<!-- Node27&#45;&gt;Node17 -->
<g id="edge54" class="edge"><title>Node27&#45;&gt;Node17</title>
<path fill="none" stroke="#9a32cd" stroke-dasharray="5,2" d="M113.556,-332.002C124.984,-322.979 140.067,-311.451 154,-302 163.651,-295.454 174.901,-288.704 183.738,-283.59"/>
<polygon fill="#9a32cd" stroke="#9a32cd" points="111.246,-329.367 105.608,-338.337 115.61,-334.84 111.246,-329.367"/>
<text text-anchor="middle" x="174.5" y="-305.5" font-family="Helvetica,sans-Serif" font-size="10.00"> thisString</text>
</g>
<!-- Node28 -->
<g id="node55" class="node"><title>Node28</title>
<a xlink:title="STL class.">
<polygon fill="none" stroke="#bfbfbf" points="42.5,-403 42.5,-433 131.5,-433 131.5,-403 42.5,-403"/>
<text text-anchor="start" x="50.5" y="-421" font-family="Helvetica,sans-Serif" font-size="10.00">std::basic_string&lt;</text>
<text text-anchor="middle" x="87" y="-410" font-family="Helvetica,sans-Serif" font-size="10.00"> char &gt;</text>
</a>
</g>
<!-- Node28&#45;&gt;Node27 -->
<g id="edge56" class="edge"><title>Node28&#45;&gt;Node27</title>
<path fill="none" stroke="midnightblue" d="M89.8373,-392.883C91.2667,-380.733 92.9131,-366.739 93.9549,-357.883"/>
<polygon fill="midnightblue" stroke="midnightblue" points="86.3501,-392.57 88.6576,-402.91 93.3021,-393.388 86.3501,-392.57"/>
</g>
</g>
</svg>
