<?xml version="1.0" encoding="UTF-8" standalone="no"?>
<!DOCTYPE svg PUBLIC "-//W3C//DTD SVG 1.1//EN"
 "http://www.w3.org/Graphics/SVG/1.1/DTD/svg11.dtd">
<!-- Generated by graphviz version 2.28.0 (20120817.0054)
 -->
<!-- Title: Om::DefaultAtom&lt; ThisImplementation &gt; Pages: 1 -->
<svg width="1772pt" height="134pt"
 viewBox="0.00 0.00 1772.00 134.00" xmlns="http://www.w3.org/2000/svg" xmlns:xlink="http://www.w3.org/1999/xlink">
<g id="graph1" class="graph" transform="scale(1 1) rotate(0) translate(4 130)">
<title>Om::DefaultAtom&lt; ThisImplementation &gt;</title>
<!-- Node1 -->
<g id="node1" class="node"><title>Node1</title>
<polygon fill="#bfbfbf" stroke="black" points="1578.5,-24.5 1578.5,-43.5 1763.5,-43.5 1763.5,-24.5 1578.5,-24.5"/>
<text text-anchor="middle" x="1671" y="-31.5" font-family="Helvetica,sans-Serif" font-size="10.00">Om::DefaultAtom&lt; ThisImplementation &gt;</text>
</g>
<!-- Node2 -->
<g id="node2" class="node"><title>Node2</title>
<a xlink:href="struct_om_1_1_default_element.html" target="_top" xlink:title="Om::DefaultElement\l\&lt; ThisImplementation,\l Atom \&gt;">
<polygon fill="none" stroke="black" points="1434.5,-13.5 1434.5,-54.5 1541.5,-54.5 1541.5,-13.5 1434.5,-13.5"/>
<text text-anchor="start" x="1442.5" y="-42.5" font-family="Helvetica,sans-Serif" font-size="10.00">Om::DefaultElement</text>
<text text-anchor="start" x="1442.5" y="-31.5" font-family="Helvetica,sans-Serif" font-size="10.00">&lt; ThisImplementation,</text>
<text text-anchor="middle" x="1488" y="-20.5" font-family="Helvetica,sans-Serif" font-size="10.00"> Atom &gt;</text>
</a>
</g>
<!-- Node2&#45;&gt;Node1 -->
<g id="edge2" class="edge"><title>Node2&#45;&gt;Node1</title>
<path fill="none" stroke="midnightblue" d="M1552.02,-34C1560.52,-34 1569.39,-34 1578.27,-34"/>
<polygon fill="midnightblue" stroke="midnightblue" points="1551.84,-30.5001 1541.84,-34 1551.84,-37.5001 1551.84,-30.5001"/>
</g>
<!-- Node3 -->
<g id="node4" class="node"><title>Node3</title>
<a xlink:href="struct_om_1_1_default_program.html" target="_top" xlink:title="Om::DefaultProgram\l\&lt; ThisImplementation,\l Atom \&gt;">
<polygon fill="none" stroke="black" points="1290.5,-13.5 1290.5,-54.5 1397.5,-54.5 1397.5,-13.5 1290.5,-13.5"/>
<text text-anchor="start" x="1298.5" y="-42.5" font-family="Helvetica,sans-Serif" font-size="10.00">Om::DefaultProgram</text>
<text text-anchor="start" x="1298.5" y="-31.5" font-family="Helvetica,sans-Serif" font-size="10.00">&lt; ThisImplementation,</text>
<text text-anchor="middle" x="1344" y="-20.5" font-family="Helvetica,sans-Serif" font-size="10.00"> Atom &gt;</text>
</a>
</g>
<!-- Node3&#45;&gt;Node2 -->
<g id="edge4" class="edge"><title>Node3&#45;&gt;Node2</title>
<path fill="none" stroke="midnightblue" d="M1407.99,-34C1416.7,-34 1425.58,-34 1434.08,-34"/>
<polygon fill="midnightblue" stroke="midnightblue" points="1407.88,-30.5001 1397.88,-34 1407.88,-37.5001 1407.88,-30.5001"/>
</g>
<!-- Node4 -->
<g id="node6" class="node"><title>Node4</title>
<a xlink:href="struct_om_1_1_default_queue.html" target="_top" xlink:title="Om::DefaultQueue\&lt; ThisImplementation,\l DefaultGiveable\&lt; ThisImplementation,\l Atom \&gt; \&gt;">
<polygon fill="none" stroke="black" points="1066.5,-38.5 1066.5,-79.5 1253.5,-79.5 1253.5,-38.5 1066.5,-38.5"/>
<text text-anchor="start" x="1074.5" y="-67.5" font-family="Helvetica,sans-Serif" font-size="10.00">Om::DefaultQueue&lt; ThisImplementation,</text>
<text text-anchor="start" x="1074.5" y="-56.5" font-family="Helvetica,sans-Serif" font-size="10.00"> DefaultGiveable&lt; ThisImplementation,</text>
<text text-anchor="middle" x="1160" y="-45.5" font-family="Helvetica,sans-Serif" font-size="10.00"> Atom &gt; &gt;</text>
</a>
</g>
<!-- Node4&#45;&gt;Node3 -->
<g id="edge6" class="edge"><title>Node4&#45;&gt;Node3</title>
<path fill="none" stroke="midnightblue" d="M1263.65,-44.8998C1272.87,-43.6334 1281.93,-42.3893 1290.43,-41.2205"/>
<polygon fill="midnightblue" stroke="midnightblue" points="1263.03,-41.4519 1253.6,-46.2803 1263.98,-48.3868 1263.03,-41.4519"/>
</g>
<!-- Node5 -->
<g id="node8" class="node"><title>Node5</title>
<a xlink:href="struct_om_1_1_default_giveable.html" target="_top" xlink:title="Om::DefaultGiveable\l\&lt; ThisImplementation,\l Atom \&gt;">
<polygon fill="none" stroke="black" points="922.5,-38.5 922.5,-79.5 1029.5,-79.5 1029.5,-38.5 922.5,-38.5"/>
<text text-anchor="start" x="930.5" y="-67.5" font-family="Helvetica,sans-Serif" font-size="10.00">Om::DefaultGiveable</text>
<text text-anchor="start" x="930.5" y="-56.5" font-family="Helvetica,sans-Serif" font-size="10.00">&lt; ThisImplementation,</text>
<text text-anchor="middle" x="976" y="-45.5" font-family="Helvetica,sans-Serif" font-size="10.00"> Atom &gt;</text>
</a>
</g>
<!-- Node5&#45;&gt;Node4 -->
<g id="edge8" class="edge"><title>Node5&#45;&gt;Node4</title>
<path fill="none" stroke="midnightblue" d="M1039.89,-59C1048.45,-59 1057.39,-59 1066.35,-59"/>
<polygon fill="midnightblue" stroke="midnightblue" points="1039.64,-55.5001 1029.64,-59 1039.64,-62.5001 1039.64,-55.5001"/>
</g>
<!-- Node6 -->
<g id="node10" class="node"><title>Node6</title>
<a xlink:href="struct_om_1_1_default_moveable.html" target="_top" xlink:title="Om::DefaultMoveable\l\&lt; ThisImplementation,\l DefaultCopyable\&lt; ThisImplementation,\l Atom \&gt; \&gt;">
<polygon fill="none" stroke="black" points="702.5,-33 702.5,-85 885.5,-85 885.5,-33 702.5,-33"/>
<text text-anchor="start" x="710.5" y="-73" font-family="Helvetica,sans-Serif" font-size="10.00">Om::DefaultMoveable</text>
<text text-anchor="start" x="710.5" y="-62" font-family="Helvetica,sans-Serif" font-size="10.00">&lt; ThisImplementation,</text>
<text text-anchor="start" x="710.5" y="-51" font-family="Helvetica,sans-Serif" font-size="10.00"> DefaultCopyable&lt; ThisImplementation,</text>
<text text-anchor="middle" x="794" y="-40" font-family="Helvetica,sans-Serif" font-size="10.00"> Atom &gt; &gt;</text>
</a>
</g>
<!-- Node6&#45;&gt;Node5 -->
<g id="edge10" class="edge"><title>Node6&#45;&gt;Node5</title>
<path fill="none" stroke="midnightblue" d="M895.552,-59C904.753,-59 913.805,-59 922.316,-59"/>
<polygon fill="midnightblue" stroke="midnightblue" points="895.527,-55.5001 885.527,-59 895.527,-62.5001 895.527,-55.5001"/>
</g>
<!-- Node7 -->
<g id="node12" class="node"><title>Node7</title>
<a xlink:href="struct_om_1_1_default_copyable.html" target="_top" xlink:title="Om::DefaultCopyable\l\&lt; ThisImplementation,\l Atom \&gt;">
<polygon fill="none" stroke="black" points="556,-38.5 556,-79.5 666,-79.5 666,-38.5 556,-38.5"/>
<text text-anchor="start" x="564" y="-67.5" font-family="Helvetica,sans-Serif" font-size="10.00">Om::DefaultCopyable</text>
<text text-anchor="start" x="564" y="-56.5" font-family="Helvetica,sans-Serif" font-size="10.00">&lt; ThisImplementation,</text>
<text text-anchor="middle" x="611" y="-45.5" font-family="Helvetica,sans-Serif" font-size="10.00"> Atom &gt;</text>
</a>
</g>
<!-- Node7&#45;&gt;Node6 -->
<g id="edge12" class="edge"><title>Node7&#45;&gt;Node6</title>
<path fill="none" stroke="midnightblue" d="M676.355,-59C684.744,-59 693.462,-59 702.183,-59"/>
<polygon fill="midnightblue" stroke="midnightblue" points="676.306,-55.5001 666.306,-59 676.306,-62.5001 676.306,-55.5001"/>
</g>
<!-- Node8 -->
<g id="node14" class="node"><title>Node8</title>
<a xlink:href="struct_om_1_1_atom.html" target="_top" xlink:title="A leaf Element defined by a string.">
<polygon fill="none" stroke="black" points="460.5,-49.5 460.5,-68.5 519.5,-68.5 519.5,-49.5 460.5,-49.5"/>
<text text-anchor="middle" x="490" y="-56.5" font-family="Helvetica,sans-Serif" font-size="10.00">Om::Atom</text>
</a>
</g>
<!-- Node8&#45;&gt;Node7 -->
<g id="edge14" class="edge"><title>Node8&#45;&gt;Node7</title>
<path fill="none" stroke="midnightblue" d="M529.627,-59C537.927,-59 546.848,-59 555.619,-59"/>
<polygon fill="midnightblue" stroke="midnightblue" points="529.503,-55.5001 519.503,-59 529.503,-62.5001 529.503,-55.5001"/>
</g>
<!-- Node9 -->
<g id="node16" class="node"><title>Node9</title>
<a xlink:href="struct_om_1_1_element.html" target="_top" xlink:title="An &quot;elemental&quot; Program comprised of a single item.">
<polygon fill="none" stroke="black" points="352.5,-49.5 352.5,-68.5 423.5,-68.5 423.5,-49.5 352.5,-49.5"/>
<text text-anchor="middle" x="388" y="-56.5" font-family="Helvetica,sans-Serif" font-size="10.00">Om::Element</text>
</a>
</g>
<!-- Node9&#45;&gt;Node8 -->
<g id="edge16" class="edge"><title>Node9&#45;&gt;Node8</title>
<path fill="none" stroke="midnightblue" d="M433.731,-59C442.764,-59 452.029,-59 460.329,-59"/>
<polygon fill="midnightblue" stroke="midnightblue" points="433.695,-55.5001 423.695,-59 433.694,-62.5001 433.695,-55.5001"/>
</g>
<!-- Node10 -->
<g id="node18" class="node"><title>Node10</title>
<a xlink:href="struct_om_1_1_program.html" target="_top" xlink:title="The Program implementation.">
<polygon fill="none" stroke="black" points="244,-49.5 244,-68.5 316,-68.5 316,-49.5 244,-49.5"/>
<text text-anchor="middle" x="280" y="-56.5" font-family="Helvetica,sans-Serif" font-size="10.00">Om::Program</text>
</a>
</g>
<!-- Node10&#45;&gt;Node9 -->
<g id="edge18" class="edge"><title>Node10&#45;&gt;Node9</title>
<path fill="none" stroke="midnightblue" d="M326.128,-59C334.921,-59 344.009,-59 352.396,-59"/>
<polygon fill="midnightblue" stroke="midnightblue" points="326.002,-55.5001 316.002,-59 326.002,-62.5001 326.002,-55.5001"/>
</g>
<!-- Node11 -->
<g id="node20" class="node"><title>Node11</title>
<a xlink:href="struct_om_1_1_giveable.html" target="_top" xlink:title="An object that can be copied or moved via Give.">
<polygon fill="none" stroke="black" points="124,-87.5 124,-106.5 200,-106.5 200,-87.5 124,-87.5"/>
<text text-anchor="middle" x="162" y="-94.5" font-family="Helvetica,sans-Serif" font-size="10.00">Om::Giveable</text>
</a>
</g>
<!-- Node11&#45;&gt;Node10 -->
<g id="edge20" class="edge"><title>Node11&#45;&gt;Node10</title>
<path fill="none" stroke="midnightblue" d="M202.153,-84.1741C217.718,-79.0753 235.314,-73.3109 249.738,-68.5859"/>
<polygon fill="midnightblue" stroke="midnightblue" points="200.685,-80.9718 192.272,-87.411 202.864,-87.6239 200.685,-80.9718"/>
</g>
<!-- Node12 -->
<g id="node22" class="node"><title>Node12</title>
<a xlink:href="struct_om_1_1_copyable.html" target="_top" xlink:title="An object that can be passed to Copy to be copied.">
<polygon fill="none" stroke="black" points="0,-106.5 0,-125.5 80,-125.5 80,-106.5 0,-106.5"/>
<text text-anchor="middle" x="40" y="-113.5" font-family="Helvetica,sans-Serif" font-size="10.00">Om::Copyable</text>
</a>
</g>
<!-- Node12&#45;&gt;Node11 -->
<g id="edge22" class="edge"><title>Node12&#45;&gt;Node11</title>
<path fill="none" stroke="midnightblue" d="M90.3313,-108.189C101.468,-106.426 113.11,-104.583 123.658,-102.912"/>
<polygon fill="midnightblue" stroke="midnightblue" points="89.6221,-104.758 80.2925,-109.779 90.7168,-111.672 89.6221,-104.758"/>
</g>
<!-- Node13 -->
<g id="node24" class="node"><title>Node13</title>
<a xlink:href="struct_om_1_1_moveable.html" target="_top" xlink:title="An object that can be passed to Move to be moved.">
<polygon fill="none" stroke="black" points="0,-68.5 0,-87.5 80,-87.5 80,-68.5 0,-68.5"/>
<text text-anchor="middle" x="40" y="-75.5" font-family="Helvetica,sans-Serif" font-size="10.00">Om::Moveable</text>
</a>
</g>
<!-- Node13&#45;&gt;Node11 -->
<g id="edge24" class="edge"><title>Node13&#45;&gt;Node11</title>
<path fill="none" stroke="midnightblue" d="M90.3313,-85.8108C101.468,-87.574 113.11,-89.4175 123.658,-91.0876"/>
<polygon fill="midnightblue" stroke="midnightblue" points="90.7168,-82.3283 80.2925,-84.2213 89.6221,-89.2422 90.7168,-82.3283"/>
</g>
<!-- Node14 -->
<g id="node26" class="node"><title>Node14</title>
<a xlink:href="struct_om_1_1_queue.html" target="_top" xlink:title="A first&#45;in, first&#45;out Element processor.">
<polygon fill="none" stroke="black" points="129,-49.5 129,-68.5 195,-68.5 195,-49.5 129,-49.5"/>
<text text-anchor="middle" x="162" y="-56.5" font-family="Helvetica,sans-Serif" font-size="10.00">Om::Queue</text>
</a>
</g>
<!-- Node14&#45;&gt;Node10 -->
<g id="edge26" class="edge"><title>Node14&#45;&gt;Node10</title>
<path fill="none" stroke="midnightblue" d="M205.321,-59C217.973,-59 231.701,-59 243.841,-59"/>
<polygon fill="midnightblue" stroke="midnightblue" points="205.005,-55.5001 195.005,-59 205.005,-62.5001 205.005,-55.5001"/>
</g>
<!-- Node15 -->
<g id="node28" class="node"><title>Node15</title>
<a xlink:href="struct_om_1_1_shareable.html" target="_top" xlink:title="Om::Shareable\&lt;\&gt;">
<polygon fill="none" stroke="black" points="116,-11.5 116,-30.5 208,-30.5 208,-11.5 116,-11.5"/>
<text text-anchor="middle" x="162" y="-18.5" font-family="Helvetica,sans-Serif" font-size="10.00">Om::Shareable&lt;&gt;</text>
</a>
</g>
<!-- Node15&#45;&gt;Node10 -->
<g id="edge28" class="edge"><title>Node15&#45;&gt;Node10</title>
<path fill="none" stroke="midnightblue" d="M202.153,-33.8259C217.718,-38.9247 235.314,-44.6891 249.738,-49.4141"/>
<polygon fill="midnightblue" stroke="midnightblue" points="202.864,-30.3761 192.272,-30.589 200.685,-37.0282 202.864,-30.3761"/>
</g>
<!-- Node16 -->
<g id="node30" class="node"><title>Node16</title>
<a xlink:href="struct_om_1_1_taker.html" target="_top" xlink:title="An object that can take (copy or swap) another of the same type.">
<polygon fill="none" stroke="black" points="1081.5,-0.5 1081.5,-19.5 1238.5,-19.5 1238.5,-0.5 1081.5,-0.5"/>
<text text-anchor="middle" x="1160" y="-7.5" font-family="Helvetica,sans-Serif" font-size="10.00">Om::Taker&lt; ThisImplementation &gt;</text>
</a>
</g>
<!-- Node16&#45;&gt;Node3 -->
<g id="edge30" class="edge"><title>Node16&#45;&gt;Node3</title>
<path fill="none" stroke="midnightblue" d="M1243.56,-20.8864C1259.43,-22.98 1275.65,-25.1192 1290.27,-27.0461"/>
<polygon fill="midnightblue" stroke="midnightblue" points="1243.56,-17.3574 1233.19,-19.5199 1242.65,-24.2973 1243.56,-17.3574"/>
</g>
</g>
</svg>
