<?xml version="1.0" encoding="UTF-8" standalone="no"?>
<!DOCTYPE svg PUBLIC "-//W3C//DTD SVG 1.1//EN"
 "http://www.w3.org/Graphics/SVG/1.1/DTD/svg11.dtd">
<!-- Generated by graphviz version 2.28.0 (20120817.0054)
 -->
<!-- Title: Om::Sources::IteratorPairSource&lt; ThisItem, ThisIterator &gt; Pages: 1 -->
<svg width="530pt" height="101pt"
 viewBox="0.00 0.00 530.00 101.00" xmlns="http://www.w3.org/2000/svg" xmlns:xlink="http://www.w3.org/1999/xlink">
<g id="graph1" class="graph" transform="scale(1 1) rotate(0) translate(4 97)">
<title>Om::Sources::IteratorPairSource&lt; ThisItem, ThisIterator &gt;</title>
<!-- Node1 -->
<g id="node1" class="node"><title>Node1</title>
<polygon fill="#bfbfbf" stroke="black" points="374.5,-16 374.5,-46 521.5,-46 521.5,-16 374.5,-16"/>
<text text-anchor="start" x="382.5" y="-34" font-family="Helvetica,sans-Serif" font-size="10.00">Om::Sources::IteratorPair</text>
<text text-anchor="middle" x="448" y="-23" font-family="Helvetica,sans-Serif" font-size="10.00">Source&lt; ThisItem, ThisIterator &gt;</text>
</g>
<!-- Node2 -->
<g id="node2" class="node"><title>Node2</title>
<a xlink:href="struct_om_1_1_sources_1_1_default_source.html" target="_top" xlink:title="Om::Sources::DefaultSource\l\&lt; ThisItem, IteratorPairSource\l\&lt; ThisItem, ThisIterator \&gt; \&gt;">
<polygon fill="none" stroke="black" points="156,-38.5 156,-79.5 294,-79.5 294,-38.5 156,-38.5"/>
<text text-anchor="start" x="164" y="-67.5" font-family="Helvetica,sans-Serif" font-size="10.00">Om::Sources::DefaultSource</text>
<text text-anchor="start" x="164" y="-56.5" font-family="Helvetica,sans-Serif" font-size="10.00">&lt; ThisItem, IteratorPairSource</text>
<text text-anchor="middle" x="225" y="-45.5" font-family="Helvetica,sans-Serif" font-size="10.00">&lt; ThisItem, ThisIterator &gt; &gt;</text>
</a>
</g>
<!-- Node2&#45;&gt;Node1 -->
<g id="edge2" class="edge"><title>Node2&#45;&gt;Node1</title>
<path fill="none" stroke="midnightblue" d="M304.081,-49.1074C326.869,-46.2202 351.676,-43.0772 374.129,-40.2325"/>
<polygon fill="midnightblue" stroke="midnightblue" points="303.591,-45.6414 294.111,-50.3706 304.471,-52.5858 303.591,-45.6414"/>
</g>
<!-- Node3 -->
<g id="node4" class="node"><title>Node3</title>
<a xlink:href="struct_om_1_1_source.html" target="_top" xlink:title="Any object that items can be pulled from.">
<polygon fill="none" stroke="black" points="0.5,-73.5 0.5,-92.5 117.5,-92.5 117.5,-73.5 0.5,-73.5"/>
<text text-anchor="middle" x="59" y="-80.5" font-family="Helvetica,sans-Serif" font-size="10.00">Om::Source&lt; ThisItem &gt;</text>
</a>
</g>
<!-- Node3&#45;&gt;Node2 -->
<g id="edge4" class="edge"><title>Node3&#45;&gt;Node2</title>
<path fill="none" stroke="midnightblue" d="M127.739,-73.087C136.991,-71.733 146.493,-70.3425 155.754,-68.9871"/>
<polygon fill="midnightblue" stroke="midnightblue" points="127.208,-69.6273 117.82,-74.5385 128.222,-76.5535 127.208,-69.6273"/>
</g>
<!-- Node4 -->
<g id="node6" class="node"><title>Node4</title>
<a xlink:href="classstd_1_1iterator.html" target="_top" xlink:title="std::iterator\&lt; std\l::input_iterator_tag,\l ThisItem \&gt;">
<polygon fill="none" stroke="black" points="11.5,-13.5 11.5,-54.5 106.5,-54.5 106.5,-13.5 11.5,-13.5"/>
<text text-anchor="start" x="19.5" y="-42.5" font-family="Helvetica,sans-Serif" font-size="10.00">std::iterator&lt; std</text>
<text text-anchor="start" x="19.5" y="-31.5" font-family="Helvetica,sans-Serif" font-size="10.00">::input_iterator_tag,</text>
<text text-anchor="middle" x="59" y="-20.5" font-family="Helvetica,sans-Serif" font-size="10.00"> ThisItem &gt;</text>
</a>
</g>
<!-- Node4&#45;&gt;Node2 -->
<g id="edge6" class="edge"><title>Node4&#45;&gt;Node2</title>
<path fill="none" stroke="midnightblue" d="M116.512,-42.6147C129.2,-44.5488 142.792,-46.6207 155.896,-48.6183"/>
<polygon fill="midnightblue" stroke="midnightblue" points="116.97,-39.1442 106.557,-41.0971 115.915,-46.0642 116.97,-39.1442"/>
</g>
<!-- Node5 -->
<g id="node8" class="node"><title>Node5</title>
<polygon fill="none" stroke="#bfbfbf" points="194,-0.5 194,-19.5 256,-19.5 256,-0.5 194,-0.5"/>
<text text-anchor="middle" x="225" y="-7.5" font-family="Helvetica,sans-Serif" font-size="10.00">ThisIterator</text>
</g>
<!-- Node5&#45;&gt;Node1 -->
<g id="edge8" class="edge"><title>Node5&#45;&gt;Node1</title>
<path fill="none" stroke="#9a32cd" stroke-dasharray="5,2" d="M266.142,-11.1368C291.876,-12.1184 325.966,-13.8887 356,-17 361.883,-17.6094 367.966,-18.3351 374.069,-19.1307"/>
<polygon fill="#9a32cd" stroke="#9a32cd" points="266.132,-7.63428 256.014,-10.7745 265.882,-14.6298 266.132,-7.63428"/>
<text text-anchor="middle" x="334" y="-31" font-family="Helvetica,sans-Serif" font-size="10.00"> thisEnd</text>
<text text-anchor="middle" x="334" y="-20" font-family="Helvetica,sans-Serif" font-size="10.00">thisIterator</text>
</g>
</g>
</svg>
