<?xml version="1.0" encoding="UTF-8" standalone="no"?>
<!DOCTYPE svg PUBLIC "-//W3C//DTD SVG 1.1//EN"
 "http://www.w3.org/Graphics/SVG/1.1/DTD/svg11.dtd">
<!-- Generated by graphviz version 2.28.0 (20120817.0054)
 -->
<!-- Title: Om::Operations::ScopeOperation Pages: 1 -->
<svg width="166pt" height="220pt"
 viewBox="0.00 0.00 166.00 220.00" xmlns="http://www.w3.org/2000/svg" xmlns:xlink="http://www.w3.org/1999/xlink">
<g id="graph1" class="graph" transform="scale(1 1) rotate(0) translate(4 216)">
<title>Om::Operations::ScopeOperation</title>
<!-- Node1 -->
<g id="node1" class="node"><title>Node1</title>
<polygon fill="#bfbfbf" stroke="black" points="0,-0.5 0,-19.5 158,-19.5 158,-0.5 0,-0.5"/>
<text text-anchor="middle" x="79" y="-7.5" font-family="Helvetica,sans-Serif" font-size="10.00">Om::Operations::ScopeOperation</text>
</g>
<!-- Node2 -->
<g id="node2" class="node"><title>Node2</title>
<a xlink:href="struct_om_1_1_operations_1_1_translate_operation.html" target="_top" xlink:title="Om::Operations::Translate\lOperation\&lt; ScopeOperation \&gt;">
<polygon fill="none" stroke="black" points="6.5,-57 6.5,-87 151.5,-87 151.5,-57 6.5,-57"/>
<text text-anchor="start" x="14.5" y="-75" font-family="Helvetica,sans-Serif" font-size="10.00">Om::Operations::Translate</text>
<text text-anchor="middle" x="79" y="-64" font-family="Helvetica,sans-Serif" font-size="10.00">Operation&lt; ScopeOperation &gt;</text>
</a>
</g>
<!-- Node2&#45;&gt;Node1 -->
<g id="edge2" class="edge"><title>Node2&#45;&gt;Node1</title>
<path fill="none" stroke="midnightblue" d="M79,-46.5858C79,-37.0743 79,-26.7864 79,-19.7305"/>
<polygon fill="midnightblue" stroke="midnightblue" points="75.5001,-46.7808 79,-56.7808 82.5001,-46.7809 75.5001,-46.7808"/>
</g>
<!-- Node3 -->
<g id="node4" class="node"><title>Node3</title>
<a xlink:href="struct_om_1_1_default_operation.html" target="_top" xlink:title="Om::DefaultOperation\l\&lt; ScopeOperation \&gt;">
<polygon fill="none" stroke="black" points="24.5,-125 24.5,-155 133.5,-155 133.5,-125 24.5,-125"/>
<text text-anchor="start" x="32.5" y="-143" font-family="Helvetica,sans-Serif" font-size="10.00">Om::DefaultOperation</text>
<text text-anchor="middle" x="79" y="-132" font-family="Helvetica,sans-Serif" font-size="10.00">&lt; ScopeOperation &gt;</text>
</a>
</g>
<!-- Node3&#45;&gt;Node2 -->
<g id="edge4" class="edge"><title>Node3&#45;&gt;Node2</title>
<path fill="none" stroke="midnightblue" d="M79,-114.532C79,-105.361 79,-95.2449 79,-87.2931"/>
<polygon fill="midnightblue" stroke="midnightblue" points="75.5001,-114.679 79,-124.679 82.5001,-114.679 75.5001,-114.679"/>
</g>
<!-- Node4 -->
<g id="node6" class="node"><title>Node4</title>
<a xlink:href="struct_om_1_1_operation.html" target="_top" xlink:title="An Operation that has yet to consume one or more Operands, and therefore must live in memory while &quot;i...">
<polygon fill="none" stroke="black" points="39.5,-192.5 39.5,-211.5 118.5,-211.5 118.5,-192.5 39.5,-192.5"/>
<text text-anchor="middle" x="79" y="-199.5" font-family="Helvetica,sans-Serif" font-size="10.00">Om::Operation</text>
</a>
</g>
<!-- Node4&#45;&gt;Node3 -->
<g id="edge6" class="edge"><title>Node4&#45;&gt;Node3</title>
<path fill="none" stroke="midnightblue" d="M79,-182.371C79,-173.585 79,-163.272 79,-155.141"/>
<polygon fill="midnightblue" stroke="midnightblue" points="75.5001,-182.403 79,-192.403 82.5001,-182.403 75.5001,-182.403"/>
</g>
</g>
</svg>
