<?xml version="1.0" encoding="UTF-8" standalone="no"?>
<!DOCTYPE svg PUBLIC "-//W3C//DTD SVG 1.1//EN"
 "http://www.w3.org/Graphics/SVG/1.1/DTD/svg11.dtd">
<!-- Generated by graphviz version 2.28.0 (20120817.0054)
 -->
<!-- Title: Om::Operator Pages: 1 -->
<svg width="454pt" height="826pt"
 viewBox="0.00 0.00 454.00 826.00" xmlns="http://www.w3.org/2000/svg" xmlns:xlink="http://www.w3.org/1999/xlink">
<g id="graph1" class="graph" transform="scale(1 1) rotate(0) translate(4 822)">
<title>Om::Operator</title>
<!-- Node1 -->
<g id="node1" class="node"><title>Node1</title>
<polygon fill="#bfbfbf" stroke="black" points="319,-0.5 319,-19.5 393,-19.5 393,-0.5 319,-0.5"/>
<text text-anchor="middle" x="356" y="-7.5" font-family="Helvetica,sans-Serif" font-size="10.00">Om::Operator</text>
</g>
<!-- Node2 -->
<g id="node2" class="node"><title>Node2</title>
<a xlink:href="struct_om_1_1_default_atom.html" target="_top" xlink:title="Om::DefaultAtom\&lt; Operator \&gt;">
<polygon fill="none" stroke="black" points="284.5,-58.5 284.5,-77.5 427.5,-77.5 427.5,-58.5 284.5,-58.5"/>
<text text-anchor="middle" x="356" y="-65.5" font-family="Helvetica,sans-Serif" font-size="10.00">Om::DefaultAtom&lt; Operator &gt;</text>
</a>
</g>
<!-- Node2&#45;&gt;Node1 -->
<g id="edge2" class="edge"><title>Node2&#45;&gt;Node1</title>
<path fill="none" stroke="midnightblue" d="M356,-47.953C356,-38.2875 356,-27.0312 356,-19.5052"/>
<polygon fill="midnightblue" stroke="midnightblue" points="352.5,-48.25 356,-58.25 359.5,-48.25 352.5,-48.25"/>
</g>
<!-- Node3 -->
<g id="node4" class="node"><title>Node3</title>
<a xlink:href="struct_om_1_1_default_element.html" target="_top" xlink:title="Om::DefaultElement\l\&lt; Operator, Atom \&gt;">
<polygon fill="none" stroke="black" points="244.5,-127 244.5,-157 345.5,-157 345.5,-127 244.5,-127"/>
<text text-anchor="start" x="252.5" y="-145" font-family="Helvetica,sans-Serif" font-size="10.00">Om::DefaultElement</text>
<text text-anchor="middle" x="295" y="-134" font-family="Helvetica,sans-Serif" font-size="10.00">&lt; Operator, Atom &gt;</text>
</a>
</g>
<!-- Node3&#45;&gt;Node2 -->
<g id="edge4" class="edge"><title>Node3&#45;&gt;Node2</title>
<path fill="none" stroke="midnightblue" d="M313.592,-119.055C325.364,-105.16 339.943,-87.952 348.579,-77.7589"/>
<polygon fill="midnightblue" stroke="midnightblue" points="310.845,-116.883 307.052,-126.775 316.186,-121.408 310.845,-116.883"/>
</g>
<!-- Node4 -->
<g id="node6" class="node"><title>Node4</title>
<a xlink:href="struct_om_1_1_default_program.html" target="_top" xlink:title="Om::DefaultProgram\l\&lt; Operator, Atom \&gt;">
<polygon fill="none" stroke="black" points="237,-197 237,-227 339,-227 339,-197 237,-197"/>
<text text-anchor="start" x="245" y="-215" font-family="Helvetica,sans-Serif" font-size="10.00">Om::DefaultProgram</text>
<text text-anchor="middle" x="288" y="-204" font-family="Helvetica,sans-Serif" font-size="10.00">&lt; Operator, Atom &gt;</text>
</a>
</g>
<!-- Node4&#45;&gt;Node3 -->
<g id="edge6" class="edge"><title>Node4&#45;&gt;Node3</title>
<path fill="none" stroke="midnightblue" d="M290.494,-186.769C291.519,-176.814 292.67,-165.638 293.551,-157.072"/>
<polygon fill="midnightblue" stroke="midnightblue" points="286.993,-186.604 289.45,-196.91 293.956,-187.321 286.993,-186.604"/>
</g>
<!-- Node5 -->
<g id="node8" class="node"><title>Node5</title>
<a xlink:href="struct_om_1_1_default_queue.html" target="_top" xlink:title="Om::DefaultQueue\&lt; Operator,\l DefaultGiveable\&lt; Operator,\l Atom \&gt; \&gt;">
<polygon fill="none" stroke="black" points="106,-266.5 106,-307.5 250,-307.5 250,-266.5 106,-266.5"/>
<text text-anchor="start" x="114" y="-295.5" font-family="Helvetica,sans-Serif" font-size="10.00">Om::DefaultQueue&lt; Operator,</text>
<text text-anchor="start" x="114" y="-284.5" font-family="Helvetica,sans-Serif" font-size="10.00"> DefaultGiveable&lt; Operator,</text>
<text text-anchor="middle" x="178" y="-273.5" font-family="Helvetica,sans-Serif" font-size="10.00"> Atom &gt; &gt;</text>
</a>
</g>
<!-- Node5&#45;&gt;Node4 -->
<g id="edge8" class="edge"><title>Node5&#45;&gt;Node4</title>
<path fill="none" stroke="midnightblue" d="M216.105,-260.712C233.093,-249.438 252.462,-236.584 266.813,-227.06"/>
<polygon fill="midnightblue" stroke="midnightblue" points="213.875,-257.992 207.478,-266.437 217.745,-263.824 213.875,-257.992"/>
</g>
<!-- Node6 -->
<g id="node10" class="node"><title>Node6</title>
<a xlink:href="struct_om_1_1_default_giveable.html" target="_top" xlink:title="Om::DefaultGiveable\l\&lt; Operator, Atom \&gt;">
<polygon fill="none" stroke="black" points="125,-347 125,-377 231,-377 231,-347 125,-347"/>
<text text-anchor="start" x="133" y="-365" font-family="Helvetica,sans-Serif" font-size="10.00">Om::DefaultGiveable</text>
<text text-anchor="middle" x="178" y="-354" font-family="Helvetica,sans-Serif" font-size="10.00">&lt; Operator, Atom &gt;</text>
</a>
</g>
<!-- Node6&#45;&gt;Node5 -->
<g id="edge10" class="edge"><title>Node6&#45;&gt;Node5</title>
<path fill="none" stroke="midnightblue" d="M178,-336.882C178,-327.363 178,-316.569 178,-307.551"/>
<polygon fill="midnightblue" stroke="midnightblue" points="174.5,-336.925 178,-346.925 181.5,-336.925 174.5,-336.925"/>
</g>
<!-- Node7 -->
<g id="node12" class="node"><title>Node7</title>
<a xlink:href="struct_om_1_1_default_moveable.html" target="_top" xlink:title="Om::DefaultMoveable\l\&lt; Operator, DefaultCopyable\l\&lt; Operator, Atom \&gt; \&gt;">
<polygon fill="none" stroke="black" points="108,-416.5 108,-457.5 248,-457.5 248,-416.5 108,-416.5"/>
<text text-anchor="start" x="116" y="-445.5" font-family="Helvetica,sans-Serif" font-size="10.00">Om::DefaultMoveable</text>
<text text-anchor="start" x="116" y="-434.5" font-family="Helvetica,sans-Serif" font-size="10.00">&lt; Operator, DefaultCopyable</text>
<text text-anchor="middle" x="178" y="-423.5" font-family="Helvetica,sans-Serif" font-size="10.00">&lt; Operator, Atom &gt; &gt;</text>
</a>
</g>
<!-- Node7&#45;&gt;Node6 -->
<g id="edge12" class="edge"><title>Node7&#45;&gt;Node6</title>
<path fill="none" stroke="midnightblue" d="M178,-406.372C178,-396.335 178,-385.579 178,-377.289"/>
<polygon fill="midnightblue" stroke="midnightblue" points="174.5,-406.437 178,-416.437 181.5,-406.437 174.5,-406.437"/>
</g>
<!-- Node8 -->
<g id="node14" class="node"><title>Node8</title>
<a xlink:href="struct_om_1_1_default_copyable.html" target="_top" xlink:title="Om::DefaultCopyable\l\&lt; Operator, Atom \&gt;">
<polygon fill="none" stroke="black" points="123,-497 123,-527 233,-527 233,-497 123,-497"/>
<text text-anchor="start" x="131" y="-515" font-family="Helvetica,sans-Serif" font-size="10.00">Om::DefaultCopyable</text>
<text text-anchor="middle" x="178" y="-504" font-family="Helvetica,sans-Serif" font-size="10.00">&lt; Operator, Atom &gt;</text>
</a>
</g>
<!-- Node8&#45;&gt;Node7 -->
<g id="edge14" class="edge"><title>Node8&#45;&gt;Node7</title>
<path fill="none" stroke="midnightblue" d="M178,-486.882C178,-477.363 178,-466.569 178,-457.551"/>
<polygon fill="midnightblue" stroke="midnightblue" points="174.5,-486.925 178,-496.925 181.5,-486.925 174.5,-486.925"/>
</g>
<!-- Node9 -->
<g id="node16" class="node"><title>Node9</title>
<a xlink:href="struct_om_1_1_atom.html" target="_top" xlink:title="A leaf Element defined by a string.">
<polygon fill="none" stroke="black" points="148.5,-566.5 148.5,-585.5 207.5,-585.5 207.5,-566.5 148.5,-566.5"/>
<text text-anchor="middle" x="178" y="-573.5" font-family="Helvetica,sans-Serif" font-size="10.00">Om::Atom</text>
</a>
</g>
<!-- Node9&#45;&gt;Node8 -->
<g id="edge16" class="edge"><title>Node9&#45;&gt;Node8</title>
<path fill="none" stroke="midnightblue" d="M178,-556.183C178,-546.886 178,-535.851 178,-527.263"/>
<polygon fill="midnightblue" stroke="midnightblue" points="174.5,-556.379 178,-566.379 181.5,-556.379 174.5,-556.379"/>
</g>
<!-- Node10 -->
<g id="node18" class="node"><title>Node10</title>
<a xlink:href="struct_om_1_1_element.html" target="_top" xlink:title="An &quot;elemental&quot; Program comprised of a single item (or empty).">
<polygon fill="none" stroke="black" points="142.5,-624.5 142.5,-643.5 213.5,-643.5 213.5,-624.5 142.5,-624.5"/>
<text text-anchor="middle" x="178" y="-631.5" font-family="Helvetica,sans-Serif" font-size="10.00">Om::Element</text>
</a>
</g>
<!-- Node10&#45;&gt;Node9 -->
<g id="edge18" class="edge"><title>Node10&#45;&gt;Node9</title>
<path fill="none" stroke="midnightblue" d="M178,-613.953C178,-604.287 178,-593.031 178,-585.505"/>
<polygon fill="midnightblue" stroke="midnightblue" points="174.5,-614.25 178,-624.25 181.5,-614.25 174.5,-614.25"/>
</g>
<!-- Node11 -->
<g id="node20" class="node"><title>Node11</title>
<a xlink:href="struct_om_1_1_program.html" target="_top" xlink:title="The Program implementation.">
<polygon fill="none" stroke="black" points="142,-682.5 142,-701.5 214,-701.5 214,-682.5 142,-682.5"/>
<text text-anchor="middle" x="178" y="-689.5" font-family="Helvetica,sans-Serif" font-size="10.00">Om::Program</text>
</a>
</g>
<!-- Node11&#45;&gt;Node10 -->
<g id="edge20" class="edge"><title>Node11&#45;&gt;Node10</title>
<path fill="none" stroke="midnightblue" d="M178,-671.953C178,-662.287 178,-651.031 178,-643.505"/>
<polygon fill="midnightblue" stroke="midnightblue" points="174.5,-672.25 178,-682.25 181.5,-672.25 174.5,-672.25"/>
</g>
<!-- Node12 -->
<g id="node22" class="node"><title>Node12</title>
<a xlink:href="struct_om_1_1_giveable.html" target="_top" xlink:title="An object that can be copied or moved via Give.">
<polygon fill="none" stroke="black" points="51,-740.5 51,-759.5 127,-759.5 127,-740.5 51,-740.5"/>
<text text-anchor="middle" x="89" y="-747.5" font-family="Helvetica,sans-Serif" font-size="10.00">Om::Giveable</text>
</a>
</g>
<!-- Node12&#45;&gt;Node11 -->
<g id="edge22" class="edge"><title>Node12&#45;&gt;Node11</title>
<path fill="none" stroke="midnightblue" d="M111.119,-735.082C127.815,-724.577 150.192,-710.497 164.356,-701.585"/>
<polygon fill="midnightblue" stroke="midnightblue" points="109.117,-732.207 102.517,-740.495 112.845,-738.132 109.117,-732.207"/>
</g>
<!-- Node13 -->
<g id="node24" class="node"><title>Node13</title>
<a xlink:href="struct_om_1_1_copyable.html" target="_top" xlink:title="An object that can be passed to Copy to be copied.">
<polygon fill="none" stroke="black" points="0,-798.5 0,-817.5 80,-817.5 80,-798.5 0,-798.5"/>
<text text-anchor="middle" x="40" y="-805.5" font-family="Helvetica,sans-Serif" font-size="10.00">Om::Copyable</text>
</a>
</g>
<!-- Node13&#45;&gt;Node12 -->
<g id="edge24" class="edge"><title>Node13&#45;&gt;Node12</title>
<path fill="none" stroke="midnightblue" d="M54.4945,-790.435C63.3858,-780.273 74.4001,-767.686 81.558,-759.505"/>
<polygon fill="midnightblue" stroke="midnightblue" points="51.6073,-788.419 47.6562,-798.25 56.8754,-793.029 51.6073,-788.419"/>
</g>
<!-- Node14 -->
<g id="node26" class="node"><title>Node14</title>
<a xlink:href="struct_om_1_1_moveable.html" target="_top" xlink:title="An object that can be passed to Move to be moved.">
<polygon fill="none" stroke="black" points="98,-798.5 98,-817.5 178,-817.5 178,-798.5 98,-798.5"/>
<text text-anchor="middle" x="138" y="-805.5" font-family="Helvetica,sans-Serif" font-size="10.00">Om::Moveable</text>
</a>
</g>
<!-- Node14&#45;&gt;Node12 -->
<g id="edge26" class="edge"><title>Node14&#45;&gt;Node12</title>
<path fill="none" stroke="midnightblue" d="M123.506,-790.435C114.614,-780.273 103.6,-767.686 96.442,-759.505"/>
<polygon fill="midnightblue" stroke="midnightblue" points="121.125,-793.029 130.344,-798.25 126.393,-788.419 121.125,-793.029"/>
</g>
<!-- Node15 -->
<g id="node28" class="node"><title>Node15</title>
<a xlink:href="struct_om_1_1_queue.html" target="_top" xlink:title="A first&#45;in, first&#45;out Element processor.">
<polygon fill="none" stroke="black" points="145,-740.5 145,-759.5 211,-759.5 211,-740.5 145,-740.5"/>
<text text-anchor="middle" x="178" y="-747.5" font-family="Helvetica,sans-Serif" font-size="10.00">Om::Queue</text>
</a>
</g>
<!-- Node15&#45;&gt;Node11 -->
<g id="edge28" class="edge"><title>Node15&#45;&gt;Node11</title>
<path fill="none" stroke="midnightblue" d="M178,-729.953C178,-720.287 178,-709.031 178,-701.505"/>
<polygon fill="midnightblue" stroke="midnightblue" points="174.5,-730.25 178,-740.25 181.5,-730.25 174.5,-730.25"/>
</g>
<!-- Node16 -->
<g id="node30" class="node"><title>Node16</title>
<a xlink:href="struct_om_1_1_shareable.html" target="_top" xlink:title="Om::Shareable\&lt;\&gt;">
<polygon fill="none" stroke="black" points="229,-740.5 229,-759.5 321,-759.5 321,-740.5 229,-740.5"/>
<text text-anchor="middle" x="275" y="-747.5" font-family="Helvetica,sans-Serif" font-size="10.00">Om::Shareable&lt;&gt;</text>
</a>
</g>
<!-- Node16&#45;&gt;Node11 -->
<g id="edge30" class="edge"><title>Node16&#45;&gt;Node11</title>
<path fill="none" stroke="midnightblue" d="M251.396,-735.373C233.149,-724.838 208.451,-710.58 192.871,-701.585"/>
<polygon fill="midnightblue" stroke="midnightblue" points="249.857,-738.526 260.268,-740.495 253.357,-732.464 249.857,-738.526"/>
</g>
<!-- Node17 -->
<g id="node32" class="node"><title>Node17</title>
<a xlink:href="struct_om_1_1_taker.html" target="_top" xlink:title="Om::Taker\&lt; Operator \&gt;">
<polygon fill="none" stroke="black" points="268,-277.5 268,-296.5 382,-296.5 382,-277.5 268,-277.5"/>
<text text-anchor="middle" x="325" y="-284.5" font-family="Helvetica,sans-Serif" font-size="10.00">Om::Taker&lt; Operator &gt;</text>
</a>
</g>
<!-- Node17&#45;&gt;Node4 -->
<g id="edge32" class="edge"><title>Node17&#45;&gt;Node4</title>
<path fill="none" stroke="midnightblue" d="M316.013,-268.269C309.612,-255.64 301.124,-238.893 295.175,-227.156"/>
<polygon fill="midnightblue" stroke="midnightblue" points="312.967,-270.002 320.61,-277.339 319.211,-266.837 312.967,-270.002"/>
</g>
<!-- Node18 -->
<g id="node34" class="node"><title>Node18</title>
<a xlink:title="STL class.">
<polygon fill="none" stroke="#bfbfbf" points="372,-132.5 372,-151.5 428,-151.5 428,-132.5 372,-132.5"/>
<text text-anchor="middle" x="400" y="-139.5" font-family="Helvetica,sans-Serif" font-size="10.00">std::string</text>
</a>
</g>
<!-- Node18&#45;&gt;Node2 -->
<g id="edge34" class="edge"><title>Node18&#45;&gt;Node2</title>
<path fill="none" stroke="#9a32cd" stroke-dasharray="5,2" d="M389.519,-123.849C380.597,-109.25 368.156,-88.8922 361.213,-77.531"/>
<polygon fill="#9a32cd" stroke="#9a32cd" points="386.579,-125.75 394.78,-132.458 392.552,-122.1 386.579,-125.75"/>
<text text-anchor="middle" x="400.5" y="-99.5" font-family="Helvetica,sans-Serif" font-size="10.00"> thisString</text>
</g>
<!-- Node19 -->
<g id="node36" class="node"><title>Node19</title>
<a xlink:title="STL class.">
<polygon fill="none" stroke="#bfbfbf" points="357.5,-197 357.5,-227 446.5,-227 446.5,-197 357.5,-197"/>
<text text-anchor="start" x="365.5" y="-215" font-family="Helvetica,sans-Serif" font-size="10.00">std::basic_string&lt;</text>
<text text-anchor="middle" x="402" y="-204" font-family="Helvetica,sans-Serif" font-size="10.00"> char &gt;</text>
</a>
</g>
<!-- Node19&#45;&gt;Node18 -->
<g id="edge36" class="edge"><title>Node19&#45;&gt;Node18</title>
<path fill="none" stroke="midnightblue" d="M401.291,-186.883C400.933,-174.733 400.522,-160.739 400.261,-151.883"/>
<polygon fill="midnightblue" stroke="midnightblue" points="397.793,-187.018 401.586,-196.91 404.79,-186.812 397.793,-187.018"/>
</g>
</g>
</svg>
