<?xml version="1.0" encoding="UTF-8" standalone="no"?>
<!DOCTYPE svg PUBLIC "-//W3C//DTD SVG 1.1//EN"
 "http://www.w3.org/Graphics/SVG/1.1/DTD/svg11.dtd">
<!-- Generated by graphviz version 2.28.0 (20120817.0054)
 -->
<!-- Title: Om::Form Pages: 1 -->
<svg width="585pt" height="954pt"
 viewBox="0.00 0.00 585.00 954.00" xmlns="http://www.w3.org/2000/svg" xmlns:xlink="http://www.w3.org/1999/xlink">
<g id="graph1" class="graph" transform="scale(1 1) rotate(0) translate(4 950)">
<title>Om::Form</title>
<!-- Node1 -->
<g id="node1" class="node"><title>Node1</title>
<polygon fill="#bfbfbf" stroke="black" points="201.5,-0.5 201.5,-19.5 258.5,-19.5 258.5,-0.5 201.5,-0.5"/>
<text text-anchor="middle" x="230" y="-7.5" font-family="Helvetica,sans-Serif" font-size="10.00">Om::Form</text>
</g>
<!-- Node2 -->
<g id="node2" class="node"><title>Node2</title>
<a xlink:href="struct_om_1_1_operator.html" target="_top" xlink:title="The Operator implementation.">
<polygon fill="none" stroke="black" points="290,-68.5 290,-87.5 364,-87.5 364,-68.5 290,-68.5"/>
<text text-anchor="middle" x="327" y="-75.5" font-family="Helvetica,sans-Serif" font-size="10.00">Om::Operator</text>
</a>
</g>
<!-- Node2&#45;&gt;Node1 -->
<g id="edge2" class="edge"><title>Node2&#45;&gt;Node1</title>
<path fill="none" stroke="#9a32cd" stroke-dasharray="5,2" d="M305.886,-62.6336C286.605,-49.5145 258.734,-30.551 242.684,-19.6305"/>
<polygon fill="#9a32cd" stroke="#9a32cd" points="304.082,-65.6399 314.319,-68.3717 308.02,-59.8525 304.082,-65.6399"/>
<text text-anchor="middle" x="315.5" y="-41.5" font-family="Helvetica,sans-Serif" font-size="10.00"> thisOperator</text>
</g>
<!-- Node3 -->
<g id="node4" class="node"><title>Node3</title>
<a xlink:href="struct_om_1_1_default_atom.html" target="_top" xlink:title="Om::DefaultAtom\&lt; Operator \&gt;">
<polygon fill="none" stroke="black" points="255.5,-144.5 255.5,-163.5 398.5,-163.5 398.5,-144.5 255.5,-144.5"/>
<text text-anchor="middle" x="327" y="-151.5" font-family="Helvetica,sans-Serif" font-size="10.00">Om::DefaultAtom&lt; Operator &gt;</text>
</a>
</g>
<!-- Node3&#45;&gt;Node2 -->
<g id="edge4" class="edge"><title>Node3&#45;&gt;Node2</title>
<path fill="none" stroke="midnightblue" d="M327,-134.072C327,-119.18 327,-99.1111 327,-87.7679"/>
<polygon fill="midnightblue" stroke="midnightblue" points="323.5,-134.221 327,-144.221 330.5,-134.221 323.5,-134.221"/>
</g>
<!-- Node4 -->
<g id="node6" class="node"><title>Node4</title>
<a xlink:href="struct_om_1_1_default_element.html" target="_top" xlink:title="Om::DefaultElement\l\&lt; Operator, Atom \&gt;">
<polygon fill="none" stroke="black" points="373.5,-213 373.5,-243 474.5,-243 474.5,-213 373.5,-213"/>
<text text-anchor="start" x="381.5" y="-231" font-family="Helvetica,sans-Serif" font-size="10.00">Om::DefaultElement</text>
<text text-anchor="middle" x="424" y="-220" font-family="Helvetica,sans-Serif" font-size="10.00">&lt; Operator, Atom &gt;</text>
</a>
</g>
<!-- Node4&#45;&gt;Node3 -->
<g id="edge6" class="edge"><title>Node4&#45;&gt;Node3</title>
<path fill="none" stroke="midnightblue" d="M401.194,-206.306C392.061,-198.376 381.281,-189.451 371,-182 361.856,-175.373 351.055,-168.729 342.442,-163.689"/>
<polygon fill="midnightblue" stroke="midnightblue" points="398.926,-208.973 408.743,-212.957 403.553,-203.72 398.926,-208.973"/>
</g>
<!-- Node5 -->
<g id="node8" class="node"><title>Node5</title>
<a xlink:href="struct_om_1_1_default_program.html" target="_top" xlink:title="Om::DefaultProgram\l\&lt; Operator, Atom \&gt;">
<polygon fill="none" stroke="black" points="384,-293 384,-323 486,-323 486,-293 384,-293"/>
<text text-anchor="start" x="392" y="-311" font-family="Helvetica,sans-Serif" font-size="10.00">Om::DefaultProgram</text>
<text text-anchor="middle" x="435" y="-300" font-family="Helvetica,sans-Serif" font-size="10.00">&lt; Operator, Atom &gt;</text>
</a>
</g>
<!-- Node5&#45;&gt;Node4 -->
<g id="edge8" class="edge"><title>Node5&#45;&gt;Node4</title>
<path fill="none" stroke="midnightblue" d="M431.554,-282.564C429.729,-269.624 427.552,-254.186 426.005,-243.216"/>
<polygon fill="midnightblue" stroke="midnightblue" points="428.12,-283.28 432.982,-292.694 435.052,-282.303 428.12,-283.28"/>
</g>
<!-- Node6 -->
<g id="node10" class="node"><title>Node6</title>
<a xlink:href="struct_om_1_1_default_queue.html" target="_top" xlink:title="Om::DefaultQueue\&lt; Operator,\l DefaultGiveable\&lt; Operator,\l Atom \&gt; \&gt;">
<polygon fill="none" stroke="black" points="301,-362.5 301,-403.5 445,-403.5 445,-362.5 301,-362.5"/>
<text text-anchor="start" x="309" y="-391.5" font-family="Helvetica,sans-Serif" font-size="10.00">Om::DefaultQueue&lt; Operator,</text>
<text text-anchor="start" x="309" y="-380.5" font-family="Helvetica,sans-Serif" font-size="10.00"> DefaultGiveable&lt; Operator,</text>
<text text-anchor="middle" x="373" y="-369.5" font-family="Helvetica,sans-Serif" font-size="10.00"> Atom &gt; &gt;</text>
</a>
</g>
<!-- Node6&#45;&gt;Node5 -->
<g id="edge10" class="edge"><title>Node6&#45;&gt;Node5</title>
<path fill="none" stroke="midnightblue" d="M396.29,-354.577C405.33,-343.933 415.305,-332.19 422.864,-323.289"/>
<polygon fill="midnightblue" stroke="midnightblue" points="393.421,-352.55 389.615,-362.437 398.756,-357.081 393.421,-352.55"/>
</g>
<!-- Node7 -->
<g id="node12" class="node"><title>Node7</title>
<a xlink:href="struct_om_1_1_default_giveable.html" target="_top" xlink:title="Om::DefaultGiveable\l\&lt; Operator, Atom \&gt;">
<polygon fill="none" stroke="black" points="320,-448 320,-478 426,-478 426,-448 320,-448"/>
<text text-anchor="start" x="328" y="-466" font-family="Helvetica,sans-Serif" font-size="10.00">Om::DefaultGiveable</text>
<text text-anchor="middle" x="373" y="-455" font-family="Helvetica,sans-Serif" font-size="10.00">&lt; Operator, Atom &gt;</text>
</a>
</g>
<!-- Node7&#45;&gt;Node6 -->
<g id="edge12" class="edge"><title>Node7&#45;&gt;Node6</title>
<path fill="none" stroke="midnightblue" d="M373,-437.487C373,-426.531 373,-413.797 373,-403.503"/>
<polygon fill="midnightblue" stroke="midnightblue" points="369.5,-437.694 373,-447.694 376.5,-437.694 369.5,-437.694"/>
</g>
<!-- Node8 -->
<g id="node14" class="node"><title>Node8</title>
<a xlink:href="struct_om_1_1_default_moveable.html" target="_top" xlink:title="Om::DefaultMoveable\l\&lt; Operator, DefaultCopyable\l\&lt; Operator, Atom \&gt; \&gt;">
<polygon fill="none" stroke="black" points="303,-522.5 303,-563.5 443,-563.5 443,-522.5 303,-522.5"/>
<text text-anchor="start" x="311" y="-551.5" font-family="Helvetica,sans-Serif" font-size="10.00">Om::DefaultMoveable</text>
<text text-anchor="start" x="311" y="-540.5" font-family="Helvetica,sans-Serif" font-size="10.00">&lt; Operator, DefaultCopyable</text>
<text text-anchor="middle" x="373" y="-529.5" font-family="Helvetica,sans-Serif" font-size="10.00">&lt; Operator, Atom &gt; &gt;</text>
</a>
</g>
<!-- Node8&#45;&gt;Node7 -->
<g id="edge14" class="edge"><title>Node8&#45;&gt;Node7</title>
<path fill="none" stroke="midnightblue" d="M373,-512.095C373,-500.476 373,-487.716 373,-478.261"/>
<polygon fill="midnightblue" stroke="midnightblue" points="369.5,-512.317 373,-522.317 376.5,-512.317 369.5,-512.317"/>
</g>
<!-- Node9 -->
<g id="node16" class="node"><title>Node9</title>
<a xlink:href="struct_om_1_1_default_copyable.html" target="_top" xlink:title="Om::DefaultCopyable\l\&lt; Operator, Atom \&gt;">
<polygon fill="none" stroke="black" points="318,-608 318,-638 428,-638 428,-608 318,-608"/>
<text text-anchor="start" x="326" y="-626" font-family="Helvetica,sans-Serif" font-size="10.00">Om::DefaultCopyable</text>
<text text-anchor="middle" x="373" y="-615" font-family="Helvetica,sans-Serif" font-size="10.00">&lt; Operator, Atom &gt;</text>
</a>
</g>
<!-- Node9&#45;&gt;Node8 -->
<g id="edge16" class="edge"><title>Node9&#45;&gt;Node8</title>
<path fill="none" stroke="midnightblue" d="M373,-597.487C373,-586.531 373,-573.797 373,-563.503"/>
<polygon fill="midnightblue" stroke="midnightblue" points="369.5,-597.694 373,-607.694 376.5,-597.694 369.5,-597.694"/>
</g>
<!-- Node10 -->
<g id="node18" class="node"><title>Node10</title>
<a xlink:href="struct_om_1_1_atom.html" target="_top" xlink:title="A leaf Element defined by a string.">
<polygon fill="none" stroke="black" points="330.5,-688.5 330.5,-707.5 389.5,-707.5 389.5,-688.5 330.5,-688.5"/>
<text text-anchor="middle" x="360" y="-695.5" font-family="Helvetica,sans-Serif" font-size="10.00">Om::Atom</text>
</a>
</g>
<!-- Node10&#45;&gt;Node9 -->
<g id="edge18" class="edge"><title>Node10&#45;&gt;Node9</title>
<path fill="none" stroke="midnightblue" d="M363.36,-678.133C365.583,-665.649 368.451,-649.545 370.479,-638.156"/>
<polygon fill="midnightblue" stroke="midnightblue" points="359.85,-677.881 361.542,-688.339 366.741,-679.108 359.85,-677.881"/>
</g>
<!-- Node11 -->
<g id="node20" class="node"><title>Node11</title>
<a xlink:href="struct_om_1_1_element.html" target="_top" xlink:title="An &quot;elemental&quot; Program comprised of a single item.">
<polygon fill="none" stroke="black" points="280.5,-752.5 280.5,-771.5 351.5,-771.5 351.5,-752.5 280.5,-752.5"/>
<text text-anchor="middle" x="316" y="-759.5" font-family="Helvetica,sans-Serif" font-size="10.00">Om::Element</text>
</a>
</g>
<!-- Node11&#45;&gt;Node10 -->
<g id="edge20" class="edge"><title>Node11&#45;&gt;Node10</title>
<path fill="none" stroke="midnightblue" d="M327.949,-744.162C336.356,-732.316 347.257,-716.956 353.934,-707.548"/>
<polygon fill="midnightblue" stroke="midnightblue" points="325.051,-742.198 322.118,-752.379 330.76,-746.25 325.051,-742.198"/>
</g>
<!-- Node28 -->
<g id="node54" class="node"><title>Node28</title>
<a xlink:href="struct_om_1_1_default_copyable.html" target="_top" xlink:title="Om::DefaultCopyable\l\&lt; Operand, Element \&gt;">
<polygon fill="none" stroke="black" points="199,-683 199,-713 309,-713 309,-683 199,-683"/>
<text text-anchor="start" x="207" y="-701" font-family="Helvetica,sans-Serif" font-size="10.00">Om::DefaultCopyable</text>
<text text-anchor="middle" x="254" y="-690" font-family="Helvetica,sans-Serif" font-size="10.00">&lt; Operand, Element &gt;</text>
</a>
</g>
<!-- Node11&#45;&gt;Node28 -->
<g id="edge56" class="edge"><title>Node11&#45;&gt;Node28</title>
<path fill="none" stroke="midnightblue" d="M300.179,-745.179C290.341,-735.341 277.794,-722.794 268.263,-713.263"/>
<polygon fill="midnightblue" stroke="midnightblue" points="297.833,-747.783 307.379,-752.379 302.783,-742.833 297.833,-747.783"/>
</g>
<!-- Node12 -->
<g id="node22" class="node"><title>Node12</title>
<a xlink:href="struct_om_1_1_program.html" target="_top" xlink:title="The Program implementation.">
<polygon fill="none" stroke="black" points="280,-810.5 280,-829.5 352,-829.5 352,-810.5 280,-810.5"/>
<text text-anchor="middle" x="316" y="-817.5" font-family="Helvetica,sans-Serif" font-size="10.00">Om::Program</text>
</a>
</g>
<!-- Node12&#45;&gt;Node11 -->
<g id="edge22" class="edge"><title>Node12&#45;&gt;Node11</title>
<path fill="none" stroke="midnightblue" d="M316,-799.953C316,-790.287 316,-779.031 316,-771.505"/>
<polygon fill="midnightblue" stroke="midnightblue" points="312.5,-800.25 316,-810.25 319.5,-800.25 312.5,-800.25"/>
</g>
<!-- Node13 -->
<g id="node24" class="node"><title>Node13</title>
<a xlink:href="struct_om_1_1_giveable.html" target="_top" xlink:title="An object that can be copied or moved via Give.">
<polygon fill="none" stroke="black" points="189,-868.5 189,-887.5 265,-887.5 265,-868.5 189,-868.5"/>
<text text-anchor="middle" x="227" y="-875.5" font-family="Helvetica,sans-Serif" font-size="10.00">Om::Giveable</text>
</a>
</g>
<!-- Node13&#45;&gt;Node12 -->
<g id="edge24" class="edge"><title>Node13&#45;&gt;Node12</title>
<path fill="none" stroke="midnightblue" d="M249.119,-863.082C265.815,-852.577 288.192,-838.497 302.356,-829.585"/>
<polygon fill="midnightblue" stroke="midnightblue" points="247.117,-860.207 240.517,-868.495 250.845,-866.132 247.117,-860.207"/>
</g>
<!-- Node14 -->
<g id="node26" class="node"><title>Node14</title>
<a xlink:href="struct_om_1_1_copyable.html" target="_top" xlink:title="An object that can be passed to Copy to be copied.">
<polygon fill="none" stroke="black" points="138,-926.5 138,-945.5 218,-945.5 218,-926.5 138,-926.5"/>
<text text-anchor="middle" x="178" y="-933.5" font-family="Helvetica,sans-Serif" font-size="10.00">Om::Copyable</text>
</a>
</g>
<!-- Node14&#45;&gt;Node13 -->
<g id="edge26" class="edge"><title>Node14&#45;&gt;Node13</title>
<path fill="none" stroke="midnightblue" d="M192.494,-918.435C201.386,-908.273 212.4,-895.686 219.558,-887.505"/>
<polygon fill="midnightblue" stroke="midnightblue" points="189.607,-916.419 185.656,-926.25 194.875,-921.029 189.607,-916.419"/>
</g>
<!-- Node15 -->
<g id="node28" class="node"><title>Node15</title>
<a xlink:href="struct_om_1_1_moveable.html" target="_top" xlink:title="An object that can be passed to Move to be moved.">
<polygon fill="none" stroke="black" points="236,-926.5 236,-945.5 316,-945.5 316,-926.5 236,-926.5"/>
<text text-anchor="middle" x="276" y="-933.5" font-family="Helvetica,sans-Serif" font-size="10.00">Om::Moveable</text>
</a>
</g>
<!-- Node15&#45;&gt;Node13 -->
<g id="edge28" class="edge"><title>Node15&#45;&gt;Node13</title>
<path fill="none" stroke="midnightblue" d="M261.506,-918.435C252.614,-908.273 241.6,-895.686 234.442,-887.505"/>
<polygon fill="midnightblue" stroke="midnightblue" points="259.125,-921.029 268.344,-926.25 264.393,-916.419 259.125,-921.029"/>
</g>
<!-- Node16 -->
<g id="node30" class="node"><title>Node16</title>
<a xlink:href="struct_om_1_1_queue.html" target="_top" xlink:title="A first&#45;in, first&#45;out Element processor.">
<polygon fill="none" stroke="black" points="283,-868.5 283,-887.5 349,-887.5 349,-868.5 283,-868.5"/>
<text text-anchor="middle" x="316" y="-875.5" font-family="Helvetica,sans-Serif" font-size="10.00">Om::Queue</text>
</a>
</g>
<!-- Node16&#45;&gt;Node12 -->
<g id="edge30" class="edge"><title>Node16&#45;&gt;Node12</title>
<path fill="none" stroke="midnightblue" d="M316,-857.953C316,-848.287 316,-837.031 316,-829.505"/>
<polygon fill="midnightblue" stroke="midnightblue" points="312.5,-858.25 316,-868.25 319.5,-858.25 312.5,-858.25"/>
</g>
<!-- Node17 -->
<g id="node32" class="node"><title>Node17</title>
<a xlink:href="struct_om_1_1_shareable.html" target="_top" xlink:title="Om::Shareable\&lt;\&gt;">
<polygon fill="none" stroke="black" points="367,-868.5 367,-887.5 459,-887.5 459,-868.5 367,-868.5"/>
<text text-anchor="middle" x="413" y="-875.5" font-family="Helvetica,sans-Serif" font-size="10.00">Om::Shareable&lt;&gt;</text>
</a>
</g>
<!-- Node17&#45;&gt;Node12 -->
<g id="edge32" class="edge"><title>Node17&#45;&gt;Node12</title>
<path fill="none" stroke="midnightblue" d="M389.396,-863.373C371.149,-852.838 346.451,-838.58 330.871,-829.585"/>
<polygon fill="midnightblue" stroke="midnightblue" points="387.857,-866.526 398.268,-868.495 391.357,-860.464 387.857,-866.526"/>
</g>
<!-- Node18 -->
<g id="node34" class="node"><title>Node18</title>
<a xlink:href="struct_om_1_1_taker.html" target="_top" xlink:title="Om::Taker\&lt; Operator \&gt;">
<polygon fill="none" stroke="black" points="463,-373.5 463,-392.5 577,-392.5 577,-373.5 463,-373.5"/>
<text text-anchor="middle" x="520" y="-380.5" font-family="Helvetica,sans-Serif" font-size="10.00">Om::Taker&lt; Operator &gt;</text>
</a>
</g>
<!-- Node18&#45;&gt;Node5 -->
<g id="edge34" class="edge"><title>Node18&#45;&gt;Node5</title>
<path fill="none" stroke="midnightblue" d="M501.921,-366.474C486.987,-353.647 465.961,-335.59 451.483,-323.156"/>
<polygon fill="midnightblue" stroke="midnightblue" points="500.049,-369.479 509.916,-373.339 504.61,-364.169 500.049,-369.479"/>
</g>
<!-- Node19 -->
<g id="node36" class="node"><title>Node19</title>
<a xlink:title="STL class.">
<polygon fill="none" stroke="#bfbfbf" points="295,-218.5 295,-237.5 351,-237.5 351,-218.5 295,-218.5"/>
<text text-anchor="middle" x="323" y="-225.5" font-family="Helvetica,sans-Serif" font-size="10.00">std::string</text>
</a>
</g>
<!-- Node19&#45;&gt;Node3 -->
<g id="edge36" class="edge"><title>Node19&#45;&gt;Node3</title>
<path fill="none" stroke="#9a32cd" stroke-dasharray="5,2" d="M324.047,-208.156C324.849,-193.712 325.919,-174.459 326.526,-163.531"/>
<polygon fill="#9a32cd" stroke="#9a32cd" points="320.535,-208.279 323.475,-218.458 327.524,-208.667 320.535,-208.279"/>
<text text-anchor="middle" x="346.5" y="-185.5" font-family="Helvetica,sans-Serif" font-size="10.00"> thisString</text>
</g>
<!-- Node20 -->
<g id="node38" class="node"><title>Node20</title>
<a xlink:title="STL class.">
<polygon fill="none" stroke="#bfbfbf" points="276.5,-293 276.5,-323 365.5,-323 365.5,-293 276.5,-293"/>
<text text-anchor="start" x="284.5" y="-311" font-family="Helvetica,sans-Serif" font-size="10.00">std::basic_string&lt;</text>
<text text-anchor="middle" x="321" y="-300" font-family="Helvetica,sans-Serif" font-size="10.00"> char &gt;</text>
</a>
</g>
<!-- Node20&#45;&gt;Node19 -->
<g id="edge38" class="edge"><title>Node20&#45;&gt;Node19</title>
<path fill="none" stroke="midnightblue" d="M321.631,-282.394C322.02,-267.208 322.497,-248.635 322.772,-237.876"/>
<polygon fill="midnightblue" stroke="midnightblue" points="318.124,-282.607 321.367,-292.694 325.122,-282.787 318.124,-282.607"/>
</g>
<!-- Node21 -->
<g id="node40" class="node"><title>Node21</title>
<polygon fill="none" stroke="#bfbfbf" points="129.5,-106.5 129.5,-125.5 244.5,-125.5 244.5,-106.5 129.5,-106.5"/>
<text text-anchor="middle" x="187" y="-113.5" font-family="Helvetica,sans-Serif" font-size="10.00">std::deque&lt; Operand &gt;</text>
</g>
<!-- Node21&#45;&gt;Node1 -->
<g id="edge40" class="edge"><title>Node21&#45;&gt;Node1</title>
<path fill="none" stroke="#9a32cd" stroke-dasharray="5,2" d="M189.032,-96.4497C190.377,-87.6322 192.552,-77.0633 196,-68 202.965,-49.6916 215.673,-30.5633 223.425,-19.7776"/>
<polygon fill="#9a32cd" stroke="#9a32cd" points="185.552,-96.0698 187.737,-106.437 192.493,-96.9699 185.552,-96.0698"/>
<text text-anchor="middle" x="238.5" y="-75.5" font-family="Helvetica,sans-Serif" font-size="10.00"> thisOperandDeque</text>
</g>
<!-- Node22 -->
<g id="node42" class="node"><title>Node22</title>
<a xlink:href="struct_om_1_1_operand.html" target="_top" xlink:title="The Operand implementation.">
<polygon fill="none" stroke="black" points="149.5,-218.5 149.5,-237.5 224.5,-237.5 224.5,-218.5 149.5,-218.5"/>
<text text-anchor="middle" x="187" y="-225.5" font-family="Helvetica,sans-Serif" font-size="10.00">Om::Operand</text>
</a>
</g>
<!-- Node22&#45;&gt;Node21 -->
<g id="edge42" class="edge"><title>Node22&#45;&gt;Node21</title>
<path fill="none" stroke="#9a32cd" stroke-dasharray="5,2" d="M187,-208.348C187,-184.254 187,-143.308 187,-125.591"/>
<polygon fill="#9a32cd" stroke="#9a32cd" points="183.5,-208.368 187,-218.368 190.5,-208.369 183.5,-208.368"/>
<text text-anchor="middle" x="207.5" y="-185.5" font-family="Helvetica,sans-Serif" font-size="10.00"> elements</text>
</g>
<!-- Node23 -->
<g id="node44" class="node"><title>Node23</title>
<a xlink:href="struct_om_1_1_default_element.html" target="_top" xlink:title="Om::DefaultElement\l\&lt; Operand \&gt;">
<polygon fill="none" stroke="black" points="156.5,-293 156.5,-323 257.5,-323 257.5,-293 156.5,-293"/>
<text text-anchor="start" x="164.5" y="-311" font-family="Helvetica,sans-Serif" font-size="10.00">Om::DefaultElement</text>
<text text-anchor="middle" x="207" y="-300" font-family="Helvetica,sans-Serif" font-size="10.00">&lt; Operand &gt;</text>
</a>
</g>
<!-- Node23&#45;&gt;Node22 -->
<g id="edge44" class="edge"><title>Node23&#45;&gt;Node22</title>
<path fill="none" stroke="midnightblue" d="M200.804,-282.836C196.89,-267.569 192.061,-248.739 189.276,-237.876"/>
<polygon fill="midnightblue" stroke="midnightblue" points="197.458,-283.876 203.332,-292.694 204.238,-282.138 197.458,-283.876"/>
</g>
<!-- Node24 -->
<g id="node46" class="node"><title>Node24</title>
<a xlink:href="struct_om_1_1_default_program.html" target="_top" xlink:title="Om::DefaultProgram\l\&lt; Operand, Element \&gt;">
<polygon fill="none" stroke="black" points="152,-368 152,-398 262,-398 262,-368 152,-368"/>
<text text-anchor="start" x="160" y="-386" font-family="Helvetica,sans-Serif" font-size="10.00">Om::DefaultProgram</text>
<text text-anchor="middle" x="207" y="-375" font-family="Helvetica,sans-Serif" font-size="10.00">&lt; Operand, Element &gt;</text>
</a>
</g>
<!-- Node24&#45;&gt;Node23 -->
<g id="edge46" class="edge"><title>Node24&#45;&gt;Node23</title>
<path fill="none" stroke="midnightblue" d="M207,-357.629C207,-346.129 207,-332.818 207,-323.032"/>
<polygon fill="midnightblue" stroke="midnightblue" points="203.5,-357.925 207,-367.925 210.5,-357.925 203.5,-357.925"/>
</g>
<!-- Node25 -->
<g id="node48" class="node"><title>Node25</title>
<a xlink:href="struct_om_1_1_default_queue.html" target="_top" xlink:title="Om::DefaultQueue\&lt; Operand,\l DefaultGiveable\&lt; Operand,\l Element \&gt; \&gt;">
<polygon fill="none" stroke="black" points="156.5,-442.5 156.5,-483.5 301.5,-483.5 301.5,-442.5 156.5,-442.5"/>
<text text-anchor="start" x="164.5" y="-471.5" font-family="Helvetica,sans-Serif" font-size="10.00">Om::DefaultQueue&lt; Operand,</text>
<text text-anchor="start" x="164.5" y="-460.5" font-family="Helvetica,sans-Serif" font-size="10.00"> DefaultGiveable&lt; Operand,</text>
<text text-anchor="middle" x="229" y="-449.5" font-family="Helvetica,sans-Serif" font-size="10.00"> Element &gt; &gt;</text>
</a>
</g>
<!-- Node25&#45;&gt;Node24 -->
<g id="edge48" class="edge"><title>Node25&#45;&gt;Node24</title>
<path fill="none" stroke="midnightblue" d="M220.665,-432.45C217.362,-420.737 213.716,-407.813 211.022,-398.261"/>
<polygon fill="midnightblue" stroke="midnightblue" points="217.365,-433.643 223.448,-442.317 224.102,-431.743 217.365,-433.643"/>
</g>
<!-- Node26 -->
<g id="node50" class="node"><title>Node26</title>
<a xlink:href="struct_om_1_1_default_giveable.html" target="_top" xlink:title="Om::DefaultGiveable\l\&lt; Operand, Element \&gt;">
<polygon fill="none" stroke="black" points="174,-528 174,-558 284,-558 284,-528 174,-528"/>
<text text-anchor="start" x="182" y="-546" font-family="Helvetica,sans-Serif" font-size="10.00">Om::DefaultGiveable</text>
<text text-anchor="middle" x="229" y="-535" font-family="Helvetica,sans-Serif" font-size="10.00">&lt; Operand, Element &gt;</text>
</a>
</g>
<!-- Node26&#45;&gt;Node25 -->
<g id="edge50" class="edge"><title>Node26&#45;&gt;Node25</title>
<path fill="none" stroke="midnightblue" d="M229,-517.487C229,-506.531 229,-493.797 229,-483.503"/>
<polygon fill="midnightblue" stroke="midnightblue" points="225.5,-517.694 229,-527.694 232.5,-517.694 225.5,-517.694"/>
</g>
<!-- Node27 -->
<g id="node52" class="node"><title>Node27</title>
<a xlink:href="struct_om_1_1_default_moveable.html" target="_top" xlink:title="Om::DefaultMoveable\l\&lt; Operand, DefaultCopyable\l\&lt; Operand, Element \&gt; \&gt;">
<polygon fill="none" stroke="black" points="158.5,-602.5 158.5,-643.5 299.5,-643.5 299.5,-602.5 158.5,-602.5"/>
<text text-anchor="start" x="166.5" y="-631.5" font-family="Helvetica,sans-Serif" font-size="10.00">Om::DefaultMoveable</text>
<text text-anchor="start" x="166.5" y="-620.5" font-family="Helvetica,sans-Serif" font-size="10.00">&lt; Operand, DefaultCopyable</text>
<text text-anchor="middle" x="229" y="-609.5" font-family="Helvetica,sans-Serif" font-size="10.00">&lt; Operand, Element &gt; &gt;</text>
</a>
</g>
<!-- Node27&#45;&gt;Node26 -->
<g id="edge52" class="edge"><title>Node27&#45;&gt;Node26</title>
<path fill="none" stroke="midnightblue" d="M229,-592.095C229,-580.476 229,-567.716 229,-558.261"/>
<polygon fill="midnightblue" stroke="midnightblue" points="225.5,-592.317 229,-602.317 232.5,-592.317 225.5,-592.317"/>
</g>
<!-- Node28&#45;&gt;Node27 -->
<g id="edge54" class="edge"><title>Node28&#45;&gt;Node27</title>
<path fill="none" stroke="midnightblue" d="M245.845,-673.188C242.56,-663.595 238.817,-652.666 235.695,-643.551"/>
<polygon fill="midnightblue" stroke="midnightblue" points="242.629,-674.598 249.18,-682.925 249.251,-672.33 242.629,-674.598"/>
</g>
<!-- Node29 -->
<g id="node57" class="node"><title>Node29</title>
<a xlink:href="struct_om_1_1_taker.html" target="_top" xlink:title="Om::Taker\&lt; Operand \&gt;">
<polygon fill="none" stroke="black" points="23.5,-453.5 23.5,-472.5 138.5,-472.5 138.5,-453.5 23.5,-453.5"/>
<text text-anchor="middle" x="81" y="-460.5" font-family="Helvetica,sans-Serif" font-size="10.00">Om::Taker&lt; Operand &gt;</text>
</a>
</g>
<!-- Node29&#45;&gt;Node24 -->
<g id="edge58" class="edge"><title>Node29&#45;&gt;Node24</title>
<path fill="none" stroke="midnightblue" d="M103.603,-448.008C126.323,-433.943 161.164,-412.374 184.018,-398.227"/>
<polygon fill="midnightblue" stroke="midnightblue" points="101.626,-445.115 94.9656,-453.355 105.311,-451.067 101.626,-445.115"/>
</g>
<!-- Node30 -->
<g id="node59" class="node"><title>Node30</title>
<a xlink:href="struct_om_1_1_owner.html" target="_top" xlink:title="Om::Owner\&lt; Om::Program \&gt;">
<polygon fill="none" stroke="black" points="0,-298.5 0,-317.5 138,-317.5 138,-298.5 0,-298.5"/>
<text text-anchor="middle" x="69" y="-305.5" font-family="Helvetica,sans-Serif" font-size="10.00">Om::Owner&lt; Om::Program &gt;</text>
</a>
</g>
<!-- Node30&#45;&gt;Node22 -->
<g id="edge60" class="edge"><title>Node30&#45;&gt;Node22</title>
<path fill="none" stroke="#9a32cd" stroke-dasharray="5,2" d="M90.6307,-292.702C114.965,-276.616 153.714,-251.003 173.863,-237.684"/>
<polygon fill="#9a32cd" stroke="#9a32cd" points="88.4911,-289.92 82.0789,-298.355 92.3512,-295.76 88.4911,-289.92"/>
<text text-anchor="middle" x="162.5" y="-265.5" font-family="Helvetica,sans-Serif" font-size="10.00"> thisProgram</text>
</g>
<!-- Node31 -->
<g id="node61" class="node"><title>Node31</title>
<a xlink:href="struct_om_1_1_taker.html" target="_top" xlink:title="Om::Taker\&lt; Owner\&lt; Om\l::Program \&gt; \&gt;">
<polygon fill="none" stroke="black" points="8,-368 8,-398 130,-398 130,-368 8,-368"/>
<text text-anchor="start" x="16" y="-386" font-family="Helvetica,sans-Serif" font-size="10.00">Om::Taker&lt; Owner&lt; Om</text>
<text text-anchor="middle" x="69" y="-375" font-family="Helvetica,sans-Serif" font-size="10.00">::Program &gt; &gt;</text>
</a>
</g>
<!-- Node31&#45;&gt;Node30 -->
<g id="edge62" class="edge"><title>Node31&#45;&gt;Node30</title>
<path fill="none" stroke="midnightblue" d="M69,-357.574C69,-343.751 69,-327.325 69,-317.553"/>
<polygon fill="midnightblue" stroke="midnightblue" points="65.5001,-357.925 69,-367.925 72.5001,-357.925 65.5001,-357.925"/>
</g>
</g>
</svg>
