<?xml version="1.0" encoding="UTF-8" standalone="no"?>
<!DOCTYPE svg PUBLIC "-//W3C//DTD SVG 1.1//EN"
 "http://www.w3.org/Graphics/SVG/1.1/DTD/svg11.dtd">
<!-- Generated by graphviz version 2.28.0 (20120817.0054)
 -->
<!-- Title: Om::Operand Pages: 1 -->
<svg width="1600pt" height="176pt"
 viewBox="0.00 0.00 1600.00 176.00" xmlns="http://www.w3.org/2000/svg" xmlns:xlink="http://www.w3.org/1999/xlink">
<g id="graph1" class="graph" transform="scale(1 1) rotate(0) translate(4 172)">
<title>Om::Operand</title>
<!-- Node1 -->
<g id="node1" class="node"><title>Node1</title>
<polygon fill="#bfbfbf" stroke="black" points="1516.5,-30.5 1516.5,-49.5 1591.5,-49.5 1591.5,-30.5 1516.5,-30.5"/>
<text text-anchor="middle" x="1554" y="-37.5" font-family="Helvetica,sans-Serif" font-size="10.00">Om::Operand</text>
</g>
<!-- Node2 -->
<g id="node2" class="node"><title>Node2</title>
<a xlink:href="struct_om_1_1_default_element.html" target="_top" xlink:title="Om::DefaultElement\l\&lt; Operand \&gt;">
<polygon fill="none" stroke="black" points="1306.5,-46 1306.5,-76 1407.5,-76 1407.5,-46 1306.5,-46"/>
<text text-anchor="start" x="1314.5" y="-64" font-family="Helvetica,sans-Serif" font-size="10.00">Om::DefaultElement</text>
<text text-anchor="middle" x="1357" y="-53" font-family="Helvetica,sans-Serif" font-size="10.00">&lt; Operand &gt;</text>
</a>
</g>
<!-- Node2&#45;&gt;Node1 -->
<g id="edge2" class="edge"><title>Node2&#45;&gt;Node1</title>
<path fill="none" stroke="midnightblue" d="M1417.9,-54.5493C1450.04,-51.0878 1488.62,-46.933 1516.31,-43.9511"/>
<polygon fill="midnightblue" stroke="midnightblue" points="1417.28,-51.0958 1407.71,-55.6465 1418.03,-58.0555 1417.28,-51.0958"/>
</g>
<!-- Node3 -->
<g id="node4" class="node"><title>Node3</title>
<a xlink:href="struct_om_1_1_default_program.html" target="_top" xlink:title="Om::DefaultProgram\l\&lt; Operand, Element \&gt;">
<polygon fill="none" stroke="black" points="1134,-49 1134,-79 1244,-79 1244,-49 1134,-49"/>
<text text-anchor="start" x="1142" y="-67" font-family="Helvetica,sans-Serif" font-size="10.00">Om::DefaultProgram</text>
<text text-anchor="middle" x="1189" y="-56" font-family="Helvetica,sans-Serif" font-size="10.00">&lt; Operand, Element &gt;</text>
</a>
</g>
<!-- Node3&#45;&gt;Node2 -->
<g id="edge4" class="edge"><title>Node3&#45;&gt;Node2</title>
<path fill="none" stroke="midnightblue" d="M1254.35,-62.837C1271.6,-62.5253 1289.98,-62.1932 1306.3,-61.8983"/>
<polygon fill="midnightblue" stroke="midnightblue" points="1254.29,-59.3375 1244.35,-63.0177 1254.42,-66.3363 1254.29,-59.3375"/>
</g>
<!-- Node4 -->
<g id="node6" class="node"><title>Node4</title>
<a xlink:href="struct_om_1_1_default_queue.html" target="_top" xlink:title="Om::DefaultQueue\&lt; Operand,\l DefaultGiveable\&lt; Operand,\l Element \&gt; \&gt;">
<polygon fill="none" stroke="black" points="944.5,-80.5 944.5,-121.5 1089.5,-121.5 1089.5,-80.5 944.5,-80.5"/>
<text text-anchor="start" x="952.5" y="-109.5" font-family="Helvetica,sans-Serif" font-size="10.00">Om::DefaultQueue&lt; Operand,</text>
<text text-anchor="start" x="952.5" y="-98.5" font-family="Helvetica,sans-Serif" font-size="10.00"> DefaultGiveable&lt; Operand,</text>
<text text-anchor="middle" x="1017" y="-87.5" font-family="Helvetica,sans-Serif" font-size="10.00"> Element &gt; &gt;</text>
</a>
</g>
<!-- Node4&#45;&gt;Node3 -->
<g id="edge6" class="edge"><title>Node4&#45;&gt;Node3</title>
<path fill="none" stroke="midnightblue" d="M1099.72,-83.2139C1111.28,-80.6977 1122.92,-78.1639 1133.79,-75.799"/>
<polygon fill="midnightblue" stroke="midnightblue" points="1098.63,-79.8692 1089.6,-85.4159 1100.12,-86.7091 1098.63,-79.8692"/>
</g>
<!-- Node5 -->
<g id="node8" class="node"><title>Node5</title>
<a xlink:href="struct_om_1_1_default_giveable.html" target="_top" xlink:title="Om::DefaultGiveable\l\&lt; Operand, Element \&gt;">
<polygon fill="none" stroke="black" points="796,-86 796,-116 906,-116 906,-86 796,-86"/>
<text text-anchor="start" x="804" y="-104" font-family="Helvetica,sans-Serif" font-size="10.00">Om::DefaultGiveable</text>
<text text-anchor="middle" x="851" y="-93" font-family="Helvetica,sans-Serif" font-size="10.00">&lt; Operand, Element &gt;</text>
</a>
</g>
<!-- Node5&#45;&gt;Node4 -->
<g id="edge8" class="edge"><title>Node5&#45;&gt;Node4</title>
<path fill="none" stroke="midnightblue" d="M916.364,-101C925.547,-101 935.04,-101 944.351,-101"/>
<polygon fill="midnightblue" stroke="midnightblue" points="916.154,-97.5001 906.154,-101 916.154,-104.5 916.154,-97.5001"/>
</g>
<!-- Node6 -->
<g id="node10" class="node"><title>Node6</title>
<a xlink:href="struct_om_1_1_default_moveable.html" target="_top" xlink:title="Om::DefaultMoveable\l\&lt; Operand, DefaultCopyable\l\&lt; Operand, Element \&gt; \&gt;">
<polygon fill="none" stroke="black" points="616.5,-80.5 616.5,-121.5 757.5,-121.5 757.5,-80.5 616.5,-80.5"/>
<text text-anchor="start" x="624.5" y="-109.5" font-family="Helvetica,sans-Serif" font-size="10.00">Om::DefaultMoveable</text>
<text text-anchor="start" x="624.5" y="-98.5" font-family="Helvetica,sans-Serif" font-size="10.00">&lt; Operand, DefaultCopyable</text>
<text text-anchor="middle" x="687" y="-87.5" font-family="Helvetica,sans-Serif" font-size="10.00">&lt; Operand, Element &gt; &gt;</text>
</a>
</g>
<!-- Node6&#45;&gt;Node5 -->
<g id="edge10" class="edge"><title>Node6&#45;&gt;Node5</title>
<path fill="none" stroke="midnightblue" d="M767.813,-101C777.216,-101 786.639,-101 795.577,-101"/>
<polygon fill="midnightblue" stroke="midnightblue" points="767.643,-97.5001 757.643,-101 767.643,-104.5 767.643,-97.5001"/>
</g>
<!-- Node7 -->
<g id="node12" class="node"><title>Node7</title>
<a xlink:href="struct_om_1_1_default_copyable.html" target="_top" xlink:title="Om::DefaultCopyable\l\&lt; Operand, Element \&gt;">
<polygon fill="none" stroke="black" points="468,-86 468,-116 578,-116 578,-86 468,-86"/>
<text text-anchor="start" x="476" y="-104" font-family="Helvetica,sans-Serif" font-size="10.00">Om::DefaultCopyable</text>
<text text-anchor="middle" x="523" y="-93" font-family="Helvetica,sans-Serif" font-size="10.00">&lt; Operand, Element &gt;</text>
</a>
</g>
<!-- Node7&#45;&gt;Node6 -->
<g id="edge12" class="edge"><title>Node7&#45;&gt;Node6</title>
<path fill="none" stroke="midnightblue" d="M588.523,-101C597.625,-101 607.018,-101 616.214,-101"/>
<polygon fill="midnightblue" stroke="midnightblue" points="588.394,-97.5001 578.394,-101 588.394,-104.5 588.394,-97.5001"/>
</g>
<!-- Node8 -->
<g id="node14" class="node"><title>Node8</title>
<a xlink:href="struct_om_1_1_element.html" target="_top" xlink:title="An &quot;elemental&quot; Program comprised of a single item (or empty).">
<polygon fill="none" stroke="black" points="358.5,-91.5 358.5,-110.5 429.5,-110.5 429.5,-91.5 358.5,-91.5"/>
<text text-anchor="middle" x="394" y="-98.5" font-family="Helvetica,sans-Serif" font-size="10.00">Om::Element</text>
</a>
</g>
<!-- Node8&#45;&gt;Node7 -->
<g id="edge14" class="edge"><title>Node8&#45;&gt;Node7</title>
<path fill="none" stroke="midnightblue" d="M439.965,-101C448.961,-101 458.502,-101 467.772,-101"/>
<polygon fill="midnightblue" stroke="midnightblue" points="439.703,-97.5001 429.703,-101 439.703,-104.5 439.703,-97.5001"/>
</g>
<!-- Node9 -->
<g id="node16" class="node"><title>Node9</title>
<a xlink:href="struct_om_1_1_program.html" target="_top" xlink:title="The Program implementation.">
<polygon fill="none" stroke="black" points="248,-91.5 248,-110.5 320,-110.5 320,-91.5 248,-91.5"/>
<text text-anchor="middle" x="284" y="-98.5" font-family="Helvetica,sans-Serif" font-size="10.00">Om::Program</text>
</a>
</g>
<!-- Node9&#45;&gt;Node8 -->
<g id="edge16" class="edge"><title>Node9&#45;&gt;Node8</title>
<path fill="none" stroke="midnightblue" d="M330.142,-101C339.617,-101 349.467,-101 358.48,-101"/>
<polygon fill="midnightblue" stroke="midnightblue" points="330.065,-97.5001 320.065,-101 330.064,-104.5 330.065,-97.5001"/>
</g>
<!-- Node10 -->
<g id="node18" class="node"><title>Node10</title>
<a xlink:href="struct_om_1_1_giveable.html" target="_top" xlink:title="An object that can be copied or moved via Give.">
<polygon fill="none" stroke="black" points="126,-129.5 126,-148.5 202,-148.5 202,-129.5 126,-129.5"/>
<text text-anchor="middle" x="164" y="-136.5" font-family="Helvetica,sans-Serif" font-size="10.00">Om::Giveable</text>
</a>
</g>
<!-- Node10&#45;&gt;Node9 -->
<g id="edge18" class="edge"><title>Node10&#45;&gt;Node9</title>
<path fill="none" stroke="midnightblue" d="M204.376,-126.32C220.32,-121.185 238.421,-115.356 253.233,-110.586"/>
<polygon fill="midnightblue" stroke="midnightblue" points="203.222,-123.014 194.776,-129.411 205.368,-129.677 203.222,-123.014"/>
</g>
<!-- Node11 -->
<g id="node20" class="node"><title>Node11</title>
<a xlink:href="struct_om_1_1_copyable.html" target="_top" xlink:title="An object that can be passed to Copy to be copied.">
<polygon fill="none" stroke="black" points="0,-148.5 0,-167.5 80,-167.5 80,-148.5 0,-148.5"/>
<text text-anchor="middle" x="40" y="-155.5" font-family="Helvetica,sans-Serif" font-size="10.00">Om::Copyable</text>
</a>
</g>
<!-- Node11&#45;&gt;Node10 -->
<g id="edge20" class="edge"><title>Node11&#45;&gt;Node10</title>
<path fill="none" stroke="midnightblue" d="M90.4639,-150.297C102.29,-148.455 114.716,-146.52 125.876,-144.782"/>
<polygon fill="midnightblue" stroke="midnightblue" points="89.6154,-146.886 80.2731,-151.884 90.6926,-153.803 89.6154,-146.886"/>
</g>
<!-- Node12 -->
<g id="node22" class="node"><title>Node12</title>
<a xlink:href="struct_om_1_1_moveable.html" target="_top" xlink:title="An object that can be passed to Move to be moved.">
<polygon fill="none" stroke="black" points="0,-110.5 0,-129.5 80,-129.5 80,-110.5 0,-110.5"/>
<text text-anchor="middle" x="40" y="-117.5" font-family="Helvetica,sans-Serif" font-size="10.00">Om::Moveable</text>
</a>
</g>
<!-- Node12&#45;&gt;Node10 -->
<g id="edge22" class="edge"><title>Node12&#45;&gt;Node10</title>
<path fill="none" stroke="midnightblue" d="M90.4639,-127.703C102.29,-129.545 114.716,-131.48 125.876,-133.218"/>
<polygon fill="midnightblue" stroke="midnightblue" points="90.6926,-124.197 80.2731,-126.116 89.6154,-131.114 90.6926,-124.197"/>
</g>
<!-- Node13 -->
<g id="node24" class="node"><title>Node13</title>
<a xlink:href="struct_om_1_1_queue.html" target="_top" xlink:title="A first&#45;in, first&#45;out Element processor.">
<polygon fill="none" stroke="black" points="131,-91.5 131,-110.5 197,-110.5 197,-91.5 131,-91.5"/>
<text text-anchor="middle" x="164" y="-98.5" font-family="Helvetica,sans-Serif" font-size="10.00">Om::Queue</text>
</a>
</g>
<!-- Node13&#45;&gt;Node9 -->
<g id="edge24" class="edge"><title>Node13&#45;&gt;Node9</title>
<path fill="none" stroke="midnightblue" d="M207.547,-101C220.785,-101 235.225,-101 247.896,-101"/>
<polygon fill="midnightblue" stroke="midnightblue" points="207.244,-97.5001 197.244,-101 207.244,-104.5 207.244,-97.5001"/>
</g>
<!-- Node14 -->
<g id="node26" class="node"><title>Node14</title>
<a xlink:href="struct_om_1_1_shareable.html" target="_top" xlink:title="Om::Shareable\&lt;\&gt;">
<polygon fill="none" stroke="black" points="118,-53.5 118,-72.5 210,-72.5 210,-53.5 118,-53.5"/>
<text text-anchor="middle" x="164" y="-60.5" font-family="Helvetica,sans-Serif" font-size="10.00">Om::Shareable&lt;&gt;</text>
</a>
</g>
<!-- Node14&#45;&gt;Node9 -->
<g id="edge26" class="edge"><title>Node14&#45;&gt;Node9</title>
<path fill="none" stroke="midnightblue" d="M204.376,-75.6804C220.32,-80.8148 238.421,-86.6441 253.233,-91.4141"/>
<polygon fill="midnightblue" stroke="midnightblue" points="205.368,-72.3229 194.776,-72.589 203.222,-78.9859 205.368,-72.3229"/>
</g>
<!-- Node15 -->
<g id="node28" class="node"><title>Node15</title>
<a xlink:href="struct_om_1_1_taker.html" target="_top" xlink:title="Om::Taker\&lt; Operand \&gt;">
<polygon fill="none" stroke="black" points="959.5,-42.5 959.5,-61.5 1074.5,-61.5 1074.5,-42.5 959.5,-42.5"/>
<text text-anchor="middle" x="1017" y="-49.5" font-family="Helvetica,sans-Serif" font-size="10.00">Om::Taker&lt; Operand &gt;</text>
</a>
</g>
<!-- Node15&#45;&gt;Node3 -->
<g id="edge28" class="edge"><title>Node15&#45;&gt;Node3</title>
<path fill="none" stroke="midnightblue" d="M1084.64,-56.7038C1100.98,-57.8575 1118.28,-59.0782 1133.94,-60.1843"/>
<polygon fill="midnightblue" stroke="midnightblue" points="1084.83,-53.2087 1074.61,-55.9958 1084.34,-60.1914 1084.83,-53.2087"/>
</g>
<!-- Node16 -->
<g id="node30" class="node"><title>Node16</title>
<a xlink:href="struct_om_1_1_owner.html" target="_top" xlink:title="Om::Owner\&lt; Om::Program \&gt;">
<polygon fill="none" stroke="black" points="1288,-6.5 1288,-25.5 1426,-25.5 1426,-6.5 1288,-6.5"/>
<text text-anchor="middle" x="1357" y="-13.5" font-family="Helvetica,sans-Serif" font-size="10.00">Om::Owner&lt; Om::Program &gt;</text>
</a>
</g>
<!-- Node16&#45;&gt;Node1 -->
<g id="edge30" class="edge"><title>Node16&#45;&gt;Node1</title>
<path fill="none" stroke="#9a32cd" stroke-dasharray="5,2" d="M1436.13,-24.5006C1456.3,-26.8126 1477.97,-29.3997 1498,-32 1503.93,-32.7703 1510.22,-33.6367 1516.34,-34.5075"/>
<polygon fill="#9a32cd" stroke="#9a32cd" points="1436.39,-21.0068 1426.05,-23.3536 1435.59,-27.9619 1436.39,-21.0068"/>
<text text-anchor="middle" x="1471" y="-35" font-family="Helvetica,sans-Serif" font-size="10.00"> thisProgram</text>
</g>
<!-- Node17 -->
<g id="node32" class="node"><title>Node17</title>
<a xlink:href="struct_om_1_1_taker.html" target="_top" xlink:title="Om::Taker\&lt; Owner\&lt; Om\l::Program \&gt; \&gt;">
<polygon fill="none" stroke="black" points="1128,-0 1128,-30 1250,-30 1250,-0 1128,-0"/>
<text text-anchor="start" x="1136" y="-18" font-family="Helvetica,sans-Serif" font-size="10.00">Om::Taker&lt; Owner&lt; Om</text>
<text text-anchor="middle" x="1189" y="-7" font-family="Helvetica,sans-Serif" font-size="10.00">::Program &gt; &gt;</text>
</a>
</g>
<!-- Node17&#45;&gt;Node16 -->
<g id="edge32" class="edge"><title>Node17&#45;&gt;Node16</title>
<path fill="none" stroke="midnightblue" d="M1260.49,-15.4247C1269.53,-15.4791 1278.77,-15.5348 1287.77,-15.589"/>
<polygon fill="midnightblue" stroke="midnightblue" points="1260.42,-11.9243 1250.4,-15.3639 1260.38,-18.9241 1260.42,-11.9243"/>
</g>
</g>
</svg>
