<?xml version="1.0" encoding="UTF-8" standalone="no"?>
<!DOCTYPE svg PUBLIC "-//W3C//DTD SVG 1.1//EN"
 "http://www.w3.org/Graphics/SVG/1.1/DTD/svg11.dtd">
<!-- Generated by graphviz version 2.28.0 (20120817.0054)
 -->
<!-- Title: Om::Lexicon::Node Pages: 1 -->
<svg width="488pt" height="954pt"
 viewBox="0.00 0.00 488.00 954.00" xmlns="http://www.w3.org/2000/svg" xmlns:xlink="http://www.w3.org/1999/xlink">
<g id="graph1" class="graph" transform="scale(1 1) rotate(0) translate(4 950)">
<title>Om::Lexicon::Node</title>
<!-- Node1 -->
<g id="node1" class="node"><title>Node1</title>
<polygon fill="#bfbfbf" stroke="black" points="308,-1.5 308,-20.5 404,-20.5 404,-1.5 308,-1.5"/>
<text text-anchor="middle" x="356" y="-8.5" font-family="Helvetica,sans-Serif" font-size="10.00">Om::Lexicon::Node</text>
</g>
<!-- Node1&#45;&gt;Node1 -->
<g id="edge42" class="edge"><title>Node1&#45;&gt;Node1</title>
<path fill="none" stroke="#9a32cd" stroke-dasharray="5,2" d="M414.304,-15.3159C419.053,-14.3795 422,-12.9409 422,-11 422,-7.89453 414.456,-6.07492 404.054,-5.54117"/>
<polygon fill="#9a32cd" stroke="#9a32cd" points="413.605,-11.872 404.054,-16.4588 414.381,-18.8289 413.605,-11.872"/>
<text text-anchor="middle" x="451" y="-14" font-family="Helvetica,sans-Serif" font-size="10.00"> thisPriorNode</text>
<text text-anchor="middle" x="451" y="-3" font-family="Helvetica,sans-Serif" font-size="10.00">thisNextNode</text>
</g>
<!-- Node2 -->
<g id="node2" class="node"><title>Node2</title>
<a xlink:href="struct_om_1_1_pair.html" target="_top" xlink:title="Om::Pair">
<polygon fill="none" stroke="black" points="329.5,-60.5 329.5,-79.5 382.5,-79.5 382.5,-60.5 329.5,-60.5"/>
<text text-anchor="middle" x="356" y="-67.5" font-family="Helvetica,sans-Serif" font-size="10.00">Om::Pair</text>
</a>
</g>
<!-- Node2&#45;&gt;Node1 -->
<g id="edge2" class="edge"><title>Node2&#45;&gt;Node1</title>
<path fill="none" stroke="midnightblue" d="M356,-49.9331C356,-40.0243 356,-28.4007 356,-20.6571"/>
<polygon fill="midnightblue" stroke="midnightblue" points="352.5,-50.0937 356,-60.0938 359.5,-50.0938 352.5,-50.0937"/>
</g>
<!-- Node3 -->
<g id="node4" class="node"><title>Node3</title>
<a xlink:href="struct_om_1_1_operator.html" target="_top" xlink:title="The Operator implementation.">
<polygon fill="none" stroke="black" points="319,-128.5 319,-147.5 393,-147.5 393,-128.5 319,-128.5"/>
<text text-anchor="middle" x="356" y="-135.5" font-family="Helvetica,sans-Serif" font-size="10.00">Om::Operator</text>
</a>
</g>
<!-- Node3&#45;&gt;Node2 -->
<g id="edge4" class="edge"><title>Node3&#45;&gt;Node2</title>
<path fill="none" stroke="#9a32cd" stroke-dasharray="5,2" d="M356,-118.041C356,-105.472 356,-89.5631 356,-79.8411"/>
<polygon fill="#9a32cd" stroke="#9a32cd" points="352.5,-118.372 356,-128.372 359.5,-118.372 352.5,-118.372"/>
<text text-anchor="middle" x="383.5" y="-101.5" font-family="Helvetica,sans-Serif" font-size="10.00"> thisOperator</text>
</g>
<!-- Node4 -->
<g id="node6" class="node"><title>Node4</title>
<a xlink:href="struct_om_1_1_default_atom.html" target="_top" xlink:title="Om::DefaultAtom\&lt; Operator \&gt;">
<polygon fill="none" stroke="black" points="284.5,-186.5 284.5,-205.5 427.5,-205.5 427.5,-186.5 284.5,-186.5"/>
<text text-anchor="middle" x="356" y="-193.5" font-family="Helvetica,sans-Serif" font-size="10.00">Om::DefaultAtom&lt; Operator &gt;</text>
</a>
</g>
<!-- Node4&#45;&gt;Node3 -->
<g id="edge6" class="edge"><title>Node4&#45;&gt;Node3</title>
<path fill="none" stroke="midnightblue" d="M356,-175.953C356,-166.287 356,-155.031 356,-147.505"/>
<polygon fill="midnightblue" stroke="midnightblue" points="352.5,-176.25 356,-186.25 359.5,-176.25 352.5,-176.25"/>
</g>
<!-- Node5 -->
<g id="node8" class="node"><title>Node5</title>
<a xlink:href="struct_om_1_1_default_element.html" target="_top" xlink:title="Om::DefaultElement\l\&lt; Operator, Atom \&gt;">
<polygon fill="none" stroke="black" points="244.5,-255 244.5,-285 345.5,-285 345.5,-255 244.5,-255"/>
<text text-anchor="start" x="252.5" y="-273" font-family="Helvetica,sans-Serif" font-size="10.00">Om::DefaultElement</text>
<text text-anchor="middle" x="295" y="-262" font-family="Helvetica,sans-Serif" font-size="10.00">&lt; Operator, Atom &gt;</text>
</a>
</g>
<!-- Node5&#45;&gt;Node4 -->
<g id="edge8" class="edge"><title>Node5&#45;&gt;Node4</title>
<path fill="none" stroke="midnightblue" d="M313.592,-247.055C325.364,-233.16 339.943,-215.952 348.579,-205.759"/>
<polygon fill="midnightblue" stroke="midnightblue" points="310.845,-244.883 307.052,-254.775 316.186,-249.408 310.845,-244.883"/>
</g>
<!-- Node6 -->
<g id="node10" class="node"><title>Node6</title>
<a xlink:href="struct_om_1_1_default_program.html" target="_top" xlink:title="Om::DefaultProgram\l\&lt; Operator, Atom \&gt;">
<polygon fill="none" stroke="black" points="237,-325 237,-355 339,-355 339,-325 237,-325"/>
<text text-anchor="start" x="245" y="-343" font-family="Helvetica,sans-Serif" font-size="10.00">Om::DefaultProgram</text>
<text text-anchor="middle" x="288" y="-332" font-family="Helvetica,sans-Serif" font-size="10.00">&lt; Operator, Atom &gt;</text>
</a>
</g>
<!-- Node6&#45;&gt;Node5 -->
<g id="edge10" class="edge"><title>Node6&#45;&gt;Node5</title>
<path fill="none" stroke="midnightblue" d="M290.494,-314.769C291.519,-304.814 292.67,-293.638 293.551,-285.072"/>
<polygon fill="midnightblue" stroke="midnightblue" points="286.993,-314.604 289.45,-324.91 293.956,-315.321 286.993,-314.604"/>
</g>
<!-- Node7 -->
<g id="node12" class="node"><title>Node7</title>
<a xlink:href="struct_om_1_1_default_queue.html" target="_top" xlink:title="Om::DefaultQueue\&lt; Operator,\l DefaultGiveable\&lt; Operator,\l Atom \&gt; \&gt;">
<polygon fill="none" stroke="black" points="106,-394.5 106,-435.5 250,-435.5 250,-394.5 106,-394.5"/>
<text text-anchor="start" x="114" y="-423.5" font-family="Helvetica,sans-Serif" font-size="10.00">Om::DefaultQueue&lt; Operator,</text>
<text text-anchor="start" x="114" y="-412.5" font-family="Helvetica,sans-Serif" font-size="10.00"> DefaultGiveable&lt; Operator,</text>
<text text-anchor="middle" x="178" y="-401.5" font-family="Helvetica,sans-Serif" font-size="10.00"> Atom &gt; &gt;</text>
</a>
</g>
<!-- Node7&#45;&gt;Node6 -->
<g id="edge12" class="edge"><title>Node7&#45;&gt;Node6</title>
<path fill="none" stroke="midnightblue" d="M216.105,-388.712C233.093,-377.438 252.462,-364.584 266.813,-355.06"/>
<polygon fill="midnightblue" stroke="midnightblue" points="213.875,-385.992 207.478,-394.437 217.745,-391.824 213.875,-385.992"/>
</g>
<!-- Node8 -->
<g id="node14" class="node"><title>Node8</title>
<a xlink:href="struct_om_1_1_default_giveable.html" target="_top" xlink:title="Om::DefaultGiveable\l\&lt; Operator, Atom \&gt;">
<polygon fill="none" stroke="black" points="125,-475 125,-505 231,-505 231,-475 125,-475"/>
<text text-anchor="start" x="133" y="-493" font-family="Helvetica,sans-Serif" font-size="10.00">Om::DefaultGiveable</text>
<text text-anchor="middle" x="178" y="-482" font-family="Helvetica,sans-Serif" font-size="10.00">&lt; Operator, Atom &gt;</text>
</a>
</g>
<!-- Node8&#45;&gt;Node7 -->
<g id="edge14" class="edge"><title>Node8&#45;&gt;Node7</title>
<path fill="none" stroke="midnightblue" d="M178,-464.882C178,-455.363 178,-444.569 178,-435.551"/>
<polygon fill="midnightblue" stroke="midnightblue" points="174.5,-464.925 178,-474.925 181.5,-464.925 174.5,-464.925"/>
</g>
<!-- Node9 -->
<g id="node16" class="node"><title>Node9</title>
<a xlink:href="struct_om_1_1_default_moveable.html" target="_top" xlink:title="Om::DefaultMoveable\l\&lt; Operator, DefaultCopyable\l\&lt; Operator, Atom \&gt; \&gt;">
<polygon fill="none" stroke="black" points="108,-544.5 108,-585.5 248,-585.5 248,-544.5 108,-544.5"/>
<text text-anchor="start" x="116" y="-573.5" font-family="Helvetica,sans-Serif" font-size="10.00">Om::DefaultMoveable</text>
<text text-anchor="start" x="116" y="-562.5" font-family="Helvetica,sans-Serif" font-size="10.00">&lt; Operator, DefaultCopyable</text>
<text text-anchor="middle" x="178" y="-551.5" font-family="Helvetica,sans-Serif" font-size="10.00">&lt; Operator, Atom &gt; &gt;</text>
</a>
</g>
<!-- Node9&#45;&gt;Node8 -->
<g id="edge16" class="edge"><title>Node9&#45;&gt;Node8</title>
<path fill="none" stroke="midnightblue" d="M178,-534.372C178,-524.335 178,-513.579 178,-505.289"/>
<polygon fill="midnightblue" stroke="midnightblue" points="174.5,-534.437 178,-544.437 181.5,-534.437 174.5,-534.437"/>
</g>
<!-- Node10 -->
<g id="node18" class="node"><title>Node10</title>
<a xlink:href="struct_om_1_1_default_copyable.html" target="_top" xlink:title="Om::DefaultCopyable\l\&lt; Operator, Atom \&gt;">
<polygon fill="none" stroke="black" points="123,-625 123,-655 233,-655 233,-625 123,-625"/>
<text text-anchor="start" x="131" y="-643" font-family="Helvetica,sans-Serif" font-size="10.00">Om::DefaultCopyable</text>
<text text-anchor="middle" x="178" y="-632" font-family="Helvetica,sans-Serif" font-size="10.00">&lt; Operator, Atom &gt;</text>
</a>
</g>
<!-- Node10&#45;&gt;Node9 -->
<g id="edge18" class="edge"><title>Node10&#45;&gt;Node9</title>
<path fill="none" stroke="midnightblue" d="M178,-614.882C178,-605.363 178,-594.569 178,-585.551"/>
<polygon fill="midnightblue" stroke="midnightblue" points="174.5,-614.925 178,-624.925 181.5,-614.925 174.5,-614.925"/>
</g>
<!-- Node11 -->
<g id="node20" class="node"><title>Node11</title>
<a xlink:href="struct_om_1_1_atom.html" target="_top" xlink:title="A leaf Element defined by a string.">
<polygon fill="none" stroke="black" points="148.5,-694.5 148.5,-713.5 207.5,-713.5 207.5,-694.5 148.5,-694.5"/>
<text text-anchor="middle" x="178" y="-701.5" font-family="Helvetica,sans-Serif" font-size="10.00">Om::Atom</text>
</a>
</g>
<!-- Node11&#45;&gt;Node10 -->
<g id="edge20" class="edge"><title>Node11&#45;&gt;Node10</title>
<path fill="none" stroke="midnightblue" d="M178,-684.183C178,-674.886 178,-663.851 178,-655.263"/>
<polygon fill="midnightblue" stroke="midnightblue" points="174.5,-684.379 178,-694.379 181.5,-684.379 174.5,-684.379"/>
</g>
<!-- Node12 -->
<g id="node22" class="node"><title>Node12</title>
<a xlink:href="struct_om_1_1_element.html" target="_top" xlink:title="An &quot;elemental&quot; Program comprised of a single item.">
<polygon fill="none" stroke="black" points="142.5,-752.5 142.5,-771.5 213.5,-771.5 213.5,-752.5 142.5,-752.5"/>
<text text-anchor="middle" x="178" y="-759.5" font-family="Helvetica,sans-Serif" font-size="10.00">Om::Element</text>
</a>
</g>
<!-- Node12&#45;&gt;Node11 -->
<g id="edge22" class="edge"><title>Node12&#45;&gt;Node11</title>
<path fill="none" stroke="midnightblue" d="M178,-741.953C178,-732.287 178,-721.031 178,-713.505"/>
<polygon fill="midnightblue" stroke="midnightblue" points="174.5,-742.25 178,-752.25 181.5,-742.25 174.5,-742.25"/>
</g>
<!-- Node13 -->
<g id="node24" class="node"><title>Node13</title>
<a xlink:href="struct_om_1_1_program.html" target="_top" xlink:title="The Program implementation.">
<polygon fill="none" stroke="black" points="142,-810.5 142,-829.5 214,-829.5 214,-810.5 142,-810.5"/>
<text text-anchor="middle" x="178" y="-817.5" font-family="Helvetica,sans-Serif" font-size="10.00">Om::Program</text>
</a>
</g>
<!-- Node13&#45;&gt;Node12 -->
<g id="edge24" class="edge"><title>Node13&#45;&gt;Node12</title>
<path fill="none" stroke="midnightblue" d="M178,-799.953C178,-790.287 178,-779.031 178,-771.505"/>
<polygon fill="midnightblue" stroke="midnightblue" points="174.5,-800.25 178,-810.25 181.5,-800.25 174.5,-800.25"/>
</g>
<!-- Node14 -->
<g id="node26" class="node"><title>Node14</title>
<a xlink:href="struct_om_1_1_giveable.html" target="_top" xlink:title="An object that can be copied or moved via Give.">
<polygon fill="none" stroke="black" points="51,-868.5 51,-887.5 127,-887.5 127,-868.5 51,-868.5"/>
<text text-anchor="middle" x="89" y="-875.5" font-family="Helvetica,sans-Serif" font-size="10.00">Om::Giveable</text>
</a>
</g>
<!-- Node14&#45;&gt;Node13 -->
<g id="edge26" class="edge"><title>Node14&#45;&gt;Node13</title>
<path fill="none" stroke="midnightblue" d="M111.119,-863.082C127.815,-852.577 150.192,-838.497 164.356,-829.585"/>
<polygon fill="midnightblue" stroke="midnightblue" points="109.117,-860.207 102.517,-868.495 112.845,-866.132 109.117,-860.207"/>
</g>
<!-- Node15 -->
<g id="node28" class="node"><title>Node15</title>
<a xlink:href="struct_om_1_1_copyable.html" target="_top" xlink:title="An object that can be passed to Copy to be copied.">
<polygon fill="none" stroke="black" points="0,-926.5 0,-945.5 80,-945.5 80,-926.5 0,-926.5"/>
<text text-anchor="middle" x="40" y="-933.5" font-family="Helvetica,sans-Serif" font-size="10.00">Om::Copyable</text>
</a>
</g>
<!-- Node15&#45;&gt;Node14 -->
<g id="edge28" class="edge"><title>Node15&#45;&gt;Node14</title>
<path fill="none" stroke="midnightblue" d="M54.4945,-918.435C63.3858,-908.273 74.4001,-895.686 81.558,-887.505"/>
<polygon fill="midnightblue" stroke="midnightblue" points="51.6073,-916.419 47.6562,-926.25 56.8754,-921.029 51.6073,-916.419"/>
</g>
<!-- Node16 -->
<g id="node30" class="node"><title>Node16</title>
<a xlink:href="struct_om_1_1_moveable.html" target="_top" xlink:title="An object that can be passed to Move to be moved.">
<polygon fill="none" stroke="black" points="98,-926.5 98,-945.5 178,-945.5 178,-926.5 98,-926.5"/>
<text text-anchor="middle" x="138" y="-933.5" font-family="Helvetica,sans-Serif" font-size="10.00">Om::Moveable</text>
</a>
</g>
<!-- Node16&#45;&gt;Node14 -->
<g id="edge30" class="edge"><title>Node16&#45;&gt;Node14</title>
<path fill="none" stroke="midnightblue" d="M123.506,-918.435C114.614,-908.273 103.6,-895.686 96.442,-887.505"/>
<polygon fill="midnightblue" stroke="midnightblue" points="121.125,-921.029 130.344,-926.25 126.393,-916.419 121.125,-921.029"/>
</g>
<!-- Node17 -->
<g id="node32" class="node"><title>Node17</title>
<a xlink:href="struct_om_1_1_queue.html" target="_top" xlink:title="A first&#45;in, first&#45;out Element processor.">
<polygon fill="none" stroke="black" points="145,-868.5 145,-887.5 211,-887.5 211,-868.5 145,-868.5"/>
<text text-anchor="middle" x="178" y="-875.5" font-family="Helvetica,sans-Serif" font-size="10.00">Om::Queue</text>
</a>
</g>
<!-- Node17&#45;&gt;Node13 -->
<g id="edge32" class="edge"><title>Node17&#45;&gt;Node13</title>
<path fill="none" stroke="midnightblue" d="M178,-857.953C178,-848.287 178,-837.031 178,-829.505"/>
<polygon fill="midnightblue" stroke="midnightblue" points="174.5,-858.25 178,-868.25 181.5,-858.25 174.5,-858.25"/>
</g>
<!-- Node18 -->
<g id="node34" class="node"><title>Node18</title>
<a xlink:href="struct_om_1_1_shareable.html" target="_top" xlink:title="Om::Shareable\&lt;\&gt;">
<polygon fill="none" stroke="black" points="229,-868.5 229,-887.5 321,-887.5 321,-868.5 229,-868.5"/>
<text text-anchor="middle" x="275" y="-875.5" font-family="Helvetica,sans-Serif" font-size="10.00">Om::Shareable&lt;&gt;</text>
</a>
</g>
<!-- Node18&#45;&gt;Node13 -->
<g id="edge34" class="edge"><title>Node18&#45;&gt;Node13</title>
<path fill="none" stroke="midnightblue" d="M251.396,-863.373C233.149,-852.838 208.451,-838.58 192.871,-829.585"/>
<polygon fill="midnightblue" stroke="midnightblue" points="249.857,-866.526 260.268,-868.495 253.357,-860.464 249.857,-866.526"/>
</g>
<!-- Node19 -->
<g id="node36" class="node"><title>Node19</title>
<a xlink:href="struct_om_1_1_taker.html" target="_top" xlink:title="Om::Taker\&lt; Operator \&gt;">
<polygon fill="none" stroke="black" points="268,-405.5 268,-424.5 382,-424.5 382,-405.5 268,-405.5"/>
<text text-anchor="middle" x="325" y="-412.5" font-family="Helvetica,sans-Serif" font-size="10.00">Om::Taker&lt; Operator &gt;</text>
</a>
</g>
<!-- Node19&#45;&gt;Node6 -->
<g id="edge36" class="edge"><title>Node19&#45;&gt;Node6</title>
<path fill="none" stroke="midnightblue" d="M316.013,-396.269C309.612,-383.64 301.124,-366.893 295.175,-355.156"/>
<polygon fill="midnightblue" stroke="midnightblue" points="312.967,-398.002 320.61,-405.339 319.211,-394.837 312.967,-398.002"/>
</g>
<!-- Node20 -->
<g id="node38" class="node"><title>Node20</title>
<a xlink:title="STL class.">
<polygon fill="none" stroke="#bfbfbf" points="372,-260.5 372,-279.5 428,-279.5 428,-260.5 372,-260.5"/>
<text text-anchor="middle" x="400" y="-267.5" font-family="Helvetica,sans-Serif" font-size="10.00">std::string</text>
</a>
</g>
<!-- Node20&#45;&gt;Node4 -->
<g id="edge38" class="edge"><title>Node20&#45;&gt;Node4</title>
<path fill="none" stroke="#9a32cd" stroke-dasharray="5,2" d="M389.519,-251.849C380.597,-237.25 368.156,-216.892 361.213,-205.531"/>
<polygon fill="#9a32cd" stroke="#9a32cd" points="386.579,-253.75 394.78,-260.458 392.552,-250.1 386.579,-253.75"/>
<text text-anchor="middle" x="400.5" y="-227.5" font-family="Helvetica,sans-Serif" font-size="10.00"> thisString</text>
</g>
<!-- Node21 -->
<g id="node40" class="node"><title>Node21</title>
<a xlink:title="STL class.">
<polygon fill="none" stroke="#bfbfbf" points="357.5,-325 357.5,-355 446.5,-355 446.5,-325 357.5,-325"/>
<text text-anchor="start" x="365.5" y="-343" font-family="Helvetica,sans-Serif" font-size="10.00">std::basic_string&lt;</text>
<text text-anchor="middle" x="402" y="-332" font-family="Helvetica,sans-Serif" font-size="10.00"> char &gt;</text>
</a>
</g>
<!-- Node21&#45;&gt;Node20 -->
<g id="edge40" class="edge"><title>Node21&#45;&gt;Node20</title>
<path fill="none" stroke="midnightblue" d="M401.291,-314.883C400.933,-302.733 400.522,-288.739 400.261,-279.883"/>
<polygon fill="midnightblue" stroke="midnightblue" points="397.793,-315.018 401.586,-324.91 404.79,-314.812 397.793,-315.018"/>
</g>
</g>
</svg>
