<?xml version="1.0" encoding="UTF-8" standalone="no"?>
<!DOCTYPE svg PUBLIC "-//W3C//DTD SVG 1.1//EN"
 "http://www.w3.org/Graphics/SVG/1.1/DTD/svg11.dtd">
<!-- Generated by graphviz version 2.28.0 (20120817.0054)
 -->
<!-- Title: Om::Sources::ContainerBackSource&lt; ThisItem, ThisContainer &gt; Pages: 1 -->
<svg width="514pt" height="88pt"
 viewBox="0.00 0.00 514.00 88.00" xmlns="http://www.w3.org/2000/svg" xmlns:xlink="http://www.w3.org/1999/xlink">
<g id="graph1" class="graph" transform="scale(1 1) rotate(0) translate(4 84)">
<title>Om::Sources::ContainerBackSource&lt; ThisItem, ThisContainer &gt;</title>
<!-- Node1 -->
<g id="node1" class="node"><title>Node1</title>
<polygon fill="#bfbfbf" stroke="black" points="346,-30 346,-60 506,-60 506,-30 346,-30"/>
<text text-anchor="start" x="354" y="-48" font-family="Helvetica,sans-Serif" font-size="10.00">Om::Sources::ContainerBack</text>
<text text-anchor="middle" x="426" y="-37" font-family="Helvetica,sans-Serif" font-size="10.00">Source&lt; ThisItem, ThisContainer &gt;</text>
</g>
<!-- Node2 -->
<g id="node2" class="node"><title>Node2</title>
<a xlink:href="struct_om_1_1_sources_1_1_default_source.html" target="_top" xlink:title="Om::Sources::DefaultSource\l\&lt; ThisItem, ContainerBackSource\l\&lt; ThisItem, ThisContainer \&gt; \&gt;">
<polygon fill="none" stroke="black" points="154,-24.5 154,-65.5 310,-65.5 310,-24.5 154,-24.5"/>
<text text-anchor="start" x="162" y="-53.5" font-family="Helvetica,sans-Serif" font-size="10.00">Om::Sources::DefaultSource</text>
<text text-anchor="start" x="162" y="-42.5" font-family="Helvetica,sans-Serif" font-size="10.00">&lt; ThisItem, ContainerBackSource</text>
<text text-anchor="middle" x="232" y="-31.5" font-family="Helvetica,sans-Serif" font-size="10.00">&lt; ThisItem, ThisContainer &gt; &gt;</text>
</a>
</g>
<!-- Node2&#45;&gt;Node1 -->
<g id="edge2" class="edge"><title>Node2&#45;&gt;Node1</title>
<path fill="none" stroke="midnightblue" d="M320.463,-45C328.875,-45 337.375,-45 345.702,-45"/>
<polygon fill="midnightblue" stroke="midnightblue" points="320.264,-41.5001 310.264,-45 320.264,-48.5001 320.264,-41.5001"/>
</g>
<!-- Node3 -->
<g id="node4" class="node"><title>Node3</title>
<a xlink:href="struct_om_1_1_source.html" target="_top" xlink:title="Any object that items can be pulled from.">
<polygon fill="none" stroke="black" points="0.5,-60.5 0.5,-79.5 117.5,-79.5 117.5,-60.5 0.5,-60.5"/>
<text text-anchor="middle" x="59" y="-67.5" font-family="Helvetica,sans-Serif" font-size="10.00">Om::Source&lt; ThisItem &gt;</text>
</a>
</g>
<!-- Node3&#45;&gt;Node2 -->
<g id="edge4" class="edge"><title>Node3&#45;&gt;Node2</title>
<path fill="none" stroke="midnightblue" d="M128.056,-60.0503C136.504,-58.8152 145.189,-57.5454 153.762,-56.292"/>
<polygon fill="midnightblue" stroke="midnightblue" points="127.281,-56.6263 117.893,-61.5361 128.294,-63.5526 127.281,-56.6263"/>
</g>
<!-- Node4 -->
<g id="node6" class="node"><title>Node4</title>
<polygon fill="none" stroke="#bfbfbf" points="11.5,-0.5 11.5,-41.5 106.5,-41.5 106.5,-0.5 11.5,-0.5"/>
<text text-anchor="start" x="19.5" y="-29.5" font-family="Helvetica,sans-Serif" font-size="10.00">std::iterator&lt; std</text>
<text text-anchor="start" x="19.5" y="-18.5" font-family="Helvetica,sans-Serif" font-size="10.00">::input_iterator_tag,</text>
<text text-anchor="middle" x="59" y="-7.5" font-family="Helvetica,sans-Serif" font-size="10.00"> ThisItem &gt;</text>
</g>
<!-- Node4&#45;&gt;Node2 -->
<g id="edge6" class="edge"><title>Node4&#45;&gt;Node2</title>
<path fill="none" stroke="midnightblue" d="M116.872,-28.9821C128.689,-30.6406 141.331,-32.4149 153.739,-34.1564"/>
<polygon fill="midnightblue" stroke="midnightblue" points="117.116,-25.482 106.727,-27.5581 116.143,-32.4141 117.116,-25.482"/>
</g>
</g>
</svg>
