<?xml version="1.0" encoding="UTF-8" standalone="no"?>
<!DOCTYPE svg PUBLIC "-//W3C//DTD SVG 1.1//EN"
 "http://www.w3.org/Graphics/SVG/1.1/DTD/svg11.dtd">
<!-- Generated by graphviz version 2.28.0 (20120817.0054)
 -->
<!-- Title: code/om/operations/substitute_operation.cpp Pages: 1 -->
<svg width="132pt" height="108pt"
 viewBox="0.00 0.00 132.00 108.00" xmlns="http://www.w3.org/2000/svg" xmlns:xlink="http://www.w3.org/1999/xlink">
<g id="graph1" class="graph" transform="scale(1 1) rotate(0) translate(4 104)">
<title>code/om/operations/substitute_operation.cpp</title>
<!-- Node1 -->
<g id="node1" class="node"><title>Node1</title>
<polygon fill="#bfbfbf" stroke="black" points="0.5,-69 0.5,-99 123.5,-99 123.5,-69 0.5,-69"/>
<text text-anchor="start" x="8.5" y="-87" font-family="Helvetica,sans-Serif" font-size="10.00">code/om/operations</text>
<text text-anchor="middle" x="62" y="-76" font-family="Helvetica,sans-Serif" font-size="10.00">/substitute_operation.cpp</text>
</g>
<!-- Node2 -->
<g id="node3" class="node"><title>Node2</title>
<a xlink:href="substitute__operation_8hpp.html" target="_top" xlink:title="Om header file.">
<polygon fill="none" stroke="black" points="0,-1 0,-31 124,-31 124,-1 0,-1"/>
<text text-anchor="start" x="8" y="-19" font-family="Helvetica,sans-Serif" font-size="10.00">code/om/operations</text>
<text text-anchor="middle" x="62" y="-8" font-family="Helvetica,sans-Serif" font-size="10.00">/substitute_operation.hpp</text>
</a>
</g>
<!-- Node1&#45;&gt;Node2 -->
<g id="edge2" class="edge"><title>Node1&#45;&gt;Node2</title>
<path fill="none" stroke="midnightblue" d="M55.4547,-58.5322C55.0055,-49.3606 55.2957,-39.2449 56.3252,-31.2931"/>
<polygon fill="midnightblue" stroke="midnightblue" points="51.9829,-59.0133 56.3216,-68.679 58.9575,-58.4173 51.9829,-59.0133"/>
</g>
<!-- Node2&#45;&gt;Node1 -->
<g id="edge4" class="edge"><title>Node2&#45;&gt;Node1</title>
<path fill="none" stroke="midnightblue" d="M68.5438,-41.4356C68.9947,-50.605 68.7062,-60.7221 67.6784,-68.679"/>
<polygon fill="midnightblue" stroke="midnightblue" points="72.0157,-40.9578 67.6748,-31.2931 65.0413,-41.5554 72.0157,-40.9578"/>
</g>
</g>
</svg>
