<?xml version="1.0" encoding="UTF-8" standalone="no"?>
<!DOCTYPE svg PUBLIC "-//W3C//DTD SVG 1.1//EN"
 "http://www.w3.org/Graphics/SVG/1.1/DTD/svg11.dtd">
<!-- Generated by graphviz version 2.30.1 (20130221.2233)
 -->
<!-- Title: om/operations/swap_operation.cpp Pages: 1 -->
<svg width="752pt" height="252pt"
 viewBox="0.00 0.00 752.00 252.00" xmlns="http://www.w3.org/2000/svg" xmlns:xlink="http://www.w3.org/1999/xlink">
<g id="graph0" class="graph" transform="scale(1 1) rotate(0) translate(4 248)">
<title>om/operations/swap_operation.cpp</title>
<!-- Node1 -->
<g id="node1" class="node"><title>Node1</title>
<polygon fill="#bfbfbf" stroke="black" points="325.254,-211 325.254,-243 430.746,-243 430.746,-211 325.254,-211"/>
<text text-anchor="start" x="333.254" y="-229" font-family="Helvetica,sans-Serif" font-size="10.00">om/operations/swap</text>
<text text-anchor="middle" x="378" y="-217" font-family="Helvetica,sans-Serif" font-size="10.00">_operation.cpp</text>
</g>
<!-- Node2 -->
<g id="node2" class="node"><title>Node2</title>
<g id="a_node2"><a xlink:href="swap__operation_8hpp.html" target="_top" xlink:title="Om header file. ">
<polygon fill="none" stroke="black" points="325.254,-141 325.254,-173 430.746,-173 430.746,-141 325.254,-141"/>
<text text-anchor="start" x="333.254" y="-159" font-family="Helvetica,sans-Serif" font-size="10.00">om/operations/swap</text>
<text text-anchor="middle" x="378" y="-147" font-family="Helvetica,sans-Serif" font-size="10.00">_operation.hpp</text>
</a>
</g>
</g>
<!-- Node1&#45;&gt;Node2 -->
<g id="edge1" class="edge"><title>Node1&#45;&gt;Node2</title>
<path fill="none" stroke="midnightblue" d="M371.461,-200.92C371.009,-191.56 371.284,-181.229 372.285,-173.049"/>
<polygon fill="midnightblue" stroke="midnightblue" points="367.974,-201.228 372.28,-210.909 374.951,-200.656 367.974,-201.228"/>
</g>
<!-- Node3 -->
<g id="node3" class="node"><title>Node3</title>
<g id="a_node3"><a xlink:href="expression__back__push__operation_8cpp.html" target="_top" xlink:title="Om source file. ">
<polygon fill="none" stroke="black" points="-0.0463867,-71 -0.0463867,-103 136.046,-103 136.046,-71 -0.0463867,-71"/>
<text text-anchor="start" x="7.95361" y="-89" font-family="Helvetica,sans-Serif" font-size="10.00">om/operations/expression</text>
<text text-anchor="middle" x="68" y="-77" font-family="Helvetica,sans-Serif" font-size="10.00">_back_push_operation.cpp</text>
</a>
</g>
</g>
<!-- Node2&#45;&gt;Node3 -->
<g id="edge2" class="edge"><title>Node2&#45;&gt;Node3</title>
<path fill="none" stroke="midnightblue" d="M314.973,-142.175C263.029,-130.781 189.496,-114.651 136.186,-102.957"/>
<polygon fill="midnightblue" stroke="midnightblue" points="314.544,-145.664 325.061,-144.388 316.044,-138.826 314.544,-145.664"/>
</g>
<!-- Node5 -->
<g id="node5" class="node"><title>Node5</title>
<g id="a_node5"><a xlink:href="lexicon__back__push__operation_8cpp.html" target="_top" xlink:title="Om source file. ">
<polygon fill="none" stroke="black" points="154.954,-71 154.954,-103 291.046,-103 291.046,-71 154.954,-71"/>
<text text-anchor="start" x="162.954" y="-89" font-family="Helvetica,sans-Serif" font-size="10.00">om/operations/lexicon</text>
<text text-anchor="middle" x="223" y="-77" font-family="Helvetica,sans-Serif" font-size="10.00">_back_push_operation.cpp</text>
</a>
</g>
</g>
<!-- Node2&#45;&gt;Node5 -->
<g id="edge5" class="edge"><title>Node2&#45;&gt;Node5</title>
<path fill="none" stroke="midnightblue" d="M334.218,-136.793C309.851,-126.102 279.959,-112.988 257.303,-103.049"/>
<polygon fill="midnightblue" stroke="midnightblue" points="333.037,-140.096 343.6,-140.909 335.849,-133.686 333.037,-140.096"/>
</g>
<!-- Node7 -->
<g id="node7" class="node"><title>Node7</title>
<g id="a_node7"><a xlink:href="literal__back__push__operation_8cpp.html" target="_top" xlink:title="Om source file. ">
<polygon fill="none" stroke="black" points="309.954,-71 309.954,-103 446.046,-103 446.046,-71 309.954,-71"/>
<text text-anchor="start" x="317.954" y="-89" font-family="Helvetica,sans-Serif" font-size="10.00">om/operations/literal</text>
<text text-anchor="middle" x="378" y="-77" font-family="Helvetica,sans-Serif" font-size="10.00">_back_push_operation.cpp</text>
</a>
</g>
</g>
<!-- Node2&#45;&gt;Node7 -->
<g id="edge8" class="edge"><title>Node2&#45;&gt;Node7</title>
<path fill="none" stroke="midnightblue" d="M378,-130.617C378,-121.338 378,-111.141 378,-103.049"/>
<polygon fill="midnightblue" stroke="midnightblue" points="374.5,-130.909 378,-140.909 381.5,-130.909 374.5,-130.909"/>
</g>
<!-- Node9 -->
<g id="node9" class="node"><title>Node9</title>
<g id="a_node9"><a xlink:href="operator__back__push__operation_8cpp.html" target="_top" xlink:title="Om source file. ">
<polygon fill="none" stroke="black" points="464.954,-71 464.954,-103 601.046,-103 601.046,-71 464.954,-71"/>
<text text-anchor="start" x="472.954" y="-89" font-family="Helvetica,sans-Serif" font-size="10.00">om/operations/operator</text>
<text text-anchor="middle" x="533" y="-77" font-family="Helvetica,sans-Serif" font-size="10.00">_back_push_operation.cpp</text>
</a>
</g>
</g>
<!-- Node2&#45;&gt;Node9 -->
<g id="edge11" class="edge"><title>Node2&#45;&gt;Node9</title>
<path fill="none" stroke="midnightblue" d="M421.782,-136.793C446.149,-126.102 476.041,-112.988 498.697,-103.049"/>
<polygon fill="midnightblue" stroke="midnightblue" points="420.151,-133.686 412.4,-140.909 422.963,-140.096 420.151,-133.686"/>
</g>
<!-- Node11 -->
<g id="node11" class="node"><title>Node11</title>
<g id="a_node11"><a xlink:href="rearrange__operation_8cpp.html" target="_top" xlink:title="Om source file. ">
<polygon fill="none" stroke="black" points="619.247,-71 619.247,-103 744.753,-103 744.753,-71 619.247,-71"/>
<text text-anchor="start" x="627.247" y="-89" font-family="Helvetica,sans-Serif" font-size="10.00">om/operations/rearrange</text>
<text text-anchor="middle" x="682" y="-77" font-family="Helvetica,sans-Serif" font-size="10.00">_operation.cpp</text>
</a>
</g>
</g>
<!-- Node2&#45;&gt;Node11 -->
<g id="edge14" class="edge"><title>Node2&#45;&gt;Node11</title>
<path fill="none" stroke="midnightblue" d="M440.764,-141.961C492.97,-130.283 566.919,-113.742 619.149,-102.059"/>
<polygon fill="midnightblue" stroke="midnightblue" points="439.948,-138.557 430.953,-144.155 441.476,-145.388 439.948,-138.557"/>
</g>
<!-- Node2&#45;&gt;Node1 -->
<g id="edge17" class="edge"><title>Node2&#45;&gt;Node1</title>
<path fill="none" stroke="midnightblue" d="M384.537,-183.032C384.991,-192.389 384.719,-202.721 383.72,-210.909"/>
<polygon fill="midnightblue" stroke="midnightblue" points="388.024,-182.728 383.715,-173.049 381.047,-183.303 388.024,-182.728"/>
</g>
<!-- Node4 -->
<g id="node4" class="node"><title>Node4</title>
<g id="a_node4"><a xlink:href="expression__back__push__operation_8hpp.html" target="_top" xlink:title="Om header file. ">
<polygon fill="none" stroke="black" points="-0.327148,-1 -0.327148,-33 136.327,-33 136.327,-1 -0.327148,-1"/>
<text text-anchor="start" x="7.67285" y="-19" font-family="Helvetica,sans-Serif" font-size="10.00">om/operations/expression</text>
<text text-anchor="middle" x="68" y="-7" font-family="Helvetica,sans-Serif" font-size="10.00">_back_push_operation.hpp</text>
</a>
</g>
</g>
<!-- Node3&#45;&gt;Node4 -->
<g id="edge3" class="edge"><title>Node3&#45;&gt;Node4</title>
<path fill="none" stroke="midnightblue" d="M61.4608,-60.9196C61.0088,-51.5597 61.2836,-41.2293 62.2851,-33.0492"/>
<polygon fill="midnightblue" stroke="midnightblue" points="57.9743,-61.2281 62.28,-70.9086 64.9509,-60.656 57.9743,-61.2281"/>
</g>
<!-- Node4&#45;&gt;Node3 -->
<g id="edge4" class="edge"><title>Node4&#45;&gt;Node3</title>
<path fill="none" stroke="midnightblue" d="M74.5368,-43.0321C74.9913,-52.3887 74.7191,-62.7211 73.72,-70.9086"/>
<polygon fill="midnightblue" stroke="midnightblue" points="78.0237,-42.7283 73.7149,-33.0492 71.0474,-43.3027 78.0237,-42.7283"/>
</g>
<!-- Node6 -->
<g id="node6" class="node"><title>Node6</title>
<g id="a_node6"><a xlink:href="lexicon__back__push__operation_8hpp.html" target="_top" xlink:title="Om header file. ">
<polygon fill="none" stroke="black" points="154.673,-1 154.673,-33 291.327,-33 291.327,-1 154.673,-1"/>
<text text-anchor="start" x="162.673" y="-19" font-family="Helvetica,sans-Serif" font-size="10.00">om/operations/lexicon</text>
<text text-anchor="middle" x="223" y="-7" font-family="Helvetica,sans-Serif" font-size="10.00">_back_push_operation.hpp</text>
</a>
</g>
</g>
<!-- Node5&#45;&gt;Node6 -->
<g id="edge6" class="edge"><title>Node5&#45;&gt;Node6</title>
<path fill="none" stroke="midnightblue" d="M216.461,-60.9196C216.009,-51.5597 216.284,-41.2293 217.285,-33.0492"/>
<polygon fill="midnightblue" stroke="midnightblue" points="212.974,-61.2281 217.28,-70.9086 219.951,-60.656 212.974,-61.2281"/>
</g>
<!-- Node6&#45;&gt;Node5 -->
<g id="edge7" class="edge"><title>Node6&#45;&gt;Node5</title>
<path fill="none" stroke="midnightblue" d="M229.537,-43.0321C229.991,-52.3887 229.719,-62.7211 228.72,-70.9086"/>
<polygon fill="midnightblue" stroke="midnightblue" points="233.024,-42.7283 228.715,-33.0492 226.047,-43.3027 233.024,-42.7283"/>
</g>
<!-- Node8 -->
<g id="node8" class="node"><title>Node8</title>
<g id="a_node8"><a xlink:href="literal__back__push__operation_8hpp.html" target="_top" xlink:title="Om header file. ">
<polygon fill="none" stroke="black" points="309.673,-1 309.673,-33 446.327,-33 446.327,-1 309.673,-1"/>
<text text-anchor="start" x="317.673" y="-19" font-family="Helvetica,sans-Serif" font-size="10.00">om/operations/literal</text>
<text text-anchor="middle" x="378" y="-7" font-family="Helvetica,sans-Serif" font-size="10.00">_back_push_operation.hpp</text>
</a>
</g>
</g>
<!-- Node7&#45;&gt;Node8 -->
<g id="edge9" class="edge"><title>Node7&#45;&gt;Node8</title>
<path fill="none" stroke="midnightblue" d="M371.461,-60.9196C371.009,-51.5597 371.284,-41.2293 372.285,-33.0492"/>
<polygon fill="midnightblue" stroke="midnightblue" points="367.974,-61.2281 372.28,-70.9086 374.951,-60.656 367.974,-61.2281"/>
</g>
<!-- Node8&#45;&gt;Node7 -->
<g id="edge10" class="edge"><title>Node8&#45;&gt;Node7</title>
<path fill="none" stroke="midnightblue" d="M384.537,-43.0321C384.991,-52.3887 384.719,-62.7211 383.72,-70.9086"/>
<polygon fill="midnightblue" stroke="midnightblue" points="388.024,-42.7283 383.715,-33.0492 381.047,-43.3027 388.024,-42.7283"/>
</g>
<!-- Node10 -->
<g id="node10" class="node"><title>Node10</title>
<g id="a_node10"><a xlink:href="operator__back__push__operation_8hpp.html" target="_top" xlink:title="Om header file. ">
<polygon fill="none" stroke="black" points="464.673,-1 464.673,-33 601.327,-33 601.327,-1 464.673,-1"/>
<text text-anchor="start" x="472.673" y="-19" font-family="Helvetica,sans-Serif" font-size="10.00">om/operations/operator</text>
<text text-anchor="middle" x="533" y="-7" font-family="Helvetica,sans-Serif" font-size="10.00">_back_push_operation.hpp</text>
</a>
</g>
</g>
<!-- Node9&#45;&gt;Node10 -->
<g id="edge12" class="edge"><title>Node9&#45;&gt;Node10</title>
<path fill="none" stroke="midnightblue" d="M526.461,-60.9196C526.009,-51.5597 526.284,-41.2293 527.285,-33.0492"/>
<polygon fill="midnightblue" stroke="midnightblue" points="522.974,-61.2281 527.28,-70.9086 529.951,-60.656 522.974,-61.2281"/>
</g>
<!-- Node10&#45;&gt;Node9 -->
<g id="edge13" class="edge"><title>Node10&#45;&gt;Node9</title>
<path fill="none" stroke="midnightblue" d="M539.537,-43.0321C539.991,-52.3887 539.719,-62.7211 538.72,-70.9086"/>
<polygon fill="midnightblue" stroke="midnightblue" points="543.024,-42.7283 538.715,-33.0492 536.047,-43.3027 543.024,-42.7283"/>
</g>
<!-- Node12 -->
<g id="node12" class="node"><title>Node12</title>
<g id="a_node12"><a xlink:href="rearrange__operation_8hpp.html" target="_top" xlink:title="Om header file. ">
<polygon fill="none" stroke="black" points="619.247,-1 619.247,-33 744.753,-33 744.753,-1 619.247,-1"/>
<text text-anchor="start" x="627.247" y="-19" font-family="Helvetica,sans-Serif" font-size="10.00">om/operations/rearrange</text>
<text text-anchor="middle" x="682" y="-7" font-family="Helvetica,sans-Serif" font-size="10.00">_operation.hpp</text>
</a>
</g>
</g>
<!-- Node11&#45;&gt;Node12 -->
<g id="edge15" class="edge"><title>Node11&#45;&gt;Node12</title>
<path fill="none" stroke="midnightblue" d="M675.461,-60.9196C675.009,-51.5597 675.284,-41.2293 676.285,-33.0492"/>
<polygon fill="midnightblue" stroke="midnightblue" points="671.974,-61.2281 676.28,-70.9086 678.951,-60.656 671.974,-61.2281"/>
</g>
<!-- Node12&#45;&gt;Node11 -->
<g id="edge16" class="edge"><title>Node12&#45;&gt;Node11</title>
<path fill="none" stroke="midnightblue" d="M688.537,-43.0321C688.991,-52.3887 688.719,-62.7211 687.72,-70.9086"/>
<polygon fill="midnightblue" stroke="midnightblue" points="692.024,-42.7283 687.715,-33.0492 685.047,-43.3027 692.024,-42.7283"/>
</g>
</g>
</svg>
