<?xml version="1.0" encoding="UTF-8" standalone="no"?>
<!DOCTYPE svg PUBLIC "-//W3C//DTD SVG 1.1//EN"
 "http://www.w3.org/Graphics/SVG/1.1/DTD/svg11.dtd">
<!-- Generated by graphviz version 2.36.0 (20140111.2315)
 -->
<!-- Title: om/operation/swap_operation.hpp Pages: 1 -->
<svg width="174pt" height="84pt"
 viewBox="0.00 0.00 174.00 84.00" xmlns="http://www.w3.org/2000/svg" xmlns:xlink="http://www.w3.org/1999/xlink">
<g id="graph0" class="graph" transform="scale(1 1) rotate(0) translate(4 80)">
<title>om/operation/swap_operation.hpp</title>
<!-- Node1 -->
<g id="node1" class="node"><title>Node1</title>
<polygon fill="#bfbfbf" stroke="black" points="-0.60791,-57 -0.60791,-75 166.608,-75 166.608,-57 -0.60791,-57"/>
<text text-anchor="middle" x="83" y="-63" font-family="Helvetica,sans-Serif" font-size="10.00">om/operation/swap_operation.hpp</text>
</g>
<!-- Node2 -->
<g id="node2" class="node"><title>Node2</title>
<g id="a_node2"><a xlink:href="swap__operation_8cpp.html" target="_top" xlink:title="Om source file. ">
<polygon fill="none" stroke="black" points="-0.327148,-1 -0.327148,-19 166.327,-19 166.327,-1 -0.327148,-1"/>
<text text-anchor="middle" x="83" y="-7" font-family="Helvetica,sans-Serif" font-size="10.00">om/operation/swap_operation.cpp</text>
</a>
</g>
</g>
<!-- Node1&#45;&gt;Node2 -->
<g id="edge1" class="edge"><title>Node1&#45;&gt;Node2</title>
<path fill="none" stroke="midnightblue" d="M76.5665,-46.6333C75.8607,-37.3129 76.3354,-26.4586 77.9906,-19.2014"/>
<polygon fill="midnightblue" stroke="midnightblue" points="73.1026,-47.1352 77.9375,-56.5625 80.0368,-46.1777 73.1026,-47.1352"/>
</g>
<!-- Node2&#45;&gt;Node1 -->
<g id="edge2" class="edge"><title>Node2&#45;&gt;Node1</title>
<path fill="none" stroke="midnightblue" d="M89.4336,-29.3691C90.1317,-38.5884 89.6746,-49.308 88.0625,-56.5625"/>
<polygon fill="midnightblue" stroke="midnightblue" points="92.8629,-28.6192 88.0094,-19.2014 85.9305,-29.5903 92.8629,-28.6192"/>
</g>
</g>
</svg>
