<?xml version="1.0" encoding="UTF-8" standalone="no"?>
<!DOCTYPE svg PUBLIC "-//W3C//DTD SVG 1.1//EN"
 "http://www.w3.org/Graphics/SVG/1.1/DTD/svg11.dtd">
<!-- Generated by graphviz version 2.30.1 (20130221.2233)
 -->
<!-- Title: om/operation/swap_operation.hpp Pages: 1 -->
<svg width="932pt" height="170pt"
 viewBox="0.00 0.00 932.00 170.00" xmlns="http://www.w3.org/2000/svg" xmlns:xlink="http://www.w3.org/1999/xlink">
<g id="graph0" class="graph" transform="scale(1 1) rotate(0) translate(4 166)">
<title>om/operation/swap_operation.hpp</title>
<!-- Node1 -->
<g id="node1" class="node"><title>Node1</title>
<polygon fill="#bfbfbf" stroke="black" points="449.392,-141 449.392,-161 616.608,-161 616.608,-141 449.392,-141"/>
<text text-anchor="middle" x="533" y="-147" font-family="Helvetica,sans-Serif" font-size="10.00">om/operation/swap_operation.hpp</text>
</g>
<!-- Node2 -->
<g id="node2" class="node"><title>Node2</title>
<g id="a_node2"><a xlink:href="expression__back__push__operation_8cpp.html" target="_top" xlink:title="Om source file. ">
<polygon fill="none" stroke="black" points="-0.0463867,-71 -0.0463867,-103 136.046,-103 136.046,-71 -0.0463867,-71"/>
<text text-anchor="start" x="7.95361" y="-89" font-family="Helvetica,sans-Serif" font-size="10.00">om/operation/expression</text>
<text text-anchor="middle" x="68" y="-77" font-family="Helvetica,sans-Serif" font-size="10.00">_back_push_operation.cpp</text>
</a>
</g>
</g>
<!-- Node1&#45;&gt;Node2 -->
<g id="edge1" class="edge"><title>Node1&#45;&gt;Node2</title>
<path fill="none" stroke="midnightblue" d="M438.942,-141.053C360.383,-133.046 245.56,-120.099 146,-104 142.861,-103.492 139.657,-102.947 136.424,-102.374"/>
<polygon fill="midnightblue" stroke="midnightblue" points="438.997,-144.576 449.299,-142.101 439.702,-137.612 438.997,-144.576"/>
</g>
<!-- Node4 -->
<g id="node4" class="node"><title>Node4</title>
<g id="a_node4"><a xlink:href="lexicon__back__push__operation_8cpp.html" target="_top" xlink:title="Om source file. ">
<polygon fill="none" stroke="black" points="154.954,-71 154.954,-103 291.046,-103 291.046,-71 154.954,-71"/>
<text text-anchor="start" x="162.954" y="-89" font-family="Helvetica,sans-Serif" font-size="10.00">om/operation/lexicon</text>
<text text-anchor="middle" x="223" y="-77" font-family="Helvetica,sans-Serif" font-size="10.00">_back_push_operation.cpp</text>
</a>
</g>
</g>
<!-- Node1&#45;&gt;Node4 -->
<g id="edge4" class="edge"><title>Node1&#45;&gt;Node4</title>
<path fill="none" stroke="midnightblue" d="M476.782,-138.961C429.785,-129.707 361,-116.102 301,-104 297.748,-103.344 294.42,-102.67 291.059,-101.988"/>
<polygon fill="midnightblue" stroke="midnightblue" points="476.276,-142.428 486.763,-140.925 477.628,-135.56 476.276,-142.428"/>
</g>
<!-- Node6 -->
<g id="node6" class="node"><title>Node6</title>
<g id="a_node6"><a xlink:href="literal__back__push__operation_8cpp.html" target="_top" xlink:title="Om source file. ">
<polygon fill="none" stroke="black" points="309.954,-71 309.954,-103 446.046,-103 446.046,-71 309.954,-71"/>
<text text-anchor="start" x="317.954" y="-89" font-family="Helvetica,sans-Serif" font-size="10.00">om/operation/literal</text>
<text text-anchor="middle" x="378" y="-77" font-family="Helvetica,sans-Serif" font-size="10.00">_back_push_operation.cpp</text>
</a>
</g>
</g>
<!-- Node1&#45;&gt;Node6 -->
<g id="edge7" class="edge"><title>Node1&#45;&gt;Node6</title>
<path fill="none" stroke="midnightblue" d="M501.127,-137.251C476.29,-127.316 441.744,-113.498 415.564,-103.026"/>
<polygon fill="midnightblue" stroke="midnightblue" points="499.877,-140.52 510.462,-140.985 502.477,-134.021 499.877,-140.52"/>
</g>
<!-- Node8 -->
<g id="node8" class="node"><title>Node8</title>
<g id="a_node8"><a xlink:href="operator__back__push__operation_8cpp.html" target="_top" xlink:title="Om source file. ">
<polygon fill="none" stroke="black" points="464.954,-71 464.954,-103 601.046,-103 601.046,-71 464.954,-71"/>
<text text-anchor="start" x="472.954" y="-89" font-family="Helvetica,sans-Serif" font-size="10.00">om/operation/operator</text>
<text text-anchor="middle" x="533" y="-77" font-family="Helvetica,sans-Serif" font-size="10.00">_back_push_operation.cpp</text>
</a>
</g>
</g>
<!-- Node1&#45;&gt;Node8 -->
<g id="edge10" class="edge"><title>Node1&#45;&gt;Node8</title>
<path fill="none" stroke="midnightblue" d="M533,-130.775C533,-121.986 533,-111.715 533,-103.44"/>
<polygon fill="midnightblue" stroke="midnightblue" points="529.5,-130.852 533,-140.852 536.5,-130.852 529.5,-130.852"/>
</g>
<!-- Node10 -->
<g id="node10" class="node"><title>Node10</title>
<g id="a_node10"><a xlink:href="rearrange__operation_8cpp.html" target="_top" xlink:title="Om source file. ">
<polygon fill="none" stroke="black" points="618.747,-71 618.747,-103 739.253,-103 739.253,-71 618.747,-71"/>
<text text-anchor="start" x="626.747" y="-89" font-family="Helvetica,sans-Serif" font-size="10.00">om/operation/rearrange</text>
<text text-anchor="middle" x="679" y="-77" font-family="Helvetica,sans-Serif" font-size="10.00">_operation.cpp</text>
</a>
</g>
</g>
<!-- Node1&#45;&gt;Node10 -->
<g id="edge13" class="edge"><title>Node1&#45;&gt;Node10</title>
<path fill="none" stroke="midnightblue" d="M563.646,-136.986C586.993,-127.072 619.175,-113.405 643.617,-103.026"/>
<polygon fill="midnightblue" stroke="midnightblue" points="562.066,-133.854 554.23,-140.985 564.802,-140.297 562.066,-133.854"/>
</g>
<!-- Node12 -->
<g id="node12" class="node"><title>Node12</title>
<g id="a_node12"><a xlink:href="swap__operation_8cpp.html" target="_top" xlink:title="Om source file. ">
<polygon fill="none" stroke="black" points="757.673,-77 757.673,-97 924.327,-97 924.327,-77 757.673,-77"/>
<text text-anchor="middle" x="841" y="-83" font-family="Helvetica,sans-Serif" font-size="10.00">om/operation/swap_operation.cpp</text>
</a>
</g>
</g>
<!-- Node1&#45;&gt;Node12 -->
<g id="edge16" class="edge"><title>Node1&#45;&gt;Node12</title>
<path fill="none" stroke="midnightblue" d="M582.791,-138.907C640.198,-126.942 733.828,-108.12 791.23,-97.0262"/>
<polygon fill="midnightblue" stroke="midnightblue" points="581.929,-135.511 572.858,-140.985 583.363,-142.363 581.929,-135.511"/>
</g>
<!-- Node3 -->
<g id="node3" class="node"><title>Node3</title>
<g id="a_node3"><a xlink:href="expression__back__push__operation_8hpp.html" target="_top" xlink:title="Om header file. ">
<polygon fill="none" stroke="black" points="-0.327148,-1 -0.327148,-33 136.327,-33 136.327,-1 -0.327148,-1"/>
<text text-anchor="start" x="7.67285" y="-19" font-family="Helvetica,sans-Serif" font-size="10.00">om/operation/expression</text>
<text text-anchor="middle" x="68" y="-7" font-family="Helvetica,sans-Serif" font-size="10.00">_back_push_operation.hpp</text>
</a>
</g>
</g>
<!-- Node2&#45;&gt;Node3 -->
<g id="edge2" class="edge"><title>Node2&#45;&gt;Node3</title>
<path fill="none" stroke="midnightblue" d="M61.4608,-60.9196C61.0088,-51.5597 61.2836,-41.2293 62.2851,-33.0492"/>
<polygon fill="midnightblue" stroke="midnightblue" points="57.9743,-61.2281 62.28,-70.9086 64.9509,-60.656 57.9743,-61.2281"/>
</g>
<!-- Node3&#45;&gt;Node2 -->
<g id="edge3" class="edge"><title>Node3&#45;&gt;Node2</title>
<path fill="none" stroke="midnightblue" d="M74.5368,-43.0321C74.9913,-52.3887 74.7191,-62.7211 73.72,-70.9086"/>
<polygon fill="midnightblue" stroke="midnightblue" points="78.0237,-42.7283 73.7149,-33.0492 71.0474,-43.3027 78.0237,-42.7283"/>
</g>
<!-- Node5 -->
<g id="node5" class="node"><title>Node5</title>
<g id="a_node5"><a xlink:href="lexicon__back__push__operation_8hpp.html" target="_top" xlink:title="Om header file. ">
<polygon fill="none" stroke="black" points="154.673,-1 154.673,-33 291.327,-33 291.327,-1 154.673,-1"/>
<text text-anchor="start" x="162.673" y="-19" font-family="Helvetica,sans-Serif" font-size="10.00">om/operation/lexicon</text>
<text text-anchor="middle" x="223" y="-7" font-family="Helvetica,sans-Serif" font-size="10.00">_back_push_operation.hpp</text>
</a>
</g>
</g>
<!-- Node4&#45;&gt;Node5 -->
<g id="edge5" class="edge"><title>Node4&#45;&gt;Node5</title>
<path fill="none" stroke="midnightblue" d="M216.461,-60.9196C216.009,-51.5597 216.284,-41.2293 217.285,-33.0492"/>
<polygon fill="midnightblue" stroke="midnightblue" points="212.974,-61.2281 217.28,-70.9086 219.951,-60.656 212.974,-61.2281"/>
</g>
<!-- Node5&#45;&gt;Node4 -->
<g id="edge6" class="edge"><title>Node5&#45;&gt;Node4</title>
<path fill="none" stroke="midnightblue" d="M229.537,-43.0321C229.991,-52.3887 229.719,-62.7211 228.72,-70.9086"/>
<polygon fill="midnightblue" stroke="midnightblue" points="233.024,-42.7283 228.715,-33.0492 226.047,-43.3027 233.024,-42.7283"/>
</g>
<!-- Node7 -->
<g id="node7" class="node"><title>Node7</title>
<g id="a_node7"><a xlink:href="literal__back__push__operation_8hpp.html" target="_top" xlink:title="Om header file. ">
<polygon fill="none" stroke="black" points="309.673,-1 309.673,-33 446.327,-33 446.327,-1 309.673,-1"/>
<text text-anchor="start" x="317.673" y="-19" font-family="Helvetica,sans-Serif" font-size="10.00">om/operation/literal</text>
<text text-anchor="middle" x="378" y="-7" font-family="Helvetica,sans-Serif" font-size="10.00">_back_push_operation.hpp</text>
</a>
</g>
</g>
<!-- Node6&#45;&gt;Node7 -->
<g id="edge8" class="edge"><title>Node6&#45;&gt;Node7</title>
<path fill="none" stroke="midnightblue" d="M371.461,-60.9196C371.009,-51.5597 371.284,-41.2293 372.285,-33.0492"/>
<polygon fill="midnightblue" stroke="midnightblue" points="367.974,-61.2281 372.28,-70.9086 374.951,-60.656 367.974,-61.2281"/>
</g>
<!-- Node7&#45;&gt;Node6 -->
<g id="edge9" class="edge"><title>Node7&#45;&gt;Node6</title>
<path fill="none" stroke="midnightblue" d="M384.537,-43.0321C384.991,-52.3887 384.719,-62.7211 383.72,-70.9086"/>
<polygon fill="midnightblue" stroke="midnightblue" points="388.024,-42.7283 383.715,-33.0492 381.047,-43.3027 388.024,-42.7283"/>
</g>
<!-- Node9 -->
<g id="node9" class="node"><title>Node9</title>
<g id="a_node9"><a xlink:href="operator__back__push__operation_8hpp.html" target="_top" xlink:title="Om header file. ">
<polygon fill="none" stroke="black" points="464.673,-1 464.673,-33 601.327,-33 601.327,-1 464.673,-1"/>
<text text-anchor="start" x="472.673" y="-19" font-family="Helvetica,sans-Serif" font-size="10.00">om/operation/operator</text>
<text text-anchor="middle" x="533" y="-7" font-family="Helvetica,sans-Serif" font-size="10.00">_back_push_operation.hpp</text>
</a>
</g>
</g>
<!-- Node8&#45;&gt;Node9 -->
<g id="edge11" class="edge"><title>Node8&#45;&gt;Node9</title>
<path fill="none" stroke="midnightblue" d="M526.461,-60.9196C526.009,-51.5597 526.284,-41.2293 527.285,-33.0492"/>
<polygon fill="midnightblue" stroke="midnightblue" points="522.974,-61.2281 527.28,-70.9086 529.951,-60.656 522.974,-61.2281"/>
</g>
<!-- Node9&#45;&gt;Node8 -->
<g id="edge12" class="edge"><title>Node9&#45;&gt;Node8</title>
<path fill="none" stroke="midnightblue" d="M539.537,-43.0321C539.991,-52.3887 539.719,-62.7211 538.72,-70.9086"/>
<polygon fill="midnightblue" stroke="midnightblue" points="543.024,-42.7283 538.715,-33.0492 536.047,-43.3027 543.024,-42.7283"/>
</g>
<!-- Node11 -->
<g id="node11" class="node"><title>Node11</title>
<g id="a_node11"><a xlink:href="rearrange__operation_8hpp.html" target="_top" xlink:title="Om header file. ">
<polygon fill="none" stroke="black" points="619.747,-1 619.747,-33 740.253,-33 740.253,-1 619.747,-1"/>
<text text-anchor="start" x="627.747" y="-19" font-family="Helvetica,sans-Serif" font-size="10.00">om/operation/rearrange</text>
<text text-anchor="middle" x="680" y="-7" font-family="Helvetica,sans-Serif" font-size="10.00">_operation.hpp</text>
</a>
</g>
</g>
<!-- Node10&#45;&gt;Node11 -->
<g id="edge14" class="edge"><title>Node10&#45;&gt;Node11</title>
<path fill="none" stroke="midnightblue" d="M672.83,-60.9196C672.515,-51.5597 672.942,-41.2293 674.064,-33.0492"/>
<polygon fill="midnightblue" stroke="midnightblue" points="669.338,-61.1662 673.502,-70.9086 676.322,-60.6961 669.338,-61.1662"/>
</g>
<!-- Node11&#45;&gt;Node10 -->
<g id="edge15" class="edge"><title>Node11&#45;&gt;Node10</title>
<path fill="none" stroke="midnightblue" d="M686.169,-43.0321C686.486,-52.3887 686.061,-62.7211 684.942,-70.9086"/>
<polygon fill="midnightblue" stroke="midnightblue" points="689.66,-42.7902 685.494,-33.0492 682.676,-43.2626 689.66,-42.7902"/>
</g>
<!-- Node12&#45;&gt;Node1 -->
<g id="edge17" class="edge"><title>Node12&#45;&gt;Node1</title>
<path fill="none" stroke="midnightblue" d="M791.153,-99.1049C733.722,-111.074 640.092,-129.896 582.714,-140.985"/>
<polygon fill="midnightblue" stroke="midnightblue" points="792.019,-102.5 801.09,-97.0262 790.586,-95.6479 792.019,-102.5"/>
</g>
</g>
</svg>
