<?xml version="1.0" encoding="UTF-8" standalone="no"?>
<!DOCTYPE svg PUBLIC "-//W3C//DTD SVG 1.1//EN"
 "http://www.w3.org/Graphics/SVG/1.1/DTD/svg11.dtd">
<!-- Generated by graphviz version 2.30.1 (20130221.2233)
 -->
<!-- Title: code/om/operations/swap_operation.hpp Pages: 1 -->
<svg width="370pt" height="228pt"
 viewBox="0.00 0.00 370.00 228.00" xmlns="http://www.w3.org/2000/svg" xmlns:xlink="http://www.w3.org/1999/xlink">
<g id="graph0" class="graph" transform="scale(1 1) rotate(0) translate(4 224)">
<title>code/om/operations/swap_operation.hpp</title>
<!-- Node1 -->
<g id="node1" class="node"><title>Node1</title>
<polygon fill="#bfbfbf" stroke="black" points="253.577,-187 253.577,-219 362.423,-219 362.423,-187 253.577,-187"/>
<text text-anchor="start" x="261.577" y="-205" font-family="Helvetica,sans-Serif" font-size="10.00">code/om/operations</text>
<text text-anchor="middle" x="308" y="-193" font-family="Helvetica,sans-Serif" font-size="10.00">/swap_operation.hpp</text>
</g>
<!-- Node2 -->
<g id="node2" class="node"><title>Node2</title>
<g id="a_node2"><a xlink:href="internal_8hpp.html" target="_top" xlink:title="code/om/internal.hpp">
<polygon fill="none" stroke="black" points="108.303,-123 108.303,-143 217.697,-143 217.697,-123 108.303,-123"/>
<text text-anchor="middle" x="163" y="-129" font-family="Helvetica,sans-Serif" font-size="10.00">code/om/internal.hpp</text>
</a>
</g>
</g>
<!-- Node1&#45;&gt;Node2 -->
<g id="edge1" class="edge"><title>Node1&#45;&gt;Node2</title>
<path fill="none" stroke="midnightblue" d="M266.723,-182.643C238.955,-169.62 203.633,-153.055 182.199,-143.004"/>
<polygon fill="midnightblue" stroke="midnightblue" points="265.28,-185.831 275.82,-186.909 268.252,-179.494 265.28,-185.831"/>
</g>
<!-- Node6 -->
<g id="node6" class="node"><title>Node6</title>
<g id="a_node6"><a xlink:href="swap__operation_8cpp.html" target="_top" xlink:title="Om source file.">
<polygon fill="none" stroke="black" points="253.857,-117 253.857,-149 362.143,-149 362.143,-117 253.857,-117"/>
<text text-anchor="start" x="261.857" y="-135" font-family="Helvetica,sans-Serif" font-size="10.00">code/om/operations</text>
<text text-anchor="middle" x="308" y="-123" font-family="Helvetica,sans-Serif" font-size="10.00">/swap_operation.cpp</text>
</a>
</g>
</g>
<!-- Node1&#45;&gt;Node6 -->
<g id="edge7" class="edge"><title>Node1&#45;&gt;Node6</title>
<path fill="none" stroke="midnightblue" d="M301.461,-176.92C301.009,-167.56 301.284,-157.229 302.285,-149.049"/>
<polygon fill="midnightblue" stroke="midnightblue" points="297.974,-177.228 302.28,-186.909 304.951,-176.656 297.974,-177.228"/>
</g>
<!-- Node3 -->
<g id="node3" class="node"><title>Node3</title>
<g id="a_node3"><a xlink:href="internal_8cpp.html" target="_top" xlink:title="code/om/internal.cpp">
<polygon fill="none" stroke="black" points="-0.416016,-59 -0.416016,-79 108.416,-79 108.416,-59 -0.416016,-59"/>
<text text-anchor="middle" x="54" y="-65" font-family="Helvetica,sans-Serif" font-size="10.00">code/om/internal.cpp</text>
</a>
</g>
</g>
<!-- Node2&#45;&gt;Node3 -->
<g id="edge2" class="edge"><title>Node2&#45;&gt;Node3</title>
<path fill="none" stroke="midnightblue" d="M137.986,-117.772C117.136,-105.912 88.0481,-89.3668 70.1493,-79.1858"/>
<polygon fill="midnightblue" stroke="midnightblue" points="136.494,-120.95 146.917,-122.852 139.955,-114.865 136.494,-120.95"/>
</g>
<!-- Node2&#45;&gt;Node2 -->
<g id="edge3" class="edge"><title>Node2&#45;&gt;Node2</title>
<path fill="none" stroke="midnightblue" d="M198.83,-144.532C217.792,-146.424 235,-142.58 235,-133 235,-121.75 211.27,-118.41 188.837,-122.98"/>
<polygon fill="midnightblue" stroke="midnightblue" points="199.248,-141.055 188.837,-143.02 198.201,-147.977 199.248,-141.055"/>
</g>
<!-- Node4 -->
<g id="node4" class="node"><title>Node4</title>
<g id="a_node4"><a xlink:href="om_8hpp.html" target="_top" xlink:title="Om &quot;umbrella&quot; header file.">
<polygon fill="none" stroke="black" points="126.091,-59 126.091,-79 199.909,-79 199.909,-59 126.091,-59"/>
<text text-anchor="middle" x="163" y="-65" font-family="Helvetica,sans-Serif" font-size="10.00">code/om.hpp</text>
</a>
</g>
</g>
<!-- Node2&#45;&gt;Node4 -->
<g id="edge4" class="edge"><title>Node2&#45;&gt;Node4</title>
<path fill="none" stroke="midnightblue" d="M156.7,-112.735C155.802,-101.557 156.248,-87.991 158.037,-79.1858"/>
<polygon fill="midnightblue" stroke="midnightblue" points="153.257,-113.4 158.045,-122.852 160.196,-112.478 153.257,-113.4"/>
</g>
<!-- Node4&#45;&gt;Node2 -->
<g id="edge5" class="edge"><title>Node4&#45;&gt;Node2</title>
<path fill="none" stroke="midnightblue" d="M169.304,-89.3131C170.198,-100.498 169.748,-114.06 167.955,-122.852"/>
<polygon fill="midnightblue" stroke="midnightblue" points="172.746,-88.6398 167.963,-79.1858 165.806,-89.5588 172.746,-88.6398"/>
</g>
<!-- Node5 -->
<g id="node5" class="node"><title>Node5</title>
<g id="a_node5"><a xlink:href="om_8cpp.html" target="_top" xlink:title="Om source file.">
<polygon fill="none" stroke="black" points="126.372,-1 126.372,-21 199.628,-21 199.628,-1 126.372,-1"/>
<text text-anchor="middle" x="163" y="-7" font-family="Helvetica,sans-Serif" font-size="10.00">code/om.cpp</text>
</a>
</g>
</g>
<!-- Node4&#45;&gt;Node5 -->
<g id="edge6" class="edge"><title>Node4&#45;&gt;Node5</title>
<path fill="none" stroke="midnightblue" d="M163,-48.7065C163,-39.3384 163,-28.5262 163,-21.0752"/>
<polygon fill="midnightblue" stroke="midnightblue" points="159.5,-48.7527 163,-58.7527 166.5,-48.7528 159.5,-48.7527"/>
</g>
<!-- Node6&#45;&gt;Node1 -->
<g id="edge8" class="edge"><title>Node6&#45;&gt;Node1</title>
<path fill="none" stroke="midnightblue" d="M314.537,-159.032C314.991,-168.389 314.719,-178.721 313.72,-186.909"/>
<polygon fill="midnightblue" stroke="midnightblue" points="318.024,-158.728 313.715,-149.049 311.047,-159.303 318.024,-158.728"/>
</g>
</g>
</svg>
