<?xml version="1.0" encoding="UTF-8" standalone="no"?>
<!DOCTYPE svg PUBLIC "-//W3C//DTD SVG 1.1//EN"
 "http://www.w3.org/Graphics/SVG/1.1/DTD/svg11.dtd">
<!-- Generated by graphviz version 2.28.0 (20120817.0054)
 -->
<!-- Title: code/om/system.hpp Pages: 1 -->
<svg width="202pt" height="84pt"
 viewBox="0.00 0.00 202.00 84.00" xmlns="http://www.w3.org/2000/svg" xmlns:xlink="http://www.w3.org/1999/xlink">
<g id="graph1" class="graph" transform="scale(1 1) rotate(0) translate(4 80)">
<title>code/om/system.hpp</title>
<!-- Node1 -->
<g id="node1" class="node"><title>Node1</title>
<polygon fill="#bfbfbf" stroke="black" points="0,-56.5 0,-75.5 106,-75.5 106,-56.5 0,-56.5"/>
<text text-anchor="middle" x="53" y="-63.5" font-family="Helvetica,sans-Serif" font-size="10.00">code/om/system.hpp</text>
</g>
<!-- Node2 -->
<g id="node3" class="node"><title>Node2</title>
<a xlink:href="system_8cpp.html" target="_top" xlink:title="Om source file.">
<polygon fill="none" stroke="black" points="0.5,-0.5 0.5,-19.5 105.5,-19.5 105.5,-0.5 0.5,-0.5"/>
<text text-anchor="middle" x="53" y="-7.5" font-family="Helvetica,sans-Serif" font-size="10.00">code/om/system.cpp</text>
</a>
</g>
<!-- Node1&#45;&gt;Node2 -->
<g id="edge2" class="edge"><title>Node1&#45;&gt;Node2</title>
<path fill="none" stroke="midnightblue" d="M46.5276,-46.1005C45.8956,-37.1357 46.3427,-26.8579 47.869,-19.7511"/>
<polygon fill="midnightblue" stroke="midnightblue" points="43.0658,-46.6216 47.8337,-56.083 50.0067,-45.7134 43.0658,-46.6216"/>
</g>
<!-- Node3 -->
<g id="node6" class="node"><title>Node3</title>
<a xlink:href="om_8cpp.html" target="_top" xlink:title="Om source file.">
<polygon fill="none" stroke="black" points="123.5,-0.5 123.5,-19.5 194.5,-19.5 194.5,-0.5 123.5,-0.5"/>
<text text-anchor="middle" x="159" y="-7.5" font-family="Helvetica,sans-Serif" font-size="10.00">code/om.cpp</text>
</a>
</g>
<!-- Node1&#45;&gt;Node3 -->
<g id="edge6" class="edge"><title>Node1&#45;&gt;Node3</title>
<path fill="none" stroke="midnightblue" d="M79.0562,-51.7261C98.6838,-41.7271 125.028,-28.3065 142.012,-19.6545"/>
<polygon fill="midnightblue" stroke="midnightblue" points="77.3524,-48.666 70.0307,-56.324 80.5299,-54.9033 77.3524,-48.666"/>
</g>
<!-- Node2&#45;&gt;Node1 -->
<g id="edge4" class="edge"><title>Node2&#45;&gt;Node1</title>
<path fill="none" stroke="midnightblue" d="M59.4575,-29.6911C60.1062,-38.6353 59.6758,-48.9272 58.1663,-56.083"/>
<polygon fill="midnightblue" stroke="midnightblue" points="62.9231,-29.2002 58.131,-19.7511 55.9846,-30.1262 62.9231,-29.2002"/>
</g>
</g>
</svg>
