<?xml version="1.0" encoding="UTF-8" standalone="no"?>
<!DOCTYPE svg PUBLIC "-//W3C//DTD SVG 1.1//EN"
 "http://www.w3.org/Graphics/SVG/1.1/DTD/svg11.dtd">
<!-- Generated by graphviz version 2.36.0 (20140111.2315)
 -->
<!-- Title: om/language/system.cpp Pages: 1 -->
<svg width="323pt" height="252pt"
 viewBox="0.00 0.00 323.00 252.00" xmlns="http://www.w3.org/2000/svg" xmlns:xlink="http://www.w3.org/1999/xlink">
<g id="graph0" class="graph" transform="scale(1 1) rotate(0) translate(4 248)">
<title>om/language/system.cpp</title>
<!-- Node1 -->
<g id="node1" class="node"><title>Node1</title>
<g id="a_node1"><a xlink:title="Om source file.">
<polygon fill="#bfbfbf" stroke="black" points="181.414,-225 181.414,-243 308.586,-243 308.586,-225 181.414,-225"/>
<text text-anchor="middle" x="245" y="-231" font-family="Helvetica,sans-Serif" font-size="10.00">om/language/system.cpp</text>
</a>
</g>
</g>
<!-- Node2 -->
<g id="node2" class="node"><title>Node2</title>
<g id="a_node2"><a xlink:href="system_8hpp.html" target="_top" xlink:title="Om header file.">
<polygon fill="none" stroke="black" points="181.133,-169 181.133,-187 308.867,-187 308.867,-169 181.133,-169"/>
<text text-anchor="middle" x="245" y="-175" font-family="Helvetica,sans-Serif" font-size="10.00">om/language/system.hpp</text>
</a>
</g>
</g>
<!-- Node1&#45;&gt;Node2 -->
<g id="edge1" class="edge"><title>Node1&#45;&gt;Node2</title>
<path fill="none" stroke="midnightblue" d="M239.938,-224.562C238.325,-217.308 237.868,-206.588 238.566,-197.369"/>
<polygon fill="midnightblue" stroke="midnightblue" points="242.069,-197.59 239.991,-187.201 235.137,-196.619 242.069,-197.59"/>
</g>
<!-- Node2&#45;&gt;Node1 -->
<g id="edge9" class="edge"><title>Node2&#45;&gt;Node1</title>
<path fill="none" stroke="midnightblue" d="M250.009,-187.201C251.665,-194.459 252.139,-205.313 251.433,-214.633"/>
<polygon fill="midnightblue" stroke="midnightblue" points="247.963,-214.178 250.062,-224.562 254.897,-215.135 247.963,-214.178"/>
</g>
<!-- Node3 -->
<g id="node3" class="node"><title>Node3</title>
<g id="a_node3"><a xlink:href="translator_8hpp.html" target="_top" xlink:title="Om header file.">
<polygon fill="none" stroke="black" points="124.399,-113 124.399,-131 261.601,-131 261.601,-113 124.399,-113"/>
<text text-anchor="middle" x="193" y="-119" font-family="Helvetica,sans-Serif" font-size="10.00">om/language/translator.hpp</text>
</a>
</g>
</g>
<!-- Node2&#45;&gt;Node3 -->
<g id="edge2" class="edge"><title>Node2&#45;&gt;Node3</title>
<path fill="none" stroke="midnightblue" d="M236.875,-168.562C229.198,-160.591 217.492,-148.434 208.102,-138.683"/>
<polygon fill="midnightblue" stroke="midnightblue" points="210.355,-135.977 200.898,-131.201 205.313,-140.832 210.355,-135.977"/>
</g>
<!-- Node8 -->
<g id="node8" class="node"><title>Node8</title>
<g id="a_node8"><a xlink:title=" ">
<polygon fill="none" stroke="#bfbfbf" points="279.273,-113 279.273,-131 314.727,-131 314.727,-113 279.273,-113"/>
<text text-anchor="middle" x="297" y="-119" font-family="Helvetica,sans-Serif" font-size="10.00">map</text>
</a>
</g>
</g>
<!-- Node2&#45;&gt;Node8 -->
<g id="edge8" class="edge"><title>Node2&#45;&gt;Node8</title>
<path fill="none" stroke="midnightblue" d="M253.125,-168.562C260.802,-160.591 272.508,-148.434 281.898,-138.683"/>
<polygon fill="midnightblue" stroke="midnightblue" points="284.687,-140.832 289.102,-131.201 279.645,-135.977 284.687,-140.832"/>
</g>
<!-- Node4 -->
<g id="node4" class="node"><title>Node4</title>
<g id="a_node4"><a xlink:href="code__point_8hpp.html" target="_top" xlink:title="Om header file.">
<polygon fill="none" stroke="black" points="0.468262,-57 0.468262,-75 101.532,-75 101.532,-57 0.468262,-57"/>
<text text-anchor="middle" x="51" y="-63" font-family="Helvetica,sans-Serif" font-size="10.00">om/code_point.hpp</text>
</a>
</g>
</g>
<!-- Node3&#45;&gt;Node4 -->
<g id="edge3" class="edge"><title>Node3&#45;&gt;Node4</title>
<path fill="none" stroke="midnightblue" d="M171.741,-112.916C147.899,-103.849 109.019,-89.0635 81.8389,-78.7275"/>
<polygon fill="midnightblue" stroke="midnightblue" points="82.9952,-75.4227 72.4042,-75.1396 80.507,-81.9656 82.9952,-75.4227"/>
</g>
<!-- Node6 -->
<g id="node6" class="node"><title>Node6</title>
<g id="a_node6"><a xlink:title=" ">
<polygon fill="none" stroke="#bfbfbf" points="119.773,-57 119.773,-75 160.227,-75 160.227,-57 119.773,-57"/>
<text text-anchor="middle" x="140" y="-63" font-family="Helvetica,sans-Serif" font-size="10.00">string</text>
</a>
</g>
</g>
<!-- Node3&#45;&gt;Node6 -->
<g id="edge5" class="edge"><title>Node3&#45;&gt;Node6</title>
<path fill="none" stroke="midnightblue" d="M184.719,-112.562C176.816,-104.511 164.724,-92.1905 155.106,-82.3907"/>
<polygon fill="midnightblue" stroke="midnightblue" points="157.552,-79.8867 148.05,-75.2014 152.556,-84.79 157.552,-79.8867"/>
</g>
<!-- Node7 -->
<g id="node7" class="node"><title>Node7</title>
<g id="a_node7"><a xlink:href="translator_8cpp.html" target="_top" xlink:title="Om source file.">
<polygon fill="none" stroke="black" points="178.68,-57 178.68,-75 315.32,-75 315.32,-57 178.68,-57"/>
<text text-anchor="middle" x="247" y="-63" font-family="Helvetica,sans-Serif" font-size="10.00">om/language/translator.cpp</text>
</a>
</g>
</g>
<!-- Node3&#45;&gt;Node7 -->
<g id="edge6" class="edge"><title>Node3&#45;&gt;Node7</title>
<path fill="none" stroke="midnightblue" d="M196.375,-112.562C202.761,-104.351 215.067,-91.7009 226.091,-81.8115"/>
<polygon fill="midnightblue" stroke="midnightblue" points="228.483,-84.3715 233.789,-75.2014 223.922,-79.0607 228.483,-84.3715"/>
</g>
<!-- Node5 -->
<g id="node5" class="node"><title>Node5</title>
<g id="a_node5"><a xlink:title=" ">
<polygon fill="none" stroke="#bfbfbf" points="-0.364258,-1 -0.364258,-19 102.364,-19 102.364,-1 -0.364258,-1"/>
<text text-anchor="middle" x="51" y="-7" font-family="Helvetica,sans-Serif" font-size="10.00">boost/locale/utf.hpp</text>
</a>
</g>
</g>
<!-- Node4&#45;&gt;Node5 -->
<g id="edge4" class="edge"><title>Node4&#45;&gt;Node5</title>
<path fill="none" stroke="midnightblue" d="M51,-56.5625C51,-49.308 51,-38.5884 51,-29.3691"/>
<polygon fill="midnightblue" stroke="midnightblue" points="54.5001,-29.2014 51,-19.2014 47.5001,-29.2015 54.5001,-29.2014"/>
</g>
<!-- Node7&#45;&gt;Node3 -->
<g id="edge7" class="edge"><title>Node7&#45;&gt;Node3</title>
<path fill="none" stroke="midnightblue" d="M243.748,-75.2786C237.406,-83.4744 225.036,-96.203 213.951,-106.151"/>
<polygon fill="midnightblue" stroke="midnightblue" points="211.516,-103.628 206.211,-112.799 216.077,-108.938 211.516,-103.628"/>
</g>
</g>
</svg>
