<?xml version="1.0" encoding="UTF-8" standalone="no"?>
<!DOCTYPE svg PUBLIC "-//W3C//DTD SVG 1.1//EN"
 "http://www.w3.org/Graphics/SVG/1.1/DTD/svg11.dtd">
<!-- Generated by graphviz version 2.30.1 (20130221.2233)
 -->
<!-- Title: code/om/system.hpp Pages: 1 -->
<svg width="116pt" height="88pt"
 viewBox="0.00 0.00 116.00 88.00" xmlns="http://www.w3.org/2000/svg" xmlns:xlink="http://www.w3.org/1999/xlink">
<g id="graph0" class="graph" transform="scale(1 1) rotate(0) translate(4 84)">
<title>code/om/system.hpp</title>
<!-- Node1 -->
<g id="node1" class="node"><title>Node1</title>
<polygon fill="#bfbfbf" stroke="black" points="-0.132812,-59 -0.132812,-79 108.133,-79 108.133,-59 -0.132812,-59"/>
<text text-anchor="middle" x="54" y="-65" font-family="Helvetica,sans-Serif" font-size="10.00">code/om/system.hpp</text>
</g>
<!-- Node2 -->
<g id="node2" class="node"><title>Node2</title>
<g id="a_node2"><a xlink:href="system_8cpp.html" target="_top" xlink:title="Om source file.">
<polygon fill="none" stroke="black" points="0.147949,-1 0.147949,-21 107.852,-21 107.852,-1 0.147949,-1"/>
<text text-anchor="middle" x="54" y="-7" font-family="Helvetica,sans-Serif" font-size="10.00">code/om/system.cpp</text>
</a>
</g>
</g>
<!-- Node1&#45;&gt;Node2 -->
<g id="edge1" class="edge"><title>Node1&#45;&gt;Node2</title>
<path fill="none" stroke="midnightblue" d="M47.5488,-48.7065C46.8859,-39.3384 47.326,-28.5262 48.869,-21.0752"/>
<polygon fill="midnightblue" stroke="midnightblue" points="44.0933,-49.2776 48.8337,-58.7527 51.0367,-48.3895 44.0933,-49.2776"/>
</g>
<!-- Node2&#45;&gt;Node1 -->
<g id="edge2" class="edge"><title>Node2&#45;&gt;Node1</title>
<path fill="none" stroke="midnightblue" d="M60.4357,-31.0781C61.1156,-40.4238 60.6924,-51.2504 59.1663,-58.7527"/>
<polygon fill="midnightblue" stroke="midnightblue" points="63.8951,-30.5385 59.131,-21.0752 56.9539,-31.4439 63.8951,-30.5385"/>
</g>
</g>
</svg>
