<?xml version="1.0" encoding="UTF-8" standalone="no"?>
<!DOCTYPE svg PUBLIC "-//W3C//DTD SVG 1.1//EN"
 "http://www.w3.org/Graphics/SVG/1.1/DTD/svg11.dtd">
<!-- Generated by graphviz version 2.34.0 (20130907.0228)
 -->
<!-- Title: om/taker.cpp Pages: 1 -->
<svg width="80pt" height="88pt"
 viewBox="0.00 0.00 80.00 88.00" xmlns="http://www.w3.org/2000/svg" xmlns:xlink="http://www.w3.org/1999/xlink">
<g id="graph0" class="graph" transform="scale(1 1) rotate(0) translate(4 84)">
<title>om/taker.cpp</title>
<!-- Node1 -->
<g id="node1" class="node"><title>Node1</title>
<polygon fill="#bfbfbf" stroke="black" points="-0.62793,-59 -0.62793,-79 72.6279,-79 72.6279,-59 -0.62793,-59"/>
<text text-anchor="middle" x="36" y="-65" font-family="Helvetica,sans-Serif" font-size="10.00">om/taker.cpp</text>
</g>
<!-- Node2 -->
<g id="node2" class="node"><title>Node2</title>
<g id="a_node2"><a xlink:href="taker_8hpp.html" target="_top" xlink:title="Om header file. ">
<polygon fill="none" stroke="black" points="-0.908691,-1 -0.908691,-21 72.9087,-21 72.9087,-1 -0.908691,-1"/>
<text text-anchor="middle" x="36" y="-7" font-family="Helvetica,sans-Serif" font-size="10.00">om/taker.hpp</text>
</a>
</g>
</g>
<!-- Node1&#45;&gt;Node2 -->
<g id="edge1" class="edge"><title>Node1&#45;&gt;Node2</title>
<path fill="none" stroke="midnightblue" d="M30.8337,-58.7527C29.3076,-51.2504 28.8844,-40.4238 29.5643,-31.0781"/>
<polygon fill="midnightblue" stroke="midnightblue" points="33.0461,-31.4439 30.869,-21.0752 26.1049,-30.5385 33.0461,-31.4439"/>
</g>
<!-- Node2&#45;&gt;Node1 -->
<g id="edge2" class="edge"><title>Node2&#45;&gt;Node1</title>
<path fill="none" stroke="midnightblue" d="M41.131,-21.0752C42.674,-28.5262 43.1141,-39.3384 42.4512,-48.7065"/>
<polygon fill="midnightblue" stroke="midnightblue" points="38.9633,-48.3895 41.1663,-58.7527 45.9067,-49.2776 38.9633,-48.3895"/>
</g>
</g>
</svg>
