<?xml version="1.0" encoding="UTF-8" standalone="no"?>
<!DOCTYPE svg PUBLIC "-//W3C//DTD SVG 1.1//EN"
 "http://www.w3.org/Graphics/SVG/1.1/DTD/svg11.dtd">
<!-- Generated by graphviz version 2.30.1 (20130221.2233)
 -->
<!-- Title: code/om/taker.cpp Pages: 1 -->
<svg width="1341pt" height="646pt"
 viewBox="0.00 0.00 1341.00 646.00" xmlns="http://www.w3.org/2000/svg" xmlns:xlink="http://www.w3.org/1999/xlink">
<g id="graph0" class="graph" transform="scale(1 1) rotate(0) translate(4 642)">
<title>code/om/taker.cpp</title>
<!-- Node1 -->
<g id="node1" class="node"><title>Node1</title>
<polygon fill="#bfbfbf" stroke="black" points="613.141,-617 613.141,-637 710.859,-637 710.859,-617 613.141,-617"/>
<text text-anchor="middle" x="662" y="-623" font-family="Helvetica,sans-Serif" font-size="10.00">code/om/taker.cpp</text>
</g>
<!-- Node2 -->
<g id="node2" class="node"><title>Node2</title>
<g id="a_node2"><a xlink:href="taker_8hpp.html" target="_top" xlink:title="Om header file.">
<polygon fill="none" stroke="black" points="612.86,-559 612.86,-579 711.14,-579 711.14,-559 612.86,-559"/>
<text text-anchor="middle" x="662" y="-565" font-family="Helvetica,sans-Serif" font-size="10.00">code/om/taker.hpp</text>
</a>
</g>
</g>
<!-- Node1&#45;&gt;Node2 -->
<g id="edge1" class="edge"><title>Node1&#45;&gt;Node2</title>
<path fill="none" stroke="midnightblue" d="M655.549,-606.707C654.886,-597.338 655.326,-586.526 656.869,-579.075"/>
<polygon fill="midnightblue" stroke="midnightblue" points="652.093,-607.278 656.834,-616.753 659.037,-606.389 652.093,-607.278"/>
</g>
<!-- Node3 -->
<g id="node3" class="node"><title>Node3</title>
<g id="a_node3"><a xlink:href="default__program_8hpp.html" target="_top" xlink:title="Om header file.">
<polygon fill="none" stroke="black" points="751.291,-501 751.291,-521 900.709,-521 900.709,-501 751.291,-501"/>
<text text-anchor="middle" x="826" y="-507" font-family="Helvetica,sans-Serif" font-size="10.00">code/om/default_program.hpp</text>
</a>
</g>
</g>
<!-- Node2&#45;&gt;Node3 -->
<g id="edge2" class="edge"><title>Node2&#45;&gt;Node3</title>
<path fill="none" stroke="midnightblue" d="M698.189,-555.643C728.844,-545.175 772.076,-530.413 799.569,-521.025"/>
<polygon fill="midnightblue" stroke="midnightblue" points="697.047,-552.334 688.714,-558.878 699.309,-558.959 697.047,-552.334"/>
</g>
<!-- Node43 -->
<g id="node43" class="node"><title>Node43</title>
<g id="a_node43"><a xlink:href="owner_8hpp.html" target="_top" xlink:title="Om header file.">
<polygon fill="none" stroke="black" points="447.357,-501 447.357,-521 550.643,-521 550.643,-501 447.357,-501"/>
<text text-anchor="middle" x="499" y="-507" font-family="Helvetica,sans-Serif" font-size="10.00">code/om/owner.hpp</text>
</a>
</g>
</g>
<!-- Node2&#45;&gt;Node43 -->
<g id="edge60" class="edge"><title>Node2&#45;&gt;Node43</title>
<path fill="none" stroke="midnightblue" d="M625.635,-555.506C595.192,-545.048 552.477,-530.373 525.27,-521.025"/>
<polygon fill="midnightblue" stroke="midnightblue" points="624.854,-558.939 635.448,-558.878 627.128,-552.319 624.854,-558.939"/>
</g>
<!-- Node2&#45;&gt;Node1 -->
<g id="edge64" class="edge"><title>Node2&#45;&gt;Node1</title>
<path fill="none" stroke="midnightblue" d="M668.436,-589.078C669.116,-598.424 668.692,-609.25 667.166,-616.753"/>
<polygon fill="midnightblue" stroke="midnightblue" points="671.895,-588.538 667.131,-579.075 664.954,-589.444 671.895,-588.538"/>
</g>
<!-- Node4 -->
<g id="node4" class="node"><title>Node4</title>
<g id="a_node4"><a xlink:href="default__element_8hpp.html" target="_top" xlink:title="Om header file.">
<polygon fill="none" stroke="black" points="586.121,-443 586.121,-463 733.879,-463 733.879,-443 586.121,-443"/>
<text text-anchor="middle" x="660" y="-449" font-family="Helvetica,sans-Serif" font-size="10.00">code/om/default_element.hpp</text>
</a>
</g>
</g>
<!-- Node3&#45;&gt;Node4 -->
<g id="edge3" class="edge"><title>Node3&#45;&gt;Node4</title>
<path fill="none" stroke="midnightblue" d="M789.369,-497.643C758.341,-487.175 714.582,-472.413 686.754,-463.025"/>
<polygon fill="midnightblue" stroke="midnightblue" points="788.366,-500.998 798.96,-500.878 790.603,-494.365 788.366,-500.998"/>
</g>
<!-- Node38 -->
<g id="node38" class="node"><title>Node38</title>
<g id="a_node38"><a xlink:href="default__program_8cpp.html" target="_top" xlink:title="Om source file.">
<polygon fill="none" stroke="black" points="751.572,-443 751.572,-463 900.428,-463 900.428,-443 751.572,-443"/>
<text text-anchor="middle" x="826" y="-449" font-family="Helvetica,sans-Serif" font-size="10.00">code/om/default_program.cpp</text>
</a>
</g>
</g>
<!-- Node3&#45;&gt;Node38 -->
<g id="edge52" class="edge"><title>Node3&#45;&gt;Node38</title>
<path fill="none" stroke="midnightblue" d="M819.549,-490.707C818.886,-481.338 819.326,-470.526 820.869,-463.075"/>
<polygon fill="midnightblue" stroke="midnightblue" points="816.093,-491.278 820.834,-500.753 823.037,-490.389 816.093,-491.278"/>
</g>
<!-- Node39 -->
<g id="node39" class="node"><title>Node39</title>
<g id="a_node39"><a xlink:href="literal_8hpp.html" target="_top" xlink:title="Om header file.">
<polygon fill="none" stroke="black" points="918.754,-443 918.754,-463 1019.25,-463 1019.25,-443 918.754,-443"/>
<text text-anchor="middle" x="969" y="-449" font-family="Helvetica,sans-Serif" font-size="10.00">code/om/literal.hpp</text>
</a>
</g>
</g>
<!-- Node3&#45;&gt;Node39 -->
<g id="edge54" class="edge"><title>Node3&#45;&gt;Node39</title>
<path fill="none" stroke="midnightblue" d="M858.923,-497.107C885.469,-486.711 922.141,-472.351 945.716,-463.118"/>
<polygon fill="midnightblue" stroke="midnightblue" points="857.329,-493.972 849.294,-500.878 859.881,-500.491 857.329,-493.972"/>
</g>
<!-- Node41 -->
<g id="node41" class="node"><title>Node41</title>
<g id="a_node41"><a xlink:href="null_8hpp.html" target="_top" xlink:title="Om header file.">
<polygon fill="none" stroke="black" points="1036.92,-443 1036.92,-463 1129.08,-463 1129.08,-443 1036.92,-443"/>
<text text-anchor="middle" x="1083" y="-449" font-family="Helvetica,sans-Serif" font-size="10.00">code/om/null.hpp</text>
</a>
</g>
</g>
<!-- Node3&#45;&gt;Node41 -->
<g id="edge57" class="edge"><title>Node3&#45;&gt;Node41</title>
<path fill="none" stroke="midnightblue" d="M877.498,-498.779C925.702,-488.275 996.81,-472.781 1041.48,-463.047"/>
<polygon fill="midnightblue" stroke="midnightblue" points="876.603,-495.392 867.577,-500.94 878.093,-502.231 876.603,-495.392"/>
</g>
<!-- Node5 -->
<g id="node5" class="node"><title>Node5</title>
<g id="a_node5"><a xlink:href="default__atom_8hpp.html" target="_top" xlink:title="Om header file.">
<polygon fill="none" stroke="black" points="592.793,-385 592.793,-405 727.207,-405 727.207,-385 592.793,-385"/>
<text text-anchor="middle" x="660" y="-391" font-family="Helvetica,sans-Serif" font-size="10.00">code/om/default_atom.hpp</text>
</a>
</g>
</g>
<!-- Node4&#45;&gt;Node5 -->
<g id="edge4" class="edge"><title>Node4&#45;&gt;Node5</title>
<path fill="none" stroke="midnightblue" d="M660,-432.707C660,-423.338 660,-412.526 660,-405.075"/>
<polygon fill="midnightblue" stroke="midnightblue" points="656.5,-432.753 660,-442.753 663.5,-432.753 656.5,-432.753"/>
</g>
<!-- Node35 -->
<g id="node35" class="node"><title>Node35</title>
<g id="a_node35"><a xlink:href="default__element_8cpp.html" target="_top" xlink:title="Om source file.">
<polygon fill="none" stroke="black" points="745.402,-385 745.402,-405 892.598,-405 892.598,-385 745.402,-385"/>
<text text-anchor="middle" x="819" y="-391" font-family="Helvetica,sans-Serif" font-size="10.00">code/om/default_element.cpp</text>
</a>
</g>
</g>
<!-- Node4&#45;&gt;Node35 -->
<g id="edge47" class="edge"><title>Node4&#45;&gt;Node35</title>
<path fill="none" stroke="midnightblue" d="M690.481,-439.233C718.626,-428.793 760.016,-414.291 788.254,-405.025"/>
<polygon fill="midnightblue" stroke="midnightblue" points="688.894,-436.09 680.759,-442.878 691.352,-442.644 688.894,-436.09"/>
</g>
<!-- Node36 -->
<g id="node36" class="node"><title>Node36</title>
<g id="a_node36"><a xlink:href="operand_8hpp.html" target="_top" xlink:title="Om header file.">
<polygon fill="none" stroke="black" points="393.353,-385 393.353,-405 506.647,-405 506.647,-385 393.353,-385"/>
<text text-anchor="middle" x="450" y="-391" font-family="Helvetica,sans-Serif" font-size="10.00">code/om/operand.hpp</text>
</a>
</g>
</g>
<!-- Node4&#45;&gt;Node36 -->
<g id="edge49" class="edge"><title>Node4&#45;&gt;Node36</title>
<path fill="none" stroke="midnightblue" d="M615.935,-440.249C576.572,-429.752 519.735,-414.596 483.845,-405.025"/>
<polygon fill="midnightblue" stroke="midnightblue" points="615.228,-443.683 625.792,-442.878 617.032,-436.919 615.228,-443.683"/>
</g>
<!-- Node6 -->
<g id="node6" class="node"><title>Node6</title>
<g id="a_node6"><a xlink:href="default__atom_8cpp.html" target="_top" xlink:title="Om source file.">
<polygon fill="none" stroke="black" points="627.074,-327 627.074,-347 760.926,-347 760.926,-327 627.074,-327"/>
<text text-anchor="middle" x="694" y="-333" font-family="Helvetica,sans-Serif" font-size="10.00">code/om/default_atom.cpp</text>
</a>
</g>
</g>
<!-- Node5&#45;&gt;Node6 -->
<g id="edge5" class="edge"><title>Node5&#45;&gt;Node6</title>
<path fill="none" stroke="midnightblue" d="M664.778,-375.618C669.83,-366.047 677.094,-354.769 683.359,-347.075"/>
<polygon fill="midnightblue" stroke="midnightblue" points="661.568,-374.217 660.448,-384.753 667.894,-377.215 661.568,-374.217"/>
</g>
<!-- Node7 -->
<g id="node7" class="node"><title>Node7</title>
<g id="a_node7"><a xlink:href="operator_8hpp.html" target="_top" xlink:title="Om header file.">
<polygon fill="none" stroke="black" points="779.353,-327 779.353,-347 892.647,-347 892.647,-327 779.353,-327"/>
<text text-anchor="middle" x="836" y="-333" font-family="Helvetica,sans-Serif" font-size="10.00">code/om/operator.hpp</text>
</a>
</g>
</g>
<!-- Node5&#45;&gt;Node7 -->
<g id="edge7" class="edge"><title>Node5&#45;&gt;Node7</title>
<path fill="none" stroke="midnightblue" d="M698.411,-381.778C731.333,-371.303 778.002,-356.454 807.635,-347.025"/>
<polygon fill="midnightblue" stroke="midnightblue" points="697.137,-378.511 688.669,-384.878 699.26,-385.181 697.137,-378.511"/>
</g>
<!-- Node33 -->
<g id="node33" class="node"><title>Node33</title>
<g id="a_node33"><a xlink:href="separator_8hpp.html" target="_top" xlink:title="Om header file.">
<polygon fill="none" stroke="black" points="490.853,-327 490.853,-347 609.147,-347 609.147,-327 490.853,-327"/>
<text text-anchor="middle" x="550" y="-333" font-family="Helvetica,sans-Serif" font-size="10.00">code/om/separator.hpp</text>
</a>
</g>
</g>
<!-- Node5&#45;&gt;Node33 -->
<g id="edge44" class="edge"><title>Node5&#45;&gt;Node33</title>
<path fill="none" stroke="midnightblue" d="M632.782,-380.144C612.509,-369.823 585.405,-356.025 567.826,-347.075"/>
<polygon fill="midnightblue" stroke="midnightblue" points="631.336,-383.335 641.836,-384.753 634.512,-377.097 631.336,-383.335"/>
</g>
<!-- Node6&#45;&gt;Node5 -->
<g id="edge6" class="edge"><title>Node6&#45;&gt;Node5</title>
<path fill="none" stroke="midnightblue" d="M689.335,-356.169C684.315,-365.714 677.06,-377.006 670.781,-384.753"/>
<polygon fill="midnightblue" stroke="midnightblue" points="692.523,-357.613 693.621,-347.075 686.191,-354.628 692.523,-357.613"/>
</g>
<!-- Node8 -->
<g id="node8" class="node"><title>Node8</title>
<g id="a_node8"><a xlink:href="form_8hpp.html" target="_top" xlink:title="Om header file.">
<polygon fill="none" stroke="black" points="782.702,-269 782.702,-289 879.298,-289 879.298,-269 782.702,-269"/>
<text text-anchor="middle" x="831" y="-275" font-family="Helvetica,sans-Serif" font-size="10.00">code/om/form.hpp</text>
</a>
</g>
</g>
<!-- Node7&#45;&gt;Node8 -->
<g id="edge8" class="edge"><title>Node7&#45;&gt;Node8</title>
<path fill="none" stroke="midnightblue" d="M834.277,-316.707C833.441,-307.338 832.476,-296.526 831.81,-289.075"/>
<polygon fill="midnightblue" stroke="midnightblue" points="830.799,-317.104 835.174,-326.753 837.771,-316.481 830.799,-317.104"/>
</g>
<!-- Node22 -->
<g id="node22" class="node"><title>Node22</title>
<g id="a_node22"><a xlink:href="operator_8cpp.html" target="_top" xlink:title="Om source file.">
<polygon fill="none" stroke="black" points="897.633,-269 897.633,-289 1010.37,-289 1010.37,-269 897.633,-269"/>
<text text-anchor="middle" x="954" y="-275" font-family="Helvetica,sans-Serif" font-size="10.00">code/om/operator.cpp</text>
</a>
</g>
</g>
<!-- Node7&#45;&gt;Node22 -->
<g id="edge28" class="edge"><title>Node7&#45;&gt;Node22</title>
<path fill="none" stroke="midnightblue" d="M859.28,-322.144C879.699,-311.823 909.035,-298.025 929.746,-289.075"/>
<polygon fill="midnightblue" stroke="midnightblue" points="857.611,-319.066 850.319,-326.753 860.813,-325.291 857.611,-319.066"/>
</g>
<!-- Node23 -->
<g id="node23" class="node"><title>Node23</title>
<g id="a_node23"><a xlink:href="pair_8hpp.html" target="_top" xlink:title="Om header file.">
<polygon fill="none" stroke="black" points="644.638,-269 644.638,-289 737.362,-289 737.362,-269 644.638,-269"/>
<text text-anchor="middle" x="691" y="-275" font-family="Helvetica,sans-Serif" font-size="10.00">code/om/pair.hpp</text>
</a>
</g>
</g>
<!-- Node7&#45;&gt;Node23 -->
<g id="edge30" class="edge"><title>Node7&#45;&gt;Node23</title>
<path fill="none" stroke="midnightblue" d="M802.971,-323.244C776.027,-312.838 738.62,-298.391 714.609,-289.118"/>
<polygon fill="midnightblue" stroke="midnightblue" points="801.791,-326.54 812.381,-326.878 804.313,-320.01 801.791,-326.54"/>
</g>
<!-- Node9 -->
<g id="node9" class="node"><title>Node9</title>
<g id="a_node9"><a xlink:href="expression_8hpp.html" target="_top" xlink:title="Om header file.">
<polygon fill="none" stroke="black" points="759.522,-211 759.522,-231 884.478,-231 884.478,-211 759.522,-211"/>
<text text-anchor="middle" x="822" y="-217" font-family="Helvetica,sans-Serif" font-size="10.00">code/om/expression.hpp</text>
</a>
</g>
</g>
<!-- Node8&#45;&gt;Node9 -->
<g id="edge9" class="edge"><title>Node8&#45;&gt;Node9</title>
<path fill="none" stroke="midnightblue" d="M827.899,-258.707C826.394,-249.338 824.656,-238.526 823.459,-231.075"/>
<polygon fill="midnightblue" stroke="midnightblue" points="824.471,-259.435 829.514,-268.753 831.383,-258.324 824.471,-259.435"/>
</g>
<!-- Node21 -->
<g id="node21" class="node"><title>Node21</title>
<g id="a_node21"><a xlink:href="form_8cpp.html" target="_top" xlink:title="Om source file.">
<polygon fill="none" stroke="black" points="901.983,-211 901.983,-231 998.017,-231 998.017,-211 901.983,-211"/>
<text text-anchor="middle" x="950" y="-217" font-family="Helvetica,sans-Serif" font-size="10.00">code/om/form.cpp</text>
</a>
</g>
</g>
<!-- Node8&#45;&gt;Node21 -->
<g id="edge26" class="edge"><title>Node8&#45;&gt;Node21</title>
<path fill="none" stroke="midnightblue" d="M854.527,-264.144C875.13,-253.823 904.714,-240.025 925.584,-231.075"/>
<polygon fill="midnightblue" stroke="midnightblue" points="852.804,-261.093 845.484,-268.753 855.983,-267.33 852.804,-261.093"/>
</g>
<!-- Node10 -->
<g id="node10" class="node"><title>Node10</title>
<g id="a_node10"><a xlink:href="evaluation_8hpp.html" target="_top" xlink:title="Om header file.">
<polygon fill="none" stroke="black" points="546.907,-147 546.907,-167 669.093,-167 669.093,-147 546.907,-147"/>
<text text-anchor="middle" x="608" y="-153" font-family="Helvetica,sans-Serif" font-size="10.00">code/om/evaluation.hpp</text>
</a>
</g>
</g>
<!-- Node9&#45;&gt;Node10 -->
<g id="edge10" class="edge"><title>Node9&#45;&gt;Node10</title>
<path fill="none" stroke="midnightblue" d="M781.115,-208.155C739.734,-196.166 676.654,-177.891 639.155,-167.026"/>
<polygon fill="midnightblue" stroke="midnightblue" points="780.304,-211.564 790.883,-210.985 782.252,-204.84 780.304,-211.564"/>
</g>
<!-- Node12 -->
<g id="node12" class="node"><title>Node12</title>
<g id="a_node12"><a xlink:href="expression_8cpp.html" target="_top" xlink:title="Om source file.">
<polygon fill="none" stroke="black" points="686.803,-147 686.803,-167 811.197,-167 811.197,-147 686.803,-147"/>
<text text-anchor="middle" x="749" y="-153" font-family="Helvetica,sans-Serif" font-size="10.00">code/om/expression.cpp</text>
</a>
</g>
</g>
<!-- Node9&#45;&gt;Node12 -->
<g id="edge13" class="edge"><title>Node9&#45;&gt;Node12</title>
<path fill="none" stroke="midnightblue" d="M798.203,-204.8C782.948,-193.023 764.503,-177.092 754.853,-167.186"/>
<polygon fill="midnightblue" stroke="midnightblue" points="796.173,-207.653 806.273,-210.852 800.372,-202.052 796.173,-207.653"/>
</g>
<!-- Node13 -->
<g id="node13" class="node"><title>Node13</title>
<g id="a_node13"><a xlink:href="expression__operation_8hpp.html" target="_top" xlink:title="Om header file.">
<polygon fill="none" stroke="black" points="829.069,-141 829.069,-173 962.931,-173 962.931,-141 829.069,-141"/>
<text text-anchor="start" x="837.069" y="-159" font-family="Helvetica,sans-Serif" font-size="10.00">code/om/operations</text>
<text text-anchor="middle" x="896" y="-147" font-family="Helvetica,sans-Serif" font-size="10.00">/expression_operation.hpp</text>
</a>
</g>
</g>
<!-- Node9&#45;&gt;Node13 -->
<g id="edge15" class="edge"><title>Node9&#45;&gt;Node13</title>
<path fill="none" stroke="midnightblue" d="M840.914,-204.153C852.271,-194.638 866.643,-182.596 877.859,-173.199"/>
<polygon fill="midnightblue" stroke="midnightblue" points="838.336,-201.747 832.919,-210.852 842.832,-207.112 838.336,-201.747"/>
</g>
<!-- Node15 -->
<g id="node15" class="node"><title>Node15</title>
<g id="a_node15"><a xlink:href="fill__operation_8hpp.html" target="_top" xlink:title="Om header file.">
<polygon fill="none" stroke="black" points="981.084,-141 981.084,-173 1084.92,-173 1084.92,-141 981.084,-141"/>
<text text-anchor="start" x="989.084" y="-159" font-family="Helvetica,sans-Serif" font-size="10.00">code/om/operations</text>
<text text-anchor="middle" x="1033" y="-147" font-family="Helvetica,sans-Serif" font-size="10.00">/fill_operation.hpp</text>
</a>
</g>
</g>
<!-- Node9&#45;&gt;Node15 -->
<g id="edge17" class="edge"><title>Node9&#45;&gt;Node15</title>
<path fill="none" stroke="midnightblue" d="M862.286,-208.162C896.275,-198.175 945.122,-183.822 981.864,-173.026"/>
<polygon fill="midnightblue" stroke="midnightblue" points="861.289,-204.807 852.681,-210.985 863.262,-211.523 861.289,-204.807"/>
</g>
<!-- Node17 -->
<g id="node17" class="node"><title>Node17</title>
<g id="a_node17"><a xlink:href="inject__operation_8hpp.html" target="_top" xlink:title="Om header file.">
<polygon fill="none" stroke="black" points="1102.58,-141 1102.58,-173 1211.42,-173 1211.42,-141 1102.58,-141"/>
<text text-anchor="start" x="1110.58" y="-159" font-family="Helvetica,sans-Serif" font-size="10.00">code/om/operations</text>
<text text-anchor="middle" x="1157" y="-147" font-family="Helvetica,sans-Serif" font-size="10.00">/inject_operation.hpp</text>
</a>
</g>
</g>
<!-- Node9&#45;&gt;Node17 -->
<g id="edge20" class="edge"><title>Node9&#45;&gt;Node17</title>
<path fill="none" stroke="midnightblue" d="M893.297,-209.431C948.112,-200.935 1025.62,-188.12 1093,-174 1096.03,-173.366 1099.13,-172.687 1102.25,-171.981"/>
<polygon fill="midnightblue" stroke="midnightblue" points="892.683,-205.984 883.333,-210.966 893.749,-212.902 892.683,-205.984"/>
</g>
<!-- Node19 -->
<g id="node19" class="node"><title>Node19</title>
<g id="a_node19"><a xlink:href="skip__operation_8hpp.html" target="_top" xlink:title="Om header file.">
<polygon fill="none" stroke="black" points="1229.08,-141 1229.08,-173 1332.92,-173 1332.92,-141 1229.08,-141"/>
<text text-anchor="start" x="1237.08" y="-159" font-family="Helvetica,sans-Serif" font-size="10.00">code/om/operations</text>
<text text-anchor="middle" x="1281" y="-147" font-family="Helvetica,sans-Serif" font-size="10.00">/skip_operation.hpp</text>
</a>
</g>
</g>
<!-- Node9&#45;&gt;Node19 -->
<g id="edge23" class="edge"><title>Node9&#45;&gt;Node19</title>
<path fill="none" stroke="midnightblue" d="M894.869,-209.807C1039.84,-192.18 1079.46,-200.022 1220,-174 1222.91,-173.462 1225.88,-172.859 1228.87,-172.212"/>
<polygon fill="midnightblue" stroke="midnightblue" points="894.201,-206.363 884.706,-211.063 895.06,-213.31 894.201,-206.363"/>
</g>
<!-- Node11 -->
<g id="node11" class="node"><title>Node11</title>
<g id="a_node11"><a xlink:href="evaluation_8cpp.html" target="_top" xlink:title="Om source file.">
<polygon fill="none" stroke="black" points="547.188,-77 547.188,-97 668.812,-97 668.812,-77 547.188,-77"/>
<text text-anchor="middle" x="608" y="-83" font-family="Helvetica,sans-Serif" font-size="10.00">code/om/evaluation.cpp</text>
</a>
</g>
</g>
<!-- Node10&#45;&gt;Node11 -->
<g id="edge11" class="edge"><title>Node10&#45;&gt;Node11</title>
<path fill="none" stroke="midnightblue" d="M601.833,-136.557C600.726,-123.557 601.195,-107.057 603.241,-97.0255"/>
<polygon fill="midnightblue" stroke="midnightblue" points="598.412,-137.384 603.211,-146.829 605.35,-136.453 598.412,-137.384"/>
</g>
<!-- Node11&#45;&gt;Node10 -->
<g id="edge12" class="edge"><title>Node11&#45;&gt;Node10</title>
<path fill="none" stroke="midnightblue" d="M614.151,-107.256C615.273,-120.222 614.819,-136.735 612.789,-146.829"/>
<polygon fill="midnightblue" stroke="midnightblue" points="617.575,-106.462 612.759,-97.0255 610.639,-107.406 617.575,-106.462"/>
</g>
<!-- Node12&#45;&gt;Node9 -->
<g id="edge14" class="edge"><title>Node12&#45;&gt;Node9</title>
<path fill="none" stroke="midnightblue" d="M772.855,-173.244C788.118,-185.033 806.555,-200.961 816.184,-210.852"/>
<polygon fill="midnightblue" stroke="midnightblue" points="774.878,-170.387 764.779,-167.186 770.678,-175.986 774.878,-170.387"/>
</g>
<!-- Node14 -->
<g id="node14" class="node"><title>Node14</title>
<g id="a_node14"><a xlink:href="expression__operation_8cpp.html" target="_top" xlink:title="Om source file.">
<polygon fill="none" stroke="black" points="829.35,-71 829.35,-103 962.65,-103 962.65,-71 829.35,-71"/>
<text text-anchor="start" x="837.35" y="-89" font-family="Helvetica,sans-Serif" font-size="10.00">code/om/operations</text>
<text text-anchor="middle" x="896" y="-77" font-family="Helvetica,sans-Serif" font-size="10.00">/expression_operation.cpp</text>
</a>
</g>
</g>
<!-- Node13&#45;&gt;Node14 -->
<g id="edge16" class="edge"><title>Node13&#45;&gt;Node14</title>
<path fill="none" stroke="midnightblue" d="M896,-130.617C896,-121.338 896,-111.141 896,-103.049"/>
<polygon fill="midnightblue" stroke="midnightblue" points="892.5,-130.909 896,-140.909 899.5,-130.909 892.5,-130.909"/>
</g>
<!-- Node16 -->
<g id="node16" class="node"><title>Node16</title>
<g id="a_node16"><a xlink:href="fill__operation_8cpp.html" target="_top" xlink:title="Om source file.">
<polygon fill="none" stroke="black" points="981.084,-71 981.084,-103 1084.92,-103 1084.92,-71 981.084,-71"/>
<text text-anchor="start" x="989.084" y="-89" font-family="Helvetica,sans-Serif" font-size="10.00">code/om/operations</text>
<text text-anchor="middle" x="1033" y="-77" font-family="Helvetica,sans-Serif" font-size="10.00">/fill_operation.cpp</text>
</a>
</g>
</g>
<!-- Node15&#45;&gt;Node16 -->
<g id="edge18" class="edge"><title>Node15&#45;&gt;Node16</title>
<path fill="none" stroke="midnightblue" d="M1026.46,-130.92C1026.01,-121.56 1026.28,-111.229 1027.29,-103.049"/>
<polygon fill="midnightblue" stroke="midnightblue" points="1022.97,-131.228 1027.28,-140.909 1029.95,-130.656 1022.97,-131.228"/>
</g>
<!-- Node16&#45;&gt;Node15 -->
<g id="edge19" class="edge"><title>Node16&#45;&gt;Node15</title>
<path fill="none" stroke="midnightblue" d="M1039.54,-113.032C1039.99,-122.389 1039.72,-132.721 1038.72,-140.909"/>
<polygon fill="midnightblue" stroke="midnightblue" points="1043.02,-112.728 1038.71,-103.049 1036.05,-113.303 1043.02,-112.728"/>
</g>
<!-- Node18 -->
<g id="node18" class="node"><title>Node18</title>
<g id="a_node18"><a xlink:href="inject__operation_8cpp.html" target="_top" xlink:title="Om source file.">
<polygon fill="none" stroke="black" points="1102.86,-71 1102.86,-103 1211.14,-103 1211.14,-71 1102.86,-71"/>
<text text-anchor="start" x="1110.86" y="-89" font-family="Helvetica,sans-Serif" font-size="10.00">code/om/operations</text>
<text text-anchor="middle" x="1157" y="-77" font-family="Helvetica,sans-Serif" font-size="10.00">/inject_operation.cpp</text>
</a>
</g>
</g>
<!-- Node17&#45;&gt;Node18 -->
<g id="edge21" class="edge"><title>Node17&#45;&gt;Node18</title>
<path fill="none" stroke="midnightblue" d="M1150.46,-130.92C1150.01,-121.56 1150.28,-111.229 1151.29,-103.049"/>
<polygon fill="midnightblue" stroke="midnightblue" points="1146.97,-131.228 1151.28,-140.909 1153.95,-130.656 1146.97,-131.228"/>
</g>
<!-- Node18&#45;&gt;Node17 -->
<g id="edge22" class="edge"><title>Node18&#45;&gt;Node17</title>
<path fill="none" stroke="midnightblue" d="M1163.54,-113.032C1163.99,-122.389 1163.72,-132.721 1162.72,-140.909"/>
<polygon fill="midnightblue" stroke="midnightblue" points="1167.02,-112.728 1162.71,-103.049 1160.05,-113.303 1167.02,-112.728"/>
</g>
<!-- Node20 -->
<g id="node20" class="node"><title>Node20</title>
<g id="a_node20"><a xlink:href="skip__operation_8cpp.html" target="_top" xlink:title="Om source file.">
<polygon fill="none" stroke="black" points="1229.08,-71 1229.08,-103 1332.92,-103 1332.92,-71 1229.08,-71"/>
<text text-anchor="start" x="1237.08" y="-89" font-family="Helvetica,sans-Serif" font-size="10.00">code/om/operations</text>
<text text-anchor="middle" x="1281" y="-77" font-family="Helvetica,sans-Serif" font-size="10.00">/skip_operation.cpp</text>
</a>
</g>
</g>
<!-- Node19&#45;&gt;Node20 -->
<g id="edge24" class="edge"><title>Node19&#45;&gt;Node20</title>
<path fill="none" stroke="midnightblue" d="M1274.46,-130.92C1274.01,-121.56 1274.28,-111.229 1275.29,-103.049"/>
<polygon fill="midnightblue" stroke="midnightblue" points="1270.97,-131.228 1275.28,-140.909 1277.95,-130.656 1270.97,-131.228"/>
</g>
<!-- Node20&#45;&gt;Node19 -->
<g id="edge25" class="edge"><title>Node20&#45;&gt;Node19</title>
<path fill="none" stroke="midnightblue" d="M1287.54,-113.032C1287.99,-122.389 1287.72,-132.721 1286.72,-140.909"/>
<polygon fill="midnightblue" stroke="midnightblue" points="1291.02,-112.728 1286.71,-103.049 1284.05,-113.303 1291.02,-112.728"/>
</g>
<!-- Node21&#45;&gt;Node8 -->
<g id="edge27" class="edge"><title>Node21&#45;&gt;Node8</title>
<path fill="none" stroke="midnightblue" d="M926.743,-235.721C906.164,-246.039 876.481,-259.888 855.525,-268.878"/>
<polygon fill="midnightblue" stroke="midnightblue" points="928.447,-238.781 935.764,-231.118 925.266,-232.545 928.447,-238.781"/>
</g>
<!-- Node22&#45;&gt;Node7 -->
<g id="edge29" class="edge"><title>Node22&#45;&gt;Node7</title>
<path fill="none" stroke="midnightblue" d="M930.988,-293.721C910.594,-304.039 881.158,-317.888 860.362,-326.878"/>
<polygon fill="midnightblue" stroke="midnightblue" points="932.638,-296.808 939.927,-289.118 929.434,-290.584 932.638,-296.808"/>
</g>
<!-- Node24 -->
<g id="node24" class="node"><title>Node24</title>
<g id="a_node24"><a xlink:href="lexicon_8hpp.html" target="_top" xlink:title="Om header file.">
<polygon fill="none" stroke="black" points="129.138,-211 129.138,-231 236.862,-231 236.862,-211 129.138,-211"/>
<text text-anchor="middle" x="183" y="-217" font-family="Helvetica,sans-Serif" font-size="10.00">code/om/lexicon.hpp</text>
</a>
</g>
</g>
<!-- Node23&#45;&gt;Node24 -->
<g id="edge31" class="edge"><title>Node23&#45;&gt;Node24</title>
<path fill="none" stroke="midnightblue" d="M634.106,-270.144C628.331,-269.396 622.551,-268.669 617,-268 480.467,-251.543 319.38,-235.299 237.185,-227.238"/>
<polygon fill="midnightblue" stroke="midnightblue" points="634.075,-273.669 644.446,-271.501 634.987,-266.729 634.075,-273.669"/>
</g>
<!-- Node32 -->
<g id="node32" class="node"><title>Node32</title>
<g id="a_node32"><a xlink:href="pair_8cpp.html" target="_top" xlink:title="Om source file.">
<polygon fill="none" stroke="black" points="644.919,-211 644.919,-231 737.081,-231 737.081,-211 644.919,-211"/>
<text text-anchor="middle" x="691" y="-217" font-family="Helvetica,sans-Serif" font-size="10.00">code/om/pair.cpp</text>
</a>
</g>
</g>
<!-- Node23&#45;&gt;Node32 -->
<g id="edge42" class="edge"><title>Node23&#45;&gt;Node32</title>
<path fill="none" stroke="midnightblue" d="M684.549,-258.707C683.886,-249.338 684.326,-238.526 685.869,-231.075"/>
<polygon fill="midnightblue" stroke="midnightblue" points="681.093,-259.278 685.834,-268.753 688.037,-258.389 681.093,-259.278"/>
</g>
<!-- Node25 -->
<g id="node25" class="node"><title>Node25</title>
<g id="a_node25"><a xlink:href="lexicon_8cpp.html" target="_top" xlink:title="Om source file.">
<polygon fill="none" stroke="black" points="-0.581055,-147 -0.581055,-167 106.581,-167 106.581,-147 -0.581055,-147"/>
<text text-anchor="middle" x="53" y="-153" font-family="Helvetica,sans-Serif" font-size="10.00">code/om/lexicon.cpp</text>
</a>
</g>
</g>
<!-- Node24&#45;&gt;Node25 -->
<g id="edge32" class="edge"><title>Node24&#45;&gt;Node25</title>
<path fill="none" stroke="midnightblue" d="M149.766,-206.839C122.963,-194.862 86.7954,-177.5 66.9956,-167.026"/>
<polygon fill="midnightblue" stroke="midnightblue" points="148.607,-210.153 159.169,-210.985 151.431,-203.748 148.607,-210.153"/>
</g>
<!-- Node26 -->
<g id="node26" class="node"><title>Node26</title>
<g id="a_node26"><a xlink:href="lexicon__operation_8hpp.html" target="_top" xlink:title="Om header file.">
<polygon fill="none" stroke="black" points="124.685,-141 124.685,-173 241.315,-173 241.315,-141 124.685,-141"/>
<text text-anchor="start" x="132.685" y="-159" font-family="Helvetica,sans-Serif" font-size="10.00">code/om/operations</text>
<text text-anchor="middle" x="183" y="-147" font-family="Helvetica,sans-Serif" font-size="10.00">/lexicon_operation.hpp</text>
</a>
</g>
</g>
<!-- Node24&#45;&gt;Node26 -->
<g id="edge34" class="edge"><title>Node24&#45;&gt;Node26</title>
<path fill="none" stroke="midnightblue" d="M183,-200.775C183,-191.986 183,-181.715 183,-173.44"/>
<polygon fill="midnightblue" stroke="midnightblue" points="179.5,-200.852 183,-210.852 186.5,-200.852 179.5,-200.852"/>
</g>
<!-- Node28 -->
<g id="node28" class="node"><title>Node28</title>
<g id="a_node28"><a xlink:href="translate__operation_8hpp.html" target="_top" xlink:title="Om header file.">
<polygon fill="none" stroke="black" points="259.072,-141 259.072,-173 382.928,-173 382.928,-141 259.072,-141"/>
<text text-anchor="start" x="267.072" y="-159" font-family="Helvetica,sans-Serif" font-size="10.00">code/om/operations</text>
<text text-anchor="middle" x="321" y="-147" font-family="Helvetica,sans-Serif" font-size="10.00">/translate_operation.hpp</text>
</a>
</g>
</g>
<!-- Node24&#45;&gt;Node28 -->
<g id="edge36" class="edge"><title>Node24&#45;&gt;Node28</title>
<path fill="none" stroke="midnightblue" d="M212.263,-206.853C234.306,-196.95 264.556,-183.359 287.556,-173.026"/>
<polygon fill="midnightblue" stroke="midnightblue" points="210.754,-203.694 203.066,-210.985 213.622,-210.079 210.754,-203.694"/>
</g>
<!-- Node25&#45;&gt;Node24 -->
<g id="edge33" class="edge"><title>Node25&#45;&gt;Node24</title>
<path fill="none" stroke="midnightblue" d="M86.2623,-171.174C113.071,-183.154 149.236,-200.516 169.025,-210.985"/>
<polygon fill="midnightblue" stroke="midnightblue" points="87.4184,-167.859 76.8563,-167.026 84.594,-174.264 87.4184,-167.859"/>
</g>
<!-- Node27 -->
<g id="node27" class="node"><title>Node27</title>
<g id="a_node27"><a xlink:href="lexicon__operation_8cpp.html" target="_top" xlink:title="Om source file.">
<polygon fill="none" stroke="black" points="124.966,-71 124.966,-103 241.034,-103 241.034,-71 124.966,-71"/>
<text text-anchor="start" x="132.966" y="-89" font-family="Helvetica,sans-Serif" font-size="10.00">code/om/operations</text>
<text text-anchor="middle" x="183" y="-77" font-family="Helvetica,sans-Serif" font-size="10.00">/lexicon_operation.cpp</text>
</a>
</g>
</g>
<!-- Node26&#45;&gt;Node27 -->
<g id="edge35" class="edge"><title>Node26&#45;&gt;Node27</title>
<path fill="none" stroke="midnightblue" d="M183,-130.617C183,-121.338 183,-111.141 183,-103.049"/>
<polygon fill="midnightblue" stroke="midnightblue" points="179.5,-130.909 183,-140.909 186.5,-130.909 179.5,-130.909"/>
</g>
<!-- Node29 -->
<g id="node29" class="node"><title>Node29</title>
<g id="a_node29"><a xlink:href="substitute__operation_8hpp.html" target="_top" xlink:title="Om header file.">
<polygon fill="none" stroke="black" points="400.848,-71 400.848,-103 529.152,-103 529.152,-71 400.848,-71"/>
<text text-anchor="start" x="408.848" y="-89" font-family="Helvetica,sans-Serif" font-size="10.00">code/om/operations</text>
<text text-anchor="middle" x="465" y="-77" font-family="Helvetica,sans-Serif" font-size="10.00">/substitute_operation.hpp</text>
</a>
</g>
</g>
<!-- Node28&#45;&gt;Node29 -->
<g id="edge37" class="edge"><title>Node28&#45;&gt;Node29</title>
<path fill="none" stroke="midnightblue" d="M362.277,-136.508C384.804,-125.87 412.27,-112.9 433.131,-103.049"/>
<polygon fill="midnightblue" stroke="midnightblue" points="360.506,-133.474 352.958,-140.909 363.495,-139.803 360.506,-133.474"/>
</g>
<!-- Node31 -->
<g id="node31" class="node"><title>Node31</title>
<g id="a_node31"><a xlink:href="translate__operation_8cpp.html" target="_top" xlink:title="Om source file.">
<polygon fill="none" stroke="black" points="259.353,-71 259.353,-103 382.647,-103 382.647,-71 259.353,-71"/>
<text text-anchor="start" x="267.353" y="-89" font-family="Helvetica,sans-Serif" font-size="10.00">code/om/operations</text>
<text text-anchor="middle" x="321" y="-77" font-family="Helvetica,sans-Serif" font-size="10.00">/translate_operation.cpp</text>
</a>
</g>
</g>
<!-- Node28&#45;&gt;Node31 -->
<g id="edge40" class="edge"><title>Node28&#45;&gt;Node31</title>
<path fill="none" stroke="midnightblue" d="M314.461,-130.92C314.009,-121.56 314.284,-111.229 315.285,-103.049"/>
<polygon fill="midnightblue" stroke="midnightblue" points="310.974,-131.228 315.28,-140.909 317.951,-130.656 310.974,-131.228"/>
</g>
<!-- Node30 -->
<g id="node30" class="node"><title>Node30</title>
<g id="a_node30"><a xlink:href="substitute__operation_8cpp.html" target="_top" xlink:title="Om source file.">
<polygon fill="none" stroke="black" points="401.128,-1 401.128,-33 528.872,-33 528.872,-1 401.128,-1"/>
<text text-anchor="start" x="409.128" y="-19" font-family="Helvetica,sans-Serif" font-size="10.00">code/om/operations</text>
<text text-anchor="middle" x="465" y="-7" font-family="Helvetica,sans-Serif" font-size="10.00">/substitute_operation.cpp</text>
</a>
</g>
</g>
<!-- Node29&#45;&gt;Node30 -->
<g id="edge38" class="edge"><title>Node29&#45;&gt;Node30</title>
<path fill="none" stroke="midnightblue" d="M458.461,-60.9196C458.009,-51.5597 458.284,-41.2293 459.285,-33.0492"/>
<polygon fill="midnightblue" stroke="midnightblue" points="454.974,-61.2281 459.28,-70.9086 461.951,-60.656 454.974,-61.2281"/>
</g>
<!-- Node30&#45;&gt;Node29 -->
<g id="edge39" class="edge"><title>Node30&#45;&gt;Node29</title>
<path fill="none" stroke="midnightblue" d="M471.537,-43.0321C471.991,-52.3887 471.719,-62.7211 470.72,-70.9086"/>
<polygon fill="midnightblue" stroke="midnightblue" points="475.024,-42.7283 470.715,-33.0492 468.047,-43.3027 475.024,-42.7283"/>
</g>
<!-- Node31&#45;&gt;Node28 -->
<g id="edge41" class="edge"><title>Node31&#45;&gt;Node28</title>
<path fill="none" stroke="midnightblue" d="M327.537,-113.032C327.991,-122.389 327.719,-132.721 326.72,-140.909"/>
<polygon fill="midnightblue" stroke="midnightblue" points="331.024,-112.728 326.715,-103.049 324.047,-113.303 331.024,-112.728"/>
</g>
<!-- Node32&#45;&gt;Node23 -->
<g id="edge43" class="edge"><title>Node32&#45;&gt;Node23</title>
<path fill="none" stroke="midnightblue" d="M697.436,-241.078C698.116,-250.424 697.692,-261.25 696.166,-268.753"/>
<polygon fill="midnightblue" stroke="midnightblue" points="700.895,-240.538 696.131,-231.075 693.954,-241.444 700.895,-240.538"/>
</g>
<!-- Node34 -->
<g id="node34" class="node"><title>Node34</title>
<g id="a_node34"><a xlink:href="separator_8cpp.html" target="_top" xlink:title="Om source file.">
<polygon fill="none" stroke="black" points="491.133,-269 491.133,-289 608.867,-289 608.867,-269 491.133,-269"/>
<text text-anchor="middle" x="550" y="-275" font-family="Helvetica,sans-Serif" font-size="10.00">code/om/separator.cpp</text>
</a>
</g>
</g>
<!-- Node33&#45;&gt;Node34 -->
<g id="edge45" class="edge"><title>Node33&#45;&gt;Node34</title>
<path fill="none" stroke="midnightblue" d="M543.549,-316.707C542.886,-307.338 543.326,-296.526 544.869,-289.075"/>
<polygon fill="midnightblue" stroke="midnightblue" points="540.093,-317.278 544.834,-326.753 547.037,-316.389 540.093,-317.278"/>
</g>
<!-- Node34&#45;&gt;Node33 -->
<g id="edge46" class="edge"><title>Node34&#45;&gt;Node33</title>
<path fill="none" stroke="midnightblue" d="M556.436,-299.078C557.116,-308.424 556.692,-319.25 555.166,-326.753"/>
<polygon fill="midnightblue" stroke="midnightblue" points="559.895,-298.538 555.131,-289.075 552.954,-299.444 559.895,-298.538"/>
</g>
<!-- Node35&#45;&gt;Node4 -->
<g id="edge48" class="edge"><title>Node35&#45;&gt;Node4</title>
<path fill="none" stroke="midnightblue" d="M788.562,-408.752C760.513,-419.156 719.285,-433.603 691.041,-442.878"/>
<polygon fill="midnightblue" stroke="midnightblue" points="790.117,-411.907 798.251,-405.118 787.659,-405.352 790.117,-411.907"/>
</g>
<!-- Node37 -->
<g id="node37" class="node"><title>Node37</title>
<g id="a_node37"><a xlink:href="operand_8cpp.html" target="_top" xlink:title="Om source file.">
<polygon fill="none" stroke="black" points="359.633,-327 359.633,-347 472.367,-347 472.367,-327 359.633,-327"/>
<text text-anchor="middle" x="416" y="-333" font-family="Helvetica,sans-Serif" font-size="10.00">code/om/operand.cpp</text>
</a>
</g>
</g>
<!-- Node36&#45;&gt;Node37 -->
<g id="edge50" class="edge"><title>Node36&#45;&gt;Node37</title>
<path fill="none" stroke="midnightblue" d="M433.08,-376.52C426.296,-366.763 419.554,-355.012 416.379,-347.075"/>
<polygon fill="midnightblue" stroke="midnightblue" points="430.435,-378.829 439.219,-384.753 436.047,-374.644 430.435,-378.829"/>
</g>
<!-- Node37&#45;&gt;Node36 -->
<g id="edge51" class="edge"><title>Node37&#45;&gt;Node36</title>
<path fill="none" stroke="midnightblue" d="M432.774,-355.27C439.557,-364.998 446.325,-376.761 449.552,-384.753"/>
<polygon fill="midnightblue" stroke="midnightblue" points="435.435,-352.984 426.641,-347.075 429.831,-357.178 435.435,-352.984"/>
</g>
<!-- Node38&#45;&gt;Node3 -->
<g id="edge53" class="edge"><title>Node38&#45;&gt;Node3</title>
<path fill="none" stroke="midnightblue" d="M832.436,-473.078C833.116,-482.424 832.692,-493.25 831.166,-500.753"/>
<polygon fill="midnightblue" stroke="midnightblue" points="835.895,-472.538 831.131,-463.075 828.954,-473.444 835.895,-472.538"/>
</g>
<!-- Node40 -->
<g id="node40" class="node"><title>Node40</title>
<g id="a_node40"><a xlink:href="literal_8cpp.html" target="_top" xlink:title="Om source file.">
<polygon fill="none" stroke="black" points="919.035,-385 919.035,-405 1018.97,-405 1018.97,-385 919.035,-385"/>
<text text-anchor="middle" x="969" y="-391" font-family="Helvetica,sans-Serif" font-size="10.00">code/om/literal.cpp</text>
</a>
</g>
</g>
<!-- Node39&#45;&gt;Node40 -->
<g id="edge55" class="edge"><title>Node39&#45;&gt;Node40</title>
<path fill="none" stroke="midnightblue" d="M962.549,-432.707C961.886,-423.338 962.326,-412.526 963.869,-405.075"/>
<polygon fill="midnightblue" stroke="midnightblue" points="959.093,-433.278 963.834,-442.753 966.037,-432.389 959.093,-433.278"/>
</g>
<!-- Node40&#45;&gt;Node39 -->
<g id="edge56" class="edge"><title>Node40&#45;&gt;Node39</title>
<path fill="none" stroke="midnightblue" d="M975.436,-415.078C976.116,-424.424 975.692,-435.25 974.166,-442.753"/>
<polygon fill="midnightblue" stroke="midnightblue" points="978.895,-414.538 974.131,-405.075 971.954,-415.444 978.895,-414.538"/>
</g>
<!-- Node42 -->
<g id="node42" class="node"><title>Node42</title>
<g id="a_node42"><a xlink:href="null_8cpp.html" target="_top" xlink:title="Om source file.">
<polygon fill="none" stroke="black" points="1037.2,-385 1037.2,-405 1128.8,-405 1128.8,-385 1037.2,-385"/>
<text text-anchor="middle" x="1083" y="-391" font-family="Helvetica,sans-Serif" font-size="10.00">code/om/null.cpp</text>
</a>
</g>
</g>
<!-- Node41&#45;&gt;Node42 -->
<g id="edge58" class="edge"><title>Node41&#45;&gt;Node42</title>
<path fill="none" stroke="midnightblue" d="M1076.55,-432.707C1075.89,-423.338 1076.33,-412.526 1077.87,-405.075"/>
<polygon fill="midnightblue" stroke="midnightblue" points="1073.09,-433.278 1077.83,-442.753 1080.04,-432.389 1073.09,-433.278"/>
</g>
<!-- Node42&#45;&gt;Node41 -->
<g id="edge59" class="edge"><title>Node42&#45;&gt;Node41</title>
<path fill="none" stroke="midnightblue" d="M1089.44,-415.078C1090.12,-424.424 1089.69,-435.25 1088.17,-442.753"/>
<polygon fill="midnightblue" stroke="midnightblue" points="1092.9,-414.538 1088.13,-405.075 1085.95,-415.444 1092.9,-414.538"/>
</g>
<!-- Node43&#45;&gt;Node36 -->
<g id="edge61" class="edge"><title>Node43&#45;&gt;Node36</title>
<path fill="none" stroke="midnightblue" d="M511.558,-491.971C519.754,-477.798 527.492,-457.867 519,-442 509.625,-424.483 490.307,-412.484 474.49,-405.145"/>
<polygon fill="midnightblue" stroke="midnightblue" points="508.397,-490.421 506.005,-500.743 514.311,-494.166 508.397,-490.421"/>
</g>
<!-- Node44 -->
<g id="node44" class="node"><title>Node44</title>
<g id="a_node44"><a xlink:href="owner_8cpp.html" target="_top" xlink:title="Om source file.">
<polygon fill="none" stroke="black" points="407.638,-443 407.638,-463 510.362,-463 510.362,-443 407.638,-443"/>
<text text-anchor="middle" x="459" y="-449" font-family="Helvetica,sans-Serif" font-size="10.00">code/om/owner.cpp</text>
</a>
</g>
</g>
<!-- Node43&#45;&gt;Node44 -->
<g id="edge62" class="edge"><title>Node43&#45;&gt;Node44</title>
<path fill="none" stroke="midnightblue" d="M480.686,-493.114C472.706,-483.244 464.459,-471.174 460.351,-463.075"/>
<polygon fill="midnightblue" stroke="midnightblue" points="478.065,-495.435 487.228,-500.753 483.381,-490.881 478.065,-495.435"/>
</g>
<!-- Node44&#45;&gt;Node43 -->
<g id="edge63" class="edge"><title>Node44&#45;&gt;Node43</title>
<path fill="none" stroke="midnightblue" d="M477.145,-470.677C485.121,-480.516 493.395,-492.598 497.561,-500.753"/>
<polygon fill="midnightblue" stroke="midnightblue" points="479.785,-468.379 470.613,-463.075 474.476,-472.941 479.785,-468.379"/>
</g>
</g>
</svg>
