<?xml version="1.0" encoding="UTF-8" standalone="no"?>
<!DOCTYPE svg PUBLIC "-//W3C//DTD SVG 1.1//EN"
 "http://www.w3.org/Graphics/SVG/1.1/DTD/svg11.dtd">
<!-- Generated by graphviz version 2.28.0 (20120817.0054)
 -->
<!-- Title: code/om/translator.hpp Pages: 1 -->
<svg width="776pt" height="288pt"
 viewBox="0.00 0.00 776.00 288.00" xmlns="http://www.w3.org/2000/svg" xmlns:xlink="http://www.w3.org/1999/xlink">
<g id="graph1" class="graph" transform="scale(1 1) rotate(0) translate(4 284)">
<title>code/om/translator.hpp</title>
<!-- Node1 -->
<g id="node1" class="node"><title>Node1</title>
<polygon fill="#bfbfbf" stroke="black" points="527.5,-260.5 527.5,-279.5 640.5,-279.5 640.5,-260.5 527.5,-260.5"/>
<text text-anchor="middle" x="584" y="-267.5" font-family="Helvetica,sans-Serif" font-size="10.00">code/om/translator.hpp</text>
</g>
<!-- Node2 -->
<g id="node3" class="node"><title>Node2</title>
<a xlink:href="environment_8hpp.html" target="_top" xlink:title="Om header file.">
<polygon fill="none" stroke="black" points="-0.5,-204.5 -0.5,-223.5 124.5,-223.5 124.5,-204.5 -0.5,-204.5"/>
<text text-anchor="middle" x="62" y="-211.5" font-family="Helvetica,sans-Serif" font-size="10.00">code/om/environment.hpp</text>
</a>
</g>
<!-- Node1&#45;&gt;Node2 -->
<g id="edge2" class="edge"><title>Node1&#45;&gt;Node2</title>
<path fill="none" stroke="midnightblue" d="M517.005,-262.07C415.448,-251.564 223.899,-231.748 124.853,-221.502"/>
<polygon fill="midnightblue" stroke="midnightblue" points="516.836,-265.571 527.143,-263.118 517.556,-258.608 516.836,-265.571"/>
</g>
<!-- Node4 -->
<g id="node8" class="node"><title>Node4</title>
<a xlink:href="lexicon_8hpp.html" target="_top" xlink:title="Om header file.">
<polygon fill="none" stroke="black" points="268,-204.5 268,-223.5 372,-223.5 372,-204.5 268,-204.5"/>
<text text-anchor="middle" x="320" y="-211.5" font-family="Helvetica,sans-Serif" font-size="10.00">code/om/lexicon.hpp</text>
</a>
</g>
<!-- Node1&#45;&gt;Node4 -->
<g id="edge8" class="edge"><title>Node1&#45;&gt;Node4</title>
<path fill="none" stroke="midnightblue" d="M532.225,-258.41C482.331,-248.204 407.803,-232.96 361.636,-223.516"/>
<polygon fill="midnightblue" stroke="midnightblue" points="531.67,-261.869 542.168,-260.444 533.073,-255.01 531.67,-261.869"/>
</g>
<!-- Node12 -->
<g id="node27" class="node"><title>Node12</title>
<a xlink:href="system_8hpp.html" target="_top" xlink:title="Om header file.">
<polygon fill="none" stroke="black" points="531,-204.5 531,-223.5 637,-223.5 637,-204.5 531,-204.5"/>
<text text-anchor="middle" x="584" y="-211.5" font-family="Helvetica,sans-Serif" font-size="10.00">code/om/system.hpp</text>
</a>
</g>
<!-- Node1&#45;&gt;Node12 -->
<g id="edge30" class="edge"><title>Node1&#45;&gt;Node12</title>
<path fill="none" stroke="midnightblue" d="M584,-249.805C584,-240.91 584,-230.78 584,-223.751"/>
<polygon fill="midnightblue" stroke="midnightblue" points="580.5,-250.083 584,-260.083 587.5,-250.083 580.5,-250.083"/>
</g>
<!-- Node15 -->
<g id="node34" class="node"><title>Node15</title>
<a xlink:href="translator_8cpp.html" target="_top" xlink:title="Om source file.">
<polygon fill="none" stroke="black" points="655.5,-204.5 655.5,-223.5 768.5,-223.5 768.5,-204.5 655.5,-204.5"/>
<text text-anchor="middle" x="712" y="-211.5" font-family="Helvetica,sans-Serif" font-size="10.00">code/om/translator.cpp</text>
</a>
</g>
<!-- Node1&#45;&gt;Node15 -->
<g id="edge38" class="edge"><title>Node1&#45;&gt;Node15</title>
<path fill="none" stroke="midnightblue" d="M608.429,-256.232C630.939,-246.131 663.954,-232.309 686.733,-223.516"/>
<polygon fill="midnightblue" stroke="midnightblue" points="606.84,-253.11 599.193,-260.444 609.744,-259.479 606.84,-253.11"/>
</g>
<!-- Node3 -->
<g id="node5" class="node"><title>Node3</title>
<a xlink:href="environment_8cpp.html" target="_top" xlink:title="Om source file.">
<polygon fill="none" stroke="black" points="-0.5,-142.5 -0.5,-161.5 124.5,-161.5 124.5,-142.5 -0.5,-142.5"/>
<text text-anchor="middle" x="62" y="-149.5" font-family="Helvetica,sans-Serif" font-size="10.00">code/om/environment.cpp</text>
</a>
</g>
<!-- Node2&#45;&gt;Node3 -->
<g id="edge4" class="edge"><title>Node2&#45;&gt;Node3</title>
<path fill="none" stroke="midnightblue" d="M55.6835,-194.16C54.797,-183.248 55.2702,-170.04 57.1029,-161.581"/>
<polygon fill="midnightblue" stroke="midnightblue" points="52.2631,-194.977 57.0994,-204.403 59.1972,-194.018 52.2631,-194.977"/>
</g>
<!-- Node3&#45;&gt;Node2 -->
<g id="edge6" class="edge"><title>Node3&#45;&gt;Node2</title>
<path fill="none" stroke="midnightblue" d="M68.3149,-171.82C69.203,-182.728 68.7316,-195.938 66.9006,-204.403"/>
<polygon fill="midnightblue" stroke="midnightblue" points="71.7356,-171.006 66.8971,-161.581 64.8018,-171.966 71.7356,-171.006"/>
</g>
<!-- Node5 -->
<g id="node10" class="node"><title>Node5</title>
<a xlink:href="lexicon_8cpp.html" target="_top" xlink:title="Om source file.">
<polygon fill="none" stroke="black" points="142.5,-142.5 142.5,-161.5 245.5,-161.5 245.5,-142.5 142.5,-142.5"/>
<text text-anchor="middle" x="194" y="-149.5" font-family="Helvetica,sans-Serif" font-size="10.00">code/om/lexicon.cpp</text>
</a>
</g>
<!-- Node4&#45;&gt;Node5 -->
<g id="edge10" class="edge"><title>Node4&#45;&gt;Node5</title>
<path fill="none" stroke="midnightblue" d="M287.865,-200.374C261.677,-188.721 226.241,-171.732 207.122,-161.581"/>
<polygon fill="midnightblue" stroke="midnightblue" points="286.483,-203.59 297.047,-204.403 289.296,-197.18 286.483,-203.59"/>
</g>
<!-- Node6 -->
<g id="node13" class="node"><title>Node6</title>
<a xlink:href="lexicon__operation_8hpp.html" target="_top" xlink:title="Om header file.">
<polygon fill="none" stroke="black" points="264,-137 264,-167 376,-167 376,-137 264,-137"/>
<text text-anchor="start" x="272" y="-155" font-family="Helvetica,sans-Serif" font-size="10.00">code/om/operations</text>
<text text-anchor="middle" x="320" y="-144" font-family="Helvetica,sans-Serif" font-size="10.00">/lexicon_operation.hpp</text>
</a>
</g>
<!-- Node4&#45;&gt;Node6 -->
<g id="edge14" class="edge"><title>Node4&#45;&gt;Node6</title>
<path fill="none" stroke="midnightblue" d="M320,-194.371C320,-185.585 320,-175.272 320,-167.141"/>
<polygon fill="midnightblue" stroke="midnightblue" points="316.5,-194.403 320,-204.403 323.5,-194.403 316.5,-194.403"/>
</g>
<!-- Node8 -->
<g id="node17" class="node"><title>Node8</title>
<a xlink:href="translate__operation_8hpp.html" target="_top" xlink:title="Om header file.">
<polygon fill="none" stroke="black" points="394.5,-137 394.5,-167 513.5,-167 513.5,-137 394.5,-137"/>
<text text-anchor="start" x="402.5" y="-155" font-family="Helvetica,sans-Serif" font-size="10.00">code/om/operations</text>
<text text-anchor="middle" x="454" y="-144" font-family="Helvetica,sans-Serif" font-size="10.00">/translate_operation.hpp</text>
</a>
</g>
<!-- Node4&#45;&gt;Node8 -->
<g id="edge18" class="edge"><title>Node4&#45;&gt;Node8</title>
<path fill="none" stroke="midnightblue" d="M348.566,-200.209C370.327,-190.465 400.262,-177.062 422.677,-167.025"/>
<polygon fill="midnightblue" stroke="midnightblue" points="346.895,-197.122 339.199,-204.403 349.756,-203.511 346.895,-197.122"/>
</g>
<!-- Node5&#45;&gt;Node4 -->
<g id="edge12" class="edge"><title>Node5&#45;&gt;Node4</title>
<path fill="none" stroke="midnightblue" d="M226.094,-165.607C252.272,-177.255 287.712,-194.245 306.848,-204.403"/>
<polygon fill="midnightblue" stroke="midnightblue" points="227.48,-162.393 216.916,-161.581 224.668,-168.804 227.48,-162.393"/>
</g>
<!-- Node7 -->
<g id="node15" class="node"><title>Node7</title>
<a xlink:href="lexicon__operation_8cpp.html" target="_top" xlink:title="Om source file.">
<polygon fill="none" stroke="black" points="192.5,-69 192.5,-99 303.5,-99 303.5,-69 192.5,-69"/>
<text text-anchor="start" x="200.5" y="-87" font-family="Helvetica,sans-Serif" font-size="10.00">code/om/operations</text>
<text text-anchor="middle" x="248" y="-76" font-family="Helvetica,sans-Serif" font-size="10.00">/lexicon_operation.cpp</text>
</a>
</g>
<!-- Node6&#45;&gt;Node7 -->
<g id="edge16" class="edge"><title>Node6&#45;&gt;Node7</title>
<path fill="none" stroke="midnightblue" d="M296.847,-129.776C285.975,-119.81 273.304,-108.196 263.592,-99.2931"/>
<polygon fill="midnightblue" stroke="midnightblue" points="294.64,-132.502 304.377,-136.679 299.371,-127.342 294.64,-132.502"/>
</g>
<!-- Node9 -->
<g id="node19" class="node"><title>Node9</title>
<a xlink:href="substitute__operation_8hpp.html" target="_top" xlink:title="Om header file.">
<polygon fill="none" stroke="black" points="322,-69 322,-99 446,-99 446,-69 322,-69"/>
<text text-anchor="start" x="330" y="-87" font-family="Helvetica,sans-Serif" font-size="10.00">code/om/operations</text>
<text text-anchor="middle" x="384" y="-76" font-family="Helvetica,sans-Serif" font-size="10.00">/substitute_operation.hpp</text>
</a>
</g>
<!-- Node8&#45;&gt;Node9 -->
<g id="edge20" class="edge"><title>Node8&#45;&gt;Node9</title>
<path fill="none" stroke="midnightblue" d="M431.49,-129.776C420.92,-119.81 408.601,-108.196 399.159,-99.2931"/>
<polygon fill="midnightblue" stroke="midnightblue" points="429.134,-132.365 438.811,-136.679 433.936,-127.272 429.134,-132.365"/>
</g>
<!-- Node11 -->
<g id="node24" class="node"><title>Node11</title>
<a xlink:href="translate__operation_8cpp.html" target="_top" xlink:title="Om source file.">
<polygon fill="none" stroke="black" points="464.5,-69 464.5,-99 583.5,-99 583.5,-69 464.5,-69"/>
<text text-anchor="start" x="472.5" y="-87" font-family="Helvetica,sans-Serif" font-size="10.00">code/om/operations</text>
<text text-anchor="middle" x="524" y="-76" font-family="Helvetica,sans-Serif" font-size="10.00">/translate_operation.cpp</text>
</a>
</g>
<!-- Node8&#45;&gt;Node11 -->
<g id="edge26" class="edge"><title>Node8&#45;&gt;Node11</title>
<path fill="none" stroke="midnightblue" d="M470.497,-129.434C480.398,-119.46 492.906,-107.896 503.436,-99.0663"/>
<polygon fill="midnightblue" stroke="midnightblue" points="467.933,-127.051 463.511,-136.679 472.971,-131.91 467.933,-127.051"/>
</g>
<!-- Node10 -->
<g id="node21" class="node"><title>Node10</title>
<a xlink:href="substitute__operation_8cpp.html" target="_top" xlink:title="Om source file.">
<polygon fill="none" stroke="black" points="322.5,-1 322.5,-31 445.5,-31 445.5,-1 322.5,-1"/>
<text text-anchor="start" x="330.5" y="-19" font-family="Helvetica,sans-Serif" font-size="10.00">code/om/operations</text>
<text text-anchor="middle" x="384" y="-8" font-family="Helvetica,sans-Serif" font-size="10.00">/substitute_operation.cpp</text>
</a>
</g>
<!-- Node9&#45;&gt;Node10 -->
<g id="edge22" class="edge"><title>Node9&#45;&gt;Node10</title>
<path fill="none" stroke="midnightblue" d="M377.455,-58.5322C377.005,-49.3606 377.296,-39.2449 378.325,-31.2931"/>
<polygon fill="midnightblue" stroke="midnightblue" points="373.983,-59.0133 378.322,-68.679 380.958,-58.4173 373.983,-59.0133"/>
</g>
<!-- Node10&#45;&gt;Node9 -->
<g id="edge24" class="edge"><title>Node10&#45;&gt;Node9</title>
<path fill="none" stroke="midnightblue" d="M390.544,-41.4356C390.995,-50.605 390.706,-60.7221 389.678,-68.679"/>
<polygon fill="midnightblue" stroke="midnightblue" points="394.016,-40.9578 389.675,-31.2931 387.041,-41.5554 394.016,-40.9578"/>
</g>
<!-- Node11&#45;&gt;Node8 -->
<g id="edge28" class="edge"><title>Node11&#45;&gt;Node8</title>
<path fill="none" stroke="midnightblue" d="M507.296,-106.775C497.524,-116.605 485.26,-127.944 474.867,-136.679"/>
<polygon fill="midnightblue" stroke="midnightblue" points="510.09,-108.919 514.515,-99.2931 505.053,-104.059 510.09,-108.919"/>
</g>
<!-- Node13 -->
<g id="node29" class="node"><title>Node13</title>
<a xlink:href="system_8cpp.html" target="_top" xlink:title="Om source file.">
<polygon fill="none" stroke="black" points="531.5,-142.5 531.5,-161.5 636.5,-161.5 636.5,-142.5 531.5,-142.5"/>
<text text-anchor="middle" x="584" y="-149.5" font-family="Helvetica,sans-Serif" font-size="10.00">code/om/system.cpp</text>
</a>
</g>
<!-- Node12&#45;&gt;Node13 -->
<g id="edge32" class="edge"><title>Node12&#45;&gt;Node13</title>
<path fill="none" stroke="midnightblue" d="M577.683,-194.16C576.797,-183.248 577.27,-170.04 579.103,-161.581"/>
<polygon fill="midnightblue" stroke="midnightblue" points="574.263,-194.977 579.099,-204.403 581.197,-194.018 574.263,-194.977"/>
</g>
<!-- Node14 -->
<g id="node32" class="node"><title>Node14</title>
<a xlink:href="om_8cpp.html" target="_top" xlink:title="Om source file.">
<polygon fill="none" stroke="black" points="654.5,-142.5 654.5,-161.5 725.5,-161.5 725.5,-142.5 654.5,-142.5"/>
<text text-anchor="middle" x="690" y="-149.5" font-family="Helvetica,sans-Serif" font-size="10.00">code/om.cpp</text>
</a>
</g>
<!-- Node12&#45;&gt;Node14 -->
<g id="edge36" class="edge"><title>Node12&#45;&gt;Node14</title>
<path fill="none" stroke="midnightblue" d="M607.95,-199.443C628.463,-187.832 657.379,-171.465 674.841,-161.581"/>
<polygon fill="midnightblue" stroke="midnightblue" points="606.166,-196.432 599.187,-204.403 609.614,-202.523 606.166,-196.432"/>
</g>
<!-- Node13&#45;&gt;Node12 -->
<g id="edge34" class="edge"><title>Node13&#45;&gt;Node12</title>
<path fill="none" stroke="midnightblue" d="M590.315,-171.82C591.203,-182.728 590.732,-195.938 588.901,-204.403"/>
<polygon fill="midnightblue" stroke="midnightblue" points="593.736,-171.006 588.897,-161.581 586.802,-171.966 593.736,-171.006"/>
</g>
<!-- Node15&#45;&gt;Node1 -->
<g id="edge40" class="edge"><title>Node15&#45;&gt;Node1</title>
<path fill="none" stroke="midnightblue" d="M687.673,-227.722C665.196,-237.812 632.181,-251.636 609.371,-260.444"/>
<polygon fill="midnightblue" stroke="midnightblue" points="689.247,-230.851 696.893,-223.516 686.342,-224.482 689.247,-230.851"/>
</g>
</g>
</svg>
