<?xml version="1.0" encoding="UTF-8" standalone="no"?>
<!DOCTYPE svg PUBLIC "-//W3C//DTD SVG 1.1//EN"
 "http://www.w3.org/Graphics/SVG/1.1/DTD/svg11.dtd">
<!-- Generated by graphviz version 2.30.1 (20130221.2233)
 -->
<!-- Title: code/om/operations/translate_operation.hpp Pages: 1 -->
<svg width="515pt" height="298pt"
 viewBox="0.00 0.00 515.00 298.00" xmlns="http://www.w3.org/2000/svg" xmlns:xlink="http://www.w3.org/1999/xlink">
<g id="graph0" class="graph" transform="scale(1 1) rotate(0) translate(4 294)">
<title>code/om/operations/translate_operation.hpp</title>
<!-- Node1 -->
<g id="node1" class="node"><title>Node1</title>
<polygon fill="#bfbfbf" stroke="black" points="312.072,-257 312.072,-289 435.928,-289 435.928,-257 312.072,-257"/>
<text text-anchor="start" x="320.072" y="-275" font-family="Helvetica,sans-Serif" font-size="10.00">code/om/operations</text>
<text text-anchor="middle" x="374" y="-263" font-family="Helvetica,sans-Serif" font-size="10.00">/translate_operation.hpp</text>
</g>
<!-- Node2 -->
<g id="node2" class="node"><title>Node2</title>
<g id="a_node2"><a xlink:href="internal_8hpp.html" target="_top" xlink:title="code/om/internal.hpp">
<polygon fill="none" stroke="black" points="108.303,-123 108.303,-143 217.697,-143 217.697,-123 108.303,-123"/>
<text text-anchor="middle" x="163" y="-129" font-family="Helvetica,sans-Serif" font-size="10.00">code/om/internal.hpp</text>
</a>
</g>
</g>
<!-- Node1&#45;&gt;Node2 -->
<g id="edge1" class="edge"><title>Node1&#45;&gt;Node2</title>
<path fill="none" stroke="midnightblue" d="M302.306,-255.212C277.563,-247.19 250.648,-235.793 229,-220 199.655,-198.592 177.044,-160.583 167.692,-143.172"/>
<polygon fill="midnightblue" stroke="midnightblue" points="301.439,-258.607 312.027,-258.23 303.515,-251.922 301.439,-258.607"/>
</g>
<!-- Node6 -->
<g id="node6" class="node"><title>Node6</title>
<g id="a_node6"><a xlink:href="substitute__operation_8hpp.html" target="_top" xlink:title="Om header file.">
<polygon fill="none" stroke="black" points="237.848,-187 237.848,-219 366.152,-219 366.152,-187 237.848,-187"/>
<text text-anchor="start" x="245.848" y="-205" font-family="Helvetica,sans-Serif" font-size="10.00">code/om/operations</text>
<text text-anchor="middle" x="302" y="-193" font-family="Helvetica,sans-Serif" font-size="10.00">/substitute_operation.hpp</text>
</a>
</g>
</g>
<!-- Node1&#45;&gt;Node6 -->
<g id="edge7" class="edge"><title>Node1&#45;&gt;Node6</title>
<path fill="none" stroke="midnightblue" d="M350.602,-249.901C339.912,-239.806 327.527,-228.109 317.934,-219.049"/>
<polygon fill="midnightblue" stroke="midnightblue" points="348.348,-252.587 358.021,-256.909 353.154,-247.498 348.348,-252.587"/>
</g>
<!-- Node8 -->
<g id="node8" class="node"><title>Node8</title>
<g id="a_node8"><a xlink:href="translate__operation_8cpp.html" target="_top" xlink:title="Om source file.">
<polygon fill="none" stroke="black" points="384.353,-187 384.353,-219 507.647,-219 507.647,-187 384.353,-187"/>
<text text-anchor="start" x="392.353" y="-205" font-family="Helvetica,sans-Serif" font-size="10.00">code/om/operations</text>
<text text-anchor="middle" x="446" y="-193" font-family="Helvetica,sans-Serif" font-size="10.00">/translate_operation.cpp</text>
</a>
</g>
</g>
<!-- Node1&#45;&gt;Node8 -->
<g id="edge11" class="edge"><title>Node1&#45;&gt;Node8</title>
<path fill="none" stroke="midnightblue" d="M391.323,-249.607C401.29,-239.579 413.753,-228.021 424.351,-219.049"/>
<polygon fill="midnightblue" stroke="midnightblue" points="388.697,-247.288 384.259,-256.909 393.728,-252.155 388.697,-247.288"/>
</g>
<!-- Node3 -->
<g id="node3" class="node"><title>Node3</title>
<g id="a_node3"><a xlink:href="internal_8cpp.html" target="_top" xlink:title="code/om/internal.cpp">
<polygon fill="none" stroke="black" points="-0.416016,-59 -0.416016,-79 108.416,-79 108.416,-59 -0.416016,-59"/>
<text text-anchor="middle" x="54" y="-65" font-family="Helvetica,sans-Serif" font-size="10.00">code/om/internal.cpp</text>
</a>
</g>
</g>
<!-- Node2&#45;&gt;Node3 -->
<g id="edge2" class="edge"><title>Node2&#45;&gt;Node3</title>
<path fill="none" stroke="midnightblue" d="M137.986,-117.772C117.136,-105.912 88.0481,-89.3668 70.1493,-79.1858"/>
<polygon fill="midnightblue" stroke="midnightblue" points="136.494,-120.95 146.917,-122.852 139.955,-114.865 136.494,-120.95"/>
</g>
<!-- Node2&#45;&gt;Node2 -->
<g id="edge3" class="edge"><title>Node2&#45;&gt;Node2</title>
<path fill="none" stroke="midnightblue" d="M198.83,-144.532C217.792,-146.424 235,-142.58 235,-133 235,-121.75 211.27,-118.41 188.837,-122.98"/>
<polygon fill="midnightblue" stroke="midnightblue" points="199.248,-141.055 188.837,-143.02 198.201,-147.977 199.248,-141.055"/>
</g>
<!-- Node4 -->
<g id="node4" class="node"><title>Node4</title>
<g id="a_node4"><a xlink:href="om_8hpp.html" target="_top" xlink:title="Om &quot;umbrella&quot; header file.">
<polygon fill="none" stroke="black" points="126.091,-59 126.091,-79 199.909,-79 199.909,-59 126.091,-59"/>
<text text-anchor="middle" x="163" y="-65" font-family="Helvetica,sans-Serif" font-size="10.00">code/om.hpp</text>
</a>
</g>
</g>
<!-- Node2&#45;&gt;Node4 -->
<g id="edge4" class="edge"><title>Node2&#45;&gt;Node4</title>
<path fill="none" stroke="midnightblue" d="M156.7,-112.735C155.802,-101.557 156.248,-87.991 158.037,-79.1858"/>
<polygon fill="midnightblue" stroke="midnightblue" points="153.257,-113.4 158.045,-122.852 160.196,-112.478 153.257,-113.4"/>
</g>
<!-- Node4&#45;&gt;Node2 -->
<g id="edge5" class="edge"><title>Node4&#45;&gt;Node2</title>
<path fill="none" stroke="midnightblue" d="M169.304,-89.3131C170.198,-100.498 169.748,-114.06 167.955,-122.852"/>
<polygon fill="midnightblue" stroke="midnightblue" points="172.746,-88.6398 167.963,-79.1858 165.806,-89.5588 172.746,-88.6398"/>
</g>
<!-- Node5 -->
<g id="node5" class="node"><title>Node5</title>
<g id="a_node5"><a xlink:href="om_8cpp.html" target="_top" xlink:title="Om source file.">
<polygon fill="none" stroke="black" points="126.372,-1 126.372,-21 199.628,-21 199.628,-1 126.372,-1"/>
<text text-anchor="middle" x="163" y="-7" font-family="Helvetica,sans-Serif" font-size="10.00">code/om.cpp</text>
</a>
</g>
</g>
<!-- Node4&#45;&gt;Node5 -->
<g id="edge6" class="edge"><title>Node4&#45;&gt;Node5</title>
<path fill="none" stroke="midnightblue" d="M163,-48.7065C163,-39.3384 163,-28.5262 163,-21.0752"/>
<polygon fill="midnightblue" stroke="midnightblue" points="159.5,-48.7527 163,-58.7527 166.5,-48.7528 159.5,-48.7527"/>
</g>
<!-- Node6&#45;&gt;Node2 -->
<g id="edge8" class="edge"><title>Node6&#45;&gt;Node2</title>
<path fill="none" stroke="midnightblue" d="M262.084,-182.473C235.518,-169.476 201.862,-153.012 181.404,-143.004"/>
<polygon fill="midnightblue" stroke="midnightblue" points="260.631,-185.658 271.151,-186.909 263.707,-179.37 260.631,-185.658"/>
</g>
<!-- Node7 -->
<g id="node7" class="node"><title>Node7</title>
<g id="a_node7"><a xlink:href="substitute__operation_8cpp.html" target="_top" xlink:title="Om source file.">
<polygon fill="none" stroke="black" points="254.128,-117 254.128,-149 381.872,-149 381.872,-117 254.128,-117"/>
<text text-anchor="start" x="262.128" y="-135" font-family="Helvetica,sans-Serif" font-size="10.00">code/om/operations</text>
<text text-anchor="middle" x="318" y="-123" font-family="Helvetica,sans-Serif" font-size="10.00">/substitute_operation.cpp</text>
</a>
</g>
</g>
<!-- Node6&#45;&gt;Node7 -->
<g id="edge9" class="edge"><title>Node6&#45;&gt;Node7</title>
<path fill="none" stroke="midnightblue" d="M301.362,-176.92C303.112,-167.56 305.818,-157.229 308.744,-149.049"/>
<polygon fill="midnightblue" stroke="midnightblue" points="297.887,-176.494 299.831,-186.909 304.806,-177.554 297.887,-176.494"/>
</g>
<!-- Node7&#45;&gt;Node6 -->
<g id="edge10" class="edge"><title>Node7&#45;&gt;Node6</title>
<path fill="none" stroke="midnightblue" d="M318.647,-159.032C316.9,-168.389 314.196,-178.721 311.271,-186.909"/>
<polygon fill="midnightblue" stroke="midnightblue" points="322.122,-159.463 320.174,-149.049 315.202,-158.405 322.122,-159.463"/>
</g>
<!-- Node8&#45;&gt;Node1 -->
<g id="edge12" class="edge"><title>Node8&#45;&gt;Node1</title>
<path fill="none" stroke="midnightblue" d="M428.724,-226.346C418.764,-236.369 406.303,-247.929 395.699,-256.909"/>
<polygon fill="midnightblue" stroke="midnightblue" points="431.345,-228.671 435.78,-219.049 426.313,-223.805 431.345,-228.671"/>
</g>
</g>
</svg>
