<?xml version="1.0" encoding="UTF-8" standalone="no"?>
<!DOCTYPE svg PUBLIC "-//W3C//DTD SVG 1.1//EN"
 "http://www.w3.org/Graphics/SVG/1.1/DTD/svg11.dtd">
<!-- Generated by graphviz version 2.30.1 (20130221.2233)
 -->
<!-- Title: code/om/translator.hpp Pages: 1 -->
<svg width="279pt" height="146pt"
 viewBox="0.00 0.00 279.00 146.00" xmlns="http://www.w3.org/2000/svg" xmlns:xlink="http://www.w3.org/1999/xlink">
<g id="graph0" class="graph" transform="scale(1 1) rotate(0) translate(4 142)">
<title>code/om/translator.hpp</title>
<!-- Node1 -->
<g id="node1" class="node"><title>Node1</title>
<polygon fill="#bfbfbf" stroke="black" points="123.133,-117 123.133,-137 240.867,-137 240.867,-117 123.133,-117"/>
<text text-anchor="middle" x="182" y="-123" font-family="Helvetica,sans-Serif" font-size="10.00">code/om/translator.hpp</text>
</g>
<!-- Node2 -->
<g id="node2" class="node"><title>Node2</title>
<g id="a_node2"><a xlink:href="code__point_8hpp.html" target="_top" xlink:title="Om header file.">
<polygon fill="none" stroke="black" points="0.468262,-59 0.468262,-79 101.532,-79 101.532,-59 0.468262,-59"/>
<text text-anchor="middle" x="51" y="-65" font-family="Helvetica,sans-Serif" font-size="10.00">om/code_point.hpp</text>
</a>
</g>
</g>
<!-- Node1&#45;&gt;Node2 -->
<g id="edge1" class="edge"><title>Node1&#45;&gt;Node2</title>
<path fill="none" stroke="midnightblue" d="M160.661,-116.878C139.251,-107.725 106.057,-93.5357 81.7951,-83.1643"/>
<polygon fill="midnightblue" stroke="midnightblue" points="82.9007,-79.8306 72.3298,-79.1181 80.1491,-86.2672 82.9007,-79.8306"/>
</g>
<!-- Node4 -->
<g id="node4" class="node"><title>Node4</title>
<polygon fill="none" stroke="#bfbfbf" points="119.773,-59 119.773,-79 160.227,-79 160.227,-59 119.773,-59"/>
<text text-anchor="middle" x="140" y="-65" font-family="Helvetica,sans-Serif" font-size="10.00">string</text>
</g>
<!-- Node1&#45;&gt;Node4 -->
<g id="edge3" class="edge"><title>Node1&#45;&gt;Node4</title>
<path fill="none" stroke="midnightblue" d="M175.065,-116.753C169.071,-108.761 160.248,-96.9975 152.952,-87.2698"/>
<polygon fill="midnightblue" stroke="midnightblue" points="155.606,-84.9752 146.806,-79.0752 150.006,-89.1752 155.606,-84.9752"/>
</g>
<!-- Node5 -->
<g id="node5" class="node"><title>Node5</title>
<g id="a_node5"><a xlink:href="translator_8cpp.html" target="_top" xlink:title="Om source file.">
<polygon fill="none" stroke="black" points="178.646,-59 178.646,-79 271.354,-79 271.354,-59 178.646,-59"/>
<text text-anchor="middle" x="225" y="-65" font-family="Helvetica,sans-Serif" font-size="10.00">om/translator.cpp</text>
</a>
</g>
</g>
<!-- Node1&#45;&gt;Node5 -->
<g id="edge4" class="edge"><title>Node1&#45;&gt;Node5</title>
<path fill="none" stroke="midnightblue" d="M183.934,-116.753C188.537,-108.598 197.459,-96.5158 205.961,-86.6769"/>
<polygon fill="midnightblue" stroke="midnightblue" points="208.743,-88.8204 212.901,-79.0752 203.574,-84.101 208.743,-88.8204"/>
</g>
<!-- Node3 -->
<g id="node3" class="node"><title>Node3</title>
<polygon fill="none" stroke="#bfbfbf" points="-0.364258,-1 -0.364258,-21 102.364,-21 102.364,-1 -0.364258,-1"/>
<text text-anchor="middle" x="51" y="-7" font-family="Helvetica,sans-Serif" font-size="10.00">boost/locale/utf.hpp</text>
</g>
<!-- Node2&#45;&gt;Node3 -->
<g id="edge2" class="edge"><title>Node2&#45;&gt;Node3</title>
<path fill="none" stroke="midnightblue" d="M51,-58.7527C51,-51.2504 51,-40.4238 51,-31.0781"/>
<polygon fill="midnightblue" stroke="midnightblue" points="54.5001,-31.0752 51,-21.0752 47.5001,-31.0752 54.5001,-31.0752"/>
</g>
<!-- Node5&#45;&gt;Node1 -->
<g id="edge5" class="edge"><title>Node5&#45;&gt;Node1</title>
<path fill="none" stroke="midnightblue" d="M223.163,-79.0752C218.621,-87.1742 209.727,-99.2442 201.219,-109.114"/>
<polygon fill="midnightblue" stroke="midnightblue" points="198.41,-107.001 194.267,-116.753 203.586,-111.713 198.41,-107.001"/>
</g>
</g>
</svg>
