<?xml version="1.0" encoding="UTF-8" standalone="no"?>
<!DOCTYPE svg PUBLIC "-//W3C//DTD SVG 1.1//EN"
 "http://www.w3.org/Graphics/SVG/1.1/DTD/svg11.dtd">
<!-- Generated by graphviz version 2.30.1 (20130221.2233)
 -->
<!-- Title: code/om/translator.cpp Pages: 1 -->
<svg width="168pt" height="204pt"
 viewBox="0.00 0.00 168.00 204.00" xmlns="http://www.w3.org/2000/svg" xmlns:xlink="http://www.w3.org/1999/xlink">
<g id="graph0" class="graph" transform="scale(1 1) rotate(0) translate(4 200)">
<title>code/om/translator.cpp</title>
<!-- Node1 -->
<g id="node1" class="node"><title>Node1</title>
<polygon fill="#bfbfbf" stroke="black" points="36.4141,-175 36.4141,-195 153.586,-195 153.586,-175 36.4141,-175"/>
<text text-anchor="middle" x="95" y="-181" font-family="Helvetica,sans-Serif" font-size="10.00">code/om/translator.cpp</text>
</g>
<!-- Node2 -->
<g id="node2" class="node"><title>Node2</title>
<g id="a_node2"><a xlink:href="translator_8hpp.html" target="_top" xlink:title="Om header file.">
<polygon fill="none" stroke="black" points="48.3647,-117 48.3647,-137 141.635,-137 141.635,-117 48.3647,-117"/>
<text text-anchor="middle" x="95" y="-123" font-family="Helvetica,sans-Serif" font-size="10.00">om/translator.hpp</text>
</a>
</g>
</g>
<!-- Node1&#45;&gt;Node2 -->
<g id="edge1" class="edge"><title>Node1&#45;&gt;Node2</title>
<path fill="none" stroke="midnightblue" d="M89.8337,-174.753C88.3076,-167.25 87.8844,-156.424 88.5643,-147.078"/>
<polygon fill="midnightblue" stroke="midnightblue" points="92.0461,-147.444 89.869,-137.075 85.1049,-146.538 92.0461,-147.444"/>
</g>
<!-- Node3 -->
<g id="node3" class="node"><title>Node3</title>
<g id="a_node3"><a xlink:href="code__point_8hpp.html" target="_top" xlink:title="Om header file.">
<polygon fill="none" stroke="black" points="0.468262,-59 0.468262,-79 101.532,-79 101.532,-59 0.468262,-59"/>
<text text-anchor="middle" x="51" y="-65" font-family="Helvetica,sans-Serif" font-size="10.00">om/code_point.hpp</text>
</a>
</g>
</g>
<!-- Node2&#45;&gt;Node3 -->
<g id="edge2" class="edge"><title>Node2&#45;&gt;Node3</title>
<path fill="none" stroke="midnightblue" d="M87.7343,-116.753C81.3911,-108.68 72.0234,-96.7571 64.3357,-86.9727"/>
<polygon fill="midnightblue" stroke="midnightblue" points="67.0609,-84.776 58.1305,-79.0752 61.5566,-89.1008 67.0609,-84.776"/>
</g>
<!-- Node5 -->
<g id="node5" class="node"><title>Node5</title>
<polygon fill="none" stroke="#bfbfbf" points="119.773,-59 119.773,-79 160.227,-79 160.227,-59 119.773,-59"/>
<text text-anchor="middle" x="140" y="-65" font-family="Helvetica,sans-Serif" font-size="10.00">string</text>
</g>
<!-- Node2&#45;&gt;Node5 -->
<g id="edge4" class="edge"><title>Node2&#45;&gt;Node5</title>
<path fill="none" stroke="midnightblue" d="M102.431,-116.753C108.918,-108.68 118.499,-96.7571 126.361,-86.9727"/>
<polygon fill="midnightblue" stroke="midnightblue" points="129.172,-89.0627 132.707,-79.0752 123.715,-84.6779 129.172,-89.0627"/>
</g>
<!-- Node2&#45;&gt;Node1 -->
<g id="edge5" class="edge"><title>Node2&#45;&gt;Node1</title>
<path fill="none" stroke="midnightblue" d="M100.131,-137.075C101.674,-144.526 102.114,-155.338 101.451,-164.707"/>
<polygon fill="midnightblue" stroke="midnightblue" points="97.9633,-164.389 100.166,-174.753 104.907,-165.278 97.9633,-164.389"/>
</g>
<!-- Node4 -->
<g id="node4" class="node"><title>Node4</title>
<polygon fill="none" stroke="#bfbfbf" points="-0.364258,-1 -0.364258,-21 102.364,-21 102.364,-1 -0.364258,-1"/>
<text text-anchor="middle" x="51" y="-7" font-family="Helvetica,sans-Serif" font-size="10.00">boost/locale/utf.hpp</text>
</g>
<!-- Node3&#45;&gt;Node4 -->
<g id="edge3" class="edge"><title>Node3&#45;&gt;Node4</title>
<path fill="none" stroke="midnightblue" d="M51,-58.7527C51,-51.2504 51,-40.4238 51,-31.0781"/>
<polygon fill="midnightblue" stroke="midnightblue" points="54.5001,-31.0752 51,-21.0752 47.5001,-31.0752 54.5001,-31.0752"/>
</g>
</g>
</svg>
