<?xml version="1.0" encoding="UTF-8" standalone="no"?>
<!DOCTYPE svg PUBLIC "-//W3C//DTD SVG 1.1//EN"
 "http://www.w3.org/Graphics/SVG/1.1/DTD/svg11.dtd">
<!-- Generated by graphviz version 2.36.0 (20140111.2315)
 -->
<!-- Title: om/language/operation/translate_operation.cpp Pages: 1 -->
<svg width="136pt" height="236pt"
 viewBox="0.00 0.00 136.00 236.00" xmlns="http://www.w3.org/2000/svg" xmlns:xlink="http://www.w3.org/1999/xlink">
<g id="graph0" class="graph" transform="scale(1 1) rotate(0) translate(4 232)">
<title>om/language/operation/translate_operation.cpp</title>
<!-- Node1 -->
<g id="node1" class="node"><title>Node1</title>
<g id="a_node1"><a xlink:title="Om source file.">
<polygon fill="#bfbfbf" stroke="black" points="2.35254,-199 2.35254,-227 125.647,-227 125.647,-199 2.35254,-199"/>
<text text-anchor="start" x="10.3525" y="-215" font-family="Helvetica,sans-Serif" font-size="10.00">om/language/operation</text>
<text text-anchor="middle" x="64" y="-205" font-family="Helvetica,sans-Serif" font-size="10.00">/translate_operation.cpp</text>
</a>
</g>
</g>
<!-- Node2 -->
<g id="node2" class="node"><title>Node2</title>
<g id="a_node2"><a xlink:href="translate__operation_8hpp.html" target="_top" xlink:title="Om header file.">
<polygon fill="none" stroke="black" points="2.07178,-133 2.07178,-161 125.928,-161 125.928,-133 2.07178,-133"/>
<text text-anchor="start" x="10.0718" y="-149" font-family="Helvetica,sans-Serif" font-size="10.00">om/language/operation</text>
<text text-anchor="middle" x="64" y="-139" font-family="Helvetica,sans-Serif" font-size="10.00">/translate_operation.hpp</text>
</a>
</g>
</g>
<!-- Node1&#45;&gt;Node2 -->
<g id="edge1" class="edge"><title>Node1&#45;&gt;Node2</title>
<path fill="none" stroke="midnightblue" d="M57.4712,-188.595C56.9861,-179.379 57.2989,-169.135 58.4097,-161.244"/>
<polygon fill="midnightblue" stroke="midnightblue" points="54.0032,-189.103 58.4073,-198.739 60.9736,-188.46 54.0032,-189.103"/>
</g>
<!-- Node2&#45;&gt;Node1 -->
<g id="edge5" class="edge"><title>Node2&#45;&gt;Node1</title>
<path fill="none" stroke="midnightblue" d="M70.5277,-171.386C71.014,-180.6 70.7024,-190.844 69.5927,-198.739"/>
<polygon fill="midnightblue" stroke="midnightblue" points="73.996,-170.879 69.5903,-161.244 67.0257,-171.524 73.996,-170.879"/>
</g>
<!-- Node3 -->
<g id="node3" class="node"><title>Node3</title>
<g id="a_node3"><a xlink:href="substitute__operation_8hpp.html" target="_top" xlink:title="Om header file.">
<polygon fill="none" stroke="black" points="-0.152344,-67 -0.152344,-95 128.152,-95 128.152,-67 -0.152344,-67"/>
<text text-anchor="start" x="7.84766" y="-83" font-family="Helvetica,sans-Serif" font-size="10.00">om/language/operation</text>
<text text-anchor="middle" x="64" y="-73" font-family="Helvetica,sans-Serif" font-size="10.00">/substitute_operation.hpp</text>
</a>
</g>
</g>
<!-- Node2&#45;&gt;Node3 -->
<g id="edge2" class="edge"><title>Node2&#45;&gt;Node3</title>
<path fill="none" stroke="midnightblue" d="M64,-122.595C64,-113.379 64,-103.135 64,-95.2439"/>
<polygon fill="midnightblue" stroke="midnightblue" points="60.5001,-122.739 64,-132.739 67.5001,-122.739 60.5001,-122.739"/>
</g>
<!-- Node4 -->
<g id="node4" class="node"><title>Node4</title>
<g id="a_node4"><a xlink:href="substitute__operation_8cpp.html" target="_top" xlink:title="Om source file.">
<polygon fill="none" stroke="black" points="0.128418,-1 0.128418,-29 127.872,-29 127.872,-1 0.128418,-1"/>
<text text-anchor="start" x="8.12842" y="-17" font-family="Helvetica,sans-Serif" font-size="10.00">om/language/operation</text>
<text text-anchor="middle" x="64" y="-7" font-family="Helvetica,sans-Serif" font-size="10.00">/substitute_operation.cpp</text>
</a>
</g>
</g>
<!-- Node3&#45;&gt;Node4 -->
<g id="edge3" class="edge"><title>Node3&#45;&gt;Node4</title>
<path fill="none" stroke="midnightblue" d="M57.4712,-56.5946C56.9861,-47.3785 57.2989,-37.1352 58.4097,-29.2439"/>
<polygon fill="midnightblue" stroke="midnightblue" points="54.0032,-57.1031 58.4073,-66.7392 60.9736,-56.4598 54.0032,-57.1031"/>
</g>
<!-- Node4&#45;&gt;Node3 -->
<g id="edge4" class="edge"><title>Node4&#45;&gt;Node3</title>
<path fill="none" stroke="midnightblue" d="M70.5277,-39.3855C71.014,-48.6002 70.7024,-58.8444 69.5927,-66.7392"/>
<polygon fill="midnightblue" stroke="midnightblue" points="73.996,-38.8792 69.5903,-29.2439 67.0257,-39.5236 73.996,-38.8792"/>
</g>
</g>
</svg>
