<?xml version="1.0" encoding="UTF-8" standalone="no"?>
<!DOCTYPE svg PUBLIC "-//W3C//DTD SVG 1.1//EN"
 "http://www.w3.org/Graphics/SVG/1.1/DTD/svg11.dtd">
<!-- Generated by graphviz version 2.30.1 (20130221.2233)
 -->
<!-- Title: code/om/translator.cpp Pages: 1 -->
<svg width="799pt" height="380pt"
 viewBox="0.00 0.00 799.00 380.00" xmlns="http://www.w3.org/2000/svg" xmlns:xlink="http://www.w3.org/1999/xlink">
<g id="graph0" class="graph" transform="scale(1 1) rotate(0) translate(4 376)">
<title>code/om/translator.cpp</title>
<!-- Node1 -->
<g id="node1" class="node"><title>Node1</title>
<polygon fill="#bfbfbf" stroke="black" points="208.414,-351 208.414,-371 325.586,-371 325.586,-351 208.414,-351"/>
<text text-anchor="middle" x="267" y="-357" font-family="Helvetica,sans-Serif" font-size="10.00">code/om/translator.cpp</text>
</g>
<!-- Node2 -->
<g id="node2" class="node"><title>Node2</title>
<g id="a_node2"><a xlink:href="translator_8hpp.html" target="_top" xlink:title="Om header file.">
<polygon fill="none" stroke="black" points="208.133,-293 208.133,-313 325.867,-313 325.867,-293 208.133,-293"/>
<text text-anchor="middle" x="267" y="-299" font-family="Helvetica,sans-Serif" font-size="10.00">code/om/translator.hpp</text>
</a>
</g>
</g>
<!-- Node1&#45;&gt;Node2 -->
<g id="edge1" class="edge"><title>Node1&#45;&gt;Node2</title>
<path fill="none" stroke="midnightblue" d="M260.549,-340.707C259.886,-331.338 260.326,-320.526 261.869,-313.075"/>
<polygon fill="midnightblue" stroke="midnightblue" points="257.093,-341.278 261.834,-350.753 264.037,-340.389 257.093,-341.278"/>
</g>
<!-- Node3 -->
<g id="node3" class="node"><title>Node3</title>
<g id="a_node3"><a xlink:href="environment_8hpp.html" target="_top" xlink:title="Om header file.">
<polygon fill="none" stroke="black" points="-0.8125,-235 -0.8125,-255 130.812,-255 130.812,-235 -0.8125,-235"/>
<text text-anchor="middle" x="65" y="-241" font-family="Helvetica,sans-Serif" font-size="10.00">code/om/environment.hpp</text>
</a>
</g>
</g>
<!-- Node2&#45;&gt;Node3 -->
<g id="edge2" class="edge"><title>Node2&#45;&gt;Node3</title>
<path fill="none" stroke="midnightblue" d="M224.373,-290.183C186.518,-279.688 132.005,-264.576 97.5556,-255.025"/>
<polygon fill="midnightblue" stroke="midnightblue" points="223.524,-293.579 234.096,-292.878 225.394,-286.834 223.524,-293.579"/>
</g>
<!-- Node5 -->
<g id="node5" class="node"><title>Node5</title>
<g id="a_node5"><a xlink:href="lexicon_8hpp.html" target="_top" xlink:title="Om header file.">
<polygon fill="none" stroke="black" points="213.138,-235 213.138,-255 320.862,-255 320.862,-235 213.138,-235"/>
<text text-anchor="middle" x="267" y="-241" font-family="Helvetica,sans-Serif" font-size="10.00">code/om/lexicon.hpp</text>
</a>
</g>
</g>
<!-- Node2&#45;&gt;Node5 -->
<g id="edge5" class="edge"><title>Node2&#45;&gt;Node5</title>
<path fill="none" stroke="midnightblue" d="M267,-282.707C267,-273.338 267,-262.526 267,-255.075"/>
<polygon fill="midnightblue" stroke="midnightblue" points="263.5,-282.753 267,-292.753 270.5,-282.753 263.5,-282.753"/>
</g>
<!-- Node13 -->
<g id="node13" class="node"><title>Node13</title>
<g id="a_node13"><a xlink:href="system_8hpp.html" target="_top" xlink:title="Om header file.">
<polygon fill="none" stroke="black" points="618.867,-235 618.867,-255 727.133,-255 727.133,-235 618.867,-235"/>
<text text-anchor="middle" x="673" y="-241" font-family="Helvetica,sans-Serif" font-size="10.00">code/om/system.hpp</text>
</a>
</g>
</g>
<!-- Node2&#45;&gt;Node13 -->
<g id="edge16" class="edge"><title>Node2&#45;&gt;Node13</title>
<path fill="none" stroke="midnightblue" d="M336.002,-292.483C415.875,-281.465 545.768,-263.549 618.764,-253.481"/>
<polygon fill="midnightblue" stroke="midnightblue" points="335.464,-289.023 326.036,-293.857 336.42,-295.958 335.464,-289.023"/>
</g>
<!-- Node2&#45;&gt;Node1 -->
<g id="edge22" class="edge"><title>Node2&#45;&gt;Node1</title>
<path fill="none" stroke="midnightblue" d="M273.436,-323.078C274.116,-332.424 273.692,-343.25 272.166,-350.753"/>
<polygon fill="midnightblue" stroke="midnightblue" points="276.895,-322.538 272.131,-313.075 269.954,-323.444 276.895,-322.538"/>
</g>
<!-- Node4 -->
<g id="node4" class="node"><title>Node4</title>
<g id="a_node4"><a xlink:href="environment_8cpp.html" target="_top" xlink:title="Om source file.">
<polygon fill="none" stroke="black" points="-0.531738,-165 -0.531738,-185 130.532,-185 130.532,-165 -0.531738,-165"/>
<text text-anchor="middle" x="65" y="-171" font-family="Helvetica,sans-Serif" font-size="10.00">code/om/environment.cpp</text>
</a>
</g>
</g>
<!-- Node3&#45;&gt;Node4 -->
<g id="edge3" class="edge"><title>Node3&#45;&gt;Node4</title>
<path fill="none" stroke="midnightblue" d="M58.833,-224.557C57.7261,-211.557 58.1954,-195.057 60.2409,-185.025"/>
<polygon fill="midnightblue" stroke="midnightblue" points="55.4125,-225.384 60.2115,-234.829 62.3503,-224.453 55.4125,-225.384"/>
</g>
<!-- Node4&#45;&gt;Node3 -->
<g id="edge4" class="edge"><title>Node4&#45;&gt;Node3</title>
<path fill="none" stroke="midnightblue" d="M71.1509,-195.256C72.273,-208.222 71.8189,-224.735 69.7885,-234.829"/>
<polygon fill="midnightblue" stroke="midnightblue" points="74.5753,-194.462 69.7591,-185.025 67.6392,-195.406 74.5753,-194.462"/>
</g>
<!-- Node6 -->
<g id="node6" class="node"><title>Node6</title>
<g id="a_node6"><a xlink:href="lexicon_8cpp.html" target="_top" xlink:title="Om source file.">
<polygon fill="none" stroke="black" points="148.419,-165 148.419,-185 255.581,-185 255.581,-165 148.419,-165"/>
<text text-anchor="middle" x="202" y="-171" font-family="Helvetica,sans-Serif" font-size="10.00">code/om/lexicon.cpp</text>
</a>
</g>
</g>
<!-- Node5&#45;&gt;Node6 -->
<g id="edge6" class="edge"><title>Node5&#45;&gt;Node6</title>
<path fill="none" stroke="midnightblue" d="M245.887,-228.008C231.561,-214.61 214.098,-195.969 205.868,-185.025"/>
<polygon fill="midnightblue" stroke="midnightblue" points="243.677,-230.727 253.445,-234.829 248.367,-225.531 243.677,-230.727"/>
</g>
<!-- Node7 -->
<g id="node7" class="node"><title>Node7</title>
<g id="a_node7"><a xlink:href="lexicon__operation_8hpp.html" target="_top" xlink:title="Om header file.">
<polygon fill="none" stroke="black" points="273.685,-159 273.685,-191 390.315,-191 390.315,-159 273.685,-159"/>
<text text-anchor="start" x="281.685" y="-177" font-family="Helvetica,sans-Serif" font-size="10.00">code/om/operations</text>
<text text-anchor="middle" x="332" y="-165" font-family="Helvetica,sans-Serif" font-size="10.00">/lexicon_operation.hpp</text>
</a>
</g>
</g>
<!-- Node5&#45;&gt;Node7 -->
<g id="edge8" class="edge"><title>Node5&#45;&gt;Node7</title>
<path fill="none" stroke="midnightblue" d="M282.783,-227.488C293.336,-216.449 307.12,-202.028 317.415,-191.258"/>
<polygon fill="midnightblue" stroke="midnightblue" points="280.146,-225.182 275.766,-234.829 285.206,-230.019 280.146,-225.182"/>
</g>
<!-- Node9 -->
<g id="node9" class="node"><title>Node9</title>
<g id="a_node9"><a xlink:href="translate__operation_8hpp.html" target="_top" xlink:title="Om header file.">
<polygon fill="none" stroke="black" points="408.072,-159 408.072,-191 531.928,-191 531.928,-159 408.072,-159"/>
<text text-anchor="start" x="416.072" y="-177" font-family="Helvetica,sans-Serif" font-size="10.00">code/om/operations</text>
<text text-anchor="middle" x="470" y="-165" font-family="Helvetica,sans-Serif" font-size="10.00">/translate_operation.hpp</text>
</a>
</g>
</g>
<!-- Node5&#45;&gt;Node9 -->
<g id="edge10" class="edge"><title>Node5&#45;&gt;Node9</title>
<path fill="none" stroke="midnightblue" d="M303.521,-231.766C337.58,-220.357 388.482,-203.307 425.028,-191.064"/>
<polygon fill="midnightblue" stroke="midnightblue" points="302.327,-228.475 293.957,-234.97 304.551,-235.113 302.327,-228.475"/>
</g>
<!-- Node6&#45;&gt;Node5 -->
<g id="edge7" class="edge"><title>Node6&#45;&gt;Node5</title>
<path fill="none" stroke="midnightblue" d="M222.923,-191.815C237.222,-205.166 254.711,-223.818 263.022,-234.829"/>
<polygon fill="midnightblue" stroke="midnightblue" points="225.159,-189.118 215.386,-185.025 220.474,-194.319 225.159,-189.118"/>
</g>
<!-- Node8 -->
<g id="node8" class="node"><title>Node8</title>
<g id="a_node8"><a xlink:href="lexicon__operation_8cpp.html" target="_top" xlink:title="Om source file.">
<polygon fill="none" stroke="black" points="127.966,-77 127.966,-109 244.034,-109 244.034,-77 127.966,-77"/>
<text text-anchor="start" x="135.966" y="-95" font-family="Helvetica,sans-Serif" font-size="10.00">code/om/operations</text>
<text text-anchor="middle" x="186" y="-83" font-family="Helvetica,sans-Serif" font-size="10.00">/lexicon_operation.cpp</text>
</a>
</g>
</g>
<!-- Node7&#45;&gt;Node8 -->
<g id="edge9" class="edge"><title>Node7&#45;&gt;Node8</title>
<path fill="none" stroke="midnightblue" d="M295.603,-154.056C270.285,-140.184 237.043,-121.969 213.835,-109.252"/>
<polygon fill="midnightblue" stroke="midnightblue" points="294.087,-157.217 304.539,-158.953 297.451,-151.078 294.087,-157.217"/>
</g>
<!-- Node10 -->
<g id="node10" class="node"><title>Node10</title>
<g id="a_node10"><a xlink:href="substitute__operation_8hpp.html" target="_top" xlink:title="Om header file.">
<polygon fill="none" stroke="black" points="261.848,-77 261.848,-109 390.152,-109 390.152,-77 261.848,-77"/>
<text text-anchor="start" x="269.848" y="-95" font-family="Helvetica,sans-Serif" font-size="10.00">code/om/operations</text>
<text text-anchor="middle" x="326" y="-83" font-family="Helvetica,sans-Serif" font-size="10.00">/substitute_operation.hpp</text>
</a>
</g>
</g>
<!-- Node9&#45;&gt;Node10 -->
<g id="edge11" class="edge"><title>Node9&#45;&gt;Node10</title>
<path fill="none" stroke="midnightblue" d="M434.101,-154.056C409.131,-140.184 376.344,-121.969 353.453,-109.252"/>
<polygon fill="midnightblue" stroke="midnightblue" points="432.473,-157.156 442.915,-158.953 435.873,-151.037 432.473,-157.156"/>
</g>
<!-- Node12 -->
<g id="node12" class="node"><title>Node12</title>
<g id="a_node12"><a xlink:href="translate__operation_8cpp.html" target="_top" xlink:title="Om source file.">
<polygon fill="none" stroke="black" points="408.353,-77 408.353,-109 531.647,-109 531.647,-77 408.353,-77"/>
<text text-anchor="start" x="416.353" y="-95" font-family="Helvetica,sans-Serif" font-size="10.00">code/om/operations</text>
<text text-anchor="middle" x="470" y="-83" font-family="Helvetica,sans-Serif" font-size="10.00">/translate_operation.cpp</text>
</a>
</g>
</g>
<!-- Node9&#45;&gt;Node12 -->
<g id="edge14" class="edge"><title>Node9&#45;&gt;Node12</title>
<path fill="none" stroke="midnightblue" d="M463.677,-148.767C462.893,-135.793 463.189,-120.407 464.563,-109.252"/>
<polygon fill="midnightblue" stroke="midnightblue" points="460.211,-149.305 464.589,-158.953 467.183,-148.68 460.211,-149.305"/>
</g>
<!-- Node11 -->
<g id="node11" class="node"><title>Node11</title>
<g id="a_node11"><a xlink:href="substitute__operation_8cpp.html" target="_top" xlink:title="Om source file.">
<polygon fill="none" stroke="black" points="262.128,-1 262.128,-33 389.872,-33 389.872,-1 262.128,-1"/>
<text text-anchor="start" x="270.128" y="-19" font-family="Helvetica,sans-Serif" font-size="10.00">code/om/operations</text>
<text text-anchor="middle" x="326" y="-7" font-family="Helvetica,sans-Serif" font-size="10.00">/substitute_operation.cpp</text>
</a>
</g>
</g>
<!-- Node10&#45;&gt;Node11 -->
<g id="edge12" class="edge"><title>Node10&#45;&gt;Node11</title>
<path fill="none" stroke="midnightblue" d="M319.554,-66.5929C318.95,-55.4254 319.246,-42.6905 320.441,-33.06"/>
<polygon fill="midnightblue" stroke="midnightblue" points="316.075,-66.9984 320.407,-76.6672 323.05,-66.4073 316.075,-66.9984"/>
</g>
<!-- Node11&#45;&gt;Node10 -->
<g id="edge13" class="edge"><title>Node11&#45;&gt;Node10</title>
<path fill="none" stroke="midnightblue" d="M332.429,-43.0921C333.049,-54.2297 332.77,-66.9786 331.593,-76.6672"/>
<polygon fill="midnightblue" stroke="midnightblue" points="335.91,-42.7202 331.559,-33.06 328.936,-43.325 335.91,-42.7202"/>
</g>
<!-- Node12&#45;&gt;Node9 -->
<g id="edge15" class="edge"><title>Node12&#45;&gt;Node9</title>
<path fill="none" stroke="midnightblue" d="M476.338,-119.472C477.108,-132.475 476.799,-147.849 475.411,-158.953"/>
<polygon fill="midnightblue" stroke="midnightblue" points="479.801,-118.906 475.437,-109.252 472.828,-119.521 479.801,-118.906"/>
</g>
<!-- Node14 -->
<g id="node14" class="node"><title>Node14</title>
<g id="a_node14"><a xlink:href="back__pull__code__point__operation_8cpp.html" target="_top" xlink:title="Om source file.">
<polygon fill="none" stroke="black" points="550.239,-153 550.239,-197 665.761,-197 665.761,-153 550.239,-153"/>
<text text-anchor="start" x="558.239" y="-183" font-family="Helvetica,sans-Serif" font-size="10.00">code/om/operations</text>
<text text-anchor="start" x="558.239" y="-171" font-family="Helvetica,sans-Serif" font-size="10.00">/back_pull_code_point</text>
<text text-anchor="middle" x="608" y="-159" font-family="Helvetica,sans-Serif" font-size="10.00">_operation.cpp</text>
</a>
</g>
</g>
<!-- Node13&#45;&gt;Node14 -->
<g id="edge17" class="edge"><title>Node13&#45;&gt;Node14</title>
<path fill="none" stroke="midnightblue" d="M657.203,-227.474C648.441,-218.307 637.454,-206.813 628.087,-197.014"/>
<polygon fill="midnightblue" stroke="midnightblue" points="654.794,-230.019 664.234,-234.829 659.854,-225.182 654.794,-230.019"/>
</g>
<!-- Node16 -->
<g id="node16" class="node"><title>Node16</title>
<g id="a_node16"><a xlink:href="system_8cpp.html" target="_top" xlink:title="Om source file.">
<polygon fill="none" stroke="black" points="684.148,-165 684.148,-185 791.852,-185 791.852,-165 684.148,-165"/>
<text text-anchor="middle" x="738" y="-171" font-family="Helvetica,sans-Serif" font-size="10.00">code/om/system.cpp</text>
</a>
</g>
</g>
<!-- Node13&#45;&gt;Node16 -->
<g id="edge20" class="edge"><title>Node13&#45;&gt;Node16</title>
<path fill="none" stroke="midnightblue" d="M683.417,-226.88C694.752,-213.581 712.274,-195.665 724.614,-185.025"/>
<polygon fill="midnightblue" stroke="midnightblue" points="680.552,-224.856 676.978,-234.829 685.992,-229.261 680.552,-224.856"/>
</g>
<!-- Node15 -->
<g id="node15" class="node"><title>Node15</title>
<g id="a_node15"><a xlink:href="back__pull__code__point__operation_8hpp.html" target="_top" xlink:title="Om header file.">
<polygon fill="none" stroke="black" points="550.239,-71 550.239,-115 665.761,-115 665.761,-71 550.239,-71"/>
<text text-anchor="start" x="558.239" y="-101" font-family="Helvetica,sans-Serif" font-size="10.00">code/om/operations</text>
<text text-anchor="start" x="558.239" y="-89" font-family="Helvetica,sans-Serif" font-size="10.00">/back_pull_code_point</text>
<text text-anchor="middle" x="608" y="-77" font-family="Helvetica,sans-Serif" font-size="10.00">_operation.hpp</text>
</a>
</g>
</g>
<!-- Node14&#45;&gt;Node15 -->
<g id="edge18" class="edge"><title>Node14&#45;&gt;Node15</title>
<path fill="none" stroke="midnightblue" d="M601.401,-142.896C601.081,-133.609 601.27,-123.649 601.965,-115.156"/>
<polygon fill="midnightblue" stroke="midnightblue" points="597.912,-143.197 601.977,-152.981 604.901,-142.798 597.912,-143.197"/>
</g>
<!-- Node15&#45;&gt;Node14 -->
<g id="edge19" class="edge"><title>Node15&#45;&gt;Node14</title>
<path fill="none" stroke="midnightblue" d="M614.604,-125.254C614.918,-134.548 614.725,-144.505 614.023,-152.981"/>
<polygon fill="midnightblue" stroke="midnightblue" points="618.093,-124.943 614.035,-115.156 611.104,-125.338 618.093,-124.943"/>
</g>
<!-- Node16&#45;&gt;Node13 -->
<g id="edge21" class="edge"><title>Node16&#45;&gt;Node13</title>
<path fill="none" stroke="midnightblue" d="M727.737,-192.94C716.458,-206.196 698.941,-224.124 686.555,-234.829"/>
<polygon fill="midnightblue" stroke="midnightblue" points="730.569,-195.003 734.132,-185.025 725.125,-190.604 730.569,-195.003"/>
</g>
</g>
</svg>
