<?xml version="1.0" encoding="UTF-8" standalone="no"?>
<!DOCTYPE svg PUBLIC "-//W3C//DTD SVG 1.1//EN"
 "http://www.w3.org/Graphics/SVG/1.1/DTD/svg11.dtd">
<!-- Generated by graphviz version 2.34.0 (20130907.0228)
 -->
<!-- Title: om/operation/translate_operation.cpp Pages: 1 -->
<svg width="126pt" height="252pt"
 viewBox="0.00 0.00 126.00 252.00" xmlns="http://www.w3.org/2000/svg" xmlns:xlink="http://www.w3.org/1999/xlink">
<g id="graph0" class="graph" transform="scale(1 1) rotate(0) translate(4 248)">
<title>om/operation/translate_operation.cpp</title>
<!-- Node1 -->
<g id="node1" class="node"><title>Node1</title>
<polygon fill="#bfbfbf" stroke="black" points="1.24902,-211 1.24902,-243 116.751,-243 116.751,-211 1.24902,-211"/>
<text text-anchor="start" x="9.24902" y="-229" font-family="Helvetica,sans-Serif" font-size="10.00">om/operation/translate</text>
<text text-anchor="middle" x="59" y="-217" font-family="Helvetica,sans-Serif" font-size="10.00">_operation.cpp</text>
</g>
<!-- Node2 -->
<g id="node2" class="node"><title>Node2</title>
<g id="a_node2"><a xlink:href="translate__operation_8hpp.html" target="_top" xlink:title="Om header file. ">
<polygon fill="none" stroke="black" points="1.24902,-141 1.24902,-173 116.751,-173 116.751,-141 1.24902,-141"/>
<text text-anchor="start" x="9.24902" y="-159" font-family="Helvetica,sans-Serif" font-size="10.00">om/operation/translate</text>
<text text-anchor="middle" x="59" y="-147" font-family="Helvetica,sans-Serif" font-size="10.00">_operation.hpp</text>
</a>
</g>
</g>
<!-- Node1&#45;&gt;Node2 -->
<g id="edge1" class="edge"><title>Node1&#45;&gt;Node2</title>
<path fill="none" stroke="midnightblue" d="M52.4608,-200.92C52.0088,-191.56 52.2836,-181.229 53.2851,-173.049"/>
<polygon fill="midnightblue" stroke="midnightblue" points="48.9743,-201.228 53.28,-210.909 55.9509,-200.656 48.9743,-201.228"/>
</g>
<!-- Node2&#45;&gt;Node1 -->
<g id="edge5" class="edge"><title>Node2&#45;&gt;Node1</title>
<path fill="none" stroke="midnightblue" d="M65.5368,-183.032C65.9913,-192.389 65.7191,-202.721 64.72,-210.909"/>
<polygon fill="midnightblue" stroke="midnightblue" points="69.0237,-182.728 64.7149,-173.049 62.0474,-183.303 69.0237,-182.728"/>
</g>
<!-- Node3 -->
<g id="node3" class="node"><title>Node3</title>
<g id="a_node3"><a xlink:href="substitute__operation_8hpp.html" target="_top" xlink:title="Om header file. ">
<polygon fill="none" stroke="black" points="-0.975098,-71 -0.975098,-103 118.975,-103 118.975,-71 -0.975098,-71"/>
<text text-anchor="start" x="7.0249" y="-89" font-family="Helvetica,sans-Serif" font-size="10.00">om/operation/substitute</text>
<text text-anchor="middle" x="59" y="-77" font-family="Helvetica,sans-Serif" font-size="10.00">_operation.hpp</text>
</a>
</g>
</g>
<!-- Node2&#45;&gt;Node3 -->
<g id="edge2" class="edge"><title>Node2&#45;&gt;Node3</title>
<path fill="none" stroke="midnightblue" d="M59,-130.617C59,-121.338 59,-111.141 59,-103.049"/>
<polygon fill="midnightblue" stroke="midnightblue" points="55.5001,-130.909 59,-140.909 62.5001,-130.909 55.5001,-130.909"/>
</g>
<!-- Node4 -->
<g id="node4" class="node"><title>Node4</title>
<g id="a_node4"><a xlink:href="substitute__operation_8cpp.html" target="_top" xlink:title="Om source file. ">
<polygon fill="none" stroke="black" points="-0.975098,-1 -0.975098,-33 118.975,-33 118.975,-1 -0.975098,-1"/>
<text text-anchor="start" x="7.0249" y="-19" font-family="Helvetica,sans-Serif" font-size="10.00">om/operation/substitute</text>
<text text-anchor="middle" x="59" y="-7" font-family="Helvetica,sans-Serif" font-size="10.00">_operation.cpp</text>
</a>
</g>
</g>
<!-- Node3&#45;&gt;Node4 -->
<g id="edge3" class="edge"><title>Node3&#45;&gt;Node4</title>
<path fill="none" stroke="midnightblue" d="M52.4608,-60.9196C52.0088,-51.5597 52.2836,-41.2293 53.2851,-33.0492"/>
<polygon fill="midnightblue" stroke="midnightblue" points="48.9743,-61.2281 53.28,-70.9086 55.9509,-60.656 48.9743,-61.2281"/>
</g>
<!-- Node4&#45;&gt;Node3 -->
<g id="edge4" class="edge"><title>Node4&#45;&gt;Node3</title>
<path fill="none" stroke="midnightblue" d="M65.5368,-43.0321C65.9913,-52.3887 65.7191,-62.7211 64.72,-70.9086"/>
<polygon fill="midnightblue" stroke="midnightblue" points="69.0237,-42.7283 64.7149,-33.0492 62.0474,-43.3027 69.0237,-42.7283"/>
</g>
</g>
</svg>
