<?xml version="1.0" encoding="UTF-8" standalone="no"?>
<!DOCTYPE svg PUBLIC "-//W3C//DTD SVG 1.1//EN"
 "http://www.w3.org/Graphics/SVG/1.1/DTD/svg11.dtd">
<!-- Generated by graphviz version 2.28.0 (20120817.0054)
 -->
<!-- Title: code/om/translator.hpp Pages: 1 -->
<svg width="989pt" height="400pt"
 viewBox="0.00 0.00 989.00 400.00" xmlns="http://www.w3.org/2000/svg" xmlns:xlink="http://www.w3.org/1999/xlink">
<g id="graph1" class="graph" transform="scale(1 1) rotate(0) translate(4 396)">
<title>code/om/translator.hpp</title>
<!-- Node1 -->
<g id="node1" class="node"><title>Node1</title>
<polygon fill="#bfbfbf" stroke="black" points="698.5,-372.5 698.5,-391.5 811.5,-391.5 811.5,-372.5 698.5,-372.5"/>
<text text-anchor="middle" x="755" y="-379.5" font-family="Helvetica,sans-Serif" font-size="10.00">code/om/translator.hpp</text>
</g>
<!-- Node2 -->
<g id="node3" class="node"><title>Node2</title>
<a xlink:href="environment_8hpp.html" target="_top" xlink:title="Om header file.">
<polygon fill="none" stroke="black" points="561.5,-316.5 561.5,-335.5 686.5,-335.5 686.5,-316.5 561.5,-316.5"/>
<text text-anchor="middle" x="624" y="-323.5" font-family="Helvetica,sans-Serif" font-size="10.00">code/om/environment.hpp</text>
</a>
</g>
<!-- Node1&#45;&gt;Node2 -->
<g id="edge2" class="edge"><title>Node1&#45;&gt;Node2</title>
<path fill="none" stroke="midnightblue" d="M724.683,-368.503C700.124,-358.38 666.182,-344.388 644.66,-335.516"/>
<polygon fill="midnightblue" stroke="midnightblue" points="723.663,-371.868 734.243,-372.444 726.331,-365.397 723.663,-371.868"/>
</g>
<!-- Node4 -->
<g id="node8" class="node"><title>Node4</title>
<a xlink:href="internal_8hpp.html" target="_top" xlink:title="code/om/internal.hpp">
<polygon fill="none" stroke="black" points="443,-118.5 443,-137.5 547,-137.5 547,-118.5 443,-118.5"/>
<text text-anchor="middle" x="495" y="-125.5" font-family="Helvetica,sans-Serif" font-size="10.00">code/om/internal.hpp</text>
</a>
</g>
<!-- Node1&#45;&gt;Node4 -->
<g id="edge20" class="edge"><title>Node1&#45;&gt;Node4</title>
<path fill="none" stroke="midnightblue" d="M746.659,-363.334C742.774,-355.052 738.111,-345.038 734,-336 716.287,-297.059 723.389,-280.003 695,-248 644.46,-191.025 559.912,-153.435 518.84,-137.574"/>
<polygon fill="midnightblue" stroke="midnightblue" points="743.499,-364.839 750.924,-372.396 749.833,-361.858 743.499,-364.839"/>
</g>
<!-- Node8 -->
<g id="node19" class="node"><title>Node8</title>
<a xlink:href="lexicon_8hpp.html" target="_top" xlink:title="Om header file.">
<polygon fill="none" stroke="black" points="288,-316.5 288,-335.5 392,-335.5 392,-316.5 288,-316.5"/>
<text text-anchor="middle" x="340" y="-323.5" font-family="Helvetica,sans-Serif" font-size="10.00">code/om/lexicon.hpp</text>
</a>
</g>
<!-- Node1&#45;&gt;Node8 -->
<g id="edge22" class="edge"><title>Node1&#45;&gt;Node8</title>
<path fill="none" stroke="midnightblue" d="M688.151,-372.302C605.706,-361.574 467.292,-343.563 392.225,-333.796"/>
<polygon fill="midnightblue" stroke="midnightblue" points="687.798,-375.785 698.166,-373.605 688.701,-368.844 687.798,-375.785"/>
</g>
<!-- Node16 -->
<g id="node42" class="node"><title>Node16</title>
<a xlink:href="system_8hpp.html" target="_top" xlink:title="Om header file.">
<polygon fill="none" stroke="black" points="743,-316.5 743,-335.5 849,-335.5 849,-316.5 743,-316.5"/>
<text text-anchor="middle" x="796" y="-323.5" font-family="Helvetica,sans-Serif" font-size="10.00">code/om/system.hpp</text>
</a>
</g>
<!-- Node1&#45;&gt;Node16 -->
<g id="edge52" class="edge"><title>Node1&#45;&gt;Node16</title>
<path fill="none" stroke="midnightblue" d="M768.017,-363.855C775.117,-354.505 783.604,-343.327 789.356,-335.751"/>
<polygon fill="midnightblue" stroke="midnightblue" points="765.03,-362.002 761.77,-372.083 770.605,-366.235 765.03,-362.002"/>
</g>
<!-- Node18 -->
<g id="node48" class="node"><title>Node18</title>
<a xlink:href="translator_8cpp.html" target="_top" xlink:title="Om source file.">
<polygon fill="none" stroke="black" points="867.5,-316.5 867.5,-335.5 980.5,-335.5 980.5,-316.5 867.5,-316.5"/>
<text text-anchor="middle" x="924" y="-323.5" font-family="Helvetica,sans-Serif" font-size="10.00">code/om/translator.cpp</text>
</a>
</g>
<!-- Node1&#45;&gt;Node18 -->
<g id="edge60" class="edge"><title>Node1&#45;&gt;Node18</title>
<path fill="none" stroke="midnightblue" d="M786.321,-369.172C816.556,-359.004 861.887,-344.585 892.267,-335.516"/>
<polygon fill="midnightblue" stroke="midnightblue" points="785.033,-365.913 776.69,-372.444 787.284,-372.541 785.033,-365.913"/>
</g>
<!-- Node3 -->
<g id="node5" class="node"><title>Node3</title>
<a xlink:href="environment_8cpp.html" target="_top" xlink:title="Om source file.">
<polygon fill="none" stroke="black" points="561.5,-254.5 561.5,-273.5 686.5,-273.5 686.5,-254.5 561.5,-254.5"/>
<text text-anchor="middle" x="624" y="-261.5" font-family="Helvetica,sans-Serif" font-size="10.00">code/om/environment.cpp</text>
</a>
</g>
<!-- Node2&#45;&gt;Node3 -->
<g id="edge4" class="edge"><title>Node2&#45;&gt;Node3</title>
<path fill="none" stroke="midnightblue" d="M617.683,-306.16C616.797,-295.248 617.27,-282.04 619.103,-273.581"/>
<polygon fill="midnightblue" stroke="midnightblue" points="614.263,-306.977 619.099,-316.403 621.197,-306.018 614.263,-306.977"/>
</g>
<!-- Node2&#45;&gt;Node4 -->
<g id="edge8" class="edge"><title>Node2&#45;&gt;Node4</title>
<path fill="none" stroke="midnightblue" d="M594.039,-311.932C579.669,-304.382 563.191,-293.654 552,-280 532.906,-256.703 505.68,-166.032 497.449,-137.586"/>
<polygon fill="midnightblue" stroke="midnightblue" points="592.587,-315.119 603.1,-316.434 595.702,-308.85 592.587,-315.119"/>
</g>
<!-- Node3&#45;&gt;Node2 -->
<g id="edge6" class="edge"><title>Node3&#45;&gt;Node2</title>
<path fill="none" stroke="midnightblue" d="M630.315,-283.82C631.203,-294.728 630.732,-307.938 628.901,-316.403"/>
<polygon fill="midnightblue" stroke="midnightblue" points="633.736,-283.006 628.897,-273.581 626.802,-283.966 633.736,-283.006"/>
</g>
<!-- Node4&#45;&gt;Node4 -->
<g id="edge12" class="edge"><title>Node4&#45;&gt;Node4</title>
<path fill="none" stroke="midnightblue" d="M529.477,-139.135C548.052,-141.053 565,-137.341 565,-128 565,-116.98 541.413,-113.795 519.393,-118.444"/>
<polygon fill="midnightblue" stroke="midnightblue" points="529.814,-135.645 519.393,-137.556 528.731,-142.561 529.814,-135.645"/>
</g>
<!-- Node5 -->
<g id="node10" class="node"><title>Node5</title>
<a xlink:href="internal_8cpp.html" target="_top" xlink:title="code/om/internal.cpp">
<polygon fill="none" stroke="black" points="337,-56.5 337,-75.5 441,-75.5 441,-56.5 337,-56.5"/>
<text text-anchor="middle" x="389" y="-63.5" font-family="Helvetica,sans-Serif" font-size="10.00">code/om/internal.cpp</text>
</a>
</g>
<!-- Node4&#45;&gt;Node5 -->
<g id="edge10" class="edge"><title>Node4&#45;&gt;Node5</title>
<path fill="none" stroke="midnightblue" d="M471.05,-113.443C450.537,-101.832 421.621,-85.4648 404.159,-75.5806"/>
<polygon fill="midnightblue" stroke="midnightblue" points="469.386,-116.523 479.813,-118.403 472.834,-110.432 469.386,-116.523"/>
</g>
<!-- Node6 -->
<g id="node13" class="node"><title>Node6</title>
<a xlink:href="om_8hpp.html" target="_top" xlink:title="Om &quot;umbrella&quot; header file.">
<polygon fill="none" stroke="black" points="459,-56.5 459,-75.5 531,-75.5 531,-56.5 459,-56.5"/>
<text text-anchor="middle" x="495" y="-63.5" font-family="Helvetica,sans-Serif" font-size="10.00">code/om.hpp</text>
</a>
</g>
<!-- Node4&#45;&gt;Node6 -->
<g id="edge14" class="edge"><title>Node4&#45;&gt;Node6</title>
<path fill="none" stroke="midnightblue" d="M488.683,-108.16C487.797,-97.2482 488.27,-84.04 490.103,-75.5806"/>
<polygon fill="midnightblue" stroke="midnightblue" points="485.263,-108.977 490.099,-118.403 492.197,-108.018 485.263,-108.977"/>
</g>
<!-- Node6&#45;&gt;Node4 -->
<g id="edge16" class="edge"><title>Node6&#45;&gt;Node4</title>
<path fill="none" stroke="midnightblue" d="M501.315,-85.8199C502.203,-96.7283 501.732,-109.938 499.901,-118.403"/>
<polygon fill="midnightblue" stroke="midnightblue" points="504.736,-85.006 499.897,-75.5806 497.802,-85.9661 504.736,-85.006"/>
</g>
<!-- Node7 -->
<g id="node16" class="node"><title>Node7</title>
<a xlink:href="om_8cpp.html" target="_top" xlink:title="Om source file.">
<polygon fill="none" stroke="black" points="459.5,-0.5 459.5,-19.5 530.5,-19.5 530.5,-0.5 459.5,-0.5"/>
<text text-anchor="middle" x="495" y="-7.5" font-family="Helvetica,sans-Serif" font-size="10.00">code/om.cpp</text>
</a>
</g>
<!-- Node6&#45;&gt;Node7 -->
<g id="edge18" class="edge"><title>Node6&#45;&gt;Node7</title>
<path fill="none" stroke="midnightblue" d="M495,-45.8045C495,-36.9102 495,-26.7798 495,-19.7511"/>
<polygon fill="midnightblue" stroke="midnightblue" points="491.5,-46.083 495,-56.083 498.5,-46.083 491.5,-46.083"/>
</g>
<!-- Node8&#45;&gt;Node4 -->
<g id="edge24" class="edge"><title>Node8&#45;&gt;Node4</title>
<path fill="none" stroke="midnightblue" d="M402.014,-318.858C428.361,-313.002 457.074,-301.704 475,-280 510.364,-237.183 501.167,-163.003 496.72,-137.727"/>
<polygon fill="midnightblue" stroke="midnightblue" points="401.181,-315.455 392.06,-320.846 402.552,-322.32 401.181,-315.455"/>
</g>
<!-- Node9 -->
<g id="node22" class="node"><title>Node9</title>
<a xlink:href="lexicon_8cpp.html" target="_top" xlink:title="Om source file.">
<polygon fill="none" stroke="black" points="95.5,-254.5 95.5,-273.5 198.5,-273.5 198.5,-254.5 95.5,-254.5"/>
<text text-anchor="middle" x="147" y="-261.5" font-family="Helvetica,sans-Serif" font-size="10.00">code/om/lexicon.cpp</text>
</a>
</g>
<!-- Node8&#45;&gt;Node9 -->
<g id="edge26" class="edge"><title>Node8&#45;&gt;Node9</title>
<path fill="none" stroke="midnightblue" d="M297.834,-313.581C258.414,-301.922 201.226,-284.088 169.704,-273.581"/>
<polygon fill="midnightblue" stroke="midnightblue" points="296.866,-316.944 307.447,-316.403 298.838,-310.228 296.866,-316.944"/>
</g>
<!-- Node10 -->
<g id="node25" class="node"><title>Node10</title>
<a xlink:href="lexicon__operation_8hpp.html" target="_top" xlink:title="Om header file.">
<polygon fill="none" stroke="black" points="217,-249 217,-279 329,-279 329,-249 217,-249"/>
<text text-anchor="start" x="225" y="-267" font-family="Helvetica,sans-Serif" font-size="10.00">code/om/operations</text>
<text text-anchor="middle" x="273" y="-256" font-family="Helvetica,sans-Serif" font-size="10.00">/lexicon_operation.hpp</text>
</a>
</g>
<!-- Node8&#45;&gt;Node10 -->
<g id="edge30" class="edge"><title>Node8&#45;&gt;Node10</title>
<path fill="none" stroke="midnightblue" d="M322.711,-309.517C312.238,-300.138 298.98,-288.266 288.791,-279.141"/>
<polygon fill="midnightblue" stroke="midnightblue" points="320.616,-312.34 330.401,-316.403 325.286,-307.125 320.616,-312.34"/>
</g>
<!-- Node12 -->
<g id="node30" class="node"><title>Node12</title>
<a xlink:href="translate__operation_8hpp.html" target="_top" xlink:title="Om header file.">
<polygon fill="none" stroke="black" points="347.5,-249 347.5,-279 466.5,-279 466.5,-249 347.5,-249"/>
<text text-anchor="start" x="355.5" y="-267" font-family="Helvetica,sans-Serif" font-size="10.00">code/om/operations</text>
<text text-anchor="middle" x="407" y="-256" font-family="Helvetica,sans-Serif" font-size="10.00">/translate_operation.hpp</text>
</a>
</g>
<!-- Node8&#45;&gt;Node12 -->
<g id="edge36" class="edge"><title>Node8&#45;&gt;Node12</title>
<path fill="none" stroke="midnightblue" d="M357.289,-309.517C367.762,-300.138 381.02,-288.266 391.209,-279.141"/>
<polygon fill="midnightblue" stroke="midnightblue" points="354.714,-307.125 349.599,-316.403 359.384,-312.34 354.714,-307.125"/>
</g>
<!-- Node9&#45;&gt;Node8 -->
<g id="edge28" class="edge"><title>Node9&#45;&gt;Node8</title>
<path fill="none" stroke="midnightblue" d="M189.106,-276.402C228.508,-288.054 285.7,-305.889 317.248,-316.403"/>
<polygon fill="midnightblue" stroke="midnightblue" points="190.079,-273.04 179.498,-273.581 188.107,-279.756 190.079,-273.04"/>
</g>
<!-- Node10&#45;&gt;Node4 -->
<g id="edge32" class="edge"><title>Node10&#45;&gt;Node4</title>
<path fill="none" stroke="midnightblue" d="M283.26,-239.711C292.628,-221.015 308.186,-195.421 329,-180 362.308,-155.321 407.725,-142.44 442.634,-135.803"/>
<polygon fill="midnightblue" stroke="midnightblue" points="280.085,-238.237 278.93,-248.769 286.401,-241.256 280.085,-238.237"/>
</g>
<!-- Node11 -->
<g id="node28" class="node"><title>Node11</title>
<a xlink:href="lexicon__operation_8cpp.html" target="_top" xlink:title="Om source file.">
<polygon fill="none" stroke="black" points="-0.5,-181 -0.5,-211 110.5,-211 110.5,-181 -0.5,-181"/>
<text text-anchor="start" x="7.5" y="-199" font-family="Helvetica,sans-Serif" font-size="10.00">code/om/operations</text>
<text text-anchor="middle" x="55" y="-188" font-family="Helvetica,sans-Serif" font-size="10.00">/lexicon_operation.cpp</text>
</a>
</g>
<!-- Node10&#45;&gt;Node11 -->
<g id="edge34" class="edge"><title>Node10&#45;&gt;Node11</title>
<path fill="none" stroke="midnightblue" d="M216.689,-245.952C180.899,-235.116 135.129,-221.259 101.428,-211.056"/>
<polygon fill="midnightblue" stroke="midnightblue" points="215.916,-249.374 226.501,-248.922 217.944,-242.675 215.916,-249.374"/>
</g>
<!-- Node12&#45;&gt;Node4 -->
<g id="edge38" class="edge"><title>Node12&#45;&gt;Node4</title>
<path fill="none" stroke="midnightblue" d="M367.876,-243.438C356.076,-235.427 344.532,-224.95 338,-212 331.595,-199.302 329.64,-191.506 338,-180 361.753,-147.309 406.968,-135.158 442.798,-130.838"/>
<polygon fill="midnightblue" stroke="midnightblue" points="366.118,-246.468 376.445,-248.836 369.849,-240.545 366.118,-246.468"/>
</g>
<!-- Node13 -->
<g id="node33" class="node"><title>Node13</title>
<a xlink:href="substitute__operation_8hpp.html" target="_top" xlink:title="Om header file.">
<polygon fill="none" stroke="black" points="129,-181 129,-211 253,-211 253,-181 129,-181"/>
<text text-anchor="start" x="137" y="-199" font-family="Helvetica,sans-Serif" font-size="10.00">code/om/operations</text>
<text text-anchor="middle" x="191" y="-188" font-family="Helvetica,sans-Serif" font-size="10.00">/substitute_operation.hpp</text>
</a>
</g>
<!-- Node12&#45;&gt;Node13 -->
<g id="edge40" class="edge"><title>Node12&#45;&gt;Node13</title>
<path fill="none" stroke="midnightblue" d="M351.206,-245.952C315.744,-235.116 270.394,-221.259 237.002,-211.056"/>
<polygon fill="midnightblue" stroke="midnightblue" points="350.341,-249.347 360.928,-248.922 352.387,-242.653 350.341,-249.347"/>
</g>
<!-- Node15 -->
<g id="node39" class="node"><title>Node15</title>
<a xlink:href="translate__operation_8cpp.html" target="_top" xlink:title="Om source file.">
<polygon fill="none" stroke="black" points="347.5,-181 347.5,-211 466.5,-211 466.5,-181 347.5,-181"/>
<text text-anchor="start" x="355.5" y="-199" font-family="Helvetica,sans-Serif" font-size="10.00">code/om/operations</text>
<text text-anchor="middle" x="407" y="-188" font-family="Helvetica,sans-Serif" font-size="10.00">/translate_operation.cpp</text>
</a>
</g>
<!-- Node12&#45;&gt;Node15 -->
<g id="edge48" class="edge"><title>Node12&#45;&gt;Node15</title>
<path fill="none" stroke="midnightblue" d="M400.455,-238.532C400.005,-229.361 400.296,-219.245 401.325,-211.293"/>
<polygon fill="midnightblue" stroke="midnightblue" points="396.983,-239.013 401.322,-248.679 403.958,-238.417 396.983,-239.013"/>
</g>
<!-- Node13&#45;&gt;Node4 -->
<g id="edge42" class="edge"><title>Node13&#45;&gt;Node4</title>
<path fill="none" stroke="midnightblue" d="M263.081,-179.351C323.293,-166.279 406.885,-148.13 455.529,-137.569"/>
<polygon fill="midnightblue" stroke="midnightblue" points="262.282,-175.943 253.253,-181.485 263.767,-182.783 262.282,-175.943"/>
</g>
<!-- Node14 -->
<g id="node36" class="node"><title>Node14</title>
<a xlink:href="substitute__operation_8cpp.html" target="_top" xlink:title="Om source file.">
<polygon fill="none" stroke="black" points="129.5,-113 129.5,-143 252.5,-143 252.5,-113 129.5,-113"/>
<text text-anchor="start" x="137.5" y="-131" font-family="Helvetica,sans-Serif" font-size="10.00">code/om/operations</text>
<text text-anchor="middle" x="191" y="-120" font-family="Helvetica,sans-Serif" font-size="10.00">/substitute_operation.cpp</text>
</a>
</g>
<!-- Node13&#45;&gt;Node14 -->
<g id="edge44" class="edge"><title>Node13&#45;&gt;Node14</title>
<path fill="none" stroke="midnightblue" d="M184.455,-170.532C184.005,-161.361 184.296,-151.245 185.325,-143.293"/>
<polygon fill="midnightblue" stroke="midnightblue" points="180.983,-171.013 185.322,-180.679 187.958,-170.417 180.983,-171.013"/>
</g>
<!-- Node14&#45;&gt;Node13 -->
<g id="edge46" class="edge"><title>Node14&#45;&gt;Node13</title>
<path fill="none" stroke="midnightblue" d="M197.544,-153.436C197.995,-162.605 197.706,-172.722 196.678,-180.679"/>
<polygon fill="midnightblue" stroke="midnightblue" points="201.016,-152.958 196.675,-143.293 194.041,-153.555 201.016,-152.958"/>
</g>
<!-- Node15&#45;&gt;Node12 -->
<g id="edge50" class="edge"><title>Node15&#45;&gt;Node12</title>
<path fill="none" stroke="midnightblue" d="M413.544,-221.436C413.995,-230.605 413.706,-240.722 412.678,-248.679"/>
<polygon fill="midnightblue" stroke="midnightblue" points="417.016,-220.958 412.675,-211.293 410.041,-221.555 417.016,-220.958"/>
</g>
<!-- Node16&#45;&gt;Node4 -->
<g id="edge54" class="edge"><title>Node16&#45;&gt;Node4</title>
<path fill="none" stroke="midnightblue" d="M825.002,-311.33C837.232,-303.917 850.193,-293.48 857,-280 863.411,-267.305 864.327,-260.19 857,-248 823.812,-192.789 789.48,-202.177 729,-180 668.493,-157.813 595.473,-143.797 547.275,-136.191"/>
<polygon fill="midnightblue" stroke="midnightblue" points="822.93,-308.479 815.906,-316.41 826.343,-314.59 822.93,-308.479"/>
</g>
<!-- Node17 -->
<g id="node45" class="node"><title>Node17</title>
<a xlink:href="system_8cpp.html" target="_top" xlink:title="Om source file.">
<polygon fill="none" stroke="black" points="743.5,-254.5 743.5,-273.5 848.5,-273.5 848.5,-254.5 743.5,-254.5"/>
<text text-anchor="middle" x="796" y="-261.5" font-family="Helvetica,sans-Serif" font-size="10.00">code/om/system.cpp</text>
</a>
</g>
<!-- Node16&#45;&gt;Node17 -->
<g id="edge56" class="edge"><title>Node16&#45;&gt;Node17</title>
<path fill="none" stroke="midnightblue" d="M789.683,-306.16C788.797,-295.248 789.27,-282.04 791.103,-273.581"/>
<polygon fill="midnightblue" stroke="midnightblue" points="786.263,-306.977 791.099,-316.403 793.197,-306.018 786.263,-306.977"/>
</g>
<!-- Node17&#45;&gt;Node16 -->
<g id="edge58" class="edge"><title>Node17&#45;&gt;Node16</title>
<path fill="none" stroke="midnightblue" d="M802.315,-283.82C803.203,-294.728 802.732,-307.938 800.901,-316.403"/>
<polygon fill="midnightblue" stroke="midnightblue" points="805.736,-283.006 800.897,-273.581 798.802,-283.966 805.736,-283.006"/>
</g>
<!-- Node18&#45;&gt;Node1 -->
<g id="edge62" class="edge"><title>Node18&#45;&gt;Node1</title>
<path fill="none" stroke="midnightblue" d="M892.812,-338.783C862.621,-348.939 817.291,-363.359 786.867,-372.444"/>
<polygon fill="midnightblue" stroke="midnightblue" points="894.084,-342.047 902.427,-335.516 891.832,-335.42 894.084,-342.047"/>
</g>
</g>
</svg>
