<?xml version="1.0" encoding="UTF-8" standalone="no"?>
<!DOCTYPE svg PUBLIC "-//W3C//DTD SVG 1.1//EN"
 "http://www.w3.org/Graphics/SVG/1.1/DTD/svg11.dtd">
<!-- Generated by graphviz version 2.28.0 (20120817.0054)
 -->
<!-- Title: code/om/translator.cpp Pages: 1 -->
<svg width="310pt" height="252pt"
 viewBox="0.00 0.00 310.00 252.00" xmlns="http://www.w3.org/2000/svg" xmlns:xlink="http://www.w3.org/1999/xlink">
<g id="graph1" class="graph" transform="scale(1 1) rotate(0) translate(4 248)">
<title>code/om/translator.cpp</title>
<!-- Node1 -->
<g id="node1" class="node"><title>Node1</title>
<polygon fill="#bfbfbf" stroke="black" points="150.5,-224.5 150.5,-243.5 263.5,-243.5 263.5,-224.5 150.5,-224.5"/>
<text text-anchor="middle" x="207" y="-231.5" font-family="Helvetica,sans-Serif" font-size="10.00">code/om/translator.cpp</text>
</g>
<!-- Node2 -->
<g id="node3" class="node"><title>Node2</title>
<a xlink:href="translator_8hpp.html" target="_top" xlink:title="Om hpp file.">
<polygon fill="none" stroke="black" points="162,-168.5 162,-187.5 252,-187.5 252,-168.5 162,-168.5"/>
<text text-anchor="middle" x="207" y="-175.5" font-family="Helvetica,sans-Serif" font-size="10.00">om/translator.hpp</text>
</a>
</g>
<!-- Node1&#45;&gt;Node2 -->
<g id="edge2" class="edge"><title>Node1&#45;&gt;Node2</title>
<path fill="none" stroke="midnightblue" d="M201.834,-224.083C200.324,-216.927 199.894,-206.635 200.542,-197.691"/>
<polygon fill="midnightblue" stroke="midnightblue" points="204.015,-198.126 201.869,-187.751 197.077,-197.2 204.015,-198.126"/>
</g>
<!-- Node2&#45;&gt;Node1 -->
<g id="edge22" class="edge"><title>Node2&#45;&gt;Node1</title>
<path fill="none" stroke="midnightblue" d="M212.131,-187.751C213.657,-194.858 214.104,-205.136 213.472,-214.101"/>
<polygon fill="midnightblue" stroke="midnightblue" points="209.993,-213.713 212.166,-224.083 216.934,-214.622 209.993,-213.713"/>
</g>
<!-- Node3 -->
<g id="node5" class="node"><title>Node3</title>
<a xlink:href="default__sink_8hpp.html" target="_top" xlink:title="Om hpp file.">
<polygon fill="none" stroke="black" points="86,-112.5 86,-131.5 212,-131.5 212,-112.5 86,-112.5"/>
<text text-anchor="middle" x="149" y="-119.5" font-family="Helvetica,sans-Serif" font-size="10.00">om/sinks/default_sink.hpp</text>
</a>
</g>
<!-- Node2&#45;&gt;Node3 -->
<g id="edge4" class="edge"><title>Node2&#45;&gt;Node3</title>
<path fill="none" stroke="midnightblue" d="M197.681,-168.324C189.107,-160.341 176.188,-148.313 165.812,-138.653"/>
<polygon fill="midnightblue" stroke="midnightblue" points="168.192,-136.086 158.488,-131.834 163.422,-141.21 168.192,-136.086"/>
</g>
<!-- Node7 -->
<g id="node15" class="node"><title>Node7</title>
<a xlink:href="taker_8hpp.html" target="_top" xlink:title="Om hpp file.">
<polygon fill="none" stroke="black" points="230,-112.5 230,-131.5 302,-131.5 302,-112.5 230,-112.5"/>
<text text-anchor="middle" x="266" y="-119.5" font-family="Helvetica,sans-Serif" font-size="10.00">om/taker.hpp</text>
</a>
</g>
<!-- Node2&#45;&gt;Node7 -->
<g id="edge16" class="edge"><title>Node2&#45;&gt;Node7</title>
<path fill="none" stroke="midnightblue" d="M216.479,-168.324C225.201,-160.341 238.343,-148.313 248.898,-138.653"/>
<polygon fill="midnightblue" stroke="midnightblue" points="251.334,-141.167 256.348,-131.834 246.608,-136.004 251.334,-141.167"/>
</g>
<!-- Node4 -->
<g id="node7" class="node"><title>Node4</title>
<a xlink:href="sink_8hpp.html" target="_top" xlink:title="Om hpp file.">
<polygon fill="none" stroke="black" points="0,-56.5 0,-75.5 68,-75.5 68,-56.5 0,-56.5"/>
<text text-anchor="middle" x="34" y="-63.5" font-family="Helvetica,sans-Serif" font-size="10.00">om/sink.hpp</text>
</a>
</g>
<!-- Node3&#45;&gt;Node4 -->
<g id="edge6" class="edge"><title>Node3&#45;&gt;Node4</title>
<path fill="none" stroke="midnightblue" d="M130.778,-112.444C112.104,-103.675 82.844,-89.9355 61.3826,-79.8579"/>
<polygon fill="midnightblue" stroke="midnightblue" points="62.6763,-76.5988 52.1368,-75.5164 59.7009,-82.935 62.6763,-76.5988"/>
</g>
<!-- Node6 -->
<g id="node12" class="node"><title>Node6</title>
<a xlink:href="default__sink_8cpp.html" target="_top" xlink:title="Om cpp file.">
<polygon fill="none" stroke="black" points="86.5,-56.5 86.5,-75.5 211.5,-75.5 211.5,-56.5 86.5,-56.5"/>
<text text-anchor="middle" x="149" y="-63.5" font-family="Helvetica,sans-Serif" font-size="10.00">om/sinks/default_sink.cpp</text>
</a>
</g>
<!-- Node3&#45;&gt;Node6 -->
<g id="edge12" class="edge"><title>Node3&#45;&gt;Node6</title>
<path fill="none" stroke="midnightblue" d="M143.834,-112.083C142.324,-104.927 141.894,-94.6353 142.542,-85.6911"/>
<polygon fill="midnightblue" stroke="midnightblue" points="146.015,-86.1262 143.869,-75.7511 139.077,-85.2002 146.015,-86.1262"/>
</g>
<!-- Node5 -->
<g id="node9" class="node"><title>Node5</title>
<a xlink:href="sink_8cpp.html" target="_top" xlink:title="Om cpp file.">
<polygon fill="none" stroke="black" points="0,-0.5 0,-19.5 68,-19.5 68,-0.5 0,-0.5"/>
<text text-anchor="middle" x="34" y="-7.5" font-family="Helvetica,sans-Serif" font-size="10.00">om/sink.cpp</text>
</a>
</g>
<!-- Node4&#45;&gt;Node5 -->
<g id="edge8" class="edge"><title>Node4&#45;&gt;Node5</title>
<path fill="none" stroke="midnightblue" d="M28.8337,-56.083C27.3242,-48.9272 26.8938,-38.6353 27.5425,-29.6911"/>
<polygon fill="midnightblue" stroke="midnightblue" points="31.0154,-30.1262 28.869,-19.7511 24.0769,-29.2002 31.0154,-30.1262"/>
</g>
<!-- Node5&#45;&gt;Node4 -->
<g id="edge10" class="edge"><title>Node5&#45;&gt;Node4</title>
<path fill="none" stroke="midnightblue" d="M39.131,-19.7511C40.6573,-26.8579 41.1044,-37.1357 40.4724,-46.1005"/>
<polygon fill="midnightblue" stroke="midnightblue" points="36.9933,-45.7134 39.1663,-56.083 43.9342,-46.6216 36.9933,-45.7134"/>
</g>
<!-- Node6&#45;&gt;Node3 -->
<g id="edge14" class="edge"><title>Node6&#45;&gt;Node3</title>
<path fill="none" stroke="midnightblue" d="M154.131,-75.7511C155.657,-82.8579 156.104,-93.1357 155.472,-102.101"/>
<polygon fill="midnightblue" stroke="midnightblue" points="151.993,-101.713 154.166,-112.083 158.934,-102.622 151.993,-101.713"/>
</g>
<!-- Node8 -->
<g id="node17" class="node"><title>Node8</title>
<a xlink:href="taker_8cpp.html" target="_top" xlink:title="Om cpp file.">
<polygon fill="none" stroke="black" points="230.5,-56.5 230.5,-75.5 301.5,-75.5 301.5,-56.5 230.5,-56.5"/>
<text text-anchor="middle" x="266" y="-63.5" font-family="Helvetica,sans-Serif" font-size="10.00">om/taker.cpp</text>
</a>
</g>
<!-- Node7&#45;&gt;Node8 -->
<g id="edge18" class="edge"><title>Node7&#45;&gt;Node8</title>
<path fill="none" stroke="midnightblue" d="M260.834,-112.083C259.324,-104.927 258.894,-94.6353 259.542,-85.6911"/>
<polygon fill="midnightblue" stroke="midnightblue" points="263.015,-86.1262 260.869,-75.7511 256.077,-85.2002 263.015,-86.1262"/>
</g>
<!-- Node8&#45;&gt;Node7 -->
<g id="edge20" class="edge"><title>Node8&#45;&gt;Node7</title>
<path fill="none" stroke="midnightblue" d="M271.131,-75.7511C272.657,-82.8579 273.104,-93.1357 272.472,-102.101"/>
<polygon fill="midnightblue" stroke="midnightblue" points="268.993,-101.713 271.166,-112.083 275.934,-102.622 268.993,-101.713"/>
</g>
</g>
</svg>
