<?xml version="1.0" encoding="UTF-8" standalone="no"?>
<!DOCTYPE svg PUBLIC "-//W3C//DTD SVG 1.1//EN"
 "http://www.w3.org/Graphics/SVG/1.1/DTD/svg11.dtd">
<!-- Generated by graphviz version 2.28.0 (20120817.0054)
 -->
<!-- Title: code/om/operations/translate_operation.hpp Pages: 1 -->
<svg width="500pt" height="288pt"
 viewBox="0.00 0.00 500.00 288.00" xmlns="http://www.w3.org/2000/svg" xmlns:xlink="http://www.w3.org/1999/xlink">
<g id="graph1" class="graph" transform="scale(1 1) rotate(0) translate(4 284)">
<title>code/om/operations/translate_operation.hpp</title>
<!-- Node1 -->
<g id="node1" class="node"><title>Node1</title>
<polygon fill="#bfbfbf" stroke="black" points="303.5,-249 303.5,-279 422.5,-279 422.5,-249 303.5,-249"/>
<text text-anchor="start" x="311.5" y="-267" font-family="Helvetica,sans-Serif" font-size="10.00">code/om/operations</text>
<text text-anchor="middle" x="363" y="-256" font-family="Helvetica,sans-Serif" font-size="10.00">/translate_operation.hpp</text>
</g>
<!-- Node2 -->
<g id="node3" class="node"><title>Node2</title>
<a xlink:href="internal_8hpp.html" target="_top" xlink:title="code/om/internal.hpp">
<polygon fill="none" stroke="black" points="106,-118.5 106,-137.5 210,-137.5 210,-118.5 106,-118.5"/>
<text text-anchor="middle" x="158" y="-125.5" font-family="Helvetica,sans-Serif" font-size="10.00">code/om/internal.hpp</text>
</a>
</g>
<!-- Node1&#45;&gt;Node2 -->
<g id="edge2" class="edge"><title>Node1&#45;&gt;Node2</title>
<path fill="none" stroke="midnightblue" d="M293.617,-246.512C269.472,-238.627 243.16,-227.444 222,-212 193.487,-191.189 171.435,-154.254 162.426,-137.585"/>
<polygon fill="midnightblue" stroke="midnightblue" points="292.865,-249.944 303.454,-249.586 294.953,-243.263 292.865,-249.944"/>
</g>
<!-- Node6 -->
<g id="node13" class="node"><title>Node6</title>
<a xlink:href="substitute__operation_8hpp.html" target="_top" xlink:title="Om header file.">
<polygon fill="none" stroke="black" points="231,-181 231,-211 355,-211 355,-181 231,-181"/>
<text text-anchor="start" x="239" y="-199" font-family="Helvetica,sans-Serif" font-size="10.00">code/om/operations</text>
<text text-anchor="middle" x="293" y="-188" font-family="Helvetica,sans-Serif" font-size="10.00">/substitute_operation.hpp</text>
</a>
</g>
<!-- Node1&#45;&gt;Node6 -->
<g id="edge14" class="edge"><title>Node1&#45;&gt;Node6</title>
<path fill="none" stroke="midnightblue" d="M340.49,-241.776C329.92,-231.81 317.601,-220.196 308.159,-211.293"/>
<polygon fill="midnightblue" stroke="midnightblue" points="338.134,-244.365 347.811,-248.679 342.936,-239.272 338.134,-244.365"/>
</g>
<!-- Node8 -->
<g id="node19" class="node"><title>Node8</title>
<a xlink:href="translate__operation_8cpp.html" target="_top" xlink:title="Om source file.">
<polygon fill="none" stroke="black" points="373.5,-181 373.5,-211 492.5,-211 492.5,-181 373.5,-181"/>
<text text-anchor="start" x="381.5" y="-199" font-family="Helvetica,sans-Serif" font-size="10.00">code/om/operations</text>
<text text-anchor="middle" x="433" y="-188" font-family="Helvetica,sans-Serif" font-size="10.00">/translate_operation.cpp</text>
</a>
</g>
<!-- Node1&#45;&gt;Node8 -->
<g id="edge22" class="edge"><title>Node1&#45;&gt;Node8</title>
<path fill="none" stroke="midnightblue" d="M379.497,-241.434C389.398,-231.46 401.906,-219.896 412.436,-211.066"/>
<polygon fill="midnightblue" stroke="midnightblue" points="376.933,-239.051 372.511,-248.679 381.971,-243.91 376.933,-239.051"/>
</g>
<!-- Node2&#45;&gt;Node2 -->
<g id="edge6" class="edge"><title>Node2&#45;&gt;Node2</title>
<path fill="none" stroke="midnightblue" d="M192.477,-139.135C211.052,-141.053 228,-137.341 228,-128 228,-116.98 204.413,-113.795 182.393,-118.444"/>
<polygon fill="midnightblue" stroke="midnightblue" points="192.814,-135.645 182.393,-137.556 191.731,-142.561 192.814,-135.645"/>
</g>
<!-- Node3 -->
<g id="node5" class="node"><title>Node3</title>
<a xlink:href="internal_8cpp.html" target="_top" xlink:title="code/om/internal.cpp">
<polygon fill="none" stroke="black" points="0,-56.5 0,-75.5 104,-75.5 104,-56.5 0,-56.5"/>
<text text-anchor="middle" x="52" y="-63.5" font-family="Helvetica,sans-Serif" font-size="10.00">code/om/internal.cpp</text>
</a>
</g>
<!-- Node2&#45;&gt;Node3 -->
<g id="edge4" class="edge"><title>Node2&#45;&gt;Node3</title>
<path fill="none" stroke="midnightblue" d="M134.05,-113.443C113.537,-101.832 84.6211,-85.4648 67.159,-75.5806"/>
<polygon fill="midnightblue" stroke="midnightblue" points="132.386,-116.523 142.813,-118.403 135.834,-110.432 132.386,-116.523"/>
</g>
<!-- Node4 -->
<g id="node8" class="node"><title>Node4</title>
<a xlink:href="om_8hpp.html" target="_top" xlink:title="Om &quot;umbrella&quot; header file.">
<polygon fill="none" stroke="black" points="122,-56.5 122,-75.5 194,-75.5 194,-56.5 122,-56.5"/>
<text text-anchor="middle" x="158" y="-63.5" font-family="Helvetica,sans-Serif" font-size="10.00">code/om.hpp</text>
</a>
</g>
<!-- Node2&#45;&gt;Node4 -->
<g id="edge8" class="edge"><title>Node2&#45;&gt;Node4</title>
<path fill="none" stroke="midnightblue" d="M151.683,-108.16C150.797,-97.2482 151.27,-84.04 153.103,-75.5806"/>
<polygon fill="midnightblue" stroke="midnightblue" points="148.263,-108.977 153.099,-118.403 155.197,-108.018 148.263,-108.977"/>
</g>
<!-- Node4&#45;&gt;Node2 -->
<g id="edge10" class="edge"><title>Node4&#45;&gt;Node2</title>
<path fill="none" stroke="midnightblue" d="M164.315,-85.8199C165.203,-96.7283 164.732,-109.938 162.901,-118.403"/>
<polygon fill="midnightblue" stroke="midnightblue" points="167.736,-85.006 162.897,-75.5806 160.802,-85.9661 167.736,-85.006"/>
</g>
<!-- Node5 -->
<g id="node11" class="node"><title>Node5</title>
<a xlink:href="om_8cpp.html" target="_top" xlink:title="Om source file.">
<polygon fill="none" stroke="black" points="122.5,-0.5 122.5,-19.5 193.5,-19.5 193.5,-0.5 122.5,-0.5"/>
<text text-anchor="middle" x="158" y="-7.5" font-family="Helvetica,sans-Serif" font-size="10.00">code/om.cpp</text>
</a>
</g>
<!-- Node4&#45;&gt;Node5 -->
<g id="edge12" class="edge"><title>Node4&#45;&gt;Node5</title>
<path fill="none" stroke="midnightblue" d="M158,-45.8045C158,-36.9102 158,-26.7798 158,-19.7511"/>
<polygon fill="midnightblue" stroke="midnightblue" points="154.5,-46.083 158,-56.083 161.5,-46.083 154.5,-46.083"/>
</g>
<!-- Node6&#45;&gt;Node2 -->
<g id="edge16" class="edge"><title>Node6&#45;&gt;Node2</title>
<path fill="none" stroke="midnightblue" d="M254.843,-176.346C228.899,-163.662 195.773,-147.467 175.758,-137.682"/>
<polygon fill="midnightblue" stroke="midnightblue" points="253.518,-179.594 264.039,-180.841 256.593,-173.305 253.518,-179.594"/>
</g>
<!-- Node7 -->
<g id="node16" class="node"><title>Node7</title>
<a xlink:href="substitute__operation_8cpp.html" target="_top" xlink:title="Om source file.">
<polygon fill="none" stroke="black" points="246.5,-113 246.5,-143 369.5,-143 369.5,-113 246.5,-113"/>
<text text-anchor="start" x="254.5" y="-131" font-family="Helvetica,sans-Serif" font-size="10.00">code/om/operations</text>
<text text-anchor="middle" x="308" y="-120" font-family="Helvetica,sans-Serif" font-size="10.00">/substitute_operation.cpp</text>
</a>
</g>
<!-- Node6&#45;&gt;Node7 -->
<g id="edge18" class="edge"><title>Node6&#45;&gt;Node7</title>
<path fill="none" stroke="midnightblue" d="M292.016,-170.532C293.651,-161.361 296.24,-151.245 299.077,-143.293"/>
<polygon fill="midnightblue" stroke="midnightblue" points="288.515,-170.287 290.576,-180.679 295.446,-171.27 288.515,-170.287"/>
</g>
<!-- Node7&#45;&gt;Node6 -->
<g id="edge20" class="edge"><title>Node7&#45;&gt;Node6</title>
<path fill="none" stroke="midnightblue" d="M308.99,-153.436C307.357,-162.605 304.769,-172.722 301.933,-180.679"/>
<polygon fill="midnightblue" stroke="midnightblue" points="312.49,-153.685 310.426,-143.293 305.559,-152.704 312.49,-153.685"/>
</g>
<!-- Node8&#45;&gt;Node1 -->
<g id="edge24" class="edge"><title>Node8&#45;&gt;Node1</title>
<path fill="none" stroke="midnightblue" d="M416.296,-218.775C406.524,-228.605 394.26,-239.944 383.867,-248.679"/>
<polygon fill="midnightblue" stroke="midnightblue" points="419.09,-220.919 423.515,-211.293 414.053,-216.059 419.09,-220.919"/>
</g>
</g>
</svg>
