<?xml version="1.0" encoding="UTF-8" standalone="no"?>
<!DOCTYPE svg PUBLIC "-//W3C//DTD SVG 1.1//EN"
 "http://www.w3.org/Graphics/SVG/1.1/DTD/svg11.dtd">
<!-- Generated by graphviz version 2.36.0 (20140111.2315)
 -->
<!-- Title: om/language/translator.hpp Pages: 1 -->
<svg width="323pt" height="140pt"
 viewBox="0.00 0.00 323.00 140.00" xmlns="http://www.w3.org/2000/svg" xmlns:xlink="http://www.w3.org/1999/xlink">
<g id="graph0" class="graph" transform="scale(1 1) rotate(0) translate(4 136)">
<title>om/language/translator.hpp</title>
<!-- Node1 -->
<g id="node1" class="node"><title>Node1</title>
<g id="a_node1"><a xlink:title="Om header file.">
<polygon fill="#bfbfbf" stroke="black" points="124.399,-113 124.399,-131 261.601,-131 261.601,-113 124.399,-113"/>
<text text-anchor="middle" x="193" y="-119" font-family="Helvetica,sans-Serif" font-size="10.00">om/language/translator.hpp</text>
</a>
</g>
</g>
<!-- Node2 -->
<g id="node2" class="node"><title>Node2</title>
<g id="a_node2"><a xlink:href="code__point_8hpp.html" target="_top" xlink:title="Om header file.">
<polygon fill="none" stroke="black" points="0.468262,-57 0.468262,-75 101.532,-75 101.532,-57 0.468262,-57"/>
<text text-anchor="middle" x="51" y="-63" font-family="Helvetica,sans-Serif" font-size="10.00">om/code_point.hpp</text>
</a>
</g>
</g>
<!-- Node1&#45;&gt;Node2 -->
<g id="edge1" class="edge"><title>Node1&#45;&gt;Node2</title>
<path fill="none" stroke="midnightblue" d="M171.741,-112.916C147.899,-103.849 109.019,-89.0635 81.8389,-78.7275"/>
<polygon fill="midnightblue" stroke="midnightblue" points="82.9952,-75.4227 72.4042,-75.1396 80.507,-81.9656 82.9952,-75.4227"/>
</g>
<!-- Node4 -->
<g id="node4" class="node"><title>Node4</title>
<g id="a_node4"><a xlink:title=" ">
<polygon fill="none" stroke="#bfbfbf" points="119.773,-57 119.773,-75 160.227,-75 160.227,-57 119.773,-57"/>
<text text-anchor="middle" x="140" y="-63" font-family="Helvetica,sans-Serif" font-size="10.00">string</text>
</a>
</g>
</g>
<!-- Node1&#45;&gt;Node4 -->
<g id="edge3" class="edge"><title>Node1&#45;&gt;Node4</title>
<path fill="none" stroke="midnightblue" d="M184.719,-112.562C176.816,-104.511 164.724,-92.1905 155.106,-82.3907"/>
<polygon fill="midnightblue" stroke="midnightblue" points="157.552,-79.8867 148.05,-75.2014 152.556,-84.79 157.552,-79.8867"/>
</g>
<!-- Node5 -->
<g id="node5" class="node"><title>Node5</title>
<g id="a_node5"><a xlink:href="translator_8cpp.html" target="_top" xlink:title="Om source file.">
<polygon fill="none" stroke="black" points="178.68,-57 178.68,-75 315.32,-75 315.32,-57 178.68,-57"/>
<text text-anchor="middle" x="247" y="-63" font-family="Helvetica,sans-Serif" font-size="10.00">om/language/translator.cpp</text>
</a>
</g>
</g>
<!-- Node1&#45;&gt;Node5 -->
<g id="edge4" class="edge"><title>Node1&#45;&gt;Node5</title>
<path fill="none" stroke="midnightblue" d="M196.375,-112.562C202.761,-104.351 215.067,-91.7009 226.091,-81.8115"/>
<polygon fill="midnightblue" stroke="midnightblue" points="228.483,-84.3715 233.789,-75.2014 223.922,-79.0607 228.483,-84.3715"/>
</g>
<!-- Node3 -->
<g id="node3" class="node"><title>Node3</title>
<g id="a_node3"><a xlink:title=" ">
<polygon fill="none" stroke="#bfbfbf" points="-0.364258,-1 -0.364258,-19 102.364,-19 102.364,-1 -0.364258,-1"/>
<text text-anchor="middle" x="51" y="-7" font-family="Helvetica,sans-Serif" font-size="10.00">boost/locale/utf.hpp</text>
</a>
</g>
</g>
<!-- Node2&#45;&gt;Node3 -->
<g id="edge2" class="edge"><title>Node2&#45;&gt;Node3</title>
<path fill="none" stroke="midnightblue" d="M51,-56.5625C51,-49.308 51,-38.5884 51,-29.3691"/>
<polygon fill="midnightblue" stroke="midnightblue" points="54.5001,-29.2014 51,-19.2014 47.5001,-29.2015 54.5001,-29.2014"/>
</g>
<!-- Node5&#45;&gt;Node1 -->
<g id="edge5" class="edge"><title>Node5&#45;&gt;Node1</title>
<path fill="none" stroke="midnightblue" d="M243.748,-75.2786C237.406,-83.4744 225.036,-96.203 213.951,-106.151"/>
<polygon fill="midnightblue" stroke="midnightblue" points="211.516,-103.628 206.211,-112.799 216.077,-108.938 211.516,-103.628"/>
</g>
</g>
</svg>
