<?xml version="1.0" encoding="UTF-8" standalone="no"?>
<!DOCTYPE svg PUBLIC "-//W3C//DTD SVG 1.1//EN"
 "http://www.w3.org/Graphics/SVG/1.1/DTD/svg11.dtd">
<!-- Generated by graphviz version 2.30.1 (20130221.2233)
 -->
<!-- Title: code/om/writer.hpp Pages: 1 -->
<svg width="108pt" height="88pt"
 viewBox="0.00 0.00 108.00 88.00" xmlns="http://www.w3.org/2000/svg" xmlns:xlink="http://www.w3.org/1999/xlink">
<g id="graph0" class="graph" transform="scale(1 1) rotate(0) translate(4 84)">
<title>code/om/writer.hpp</title>
<!-- Node1 -->
<g id="node1" class="node"><title>Node1</title>
<polygon fill="#bfbfbf" stroke="black" points="-0.246094,-59 -0.246094,-79 100.246,-79 100.246,-59 -0.246094,-59"/>
<text text-anchor="middle" x="50" y="-65" font-family="Helvetica,sans-Serif" font-size="10.00">code/om/writer.hpp</text>
</g>
<!-- Node2 -->
<g id="node2" class="node"><title>Node2</title>
<g id="a_node2"><a xlink:href="writer_8cpp.html" target="_top" xlink:title="Om source file.">
<polygon fill="none" stroke="black" points="0.034668,-1 0.034668,-21 99.9653,-21 99.9653,-1 0.034668,-1"/>
<text text-anchor="middle" x="50" y="-7" font-family="Helvetica,sans-Serif" font-size="10.00">code/om/writer.cpp</text>
</a>
</g>
</g>
<!-- Node1&#45;&gt;Node2 -->
<g id="edge1" class="edge"><title>Node1&#45;&gt;Node2</title>
<path fill="none" stroke="midnightblue" d="M43.5488,-48.7065C42.8859,-39.3384 43.326,-28.5262 44.869,-21.0752"/>
<polygon fill="midnightblue" stroke="midnightblue" points="40.0933,-49.2776 44.8337,-58.7527 47.0367,-48.3895 40.0933,-49.2776"/>
</g>
<!-- Node2&#45;&gt;Node1 -->
<g id="edge2" class="edge"><title>Node2&#45;&gt;Node1</title>
<path fill="none" stroke="midnightblue" d="M56.4357,-31.0781C57.1156,-40.4238 56.6924,-51.2504 55.1663,-58.7527"/>
<polygon fill="midnightblue" stroke="midnightblue" points="59.8951,-30.5385 55.131,-21.0752 52.9539,-31.4439 59.8951,-30.5385"/>
</g>
</g>
</svg>
