<?xml version="1.0" encoding="UTF-8" standalone="no"?>
<!DOCTYPE svg PUBLIC "-//W3C//DTD SVG 1.1//EN"
 "http://www.w3.org/Graphics/SVG/1.1/DTD/svg11.dtd">
<!-- Generated by graphviz version 2.28.0 (20120817.0054)
 -->
<!-- Title: code/om/writer.hpp Pages: 1 -->
<svg width="2356pt" height="264pt"
 viewBox="0.00 0.00 2356.00 264.00" xmlns="http://www.w3.org/2000/svg" xmlns:xlink="http://www.w3.org/1999/xlink">
<g id="graph1" class="graph" transform="scale(1 1) rotate(0) translate(4 260)">
<title>code/om/writer.hpp</title>
<!-- Node1 -->
<g id="node1" class="node"><title>Node1</title>
<polygon fill="#bfbfbf" stroke="black" points="1166.5,-236.5 1166.5,-255.5 1263.5,-255.5 1263.5,-236.5 1166.5,-236.5"/>
<text text-anchor="middle" x="1215" y="-243.5" font-family="Helvetica,sans-Serif" font-size="10.00">code/om/writer.hpp</text>
</g>
<!-- Node2 -->
<g id="node3" class="node"><title>Node2</title>
<a xlink:href="code__point_8hpp.html" target="_top" xlink:title="Om header file.">
<polygon fill="none" stroke="black" points="949,-124.5 949,-143.5 1047,-143.5 1047,-124.5 949,-124.5"/>
<text text-anchor="middle" x="998" y="-131.5" font-family="Helvetica,sans-Serif" font-size="10.00">om/code_point.hpp</text>
</a>
</g>
<!-- Node1&#45;&gt;Node2 -->
<g id="edge2" class="edge"><title>Node1&#45;&gt;Node2</title>
<path fill="none" stroke="midnightblue" d="M1186.57,-236.406C1161.75,-228.421 1125.08,-215.454 1095,-200 1066.51,-185.366 1036.25,-164.04 1017.24,-149.854"/>
<polygon fill="midnightblue" stroke="midnightblue" points="1019.2,-146.947 1009.11,-143.707 1014.98,-152.53 1019.2,-146.947"/>
</g>
<!-- Node26 -->
<g id="node51" class="node"><title>Node26</title>
<a xlink:href="default__queue_8hpp.html" target="_top" xlink:title="Om header file.">
<polygon fill="none" stroke="black" points="1104.5,-180.5 1104.5,-199.5 1215.5,-199.5 1215.5,-180.5 1104.5,-180.5"/>
<text text-anchor="middle" x="1160" y="-187.5" font-family="Helvetica,sans-Serif" font-size="10.00">om/default_queue.hpp</text>
</a>
</g>
<!-- Node1&#45;&gt;Node26 -->
<g id="edge50" class="edge"><title>Node1&#45;&gt;Node26</title>
<path fill="none" stroke="midnightblue" d="M1205.92,-236.083C1197.83,-228.141 1185.8,-216.335 1176.09,-206.797"/>
<polygon fill="midnightblue" stroke="midnightblue" points="1178.5,-204.26 1168.91,-199.751 1173.6,-209.254 1178.5,-204.26"/>
</g>
<!-- Node30 -->
<g id="node62" class="node"><title>Node30</title>
<a xlink:href="writer_8cpp.html" target="_top" xlink:title="Om source file.">
<polygon fill="none" stroke="black" points="1233.5,-180.5 1233.5,-199.5 1306.5,-199.5 1306.5,-180.5 1233.5,-180.5"/>
<text text-anchor="middle" x="1270" y="-187.5" font-family="Helvetica,sans-Serif" font-size="10.00">om/writer.cpp</text>
</a>
</g>
<!-- Node1&#45;&gt;Node30 -->
<g id="edge64" class="edge"><title>Node1&#45;&gt;Node30</title>
<path fill="none" stroke="midnightblue" d="M1218.92,-236.083C1225.46,-227.984 1237.47,-215.866 1248.34,-206.233"/>
<polygon fill="midnightblue" stroke="midnightblue" points="1250.61,-208.898 1255.96,-199.751 1246.07,-203.567 1250.61,-208.898"/>
</g>
<!-- Node3 -->
<g id="node5" class="node"><title>Node3</title>
<a xlink:href="external_8hpp.html" target="_top" xlink:title="Om header file.">
<polygon fill="none" stroke="black" points="971.5,-68.5 971.5,-87.5 1040.5,-87.5 1040.5,-68.5 971.5,-68.5"/>
<text text-anchor="middle" x="1006" y="-75.5" font-family="Helvetica,sans-Serif" font-size="10.00">external.hpp</text>
</a>
</g>
<!-- Node2&#45;&gt;Node3 -->
<g id="edge4" class="edge"><title>Node2&#45;&gt;Node3</title>
<path fill="none" stroke="midnightblue" d="M999.321,-124.083C1000.38,-116.927 1001.91,-106.635 1003.23,-97.6911"/>
<polygon fill="midnightblue" stroke="midnightblue" points="1006.7,-98.1561 1004.7,-87.7511 999.776,-97.1302 1006.7,-98.1561"/>
</g>
<!-- Node4 -->
<g id="node7" class="node"><title>Node4</title>
<polygon fill="none" stroke="#bfbfbf" points="-0.5,-6.5 -0.5,-25.5 46.5,-25.5 46.5,-6.5 -0.5,-6.5"/>
<text text-anchor="middle" x="23" y="-13.5" font-family="Helvetica,sans-Serif" font-size="10.00">cassert</text>
</g>
<!-- Node3&#45;&gt;Node4 -->
<g id="edge6" class="edge"><title>Node3&#45;&gt;Node4</title>
<path fill="none" stroke="midnightblue" d="M971.383,-77.1044C822.343,-77.287 234.858,-75.1975 56,-32 53.3389,-31.3573 50.6294,-30.4999 47.9647,-29.5194"/>
<polygon fill="midnightblue" stroke="midnightblue" points="49.2501,-26.2629 38.6766,-25.5918 46.5238,-32.7102 49.2501,-26.2629"/>
</g>
<!-- Node5 -->
<g id="node9" class="node"><title>Node5</title>
<polygon fill="none" stroke="#bfbfbf" points="65,-6.5 65,-25.5 117,-25.5 117,-6.5 65,-6.5"/>
<text text-anchor="middle" x="91" y="-13.5" font-family="Helvetica,sans-Serif" font-size="10.00">iostream</text>
</g>
<!-- Node3&#45;&gt;Node5 -->
<g id="edge8" class="edge"><title>Node3&#45;&gt;Node5</title>
<path fill="none" stroke="midnightblue" d="M971.353,-76.8549C829.278,-76.0096 291.038,-70.2932 126,-32 123.102,-31.3276 120.141,-30.4281 117.23,-29.4021"/>
<polygon fill="midnightblue" stroke="midnightblue" points="118.265,-26.0465 107.681,-25.5729 115.66,-32.5435 118.265,-26.0465"/>
</g>
<!-- Node6 -->
<g id="node11" class="node"><title>Node6</title>
<polygon fill="none" stroke="#bfbfbf" points="135,-6.5 135,-25.5 179,-25.5 179,-6.5 135,-6.5"/>
<text text-anchor="middle" x="157" y="-13.5" font-family="Helvetica,sans-Serif" font-size="10.00">iterator</text>
</g>
<!-- Node3&#45;&gt;Node6 -->
<g id="edge10" class="edge"><title>Node3&#45;&gt;Node6</title>
<path fill="none" stroke="midnightblue" d="M971.471,-76.9044C835.843,-76.2512 339.651,-71.1769 188,-32 185.656,-31.3943 183.277,-30.6049 180.934,-29.705"/>
<polygon fill="midnightblue" stroke="midnightblue" points="182.237,-26.4538 171.679,-25.5715 179.382,-32.8453 182.237,-26.4538"/>
</g>
<!-- Node7 -->
<g id="node13" class="node"><title>Node7</title>
<polygon fill="none" stroke="#bfbfbf" points="197,-6.5 197,-25.5 247,-25.5 247,-6.5 197,-6.5"/>
<text text-anchor="middle" x="222" y="-13.5" font-family="Helvetica,sans-Serif" font-size="10.00">memory</text>
</g>
<!-- Node3&#45;&gt;Node7 -->
<g id="edge12" class="edge"><title>Node3&#45;&gt;Node7</title>
<path fill="none" stroke="midnightblue" d="M971.351,-76.5463C842.943,-74.6133 394.501,-65.5576 256,-32 253.178,-31.3163 250.298,-30.4096 247.467,-29.3792"/>
<polygon fill="midnightblue" stroke="midnightblue" points="248.767,-26.1293 238.188,-25.5448 246.093,-32.5987 248.767,-26.1293"/>
</g>
<!-- Node8 -->
<g id="node15" class="node"><title>Node8</title>
<polygon fill="none" stroke="#bfbfbf" points="265.5,-6.5 265.5,-25.5 304.5,-25.5 304.5,-6.5 265.5,-6.5"/>
<text text-anchor="middle" x="285" y="-13.5" font-family="Helvetica,sans-Serif" font-size="10.00">stack</text>
</g>
<!-- Node3&#45;&gt;Node8 -->
<g id="edge14" class="edge"><title>Node3&#45;&gt;Node8</title>
<path fill="none" stroke="midnightblue" d="M971.475,-76.621C849.563,-74.9932 439.854,-66.9857 314,-32 312.034,-31.4535 310.047,-30.764 308.085,-29.9826"/>
<polygon fill="midnightblue" stroke="midnightblue" points="309.218,-26.6472 298.68,-25.546 306.231,-32.9781 309.218,-26.6472"/>
</g>
<!-- Node9 -->
<g id="node17" class="node"><title>Node9</title>
<polygon fill="none" stroke="#bfbfbf" points="323,-6.5 323,-25.5 381,-25.5 381,-6.5 323,-6.5"/>
<text text-anchor="middle" x="352" y="-13.5" font-family="Helvetica,sans-Serif" font-size="10.00">stdexcept</text>
</g>
<!-- Node3&#45;&gt;Node9 -->
<g id="edge16" class="edge"><title>Node3&#45;&gt;Node9</title>
<path fill="none" stroke="midnightblue" d="M971.128,-75.8397C857.989,-71.8579 501.988,-57.5656 390,-32 386.75,-31.2581 383.413,-30.283 380.129,-29.1853"/>
<polygon fill="midnightblue" stroke="midnightblue" points="381.177,-25.8406 370.584,-25.6354 378.737,-32.4016 381.177,-25.8406"/>
</g>
<!-- Node10 -->
<g id="node19" class="node"><title>Node10</title>
<polygon fill="none" stroke="#bfbfbf" points="399,-6.5 399,-25.5 437,-25.5 437,-6.5 399,-6.5"/>
<text text-anchor="middle" x="418" y="-13.5" font-family="Helvetica,sans-Serif" font-size="10.00">string</text>
</g>
<!-- Node3&#45;&gt;Node10 -->
<g id="edge18" class="edge"><title>Node3&#45;&gt;Node10</title>
<path fill="none" stroke="midnightblue" d="M971.225,-76.065C864.891,-72.9144 545.305,-61.2015 446,-32 444.095,-31.4399 442.173,-30.7407 440.275,-29.9526"/>
<polygon fill="midnightblue" stroke="midnightblue" points="441.709,-26.7579 431.189,-25.5037 438.631,-33.0447 441.709,-26.7579"/>
</g>
<!-- Node11 -->
<g id="node21" class="node"><title>Node11</title>
<polygon fill="none" stroke="#bfbfbf" points="455,-6.5 455,-25.5 583,-25.5 583,-6.5 455,-6.5"/>
<text text-anchor="middle" x="519" y="-13.5" font-family="Helvetica,sans-Serif" font-size="10.00">boost/checked_delete.hpp</text>
</g>
<!-- Node3&#45;&gt;Node11 -->
<g id="edge20" class="edge"><title>Node3&#45;&gt;Node11</title>
<path fill="none" stroke="midnightblue" d="M971.233,-74.3369C899.873,-68.6257 731.817,-53.9135 592,-32 583.912,-30.7324 575.363,-29.1751 567.074,-27.5487"/>
<polygon fill="midnightblue" stroke="midnightblue" points="567.636,-24.0916 557.142,-25.5454 566.252,-30.9535 567.636,-24.0916"/>
</g>
<!-- Node12 -->
<g id="node23" class="node"><title>Node12</title>
<polygon fill="none" stroke="#bfbfbf" points="601.5,-6.5 601.5,-25.5 716.5,-25.5 716.5,-6.5 601.5,-6.5"/>
<text text-anchor="middle" x="659" y="-13.5" font-family="Helvetica,sans-Serif" font-size="10.00">boost/integer_traits.hpp</text>
</g>
<!-- Node3&#45;&gt;Node12 -->
<g id="edge22" class="edge"><title>Node3&#45;&gt;Node12</title>
<path fill="none" stroke="midnightblue" d="M971.265,-72.1756C918.064,-64.6202 813.282,-49.0823 725,-32 718.334,-30.7102 711.315,-29.2384 704.442,-27.7326"/>
<polygon fill="midnightblue" stroke="midnightblue" points="705.056,-24.2837 694.534,-25.5192 703.53,-31.1153 705.056,-24.2837"/>
</g>
<!-- Node13 -->
<g id="node25" class="node"><title>Node13</title>
<polygon fill="none" stroke="#bfbfbf" points="734.5,-6.5 734.5,-25.5 847.5,-25.5 847.5,-6.5 734.5,-6.5"/>
<text text-anchor="middle" x="791" y="-13.5" font-family="Helvetica,sans-Serif" font-size="10.00">boost/intrusive_ptr.hpp</text>
</g>
<!-- Node3&#45;&gt;Node13 -->
<g id="edge24" class="edge"><title>Node3&#45;&gt;Node13</title>
<path fill="none" stroke="midnightblue" d="M975.196,-68.4035C937.438,-57.8663 873.339,-39.9783 831.591,-28.3276"/>
<polygon fill="midnightblue" stroke="midnightblue" points="832.32,-24.8975 821.747,-25.5806 830.438,-31.6398 832.32,-24.8975"/>
</g>
<!-- Node14 -->
<g id="node27" class="node"><title>Node14</title>
<polygon fill="none" stroke="#bfbfbf" points="865.5,-6.5 865.5,-25.5 996.5,-25.5 996.5,-6.5 865.5,-6.5"/>
<text text-anchor="middle" x="931" y="-13.5" font-family="Helvetica,sans-Serif" font-size="10.00">boost/locale/boundary.hpp</text>
</g>
<!-- Node3&#45;&gt;Node14 -->
<g id="edge26" class="edge"><title>Node3&#45;&gt;Node14</title>
<path fill="none" stroke="midnightblue" d="M995.254,-68.4035C983.447,-58.9579 964.257,-43.6056 949.918,-32.1342"/>
<polygon fill="midnightblue" stroke="midnightblue" points="951.721,-29.0945 941.726,-25.5806 947.348,-34.5606 951.721,-29.0945"/>
</g>
<!-- Node15 -->
<g id="node29" class="node"><title>Node15</title>
<polygon fill="none" stroke="#bfbfbf" points="1014.5,-6.5 1014.5,-25.5 1149.5,-25.5 1149.5,-6.5 1014.5,-6.5"/>
<text text-anchor="middle" x="1082" y="-13.5" font-family="Helvetica,sans-Serif" font-size="10.00">boost/locale/conversion.hpp</text>
</g>
<!-- Node3&#45;&gt;Node15 -->
<g id="edge28" class="edge"><title>Node3&#45;&gt;Node15</title>
<path fill="none" stroke="midnightblue" d="M1016.89,-68.4035C1028.97,-58.8688 1048.67,-43.3154 1063.24,-31.8106"/>
<polygon fill="midnightblue" stroke="midnightblue" points="1065.45,-34.5242 1071.13,-25.5806 1061.11,-29.03 1065.45,-34.5242"/>
</g>
<!-- Node16 -->
<g id="node31" class="node"><title>Node16</title>
<polygon fill="none" stroke="#bfbfbf" points="1168,-6.5 1168,-25.5 1296,-25.5 1296,-6.5 1168,-6.5"/>
<text text-anchor="middle" x="1232" y="-13.5" font-family="Helvetica,sans-Serif" font-size="10.00">boost/locale/encoding.hpp</text>
</g>
<!-- Node3&#45;&gt;Node16 -->
<g id="edge30" class="edge"><title>Node3&#45;&gt;Node16</title>
<path fill="none" stroke="midnightblue" d="M1038.38,-68.4035C1078.24,-57.8217 1146.02,-39.8269 1189.89,-28.1802"/>
<polygon fill="midnightblue" stroke="midnightblue" points="1190.91,-31.5295 1199.68,-25.5806 1189.12,-24.7638 1190.91,-31.5295"/>
</g>
<!-- Node17 -->
<g id="node33" class="node"><title>Node17</title>
<polygon fill="none" stroke="#bfbfbf" points="1314.5,-6.5 1314.5,-25.5 1443.5,-25.5 1443.5,-6.5 1314.5,-6.5"/>
<text text-anchor="middle" x="1379" y="-13.5" font-family="Helvetica,sans-Serif" font-size="10.00">boost/locale/generator.hpp</text>
</g>
<!-- Node3&#45;&gt;Node17 -->
<g id="edge32" class="edge"><title>Node3&#45;&gt;Node17</title>
<path fill="none" stroke="midnightblue" d="M1040.67,-70.5994C1045.81,-69.6979 1051.04,-68.8051 1056,-68 1166.37,-50.0929 1194.83,-51.1146 1305,-32 1312.81,-30.645 1321.06,-29.0932 1329.1,-27.5132"/>
<polygon fill="midnightblue" stroke="midnightblue" points="1330.02,-30.9003 1339.14,-25.5095 1328.65,-24.0358 1330.02,-30.9003"/>
</g>
<!-- Node18 -->
<g id="node35" class="node"><title>Node18</title>
<polygon fill="none" stroke="#bfbfbf" points="1462,-6.5 1462,-25.5 1562,-25.5 1562,-6.5 1462,-6.5"/>
<text text-anchor="middle" x="1512" y="-13.5" font-family="Helvetica,sans-Serif" font-size="10.00">boost/locale/utf.hpp</text>
</g>
<!-- Node3&#45;&gt;Node18 -->
<g id="edge34" class="edge"><title>Node3&#45;&gt;Node18</title>
<path fill="none" stroke="midnightblue" d="M1040.64,-70.3608C1045.78,-69.4933 1051.02,-68.6735 1056,-68 1231.13,-44.3236 1277.76,-61.519 1452,-32 1458.39,-30.9172 1465.11,-29.5108 1471.63,-27.9937"/>
<polygon fill="midnightblue" stroke="midnightblue" points="1472.78,-31.3167 1481.67,-25.5492 1471.12,-24.5157 1472.78,-31.3167"/>
</g>
<!-- Node19 -->
<g id="node37" class="node"><title>Node19</title>
<polygon fill="none" stroke="#bfbfbf" points="1580,-6.5 1580,-25.5 1676,-25.5 1676,-6.5 1580,-6.5"/>
<text text-anchor="middle" x="1628" y="-13.5" font-family="Helvetica,sans-Serif" font-size="10.00">boost/optional.hpp</text>
</g>
<!-- Node3&#45;&gt;Node19 -->
<g id="edge36" class="edge"><title>Node3&#45;&gt;Node19</title>
<path fill="none" stroke="midnightblue" d="M1040.62,-70.2665C1045.77,-69.4124 1051.01,-68.6215 1056,-68 1283.69,-39.6348 1344.61,-69.3605 1571,-32 1577.23,-30.9722 1583.76,-29.5687 1590.1,-28.0303"/>
<polygon fill="midnightblue" stroke="midnightblue" points="1591,-31.4132 1599.81,-25.5364 1589.26,-24.6331 1591,-31.4132"/>
</g>
<!-- Node20 -->
<g id="node39" class="node"><title>Node20</title>
<polygon fill="none" stroke="#bfbfbf" points="1694.5,-1 1694.5,-31 1791.5,-31 1791.5,-1 1694.5,-1"/>
<text text-anchor="start" x="1702.5" y="-19" font-family="Helvetica,sans-Serif" font-size="10.00">boost/ptr_container</text>
<text text-anchor="middle" x="1743" y="-8" font-family="Helvetica,sans-Serif" font-size="10.00">/ptr_deque.hpp</text>
</g>
<!-- Node3&#45;&gt;Node20 -->
<g id="edge38" class="edge"><title>Node3&#45;&gt;Node20</title>
<path fill="none" stroke="midnightblue" d="M1040.62,-70.2094C1045.76,-69.3635 1051.01,-68.59 1056,-68 1330.82,-35.5225 1406.58,-74.3322 1684.44,-31.849"/>
<polygon fill="midnightblue" stroke="midnightblue" points="1685.06,-35.294 1694.41,-30.3032 1683.99,-28.3767 1685.06,-35.294"/>
</g>
<!-- Node21 -->
<g id="node41" class="node"><title>Node21</title>
<polygon fill="none" stroke="#bfbfbf" points="1809.5,-1 1809.5,-31 1906.5,-31 1906.5,-1 1809.5,-1"/>
<text text-anchor="start" x="1817.5" y="-19" font-family="Helvetica,sans-Serif" font-size="10.00">boost/ptr_container</text>
<text text-anchor="middle" x="1858" y="-8" font-family="Helvetica,sans-Serif" font-size="10.00">/ptr_map.hpp</text>
</g>
<!-- Node3&#45;&gt;Node21 -->
<g id="edge40" class="edge"><title>Node3&#45;&gt;Node21</title>
<path fill="none" stroke="midnightblue" d="M1040.61,-70.1695C1045.76,-69.3292 1051,-68.568 1056,-68 1381.56,-30.9813 1470.87,-80.6664 1799.14,-31.8831"/>
<polygon fill="midnightblue" stroke="midnightblue" points="1800.05,-35.2852 1809.42,-30.335 1799.01,-28.3632 1800.05,-35.2852"/>
</g>
<!-- Node22 -->
<g id="node43" class="node"><title>Node22</title>
<polygon fill="none" stroke="#bfbfbf" points="1924.5,-1 1924.5,-31 2021.5,-31 2021.5,-1 1924.5,-1"/>
<text text-anchor="start" x="1932.5" y="-19" font-family="Helvetica,sans-Serif" font-size="10.00">boost/ptr_container</text>
<text text-anchor="middle" x="1973" y="-8" font-family="Helvetica,sans-Serif" font-size="10.00">/ptr_vector.hpp</text>
</g>
<!-- Node3&#45;&gt;Node22 -->
<g id="edge42" class="edge"><title>Node3&#45;&gt;Node22</title>
<path fill="none" stroke="midnightblue" d="M1040.61,-70.1402C1045.75,-69.3041 1051,-68.5518 1056,-68 1432.47,-26.4252 1535.23,-87.0666 1914.27,-31.8545"/>
<polygon fill="midnightblue" stroke="midnightblue" points="1915.04,-35.2795 1924.42,-30.3583 1914.02,-28.3543 1915.04,-35.2795"/>
</g>
<!-- Node23 -->
<g id="node45" class="node"><title>Node23</title>
<polygon fill="none" stroke="#bfbfbf" points="2039.5,-6.5 2039.5,-25.5 2112.5,-25.5 2112.5,-6.5 2039.5,-6.5"/>
<text text-anchor="middle" x="2076" y="-13.5" font-family="Helvetica,sans-Serif" font-size="10.00">boost/ref.hpp</text>
</g>
<!-- Node3&#45;&gt;Node23 -->
<g id="edge44" class="edge"><title>Node3&#45;&gt;Node23</title>
<path fill="none" stroke="midnightblue" d="M1040.61,-70.1179C1045.75,-69.2849 1051,-68.5395 1056,-68 1486.68,-21.5143 1603.51,-107.881 2030,-32 2034.59,-31.1834 2039.35,-30.0158 2044,-28.6878"/>
<polygon fill="midnightblue" stroke="midnightblue" points="2045.36,-31.9275 2053.86,-25.5985 2043.27,-25.2475 2045.36,-31.9275"/>
</g>
<!-- Node24 -->
<g id="node47" class="node"><title>Node24</title>
<polygon fill="none" stroke="#bfbfbf" points="2131,-6.5 2131,-25.5 2241,-25.5 2241,-6.5 2131,-6.5"/>
<text text-anchor="middle" x="2186" y="-13.5" font-family="Helvetica,sans-Serif" font-size="10.00">boost/scoped_ptr.hpp</text>
</g>
<!-- Node3&#45;&gt;Node24 -->
<g id="edge46" class="edge"><title>Node3&#45;&gt;Node24</title>
<path fill="none" stroke="midnightblue" d="M1040.6,-70.1036C1045.75,-69.2727 1051,-68.5316 1056,-68 1526.95,-17.9195 1651.41,-93.5335 2121,-32 2128.66,-30.9956 2136.75,-29.4952 2144.52,-27.8257"/>
<polygon fill="midnightblue" stroke="midnightblue" points="2145.51,-31.1902 2154.48,-25.5611 2143.96,-24.3642 2145.51,-31.1902"/>
</g>
<!-- Node25 -->
<g id="node49" class="node"><title>Node25</title>
<polygon fill="none" stroke="#bfbfbf" points="2259.5,-6.5 2259.5,-25.5 2348.5,-25.5 2348.5,-6.5 2259.5,-6.5"/>
<text text-anchor="middle" x="2304" y="-13.5" font-family="Helvetica,sans-Serif" font-size="10.00">boost/swap.hpp</text>
</g>
<!-- Node3&#45;&gt;Node25 -->
<g id="edge48" class="edge"><title>Node3&#45;&gt;Node25</title>
<path fill="none" stroke="midnightblue" d="M1040.6,-70.087C1045.75,-69.2585 1051,-68.5225 1056,-68 1584.03,-12.8231 1725.1,-111.624 2250,-32 2255.98,-31.0932 2262.24,-29.7428 2268.28,-28.2176"/>
<polygon fill="midnightblue" stroke="midnightblue" points="2269.45,-31.5289 2278.18,-25.5332 2267.61,-24.773 2269.45,-31.5289"/>
</g>
<!-- Node27 -->
<g id="node53" class="node"><title>Node27</title>
<a xlink:href="queue_8hpp.html" target="_top" xlink:title="Om header file.">
<polygon fill="none" stroke="black" points="1065,-124.5 1065,-143.5 1143,-143.5 1143,-124.5 1065,-124.5"/>
<text text-anchor="middle" x="1104" y="-131.5" font-family="Helvetica,sans-Serif" font-size="10.00">om/queue.hpp</text>
</a>
</g>
<!-- Node26&#45;&gt;Node27 -->
<g id="edge52" class="edge"><title>Node26&#45;&gt;Node27</title>
<path fill="none" stroke="midnightblue" d="M1151,-180.324C1142.81,-172.42 1130.49,-160.548 1120.53,-150.938"/>
<polygon fill="midnightblue" stroke="midnightblue" points="1122.79,-148.256 1113.16,-143.834 1117.93,-153.295 1122.79,-148.256"/>
</g>
<!-- Node29 -->
<g id="node59" class="node"><title>Node29</title>
<a xlink:href="default__queue_8cpp.html" target="_top" xlink:title="Om source file.">
<polygon fill="none" stroke="black" points="1161,-124.5 1161,-143.5 1271,-143.5 1271,-124.5 1161,-124.5"/>
<text text-anchor="middle" x="1216" y="-131.5" font-family="Helvetica,sans-Serif" font-size="10.00">om/default_queue.cpp</text>
</a>
</g>
<!-- Node26&#45;&gt;Node29 -->
<g id="edge60" class="edge"><title>Node26&#45;&gt;Node29</title>
<path fill="none" stroke="midnightblue" d="M1164.08,-180.083C1170.77,-171.984 1183.01,-159.866 1194.06,-150.233"/>
<polygon fill="midnightblue" stroke="midnightblue" points="1196.38,-152.856 1201.79,-143.751 1191.88,-147.491 1196.38,-152.856"/>
</g>
<!-- Node27&#45;&gt;Node3 -->
<g id="edge54" class="edge"><title>Node27&#45;&gt;Node3</title>
<path fill="none" stroke="midnightblue" d="M1088.25,-124.324C1072.68,-115.743 1048.62,-102.486 1030.54,-92.5224"/>
<polygon fill="midnightblue" stroke="midnightblue" points="1032.15,-89.4152 1021.71,-87.6545 1028.78,-95.546 1032.15,-89.4152"/>
</g>
<!-- Node28 -->
<g id="node56" class="node"><title>Node28</title>
<a xlink:href="queue_8cpp.html" target="_top" xlink:title="Om source file.">
<polygon fill="none" stroke="black" points="1065.5,-68.5 1065.5,-87.5 1142.5,-87.5 1142.5,-68.5 1065.5,-68.5"/>
<text text-anchor="middle" x="1104" y="-75.5" font-family="Helvetica,sans-Serif" font-size="10.00">om/queue.cpp</text>
</a>
</g>
<!-- Node27&#45;&gt;Node28 -->
<g id="edge56" class="edge"><title>Node27&#45;&gt;Node28</title>
<path fill="none" stroke="midnightblue" d="M1098.83,-124.083C1097.32,-116.927 1096.89,-106.635 1097.54,-97.6911"/>
<polygon fill="midnightblue" stroke="midnightblue" points="1101.02,-98.1262 1098.87,-87.7511 1094.08,-97.2002 1101.02,-98.1262"/>
</g>
<!-- Node28&#45;&gt;Node27 -->
<g id="edge58" class="edge"><title>Node28&#45;&gt;Node27</title>
<path fill="none" stroke="midnightblue" d="M1109.13,-87.7511C1110.66,-94.8579 1111.1,-105.136 1110.47,-114.101"/>
<polygon fill="midnightblue" stroke="midnightblue" points="1106.99,-113.713 1109.17,-124.083 1113.93,-114.622 1106.99,-113.713"/>
</g>
<!-- Node29&#45;&gt;Node26 -->
<g id="edge62" class="edge"><title>Node29&#45;&gt;Node26</title>
<path fill="none" stroke="midnightblue" d="M1211.99,-143.834C1205.3,-151.948 1192.98,-164.145 1181.88,-173.82"/>
<polygon fill="midnightblue" stroke="midnightblue" points="1179.53,-171.221 1174.11,-180.324 1184.03,-176.588 1179.53,-171.221"/>
</g>
<!-- Node30&#45;&gt;Node1 -->
<g id="edge66" class="edge"><title>Node30&#45;&gt;Node1</title>
<path fill="none" stroke="midnightblue" d="M1266.15,-199.834C1259.61,-207.948 1247.52,-220.145 1236.6,-229.82"/>
<polygon fill="midnightblue" stroke="midnightblue" points="1234.3,-227.179 1228.95,-236.324 1238.84,-232.512 1234.3,-227.179"/>
</g>
</g>
</svg>
