<?xml version="1.0" encoding="UTF-8" standalone="no"?>
<!DOCTYPE svg PUBLIC "-//W3C//DTD SVG 1.1//EN"
 "http://www.w3.org/Graphics/SVG/1.1/DTD/svg11.dtd">
<!-- Generated by graphviz version 2.30.1 (20130221.2233)
 -->
<!-- Title: code/om/writer.hpp Pages: 1 -->
<svg width="408pt" height="204pt"
 viewBox="0.00 0.00 408.00 204.00" xmlns="http://www.w3.org/2000/svg" xmlns:xlink="http://www.w3.org/1999/xlink">
<g id="graph0" class="graph" transform="scale(1 1) rotate(0) translate(4 200)">
<title>code/om/writer.hpp</title>
<!-- Node1 -->
<g id="node1" class="node"><title>Node1</title>
<polygon fill="#bfbfbf" stroke="black" points="255.754,-175 255.754,-195 356.246,-195 356.246,-175 255.754,-175"/>
<text text-anchor="middle" x="306" y="-181" font-family="Helvetica,sans-Serif" font-size="10.00">code/om/writer.hpp</text>
</g>
<!-- Node2 -->
<g id="node2" class="node"><title>Node2</title>
<g id="a_node2"><a xlink:href="code__point_8hpp.html" target="_top" xlink:title="Om header file.">
<polygon fill="none" stroke="black" points="49.4683,-117 49.4683,-137 150.532,-137 150.532,-117 49.4683,-117"/>
<text text-anchor="middle" x="100" y="-123" font-family="Helvetica,sans-Serif" font-size="10.00">om/code_point.hpp</text>
</a>
</g>
</g>
<!-- Node1&#45;&gt;Node2 -->
<g id="edge1" class="edge"><title>Node1&#45;&gt;Node2</title>
<path fill="none" stroke="midnightblue" d="M272.444,-174.878C237.175,-165.29 181.572,-150.175 143.082,-139.712"/>
<polygon fill="midnightblue" stroke="midnightblue" points="143.768,-136.271 133.2,-137.025 141.932,-143.026 143.768,-136.271"/>
</g>
<!-- Node4 -->
<g id="node4" class="node"><title>Node4</title>
<g id="a_node4"><a xlink:href="default__queue_8hpp.html" target="_top" xlink:title="Om header file.">
<polygon fill="none" stroke="black" points="192.237,-117 192.237,-137 307.763,-137 307.763,-117 192.237,-117"/>
<text text-anchor="middle" x="250" y="-123" font-family="Helvetica,sans-Serif" font-size="10.00">om/default_queue.hpp</text>
</a>
</g>
</g>
<!-- Node1&#45;&gt;Node4 -->
<g id="edge3" class="edge"><title>Node1&#45;&gt;Node4</title>
<path fill="none" stroke="midnightblue" d="M296.753,-174.753C288.516,-166.516 276.274,-154.274 266.382,-144.382"/>
<polygon fill="midnightblue" stroke="midnightblue" points="268.621,-141.671 259.075,-137.075 263.671,-146.621 268.621,-141.671"/>
</g>
<!-- Node9 -->
<g id="node9" class="node"><title>Node9</title>
<g id="a_node9"><a xlink:href="writer_8cpp.html" target="_top" xlink:title="Om source file.">
<polygon fill="none" stroke="black" points="325.266,-117 325.266,-137 400.734,-137 400.734,-117 325.266,-117"/>
<text text-anchor="middle" x="363" y="-123" font-family="Helvetica,sans-Serif" font-size="10.00">om/writer.cpp</text>
</a>
</g>
</g>
<!-- Node1&#45;&gt;Node9 -->
<g id="edge10" class="edge"><title>Node1&#45;&gt;Node9</title>
<path fill="none" stroke="midnightblue" d="M310.246,-174.753C317.087,-166.353 329.551,-153.787 340.776,-143.798"/>
<polygon fill="midnightblue" stroke="midnightblue" points="343.309,-146.236 348.632,-137.075 338.758,-140.918 343.309,-146.236"/>
</g>
<!-- Node3 -->
<g id="node3" class="node"><title>Node3</title>
<polygon fill="none" stroke="#bfbfbf" points="-0.364258,-59 -0.364258,-79 102.364,-79 102.364,-59 -0.364258,-59"/>
<text text-anchor="middle" x="51" y="-65" font-family="Helvetica,sans-Serif" font-size="10.00">boost/locale/utf.hpp</text>
</g>
<!-- Node2&#45;&gt;Node3 -->
<g id="edge2" class="edge"><title>Node2&#45;&gt;Node3</title>
<path fill="none" stroke="midnightblue" d="M91.9086,-116.753C84.7733,-108.598 74.2013,-96.5158 65.5922,-86.6769"/>
<polygon fill="midnightblue" stroke="midnightblue" points="68.1599,-84.2962 58.9408,-79.0752 62.8918,-88.9058 68.1599,-84.2962"/>
</g>
<!-- Node5 -->
<g id="node5" class="node"><title>Node5</title>
<g id="a_node5"><a xlink:href="queue_8hpp.html" target="_top" xlink:title="Om header file.">
<polygon fill="none" stroke="black" points="120.03,-59 120.03,-79 199.97,-79 199.97,-59 120.03,-59"/>
<text text-anchor="middle" x="160" y="-65" font-family="Helvetica,sans-Serif" font-size="10.00">om/queue.hpp</text>
</a>
</g>
</g>
<!-- Node4&#45;&gt;Node5 -->
<g id="edge4" class="edge"><title>Node4&#45;&gt;Node5</title>
<path fill="none" stroke="midnightblue" d="M235.138,-116.753C220.984,-107.946 199.467,-94.5575 183.081,-84.3617"/>
<polygon fill="midnightblue" stroke="midnightblue" points="184.925,-81.3866 174.585,-79.0752 181.227,-87.33 184.925,-81.3866"/>
</g>
<!-- Node8 -->
<g id="node8" class="node"><title>Node8</title>
<g id="a_node8"><a xlink:href="default__queue_8cpp.html" target="_top" xlink:title="Om source file.">
<polygon fill="none" stroke="black" points="217.518,-59 217.518,-79 332.482,-79 332.482,-59 217.518,-59"/>
<text text-anchor="middle" x="275" y="-65" font-family="Helvetica,sans-Serif" font-size="10.00">om/default_queue.cpp</text>
</a>
</g>
</g>
<!-- Node4&#45;&gt;Node8 -->
<g id="edge8" class="edge"><title>Node4&#45;&gt;Node8</title>
<path fill="none" stroke="midnightblue" d="M248.962,-116.753C250.864,-108.924 255.584,-97.4761 260.682,-87.8679"/>
<polygon fill="midnightblue" stroke="midnightblue" points="263.797,-89.4755 265.818,-79.0752 257.752,-85.9453 263.797,-89.4755"/>
</g>
<!-- Node6 -->
<g id="node6" class="node"><title>Node6</title>
<polygon fill="none" stroke="#bfbfbf" points="49.9434,-1 49.9434,-21 102.057,-21 102.057,-1 49.9434,-1"/>
<text text-anchor="middle" x="76" y="-7" font-family="Helvetica,sans-Serif" font-size="10.00">memory</text>
</g>
<!-- Node5&#45;&gt;Node6 -->
<g id="edge5" class="edge"><title>Node5&#45;&gt;Node6</title>
<path fill="none" stroke="midnightblue" d="M146.129,-58.7527C133.041,-50.0272 113.208,-36.8051 97.9686,-26.6458"/>
<polygon fill="midnightblue" stroke="midnightblue" points="99.8748,-23.7101 89.6128,-21.0752 95.9918,-29.5344 99.8748,-23.7101"/>
</g>
<!-- Node7 -->
<g id="node7" class="node"><title>Node7</title>
<g id="a_node7"><a xlink:href="queue_8cpp.html" target="_top" xlink:title="Om source file.">
<polygon fill="none" stroke="black" points="120.311,-1 120.311,-21 199.689,-21 199.689,-1 120.311,-1"/>
<text text-anchor="middle" x="160" y="-7" font-family="Helvetica,sans-Serif" font-size="10.00">om/queue.cpp</text>
</a>
</g>
</g>
<!-- Node5&#45;&gt;Node7 -->
<g id="edge6" class="edge"><title>Node5&#45;&gt;Node7</title>
<path fill="none" stroke="midnightblue" d="M154.834,-58.7527C153.308,-51.2504 152.884,-40.4238 153.564,-31.0781"/>
<polygon fill="midnightblue" stroke="midnightblue" points="157.046,-31.4439 154.869,-21.0752 150.105,-30.5385 157.046,-31.4439"/>
</g>
<!-- Node7&#45;&gt;Node5 -->
<g id="edge7" class="edge"><title>Node7&#45;&gt;Node5</title>
<path fill="none" stroke="midnightblue" d="M165.131,-21.0752C166.674,-28.5262 167.114,-39.3384 166.451,-48.7065"/>
<polygon fill="midnightblue" stroke="midnightblue" points="162.963,-48.3895 165.166,-58.7527 169.907,-49.2776 162.963,-48.3895"/>
</g>
<!-- Node8&#45;&gt;Node4 -->
<g id="edge9" class="edge"><title>Node8&#45;&gt;Node4</title>
<path fill="none" stroke="midnightblue" d="M276.08,-79.0752C274.219,-86.8502 269.523,-98.2849 264.43,-107.92"/>
<polygon fill="midnightblue" stroke="midnightblue" points="261.295,-106.348 259.295,-116.753 267.347,-109.867 261.295,-106.348"/>
</g>
<!-- Node9&#45;&gt;Node1 -->
<g id="edge11" class="edge"><title>Node9&#45;&gt;Node1</title>
<path fill="none" stroke="midnightblue" d="M358.894,-137.075C352.13,-145.417 339.696,-157.972 328.455,-167.997"/>
<polygon fill="midnightblue" stroke="midnightblue" points="325.89,-165.586 320.579,-174.753 330.448,-170.899 325.89,-165.586"/>
</g>
</g>
</svg>
