<?xml version="1.0" encoding="UTF-8" standalone="no"?>
<!DOCTYPE svg PUBLIC "-//W3C//DTD SVG 1.1//EN"
 "http://www.w3.org/Graphics/SVG/1.1/DTD/svg11.dtd">
<!-- Generated by graphviz version 2.28.0 (20120817.0054)
 -->
<!-- Title: code/om/writer.cpp Pages: 1 -->
<svg width="2460pt" height="320pt"
 viewBox="0.00 0.00 2460.00 320.00" xmlns="http://www.w3.org/2000/svg" xmlns:xlink="http://www.w3.org/1999/xlink">
<g id="graph1" class="graph" transform="scale(1 1) rotate(0) translate(4 316)">
<title>code/om/writer.cpp</title>
<!-- Node1 -->
<g id="node1" class="node"><title>Node1</title>
<polygon fill="#bfbfbf" stroke="black" points="1084,-292.5 1084,-311.5 1180,-311.5 1180,-292.5 1084,-292.5"/>
<text text-anchor="middle" x="1132" y="-299.5" font-family="Helvetica,sans-Serif" font-size="10.00">code/om/writer.cpp</text>
</g>
<!-- Node2 -->
<g id="node3" class="node"><title>Node2</title>
<a xlink:href="writer_8hpp.html" target="_top" xlink:title="Om header file.">
<polygon fill="none" stroke="black" points="1095,-236.5 1095,-255.5 1169,-255.5 1169,-236.5 1095,-236.5"/>
<text text-anchor="middle" x="1132" y="-243.5" font-family="Helvetica,sans-Serif" font-size="10.00">om/writer.hpp</text>
</a>
</g>
<!-- Node1&#45;&gt;Node2 -->
<g id="edge2" class="edge"><title>Node1&#45;&gt;Node2</title>
<path fill="none" stroke="midnightblue" d="M1126.83,-292.083C1125.32,-284.927 1124.89,-274.635 1125.54,-265.691"/>
<polygon fill="midnightblue" stroke="midnightblue" points="1129.02,-266.126 1126.87,-255.751 1122.08,-265.2 1129.02,-266.126"/>
</g>
<!-- Node2&#45;&gt;Node1 -->
<g id="edge68" class="edge"><title>Node2&#45;&gt;Node1</title>
<path fill="none" stroke="midnightblue" d="M1137.13,-255.751C1138.66,-262.858 1139.1,-273.136 1138.47,-282.101"/>
<polygon fill="midnightblue" stroke="midnightblue" points="1134.99,-281.713 1137.17,-292.083 1141.93,-282.622 1134.99,-281.713"/>
</g>
<!-- Node3 -->
<g id="node5" class="node"><title>Node3</title>
<a xlink:href="code__point_8hpp.html" target="_top" xlink:title="Om header file.">
<polygon fill="none" stroke="black" points="1008,-180.5 1008,-199.5 1106,-199.5 1106,-180.5 1008,-180.5"/>
<text text-anchor="middle" x="1057" y="-187.5" font-family="Helvetica,sans-Serif" font-size="10.00">om/code_point.hpp</text>
</a>
</g>
<!-- Node2&#45;&gt;Node3 -->
<g id="edge4" class="edge"><title>Node2&#45;&gt;Node3</title>
<path fill="none" stroke="midnightblue" d="M1119.95,-236.324C1108.54,-228.107 1091.17,-215.602 1077.57,-205.807"/>
<polygon fill="midnightblue" stroke="midnightblue" points="1079.43,-202.837 1069.27,-199.834 1075.34,-208.517 1079.43,-202.837"/>
</g>
<!-- Node28 -->
<g id="node55" class="node"><title>Node28</title>
<a xlink:href="default__queue_8hpp.html" target="_top" xlink:title="Om header file.">
<polygon fill="none" stroke="black" points="1152.5,-180.5 1152.5,-199.5 1263.5,-199.5 1263.5,-180.5 1152.5,-180.5"/>
<text text-anchor="middle" x="1208" y="-187.5" font-family="Helvetica,sans-Serif" font-size="10.00">om/default_queue.hpp</text>
</a>
</g>
<!-- Node2&#45;&gt;Node28 -->
<g id="edge54" class="edge"><title>Node2&#45;&gt;Node28</title>
<path fill="none" stroke="midnightblue" d="M1144.21,-236.324C1155.78,-228.107 1173.38,-215.602 1187.16,-205.807"/>
<polygon fill="midnightblue" stroke="midnightblue" points="1189.44,-208.479 1195.57,-199.834 1185.39,-202.773 1189.44,-208.479"/>
</g>
<!-- Node4 -->
<g id="node7" class="node"><title>Node4</title>
<a xlink:href="external_8hpp.html" target="_top" xlink:title="om/external.hpp">
<polygon fill="none" stroke="black" points="992.5,-68.5 992.5,-87.5 1077.5,-87.5 1077.5,-68.5 992.5,-68.5"/>
<text text-anchor="middle" x="1035" y="-75.5" font-family="Helvetica,sans-Serif" font-size="10.00">om/external.hpp</text>
</a>
</g>
<!-- Node3&#45;&gt;Node4 -->
<g id="edge6" class="edge"><title>Node3&#45;&gt;Node4</title>
<path fill="none" stroke="midnightblue" d="M1055.27,-180.368C1051.72,-162.617 1043.53,-121.666 1038.72,-97.5974"/>
<polygon fill="midnightblue" stroke="midnightblue" points="1042.11,-96.7108 1036.72,-87.5914 1035.25,-98.0837 1042.11,-96.7108"/>
</g>
<!-- Node5 -->
<g id="node9" class="node"><title>Node5</title>
<polygon fill="none" stroke="#bfbfbf" points="-0.5,-6.5 -0.5,-25.5 46.5,-25.5 46.5,-6.5 -0.5,-6.5"/>
<text text-anchor="middle" x="23" y="-13.5" font-family="Helvetica,sans-Serif" font-size="10.00">cassert</text>
</g>
<!-- Node4&#45;&gt;Node5 -->
<g id="edge8" class="edge"><title>Node4&#45;&gt;Node5</title>
<path fill="none" stroke="midnightblue" d="M992.323,-77.1817C828.175,-77.5496 237.649,-75.737 56,-32 53.3385,-31.3592 50.6287,-30.503 47.9638,-29.5232"/>
<polygon fill="midnightblue" stroke="midnightblue" points="49.249,-26.2667 38.6754,-25.5966 46.5233,-32.7142 49.249,-26.2667"/>
</g>
<!-- Node6 -->
<g id="node11" class="node"><title>Node6</title>
<polygon fill="none" stroke="#bfbfbf" points="65,-6.5 65,-25.5 117,-25.5 117,-6.5 65,-6.5"/>
<text text-anchor="middle" x="91" y="-13.5" font-family="Helvetica,sans-Serif" font-size="10.00">iostream</text>
</g>
<!-- Node4&#45;&gt;Node6 -->
<g id="edge10" class="edge"><title>Node4&#45;&gt;Node6</title>
<path fill="none" stroke="midnightblue" d="M992.49,-76.8864C836.227,-76.1603 293.993,-70.8349 126,-32 123.102,-31.33 120.141,-30.432 117.229,-29.4069"/>
<polygon fill="midnightblue" stroke="midnightblue" points="118.264,-26.0512 107.68,-25.5788 115.659,-32.5486 118.264,-26.0512"/>
</g>
<!-- Node7 -->
<g id="node13" class="node"><title>Node7</title>
<polygon fill="none" stroke="#bfbfbf" points="135,-6.5 135,-25.5 179,-25.5 179,-6.5 135,-6.5"/>
<text text-anchor="middle" x="157" y="-13.5" font-family="Helvetica,sans-Serif" font-size="10.00">iterator</text>
</g>
<!-- Node4&#45;&gt;Node7 -->
<g id="edge12" class="edge"><title>Node4&#45;&gt;Node7</title>
<path fill="none" stroke="midnightblue" d="M992.273,-76.9557C842.578,-76.4547 342.553,-71.772 188,-32 185.655,-31.3965 183.276,-30.6086 180.933,-29.7096"/>
<polygon fill="midnightblue" stroke="midnightblue" points="182.236,-26.4584 171.677,-25.5776 179.382,-32.8503 182.236,-26.4584"/>
</g>
<!-- Node8 -->
<g id="node15" class="node"><title>Node8</title>
<polygon fill="none" stroke="#bfbfbf" points="197,-6.5 197,-25.5 247,-25.5 247,-6.5 197,-6.5"/>
<text text-anchor="middle" x="222" y="-13.5" font-family="Helvetica,sans-Serif" font-size="10.00">memory</text>
</g>
<!-- Node4&#45;&gt;Node8 -->
<g id="edge14" class="edge"><title>Node4&#45;&gt;Node8</title>
<path fill="none" stroke="midnightblue" d="M992.35,-76.5336C850.805,-74.674 397.572,-66.1348 256,-32 253.178,-31.3195 250.297,-30.4147 247.466,-29.3856"/>
<polygon fill="midnightblue" stroke="midnightblue" points="248.765,-26.1356 238.186,-25.5526 246.093,-32.6053 248.765,-26.1356"/>
</g>
<!-- Node9 -->
<g id="node17" class="node"><title>Node9</title>
<polygon fill="none" stroke="#bfbfbf" points="265.5,-6.5 265.5,-25.5 304.5,-25.5 304.5,-6.5 265.5,-6.5"/>
<text text-anchor="middle" x="285" y="-13.5" font-family="Helvetica,sans-Serif" font-size="10.00">stack</text>
</g>
<!-- Node4&#45;&gt;Node9 -->
<g id="edge16" class="edge"><title>Node4&#45;&gt;Node9</title>
<path fill="none" stroke="midnightblue" d="M992.179,-76.6367C857.35,-75.1315 442.887,-67.6482 314,-32 312.033,-31.456 310.046,-30.7684 308.083,-29.9883"/>
<polygon fill="midnightblue" stroke="midnightblue" points="309.216,-26.6528 298.678,-25.554 306.231,-32.9844 309.216,-26.6528"/>
</g>
<!-- Node10 -->
<g id="node19" class="node"><title>Node10</title>
<polygon fill="none" stroke="#bfbfbf" points="323,-6.5 323,-25.5 381,-25.5 381,-6.5 323,-6.5"/>
<text text-anchor="middle" x="352" y="-13.5" font-family="Helvetica,sans-Serif" font-size="10.00">stdexcept</text>
</g>
<!-- Node4&#45;&gt;Node10 -->
<g id="edge18" class="edge"><title>Node4&#45;&gt;Node10</title>
<path fill="none" stroke="midnightblue" d="M992.481,-75.729C867.916,-71.7377 505.361,-58.1373 390,-32 386.749,-31.2634 383.411,-30.2917 380.127,-29.196"/>
<polygon fill="midnightblue" stroke="midnightblue" points="381.174,-25.8511 370.581,-25.6482 378.735,-32.4126 381.174,-25.8511"/>
</g>
<!-- Node11 -->
<g id="node21" class="node"><title>Node11</title>
<polygon fill="none" stroke="#bfbfbf" points="399,-6.5 399,-25.5 437,-25.5 437,-6.5 399,-6.5"/>
<text text-anchor="middle" x="418" y="-13.5" font-family="Helvetica,sans-Serif" font-size="10.00">string</text>
</g>
<!-- Node4&#45;&gt;Node11 -->
<g id="edge20" class="edge"><title>Node4&#45;&gt;Node11</title>
<path fill="none" stroke="midnightblue" d="M992.291,-76.0215C874.789,-72.968 548.63,-61.9601 446,-32 444.094,-31.4437 442.171,-30.7472 440.272,-29.9609"/>
<polygon fill="midnightblue" stroke="midnightblue" points="441.706,-26.766 431.185,-25.5154 438.63,-33.0538 441.706,-26.766"/>
</g>
<!-- Node12 -->
<g id="node23" class="node"><title>Node12</title>
<polygon fill="none" stroke="#bfbfbf" points="455.5,-6.5 455.5,-25.5 540.5,-25.5 540.5,-6.5 455.5,-6.5"/>
<text text-anchor="middle" x="498" y="-13.5" font-family="Helvetica,sans-Serif" font-size="10.00">boost/array.hpp</text>
</g>
<!-- Node4&#45;&gt;Node12 -->
<g id="edge22" class="edge"><title>Node4&#45;&gt;Node12</title>
<path fill="none" stroke="midnightblue" d="M992.459,-75.7418C907.615,-72.6427 711.618,-62.5259 550,-32 544.768,-31.0117 539.304,-29.7259 533.967,-28.3227"/>
<polygon fill="midnightblue" stroke="midnightblue" points="534.528,-24.8456 523.955,-25.5271 532.645,-31.5877 534.528,-24.8456"/>
</g>
<!-- Node13 -->
<g id="node25" class="node"><title>Node13</title>
<polygon fill="none" stroke="#bfbfbf" points="559,-6.5 559,-25.5 687,-25.5 687,-6.5 559,-6.5"/>
<text text-anchor="middle" x="623" y="-13.5" font-family="Helvetica,sans-Serif" font-size="10.00">boost/checked_delete.hpp</text>
</g>
<!-- Node4&#45;&gt;Node13 -->
<g id="edge24" class="edge"><title>Node4&#45;&gt;Node13</title>
<path fill="none" stroke="midnightblue" d="M992.31,-72.3143C927.897,-65.0228 802.106,-49.9207 696,-32 688.196,-30.6819 679.953,-29.1373 671.927,-27.5496"/>
<polygon fill="midnightblue" stroke="midnightblue" points="672.421,-24.0788 661.926,-25.5294 671.035,-30.9402 672.421,-24.0788"/>
</g>
<!-- Node14 -->
<g id="node27" class="node"><title>Node14</title>
<polygon fill="none" stroke="#bfbfbf" points="705.5,-6.5 705.5,-25.5 820.5,-25.5 820.5,-6.5 705.5,-6.5"/>
<text text-anchor="middle" x="763" y="-13.5" font-family="Helvetica,sans-Serif" font-size="10.00">boost/integer_traits.hpp</text>
</g>
<!-- Node4&#45;&gt;Node14 -->
<g id="edge26" class="edge"><title>Node4&#45;&gt;Node14</title>
<path fill="none" stroke="midnightblue" d="M995.487,-68.4717C954.001,-59.4936 886.884,-44.8997 829,-32 822.903,-30.6413 816.493,-29.2002 810.162,-27.7694"/>
<polygon fill="midnightblue" stroke="midnightblue" points="810.861,-24.3392 800.335,-25.5428 809.315,-31.1661 810.861,-24.3392"/>
</g>
<!-- Node15 -->
<g id="node29" class="node"><title>Node15</title>
<polygon fill="none" stroke="#bfbfbf" points="838.5,-6.5 838.5,-25.5 951.5,-25.5 951.5,-6.5 838.5,-6.5"/>
<text text-anchor="middle" x="895" y="-13.5" font-family="Helvetica,sans-Serif" font-size="10.00">boost/intrusive_ptr.hpp</text>
</g>
<!-- Node4&#45;&gt;Node15 -->
<g id="edge28" class="edge"><title>Node4&#45;&gt;Node15</title>
<path fill="none" stroke="midnightblue" d="M1014.94,-68.4035C991.238,-58.245 951.594,-41.2547 924.417,-29.6074"/>
<polygon fill="midnightblue" stroke="midnightblue" points="925.592,-26.3028 915.021,-25.5806 922.834,-32.7369 925.592,-26.3028"/>
</g>
<!-- Node16 -->
<g id="node31" class="node"><title>Node16</title>
<polygon fill="none" stroke="#bfbfbf" points="969.5,-6.5 969.5,-25.5 1100.5,-25.5 1100.5,-6.5 969.5,-6.5"/>
<text text-anchor="middle" x="1035" y="-13.5" font-family="Helvetica,sans-Serif" font-size="10.00">boost/locale/boundary.hpp</text>
</g>
<!-- Node4&#45;&gt;Node16 -->
<g id="edge30" class="edge"><title>Node4&#45;&gt;Node16</title>
<path fill="none" stroke="midnightblue" d="M1035,-68.4035C1035,-59.9381 1035,-46.7283 1035,-35.8199"/>
<polygon fill="midnightblue" stroke="midnightblue" points="1038.5,-35.5806 1035,-25.5806 1031.5,-35.5806 1038.5,-35.5806"/>
</g>
<!-- Node17 -->
<g id="node33" class="node"><title>Node17</title>
<polygon fill="none" stroke="#bfbfbf" points="1118.5,-6.5 1118.5,-25.5 1253.5,-25.5 1253.5,-6.5 1118.5,-6.5"/>
<text text-anchor="middle" x="1186" y="-13.5" font-family="Helvetica,sans-Serif" font-size="10.00">boost/locale/conversion.hpp</text>
</g>
<!-- Node4&#45;&gt;Node17 -->
<g id="edge32" class="edge"><title>Node4&#45;&gt;Node17</title>
<path fill="none" stroke="midnightblue" d="M1056.63,-68.4035C1082.42,-58.1559 1125.71,-40.9561 1155.04,-29.3021"/>
<polygon fill="midnightblue" stroke="midnightblue" points="1156.4,-32.526 1164.41,-25.5806 1153.82,-26.0207 1156.4,-32.526"/>
</g>
<!-- Node18 -->
<g id="node35" class="node"><title>Node18</title>
<polygon fill="none" stroke="#bfbfbf" points="1272,-6.5 1272,-25.5 1400,-25.5 1400,-6.5 1272,-6.5"/>
<text text-anchor="middle" x="1336" y="-13.5" font-family="Helvetica,sans-Serif" font-size="10.00">boost/locale/encoding.hpp</text>
</g>
<!-- Node4&#45;&gt;Node18 -->
<g id="edge34" class="edge"><title>Node4&#45;&gt;Node18</title>
<path fill="none" stroke="midnightblue" d="M1077.69,-68.5949C1123.32,-59.5959 1197.79,-44.8722 1262,-32 1269.16,-30.5652 1276.7,-29.0448 1284.13,-27.544"/>
<polygon fill="midnightblue" stroke="midnightblue" points="1285.02,-30.9335 1294.13,-25.5194 1283.64,-24.0726 1285.02,-30.9335"/>
</g>
<!-- Node19 -->
<g id="node37" class="node"><title>Node19</title>
<polygon fill="none" stroke="#bfbfbf" points="1418.5,-6.5 1418.5,-25.5 1547.5,-25.5 1547.5,-6.5 1418.5,-6.5"/>
<text text-anchor="middle" x="1483" y="-13.5" font-family="Helvetica,sans-Serif" font-size="10.00">boost/locale/generator.hpp</text>
</g>
<!-- Node4&#45;&gt;Node19 -->
<g id="edge36" class="edge"><title>Node4&#45;&gt;Node19</title>
<path fill="none" stroke="midnightblue" d="M1077.54,-69.2834C1080.4,-68.8294 1083.24,-68.3968 1086,-68 1228.97,-47.4384 1266.3,-54.37 1409,-32 1417.19,-30.7155 1425.86,-29.1496 1434.26,-27.5199"/>
<polygon fill="midnightblue" stroke="midnightblue" points="1435.2,-30.9007 1444.33,-25.515 1433.84,-24.0355 1435.2,-30.9007"/>
</g>
<!-- Node20 -->
<g id="node39" class="node"><title>Node20</title>
<polygon fill="none" stroke="#bfbfbf" points="1566,-6.5 1566,-25.5 1666,-25.5 1666,-6.5 1566,-6.5"/>
<text text-anchor="middle" x="1616" y="-13.5" font-family="Helvetica,sans-Serif" font-size="10.00">boost/locale/utf.hpp</text>
</g>
<!-- Node4&#45;&gt;Node20 -->
<g id="edge38" class="edge"><title>Node4&#45;&gt;Node20</title>
<path fill="none" stroke="midnightblue" d="M1077.53,-69.1728C1080.39,-68.7455 1083.23,-68.349 1086,-68 1293.85,-41.7643 1349.2,-65.5247 1556,-32 1562.47,-30.9514 1569.26,-29.5502 1575.86,-28.0242"/>
<polygon fill="midnightblue" stroke="midnightblue" points="1577.1,-31.3239 1585.99,-25.5561 1575.45,-24.5228 1577.1,-31.3239"/>
</g>
<!-- Node21 -->
<g id="node41" class="node"><title>Node21</title>
<polygon fill="none" stroke="#bfbfbf" points="1684,-6.5 1684,-25.5 1780,-25.5 1780,-6.5 1684,-6.5"/>
<text text-anchor="middle" x="1732" y="-13.5" font-family="Helvetica,sans-Serif" font-size="10.00">boost/optional.hpp</text>
</g>
<!-- Node4&#45;&gt;Node21 -->
<g id="edge40" class="edge"><title>Node4&#45;&gt;Node21</title>
<path fill="none" stroke="midnightblue" d="M1077.52,-69.1235C1080.39,-68.7081 1083.23,-68.3277 1086,-68 1346.45,-37.1612 1416.05,-73.5725 1675,-32 1681.3,-30.9888 1687.91,-29.5805 1694.31,-28.0285"/>
<polygon fill="midnightblue" stroke="midnightblue" points="1695.3,-31.3879 1704.11,-25.5077 1693.56,-24.6084 1695.3,-31.3879"/>
</g>
<!-- Node22 -->
<g id="node43" class="node"><title>Node22</title>
<polygon fill="none" stroke="#bfbfbf" points="1798.5,-1 1798.5,-31 1895.5,-31 1895.5,-1 1798.5,-1"/>
<text text-anchor="start" x="1806.5" y="-19" font-family="Helvetica,sans-Serif" font-size="10.00">boost/ptr_container</text>
<text text-anchor="middle" x="1847" y="-8" font-family="Helvetica,sans-Serif" font-size="10.00">/ptr_deque.hpp</text>
</g>
<!-- Node4&#45;&gt;Node22 -->
<g id="edge42" class="edge"><title>Node4&#45;&gt;Node22</title>
<path fill="none" stroke="midnightblue" d="M1077.52,-69.0918C1080.38,-68.684 1083.23,-68.3141 1086,-68 1393.52,-33.1268 1477.95,-78.415 1788.23,-31.8737"/>
<polygon fill="midnightblue" stroke="midnightblue" points="1789.05,-35.2881 1798.41,-30.3248 1788,-28.3676 1789.05,-35.2881"/>
</g>
<!-- Node23 -->
<g id="node45" class="node"><title>Node23</title>
<polygon fill="none" stroke="#bfbfbf" points="1913.5,-1 1913.5,-31 2010.5,-31 2010.5,-1 1913.5,-1"/>
<text text-anchor="start" x="1921.5" y="-19" font-family="Helvetica,sans-Serif" font-size="10.00">boost/ptr_container</text>
<text text-anchor="middle" x="1962" y="-8" font-family="Helvetica,sans-Serif" font-size="10.00">/ptr_map.hpp</text>
</g>
<!-- Node4&#45;&gt;Node23 -->
<g id="edge44" class="edge"><title>Node4&#45;&gt;Node23</title>
<path fill="none" stroke="midnightblue" d="M1077.52,-69.0687C1080.38,-68.6665 1083.23,-68.3041 1086,-68 1444.47,-28.653 1542.34,-84.8202 1903.48,-31.8273"/>
<polygon fill="midnightblue" stroke="midnightblue" points="1904.04,-35.2819 1913.42,-30.3507 1903.01,-28.3578 1904.04,-35.2819"/>
</g>
<!-- Node24 -->
<g id="node47" class="node"><title>Node24</title>
<polygon fill="none" stroke="#bfbfbf" points="2028.5,-1 2028.5,-31 2125.5,-31 2125.5,-1 2028.5,-1"/>
<text text-anchor="start" x="2036.5" y="-19" font-family="Helvetica,sans-Serif" font-size="10.00">boost/ptr_container</text>
<text text-anchor="middle" x="2077" y="-8" font-family="Helvetica,sans-Serif" font-size="10.00">/ptr_vector.hpp</text>
</g>
<!-- Node4&#45;&gt;Node24 -->
<g id="edge46" class="edge"><title>Node4&#45;&gt;Node24</title>
<path fill="none" stroke="midnightblue" d="M1077.52,-69.0513C1080.38,-68.6534 1083.23,-68.2966 1086,-68 1495.29,-24.1953 1606.64,-91.202 2018.33,-31.8418"/>
<polygon fill="midnightblue" stroke="midnightblue" points="2019.03,-35.2767 2028.42,-30.3703 2018.02,-28.3499 2019.03,-35.2767"/>
</g>
<!-- Node25 -->
<g id="node49" class="node"><title>Node25</title>
<polygon fill="none" stroke="#bfbfbf" points="2143.5,-6.5 2143.5,-25.5 2216.5,-25.5 2216.5,-6.5 2143.5,-6.5"/>
<text text-anchor="middle" x="2180" y="-13.5" font-family="Helvetica,sans-Serif" font-size="10.00">boost/ref.hpp</text>
</g>
<!-- Node4&#45;&gt;Node25 -->
<g id="edge48" class="edge"><title>Node4&#45;&gt;Node25</title>
<path fill="none" stroke="midnightblue" d="M1077.51,-69.0377C1080.38,-68.6431 1083.23,-68.2907 1086,-68 1549.51,-19.3838 1675.05,-113.041 2134,-32 2138.59,-31.1893 2143.35,-30.0252 2148,-28.6989"/>
<polygon fill="midnightblue" stroke="midnightblue" points="2149.36,-31.9387 2157.86,-25.6107 2147.27,-25.2585 2149.36,-31.9387"/>
</g>
<!-- Node26 -->
<g id="node51" class="node"><title>Node26</title>
<polygon fill="none" stroke="#bfbfbf" points="2235,-6.5 2235,-25.5 2345,-25.5 2345,-6.5 2235,-6.5"/>
<text text-anchor="middle" x="2290" y="-13.5" font-family="Helvetica,sans-Serif" font-size="10.00">boost/scoped_ptr.hpp</text>
</g>
<!-- Node4&#45;&gt;Node26 -->
<g id="edge50" class="edge"><title>Node4&#45;&gt;Node26</title>
<path fill="none" stroke="midnightblue" d="M1077.51,-69.0289C1080.38,-68.6364 1083.23,-68.2869 1086,-68 1589.78,-15.8577 1722.75,-97.2534 2225,-32 2232.67,-31.004 2240.75,-29.5076 2248.52,-27.8395"/>
<polygon fill="midnightblue" stroke="midnightblue" points="2249.51,-31.204 2258.49,-25.5753 2247.96,-24.378 2249.51,-31.204"/>
</g>
<!-- Node27 -->
<g id="node53" class="node"><title>Node27</title>
<polygon fill="none" stroke="#bfbfbf" points="2363.5,-6.5 2363.5,-25.5 2452.5,-25.5 2452.5,-6.5 2363.5,-6.5"/>
<text text-anchor="middle" x="2408" y="-13.5" font-family="Helvetica,sans-Serif" font-size="10.00">boost/swap.hpp</text>
</g>
<!-- Node4&#45;&gt;Node27 -->
<g id="edge52" class="edge"><title>Node4&#45;&gt;Node27</title>
<path fill="none" stroke="midnightblue" d="M1077.51,-69.0186C1080.38,-68.6285 1083.23,-68.2825 1086,-68 1646.88,-10.8586 1796.52,-116.064 2354,-32 2359.98,-31.0985 2366.24,-29.7508 2372.29,-28.2267"/>
<polygon fill="midnightblue" stroke="midnightblue" points="2373.45,-31.538 2382.18,-25.5427 2371.62,-24.782 2373.45,-31.538"/>
</g>
<!-- Node29 -->
<g id="node57" class="node"><title>Node29</title>
<a xlink:href="queue_8hpp.html" target="_top" xlink:title="Om header file.">
<polygon fill="none" stroke="black" points="1087,-124.5 1087,-143.5 1165,-143.5 1165,-124.5 1087,-124.5"/>
<text text-anchor="middle" x="1126" y="-131.5" font-family="Helvetica,sans-Serif" font-size="10.00">om/queue.hpp</text>
</a>
</g>
<!-- Node28&#45;&gt;Node29 -->
<g id="edge56" class="edge"><title>Node28&#45;&gt;Node29</title>
<path fill="none" stroke="midnightblue" d="M1194.83,-180.324C1182.15,-171.979 1162.77,-159.212 1147.79,-149.352"/>
<polygon fill="midnightblue" stroke="midnightblue" points="1149.42,-146.231 1139.14,-143.655 1145.57,-152.078 1149.42,-146.231"/>
</g>
<!-- Node31 -->
<g id="node63" class="node"><title>Node31</title>
<a xlink:href="default__queue_8cpp.html" target="_top" xlink:title="Om source file.">
<polygon fill="none" stroke="black" points="1183,-124.5 1183,-143.5 1293,-143.5 1293,-124.5 1183,-124.5"/>
<text text-anchor="middle" x="1238" y="-131.5" font-family="Helvetica,sans-Serif" font-size="10.00">om/default_queue.cpp</text>
</a>
</g>
<!-- Node28&#45;&gt;Node31 -->
<g id="edge64" class="edge"><title>Node28&#45;&gt;Node31</title>
<path fill="none" stroke="midnightblue" d="M1207.79,-180.083C1210.39,-172.534 1216.13,-161.495 1222.09,-152.23"/>
<polygon fill="midnightblue" stroke="midnightblue" points="1225.15,-153.954 1228.01,-143.751 1219.41,-149.946 1225.15,-153.954"/>
</g>
<!-- Node29&#45;&gt;Node4 -->
<g id="edge58" class="edge"><title>Node29&#45;&gt;Node4</title>
<path fill="none" stroke="midnightblue" d="M1111.38,-124.324C1097.05,-115.822 1074.99,-102.729 1058.25,-92.7975"/>
<polygon fill="midnightblue" stroke="midnightblue" points="1059.97,-89.7478 1049.58,-87.6545 1056.4,-95.7677 1059.97,-89.7478"/>
</g>
<!-- Node30 -->
<g id="node60" class="node"><title>Node30</title>
<a xlink:href="queue_8cpp.html" target="_top" xlink:title="Om source file.">
<polygon fill="none" stroke="black" points="1095.5,-68.5 1095.5,-87.5 1172.5,-87.5 1172.5,-68.5 1095.5,-68.5"/>
<text text-anchor="middle" x="1134" y="-75.5" font-family="Helvetica,sans-Serif" font-size="10.00">om/queue.cpp</text>
</a>
</g>
<!-- Node29&#45;&gt;Node30 -->
<g id="edge60" class="edge"><title>Node29&#45;&gt;Node30</title>
<path fill="none" stroke="midnightblue" d="M1122.15,-124.083C1121.7,-116.849 1122.82,-106.409 1124.84,-97.3968"/>
<polygon fill="midnightblue" stroke="midnightblue" points="1128.21,-98.3265 1127.57,-87.7511 1121.48,-96.4178 1128.21,-98.3265"/>
</g>
<!-- Node30&#45;&gt;Node29 -->
<g id="edge62" class="edge"><title>Node30&#45;&gt;Node29</title>
<path fill="none" stroke="midnightblue" d="M1137.83,-87.7511C1138.31,-94.936 1137.21,-105.362 1135.21,-114.396"/>
<polygon fill="midnightblue" stroke="midnightblue" points="1131.82,-113.509 1132.49,-124.083 1138.56,-115.401 1131.82,-113.509"/>
</g>
<!-- Node31&#45;&gt;Node28 -->
<g id="edge66" class="edge"><title>Node31&#45;&gt;Node28</title>
<path fill="none" stroke="midnightblue" d="M1238.27,-143.751C1235.69,-151.327 1229.88,-162.505 1223.86,-171.855"/>
<polygon fill="midnightblue" stroke="midnightblue" points="1220.97,-169.879 1218.12,-180.083 1226.71,-173.883 1220.97,-169.879"/>
</g>
</g>
</svg>
