<?xml version="1.0" encoding="UTF-8" standalone="no"?>
<!DOCTYPE svg PUBLIC "-//W3C//DTD SVG 1.1//EN"
 "http://www.w3.org/Graphics/SVG/1.1/DTD/svg11.dtd">
<!-- Generated by graphviz version 2.30.1 (20130221.2233)
 -->
<!-- Title: code/om/writer.hpp Pages: 1 -->
<svg width="436pt" height="204pt"
 viewBox="0.00 0.00 436.00 204.00" xmlns="http://www.w3.org/2000/svg" xmlns:xlink="http://www.w3.org/1999/xlink">
<g id="graph0" class="graph" transform="scale(1 1) rotate(0) translate(4 200)">
<title>code/om/writer.hpp</title>
<!-- Node1 -->
<g id="node1" class="node"><title>Node1</title>
<polygon fill="#bfbfbf" stroke="black" points="279.754,-175 279.754,-195 380.246,-195 380.246,-175 279.754,-175"/>
<text text-anchor="middle" x="330" y="-181" font-family="Helvetica,sans-Serif" font-size="10.00">code/om/writer.hpp</text>
</g>
<!-- Node2 -->
<g id="node2" class="node"><title>Node2</title>
<g id="a_node2"><a xlink:href="code__point_8hpp.html" target="_top" xlink:title="Om header file.">
<polygon fill="none" stroke="black" points="57.4683,-117 57.4683,-137 158.532,-137 158.532,-117 57.4683,-117"/>
<text text-anchor="middle" x="108" y="-123" font-family="Helvetica,sans-Serif" font-size="10.00">om/code_point.hpp</text>
</a>
</g>
</g>
<!-- Node1&#45;&gt;Node2 -->
<g id="edge1" class="edge"><title>Node1&#45;&gt;Node2</title>
<path fill="none" stroke="midnightblue" d="M293.838,-174.878C255.587,-165.229 195.141,-149.982 153.636,-139.512"/>
<polygon fill="midnightblue" stroke="midnightblue" points="154.331,-136.078 143.779,-137.025 152.619,-142.865 154.331,-136.078"/>
</g>
<!-- Node4 -->
<g id="node4" class="node"><title>Node4</title>
<g id="a_node4"><a xlink:href="default__consumer_8hpp.html" target="_top" xlink:title="Om header file.">
<polygon fill="none" stroke="black" points="204.461,-117 204.461,-137 335.539,-137 335.539,-117 204.461,-117"/>
<text text-anchor="middle" x="270" y="-123" font-family="Helvetica,sans-Serif" font-size="10.00">om/default_consumer.hpp</text>
</a>
</g>
</g>
<!-- Node1&#45;&gt;Node4 -->
<g id="edge3" class="edge"><title>Node1&#45;&gt;Node4</title>
<path fill="none" stroke="midnightblue" d="M320.092,-174.753C311.18,-166.435 297.89,-154.031 287.238,-144.089"/>
<polygon fill="midnightblue" stroke="midnightblue" points="289.422,-141.34 279.723,-137.075 284.646,-146.457 289.422,-141.34"/>
</g>
<!-- Node8 -->
<g id="node8" class="node"><title>Node8</title>
<g id="a_node8"><a xlink:href="writer_8cpp.html" target="_top" xlink:title="Om source file.">
<polygon fill="none" stroke="black" points="353.266,-117 353.266,-137 428.734,-137 428.734,-117 353.266,-117"/>
<text text-anchor="middle" x="391" y="-123" font-family="Helvetica,sans-Serif" font-size="10.00">om/writer.cpp</text>
</a>
</g>
</g>
<!-- Node1&#45;&gt;Node8 -->
<g id="edge9" class="edge"><title>Node1&#45;&gt;Node8</title>
<path fill="none" stroke="midnightblue" d="M334.907,-174.753C342.42,-166.272 355.969,-153.543 367.995,-143.507"/>
<polygon fill="midnightblue" stroke="midnightblue" points="370.389,-146.073 375.984,-137.075 365.999,-140.62 370.389,-146.073"/>
</g>
<!-- Node3 -->
<g id="node3" class="node"><title>Node3</title>
<polygon fill="none" stroke="#bfbfbf" points="-0.364258,-59 -0.364258,-79 102.364,-79 102.364,-59 -0.364258,-59"/>
<text text-anchor="middle" x="51" y="-65" font-family="Helvetica,sans-Serif" font-size="10.00">boost/locale/utf.hpp</text>
</g>
<!-- Node2&#45;&gt;Node3 -->
<g id="edge2" class="edge"><title>Node2&#45;&gt;Node3</title>
<path fill="none" stroke="midnightblue" d="M98.5876,-116.753C90.1213,-108.435 77.4958,-96.031 67.3766,-86.0893"/>
<polygon fill="midnightblue" stroke="midnightblue" points="69.8235,-83.5868 60.2372,-79.0752 64.9178,-88.5801 69.8235,-83.5868"/>
</g>
<!-- Node5 -->
<g id="node5" class="node"><title>Node5</title>
<g id="a_node5"><a xlink:href="consumer_8hpp.html" target="_top" xlink:title="Om header file.">
<polygon fill="none" stroke="black" points="120.254,-59 120.254,-79 215.746,-79 215.746,-59 120.254,-59"/>
<text text-anchor="middle" x="168" y="-65" font-family="Helvetica,sans-Serif" font-size="10.00">om/consumer.hpp</text>
</a>
</g>
</g>
<!-- Node4&#45;&gt;Node5 -->
<g id="edge4" class="edge"><title>Node4&#45;&gt;Node5</title>
<path fill="none" stroke="midnightblue" d="M253.157,-116.753C236.892,-107.823 212.051,-94.1848 193.388,-83.9388"/>
<polygon fill="midnightblue" stroke="midnightblue" points="194.98,-80.8198 184.53,-79.0752 191.611,-86.9559 194.98,-80.8198"/>
</g>
<!-- Node7 -->
<g id="node7" class="node"><title>Node7</title>
<g id="a_node7"><a xlink:href="default__consumer_8cpp.html" target="_top" xlink:title="Om source file.">
<polygon fill="none" stroke="black" points="233.742,-59 233.742,-79 364.258,-79 364.258,-59 233.742,-59"/>
<text text-anchor="middle" x="299" y="-65" font-family="Helvetica,sans-Serif" font-size="10.00">om/default_consumer.cpp</text>
</a>
</g>
</g>
<!-- Node4&#45;&gt;Node7 -->
<g id="edge7" class="edge"><title>Node4&#45;&gt;Node7</title>
<path fill="none" stroke="midnightblue" d="M269.622,-116.753C272.11,-108.843 277.737,-97.2372 283.587,-87.5683"/>
<polygon fill="midnightblue" stroke="midnightblue" points="286.602,-89.3542 289.169,-79.0752 280.752,-85.5093 286.602,-89.3542"/>
</g>
<!-- Node6 -->
<g id="node6" class="node"><title>Node6</title>
<g id="a_node6"><a xlink:href="consumer_8cpp.html" target="_top" xlink:title="Om source file.">
<polygon fill="none" stroke="black" points="120.535,-1 120.535,-21 215.465,-21 215.465,-1 120.535,-1"/>
<text text-anchor="middle" x="168" y="-7" font-family="Helvetica,sans-Serif" font-size="10.00">om/consumer.cpp</text>
</a>
</g>
</g>
<!-- Node5&#45;&gt;Node6 -->
<g id="edge5" class="edge"><title>Node5&#45;&gt;Node6</title>
<path fill="none" stroke="midnightblue" d="M162.834,-58.7527C161.308,-51.2504 160.884,-40.4238 161.564,-31.0781"/>
<polygon fill="midnightblue" stroke="midnightblue" points="165.046,-31.4439 162.869,-21.0752 158.105,-30.5385 165.046,-31.4439"/>
</g>
<!-- Node6&#45;&gt;Node5 -->
<g id="edge6" class="edge"><title>Node6&#45;&gt;Node5</title>
<path fill="none" stroke="midnightblue" d="M173.131,-21.0752C174.674,-28.5262 175.114,-39.3384 174.451,-48.7065"/>
<polygon fill="midnightblue" stroke="midnightblue" points="170.963,-48.3895 173.166,-58.7527 177.907,-49.2776 170.963,-48.3895"/>
</g>
<!-- Node7&#45;&gt;Node4 -->
<g id="edge8" class="edge"><title>Node7&#45;&gt;Node4</title>
<path fill="none" stroke="midnightblue" d="M299.431,-79.0752C296.99,-86.9312 291.388,-98.5235 285.541,-108.22"/>
<polygon fill="midnightblue" stroke="midnightblue" points="282.504,-106.469 279.955,-116.753 288.361,-110.303 282.504,-106.469"/>
</g>
<!-- Node8&#45;&gt;Node1 -->
<g id="edge10" class="edge"><title>Node8&#45;&gt;Node1</title>
<path fill="none" stroke="midnightblue" d="M386.246,-137.075C378.815,-145.498 365.296,-158.216 353.25,-168.288"/>
<polygon fill="midnightblue" stroke="midnightblue" points="350.823,-165.749 345.239,-174.753 355.219,-171.196 350.823,-165.749"/>
</g>
</g>
</svg>
