<?xml version="1.0" encoding="UTF-8" standalone="no"?>
<!DOCTYPE svg PUBLIC "-//W3C//DTD SVG 1.1//EN"
 "http://www.w3.org/Graphics/SVG/1.1/DTD/svg11.dtd">
<!-- Generated by graphviz version 2.28.0 (20120817.0054)
 -->
<!-- Title: code/om/writer.cpp Pages: 1 -->
<svg width="332pt" height="252pt"
 viewBox="0.00 0.00 332.00 252.00" xmlns="http://www.w3.org/2000/svg" xmlns:xlink="http://www.w3.org/1999/xlink">
<g id="graph1" class="graph" transform="scale(1 1) rotate(0) translate(4 248)">
<title>code/om/writer.cpp</title>
<!-- Node1 -->
<g id="node1" class="node"><title>Node1</title>
<polygon fill="#bfbfbf" stroke="black" points="123,-224.5 123,-243.5 219,-243.5 219,-224.5 123,-224.5"/>
<text text-anchor="middle" x="171" y="-231.5" font-family="Helvetica,sans-Serif" font-size="10.00">code/om/writer.cpp</text>
</g>
<!-- Node2 -->
<g id="node3" class="node"><title>Node2</title>
<a xlink:href="writer_8hpp.html" target="_top" xlink:title="Om header file.">
<polygon fill="none" stroke="black" points="134,-168.5 134,-187.5 208,-187.5 208,-168.5 134,-168.5"/>
<text text-anchor="middle" x="171" y="-175.5" font-family="Helvetica,sans-Serif" font-size="10.00">om/writer.hpp</text>
</a>
</g>
<!-- Node1&#45;&gt;Node2 -->
<g id="edge2" class="edge"><title>Node1&#45;&gt;Node2</title>
<path fill="none" stroke="midnightblue" d="M165.834,-224.083C164.324,-216.927 163.894,-206.635 164.542,-197.691"/>
<polygon fill="midnightblue" stroke="midnightblue" points="168.015,-198.126 165.869,-187.751 161.077,-197.2 168.015,-198.126"/>
</g>
<!-- Node2&#45;&gt;Node1 -->
<g id="edge22" class="edge"><title>Node2&#45;&gt;Node1</title>
<path fill="none" stroke="midnightblue" d="M176.131,-187.751C177.657,-194.858 178.104,-205.136 177.472,-214.101"/>
<polygon fill="midnightblue" stroke="midnightblue" points="173.993,-213.713 176.166,-224.083 180.934,-214.622 173.993,-213.713"/>
</g>
<!-- Node3 -->
<g id="node5" class="node"><title>Node3</title>
<a xlink:href="code__point_8hpp.html" target="_top" xlink:title="Om header file.">
<polygon fill="none" stroke="black" points="49,-112.5 49,-131.5 147,-131.5 147,-112.5 49,-112.5"/>
<text text-anchor="middle" x="98" y="-119.5" font-family="Helvetica,sans-Serif" font-size="10.00">om/code_point.hpp</text>
</a>
</g>
<!-- Node2&#45;&gt;Node3 -->
<g id="edge4" class="edge"><title>Node2&#45;&gt;Node3</title>
<path fill="none" stroke="midnightblue" d="M159.271,-168.324C148.163,-160.107 131.258,-147.602 118.017,-137.807"/>
<polygon fill="midnightblue" stroke="midnightblue" points="120.063,-134.967 109.942,-131.834 115.9,-140.595 120.063,-134.967"/>
</g>
<!-- Node5 -->
<g id="node9" class="node"><title>Node5</title>
<a xlink:href="default__queue_8hpp.html" target="_top" xlink:title="Om header file.">
<polygon fill="none" stroke="black" points="189.5,-112.5 189.5,-131.5 300.5,-131.5 300.5,-112.5 189.5,-112.5"/>
<text text-anchor="middle" x="245" y="-119.5" font-family="Helvetica,sans-Serif" font-size="10.00">om/default_queue.hpp</text>
</a>
</g>
<!-- Node2&#45;&gt;Node5 -->
<g id="edge8" class="edge"><title>Node2&#45;&gt;Node5</title>
<path fill="none" stroke="midnightblue" d="M182.889,-168.324C194.15,-160.107 211.287,-147.602 224.709,-137.807"/>
<polygon fill="midnightblue" stroke="midnightblue" points="226.88,-140.556 232.894,-131.834 222.753,-134.901 226.88,-140.556"/>
</g>
<!-- Node4 -->
<g id="node7" class="node"><title>Node4</title>
<polygon fill="none" stroke="#bfbfbf" points="0,-56.5 0,-75.5 100,-75.5 100,-56.5 0,-56.5"/>
<text text-anchor="middle" x="50" y="-63.5" font-family="Helvetica,sans-Serif" font-size="10.00">boost/locale/utf.hpp</text>
</g>
<!-- Node3&#45;&gt;Node4 -->
<g id="edge6" class="edge"><title>Node3&#45;&gt;Node4</title>
<path fill="none" stroke="midnightblue" d="M90.0738,-112.083C83.1539,-104.298 72.9346,-92.8015 64.548,-83.3665"/>
<polygon fill="midnightblue" stroke="midnightblue" points="67.0383,-80.8999 57.7787,-75.7511 61.8065,-85.5505 67.0383,-80.8999"/>
</g>
<!-- Node6 -->
<g id="node11" class="node"><title>Node6</title>
<a xlink:href="queue_8hpp.html" target="_top" xlink:title="Om header file.">
<polygon fill="none" stroke="black" points="118,-56.5 118,-75.5 196,-75.5 196,-56.5 118,-56.5"/>
<text text-anchor="middle" x="157" y="-63.5" font-family="Helvetica,sans-Serif" font-size="10.00">om/queue.hpp</text>
</a>
</g>
<!-- Node5&#45;&gt;Node6 -->
<g id="edge10" class="edge"><title>Node5&#45;&gt;Node6</title>
<path fill="none" stroke="midnightblue" d="M230.861,-112.324C217.134,-103.9 196.064,-90.9709 179.936,-81.0741"/>
<polygon fill="midnightblue" stroke="midnightblue" points="181.457,-77.9016 171.104,-75.6545 177.796,-83.8678 181.457,-77.9016"/>
</g>
<!-- Node9 -->
<g id="node18" class="node"><title>Node9</title>
<a xlink:href="default__queue_8cpp.html" target="_top" xlink:title="Om source file.">
<polygon fill="none" stroke="black" points="214,-56.5 214,-75.5 324,-75.5 324,-56.5 214,-56.5"/>
<text text-anchor="middle" x="269" y="-63.5" font-family="Helvetica,sans-Serif" font-size="10.00">om/default_queue.cpp</text>
</a>
</g>
<!-- Node5&#45;&gt;Node9 -->
<g id="edge18" class="edge"><title>Node5&#45;&gt;Node9</title>
<path fill="none" stroke="midnightblue" d="M243.797,-112.083C245.541,-104.613 249.98,-93.7244 254.848,-84.5199"/>
<polygon fill="midnightblue" stroke="midnightblue" points="257.949,-86.1496 259.98,-75.7511 251.908,-82.6138 257.949,-86.1496"/>
</g>
<!-- Node7 -->
<g id="node13" class="node"><title>Node7</title>
<polygon fill="none" stroke="#bfbfbf" points="50,-0.5 50,-19.5 100,-19.5 100,-0.5 50,-0.5"/>
<text text-anchor="middle" x="75" y="-7.5" font-family="Helvetica,sans-Serif" font-size="10.00">memory</text>
</g>
<!-- Node6&#45;&gt;Node7 -->
<g id="edge12" class="edge"><title>Node6&#45;&gt;Node7</title>
<path fill="none" stroke="midnightblue" d="M143.825,-56.324C131.153,-47.979 111.767,-35.2122 96.7944,-25.3524"/>
<polygon fill="midnightblue" stroke="midnightblue" points="98.4187,-22.2313 88.142,-19.6545 94.5688,-28.0776 98.4187,-22.2313"/>
</g>
<!-- Node8 -->
<g id="node15" class="node"><title>Node8</title>
<a xlink:href="queue_8cpp.html" target="_top" xlink:title="Om source file.">
<polygon fill="none" stroke="black" points="118.5,-0.5 118.5,-19.5 195.5,-19.5 195.5,-0.5 118.5,-0.5"/>
<text text-anchor="middle" x="157" y="-7.5" font-family="Helvetica,sans-Serif" font-size="10.00">om/queue.cpp</text>
</a>
</g>
<!-- Node6&#45;&gt;Node8 -->
<g id="edge14" class="edge"><title>Node6&#45;&gt;Node8</title>
<path fill="none" stroke="midnightblue" d="M151.834,-56.083C150.324,-48.9272 149.894,-38.6353 150.542,-29.6911"/>
<polygon fill="midnightblue" stroke="midnightblue" points="154.015,-30.1262 151.869,-19.7511 147.077,-29.2002 154.015,-30.1262"/>
</g>
<!-- Node8&#45;&gt;Node6 -->
<g id="edge16" class="edge"><title>Node8&#45;&gt;Node6</title>
<path fill="none" stroke="midnightblue" d="M162.131,-19.7511C163.657,-26.8579 164.104,-37.1357 163.472,-46.1005"/>
<polygon fill="midnightblue" stroke="midnightblue" points="159.993,-45.7134 162.166,-56.083 166.934,-46.6216 159.993,-45.7134"/>
</g>
<!-- Node9&#45;&gt;Node5 -->
<g id="edge20" class="edge"><title>Node9&#45;&gt;Node5</title>
<path fill="none" stroke="midnightblue" d="M270.242,-75.7511C268.538,-83.1703 264.121,-94.0454 259.261,-103.275"/>
<polygon fill="midnightblue" stroke="midnightblue" points="256.139,-101.68 254.129,-112.083 262.187,-105.204 256.139,-101.68"/>
</g>
</g>
</svg>
