<?xml version="1.0" encoding="UTF-8" standalone="no"?>
<!DOCTYPE svg PUBLIC "-//W3C//DTD SVG 1.1//EN"
 "http://www.w3.org/Graphics/SVG/1.1/DTD/svg11.dtd">
<!-- Generated by graphviz version 2.28.0 (20120817.0054)
 -->
<!-- Title: code/om/writer.cpp Pages: 1 -->
<svg width="2356pt" height="320pt"
 viewBox="0.00 0.00 2356.00 320.00" xmlns="http://www.w3.org/2000/svg" xmlns:xlink="http://www.w3.org/1999/xlink">
<g id="graph1" class="graph" transform="scale(1 1) rotate(0) translate(4 316)">
<title>code/om/writer.cpp</title>
<!-- Node1 -->
<g id="node1" class="node"><title>Node1</title>
<polygon fill="#bfbfbf" stroke="black" points="1053,-292.5 1053,-311.5 1149,-311.5 1149,-292.5 1053,-292.5"/>
<text text-anchor="middle" x="1101" y="-299.5" font-family="Helvetica,sans-Serif" font-size="10.00">code/om/writer.cpp</text>
</g>
<!-- Node2 -->
<g id="node3" class="node"><title>Node2</title>
<a xlink:href="writer_8hpp.html" target="_top" xlink:title="Om hpp file.">
<polygon fill="none" stroke="black" points="1064,-236.5 1064,-255.5 1138,-255.5 1138,-236.5 1064,-236.5"/>
<text text-anchor="middle" x="1101" y="-243.5" font-family="Helvetica,sans-Serif" font-size="10.00">om/writer.hpp</text>
</a>
</g>
<!-- Node1&#45;&gt;Node2 -->
<g id="edge2" class="edge"><title>Node1&#45;&gt;Node2</title>
<path fill="none" stroke="midnightblue" d="M1095.83,-292.083C1094.32,-284.927 1093.89,-274.635 1094.54,-265.691"/>
<polygon fill="midnightblue" stroke="midnightblue" points="1098.02,-266.126 1095.87,-255.751 1091.08,-265.2 1098.02,-266.126"/>
</g>
<!-- Node2&#45;&gt;Node1 -->
<g id="edge66" class="edge"><title>Node2&#45;&gt;Node1</title>
<path fill="none" stroke="midnightblue" d="M1106.13,-255.751C1107.66,-262.858 1108.1,-273.136 1107.47,-282.101"/>
<polygon fill="midnightblue" stroke="midnightblue" points="1103.99,-281.713 1106.17,-292.083 1110.93,-282.622 1103.99,-281.713"/>
</g>
<!-- Node3 -->
<g id="node5" class="node"><title>Node3</title>
<a xlink:href="code__point_8hpp.html" target="_top" xlink:title="Om hpp file.">
<polygon fill="none" stroke="black" points="977,-180.5 977,-199.5 1075,-199.5 1075,-180.5 977,-180.5"/>
<text text-anchor="middle" x="1026" y="-187.5" font-family="Helvetica,sans-Serif" font-size="10.00">om/code_point.hpp</text>
</a>
</g>
<!-- Node2&#45;&gt;Node3 -->
<g id="edge4" class="edge"><title>Node2&#45;&gt;Node3</title>
<path fill="none" stroke="midnightblue" d="M1088.95,-236.324C1077.54,-228.107 1060.17,-215.602 1046.57,-205.807"/>
<polygon fill="midnightblue" stroke="midnightblue" points="1048.43,-202.837 1038.27,-199.834 1044.34,-208.517 1048.43,-202.837"/>
</g>
<!-- Node27 -->
<g id="node53" class="node"><title>Node27</title>
<a xlink:href="default__queue_8hpp.html" target="_top" xlink:title="Om hpp file.">
<polygon fill="none" stroke="black" points="1121.5,-180.5 1121.5,-199.5 1232.5,-199.5 1232.5,-180.5 1121.5,-180.5"/>
<text text-anchor="middle" x="1177" y="-187.5" font-family="Helvetica,sans-Serif" font-size="10.00">om/default_queue.hpp</text>
</a>
</g>
<!-- Node2&#45;&gt;Node27 -->
<g id="edge52" class="edge"><title>Node2&#45;&gt;Node27</title>
<path fill="none" stroke="midnightblue" d="M1113.21,-236.324C1124.78,-228.107 1142.38,-215.602 1156.16,-205.807"/>
<polygon fill="midnightblue" stroke="midnightblue" points="1158.44,-208.479 1164.57,-199.834 1154.39,-202.773 1158.44,-208.479"/>
</g>
<!-- Node4 -->
<g id="node7" class="node"><title>Node4</title>
<a xlink:href="external_8hpp.html" target="_top" xlink:title="Om hpp file.">
<polygon fill="none" stroke="black" points="971.5,-68.5 971.5,-87.5 1040.5,-87.5 1040.5,-68.5 971.5,-68.5"/>
<text text-anchor="middle" x="1006" y="-75.5" font-family="Helvetica,sans-Serif" font-size="10.00">external.hpp</text>
</a>
</g>
<!-- Node3&#45;&gt;Node4 -->
<g id="edge6" class="edge"><title>Node3&#45;&gt;Node4</title>
<path fill="none" stroke="midnightblue" d="M1024.43,-180.368C1021.2,-162.617 1013.76,-121.666 1009.38,-97.5974"/>
<polygon fill="midnightblue" stroke="midnightblue" points="1012.79,-96.804 1007.56,-87.5914 1005.91,-98.0562 1012.79,-96.804"/>
</g>
<!-- Node5 -->
<g id="node9" class="node"><title>Node5</title>
<polygon fill="none" stroke="#bfbfbf" points="-0.5,-6.5 -0.5,-25.5 46.5,-25.5 46.5,-6.5 -0.5,-6.5"/>
<text text-anchor="middle" x="23" y="-13.5" font-family="Helvetica,sans-Serif" font-size="10.00">cassert</text>
</g>
<!-- Node4&#45;&gt;Node5 -->
<g id="edge8" class="edge"><title>Node4&#45;&gt;Node5</title>
<path fill="none" stroke="midnightblue" d="M971.383,-77.1044C822.343,-77.287 234.858,-75.1975 56,-32 53.3389,-31.3573 50.6294,-30.4999 47.9647,-29.5194"/>
<polygon fill="midnightblue" stroke="midnightblue" points="49.2501,-26.2629 38.6766,-25.5918 46.5238,-32.7102 49.2501,-26.2629"/>
</g>
<!-- Node6 -->
<g id="node11" class="node"><title>Node6</title>
<polygon fill="none" stroke="#bfbfbf" points="65,-6.5 65,-25.5 117,-25.5 117,-6.5 65,-6.5"/>
<text text-anchor="middle" x="91" y="-13.5" font-family="Helvetica,sans-Serif" font-size="10.00">iostream</text>
</g>
<!-- Node4&#45;&gt;Node6 -->
<g id="edge10" class="edge"><title>Node4&#45;&gt;Node6</title>
<path fill="none" stroke="midnightblue" d="M971.353,-76.8549C829.278,-76.0096 291.038,-70.2932 126,-32 123.102,-31.3276 120.141,-30.4281 117.23,-29.4021"/>
<polygon fill="midnightblue" stroke="midnightblue" points="118.265,-26.0465 107.681,-25.5729 115.66,-32.5435 118.265,-26.0465"/>
</g>
<!-- Node7 -->
<g id="node13" class="node"><title>Node7</title>
<polygon fill="none" stroke="#bfbfbf" points="135,-6.5 135,-25.5 179,-25.5 179,-6.5 135,-6.5"/>
<text text-anchor="middle" x="157" y="-13.5" font-family="Helvetica,sans-Serif" font-size="10.00">iterator</text>
</g>
<!-- Node4&#45;&gt;Node7 -->
<g id="edge12" class="edge"><title>Node4&#45;&gt;Node7</title>
<path fill="none" stroke="midnightblue" d="M971.471,-76.9044C835.843,-76.2512 339.651,-71.1769 188,-32 185.656,-31.3943 183.277,-30.6049 180.934,-29.705"/>
<polygon fill="midnightblue" stroke="midnightblue" points="182.237,-26.4538 171.679,-25.5715 179.382,-32.8453 182.237,-26.4538"/>
</g>
<!-- Node8 -->
<g id="node15" class="node"><title>Node8</title>
<polygon fill="none" stroke="#bfbfbf" points="197,-6.5 197,-25.5 247,-25.5 247,-6.5 197,-6.5"/>
<text text-anchor="middle" x="222" y="-13.5" font-family="Helvetica,sans-Serif" font-size="10.00">memory</text>
</g>
<!-- Node4&#45;&gt;Node8 -->
<g id="edge14" class="edge"><title>Node4&#45;&gt;Node8</title>
<path fill="none" stroke="midnightblue" d="M971.351,-76.5463C842.943,-74.6133 394.501,-65.5576 256,-32 253.178,-31.3163 250.298,-30.4096 247.467,-29.3792"/>
<polygon fill="midnightblue" stroke="midnightblue" points="248.767,-26.1293 238.188,-25.5448 246.093,-32.5987 248.767,-26.1293"/>
</g>
<!-- Node9 -->
<g id="node17" class="node"><title>Node9</title>
<polygon fill="none" stroke="#bfbfbf" points="265.5,-6.5 265.5,-25.5 304.5,-25.5 304.5,-6.5 265.5,-6.5"/>
<text text-anchor="middle" x="285" y="-13.5" font-family="Helvetica,sans-Serif" font-size="10.00">stack</text>
</g>
<!-- Node4&#45;&gt;Node9 -->
<g id="edge16" class="edge"><title>Node4&#45;&gt;Node9</title>
<path fill="none" stroke="midnightblue" d="M971.475,-76.621C849.563,-74.9932 439.854,-66.9857 314,-32 312.034,-31.4535 310.047,-30.764 308.085,-29.9826"/>
<polygon fill="midnightblue" stroke="midnightblue" points="309.218,-26.6472 298.68,-25.546 306.231,-32.9781 309.218,-26.6472"/>
</g>
<!-- Node10 -->
<g id="node19" class="node"><title>Node10</title>
<polygon fill="none" stroke="#bfbfbf" points="323,-6.5 323,-25.5 381,-25.5 381,-6.5 323,-6.5"/>
<text text-anchor="middle" x="352" y="-13.5" font-family="Helvetica,sans-Serif" font-size="10.00">stdexcept</text>
</g>
<!-- Node4&#45;&gt;Node10 -->
<g id="edge18" class="edge"><title>Node4&#45;&gt;Node10</title>
<path fill="none" stroke="midnightblue" d="M971.128,-75.8397C857.989,-71.8579 501.988,-57.5656 390,-32 386.75,-31.2581 383.413,-30.283 380.129,-29.1853"/>
<polygon fill="midnightblue" stroke="midnightblue" points="381.177,-25.8406 370.584,-25.6354 378.737,-32.4016 381.177,-25.8406"/>
</g>
<!-- Node11 -->
<g id="node21" class="node"><title>Node11</title>
<polygon fill="none" stroke="#bfbfbf" points="399,-6.5 399,-25.5 437,-25.5 437,-6.5 399,-6.5"/>
<text text-anchor="middle" x="418" y="-13.5" font-family="Helvetica,sans-Serif" font-size="10.00">string</text>
</g>
<!-- Node4&#45;&gt;Node11 -->
<g id="edge20" class="edge"><title>Node4&#45;&gt;Node11</title>
<path fill="none" stroke="midnightblue" d="M971.225,-76.065C864.891,-72.9144 545.305,-61.2015 446,-32 444.095,-31.4399 442.173,-30.7407 440.275,-29.9526"/>
<polygon fill="midnightblue" stroke="midnightblue" points="441.709,-26.7579 431.189,-25.5037 438.631,-33.0447 441.709,-26.7579"/>
</g>
<!-- Node12 -->
<g id="node23" class="node"><title>Node12</title>
<polygon fill="none" stroke="#bfbfbf" points="455,-6.5 455,-25.5 583,-25.5 583,-6.5 455,-6.5"/>
<text text-anchor="middle" x="519" y="-13.5" font-family="Helvetica,sans-Serif" font-size="10.00">boost/checked_delete.hpp</text>
</g>
<!-- Node4&#45;&gt;Node12 -->
<g id="edge22" class="edge"><title>Node4&#45;&gt;Node12</title>
<path fill="none" stroke="midnightblue" d="M971.233,-74.3369C899.873,-68.6257 731.817,-53.9135 592,-32 583.912,-30.7324 575.363,-29.1751 567.074,-27.5487"/>
<polygon fill="midnightblue" stroke="midnightblue" points="567.636,-24.0916 557.142,-25.5454 566.252,-30.9535 567.636,-24.0916"/>
</g>
<!-- Node13 -->
<g id="node25" class="node"><title>Node13</title>
<polygon fill="none" stroke="#bfbfbf" points="601.5,-6.5 601.5,-25.5 716.5,-25.5 716.5,-6.5 601.5,-6.5"/>
<text text-anchor="middle" x="659" y="-13.5" font-family="Helvetica,sans-Serif" font-size="10.00">boost/integer_traits.hpp</text>
</g>
<!-- Node4&#45;&gt;Node13 -->
<g id="edge24" class="edge"><title>Node4&#45;&gt;Node13</title>
<path fill="none" stroke="midnightblue" d="M971.265,-72.1756C918.064,-64.6202 813.282,-49.0823 725,-32 718.334,-30.7102 711.315,-29.2384 704.442,-27.7326"/>
<polygon fill="midnightblue" stroke="midnightblue" points="705.056,-24.2837 694.534,-25.5192 703.53,-31.1153 705.056,-24.2837"/>
</g>
<!-- Node14 -->
<g id="node27" class="node"><title>Node14</title>
<polygon fill="none" stroke="#bfbfbf" points="734.5,-6.5 734.5,-25.5 847.5,-25.5 847.5,-6.5 734.5,-6.5"/>
<text text-anchor="middle" x="791" y="-13.5" font-family="Helvetica,sans-Serif" font-size="10.00">boost/intrusive_ptr.hpp</text>
</g>
<!-- Node4&#45;&gt;Node14 -->
<g id="edge26" class="edge"><title>Node4&#45;&gt;Node14</title>
<path fill="none" stroke="midnightblue" d="M975.196,-68.4035C937.438,-57.8663 873.339,-39.9783 831.591,-28.3276"/>
<polygon fill="midnightblue" stroke="midnightblue" points="832.32,-24.8975 821.747,-25.5806 830.438,-31.6398 832.32,-24.8975"/>
</g>
<!-- Node15 -->
<g id="node29" class="node"><title>Node15</title>
<polygon fill="none" stroke="#bfbfbf" points="865.5,-6.5 865.5,-25.5 996.5,-25.5 996.5,-6.5 865.5,-6.5"/>
<text text-anchor="middle" x="931" y="-13.5" font-family="Helvetica,sans-Serif" font-size="10.00">boost/locale/boundary.hpp</text>
</g>
<!-- Node4&#45;&gt;Node15 -->
<g id="edge28" class="edge"><title>Node4&#45;&gt;Node15</title>
<path fill="none" stroke="midnightblue" d="M995.254,-68.4035C983.447,-58.9579 964.257,-43.6056 949.918,-32.1342"/>
<polygon fill="midnightblue" stroke="midnightblue" points="951.721,-29.0945 941.726,-25.5806 947.348,-34.5606 951.721,-29.0945"/>
</g>
<!-- Node16 -->
<g id="node31" class="node"><title>Node16</title>
<polygon fill="none" stroke="#bfbfbf" points="1014.5,-6.5 1014.5,-25.5 1149.5,-25.5 1149.5,-6.5 1014.5,-6.5"/>
<text text-anchor="middle" x="1082" y="-13.5" font-family="Helvetica,sans-Serif" font-size="10.00">boost/locale/conversion.hpp</text>
</g>
<!-- Node4&#45;&gt;Node16 -->
<g id="edge30" class="edge"><title>Node4&#45;&gt;Node16</title>
<path fill="none" stroke="midnightblue" d="M1016.89,-68.4035C1028.97,-58.8688 1048.67,-43.3154 1063.24,-31.8106"/>
<polygon fill="midnightblue" stroke="midnightblue" points="1065.45,-34.5242 1071.13,-25.5806 1061.11,-29.03 1065.45,-34.5242"/>
</g>
<!-- Node17 -->
<g id="node33" class="node"><title>Node17</title>
<polygon fill="none" stroke="#bfbfbf" points="1168,-6.5 1168,-25.5 1296,-25.5 1296,-6.5 1168,-6.5"/>
<text text-anchor="middle" x="1232" y="-13.5" font-family="Helvetica,sans-Serif" font-size="10.00">boost/locale/encoding.hpp</text>
</g>
<!-- Node4&#45;&gt;Node17 -->
<g id="edge32" class="edge"><title>Node4&#45;&gt;Node17</title>
<path fill="none" stroke="midnightblue" d="M1038.38,-68.4035C1078.24,-57.8217 1146.02,-39.8269 1189.89,-28.1802"/>
<polygon fill="midnightblue" stroke="midnightblue" points="1190.91,-31.5295 1199.68,-25.5806 1189.12,-24.7638 1190.91,-31.5295"/>
</g>
<!-- Node18 -->
<g id="node35" class="node"><title>Node18</title>
<polygon fill="none" stroke="#bfbfbf" points="1314.5,-6.5 1314.5,-25.5 1443.5,-25.5 1443.5,-6.5 1314.5,-6.5"/>
<text text-anchor="middle" x="1379" y="-13.5" font-family="Helvetica,sans-Serif" font-size="10.00">boost/locale/generator.hpp</text>
</g>
<!-- Node4&#45;&gt;Node18 -->
<g id="edge34" class="edge"><title>Node4&#45;&gt;Node18</title>
<path fill="none" stroke="midnightblue" d="M1040.7,-69.5312C1043.5,-68.9904 1046.3,-68.4727 1049,-68 1162.18,-48.2199 1191.76,-51.4217 1305,-32 1312.81,-30.6601 1321.06,-29.1163 1329.11,-27.5397"/>
<polygon fill="midnightblue" stroke="midnightblue" points="1330.02,-30.9269 1339.14,-25.538 1328.65,-24.0622 1330.02,-30.9269"/>
</g>
<!-- Node19 -->
<g id="node37" class="node"><title>Node19</title>
<polygon fill="none" stroke="#bfbfbf" points="1462,-6.5 1462,-25.5 1562,-25.5 1562,-6.5 1462,-6.5"/>
<text text-anchor="middle" x="1512" y="-13.5" font-family="Helvetica,sans-Serif" font-size="10.00">boost/locale/utf.hpp</text>
</g>
<!-- Node4&#45;&gt;Node19 -->
<g id="edge36" class="edge"><title>Node4&#45;&gt;Node19</title>
<path fill="none" stroke="midnightblue" d="M1040.67,-69.3792C1043.48,-68.8725 1046.28,-68.4041 1049,-68 1226.87,-41.5349 1274.68,-61.8977 1452,-32 1458.39,-30.9222 1465.11,-29.5185 1471.64,-28.0025"/>
<polygon fill="midnightblue" stroke="midnightblue" points="1472.78,-31.3256 1481.67,-25.5586 1471.13,-24.5244 1472.78,-31.3256"/>
</g>
<!-- Node20 -->
<g id="node39" class="node"><title>Node20</title>
<polygon fill="none" stroke="#bfbfbf" points="1580,-6.5 1580,-25.5 1676,-25.5 1676,-6.5 1580,-6.5"/>
<text text-anchor="middle" x="1628" y="-13.5" font-family="Helvetica,sans-Serif" font-size="10.00">boost/optional.hpp</text>
</g>
<!-- Node4&#45;&gt;Node20 -->
<g id="edge38" class="edge"><title>Node4&#45;&gt;Node20</title>
<path fill="none" stroke="midnightblue" d="M1040.66,-69.3183C1043.48,-68.8253 1046.28,-68.3766 1049,-68 1279.35,-36.1041 1341.53,-69.7589 1571,-32 1577.23,-30.9751 1583.77,-29.5731 1590.1,-28.0354"/>
<polygon fill="midnightblue" stroke="midnightblue" points="1591,-31.4182 1599.81,-25.5417 1589.26,-24.6381 1591,-31.4182"/>
</g>
<!-- Node21 -->
<g id="node41" class="node"><title>Node21</title>
<polygon fill="none" stroke="#bfbfbf" points="1694.5,-1 1694.5,-31 1791.5,-31 1791.5,-1 1694.5,-1"/>
<text text-anchor="start" x="1702.5" y="-19" font-family="Helvetica,sans-Serif" font-size="10.00">boost/ptr_container</text>
<text text-anchor="middle" x="1743" y="-8" font-family="Helvetica,sans-Serif" font-size="10.00">/ptr_deque.hpp</text>
</g>
<!-- Node4&#45;&gt;Node21 -->
<g id="edge40" class="edge"><title>Node4&#45;&gt;Node21</title>
<path fill="none" stroke="midnightblue" d="M1040.66,-69.2811C1043.47,-68.7965 1046.28,-68.3598 1049,-68 1326.39,-31.3305 1403.47,-74.6169 1684.33,-31.8629"/>
<polygon fill="midnightblue" stroke="midnightblue" points="1685.06,-35.2917 1694.41,-30.3054 1683.99,-28.3739 1685.06,-35.2917"/>
</g>
<!-- Node22 -->
<g id="node43" class="node"><title>Node22</title>
<polygon fill="none" stroke="#bfbfbf" points="1809.5,-1 1809.5,-31 1906.5,-31 1906.5,-1 1809.5,-1"/>
<text text-anchor="start" x="1817.5" y="-19" font-family="Helvetica,sans-Serif" font-size="10.00">boost/ptr_container</text>
<text text-anchor="middle" x="1858" y="-8" font-family="Helvetica,sans-Serif" font-size="10.00">/ptr_map.hpp</text>
</g>
<!-- Node4&#45;&gt;Node22 -->
<g id="edge42" class="edge"><title>Node4&#45;&gt;Node22</title>
<path fill="none" stroke="midnightblue" d="M1040.65,-69.2551C1043.47,-68.7762 1046.28,-68.3481 1049,-68 1377.07,-26.0729 1467.76,-80.95 1799.04,-31.8949"/>
<polygon fill="midnightblue" stroke="midnightblue" points="1800.05,-35.2833 1809.42,-30.3366 1799.01,-28.3609 1800.05,-35.2833"/>
</g>
<!-- Node23 -->
<g id="node45" class="node"><title>Node23</title>
<polygon fill="none" stroke="#bfbfbf" points="1924.5,-1 1924.5,-31 2021.5,-31 2021.5,-1 1924.5,-1"/>
<text text-anchor="start" x="1932.5" y="-19" font-family="Helvetica,sans-Serif" font-size="10.00">boost/ptr_container</text>
<text text-anchor="middle" x="1973" y="-8" font-family="Helvetica,sans-Serif" font-size="10.00">/ptr_vector.hpp</text>
</g>
<!-- Node4&#45;&gt;Node23 -->
<g id="edge44" class="edge"><title>Node4&#45;&gt;Node23</title>
<path fill="none" stroke="midnightblue" d="M1040.65,-69.2359C1043.47,-68.7614 1046.28,-68.3394 1049,-68 1428,-20.7866 1532.18,-87.3859 1914.47,-31.8235"/>
<polygon fill="midnightblue" stroke="midnightblue" points="1915.04,-35.2784 1924.42,-30.3595 1914.02,-28.353 1915.04,-35.2784"/>
</g>
<!-- Node24 -->
<g id="node47" class="node"><title>Node24</title>
<polygon fill="none" stroke="#bfbfbf" points="2039.5,-6.5 2039.5,-25.5 2112.5,-25.5 2112.5,-6.5 2039.5,-6.5"/>
<text text-anchor="middle" x="2076" y="-13.5" font-family="Helvetica,sans-Serif" font-size="10.00">boost/ref.hpp</text>
</g>
<!-- Node4&#45;&gt;Node24 -->
<g id="edge46" class="edge"><title>Node4&#45;&gt;Node24</title>
<path fill="none" stroke="midnightblue" d="M1040.65,-69.2212C1043.47,-68.75 1046.27,-68.3328 1049,-68 1482.08,-15.1197 1600.44,-108.369 2030,-32 2034.59,-31.184 2039.35,-30.0167 2044,-28.689"/>
<polygon fill="midnightblue" stroke="midnightblue" points="2045.36,-31.9286 2053.86,-25.5998 2043.27,-25.2486 2045.36,-31.9286"/>
</g>
<!-- Node25 -->
<g id="node49" class="node"><title>Node25</title>
<polygon fill="none" stroke="#bfbfbf" points="2131,-6.5 2131,-25.5 2241,-25.5 2241,-6.5 2131,-6.5"/>
<text text-anchor="middle" x="2186" y="-13.5" font-family="Helvetica,sans-Serif" font-size="10.00">boost/scoped_ptr.hpp</text>
</g>
<!-- Node4&#45;&gt;Node25 -->
<g id="edge48" class="edge"><title>Node4&#45;&gt;Node25</title>
<path fill="none" stroke="midnightblue" d="M1040.65,-69.2118C1043.46,-68.7427 1046.27,-68.3286 1049,-68 1522.29,-10.9569 1648.32,-93.8853 2121,-32 2128.67,-30.9964 2136.75,-29.4964 2144.52,-27.8271"/>
<polygon fill="midnightblue" stroke="midnightblue" points="2145.51,-31.1915 2154.49,-25.5625 2143.96,-24.3656 2145.51,-31.1915"/>
</g>
<!-- Node26 -->
<g id="node51" class="node"><title>Node26</title>
<polygon fill="none" stroke="#bfbfbf" points="2259.5,-6.5 2259.5,-25.5 2348.5,-25.5 2348.5,-6.5 2259.5,-6.5"/>
<text text-anchor="middle" x="2304" y="-13.5" font-family="Helvetica,sans-Serif" font-size="10.00">boost/swap.hpp</text>
</g>
<!-- Node4&#45;&gt;Node26 -->
<g id="edge50" class="edge"><title>Node4&#45;&gt;Node26</title>
<path fill="none" stroke="midnightblue" d="M1040.65,-69.2009C1043.46,-68.7342 1046.27,-68.3236 1049,-68 1579.29,-5.05519 1722.02,-112.044 2250,-32 2255.98,-31.0937 2262.24,-29.7436 2268.28,-28.2185"/>
<polygon fill="midnightblue" stroke="midnightblue" points="2269.45,-31.5298 2278.18,-25.5342 2267.61,-24.7739 2269.45,-31.5298"/>
</g>
<!-- Node28 -->
<g id="node55" class="node"><title>Node28</title>
<a xlink:href="queue_8hpp.html" target="_top" xlink:title="Om hpp file.">
<polygon fill="none" stroke="black" points="1052,-124.5 1052,-143.5 1130,-143.5 1130,-124.5 1052,-124.5"/>
<text text-anchor="middle" x="1091" y="-131.5" font-family="Helvetica,sans-Serif" font-size="10.00">om/queue.hpp</text>
</a>
</g>
<!-- Node27&#45;&gt;Node28 -->
<g id="edge54" class="edge"><title>Node27&#45;&gt;Node28</title>
<path fill="none" stroke="midnightblue" d="M1163.18,-180.324C1149.77,-171.9 1129.18,-158.971 1113.41,-149.074"/>
<polygon fill="midnightblue" stroke="midnightblue" points="1115.11,-146.008 1104.78,-143.655 1111.39,-151.936 1115.11,-146.008"/>
</g>
<!-- Node30 -->
<g id="node61" class="node"><title>Node30</title>
<a xlink:href="default__queue_8cpp.html" target="_top" xlink:title="Om cpp file.">
<polygon fill="none" stroke="black" points="1148,-124.5 1148,-143.5 1258,-143.5 1258,-124.5 1148,-124.5"/>
<text text-anchor="middle" x="1203" y="-131.5" font-family="Helvetica,sans-Serif" font-size="10.00">om/default_queue.cpp</text>
</a>
</g>
<!-- Node27&#45;&gt;Node30 -->
<g id="edge62" class="edge"><title>Node27&#45;&gt;Node30</title>
<path fill="none" stroke="midnightblue" d="M1176.13,-180.083C1178.15,-172.613 1182.99,-161.724 1188.2,-152.52"/>
<polygon fill="midnightblue" stroke="midnightblue" points="1191.34,-154.091 1193.66,-143.751 1185.4,-150.392 1191.34,-154.091"/>
</g>
<!-- Node28&#45;&gt;Node4 -->
<g id="edge56" class="edge"><title>Node28&#45;&gt;Node4</title>
<path fill="none" stroke="midnightblue" d="M1077.34,-124.324C1064.08,-115.9 1043.73,-102.971 1028.15,-93.0741"/>
<polygon fill="midnightblue" stroke="midnightblue" points="1029.94,-90.0626 1019.62,-87.6545 1026.19,-95.9711 1029.94,-90.0626"/>
</g>
<!-- Node29 -->
<g id="node58" class="node"><title>Node29</title>
<a xlink:href="queue_8cpp.html" target="_top" xlink:title="Om cpp file.">
<polygon fill="none" stroke="black" points="1058.5,-68.5 1058.5,-87.5 1135.5,-87.5 1135.5,-68.5 1058.5,-68.5"/>
<text text-anchor="middle" x="1097" y="-75.5" font-family="Helvetica,sans-Serif" font-size="10.00">om/queue.cpp</text>
</a>
</g>
<!-- Node28&#45;&gt;Node29 -->
<g id="edge58" class="edge"><title>Node28&#45;&gt;Node29</title>
<path fill="none" stroke="midnightblue" d="M1086.82,-124.083C1086.11,-116.927 1086.82,-106.635 1088.47,-97.6911"/>
<polygon fill="midnightblue" stroke="midnightblue" points="1091.92,-98.2963 1090.9,-87.7511 1085.12,-96.6333 1091.92,-98.2963"/>
</g>
<!-- Node29&#45;&gt;Node28 -->
<g id="edge60" class="edge"><title>Node29&#45;&gt;Node28</title>
<path fill="none" stroke="midnightblue" d="M1101.16,-87.7511C1101.9,-94.8579 1101.2,-105.136 1099.57,-114.101"/>
<polygon fill="midnightblue" stroke="midnightblue" points="1096.11,-113.54 1097.16,-124.083 1102.91,-115.187 1096.11,-113.54"/>
</g>
<!-- Node30&#45;&gt;Node27 -->
<g id="edge64" class="edge"><title>Node30&#45;&gt;Node27</title>
<path fill="none" stroke="midnightblue" d="M1203.92,-143.751C1201.92,-151.248 1197.02,-162.275 1191.75,-171.566"/>
<polygon fill="midnightblue" stroke="midnightblue" points="1188.77,-169.742 1186.46,-180.083 1194.71,-173.437 1188.77,-169.742"/>
</g>
</g>
</svg>
